<?xml version="1.0" encoding="UTF-8" standalone="no"?>
<!-- Created with Inkscape (http://www.inkscape.org/) -->
<svg
   xmlns:dc="http://purl.org/dc/elements/1.1/"
   xmlns:cc="http://web.resource.org/cc/"
   xmlns:rdf="http://www.w3.org/1999/02/22-rdf-syntax-ns#"
   xmlns:svg="http://www.w3.org/2000/svg"
   xmlns="http://www.w3.org/2000/svg"
   xmlns:xlink="http://www.w3.org/1999/xlink"
   xmlns:sodipodi="http://inkscape.sourceforge.net/DTD/sodipodi-0.dtd"
   xmlns:inkscape="http://www.inkscape.org/namespaces/inkscape"
   id="svg1"
   sodipodi:version="0.32"
   inkscape:version="0.42.2"
   width="48.000000pt"
   height="48.000000pt"
   sodipodi:docbase="/home/jakob/dev/lila/lila-theme/trunk/lila/kde/scalable/actions"
   sodipodi:docname="quit.svg">
  <metadata
     id="metadata27">
    <rdf:RDF>
      <cc:Work
         rdf:about="">
        <dc:format>image/svg+xml</dc:format>
        <dc:type
           rdf:resource="http://purl.org/dc/dcmitype/StillImage" />
      </cc:Work>
    </rdf:RDF>
  </metadata>
  <defs
     id="defs3">
    <linearGradient
       id="linearGradient679">
      <stop
         style="stop-color:#736b7a;stop-opacity:1;"
         offset="0.00000000"
         id="stop680" />
      <stop
         style="stop-color:#000000;stop-opacity:1;"
         offset="1.00000000"
         id="stop681" />
    </linearGradient>
    <linearGradient
       id="linearGradient584">
      <stop
         style="stop-color:#ffffff;stop-opacity:1;"
         offset="0.00000000"
         id="stop585" />
      <stop
         style="stop-color:#ffffff;stop-opacity:0;"
         offset="1.00000000"
         id="stop586" />
    </linearGradient>
    <linearGradient
       id="linearGradient578">
      <stop
         style="stop-color:#d9cce6;stop-opacity:1;"
         offset="0.00000000"
         id="stop579" />
      <stop
         style="stop-color:#73667f;stop-opacity:1;"
         offset="1.00000000"
         id="stop580" />
    </linearGradient>
    <linearGradient
       xlink:href="#linearGradient578"
       id="linearGradient581"
       x1="23.097435"
       y1="126.76070"
       x2="399.58776"
       y2="494.78285"
       gradientTransform="matrix(9.918965e-2,0.000000,0.000000,0.100612,-1.488147,-1.071408)"
       gradientUnits="userSpaceOnUse" />
    <linearGradient
       xlink:href="#linearGradient584"
       id="linearGradient583"
       x1="54.670945"
       y1="138.51579"
       x2="269.69148"
       y2="351.80499"
       gradientTransform="matrix(8.953058e-2,0.000000,0.000000,0.111467,-1.488147,-1.071408)"
       gradientUnits="userSpaceOnUse" />
    <linearGradient
       xlink:href="#linearGradient679"
       id="linearGradient612"
       x1="484.01278"
       y1="529.16453"
       x2="484.01278"
       y2="22.168175"
       gradientTransform="matrix(8.780722e-2,0.000000,0.000000,0.113655,-1.488147,-1.071408)"
       gradientUnits="userSpaceOnUse" />
    <linearGradient
       xlink:href="#linearGradient578"
       id="linearGradient614"
       x1="222.14321"
       y1="20.131135"
       x2="647.64127"
       y2="20.131135"
       gradientTransform="matrix(7.389147e-2,0.000000,0.000000,0.135059,-1.488147,-1.071408)"
       gradientUnits="userSpaceOnUse" />
    <linearGradient
       xlink:href="#linearGradient584"
       id="linearGradient685"
       x1="335.87687"
       y1="268.76065"
       x2="369.83285"
       y2="302.00747"
       gradientTransform="matrix(0.119268,0.000000,0.000000,8.367483e-2,-1.488147,-1.071408)"
       gradientUnits="userSpaceOnUse" />
  </defs>
  <sodipodi:namedview
     id="base"
     pagecolor="#ffffff"
     bordercolor="#666666"
     borderopacity="1.0"
     inkscape:pageopacity="0.0"
     inkscape:pageshadow="2"
     inkscape:zoom="6.8333333"
     inkscape:cx="30.000000"
     inkscape:cy="30.000000"
     inkscape:window-width="1400"
     inkscape:window-height="992"
     inkscape:window-x="0"
     inkscape:window-y="0"
     inkscape:document-units="pt"
     inkscape:current-layer="svg1" />
  <path
     style="fill:url(#linearGradient612);fill-opacity:1.0000000;fill-rule:evenodd;stroke:#261933;stroke-width:1.8750000;stroke-linecap:butt;stroke-linejoin:miter;stroke-dasharray:none;stroke-opacity:1.0000000;stroke-miterlimit:4.0000000"
     d="M 14.623534,0.99057218 L 14.800585,58.886402 L 59.063453,59.063452 L 58.355247,0.99057218 L 14.623534,0.99057218 z "
     id="path678"
     sodipodi:nodetypes="ccccc" />
  <path
     style="fill:url(#linearGradient614);fill-opacity:1.0000000;fill-rule:evenodd;stroke:#261933;stroke-width:1.8750000;stroke-linecap:butt;stroke-linejoin:miter;stroke-dasharray:none;stroke-opacity:1.0000000;stroke-miterlimit:4.0000000"
     d="M 15.862894,58.178192 L 45.076386,42.066512 L 45.430489,2.5840322 L 16.216997,2.9381422 L 15.862894,58.178192 z "
     id="path682"
     sodipodi:nodetypes="ccccc" />
  <path
     style="font-size:12.000000px;opacity:0.30267498;fill:#000000;fill-opacity:1.0000000;fill-rule:evenodd;stroke:none;stroke-width:14.847900"
     d="M 0.79536780,41.609222 C -0.49095120,40.804912 -0.012660197,21.321352 0.79536780,20.245092 C 1.7563198,19.019012 17.397146,21.044292 18.676225,20.245092 C 19.786585,19.630242 17.590675,9.9275422 18.676225,10.259672 C 19.685435,10.605202 40.406362,25.950072 40.504803,30.230502 C 40.460433,34.260202 20.095374,51.048142 18.676225,51.362422 C 17.425552,51.610672 19.433389,41.868042 18.444006,41.144792 C 17.198241,40.186422 2.1825708,42.579302 0.79536780,41.609222 z "
     id="path617"
     sodipodi:nodetypes="csssssss" />
  <path
     style="font-size:12.000000px;fill:url(#linearGradient581);fill-rule:evenodd;stroke:#261933;stroke-width:1.8750000;stroke-dasharray:none;stroke-opacity:1.0000000;stroke-miterlimit:4.0000000"
     d="M 2.1866948,39.865702 C 1.0350078,39.145562 1.4632388,21.701242 2.1866948,20.737622 C 3.0470698,19.639872 17.050863,21.453172 18.196068,20.737622 C 19.190212,20.187122 17.224136,11.499952 18.196068,11.797322 C 19.099649,12.106682 37.651839,25.584822 37.739976,29.677922 C 37.700168,33.416192 19.466682,48.316702 18.196068,48.598082 C 17.076295,48.820352 18.873984,40.097432 17.988153,39.449872 C 16.872776,38.591802 3.4287078,40.734242 2.1866948,39.865702 z "
     id="path589"
     sodipodi:nodetypes="csssssss" />
  <path
     style="fill:url(#linearGradient583);fill-opacity:1.0000000;fill-rule:evenodd;stroke:none;stroke-width:1.0000000pt;stroke-linecap:butt;stroke-linejoin:miter;stroke-opacity:1.0000000"
     d="M 3.2796708,38.845032 C 2.9505868,38.417222 2.9182548,23.193562 3.6483138,22.071752 C 4.5413998,20.883752 16.245113,23.811572 19.684308,22.071752 C 21.467564,21.169632 19.220440,14.561192 19.315664,14.145912 C 19.436050,13.387862 22.770665,16.117802 23.002099,16.542092 C 23.139309,16.793642 20.621394,15.577772 20.421594,16.173452 C 20.335728,16.978982 22.754941,22.659622 21.158882,23.546322 C 17.778254,25.424452 8.2688978,21.491792 5.4915328,24.467932 C 3.7307348,26.367942 3.5649928,39.215942 3.2796708,38.845032 z "
     id="path618"
     sodipodi:nodetypes="cssssssss" />
  <path
     style="opacity:0.20178296;fill:#261e2e;fill-opacity:1.0000000;fill-rule:evenodd;stroke:none;stroke-width:1.0000000pt;stroke-linecap:butt;stroke-linejoin:miter;stroke-opacity:1.0000000"
     d="M 1.6207748,30.089742 C 3.0834328,29.925132 36.497056,29.003872 37.563518,29.997582 C 38.444971,30.726752 22.847553,45.971972 18.394056,48.153272 C 16.826376,48.921122 20.189949,40.157702 18.301894,39.213672 C 14.906058,37.515752 6.4354048,41.130562 2.5423838,39.582312 C 1.7151148,39.292482 0.65638080,30.208652 1.6207748,30.089742 z "
     id="path644"
     sodipodi:nodetypes="csssss" />
  <path
     style="opacity:0.49815300;fill:#000000;fill-opacity:1.0000000;fill-rule:evenodd;stroke:none;stroke-width:1.0000000pt;stroke-linecap:butt;stroke-linejoin:miter;stroke-opacity:1.0000000"
     d="M 42.217298,20.370442 C 42.005955,20.159102 42.288771,22.372232 41.721380,22.850032 C 40.718364,23.694682 37.258022,24.089732 37.506077,24.337792 C 37.836593,24.668302 42.553363,25.346782 43.457094,24.585752 C 44.123770,24.024332 42.584525,20.737672 42.217298,20.370442 z "
     id="path683"
     sodipodi:nodetypes="cssss" />
  <path
     style="fill:url(#linearGradient685);fill-opacity:1.0000000;fill-rule:evenodd;stroke:none;stroke-width:1.0000000pt;stroke-linecap:butt;stroke-linejoin:miter;stroke-opacity:1.0000000"
     d="M 38.524831,24.254502 C 38.454024,24.183702 41.148643,23.926172 42.044380,23.210532 C 42.542924,22.812222 42.327322,21.283472 42.394686,21.350842 C 42.474865,21.431022 43.015954,23.230562 42.487009,23.653162 C 41.621673,24.344512 38.601567,24.331242 38.524831,24.254502 z "
     id="path684"
     sodipodi:nodetypes="cssss" />
</svg>
