<?xml version="1.0" encoding="UTF-8" standalone="no"?>
<!-- Created with Inkscape (http://www.inkscape.org/) -->
<svg
   xmlns:dc="http://purl.org/dc/elements/1.1/"
   xmlns:cc="http://web.resource.org/cc/"
   xmlns:rdf="http://www.w3.org/1999/02/22-rdf-syntax-ns#"
   xmlns:svg="http://www.w3.org/2000/svg"
   xmlns="http://www.w3.org/2000/svg"
   xmlns:xlink="http://www.w3.org/1999/xlink"
   xmlns:sodipodi="http://inkscape.sourceforge.net/DTD/sodipodi-0.dtd"
   xmlns:inkscape="http://www.inkscape.org/namespaces/inkscape"
   id="svg1"
   sodipodi:version="0.32"
   inkscape:version="0.42.2"
   width="48pt"
   height="48pt"
   sodipodi:docbase="/home/jakob/dev/lila/lila-theme/trunk/lila/kde/scalable/actions"
   sodipodi:docname="button_cancel.svg">
  <metadata
     id="metadata20">
    <rdf:RDF>
      <cc:Work
         rdf:about="">
        <dc:format>image/svg+xml</dc:format>
        <dc:type
           rdf:resource="http://purl.org/dc/dcmitype/StillImage" />
      </cc:Work>
    </rdf:RDF>
  </metadata>
  <defs
     id="defs3">
    <linearGradient
       id="linearGradient584">
      <stop
         style="stop-color:#ffffff;stop-opacity:1;"
         offset="0.00000000"
         id="stop585" />
      <stop
         style="stop-color:#ffffff;stop-opacity:0;"
         offset="1.00000000"
         id="stop586" />
    </linearGradient>
    <linearGradient
       id="linearGradient578">
      <stop
         style="stop-color:#f50000;stop-opacity:1;"
         offset="0.00000000"
         id="stop579" />
      <stop
         style="stop-color:#a90000;stop-opacity:1;"
         offset="1.00000000"
         id="stop580" />
    </linearGradient>
    <linearGradient
       xlink:href="#linearGradient578"
       id="linearGradient581"
       x1="8.3360181"
       y1="9.2304113"
       x2="53.618758"
       y2="53.410054"
       gradientTransform="matrix(1.202413,0.000000,0.000000,1.195239,-7.871659,-6.821506)"
       gradientUnits="userSpaceOnUse" />
    <linearGradient
       xlink:href="#linearGradient584"
       id="linearGradient583"
       x1="27.306528"
       y1="14.422600"
       x2="42.033803"
       y2="28.767610"
       gradientTransform="matrix(1.420958,0.000000,0.000000,1.011410,-7.871654,-6.821506)"
       gradientUnits="userSpaceOnUse" />
    <linearGradient
       xlink:href="#linearGradient584"
       id="linearGradient599"
       x1="10.818061"
       y1="12.214143"
       x2="28.093218"
       y2="28.809789"
       gradientTransform="matrix(1.286315,0.000000,0.000000,1.117278,-7.871654,-6.821506)"
       gradientUnits="userSpaceOnUse" />
    <linearGradient
       xlink:href="#linearGradient584"
       id="linearGradient600"
       x1="12.683742"
       y1="28.761297"
       x2="29.532001"
       y2="45.477929"
       gradientTransform="matrix(1.079575,0.000000,0.000000,1.331239,-7.871654,-6.821506)"
       gradientUnits="userSpaceOnUse" />
  </defs>
  <sodipodi:namedview
     id="base"
     pagecolor="#ffffff"
     bordercolor="#666666"
     borderopacity="1.0"
     inkscape:pageopacity="0.0"
     inkscape:pageshadow="2"
     inkscape:zoom="3.9897360"
     inkscape:cx="24.636955"
     inkscape:cy="20.642974"
     inkscape:window-width="754"
     inkscape:window-height="527"
     inkscape:window-x="183"
     inkscape:window-y="84"
     inkscape:current-layer="svg1" />
  <path
     style="opacity:0.29999998;fill:#000000;fill-opacity:1.0000000;fill-rule:evenodd;stroke:none;stroke-width:18.750000;stroke-linecap:butt;stroke-linejoin:miter;stroke-dasharray:none;stroke-opacity:1.0000000"
     d="M 3.4878968,59.855736 C 5.4206185,61.802356 29.554960,43.408979 32.698404,43.221981 C 35.296841,43.221981 57.967332,61.666556 59.677558,59.855736 C 61.415806,58.015237 43.041233,34.791338 43.043791,32.268035 C 43.046507,29.804856 61.630563,6.0278368 59.880405,4.0717780 C 58.182091,2.1736723 35.084979,20.708260 32.698404,20.705542 C 30.058153,20.495939 5.7050547,1.8897454 3.8935984,3.8689272 C 2.0537414,5.8791433 21.737787,29.672879 21.744463,32.673735 C 21.547573,35.351606 1.6348519,57.785059 3.4878968,59.855736 z "
     id="path601"
     sodipodi:nodetypes="cssssssss" />
  <path
     style="font-size:12.000000px;fill:url(#linearGradient581);fill-rule:evenodd;stroke:#330000;stroke-width:1.8750002;stroke-miterlimit:4.0000000;stroke-dasharray:none"
     d="M 2.5328362,56.622066 C 4.3582917,58.460642 27.153166,41.088112 30.122149,40.911487 C 32.576368,40.911489 53.988643,58.332376 55.603949,56.622066 C 57.245716,54.883710 39.890947,32.948758 39.893366,30.565495 C 39.895926,28.239024 57.448561,5.7816400 55.795537,3.9341420 C 54.191485,2.1413812 32.376268,19.647292 30.122149,19.644726 C 27.628432,19.446755 4.6269397,1.8732130 2.9160219,3.7425506 C 1.1782772,5.6411969 19.769848,28.114370 19.776157,30.948681 C 19.590193,33.477928 0.78263647,54.666318 2.5328362,56.622066 z "
     id="path589"
     sodipodi:nodetypes="cssssssss" />
  <path
     style="font-size:12.000000px;fill:url(#linearGradient600);fill-rule:evenodd;stroke:none;stroke-width:1.0000000pt"
     d="M 5.8249565,53.507532 C 6.1161778,52.611161 19.392897,35.578688 23.747276,31.189144 C 24.584744,30.344913 23.249353,37.081734 22.166875,38.380972 C 17.526168,43.950956 5.5848366,54.246607 5.8249565,53.507532 z "
     id="path596"
     sodipodi:nodetypes="csss" />
  <path
     style="opacity:0.75038201;fill:url(#linearGradient599);fill-opacity:1.0000000;fill-rule:evenodd;stroke:none;stroke-width:1.0000000pt;stroke-linecap:butt;stroke-linejoin:miter;stroke-opacity:1.0000000"
     d="M 15.940903,20.798149 C 14.792035,19.688894 5.2323276,6.9589364 5.9742171,6.6144863 C 6.8332477,6.2156530 21.177007,16.357264 22.276392,17.418741 C 22.835098,17.958183 10.744928,10.497877 10.373716,10.650872 C 10.160831,10.749713 16.450129,21.289813 15.940903,20.798149 z "
     id="path597"
     sodipodi:nodetypes="cssss" />
  <path
     style="fill:url(#linearGradient583);fill-opacity:1.0000000;fill-rule:evenodd;stroke:none;stroke-width:1.0000000pt;stroke-linecap:butt;stroke-linejoin:miter;stroke-opacity:1.0000000"
     d="M 31.229198,22.504993 C 35.180525,18.711719 51.255790,7.6968011 52.155276,7.7659923 C 52.916255,7.8245307 43.709052,17.411822 38.552214,20.985870 C 37.258773,21.882312 30.390712,23.309936 31.229198,22.504993 z "
     id="path598"
     sodipodi:nodetypes="csss" />
</svg>
