<?xml version="1.0" encoding="UTF-8" standalone="no"?>
<!-- Created with Inkscape (http://www.inkscape.org/) -->
<svg
   xmlns:dc="http://purl.org/dc/elements/1.1/"
   xmlns:cc="http://web.resource.org/cc/"
   xmlns:rdf="http://www.w3.org/1999/02/22-rdf-syntax-ns#"
   xmlns:svg="http://www.w3.org/2000/svg"
   xmlns="http://www.w3.org/2000/svg"
   xmlns:xlink="http://www.w3.org/1999/xlink"
   xmlns:sodipodi="http://inkscape.sourceforge.net/DTD/sodipodi-0.dtd"
   xmlns:inkscape="http://www.inkscape.org/namespaces/inkscape"
   id="svg1"
   sodipodi:version="0.32"
   inkscape:version="0.42.2"
   width="48pt"
   height="48pt"
   sodipodi:docbase="/home/jakob/dev/lila/lila-theme/trunk/lila/kde/scalable/actions"
   sodipodi:docname="save_as.svg">
  <metadata
     id="metadata61">
    <rdf:RDF>
      <cc:Work
         rdf:about="">
        <dc:format>image/svg+xml</dc:format>
        <dc:type
           rdf:resource="http://purl.org/dc/dcmitype/StillImage" />
      </cc:Work>
    </rdf:RDF>
  </metadata>
  <defs
     id="defs3">
    <linearGradient
       id="linearGradient916">
      <stop
         style="stop-color:#cccccc;stop-opacity:1;"
         offset="0.00000000"
         id="stop917" />
      <stop
         style="stop-color:#7f7f7f;stop-opacity:1;"
         offset="1.00000000"
         id="stop918" />
    </linearGradient>
    <linearGradient
       id="linearGradient866">
      <stop
         style="stop-color:#ffffff;stop-opacity:1;"
         offset="0.00000000"
         id="stop867" />
      <stop
         style="stop-color:#d9d1e1;stop-opacity:1;"
         offset="1.00000000"
         id="stop868" />
    </linearGradient>
    <linearGradient
       id="linearGradient584">
      <stop
         style="stop-color:#ffffff;stop-opacity:1;"
         offset="0.00000000"
         id="stop585" />
      <stop
         style="stop-color:#ffffff;stop-opacity:0;"
         offset="1.00000000"
         id="stop586" />
    </linearGradient>
    <linearGradient
       id="linearGradient578">
      <stop
         style="stop-color:#d9cce6;stop-opacity:1;"
         offset="0.00000000"
         id="stop579" />
      <stop
         style="stop-color:#73667f;stop-opacity:1;"
         offset="1.00000000"
         id="stop580" />
    </linearGradient>
    <linearGradient
       xlink:href="#linearGradient584"
       id="linearGradient581"
       x1="4.1276227"
       y1="5.4142831"
       x2="45.298720"
       y2="47.258196"
       gradientTransform="matrix(1.091205,0.000000,0.000000,0.916418,-4.121988e-3,0.000000)"
       gradientUnits="userSpaceOnUse" />
    <linearGradient
       xlink:href="#linearGradient584"
       id="linearGradient583"
       x1="10.359887"
       y1="33.979949"
       x2="22.588736"
       y2="46.209522"
       gradientTransform="matrix(0.998293,0.000000,0.000000,1.001710,-4.121988e-3,0.000000)"
       gradientUnits="userSpaceOnUse" />
    <linearGradient
       xlink:href="#linearGradient584"
       id="linearGradient860"
       x1="17.292850"
       y1="32.507996"
       x2="21.824125"
       y2="36.969019"
       gradientTransform="matrix(0.792547,0.000000,0.000000,1.261755,-4.121988e-3,0.000000)"
       gradientUnits="userSpaceOnUse" />
    <linearGradient
       xlink:href="#linearGradient578"
       id="linearGradient861"
       x1="1.7626410"
       y1="2.7947396"
       x2="55.081131"
       y2="55.699907"
       gradientTransform="matrix(0.990536,0.000000,0.000000,1.009555,-4.121988e-3,0.000000)"
       gradientUnits="userSpaceOnUse" />
    <linearGradient
       xlink:href="#linearGradient866"
       id="linearGradient862"
       x1="11.534701"
       y1="3.9993602"
       x2="42.725196"
       y2="33.923853"
       gradientTransform="matrix(1.113066,0.000000,0.000000,0.898419,-4.121988e-3,0.000000)"
       gradientUnits="userSpaceOnUse" />
    <linearGradient
       xlink:href="#linearGradient916"
       id="linearGradient869"
       x1="9.1077634"
       y1="36.726069"
       x2="30.574327"
       y2="57.528104"
       gradientTransform="matrix(1.105632,0.000000,0.000000,0.904460,-4.121988e-3,0.000000)"
       gradientUnits="userSpaceOnUse" />
    <linearGradient
       xlink:href="#linearGradient578"
       id="linearGradient915"
       x1="0.97727275"
       y1="0.98449612"
       x2="-0.01136364"
       y2="0.01550388" />
  </defs>
  <sodipodi:namedview
     id="base"
     pagecolor="#ffffff"
     bordercolor="#666666"
     borderopacity="1.0"
     inkscape:pageopacity="0.0"
     inkscape:pageshadow="2"
     inkscape:zoom="5.6423387"
     inkscape:cx="26.457019"
     inkscape:cy="23.768499"
     inkscape:window-width="754"
     inkscape:window-height="516"
     inkscape:window-x="256"
     inkscape:window-y="321"
     inkscape:current-layer="svg1" />
  <path
     d="M 4.8193383,48.915429 C 6.1214019,50.720611 44.954307,60.883183 46.671906,59.951927 C 48.308878,58.927817 58.422442,13.790923 57.278397,12.079437 C 56.386028,10.681181 14.973744,5.3148164 13.705859,6.4895865 C 12.384645,7.8630635 3.7367046,47.215749 4.8193383,48.915429 z "
     style="font-size:12.000000px;opacity:0.30267498;fill-rule:evenodd;stroke-width:12.500000"
     id="path1382" />
  <path
     d="M 1.9210165,45.490140 C 3.2230788,47.295320 42.055986,57.457894 43.773584,56.526636 C 45.410555,55.502527 55.524120,10.365634 54.380073,8.6541477 C 53.487706,7.2558915 12.075422,1.8895267 10.807537,3.0642954 C 9.4863230,4.4377951 0.83838141,43.790458 1.9210165,45.490140 z "
     style="font-size:12.000000px;fill:url(#linearGradient861);fill-rule:evenodd;stroke:#261933;stroke-width:1.8750000;stroke-dasharray:none"
     id="path1289" />
  <path
     d="M 9.2308480,47.496834 C 9.8996760,42.002457 11.141950,37.081422 12.527454,32.160386 C 21.700592,34.023637 30.587165,36.173667 39.616967,38.610260 C 38.565878,44.009045 37.371452,49.551270 35.890357,54.663383 C 26.526141,53.038953 18.165165,50.411176 9.2308480,47.496834 z "
     style="font-size:12.000000px;fill:#595161;fill-rule:evenodd;stroke:#261933;stroke-width:1.2500000;stroke-dasharray:none"
     id="path1294" />
  <path
     d="M 17.687416,3.7809513 C 15.871907,10.183093 14.056398,17.445129 13.244130,24.277265 C 22.273932,26.809450 32.737088,29.054965 41.910331,30.727139 C 43.916919,23.226175 45.636836,15.295205 46.926852,7.6509062 C 37.849201,6.0742401 26.764962,4.2109457 17.687416,3.7809513 z "
     style="font-size:12.000000px;fill:url(#linearGradient862);fill-rule:evenodd;stroke:#261933;stroke-width:1.2500000;stroke-dasharray:none"
     id="path1295" />
  <path
     d="M 14.944760,36.388038 C 14.269083,39.023087 13.593404,41.658241 12.917725,44.293290 C 13.931191,44.563520 14.729758,44.833855 15.743221,45.104084 C 16.283785,42.536592 17.182687,39.682323 17.794918,37.114830 C 16.916568,36.777044 15.966445,36.582488 14.944760,36.388038 z M 9.9085320,47.145951 C 10.559549,42.057971 11.883815,37.635921 12.964836,32.906280 C 19.856625,34.237084 27.608427,36.009148 34.428548,37.984961 C 33.419194,42.845709 31.913689,47.960748 30.617664,52.964833 C 23.654207,51.503026 16.800323,49.682773 9.9085320,47.145951 z "
     style="font-size:12.000000px;fill:url(#linearGradient869);fill-rule:evenodd;stroke:none;stroke-width:6.2500000;stroke-dasharray:none;stroke-opacity:1.0000000"
     id="path1306"
     sodipodi:nodetypes="cccccccccc" />
  <path
     d="M 4.2143266,44.200123 C 3.8061379,43.154093 10.483452,7.3354640 12.814229,5.3574279 C 15.138367,3.3633498 50.544487,9.5033043 50.940239,10.517401 C 51.308905,11.462149 23.448860,4.9576907 15.537493,10.660629 C 7.8734846,16.185253 4.5705564,45.112937 4.2143266,44.200123 z "
     style="font-size:12.000000px;opacity:0.69999999;fill:url(#linearGradient581);fill-rule:evenodd;stroke:none;stroke-width:1.0000000pt"
     id="path1310" />
  <path
     d="M 10.713359,45.908892 C 10.626306,45.709909 12.818595,34.255528 13.580064,33.869049 C 14.716733,33.243961 22.738342,35.391248 22.824869,35.589072 C 22.905496,35.773406 16.454674,34.290834 14.691861,35.614367 C 12.902384,36.975313 10.793564,46.092171 10.713359,45.908892 z "
     style="font-size:12.000000px;opacity:0.69999999;fill:url(#linearGradient583);fill-rule:evenodd;stroke:none;stroke-width:1.0000000pt"
     id="path1315"
     sodipodi:nodetypes="ccccc" />
  <path
     d="M 13.745802,45.060135 C 13.703224,44.953687 15.522738,46.130406 15.895832,45.705142 C 16.717164,44.768827 17.284180,40.862836 17.329078,40.975185 C 17.379667,41.101764 17.175625,45.712520 16.380115,46.619432 C 15.981202,47.074205 13.798816,45.192508 13.745802,45.060135 z "
     style="font-size:12.000000px;opacity:0.99000001;fill:url(#linearGradient860);fill-rule:evenodd;stroke:none;stroke-width:1.0000000pt"
     id="path1316" />
  <path
     d="M 19.552038,10.459857 C 26.749576,11.585038 35.051424,13.294310 41.911702,15.226910 C 42.354565,15.351697 41.921609,16.704108 41.461353,16.632228 C 34.320308,15.516110 26.024045,13.611016 19.108122,11.662712 C 18.721011,11.553631 19.148382,10.396829 19.552038,10.459857 z "
     style="font-size:12.000000px;opacity:0.24999996;fill-rule:evenodd;stroke-width:1.0000000pt"
     id="path1379" />
  <path
     d="M 18.741036,14.468182 C 25.938573,15.593258 34.240315,17.302530 41.100697,19.235238 C 41.543456,19.360024 41.110604,20.712434 40.650351,20.640556 C 33.509306,19.524332 25.212936,17.619344 18.297119,15.671039 C 17.909902,15.561957 18.337377,14.405052 18.741036,14.468182 z "
     style="font-size:12.000000px;opacity:0.24999996;fill-rule:evenodd;stroke-width:1.0000000pt"
     id="path1380" />
  <path
     d="M 17.856257,18.690670 C 25.053793,19.815640 33.355643,21.524913 40.215919,23.457620 C 40.658783,23.582405 40.225720,24.934815 39.765677,24.862938 C 32.624632,23.746713 24.328265,21.841726 17.412340,19.893420 C 17.025228,19.784338 17.452704,18.627433 17.856257,18.690670 z "
     style="font-size:12.000000px;opacity:0.24999996;fill-rule:evenodd;stroke-width:1.0000000pt"
     id="path1381" />
  <g
     id="g762"
     transform="matrix(0.787910,0.000000,0.000000,0.787910,14.69872,-1.519529)">
    <sodipodi:namedview
       id="namedview763"
       pagecolor="#ffffff"
       bordercolor="#666666"
       borderopacity="1.0"
       inkscape:pageopacity="0.0"
       inkscape:pageshadow="2"
       inkscape:zoom="6.94653375"
       inkscape:cx="25.5516764"
       inkscape:cy="23.2641839"
       inkscape:window-width="640"
       inkscape:window-height="500"
       inkscape:window-x="163"
       inkscape:window-y="150" />
    <defs
       id="defs1420">
      <linearGradient
         id="linearGradient1439">
        <stop
           style="stop-color:#ffffff;stop-opacity:1;"
           offset="0"
           id="stop1440" />
        <stop
           style="stop-color:#ffffff;stop-opacity:0;"
           offset="1"
           id="stop1441" />
      </linearGradient>
      <linearGradient
         id="linearGradient1432">
        <stop
           style="stop-color:#7f7f7f;stop-opacity:1;"
           offset="0"
           id="stop1433" />
        <stop
           style="stop-color:#e6e6e6;stop-opacity:1;"
           offset="1"
           id="stop1434" />
      </linearGradient>
      <linearGradient
         id="linearGradient1428">
        <stop
           style="stop-color:#f50000;stop-opacity:1;"
           offset="0.00000000"
           id="stop1429" />
        <stop
           style="stop-color:#a90000;stop-opacity:1;"
           offset="1.00000000"
           id="stop1430" />
      </linearGradient>
      <linearGradient
         id="linearGradient1422">
        <stop
           style="stop-color:#d7a600;stop-opacity:1;"
           offset="0.00000000"
           id="stop1423" />
        <stop
           style="stop-color:#fff300;stop-opacity:1;"
           offset="1.00000000"
           id="stop1424" />
      </linearGradient>
      <linearGradient
         x1="39.324692"
         y1="36.958839"
         x2="22.788656"
         y2="19.337631"
         id="linearGradient1425"
         xlink:href="#linearGradient1422"
         gradientTransform="scale(0.980092,1.020313)"
         gradientUnits="userSpaceOnUse" />
      <linearGradient
         x1="37.919708"
         y1="5.0888619"
         x2="49.701736"
         y2="17.054985"
         id="linearGradient1427"
         xlink:href="#linearGradient1428"
         gradientTransform="scale(1.097184,0.911424)"
         gradientUnits="userSpaceOnUse" />
      <linearGradient
         x1="46.534184"
         y1="21.529285"
         x2="33.742496"
         y2="9.5831022"
         id="linearGradient1435"
         xlink:href="#linearGradient1432"
         gradientTransform="scale(1.098378,0.910433)"
         gradientUnits="userSpaceOnUse" />
      <linearGradient
         x1="10.172897"
         y1="6.4683642"
         x2="52.570103"
         y2="48.534363"
         id="linearGradient1438"
         xlink:href="#linearGradient1439"
         gradientTransform="scale(0.994299,1.005734)"
         gradientUnits="userSpaceOnUse" />
      <linearGradient
         id="linearGradient1443"
         xlink:href="#linearGradient1439" />
    </defs>
    <path
       d="M 9.6825261,55.573998 C 10.935623,56.697460 16.630724,55.396696 18.919217,53.296405 C 32.531226,40.803584 49.168722,25.038500 57.384129,11.794783 C 58.953677,9.2645422 50.788505,4.0572676 48.273973,5.9744273 C 35.520595,15.698035 22.620476,32.527802 11.580501,46.716925 C 9.7566964,49.060990 8.4893852,54.504297 9.6825261,55.573998 z "
       style="font-size:12.000000px;opacity:0.29999998;fill:#3f3f19;fill-rule:evenodd;stroke-width:12.500000"
       id="path1442" />
    <path
       d="M 7.5314734,53.929102 C 8.7845708,55.052565 14.479671,53.751800 16.768164,51.651509 C 30.380174,39.158689 47.017670,23.393603 55.233067,10.149887 C 56.802626,7.6196444 48.637454,2.4123812 46.122921,4.3295397 C 33.369544,14.053138 20.469423,30.882904 9.4294481,45.072029 C 7.6056437,47.416094 6.3383211,52.859401 7.5314734,53.929102 z "
       style="font-size:12.000000px;fill:url(#linearGradient1425);fill-rule:evenodd;stroke:#3f3f19;stroke-width:1.8750000;stroke-dasharray:none"
       id="path1421" />
    <path
       d="M 41.346506,9.2009518 C 41.439595,10.154589 49.478978,15.829917 50.519825,15.717165 C 50.868337,15.700600 54.823742,9.8552351 54.790290,9.4540298 C 54.570773,7.2015545 50.158592,4.5909111 47.388305,4.5509508 C 45.813304,4.5279734 41.317229,8.9326982 41.346506,9.2009518 z "
       style="font-size:12.000000px;fill:url(#linearGradient1427);fill-rule:evenodd;stroke-width:1.0000000pt"
       id="path1426" />
    <path
       d="M 37.409915,13.013467 C 37.508561,14.024174 46.029512,20.039469 47.132666,19.919984 C 47.502023,19.902457 50.799721,15.854284 50.764135,15.429033 C 50.531474,13.041576 44.317495,8.9367600 41.397917,9.0691765 C 40.798455,9.0874521 37.378916,12.729182 37.409915,13.013467 z "
       style="font-size:12.000000px;fill:url(#linearGradient1435);fill-rule:evenodd;stroke:#3f3f19;stroke-width:1.0000000pt;stroke-opacity:1.0000000"
       id="path1431" />
    <ellipse
       cx="152.36185"
       cy="565.56213"
       rx="26.788887"
       ry="26.788879"
       transform="matrix(0.106874,0.000000,0.000000,0.106874,-8.278306,-7.108241)"
       style="font-size:12.000000px;fill:#3f3f19;fill-rule:evenodd;stroke-width:1.0000000pt"
       id="path1436"
       sodipodi:cx="152.36185"
       sodipodi:cy="565.56213"
       sodipodi:rx="26.788887"
       sodipodi:ry="26.788879" />
    <path
       d="M 9.4294481,49.500560 C 14.917107,39.734202 33.110801,17.458035 46.755722,5.8478558 C 48.252067,4.4254061 52.911878,7.4694875 52.955587,8.1253725 C 52.996193,8.7347676 48.470625,8.2541551 47.008794,9.6437308 C 33.961841,22.045921 14.086803,42.968316 9.4294481,49.500560 z "
       style="font-size:12.000000px;opacity:0.99000001;fill:url(#linearGradient1438);fill-rule:evenodd;stroke:none;stroke-width:0.10687400pt"
       id="path1437" />
  </g>
</svg>
