<?xml version="1.0" encoding="UTF-8" standalone="no"?>
<!-- Created with Inkscape (http://www.inkscape.org/) -->
<svg
   xmlns:dc="http://purl.org/dc/elements/1.1/"
   xmlns:cc="http://web.resource.org/cc/"
   xmlns:rdf="http://www.w3.org/1999/02/22-rdf-syntax-ns#"
   xmlns:svg="http://www.w3.org/2000/svg"
   xmlns="http://www.w3.org/2000/svg"
   xmlns:xlink="http://www.w3.org/1999/xlink"
   xmlns:sodipodi="http://inkscape.sourceforge.net/DTD/sodipodi-0.dtd"
   xmlns:inkscape="http://www.inkscape.org/namespaces/inkscape"
   id="svg1"
   sodipodi:version="0.32"
   inkscape:version="0.42.2"
   width="48pt"
   height="48pt"
   sodipodi:docbase="/home/jakob/dev/lila/lila-theme/trunk/lila/kde/scalable/actions"
   sodipodi:docname="paste.svg">
  <metadata
     id="metadata33">
    <rdf:RDF>
      <cc:Work
         rdf:about="">
        <dc:format>image/svg+xml</dc:format>
        <dc:type
           rdf:resource="http://purl.org/dc/dcmitype/StillImage" />
      </cc:Work>
    </rdf:RDF>
  </metadata>
  <defs
     id="defs3">
    <linearGradient
       id="linearGradient1411">
      <stop
         style="stop-color:#c7b397;stop-opacity:1;"
         offset="0.00000000"
         id="stop1412" />
      <stop
         style="stop-color:#faebdc;stop-opacity:1;"
         offset="1.00000000"
         id="stop1413" />
    </linearGradient>
    <linearGradient
       id="linearGradient1407">
      <stop
         style="stop-color:#cccccc;stop-opacity:1;"
         offset="0.00000000"
         id="stop1408" />
      <stop
         style="stop-color:#7f7f7f;stop-opacity:1;"
         offset="1.00000000"
         id="stop1409" />
    </linearGradient>
    <linearGradient
       id="linearGradient584">
      <stop
         style="stop-color:#ffffff;stop-opacity:1;"
         offset="0.00000000"
         id="stop585" />
      <stop
         style="stop-color:#ffffff;stop-opacity:0;"
         offset="1.00000000"
         id="stop586" />
    </linearGradient>
    <linearGradient
       id="linearGradient578">
      <stop
         style="stop-color:#faf8fd;stop-opacity:1;"
         offset="0.00000000"
         id="stop579" />
      <stop
         style="stop-color:#d9cce6;stop-opacity:1;"
         offset="1.00000000"
         id="stop580" />
    </linearGradient>
    <linearGradient
       xlink:href="#linearGradient578"
       id="linearGradient581"
       x1="3.2209291"
       y1="17.087846"
       x2="40.753933"
       y2="54.791229"
       gradientTransform="matrix(0.942929,0.000000,0.000000,1.060525,5.669621e-4,0.000000)"
       gradientUnits="userSpaceOnUse" />
    <linearGradient
       xlink:href="#linearGradient584"
       id="linearGradient583"
       x1="5.2728477"
       y1="20.152896"
       x2="33.197078"
       y2="46.717715"
       gradientTransform="matrix(0.999606,0.000000,0.000000,1.000394,5.669621e-4,0.000000)"
       gradientUnits="userSpaceOnUse" />
    <linearGradient
       xlink:href="#linearGradient584"
       id="linearGradient654"
       x1="19.806607"
       y1="5.6890818"
       x2="26.564381"
       y2="12.451842"
       gradientTransform="matrix(1.560099,0.000000,0.000000,0.640985,5.669621e-4,0.000000)"
       gradientUnits="userSpaceOnUse" />
    <linearGradient
       xlink:href="#linearGradient584"
       id="linearGradient655"
       x1="24.998996"
       y1="6.8852522"
       x2="59.052583"
       y2="42.421195"
       gradientTransform="matrix(0.806787,0.000000,0.000000,1.239484,5.669621e-4,0.000000)"
       gradientUnits="userSpaceOnUse" />
    <linearGradient
       xlink:href="#linearGradient1407"
       id="linearGradient1406"
       x1="20.311117"
       y1="1.8087869"
       x2="34.114761"
       y2="1.8087869"
       gradientTransform="matrix(1.369682,0.000000,0.000000,0.730096,5.669621e-4,0.000000)"
       gradientUnits="userSpaceOnUse" />
    <linearGradient
       xlink:href="#linearGradient1411"
       id="linearGradient1410"
       x1="62.245588"
       y1="48.611177"
       x2="19.535075"
       y2="5.5339747"
       gradientTransform="matrix(0.877512,0.000000,0.000000,1.139586,5.669621e-4,0.000000)"
       gradientUnits="userSpaceOnUse" />
  </defs>
  <sodipodi:namedview
     id="base"
     pagecolor="#ffffff"
     bordercolor="#666666"
     borderopacity="1.0"
     inkscape:pageopacity="0.0"
     inkscape:pageshadow="2"
     inkscape:zoom="5.6423387"
     inkscape:cx="23.452860"
     inkscape:cy="24.126765"
     inkscape:window-width="754"
     inkscape:window-height="516"
     inkscape:window-x="192"
     inkscape:window-y="102"
     inkscape:current-layer="svg1" />
  <g
     id="g1416"
     style="opacity:0.30267498"
     transform="matrix(0.112397,0.000000,0.000000,0.112397,-3.933443,-5.181550)">
    <path
       d="M 191.01500,566.58900 C 178.03400,550.09400 179.22400,119.02500 195.48000,99.953700 C 213.72300,80.783900 535.22500,87.472700 546.01500,102.18600 C 561.67200,119.87500 555.66600,542.07800 539.31600,566.59000 C 528.25400,581.18200 202.81900,582.19400 191.01500,566.58900 z "
       style="font-size:12.000000px;fill:#000000;fill-opacity:1.0000000;fill-rule:evenodd;stroke:none;stroke-width:12.500000"
       id="path1414" />
    <path
       d="M 290.39700,124.03600 C 285.00500,119.42300 313.71200,59.884000 321.77300,54.938200 C 329.97400,50.264700 421.47400,50.631600 427.19000,54.938200 C 434.31100,59.668700 459.79700,123.22300 454.25200,127.75900 C 446.07000,134.45800 297.13000,130.32300 290.39700,124.03600 z "
       style="font-size:12.000000px;fill:#000000;fill-opacity:1.0000000;fill-rule:evenodd;stroke:none;stroke-width:13.755100"
       id="path1415" />
  </g>
  <path
     d="M 18.587492,55.320560 C 17.250060,53.621082 17.372666,9.2080523 19.047520,7.2431363 C 20.927096,5.2680723 54.051440,5.9572190 55.163134,7.4731306 C 56.776274,9.2956283 56.157477,52.795193 54.472936,55.320664 C 53.333219,56.824078 19.803657,56.928344 18.587492,55.320560 z "
     style="font-size:12.000000px;fill:url(#linearGradient1410);fill-rule:evenodd;stroke:#412619;stroke-width:1.8750000;stroke-dasharray:none"
     id="path1213" />
  <path
     d="M 49.038415,8.9828284 C 48.298041,8.1894979 21.951421,7.5524644 20.709806,9.2794518 C 19.526404,11.309245 19.093884,52.848358 19.819937,53.626234 C 20.478194,54.331474 18.081615,21.770189 24.121129,12.542411 C 27.821141,6.8890126 49.682352,9.6727180 49.038415,8.9828284 z "
     style="font-size:12.000000px;opacity:0.69999999;fill:url(#linearGradient655);fill-rule:evenodd;stroke:none;stroke-width:1.0000000pt"
     id="path1234" />
  <path
     d="M 28.826817,9.7243349 C 28.271280,9.2490581 31.228960,3.1147557 32.059485,2.6051907 C 32.904434,2.1236807 42.331679,2.1614817 42.920597,2.6051907 C 43.654273,3.0925749 46.280095,9.6405716 45.708794,10.107916 C 44.865803,10.798113 29.520519,10.372084 28.826817,9.7243349 z "
     style="font-size:12.000000px;fill:url(#linearGradient1406);fill-rule:evenodd;stroke:#000000;stroke-width:1.8750000;stroke-dasharray:none"
     id="path1221" />
  <path
     d="M 30.894320,8.0617416 C 30.639012,7.6969112 31.938220,4.5223207 33.201574,4.0764390 C 35.504088,3.2637992 41.327856,3.9092511 41.591718,4.2861966 C 41.817248,4.6084240 36.914877,4.9621046 34.669853,5.7544470 C 33.349009,6.2206262 31.128404,8.3961770 30.894320,8.0617416 z "
     style="font-size:12.000000px;opacity:0.69993597;fill:url(#linearGradient654);fill-rule:evenodd;stroke:none;stroke-width:1.0000000pt"
     id="path1229" />
  <path
     d="M 3.0968052,51.662501 C 3.6856858,53.421830 28.071734,61.332660 29.672850,60.005143 C 31.106023,58.804384 41.829787,23.063669 41.111760,21.646225 C 40.365391,20.083494 15.624067,16.190997 14.449702,17.259862 C 13.003138,18.584187 2.4783303,49.643897 3.0968052,51.662501 z "
     style="font-size:12.000000px;opacity:0.30267498;fill-rule:evenodd;stroke-width:12.500000"
     id="path639" />
  <path
     d="M 3.3616542,49.984292 C 3.9046991,51.606598 26.391443,58.901303 27.867861,57.677178 C 29.189413,56.569939 39.077971,23.612841 38.415866,22.305764 C 37.727628,20.864743 14.913247,17.275437 13.830345,18.261055 C 12.496444,19.482235 2.7913491,48.122903 3.3616542,49.984292 z "
     style="font-size:12.000000px;fill:url(#linearGradient581);fill-rule:evenodd;stroke:#261933;stroke-width:1.8750000;stroke-dasharray:none"
     id="path634" />
  <path
     d="M 4.8915810,48.464655 C 4.6569003,47.870110 13.981549,20.226525 14.853298,19.656442 C 15.942804,18.912914 33.555409,22.204372 33.789536,22.797523 C 34.004135,23.341165 20.048109,20.802640 16.943213,23.579887 C 10.988295,28.756822 5.1056262,49.006931 4.8915810,48.464655 z "
     style="font-size:12.000000px;opacity:0.69993597;fill:url(#linearGradient583);fill-rule:evenodd;stroke:#ffffff;stroke-width:0.071796203pt"
     id="path640" />
</svg>
