<?xml version="1.0" encoding="UTF-8" standalone="no"?>
<!-- Created with Inkscape (http://www.inkscape.org/) -->
<svg
   xmlns:dc="http://purl.org/dc/elements/1.1/"
   xmlns:cc="http://web.resource.org/cc/"
   xmlns:rdf="http://www.w3.org/1999/02/22-rdf-syntax-ns#"
   xmlns:svg="http://www.w3.org/2000/svg"
   xmlns="http://www.w3.org/2000/svg"
   xmlns:xlink="http://www.w3.org/1999/xlink"
   xmlns:sodipodi="http://inkscape.sourceforge.net/DTD/sodipodi-0.dtd"
   xmlns:inkscape="http://www.inkscape.org/namespaces/inkscape"
   id="svg1"
   sodipodi:version="0.32"
   inkscape:version="0.42.2"
   width="48pt"
   height="48pt"
   sodipodi:docbase="/home/jakob/dev/lila/lila-theme/trunk/lila/kde/scalable/actions"
   sodipodi:docname="copy.svg">
  <metadata
     id="metadata21">
    <rdf:RDF>
      <cc:Work
         rdf:about="">
        <dc:format>image/svg+xml</dc:format>
        <dc:type
           rdf:resource="http://purl.org/dc/dcmitype/StillImage" />
      </cc:Work>
    </rdf:RDF>
  </metadata>
  <defs
     id="defs3">
    <linearGradient
       id="linearGradient584">
      <stop
         style="stop-color:#ffffff;stop-opacity:1;"
         offset="0.00000000"
         id="stop585" />
      <stop
         style="stop-color:#ffffff;stop-opacity:0;"
         offset="1.00000000"
         id="stop586" />
    </linearGradient>
    <linearGradient
       id="linearGradient578">
      <stop
         style="stop-color:#faf8fd;stop-opacity:1;"
         offset="0.00000000"
         id="stop579" />
      <stop
         style="stop-color:#d9cce6;stop-opacity:1;"
         offset="1.00000000"
         id="stop580" />
    </linearGradient>
    <linearGradient
       xlink:href="#linearGradient578"
       id="linearGradient581"
       x1="1.0618073"
       y1="18.453582"
       x2="36.443840"
       y2="53.996230"
       gradientTransform="matrix(0.943098,0.000000,0.000000,1.060335,-1.499610e-4,0.000000)"
       gradientUnits="userSpaceOnUse" />
    <linearGradient
       xlink:href="#linearGradient584"
       id="linearGradient583"
       x1="3.1526836"
       y1="21.524746"
       x2="29.403360"
       y2="46.497482"
       gradientTransform="matrix(0.999606,0.000000,0.000000,1.000394,-1.499610e-4,0.000000)"
       gradientUnits="userSpaceOnUse" />
    <linearGradient
       xlink:href="#linearGradient584"
       id="linearGradient654"
       x1="0.00729927"
       y1="0.04081633"
       x2="0.98175180"
       y2="0.91836733" />
    <linearGradient
       xlink:href="#linearGradient584"
       id="linearGradient655"
       x1="-0.06250000"
       y1="0.00775194"
       x2="0.93750000"
       y2="0.98449612" />
    <linearGradient
       inkscape:collect="always"
       xlink:href="#linearGradient578"
       id="linearGradient1319"
       x1="14.028238"
       y1="2.9039676"
       x2="60.098819"
       y2="49.183684"
       gradientTransform="matrix(0.942413,0.000000,0.000000,1.061106,-1.499610e-4,0.000000)"
       gradientUnits="userSpaceOnUse" />
    <linearGradient
       inkscape:collect="always"
       xlink:href="#linearGradient584"
       id="linearGradient1321"
       x1="15.792147"
       y1="5.4057846"
       x2="50.359010"
       y2="38.289858"
       gradientTransform="matrix(0.999606,0.000000,0.000000,1.000394,-1.499610e-4,0.000000)"
       gradientUnits="userSpaceOnUse" />
  </defs>
  <sodipodi:namedview
     id="base"
     pagecolor="#ffffff"
     bordercolor="#666666"
     borderopacity="1.0"
     inkscape:pageopacity="0.0"
     inkscape:pageshadow="2"
     inkscape:zoom="7.97947193"
     inkscape:cx="25.7940406"
     inkscape:cy="23.5400832"
     inkscape:window-width="582"
     inkscape:window-height="615"
     inkscape:window-x="206"
     inkscape:window-y="116" />
  <path
     d="M 13.303011,44.120281 C 14.022084,46.268572 43.799507,55.928363 45.754605,54.307353 C 47.504631,52.841123 60.599251,9.1986956 59.722480,7.4678759 C 58.811101,5.5596480 28.599857,0.80658111 27.165857,2.1117548 C 25.399478,3.7288670 12.547802,41.655396 13.303011,44.120281 z "
     style="font-size:12.000000px;opacity:0.30267498;fill-rule:evenodd;stroke-width:12.500000"
     id="path1393" />
  <path
     d="M 13.405375,42.342221 C 14.078158,44.352110 41.937187,53.389586 43.766334,51.873007 C 45.403615,50.501238 57.654638,9.6703953 56.834352,8.0510453 C 55.981687,6.2657507 27.716746,1.8189281 26.375130,3.0400196 C 24.722550,4.5529517 12.698817,40.036130 13.405375,42.342221 z "
     style="font-size:12.000000px;fill:url(#linearGradient1319);fill-rule:evenodd;stroke:#261933;stroke-width:1.8750000;stroke-dasharray:none"
     id="path1394" />
  <path
     d="M 15.300814,40.459528 C 15.010066,39.722942 26.562458,5.4750570 27.642475,4.7687772 C 28.992275,3.8476129 50.812689,7.9254316 51.102751,8.6602921 C 51.368619,9.3338128 34.078374,6.1888110 30.231689,9.6295676 C 22.854089,16.043318 15.565998,41.131359 15.300814,40.459528 z "
     style="font-size:12.000000px;opacity:0.69993597;fill:url(#linearGradient1321);fill-rule:evenodd;stroke:#ffffff;stroke-width:0.088948900pt"
     id="path1395" />
  <path
     d="M 1.1112931,51.142358 C 1.6647277,52.795792 24.582954,60.230461 26.087698,58.982848 C 27.434607,57.854364 37.512896,24.264921 36.838089,22.932795 C 36.136645,21.464126 12.884527,17.805923 11.780847,18.810450 C 10.421353,20.055062 0.53004484,49.245256 1.1112931,51.142358 z "
     style="font-size:12.000000px;opacity:0.30267498;fill-rule:evenodd;stroke-width:12.500000"
     id="path639" />
  <path
     d="M 1.3602004,49.565163 C 1.8705590,51.089819 23.003803,57.945450 24.391353,56.795007 C 25.633359,55.754412 34.926713,24.781038 34.304463,23.552634 C 33.657650,22.198350 12.216492,18.825088 11.198771,19.751381 C 9.9451580,20.899057 0.82422084,47.815813 1.3602004,49.565163 z "
     style="font-size:12.000000px;fill:url(#linearGradient581);fill-rule:evenodd;stroke:#261933;stroke-width:1.8750000;stroke-dasharray:none"
     id="path634" />
  <path
     d="M 2.7980389,48.136994 C 2.5774842,47.578236 11.340872,21.598547 12.160150,21.062777 C 13.184077,20.364003 29.736563,23.457347 29.956596,24.014795 C 30.158278,24.525715 17.042281,22.139985 14.124271,24.750067 C 8.5277850,29.615396 2.9992010,48.646629 2.7980389,48.136994 z "
     style="font-size:12.000000px;opacity:0.69993597;fill:url(#linearGradient583);fill-rule:evenodd;stroke:#ffffff;stroke-width:0.067474699pt"
     id="path640" />
</svg>
