<?xml version="1.0" encoding="UTF-8" standalone="no"?>
<!-- Created with Inkscape (http://www.inkscape.org/) -->
<svg
   xmlns:dc="http://purl.org/dc/elements/1.1/"
   xmlns:cc="http://web.resource.org/cc/"
   xmlns:rdf="http://www.w3.org/1999/02/22-rdf-syntax-ns#"
   xmlns:svg="http://www.w3.org/2000/svg"
   xmlns="http://www.w3.org/2000/svg"
   xmlns:xlink="http://www.w3.org/1999/xlink"
   xmlns:sodipodi="http://inkscape.sourceforge.net/DTD/sodipodi-0.dtd"
   xmlns:inkscape="http://www.inkscape.org/namespaces/inkscape"
   id="svg1"
   sodipodi:version="0.32"
   inkscape:version="0.42.2"
   width="48pt"
   height="48pt"
   sodipodi:docbase="/home/jakob/dev/lila/lila-theme/trunk/lila/kde/scalable/actions"
   sodipodi:docname="editdelete.svg">
  <metadata
     id="metadata27">
    <rdf:RDF>
      <cc:Work
         rdf:about="">
        <dc:format>image/svg+xml</dc:format>
        <dc:type
           rdf:resource="http://purl.org/dc/dcmitype/StillImage" />
      </cc:Work>
    </rdf:RDF>
  </metadata>
  <defs
     id="defs3">
    <linearGradient
       id="linearGradient837">
      <stop
         style="stop-color:#f50000;stop-opacity:1;"
         offset="0.00000000"
         id="stop838" />
      <stop
         style="stop-color:#a90000;stop-opacity:1;"
         offset="1.00000000"
         id="stop839" />
    </linearGradient>
    <linearGradient
       id="linearGradient584">
      <stop
         style="stop-color:#ffffff;stop-opacity:1;"
         offset="0.00000000"
         id="stop585" />
      <stop
         style="stop-color:#ffffff;stop-opacity:0;"
         offset="1.00000000"
         id="stop586" />
    </linearGradient>
    <linearGradient
       id="linearGradient578">
      <stop
         style="stop-color:#faf8fd;stop-opacity:1;"
         offset="0.00000000"
         id="stop579" />
      <stop
         style="stop-color:#d9cce6;stop-opacity:1;"
         offset="1.00000000"
         id="stop580" />
    </linearGradient>
    <linearGradient
       xlink:href="#linearGradient578"
       id="linearGradient581"
       x1="5.6963465"
       y1="1.7399945"
       x2="57.569651"
       y2="53.848775"
       gradientTransform="matrix(0.942160,0.000000,0.000000,1.061391,3.725047e-3,0.000000)"
       gradientUnits="userSpaceOnUse" />
    <linearGradient
       xlink:href="#linearGradient584"
       id="linearGradient583"
       x1="18.753854"
       y1="35.189643"
       x2="25.633004"
       y2="41.733901"
       gradientTransform="matrix(1.633972,0.000000,0.000000,0.612006,3.725047e-3,0.000000)"
       gradientUnits="userSpaceOnUse" />
    <linearGradient
       xlink:href="#linearGradient584"
       id="linearGradient654"
       x1="25.863082"
       y1="13.839793"
       x2="32.621903"
       y2="20.569279"
       gradientTransform="matrix(0.880647,0.000000,0.000000,1.135529,3.725047e-3,0.000000)"
       gradientUnits="userSpaceOnUse" />
    <linearGradient
       xlink:href="#linearGradient584"
       id="linearGradient655"
       x1="13.786657"
       y1="32.798626"
       x2="22.824208"
       y2="41.995931"
       gradientTransform="matrix(1.196300,0.000000,0.000000,0.835911,3.725047e-3,0.000000)"
       gradientUnits="userSpaceOnUse" />
    <linearGradient
       xlink:href="#linearGradient837"
       id="linearGradient840"
       x1="13.279770"
       y1="12.123960"
       x2="45.286500"
       y2="44.275983"
       gradientTransform="matrix(1.002473,0.000000,0.000000,0.997533,3.725047e-3,0.000000)"
       gradientUnits="userSpaceOnUse" />
    <linearGradient
       inkscape:collect="always"
       xlink:href="#linearGradient584"
       id="linearGradient1325"
       x1="8.1607981"
       y1="4.3668068"
       x2="47.243183"
       y2="41.546577"
       gradientTransform="matrix(0.999606,0.000000,0.000000,1.000395,3.725047e-3,0.000000)"
       gradientUnits="userSpaceOnUse" />
  </defs>
  <sodipodi:namedview
     id="base"
     pagecolor="#ffffff"
     bordercolor="#666666"
     borderopacity="1.0"
     inkscape:pageopacity="0.0"
     inkscape:pageshadow="2"
     inkscape:zoom="5.6423387"
     inkscape:cx="28.478105"
     inkscape:cy="23.344335"
     inkscape:window-width="754"
     inkscape:window-height="516"
     inkscape:window-x="167"
     inkscape:window-y="73"
     inkscape:current-layer="svg1" />
  <path
     d="M 5.3455671,48.147327 C 6.1588854,50.577186 39.839122,61.503049 42.050469,59.669580 C 44.029863,58.011177 58.840738,8.6487038 57.849056,6.6910313 C 56.818228,4.5326995 22.647312,-0.84333367 21.025362,0.63290421 C 19.027472,2.4619645 4.4913740,45.359379 5.3455671,48.147327 z "
     style="font-size:12.000000px;opacity:0.30267498;fill-rule:evenodd;stroke-width:12.500000"
     id="path639" />
  <path
     d="M 5.4613470,46.136223 C 6.2223086,48.409541 37.732716,58.631524 39.801600,56.916173 C 41.653476,55.364611 55.510192,9.1822270 54.582395,7.3506336 C 53.617974,5.3313491 21.648456,0.30169831 20.130999,1.6828326 C 18.261820,3.3940581 4.6621839,43.527883 5.4613470,46.136223 z "
     style="font-size:12.000000px;fill:url(#linearGradient581);fill-rule:evenodd;stroke:#261933;stroke-width:1.8750000;stroke-dasharray:none"
     id="path634" />
  <path
     d="M 7.6052143,44.006772 C 7.2763598,43.173645 20.342878,4.4370216 21.564449,3.6381720 C 23.091162,2.5962736 47.771495,7.2085570 48.099573,8.0397322 C 48.400289,8.8015292 28.843876,5.2443238 24.493022,9.1360481 C 16.148467,16.390423 7.9051539,44.766659 7.6052143,44.006772 z "
     style="font-size:12.000000px;opacity:0.69993597;fill:url(#linearGradient1325);fill-rule:evenodd;stroke:#ffffff;stroke-width:0.10060700pt"
     id="path640" />
  <path
     style="opacity:0.29999998;fill:#000000;fill-opacity:1.0000000;fill-rule:evenodd;stroke:none;stroke-width:18.750000;stroke-linecap:butt;stroke-linejoin:miter;stroke-dasharray:none;stroke-opacity:1.0000000"
     d="M 11.991780,38.886305 C 12.671033,40.131305 27.304422,34.474923 28.892215,34.834901 C 30.182447,35.209221 38.782243,47.633550 39.892292,46.980769 C 41.020545,46.317290 35.242346,32.138686 35.607115,30.886128 C 35.963299,29.663448 48.616278,20.534307 48.029038,19.310924 C 47.459188,18.123782 33.320485,23.999701 32.135846,23.654549 C 30.855043,23.170128 21.443045,10.423162 20.258468,11.144958 C 19.055319,11.878072 25.401638,26.528262 24.972663,28.019277 C 24.489135,29.320588 11.369958,37.591185 11.991780,38.886305 z "
     id="path601"
     sodipodi:nodetypes="cssssssss" />
  <path
     style="font-size:12.000000px;fill:url(#linearGradient840);fill-rule:evenodd;stroke:#330000;stroke-width:1.8750000;stroke-dasharray:none"
     d="M 13.694509,36.622464 C 14.290503,37.714857 27.130210,32.751805 28.523378,33.067660 C 29.655459,33.396097 37.201141,44.297517 38.175129,43.724753 C 39.165081,43.142597 34.095148,30.701932 34.415201,29.602903 C 34.727728,28.530094 45.829777,20.519957 45.314522,19.446532 C 44.814519,18.404901 32.408859,23.560579 31.369422,23.257733 C 30.245615,22.832692 21.987290,11.648181 20.947913,12.281504 C 19.892238,12.924756 25.460659,25.779204 25.084264,27.087457 C 24.660006,28.229260 13.148909,35.486092 13.694509,36.622464 z "
     id="path589"
     sodipodi:nodetypes="cssssssss" />
  <path
     style="font-size:12.000000px;fill:url(#linearGradient655);fill-rule:evenodd;stroke:none;stroke-width:1.0000000pt"
     d="M 16.610594,35.269749 C 16.864884,34.895249 25.268552,28.815284 27.864573,27.373204 C 28.363859,27.095854 26.846311,30.024702 26.173113,30.479149 C 23.287040,32.427425 16.400923,35.578537 16.610594,35.269749 z "
     id="path596"
     sodipodi:nodetypes="csss" />
  <path
     style="opacity:0.75038201;fill:url(#linearGradient654);fill-opacity:1.0000000;fill-rule:evenodd;stroke:none;stroke-width:1.0000000pt;stroke-linecap:butt;stroke-linejoin:miter;stroke-opacity:1.0000000"
     d="M 25.475929,23.407582 C 25.094426,22.742159 22.388326,15.590753 22.776640,15.531149 C 23.226268,15.462135 28.485543,22.059820 28.850613,22.696584 C 29.036141,23.020187 24.457573,17.960921 24.265869,17.981818 C 24.154440,17.998921 25.645026,23.702527 25.475929,23.407582 z "
     id="path597"
     sodipodi:nodetypes="cssss" />
  <path
     style="fill:url(#linearGradient583);fill-opacity:1.0000000;fill-rule:evenodd;stroke:none;stroke-width:1.0000000pt;stroke-linecap:butt;stroke-linejoin:miter;stroke-opacity:1.0000000"
     d="M 30.516614,25.438502 C 32.846920,24.217532 41.736198,21.287861 42.141844,21.440151 C 42.485040,21.568994 36.954919,24.759255 34.097867,25.717771 C 33.381265,25.958184 30.022116,25.697596 30.516614,25.438502 z "
     id="path598"
     sodipodi:nodetypes="csss" />
</svg>
