<?xml version="1.0" encoding="UTF-8" standalone="no"?>
<!-- Created with Inkscape (http://www.inkscape.org/) -->
<svg
   xmlns:dc="http://purl.org/dc/elements/1.1/"
   xmlns:cc="http://web.resource.org/cc/"
   xmlns:rdf="http://www.w3.org/1999/02/22-rdf-syntax-ns#"
   xmlns:svg="http://www.w3.org/2000/svg"
   xmlns="http://www.w3.org/2000/svg"
   xmlns:xlink="http://www.w3.org/1999/xlink"
   xmlns:sodipodi="http://inkscape.sourceforge.net/DTD/sodipodi-0.dtd"
   xmlns:inkscape="http://www.inkscape.org/namespaces/inkscape"
   id="svg1"
   sodipodi:version="0.32"
   inkscape:version="0.42.2"
   width="48pt"
   height="48pt"
   sodipodi:docbase="/home/jakob/dev/lila/lila-theme/trunk/lila/kde/scalable/actions"
   sodipodi:docname="text_under.svg">
  <metadata
     id="metadata24">
    <rdf:RDF>
      <cc:Work
         rdf:about="">
        <dc:format>image/svg+xml</dc:format>
        <dc:type
           rdf:resource="http://purl.org/dc/dcmitype/StillImage" />
      </cc:Work>
    </rdf:RDF>
  </metadata>
  <defs
     id="defs3">
    <linearGradient
       id="linearGradient584">
      <stop
         style="stop-color:#ffffff;stop-opacity:1;"
         offset="0.00000000"
         id="stop585" />
      <stop
         style="stop-color:#ffffff;stop-opacity:0;"
         offset="1.00000000"
         id="stop586" />
    </linearGradient>
    <linearGradient
       id="linearGradient578">
      <stop
         style="stop-color:#faf8fd;stop-opacity:1;"
         offset="0.00000000"
         id="stop579" />
      <stop
         style="stop-color:#d9cce6;stop-opacity:1;"
         offset="1.00000000"
         id="stop580" />
    </linearGradient>
    <linearGradient
       xlink:href="#linearGradient578"
       id="linearGradient581"
       x1="3.3262202"
       y1="4.3624692"
       x2="55.837559"
       y2="56.463563"
       gradientTransform="matrix(1.013076,0.000000,0.000000,0.987093,2.849880e-4,0.000000)"
       gradientUnits="userSpaceOnUse" />
    <linearGradient
       xlink:href="#linearGradient584"
       id="linearGradient583"
       x1="6.5600808"
       y1="8.0187415"
       x2="49.514063"
       y2="50.276710"
       gradientTransform="matrix(1.023983,0.000000,0.000000,0.976578,2.849880e-4,0.000000)"
       gradientUnits="userSpaceOnUse" />
    <linearGradient
       xlink:href="#linearGradient584"
       id="linearGradient654"
       x1="29.537400"
       y1="9.1438914"
       x2="47.234209"
       y2="27.369225"
       gradientTransform="matrix(0.706092,0.000000,7.451751e-2,1.416246,-1.392438,0.000000)"
       gradientUnits="userSpaceOnUse" />
    <linearGradient
       xlink:href="#linearGradient584"
       id="linearGradient655"
       x1="23.913905"
       y1="34.577435"
       x2="26.793404"
       y2="37.373741"
       gradientTransform="matrix(1.255807,0.000000,4.189835e-2,0.796301,-1.392438,0.000000)"
       gradientUnits="userSpaceOnUse" />
    <linearGradient
       xlink:href="#linearGradient584"
       id="linearGradient713"
       x1="3.3694591"
       y1="163.96556"
       x2="11.926937"
       y2="172.80805"
       gradientTransform="matrix(3.739289,0.000000,0.000000,0.267430,2.849880e-4,0.000000)"
       gradientUnits="userSpaceOnUse" />
  </defs>
  <sodipodi:namedview
     id="base"
     pagecolor="#ffffff"
     bordercolor="#666666"
     borderopacity="1.0"
     inkscape:pageopacity="0.0"
     inkscape:pageshadow="2"
     inkscape:zoom="7.9794719"
     inkscape:cx="25.563473"
     inkscape:cy="21.710158"
     inkscape:window-width="1400"
     inkscape:window-height="992"
     inkscape:window-x="0"
     inkscape:window-y="0"
     inkscape:current-layer="svg1" />
  <path
     style="opacity:0.29636899;fill:#000000;fill-opacity:1.0000000;fill-rule:evenodd;stroke:none;stroke-width:1.8750000;stroke-linecap:butt;stroke-linejoin:miter;stroke-dasharray:none;stroke-opacity:1.0000000"
     d="M 7.1871305,7.9441926 C 9.4290650,6.0057716 56.506460,6.0085340 58.454273,7.9441926 C 60.421789,9.7244595 59.741516,55.956242 57.929354,57.811551 C 56.402822,59.378594 9.0871560,59.833611 7.1871305,57.986524 C 5.1453573,55.826666 4.7556812,10.070304 7.1871305,7.9441926 z "
     id="path712"
     sodipodi:nodetypes="cssss" />
  <path
     style="font-size:12.000000px;fill:url(#linearGradient581);fill-rule:evenodd;stroke:#261933;stroke-width:1.8750000;stroke-dasharray:none"
     d="M 5.9007419,6.6209014 C 8.0261033,4.7832713 52.655631,4.7858901 54.502164,6.6209013 C 56.367375,8.3085990 55.722474,52.136483 54.004539,53.895323 C 52.557381,55.380884 7.7019723,55.812241 5.9007419,54.061197 C 3.9651340,52.013644 3.5957197,8.6364611 5.9007419,6.6209014 z "
     id="path684"
     sodipodi:nodetypes="cssss" />
  <path
     style="fill:#261933;fill-opacity:1.0000000;fill-rule:evenodd;stroke:none;stroke-width:1.0000000pt;stroke-linecap:butt;stroke-linejoin:miter;stroke-opacity:1.0000000"
     d="M 26.616794,12.178633 L 19.939372,40.622592 L 26.079012,40.629914 L 27.221651,32.923257 L 32.250299,32.792880 L 34.316560,40.615270 L 40.196173,40.760291 L 33.744309,12.178633 L 26.616794,12.178633 z M 30.013336,17.202984 L 31.668959,28.477169 L 28.213651,28.477169 L 30.013336,17.202984 z "
     id="path690"
     sodipodi:nodetypes="ccccccccccccc" />
  <path
     style="fill:url(#linearGradient583);fill-opacity:1.0000000;fill-rule:evenodd;stroke:none;stroke-width:1.0000000pt;stroke-linecap:butt;stroke-linejoin:miter;stroke-opacity:1.0000000"
     d="M 7.3936184,50.080193 C 6.6682837,49.354858 6.2077521,11.534699 7.7253687,8.9431540 C 9.0473400,6.8515750 50.294796,8.2191651 51.018785,8.9431540 C 51.677089,9.6014583 15.538668,9.7065422 11.872247,13.090032 C 7.7477806,16.730348 8.0505765,50.737151 7.3936184,50.080193 z "
     id="path691"
     sodipodi:nodetypes="cssss" />
  <path
     style="fill:url(#linearGradient654);fill-opacity:1.0000000;fill-rule:evenodd;stroke:none;stroke-width:1.0000000pt;stroke-linecap:butt;stroke-linejoin:miter;stroke-opacity:1.0000000"
     d="M 21.513864,38.964797 L 27.332387,12.950000 L 33.115155,12.950000 C 31.334412,13.778321 28.655927,13.297454 28.142400,14.606641 C 25.955603,20.288352 25.173918,30.896326 21.513864,38.964797 z "
     id="path692"
     sodipodi:nodetypes="cccsc" />
  <path
     style="fill:url(#linearGradient655);fill-opacity:1.0000000;fill-rule:evenodd;stroke:none;stroke-width:1.0000000pt;stroke-linecap:butt;stroke-linejoin:miter;stroke-opacity:1.0000000"
     d="M 30.184859,29.332690 C 30.085860,29.228505 32.489374,29.490093 33.164981,29.056584 C 33.421692,28.891862 32.897108,27.448853 32.981814,27.537995 C 33.115744,27.678941 34.130474,29.548198 33.820881,29.746851 C 33.198154,30.146429 30.304496,29.458594 30.184859,29.332690 z "
     id="path693"
     sodipodi:nodetypes="cssss" />
  <path
     style="fill:#261933;fill-opacity:1.0000000;fill-rule:evenodd;stroke:none;stroke-width:1.0000000pt;stroke-linecap:butt;stroke-linejoin:miter;stroke-opacity:1.0000000"
     d="M 14.778534,44.595144 C 24.227456,43.711432 36.123580,43.711432 45.572502,44.595144 C 46.388236,44.671436 46.388236,47.398864 45.572502,47.475155 C 36.123580,48.358867 24.227456,48.358867 14.778534,47.475155 C 13.962800,47.398864 13.962800,44.671436 14.778534,44.595144 z "
     id="path594"
     sodipodi:nodetypes="cssss" />
  <path
     style="fill:url(#linearGradient713);fill-opacity:1.0000000;fill-rule:evenodd;stroke:none;stroke-width:1.0000000pt;stroke-linecap:butt;stroke-linejoin:miter;stroke-opacity:1.0000000"
     d="M 15.117200,46.606256 C 14.964259,46.483903 14.516007,45.261988 14.960548,45.196389 C 24.537496,43.704825 44.357166,45.012240 44.489445,45.118063 C 44.618253,45.221109 25.282855,44.090438 15.743808,45.822997 C 15.418296,45.879914 15.225346,46.692773 15.117200,46.606256 z "
     id="path595"
     sodipodi:nodetypes="cssss" />
</svg>
