<?xml version="1.0" encoding="UTF-8" standalone="no"?>
<!-- Created with Inkscape (http://www.inkscape.org/) -->
<svg
   xmlns:dc="http://purl.org/dc/elements/1.1/"
   xmlns:cc="http://web.resource.org/cc/"
   xmlns:rdf="http://www.w3.org/1999/02/22-rdf-syntax-ns#"
   xmlns:svg="http://www.w3.org/2000/svg"
   xmlns="http://www.w3.org/2000/svg"
   xmlns:xlink="http://www.w3.org/1999/xlink"
   xmlns:sodipodi="http://inkscape.sourceforge.net/DTD/sodipodi-0.dtd"
   xmlns:inkscape="http://www.inkscape.org/namespaces/inkscape"
   id="svg1"
   sodipodi:version="0.32"
   inkscape:version="0.42.2"
   width="48pt"
   height="48pt"
   sodipodi:docbase="/home/jakob/dev/lila/lila-theme/trunk/lila/kde/scalable/actions"
   sodipodi:docname="text_strike.svg">
  <metadata
     id="metadata24">
    <rdf:RDF>
      <cc:Work
         rdf:about="">
        <dc:format>image/svg+xml</dc:format>
        <dc:type
           rdf:resource="http://purl.org/dc/dcmitype/StillImage" />
      </cc:Work>
    </rdf:RDF>
  </metadata>
  <defs
     id="defs3">
    <linearGradient
       id="linearGradient584">
      <stop
         style="stop-color:#ffffff;stop-opacity:1;"
         offset="0.00000000"
         id="stop585" />
      <stop
         style="stop-color:#ffffff;stop-opacity:0;"
         offset="1.00000000"
         id="stop586" />
    </linearGradient>
    <linearGradient
       id="linearGradient578">
      <stop
         style="stop-color:#faf8fd;stop-opacity:1;"
         offset="0.00000000"
         id="stop579" />
      <stop
         style="stop-color:#d9cce6;stop-opacity:1;"
         offset="1.00000000"
         id="stop580" />
    </linearGradient>
    <linearGradient
       xlink:href="#linearGradient578"
       id="linearGradient581"
       x1="3.3262202"
       y1="4.3624692"
       x2="55.837559"
       y2="56.463563"
       gradientTransform="matrix(1.013076,0.000000,0.000000,0.987093,2.849880e-4,0.000000)"
       gradientUnits="userSpaceOnUse" />
    <linearGradient
       xlink:href="#linearGradient584"
       id="linearGradient583"
       x1="6.5600808"
       y1="8.0187415"
       x2="49.514063"
       y2="50.276710"
       gradientTransform="matrix(1.023983,0.000000,0.000000,0.976578,2.849880e-4,0.000000)"
       gradientUnits="userSpaceOnUse" />
    <linearGradient
       xlink:href="#linearGradient584"
       id="linearGradient654"
       x1="26.675465"
       y1="9.2574902"
       x2="48.063281"
       y2="31.284065"
       gradientTransform="matrix(0.706092,0.000000,8.221018e-2,1.416246,-1.709232,0.000000)"
       gradientUnits="userSpaceOnUse" />
    <linearGradient
       xlink:href="#linearGradient584"
       id="linearGradient655"
       x1="23.475763"
       y1="35.539045"
       x2="26.955837"
       y2="38.918574"
       gradientTransform="matrix(1.255807,0.000000,4.622364e-2,0.796301,-1.709232,0.000000)"
       gradientUnits="userSpaceOnUse" />
    <linearGradient
       xlink:href="#linearGradient584"
       id="linearGradient713"
       x1="2.1993718"
       y1="97.432176"
       x2="12.541674"
       y2="108.11893"
       gradientTransform="matrix(3.739290,0.000000,0.000000,0.267430,2.849880e-4,0.000000)"
       gradientUnits="userSpaceOnUse" />
  </defs>
  <sodipodi:namedview
     id="base"
     pagecolor="#ffffff"
     bordercolor="#666666"
     borderopacity="1.0"
     inkscape:pageopacity="0.0"
     inkscape:pageshadow="2"
     inkscape:zoom="7.9794719"
     inkscape:cx="25.563495"
     inkscape:cy="21.710162"
     inkscape:window-width="1400"
     inkscape:window-height="992"
     inkscape:window-x="0"
     inkscape:window-y="0"
     inkscape:current-layer="svg1" />
  <path
     style="opacity:0.29636899;fill:#000000;fill-opacity:1.0000000;fill-rule:evenodd;stroke:none;stroke-width:1.8750000;stroke-linecap:butt;stroke-linejoin:miter;stroke-dasharray:none;stroke-opacity:1.0000000"
     d="M 7.1871305,7.9441926 C 9.4290650,6.0057716 56.506460,6.0085340 58.454273,7.9441926 C 60.421789,9.7244595 59.741516,55.956242 57.929354,57.811551 C 56.402822,59.378594 9.0871560,59.833611 7.1871305,57.986524 C 5.1453573,55.826666 4.7556812,10.070304 7.1871305,7.9441926 z "
     id="path712"
     sodipodi:nodetypes="cssss" />
  <path
     style="font-size:12.000000px;fill:url(#linearGradient581);fill-rule:evenodd;stroke:#261933;stroke-width:1.8750000;stroke-dasharray:none"
     d="M 5.9007419,6.6209014 C 8.0261033,4.7832713 52.655631,4.7858901 54.502164,6.6209013 C 56.367375,8.3085990 55.722474,52.136483 54.004539,53.895323 C 52.557381,55.380884 7.7019723,55.812241 5.9007419,54.061197 C 3.9651340,52.013644 3.5957197,8.6364611 5.9007419,6.6209014 z "
     id="path684"
     sodipodi:nodetypes="cssss" />
  <path
     style="fill:#261933;fill-opacity:1.0000000;fill-rule:evenodd;stroke:none;stroke-width:1.0000000pt;stroke-linecap:butt;stroke-linejoin:miter;stroke-opacity:1.0000000"
     d="M 25.703628,12.178633 L 17.820227,46.555123 L 25.240454,46.563972 L 26.570822,37.249945 L 32.647433,37.092375 L 35.196005,46.546274 L 42.302876,46.721542 L 34.317723,12.178633 L 25.703628,12.178633 z M 29.841568,18.250909 L 31.916512,31.876540 L 27.740534,31.876540 L 29.841568,18.250909 z "
     id="path690"
     sodipodi:nodetypes="ccccccccccccc" />
  <path
     style="fill:url(#linearGradient583);fill-opacity:1.0000000;fill-rule:evenodd;stroke:none;stroke-width:1.0000000pt;stroke-linecap:butt;stroke-linejoin:miter;stroke-opacity:1.0000000"
     d="M 7.3936184,50.080193 C 6.6682837,49.354858 6.2077521,11.534699 7.7253687,8.9431540 C 9.0473400,6.8515750 50.294796,8.2191651 51.018785,8.9431540 C 51.677089,9.6014583 15.538668,9.7065422 11.872247,13.090032 C 7.7477806,16.730348 8.0505765,50.737151 7.3936184,50.080193 z "
     id="path691"
     sodipodi:nodetypes="cssss" />
  <path
     style="fill:url(#linearGradient654);fill-opacity:1.0000000;fill-rule:evenodd;stroke:none;stroke-width:1.0000000pt;stroke-linecap:butt;stroke-linejoin:miter;stroke-opacity:1.0000000"
     d="M 19.712227,44.551564 L 26.573537,13.110884 L 33.562411,13.110884 C 31.415699,14.111967 28.175406,13.530806 27.563368,15.113049 C 24.957771,21.979789 24.082689,34.800259 19.712227,44.551564 z "
     id="path692"
     sodipodi:nodetypes="cccsc" />
  <path
     style="fill:url(#linearGradient655);fill-opacity:1.0000000;fill-rule:evenodd;stroke:none;stroke-width:1.0000000pt;stroke-linecap:butt;stroke-linejoin:miter;stroke-opacity:1.0000000"
     d="M 29.543955,30.473564 C 29.423624,30.347649 32.330153,30.663796 33.143824,30.139870 C 33.452996,29.940793 32.809529,28.196816 32.912485,28.304551 C 33.075274,28.474894 34.313918,30.734020 33.941058,30.974106 C 33.191073,31.457023 29.689370,30.625727 29.543955,30.473564 z "
     id="path693"
     sodipodi:nodetypes="cssss" />
  <path
     style="fill:#261933;fill-opacity:1.0000000;fill-rule:evenodd;stroke:none;stroke-width:1.0000000pt;stroke-linecap:butt;stroke-linejoin:miter;stroke-opacity:1.0000000"
     d="M 10.857684,26.957625 C 22.277359,25.889598 36.654647,25.889598 48.074322,26.957625 C 49.060193,27.049829 49.060193,30.346114 48.074322,30.438317 C 36.654647,31.506344 22.277359,31.506344 10.857684,30.438317 C 9.8718140,30.346114 9.8718140,27.049829 10.857684,26.957625 z "
     id="path594"
     sodipodi:nodetypes="cssss" />
  <path
     style="fill:url(#linearGradient713);fill-opacity:1.0000000;fill-rule:evenodd;stroke:none;stroke-width:1.0000000pt;stroke-linecap:butt;stroke-linejoin:miter;stroke-opacity:1.0000000"
     d="M 11.266985,29.388192 C 11.082146,29.240320 10.540402,27.763552 11.077661,27.684271 C 22.652064,25.881613 46.605505,27.461714 46.765373,27.589608 C 46.921046,27.714147 23.552882,26.347653 12.024284,28.441570 C 11.630881,28.510358 11.397687,29.492754 11.266985,29.388192 z "
     id="path595"
     sodipodi:nodetypes="cssss" />
</svg>
