<?xml version="1.0" encoding="UTF-8" standalone="no"?>
<!-- Created with Inkscape (http://www.inkscape.org/) -->
<svg
   xmlns:dc="http://purl.org/dc/elements/1.1/"
   xmlns:cc="http://web.resource.org/cc/"
   xmlns:rdf="http://www.w3.org/1999/02/22-rdf-syntax-ns#"
   xmlns:svg="http://www.w3.org/2000/svg"
   xmlns="http://www.w3.org/2000/svg"
   xmlns:xlink="http://www.w3.org/1999/xlink"
   xmlns:sodipodi="http://inkscape.sourceforge.net/DTD/sodipodi-0.dtd"
   xmlns:inkscape="http://www.inkscape.org/namespaces/inkscape"
   id="svg1"
   sodipodi:version="0.32"
   inkscape:version="0.42"
   width="48pt"
   height="48pt"
   sodipodi:docbase="/home/jakob/dev/lila/lila-theme/trunk/lila/kde/scalable/actions"
   sodipodi:docname="bottom.svg">
  <metadata
     id="metadata23">
    <rdf:RDF>
      <cc:Work
         rdf:about="">
        <dc:format>image/svg+xml</dc:format>
        <dc:type
           rdf:resource="http://purl.org/dc/dcmitype/StillImage" />
      </cc:Work>
    </rdf:RDF>
  </metadata>
  <defs
     id="defs3">
    <linearGradient
       id="linearGradient584">
      <stop
         style="stop-color:#ffffff;stop-opacity:1;"
         offset="0.00000000"
         id="stop585" />
      <stop
         style="stop-color:#ffffff;stop-opacity:0;"
         offset="1.00000000"
         id="stop586" />
    </linearGradient>
    <linearGradient
       id="linearGradient578">
      <stop
         style="stop-color:#d9cce6;stop-opacity:1;"
         offset="0.00000000"
         id="stop579" />
      <stop
         style="stop-color:#73667f;stop-opacity:1;"
         offset="1.00000000"
         id="stop580" />
    </linearGradient>
    <linearGradient
       xlink:href="#linearGradient578"
       id="linearGradient581"
       x1="8.3935810"
       y1="3.2009375"
       x2="51.124163"
       y2="44.970405"
       gradientTransform="matrix(1.007177,0.000000,0.000000,0.992874,-4.580333e-4,0.000000)"
       gradientUnits="userSpaceOnUse" />
    <linearGradient
       xlink:href="#linearGradient578"
       id="linearGradient583"
       x1="4.1354223"
       y1="93.844392"
       x2="26.292129"
       y2="114.75956"
       gradientTransform="matrix(1.992614,0.000000,0.000000,0.501853,-4.580333e-4,0.000000)"
       gradientUnits="userSpaceOnUse" />
    <linearGradient
       xlink:href="#linearGradient584"
       id="linearGradient612"
       x1="4.4112999"
       y1="118.34392"
       x2="17.297158"
       y2="130.44578"
       gradientTransform="matrix(2.397783,0.000000,0.000000,0.417052,-4.580333e-4,0.000000)"
       gradientUnits="userSpaceOnUse" />
    <linearGradient
       xlink:href="#linearGradient584"
       id="linearGradient614"
       x1="9.9603984"
       y1="6.2004247"
       x2="33.703893"
       y2="28.966897"
       gradientTransform="matrix(1.160569,0.000000,0.000000,0.861646,-4.580333e-4,0.000000)"
       gradientUnits="userSpaceOnUse" />
  </defs>
  <sodipodi:namedview
     id="base"
     pagecolor="#ffffff"
     bordercolor="#666666"
     borderopacity="1.0"
     inkscape:pageopacity="0.0"
     inkscape:pageshadow="2"
     inkscape:zoom="5.6423388"
     inkscape:cx="15.834676"
     inkscape:cy="24.167611"
     inkscape:window-width="1400"
     inkscape:window-height="997"
     inkscape:window-x="0"
     inkscape:window-y="0"
     inkscape:current-layer="svg1" />
  <path
     style="font-size:12.000000px;opacity:0.30267498;fill-rule:evenodd;stroke-width:12.500000"
     d="M 17.861498,2.0353066 C 18.780694,0.56527298 41.046935,1.1118741 42.276920,2.0353066 C 43.678109,3.1335046 41.363567,21.008191 42.276920,22.469949 C 42.979576,23.738894 54.068046,21.229358 53.688477,22.469949 C 53.293596,23.623297 35.622401,47.226942 30.865363,47.416138 C 25.896769,47.416138 7.0744948,24.091785 6.7153294,22.469949 C 6.4316270,21.040655 17.565715,23.335255 18.392268,22.204565 C 19.487515,20.780880 16.752872,3.6206328 17.861498,2.0353066 z "
     id="path591"
     sodipodi:nodetypes="csssssss" />
  <path
     style="font-size:12.000000px;opacity:0.30267498;fill-rule:evenodd;stroke-width:12.500000"
     d="M 8.6531541,47.339702 C 10.475577,46.422284 50.866656,46.109941 52.735350,47.192554 C 54.564791,48.129934 54.282926,57.009700 52.735350,57.875108 C 50.934564,58.998645 10.050092,58.848546 8.6374200,57.875108 C 7.2314717,57.012349 7.0826078,48.061452 8.6531541,47.339702 z "
     id="path592"
     sodipodi:nodetypes="cssss" />
  <path
     style="font-size:12.000000px;fill:url(#linearGradient581);fill-rule:evenodd;stroke:#261933;stroke-width:1.8722700"
     d="M 19.071133,3.9998230 C 19.894329,2.6833162 39.835130,3.1728323 40.936664,3.9998230 C 42.191514,4.9833275 40.118696,20.991221 40.936664,22.300317 C 41.565941,23.436737 51.496346,21.189293 51.156418,22.300317 C 50.802770,23.333212 35.334436,44.641182 30.716900,44.641182 C 25.913271,44.818154 9.4106990,23.752772 9.0890440,22.300317 C 8.8349716,21.020295 18.806240,23.075252 19.546469,22.062649 C 20.527334,20.787649 18.078289,5.4195820 19.071133,3.9998230 z "
     id="path589"
     sodipodi:nodetypes="csssssss" />
  <path
     style="font-size:12.000000px;fill:url(#linearGradient583);fill-rule:evenodd;stroke:#261933;stroke-width:1.8722700"
     d="M 10.054134,48.321549 C 11.723887,47.617885 48.731265,47.378315 50.443411,48.208687 C 52.119597,48.927663 51.861333,55.738513 50.443411,56.402288 C 48.793486,57.264050 11.334048,57.148921 10.039718,56.402288 C 8.7515532,55.740546 8.6151590,48.875139 10.054134,48.321549 z "
     id="path590"
     sodipodi:nodetypes="cssss" />
  <path
     style="fill:url(#linearGradient612);fill-opacity:1.0000000;fill-rule:evenodd;stroke:none;stroke-width:1.0000000pt;stroke-linecap:butt;stroke-linejoin:miter;stroke-opacity:1.0000000"
     d="M 11.393361,54.706739 C 11.055273,54.402463 9.8446950,50.142554 11.216387,49.928474 C 20.050127,48.549797 41.706193,49.655362 42.009652,49.928474 C 42.296109,50.186280 22.077597,50.102328 12.986115,51.521230 C 11.872165,51.695084 11.645183,54.933380 11.393361,54.706739 z "
     id="path611"
     sodipodi:nodetypes="cssss" />
  <path
     style="fill:url(#linearGradient614);fill-opacity:1.0000000;fill-rule:evenodd;stroke:none;stroke-width:1.0000000pt;stroke-linecap:butt;stroke-linejoin:miter;stroke-opacity:1.0000000"
     d="M 13.163086,25.860174 C 12.737951,25.666931 10.728728,23.497589 11.393361,23.382556 C 13.796257,22.966669 20.909412,25.056268 21.480808,23.382556 C 22.369281,19.213740 19.147055,6.3223127 20.418972,5.3313310 C 21.394477,4.2295527 39.336017,4.9272549 39.709012,5.3313310 C 40.043909,5.6941359 24.345528,5.8458580 22.542645,7.6319766 C 21.175805,9.1202794 24.658204,21.117001 22.719619,24.621365 C 21.590675,26.662148 16.412267,24.216216 13.340060,24.267419 C 12.872811,24.275207 13.386851,25.961884 13.163086,25.860174 z "
     id="path613"
     sodipodi:nodetypes="cssssssss" />
  <path
     style="opacity:0.20178296;fill:#261e2e;fill-opacity:1.0000000;fill-rule:evenodd;stroke:none;stroke-width:1.0000000pt;stroke-linecap:butt;stroke-linejoin:miter;stroke-opacity:1.0000000"
     d="M 30.748056,3.3440176 C 30.558892,5.0248366 29.500216,43.422232 30.642149,44.647761 C 31.480072,45.660686 48.999178,27.736852 51.505838,22.619097 C 52.388202,20.817593 42.317680,24.682856 41.232856,22.513190 C 39.281684,18.610851 43.435656,8.8767684 41.656478,4.4030885 C 41.323416,3.4524284 30.884699,2.2357806 30.748056,3.3440176 z "
     id="path644"
     sodipodi:nodetypes="csssss" />
  <path
     style="opacity:0.19547798;fill:#261e2e;fill-opacity:1.0000000;fill-rule:evenodd;stroke:none;stroke-width:1.0000000pt;stroke-linecap:butt;stroke-linejoin:miter;stroke-opacity:1.0000000"
     d="M 30.540207,48.490590 C 30.299982,48.500839 30.401158,56.339831 30.665347,56.374327 C 34.932908,57.056693 45.712405,57.924966 50.437262,55.998910 C 52.261319,55.255341 52.159639,49.062629 50.312116,48.365452 C 45.527286,46.559855 35.594171,48.348805 30.540207,48.490590 z "
     id="path646"
     sodipodi:nodetypes="cssss" />
</svg>
