<?xml version="1.0" encoding="UTF-8" standalone="no"?>
<!-- Created with Inkscape (http://www.inkscape.org/) -->
<svg
   xmlns:dc="http://purl.org/dc/elements/1.1/"
   xmlns:cc="http://web.resource.org/cc/"
   xmlns:rdf="http://www.w3.org/1999/02/22-rdf-syntax-ns#"
   xmlns:svg="http://www.w3.org/2000/svg"
   xmlns="http://www.w3.org/2000/svg"
   xmlns:xlink="http://www.w3.org/1999/xlink"
   xmlns:sodipodi="http://inkscape.sourceforge.net/DTD/sodipodi-0.dtd"
   xmlns:inkscape="http://www.inkscape.org/namespaces/inkscape"
   id="svg1"
   sodipodi:version="0.32"
   inkscape:version="0.42"
   width="48pt"
   height="48pt"
   sodipodi:docbase="/home/jakob/dev/lila/lila-theme/trunk/lila/kde/scalable/actions"
   sodipodi:docname="start.svg">
  <metadata
     id="metadata24">
    <rdf:RDF>
      <cc:Work
         rdf:about="">
        <dc:format>image/svg+xml</dc:format>
        <dc:type
           rdf:resource="http://purl.org/dc/dcmitype/StillImage" />
      </cc:Work>
    </rdf:RDF>
  </metadata>
  <defs
     id="defs3">
    <linearGradient
       id="linearGradient584">
      <stop
         style="stop-color:#ffffff;stop-opacity:1;"
         offset="0.00000000"
         id="stop585" />
      <stop
         style="stop-color:#ffffff;stop-opacity:0;"
         offset="1.00000000"
         id="stop586" />
    </linearGradient>
    <linearGradient
       id="linearGradient578">
      <stop
         style="stop-color:#d9cce6;stop-opacity:1;"
         offset="0.00000000"
         id="stop579" />
      <stop
         style="stop-color:#73667f;stop-opacity:1;"
         offset="1.00000000"
         id="stop580" />
    </linearGradient>
    <linearGradient
       xlink:href="#linearGradient578"
       id="linearGradient581"
       x1="14.142625"
       y1="8.6947398"
       x2="56.897818"
       y2="50.488265"
       gradientTransform="matrix(0.992874,0.000000,0.000000,1.007177,2.997443e-4,0.000000)"
       gradientUnits="userSpaceOnUse" />
    <linearGradient
       xlink:href="#linearGradient578"
       id="linearGradient583"
       x1="2.8058056"
       y1="4.5890350"
       x2="24.975268"
       y2="25.516243"
       gradientTransform="matrix(0.501853,0.000000,0.000000,1.992615,2.997443e-4,0.000000)"
       gradientUnits="userSpaceOnUse" />
    <linearGradient
       xlink:href="#linearGradient584"
       id="linearGradient612"
       x1="13.139955"
       y1="58.601303"
       x2="18.761620"
       y2="63.880937"
       gradientTransform="matrix(2.819832,0.000000,0.000000,0.354631,2.997443e-4,0.000000)"
       gradientUnits="userSpaceOnUse" />
    <linearGradient
       xlink:href="#linearGradient584"
       id="linearGradient614"
       x1="17.797366"
       y1="12.270661"
       x2="37.600368"
       y2="30.964012"
       gradientTransform="matrix(0.961178,0.000000,0.000000,1.040390,2.997443e-4,0.000000)"
       gradientUnits="userSpaceOnUse" />
    <linearGradient
       inkscape:collect="always"
       xlink:href="#linearGradient584"
       id="linearGradient2049"
       x1="9.8188998"
       y1="4.5249212"
       x2="22.712186"
       y2="16.633760"
       gradientTransform="matrix(0.417052,0.000000,0.000000,2.397783,2.997443e-4,0.000000)"
       gradientUnits="userSpaceOnUse" />
  </defs>
  <sodipodi:namedview
     id="base"
     pagecolor="#ffffff"
     bordercolor="#666666"
     borderopacity="1.0"
     inkscape:pageopacity="0.0"
     inkscape:pageshadow="2"
     inkscape:zoom="7.9794719"
     inkscape:cx="24.951428"
     inkscape:cy="24.642242"
     inkscape:window-width="1400"
     inkscape:window-height="997"
     inkscape:window-x="0"
     inkscape:window-y="0"
     inkscape:current-layer="svg1" />
  <path
     style="font-size:12.000000px;opacity:0.30267498;fill-rule:evenodd;stroke-width:12.500000"
     d="M 58.958460,18.889541 C 60.429340,19.809266 59.882430,42.088342 58.958460,43.319033 C 57.859630,44.721014 39.974650,42.405160 38.512050,43.319033 C 37.242370,44.022090 39.753350,55.116936 38.512050,54.737152 C 37.358030,54.342048 13.740790,36.660669 13.551490,31.900896 C 13.551490,26.929442 36.889280,8.0963222 38.512050,7.7369491 C 39.942160,7.4530850 37.646240,18.593587 38.777580,19.420618 C 40.202090,20.516496 57.372220,17.780277 58.958460,18.889541 z "
     id="path591"
     sodipodi:nodetypes="csssssss" />
  <path
     style="font-size:12.000000px;opacity:0.30267498;fill-rule:evenodd;stroke-width:12.500000"
     d="M 13.450890,8.9246266 C 14.368840,10.748100 14.681360,51.162436 13.598130,53.032212 C 12.660210,54.862718 3.7753197,54.580690 2.9094197,53.032212 C 1.7852297,51.230410 1.9354197,10.322371 2.9094197,8.9088835 C 3.7726697,7.5021261 12.728730,7.3531743 13.450890,8.9246266 z "
     id="path592"
     sodipodi:nodetypes="cssss" />
  <path
     style="font-size:12.000000px;fill:url(#linearGradient581);fill-rule:evenodd;stroke:#261933;stroke-width:1.8733400"
     d="M 55.343590,18.744036 C 56.660860,19.567708 56.171060,39.520007 55.343590,40.622154 C 54.359520,41.877727 38.342400,39.803735 37.032550,40.622154 C 35.895480,41.251805 38.144220,51.187922 37.032550,50.847811 C 35.999060,50.493970 14.678820,35.016719 14.678820,30.396515 C 14.501740,25.590118 35.579260,9.0780374 37.032550,8.7561967 C 38.313310,8.5019776 36.257170,18.478992 37.270360,19.219648 C 38.546090,20.201076 53.923020,17.750621 55.343590,18.744036 z "
     id="path589"
     sodipodi:nodetypes="csssssss" />
  <path
     style="font-size:12.000000px;fill:url(#linearGradient583);fill-rule:evenodd;stroke:#261933;stroke-width:1.8733400"
     d="M 10.996330,9.7218434 C 11.700400,11.392559 11.940110,48.421258 11.109260,50.134389 C 10.389870,51.811540 3.5750897,51.553134 2.9109397,50.134389 C 2.0486797,48.483510 2.1638697,11.002495 2.9109397,9.7074200 C 3.5730597,8.4185122 10.442420,8.2820383 10.996330,9.7218434 z "
     id="path590"
     sodipodi:nodetypes="cssss" />
  <path
     style="fill:url(#linearGradient2049);fill-opacity:1.0000000;fill-rule:evenodd;stroke:none;stroke-width:1.0000000pt;stroke-linecap:butt;stroke-linejoin:miter;stroke-opacity:1.0000000"
     d="M 9.5547397,11.061844 C 9.2502797,10.723562 4.9879197,9.5122849 4.7737197,10.884767 C 3.3942497,19.723597 4.5004497,41.392142 4.7737197,41.695779 C 5.0316697,41.982395 4.9476697,21.752235 6.3673897,12.655515 C 6.5413497,11.540925 9.7815097,11.313810 9.5547397,11.061844 z "
     id="path611"
     sodipodi:nodetypes="cssss" />
  <path
     style="opacity:0.20178296;fill:#261e2e;fill-opacity:1.0000000;fill-rule:evenodd;stroke:none;stroke-width:1.0000000pt;stroke-linecap:butt;stroke-linejoin:miter;stroke-opacity:1.0000000"
     d="M 55.999780,30.427686 C 54.317990,30.238407 15.898470,29.179128 14.672240,30.321721 C 13.658730,31.160122 31.592890,48.689317 36.713590,51.197428 C 38.516130,52.080313 34.648640,42.003986 36.819560,40.918533 C 40.724150,38.966228 50.463840,43.122587 54.940100,41.342395 C 55.891300,41.009141 57.108650,30.564403 55.999780,30.427686 z "
     id="path644"
     sodipodi:nodetypes="csssss" />
  <path
     style="opacity:0.19547798;fill:#261e2e;fill-opacity:1.0000000;fill-rule:evenodd;stroke:none;stroke-width:1.0000000pt;stroke-linecap:butt;stroke-linejoin:miter;stroke-opacity:1.0000000"
     d="M 10.827190,30.219720 C 10.816940,29.979353 2.9734297,30.080590 2.9389097,30.344940 C 2.2561597,34.614960 1.3873797,45.400649 3.3145497,50.128227 C 4.0585397,51.953358 10.254820,51.851597 10.952400,50.003029 C 12.759040,45.215428 10.969060,35.276606 10.827190,30.219720 z "
     id="path646"
     sodipodi:nodetypes="cssss" />
  <path
     style="fill:url(#linearGradient614);fill-opacity:1.0000000;fill-rule:evenodd;stroke:none;stroke-width:1.0000000pt;stroke-linecap:butt;stroke-linejoin:miter;stroke-opacity:1.0000000"
     d="M 17.141190,29.358612 C 21.826610,21.865208 35.990260,12.094291 36.203940,12.118033 C 36.410770,12.141012 24.298360,23.157231 19.383860,29.218443 C 18.691670,30.072151 19.576110,32.884149 19.383860,32.862796 C 19.155610,32.837437 16.497980,30.419021 17.141190,29.358612 z "
     id="path665"
     sodipodi:nodetypes="cssss" />
  <path
     style="fill:url(#linearGradient612);fill-opacity:1.0000000;fill-rule:evenodd;stroke:none;stroke-width:1.0000000pt;stroke-linecap:butt;stroke-linejoin:miter;stroke-opacity:1.0000000"
     d="M 37.185110,21.228908 C 40.720940,21.251516 52.598170,20.525398 53.164180,20.808405 C 53.626060,21.039344 44.481640,22.659881 40.268790,22.770748 C 39.155280,22.800049 36.422480,21.344959 37.185110,21.228908 z "
     id="path666"
     sodipodi:nodetypes="csss" />
</svg>
