<?xml version="1.0" encoding="UTF-8" standalone="no"?>
<!-- Created with Inkscape (http://www.inkscape.org/) -->
<svg
   xmlns:dc="http://purl.org/dc/elements/1.1/"
   xmlns:cc="http://web.resource.org/cc/"
   xmlns:rdf="http://www.w3.org/1999/02/22-rdf-syntax-ns#"
   xmlns:svg="http://www.w3.org/2000/svg"
   xmlns="http://www.w3.org/2000/svg"
   xmlns:xlink="http://www.w3.org/1999/xlink"
   xmlns:sodipodi="http://inkscape.sourceforge.net/DTD/sodipodi-0.dtd"
   xmlns:inkscape="http://www.inkscape.org/namespaces/inkscape"
   id="svg1"
   sodipodi:version="0.32"
   inkscape:version="0.42"
   width="48pt"
   height="48pt"
   sodipodi:docbase="/home/jakob/dev/lila/lila-theme/trunk/lila/kde/scalable/actions"
   sodipodi:docname="finish.svg">
  <metadata
     id="metadata23">
    <rdf:RDF>
      <cc:Work
         rdf:about="">
        <dc:format>image/svg+xml</dc:format>
        <dc:type
           rdf:resource="http://purl.org/dc/dcmitype/StillImage" />
      </cc:Work>
    </rdf:RDF>
  </metadata>
  <defs
     id="defs3">
    <linearGradient
       id="linearGradient584">
      <stop
         style="stop-color:#ffffff;stop-opacity:1;"
         offset="0.00000000"
         id="stop585" />
      <stop
         style="stop-color:#ffffff;stop-opacity:0;"
         offset="1.00000000"
         id="stop586" />
    </linearGradient>
    <linearGradient
       id="linearGradient578">
      <stop
         style="stop-color:#d9cce6;stop-opacity:1;"
         offset="0.00000000"
         id="stop579" />
      <stop
         style="stop-color:#73667f;stop-opacity:1;"
         offset="1.00000000"
         id="stop580" />
    </linearGradient>
    <linearGradient
       xlink:href="#linearGradient578"
       id="linearGradient581"
       x1="2.2546076"
       y1="9.1117906"
       x2="45.133875"
       y2="51.026600"
       gradientTransform="matrix(0.992874,0.000000,0.000000,1.007177,-4.553998e-3,0.000000)"
       gradientUnits="userSpaceOnUse" />
    <linearGradient
       xlink:href="#linearGradient578"
       id="linearGradient583"
       x1="92.908634"
       y1="4.8003996"
       x2="115.14244"
       y2="25.788342"
       gradientTransform="matrix(0.501853,0.000000,0.000000,1.992614,-4.553998e-3,0.000000)"
       gradientUnits="userSpaceOnUse" />
    <linearGradient
       xlink:href="#linearGradient584"
       id="linearGradient612"
       x1="117.73330"
       y1="4.7026336"
       x2="130.66400"
       y2="16.846609"
       gradientTransform="matrix(0.417052,0.000000,0.000000,2.397783,-4.553998e-3,0.000000)"
       gradientUnits="userSpaceOnUse" />
    <linearGradient
       xlink:href="#linearGradient584"
       id="linearGradient614"
       x1="5.4056251"
       y1="10.486507"
       x2="29.231739"
       y2="33.332199"
       gradientTransform="matrix(0.861646,0.000000,0.000000,1.160569,-4.553998e-3,0.000000)"
       gradientUnits="userSpaceOnUse" />
  </defs>
  <sodipodi:namedview
     id="base"
     pagecolor="#ffffff"
     bordercolor="#666666"
     borderopacity="1.0"
     inkscape:pageopacity="0.0"
     inkscape:pageshadow="2"
     inkscape:zoom="5.6423388"
     inkscape:cx="31.247536"
     inkscape:cy="23.905636"
     inkscape:window-width="895"
     inkscape:window-height="516"
     inkscape:window-x="206"
     inkscape:window-y="81"
     inkscape:current-layer="svg1" />
  <path
     style="font-size:12.000000px;opacity:0.30267498;fill-rule:evenodd;stroke-width:12.500000"
     d="M 2.0721268,18.334396 C 0.59697770,19.256792 1.1454814,41.600511 2.0721268,42.834768 C 3.1741468,44.240841 21.111033,41.918250 22.577880,42.834768 C 23.851240,43.539886 21.332970,54.666924 22.577880,54.286036 C 23.735239,53.889784 47.421018,36.157104 47.610875,31.383511 C 47.610875,26.397629 24.205357,7.5098573 22.577880,7.1494414 C 21.143609,6.8647524 23.446195,18.037584 22.311570,18.867014 C 20.882931,19.966074 3.6629698,17.221914 2.0721268,18.334396 z "
     id="path591"
     sodipodi:nodetypes="csssssss" />
  <path
     style="font-size:12.000000px;opacity:0.30267498;fill-rule:evenodd;stroke-width:12.500000"
     d="M 47.711760,9.0940093 C 46.791150,10.922774 46.477719,51.454405 47.564100,53.329602 C 48.504740,55.165411 57.415408,54.882561 58.283828,53.329602 C 59.411276,51.522551 59.260653,10.495810 58.283828,9.0782206 C 57.418068,7.6673803 48.436021,7.5179973 47.711760,9.0940093 z "
     id="path592"
     sodipodi:nodetypes="cssss" />
  <path
     style="font-size:12.000000px;fill:url(#linearGradient581);fill-rule:evenodd;stroke:#261933;stroke-width:1.8787800"
     d="M 3.6883029,19.193063 C 2.3672148,20.019125 2.8584340,40.029322 3.6883029,41.134680 C 4.6752295,42.393896 20.738829,40.313875 22.052479,41.134680 C 23.192851,41.766137 20.937587,51.731105 22.052479,51.389997 C 23.088969,51.035127 44.471083,35.512966 44.471083,30.879353 C 44.648673,26.059010 23.509988,9.4990140 22.052479,9.1762394 C 20.768001,8.9212822 22.830110,18.927249 21.813984,19.670054 C 20.534547,20.654331 5.1130009,18.196765 3.6883029,19.193063 z "
     id="path589"
     sodipodi:nodetypes="csssssss" />
  <path
     style="font-size:12.000000px;fill:url(#linearGradient583);fill-rule:evenodd;stroke:#261933;stroke-width:1.8787800"
     d="M 48.164259,10.144689 C 47.458145,11.820251 47.217741,48.956404 48.051003,50.674512 C 48.772483,52.356526 55.607031,52.097369 56.273118,50.674512 C 57.137876,49.018848 57.022349,11.429055 56.273118,10.130223 C 55.609072,8.8375731 48.719774,8.7007061 48.164259,10.144689 z "
     id="path590"
     sodipodi:nodetypes="cssss" />
  <path
     style="fill:url(#linearGradient612);fill-opacity:1.0000000;fill-rule:evenodd;stroke:none;stroke-width:1.0000000pt;stroke-linecap:butt;stroke-linejoin:miter;stroke-opacity:1.0000000"
     d="M 54.571669,11.488574 C 54.266332,11.149311 49.991599,9.9345202 49.776775,11.310985 C 48.393301,20.175464 49.502712,41.906887 49.776775,42.211403 C 50.035477,42.498854 49.951235,22.209990 51.375074,13.086872 C 51.549533,11.969046 54.799099,11.741273 54.571669,11.488574 z "
     id="path611"
     sodipodi:nodetypes="cssss" />
  <path
     style="fill:url(#linearGradient614);fill-opacity:1.0000000;fill-rule:evenodd;stroke:none;stroke-width:1.0000000pt;stroke-linecap:butt;stroke-linejoin:miter;stroke-opacity:1.0000000"
     d="M 25.624722,13.264460 C 25.430807,12.837844 23.253916,10.821629 23.138482,11.488574 C 22.721150,13.899833 24.818019,21.037739 23.138482,21.611126 C 18.955160,22.502688 6.0188743,19.269249 5.0244433,20.545593 C 3.9188306,21.524494 4.6189608,39.528456 5.0244433,39.902750 C 5.3885123,40.238821 5.5407608,24.485812 7.3330957,22.676657 C 8.8265763,21.305060 20.865043,24.799580 24.381602,22.854245 C 26.429487,21.721374 23.975044,16.524945 24.026424,13.442049 C 24.034240,12.973173 25.726788,13.489004 25.624722,13.264460 z "
     id="path613"
     sodipodi:nodetypes="cssssssss" />
  <path
     style="opacity:0.20178296;fill:#261e2e;fill-opacity:1.0000000;fill-rule:evenodd;stroke:none;stroke-width:1.0000000pt;stroke-linecap:butt;stroke-linejoin:miter;stroke-opacity:1.0000000"
     d="M 3.0302147,30.910617 C 4.7168820,30.720801 43.247893,29.658436 44.477686,30.804341 C 45.494136,31.645183 27.507931,49.225252 22.372368,51.740629 C 20.564595,52.626071 24.443307,42.520509 22.266093,41.431895 C 18.350173,39.473947 8.5822178,43.642362 4.0929702,41.857009 C 3.1390025,41.522778 1.9181197,31.047731 3.0302147,30.910617 z "
     id="path644"
     sodipodi:nodetypes="csssss" />
  <path
     style="opacity:0.19547798;fill:#261e2e;fill-opacity:1.0000000;fill-rule:evenodd;stroke:none;stroke-width:1.0000000pt;stroke-linecap:butt;stroke-linejoin:miter;stroke-opacity:1.0000000"
     d="M 48.333887,30.702044 C 48.344173,30.460989 56.210442,30.562509 56.245058,30.827628 C 56.929799,35.110036 57.801094,45.927031 55.868336,50.668332 C 55.122179,52.498752 48.907917,52.396713 48.208313,50.542757 C 46.396433,45.741277 48.191609,35.773598 48.333887,30.702044 z "
     id="path646"
     sodipodi:nodetypes="cssss" />
</svg>
