<?xml version="1.0" encoding="UTF-8" standalone="no"?>
<!-- Created with Inkscape (http://www.inkscape.org/) -->
<svg
   xmlns:dc="http://purl.org/dc/elements/1.1/"
   xmlns:cc="http://web.resource.org/cc/"
   xmlns:rdf="http://www.w3.org/1999/02/22-rdf-syntax-ns#"
   xmlns:svg="http://www.w3.org/2000/svg"
   xmlns="http://www.w3.org/2000/svg"
   xmlns:xlink="http://www.w3.org/1999/xlink"
   xmlns:sodipodi="http://inkscape.sourceforge.net/DTD/sodipodi-0.dtd"
   xmlns:inkscape="http://www.inkscape.org/namespaces/inkscape"
   id="svg1"
   sodipodi:version="0.32"
   inkscape:version="0.42"
   width="48pt"
   height="48pt"
   sodipodi:docbase="/home/jakob/dev/lila/lila-theme/trunk/lila/kde/scalable/actions"
   sodipodi:docname="player_end.svg">
  <defs
     id="defs3">
    <linearGradient
       id="linearGradient599">
      <stop
         style="stop-color:#ffffff;stop-opacity:1;"
         offset="0.00000000"
         id="stop600" />
      <stop
         style="stop-color:#d9cce6;stop-opacity:1;"
         offset="1.00000000"
         id="stop601" />
    </linearGradient>
    <linearGradient
       id="linearGradient584">
      <stop
         style="stop-color:#ffffff;stop-opacity:1;"
         offset="0.00000000"
         id="stop585" />
      <stop
         style="stop-color:#ffffff;stop-opacity:0;"
         offset="1.00000000"
         id="stop586" />
    </linearGradient>
    <linearGradient
       id="linearGradient578">
      <stop
         style="stop-color:#d9cce6;stop-opacity:1;"
         offset="0.00000000"
         id="stop579" />
      <stop
         style="stop-color:#73667f;stop-opacity:1;"
         offset="1.00000000"
         id="stop580" />
    </linearGradient>
    <linearGradient
       xlink:href="#linearGradient599"
       id="linearGradient581"
       x1="16.614789"
       y1="11.654048"
       x2="49.571816"
       y2="44.460641"
       gradientTransform="matrix(0.932270,0.000000,0.000000,1.072650,-0.297197,-0.303138)"
       gradientUnits="userSpaceOnUse" />
    <linearGradient
       xlink:href="#linearGradient578"
       id="linearGradient583"
       x1="0.00000000"
       y1="0.00000000"
       x2="1.00000000"
       y2="0.00000000" />
    <linearGradient
       xlink:href="#linearGradient599"
       id="linearGradient860"
       x1="0.00000000"
       y1="0.00000000"
       x2="0.98905110"
       y2="0.97457629" />
    <linearGradient
       xlink:href="#linearGradient578"
       id="linearGradient861"
       x1="0.00000000"
       y1="-0.00000000"
       x2="0.98888886"
       y2="0.98437500" />
    <linearGradient
       xlink:href="#linearGradient584"
       id="linearGradient862"
       x1="-0.08500000"
       y1="-0.13281250"
       x2="0.99500000"
       y2="0.96875000" />
    <radialGradient
       xlink:href="#linearGradient599"
       id="radialGradient595"
       cx="0.50000000"
       cy="0.49218750"
       r="0.54896194"
       fx="0.50000000"
       fy="0.49218750" />
    <radialGradient
       xlink:href="#linearGradient578"
       id="radialGradient670"
       cx="46.193975"
       cy="40.621080"
       r="31.063221"
       fx="46.193975"
       fy="40.621080"
       gradientUnits="userSpaceOnUse" />
  </defs>
  <sodipodi:namedview
     id="base"
     pagecolor="#ffffff"
     bordercolor="#666666"
     borderopacity="1.0"
     inkscape:pageopacity="0.0"
     inkscape:pageshadow="2"
     inkscape:zoom="11.313708"
     inkscape:cx="25.762882"
     inkscape:cy="21.329058"
     inkscape:window-width="1022"
     inkscape:window-height="695"
     inkscape:window-x="0"
     inkscape:window-y="26"
     showguides="true"
     inkscape:guide-bbox="true"
     inkscape:current-layer="svg1" />
  <g
     transform="matrix(0.939009,0.000000,0.000000,0.950000,1.035028,1.240930)"
     style="font-size:12.000000px;opacity:0.29999998;stroke:#000000"
     id="g677">
    <ellipse
       cx="47.595680"
       cy="41.555550"
       rx="28.881311"
       ry="28.881311"
       transform="matrix(0.917566,0.000000,0.000000,0.917566,-11.48724,-5.833475)"
       style="fill-rule:evenodd;stroke-width:2.0541799"
       id="path675"
       d="M 76.476992 41.555550 A 28.881311 28.881311 0 1 0 18.714369,41.555550 A 28.881311 28.881311 0 1 0 76.476992 41.555550 z"
       sodipodi:cx="47.595680"
       sodipodi:cy="41.555550"
       sodipodi:rx="28.881311"
       sodipodi:ry="28.881311" />
    <ellipse
       cx="42.107330"
       cy="34.267742"
       rx="21.773449"
       ry="21.773449"
       transform="matrix(0.934849,0.000000,0.000000,0.934849,-7.035911,0.205833)"
       style="fill-rule:evenodd;stroke-width:1.0000000pt"
       id="path676"
       d="M 63.880779 34.267742 A 21.773449 21.773449 0 1 0 20.333881,34.267742 A 21.773449 21.773449 0 1 0 63.880779 34.267742 z"
       sodipodi:cx="42.107330"
       sodipodi:cy="34.267742"
       sodipodi:rx="21.773449"
       sodipodi:ry="21.773449" />
  </g>
  <metadata
     id="metadata933">
    <rdf:RDF>
      <cc:Work
         rdf:about="">
        <dc:format>image/svg+xml</dc:format>
        <dc:type
           rdf:resource="http://purl.org/dc/dcmitype/StillImage" />
      </cc:Work>
    </rdf:RDF>
  </metadata>
  <ellipse
     cx="47.595680"
     cy="41.555550"
     rx="28.881311"
     ry="28.881311"
     transform="matrix(0.861603,0.000000,0.000000,0.871687,-11.00890,-6.223432)"
     style="font-size:12.000000px;fill:url(#radialGradient670);fill-opacity:1.0000000;fill-rule:evenodd;stroke:#261933;stroke-width:2.0434501"
     id="path594"
     d="M 76.476992 41.555550 A 28.881311 28.881311 0 1 0 18.714369,41.555550 A 28.881311 28.881311 0 1 0 76.476992 41.555550 z"
     sodipodi:cx="47.595680"
     sodipodi:cy="41.555550"
     sodipodi:rx="28.881311"
     sodipodi:ry="28.881311" />
  <path
     style="font-size:12.000000px;fill:url(#linearGradient581);fill-rule:evenodd;stroke:#261933;stroke-width:1.3735670"
     d="M 40.450582,12.884362 C 38.981568,12.884362 37.794332,14.071598 37.794332,15.540612 L 37.794332,26.165612 C 30.498791,20.685952 15.458275,12.139568 15.888082,13.103112 C 19.747801,21.755858 19.731832,29.670511 19.731832,30.103112 C 19.731833,30.517578 19.741046,38.391582 15.888082,47.103112 C 15.577887,47.804463 30.519862,39.409087 37.794332,33.978112 L 37.794332,44.603112 C 37.794332,46.072126 38.981569,47.259363 40.450582,47.259362 L 42.919332,47.259362 C 44.388346,47.259362 45.575582,46.072126 45.575582,44.603112 L 45.575582,15.540612 C 45.575582,14.071598 44.388345,12.884362 42.919332,12.884362 L 40.450582,12.884362 z "
     id="path968" />
</svg>
