<?xml version="1.0" encoding="UTF-8" standalone="no"?>
<!-- Created with Inkscape (http://www.inkscape.org/) -->
<svg
   xmlns:dc="http://purl.org/dc/elements/1.1/"
   xmlns:cc="http://web.resource.org/cc/"
   xmlns:rdf="http://www.w3.org/1999/02/22-rdf-syntax-ns#"
   xmlns:svg="http://www.w3.org/2000/svg"
   xmlns="http://www.w3.org/2000/svg"
   xmlns:xlink="http://www.w3.org/1999/xlink"
   xmlns:sodipodi="http://inkscape.sourceforge.net/DTD/sodipodi-0.dtd"
   xmlns:inkscape="http://www.inkscape.org/namespaces/inkscape"
   id="svg1"
   sodipodi:version="0.32"
   inkscape:version="0.42"
   width="48pt"
   height="48pt"
   sodipodi:docbase="/home/jakob/dev/lila/lila-theme/trunk/lila/kde/scalable/apps"
   sodipodi:docname="kfind.svg">
  <metadata
     id="metadata25">
    <rdf:RDF>
      <cc:Work
         rdf:about="">
        <dc:format>image/svg+xml</dc:format>
        <dc:type
           rdf:resource="http://purl.org/dc/dcmitype/StillImage" />
      </cc:Work>
    </rdf:RDF>
  </metadata>
  <defs
     id="defs3">
    <linearGradient
       id="linearGradient584">
      <stop
         style="stop-color:#ffffff;stop-opacity:1;"
         offset="0.00000000"
         id="stop585" />
      <stop
         style="stop-color:#ffffff;stop-opacity:0;"
         offset="1.00000000"
         id="stop586" />
    </linearGradient>
    <linearGradient
       id="linearGradient578">
      <stop
         style="stop-color:#d9cce6;stop-opacity:1;"
         offset="0.00000000"
         id="stop579" />
      <stop
         style="stop-color:#73667f;stop-opacity:1;"
         offset="1.00000000"
         id="stop580" />
    </linearGradient>
    <linearGradient
       xlink:href="#linearGradient578"
       id="linearGradient581"
       x1="36.592544"
       y1="40.893670"
       x2="56.174880"
       y2="60.642901"
       gradientTransform="matrix(1.042268,0.000000,0.000000,0.959446,-2.387000e-3,0.000000)"
       gradientUnits="userSpaceOnUse" />
    <linearGradient
       xlink:href="#linearGradient578"
       id="linearGradient583"
       x1="2.8901209"
       y1="3.7254963"
       x2="48.307349"
       y2="49.852368"
       gradientTransform="matrix(1.000002,0.000000,0.000000,0.999998,-2.387000e-3,0.000000)"
       gradientUnits="userSpaceOnUse" />
    <linearGradient
       xlink:href="#linearGradient584"
       id="linearGradient654"
       x1="258.55046"
       y1="213.76220"
       x2="486.85654"
       y2="443.81111"
       gradientUnits="userSpaceOnUse" />
    <linearGradient
       xlink:href="#linearGradient584"
       id="linearGradient655"
       x1="6.1810676"
       y1="6.8453907"
       x2="32.039986"
       y2="33.209367"
       gradientTransform="matrix(0.951948,0.000000,0.000000,1.050478,-0.711313,-0.531694)"
       gradientUnits="userSpaceOnUse" />
    <linearGradient
       xlink:href="#linearGradient584"
       id="linearGradient653"
       x1="37.433931"
       y1="44.579067"
       x2="39.727901"
       y2="46.866270"
       gradientTransform="matrix(1.067787,0.000000,0.000000,0.936516,-2.387000e-3,0.000000)"
       gradientUnits="userSpaceOnUse" />
    <linearGradient
       xlink:href="#linearGradient584"
       id="linearGradient682"
       x1="0.02307692"
       y1="0.01562500"
       x2="0.96923077"
       y2="0.97656250" />
    <linearGradient
       xlink:href="#linearGradient584"
       id="linearGradient702"
       x1="0.02307692"
       y1="0.01562500"
       x2="0.96923077"
       y2="0.97656250" />
  </defs>
  <sodipodi:namedview
     id="base"
     pagecolor="#ffffff"
     bordercolor="#666666"
     borderopacity="1.0"
     inkscape:pageopacity="0.0"
     inkscape:pageshadow="2"
     inkscape:zoom="5.6423388"
     inkscape:cx="19.063163"
     inkscape:cy="25.749264"
     inkscape:window-width="895"
     inkscape:window-height="516"
     inkscape:window-x="59"
     inkscape:window-y="258"
     inkscape:current-layer="svg1" />
  <path
     d="M 39.941744,44.540075 C 39.720603,44.105174 41.521465,42.119064 41.956174,42.347013 C 43.513086,43.162825 44.918471,45.563559 46.684450,46.793925 C 50.297801,49.311367 55.388203,50.813414 58.094353,53.590827 C 58.963677,54.482972 58.152214,57.309810 57.300827,58.021281 C 56.367349,58.801606 53.089621,59.824282 51.972022,58.943551 C 48.865102,56.495742 46.744209,52.016801 43.969003,48.694013 C 42.734117,47.215546 40.647463,45.928397 39.941744,44.540075 z "
     style="font-size:12.000000px;opacity:0.29999998;fill-rule:evenodd;stroke-width:13.490400"
     id="path1565"
     sodipodi:nodetypes="ccsccccc" />
  <path
     d="M 50.759007,29.850076 C 50.759007,42.227760 40.713299,52.273466 28.335620,52.273466 C 15.957760,52.273466 5.9120464,42.227760 5.9120464,29.850076 C 5.9120464,17.472398 15.957760,7.4266870 28.335620,7.4266870 C 40.713299,7.4266870 50.759007,17.472398 50.759007,29.850076 z M 45.202742,29.850076 C 45.202742,38.941685 37.646155,46.320356 28.335620,46.320356 C 19.024902,46.320356 11.468492,38.941685 11.468492,29.850076 C 11.468492,20.758468 19.024902,13.379619 28.335620,13.379619 C 37.646155,13.379619 45.202742,20.758468 45.202742,29.850076 z "
     style="font-size:12.000000px;opacity:0.29999998;fill-rule:evenodd;stroke-width:13.490400"
     id="path1566" />
  <path
     d="M 39.094193,42.166681 C 38.873051,41.731781 40.564237,39.965029 40.998944,40.192979 C 42.555856,41.008788 43.961248,43.409510 45.727220,44.639888 C 49.340581,47.157321 54.430970,48.659379 57.137132,51.436792 C 58.006453,52.328936 56.975627,55.155772 56.124240,55.867243 C 55.190763,56.647571 52.242073,57.450890 51.124471,56.570158 C 48.017550,54.122349 45.896659,49.643408 43.121453,46.320621 C 41.886566,44.842153 39.799910,43.555004 39.094193,42.166681 z "
     style="font-size:12.000000px;fill:url(#linearGradient581);fill-rule:evenodd;stroke:#261933;stroke-width:1.8750000;stroke-dasharray:none"
     id="path1531"
     sodipodi:nodetypes="cccccccc" />
  <path
     d="M 48.844538,26.976392 C 48.844538,39.354071 38.158790,50.039818 25.781107,50.039818 C 13.403249,50.039818 2.7175000,39.354071 2.7175000,26.976392 C 2.7175000,14.598711 13.403249,3.9129603 25.781107,3.9129603 C 38.158790,3.9129603 48.844538,14.598711 48.844538,26.976392 z M 41.368163,26.976392 C 41.368163,36.068000 35.091643,42.166593 25.781107,42.166593 C 16.470394,42.166593 10.194058,36.068000 10.194058,26.976392 C 10.194058,17.884781 16.470394,11.786008 25.781107,11.786008 C 35.091643,11.786008 41.368163,17.884781 41.368163,26.976392 z "
     style="font-size:12.000000px;fill:url(#linearGradient583);fill-rule:evenodd;stroke:#261933;stroke-width:1.8750000;stroke-dasharray:none"
     id="path1525"
     sodipodi:nodetypes="cccccccccs" />
  <ellipse
     cx="373.57492"
     cy="328.78662"
     rx="115.02444"
     ry="115.02443"
     transform="matrix(0.129538,0.000000,0.000000,0.126491,-22.61132,-14.61187)"
     style="font-size:12.000000px;fill:url(#linearGradient654);fill-rule:evenodd;stroke-width:1.0000000pt"
     id="path1521"
     sodipodi:cx="373.57492"
     sodipodi:cy="328.78662"
     sodipodi:rx="115.02444"
     sodipodi:ry="115.02443" />
  <path
     d="M 6.5597298,34.793600 C 4.9631148,31.600372 3.3666826,21.062981 10.231993,12.920414 C 18.534233,5.4165691 27.155838,6.5339646 30.668243,7.0130018 C 25.080187,7.3323603 19.332454,6.5341450 11.828605,13.878495 C 4.8036152,20.743621 6.7194082,30.961837 6.5597298,34.793600 z "
     style="font-size:12.000000px;opacity:0.69999999;fill:url(#linearGradient655);fill-rule:evenodd;stroke:none;stroke-width:1.0000000pt"
     id="path1533" />
</svg>
