<?xml version="1.0" encoding="UTF-8" standalone="no"?>
<!-- Created with Inkscape (http://www.inkscape.org/) -->
<svg
   xmlns:dc="http://purl.org/dc/elements/1.1/"
   xmlns:cc="http://web.resource.org/cc/"
   xmlns:rdf="http://www.w3.org/1999/02/22-rdf-syntax-ns#"
   xmlns:svg="http://www.w3.org/2000/svg"
   xmlns="http://www.w3.org/2000/svg"
   xmlns:xlink="http://www.w3.org/1999/xlink"
   xmlns:sodipodi="http://inkscape.sourceforge.net/DTD/sodipodi-0.dtd"
   xmlns:inkscape="http://www.inkscape.org/namespaces/inkscape"
   id="svg1"
   sodipodi:version="0.32"
   inkscape:version="0.42"
   width="48pt"
   height="48pt"
   sodipodi:docbase="/home/jakob/dev/lila/lila-theme/trunk/lila/kde/scalable/actions"
   sodipodi:docname="spellcheck.svg">
  <metadata
     id="metadata27">
    <rdf:RDF>
      <cc:Work
         rdf:about="">
        <dc:format>image/svg+xml</dc:format>
        <dc:type
           rdf:resource="http://purl.org/dc/dcmitype/StillImage" />
      </cc:Work>
    </rdf:RDF>
  </metadata>
  <defs
     id="defs3">
    <linearGradient
       id="linearGradient584">
      <stop
         style="stop-color:#ffffff;stop-opacity:1;"
         offset="0.00000000"
         id="stop585" />
      <stop
         style="stop-color:#ffffff;stop-opacity:0;"
         offset="1.00000000"
         id="stop586" />
    </linearGradient>
    <linearGradient
       id="linearGradient578">
      <stop
         style="stop-color:#d9cce6;stop-opacity:1;"
         offset="0.00000000"
         id="stop579" />
      <stop
         style="stop-color:#73667f;stop-opacity:1;"
         offset="1.00000000"
         id="stop580" />
    </linearGradient>
    <linearGradient
       xlink:href="#linearGradient578"
       id="linearGradient581"
       x1="18.614854"
       y1="7.1931963"
       x2="62.658883"
       y2="49.461982"
       gradientTransform="matrix(0.900509,0.000000,0.000000,1.110483,4.010000e-3,0.000000)"
       gradientUnits="userSpaceOnUse" />
    <linearGradient
       xlink:href="#linearGradient584"
       id="linearGradient583"
       x1="19.806270"
       y1="17.022695"
       x2="49.385433"
       y2="47.361324"
       gradientTransform="matrix(1.042303,0.000000,0.000000,0.959414,4.010000e-3,0.000000)"
       gradientUnits="userSpaceOnUse" />
    <linearGradient
       xlink:href="#linearGradient584"
       id="linearGradient663"
       x1="28.300641"
       y1="2.1067967"
       x2="43.937741"
       y2="17.988226"
       gradientTransform="matrix(0.826938,0.000000,0.000000,1.209280,4.010000e-3,0.000000)"
       gradientUnits="userSpaceOnUse" />
    <linearGradient
       xlink:href="#linearGradient584"
       id="linearGradient664"
       x1="5.1250123"
       y1="2.8120150"
       x2="19.339923"
       y2="16.965378"
       gradientTransform="matrix(0.791797,0.000000,0.000000,1.262949,4.010000e-3,0.000000)"
       gradientUnits="userSpaceOnUse" />
    <linearGradient
       xlink:href="#linearGradient584"
       id="linearGradient665"
       x1="19.535457"
       y1="24.731172"
       x2="23.469550"
       y2="28.585146"
       gradientTransform="matrix(1.441915,0.000000,0.000000,0.693522,4.010000e-3,0.000000)"
       gradientUnits="userSpaceOnUse" />
    <linearGradient
       xlink:href="#linearGradient584"
       id="linearGradient666"
       x1="7.8142318"
       y1="19.831154"
       x2="10.055619"
       y2="22.142193"
       gradientTransform="matrix(1.452020,0.000000,0.000000,0.688696,4.010000e-3,0.000000)"
       gradientUnits="userSpaceOnUse" />
    <linearGradient
       inkscape:collect="always"
       xlink:href="#linearGradient584"
       id="linearGradient1325"
       x1="19.525471"
       y1="10.841164"
       x2="23.461625"
       y2="14.697158"
       gradientTransform="matrix(1.442670,0.000000,0.000000,0.693159,4.010000e-3,0.000000)"
       gradientUnits="userSpaceOnUse" />
  </defs>
  <sodipodi:namedview
     id="base"
     pagecolor="#ffffff"
     bordercolor="#666666"
     borderopacity="1.0"
     inkscape:pageopacity="0.0"
     inkscape:pageshadow="2"
     inkscape:zoom="11.284677"
     inkscape:cx="25.973311"
     inkscape:cy="24.657118"
     inkscape:window-width="895"
     inkscape:window-height="703"
     inkscape:window-x="86"
     inkscape:window-y="201"
     inkscape:current-layer="svg1" />
  <path
     style="opacity:0.30267498;fill:#000000;fill-opacity:1.0000000;fill-rule:evenodd;stroke:none;stroke-width:12.500000;stroke-linecap:butt;stroke-linejoin:miter;stroke-dasharray:none;stroke-opacity:1.0000000"
     d="M 15.427915,25.642092 C 16.049202,30.499423 29.339456,60.901280 35.146376,57.897697 C 44.376915,53.123280 58.499887,10.013502 57.944057,5.6679472 C 57.549241,2.5811912 43.365646,31.373285 33.132614,36.666232 C 28.328182,39.151284 15.098558,23.067113 15.427915,25.642092 z "
     id="path587"
     sodipodi:nodetypes="cssss" />
  <path
     style="font-size:12.000000px;fill:url(#linearGradient581);fill-rule:evenodd;stroke:#261933;stroke-width:1.8052000"
     d="M 17.320063,27.576626 C 17.850949,31.727188 29.859889,57.835899 34.821868,55.269357 C 42.709308,51.189644 56.343291,11.351116 55.868343,7.6378647 C 55.530972,5.0002494 42.236683,33.909387 33.492616,38.432180 C 29.387255,40.555642 17.038630,25.376324 17.320063,27.576626 z "
     id="path577"
     sodipodi:nodetypes="cssss" />
  <path
     style="fill:url(#linearGradient583);fill-opacity:1.0000000;fill-rule:evenodd;stroke:none;stroke-width:1.0000000pt;stroke-linecap:butt;stroke-linejoin:miter;stroke-opacity:1.0000000"
     d="M 21.529358,35.109051 C 20.952906,34.322979 19.770932,31.648905 20.421650,32.007465 C 23.389448,33.642781 28.817086,42.372587 32.384909,41.090680 C 40.657155,38.419630 47.920113,21.910434 52.102131,16.277996 C 52.985435,15.041553 50.838109,21.464548 50.108257,22.924251 C 49.951933,23.236883 49.947185,21.895499 49.665175,22.259624 C 44.113254,29.427922 41.244425,41.767499 32.606450,45.521517 C 29.615080,46.777033 26.228916,38.498679 22.858611,35.330593 C 22.536552,35.027859 21.765226,35.430687 21.529358,35.109051 z "
     id="path582"
     sodipodi:nodetypes="cssssssss" />
  <path
     style="fill:#261933;fill-opacity:1.0000000;fill-rule:evenodd;stroke:none;stroke-width:1.0000000pt;stroke-linecap:butt;stroke-linejoin:miter;stroke-opacity:1.0000000"
     d="M 9.4198360,2.8433187 L 3.1700000,22.391400 L 9.3297360,22.483063 L 10.611363,17.056630 L 13.932383,17.056630 L 14.572843,22.299738 L 21.190892,22.483063 L 15.762896,2.8433187 L 9.4198360,2.8433187 z M 12.739589,7.0470612 L 13.656924,14.306513 L 11.162046,14.306513 L 12.739589,7.0470612 z "
     id="path690"
     sodipodi:nodetypes="ccccccccccccc" />
  <path
     style="fill:url(#linearGradient664);fill-opacity:1.0000000;fill-rule:evenodd;stroke:none;stroke-width:1.0000000pt;stroke-linecap:butt;stroke-linejoin:miter;stroke-opacity:1.0000000"
     d="M 4.0619810,21.287850 L 10.035385,3.5514329 L 15.181703,3.5514329 C 13.558163,4.1028254 11.196987,3.7827239 10.678676,4.6542155 C 8.4665100,8.4363802 6.4207100,15.743305 4.0619810,21.287850 z "
     id="path692"
     sodipodi:nodetypes="cccsc" />
  <path
     style="fill:url(#linearGradient666);fill-opacity:1.0000000;fill-rule:evenodd;stroke:none;stroke-width:1.0000000pt;stroke-linecap:butt;stroke-linejoin:miter;stroke-opacity:1.0000000"
     d="M 11.352805,14.854952 C 11.269579,14.785599 13.396314,14.959732 14.017862,14.671156 C 14.254032,14.561505 13.854755,13.600931 13.925962,13.660271 C 14.038552,13.754096 14.854074,14.998410 14.569253,15.130648 C 13.996354,15.396638 11.453377,14.938763 11.352805,14.854952 z "
     id="path693"
     sodipodi:nodetypes="cssss" />
  <path
     style="fill:#261933;fill-opacity:1.0000000;fill-rule:evenodd;stroke:none;stroke-width:1.0000000pt;stroke-linecap:butt;stroke-linejoin:miter;stroke-opacity:1.0000000"
     d="M 27.816510,15.625000 C 29.083286,15.173382 33.022174,16.463142 33.004010,17.000000 C 32.985250,17.554517 28.943267,19.206460 27.691510,18.875000 C 27.207875,18.746934 27.310971,15.805230 27.816510,15.625000 z M 27.691510,5.9687500 C 28.958286,5.5317970 32.928421,6.7930760 32.910260,7.3125000 C 32.891500,7.8490100 28.849516,9.4769470 27.597760,9.1562500 C 27.114125,9.0323440 27.185972,6.1431270 27.691510,5.9687500 z M 27.972760,1.9375000 C 26.348967,2.0029440 24.911636,2.3990860 24.472760,3.4062500 C 22.470500,8.0011800 21.848687,18.221790 24.035260,22.218750 C 25.282546,24.498737 31.724814,23.292190 34.785260,22.218750 C 36.672526,21.556798 38.983746,18.741937 38.879010,17.031250 C 38.762207,13.556941 34.258030,13.699381 34.258030,11.874598 C 34.258031,10.191675 38.795265,9.9668046 38.879010,6.5000000 C 38.628567,4.9395480 34.965712,2.8960780 32.691510,2.4062500 C 31.428602,2.1342390 29.596553,1.8720560 27.972760,1.9375000 z "
     id="path680"
     sodipodi:nodetypes="ccccccccccccccccc" />
  <path
     style="fill:url(#linearGradient663);fill-opacity:1.0000000;fill-rule:evenodd;stroke:none;stroke-width:1.0000000pt;stroke-linecap:butt;stroke-linejoin:miter;stroke-opacity:1.0000000"
     d="M 24.484107,21.452155 C 24.289714,21.121687 21.845329,11.858165 25.037956,3.5074680 C 25.994084,1.0583991 35.920136,3.9517177 36.336462,4.9474737 C 36.457621,5.2694946 28.396951,1.8669073 26.034882,4.7259344 C 22.443012,9.1842721 24.658946,21.749381 24.484107,21.452155 z "
     id="path681"
     sodipodi:nodetypes="cssss" />
  <path
     style="fill:url(#linearGradient1325);fill-opacity:1.0000000;fill-rule:evenodd;stroke:none;stroke-width:1.0000000pt;stroke-linecap:butt;stroke-linejoin:miter;stroke-opacity:1.0000000"
     d="M 28.139506,10.153648 C 28.449398,9.7773506 31.809491,9.4533393 33.788760,7.4951762 C 34.172578,7.4225621 33.154417,9.2727909 32.459523,9.5997999 C 31.271333,10.158948 27.932473,10.405045 28.139506,10.153648 z "
     id="path682"
     sodipodi:nodetypes="ccss" />
  <path
     style="fill:url(#linearGradient665);fill-opacity:1.0000000;fill-rule:evenodd;stroke:none;stroke-width:1.0000000pt;stroke-linecap:butt;stroke-linejoin:miter;stroke-opacity:1.0000000"
     d="M 28.139506,19.790609 C 28.449398,19.414312 31.809491,19.090301 33.788760,17.132138 C 34.172578,17.059523 33.043648,18.909752 32.348754,19.236761 C 31.160564,19.795909 27.932473,20.042006 28.139506,19.790609 z "
     id="path683"
     sodipodi:nodetypes="ccss" />
</svg>
