<?xml version="1.0" encoding="UTF-8" standalone="no"?>
<!-- Created with Inkscape (http://www.inkscape.org/) -->
<svg
   xmlns:dc="http://purl.org/dc/elements/1.1/"
   xmlns:cc="http://web.resource.org/cc/"
   xmlns:rdf="http://www.w3.org/1999/02/22-rdf-syntax-ns#"
   xmlns:svg="http://www.w3.org/2000/svg"
   xmlns="http://www.w3.org/2000/svg"
   xmlns:xlink="http://www.w3.org/1999/xlink"
   xmlns:sodipodi="http://inkscape.sourceforge.net/DTD/sodipodi-0.dtd"
   xmlns:inkscape="http://www.inkscape.org/namespaces/inkscape"
   version="1.0"
   x="0"
   y="0"
   width="48pt"
   height="48pt"
   id="svg611"
   sodipodi:version="0.32"
   inkscape:version="0.42.2"
   sodipodi:docname="gnome-dev-dvd.svg"
   sodipodi:docbase="/home/jakob/dev/lila-cvs/lila-theme/trunk/lila/gnome/scalable/devices">
  <metadata
     id="metadata68">
    <rdf:RDF>
      <cc:Work
         rdf:about="">
        <dc:format>image/svg+xml</dc:format>
        <dc:type
           rdf:resource="http://purl.org/dc/dcmitype/StillImage" />
      </cc:Work>
    </rdf:RDF>
  </metadata>
  <sodipodi:namedview
     id="base"
     pagecolor="#ffffff"
     bordercolor="#666666"
     borderopacity="1.0"
     inkscape:pageopacity="0.0"
     inkscape:pageshadow="2"
     inkscape:zoom="6.9465337"
     inkscape:cx="27.785606"
     inkscape:cy="24.969237"
     inkscape:window-width="754"
     inkscape:window-height="525"
     inkscape:window-x="180"
     inkscape:window-y="304"
     inkscape:current-layer="svg611" />
  <defs
     id="defs613">
    <linearGradient
       id="linearGradient923">
      <stop
         style="stop-color:#d9cce6;stop-opacity:1.0000000;"
         offset="0.0000000"
         id="stop925" />
      <stop
         style="stop-color:#ffffff;stop-opacity:1.0000000;"
         offset="1.0000000"
         id="stop924" />
    </linearGradient>
    <linearGradient
       id="linearGradient1535">
      <stop
         style="stop-color:#ffffff;stop-opacity:1;"
         offset="0"
         id="stop1537" />
      <stop
         style="stop-color:#ffffff;stop-opacity:0;"
         offset="1"
         id="stop1536" />
    </linearGradient>
    <linearGradient
       id="linearGradient1528">
      <stop
         style="stop-color:#d9cce6;stop-opacity:1;"
         offset="0.00000000"
         id="stop1530" />
      <stop
         style="stop-color:#73667f;stop-opacity:1;"
         offset="1.00000000"
         id="stop1529" />
    </linearGradient>
    <linearGradient
       id="linearGradient642">
      <stop
         style="stop-color:#ffffff;stop-opacity:1;"
         offset="0"
         id="stop643" />
      <stop
         style="stop-color:#ffffff;stop-opacity:0;"
         offset="1"
         id="stop644" />
    </linearGradient>
    <linearGradient
       id="linearGradient635">
      <stop
         style="stop-color:#e6cfff;stop-opacity:1;"
         offset="0"
         id="stop636" />
      <stop
         style="stop-color:#ffffff;stop-opacity:1;"
         offset="1"
         id="stop637" />
    </linearGradient>
    <linearGradient
       x1="49.675080"
       y1="51.242080"
       x2="2.5959205"
       y2="2.5884510"
       id="linearGradient638"
       xlink:href="#linearGradient923"
       gradientUnits="userSpaceOnUse"
       gradientTransform="translate(4.078000e-3,0.000000)" />
    <linearGradient
       x1="25.564874"
       y1="56.588564"
       x2="35.321654"
       y2="65.826197"
       id="linearGradient641"
       xlink:href="#linearGradient1528"
       gradientTransform="matrix(1.194392,0.000000,0.000000,0.837246,4.078000e-3,0.000000)"
       gradientUnits="userSpaceOnUse" />
    <linearGradient
       x1="36.407824"
       y1="35.903865"
       x2="44.646551"
       y2="44.128287"
       id="linearGradient1522"
       xlink:href="#linearGradient1528"
       gradientTransform="matrix(0.967689,0.000000,0.000000,1.033390,4.078000e-3,0.000000)"
       gradientUnits="userSpaceOnUse" />
    <linearGradient
       x1="27.147085"
       y1="36.366606"
       x2="37.902695"
       y2="46.799255"
       id="linearGradient1527"
       xlink:href="#linearGradient1528"
       gradientTransform="matrix(1.327778,0.000000,0.000000,0.753138,4.078000e-3,0.000000)"
       gradientUnits="userSpaceOnUse" />
    <linearGradient
       x1="20.635778"
       y1="36.253806"
       x2="35.149641"
       y2="50.689987"
       id="linearGradient1532"
       xlink:href="#linearGradient1535"
       gradientTransform="matrix(1.463053,0.000000,0.000000,0.683502,4.078000e-3,0.000000)"
       gradientUnits="userSpaceOnUse" />
    <linearGradient
       x1="21.847252"
       y1="70.476526"
       x2="27.210538"
       y2="75.778288"
       id="linearGradient1534"
       xlink:href="#linearGradient642"
       gradientTransform="matrix(1.469048,0.000000,0.000000,0.680713,4.078000e-3,0.000000)"
       gradientUnits="userSpaceOnUse" />
    <linearGradient
       x1="23.697625"
       y1="56.832282"
       x2="26.384667"
       y2="59.525557"
       id="linearGradient1539"
       xlink:href="#linearGradient1535"
       gradientTransform="matrix(1.515883,0.000000,0.000000,0.659681,4.078000e-3,0.000000)"
       gradientUnits="userSpaceOnUse" />
    <linearGradient
       x1="24.474177"
       y1="44.444766"
       x2="31.097100"
       y2="50.839802"
       id="linearGradient1567"
       xlink:href="#linearGradient1535"
       gradientTransform="matrix(1.566137,0.000000,0.000000,0.638514,4.078000e-3,0.000000)"
       gradientUnits="userSpaceOnUse" />
    <linearGradient
       x1="44.200956"
       y1="43.541870"
       x2="5.2972909"
       y2="4.6183581"
       id="linearGradient1042"
       xlink:href="#linearGradient1535"
       gradientTransform="matrix(1.070410,0.000000,0.000000,0.934221,4.078000e-3,0.000000)"
       gradientUnits="userSpaceOnUse" />
    <linearGradient
       x1="53.762031"
       y1="22.073135"
       x2="35.556331"
       y2="3.7875611"
       id="linearGradient1044"
       xlink:href="#linearGradient1535"
       gradientTransform="matrix(0.880310,0.000000,0.000000,1.135964,4.078000e-3,0.000000)"
       gradientUnits="userSpaceOnUse" />
    <defs
       id="defs839">
      <linearGradient
         id="linearGradient983">
        <stop
           style="stop-color:#2ad700;stop-opacity:1;"
           offset="0"
           id="stop984" />
        <stop
           style="stop-color:#e5ffe5;stop-opacity:1;"
           offset="1"
           id="stop985" />
      </linearGradient>
      <linearGradient
         id="linearGradient843">
        <stop
           style="stop-color:#ffffff;stop-opacity:1;"
           offset="0"
           id="stop844" />
        <stop
           style="stop-color:#ffffff;stop-opacity:0;"
           offset="1"
           id="stop845" />
      </linearGradient>
      <linearGradient
         id="linearGradient846">
        <stop
           style="stop-color:#a673f3;stop-opacity:1;"
           offset="0"
           id="stop847" />
        <stop
           style="stop-color:#4c3f8c;stop-opacity:1;"
           offset="1"
           id="stop848" />
      </linearGradient>
      <linearGradient
         id="linearGradient849">
        <stop
           style="stop-color:#ffffff;stop-opacity:1;"
           offset="0"
           id="stop850" />
        <stop
           style="stop-color:#ffffff;stop-opacity:0;"
           offset="1"
           id="stop851" />
      </linearGradient>
      <linearGradient
         x1="0.000000"
         y1="0.000000"
         x2="1.000000"
         y2="0.000000"
         id="linearGradient852"
         xlink:href="#linearGradient923"
         gradientUnits="objectBoundingBox"
         spreadMethod="pad" />
      <linearGradient
         x1="0.015504"
         y1="0.015625"
         x2="1.015504"
         y2="0.984375"
         id="linearGradient855"
         xlink:href="#linearGradient635" />
      <linearGradient
         x1="-0.006803"
         y1="0.023438"
         x2="0.986395"
         y2="0.992188"
         id="linearGradient856"
         xlink:href="#linearGradient642" />
      <linearGradient
         x1="-0.000000"
         y1="0.000000"
         x2="1.000000"
         y2="0.000000"
         id="linearGradient857"
         xlink:href="#linearGradient642" />
      <linearGradient
         x1="0.010309"
         y1="0.023436"
         x2="1.000000"
         y2="0.992188"
         id="linearGradient858"
         xlink:href="#linearGradient642" />
      <linearGradient
         id="linearGradient859"
         xlink:href="#linearGradient1535" />
      <linearGradient
         x1="0.014564"
         y1="-0.000001"
         x2="0.989091"
         y2="1.000000"
         id="linearGradient860"
         xlink:href="#linearGradient1535" />
      <linearGradient
         x1="0.003631"
         y1="0.000003"
         x2="1.003636"
         y2="1.041666"
         id="linearGradient861"
         xlink:href="#linearGradient1535" />
      <linearGradient
         x1="0.003633"
         y1="0.008073"
         x2="0.996364"
         y2="0.975806"
         id="linearGradient862"
         xlink:href="#linearGradient1535" />
    </defs>
    <linearGradient
       x1="34.141509"
       y1="46.838192"
       x2="15.452149"
       y2="28.633213"
       id="linearGradient899"
       xlink:href="#linearGradient642"
       gradientTransform="matrix(0.865842,0.000000,0.000000,1.154945,4.078000e-3,0.000000)"
       gradientUnits="userSpaceOnUse" />
  </defs>
  <path
     d="M 35.948548,32.164599 C 35.948548,34.392251 34.140667,36.200132 31.913017,36.200132 C 29.685365,36.200132 27.877387,34.392251 27.877387,32.164599 C 27.877387,29.936949 29.685365,28.128969 31.913017,28.128969 C 34.140667,28.128969 35.948548,29.936949 35.948548,32.164599 z M 57.558526,31.774005 C 57.558526,46.074039 45.952625,57.679846 31.652588,57.679846 C 17.352552,57.679846 5.7467347,46.074039 5.7467347,31.774005 C 5.7467347,17.473969 17.352552,5.8680673 31.652588,5.8680673 C 45.952625,5.8680673 57.558526,17.473969 57.558526,31.774005 z "
     style="font-size:12.000000px;opacity:0.30267498;fill-rule:evenodd;stroke-width:12.500000"
     id="path782" />
  <path
     d="M 33.739314,29.403006 C 33.739314,31.630656 31.931431,33.438539 29.703779,33.438539 C 27.476130,33.438539 25.668151,31.630656 25.668151,29.403006 C 25.668151,27.175356 27.476130,25.367376 29.703779,25.367376 C 31.931431,25.367376 33.739314,27.175356 33.739314,29.403006 z M 55.349291,29.012410 C 55.349291,43.312449 43.743389,54.918251 29.443353,54.918251 C 15.143315,54.918251 3.5375000,43.312449 3.5375000,29.012410 C 3.5375000,14.712374 15.143315,3.1065219 29.443353,3.1065219 C 43.743389,3.1065219 55.349291,14.712374 55.349291,29.012410 z "
     style="font-size:12.000000px;fill:url(#linearGradient638);fill-rule:evenodd;stroke:#261e2e;stroke-width:1.8750000;stroke-dasharray:none"
     id="path773" />
  <path
     d="M 9.1352286,42.420963 C 4.3588832,37.125542 1.3264326,15.146100 19.028910,7.0118900 C 33.392141,0.46956055 47.445706,10.953941 48.449718,13.911412 C 48.745814,14.745133 36.467373,4.3641214 21.762784,11.958728 C 0.18467090,23.005585 9.7227676,43.090594 9.1352286,42.420963 z "
     style="font-size:12.000000px;opacity:0.69999999;fill:url(#linearGradient1042);fill-rule:evenodd;stroke:none;stroke-width:1.0000000pt;stroke-opacity:1.0000000"
     id="path774" />
  <path
     d="M 39.296326,29.586964 C 39.296326,34.662371 34.554135,38.960272 29.665691,39.125621 C 24.222177,39.125621 19.670048,34.570392 19.850904,29.494986 C 20.038253,24.235716 24.222177,19.588122 29.665691,19.588122 C 34.741002,19.588122 39.486971,24.330990 39.296326,29.586964 z M 36.733519,29.533074 C 36.733519,33.485352 33.525893,36.692980 29.573616,36.692980 C 25.621337,36.692980 22.413710,33.485352 22.413710,29.533074 C 22.413710,25.580798 25.621337,22.373169 29.573616,22.373169 C 33.525893,22.373169 36.733519,25.580798 36.733519,29.533074 z "
     style="font-size:12.000000px;opacity:0.10089196;fill:#3f003f;fill-rule:evenodd;stroke-width:1.0000000pt"
     id="path779" />
  <path
     d="M 30.875371,24.651318 C 30.870235,25.020299 33.097109,26.471799 33.413948,26.278538 C 38.363744,22.241647 48.066975,16.194213 48.189387,12.088894 C 48.273999,9.1879292 33.683778,3.2730040 33.218651,4.0176837 C 31.214404,7.5070045 30.986540,18.078177 30.875371,24.651318 z "
     style="font-size:12.000000px;fill:url(#linearGradient1044);fill-rule:evenodd;stroke-width:1.0000000pt"
     id="path780" />
  <path
     d="M 29.169452,33.931579 C 29.136303,33.564052 26.771120,32.351077 26.475994,32.576127 C 21.971067,37.104025 12.946483,44.124169 13.249947,48.219987 C 13.466277,51.114169 28.590730,55.485729 28.976188,54.696980 C 30.608158,51.018797 29.739836,40.480878 29.169452,33.931579 z "
     style="font-size:12.000000px;fill:url(#linearGradient899);fill-rule:evenodd;stroke-width:1.0000000pt"
     id="path781" />
  <path
     d="M 25.484408,53.160687 C 24.868527,51.035080 32.656788,48.293213 33.515910,45.173520 C 34.360362,42.107140 29.157869,37.331118 30.595313,34.602408 C 32.808514,30.401157 39.543807,25.831618 44.468012,24.383499 C 45.739430,23.973792 59.859986,28.812374 60.037263,29.801276 C 60.166409,32.373014 49.552543,35.875279 47.381526,39.785220 C 46.226354,41.865608 51.019642,45.487088 50.058631,47.772264 C 48.220790,52.143010 42.913698,57.801680 38.984974,59.752921 C 38.176005,60.215179 25.743486,53.937338 25.484408,53.160687 z M 51.938784,32.362643 C 51.866622,32.645285 52.902513,33.204750 53.346682,33.124113 C 53.977682,33.009640 55.056010,32.201747 55.164478,31.777434 C 55.235563,31.499411 54.299725,30.942155 53.885470,31.017354 C 53.224621,31.137205 52.046111,31.943075 51.938784,32.362643 z M 48.076211,34.749452 C 47.980648,35.025074 48.966070,35.669290 49.415427,35.626093 C 50.053824,35.564808 51.195970,34.849948 51.339536,34.436198 C 51.433643,34.165129 50.547704,33.531539 50.128580,33.571764 C 49.460015,33.635894 48.218261,34.340382 48.076211,34.749452 z M 44.287258,37.852638 C 44.274417,38.144072 45.402901,38.479713 45.821143,38.309902 C 46.415394,38.068684 47.305568,37.057203 47.324859,36.619674 C 47.337571,36.333046 46.307496,35.979126 45.917339,36.137430 C 45.295007,36.390030 44.306421,37.420041 44.287258,37.852638 z M 44.636180,43.091045 C 44.894791,43.225948 45.676437,42.345575 45.699585,41.894765 C 45.732598,41.254279 45.192863,40.019734 44.804602,39.817096 C 44.550295,39.684280 43.793629,40.467700 43.771997,40.888216 C 43.737468,41.558995 44.252282,42.890558 44.636180,43.091045 z M 46.678429,46.875257 C 46.937039,47.010158 47.718689,46.129787 47.741834,45.678975 C 47.774847,45.038491 47.235113,43.803946 46.846853,43.601308 C 46.592543,43.468493 45.835877,44.251912 45.814249,44.672429 C 45.779717,45.343205 46.294532,46.674770 46.678429,46.875257 z M 44.622204,50.419388 C 44.650412,50.709748 45.814817,50.883671 46.205103,50.656810 C 46.759638,50.334641 47.498974,49.208244 47.456663,48.772297 C 47.429024,48.486743 46.359486,48.280817 45.995382,48.492371 C 45.414665,48.829848 44.580463,49.988309 44.622204,50.419388 z M 41.624383,53.534022 C 41.597186,53.824507 42.707773,54.215301 43.133855,54.066295 C 43.739301,53.854677 44.678112,52.888289 44.719033,52.452151 C 44.745783,52.166536 43.734433,51.762211 43.336936,51.901223 C 42.702903,52.122832 41.664797,53.102818 41.624383,53.534022 z M 37.965840,56.505408 C 37.896778,56.788871 38.938931,57.336702 39.382151,57.251066 C 40.011883,57.129574 41.080980,56.309599 41.184703,55.884025 C 41.252629,55.605304 40.310656,55.058547 39.897157,55.138362 C 39.237700,55.265676 38.068423,56.084638 37.965840,56.505408 z M 41.613506,27.151956 C 41.510540,27.424889 42.478635,28.095081 42.928941,28.063876 C 43.568793,28.019666 44.729404,27.335246 44.883849,26.925381 C 44.985040,26.656979 44.116433,26.000034 43.696232,26.029138 C 43.026149,26.075498 41.766243,26.746724 41.613506,27.151956 z M 38.032372,29.658469 C 38.000688,29.948449 39.105265,30.356251 39.533559,30.213825 C 40.142233,30.011567 41.095652,29.059537 41.143150,28.624094 C 41.174268,28.338922 40.169303,27.919208 39.769654,28.052085 C 39.132270,28.263945 38.079301,29.227960 38.032372,29.658469 z M 34.488431,32.601772 C 34.456746,32.891750 35.561322,33.299557 35.989617,33.157127 C 36.598291,32.954870 37.551710,32.002840 37.599207,31.567397 C 37.630325,31.282226 36.625358,30.862466 36.225712,30.995345 C 35.588328,31.207216 34.535359,32.171263 34.488431,32.601772 z M 32.622699,36.746290 C 32.728193,37.018247 33.896392,36.871264 34.210911,36.547511 C 34.657927,36.087530 35.065479,34.803336 34.907053,34.394964 C 34.803264,34.127499 33.717916,34.218003 33.424458,34.520061 C 32.956381,35.001800 32.465979,36.342532 32.622699,36.746290 z M 34.362700,41.543183 C 34.627886,41.664678 35.363175,40.745092 35.363048,40.293713 C 35.362985,39.652279 34.760195,38.447334 34.362004,38.264933 C 34.101118,38.145464 33.385941,38.966829 33.386005,39.387978 C 33.386131,40.059641 33.968936,41.362872 34.362700,41.543183 z M 35.408903,45.857641 C 35.630069,46.047882 36.591334,45.367998 36.716304,44.934263 C 36.893961,44.317939 36.648633,43.163080 36.316595,42.877467 C 36.099033,42.690386 35.184253,43.111537 35.067630,43.516178 C 34.881627,44.161596 35.080533,45.575253 35.408903,45.857641 z M 32.511642,48.617725 C 32.442577,48.901188 33.484730,49.449016 33.927953,49.363385 C 34.557685,49.241891 35.626781,48.421917 35.730503,47.996341 C 35.798429,47.717619 34.856455,47.170864 34.442958,47.250679 C 33.783500,47.377993 32.614224,48.196953 32.511642,48.617725 z M 28.967761,51.440861 C 28.898697,51.724327 29.940851,52.272155 30.384073,52.186522 C 31.013742,52.065026 32.082841,51.245056 32.186560,50.819476 C 32.254486,50.540757 31.312512,49.994000 30.899016,50.073817 C 30.239621,50.201129 29.070344,51.020091 28.967761,51.440861 z "
     style="font-size:12.000000px;opacity:0.30267498;fill-rule:evenodd;stroke-width:1.2500000"
     id="path738" />
  <path
     d="M 24.254572,52.266272 C 23.638690,50.140668 31.426987,47.398801 32.286109,44.279106 C 33.130557,41.212728 27.928036,36.436705 29.365510,33.707992 C 31.578711,29.506743 38.314006,24.937191 43.238210,23.489075 C 44.509627,23.079365 58.630185,27.917962 58.807461,28.906864 C 58.936607,31.478602 48.322742,34.980863 46.151726,38.890807 C 44.996552,40.971194 49.789838,44.592675 48.828828,46.877849 C 46.990987,51.248596 41.683896,56.907266 37.755172,58.858506 C 36.946203,59.320765 24.513652,53.042925 24.254572,52.266272 z M 50.708981,31.468228 C 50.636819,31.750873 51.672712,32.310338 52.116881,32.229702 C 52.747878,32.115228 53.826210,31.307333 53.934673,30.883021 C 54.005761,30.604995 53.069923,30.047744 52.655665,30.122941 C 51.994819,30.242790 50.816307,31.048660 50.708981,31.468228 z M 46.846409,33.855038 C 46.750847,34.130661 47.736269,34.774876 48.185625,34.731678 C 48.824022,34.670396 49.966167,33.955534 50.109734,33.541785 C 50.203842,33.270717 49.317903,32.637127 48.898778,32.677350 C 48.230213,32.741481 46.988459,33.445969 46.846409,33.855038 z M 43.057456,36.958227 C 43.044617,37.249660 44.173098,37.585301 44.591337,37.415487 C 45.185591,37.174269 46.075766,36.162792 46.095057,35.725260 C 46.107769,35.438634 45.077695,35.084714 44.687536,35.243018 C 44.065204,35.495618 43.076617,36.525628 43.057456,36.958227 z M 43.406379,42.196633 C 43.664989,42.331534 44.446634,41.451163 44.469782,41.000349 C 44.502796,40.359866 43.963062,39.125322 43.574801,38.922684 C 43.320492,38.789869 42.563827,39.573286 42.542196,39.993805 C 42.507666,40.664581 43.022481,41.996146 43.406379,42.196633 z M 45.448627,45.980843 C 45.707238,46.115745 46.488883,45.235372 46.512033,44.784560 C 46.545046,44.144077 46.005312,42.909532 45.617049,42.706893 C 45.362741,42.574080 44.606077,43.357497 44.584446,43.778015 C 44.549914,44.448793 45.064730,45.780356 45.448627,45.980843 z M 43.392401,49.524976 C 43.420607,49.815333 44.585015,49.989258 44.975302,49.762398 C 45.529836,49.440228 46.269169,48.313832 46.226860,47.877882 C 46.199222,47.592331 45.129683,47.386404 44.765580,47.597960 C 44.184862,47.935435 43.350659,49.093896 43.392401,49.524976 z M 40.394583,52.639610 C 40.367385,52.930096 41.477970,53.320889 41.904054,53.171881 C 42.509498,52.960264 43.448310,51.993877 43.489231,51.557739 C 43.515983,51.272122 42.504630,50.867796 42.107134,51.006809 C 41.473101,51.228421 40.434996,52.208405 40.394583,52.639610 z M 36.736038,55.610995 C 36.666974,55.894459 37.709127,56.442289 38.152349,56.356655 C 38.782081,56.235160 39.851178,55.415187 39.954901,54.989609 C 40.022825,54.710890 39.080852,54.164136 38.667355,54.243950 C 38.007897,54.371262 36.838621,55.190223 36.736038,55.610995 z M 40.383704,26.257531 C 40.280740,26.530464 41.248832,27.200655 41.699138,27.169449 C 42.338991,27.125241 43.499603,26.440820 43.654047,26.030955 C 43.755238,25.762555 42.886629,25.105608 42.466430,25.134714 C 41.796346,25.181073 40.536439,25.852301 40.383704,26.257531 z M 36.802572,28.764055 C 36.770885,29.054035 37.875463,29.461839 38.303759,29.319410 C 38.912431,29.117155 39.865851,28.165143 39.913347,27.729700 C 39.944466,27.444528 38.939499,27.024782 38.539853,27.157660 C 37.902469,27.369518 36.849500,28.333545 36.802572,28.764055 z M 33.258629,31.707359 C 33.226942,31.997338 34.331520,32.405143 34.759816,32.262715 C 35.368485,32.060456 36.321908,31.108428 36.369406,30.672985 C 36.400521,30.387812 35.395556,29.968054 34.995911,30.100932 C 34.358525,30.312802 33.305557,31.276850 33.258629,31.707359 z M 31.392897,35.851879 C 31.498389,36.123832 32.666591,35.976848 32.981109,35.653099 C 33.428125,35.193116 33.835678,33.908923 33.677248,33.500548 C 33.573463,33.233086 32.488114,33.323588 32.194655,33.625650 C 31.726579,34.107386 31.236174,35.448121 31.392897,35.851879 z M 33.132898,40.648771 C 33.398084,40.770265 34.133375,39.850679 34.133246,39.399299 C 34.133184,38.757868 33.530394,37.552919 33.132204,37.370522 C 32.871314,37.251049 32.156140,38.072416 32.156203,38.493565 C 32.156330,39.165228 32.739132,40.468459 33.132898,40.648771 z M 34.179098,44.963228 C 34.400268,45.153470 35.361533,44.473585 35.486503,44.039849 C 35.664159,43.423524 35.418832,42.268669 35.086794,41.983054 C 34.869233,41.795975 33.954453,42.217123 33.837828,42.621767 C 33.651824,43.267183 33.850729,44.680839 34.179098,44.963228 z M 31.281837,47.723311 C 31.212774,48.006776 32.254928,48.554606 32.698152,48.468972 C 33.327883,48.347478 34.396979,47.527504 34.500702,47.101927 C 34.568627,46.823205 33.626654,46.276451 33.213155,46.356266 C 32.553698,46.483579 31.384421,47.302540 31.281837,47.723311 z M 27.737928,50.546449 C 27.668864,50.829912 28.711017,51.377744 29.154239,51.292108 C 29.783941,51.170616 30.853036,50.350641 30.956758,49.925064 C 31.024684,49.646343 30.082711,49.099589 29.669213,49.179403 C 29.009786,49.306718 27.840511,50.125679 27.737928,50.546449 z "
     style="font-size:12.000000px;fill:#261e2e;fill-rule:evenodd;stroke:#261e2e;stroke-width:0.062500000;stroke-dasharray:none;stroke-opacity:1.0000000"
     id="path737" />
  <path
     d="M 30.682466,52.048584 C 30.733818,51.032929 35.647653,47.289639 36.620805,47.201916 C 37.621470,47.100094 41.779587,47.417522 41.854215,48.508247 C 42.059764,49.506763 36.397170,54.468535 35.313779,54.737831 C 34.266946,55.118189 30.628135,52.998590 30.682466,52.048584 z "
     style="font-size:12.000000px;fill:url(#linearGradient641);fill-rule:evenodd;stroke:#3f003f;stroke-width:0.79056603"
     id="path648" />
  <path
     d="M 37.451783,44.181327 C 38.248861,44.731308 42.453718,45.770554 43.076936,45.316199 C 43.751633,44.730485 40.954490,41.736904 40.872713,37.536666 C 40.852729,36.489768 35.747706,36.562816 35.147636,37.379943 C 34.837735,37.853081 36.756909,43.609593 37.451783,44.181327 z "
     style="font-size:12.000000px;fill:url(#linearGradient1522);fill-rule:evenodd;stroke:#3f003f;stroke-width:0.79056603"
     id="path649" />
  <path
     d="M 36.322478,33.381016 C 36.414120,34.131041 41.756881,35.201147 42.753246,34.941021 C 43.884387,34.612145 50.286756,30.637505 50.182275,29.793372 C 50.066725,28.722567 44.665589,27.300772 43.451726,27.474127 C 42.221418,27.632936 36.195166,32.464468 36.322478,33.381016 z "
     style="font-size:12.000000px;fill:url(#linearGradient1527);fill-rule:evenodd;stroke:#3f003f;stroke-width:0.79056603"
     id="path650" />
  <path
     d="M 32.132676,51.455787 C 32.132676,51.297863 34.720857,48.721002 36.252910,48.108158 C 37.295949,47.690929 39.858073,48.216370 39.858073,48.365628 C 39.858073,48.516848 37.368427,48.563269 36.252910,49.009465 C 34.793336,49.593281 32.132676,51.598341 32.132676,51.455787 z "
     style="font-size:12.000000px;opacity:0.69993597;fill:url(#linearGradient1534);fill-rule:evenodd;stroke:#ffffff;stroke-width:0.063245201pt"
     id="path656" />
  <path
     d="M 36.331965,39.189262 C 36.112378,39.460330 35.748150,37.901085 36.074429,37.772888 C 36.949870,37.428959 39.894249,37.537172 39.937128,37.772888 C 39.980134,38.009296 37.399418,37.901716 36.331965,39.189262 z "
     style="font-size:12.000000px;opacity:0.69999999;fill:url(#linearGradient1539);fill-rule:evenodd;stroke:#ffffff;stroke-width:0.063245201pt"
     id="path657" />
  <path
     d="M 38.318874,32.543523 C 38.341707,32.314954 41.646140,28.994521 43.597883,28.423290 C 45.165479,27.964487 48.898270,29.239468 48.876895,29.453365 C 48.855392,29.668651 45.156499,29.217018 43.469118,29.710898 C 41.637158,30.247090 38.298824,32.744137 38.318874,32.543523 z "
     style="font-size:12.000000px;opacity:0.69993597;fill:url(#linearGradient1567);fill-rule:evenodd;stroke:#ffffff;stroke-width:0.063245201pt"
     id="path658" />
  <path
     d="M 30.179348,34.735032 C 30.135520,32.798401 37.672510,26.680443 42.411215,24.949538 C 44.839957,24.062392 51.637484,26.615314 51.681755,26.880887 C 51.723307,27.130347 45.062832,25.620140 42.668750,26.494618 C 37.895384,28.238179 30.167331,34.990478 30.179348,34.735032 z "
     style="font-size:12.000000px;opacity:0.69999999;fill:url(#linearGradient1532);fill-rule:evenodd;stroke:#ffffff;stroke-width:0.063245201pt"
     id="path655" />
</svg>
