<?xml version="1.0" encoding="UTF-8" standalone="no"?>
<!-- Created with Inkscape (http://www.inkscape.org/) -->
<svg
   xmlns:dc="http://purl.org/dc/elements/1.1/"
   xmlns:cc="http://web.resource.org/cc/"
   xmlns:rdf="http://www.w3.org/1999/02/22-rdf-syntax-ns#"
   xmlns:svg="http://www.w3.org/2000/svg"
   xmlns="http://www.w3.org/2000/svg"
   xmlns:xlink="http://www.w3.org/1999/xlink"
   xmlns:sodipodi="http://inkscape.sourceforge.net/DTD/sodipodi-0.dtd"
   xmlns:inkscape="http://www.inkscape.org/namespaces/inkscape"
   id="svg1"
   sodipodi:version="0.32"
   inkscape:version="0.42"
   width="48pt"
   height="48pt"
   sodipodi:docbase="/home/jakob/dev/lila/lila-theme/trunk/lila/kde/scalable/apps"
   sodipodi:docname="package_utilities.svg">
  <metadata
     id="metadata30">
    <rdf:RDF>
      <cc:Work
         rdf:about="">
        <dc:format>image/svg+xml</dc:format>
        <dc:type
           rdf:resource="http://purl.org/dc/dcmitype/StillImage" />
      </cc:Work>
    </rdf:RDF>
  </metadata>
  <defs
     id="defs3">
    <linearGradient
       id="linearGradient584">
      <stop
         style="stop-color:#ffffff;stop-opacity:1;"
         offset="0.00000000"
         id="stop585" />
      <stop
         style="stop-color:#ffffff;stop-opacity:0;"
         offset="1.00000000"
         id="stop586" />
    </linearGradient>
    <linearGradient
       id="linearGradient578">
      <stop
         style="stop-color:#d9cce6;stop-opacity:1;"
         offset="0.00000000"
         id="stop579" />
      <stop
         style="stop-color:#73667f;stop-opacity:1;"
         offset="1.00000000"
         id="stop580" />
    </linearGradient>
    <linearGradient
       xlink:href="#linearGradient578"
       id="linearGradient581"
       x1="4.1867060"
       y1="3.8776405"
       x2="56.057879"
       y2="55.748813"
       gradientTransform="matrix(0.992676,0.000000,0.000000,1.007378,3.955975e-3,0.000000)"
       gradientUnits="userSpaceOnUse" />
    <linearGradient
       xlink:href="#linearGradient584"
       id="linearGradient583"
       x1="9.6354215"
       y1="9.2074264"
       x2="51.011343"
       y2="50.599117"
       gradientTransform="matrix(0.991704,0.000000,0.000000,1.008366,3.955975e-3,0.000000)"
       gradientUnits="userSpaceOnUse" />
    <linearGradient
       xlink:href="#linearGradient584"
       id="linearGradient860"
       x1="28.249501"
       y1="32.407302"
       x2="49.019987"
       y2="54.169434"
       gradientTransform="matrix(1.048260,0.000000,0.000000,0.953962,3.955975e-3,0.000000)"
       gradientUnits="userSpaceOnUse" />
    <linearGradient
       xlink:href="#linearGradient584"
       id="linearGradient861"
       x1="16.121411"
       y1="48.302077"
       x2="20.360756"
       y2="52.640781"
       gradientTransform="scale(1.091761,0.915951)"
       gradientUnits="userSpaceOnUse" />
    <linearGradient
       xlink:href="#linearGradient578"
       id="linearGradient862"
       x1="-0.00000000"
       y1="0.00775194"
       x2="1.00000000"
       y2="0.99224806" />
    <linearGradient
       inkscape:collect="always"
       xlink:href="#linearGradient584"
       id="linearGradient1328"
       x1="12.265942"
       y1="52.776636"
       x2="16.505287"
       y2="57.115340"
       gradientTransform="scale(1.091761,0.915951)"
       gradientUnits="userSpaceOnUse" />
    <linearGradient
       inkscape:collect="always"
       xlink:href="#linearGradient584"
       id="linearGradient1330"
       x1="42.399445"
       y1="15.528952"
       x2="46.638790"
       y2="19.867656"
       gradientTransform="scale(1.091761,0.915951)"
       gradientUnits="userSpaceOnUse" />
    <linearGradient
       inkscape:collect="always"
       xlink:href="#linearGradient584"
       id="linearGradient1332"
       x1="42.399445"
       y1="15.528952"
       x2="46.638790"
       y2="19.867656"
       gradientTransform="scale(1.091761,0.915951)"
       gradientUnits="userSpaceOnUse" />
    <linearGradient
       inkscape:collect="always"
       xlink:href="#linearGradient584"
       id="linearGradient1334"
       x1="42.399445"
       y1="15.528952"
       x2="46.638790"
       y2="19.867656"
       gradientTransform="scale(1.091761,0.915951)"
       gradientUnits="userSpaceOnUse" />
    <linearGradient
       inkscape:collect="always"
       xlink:href="#linearGradient584"
       id="linearGradient1336"
       x1="42.399445"
       y1="15.528952"
       x2="46.638790"
       y2="19.867656"
       gradientTransform="scale(1.091761,0.915951)"
       gradientUnits="userSpaceOnUse" />
    <linearGradient
       inkscape:collect="always"
       xlink:href="#linearGradient584"
       id="linearGradient1338"
       x1="42.399445"
       y1="15.528952"
       x2="46.638790"
       y2="19.867656"
       gradientTransform="scale(1.091761,0.915951)"
       gradientUnits="userSpaceOnUse" />
    <linearGradient
       inkscape:collect="always"
       xlink:href="#linearGradient584"
       id="linearGradient1340"
       x1="24.238175"
       y1="38.264555"
       x2="28.477519"
       y2="42.603260"
       gradientTransform="scale(1.091761,0.915951)"
       gradientUnits="userSpaceOnUse" />
    <linearGradient
       inkscape:collect="always"
       xlink:href="#linearGradient584"
       id="linearGradient1342"
       x1="20.179789"
       y1="43.464712"
       x2="24.419133"
       y2="47.803416"
       gradientTransform="scale(1.091761,0.915951)"
       gradientUnits="userSpaceOnUse" />
  </defs>
  <sodipodi:namedview
     id="base"
     pagecolor="#ffffff"
     bordercolor="#666666"
     borderopacity="1.0"
     inkscape:pageopacity="0.0"
     inkscape:pageshadow="2"
     inkscape:zoom="7.9794719"
     inkscape:cx="25.514306"
     inkscape:cy="28.619087"
     inkscape:window-width="895"
     inkscape:window-height="699"
     inkscape:window-x="76"
     inkscape:window-y="87"
     inkscape:current-layer="svg1" />
  <path
     style="font-size:12.000000px;opacity:0.29636899;fill:#000000;fill-opacity:1.0000000;fill-rule:evenodd;stroke:none;stroke-width:1.8750000;stroke-linecap:round;stroke-linejoin:round;stroke-dasharray:none;stroke-opacity:1.0000000"
     d="M 48.075887,29.881574 C 49.082573,30.019283 49.274755,46.523692 48.254041,47.454829 C 47.293506,48.463863 30.384976,48.827547 30.368373,47.632982 C 30.181152,45.912312 46.749177,29.725120 48.075887,29.881574 z M 57.073430,6.2319551 C 55.161304,6.2417815 6.7726024,55.249386 6.8208838,57.352033 C 6.7022787,59.201253 56.367802,58.409604 57.169823,57.255641 C 58.184557,56.214000 59.028322,6.2227367 57.073430,6.2319551 z "
     id="path618"
     sodipodi:nodetypes="cssscsss" />
  <path
     style="font-size:12.000000px;fill:url(#linearGradient581);fill-rule:evenodd;stroke:#261933;stroke-width:1.8750000;stroke-linecap:round;stroke-linejoin:round;stroke-dasharray:none;stroke-opacity:1.0000000"
     d="M 45.221808,27.845075 C 46.200898,27.979009 46.387812,44.030991 45.395078,44.936603 C 44.460874,45.917977 28.015849,46.271691 27.999701,45.109872 C 27.817612,43.436370 43.931466,27.692909 45.221808,27.845075 z M 53.972706,4.8437500 C 52.112996,4.8533070 5.0507484,52.517492 5.0977063,54.562500 C 4.9823525,56.361028 53.286421,55.591080 54.066456,54.468750 C 55.053374,53.455663 55.874009,4.8347843 53.972706,4.8437500 z "
     id="path596"
     sodipodi:nodetypes="cssscsss" />
  <path
     style="fill:url(#linearGradient583);fill-opacity:1.0000000;fill-rule:evenodd;stroke:none;stroke-width:1.0000000pt;stroke-linecap:butt;stroke-linejoin:miter;stroke-opacity:1.0000000"
     d="M 9.5597260,52.010749 C 9.6673430,51.257432 39.015109,21.729206 51.072498,9.4014136 C 52.017222,8.5182233 51.596670,12.897954 50.445890,13.787669 C 36.213502,25.069074 9.4584740,52.719517 9.5597260,52.010749 z "
     id="path597"
     sodipodi:nodetypes="csss" />
  <path
     style="fill:url(#linearGradient860);fill-opacity:1.0000000;fill-rule:evenodd;stroke:none;stroke-width:1.0000000pt;stroke-linecap:butt;stroke-linejoin:miter;stroke-opacity:1.0000000"
     d="M 29.619050,47.678249 C 29.392964,47.527525 46.043162,48.222127 47.007419,46.894989 C 47.951619,45.752107 47.719092,30.764329 47.947331,30.916488 C 48.189048,31.077633 49.181853,46.571177 48.417287,47.834901 C 47.868874,48.853718 29.862920,47.840829 29.619050,47.678249 z "
     id="path598"
     sodipodi:nodetypes="cssss" />
  <g
     id="g608"
     style="opacity:0.99000001"
     transform="translate(-0.328353,-0.775388)">
    <path
       style="fill:url(#linearGradient1328);fill-opacity:1.0000000;fill-rule:evenodd;stroke:none;stroke-width:1.0000000pt;stroke-linecap:butt;stroke-linejoin:miter;stroke-opacity:1.0000000"
       d="M 13.403130,48.369185 C 13.218596,48.609080 15.271112,50.871943 16.393911,51.803045 C 16.784964,52.127333 17.773100,52.358416 17.944686,52.135354 C 18.142332,51.878414 17.934775,50.722251 17.501608,50.363039 C 16.420923,49.466861 13.587828,48.129078 13.403130,48.369185 z "
       id="path599"
       sodipodi:nodetypes="cssss" />
    <path
       style="fill:url(#linearGradient1330);fill-opacity:1.0000000;fill-rule:evenodd;stroke:none;stroke-width:1.0000000pt;stroke-linecap:butt;stroke-linejoin:miter;stroke-opacity:1.0000000"
       d="M 46.301722,14.252126 C 46.117188,14.492021 48.169704,16.754884 49.292503,17.685986 C 49.683556,18.010274 50.671692,18.241357 50.843278,18.018295 C 51.040924,17.761355 50.833367,16.605192 50.400200,16.245980 C 49.319515,15.349802 46.486420,14.012019 46.301722,14.252126 z "
       id="path600"
       sodipodi:nodetypes="cssss" />
    <path
       style="fill:url(#linearGradient1332);fill-opacity:1.0000000;fill-rule:evenodd;stroke:none;stroke-width:1.0000000pt;stroke-linecap:butt;stroke-linejoin:miter;stroke-opacity:1.0000000"
       d="M 46.301722,14.252126 C 46.117188,14.492021 48.169704,16.754884 49.292503,17.685986 C 49.683556,18.010274 50.671692,18.241357 50.843278,18.018295 C 51.040924,17.761355 50.833367,16.605192 50.400200,16.245980 C 49.319515,15.349802 46.486420,14.012019 46.301722,14.252126 z "
       id="path601"
       sodipodi:nodetypes="cssss"
       transform="translate(-3.433860,3.655399)" />
    <path
       style="fill:url(#linearGradient1334);fill-opacity:1.0000000;fill-rule:evenodd;stroke:none;stroke-width:1.0000000pt;stroke-linecap:butt;stroke-linejoin:miter;stroke-opacity:1.0000000"
       d="M 46.301722,14.252126 C 46.117188,14.492021 48.169704,16.754884 49.292503,17.685986 C 49.683556,18.010274 50.671692,18.241357 50.843278,18.018295 C 51.040924,17.761355 50.833367,16.605192 50.400200,16.245980 C 49.319515,15.349802 46.486420,14.012019 46.301722,14.252126 z "
       id="path602"
       sodipodi:nodetypes="cssss"
       transform="translate(-6.978489,7.532338)" />
    <path
       style="fill:url(#linearGradient1336);fill-opacity:1.0000000;fill-rule:evenodd;stroke:none;stroke-width:1.0000000pt;stroke-linecap:butt;stroke-linejoin:miter;stroke-opacity:1.0000000"
       d="M 46.301722,14.252126 C 46.117188,14.492021 48.169704,16.754884 49.292503,17.685986 C 49.683556,18.010274 50.671692,18.241357 50.843278,18.018295 C 51.040924,17.761355 50.833367,16.605192 50.400200,16.245980 C 49.319515,15.349802 46.486420,14.012019 46.301722,14.252126 z "
       id="path603"
       sodipodi:nodetypes="cssss"
       transform="translate(-11.18774,11.96312)" />
    <path
       style="fill:url(#linearGradient1338);fill-opacity:1.0000000;fill-rule:evenodd;stroke:none;stroke-width:1.0000000pt;stroke-linecap:butt;stroke-linejoin:miter;stroke-opacity:1.0000000"
       d="M 46.301722,14.252126 C 46.117188,14.492021 48.169704,16.754884 49.292503,17.685986 C 49.683556,18.010274 50.671692,18.241357 50.843278,18.018295 C 51.040924,17.761355 50.833367,16.605192 50.400200,16.245980 C 49.319515,15.349802 46.486420,14.012019 46.301722,14.252126 z "
       id="path604"
       sodipodi:nodetypes="cssss"
       transform="translate(-15.39698,16.39391)" />
    <path
       style="fill:url(#linearGradient1340);fill-opacity:1.0000000;fill-rule:evenodd;stroke:none;stroke-width:1.0000000pt;stroke-linecap:butt;stroke-linejoin:miter;stroke-opacity:1.0000000"
       d="M 26.473950,35.076828 C 26.289416,35.316723 28.341932,37.579586 29.464731,38.510688 C 29.855784,38.834976 30.843920,39.066059 31.015506,38.842997 C 31.213152,38.586057 31.005595,37.429894 30.572428,37.070682 C 29.491743,36.174504 26.658648,34.836721 26.473950,35.076828 z "
       id="path605"
       sodipodi:nodetypes="cssss" />
    <path
       style="fill:url(#linearGradient1342);fill-opacity:1.0000000;fill-rule:evenodd;stroke:none;stroke-width:1.0000000pt;stroke-linecap:butt;stroke-linejoin:miter;stroke-opacity:1.0000000"
       d="M 22.043161,39.839917 C 21.858627,40.079812 23.911143,42.342675 25.033942,43.273777 C 25.424995,43.598065 26.413131,43.829148 26.584717,43.606086 C 26.782363,43.349146 26.574806,42.192983 26.141639,41.833771 C 25.060954,40.937593 22.227859,39.599810 22.043161,39.839917 z "
       id="path606"
       sodipodi:nodetypes="cssss" />
    <path
       style="fill:url(#linearGradient861);fill-opacity:1.0000000;fill-rule:evenodd;stroke:none;stroke-width:1.0000000pt;stroke-linecap:butt;stroke-linejoin:miter;stroke-opacity:1.0000000"
       d="M 17.612382,44.270707 C 17.427848,44.510602 19.480364,46.773465 20.603163,47.704567 C 20.994216,48.028855 21.982352,48.259938 22.153938,48.036876 C 22.351584,47.779936 22.144027,46.623773 21.710860,46.264561 C 20.630175,45.368383 17.797080,44.030600 17.612382,44.270707 z "
       id="path607"
       sodipodi:nodetypes="cssss" />
  </g>
</svg>
