<?xml version="1.0" encoding="UTF-8" standalone="no"?>
<!-- Created with Inkscape (http://www.inkscape.org/) -->
<svg
   xmlns:dc="http://purl.org/dc/elements/1.1/"
   xmlns:cc="http://web.resource.org/cc/"
   xmlns:rdf="http://www.w3.org/1999/02/22-rdf-syntax-ns#"
   xmlns:svg="http://www.w3.org/2000/svg"
   xmlns="http://www.w3.org/2000/svg"
   xmlns:xlink="http://www.w3.org/1999/xlink"
   xmlns:sodipodi="http://inkscape.sourceforge.net/DTD/sodipodi-0.dtd"
   xmlns:inkscape="http://www.inkscape.org/namespaces/inkscape"
   id="svg1"
   sodipodi:version="0.32"
   inkscape:version="0.42"
   width="48pt"
   height="48pt"
   sodipodi:docbase="/home/jakob/dev/lila/lila-theme/trunk/lila/kde/scalable/actions"
   sodipodi:docname="add.svg">
  <metadata
     id="metadata20">
    <rdf:RDF>
      <cc:Work
         rdf:about="">
        <dc:format>image/svg+xml</dc:format>
        <dc:type
           rdf:resource="http://purl.org/dc/dcmitype/StillImage" />
      </cc:Work>
    </rdf:RDF>
  </metadata>
  <defs
     id="defs3">
    <linearGradient
       id="linearGradient584">
      <stop
         style="stop-color:#ffffff;stop-opacity:1;"
         offset="0.00000000"
         id="stop585" />
      <stop
         style="stop-color:#ffffff;stop-opacity:0;"
         offset="1.00000000"
         id="stop586" />
    </linearGradient>
    <linearGradient
       id="linearGradient578">
      <stop
         style="stop-color:#d9cce6;stop-opacity:1;"
         offset="0.00000000"
         id="stop579" />
      <stop
         style="stop-color:#73667f;stop-opacity:1;"
         offset="1.00000000"
         id="stop580" />
    </linearGradient>
    <linearGradient
       xlink:href="#linearGradient578"
       id="linearGradient581"
       x1="3.7407475"
       y1="5.3761624"
       x2="54.527518"
       y2="54.945503"
       gradientTransform="matrix(1.004923,0.000000,0.000000,0.995101,3.428025e-3,0.000000)"
       gradientUnits="userSpaceOnUse" />
    <linearGradient
       xlink:href="#linearGradient584"
       id="linearGradient583"
       x1="5.6419068"
       y1="7.0877365"
       x2="31.026884"
       y2="31.653275"
       gradientTransform="matrix(1.018149,0.000000,0.000000,0.982174,3.428025e-3,0.000000)"
       gradientUnits="userSpaceOnUse" />
    <linearGradient
       xlink:href="#linearGradient584"
       id="linearGradient654"
       x1="12.764038"
       y1="71.063230"
       x2="18.799539"
       y2="76.498549"
       gradientTransform="matrix(2.739812,0.000000,0.000000,0.364989,3.428025e-3,0.000000)"
       gradientUnits="userSpaceOnUse" />
    <linearGradient
       xlink:href="#linearGradient584"
       id="linearGradient655"
       x1="75.105856"
       y1="11.977734"
       x2="81.053071"
       y2="17.786642"
       gradientTransform="matrix(0.346784,0.000000,0.000000,2.883641,3.428025e-3,0.000000)"
       gradientUnits="userSpaceOnUse" />
  </defs>
  <sodipodi:namedview
     id="base"
     pagecolor="#ffffff"
     bordercolor="#666666"
     borderopacity="1.0"
     inkscape:pageopacity="0.0"
     inkscape:pageshadow="2"
     inkscape:zoom="5.6423388"
     inkscape:cx="26.389876"
     inkscape:cy="25.238042"
     inkscape:window-width="895"
     inkscape:window-height="516"
     inkscape:window-x="131"
     inkscape:window-y="62"
     inkscape:current-layer="svg1" />
  <path
     style="font-size:12.000000px;opacity:0.29636899;fill:#000000;fill-opacity:1.0000000;fill-rule:evenodd;stroke:none;stroke-width:18.750000;stroke-dasharray:none"
     d="M 26.214701,5.6161300 C 24.862640,7.6272273 27.437840,24.157993 26.025476,25.673828 C 24.805699,27.185504 7.3903680,24.531651 5.4001088,25.673828 C 3.2715916,27.097716 2.9428637,34.778388 5.2108844,35.891900 C 7.3620803,37.040960 24.739171,34.259840 26.025477,35.891902 C 27.374444,37.174153 24.301533,54.098830 25.836254,56.517267 C 27.267195,58.681729 34.967618,58.543901 36.432776,56.328044 C 37.888145,53.937769 35.574191,37.514112 36.811221,36.081125 C 38.094822,34.783413 55.157922,37.438471 56.679698,36.081125 C 58.740396,34.446357 59.049297,26.897459 56.868920,25.484605 C 54.940161,24.112184 38.083482,26.662550 36.621998,25.484605 C 35.068075,24.268870 37.784837,7.3544337 36.432776,5.4269069 C 35.074370,3.3002269 27.555640,3.4339106 26.214701,5.6161300 z "
     id="path656"
     sodipodi:nodetypes="cssssssssssss" />
  <path
     style="font-size:12.000000px;fill:url(#linearGradient581);fill-rule:evenodd;stroke:#261933;stroke-width:1.8800200"
     d="M 24.903748,6.2618499 C 23.669725,8.0973718 26.020105,23.184953 24.731045,24.568452 C 23.617753,25.948154 7.7228336,23.525989 5.9063293,24.568452 C 3.9636392,25.868031 3.6636097,32.878157 5.7336256,33.894456 C 7.6970158,34.943198 23.557037,32.404882 24.731046,33.894458 C 25.962242,35.064767 23.157604,50.511868 24.558342,52.719171 C 25.864356,54.694674 32.892511,54.568872 34.229754,52.546469 C 35.558067,50.364870 33.446128,35.375045 34.575162,34.067162 C 35.746701,32.882745 51.320144,35.306006 52.709063,34.067162 C 54.589853,32.575114 54.871790,25.685258 52.881764,24.395749 C 51.121395,23.143143 35.736352,25.470855 34.402457,24.395749 C 32.984198,23.286149 35.463777,7.8483950 34.229754,6.0891460 C 32.989944,4.1481306 26.127620,4.2701438 24.903748,6.2618499 z "
     id="path650"
     sodipodi:nodetypes="cssssssssssss" />
  <path
     style="fill:url(#linearGradient583);fill-opacity:1.0000000;fill-rule:evenodd;stroke:none;stroke-width:1.0000000pt;stroke-linecap:butt;stroke-linejoin:miter;stroke-opacity:1.0000000"
     d="M 6.4915301,32.052079 C 6.1385307,31.634897 5.6754695,27.032353 7.1504451,26.616028 C 12.484258,25.110517 22.675079,28.904362 26.094251,25.627657 C 29.264230,22.589759 25.376430,12.676392 26.753167,7.8369516 C 27.188446,6.3068811 32.058979,6.7355923 32.353944,7.1780376 C 32.608077,7.5592353 28.377631,8.4452529 28.070995,9.9784262 C 27.004890,15.308951 30.505905,24.007655 27.412081,26.945487 C 23.971664,30.212437 14.501383,27.404433 8.4682757,28.592773 C 7.2533171,28.832085 6.7425359,32.348721 6.4915301,32.052079 z "
     id="path651"
     sodipodi:nodetypes="cssssssss" />
  <path
     style="opacity:0.80082798;fill:url(#linearGradient655);fill-opacity:1.0000000;fill-rule:evenodd;stroke:none;stroke-width:1.0000000pt;stroke-linecap:butt;stroke-linejoin:miter;stroke-opacity:1.0000000"
     d="M 26.258981,51.490070 C 25.986586,50.094049 26.449003,36.945617 26.917893,34.523008 C 27.107917,33.541222 28.323169,39.025195 28.235724,41.276886 C 28.103530,44.680884 26.425861,52.345342 26.258981,51.490070 z "
     id="path652"
     sodipodi:nodetypes="csss" />
  <path
     style="opacity:0.80082798;fill:url(#linearGradient654);fill-opacity:1.0000000;fill-rule:evenodd;stroke:none;stroke-width:1.0000000pt;stroke-linecap:butt;stroke-linejoin:miter;stroke-opacity:1.0000000"
     d="M 34.989604,26.780759 C 38.387067,25.996728 51.018496,25.647739 51.791936,25.957113 C 52.391234,26.196835 43.339970,27.769878 39.107820,28.098589 C 37.684283,28.209155 34.104120,26.985100 34.989604,26.780759 z "
     id="path653"
     sodipodi:nodetypes="csss" />
</svg>
