<?xml version="1.0" encoding="UTF-8" standalone="no"?>
<!DOCTYPE svg PUBLIC "-//W3C//DTD SVG 20010904//EN"
"http://www.w3.org/TR/2001/REC-SVG-20010904/DTD/svg10.dtd">
<!-- Created with Inkscape (http://www.inkscape.org/) -->
<svg
   id="svg1"
   sodipodi:version="0.32"
   inkscape:version="0.37"
   width="48pt"
   height="48pt"
   sodipodi:docbase="/home/tom"
   sodipodi:docname="appointment.svg"
   xmlns="http://www.w3.org/2000/svg"
   xmlns:inkscape="http://www.inkscape.org/namespaces/inkscape"
   xmlns:sodipodi="http://sodipodi.sourceforge.net/DTD/sodipodi-0.dtd"
   xmlns:xlink="http://www.w3.org/1999/xlink">
  <defs
     id="defs3">
    <linearGradient
       id="linearGradient674">
      <stop
         style="stop-color:#d9cce6;stop-opacity:1;"
         offset="0.00000000"
         id="stop675" />
      <stop
         style="stop-color:#73667f;stop-opacity:1;"
         offset="1.00000000"
         id="stop676" />
    </linearGradient>
    <linearGradient
       id="linearGradient866">
      <stop
         style="stop-color:#ffffff;stop-opacity:1;"
         offset="0.00000000"
         id="stop867" />
      <stop
         style="stop-color:#d9cce6;stop-opacity:1;"
         offset="1.00000000"
         id="stop868" />
    </linearGradient>
    <linearGradient
       id="linearGradient584">
      <stop
         style="stop-color:#ffffff;stop-opacity:1;"
         offset="0.00000000"
         id="stop585" />
      <stop
         style="stop-color:#ffffff;stop-opacity:0;"
         offset="1.00000000"
         id="stop586" />
    </linearGradient>
    <linearGradient
       xlink:href="#linearGradient866"
       id="linearGradient586"
       x1="-0.00000000"
       y1="0.01562500"
       x2="0.99122804"
       y2="0.98437500" />
    <linearGradient
       xlink:href="#linearGradient584"
       id="linearGradient587"
       x1="0.00000000"
       y1="-0.00000000"
       x2="1.00000000"
       y2="1.00000000" />
    <linearGradient
       xlink:href="#linearGradient866"
       id="linearGradient651"
       x1="0.00000000"
       y1="-0.00000000"
       x2="1.00000000"
       y2="1.00000000" />
    <linearGradient
       xlink:href="#linearGradient674"
       id="linearGradient652"
       x1="0.00000000"
       y1="0.00000000"
       x2="1.00000000"
       y2="0.00000000" />
    <linearGradient
       xlink:href="#linearGradient584"
       id="linearGradient653"
       x1="-0.00000000"
       y1="-0.00000000"
       x2="1.00000000"
       y2="-0.00000000" />
    <linearGradient
       xlink:href="#linearGradient584"
       id="linearGradient654"
       x1="-0.00000000"
       y1="-0.00000000"
       x2="1.00000000"
       y2="-0.00000000" />
    <linearGradient
       xlink:href="#linearGradient674"
       id="linearGradient678"
       x1="0.00000000"
       y1="-0.00000000"
       x2="1.00000000"
       y2="-0.00000000" />
    <linearGradient
       xlink:href="#linearGradient674"
       id="linearGradient677" />
  </defs>
  <sodipodi:namedview
     id="base"
     pagecolor="#ffffff"
     bordercolor="#666666"
     borderopacity="1.0"
     inkscape:pageopacity="0.0"
     inkscape:pageshadow="2"
     inkscape:zoom="6.97560976"
     inkscape:cx="21.5000010"
     inkscape:cy="23.0000002"
     inkscape:window-width="1018"
     inkscape:window-height="711"
     inkscape:window-x="0"
     inkscape:window-y="30" />
  <path
     d="M 4.4389304 48.086315 C 5.2483181 50.50443 38.765774 61.377487 40.966438 59.55288 C 42.936267 57.902492 57.675565 8.7785888 56.688667 6.8303779 C 55.662821 4.6824777 21.657054 -0.6675724 20.042945 0.80153134 C 18.054709 2.621752 3.5888672 45.311841 4.4389304 48.086315 z "
     style="font-size:12;opacity:0.302675;fill-rule:evenodd;stroke-width:12.5;"
     id="path639" />
  <path
     d="M 4.5541516 46.08493 C 5.3114351 48.34726 36.66955 58.519843 38.728432 56.812781 C 40.571358 55.268717 54.36111 9.3095333 53.437795 7.4867937 C 52.478034 5.477268 20.663028 0.47192513 19.152904 1.8463842 C 17.292759 3.5493405 3.7588508 43.489198 4.5541516 46.08493 z "
     style="font-size:12;fill:url(#linearGradient586);fill-rule:evenodd;stroke:#261933;stroke-width:1.87726;"
     id="path634" />
  <path
     d="M 6.6876568 43.965773 C 6.360392 43.13667 19.363758 4.5872629 20.579427 3.7922731 C 22.09876 2.7554118 46.659814 7.3454032 46.98631 8.172561 C 47.28557 8.9306762 27.823671 5.3906629 23.493845 9.2635774 C 15.189619 16.482895 6.9861475 44.721984 6.6876568 43.965773 z "
     style="font-size:12;opacity:0.699936;fill:url(#linearGradient587);fill-rule:evenodd;stroke:none;stroke-width:0.100121pt;"
     id="path640" />
  <g
     transform="matrix(0.584182,0.000000,0.000000,0.577940,2.215905,6.407519)"
     style="font-size:12;opacity:0.3;stroke:#000000;"
     id="g677">
    <ellipse
       cx="47.59568024"
       cy="41.55554962"
       rx="28.88131142"
       ry="28.88131142"
       transform="matrix(0.917566,0.000000,0.000000,0.917566,-11.48724,-5.833475)"
       style="fill-rule:evenodd;stroke-width:2.05418;"
       id="path675" />
    <ellipse
       cx="42.10733032"
       cy="34.26774216"
       rx="21.77344894"
       ry="21.77344894"
       transform="matrix(0.934849,0.000000,0.000000,0.934849,-7.035911,0.205833)"
       style="fill-rule:evenodd;stroke-width:1pt;"
       id="path676" />
  </g>
  <ellipse
     cx="47.59568024"
     cy="41.55554962"
     rx="28.88131142"
     ry="28.88131142"
     transform="matrix(0.536025,0.000000,0.000000,0.530298,-5.092245,2.050929)"
     style="font-size:12;fill:url(#linearGradient652);fill-opacity:0.75;fill-rule:evenodd;stroke:#261933;stroke-width:2.04345;stroke-dasharray:none;"
     id="path594" />
  <ellipse
     cx="42.10733032"
     cy="34.26774216"
     rx="21.77344894"
     ry="21.77344894"
     transform="matrix(0.546122,0.000000,0.000000,0.540287,-2.491855,5.541289)"
     style="font-size:12;fill:url(#linearGradient651);fill-opacity:0.75;fill-rule:evenodd;stroke-width:1pt;stroke:none;stroke-opacity:1;"
     id="path623" />
  <path
     d="M 20.031581 24.958629 C 19.713613 24.798403 19.184179 23.994777 19.427096 23.664348 L 23.264023 18.445162 L 21.253014 24.584445 C 21.136626 24.939757 20.322252 25.105102 20.031581 24.958629 z "
     style="font-size:12;fill:url(#linearGradient678);fill-opacity:0.75;fill-rule:evenodd;stroke:#261933;stroke-width:0.944377;"
     id="path666" />
  <path
     d="M 21.317181 24.659292 C 21.112227 24.94828 20.102726 25.263256 19.695626 24.90228 L 13.265391 19.200592 L 20.872565 23.242778 C 21.312831 23.47672 21.504539 24.395112 21.317181 24.659292 z "
     style="font-size:12;fill:url(#linearGradient677);fill-opacity:0.75;fill-rule:evenodd;stroke:#261933;stroke-width:1.08948;"
     id="path667" />
  <path
     d="M 32.762113 28.426302 C 31.998183 30.240146 30.649313 32.182018 29.203095 33.521068 C 27.845238 34.778303 26.25522 35.592762 24.457737 36.241833 C 26.452944 36.170702 28.720063 35.510619 30.119812 34.214596 C 31.524139 32.914334 32.654264 30.631366 32.762113 28.426302 z "
     style="font-size:12;fill:url(#linearGradient654);fill-opacity:0.75;fill-rule:evenodd;stroke-width:1pt;"
     id="path668" />
  <path
     d="M 7.1950722 25.1895 C 7.3057202 21.226837 9.1423312 16.56345 11.709515 14.089663 C 14.254274 11.637488 19.05655 10.586757 23.526734 11.002727 C 19.808958 12.239691 15.787985 13.637603 13.103681 16.224247 C 10.676042 18.563566 8.3236832 21.894579 7.1950722 25.1895 z "
     style="font-size:12;fill:url(#linearGradient653);fill-opacity:0.75;fill-rule:evenodd;stroke-width:1pt;"
     id="path593" />
</svg>
