<?xml version="1.0" encoding="UTF-8" standalone="no"?>
<!DOCTYPE svg PUBLIC "-//W3C//DTD SVG 20010904//EN"
"http://www.w3.org/TR/2001/REC-SVG-20010904/DTD/svg10.dtd">
<!-- Created with Inkscape (http://www.inkscape.org/) -->
<svg
   version="1.0"
   x="0"
   y="0"
   width="48pt"
   height="48pt"
   id="svg1"
   sodipodi:version="0.32"
   inkscape:version="0.37"
   sodipodi:docname="ark_delete.svg"
   sodipodi:docbase="/home/tom"
   xmlns="http://www.w3.org/2000/svg"
   xmlns:inkscape="http://www.inkscape.org/namespaces/inkscape"
   xmlns:sodipodi="http://sodipodi.sourceforge.net/DTD/sodipodi-0.dtd"
   xmlns:xlink="http://www.w3.org/1999/xlink">
  <sodipodi:namedview
     id="base"
     pagecolor="#ffffff"
     bordercolor="#666666"
     borderopacity="1.0"
     inkscape:pageopacity="0.0"
     inkscape:pageshadow="2"
     inkscape:zoom="2"
     inkscape:cx="3.44714355"
     inkscape:cy="41.8076935"
     inkscape:window-width="1018"
     inkscape:window-height="711"
     inkscape:window-x="0"
     inkscape:window-y="30" />
  <defs
     id="defs3">
    <linearGradient
       id="linearGradient653">
      <stop
         style="stop-color:#f50000;stop-opacity:1;"
         offset="0.00000000"
         id="stop654" />
      <stop
         style="stop-color:#a80000;stop-opacity:1;"
         offset="1.00000000"
         id="stop655" />
    </linearGradient>
    <linearGradient
       id="linearGradient620">
      <stop
         style="stop-color:#ffffff;stop-opacity:1;"
         offset="0.00000000"
         id="stop621" />
      <stop
         style="stop-color:#d9cce6;stop-opacity:1;"
         offset="1.00000000"
         id="stop622" />
    </linearGradient>
    <linearGradient
       id="linearGradient745">
      <stop
         style="stop-color:#d9cce6;stop-opacity:1;"
         offset="0.000000"
         id="stop746" />
      <stop
         style="stop-color:#73667f;stop-opacity:1;"
         offset="1.000000"
         id="stop747" />
    </linearGradient>
    <linearGradient
       id="linearGradient570">
      <stop
         style="stop-color:#ffffff;stop-opacity:1;"
         offset="0"
         id="stop571" />
      <stop
         style="stop-color:#ffffff;stop-opacity:0;"
         offset="1"
         id="stop572" />
    </linearGradient>
    <linearGradient
       id="linearGradient563">
      <stop
         style="stop-color:#d9cce6;stop-opacity:1;"
         offset="0.000000"
         id="stop564" />
      <stop
         style="stop-color:#73667f;stop-opacity:1;"
         offset="1.000000"
         id="stop565" />
    </linearGradient>
    <linearGradient
       x1="0.01973684"
       y1="0.00000000"
       x2="0.98026317"
       y2="0.96875000"
       id="linearGradient566"
       xlink:href="#linearGradient563" />
    <linearGradient
       x1="0.007275"
       y1="0.062497"
       x2="1.003636"
       y2="0.968750"
       id="linearGradient569"
       xlink:href="#linearGradient570" />
    <linearGradient
       x1="0.017699"
       y1="0.007811"
       x2="0.982301"
       y2="0.992187"
       id="linearGradient573"
       xlink:href="#linearGradient570" />
    <linearGradient
       x1="0.040005"
       y1="0.015624"
       x2="1.000000"
       y2="0.984375"
       id="linearGradient575"
       xlink:href="#linearGradient570" />
    <linearGradient
       id="linearGradient578"
       xlink:href="#linearGradient653"
       x1="-0.00000000"
       y1="-0.00000000"
       x2="1.00000000"
       y2="-0.00000000" />
    <linearGradient
       xlink:href="#linearGradient570"
       id="linearGradient749"
       x1="0.01666118"
       y1="0.02343415"
       x2="0.95833319"
       y2="0.98437482"
       gradientUnits="objectBoundingBox"
       spreadMethod="pad" />
    <linearGradient
       xlink:href="#linearGradient570"
       id="linearGradient750"
       x1="0.00000000"
       y1="-0.00000000"
       x2="1.00000000"
       y2="-0.00000000" />
    <linearGradient
       xlink:href="#linearGradient620"
       id="linearGradient618"
       x1="0.28346458"
       y1="0.13380282"
       x2="1.03937006"
       y2="1.00704229" />
    <linearGradient
       xlink:href="#linearGradient570"
       id="linearGradient619"
       x1="0.00000000"
       y1="-0.00000000"
       x2="1.00000000"
       y2="-0.00000000" />
    <linearGradient
       xlink:href="#linearGradient570"
       id="linearGradient656"
       x1="-0.00000000"
       y1="-0.00000000"
       x2="1.00000000"
       y2="-0.00000000" />
    <linearGradient
       xlink:href="#linearGradient570"
       id="linearGradient657"
       x1="-0.00000000"
       y1="-0.00000000"
       x2="1.00000000"
       y2="-0.00000000" />
  </defs>
  <path
     d="M 2.2351526 49.815281 C 3.2022826 50.791304 24.802428 56.240386 26.179053 55.940549 C 27.380167 55.790283 44.748243 47.947492 45.445575 47.142547 C 46.416258 45.867146 46.227684 23.085431 45.334226 22.084895 C 44.340614 20.813744 22.843642 18.263822 21.390238 18.298389 C 20.068087 18.431154 2.6093686 22.219172 1.9010876 23.198565 C 1.3808566 23.999781 1.2650296 48.948576 2.2351526 49.815281 z "
     style="font-size:12;opacity:0.302675;fill-rule:evenodd;stroke-width:12.5;"
     id="path1168" />
  <path
     d="M 1.9769246 47.83865 C 2.9027316 48.772977 23.579954 53.989238 24.89776 53.702217 C 26.047554 53.558362 42.673547 46.050668 43.341084 45.280115 C 44.270293 44.059201 44.089776 22.250887 43.234492 21.293099 C 42.283333 20.07626 21.70486 17.635297 20.313555 17.66838 C 19.047897 17.795485 2.3351496 21.42163 1.6571076 22.359182 C 1.1591036 23.126162 1.0482246 47.008975 1.9769246 47.83865 z "
     style="font-size:12;fill:url(#linearGradient566);fill-rule:evenodd;stroke:#261933;stroke-width:1.50674;"
     id="path1164" />
  <path
     d="M 2.8298026 46.985844 C 2.4495436 46.415448 1.9519066 24.002128 2.7231946 23.31867 C 3.2518126 22.862446 22.814757 26.164238 23.192039 26.730198 C 23.525425 27.230322 8.1200876 23.401875 4.8553916 26.516935 C 2.2265596 29.02035 3.1602786 47.481532 2.8298026 46.985844 z "
     style="font-size:12;opacity:0.990000;fill:url(#linearGradient573);fill-rule:evenodd;stroke:none;stroke-width:0.105861pt;"
     id="path1165" />
  <path
     d="M 25.430889 51.570037 C 25.13808 51.31381 24.653696 27.461199 25.21762 26.836794 C 25.827225 26.150368 41.233751 22.847308 41.528771 23.105494 C 41.802269 23.344797 28.252205 25.8819 26.923341 28.329331 C 24.86637 31.989091 25.706596 51.811298 25.430889 51.570037 z "
     style="font-size:12;opacity:0.990000;fill:url(#linearGradient575);fill-rule:evenodd;stroke:none;stroke-width:0.105861pt;"
     id="path1166" />
  <path
     d="M 6.2412526 22.145992 C 6.2412526 21.931115 19.058361 18.864118 20.740093 18.841145 C 22.112597 18.820981 35.87848 20.54611 35.87848 20.76005 C 35.87848 20.972477 25.764528 19.885452 20.740093 20.120419 C 15.885453 20.347466 6.2412526 22.357569 6.2412526 22.145992 z "
     style="font-size:12;opacity:0.990000;fill:url(#linearGradient569);fill-rule:evenodd;stroke:none;stroke-width:0.105861pt;"
     id="path1167" />
  <path
     style="fill:url(#linearGradient749);fill-rule:evenodd;stroke:none;stroke-opacity:1;stroke-width:1pt;stroke-linejoin:miter;stroke-linecap:butt;fill-opacity:1;"
     d="M 35.049937 35.331687 C 32.898629 31.891099 26.395399 27.404791 26.297291 27.415692 C 26.202326 27.426243 31.763728 32.48433 34.020214 35.267329 C 34.338036 35.659308 33.931943 36.950437 34.020214 36.940629 C 34.125015 36.928985 35.345266 35.818571 35.049937 35.331687 z "
     id="path665"
     sodipodi:nodetypes="cssss" />
  <path
     d="M 23.301239 34.113871 C 23.849878 35.752978 46.569516 43.123224 48.061225 41.886424 C 49.396464 40.767717 59.387423 7.4693289 58.718458 6.1487439 C 58.023094 4.6928009 34.972458 1.0662959 33.878342 2.0621209 C 32.530626 3.2959489 22.725028 32.233208 23.301239 34.113871 z "
     style="font-size:12;opacity:0.302675;fill-rule:evenodd;stroke-width:12.5;"
     id="path639" />
  <path
     d="M 23.379341 32.757242 C 23.892662 34.290751 45.148602 41.186185 46.544204 40.029062 C 47.793422 38.982426 57.140736 7.8292269 56.514871 6.5936929 C 55.864302 5.2315459 34.298662 1.8386989 33.275032 2.7703689 C 32.014142 3.9247089 22.840251 30.997739 23.379341 32.757242 z "
     style="font-size:12;fill:url(#linearGradient618);fill-rule:evenodd;stroke:#261933;stroke-width:1.27249;"
     id="path634" />
  <path
     d="M 24.825527 31.320782 C 24.603692 30.758779 33.417959 4.6282599 34.241994 4.0893799 C 35.271866 3.3865489 51.920451 6.4978509 52.141765 7.0585359 C 52.344617 7.5724209 39.152467 5.1728409 36.217517 7.7980769 C 30.588539 12.691654 25.027857 31.833376 24.825527 31.320782 z "
     style="font-size:12;opacity:0.699936;fill:url(#linearGradient619);fill-rule:evenodd;stroke:none;stroke-width:0.100121pt;"
     id="path640" />
  <g
     id="g658"
     transform="matrix(0.722827,0.000000,0.000000,0.722827,42.87975,20.93655)">
    <path
       style="fill:#000000;fill-rule:evenodd;stroke:none;stroke-opacity:1;stroke-width:18.75;stroke-linejoin:miter;stroke-linecap:butt;fill-opacity:1;stroke-dasharray:none;opacity:0.300000;"
       d="M -21.157575 11.043975 C -20.478322 12.288975 -5.8449334 6.6325935 -4.2571404 6.9925715 C -2.9669084 7.3668915 5.6328876 19.79122 6.7429366 19.138439 C 7.8711896 18.47496 2.0929906 4.2963565 2.4577596 3.0437985 C 2.8139436 1.8211185 15.466923 -7.3080225 14.879683 -8.5314055 C 14.309833 -9.7185475 0.17112961 -3.8426285 -1.0135094 -4.1877805 C -2.2943124 -4.6722015 -11.70631 -17.419168 -12.890887 -16.697372 C -14.094036 -15.964258 -7.7477174 -1.3140675 -8.1766924 0.17694747 C -8.6602204 1.4782585 -21.779397 9.7488555 -21.157575 11.043975 z "
       id="path601"
       sodipodi:nodetypes="cssssssss" />
    <path
       style="font-size:12;fill:url(#linearGradient578);fill-rule:evenodd;stroke:#261933;stroke-width:1.875;stroke-dasharray:none;stroke-opacity:1;"
       d="M -19.454846 8.7801345 C -18.858852 9.8725275 -6.0191454 4.9094755 -4.6259774 5.2253305 C -3.4938964 5.5537675 4.0517856 16.455187 5.0257736 15.882423 C 6.0157256 15.300267 0.94579261 2.8596025 1.2658456 1.7605735 C 1.5783726 0.68776447 12.680422 -7.3223725 12.165167 -8.3957975 C 11.665164 -9.4374285 -0.74049639 -4.2817505 -1.7799334 -4.5845965 C -2.9037404 -5.0096375 -11.162065 -16.194149 -12.201442 -15.560826 C -13.257117 -14.917574 -7.6886964 -2.0631255 -8.0650914 -0.75487253 C -8.4893494 0.38693047 -20.000446 7.6437625 -19.454846 8.7801345 z "
       id="path589"
       sodipodi:nodetypes="cssssssss" />
    <path
       style="font-size:12;fill:url(#linearGradient656);fill-rule:evenodd;stroke:none;stroke-width:1pt;"
       d="M -16.538761 7.4274195 C -16.284471 7.0529195 -7.8808034 0.97295447 -5.2847824 -0.46912553 C -4.7854964 -0.74647553 -6.3030444 2.1823725 -6.9762424 2.6368195 C -9.8623154 4.5850955 -16.748432 7.7362075 -16.538761 7.4274195 z "
       id="path596"
       sodipodi:nodetypes="csss" />
    <path
       style="fill:url(#linearGradient657);fill-rule:evenodd;stroke:none;stroke-opacity:1;stroke-width:1pt;stroke-linejoin:miter;stroke-linecap:butt;fill-opacity:1;opacity:0.750382;"
       d="M -7.6734264 -4.4347475 C -8.0549294 -5.1001705 -10.761029 -12.251577 -10.372715 -12.311181 C -9.9230874 -12.380195 -4.6638124 -5.7825095 -4.2987424 -5.1457455 C -4.1132144 -4.8221425 -8.6917824 -9.8814085 -8.8834864 -9.8605115 C -8.9949154 -9.8434085 -7.5043294 -4.1398025 -7.6734264 -4.4347475 z "
       id="path597"
       sodipodi:nodetypes="cssss" />
    <path
       style="fill:url(#linearGradient750);fill-rule:evenodd;stroke:none;stroke-opacity:1;stroke-width:1pt;stroke-linejoin:miter;stroke-linecap:butt;fill-opacity:1;"
       d="M -2.6327414 -2.4038275 C -0.30243539 -3.6247975 8.5868426 -6.5544685 8.9924886 -6.4021785 C 9.3356846 -6.2733355 3.8055636 -3.0830745 0.94851161 -2.1245585 C 0.23190961 -1.8841455 -3.1272394 -2.1447335 -2.6327414 -2.4038275 z "
       id="path598"
       sodipodi:nodetypes="csss" />
  </g>
</svg>
