<?xml version="1.0" encoding="UTF-8" standalone="no"?>
<!DOCTYPE svg PUBLIC "-//W3C//DTD SVG 20010904//EN"
"http://www.w3.org/TR/2001/REC-SVG-20010904/DTD/svg10.dtd">
<!-- Created with Inkscape (http://www.inkscape.org/) -->
<svg
   version="1.0"
   x="0"
   y="0"
   width="48pt"
   height="48pt"
   id="svg1"
   sodipodi:version="0.32"
   inkscape:version="0.37"
   sodipodi:docname="ark_addfile.svg"
   sodipodi:docbase="/home/tom/Pics/lilasvg/scalable/actions"
   xmlns="http://www.w3.org/2000/svg"
   xmlns:inkscape="http://www.inkscape.org/namespaces/inkscape"
   xmlns:sodipodi="http://sodipodi.sourceforge.net/DTD/sodipodi-0.dtd"
   xmlns:xlink="http://www.w3.org/1999/xlink">
  <sodipodi:namedview
     id="base"
     pagecolor="#ffffff"
     bordercolor="#666666"
     borderopacity="1.0"
     inkscape:pageopacity="0.0"
     inkscape:pageshadow="2"
     inkscape:zoom="2"
     inkscape:cx="28.8700562"
     inkscape:cy="35.4115906"
     inkscape:window-width="1018"
     inkscape:window-height="711"
     inkscape:window-x="0"
     inkscape:window-y="30" />
  <defs
     id="defs3">
    <linearGradient
       id="linearGradient620">
      <stop
         style="stop-color:#ffffff;stop-opacity:1;"
         offset="0.00000000"
         id="stop621" />
      <stop
         style="stop-color:#d9cce6;stop-opacity:1;"
         offset="1.00000000"
         id="stop622" />
    </linearGradient>
    <linearGradient
       id="linearGradient745">
      <stop
         style="stop-color:#d9cce6;stop-opacity:1;"
         offset="0.000000"
         id="stop746" />
      <stop
         style="stop-color:#73667f;stop-opacity:1;"
         offset="1.000000"
         id="stop747" />
    </linearGradient>
    <linearGradient
       id="linearGradient570">
      <stop
         style="stop-color:#ffffff;stop-opacity:1;"
         offset="0"
         id="stop571" />
      <stop
         style="stop-color:#ffffff;stop-opacity:0;"
         offset="1"
         id="stop572" />
    </linearGradient>
    <linearGradient
       id="linearGradient563">
      <stop
         style="stop-color:#d9cce6;stop-opacity:1;"
         offset="0.000000"
         id="stop564" />
      <stop
         style="stop-color:#73667f;stop-opacity:1;"
         offset="1.000000"
         id="stop565" />
    </linearGradient>
    <linearGradient
       x1="0.01973684"
       y1="0.00000000"
       x2="0.98026317"
       y2="0.96875000"
       id="linearGradient566"
       xlink:href="#linearGradient563" />
    <linearGradient
       x1="0.007275"
       y1="0.062497"
       x2="1.003636"
       y2="0.968750"
       id="linearGradient569"
       xlink:href="#linearGradient570" />
    <linearGradient
       x1="0.017699"
       y1="0.007811"
       x2="0.982301"
       y2="0.992187"
       id="linearGradient573"
       xlink:href="#linearGradient570" />
    <linearGradient
       x1="0.040005"
       y1="0.015624"
       x2="1.000000"
       y2="0.984375"
       id="linearGradient575"
       xlink:href="#linearGradient570" />
    <linearGradient
       id="linearGradient578"
       xlink:href="#linearGradient745"
       x1="0.00780697"
       y1="0.01561788"
       x2="0.99218708"
       y2="0.99218744"
       gradientUnits="objectBoundingBox"
       spreadMethod="pad" />
    <linearGradient
       xlink:href="#linearGradient570"
       id="linearGradient749"
       x1="0.01666118"
       y1="0.02343415"
       x2="0.95833319"
       y2="0.98437482"
       gradientUnits="objectBoundingBox"
       spreadMethod="pad" />
    <linearGradient
       xlink:href="#linearGradient570"
       id="linearGradient750"
       x1="0.01135486"
       y1="-0.64677995"
       x2="0.98863626"
       y2="0.52941400"
       gradientUnits="objectBoundingBox"
       gradientTransform="translate(-7.958619e-8,1.222231e-6)"
       spreadMethod="pad" />
    <linearGradient
       xlink:href="#linearGradient620"
       id="linearGradient618"
       x1="0.28346458"
       y1="0.13380282"
       x2="1.03937006"
       y2="1.00704229" />
    <linearGradient
       xlink:href="#linearGradient570"
       id="linearGradient619"
       x1="0.00000000"
       y1="-0.00000000"
       x2="1.00000000"
       y2="-0.00000000" />
  </defs>
  <path
     d="M 15.051463 49.373339 C 16.018593 50.349362 37.618738 55.798444 38.995363 55.498607 C 40.196477 55.348341 57.564553 47.50555 58.261885 46.700605 C 59.232568 45.425204 59.043994 22.643489 58.150536 21.642953 C 57.156924 20.371802 35.659952 17.82188 34.206548 17.856447 C 32.884397 17.989212 15.425679 21.77723 14.717398 22.756623 C 14.197167 23.557839 14.08134 48.506634 15.051463 49.373339 z "
     style="font-size:12;opacity:0.302675;fill-rule:evenodd;stroke-width:12.5;"
     id="path1168" />
  <path
     d="M 14.793235 47.396708 C 15.719042 48.331035 36.396264 53.547296 37.71407 53.260275 C 38.863864 53.11642 55.489857 45.608726 56.157394 44.838173 C 57.086603 43.617259 56.906086 21.808945 56.050802 20.851157 C 55.099643 19.634318 34.52117 17.193355 33.129865 17.226438 C 31.864207 17.353543 15.15146 20.979688 14.473418 21.91724 C 13.975414 22.68422 13.864535 46.567033 14.793235 47.396708 z "
     style="font-size:12;fill:url(#linearGradient566);fill-rule:evenodd;stroke:#261933;stroke-width:1.50674;"
     id="path1164" />
  <path
     d="M 15.646113 46.543902 C 15.265854 45.973506 14.768217 23.560186 15.539505 22.876728 C 16.068123 22.420504 35.631067 25.722296 36.008349 26.288256 C 36.341735 26.78838 20.936398 22.959933 17.671702 26.074993 C 15.04287 28.578408 15.976589 47.03959 15.646113 46.543902 z "
     style="font-size:12;opacity:0.990000;fill:url(#linearGradient573);fill-rule:evenodd;stroke:none;stroke-width:0.105861pt;"
     id="path1165" />
  <path
     d="M 38.247199 51.128095 C 37.95439 50.871868 37.470006 27.019257 38.03393 26.394852 C 38.643535 25.708426 54.050061 22.405366 54.345081 22.663552 C 54.618579 22.902855 41.068515 25.439958 39.739651 27.887389 C 37.68268 31.547149 38.522906 51.369356 38.247199 51.128095 z "
     style="font-size:12;opacity:0.990000;fill:url(#linearGradient575);fill-rule:evenodd;stroke:none;stroke-width:0.105861pt;"
     id="path1166" />
  <path
     d="M 19.057563 21.70405 C 19.057563 21.489173 31.874671 18.422176 33.556403 18.399203 C 34.928907 18.379039 48.69479 20.104168 48.69479 20.318108 C 48.69479 20.530535 38.580838 19.44351 33.556403 19.678477 C 28.701763 19.905524 19.057563 21.915627 19.057563 21.70405 z "
     style="font-size:12;opacity:0.990000;fill:url(#linearGradient569);fill-rule:evenodd;stroke:none;stroke-width:0.105861pt;"
     id="path1167" />
  <path
     style="fill:url(#linearGradient749);fill-rule:evenodd;stroke:none;stroke-opacity:1;stroke-width:1pt;stroke-linejoin:miter;stroke-linecap:butt;fill-opacity:1;"
     d="M 13.836733 34.889746 C 11.685425 31.449158 5.1821957 26.96285 5.0840877 26.973751 C 4.9891227 26.984302 10.550524 32.042389 12.80701 34.825388 C 13.124832 35.217367 12.718739 36.508496 12.80701 36.498688 C 12.911811 36.487044 14.132062 35.37663 13.836733 34.889746 z "
     id="path665"
     sodipodi:nodetypes="cssss" />
  <path
     d="M 2.0880357 33.67193 C 2.6366747 35.311037 25.356312 42.681283 26.848021 41.444483 C 28.18326 40.325776 38.174219 7.0273871 37.505254 5.7068021 C 36.80989 4.2508591 13.759254 0.62435413 12.665138 1.6201791 C 11.317422 2.8540071 1.5118247 31.791267 2.0880357 33.67193 z "
     style="font-size:12;opacity:0.302675;fill-rule:evenodd;stroke-width:12.5;"
     id="path639" />
  <path
     d="M 2.1661377 32.315301 C 2.6794587 33.84881 23.935398 40.744244 25.331 39.587121 C 26.580218 38.540485 35.927532 7.3872851 35.301667 6.1517511 C 34.651098 4.7896041 13.085458 1.3967571 12.061828 2.3284271 C 10.800938 3.4827671 1.6270477 30.555798 2.1661377 32.315301 z "
     style="font-size:12;fill:url(#linearGradient618);fill-rule:evenodd;stroke:#261933;stroke-width:1.27249;"
     id="path634" />
  <path
     d="M 3.6123237 30.878841 C 3.3904887 30.316838 12.204755 4.1863181 13.02879 3.6474381 C 14.058662 2.9446071 30.707247 6.0559091 30.928561 6.6165941 C 31.131413 7.1304791 17.939263 4.7308991 15.004313 7.3561351 C 9.3753357 12.249712 3.8146537 31.391435 3.6123237 30.878841 z "
     style="font-size:12;opacity:0.699936;fill:url(#linearGradient619);fill-rule:evenodd;stroke:none;stroke-width:0.100121pt;"
     id="path640" />
  <path
     style="font-size:12;fill:#000000;fill-rule:evenodd;stroke:none;stroke-width:14.8479;fill-opacity:1;opacity:0.302675;"
     d="M 7.9815248 27.147307 C 7.2616415 26.697173 7.5293153 15.793269 7.9815248 15.190941 C 8.5193186 14.50477 17.272653 15.638211 17.988486 15.190941 C 18.609895 14.846843 17.380961 9.4167617 17.988486 9.6026387 C 18.553287 9.7960138 30.149682 18.383716 30.204773 20.779244 C 30.179942 23.034452 18.782707 32.429764 17.988486 32.605649 C 17.288552 32.744581 18.41223 27.292155 17.858525 26.887387 C 17.161337 26.351037 8.7578687 27.690208 7.9815248 27.147307 z "
     id="path617"
     sodipodi:nodetypes="csssssss" />
  <path
     style="font-size:12;fill:url(#linearGradient578);fill-rule:evenodd;stroke:#261933;stroke-width:0.771681;"
     d="M 9.4895926 26.025665 C 8.8450556 25.622642 9.0847124 15.859987 9.4895926 15.320701 C 9.9710976 14.706349 17.808274 15.721158 18.449184 15.320701 C 19.005554 15.012618 17.905245 10.150871 18.449184 10.317293 C 18.95487 10.490429 29.337539 18.033425 29.386864 20.324109 C 29.364585 22.416223 19.160278 30.755238 18.449184 30.912714 C 17.822507 31.037103 18.828577 26.155352 18.332825 25.792949 C 17.708607 25.312736 10.18468 26.511744 9.4895926 26.025665 z "
     id="path589"
     sodipodi:nodetypes="csssssss" />
  <path
     style="fill:#261e2e;fill-rule:evenodd;stroke:none;stroke-opacity:1;stroke-width:1pt;stroke-linejoin:miter;stroke-linecap:butt;fill-opacity:1;opacity:0.201783;"
     d="M 9.1728773 20.554586 C 9.9914496 20.462463 28.691268 19.946878 29.28811 20.503008 C 29.781412 20.911084 21.052371 29.443019 18.559986 30.663779 C 17.68264 31.093499 19.565052 26.189082 18.508408 25.660761 C 16.607941 24.710526 11.867369 26.73354 9.6886526 25.86707 C 9.2256741 25.704866 8.6331579 20.621132 9.1728773 20.554586 z "
     id="path644"
     sodipodi:nodetypes="csssss" />
  <path
     style="fill:url(#linearGradient750);fill-rule:evenodd;stroke:none;stroke-opacity:1;stroke-width:1pt;stroke-linejoin:miter;stroke-linecap:butt;fill-opacity:1;"
     d="M 17.857169 13.6444 C 16.017158 13.656165 9.8363696 13.278302 9.5418226 13.425575 C 9.3014646 13.545754 14.06013 14.389065 16.252453 14.446758 C 16.831913 14.462006 18.254034 13.704792 17.857169 13.6444 z "
     id="path666"
     sodipodi:nodetypes="csss" />
</svg>
