<?xml version="1.0" encoding="UTF-8" standalone="no"?>
<!DOCTYPE svg PUBLIC "-//W3C//DTD SVG 1.0//EN"
"http://www.w3.org/TR/2001/REC-SVG-20010904/DTD/svg10.dtd">
<!-- Created with Inkscape (http://www.inkscape.org/) -->
<svg
   xmlns="http://www.w3.org/2000/svg"
   xmlns:xlink="http://www.w3.org/1999/xlink"
   version="1.0"
   x="0"
   y="0"
   width="60.0000000"
   height="60.0000000"
   id="svg1">
  <defs
     id="defs3">
    <linearGradient
       id="linearGradient584">
      <stop
         style="stop-color:#ffffff;stop-opacity:1;"
         offset="0"
         id="stop585" />
      <stop
         style="stop-color:#ded3e9;stop-opacity:1;"
         offset="1"
         id="stop586" />
    </linearGradient>
    <linearGradient
       id="linearGradient578">
      <stop
         style="stop-color:#d9cce6;stop-opacity:1;"
         offset="0"
         id="stop579" />
      <stop
         style="stop-color:#73667f;stop-opacity:1;"
         offset="1"
         id="stop580" />
    </linearGradient>
    <linearGradient
       x1="-0.00684932"
       y1="0.00775194"
       x2="0.97945207"
       y2="1.00000000"
       id="linearGradient581"
       xlink:href="#linearGradient584" />
    <linearGradient
       x1="0.01094890"
       y1="0.01030928"
       x2="1.01459849"
       y2="0.96907216"
       id="linearGradient583"
       xlink:href="#linearGradient584" />
    <linearGradient
       x1="-0.02500000"
       y1="0.03100775"
       x2="0.97500002"
       y2="0.97674417"
       id="linearGradient860"
       xlink:href="#linearGradient584" />
    <linearGradient
       x1="0.00000000"
       y1="0.02325581"
       x2="0.98611110"
       y2="0.97674417"
       id="linearGradient861"
       xlink:href="#linearGradient578" />
    <linearGradient
       x1="-0.00000000"
       y1="0.00775194"
       x2="1.00000000"
       y2="0.99224806"
       id="linearGradient862"
       xlink:href="#linearGradient578" />
    <linearGradient
       x1="0.00000000"
       y1="-0.00000000"
       x2="1.00000000"
       y2="-0.00000000"
       id="linearGradient656"
       xlink:href="#linearGradient578" />
    <linearGradient
       x1="-0.02500000"
       y1="0.03100775"
       x2="0.97500002"
       y2="0.97674417"
       id="linearGradient657"
       xlink:href="#linearGradient578" />
    <linearGradient
       x1="-0.00000000"
       y1="0.00775194"
       x2="1.00000000"
       y2="0.99224806"
       id="linearGradient658"
       xlink:href="#linearGradient584" />
  </defs>
  <path
     d="M 11.267699 56.622671 C 2.7670491 52.988532 1.5072003 22.031864 3.2623489 8.9840518 C 3.8256059 4.7962807 15.938655 3.472312 19.798169 3.9971948 C 21.406915 4.2160343 21.378639 11.507009 23.210262 11.477541 C 32.2712 11.332006 44.430229 0.76734911 50.900965 4.3909154 C 56.460229 7.5040954 60.504727 30.459332 55.887824 36.543835 C 47.293672 47.869915 20.265076 60.469119 11.267699 56.622671 z "
     style="font-size:12;opacity:0.302675;fill-rule:evenodd;stroke-width:18.75;stroke-linecap:round;stroke-linejoin:round;"
     id="path574" />
  <path
     d="M 12.139826 53.057395 C 4.4358786 49.763875 3.2941018 21.708704 4.8847766 9.8838331 C 5.3952944 6.0885706 16.372984 4.8886949 19.870756 5.3643818 C 21.328716 5.5627101 21.303091 12.170315 22.963041 12.143616 C 31.174718 12.011721 42.194107 2.4372512 48.058362 5.7212004 C 53.096567 8.5425896 56.761979 29.346283 52.577815 34.860499 C 44.789173 45.125018 20.293899 56.543325 12.139826 53.057395 z "
     style="font-size:12;fill:url(#linearGradient862);fill-rule:evenodd;stroke:#261933;stroke-width:1.875;stroke-linecap:round;stroke-linejoin:round;"
     id="path562" />
  <path
     d="M 12.258693 50.559882 C 7.4089087 46.66513 4.939118 20.098282 7.1445784 10.835314 C 7.9124818 7.6100593 18.684985 7.0429585 19.038143 8.218823 C 16.042544 8.3471655 11.54075 11.186964 10.831526 14.165551 C 8.5673316 23.675193 11.592 47.964062 12.258693 50.559882 z "
     style="font-size:12;opacity:0.7;fill:url(#linearGradient860);fill-rule:evenodd;stroke-width:1pt;"
     id="path567" />
  <path
     d="M 24.865895 14.284529 C 35.796025 12.309317 43.904665 5.7889249 46.155401 7.6241632 C 46.764487 8.1484053 38.257583 12.922933 33.072508 14.641453 C 31.319639 15.222337 24.343156 14.377984 24.865895 14.284529 z "
     style="font-size:12;opacity:0.699936;fill:url(#linearGradient583);fill-rule:evenodd;stroke-width:1pt;"
     id="path568" />
  <path
     d="M 12.781217 53.288995 C 10.696831 52.955325 9.6412329 30.343407 14.967781 25.167164 C 23.545752 16.83113 45.392125 11.696557 54.494881 13.897547 C 59.072474 15.004506 56.543842 30.171901 52.308313 35.291506 C 43.287927 46.313802 21.364248 54.560575 12.781217 53.288995 z "
     style="font-size:12;fill:url(#linearGradient861);fill-rule:evenodd;stroke:#261933;stroke-width:1.875;stroke-linecap:round;stroke-linejoin:round;"
     id="path576" />
  <path
     d="M 14.401113 49.584604 C 11.616441 44.363682 14.275678 29.630321 16.419605 27.019102 C 25.801832 16.983232 50.734136 15.502838 52.703206 16.434182 C 37.135833 18.753718 29.798296 20.903717 20.701323 29.873544 C 16.657556 34.512083 13.876868 42.425293 14.401113 49.584604 z "
     style="font-size:12;opacity:0.7;fill:url(#linearGradient581);fill-rule:evenodd;stroke-width:1.25;"
     id="path577" />
  <path
     d="M 44.94864 57.467359 C 46.251126 57.874231 58.73913 57.159425 58.371851 56.273392 C 57.864412 55.059925 37.989802 42.712887 36.76388 41.87356 C 35.924254 41.224692 22.245712 41.84091 22.787179 42.624935 C 23.390065 43.556585 44.104405 57.207351 44.94864 57.467359 z "
     style="font-size:12;opacity:0.296369;fill-rule:evenodd;stroke-width:11.7536;"
     id="path666" />
  <path
     d="M 43.27863 54.903001 C 44.581115 55.309873 57.275302 55.102324 56.908024 54.216294 C 56.400584 53.002829 36.319792 40.14852 35.093869 39.309194 C 34.254244 38.660333 20.575718 39.276547 21.117185 40.060572 C 21.720069 40.992229 42.434395 54.642986 43.27863 54.903001 z "
     style="font-size:12;fill:url(#linearGradient861);fill-rule:evenodd;stroke:#000000;stroke-width:1.43565;"
     id="path644" />
  <path
     d="M 41.257344 52.143989 C 42.149435 52.94388 52.617107 53.219552 53.411465 52.790566 C 53.819061 52.60969 53.12137 51.448593 53.260961 50.930418 C 53.37559 50.504823 54.090745 50.38267 54.174201 49.959269 C 54.280777 49.416365 53.709685 48.548303 53.83067 48.031422 C 53.923932 47.63356 54.777091 47.57724 54.816698 47.215187 C 54.863079 46.789556 54.013695 46.048869 54.088598 45.668685 C 54.156319 45.324288 55.178258 45.374527 55.243947 45.040696 C 55.31266 44.690173 54.904588 43.784841 54.491917 43.615325 C 53.749114 43.185341 43.710679 41.556518 43.058117 41.930342 C 42.43844 42.267106 40.619977 51.606489 41.257344 52.143989 z "
     style="font-size:12;fill:url(#linearGradient658);fill-rule:evenodd;stroke:#000000;stroke-width:1.0262;"
     id="path569" />
  <path
     d="M 23.017168 29.919145 C 22.388891 30.411256 21.122338 37.443315 20.923474 38.683073 C 20.834518 39.225971 20.80682 40.06486 21.163052 40.352375 C 22.026881 41.0938 42.269938 54.381286 43.38276 54.898192 C 43.830372 55.050654 42.497617 53.7469 42.599575 53.107067 C 42.818526 51.700306 44.594273 44.494291 45.002899 43.555604 C 45.264295 43.046214 45.94888 43.16194 46.435366 43.092809 C 47.229811 43.027263 58.71059 43.845425 58.209631 42.865112 C 57.705959 41.725529 37.738541 30.491345 36.59814 30.131543 C 35.495555 29.78729 23.779934 29.321211 23.017168 29.919145 z "
     style="font-size:12;fill:url(#linearGradient657);fill-rule:evenodd;stroke:#261933;stroke-width:1.43565;"
     id="path646" />
  <g
     transform="matrix(7.099507e-2,2.489265e-2,-1.863533e-2,9.483333e-2,23.22982,1.475031)"
     style="font-size:12;opacity:0.800828;fill:#261933;"
     id="g577">
    <path
       d="M 413.504 351.895 C 445.005 344.928 481.657 338.879 512.552 335.547 C 514.352 335.353 513.427 340.911 511.591 341.317 C 480.09 348.284 443.437 354.333 412.542 357.665 C 410.742 357.859 411.668 352.301 413.504 351.895 z "
       style="fill-rule:evenodd;stroke-width:1pt;"
       id="path648" />
    <path
       d="M 410.809 380.354 C 442.076 372.404 478.521 365.211 509.296 360.913 C 511.089 360.663 510.339 366.247 508.516 366.71 C 477.249 374.66 440.803 381.853 410.028 386.151 C 408.235 386.401 408.986 380.817 410.809 380.354 z "
       style="fill-rule:evenodd;stroke-width:1pt;"
       id="path575" />
    <path
       d="M 409.946 406.99 C 441.101 398.611 477.443 390.915 508.157 386.194 C 509.946 385.919 509.273 391.513 507.457 392.002 C 476.302 400.382 439.959 408.077 409.245 412.798 C 407.456 413.073 408.13 407.479 409.946 406.99 z "
       style="fill-rule:evenodd;stroke-width:1pt;"
       id="path650" />
  </g>
  <path
     d="M 22.201625 39.214383 C 22.13608 38.93304 23.198445 31.507939 23.925588 31.385192 C 24.486507 31.387308 43.131211 42.364412 43.193109 42.629541 C 43.252556 42.884701 25.835322 33.394272 24.695408 33.799002 C 23.757434 34.180646 22.257393 39.45354 22.201625 39.214383 z "
     style="font-size:12;opacity:0.99;fill:url(#linearGradient581);fill-rule:evenodd;stroke-width:0.110794pt;"
     id="path581" />
  <path
     d="M 31.846068 47.522853 L 34.415397 36.814902 L 48.150015 36.635672 L 54.677747 40.59148 L 40.97874 40.59148 L 38.17667 51.404422 L 31.846068 47.522853 z "
     style="font-size:12;fill:#ffffff;fill-rule:evenodd;stroke:#000000;stroke-width:0.574259;"
     id="path808" />
  <path
     d="M 25.345286 30.986914 C 25.351831 30.840021 34.884301 31.173248 36.229341 31.577747 C 37.507003 31.955716 47.942174 38.759397 47.9357 38.907574 C 47.929011 39.05339 37.853014 33.46752 36.306277 32.925109 C 34.585047 32.321492 25.338776 31.134035 25.345286 30.986914 z "
     style="font-size:12;opacity:0.99;fill:url(#linearGradient583);fill-rule:evenodd;stroke-width:0.110794pt;"
     id="path586" />
  <path
     d="M 33.650371 48.539842 L 36.134768 38.395693 L 49.69765 37.869132 L 52.366345 39.390925 L 38.801243 39.653479 L 36.210188 50.077134 L 33.650371 48.539842 z "
     style="font-size:12;fill:#ff0000;fill-rule:evenodd;stroke-width:1pt;"
     id="path810" />
</svg>
