<?xml version="1.0" encoding="UTF-8" standalone="no"?>
<!DOCTYPE svg PUBLIC "-//W3C//DTD SVG 20010904//EN"
"http://www.w3.org/TR/2001/REC-SVG-20010904/DTD/svg10.dtd">
<!-- Created with Inkscape (http://www.inkscape.org/) -->
<svg
   id="svg1"
   sodipodi:version="0.32"
   inkscape:version="0.37"
   width="48pt"
   height="48pt"
   sodipodi:docbase="/home/tom/Pics/lilasvg/actions"
   sodipodi:docname="bookmark_add.svg"
   xmlns="http://www.w3.org/2000/svg"
   xmlns:inkscape="http://www.inkscape.org/namespaces/inkscape"
   xmlns:sodipodi="http://sodipodi.sourceforge.net/DTD/sodipodi-0.dtd"
   xmlns:xlink="http://www.w3.org/1999/xlink">
  <defs
     id="defs3">
    <linearGradient
       id="linearGradient812">
      <stop
         style="stop-color:#f50000;stop-opacity:1;"
         offset="0.00000000"
         id="stop813" />
      <stop
         style="stop-color:#a80000;stop-opacity:1;"
         offset="1.00000000"
         id="stop814" />
    </linearGradient>
    <linearGradient
       id="linearGradient599">
      <stop
         style="stop-color:#ffffff;stop-opacity:1;"
         offset="0.00000000"
         id="stop600" />
      <stop
         style="stop-color:#d9cce6;stop-opacity:1;"
         offset="1.00000000"
         id="stop601" />
    </linearGradient>
    <linearGradient
       id="linearGradient584">
      <stop
         style="stop-color:#ffffff;stop-opacity:1;"
         offset="0.00000000"
         id="stop585" />
      <stop
         style="stop-color:#ffffff;stop-opacity:0;"
         offset="1.00000000"
         id="stop586" />
    </linearGradient>
    <linearGradient
       id="linearGradient578">
      <stop
         style="stop-color:#d9cce6;stop-opacity:1;"
         offset="0.00000000"
         id="stop579" />
      <stop
         style="stop-color:#73667f;stop-opacity:1;"
         offset="1.00000000"
         id="stop580" />
    </linearGradient>
    <linearGradient
       xlink:href="#linearGradient584"
       id="linearGradient581"
       x1="-0.00000000"
       y1="-0.00000000"
       x2="0.99270076"
       y2="1.00000000" />
    <linearGradient
       xlink:href="#linearGradient584"
       id="linearGradient583"
       x1="0.00000000"
       y1="-0.00000000"
       x2="0.99635035"
       y2="0.97297299" />
    <linearGradient
       xlink:href="#linearGradient578"
       id="linearGradient860"
       x1="0.00000000"
       y1="0.00000000"
       x2="1.00000000"
       y2="0.99218750" />
    <linearGradient
       xlink:href="#linearGradient578"
       id="linearGradient861"
       x1="-0.00000000"
       y1="0.00000000"
       x2="0.98905110"
       y2="0.96808511" />
    <linearGradient
       xlink:href="#linearGradient599"
       id="linearGradient862"
       x1="0.00000000"
       y1="0.00000000"
       x2="1.00458717"
       y2="0.95312500" />
    <radialGradient
       xlink:href="#linearGradient812"
       id="radialGradient595"
       cx="0.50000000"
       cy="0.50000000"
       r="0.50000000"
       fx="0.50000000"
       fy="0.50000000" />
    <linearGradient
       xlink:href="#linearGradient599"
       id="linearGradient809"
       x1="0.00000000"
       y1="-0.00000000"
       x2="0.98905110"
       y2="0.99218750" />
    <linearGradient
       xlink:href="#linearGradient812"
       id="linearGradient811"
       x1="0.00000000"
       y1="0.00000000"
       x2="0.98437500"
       y2="0.97656250" />
    <linearGradient
       xlink:href="#linearGradient812"
       id="linearGradient651" />
  </defs>
  <sodipodi:namedview
     id="base"
     pagecolor="#ffffff"
     bordercolor="#666666"
     borderopacity="1.0"
     inkscape:pageopacity="0.0"
     inkscape:pageshadow="2"
     inkscape:zoom="2"
     inkscape:cx="20.9981918"
     inkscape:cy="17.6250534"
     inkscape:window-width="640"
     inkscape:window-height="535"
     inkscape:window-x="115"
     inkscape:window-y="132" />
  <path
     d="M 38.576003 50.859749 C 40.54205 51.364669 59.392153 50.477609 58.837762 49.378064 C 58.071803 47.872179 28.071937 32.549788 26.22146 31.508202 C 24.954083 30.702971 4.3069122 31.467684 5.1242329 32.440641 C 6.0342628 33.596796 37.301667 50.537086 38.576003 50.859749 z "
     style="font-size:12;opacity:0.296369;fill-rule:evenodd;stroke-width:11.7536;"
     id="path666" />
  <path
     d="M 36.055195 47.677439 C 38.021241 48.182358 57.182566 47.924796 56.628177 46.825253 C 55.862218 45.319369 25.551129 29.367467 23.700652 28.325881 C 22.433273 27.520661 1.7861274 28.285367 2.6034492 29.258325 C 3.5134765 30.41449 34.780858 47.354766 36.055195 47.677439 z "
     style="font-size:12;fill:url(#linearGradient861);fill-rule:evenodd;stroke:#000000;stroke-width:1.9649;"
     id="path567" />
  <path
     d="M 33.004151 44.25357 C 34.350725 45.246216 50.151223 45.588318 51.350274 45.055957 C 51.965521 44.831494 50.912387 43.390599 51.123094 42.747556 C 51.29612 42.219401 52.375616 42.067813 52.50159 41.542382 C 52.66246 40.86865 51.800421 39.791406 51.983044 39.149968 C 52.123821 38.65623 53.411626 38.586337 53.471411 38.13704 C 53.541421 37.60884 52.259313 36.689664 52.372376 36.217864 C 52.474599 35.790476 54.01717 35.852822 54.116324 35.438545 C 54.220044 35.003555 53.604078 33.880058 52.981168 33.669693 C 51.859939 33.136091 36.707354 31.114759 35.72234 31.578667 C 34.786965 31.996584 32.042072 43.586544 33.004151 44.25357 z "
     style="font-size:12;fill:url(#linearGradient862);fill-rule:evenodd;stroke:#000000;stroke-width:1.40452;"
     id="path569" />
  <path
     d="M 5.4713915 16.673046 C 4.5230351 17.283744 2.6112283 26.010369 2.31105 27.548881 C 2.1767757 28.222605 2.1349664 29.263645 2.6726829 29.620447 C 3.9765957 30.540537 34.532618 47.030002 36.212375 47.671472 C 36.888026 47.860673 34.87629 46.242746 35.03019 45.448726 C 35.360688 43.702969 38.041102 34.760468 38.657904 33.595579 C 39.052471 32.963439 40.085822 33.107052 40.820152 33.021261 C 42.019333 32.93992 59.349074 33.95524 58.592897 32.738694 C 57.832625 31.324499 27.69267 17.383134 25.971283 16.936626 C 24.306977 16.509417 6.6227536 15.931025 5.4713915 16.673046 z "
     style="font-size:12;fill:url(#linearGradient860);fill-rule:evenodd;stroke:#261933;stroke-width:1.9649;"
     id="path562" />
  <g
     transform="matrix(0.107164,3.089122e-2,-2.812923e-2,0.117686,5.792384,-18.62545)"
     style="font-size:12;opacity:0.800828;fill:#261933;fill-opacity:1;"
     id="g577">
    <path
       d="M 413.504 351.895 C 445.005 344.928 481.657 338.879 512.552 335.547 C 514.352 335.353 513.427 340.911 511.591 341.317 C 480.09 348.284 443.437 354.333 412.542 357.665 C 410.742 357.859 411.668 352.301 413.504 351.895 z "
       style="fill-rule:evenodd;stroke-width:1pt;fill:#261933;fill-opacity:1;"
       id="path574" />
    <path
       d="M 410.809 380.354 C 442.076 372.404 478.521 365.211 509.296 360.913 C 511.089 360.663 510.339 366.247 508.516 366.71 C 477.249 374.66 440.803 381.853 410.028 386.151 C 408.235 386.401 408.986 380.817 410.809 380.354 z "
       style="fill-rule:evenodd;stroke-width:1pt;fill:#261933;fill-opacity:1;"
       id="path575" />
    <path
       d="M 409.946 406.99 C 441.101 398.611 477.443 390.915 508.157 386.194 C 509.946 385.919 509.273 391.513 507.457 392.002 C 476.302 400.382 439.959 408.077 409.245 412.798 C 407.456 413.073 408.13 407.479 409.946 406.99 z "
       style="fill-rule:evenodd;stroke-width:1pt;fill:#261933;fill-opacity:1;"
       id="path576" />
  </g>
  <path
     style="font-size:12;fill:url(#linearGradient809);fill-rule:evenodd;stroke:#000000;stroke-width:0.785959;"
     d="M 18.798236 38.518845 L 22.676526 25.230523 L 43.40834 25.008102 L 53.26167 29.917169 L 32.58361 29.917169 L 28.354006 43.335783 L 18.798236 38.518845 z "
     id="path808"
     sodipodi:nodetypes="ccccccc" />
  <path
     style="fill:url(#linearGradient811);fill-rule:evenodd;stroke:none;stroke-opacity:1;stroke-width:1pt;stroke-linejoin:miter;stroke-linecap:butt;fill-opacity:1;"
     d="M 21.57209 39.479787 L 25.220967 26.9926 L 45.141014 26.344417 L 49.060574 28.217706 L 29.137267 28.540902 L 25.331737 41.372155 L 21.57209 39.479787 z "
     id="path810"
     sodipodi:nodetypes="ccccccc" />
  <path
     d="M 4.2403658 28.208224 C 4.1414265 27.859083 5.7450212 18.644704 6.8426125 18.492376 C 7.6892951 18.495002 35.832673 32.117337 35.926106 32.446357 C 36.015837 32.763005 9.7252743 20.9856 8.0046219 21.48786 C 6.5887917 21.961471 4.3245444 28.505013 4.2403658 28.208224 z "
     style="font-size:12;opacity:0.990000;fill-rule:evenodd;stroke:none;stroke-width:0.110794pt;fill:url(#linearGradient581);"
     id="path581" />
  <path
     d="M 8.9855837 17.998123 C 8.9954664 17.815832 23.384317 18.22936 25.414598 18.731333 C 27.343174 19.200385 43.094615 27.643596 43.084841 27.82748 C 43.074744 28.008435 27.865462 21.076498 25.530728 20.403377 C 22.932607 19.654303 8.975758 18.180697 8.9855837 17.998123 z "
     style="font-size:12;opacity:0.990000;fill-rule:evenodd;stroke:none;stroke-width:0.110794pt;fill:url(#linearGradient583);"
     id="path586" />
  <path
     style="font-size:12;fill:#000000;fill-rule:evenodd;stroke:none;stroke-width:14.8479;fill-opacity:1;opacity:0.302675;"
     d="M 22.275793 35.139264 C 21.894289 34.487084 12.652897 34.729582 12.142405 35.139264 C 11.560854 35.626478 12.521479 43.556573 12.142405 44.205081 C 11.85077 44.768048 7.2486083 43.654694 7.4061468 44.205081 C 7.5700394 44.716763 14.848379 55.222527 16.878663 55.272441 C 18.790022 55.249943 26.752838 44.924606 26.901906 44.205081 C 27.019654 43.570974 22.398557 44.588972 22.055503 44.087342 C 21.600929 43.455722 22.735917 35.842593 22.275793 35.139264 z "
     id="path617"
     sodipodi:nodetypes="csssssss" />
  <path
     style="font-size:12;fill:#ac9fb8;fill-rule:evenodd;stroke:#261933;stroke-width:2.60692;"
     d="M 21.402285 35.637657 C 21.060711 35.053738 12.786561 35.270856 12.329498 35.637657 C 11.808815 36.073879 12.6689 43.173975 12.329498 43.754609 C 12.068389 44.258651 7.9479078 43.261828 8.0889579 43.754609 C 8.2356951 44.212737 14.628616 53.618928 16.57004 53.663614 C 18.343172 53.643432 25.410743 44.398826 25.54421 43.754609 C 25.649633 43.186869 21.512199 44.09832 21.205051 43.649194 C 20.798055 43.083684 21.814252 36.267373 21.402285 35.637657 z "
     id="path589"
     sodipodi:nodetypes="csssssss" />
  <path
     style="fill:url(#linearGradient583);fill-rule:evenodd;stroke:none;stroke-opacity:1;stroke-width:1pt;stroke-linejoin:miter;stroke-linecap:butt;fill-opacity:1;"
     d="M 20.234057 37.078582 C 20.071051 36.944549 14.270438 36.931382 13.843 37.228727 C 13.390344 37.592472 14.453253 43.428905 13.790335 44.829655 C 13.446606 45.555958 11.297276 45.316277 11.139043 45.35506 C 10.850208 45.404093 11.890385 46.762251 12.052052 46.85651 C 12.147901 46.912395 11.684621 45.886873 11.911591 45.805497 C 12.218517 45.770525 14.014331 46.080295 14.352186 45.430235 C 15.067801 44.053337 13.622022 39.110645 14.756009 37.979452 C 15.479961 37.262295 20.375388 37.194792 20.234057 37.078582 z "
     id="path618"
     sodipodi:nodetypes="cssssssss" />
  <path
     style="fill:#261e2e;fill-rule:evenodd;stroke:none;stroke-opacity:1;stroke-width:1pt;stroke-linejoin:miter;stroke-linecap:butt;fill-opacity:1;opacity:0.201783;"
     d="M 16.434143 35.961547 C 16.356063 36.703132 15.919092 53.644257 16.390428 54.184965 C 16.736284 54.631871 23.967362 46.723788 25.001994 44.465809 C 25.366196 43.670976 21.209549 45.376349 20.761783 44.419083 C 19.956428 42.697351 21.670995 38.402624 20.936635 36.428815 C 20.799162 36.009379 16.490542 35.472587 16.434143 35.961547 z "
     id="path644"
     sodipodi:nodetypes="csssss" />
</svg>
