<?xml version="1.0" encoding="UTF-8" standalone="no"?>
<!-- Created with Inkscape (http://www.inkscape.org/) -->
<svg
   xmlns:dc="http://purl.org/dc/elements/1.1/"
   xmlns:cc="http://web.resource.org/cc/"
   xmlns:rdf="http://www.w3.org/1999/02/22-rdf-syntax-ns#"
   xmlns:svg="http://www.w3.org/2000/svg"
   xmlns="http://www.w3.org/2000/svg"
   xmlns:xlink="http://www.w3.org/1999/xlink"
   xmlns:sodipodi="http://inkscape.sourceforge.net/DTD/sodipodi-0.dtd"
   xmlns:inkscape="http://www.inkscape.org/namespaces/inkscape"
   version="1.0"
   x="0"
   y="0"
   width="60.0000000"
   height="60.0000000"
   id="svg1"
   sodipodi:version="0.32"
   inkscape:version="0.42.2"
   sodipodi:docname="bookmark_toolbar.svg"
   sodipodi:docbase="/home/jakob/dev/lila/lila-theme/trunk/lila/kde/scalable/actions">
  <metadata
     id="metadata37">
    <rdf:RDF>
      <cc:Work
         rdf:about="">
        <dc:format>image/svg+xml</dc:format>
        <dc:type
           rdf:resource="http://purl.org/dc/dcmitype/StillImage" />
      </cc:Work>
    </rdf:RDF>
  </metadata>
  <sodipodi:namedview
     inkscape:cy="30.000000"
     inkscape:cx="30.000000"
     inkscape:zoom="5.6568542"
     inkscape:window-height="992"
     inkscape:window-width="1400"
     inkscape:pageshadow="2"
     inkscape:pageopacity="0.0"
     borderopacity="1.0"
     bordercolor="#666666"
     pagecolor="#ffffff"
     id="base"
     inkscape:window-x="0"
     inkscape:window-y="0"
     inkscape:current-layer="svg1" />
  <defs
     id="defs3">
    <linearGradient
       id="linearGradient584">
      <stop
         style="stop-color:#ffffff;stop-opacity:1;"
         offset="0"
         id="stop585" />
      <stop
         style="stop-color:#ded3e9;stop-opacity:1;"
         offset="1"
         id="stop586" />
    </linearGradient>
    <linearGradient
       id="linearGradient578">
      <stop
         style="stop-color:#d9cce6;stop-opacity:1;"
         offset="0"
         id="stop579" />
      <stop
         style="stop-color:#73667f;stop-opacity:1;"
         offset="1"
         id="stop580" />
    </linearGradient>
    <linearGradient
       x1="-0.00684932"
       y1="0.00775194"
       x2="0.97945207"
       y2="1.00000000"
       id="linearGradient581"
       xlink:href="#linearGradient584" />
    <linearGradient
       x1="0.01094890"
       y1="0.01030928"
       x2="1.01459849"
       y2="0.96907216"
       id="linearGradient583"
       xlink:href="#linearGradient584" />
    <linearGradient
       x1="11.050006"
       y1="4.8899484"
       x2="34.399300"
       y2="26.972226"
       id="linearGradient860"
       xlink:href="#linearGradient584"
       gradientTransform="matrix(0.544211,0.000000,0.000000,1.837523,0.000000,-3.311329)"
       gradientUnits="userSpaceOnUse" />
    <linearGradient
       x1="0.00000000"
       y1="0.02325581"
       x2="0.98611110"
       y2="0.97674417"
       id="linearGradient861"
       xlink:href="#linearGradient578" />
    <linearGradient
       x1="3.2789277"
       y1="4.5549572"
       x2="54.547244"
       y2="55.028416"
       id="linearGradient862"
       xlink:href="#linearGradient578"
       gradientTransform="matrix(1.014478,0.000000,0.000000,0.985729,0.000000,-3.311329)"
       gradientUnits="userSpaceOnUse" />
    <linearGradient
       x1="0.00000000"
       y1="-0.00000000"
       x2="1.00000000"
       y2="-0.00000000"
       id="linearGradient656"
       xlink:href="#linearGradient578" />
    <linearGradient
       x1="-0.02500000"
       y1="0.03100775"
       x2="0.97500002"
       y2="0.97674417"
       id="linearGradient657"
       xlink:href="#linearGradient578" />
    <linearGradient
       x1="-0.00000000"
       y1="0.00775194"
       x2="1.00000000"
       y2="0.99224806"
       id="linearGradient658"
       xlink:href="#linearGradient584" />
    <linearGradient
       inkscape:collect="always"
       xlink:href="#linearGradient584"
       id="linearGradient1335"
       x1="11.889954"
       y1="17.899555"
       x2="47.707612"
       y2="53.933167"
       gradientTransform="matrix(1.087700,0.000000,0.000000,0.919371,0.000000,-3.311329)"
       gradientUnits="userSpaceOnUse" />
    <linearGradient
       inkscape:collect="always"
       xlink:href="#linearGradient578"
       id="linearGradient1337"
       x1="9.5028207"
       y1="14.326502"
       x2="53.603920"
       y2="56.968639"
       gradientTransform="matrix(1.067200,0.000000,0.000000,0.937032,0.000000,-3.311329)"
       gradientUnits="userSpaceOnUse" />
    <linearGradient
       inkscape:collect="always"
       xlink:href="#linearGradient584"
       id="linearGradient1339"
       x1="14.901803"
       y1="12.416366"
       x2="27.636885"
       y2="24.581891"
       gradientTransform="matrix(1.682464,0.000000,0.000000,0.594366,0.000000,-3.311329)"
       gradientUnits="userSpaceOnUse" />
    <linearGradient
       y2="24.082205"
       x2="50.163210"
       y1="24.082205"
       x1="4.8208952"
       id="linearGradient922"
       xlink:href="#linearGradient834"
       gradientTransform="scale(1.022903,0.977609)"
       gradientUnits="userSpaceOnUse" />
    <linearGradient
       y2="28.926162"
       x2="34.204351"
       y1="-6.0254327"
       x1="-1.5699079"
       id="linearGradient854"
       xlink:href="#linearGradient841"
       gradientTransform="scale(1.111879,0.899379)"
       gradientUnits="userSpaceOnUse" />
    <linearGradient
       y2="91.098075"
       x2="17.223478"
       y1="69.326739"
       x1="-1.6928485"
       id="linearGradient849"
       xlink:href="#linearGradient841"
       gradientTransform="scale(2.147100,0.465745)"
       gradientUnits="userSpaceOnUse" />
    <radialGradient
       fy="0.50000000"
       fx="0.50000000"
       r="0.50000000"
       cy="0.50000000"
       cx="0.50000000"
       id="radialGradient844"
       xlink:href="#linearGradient841" />
    <linearGradient
       spreadMethod="reflect"
       y2="107.90137"
       x2="8.8425259"
       y1="111.36632"
       x1="8.8772916"
       id="linearGradient840"
       xlink:href="#linearGradient841"
       gradientTransform="scale(2.535463,0.394405)"
       gradientUnits="userSpaceOnUse" />
    <linearGradient
       y2="29.755064"
       x2="35.667502"
       y1="29.899258"
       x1="5.7716726"
       id="linearGradient833"
       xlink:href="#linearGradient834"
       gradientTransform="scale(1.051547,0.950980)"
       gradientUnits="userSpaceOnUse" />
    <linearGradient
       y2="45.349872"
       x2="23.921532"
       y1="28.055854"
       x1="23.375707"
       id="linearGradient832"
       xlink:href="#linearGradient829"
       gradientTransform="scale(0.881160,1.134868)"
       gradientUnits="userSpaceOnUse" />
    <linearGradient
       id="linearGradient829">
      <stop
         id="stop830"
         offset="0.0000000"
         style="stop-color:#f50000;stop-opacity:1.0000000;" />
      <stop
         id="stop831"
         offset="1.0000000"
         style="stop-color:#a80000;stop-opacity:1.0000000;" />
    </linearGradient>
    <linearGradient
       id="linearGradient834">
      <stop
         id="stop835"
         offset="0.0000000"
         style="stop-color:#d9cce6;stop-opacity:1.0000000;" />
      <stop
         id="stop836"
         offset="1.0000000"
         style="stop-color:#73667f;stop-opacity:1.0000000;" />
    </linearGradient>
    <linearGradient
       id="linearGradient841">
      <stop
         id="stop842"
         offset="0.0000000"
         style="stop-color:#ffffff;stop-opacity:1.0000000;" />
      <stop
         id="stop843"
         offset="1.0000000"
         style="stop-color:#ffffff;stop-opacity:0.0000000;" />
    </linearGradient>
    <linearGradient
       y2="0.97656250"
       x2="0.97887325"
       y1="0.03125000"
       x1="0.01408451"
       id="linearGradient901"
       xlink:href="#linearGradient578" />
    <linearGradient
       y2="1.03906250"
       x2="1.02343750"
       y1="0.03125000"
       x1="0.02343750"
       id="linearGradient797"
       xlink:href="#linearGradient584" />
    <linearGradient
       y2="1.08593750"
       x2="1.08823526"
       y1="0.04687500"
       x1="0.02450980"
       id="linearGradient869"
       xlink:href="#linearGradient584" />
    <linearGradient
       y2="0.98437500"
       x2="0.98051947"
       y1="0.10156250"
       x1="0.09740259"
       id="linearGradient1442"
       xlink:href="#linearGradient584" />
    <linearGradient
       y2="1.10156250"
       x2="1.07894742"
       y1="0.01562500"
       x1="-0.00000000"
       id="linearGradient1440"
       xlink:href="#linearGradient584" />
    <linearGradient
       y2="0.97656250"
       x2="0.99504948"
       y1="0.01562500"
       x1="0.00495049"
       id="linearGradient1438"
       xlink:href="#linearGradient584" />
    <linearGradient
       y2="0.96907216"
       x2="1.01459849"
       y1="0.01030928"
       x1="0.01094890"
       id="linearGradient1436"
       xlink:href="#linearGradient584" />
    <linearGradient
       y2="1.00000000"
       x2="0.97945207"
       y1="0.00775194"
       x1="-0.00684932"
       id="linearGradient1434"
       xlink:href="#linearGradient866" />
    <linearGradient
       id="linearGradient1428">
      <stop
         id="stop1430"
         offset="0.00000000"
         style="stop-color:#d9cce6;stop-opacity:1;" />
      <stop
         id="stop1432"
         offset="1.00000000"
         style="stop-color:#73667f;stop-opacity:1;" />
    </linearGradient>
    <linearGradient
       id="linearGradient1422">
      <stop
         id="stop1424"
         offset="0.00000000"
         style="stop-color:#ffffff;stop-opacity:1;" />
      <stop
         id="stop1426"
         offset="1.00000000"
         style="stop-color:#ffffff;stop-opacity:0;" />
    </linearGradient>
    <linearGradient
       id="linearGradient866">
      <stop
         id="stop867"
         offset="0.00000000"
         style="stop-color:#faf8fd;stop-opacity:1;" />
      <stop
         id="stop868"
         offset="1.00000000"
         style="stop-color:#d9cce6;stop-opacity:1;" />
    </linearGradient>
  </defs>
  <path
     d="M 11.267699,53.311342 C 2.7670491,49.677203 1.5072003,18.720535 3.2623489,5.6727225 C 3.8256059,1.4849514 15.938655,0.16098268 19.798169,0.68586548 C 21.406915,0.90470498 21.378639,8.1956797 23.210262,8.1662117 C 32.271200,8.0206767 44.430229,-2.5439802 50.900965,1.0795861 C 56.460229,4.1927661 60.504727,27.148003 55.887824,33.232506 C 47.293672,44.558586 20.265076,57.157790 11.267699,53.311342 z "
     style="font-size:12.000000px;opacity:0.30267498;fill-rule:evenodd;stroke-width:18.750000;stroke-linecap:round;stroke-linejoin:round"
     id="path574" />
  <path
     d="M 12.139826,49.746066 C 4.4358786,46.452546 3.2941018,18.397375 4.8847766,6.5725038 C 5.3952944,2.7772413 16.372984,1.5773656 19.870756,2.0530525 C 21.328716,2.2513808 21.303091,8.8589857 22.963041,8.8322867 C 31.174718,8.7003917 42.194107,-0.87407812 48.058362,2.4098711 C 53.096567,5.2312603 56.761979,26.034954 52.577815,31.549170 C 44.789173,41.813689 20.293899,53.231996 12.139826,49.746066 z "
     style="font-size:12.000000px;fill:url(#linearGradient862);fill-rule:evenodd;stroke:#261933;stroke-width:1.8750000;stroke-linecap:round;stroke-linejoin:round"
     id="path562" />
  <path
     d="M 12.258693,47.248553 C 7.4089087,43.353801 4.9391180,16.786953 7.1445784,7.5239847 C 7.9124818,4.2987300 18.684985,3.7316292 19.038143,4.9074937 C 16.042544,5.0358362 11.540750,7.8756347 10.831526,10.854222 C 8.5673316,20.363864 11.592000,44.652733 12.258693,47.248553 z "
     style="font-size:12.000000px;opacity:0.69999999;fill:url(#linearGradient860);fill-rule:evenodd;stroke-width:1.0000000pt"
     id="path567" />
  <path
     d="M 24.865895,10.973200 C 35.796025,8.9979877 43.904665,2.4775956 46.155401,4.3128339 C 46.764487,4.8370760 38.257583,9.6116037 33.072508,11.330124 C 31.319639,11.911008 24.343156,11.066655 24.865895,10.973200 z "
     style="font-size:12.000000px;opacity:0.69993597;fill:url(#linearGradient1339);fill-rule:evenodd;stroke-width:1.0000000pt"
     id="path568" />
  <path
     d="M 12.781217,49.977666 C 10.696831,49.643996 9.6412329,27.032078 14.967781,21.855835 C 23.545752,13.519801 45.392125,8.3852277 54.494881,10.586218 C 59.072474,11.693177 56.543842,26.860572 52.308313,31.980177 C 43.287927,43.002473 21.364248,51.249246 12.781217,49.977666 z "
     style="font-size:12.000000px;fill:url(#linearGradient1337);fill-rule:evenodd;stroke:#261933;stroke-width:1.8750000;stroke-linecap:round;stroke-linejoin:round"
     id="path576" />
  <path
     d="M 14.401113,46.273275 C 11.616441,41.052353 14.275678,26.318992 16.419605,23.707773 C 25.801832,13.671903 50.734136,12.191509 52.703206,13.122853 C 37.135833,15.442389 29.798296,17.592388 20.701323,26.562215 C 16.657556,31.200754 13.876868,39.113964 14.401113,46.273275 z "
     style="font-size:12.000000px;opacity:0.69999999;fill:url(#linearGradient1335);fill-rule:evenodd;stroke-width:1.2500000"
     id="path577" />
  <g
     id="g1447"
     transform="translate(-4.823685e-3,4.821777e-3)">
    <rect
       ry="3.7596474"
       y="35.562294"
       x="1.8798237"
       height="22.557884"
       width="56.708012"
       id="rect601"
       style="font-size:12.000000px;fill:#bfbfbf;fill-rule:evenodd;stroke:#261933;stroke-width:1.0000000pt"
       rx="3.7596474" />
    <path
       id="path613"
       d="M 20.364756,35.562293 L 20.364756,58.120176"
       style="fill:none;fill-opacity:1.0000000;fill-rule:evenodd;stroke:#261933;stroke-width:1.0000000pt;stroke-linecap:butt;stroke-linejoin:miter;stroke-opacity:1.0000000" />
    <path
       id="path614"
       d="M 39.162993,58.120176 L 39.162993,35.875597"
       style="fill:none;fill-opacity:1.0000000;fill-rule:evenodd;stroke:#261933;stroke-width:1.0000000pt;stroke-linecap:butt;stroke-linejoin:miter;stroke-opacity:1.0000000" />
  </g>
  <g
     id="g2645"
     transform="matrix(0.646921,0.000000,0.000000,0.646921,23.67098,21.95776)">
    <path
       sodipodi:nodetypes="ccccccccc"
       id="path1026"
       d="M 19.892947,8.8486789 C 18.930334,8.8486789 18.155375,9.6236370 18.155375,10.586250 L 7.1853097,45.465244 L 8.1944444,47.384924 L 42.643607,52.878909 C 43.606220,52.878909 44.381178,52.103951 44.381178,51.141339 L 56.079682,16.080233 C 56.079682,15.117620 55.304724,14.342662 54.342111,14.342662 L 19.892947,8.8486789 z "
       style="fill:#000000;fill-opacity:0.29770991;fill-rule:evenodd;stroke:none;stroke-width:1.7712934" />
    <path
       sodipodi:nodetypes="ccccccccc"
       id="path866"
       d="M 19.127448,7.4351967 C 18.209290,7.4351967 17.470122,8.1743634 17.470122,9.0925200 L 7.0066859,42.360699 L 7.9692167,44.191723 L 40.827414,49.431979 C 41.745571,49.431979 42.484739,48.692812 42.484739,47.774655 L 53.642971,14.332775 C 53.642971,13.414617 52.903804,12.675451 51.985646,12.675451 L 19.127448,7.4351967 z "
       style="fill:url(#linearGradient833);fill-rule:evenodd;stroke:#261933;stroke-width:2.8983438;stroke-dasharray:none;stroke-opacity:1.0000000" />
    <path
       sodipodi:nodetypes="ccccccccc"
       id="path856"
       d="M 20.729416,6.3557927 C 19.811258,6.3557927 19.072089,7.0949611 19.072089,8.0131179 L 7.9138567,41.454998 C 7.9138567,42.373157 8.6530245,43.112324 9.5711820,43.112324 L 38.172876,46.615591 C 39.091034,46.615591 39.830202,45.876424 39.830202,44.958266 L 50.988434,11.516385 C 50.988434,10.598227 50.249267,9.8590600 49.331108,9.8590600 L 20.729416,6.3557927 z "
       style="fill:#ffffff;fill-rule:evenodd;stroke:#261933;stroke-width:1.5219009;stroke-opacity:1.0000000" />
    <path
       sodipodi:nodetypes="csssssss"
       id="path828"
       d="M 14.675278,34.102215 C 11.903005,35.824473 10.954143,41.759824 10.954143,45.588630 C 10.954143,49.417437 12.956987,55.268060 14.675278,57.075046 C 15.418362,57.856488 16.820327,53.353912 18.338267,53.353912 C 21.743076,53.353912 28.231568,58.349561 29.443526,57.075046 C 30.692943,55.761135 25.722392,49.417437 25.722392,45.588630 C 25.722392,41.759824 31.099915,35.824473 29.443526,34.102215 C 27.417544,31.995667 18.066132,31.995667 14.675278,34.102215 z "
       style="fill:url(#linearGradient832);fill-opacity:1.0000000;fill-rule:evenodd;stroke:#000000;stroke-width:2.8983438;stroke-linecap:square;stroke-dasharray:none" />
    <rect
       transform="matrix(0.995030,9.958006e-2,-9.958006e-2,0.995030,0.000000,0.000000)"
       ry="1.7755541"
       y="42.854893"
       x="15.034681"
       height="2.2972872"
       width="14.768276"
       id="rect846"
       style="opacity:0.70202023;fill:url(#linearGradient840);fill-opacity:1.0000000;fill-rule:evenodd;stroke-width:1.0000000pt"
       rx="1.7755541" />
    <path
       sodipodi:nodetypes="csssssss"
       id="path845"
       d="M 14.675278,34.102215 C 11.903005,35.824473 10.954143,41.759824 10.954143,45.588630 C 10.954143,49.417437 12.956987,55.268060 14.675278,57.075046 C 15.418362,57.856488 16.820327,53.353912 18.338267,53.353912 C 21.743076,53.353912 28.231568,58.349561 29.443526,57.075046 C 30.692943,55.761135 25.722392,49.417437 25.722392,45.588630 C 25.722392,41.759824 31.099915,35.824473 29.443526,34.102215 C 27.417544,31.995667 18.066132,31.995667 14.675278,34.102215 z "
       style="fill:none;fill-opacity:1.0000000;fill-rule:evenodd;stroke:#330000;stroke-width:3.0438013;stroke-linecap:square;stroke-opacity:1.0000000" />
    <path
       sodipodi:nodetypes="ccccccccc"
       id="path855"
       d="M 20.635427,5.0182929 C 19.717268,5.0182929 18.978101,5.7574602 18.978101,6.6756212 L 7.8198693,40.117500 C 7.8198693,41.035658 8.5590370,41.774827 9.4771941,41.774827 L 36.877273,44.453765 C 37.795430,44.453765 38.534599,43.714598 38.534599,42.796440 L 49.692830,9.3545600 C 49.692830,8.4363994 48.953663,7.6972327 48.035504,7.6972327 L 20.635427,5.0182929 z "
       style="fill:#ffffff;fill-rule:evenodd;stroke:#261933;stroke-width:1.5219009;stroke-opacity:1.0000000" />
    <path
       sodipodi:nodetypes="ccccccccc"
       id="path826"
       d="M 20.288028,3.4822657 C 19.369870,3.4822657 18.630702,4.2214344 18.630702,5.1395899 L 7.4724707,38.581473 C 7.4724707,39.499632 8.2116379,40.238798 9.1297970,40.238798 L 36.182474,42.323186 C 37.100634,42.323186 37.839800,41.584019 37.839800,40.665860 L 48.998032,7.2239780 C 48.998032,6.3058219 48.258865,5.5666537 47.340708,5.5666537 L 20.288028,3.4822657 z "
       style="fill:#ffffff;fill-rule:evenodd;stroke:#261933;stroke-width:1.5219009;stroke-opacity:1.0000000" />
    <path
       sodipodi:nodetypes="ccsccssccccc"
       id="path924"
       d="M 18.900362,2.3169532 C 17.982206,2.3169532 17.232852,3.0315654 17.232852,3.9497235 L 6.2203372,36.987267 C 5.5224122,39.081043 6.0573930,41.388468 6.1854409,43.280752 C 6.2098357,44.103204 7.9844685,44.775588 8.9300414,44.768981 L 8.8431913,41.839285 C 8.7386452,38.312622 9.3452458,38.887748 12.695343,38.909588 L 37.555631,39.071655 C 38.473789,39.071653 39.223141,38.322302 39.223141,37.404145 L 50.374615,3.9497235 C 50.374616,3.0315653 49.660001,2.3169532 48.741844,2.3169532 L 18.900362,2.3169532 z "
       style="fill:url(#linearGradient922);fill-opacity:1.0000000;fill-rule:evenodd;stroke:#261933;stroke-width:2.8983438;stroke-dasharray:none;stroke-opacity:1.0000000" />
    <path
       sodipodi:nodetypes="csscs"
       id="path910"
       d="M 10.115772,32.582391 C 11.784899,29.145036 16.751262,11.335833 22.987203,7.3806871 C 27.132753,4.8668436 42.981830,4.9869041 45.560502,4.1612944 C 46.357957,3.9439579 28.561542,3.5729559 20.092033,4.9186941 C 18.040560,6.7975774 9.0740695,34.765970 10.115772,32.582391 z "
       style="fill:url(#linearGradient854);fill-opacity:0.29999998;fill-rule:evenodd;stroke:none;stroke-width:1.7712935" />
    <path
       sodipodi:nodetypes="cssss"
       id="path925"
       d="M 7.2997398,42.620052 C 7.4585688,42.524755 7.6344225,38.347633 8.8506869,37.828430 C 15.621162,35.621927 37.277712,37.583353 37.277712,37.265186 C 37.277712,36.946456 9.1788295,35.347305 7.9647343,36.507170 C 7.0965021,37.424454 7.0384013,42.776854 7.2997398,42.620052 z "
       style="fill:url(#linearGradient849);fill-opacity:1.0000000;fill-rule:evenodd;stroke:none;stroke-width:1.0000000pt;stroke-linecap:butt;stroke-linejoin:miter;stroke-opacity:1.0000000" />
  </g>
</svg>
