<?xml version="1.0" encoding="UTF-8" standalone="no"?>
<!DOCTYPE svg PUBLIC "-//W3C//DTD SVG 20010904//EN"
"http://www.w3.org/TR/2001/REC-SVG-20010904/DTD/svg10.dtd">
<!-- Created with Inkscape (http://www.inkscape.org/) -->
<svg
   id="svg1"
   sodipodi:version="0.32"
   inkscape:version="0.37"
   width="48pt"
   height="48pt"
   sodipodi:docbase="/home/tom"
   sodipodi:docname="cd_copy.svg"
   xmlns="http://www.w3.org/2000/svg"
   xmlns:inkscape="http://www.inkscape.org/namespaces/inkscape"
   xmlns:sodipodi="http://sodipodi.sourceforge.net/DTD/sodipodi-0.dtd"
   xmlns:xlink="http://www.w3.org/1999/xlink">
  <defs
     id="defs3">
    <linearGradient
       id="linearGradient916">
      <stop
         style="stop-color:#cccccc;stop-opacity:1;"
         offset="0.00000000"
         id="stop917" />
      <stop
         style="stop-color:#7f7f7f;stop-opacity:1;"
         offset="1.00000000"
         id="stop918" />
    </linearGradient>
    <linearGradient
       id="linearGradient866">
      <stop
         style="stop-color:#ffffff;stop-opacity:1;"
         offset="0.00000000"
         id="stop867" />
      <stop
         style="stop-color:#d9d1e1;stop-opacity:1;"
         offset="1.00000000"
         id="stop868" />
    </linearGradient>
    <linearGradient
       id="linearGradient584">
      <stop
         style="stop-color:#ffffff;stop-opacity:1;"
         offset="0.00000000"
         id="stop585" />
      <stop
         style="stop-color:#ffffff;stop-opacity:0;"
         offset="1.00000000"
         id="stop586" />
    </linearGradient>
    <linearGradient
       id="linearGradient578">
      <stop
         style="stop-color:#d9cce6;stop-opacity:1;"
         offset="0.00000000"
         id="stop579" />
      <stop
         style="stop-color:#73667f;stop-opacity:1;"
         offset="1.00000000"
         id="stop580" />
    </linearGradient>
    <linearGradient
       xlink:href="#linearGradient584"
       id="linearGradient581" />
    <linearGradient
       xlink:href="#linearGradient584"
       id="linearGradient583"
       x1="-0.03076923"
       y1="0.02325581"
       x2="0.97692305"
       y2="1.03100777" />
    <linearGradient
       xlink:href="#linearGradient866"
       id="linearGradient860"
       x1="-0.00000000"
       y1="-0.00000000"
       x2="1.00000000"
       y2="-0.00000000" />
    <linearGradient
       xlink:href="#linearGradient584"
       id="linearGradient861"
       x1="0.00000000"
       y1="0.00000000"
       x2="1.00000000"
       y2="0.00000000" />
    <linearGradient
       xlink:href="#linearGradient866"
       id="linearGradient862"
       x1="0.00617284"
       y1="0.01550388"
       x2="1.00000000"
       y2="0.96899223" />
    <linearGradient
       xlink:href="#linearGradient916"
       id="linearGradient869"
       x1="0.00641026"
       y1="0.01550388"
       x2="0.97435898"
       y2="0.95348835" />
    <linearGradient
       xlink:href="#linearGradient578"
       id="linearGradient915"
       x1="0.97727275"
       y1="0.98449612"
       x2="-0.01136364"
       y2="0.01550388" />
  </defs>
  <sodipodi:namedview
     id="base"
     pagecolor="#ffffff"
     bordercolor="#666666"
     borderopacity="1.0"
     inkscape:pageopacity="0.0"
     inkscape:pageshadow="2"
     inkscape:zoom="1"
     inkscape:cx="21.1749878"
     inkscape:cy="31.0016174"
     inkscape:window-width="1018"
     inkscape:window-height="711"
     inkscape:window-x="0"
     inkscape:window-y="30" />
  <path
     d="M 25.252717 22.842077 C 25.252717 24.397466 23.990418 25.659766 22.435028 25.659766 C 20.879638 25.659766 19.617271 24.397466 19.617271 22.842077 C 19.617271 21.286686 20.879638 20.02432 22.435028 20.02432 C 23.990418 20.02432 25.252717 21.286686 25.252717 22.842077 z M 40.341234 22.569354 C 40.341234 32.553924 32.237762 40.657327 22.253192 40.657327 C 12.268621 40.657327 4.1652112 32.553924 4.1652112 22.569354 C 4.1652112 12.584785 12.268621 4.4813131 22.253192 4.4813131 C 32.237762 4.4813131 40.341234 12.584785 40.341234 22.569354 z "
     style="font-size:12;opacity:0.302675;fill-rule:evenodd;stroke-width:12.5;"
     id="path782" />
  <path
     d="M 23.930458 21.198814 C 23.930458 22.721887 22.694385 23.957962 21.171311 23.957962 C 19.648237 23.957962 18.412098 22.721887 18.412098 21.198814 C 18.412098 19.675741 19.648237 18.439602 21.171311 18.439602 C 22.694385 18.439602 23.930458 19.675741 23.930458 21.198814 z M 38.705479 20.93176 C 38.705479 30.70888 30.770373 38.643919 20.993253 38.643919 C 11.216132 38.643919 3.2810857 30.70888 3.2810857 20.93176 C 3.2810857 11.154639 11.216132 3.2195672 20.993253 3.2195672 C 30.770373 3.2195672 38.705479 11.154639 38.705479 20.93176 z "
     style="font-size:12;fill:url(#linearGradient860);fill-rule:evenodd;stroke:#261933;stroke-width:1.25455;"
     id="path773" />
  <path
     d="M 7.1083252 30.09936 C 3.8426764 26.478812 1.7693506 11.451182 13.872763 5.8897168 C 23.69309 1.4166425 33.301694 8.5849492 33.988151 10.607011 C 34.190596 11.177038 25.795666 4.0794042 15.741948 9.2719363 C 0.98871338 16.824815 7.5100336 30.557196 7.1083252 30.09936 z "
     style="font-size:12;opacity:0.7;fill-rule:evenodd;stroke:none;stroke-width:0.0778586pt;fill:url(#linearGradient581);"
     id="path774" />
  <path
     d="M 27.729858 21.324588 C 27.729858 24.794711 24.487562 27.733241 21.145269 27.846292 C 17.423465 27.846292 14.311118 24.731823 14.434771 21.261701 C 14.562864 17.665872 17.423465 14.488251 21.145269 14.488251 C 24.615324 14.488251 27.860205 17.731012 27.729858 21.324588 z M 25.977634 21.287745 C 25.977634 23.989968 23.784538 26.183063 21.082315 26.183063 C 18.380091 26.183063 16.186995 23.989968 16.186995 21.287745 C 16.186995 18.585522 18.380091 16.392425 21.082315 16.392425 C 23.784538 16.392425 25.977634 18.585522 25.977634 21.287745 z "
     style="font-size:12;opacity:0.100892;fill:#3f003f;fill-rule:evenodd;stroke-width:1pt;"
     id="path779" />
  <path
     d="M 21.972342 17.950024 C 21.96883 18.202302 23.491374 19.194711 23.708001 19.062575 C 27.09224 16.302501 33.726464 12.167792 33.810159 9.3609321 C 33.86801 7.3775036 23.892486 3.3333936 23.574473 3.8425405 C 22.204144 6.2282335 22.048351 13.455883 21.972342 17.950024 z "
     style="font-size:12;fill:url(#linearGradient583);fill-rule:evenodd;stroke-width:1pt;"
     id="path780" />
  <path
     d="M 20.805982 24.295059 C 20.783319 24.043776 19.166213 23.214449 18.964431 23.36832 C 15.884355 26.464101 9.7141307 31.263864 9.9216118 34.064228 C 10.069519 36.043017 20.410304 39.03191 20.673847 38.492633 C 21.789645 35.977813 21.195962 28.772899 20.805982 24.295059 z "
     style="font-size:12;fill:url(#linearGradient861);fill-rule:evenodd;stroke-width:1pt;"
     id="path781" />
  <path
     d="M 43.737649 40.387098 C 43.737649 41.942487 42.47535 43.204787 40.91996 43.204787 C 39.36457 43.204787 38.102203 41.942487 38.102203 40.387098 C 38.102203 38.831707 39.36457 37.569341 40.91996 37.569341 C 42.47535 37.569341 43.737649 38.831707 43.737649 40.387098 z M 58.826166 40.114375 C 58.826166 50.098945 50.722694 58.202348 40.738124 58.202348 C 30.753553 58.202348 22.650144 50.098945 22.650144 40.114375 C 22.650144 30.129806 30.753553 22.026334 40.738124 22.026334 C 50.722694 22.026334 58.826166 30.129806 58.826166 40.114375 z "
     style="font-size:12;opacity:0.302675;fill-rule:evenodd;stroke-width:12.5;"
     id="path680" />
  <path
     d="M 42.41539 38.743835 C 42.41539 40.266908 41.179317 41.502983 39.656243 41.502983 C 38.133169 41.502983 36.89703 40.266908 36.89703 38.743835 C 36.89703 37.220762 38.133169 35.984623 39.656243 35.984623 C 41.179317 35.984623 42.41539 37.220762 42.41539 38.743835 z M 57.190411 38.476781 C 57.190411 48.253901 49.255305 56.18894 39.478185 56.18894 C 29.701064 56.18894 21.766018 48.253901 21.766018 38.476781 C 21.766018 28.69966 29.701064 20.764588 39.478185 20.764588 C 49.255305 20.764588 57.190411 28.69966 57.190411 38.476781 z "
     style="font-size:12;fill:url(#linearGradient860);fill-rule:evenodd;stroke:#261933;stroke-width:1.25455;"
     id="path681" />
  <path
     d="M 25.593258 47.644381 C 22.327609 44.023833 20.254283 28.996203 32.357695 23.434737 C 42.178022 18.961663 51.786626 26.12997 52.473083 28.152032 C 52.675528 28.722059 44.280598 21.624425 34.22688 26.816957 C 19.473646 34.369836 25.994966 48.102217 25.593258 47.644381 z "
     style="font-size:12;opacity:0.7;fill-rule:evenodd;stroke:none;stroke-width:0.0778586pt;fill:url(#linearGradient581);"
     id="path682" />
  <path
     d="M 46.21479 38.869609 C 46.21479 42.339732 42.972494 45.278262 39.630201 45.391313 C 35.908397 45.391313 32.79605 42.276844 32.919703 38.806722 C 33.047796 35.210893 35.908397 32.033272 39.630201 32.033272 C 43.100256 32.033272 46.345137 35.276033 46.21479 38.869609 z M 44.462566 38.832766 C 44.462566 41.534989 42.26947 43.728084 39.567247 43.728084 C 36.865023 43.728084 34.671927 41.534989 34.671927 38.832766 C 34.671927 36.130543 36.865023 33.937446 39.567247 33.937446 C 42.26947 33.937446 44.462566 36.130543 44.462566 38.832766 z "
     style="font-size:12;opacity:0.100892;fill:#3f003f;fill-rule:evenodd;stroke-width:1pt;"
     id="path683" />
  <path
     d="M 40.457274 35.495045 C 40.453762 35.747323 41.976306 36.739732 42.192933 36.607596 C 45.577172 33.847522 52.211396 29.712813 52.295091 26.905953 C 52.352942 24.922524 42.377418 20.878414 42.059405 21.387561 C 40.689076 23.773254 40.533283 31.000904 40.457274 35.495045 z "
     style="font-size:12;fill:url(#linearGradient583);fill-rule:evenodd;stroke-width:1pt;"
     id="path684" />
  <path
     d="M 39.290914 41.84008 C 39.268251 41.588797 37.651145 40.75947 37.449363 40.913341 C 34.369287 44.009122 28.199063 48.808885 28.406544 51.609249 C 28.554451 53.588038 38.895236 56.576931 39.158779 56.037654 C 40.274577 53.522834 39.680894 46.31792 39.290914 41.84008 z "
     style="font-size:12;fill:url(#linearGradient861);fill-rule:evenodd;stroke-width:1pt;"
     id="path685" />
  <path
     style="font-size:12;fill:#000000;fill-rule:evenodd;stroke:none;stroke-width:14.8479;fill-opacity:1;opacity:0.302675;"
     d="M 19.730422 35.293209 C 19.010539 34.843075 19.278213 23.939171 19.730422 23.336843 C 20.268216 22.650672 29.021551 23.784113 29.737384 23.336843 C 30.358793 22.992745 29.129859 17.562664 29.737384 17.748541 C 30.302185 17.941916 41.89858 26.529618 41.953671 28.925146 C 41.92884 31.180354 30.531605 40.575666 29.737384 40.751551 C 29.03745 40.890483 30.161128 35.438057 29.607423 35.033289 C 28.910235 34.496939 20.506766 35.83611 19.730422 35.293209 z "
     id="path617"
     sodipodi:nodetypes="csssssss" />
  <path
     style="font-size:12;fill:url(#linearGradient578);fill-rule:evenodd;stroke:#261933;stroke-width:0.771681;"
     d="M 21.23849 34.171567 C 20.593953 33.768544 20.83361 24.005889 21.23849 23.466603 C 21.719995 22.852251 29.557172 23.86706 30.198082 23.466603 C 30.754452 23.15852 29.654143 18.296773 30.198082 18.463195 C 30.703768 18.636331 41.086437 26.179327 41.135762 28.470011 C 41.113483 30.562125 30.909176 38.90114 30.198082 39.058616 C 29.571405 39.183005 30.577475 34.301254 30.081723 33.938851 C 29.457505 33.458638 21.933578 34.657646 21.23849 34.171567 z "
     id="path589"
     sodipodi:nodetypes="csssssss" />
  <path
     style="fill:#261e2e;fill-rule:evenodd;stroke:none;stroke-opacity:1;stroke-width:1pt;stroke-linejoin:miter;stroke-linecap:butt;fill-opacity:1;opacity:0.201783;"
     d="M 20.921775 28.700488 C 21.740347 28.608365 40.440166 28.09278 41.037008 28.64891 C 41.53031 29.056986 32.801269 37.588921 30.308884 38.809681 C 29.431538 39.239401 31.31395 34.334984 30.257306 33.806663 C 28.356839 32.856428 23.616267 34.879442 21.43755 34.012972 C 20.974572 33.850768 20.382055 28.767034 20.921775 28.700488 z "
     id="path644"
     sodipodi:nodetypes="csssss" />
  <path
     style="fill:url(#linearGradient581);fill-rule:evenodd;stroke:none;stroke-opacity:1;stroke-width:1pt;stroke-linejoin:miter;stroke-linecap:butt;fill-opacity:1;"
     d="M 40.545894 28.153711 C 38.394586 24.713123 31.891357 20.226815 31.793249 20.237716 C 31.698284 20.248267 37.259685 25.306354 39.516171 28.089353 C 39.833993 28.481332 39.4279 29.772461 39.516171 29.762653 C 39.620972 29.751009 40.841223 28.640595 40.545894 28.153711 z "
     id="path665"
     sodipodi:nodetypes="cssss" />
</svg>
