<?xml version="1.0" encoding="UTF-8" standalone="no"?>
<!DOCTYPE svg PUBLIC "-//W3C//DTD SVG 20010904//EN"
"http://www.w3.org/TR/2001/REC-SVG-20010904/DTD/svg10.dtd">
<!-- Created with Inkscape (http://www.inkscape.org/) -->
<svg
   id="svg1"
   sodipodi:version="0.32"
   inkscape:version="0.37"
   width="48pt"
   height="48pt"
   sodipodi:docbase="/home/tom"
   sodipodi:docname="cdrwblank.svg"
   xmlns="http://www.w3.org/2000/svg"
   xmlns:inkscape="http://www.inkscape.org/namespaces/inkscape"
   xmlns:sodipodi="http://sodipodi.sourceforge.net/DTD/sodipodi-0.dtd"
   xmlns:xlink="http://www.w3.org/1999/xlink">
  <defs
     id="defs3">
    <linearGradient
       id="linearGradient645">
      <stop
         style="stop-color:#ffffff;stop-opacity:1;"
         offset="0.00000000"
         id="stop646" />
      <stop
         style="stop-color:#d9cce6;stop-opacity:1;"
         offset="1.00000000"
         id="stop647" />
    </linearGradient>
    <linearGradient
       id="linearGradient878">
      <stop
         style="stop-color:#fff300;stop-opacity:1;"
         offset="0.00000000"
         id="stop879" />
      <stop
         style="stop-color:#997f00;stop-opacity:1;"
         offset="1.00000000"
         id="stop880" />
    </linearGradient>
    <linearGradient
       id="linearGradient874">
      <stop
         style="stop-color:#ffffff;stop-opacity:1;"
         offset="0.00000000"
         id="stop875" />
      <stop
         style="stop-color:#4c4c4c;stop-opacity:1;"
         offset="1.00000000"
         id="stop876" />
    </linearGradient>
    <linearGradient
       id="linearGradient584">
      <stop
         style="stop-color:#ffffff;stop-opacity:1;"
         offset="0.00000000"
         id="stop585" />
      <stop
         style="stop-color:#ffffff;stop-opacity:0;"
         offset="1.00000000"
         id="stop586" />
    </linearGradient>
    <linearGradient
       id="linearGradient578">
      <stop
         style="stop-color:#d9cce6;stop-opacity:1;"
         offset="0.00000000"
         id="stop579" />
      <stop
         style="stop-color:#73667f;stop-opacity:1;"
         offset="1.00000000"
         id="stop580" />
    </linearGradient>
    <linearGradient
       xlink:href="#linearGradient578"
       id="linearGradient581"
       x1="0.00000000"
       y1="-0.00000000"
       x2="0.96666664"
       y2="0.98437500" />
    <linearGradient
       xlink:href="#linearGradient878"
       id="linearGradient583"
       x1="-0.00000000"
       y1="0.00000000"
       x2="1.00000000"
       y2="1.02343750" />
    <linearGradient
       xlink:href="#linearGradient874"
       id="linearGradient877"
       x1="-0.00000000"
       y1="-0.00000000"
       x2="1.00446427"
       y2="1.03906250" />
    <linearGradient
       xlink:href="#linearGradient584"
       id="linearGradient882"
       x1="0.00000000"
       y1="0.00000000"
       x2="0.97142857"
       y2="0.99218750" />
    <linearGradient
       xlink:href="#linearGradient584"
       id="linearGradient884"
       x1="0.00431034"
       y1="0.00781250"
       x2="1.00862074"
       y2="0.98437500" />
    <linearGradient
       xlink:href="#linearGradient645"
       id="linearGradient644"
       x1="-0.00000000"
       y1="0.00000000"
       x2="1.00000000"
       y2="0.00000000" />
    <linearGradient
       xlink:href="#linearGradient584"
       id="linearGradient648"
       x1="0.00000000"
       y1="0.00000000"
       x2="0.96666664"
       y2="0.98437500" />
    <linearGradient
       xlink:href="#linearGradient584"
       id="linearGradient649"
       x1="-0.00000000"
       y1="0.00000000"
       x2="1.00000000"
       y2="0.00000000" />
    <linearGradient
       xlink:href="#linearGradient584"
       id="linearGradient650"
       x1="0.00000000"
       y1="0.00000000"
       x2="1.00000000"
       y2="1.02343750" />
  </defs>
  <sodipodi:namedview
     id="base"
     pagecolor="#ffffff"
     bordercolor="#666666"
     borderopacity="1.0"
     inkscape:pageopacity="0.0"
     inkscape:pageshadow="2"
     inkscape:zoom="1"
     inkscape:cx="10.5812988"
     inkscape:cy="33.2112427"
     inkscape:window-width="1018"
     inkscape:window-height="711"
     inkscape:window-x="0"
     inkscape:window-y="30" />
  <g
     id="g941"
     style="opacity:0.302675;"
     transform="matrix(0.874883,0.000000,0.000000,0.838350,-23.80849,-2.869292)">
    <path
       sodipodi:type="arc"
       style="font-size:12;fill-rule:evenodd;stroke-width:1pt;"
       id="path916"
       sodipodi:cx="47.30889511"
       sodipodi:cy="46.52793121"
       sodipodi:rx="2.81973553"
       sodipodi:ry="2.81973553"
       d="M 50.128631 46.527931 A 2.819736 2.819736 0 1 0 44.489160,46.527931 A 2.81974 2.81974 0 1 0 50.1286 46.5279 L 47.308895 46.527931 z"
       transform="matrix(0.842865,0.000000,0.000000,0.842865,9.924563,8.850802)" />
    <path
       sodipodi:type="arc"
       style="font-size:12;fill-rule:evenodd;stroke-width:1pt;"
       id="path917"
       sodipodi:cx="46.76061249"
       sodipodi:cy="30.47110367"
       sodipodi:rx="3.21136546"
       sodipodi:ry="3.21136546"
       d="M 49.971978 30.471104 A 3.211365 3.211365 0 1 0 43.549247,30.471104 A 3.21137 3.21137 0 1 0 49.972 30.4711 L 46.760612 30.471104 z"
       transform="translate(0.939912,1.096564)" />
    <path
       sodipodi:type="arc"
       style="font-size:12;fill-rule:evenodd;stroke-width:1pt;"
       id="path918"
       sodipodi:cx="54.82818985"
       sodipodi:cy="23.97004700"
       sodipodi:rx="1.40986776"
       sodipodi:ry="1.40986776"
       d="M 56.238058 23.970047 A 1.409868 1.409868 0 1 0 53.418322,23.970047 A 1.40987 1.40987 0 1 0 56.2381 23.97 L 54.828190 23.970047 z"
       transform="translate(0.939912,1.096564)" />
    <path
       sodipodi:type="arc"
       style="font-size:12;fill-rule:evenodd;stroke-width:1pt;"
       id="path919"
       sodipodi:cx="55.76810074"
       sodipodi:cy="36.65885544"
       sodipodi:rx="1.40986776"
       sodipodi:ry="1.40986776"
       d="M 57.177969 36.658855 A 1.409868 1.409868 0 1 0 54.358233,36.658855 A 1.40987 1.40987 0 1 0 57.178 36.6589 L 55.768101 36.658855 z"
       transform="translate(0.939912,1.096564)" />
    <path
       sodipodi:type="arc"
       style="font-size:12;fill-rule:evenodd;stroke-width:1pt;"
       id="path920"
       sodipodi:cx="38.06642914"
       sodipodi:cy="52.63735580"
       sodipodi:rx="1.56651974"
       sodipodi:ry="1.56651974"
       d="M 39.632949 52.637356 A 1.566520 1.566520 0 1 0 36.499909,52.637356 A 1.56652 1.56652 0 1 0 39.6329 52.6374 L 38.066429 52.637356 z"
       transform="translate(0.939912,1.096564)" />
    <path
       sodipodi:type="arc"
       style="font-size:12;fill-rule:evenodd;stroke-width:1pt;"
       id="path921"
       sodipodi:cx="41.66942596"
       sodipodi:cy="24.12669945"
       sodipodi:rx="1.40986776"
       sodipodi:ry="1.40986776"
       d="M 43.079294 24.126699 A 1.409868 1.409868 0 1 0 40.259558,24.126699 A 1.40987 1.40987 0 1 0 43.0793 24.1267 L 41.669426 24.126699 z"
       transform="translate(0.939912,1.096564)" />
  </g>
  <path
     sodipodi:type="arc"
     style="font-size:12;fill:#261933;fill-rule:evenodd;stroke-width:1pt;"
     id="path896"
     sodipodi:cx="54.82818985"
     sodipodi:cy="23.97004700"
     sodipodi:rx="1.40986776"
     sodipodi:ry="1.40986776"
     d="M 56.238058 23.970047 A 1.409868 1.409868 0 1 0 53.418322,23.970047 A 1.40987 1.40987 0 1 0 56.2381 23.97 L 54.828190 23.970047 z"
     transform="matrix(0.874883,0.000000,0.000000,0.838350,-23.80849,-2.869292)" />
  <path
     sodipodi:type="arc"
     style="font-size:12;fill:#261933;fill-rule:evenodd;stroke-width:1pt;"
     id="path897"
     sodipodi:cx="55.76810074"
     sodipodi:cy="36.65885544"
     sodipodi:rx="1.40986776"
     sodipodi:ry="1.40986776"
     d="M 57.177969 36.658855 A 1.409868 1.409868 0 1 0 54.358233,36.658855 A 1.40987 1.40987 0 1 0 57.178 36.6589 L 55.768101 36.658855 z"
     transform="matrix(0.874883,0.000000,0.000000,0.838350,-23.80849,-2.869292)" />
  <path
     d="M 36.432201 32.233183 C 36.432201 34.557798 34.545625 36.444374 32.22101 36.444374 C 29.896393 36.444374 28.009717 34.557798 28.009717 32.233183 C 28.009717 29.908566 29.896393 28.02189 32.22101 28.02189 C 34.545625 28.02189 36.432201 29.908566 36.432201 32.233183 z M 58.982818 31.825584 C 58.982818 46.748073 46.871734 58.859054 31.949245 58.859054 C 17.026755 58.859054 4.9157633 46.748073 4.9157633 31.825584 C 4.9157633 16.903096 17.026755 4.7920124 31.949245 4.7920124 C 46.871734 4.7920124 58.982818 16.903096 58.982818 31.825584 z "
     style="font-size:12;opacity:0.302675;fill-rule:evenodd;stroke-width:12.5;"
     id="path782" />
  <path
     d="M 34.456011 29.777237 C 34.456011 32.053553 32.608632 33.900934 30.332315 33.900934 C 28.055997 33.900934 26.208519 32.053553 26.208519 29.777237 C 26.208519 27.50092 28.055997 25.653442 30.332315 25.653442 C 32.608632 25.653442 34.456011 27.50092 34.456011 29.777237 z M 56.538092 29.37811 C 56.538092 43.990553 44.67864 55.849905 30.066197 55.849905 C 15.453752 55.849905 3.5943893 43.990553 3.5943893 29.37811 C 3.5943893 14.765665 15.453752 2.9062637 30.066197 2.9062637 C 44.67864 2.9062637 56.538092 14.765665 56.538092 29.37811 z "
     style="font-size:12;fill:url(#linearGradient644);fill-rule:evenodd;stroke:#261933;stroke-width:1.875;stroke-dasharray:none;"
     id="path773" />
  <path
     d="M 9.3144093 43.079592 C 4.4337183 37.668484 1.3350183 15.208865 19.424234 6.8969491 C 34.101252 0.21169357 48.461839 10.925122 49.487786 13.947204 C 49.790352 14.799141 37.243667 4.1913374 22.217834 11.951862 C 0.16831326 23.240054 9.9147843 43.763853 9.3144093 43.079592 z "
     style="font-size:12;opacity:0.7;fill-rule:evenodd;stroke:none;stroke-width:0.0778586pt;fill:url(#linearGradient648);"
     id="path774" />
  <path
     d="M 40.134424 29.965213 C 40.134424 35.151502 35.288634 39.543296 30.293393 39.712257 C 24.730953 39.712257 20.079379 35.057513 20.264186 29.871225 C 20.455628 24.49706 24.730953 19.747931 30.293393 19.747931 C 35.479581 19.747931 40.329234 24.594416 40.134424 29.965213 z M 37.515629 29.910148 C 37.515629 33.948769 34.237926 37.226471 30.199305 37.226471 C 26.160683 37.226471 22.882981 33.948769 22.882981 29.910148 C 22.882981 25.871527 26.160683 22.593823 30.199305 22.593823 C 34.237926 22.593823 37.515629 25.871527 37.515629 29.910148 z "
     style="font-size:12;opacity:0.100892;fill:#3f003f;fill-rule:evenodd;stroke-width:1pt;"
     id="path779" />
  <path
     d="M 31.5295 24.921741 C 31.524251 25.298784 33.799777 26.781994 34.123537 26.584509 C 39.181468 22.459427 49.096681 16.279877 49.221768 12.084871 C 49.308229 9.1205285 34.399261 3.0763836 33.923972 3.8373315 C 31.875941 7.4028809 31.6431 18.205 31.5295 24.921741 z "
     style="font-size:12;fill:url(#linearGradient650);fill-rule:evenodd;stroke-width:1pt;"
     id="path780" />
  <path
     d="M 29.786311 34.404745 C 29.75244 34.029189 27.335585 32.789714 27.034012 33.019682 C 22.430668 37.646497 13.208929 44.820007 13.519021 49.005305 C 13.740076 51.962714 29.194948 56.429779 29.588827 55.6238 C 31.256449 51.865262 30.369157 41.097122 29.786311 34.404745 z "
     style="font-size:12;fill:url(#linearGradient649);fill-rule:evenodd;stroke-width:1pt;"
     id="path781" />
  <g
     id="g948"
     style="opacity:0.296369;"
     transform="matrix(0.910149,0.000000,0.000000,0.872143,-2.478183,-1.334343)">
    <path
       style="font-size:12;fill-rule:evenodd;stroke-width:1.875;"
       d="M 12.532158 4.8585064 C 11.228595 5.2094655 8.6045898 8.9633792 9.0858142 10.811281 C 11.215456 18.989106 15.185947 27.433344 19.11154 34.622381 C 19.519985 35.370377 23.097266 33.590541 23.02784 32.742557 C 22.366223 24.661379 21.917569 15.509993 19.111541 7.6782419 C 18.419009 5.7453532 13.943896 4.4784231 12.532158 4.8585064 z "
       id="path913"
       sodipodi:nodetypes="csssss"
       transform="translate(0.939912,1.096564)" />
    <path
       style="font-size:12;fill-rule:evenodd;stroke-width:1.875;"
       d="M 11.899875 44.399487 C 10.974365 47.739368 19.498965 54.202298 26.769035 55.303538 C 28.417373 55.547955 28.425249 50.795761 30.061492 49.532888 C 31.941924 48.081549 35.330598 48.541428 37.319059 47.160903 C 39.036086 45.968826 39.503318 43.107593 41.177959 41.815085 C 43.019993 40.393381 49.166267 39.205103 47.869081 39.018267 C 36.336198 37.334604 38.03153 31.085715 33.283143 31.796104 C 26.041794 32.879455 13.145735 39.903557 11.899875 44.399487 z "
       id="path914"
       sodipodi:nodetypes="csssssss"
       transform="translate(0.939912,1.096564)" />
    <path
       style="font-size:12;fill-rule:evenodd;stroke-width:1.875;"
       d="M 10.182378 44.021499 C 9.8057459 43.133723 16.924994 36.226047 21.148016 33.839121 C 25.331983 31.47427 35.042332 28.915211 35.403345 29.76617 C 35.773375 30.638382 28.17465 36.38563 23.8111 38.851984 C 19.767661 41.137406 10.536789 44.856895 10.182378 44.021499 z "
       id="path915"
       sodipodi:nodetypes="cssss"
       transform="translate(0.939912,1.096564)" />
  </g>
  <path
     style="font-size:12;fill:url(#linearGradient581);fill-rule:evenodd;stroke:#261933;stroke-width:1.60579;"
     d="M 8.0207338 3.5943984 C 6.8802681 3.8886252 4.5845682 7.0357209 5.005583 8.5849105 C 6.8687729 15.440794 10.342492 22.520027 13.776931 28.54696 C 14.134273 29.174043 17.263979 27.681917 17.20324 26.971008 C 16.624401 20.196148 16.231881 12.524079 13.776932 5.9583253 C 13.171048 4.3378869 9.2558422 3.2757554 8.0207338 3.5943984 z "
     id="path871"
     sodipodi:nodetypes="csssss" />
  <path
     style="font-size:12;fill:url(#linearGradient583);fill-rule:evenodd;stroke:#333300;stroke-width:1.60579;"
     d="M 7.4675606 36.743603 C 6.6578464 39.543594 14.115884 44.961796 20.476352 45.885021 C 21.918456 46.089928 21.925346 42.105924 23.35687 41.047192 C 25.002029 39.830462 27.966726 40.216002 29.706399 39.058638 C 31.208598 38.05926 31.617372 35.660543 33.082489 34.576968 C 34.694056 33.385081 40.071332 32.388888 38.936445 32.232254 C 28.84651 30.820754 30.329729 25.581994 26.17544 26.17755 C 19.840099 27.085777 8.557543 32.974438 7.4675606 36.743603 z "
     id="path873"
     sodipodi:nodetypes="csssssss" />
  <path
     style="font-size:12;fill:url(#linearGradient877);fill-rule:evenodd;stroke:#333333;stroke-width:1.60579;"
     d="M 5.9649503 36.426716 C 5.6354395 35.682449 11.863956 29.891394 15.558612 27.890314 C 19.219097 25.907739 27.714527 23.762351 28.030371 24.475753 C 28.354105 25.206972 21.706102 30.025182 17.888501 32.092851 C 14.350962 34.008835 6.2750177 37.127071 5.9649503 36.426716 z "
     id="path872"
     sodipodi:nodetypes="cssss" />
  <path
     style="fill:url(#linearGradient882);fill-rule:evenodd;stroke:none;stroke-opacity:1;stroke-width:1pt;stroke-linejoin:miter;stroke-linecap:butt;fill-opacity:1;"
     d="M 8.1577871 13.181435 C 8.0152946 13.135922 6.456423 9.5094874 6.5131591 7.7969352 C 6.5477909 6.7515727 7.5644242 5.3233126 8.4318922 4.9076912 C 9.1176843 4.5791134 11.124193 5.4242137 11.172938 5.5643376 C 11.215561 5.6868723 9.3031187 5.3073963 8.7059959 5.6956668 C 8.0239637 6.1391483 7.3981334 7.2039668 7.3354731 8.0595933 C 7.2153962 9.699223 8.2893997 13.223474 8.1577871 13.181435 z "
     id="path881"
     sodipodi:nodetypes="cssssss" />
  <path
     style="fill:url(#linearGradient884);fill-rule:evenodd;stroke:none;stroke-opacity:1;stroke-width:1pt;stroke-linejoin:miter;stroke-linecap:butt;fill-opacity:1;"
     d="M 8.9800996 34.456777 C 8.9332126 34.254596 13.726996 30.03026 16.517978 28.54696 C 19.163404 27.141016 25.244151 25.594248 25.289325 25.789045 C 25.33552 25.988236 19.539406 28.268825 16.792083 29.728923 C 14.102997 31.158071 9.0245805 34.648584 8.9800996 34.456777 z "
     id="path883"
     sodipodi:nodetypes="cssss" />
  <g
     id="g889"
     style="opacity:0.500000;"
     transform="matrix(0.874883,0.000000,0.000000,0.838350,-2.943448,-0.478734)">
    <path
       style="fill:#261933;fill-rule:evenodd;stroke:none;stroke-opacity:1;stroke-width:1pt;stroke-linejoin:miter;stroke-linecap:butt;fill-opacity:1;"
       d="M 40.259556 41.045112 C 39.412228 40.950964 31.984473 36.767645 30.703786 35.562293 C 30.209084 35.096691 33.761779 35.360014 34.933389 36.032249 C 36.947036 37.18762 40.822095 41.107616 40.259556 41.045112 z "
       id="path885"
       sodipodi:nodetypes="csss" />
    <path
       style="fill:#261933;fill-rule:evenodd;stroke:none;stroke-opacity:1;stroke-width:1pt;stroke-linejoin:miter;stroke-linecap:butt;fill-opacity:1;"
       d="M 26.317531 50.914186 C 25.470203 50.820038 18.042448 46.636719 16.761761 45.431367 C 16.267059 44.965765 19.819754 45.229088 20.991364 45.901323 C 23.005011 47.056694 26.88007 50.97669 26.317531 50.914186 z "
       id="path886"
       sodipodi:nodetypes="csss"
       transform="translate(-0.313304,-0.313304)" />
    <path
       style="fill:#261933;fill-rule:evenodd;stroke:none;stroke-opacity:1;stroke-width:1pt;stroke-linejoin:miter;stroke-linecap:butt;fill-opacity:1;"
       d="M 26.317531 50.914186 C 25.470203 50.820038 18.042448 46.636719 16.761761 45.431367 C 16.267059 44.965765 19.819754 45.229088 20.991364 45.901323 C 23.005011 47.056694 26.88007 50.97669 26.317531 50.914186 z "
       id="path887"
       sodipodi:nodetypes="csss"
       transform="translate(4.229603,-3.446343)" />
    <path
       style="fill:#261933;fill-rule:evenodd;stroke:none;stroke-opacity:1;stroke-width:1pt;stroke-linejoin:miter;stroke-linecap:butt;fill-opacity:1;"
       d="M 26.317531 50.914186 C 25.470203 50.820038 18.042448 46.636719 16.761761 45.431367 C 16.267059 44.965765 19.819754 45.229088 20.991364 45.901323 C 23.005011 47.056694 26.88007 50.97669 26.317531 50.914186 z "
       id="path888"
       sodipodi:nodetypes="csss"
       transform="translate(9.555770,-6.422731)" />
  </g>
  <path
     sodipodi:type="arc"
     style="font-size:12;fill:#261933;fill-rule:evenodd;stroke-width:1pt;"
     id="path894"
     sodipodi:cx="47.30889511"
     sodipodi:cy="46.52793121"
     sodipodi:rx="2.81973553"
     sodipodi:ry="2.81973553"
     d="M 50.128631 46.527931 A 2.819736 2.819736 0 1 0 44.489160,46.527931 A 2.81974 2.81974 0 1 0 50.1286 46.5279 L 47.308895 46.527931 z"
     transform="matrix(0.737409,0.000000,0.000000,0.706616,4.917072,6.022036)" />
  <path
     sodipodi:type="arc"
     style="font-size:12;fill:#261933;fill-rule:evenodd;stroke-width:1pt;"
     id="path895"
     sodipodi:cx="46.76061249"
     sodipodi:cy="30.47110367"
     sodipodi:rx="3.21136546"
     sodipodi:ry="3.21136546"
     d="M 49.971978 30.471104 A 3.211365 3.211365 0 1 0 43.549247,30.471104 A 3.21137 3.21137 0 1 0 49.972 30.4711 L 46.760612 30.471104 z"
     transform="matrix(0.874883,0.000000,0.000000,0.838350,-2.943448,-0.478734)" />
  <path
     sodipodi:type="arc"
     style="font-size:12;fill:#261933;fill-rule:evenodd;stroke-width:1pt;"
     id="path898"
     sodipodi:cx="38.06642914"
     sodipodi:cy="52.63735580"
     sodipodi:rx="1.56651974"
     sodipodi:ry="1.56651974"
     d="M 39.632949 52.637356 A 1.566520 1.566520 0 1 0 36.499909,52.637356 A 1.56652 1.56652 0 1 0 39.6329 52.6374 L 38.066429 52.637356 z"
     transform="matrix(0.874883,0.000000,0.000000,0.838350,-2.943448,-0.478734)" />
  <path
     sodipodi:type="arc"
     style="font-size:12;fill:#261933;fill-rule:evenodd;stroke-width:1pt;"
     id="path899"
     sodipodi:cx="41.66942596"
     sodipodi:cy="24.12669945"
     sodipodi:rx="1.40986776"
     sodipodi:ry="1.40986776"
     d="M 43.079294 24.126699 A 1.409868 1.409868 0 1 0 40.259558,24.126699 A 1.40987 1.40987 0 1 0 43.0793 24.1267 L 41.669426 24.126699 z"
     transform="matrix(0.874883,0.000000,0.000000,0.838350,-2.943448,-0.478734)" />
</svg>
