<?xml version="1.0" encoding="UTF-8" standalone="no"?>
<!-- Created with Inkscape (http://www.inkscape.org/) -->
<svg
   xmlns:dc="http://purl.org/dc/elements/1.1/"
   xmlns:cc="http://web.resource.org/cc/"
   xmlns:rdf="http://www.w3.org/1999/02/22-rdf-syntax-ns#"
   xmlns:svg="http://www.w3.org/2000/svg"
   xmlns="http://www.w3.org/2000/svg"
   xmlns:xlink="http://www.w3.org/1999/xlink"
   xmlns:sodipodi="http://inkscape.sourceforge.net/DTD/sodipodi-0.dtd"
   xmlns:inkscape="http://www.inkscape.org/namespaces/inkscape"
   id="svg1"
   sodipodi:version="0.32"
   inkscape:version="0.42.2"
   width="48pt"
   height="48pt"
   sodipodi:docbase="/home/jakob/dev/lila/lila-theme/trunk/lila/kde/scalable/actions"
   sodipodi:docname="contexthelp.svg">
  <metadata
     id="metadata45">
    <rdf:RDF>
      <cc:Work
         rdf:about="">
        <dc:format>image/svg+xml</dc:format>
        <dc:type
           rdf:resource="http://purl.org/dc/dcmitype/StillImage" />
      </cc:Work>
    </rdf:RDF>
  </metadata>
  <defs
     id="defs3">
    <linearGradient
       id="linearGradient702">
      <stop
         style="stop-color:#dbb73a;stop-opacity:1;"
         offset="0.00000000"
         id="stop703" />
      <stop
         style="stop-color:#ffffe6;stop-opacity:1;"
         offset="1.00000000"
         id="stop704" />
    </linearGradient>
    <linearGradient
       id="linearGradient645">
      <stop
         style="stop-color:#ffffff;stop-opacity:1;"
         offset="0.00000000"
         id="stop646" />
      <stop
         style="stop-color:#d9cce6;stop-opacity:1;"
         offset="1.00000000"
         id="stop647" />
    </linearGradient>
    <linearGradient
       id="linearGradient878">
      <stop
         style="stop-color:#fff300;stop-opacity:1;"
         offset="0.00000000"
         id="stop879" />
      <stop
         style="stop-color:#997f00;stop-opacity:1;"
         offset="1.00000000"
         id="stop880" />
    </linearGradient>
    <linearGradient
       id="linearGradient874">
      <stop
         style="stop-color:#ffffff;stop-opacity:1;"
         offset="0.00000000"
         id="stop875" />
      <stop
         style="stop-color:#4c4c4c;stop-opacity:1;"
         offset="1.00000000"
         id="stop876" />
    </linearGradient>
    <linearGradient
       id="linearGradient584">
      <stop
         style="stop-color:#ffffff;stop-opacity:1;"
         offset="0.00000000"
         id="stop585" />
      <stop
         style="stop-color:#ffffff;stop-opacity:0;"
         offset="1.00000000"
         id="stop586" />
    </linearGradient>
    <linearGradient
       id="linearGradient578">
      <stop
         style="stop-color:#d9cce6;stop-opacity:1;"
         offset="0.00000000"
         id="stop579" />
      <stop
         style="stop-color:#73667f;stop-opacity:1;"
         offset="1.00000000"
         id="stop580" />
    </linearGradient>
    <linearGradient
       xlink:href="#linearGradient874"
       id="linearGradient581"
       x1="-0.00000000"
       y1="0.00000000"
       x2="1.00000000"
       y2="0.00000000" />
    <linearGradient
       xlink:href="#linearGradient584"
       id="linearGradient583"
       x1="-0.00000000"
       y1="0.00000000"
       x2="1.00000000"
       y2="0.00000000" />
    <linearGradient
       xlink:href="#linearGradient584"
       id="linearGradient877"
       x1="-0.00000000"
       y1="0.00000000"
       x2="1.00000000"
       y2="0.00000000" />
    <linearGradient
       xlink:href="#linearGradient702"
       id="linearGradient882"
       x1="0.00000000"
       y1="-0.00000000"
       x2="1.00000000"
       y2="-0.00000000" />
    <linearGradient
       xlink:href="#linearGradient645"
       id="linearGradient884"
       x1="0.16504854"
       y1="0.16197184"
       x2="1.11650491"
       y2="0.59859157" />
    <linearGradient
       xlink:href="#linearGradient874"
       id="linearGradient644"
       x1="0.16504854"
       y1="0.16197184"
       x2="1.11650491"
       y2="0.59859157" />
    <linearGradient
       xlink:href="#linearGradient584"
       id="linearGradient648"
       x1="0.00000000"
       y1="0.00000000"
       x2="0.96666664"
       y2="0.98437500" />
    <linearGradient
       xlink:href="#linearGradient584"
       id="linearGradient649"
       x1="-0.00000000"
       y1="0.00000000"
       x2="1.00000000"
       y2="0.00000000" />
    <linearGradient
       xlink:href="#linearGradient584"
       id="linearGradient650"
       x1="0.00000000"
       y1="0.00000000"
       x2="1.00000000"
       y2="1.02343750" />
  </defs>
  <sodipodi:namedview
     id="base"
     pagecolor="#ffffff"
     bordercolor="#666666"
     borderopacity="1.0"
     inkscape:pageopacity="0.0"
     inkscape:pageshadow="2"
     inkscape:zoom="2.0000000"
     inkscape:cx="18.404373"
     inkscape:cy="26.304779"
     inkscape:window-width="1018"
     inkscape:window-height="711"
     inkscape:window-x="0"
     inkscape:window-y="30"
     inkscape:current-layer="svg1" />
  <path
     style="fill:#000000;fill-rule:evenodd;stroke:none;stroke-opacity:1;stroke-width:1pt;stroke-linejoin:miter;stroke-linecap:butt;fill-opacity:0.3;"
     d="M 11.605648 11.048704 C 10.133352 12.267572 10.317389 42.251742 11.329592 43.226837 C 12.433814 43.714384 20.43942 39.326457 24.58025 35.913624 C 29.641265 43.145579 34.978336 53.302818 36.450631 56.878166 C 36.174576 58.178292 47.492847 53.140303 46.388625 52.002692 C 46.572662 51.515145 40.131371 39.082683 33.690078 32.98834 C 38.475037 31.850729 49.333216 31.200665 48.044957 29.575507 C 43.628071 24.618774 16.574644 9.5454317 11.605648 11.048704 z "
     id="path628"
     sodipodi:nodetypes="cccccccc" />
  <path
     style="font-size:12;fill:url(#linearGradient884);fill-opacity:1.00;fill-rule:evenodd;stroke:#261933;stroke-width:1.8750000;stroke-miterlimit:4.0000000;stroke-dasharray:none"
     d="M 8.0169272 9.8298346 C 6.5446317 11.048704 6.7286688 41.032874 7.7408718 42.007969 C 8.8450933 42.495516 16.8507 38.107589 20.99153 34.694756 C 26.052545 41.92671 31.389616 52.08395 32.861912 55.659297 C 32.585856 56.959424 43.904127 51.921435 42.799905 50.783824 C 42.983942 50.296277 36.542651 37.863815 30.101358 31.769472 C 34.886317 30.631861 45.744496 29.981797 44.456237 28.356639 C 40.039351 23.399906 12.985924 8.326563 8.0169272 9.8298346 z "
     id="path627"
     sodipodi:nodetypes="cccccccc" />
  <path
     style="font-size:12;fill-rule:evenodd;stroke:#3f3f00;stroke-width:1.39415;fill:url(#linearGradient882);"
     d="M 38.095523 29.586271 C 38.546226 30.171425 46.609153 30.174275 47.020733 29.586271 C 47.393089 29.1593 47.093278 24.81964 47.125734 23.811135 C 47.189607 21.721655 54.118684 20.207326 54.265904 12.05086 C 54.356055 6.9511468 49.537911 1.6120848 42.715631 1.6556138 C 34.802439 1.7067758 30.777914 7.3721308 30.850354 11.945857 C 30.791707 20.18332 38.092571 21.435376 38.095523 23.811135 C 38.047286 24.934109 37.593036 29.057153 38.095523 29.586271 z "
     id="path574"
     sodipodi:nodetypes="csssssss" />
  <path
     style="fill:#000000;fill-rule:evenodd;stroke:none;stroke-opacity:1;stroke-width:1pt;stroke-linejoin:miter;stroke-linecap:butt;fill-opacity:1;"
     d="M 41.258338 27.129906 C 40.950845 25.407949 41.333818 23.386302 40.838327 21.669778 C 40.353796 19.991223 38.017905 18.312986 38.318268 16.944667 C 38.647919 15.442919 41.243677 13.172338 42.728374 13.059577 C 44.00874 12.962333 46.21804 14.956457 46.613463 16.314654 C 47.023058 17.721523 45.432066 19.638971 45.143429 21.354769 C 44.802052 23.38406 45.118006 25.789447 44.723417 27.549916 C 44.662996 27.819496 43.802336 27.722618 43.778396 27.444913 C 43.627333 25.69257 43.911159 23.432205 44.198406 21.459773 C 44.436171 19.827121 45.656218 18.022474 45.353432 16.62966 C 45.131208 15.607418 43.534863 14.121908 42.623369 14.214603 C 41.469812 14.331913 39.312523 16.09433 39.158288 17.259674 C 38.997517 18.474388 41.280808 19.85636 41.678346 21.354769 C 42.190831 23.28644 42.013114 25.834422 41.888351 27.549916 C 41.873111 27.759468 41.300853 27.367994 41.258338 27.129906 z "
     id="path584"
     sodipodi:nodetypes="cssssssssssssss" />
  <path
     style="font-size:12;fill-rule:evenodd;stroke:#3f3f3f;stroke-width:1.39415;fill:url(#linearGradient581);"
     d="M 37.360505 25.596177 C 37.916978 24.824552 46.970826 24.903897 47.650748 25.70118 C 48.242441 26.486381 48.446098 36.538566 47.860753 37.25145 C 47.322579 37.807192 37.783878 37.925431 37.255504 37.251448 C 36.651686 36.608919 36.904478 26.269532 37.360505 25.596177 z "
     id="path575"
     sodipodi:nodetypes="cssss" />
  <path
     style="fill:#000000;fill-rule:evenodd;stroke:none;stroke-opacity:1;stroke-width:1pt;stroke-linejoin:miter;stroke-linecap:butt;fill-opacity:1;opacity:0.302675;"
     d="M 38.515534 27.06621 C 38.781867 26.818902 44.906364 26.777603 46.705725 27.171213 C 47.146416 27.267616 45.85208 28.544149 45.235691 28.536246 C 43.122015 28.509149 38.291853 27.273912 38.515534 27.06621 z "
     id="path585"
     sodipodi:nodetypes="csss" />
  <path
     style="fill:#000000;fill-rule:evenodd;stroke:none;stroke-opacity:1;stroke-width:1pt;stroke-linejoin:miter;stroke-linecap:butt;fill-opacity:1;opacity:0.296369;"
     d="M 38.515534 29.586271 C 38.781867 29.338961 44.906364 29.297662 46.705725 29.691275 C 47.146416 29.787674 45.85208 31.064209 45.235691 31.056306 C 43.122015 31.029207 38.291853 29.793971 38.515534 29.586271 z "
     id="path588"
     sodipodi:nodetypes="csss" />
  <path
     style="fill:#000000;fill-rule:evenodd;stroke:none;stroke-opacity:1;stroke-width:1pt;stroke-linejoin:miter;stroke-linecap:butt;fill-opacity:1;opacity:0.296369;"
     d="M 38.410532 32.211331 C 38.676866 31.964022 44.801362 31.922722 46.600723 32.316334 C 47.041413 32.412733 45.747078 33.689268 45.130689 33.681365 C 43.017012 33.654267 38.186854 32.419032 38.410532 32.211331 z "
     id="path589"
     sodipodi:nodetypes="csss" />
  <path
     style="fill:#000000;fill-rule:evenodd;stroke:none;stroke-opacity:1;stroke-width:1pt;stroke-linejoin:miter;stroke-linecap:butt;fill-opacity:1;opacity:0.300000;"
     d="M 38.515534 34.836393 C 38.781867 34.589084 44.906364 34.547785 46.705725 34.941395 C 47.146416 35.037797 45.85208 36.314333 45.235691 36.306428 C 43.122015 36.279329 38.291853 35.044094 38.515534 34.836393 z "
     id="path590"
     sodipodi:nodetypes="csss" />
  <path
     style="fill:url(#linearGradient583);fill-rule:evenodd;stroke:none;stroke-opacity:1;stroke-width:1pt;stroke-linejoin:miter;stroke-linecap:butt;fill-opacity:1;opacity:0.699936;"
     d="M 33.886903 17.590289 C 33.565357 17.188358 31.006952 10.225564 35.371862 6.1561048 C 39.969979 1.8591758 48.127428 4.2810568 48.439501 4.6711478 C 48.721413 5.0235358 43.211942 2.6639508 37.153811 8.3835448 C 32.233376 12.917879 34.15934 17.930839 33.886903 17.590289 z "
     id="path613"
     sodipodi:nodetypes="cssss" />
  <path
     style="fill:url(#linearGradient877);fill-rule:evenodd;stroke:none;stroke-opacity:1;stroke-width:1pt;stroke-linejoin:miter;stroke-linecap:butt;fill-opacity:1;"
     d="M 46.954541 20.708706 C 47.104479 20.808665 50.266376 19.578861 51.57593 16.402325 C 52.887066 12.98289 51.859912 9.2283568 51.706411 9.1260248 C 51.562919 9.0303648 52.010511 11.249419 50.369949 15.808342 C 48.938327 20.18258 46.807486 20.61067 46.954541 20.708706 z "
     id="path618"
     sodipodi:nodetypes="cssss" />
  <path
     style="fill:#000000;fill-rule:evenodd;stroke:none;stroke-opacity:1;stroke-width:1pt;stroke-linejoin:miter;stroke-linecap:butt;fill-opacity:1;opacity:0.296369;"
     d="M 36.559827 40.310166 C 36.63558 39.931412 40.629085 39.641402 42.64816 39.716183 C 44.638475 39.789898 48.659489 40.398191 48.587997 40.755653 C 48.510994 41.14067 44.307911 42.021591 42.202674 41.943621 C 40.298524 41.873097 36.487084 40.673891 36.559827 40.310166 z "
     id="path629"
     sodipodi:nodetypes="cssss" />
  <path
     style="font-size:12;opacity:0.145032;fill-rule:evenodd;stroke:none;stroke-width:0.129441pt;"
     d="M 30.916984 40.755653 C 30.992619 41.612853 38.642855 43.304649 42.499665 43.280085 C 46.41414 43.255152 54.303949 41.435741 54.230843 40.607157 C 54.155454 39.752787 46.100716 38.205449 42.054176 38.231222 C 38.329432 38.254947 30.844123 39.929899 30.916984 40.755653 z "
     id="path630"
     sodipodi:nodetypes="cssss" />
</svg>
