<?xml version="1.0" encoding="UTF-8" standalone="no"?>
<!-- Created with Inkscape (http://www.inkscape.org/) -->
<svg
   xmlns:dc="http://purl.org/dc/elements/1.1/"
   xmlns:cc="http://web.resource.org/cc/"
   xmlns:rdf="http://www.w3.org/1999/02/22-rdf-syntax-ns#"
   xmlns:svg="http://www.w3.org/2000/svg"
   xmlns="http://www.w3.org/2000/svg"
   xmlns:xlink="http://www.w3.org/1999/xlink"
   xmlns:sodipodi="http://inkscape.sourceforge.net/DTD/sodipodi-0.dtd"
   xmlns:inkscape="http://www.inkscape.org/namespaces/inkscape"
   id="svg1"
   sodipodi:version="0.32"
   inkscape:version="0.42.2"
   width="48.000000pt"
   height="48.000000pt"
   sodipodi:docbase="/home/jakob/dev/lila/lila-theme/trunk/lila/kde/scalable/actions"
   sodipodi:docname="contents2.svg">
  <metadata
     id="metadata32">
    <rdf:RDF>
      <cc:Work
         rdf:about="">
        <dc:format>image/svg+xml</dc:format>
        <dc:type
           rdf:resource="http://purl.org/dc/dcmitype/StillImage" />
      </cc:Work>
    </rdf:RDF>
  </metadata>
  <defs
     id="defs3">
    <linearGradient
       id="linearGradient841">
      <stop
         style="stop-color:#ffffff;stop-opacity:1.0000000;"
         offset="0.0000000"
         id="stop842" />
      <stop
         style="stop-color:#ffffff;stop-opacity:0.0000000;"
         offset="1.0000000"
         id="stop843" />
    </linearGradient>
    <linearGradient
       id="linearGradient834">
      <stop
         style="stop-color:#d9cce6;stop-opacity:1.0000000;"
         offset="0.0000000"
         id="stop835" />
      <stop
         style="stop-color:#73667f;stop-opacity:1.0000000;"
         offset="1.0000000"
         id="stop836" />
    </linearGradient>
    <linearGradient
       id="linearGradient829">
      <stop
         style="stop-color:#f50000;stop-opacity:1.0000000;"
         offset="0.0000000"
         id="stop830" />
      <stop
         style="stop-color:#a80000;stop-opacity:1.0000000;"
         offset="1.0000000"
         id="stop831" />
    </linearGradient>
    <linearGradient
       xlink:href="#linearGradient829"
       id="linearGradient832"
       x1="0.51162791"
       y1="0.0095693776"
       x2="0.53488374"
       y2="0.74641150" />
    <linearGradient
       xlink:href="#linearGradient834"
       id="linearGradient833"
       x1="5.7716726"
       y1="29.899258"
       x2="35.667502"
       y2="29.755064"
       gradientTransform="matrix(1.051547,0.000000,0.000000,0.950980,0.000000,4.625000)"
       gradientUnits="userSpaceOnUse" />
    <linearGradient
       xlink:href="#linearGradient841"
       id="linearGradient840"
       x1="0.50604159"
       y1="0.46514577"
       x2="0.50007290"
       y2="-0.12972745"
       spreadMethod="reflect" />
    <radialGradient
       xlink:href="#linearGradient841"
       id="radialGradient844"
       cx="0.50000000"
       cy="0.50000000"
       r="0.50000000"
       fx="0.50000000"
       fy="0.50000000" />
    <linearGradient
       xlink:href="#linearGradient841"
       id="linearGradient849"
       x1="-1.6928485"
       y1="69.326739"
       x2="17.223478"
       y2="91.098075"
       gradientTransform="matrix(2.147100,0.000000,0.000000,0.465745,0.000000,4.625000)"
       gradientUnits="userSpaceOnUse" />
    <linearGradient
       xlink:href="#linearGradient841"
       id="linearGradient854"
       x1="-1.5699079"
       y1="-6.0254327"
       x2="34.204351"
       y2="28.926162"
       gradientTransform="matrix(1.111879,0.000000,0.000000,0.899379,0.000000,4.625000)"
       gradientUnits="userSpaceOnUse" />
    <linearGradient
       xlink:href="#linearGradient834"
       id="linearGradient922"
       x1="4.8208952"
       y1="24.082205"
       x2="50.163210"
       y2="24.082205"
       gradientTransform="matrix(1.022903,0.000000,0.000000,0.977609,0.000000,4.625000)"
       gradientUnits="userSpaceOnUse" />
  </defs>
  <sodipodi:namedview
     id="base"
     pagecolor="#ffffff"
     bordercolor="#666666"
     borderopacity="1.0"
     inkscape:pageopacity="0.0"
     inkscape:pageshadow="2"
     inkscape:zoom="8.0000000"
     inkscape:cx="23.482422"
     inkscape:cy="31.101894"
     inkscape:window-width="754"
     inkscape:window-height="711"
     inkscape:window-x="61"
     inkscape:window-y="70"
     inkscape:current-layer="svg1" />
  <path
     style="fill:#000000;fill-opacity:0.29770991;fill-rule:evenodd;stroke:none;stroke-width:1.7712934"
     d="M 19.892947,13.473679 C 18.930334,13.473679 18.155375,14.248637 18.155375,15.211250 L 7.1853097,50.090244 L 8.1944444,52.009924 L 42.643607,57.503909 C 43.606220,57.503909 44.381178,56.728951 44.381178,55.766339 L 56.079682,20.705233 C 56.079682,19.742620 55.304724,18.967662 54.342111,18.967662 L 19.892947,13.473679 z "
     id="path1026"
     sodipodi:nodetypes="ccccccccc" />
  <path
     style="fill:url(#linearGradient833);fill-rule:evenodd;stroke:#261933;stroke-width:1.8750000;stroke-dasharray:none;stroke-opacity:1.0000000"
     d="M 19.127448,12.060197 C 18.209290,12.060197 17.470122,12.799363 17.470122,13.717520 L 7.0066859,46.985699 L 7.9692167,48.816723 L 40.827414,54.056979 C 41.745571,54.056979 42.484739,53.317812 42.484739,52.399655 L 53.642971,18.957775 C 53.642971,18.039617 52.903804,17.300451 51.985646,17.300451 L 19.127448,12.060197 z "
     id="path866"
     sodipodi:nodetypes="ccccccccc" />
  <path
     style="fill:#ffffff;fill-rule:evenodd;stroke:#261933;stroke-width:0.98454994;stroke-opacity:1.0000000"
     d="M 20.729416,10.980793 C 19.811258,10.980793 19.072089,11.719961 19.072089,12.638118 L 7.9138567,46.079998 C 7.9138567,46.998157 8.6530245,47.737324 9.5711820,47.737324 L 38.172876,51.240591 C 39.091034,51.240591 39.830202,50.501424 39.830202,49.583266 L 50.988434,16.141385 C 50.988434,15.223227 50.249267,14.484060 49.331108,14.484060 L 20.729416,10.980793 z "
     id="path856"
     sodipodi:nodetypes="ccccccccc" />
  <path
     style="fill:#ffffff;fill-rule:evenodd;stroke:#261933;stroke-width:0.98454994;stroke-opacity:1.0000000"
     d="M 20.635427,9.6432929 C 19.717268,9.6432929 18.978101,10.382460 18.978101,11.300621 L 7.8198693,44.742500 C 7.8198693,45.660658 8.5590370,46.399827 9.4771941,46.399827 L 36.877273,49.078765 C 37.795430,49.078765 38.534599,48.339598 38.534599,47.421440 L 49.692830,13.979560 C 49.692830,13.061399 48.953663,12.322233 48.035504,12.322233 L 20.635427,9.6432929 z "
     id="path855"
     sodipodi:nodetypes="ccccccccc" />
  <path
     style="fill:#ffffff;fill-rule:evenodd;stroke:#261933;stroke-width:0.98455000;stroke-opacity:1.0000000"
     d="M 20.288028,8.1072657 C 19.369870,8.1072657 18.630702,8.8464344 18.630702,9.7645900 L 7.4724707,43.206473 C 7.4724707,44.124632 8.2116379,44.863798 9.1297970,44.863798 L 36.182474,46.948186 C 37.100634,46.948186 37.839800,46.209019 37.839800,45.290860 L 48.998032,11.848978 C 48.998032,10.930822 48.258865,10.191654 47.340708,10.191654 L 20.288028,8.1072657 z "
     id="path826"
     sodipodi:nodetypes="ccccccccc" />
  <path
     style="fill:url(#linearGradient922);fill-opacity:1.0000000;fill-rule:evenodd;stroke:#261933;stroke-width:1.8750000;stroke-dasharray:none;stroke-opacity:1.0000000"
     d="M 18.900362,6.9419532 C 17.982206,6.9419532 17.232852,7.6565654 17.232852,8.5747235 L 6.2203372,41.612267 C 5.5224122,43.706043 6.0573930,46.013468 6.1854409,47.905752 C 6.2098357,48.728204 7.9844685,49.400588 8.9300414,49.393981 L 8.8431913,46.464285 C 8.7386452,42.937622 9.3452458,43.512748 12.695343,43.534588 L 37.555631,43.696655 C 38.473789,43.696653 39.223141,42.947302 39.223141,42.029145 L 50.374615,8.5747235 C 50.374616,7.6565653 49.660001,6.9419532 48.741844,6.9419532 L 18.900362,6.9419532 z "
     id="path924"
     sodipodi:nodetypes="ccsccssccccc" />
  <path
     style="fill:url(#linearGradient854);fill-opacity:0.29999998;fill-rule:evenodd;stroke:none;stroke-width:1.7712935"
     d="M 10.115772,37.207391 C 11.784899,33.770036 16.751262,15.960833 22.987203,12.005687 C 27.132753,9.4918436 42.981830,9.6119041 45.560502,8.7862944 C 46.357957,8.5689579 28.561542,8.1979559 20.092033,9.5436941 C 18.040560,11.422577 9.0740695,39.390970 10.115772,37.207391 z "
     id="path910"
     sodipodi:nodetypes="csscs" />
  <path
     style="fill:url(#linearGradient849);fill-opacity:1.0000000;fill-rule:evenodd;stroke:none;stroke-width:1.0000000pt;stroke-linecap:butt;stroke-linejoin:miter;stroke-opacity:1.0000000"
     d="M 7.2997398,47.245052 C 7.4585688,47.149755 7.6344225,42.972633 8.8506869,42.453430 C 15.621162,40.246927 37.277712,42.208353 37.277712,41.890186 C 37.277712,41.571456 9.1788295,39.972305 7.9647343,41.132170 C 7.0965021,42.049454 7.0384013,47.401854 7.2997398,47.245052 z "
     id="path925"
     sodipodi:nodetypes="cssss" />
</svg>
