<?xml version="1.0" encoding="UTF-8" standalone="no"?>
<!-- Created with Inkscape (http://www.inkscape.org/) -->
<svg
   xmlns:dc="http://purl.org/dc/elements/1.1/"
   xmlns:cc="http://web.resource.org/cc/"
   xmlns:rdf="http://www.w3.org/1999/02/22-rdf-syntax-ns#"
   xmlns:svg="http://www.w3.org/2000/svg"
   xmlns="http://www.w3.org/2000/svg"
   xmlns:xlink="http://www.w3.org/1999/xlink"
   xmlns:sodipodi="http://sodipodi.sourceforge.net/DTD/sodipodi-0.dtd"
   xmlns:inkscape="http://www.inkscape.org/namespaces/inkscape"
   id="svg1"
   sodipodi:version="0.32"
   inkscape:version="0.44"
   width="48pt"
   height="48pt"
   sodipodi:docbase="/home/jakob/dev/lila/lila-kde/scalable/actions"
   sodipodi:docname="dynamic.svg"
   inkscape:export-filename="/home/jakob/dev/lila/lila-kde/scalable/actions/dynamic.png"
   inkscape:export-xdpi="24"
   inkscape:export-ydpi="24">
  <metadata
     id="metadata19">
    <rdf:RDF>
      <cc:Work
         rdf:about="">
        <dc:format>image/svg+xml</dc:format>
        <dc:type
           rdf:resource="http://purl.org/dc/dcmitype/StillImage" />
      </cc:Work>
    </rdf:RDF>
  </metadata>
  <defs
     id="defs3">
    <linearGradient
       id="linearGradient6333">
      <stop
         id="stop6335"
         offset="0"
         style="stop-color:blue;stop-opacity:1;" />
      <stop
         id="stop6337"
         offset="1"
         style="stop-color:#00007f;stop-opacity:1;" />
    </linearGradient>
    <linearGradient
       id="linearGradient2786">
      <stop
         style="stop-color:#f50000;stop-opacity:1;"
         offset="0"
         id="stop2788" />
      <stop
         style="stop-color:#a90000;stop-opacity:1;"
         offset="1"
         id="stop2790" />
    </linearGradient>
    <linearGradient
       id="linearGradient4567">
      <stop
         id="stop4569"
         offset="0"
         style="stop-color:white;stop-opacity:1;" />
      <stop
         id="stop4571"
         offset="1"
         style="stop-color:#d9cce6;stop-opacity:1;" />
    </linearGradient>
    <linearGradient
       id="linearGradient3672">
      <stop
         id="stop3674"
         offset="0"
         style="stop-color:#fff300;stop-opacity:1;" />
      <stop
         id="stop3676"
         offset="1"
         style="stop-color:#d7a600;stop-opacity:1;" />
    </linearGradient>
    <linearGradient
       id="linearGradient2775">
      <stop
         style="stop-color:#7fff7f;stop-opacity:1;"
         offset="0"
         id="stop2777" />
      <stop
         style="stop-color:#3fbf3f;stop-opacity:1;"
         offset="1"
         id="stop2779" />
    </linearGradient>
    <linearGradient
       id="linearGradient584">
      <stop
         style="stop-color:#ffffff;stop-opacity:1;"
         offset="0.00000000"
         id="stop585" />
      <stop
         style="stop-color:#ffffff;stop-opacity:0;"
         offset="1.00000000"
         id="stop586" />
    </linearGradient>
    <linearGradient
       id="linearGradient578">
      <stop
         style="stop-color:#d9cce6;stop-opacity:1;"
         offset="0.00000000"
         id="stop579" />
      <stop
         style="stop-color:#73667f;stop-opacity:1;"
         offset="1.00000000"
         id="stop580" />
    </linearGradient>
    <linearGradient
       xlink:href="#linearGradient578"
       id="linearGradient581"
       x1="0.01986755"
       y1="0.01342282"
       x2="0.97350991"
       y2="0.96644294" />
    <linearGradient
       xlink:href="#linearGradient578"
       id="linearGradient583"
       x1="49.033117"
       y1="47.092300"
       x2="5.0077994"
       y2="2.1716101"
       gradientTransform="matrix(1.108364,0.000000,0.000000,0.943070,-0.460072,-0.590200)"
       gradientUnits="userSpaceOnUse" />
    <linearGradient
       xlink:href="#linearGradient584"
       id="linearGradient860"
       x1="0.01449275"
       y1="0.01342282"
       x2="0.68115944"
       y2="0.58389264" />
    <linearGradient
       xlink:href="#linearGradient584"
       id="linearGradient861"
       x1="0.00000000"
       y1="0.00000000"
       x2="1.00000000"
       y2="1.02343750" />
    <linearGradient
       xlink:href="#linearGradient578"
       id="linearGradient862"
       x1="-0.00000000"
       y1="0.00775194"
       x2="1.00000000"
       y2="0.99224806" />
    <radialGradient
       xlink:href="#linearGradient584"
       id="radialGradient1495"
       cx="28.413351"
       cy="26.279192"
       r="16.644560"
       fx="26.435614"
       fy="25.608942"
       gradientTransform="matrix(1.07304,-4.674921e-3,4.243864e-3,0.974099,-0.944458,0.254612)"
       gradientUnits="userSpaceOnUse" />
    <linearGradient
       inkscape:collect="always"
       xlink:href="#linearGradient578"
       id="linearGradient1079"
       gradientUnits="userSpaceOnUse"
       gradientTransform="matrix(1.019347,0,0,1.025427,-0.459469,-0.5902)"
       x1="1.5890244"
       y1="1.344602"
       x2="56.226261"
       y2="55.94619" />
    <linearGradient
       inkscape:collect="always"
       xlink:href="#linearGradient578"
       id="linearGradient2781"
       x1="34.02631"
       y1="25.840988"
       x2="54.572144"
       y2="36.743961"
       gradientUnits="userSpaceOnUse" />
    <linearGradient
       inkscape:collect="always"
       xlink:href="#linearGradient4567"
       id="linearGradient2785"
       gradientUnits="userSpaceOnUse"
       x1="45.967583"
       y1="50.337574"
       x2="43.639534"
       y2="16.012535"
       gradientTransform="matrix(0.373104,-0.635453,-0.869673,-0.232564,41.21605,46.68571)" />
    <linearGradient
       inkscape:collect="always"
       xlink:href="#linearGradient3672"
       id="linearGradient3680"
       gradientUnits="userSpaceOnUse"
       x1="50.729767"
       y1="14.425108"
       x2="34.548687"
       y2="52.192017"
       gradientTransform="matrix(-1.148024,0.133268,0.142557,1.073221,62.31123,-8.099929)" />
  </defs>
  <sodipodi:namedview
     id="base"
     pagecolor="#ffffff"
     bordercolor="#666666"
     borderopacity="1.0"
     inkscape:pageopacity="0.0"
     inkscape:pageshadow="2"
     inkscape:zoom="5.6568542"
     inkscape:cx="25.243274"
     inkscape:cy="40.222928"
     inkscape:window-width="1400"
     inkscape:window-height="976"
     inkscape:window-x="0"
     inkscape:window-y="0"
     inkscape:current-layer="svg1" />
  <path
     style="fill:url(#linearGradient2781);fill-rule:evenodd;stroke:none;stroke-width:1px;stroke-linecap:butt;stroke-linejoin:miter;stroke-opacity:1;fill-opacity:1.0"
     d="M 35.591328,51.979419 C 31.555648,48.771845 32.58361,26.163175 35.215363,22.278206 C 38.575169,17.318491 50.253952,10.74862 52.008454,13.505695 C 53.762956,16.26277 56.144066,38.068724 53.136349,42.204336 C 50.128631,46.339948 39.422513,55.024459 35.591328,51.979419 z "
     id="path1886"
     sodipodi:nodetypes="cssss" />
  <path
     style="fill:url(#linearGradient2785);fill-opacity:1.0;fill-rule:evenodd;stroke:none;stroke-width:1px;stroke-linecap:butt;stroke-linejoin:miter;stroke-opacity:1"
     d="M 9.2902069,11.980499 C 10.574019,15.290954 30.619721,19.895709 34.980296,19.126859 C 40.547187,18.145312 50.618243,12.251909 48.8751,10.495807 C 47.131956,8.7397042 29.056297,2.1553263 24.337473,3.1047934 C 19.618644,4.054261 8.0714506,8.8377903 9.2902069,11.980499 z "
     id="path2783"
     sodipodi:nodetypes="cssss" />
  <path
     sodipodi:nodetypes="cssss"
     id="path3678"
     d="M 28.861538,52.428705 C 33.037335,48.448439 32.268515,25.198568 28.693368,21.379863 C 24.129188,16.504745 6.1507516,10.132975 4.529581,13.325746 C 2.908409,16.518519 3.283424,40.238469 7.3259168,44.276065 C 11.36841,48.313661 24.897334,56.207282 28.861538,52.428705 z "
     style="fill:url(#linearGradient3680);fill-opacity:1.0;fill-rule:evenodd;stroke:none;stroke-width:1px;stroke-linecap:butt;stroke-linejoin:miter;stroke-opacity:1" />
  <path
     style="font-size:12.000000;opacity:0.29999998;fill:#000000;fill-opacity:1.0000000;fill-rule:evenodd;stroke:#000000;stroke-width:2.0565019;stroke-opacity:1.0000000"
     d="M 27.940313,2.2807621 C 20.762117,2.1416461 6.9676521,7.8099461 4.32478,12.734661 C 1.5100914,17.659377 1.5748368,44.877195 4.6675308,47.798072 C 7.7602237,50.718946 29.297431,58.971749 34.555404,58.971749 C 39.642151,58.971748 54.326394,49.608757 56.560008,45.227441 C 58.6218,40.846125 60.339498,13.816782 55.497478,10.164031 C 53.021725,8.2963561 35.118508,2.2480621 27.940313,2.2807621 z M 25.916417,6.0059437 C 29.292245,6.0059437 47.584379,10.192433 47.442834,12.014885 C 47.148764,13.796644 35.756561,18.213274 32.625195,18.213274 C 29.322014,18.213275 12.051211,13.942852 12.051211,11.701008 C 12.223027,9.4591664 22.712403,6.0059437 25.916417,6.0059437 z M 51.418744,17.533173 C 51.847095,17.552529 52.183798,17.681276 52.412723,17.910199 C 54.331941,19.829419 53.959949,40.937325 52.069971,43.170936 C 50.351808,45.404548 39.420626,52.868399 37.613155,50.54548 C 35.63387,48.394379 35.715726,26.66805 38.127281,24.256492 C 40.308497,22.075277 48.420293,17.397689 51.418744,17.533173 z M 10.425745,17.704549 C 14.696921,17.661786 27.008348,22.530799 29.00284,24.525291 C 31.191552,26.714004 31.761193,49.186563 30.065367,51.054205 C 28.36086,52.758713 13.139474,47.050018 9.9116189,43.822163 C 6.7605528,40.671095 7.4211756,19.783691 9.1575667,18.0473 C 9.3856073,17.819259 9.8155773,17.710658 10.425745,17.704549 z "
     id="path1704"
     sodipodi:nodetypes="ccsscscccscccsccsccscssc" />
  <path
     style="font-size:12.000000;fill:url(#linearGradient1079);fill-opacity:1.0;fill-rule:evenodd;stroke:#261933;stroke-width:2.0565019;stroke-opacity:1.0000000"
     d="M 26.690313,1.0307618 C 19.512117,0.89164542 5.7176521,6.5599458 3.07478,11.484661 C 0.26009146,16.409377 0.32483681,43.627195 3.4175308,46.548072 C 6.5102237,49.468946 28.047431,57.721749 33.305404,57.721749 C 38.392151,57.721748 53.076394,48.358757 55.310008,43.977441 C 57.3718,39.596125 59.089498,12.566782 54.247478,8.9140309 C 51.771725,7.0463559 33.868508,0.99806162 26.690313,1.0307618 z M 26.610961,4.5791666 C 32.739515,4.5791666 48.986029,8.9424326 48.844484,10.764885 C 48.550414,12.546644 34.153008,18.73104 31.021642,18.73104 C 27.718461,18.731041 8.5031137,13.930288 8.5031137,11.688444 C 8.6749297,9.4466026 20.658879,4.5791666 26.610961,4.5791666 z M 52.40016,15.599539 C 54.940732,17.53529 53.895377,39.998909 52.057408,42.27449 C 50.287236,44.466132 37.817072,54.270049 36.009601,51.94713 C 34.030316,49.796029 33.405066,25.241273 35.816621,22.829715 C 38.712961,21.014109 49.776832,13.600733 52.40016,15.599539 z M 28.8135,23.982398 C 31.002212,26.171111 31.571853,50.057883 29.876027,51.925525 C 28.17152,53.630033 10.47526,47.214232 7.2474053,43.986377 C 4.0963392,40.835309 4.0553128,16.503928 6.4933531,16.7973 C 12.44256,17.513175 23.134369,20.305005 28.8135,23.982398 z "
     id="path1492"
     sodipodi:nodetypes="ccsscscccsczcscszccsss" />
  <path
     style="fill:url(#radialGradient1495);fill-opacity:1;fill-rule:evenodd;stroke:none;stroke-width:1pt;stroke-linecap:butt;stroke-linejoin:miter;stroke-opacity:1;opacity:0.3"
     d="M 32.612836,46.421472 C 32.610425,42.649511 32.451889,25.127484 30.316809,22.746865 C 27.955234,20.367232 7.2614286,14.393748 14.232835,15.892251 C 21.091487,17.504495 28.456631,20.702698 32.039585,20.687089 C 35.735567,20.670986 47.237985,13.694529 48.425803,13.93128 C 49.726867,14.167538 36.973902,19.165104 34.253006,22.207681 C 31.645357,25.249763 33.035676,42.717099 32.612836,46.421472 z "
     id="path1494"
     sodipodi:nodetypes="czzzzzc" />
</svg>
