<?xml version="1.0" encoding="UTF-8" standalone="no"?>
<!-- Created with Inkscape (http://www.inkscape.org/) -->
<svg
   xmlns:dc="http://purl.org/dc/elements/1.1/"
   xmlns:cc="http://web.resource.org/cc/"
   xmlns:rdf="http://www.w3.org/1999/02/22-rdf-syntax-ns#"
   xmlns:svg="http://www.w3.org/2000/svg"
   xmlns="http://www.w3.org/2000/svg"
   xmlns:xlink="http://www.w3.org/1999/xlink"
   xmlns:sodipodi="http://inkscape.sourceforge.net/DTD/sodipodi-0.dtd"
   xmlns:inkscape="http://www.inkscape.org/namespaces/inkscape"
   id="svg1"
   sodipodi:version="0.32"
   inkscape:version="0.42"
   width="48pt"
   height="48pt"
   sodipodi:docbase="/home/jakob/dev/lila/lila-theme/trunk/lila/kde/scalable/actions"
   sodipodi:docname="exec.svg">
  <metadata
     id="metadata27">
    <rdf:RDF>
      <cc:Work
         rdf:about="">
        <dc:format>image/svg+xml</dc:format>
        <dc:type
           rdf:resource="http://purl.org/dc/dcmitype/StillImage" />
      </cc:Work>
    </rdf:RDF>
  </metadata>
  <defs
     id="defs3">
    <linearGradient
       id="linearGradient584">
      <stop
         style="stop-color:#ffffff;stop-opacity:1;"
         offset="0.00000000"
         id="stop585" />
      <stop
         style="stop-color:#ffffff;stop-opacity:0;"
         offset="1.00000000"
         id="stop586" />
    </linearGradient>
    <linearGradient
       id="linearGradient578">
      <stop
         style="stop-color:#d9cce6;stop-opacity:1;"
         offset="0.00000000"
         id="stop579" />
      <stop
         style="stop-color:#73667f;stop-opacity:1;"
         offset="1.00000000"
         id="stop580" />
    </linearGradient>
    <linearGradient
       xlink:href="#linearGradient578"
       id="linearGradient581"
       x1="2.5750709"
       y1="3.3635784"
       x2="55.380370"
       y2="57.819043"
       gradientTransform="matrix(1.010020,0.000000,0.000000,0.990079,-8.729992e-4,0.000000)"
       gradientUnits="userSpaceOnUse" />
    <linearGradient
       xlink:href="#linearGradient584"
       id="linearGradient583"
       x1="28.647336"
       y1="5.7433862"
       x2="34.586741"
       y2="11.653024"
       gradientTransform="matrix(0.917360,0.000000,0.000000,1.090085,-8.729992e-4,0.000000)"
       gradientUnits="userSpaceOnUse" />
    <linearGradient
       xlink:href="#linearGradient584"
       id="linearGradient599"
       x1="33.266012"
       y1="15.591816"
       x2="37.472938"
       y2="19.765874"
       gradientTransform="matrix(1.202197,0.000000,0.000000,0.831810,-8.729992e-4,0.000000)"
       gradientUnits="userSpaceOnUse" />
    <linearGradient
       xlink:href="#linearGradient584"
       id="linearGradient600"
       x1="7.5934420"
       y1="18.991820"
       x2="11.510380"
       y2="22.832042"
       gradientTransform="matrix(1.536823,0.000000,0.000000,0.650693,-8.729992e-4,0.000000)"
       gradientUnits="userSpaceOnUse" />
    <linearGradient
       xlink:href="#linearGradient584"
       id="linearGradient841"
       x1="4.6066618"
       y1="31.440343"
       x2="10.546287"
       y2="37.223252"
       gradientTransform="matrix(1.153109,0.000000,0.000000,0.867221,-8.729992e-4,0.000000)"
       gradientUnits="userSpaceOnUse" />
    <linearGradient
       xlink:href="#linearGradient584"
       id="linearGradient842"
       x1="11.678254"
       y1="40.226459"
       x2="15.932764"
       y2="44.481502"
       gradientTransform="matrix(0.988501,0.000000,0.000000,1.011632,-8.729992e-4,0.000000)"
       gradientUnits="userSpaceOnUse" />
    <linearGradient
       xlink:href="#linearGradient584"
       id="linearGradient845"
       x1="30.947666"
       y1="25.790283"
       x2="46.000210"
       y2="40.830765"
       gradientTransform="matrix(0.936107,0.000000,0.000000,1.068254,-8.729992e-4,0.000000)"
       gradientUnits="userSpaceOnUse" />
  </defs>
  <sodipodi:namedview
     id="base"
     pagecolor="#ffffff"
     bordercolor="#666666"
     borderopacity="1.0"
     inkscape:pageopacity="0.0"
     inkscape:pageshadow="2"
     inkscape:zoom="7.9794719"
     inkscape:cx="24.511603"
     inkscape:cy="33.551005"
     inkscape:window-width="895"
     inkscape:window-height="527"
     inkscape:window-x="188"
     inkscape:window-y="51"
     inkscape:current-layer="svg1" />
  <path
     d="M 57.941545,32.211842 C 58.077334,39.318638 51.885576,34.477965 48.772740,39.747730 C 45.745278,45.008455 54.719520,47.183123 49.894155,52.090038 C 44.934729,57.268529 43.976404,48.459099 38.636397,49.477236 C 32.706995,50.726786 38.342568,58.239547 31.371560,58.239547 C 25.213704,58.104111 30.260059,52.748456 24.513391,49.884250 C 18.627800,46.882690 17.522906,54.978414 12.848967,50.463210 C 7.6975984,45.477536 17.642350,44.801908 14.648092,39.883517 C 11.666702,34.898190 5.3436802,39.996179 5.0726251,32.754119 C 4.9370137,25.782939 12.205675,31.315408 14.512657,25.895948 C 16.743482,20.523255 8.7967582,17.987469 13.391066,14.231525 C 18.605373,10.122987 20.045298,18.858347 24.648998,16.844155 C 29.140733,14.955140 24.400379,6.7264137 31.371560,6.4551858 C 38.884845,6.3195755 33.327508,13.649434 38.094292,16.301876 C 42.786312,18.837310 46.149505,11.093832 50.165383,14.773627 C 54.317725,18.590080 46.899201,20.209086 48.230461,24.947005 C 49.631095,30.067423 57.399270,25.240834 57.941545,32.211842 z M 42.800221,33.543281 C 42.800221,41.003708 39.930973,44.050473 32.469850,44.050473 C 25.009416,44.050473 20.901051,40.826719 20.901051,33.366289 C 20.744399,26.688768 25.261700,22.505110 31.938870,22.505110 C 39.399999,22.505110 42.800221,26.082502 42.800221,33.543281 z "
     style="font-size:12.000000px;opacity:0.30267498;fill:#000000;fill-opacity:1.0000000;fill-rule:evenodd;stroke:none;stroke-width:2.1217699"
     id="path843"
     sodipodi:nodetypes="cccccccccccccccccccccc" />
  <path
     d="M 25.561219,42.032372 C 30.567056,43.135688 36.240833,43.439190 40.278979,38.539946 C 42.946974,35.407875 42.450308,26.342332 39.912336,22.183329 C 42.426714,24.743029 46.436856,35.834438 41.608056,40.140602 C 35.781852,45.445022 28.938049,44.276013 25.561219,42.032372 z "
     style="font-size:12.000000px;opacity:0.69993597;fill-rule:evenodd;stroke:#ffffff;stroke-width:0.16974100pt"
     id="path1580" />
  <path
     d="M 55.278514,29.539070 C 55.411085,36.477418 49.366086,31.751480 46.327032,36.896339 C 43.371328,42.032372 52.132859,44.155496 47.421866,48.946105 C 42.579991,54.001853 41.644380,45.401228 36.430944,46.395233 C 30.642083,47.615165 36.144080,54.949856 29.338301,54.949856 C 23.326401,54.817630 28.253145,49.588917 22.642687,46.792599 C 16.896598,43.862184 15.817893,51.766020 11.254738,47.357837 C 6.2254682,42.490335 15.934506,41.830721 13.011219,37.028908 C 10.100495,32.161745 3.9273434,37.138899 3.6627130,30.068493 C 3.5303159,23.262547 10.626693,28.663883 12.878994,23.372877 C 15.056943,18.127530 7.2985753,15.651848 11.783988,11.984929 C 16.874703,7.9737722 18.280498,16.502084 22.775080,14.535633 C 27.160350,12.691393 22.532354,4.6577063 29.338301,4.3929072 C 36.673503,4.2605112 31.247888,11.416635 35.901688,14.006208 C 40.482496,16.481546 43.765974,8.9216062 47.686666,12.514182 C 51.740587,16.240176 44.497900,17.820807 45.797606,22.446427 C 47.165042,27.445478 54.749092,22.733291 55.278514,29.539070 z M 40.496076,30.838950 C 40.496076,37.339287 36.754924,40.783793 30.410559,41.097097 C 23.753563,41.097097 18.959316,37.323145 19.115968,30.666153 C 19.115968,24.165471 22.608564,20.062410 29.892164,20.062410 C 36.549839,19.905758 40.339424,24.338270 40.496076,30.838950 z "
     style="font-size:12.000000px;fill:url(#linearGradient581);fill-rule:evenodd;stroke:#261933;stroke-width:2.1217699"
     id="path1579"
     sodipodi:nodetypes="cccccccccccccccccccccc" />
  <path
     d="M 5.7070827,32.394966 C 5.5288531,32.141884 4.8066048,29.297357 5.5782451,28.680856 C 6.9974545,27.546986 12.124662,26.923523 12.279633,27.143851 C 12.425273,27.350425 8.0478118,28.709205 6.4804239,29.961387 C 5.8569620,30.459577 5.8296352,32.568781 5.7070827,32.394966 z "
     style="font-size:12.000000px;opacity:0.99000001;fill:url(#linearGradient841);fill-rule:evenodd;stroke:none;stroke-width:1.0515400pt"
     id="path1581" />
  <path
     d="M 11.668905,14.920945 C 11.668905,14.659033 13.475462,12.404532 14.457754,12.358700 C 15.511849,12.309646 17.777726,14.381848 17.777726,14.636120 C 17.777726,14.856442 15.544440,13.731569 14.457754,13.782150 C 13.508054,13.826455 11.668905,15.133631 11.668905,14.920945 z "
     style="font-size:12.000000px;opacity:0.99000001;fill:url(#linearGradient600);fill-rule:evenodd;stroke:none;stroke-width:1.1253500pt"
     id="path1582" />
  <path
     d="M 26.332349,12.846195 C 26.211836,12.541512 26.215568,8.0866489 27.227058,6.9218853 C 28.047415,5.9772734 31.718922,6.2422425 31.827897,6.5178988 C 31.931945,6.7808296 28.785452,7.4786369 27.866136,8.5374827 C 26.953603,9.5881812 26.424860,13.079932 26.332349,12.846195 z "
     style="font-size:12.000000px;opacity:0.99000001;fill:url(#linearGradient583);fill-rule:evenodd;stroke:none;stroke-width:1.0736800pt"
     id="path1583" />
  <path
     d="M 40.016222,16.214882 C 40.704180,15.428813 44.595329,12.969431 45.020021,12.969431 C 45.316565,12.969431 43.264049,15.511986 42.180085,16.214882 C 41.595999,16.593745 39.757534,16.510574 40.016222,16.214882 z "
     style="font-size:12.000000px;opacity:0.99000001;fill:url(#linearGradient599);fill-rule:evenodd;stroke:none;stroke-width:1.1833400pt"
     id="path1584" />
  <path
     d="M 11.547204,44.974498 C 11.749532,44.415539 14.976315,41.063999 15.690250,40.704146 C 16.035160,40.530162 15.344313,42.733235 14.723398,43.373158 C 13.963299,44.156684 11.427361,45.305156 11.547204,44.974498 z "
     style="font-size:12.000000px;opacity:0.99000001;fill:url(#linearGradient842);fill-rule:evenodd;stroke:none;stroke-width:1.1111300pt"
     id="path1585" />
  <path
     style="fill:url(#linearGradient845);fill-opacity:1.0000000;fill-rule:evenodd;stroke:none;stroke-width:1.0000000pt;stroke-linecap:butt;stroke-linejoin:miter;stroke-opacity:1.0000000"
     d="M 28.979741,43.394891 C 28.639451,42.957376 36.827338,43.418532 39.945379,38.538680 C 43.660739,32.824429 41.964619,27.148062 42.295159,27.573042 C 42.695662,28.087974 43.861901,37.156193 41.511899,39.948547 C 39.423428,42.430142 29.370494,43.897288 28.979741,43.394891 z "
     id="path844"
     sodipodi:nodetypes="cssss" />
</svg>
