<?xml version="1.0" encoding="UTF-8" standalone="no"?>
<!-- Created with Inkscape (http://www.inkscape.org/) -->
<svg
   xmlns:dc="http://purl.org/dc/elements/1.1/"
   xmlns:cc="http://web.resource.org/cc/"
   xmlns:rdf="http://www.w3.org/1999/02/22-rdf-syntax-ns#"
   xmlns:svg="http://www.w3.org/2000/svg"
   xmlns="http://www.w3.org/2000/svg"
   xmlns:xlink="http://www.w3.org/1999/xlink"
   xmlns:sodipodi="http://inkscape.sourceforge.net/DTD/sodipodi-0.dtd"
   xmlns:inkscape="http://www.inkscape.org/namespaces/inkscape"
   id="svg1"
   sodipodi:version="0.32"
   inkscape:version="0.42"
   width="48.000000pt"
   height="48.000000pt"
   sodipodi:docbase="/home/jakob/dev/lila/lila-theme/trunk/lila/kde/scalable/actions"
   sodipodi:docname="quit.svg">
  <metadata
     id="metadata27">
    <rdf:RDF>
      <cc:Work
         rdf:about="">
        <dc:format>image/svg+xml</dc:format>
        <dc:type
           rdf:resource="http://purl.org/dc/dcmitype/StillImage" />
      </cc:Work>
    </rdf:RDF>
  </metadata>
  <defs
     id="defs3">
    <linearGradient
       id="linearGradient679">
      <stop
         style="stop-color:#736b7a;stop-opacity:1;"
         offset="0.00000000"
         id="stop680" />
      <stop
         style="stop-color:#000000;stop-opacity:1;"
         offset="1.00000000"
         id="stop681" />
    </linearGradient>
    <linearGradient
       id="linearGradient584">
      <stop
         style="stop-color:#ffffff;stop-opacity:1;"
         offset="0.00000000"
         id="stop585" />
      <stop
         style="stop-color:#ffffff;stop-opacity:0;"
         offset="1.00000000"
         id="stop586" />
    </linearGradient>
    <linearGradient
       id="linearGradient578">
      <stop
         style="stop-color:#d9cce6;stop-opacity:1;"
         offset="0.00000000"
         id="stop579" />
      <stop
         style="stop-color:#73667f;stop-opacity:1;"
         offset="1.00000000"
         id="stop580" />
    </linearGradient>
    <linearGradient
       xlink:href="#linearGradient578"
       id="linearGradient581"
       x1="23.097435"
       y1="126.76070"
       x2="399.58776"
       y2="494.78285"
       gradientTransform="matrix(9.238068e-2,0.000000,0.000000,9.370539e-2,-1.385992,0.437559)"
       gradientUnits="userSpaceOnUse" />
    <linearGradient
       xlink:href="#linearGradient584"
       id="linearGradient583"
       x1="54.670945"
       y1="138.51579"
       x2="269.69148"
       y2="351.80499"
       gradientTransform="matrix(8.338467e-2,0.000000,0.000000,0.103815,-1.385992,0.437559)"
       gradientUnits="userSpaceOnUse" />
    <linearGradient
       xlink:href="#linearGradient679"
       id="linearGradient612"
       x1="484.01278"
       y1="529.16453"
       x2="484.01278"
       y2="22.168175"
       gradientTransform="matrix(7.514581e-2,0.000000,0.000000,0.102631,7.719729,2.986566)"
       gradientUnits="userSpaceOnUse" />
    <linearGradient
       xlink:href="#linearGradient578"
       id="linearGradient614"
       x1="222.14321"
       y1="20.131135"
       x2="647.64127"
       y2="20.131135"
       gradientTransform="matrix(6.323666e-2,0.000000,0.000000,0.121958,6.798722,1.875935)"
       gradientUnits="userSpaceOnUse" />
    <linearGradient
       xlink:href="#linearGradient584"
       id="linearGradient685"
       x1="335.87687"
       y1="268.76065"
       x2="369.83285"
       y2="302.00747"
       gradientTransform="matrix(0.102070,0.000000,0.000000,7.555867e-2,6.798722,1.875934)"
       gradientUnits="userSpaceOnUse" />
  </defs>
  <sodipodi:namedview
     id="base"
     pagecolor="#ffffff"
     bordercolor="#666666"
     borderopacity="1.0"
     inkscape:pageopacity="0.0"
     inkscape:pageshadow="2"
     inkscape:zoom="6.8333333"
     inkscape:cx="30.000000"
     inkscape:cy="30.000000"
     inkscape:window-width="1400"
     inkscape:window-height="997"
     inkscape:window-x="0"
     inkscape:window-y="0"
     inkscape:document-units="pt"
     inkscape:current-layer="svg1" />
  <path
     style="fill:url(#linearGradient612);fill-opacity:1.0000000;fill-rule:evenodd;stroke:#261933;stroke-width:1.8749988;stroke-linecap:butt;stroke-linejoin:miter;stroke-miterlimit:4.0000000;stroke-dasharray:none;stroke-opacity:1.0000000"
     d="M 21.508179,4.8485403 L 21.659700,57.128643 L 58.913865,57.156373 L 58.933977,4.8485403 L 21.508179,4.8485403 z "
     id="path678"
     sodipodi:nodetypes="ccccc" />
  <path
     style="fill:url(#linearGradient614);fill-opacity:1.0000000;fill-rule:evenodd;stroke:#261933;stroke-width:1.8749988;stroke-linecap:butt;stroke-linejoin:miter;stroke-miterlimit:4.0000000;stroke-dasharray:none;stroke-opacity:1.0000000"
     d="M 21.647822,55.378496 L 46.648860,40.829602 L 46.951904,5.1768083 L 21.950865,5.4965707 L 21.647822,55.378496 z "
     id="path682"
     sodipodi:nodetypes="ccccc" />
  <path
     style="font-size:12.000000px;opacity:0.30267498;fill:#000000;fill-opacity:1.0000000;fill-rule:evenodd;stroke:none;stroke-width:14.847900"
     d="M 0.74076903,40.188340 C -0.45724941,39.439242 -0.011791099,21.293148 0.74076903,20.290769 C 1.6357557,19.148854 16.202904,21.035107 17.394179,20.290769 C 18.428317,19.718126 16.383148,10.681477 17.394179,10.990807 C 18.334111,11.312618 37.632632,25.604126 37.724315,29.590722 C 37.682991,33.343799 18.715909,48.979317 17.394179,49.272023 C 16.229360,49.503231 18.099367,40.429393 17.177901,39.755791 C 16.017653,38.863209 2.0327463,41.091828 0.74076903,40.188340 z "
     id="path617"
     sodipodi:nodetypes="csssssss" />
  <path
     style="font-size:12.000000px;fill:url(#linearGradient581);fill-rule:evenodd;stroke:#261933;stroke-width:1.8749996;stroke-miterlimit:4.0000000;stroke-dasharray:none;stroke-opacity:1.0000000"
     d="M 2.0365869,38.564500 C 0.96395865,37.893795 1.3627933,21.646958 2.0365869,20.749486 C 2.8379006,19.727092 15.880389,21.415917 16.946981,20.749486 C 17.872881,20.236776 16.041768,12.145945 16.946981,12.422902 C 17.788534,12.711026 35.067191,25.263945 35.149278,29.076070 C 35.112202,32.557723 18.130372,46.435373 16.946981,46.697437 C 15.904076,46.904449 17.578360,38.780323 16.753338,38.177215 C 15.714527,37.378048 3.1933407,39.373418 2.0365869,38.564500 z "
     id="path589"
     sodipodi:nodetypes="csssssss" />
  <path
     style="fill:url(#linearGradient583);fill-opacity:1.0000000;fill-rule:evenodd;stroke:none;stroke-width:1.0000000pt;stroke-linecap:butt;stroke-linejoin:miter;stroke-opacity:1.0000000"
     d="M 3.0545349,37.613900 C 2.7480412,37.215457 2.7179286,23.036839 3.3978721,21.992036 C 4.2296514,20.885588 15.129953,23.612425 18.333061,21.992036 C 19.993904,21.151843 17.901036,14.997045 17.989723,14.610273 C 18.101845,13.904260 21.207553,16.446800 21.423100,16.841965 C 21.550891,17.076247 19.205820,15.943841 19.019736,16.498630 C 18.939764,17.248864 21.192908,22.539551 19.706412,23.365383 C 16.557850,25.114587 7.7012720,21.451888 5.1145617,24.223728 C 3.4746352,25.993311 3.3202707,37.959348 3.0545349,37.613900 z "
     id="path618"
     sodipodi:nodetypes="cssssssss" />
  <path
     style="opacity:0.20178296;fill:#261e2e;fill-opacity:1.0000000;fill-rule:evenodd;stroke:none;stroke-width:1.0000000pt;stroke-linecap:butt;stroke-linejoin:miter;stroke-opacity:1.0000000"
     d="M 1.5095153,29.459624 C 2.8717678,29.306314 33.991683,28.448295 34.984937,29.373791 C 35.805882,30.052906 21.279163,44.251605 17.131380,46.283167 C 15.671315,46.998308 18.803992,38.836460 17.045544,37.957234 C 13.882819,36.375869 5.9936408,39.742538 2.3678596,38.300569 C 1.5973792,38.030634 0.61132292,29.570372 1.5095153,29.459624 z "
     id="path644"
     sodipodi:nodetypes="csssss" />
  <path
     style="opacity:0.49815300;fill:#000000;fill-opacity:1.0000000;fill-rule:evenodd;stroke:none;stroke-width:1.0000000pt;stroke-linecap:butt;stroke-linejoin:miter;stroke-opacity:1.0000000"
     d="M 44.202060,21.238000 C 44.021192,21.047160 44.263227,23.045624 43.777651,23.477079 C 42.919265,24.239801 39.957887,24.596532 40.170173,24.820532 C 40.453031,25.118983 44.489667,25.731652 45.263084,25.044440 C 45.833628,24.537476 44.516335,21.569610 44.202060,21.238000 z "
     id="path683"
     sodipodi:nodetypes="cssss" />
  <path
     style="fill:url(#linearGradient685);fill-opacity:1.0000000;fill-rule:evenodd;stroke:none;stroke-width:1.0000000pt;stroke-linecap:butt;stroke-linejoin:miter;stroke-opacity:1.0000000"
     d="M 41.042028,24.745321 C 40.981431,24.681387 43.287500,24.448837 44.054076,23.802611 C 44.480732,23.442936 44.296219,22.062470 44.353870,22.123305 C 44.422487,22.195708 44.885554,23.820698 44.432880,24.202308 C 43.692321,24.826599 41.107700,24.814617 41.042028,24.745321 z "
     id="path684"
     sodipodi:nodetypes="cssss" />
</svg>
