<?xml version="1.0" encoding="UTF-8" standalone="no"?>
<!DOCTYPE svg PUBLIC "-//W3C//DTD SVG 20010904//EN"
"http://www.w3.org/TR/2001/REC-SVG-20010904/DTD/svg10.dtd">
<!-- Created with Inkscape (http://www.inkscape.org/) -->
<svg
   id="svg1"
   sodipodi:version="0.32"
   inkscape:version="0.37"
   width="48pt"
   height="48pt"
   sodipodi:docbase="/home/dan/Projects/Lila-gtk/gtk-2.0"
   sodipodi:docname="stock_print_preview.svg"
   xmlns="http://www.w3.org/2000/svg"
   xmlns:inkscape="http://www.inkscape.org/namespaces/inkscape"
   xmlns:sodipodi="http://sodipodi.sourceforge.net/DTD/sodipodi-0.dtd"
   xmlns:xlink="http://www.w3.org/1999/xlink">
  <defs
     id="defs3">
    <linearGradient
       id="linearGradient916">
      <stop
         style="stop-color:#cccccc;stop-opacity:1;"
         offset="0.00000000"
         id="stop917" />
      <stop
         style="stop-color:#7f7f7f;stop-opacity:1;"
         offset="1.00000000"
         id="stop918" />
    </linearGradient>
    <linearGradient
       id="linearGradient866">
      <stop
         style="stop-color:#ffffff;stop-opacity:1;"
         offset="0.00000000"
         id="stop867" />
      <stop
         style="stop-color:#d9cce6;stop-opacity:1;"
         offset="1.00000000"
         id="stop868" />
    </linearGradient>
    <linearGradient
       id="linearGradient584">
      <stop
         style="stop-color:#ffffff;stop-opacity:1;"
         offset="0.00000000"
         id="stop585" />
      <stop
         style="stop-color:#ffffff;stop-opacity:0;"
         offset="1.00000000"
         id="stop586" />
    </linearGradient>
    <linearGradient
       id="linearGradient578">
      <stop
         style="stop-color:#d9cce6;stop-opacity:1;"
         offset="0.00000000"
         id="stop579" />
      <stop
         style="stop-color:#73667f;stop-opacity:1;"
         offset="1.00000000"
         id="stop580" />
    </linearGradient>
    <linearGradient
       xlink:href="#linearGradient584"
       id="linearGradient581"
       x1="0.01515152"
       y1="0.00775194"
       x2="1.00000000"
       y2="0.98449612" />
    <linearGradient
       xlink:href="#linearGradient584"
       id="linearGradient583"
       x1="-0.00000000"
       y1="-0.00000000"
       x2="0.94444442"
       y2="0.96899223" />
    <linearGradient
       xlink:href="#linearGradient584"
       id="linearGradient860"
       x1="0.00724638"
       y1="0.02739726"
       x2="0.99637681"
       y2="0.95890409" />
    <linearGradient
       xlink:href="#linearGradient584"
       id="linearGradient861"
       x1="-0.00000000"
       y1="-0.01818182"
       x2="1.00362325"
       y2="0.92727274" />
    <linearGradient
       xlink:href="#linearGradient584"
       id="linearGradient862"
       x1="0.00362319"
       y1="-0.00000000"
       x2="0.98913044"
       y2="0.96103895" />
    <linearGradient
       xlink:href="#linearGradient578"
       id="linearGradient869"
       x1="-0.00000000"
       y1="0.00917431"
       x2="0.99275362"
       y2="0.96330273" />
    <linearGradient
       xlink:href="#linearGradient578"
       id="linearGradient915"
       x1="0.00362319"
       y1="-0.00000000"
       x2="1.01086962"
       y2="1.02362204" />
    <linearGradient
       xlink:href="#linearGradient578"
       id="linearGradient1046"
       x1="-0.00000000"
       y1="0.00775194"
       x2="0.97549021"
       y2="0.96899223" />
    <linearGradient
       xlink:href="#linearGradient578"
       id="linearGradient1047"
       x1="0.00362319"
       y1="0.01626016"
       x2="1.00000000"
       y2="0.97560978" />
    <linearGradient
       xlink:href="#linearGradient584"
       id="linearGradient1106"
       x1="0.01677185"
       y1="0.00454466"
       x2="0.97643667"
       y2="1.00106704" />
    <linearGradient
       xlink:href="#linearGradient866"
       id="linearGradient1107"
       x1="0.01683684"
       y1="0.00517791"
       x2="0.98230928"
       y2="0.98697507" />
    <linearGradient
       xlink:href="#linearGradient584"
       id="linearGradient1113"
       x1="0.02027027"
       y1="0.03100775"
       x2="0.99324322"
       y2="0.98449612" />
    <linearGradient
       xlink:href="#linearGradient578"
       id="linearGradient1461"
       x1="-0.00000000"
       y1="0.00000000"
       x2="0.99295777"
       y2="1.00781250" />
  </defs>
  <sodipodi:namedview
     id="base"
     pagecolor="#ffffff"
     bordercolor="#666666"
     borderopacity="1.0"
     inkscape:pageopacity="0.0"
     inkscape:pageshadow="2"
     inkscape:zoom="1.99486798"
     inkscape:cx="28.0483211"
     inkscape:cy="25.0174956"
     inkscape:window-width="640"
     inkscape:window-height="516"
     inkscape:window-x="78"
     inkscape:window-y="221" />
  <path
     d="M 6.0981794 44.744861 C 7.0810974 45.440633 45.142608 57.605899 46.542095 56.979944 C 48.11021 56.213562 58.930511 45.170606 59.343544 44.178394 C 59.595099 43.415688 59.427462 28.826247 58.097393 28.091547 C 56.437912 27.246809 18.868863 21.614202 17.540285 21.860691 C 16.008218 22.002308 5.1097105 31.683318 4.3988634 32.849622 C 3.7985803 33.930122 5.0232107 44.017014 6.0981794 44.744861 z "
     style="font-size:12;opacity:0.3;fill-rule:evenodd;stroke-width:12.5;"
     id="path727" />
  <path
     d="M 6.1839093 42.944424 C 7.124826 43.610464 43.559977 55.25589 44.899661 54.656682 C 46.40077 53.92305 56.758703 43.351976 57.154086 42.402162 C 57.394892 41.672047 57.234418 27.706035 55.961186 27.002729 C 54.372616 26.194089 18.40895 20.802172 17.137142 21.038128 C 15.670543 21.173694 5.2376789 30.441018 4.5572076 31.557486 C 3.982575 32.591815 5.1548746 42.247678 6.1839093 42.944424 z "
     style="font-size:12;fill:url(#linearGradient1046);fill-rule:evenodd;stroke:#261933;stroke-width:1.875;stroke-dasharray:none;"
     id="path562" />
  <path
     d="M 6.8885365 42.294831 C 6.6583691 41.892032 4.87072 32.695913 5.8149729 32.479351 C 6.926763 32.189301 40.915688 40.846485 41.127212 41.216771 C 41.324667 41.562244 10.733142 33.994909 7.0419077 34.626439 C 5.5872681 34.865437 7.0673478 42.607696 6.8885365 42.294831 z "
     style="font-size:12;opacity:0.699936;fill:url(#linearGradient862);fill-rule:evenodd;stroke:none;stroke-width:0.963536pt;"
     id="path587" />
  <path
     d="M 6.8345957 31.475443 C 6.7608229 31.217146 15.430023 22.713875 17.570933 22.582777 C 23.483437 22.213917 53.068677 28.075085 53.141593 28.330435 C 53.213178 28.581221 29.204571 23.340367 18.004819 24.100998 C 13.769013 24.388766 6.9054303 31.723283 6.8345957 31.475443 z "
     style="font-size:12;opacity:0.699936;fill:url(#linearGradient861);fill-rule:evenodd;stroke:none;stroke-width:0.963536pt;"
     id="path592" />
  <path
     d="M 45.230495 51.650282 C 44.965164 51.517569 43.332482 41.429436 43.850123 40.147648 C 44.495722 38.322646 54.018776 30.508707 54.279166 30.638947 C 54.529952 30.764342 47.068901 37.001879 45.383838 40.914552 C 44.05271 44.005657 45.476338 51.773204 45.230495 51.650282 z "
     style="font-size:12;opacity:0.699936;fill:url(#linearGradient581);fill-rule:evenodd;stroke:none;stroke-width:0.963536pt;"
     id="path594" />
  <path
     d="M 31.120742 46.806047 L 8.4222148 40.454429 L 8.0519571 38.920807 L 30.903799 45.163954 L 31.120742 46.806047 z "
     style="font-size:12;opacity:0.99;fill:#1e262e;fill-rule:evenodd;stroke:#000000;stroke-width:0.594169;stroke-linecap:round;stroke-linejoin:round;"
     id="path596" />
  <path
     d="M 16.378734 29.58256 C 15.531117 29.199726 15.299344 23.949458 15.901213 22.897352 C 16.510973 21.712342 21.246452 18.17927 22.108899 17.963087 C 23.178214 17.535856 43.912237 20.551002 44.711275 21.464882 C 45.577621 22.478772 45.885258 29.089923 44.552038 29.264181 C 43.357711 29.441101 21.666648 24.730149 20.835572 25.125818 C 20.007062 25.59602 17.175871 29.94258 16.378734 29.58256 z "
     style="font-size:12;fill:url(#linearGradient869);fill-rule:evenodd;stroke:#261933;stroke-width:1.875;stroke-dasharray:none;"
     id="path660" />
  <path
     d="M 21.262827 27.823494 C 21.662486 28.982482 37.823556 34.063585 38.873575 33.1768 C 39.81338 32.37478 46.685138 8.6939904 46.202188 7.761684 C 45.699642 6.7335451 29.327901 4.3097803 28.558319 5.0230969 C 27.610404 5.9068448 20.842056 26.49336 21.262827 27.823494 z "
     style="font-size:12;opacity:0.302675;fill-rule:evenodd;stroke-width:12.5;"
     id="path639" />
  <path
     d="M 20.521758 26.840008 C 20.897179 27.928647 36.077275 32.701334 37.063559 31.868376 C 37.94632 31.115037 44.400971 8.8716361 43.947337 7.9959006 C 43.475294 7.0301685 28.097293 4.7535422 27.374423 5.4235618 C 26.484047 6.2536679 20.126527 25.590612 20.521758 26.840008 z "
     style="font-size:12;fill:url(#linearGradient1107);fill-rule:evenodd;stroke:#261933;stroke-width:1.875;stroke-dasharray:none;"
     id="path634" />
  <path
     d="M 21.542254 25.807817 C 21.380663 25.409069 27.488196 6.745573 28.071479 6.3565346 C 28.800273 5.8494226 40.675202 7.9573309 40.836411 8.3551448 C 40.984175 8.7197527 31.575043 7.0963093 29.502129 8.9845975 C 25.525555 12.505488 21.689636 26.17151 21.542254 25.807817 z "
     style="font-size:12;opacity:0.699936;fill:url(#linearGradient1106);fill-rule:evenodd;stroke:none;stroke-width:1pt;"
     id="path640" />
  <path
     d="M 16.214517 30.524963 C 17.199982 30.942973 37.188299 35.849476 38.498513 35.777605 C 39.785056 35.863261 45.041311 31.047261 45.502007 30.36582 C 45.980384 29.49282 46.01632 21.986612 45.342864 21.77062 C 44.129619 21.489697 38.292313 26.785691 36.906806 27.182406 C 35.469583 27.55155 17.844917 23.087108 16.214517 23.362328 C 14.770544 23.584404 14.940143 30.143554 16.214517 30.524963 z "
     style="font-size:12;fill:url(#linearGradient915);fill-rule:evenodd;stroke:#261933;stroke-width:1.875;stroke-dasharray:none;"
     id="path655" />
  <path
     d="M 9.309278 42.202747 L 31.659706 48.456189 L 23.497101 55.368223 L 1.6777925 48.563687 L 9.309278 42.202747 z "
     style="font-size:12;opacity:0.296369;fill-rule:evenodd;stroke-width:12.5;stroke-linecap:round;stroke-linejoin:round;"
     id="path725" />
  <path
     d="M 8.8125793 40.548354 L 30.535033 46.626085 L 22.601785 53.343902 L 1.3955258 46.730564 L 8.8125793 40.548354 z "
     style="font-size:12;fill:url(#linearGradient1047);fill-rule:evenodd;stroke:#261933;stroke-width:1.875;stroke-linecap:round;stroke-linejoin:round;stroke-dasharray:none;"
     id="path718" />
  <path
     d="M 17.587002 15.53218 C 17.457711 15.273692 16.895864 10.788431 17.474538 10.467389 C 18.185354 10.18561 36.493077 14.401452 36.608203 14.6318 C 36.718101 14.85169 23.538484 11.812303 18.1498 11.818006 C 17.083527 11.841869 17.68283 15.723835 17.587002 15.53218 z "
     style="font-size:12;opacity:0.699936;fill:url(#linearGradient860);fill-rule:evenodd;stroke:none;stroke-width:1pt;"
     id="path719" />
  <ellipse
     cx="410.204895"
     cy="422.408997"
     rx="11.720139"
     ry="11.720139"
     transform="matrix(0.138281,0.000000,0.000000,0.138281,-17.18670,-13.31816)"
     style="font-size:12;fill:#80ff80;fill-rule:evenodd;stroke:#003f00;stroke-width:6.87489;stroke-linecap:round;stroke-linejoin:round;stroke-dasharray:none;"
     id="path722" />
  <path
     d="M 38.188499 33.907828 C 37.984772 33.744788 37.559632 29.225681 37.850822 28.617918 C 38.188119 27.791595 44.29998 24.075331 44.491349 24.228483 C 44.675113 24.375456 40.30298 27.48082 38.976321 29.518297 C 38.202094 30.707301 38.359906 34.044914 38.188499 33.907828 z "
     style="font-size:12;opacity:0.699936;fill:url(#linearGradient583);fill-rule:evenodd;stroke:none;stroke-width:1pt;"
     id="path723" />
  <path
     d="M 29.430864 16.293769 C 29.45419 15.922219 27.551593 14.496106 27.987935 12.886803 C 28.435935 11.246474 31.630505 9.8388619 33.892263 10.70584 C 36.935593 11.844652 39.381402 17.001669 38.829455 19.135754 C 38.219037 21.511293 28.754003 23.302778 26.74161 22.175907 C 24.776122 21.104832 24.953412 19.172567 25.700332 18.089177 C 26.44922 17.022675 29.359896 16.618065 29.430864 16.293769 z M 32.989119 13.959052 C 33.923236 13.604992 34.650823 15.111733 34.068777 15.57394 C 33.405416 16.06812 32.069551 14.307603 32.989119 13.959052 z "
     style="font-size:12;fill:url(#linearGradient1113);fill-rule:evenodd;stroke:#261e2e;stroke-width:1.01009;stroke-linejoin:round;"
     id="path1112" />
  <path
     d="M 44.101439 17.710967 C 44.101439 24.570927 38.533905 30.138461 31.673946 30.138461 C 24.813887 30.138461 19.246351 24.570927 19.246351 17.710967 C 19.246351 10.851008 24.813887 5.2834727 31.673946 5.2834727 C 38.533905 5.2834727 44.101439 10.851008 44.101439 17.710967 z M 41.022045 17.710967 C 41.022045 22.749719 36.834032 26.839126 31.673946 26.839126 C 26.513759 26.839126 22.325845 22.749719 22.325845 17.710967 C 22.325845 12.672214 26.513759 8.5827077 31.673946 8.5827077 C 36.834032 8.5827077 41.022045 12.672214 41.022045 17.710967 z "
     style="font-size:12;opacity:0.3;fill-rule:evenodd;stroke-width:13.4904;"
     id="path1566" />
  <path
     d="M 43.040401 16.118312 C 43.040401 22.978271 37.118145 28.900528 30.258184 28.900528 C 23.398126 28.900528 17.475869 22.978271 17.475869 16.118312 C 17.475869 9.2583527 23.398126 3.3360947 30.258184 3.3360947 C 37.118145 3.3360947 43.040401 9.2583527 43.040401 16.118312 z M 38.896844 16.118312 C 38.896844 21.157065 35.418271 24.537028 30.258184 24.537028 C 25.098 24.537028 21.619528 21.157065 21.619528 16.118312 C 21.619528 11.079559 25.098 7.6994957 30.258184 7.6994957 C 35.418271 7.6994957 38.896844 11.079559 38.896844 16.118312 z "
     style="font-size:12;fill:url(#linearGradient869);fill-rule:evenodd;stroke:#261933;stroke-width:1.87707;"
     id="path1525"
     sodipodi:nodetypes="cccccccccs" />
  <path
     d="M 38.837189 27.536982 C 38.584227 27.039504 40.644214 24.767615 41.141472 25.028365 C 42.922407 25.961561 44.530011 28.707734 46.550095 30.115137 C 50.683368 32.994811 56.506223 34.712987 59.601756 37.890039 C 60.596166 38.910553 59.667946 42.144142 58.694056 42.957985 C 57.626256 43.850592 53.876901 45.02042 52.59849 44.01296 C 49.044519 41.212939 46.618453 36.089527 43.443925 32.288627 C 42.031353 30.597424 39.644451 29.125068 38.837189 27.536982 z "
     style="font-size:12;opacity:0.3;fill-rule:evenodd;stroke-width:13.4904;"
     id="path1565"
     sodipodi:nodetypes="ccsccccc" />
  <ellipse
     cx="373.574921"
     cy="328.786621"
     rx="115.024445"
     ry="115.024429"
     transform="matrix(7.179272e-2,0.000000,0.000000,7.010354e-2,3.438126,-6.930738)"
     style="font-size:12;fill-rule:evenodd;stroke-width:1pt;fill:url(#linearGradient862);"
     id="path1521" />
  <path
     d="M 37.867684 24.822084 C 37.614722 24.324607 39.54925 22.303638 40.046507 22.564388 C 41.827442 23.497583 43.435055 26.243744 45.45513 27.651159 C 49.588414 30.530822 55.411254 32.24901 58.506806 35.426062 C 59.501206 36.446576 58.322066 39.680163 57.348166 40.494007 C 56.280372 41.386614 52.907398 42.305523 51.628986 41.298062 C 48.075014 38.498041 45.64895 33.374629 42.474421 29.57373 C 41.061849 27.882527 38.674946 26.410171 37.867684 24.822084 z "
     style="font-size:12;fill:url(#linearGradient1461);fill-rule:evenodd;stroke:#261933;stroke-width:1.875;stroke-dasharray:none;"
     id="path1531"
     sodipodi:nodetypes="cccccccc" />
  <path
     d="M 19.998211 20.745442 C 19.113335 18.975691 18.22856 13.135657 22.033453 8.6228827 C 26.634722 4.4641007 31.412989 5.0833837 33.359634 5.3488757 C 30.262621 5.5258707 27.077112 5.0834837 22.918328 9.1538697 C 19.024937 12.958661 20.086708 18.621802 19.998211 20.745442 z "
     style="font-size:12;opacity:0.7;fill-rule:evenodd;stroke:none;stroke-width:1pt;fill:url(#linearGradient860);"
     id="path1533" />
  <path
     d="M 38.868781 24.646348 C 38.859786 24.58799 39.041225 24.282813 39.135456 24.355431 C 39.994715 25.018113 41.720801 26.797731 41.729138 26.852141 C 41.736926 26.902821 40.055267 25.342487 39.183942 24.670591 C 39.101779 24.607186 38.876021 24.693079 38.868781 24.646348 z "
     style="font-size:12;opacity:0.7;fill-rule:evenodd;stroke:none;stroke-width:1pt;fill:url(#linearGradient861);"
     id="path1538" />
</svg>
