<?xml version="1.0" encoding="UTF-8" standalone="no"?>
<!-- Created with Inkscape (http://www.inkscape.org/) -->
<svg
   xmlns:dc="http://purl.org/dc/elements/1.1/"
   xmlns:cc="http://web.resource.org/cc/"
   xmlns:rdf="http://www.w3.org/1999/02/22-rdf-syntax-ns#"
   xmlns:svg="http://www.w3.org/2000/svg"
   xmlns="http://www.w3.org/2000/svg"
   xmlns:xlink="http://www.w3.org/1999/xlink"
   xmlns:sodipodi="http://inkscape.sourceforge.net/DTD/sodipodi-0.dtd"
   xmlns:inkscape="http://www.inkscape.org/namespaces/inkscape"
   id="svg1"
   sodipodi:version="0.32"
   inkscape:version="0.42.2"
   width="48pt"
   height="48pt"
   sodipodi:docbase="/home/jakob/dev/lila/lila-theme/trunk/lila/kde/scalable/actions"
   sodipodi:docname="find.svg">
  <metadata
     id="metadata31">
    <rdf:RDF>
      <cc:Work
         rdf:about="">
        <dc:format>image/svg+xml</dc:format>
        <dc:type
           rdf:resource="http://purl.org/dc/dcmitype/StillImage" />
      </cc:Work>
    </rdf:RDF>
  </metadata>
  <defs
     id="defs3">
    <linearGradient
       id="linearGradient866">
      <stop
         style="stop-color:#ffffff;stop-opacity:1;"
         offset="0.00000000"
         id="stop867" />
      <stop
         style="stop-color:#d9cce6;stop-opacity:1;"
         offset="1.00000000"
         id="stop868" />
    </linearGradient>
    <linearGradient
       id="linearGradient584">
      <stop
         style="stop-color:#ffffff;stop-opacity:1;"
         offset="0.00000000"
         id="stop585" />
      <stop
         style="stop-color:#ffffff;stop-opacity:0;"
         offset="1.00000000"
         id="stop586" />
    </linearGradient>
    <linearGradient
       id="linearGradient578">
      <stop
         style="stop-color:#d9cce6;stop-opacity:1;"
         offset="0.00000000"
         id="stop579" />
      <stop
         style="stop-color:#73667f;stop-opacity:1;"
         offset="1.00000000"
         id="stop580" />
    </linearGradient>
    <linearGradient
       xlink:href="#linearGradient866"
       id="linearGradient581"
       x1="2.5704045"
       y1="1.1203106"
       x2="55.784920"
       y2="54.655670"
       gradientTransform="matrix(0.942172,0.000000,0.000000,1.061378,6.296702e-5,0.000000)"
       gradientUnits="userSpaceOnUse" />
    <linearGradient
       xlink:href="#linearGradient584"
       id="linearGradient583"
       x1="6.2519108"
       y1="4.0661358"
       x2="46.844496"
       y2="42.843279"
       gradientTransform="matrix(0.999606,0.000000,0.000000,1.000395,6.296702e-5,0.000000)"
       gradientUnits="userSpaceOnUse" />
    <linearGradient
       xlink:href="#linearGradient584"
       id="linearGradient860"
       x1="17.987703"
       y1="17.216223"
       x2="32.191278"
       y2="31.595740"
       gradientTransform="matrix(0.951948,0.000000,0.000000,1.050478,6.296702e-5,0.000000)"
       gradientUnits="userSpaceOnUse" />
    <linearGradient
       xlink:href="#linearGradient584"
       id="linearGradient861"
       x1="34.200329"
       y1="39.585375"
       x2="36.861077"
       y2="42.159824"
       gradientTransform="matrix(1.067787,0.000000,0.000000,0.936516,6.296702e-5,0.000000)"
       gradientUnits="userSpaceOnUse" />
    <linearGradient
       xlink:href="#linearGradient584"
       id="linearGradient862"
       x1="262.03605"
       y1="213.76222"
       x2="483.37094"
       y2="443.81111"
       gradientUnits="userSpaceOnUse" />
    <linearGradient
       xlink:href="#linearGradient578"
       id="linearGradient869"
       x1="14.187529"
       y1="15.086396"
       x2="41.629082"
       y2="15.086396"
       gradientTransform="matrix(1.000002,0.000000,0.000000,0.999998,6.296702e-5,0.000000)"
       gradientUnits="userSpaceOnUse" />
    <linearGradient
       xlink:href="#linearGradient578"
       id="linearGradient797"
       x1="33.138543"
       y1="35.759020"
       x2="55.113964"
       y2="35.759020"
       gradientTransform="matrix(1.042794,0.000000,0.000000,0.958962,6.296702e-5,0.000000)"
       gradientUnits="userSpaceOnUse" />
  </defs>
  <sodipodi:namedview
     id="base"
     pagecolor="#ffffff"
     bordercolor="#666666"
     borderopacity="1.0"
     inkscape:pageopacity="0.0"
     inkscape:pageshadow="2"
     inkscape:zoom="7.9794719"
     inkscape:cx="26.924981"
     inkscape:cy="24.587261"
     inkscape:window-width="754"
     inkscape:window-height="606"
     inkscape:window-x="168"
     inkscape:window-y="87"
     inkscape:current-layer="svg1" />
  <path
     d="M 3.6270066,48.154190 C 4.4363077,50.572050 37.950233,61.443961 40.150661,59.619547 C 42.120281,57.969334 56.858023,8.8506070 55.871239,6.9026013 C 54.845501,4.7549275 20.843316,-0.59455964 19.229375,0.87438943 C 17.241351,2.6944189 2.7770321,45.380009 3.6270066,48.154190 z "
     style="font-size:12.000000px;opacity:0.30267498;fill-rule:evenodd;stroke-width:12.500000"
     id="path639" />
  <path
     d="M 3.7422149,46.153016 C 4.4994186,48.415109 35.854228,58.586617 37.912898,56.879736 C 39.755628,55.335836 53.543921,9.3814957 52.620705,7.5589481 C 51.661047,5.5496336 19.849392,0.54481796 18.339428,1.9191331 C 16.479479,3.6219098 2.9469983,43.557556 3.7422149,46.153016 z "
     style="font-size:12.000000px;fill:url(#linearGradient581);fill-rule:evenodd;stroke:#261933;stroke-width:1.8770700"
     id="path634" />
  <path
     d="M 5.8754954,44.034081 C 5.5482651,43.205067 18.550262,4.6597222 19.765800,3.8648171 C 21.284974,2.8280648 45.843437,7.4175721 46.169897,8.2446434 C 46.469125,9.0026785 27.009282,5.4630386 22.679912,9.3355456 C 14.376562,16.554101 6.1739542,44.790214 5.8754954,44.034081 z "
     style="font-size:12.000000px;opacity:0.69993597;fill:url(#linearGradient583);fill-rule:evenodd;stroke:#ffffff;stroke-width:0.10010999pt"
     id="path640" />
  <path
     d="M 41.751723,30.399776 C 41.751723,37.259736 36.184189,42.827270 29.324230,42.827270 C 22.464171,42.827270 16.896635,37.259736 16.896635,30.399776 C 16.896635,23.539817 22.464171,17.972282 29.324230,17.972282 C 36.184189,17.972282 41.751723,23.539817 41.751723,30.399776 z M 38.672329,30.399776 C 38.672329,35.438528 34.484316,39.527935 29.324230,39.527935 C 24.164043,39.527935 19.976129,35.438528 19.976129,30.399776 C 19.976129,25.361023 24.164043,21.271517 29.324230,21.271517 C 34.484316,21.271517 38.672329,25.361023 38.672329,30.399776 z "
     style="font-size:12.000000px;opacity:0.29999998;fill-rule:evenodd;stroke-width:13.490400"
     id="path1566" />
  <path
     d="M 40.690685,28.807121 C 40.690685,35.667080 34.768429,41.589337 27.908468,41.589337 C 21.048410,41.589337 15.126153,35.667080 15.126153,28.807121 C 15.126153,21.947162 21.048410,16.024904 27.908468,16.024904 C 34.768429,16.024904 40.690685,21.947162 40.690685,28.807121 z M 36.547128,28.807121 C 36.547128,33.845874 33.068555,37.225837 27.908468,37.225837 C 22.748284,37.225837 19.269812,33.845874 19.269812,28.807121 C 19.269812,23.768368 22.748284,20.388305 27.908468,20.388305 C 33.068555,20.388305 36.547128,23.768368 36.547128,28.807121 z "
     style="font-size:12.000000px;fill:url(#linearGradient869);fill-rule:evenodd;stroke:#261933;stroke-width:1.8770700"
     id="path1525"
     sodipodi:nodetypes="cccccccccs" />
  <path
     d="M 36.487473,40.225791 C 36.234511,39.728313 38.294498,37.456424 38.791756,37.717174 C 40.572691,38.650370 42.180295,41.396543 44.200379,42.803946 C 48.333652,45.683620 54.156507,47.401796 57.252043,50.578848 C 58.246450,51.599362 57.318228,54.832951 56.344335,55.646794 C 55.276540,56.539401 51.527185,57.709229 50.248774,56.701769 C 46.694803,53.901748 44.268737,48.778336 41.094209,44.977436 C 39.681637,43.286233 37.294735,41.813877 36.487473,40.225791 z "
     style="font-size:12.000000px;opacity:0.29999998;fill-rule:evenodd;stroke-width:13.490400"
     id="path1565"
     sodipodi:nodetypes="ccsccccc" />
  <ellipse
     cx="373.57492"
     cy="328.78662"
     rx="115.02444"
     ry="115.02443"
     transform="matrix(7.179272e-2,0.000000,0.000000,7.010354e-2,1.088412,5.758071)"
     style="font-size:12.000000px;fill:url(#linearGradient862);fill-rule:evenodd;stroke-width:1.0000000pt"
     id="path1521"
     sodipodi:cx="373.57492"
     sodipodi:cy="328.78662"
     sodipodi:rx="115.02444"
     sodipodi:ry="115.02443" />
  <path
     d="M 35.517968,37.510893 C 35.265006,37.013416 37.199534,34.992447 37.696791,35.253197 C 39.477726,36.186392 41.085339,38.932553 43.105414,40.339968 C 47.238698,43.219631 53.061538,44.937819 56.157087,48.114871 C 57.151493,49.135385 55.972345,52.368972 54.998451,53.182816 C 53.930656,54.075423 50.557682,54.994332 49.279270,53.986871 C 45.725298,51.186850 43.299234,46.063438 40.124705,42.262539 C 38.712133,40.571336 36.325230,39.098980 35.517968,37.510893 z "
     style="font-size:12.000000px;fill:url(#linearGradient797);fill-rule:evenodd;stroke:#261933;stroke-width:1.8770700"
     id="path1531"
     sodipodi:nodetypes="cccccccc" />
  <path
     d="M 17.648495,33.434251 C 16.763619,31.664500 15.878844,25.824466 19.683737,21.311692 C 24.285006,17.152910 29.063273,17.772193 31.009918,18.037685 C 27.912905,18.214680 24.727396,17.772293 20.568612,21.842679 C 16.675221,25.647470 17.736992,31.310611 17.648495,33.434251 z "
     style="font-size:12.000000px;opacity:0.69999999;fill:url(#linearGradient860);fill-rule:evenodd;stroke:none;stroke-width:1.0000000pt"
     id="path1533" />
  <path
     d="M 36.519065,37.335157 C 36.510070,37.276799 36.691509,36.971622 36.785740,37.044240 C 37.644999,37.706922 39.371085,39.486540 39.379422,39.540950 C 39.387210,39.591630 37.705551,38.031296 36.834226,37.359400 C 36.752063,37.295995 36.526305,37.381888 36.519065,37.335157 z "
     style="font-size:12.000000px;opacity:0.69999999;fill:url(#linearGradient861);fill-rule:evenodd;stroke:none;stroke-width:1.0000000pt"
     id="path1538" />
</svg>
