<?xml version="1.0" encoding="UTF-8" standalone="no"?>
<!-- Created with Inkscape (http://www.inkscape.org/) -->
<svg
   xmlns:dc="http://purl.org/dc/elements/1.1/"
   xmlns:cc="http://web.resource.org/cc/"
   xmlns:rdf="http://www.w3.org/1999/02/22-rdf-syntax-ns#"
   xmlns:svg="http://www.w3.org/2000/svg"
   xmlns="http://www.w3.org/2000/svg"
   xmlns:xlink="http://www.w3.org/1999/xlink"
   xmlns:sodipodi="http://inkscape.sourceforge.net/DTD/sodipodi-0.dtd"
   xmlns:inkscape="http://www.inkscape.org/namespaces/inkscape"
   id="svg1"
   sodipodi:version="0.32"
   inkscape:version="0.42.2"
   width="48pt"
   height="48pt"
   sodipodi:docbase="/home/jakob/dev/lila/lila-theme/trunk/lila/kde/scalable/actions"
   sodipodi:docname="format-indent-more.svg">
  <metadata
     id="metadata31">
    <rdf:RDF>
      <cc:Work
         rdf:about="">
        <dc:format>image/svg+xml</dc:format>
        <dc:type
           rdf:resource="http://purl.org/dc/dcmitype/StillImage" />
      </cc:Work>
    </rdf:RDF>
  </metadata>
  <defs
     id="defs3">
    <linearGradient
       id="linearGradient1085">
      <stop
         style="stop-color:#faf8fd;stop-opacity:1;"
         offset="0.00000000"
         id="stop1086" />
      <stop
         style="stop-color:#ffffff;stop-opacity:0;"
         offset="1.00000000"
         id="stop1087" />
    </linearGradient>
    <linearGradient
       id="linearGradient584">
      <stop
         style="stop-color:#d9cce6;stop-opacity:1;"
         offset="0.00000000"
         id="stop585" />
      <stop
         style="stop-color:#73667f;stop-opacity:1;"
         offset="1.00000000"
         id="stop586" />
    </linearGradient>
    <linearGradient
       id="linearGradient578">
      <stop
         style="stop-color:#faf8fd;stop-opacity:1;"
         offset="0.00000000"
         id="stop579" />
      <stop
         style="stop-color:#d9cce6;stop-opacity:1;"
         offset="1.00000000"
         id="stop580" />
    </linearGradient>
    <linearGradient
       xlink:href="#linearGradient578"
       id="linearGradient581"
       x1="3.3262202"
       y1="4.3624692"
       x2="55.837559"
       y2="56.463563"
       gradientTransform="matrix(1.013076,0.000000,0.000000,0.987093,7.490000e-4,0.000000)"
       gradientUnits="userSpaceOnUse" />
    <linearGradient
       xlink:href="#linearGradient1085"
       id="linearGradient583"
       x1="6.5600808"
       y1="8.0187415"
       x2="49.514063"
       y2="50.276710"
       gradientTransform="matrix(1.023983,0.000000,0.000000,0.976578,7.490000e-4,0.000000)"
       gradientUnits="userSpaceOnUse" />
    <linearGradient
       xlink:href="#linearGradient1085"
       id="linearGradient654"
       x1="5.6129786"
       y1="79.343993"
       x2="7.3173994"
       y2="80.959620"
       gradientTransform="matrix(-4.739705,0.000000,0.000000,0.596080,37.99777,-21.86664)"
       gradientUnits="userSpaceOnUse" />
    <linearGradient
       xlink:href="#linearGradient584"
       id="linearGradient655"
       x1="22.773834"
       y1="23.130222"
       x2="8.7145357"
       y2="36.998409"
       gradientTransform="matrix(-1.669382,0.000000,0.000000,1.692387,38.65630,-21.13493)"
       gradientUnits="userSpaceOnUse" />
    <linearGradient
       xlink:href="#linearGradient1085"
       id="linearGradient713"
       x1="11.227243"
       y1="25.198421"
       x2="15.514008"
       y2="29.415724"
       gradientTransform="matrix(-1.615592,0.000000,0.000000,1.748734,38.65631,-21.13493)"
       gradientUnits="userSpaceOnUse" />
    <linearGradient
       y2="0.95714283"
       x2="0.97894734"
       y1="0.02857143"
       x1="0.01052632"
       id="linearGradient614"
       xlink:href="#linearGradient584" />
    <linearGradient
       y2="0.94230771"
       x2="0.98287672"
       y1="0.01923077"
       x1="0.00000000"
       id="linearGradient612"
       xlink:href="#linearGradient584" />
    <linearGradient
       gradientUnits="userSpaceOnUse"
       gradientTransform="matrix(0.896216,0.000000,0.000000,1.115802,-4.760028e-3,0.000000)"
       y2="36.802136"
       x2="38.185177"
       y1="7.9058657"
       x1="9.0543469"
       id="linearGradient2245"
       xlink:href="#linearGradient584" />
    <linearGradient
       gradientUnits="userSpaceOnUse"
       gradientTransform="matrix(0.992813,0.000000,0.000000,1.007239,-4.760028e-3,0.000000)"
       y2="54.677450"
       x2="55.299973"
       y1="5.4596280"
       x1="4.9496509"
       id="linearGradient2243"
       xlink:href="#linearGradient578" />
    <linearGradient
       id="linearGradient2237">
      <stop
         id="stop2239"
         offset="0.00000000"
         style="stop-color:#d9cce6;stop-opacity:1;" />
      <stop
         id="stop2241"
         offset="1.00000000"
         style="stop-color:#73667f;stop-opacity:1;" />
    </linearGradient>
    <linearGradient
       id="linearGradient2231">
      <stop
         id="stop2233"
         offset="0.00000000"
         style="stop-color:#ffffff;stop-opacity:1;" />
      <stop
         id="stop2235"
         offset="1.00000000"
         style="stop-color:#ffffff;stop-opacity:0;" />
    </linearGradient>
    <linearGradient
       inkscape:collect="always"
       xlink:href="#linearGradient584"
       id="linearGradient2255"
       gradientUnits="userSpaceOnUse"
       gradientTransform="matrix(1.013076,0.000000,0.000000,0.987093,7.490000e-4,9.697105e-16)"
       x1="3.3262203"
       y1="4.3624692"
       x2="55.837559"
       y2="56.463562" />
    <linearGradient
       inkscape:collect="always"
       xlink:href="#linearGradient1085"
       id="linearGradient2257"
       gradientUnits="userSpaceOnUse"
       gradientTransform="matrix(1.023983,0.000000,0.000000,0.976578,7.490000e-4,9.697105e-16)"
       x1="6.5600808"
       y1="8.0187415"
       x2="49.514063"
       y2="50.276710" />
    <linearGradient
       inkscape:collect="always"
       xlink:href="#linearGradient1085"
       id="linearGradient2987"
       gradientUnits="userSpaceOnUse"
       gradientTransform="matrix(0.473851,0.000000,0.000000,0.431203,-1.474761,16.87357)"
       x1="6.5600808"
       y1="8.0187415"
       x2="49.514063"
       y2="50.276710" />
    <linearGradient
       inkscape:collect="always"
       xlink:href="#linearGradient584"
       id="linearGradient2990"
       gradientUnits="userSpaceOnUse"
       gradientTransform="matrix(0.466547,0.000000,0.000000,0.454581,-1.606886,16.07593)"
       x1="3.3262203"
       y1="4.3624692"
       x2="55.837559"
       y2="56.463562" />
    <linearGradient
       inkscape:collect="always"
       xlink:href="#linearGradient1085"
       id="linearGradient3727"
       x1="-0.014040043"
       y1="30.023476"
       x2="24.505486"
       y2="30.023476"
       gradientUnits="userSpaceOnUse"
       gradientTransform="translate(0.641555,0.000000)" />
  </defs>
  <sodipodi:namedview
     id="base"
     pagecolor="#ffffff"
     bordercolor="#666666"
     borderopacity="1.0"
     inkscape:pageopacity="0.0"
     inkscape:pageshadow="2"
     inkscape:zoom="13.666667"
     inkscape:cx="30.000002"
     inkscape:cy="30.000002"
     inkscape:window-width="1400"
     inkscape:window-height="992"
     inkscape:window-x="0"
     inkscape:window-y="0"
     inkscape:current-layer="svg1" />
  <path
     style="opacity:0.29636899;fill:#000000;fill-opacity:1.0000000;fill-rule:evenodd;stroke:none;stroke-width:1.8750000;stroke-linecap:butt;stroke-linejoin:miter;stroke-dasharray:none;stroke-opacity:1.0000000"
     d="M 7.1875942,7.9441926 C 9.4295290,6.0057716 56.506924,6.0085340 58.454737,7.9441926 C 60.422253,9.7244595 59.741980,55.956242 57.929818,57.811551 C 56.403286,59.378594 9.0876200,59.833611 7.1875942,57.986524 C 5.1458210,55.826666 4.7561449,10.070304 7.1875942,7.9441926 z "
     id="path712"
     sodipodi:nodetypes="cssss" />
  <path
     style="font-size:12.000000px;fill:url(#linearGradient581);fill-rule:evenodd;stroke:#261933;stroke-width:1.8750000;stroke-dasharray:none"
     d="M 5.9012056,6.6209014 C 8.0265670,4.7832713 52.656095,4.7858901 54.502628,6.6209013 C 56.367839,8.3085990 55.722938,52.136483 54.005003,53.895323 C 52.557845,55.380884 7.7024360,55.812241 5.9012056,54.061197 C 3.9655977,52.013644 3.5961834,8.6364611 5.9012056,6.6209014 z "
     id="path684"
     sodipodi:nodetypes="cssss" />
  <path
     sodipodi:nodetypes="cssss"
     id="path2993"
     d="M 2.0072550,38.404114 C 1.2879691,37.954353 1.6285915,22.303401 2.0804257,21.701573 C 2.6177729,21.015973 11.363842,22.148472 12.079080,21.701573 C 12.699974,21.357761 12.429301,38.548841 11.876056,38.144409 C 11.179448,37.608504 2.7829537,38.946564 2.0072550,38.404114 z "
     style="font-size:12.000000px;fill:none;fill-opacity:1.0000000;fill-rule:evenodd;stroke:url(#linearGradient3727);stroke-width:3.1250000;stroke-miterlimit:4.0000000;stroke-dasharray:none" />
  <path
     style="fill:url(#linearGradient583);fill-opacity:1.0000000;fill-rule:evenodd;stroke:none;stroke-width:1.0000000pt;stroke-linecap:butt;stroke-linejoin:miter;stroke-opacity:1.0000000"
     d="M 7.3940821,50.080193 C 6.6687474,49.354858 6.2082158,11.534699 7.7258324,8.9431540 C 9.0478040,6.8515750 50.295260,8.2191651 51.019249,8.9431540 C 51.677553,9.6014583 15.539132,9.7065422 11.872711,13.090032 C 7.7482443,16.730348 8.0510402,50.737151 7.3940821,50.080193 z "
     id="path691"
     sodipodi:nodetypes="cssss" />
  <path
     style="fill:#261933;fill-opacity:1.0000000;fill-rule:evenodd;stroke:none;stroke-width:1.0000000pt;stroke-linecap:butt;stroke-linejoin:miter;stroke-opacity:1.0000000"
     d="M 13.002863,12.073763 C 23.593310,11.202960 37.237891,11.203045 47.779601,12.073763 C 48.777920,12.156221 48.629929,14.850493 47.622949,14.933293 C 37.037683,15.803670 23.541484,15.803756 13.002863,14.933293 C 12.001454,14.850579 12.001063,12.156136 13.002863,12.073763 z "
     id="path852"
     sodipodi:nodetypes="cssss" />
  <path
     style="fill:#261933;fill-opacity:1.0000000;fill-rule:evenodd;stroke:none;stroke-width:1.0000000pt;stroke-linecap:butt;stroke-linejoin:miter;stroke-opacity:1.0000000"
     d="M 25.802880,23.806917 C 32.223559,22.936114 40.495871,22.936199 46.887004,23.806917 C 47.492253,23.889376 47.402531,26.583647 46.792028,26.666447 C 40.374492,27.536824 32.192138,27.536910 25.802880,26.666447 C 25.195755,26.583734 25.195519,23.889290 25.802880,23.806917 z "
     id="path853"
     sodipodi:nodetypes="cssss" />
  <path
     style="fill:#261933;fill-opacity:1.0000000;fill-rule:evenodd;stroke:none;stroke-width:1.0000000pt;stroke-linecap:butt;stroke-linejoin:miter;stroke-opacity:1.0000000"
     d="M 13.525581,44.977646 C 23.566168,44.106843 36.502318,44.106928 46.496699,44.977646 C 47.443185,45.060105 47.302878,47.754376 46.348181,47.837176 C 36.312505,48.707553 23.517033,48.707639 13.525581,47.837176 C 12.576165,47.754462 12.575795,45.060019 13.525581,44.977646 z "
     id="path854"
     sodipodi:nodetypes="cssss" />
  <path
     style="fill:#261933;fill-opacity:1.0000000;fill-rule:evenodd;stroke:none;stroke-width:1.0000000pt;stroke-linecap:butt;stroke-linejoin:miter;stroke-opacity:1.0000000"
     d="M 25.802880,33.333109 C 32.223559,32.462306 40.495871,32.462391 46.887004,33.333109 C 47.492253,33.415568 47.402531,36.109839 46.792028,36.192639 C 40.374492,37.063016 32.192138,37.063102 25.802880,36.192639 C 25.195755,36.109926 25.195519,33.415482 25.802880,33.333109 z "
     id="path1079"
     sodipodi:nodetypes="cssss" />
  <path
     style="font-size:12.000000px;opacity:0.30267498;fill:#000000;fill-opacity:1.0000000;fill-rule:evenodd;stroke:none;stroke-width:14.847900"
     d="M 0.49674658,37.151560 C -0.30662340,36.649222 -0.0079068365,24.480773 0.49674658,23.808592 C 1.0969091,23.042844 10.865385,24.307732 11.664232,23.808592 C 12.357707,23.424588 10.986253,17.364769 11.664232,17.572202 C 12.294534,17.788003 25.235783,27.371639 25.297268,30.044979 C 25.269553,32.561728 12.550562,43.046633 11.664232,43.242916 C 10.883125,43.397959 12.137120,37.313205 11.519199,36.861495 C 10.741158,36.262944 1.3631237,37.757422 0.49674658,37.151560 z "
     id="path617"
     sodipodi:nodetypes="csssssss" />
  <path
     style="font-size:12.000000px;fill:url(#linearGradient2990);fill-opacity:1.0000000;fill-rule:evenodd;stroke:#261933;stroke-width:1.8699706"
     d="M 1.3657002,36.062650 C 0.64641433,35.612889 0.91386599,24.718035 1.3657002,24.116207 C 1.9030474,23.430607 10.649116,24.563106 11.364354,24.116207 C 11.985248,23.772395 10.757334,18.346820 11.364354,18.532543 C 11.928686,18.725758 23.515455,27.143531 23.570501,29.699871 C 23.545638,32.034614 12.157917,41.340721 11.364354,41.516461 C 10.665000,41.655277 11.787746,36.207377 11.234501,35.802945 C 10.537893,35.267040 2.1413989,36.605100 1.3657002,36.062650 z "
     id="path589"
     sodipodi:nodetypes="csssssss" />
  <path
     style="fill:url(#linearGradient2987);fill-opacity:1.0000000;fill-rule:evenodd;stroke:none;stroke-width:1.0000000pt;stroke-linecap:butt;stroke-linejoin:miter;stroke-opacity:1.0000000"
     d="M 2.1981285,35.425383 C 1.9916046,35.169206 1.9713138,26.053127 2.4294786,25.381375 C 2.9899540,24.669993 10.334875,26.423202 12.493217,25.381375 C 13.612338,24.841179 12.453888,21.364464 12.513648,21.115791 C 12.589198,20.661865 14.681909,22.296575 14.827151,22.550649 C 14.913259,22.701280 13.333087,21.973204 13.207699,22.329901 C 13.153812,22.812260 14.420260,25.733400 13.418617,26.264365 C 11.297030,27.389007 5.3292268,25.034092 3.5862307,26.816235 C 2.4812037,27.953979 2.3771890,35.647493 2.1981285,35.425383 z "
     id="path618"
     sodipodi:nodetypes="cssssssss" />
  <path
     style="opacity:0.20178296;fill:#261e2e;fill-opacity:1.0000000;fill-rule:evenodd;stroke:none;stroke-width:1.0000000pt;stroke-linecap:butt;stroke-linejoin:miter;stroke-opacity:1.0000000"
     d="M 1.0122546,29.957070 C 1.9257566,29.854262 22.794230,29.278885 23.460287,29.899510 C 24.010797,30.354911 14.269435,39.876310 11.488003,41.238645 C 10.508910,41.718201 12.609627,36.245008 11.430444,35.655417 C 9.3095756,34.594982 4.0192308,36.852608 1.5878454,35.885653 C 1.0711746,35.704636 0.40994229,30.031333 1.0122546,29.957070 z "
     id="path644"
     sodipodi:nodetypes="csssss" />
</svg>
