<?xml version="1.0" encoding="UTF-8" standalone="no"?>
<!-- Created with Inkscape (http://www.inkscape.org/) -->
<svg
   xmlns:dc="http://purl.org/dc/elements/1.1/"
   xmlns:cc="http://web.resource.org/cc/"
   xmlns:rdf="http://www.w3.org/1999/02/22-rdf-syntax-ns#"
   xmlns:svg="http://www.w3.org/2000/svg"
   xmlns="http://www.w3.org/2000/svg"
   xmlns:xlink="http://www.w3.org/1999/xlink"
   xmlns:sodipodi="http://inkscape.sourceforge.net/DTD/sodipodi-0.dtd"
   xmlns:inkscape="http://www.inkscape.org/namespaces/inkscape"
   version="1.0"
   x="0"
   y="0"
   width="48.000000pt"
   height="48.000000pt"
   id="svg1"
   sodipodi:version="0.32"
   inkscape:version="0.42"
   sodipodi:docname="cssvalidator-html.svg"
   sodipodi:docbase="/home/jakob/dev/lila/lila-theme/trunk/lila/kde/scalable/actions">
  <metadata
     id="metadata42">
    <rdf:RDF>
      <cc:Work
         rdf:about="">
        <dc:format>image/svg+xml</dc:format>
        <dc:type
           rdf:resource="http://purl.org/dc/dcmitype/StillImage" />
      </cc:Work>
    </rdf:RDF>
  </metadata>
  <sodipodi:namedview
     id="base"
     pagecolor="#ffffff"
     bordercolor="#666666"
     borderopacity="1.0"
     inkscape:pageopacity="0.0"
     inkscape:pageshadow="2"
     inkscape:zoom="1.00000000"
     inkscape:cx="28.930720"
     inkscape:cy="30.000000"
     inkscape:window-width="1400"
     inkscape:window-height="995"
     inkscape:window-x="0"
     inkscape:window-y="0"
     inkscape:current-layer="svg1" />
  <defs
     id="defs3">
    <linearGradient
       id="linearGradient665">
      <stop
         offset="0.00000000"
         style="stop-color:#ffffff;stop-opacity:1;"
         id="stop667" />
      <stop
         offset="1.00000000"
         style="stop-color:#ffffff;stop-opacity:0;"
         id="stop666" />
    </linearGradient>
    <linearGradient
       id="linearGradient570">
      <stop
         style="stop-color:#ffffff;stop-opacity:1;"
         offset="0.00000000"
         id="stop571" />
      <stop
         style="stop-color:#d9cce6;stop-opacity:1;"
         offset="1.00000000"
         id="stop572" />
    </linearGradient>
    <linearGradient
       id="linearGradient563">
      <stop
         style="stop-color:#d9cce6;stop-opacity:1;"
         offset="0"
         id="stop564" />
      <stop
         style="stop-color:#73667f;stop-opacity:1;"
         offset="1"
         id="stop565" />
    </linearGradient>
    <linearGradient
       id="linearGradient566"
       xlink:href="#linearGradient570"
       x1="0.73948892"
       y1="0.84829429"
       x2="45.278246"
       y2="45.344264"
       gradientTransform="scale(1.095900,0.912492)"
       gradientUnits="userSpaceOnUse" />
    <linearGradient
       id="linearGradient569"
       xlink:href="#linearGradient563"
       x1="42.105971"
       y1="1.0752421"
       x2="87.887745"
       y2="46.817252"
       gradientTransform="scale(1.140794,0.876582)"
       gradientUnits="userSpaceOnUse" />
    <linearGradient
       id="linearGradient573"
       xlink:href="#linearGradient665"
       x1="3.1264950"
       y1="3.5012898"
       x2="31.410491"
       y2="31.551532"
       gradientTransform="matrix(0.821482,0.000000,0.000000,1.077338,0.385923,4.339347)"
       gradientUnits="userSpaceOnUse" />
    <linearGradient
       x1="-0.00000000"
       y1="0.00000000"
       x2="0.99253732"
       y2="0.98437500"
       id="linearGradient575"
       xlink:href="#linearGradient570" />
    <linearGradient
       id="linearGradient578"
       xlink:href="#linearGradient563"
       x1="-0.00913242"
       y1="0.00413223"
       x2="0.98630136"
       y2="0.99586779" />
    <linearGradient
       xlink:href="#linearGradient570"
       id="linearGradient601"
       x1="-0.00000000"
       y1="0.00917431"
       x2="0.99130434"
       y2="0.99082571" />
    <defs
       id="defs640">
      <linearGradient
         id="linearGradient584"
         x1="0.00000000"
         y1="0.00000000"
         x2="1.00000000"
         y2="0.00000000"
         gradientUnits="objectBoundingBox"
         spreadMethod="pad"
         xlink:href="#linearGradient665" />
      <linearGradient
         id="linearGradient644">
        <stop
           style="stop-color:#d9cce6;stop-opacity:1;"
           offset="0.00000000"
           id="stop579" />
        <stop
           style="stop-color:#73667f;stop-opacity:1;"
           offset="1.00000000"
           id="stop580" />
      </linearGradient>
      <linearGradient
         xlink:href="#linearGradient644"
         id="linearGradient581"
         x1="89.888005"
         y1="3.9489972"
         x2="123.09136"
         y2="35.814057"
         gradientTransform="matrix(0.982230,0.000000,0.000000,1.189348,-62.12407,13.34103)"
         gradientUnits="userSpaceOnUse" />
      <linearGradient
         xlink:href="#linearGradient665"
         id="linearGradient583"
         x1="80.466968"
         y1="11.127087"
         x2="102.76574"
         y2="33.998394"
         gradientTransform="matrix(1.136892,0.000000,0.000000,1.027549,-62.12406,13.34103)"
         gradientUnits="userSpaceOnUse" />
    </defs>
    <sodipodi:namedview
       id="namedview649"
       pagecolor="#ffffff"
       bordercolor="#666666"
       borderopacity="1.0"
       inkscape:pageopacity="0.0"
       inkscape:pageshadow="2"
       inkscape:zoom="7.97947193"
       inkscape:cx="29.4003546"
       inkscape:cy="24.0932681"
       inkscape:window-width="640"
       inkscape:window-height="516"
       inkscape:window-x="99"
       inkscape:window-y="57" />
    <linearGradient
       inkscape:collect="always"
       xlink:href="#linearGradient570"
       id="linearGradient2072"
       x1="0.36118042"
       y1="0.82706839"
       x2="64.188995"
       y2="64.599442"
       gradientTransform="matrix(0.738122,0.000000,0.000000,0.687023,0.169483,4.339347)"
       gradientUnits="userSpaceOnUse" />
    <sodipodi:namedview
       inkscape:window-y="57"
       inkscape:window-x="99"
       inkscape:window-height="516"
       inkscape:window-width="640"
       inkscape:cy="24.0932681"
       inkscape:cx="29.4003546"
       inkscape:zoom="7.97947193"
       inkscape:pageshadow="2"
       inkscape:pageopacity="0.0"
       borderopacity="1.0"
       bordercolor="#666666"
       pagecolor="#ffffff"
       id="namedview2275" />
    <defs
       id="defs2261">
      <linearGradient
         xlink:href="#linearGradient665"
         spreadMethod="pad"
         gradientUnits="objectBoundingBox"
         y2="0.00000000"
         x2="1.00000000"
         y1="0.00000000"
         x1="0.00000000"
         id="linearGradient2263" />
      <linearGradient
         id="linearGradient2265">
        <stop
           id="stop2267"
           offset="0.00000000"
           style="stop-color:#d9cce6;stop-opacity:1;" />
        <stop
           id="stop2269"
           offset="1.00000000"
           style="stop-color:#73667f;stop-opacity:1;" />
      </linearGradient>
      <linearGradient
         y2="0.97142857"
         x2="0.99122804"
         y1="0.02857143"
         x1="0.00877193"
         id="linearGradient2271"
         xlink:href="#linearGradient578" />
      <linearGradient
         y2="0.99285716"
         x2="0.97402596"
         y1="0.00714286"
         x1="0.01298701"
         id="linearGradient2273"
         xlink:href="#linearGradient584" />
    </defs>
    <linearGradient
       y2="0.99082571"
       x2="0.99130434"
       y1="0.00917431"
       x1="-0.00000000"
       id="linearGradient2259"
       xlink:href="#linearGradient570" />
    <linearGradient
       y2="0.99586779"
       x2="0.98630136"
       y1="0.00413223"
       x1="-0.00913242"
       xlink:href="#linearGradient563"
       id="linearGradient2257" />
    <linearGradient
       xlink:href="#linearGradient570"
       id="linearGradient2255"
       y2="0.98437500"
       x2="0.99253732"
       y1="0.00000000"
       x1="-0.00000000" />
    <linearGradient
       y2="1.00000000"
       x2="1.00414944"
       y1="0.00826446"
       x1="0.00414938"
       xlink:href="#linearGradient665"
       id="linearGradient2253" />
    <linearGradient
       y2="0.99173552"
       x2="0.98746079"
       y1="0.00826446"
       x1="0.00313480"
       xlink:href="#linearGradient563"
       id="linearGradient2251" />
    <linearGradient
       y2="1.00000000"
       x2="1.00000000"
       y1="0.00413223"
       x1="0.00317460"
       xlink:href="#linearGradient570"
       id="linearGradient2249" />
    <linearGradient
       id="linearGradient2243">
      <stop
         id="stop2245"
         offset="0"
         style="stop-color:#d9cce6;stop-opacity:1;" />
      <stop
         id="stop2247"
         offset="1"
         style="stop-color:#73667f;stop-opacity:1;" />
    </linearGradient>
    <linearGradient
       id="linearGradient2237">
      <stop
         id="stop2239"
         offset="0.00000000"
         style="stop-color:#ffffff;stop-opacity:1;" />
      <stop
         id="stop2241"
         offset="1.00000000"
         style="stop-color:#d9cce6;stop-opacity:1;" />
    </linearGradient>
    <linearGradient
       id="linearGradient2231">
      <stop
         id="stop2233"
         style="stop-color:#ffffff;stop-opacity:1;"
         offset="0.00000000" />
      <stop
         id="stop2235"
         style="stop-color:#ffffff;stop-opacity:0;"
         offset="1.00000000" />
    </linearGradient>
    <linearGradient
       inkscape:collect="always"
       xlink:href="#linearGradient665"
       id="linearGradient2309"
       gradientUnits="userSpaceOnUse"
       gradientTransform="matrix(0.821482,0.000000,0.000000,1.077338,55.65319,18.28782)"
       x1="3.1264950"
       y1="3.5012898"
       x2="31.410491"
       y2="31.551532" />
    <linearGradient
       inkscape:collect="always"
       xlink:href="#linearGradient665"
       id="linearGradient2312"
       gradientUnits="userSpaceOnUse"
       gradientTransform="matrix(1.136892,0.000000,0.000000,1.027549,-6.856790,27.28950)"
       x1="80.466968"
       y1="11.127087"
       x2="102.76574"
       y2="33.998394" />
    <linearGradient
       inkscape:collect="always"
       xlink:href="#linearGradient644"
       id="linearGradient2315"
       gradientUnits="userSpaceOnUse"
       gradientTransform="matrix(0.982230,0.000000,0.000000,1.189348,-6.856800,27.28950)"
       x1="89.888005"
       y1="3.9489972"
       x2="123.09136"
       y2="35.814057" />
    <linearGradient
       inkscape:collect="always"
       xlink:href="#linearGradient570"
       id="linearGradient2325"
       gradientUnits="userSpaceOnUse"
       gradientTransform="matrix(1.095900,0.000000,0.000000,0.912492,55.26727,13.94847)"
       x1="0.73948892"
       y1="0.84829429"
       x2="45.278246"
       y2="45.344264" />
    <linearGradient
       inkscape:collect="always"
       xlink:href="#linearGradient563"
       id="linearGradient2328"
       gradientUnits="userSpaceOnUse"
       gradientTransform="matrix(1.140794,0.000000,0.000000,0.876582,55.26727,13.94847)"
       x1="42.105971"
       y1="1.0752421"
       x2="87.887745"
       y2="46.817252" />
  </defs>
  <path
     style="font-size:12.000000px;opacity:0.29999998;fill:#000000;fill-opacity:1.0000000;fill-rule:evenodd;stroke:none;stroke-width:1.7489400"
     d="M 26.013257,8.5480407 L 26.011575,50.340871 C 36.223271,50.325574 44.781360,49.365910 46.567140,47.489636 C 49.311644,44.669673 49.317576,14.636612 46.571689,11.586752 C 44.768261,9.5701369 36.216827,8.5503374 26.013257,8.5480407 z M 26.011575,50.340871 L 26.013257,8.5480407 C 15.809691,8.5457440 5.6316793,9.5609501 3.9304751,11.614346 C 1.3279777,14.740901 1.3328469,44.638875 3.9228209,47.525885 C 5.6122709,49.427093 15.799883,50.356167 26.011575,50.340871 z "
     id="path613"
     sodipodi:nodetypes="cccccccccc" />
  <path
     style="font-size:12.000000px;opacity:1.0000000;fill:url(#linearGradient2072);fill-opacity:1.0;fill-rule:evenodd;stroke:#261933;stroke-width:1.8750000;stroke-miterlimit:4.0000000;stroke-dasharray:none"
     d="M 23.251662,5.9124052 C 13.048092,5.9101086 4.5488118,6.9381869 2.8476064,8.9915830 C 0.24510916,12.118138 0.24283588,42.017157 2.8328108,44.904167 C 4.5222609,46.805374 13.039966,47.730887 23.251662,47.715591 C 33.463357,47.700294 43.689872,46.746973 45.475658,44.870699 C 48.220163,42.050736 48.236342,12.007974 45.490455,8.9581136 C 43.687026,6.9414982 33.455231,5.9147019 23.251662,5.9124052 z "
     id="path626" />
  <path
     style="font-size:12.000000px;opacity:0.30267498;fill-rule:evenodd;stroke-width:12.500000"
     d="M 25.065642,32.291837 C 25.576515,36.213674 36.504832,60.760311 41.279750,58.335201 C 48.869846,54.480308 60.482893,19.673223 60.025847,16.164597 C 59.701185,13.672331 48.038302,36.919237 39.623874,41.192793 C 35.673282,43.199238 24.794818,30.212784 25.065642,32.291837 z "
     id="path587"
     sodipodi:nodetypes="cssss" />
  <rect
     style="font-size:12;fill:#0000ff;fill-rule:evenodd;stroke-width:1pt;"
     id="rect575"
     width="0.00000000"
     height="0.00000000"
     x="106.58954621"
     y="36.74871445" />
  <path
     style="font-size:12.000000px;fill:url(#linearGradient581);fill-opacity:1.0000000;fill-rule:evenodd;stroke:#261933;stroke-width:1.8750000;stroke-miterlimit:4.0000000;stroke-dasharray:none"
     d="M 26.621528,33.853797 C 27.058066,37.204984 36.932788,58.285311 41.012927,56.213070 C 47.498625,52.919086 58.709583,20.753223 58.319039,17.755122 C 58.041630,15.625496 47.109992,38.966905 39.919909,42.618634 C 36.544149,44.333129 26.390111,32.077259 26.621528,33.853797 z "
     id="path577"
     sodipodi:nodetypes="cssss" />
  <path
     style="font-size:12.000000px;fill:url(#linearGradient583);fill-rule:evenodd;stroke-width:1.0000000pt"
     d="M 30.082741,39.935515 C 29.608735,39.300836 28.636821,37.141774 29.171894,37.431276 C 31.612257,38.751640 36.075298,45.800138 39.009049,44.765117 C 45.811155,42.608496 51.783347,29.278875 55.222142,24.731212 C 55.948473,23.732901 54.182755,28.918864 53.582614,30.097436 C 53.454070,30.349858 53.450164,29.266817 53.218283,29.560812 C 48.653048,35.348538 46.294056,45.311585 39.191219,48.342601 C 36.731473,49.356312 33.947095,42.672321 31.175759,40.114391 C 30.910936,39.869961 30.276691,40.195206 30.082741,39.935515 z "
     id="path582"
     sodipodi:nodetypes="cssssssss" />
  <path
     style="fill:url(#linearGradient573);fill-opacity:1.0000000;fill-rule:evenodd;stroke:none;stroke-width:1.0000000pt;stroke-linecap:butt;stroke-linejoin:miter;stroke-opacity:1.0000000"
     d="M 3.6137674,38.310707 C 3.0355572,37.471349 1.6616922,16.506641 5.1631372,11.033211 C 7.0314387,8.0290223 25.507379,7.3576426 26.079608,8.1883190 C 26.583328,8.9195442 12.366929,10.232133 8.6492135,15.216876 C 4.8783165,20.272930 4.1115074,39.033252 3.6137674,38.310707 z "
     id="path664"
     sodipodi:nodetypes="cssss" />
  <g
     id="g2331"
     transform="matrix(0.869210,0.000000,0.000000,0.869210,-44.07321,-9.082159)">
    <path
       sodipodi:nodetypes="cccccccccccsccscccccccc"
       id="path602"
       d="M 59.293484,27.172080 L 62.220153,27.139856 L 65.378866,38.205853 L 67.426333,30.833418 L 66.419186,27.096575 L 69.104652,27.139856 L 72.304749,38.141405 L 75.264590,27.096575 L 84.753521,27.187717 L 84.721297,29.316219 L 81.606814,34.431258 C 85.973934,34.905368 86.664594,45.781166 80.095144,45.780790 C 77.092699,45.780613 75.841772,43.282135 75.446876,42.590803 L 77.157417,41.159217 C 77.594430,41.842687 78.248657,43.529650 80.004000,43.502227 C 83.391275,43.482542 83.865681,35.867003 78.116703,36.393112 L 78.127760,34.752546 L 81.097712,29.921993 L 77.473177,29.927521 L 72.460338,45.919794 L 68.702329,35.407130 L 65.260080,45.978713 L 59.293484,27.172080 z "
       style="fill:#0c479d;fill-opacity:1.0000000;fill-rule:evenodd;stroke:none;stroke-width:1.0000000pt;stroke-linecap:butt;stroke-linejoin:miter;stroke-opacity:1.0000000" />
    <path
       sodipodi:nodetypes="cccscc"
       id="path603"
       d="M 94.708653,26.985377 L 94.837548,30.239975 L 93.548599,32.495638 C 86.916293,23.865692 87.028363,39.658870 86.781612,38.457030 C 83.899135,26.039115 91.490257,26.378454 93.226361,29.305486 L 94.708653,26.985377 z "
       style="fill:#000000;fill-opacity:1.0000000;fill-rule:evenodd;stroke:none;stroke-width:0.62500000;stroke-linecap:butt;stroke-linejoin:miter;stroke-dasharray:none;stroke-opacity:1.0000000" />
    <path
       sodipodi:nodetypes="cssss"
       id="path604"
       d="M 94.611982,40.519350 C 95.587137,42.003399 93.623417,46.158506 90.745133,46.158506 C 86.530543,46.158506 85.472785,41.372156 85.363768,41.002707 C 85.279443,40.716941 87.593974,44.096186 90.229552,44.096186 C 93.745056,44.096186 94.444800,40.256227 94.611982,40.519350 z "
       style="fill:#000000;fill-opacity:1.0000000;fill-rule:evenodd;stroke:none;stroke-width:0.62500000;stroke-linecap:butt;stroke-linejoin:miter;stroke-dasharray:none;stroke-opacity:1.0000000" />
    <path
       id="path606"
       d="M 99.961123,26.485909 C 99.961123,27.579842 99.044422,28.467669 97.914916,28.467669 C 96.785409,28.467669 95.868708,27.579842 95.868708,26.485909 C 95.868708,25.391978 96.785409,24.504149 97.914916,24.504149 C 99.044422,24.504149 99.961123,25.391978 99.961123,26.485909 z "
       style="font-size:12.000000px;fill:none;fill-opacity:0.75000000;fill-rule:evenodd;stroke:#000000;stroke-width:0.83885360" />
    <path
       sodipodi:nodetypes="ccscc"
       id="path607"
       d="M 97.125434,28.338774 L 97.093210,25.213071 C 97.981120,25.172925 98.669534,25.150089 98.736623,25.954218 C 98.780183,26.465883 98.385719,26.889407 97.721574,26.888706 L 98.849404,28.113208"
       style="font-size:12.000000px;fill:none;fill-opacity:0.75000000;fill-rule:evenodd;stroke:#000000;stroke-width:0.83885360" />
  </g>
  <rect
     style="font-size:12.000000px;fill:#0000ff;fill-rule:evenodd;stroke-width:1.0000000pt"
     id="rect2291"
     width="0.0000000"
     height="0.0000000"
     x="161.85681"
     y="50.697186" />
</svg>
