<?xml version="1.0" encoding="UTF-8" standalone="no"?>
<!DOCTYPE svg PUBLIC "-//W3C//DTD SVG 20010904//EN"
"http://www.w3.org/TR/2001/REC-SVG-20010904/DTD/svg10.dtd">
<!-- Created with Inkscape (http://www.inkscape.org/) -->
<svg
   id="svg1"
   sodipodi:version="0.32"
   inkscape:version="0.38"
   width="48pt"
   height="48pt"
   sodipodi:docbase="/home/tom"
   sodipodi:docname="icq_occupied.svg"
   xmlns="http://www.w3.org/2000/svg"
   xmlns:inkscape="http://www.inkscape.org/namespaces/inkscape"
   xmlns:sodipodi="http://sodipodi.sourceforge.net/DTD/sodipodi-0.dtd"
   xmlns:xml="http://www.w3.org/XML/1998/namespace"
   xmlns:xlink="http://www.w3.org/1999/xlink">
  <defs
     id="defs3">
    <radialGradient
       xlink:href="#linearGradient578"
       id="radialGradient670"
       cx="0.50781250"
       cy="0.50781250"
       r="0.24218750"
       fx="0.48437500"
       fy="0.50781250" />
    <radialGradient
       xlink:href="#linearGradient599"
       id="radialGradient595" />
    <linearGradient
       id="linearGradient578">
      <stop
         style="stop-color:#d9cce6;stop-opacity:1;"
         offset="0.00000000"
         id="stop579" />
      <stop
         style="stop-color:#73667f;stop-opacity:1;"
         offset="1.00000000"
         id="stop580" />
    </linearGradient>
    <linearGradient
       xlink:href="#linearGradient584"
       id="linearGradient733"
       x1="-0.00000000"
       y1="-0.00000000"
       x2="1.00000000"
       y2="-0.00000000" />
    <linearGradient
       id="linearGradient584">
      <stop
         style="stop-color:#ffffff;stop-opacity:1;"
         offset="0.00000000"
         id="stop585" />
      <stop
         style="stop-color:#ffffff;stop-opacity:0;"
         offset="1.00000000"
         id="stop586" />
    </linearGradient>
    <linearGradient
       xlink:href="#linearGradient584"
       id="linearGradient861"
       x1="-0.00000000"
       y1="0.00000000"
       x2="1.00000000"
       y2="0.00000000" />
    <linearGradient
       id="linearGradient874">
      <stop
         style="stop-color:#00ff00;stop-opacity:1.0000000;"
         offset="0.0000000"
         id="stop875" />
      <stop
         style="stop-color:#009900;stop-opacity:1.0000000;"
         offset="1.0000000"
         id="stop876" />
    </linearGradient>
    <linearGradient
       id="linearGradient871">
      <stop
         style="stop-color:#ffff87;stop-opacity:1;"
         offset="0.00000000"
         id="stop872" />
      <stop
         style="stop-color:#ffffdb;stop-opacity:0;"
         offset="1.00000000"
         id="stop873" />
    </linearGradient>
    <linearGradient
       id="linearGradient863">
      <stop
         style="stop-color:#d9cce6;stop-opacity:1.0000000;"
         offset="0.0000000"
         id="stop864" />
      <stop
         style="stop-color:#ffffff;stop-opacity:0.67000002;"
         offset="1.0000000"
         id="stop865" />
    </linearGradient>
    <linearGradient
       id="linearGradient615">
      <stop
         style="stop-color:#ffffff;stop-opacity:1;"
         offset="0.00000000"
         id="stop616" />
      <stop
         style="stop-color:#ffffff;stop-opacity:0;"
         offset="1.00000000"
         id="stop617" />
    </linearGradient>
    <linearGradient
       id="linearGradient592">
      <stop
         style="stop-color:#ffff87;stop-opacity:1;"
         offset="0.00000000"
         id="stop593" />
      <stop
         style="stop-color:#ffffdb;stop-opacity:0;"
         offset="1.00000000"
         id="stop594" />
    </linearGradient>
    <linearGradient
       id="linearGradient581">
      <stop
         style="stop-color:#ffffe6;stop-opacity:1;"
         offset="0.00000000"
         id="stop582" />
      <stop
         style="stop-color:#dbb73a;stop-opacity:1;"
         offset="1.00000000"
         id="stop583" />
    </linearGradient>
    <linearGradient
       id="linearGradient576">
      <stop
         style="stop-color:#7b7d7f;stop-opacity:1;"
         offset="0.00000000"
         id="stop577" />
      <stop
         style="stop-color:#f3f3f3;stop-opacity:1;"
         offset="1.00000000"
         id="stop578" />
    </linearGradient>
    <linearGradient
       xlink:href="#linearGradient576"
       id="linearGradient579"
       x1="0.98275864"
       y1="0.94531250"
       x2="-0.00862069"
       y2="0.00781250" />
    <linearGradient
       xlink:href="#linearGradient581"
       id="linearGradient580"
       x1="0.04716981"
       y1="0.02343750"
       x2="0.94339621"
       y2="0.96093750" />
    <radialGradient
       xlink:href="#linearGradient874"
       id="radialGradient586"
       cx="0.50000000"
       cy="0.50000000"
       r="0.50000000"
       fx="0.50000000"
       fy="0.50000000" />
    <linearGradient
       xlink:href="#linearGradient863"
       id="linearGradient587"
       x1="-5.7598240e-19"
       y1="0.50000000"
       x2="1.0000000"
       y2="0.50000000" />
    <linearGradient
       xlink:href="#linearGradient581"
       id="linearGradient596"
       x1="4.4972706e-16"
       y1="0.50000000"
       x2="1.0000000"
       y2="0.50000000" />
    <linearGradient
       xlink:href="#linearGradient592"
       id="linearGradient599"
       x1="0.18604651"
       y1="0.98437500"
       x2="0.80232561"
       y2="0.00000000" />
    <linearGradient
       xlink:href="#linearGradient592"
       id="linearGradient603"
       x1="0.65116280"
       y1="0.96875000"
       x2="0.02325581"
       y2="-0.01562500" />
    <linearGradient
       xlink:href="#linearGradient592"
       id="linearGradient604"
       x1="0.98969072"
       y1="0.50781250"
       x2="0.00515464"
       y2="0.50000000" />
    <linearGradient
       xlink:href="#linearGradient592"
       id="linearGradient605"
       x1="1.00000000"
       y1="0.02343750"
       x2="0.00617284"
       y2="0.89062500" />
    <linearGradient
       xlink:href="#linearGradient615"
       id="linearGradient614"
       x1="0.00694444"
       y1="0.02343750"
       x2="0.97916669"
       y2="0.97656250" />
    <linearGradient
       xlink:href="#linearGradient615"
       id="linearGradient619"
       x1="0.00000000"
       y1="0.00781250"
       x2="0.98275864"
       y2="1.00000000" />
    <linearGradient
       xlink:href="#linearGradient592"
       id="linearGradient622"
       x1="0.01428571"
       y1="0.02343750"
       x2="0.99285716"
       y2="1.00000000" />
    <linearGradient
       xlink:href="#linearGradient592"
       id="linearGradient624"
       x1="0.00625000"
       y1="0.96875000"
       x2="1.00000000"
       y2="0.01562500" />
    <linearGradient
       xlink:href="#linearGradient592"
       id="linearGradient626"
       x1="0.47872341"
       y1="0.97656250"
       x2="0.50000000"
       y2="0.00781250" />
  </defs>
  <sodipodi:namedview
     id="base"
     pagecolor="#ffffff"
     bordercolor="#666666"
     borderopacity="1.0"
     inkscape:pageopacity="0.0"
     inkscape:pageshadow="2"
     inkscape:zoom="7.9999999"
     inkscape:cx="43.023704"
     inkscape:cy="20.085926"
     inkscape:window-width="1018"
     inkscape:window-height="711"
     inkscape:window-x="0"
     inkscape:window-y="30" />
  <g
     id="g878"
     transform="translate(-52.34375,-20.00000)">
    <path
       style="fill:url(#radialGradient586);fill-rule:evenodd;stroke:#261933;stroke-opacity:1.0000000;stroke-width:1pt;stroke-linejoin:miter;stroke-linecap:butt;fill-opacity:0.75;"
       d="M 87.500000,41.875000 C 87.656250,35.625000 90.000000,27.500000 87.968750,23.125000 C 86.197920,19.739583 80.989580,19.791667 79.843750,23.281250 C 79.166670,29.531250 80.364580,35.781250 80.625000,42.031250 C 76.718750,37.083333 75.000001,30.885417 68.906251,27.187500 C 64.739584,26.145833 63.072918,27.916667 63.906251,31.562500 C 65.729168,37.604167 72.552084,41.145833 76.875001,45.937500 C 71.041668,45.989583 65.208334,44.479167 59.375001,46.093750 C 55.364584,47.864583 54.791668,50.885417 59.531251,53.281250 C 65.000001,54.739583 71.093751,53.072917 76.875001,52.968750 C 72.864584,56.458333 67.291668,59.322917 64.843751,63.437500 C 63.489584,68.541667 66.510418,70.520833 70.781251,69.062500 C 74.791667,66.562500 77.239584,61.875000 80.312500,58.125000 C 80.260420,62.968750 78.645830,67.812500 80.156250,72.656250 C 82.760420,77.031250 85.052080,76.406250 87.968750,72.656250 C 89.531250,68.072917 87.968750,62.864583 87.968750,57.968750 C 91.510420,61.250000 94.739580,65.156250 98.593750,67.812500 C 102.34375,70.364583 104.84375,67.604167 103.28125,63.281250 C 101.51042,59.218750 95.364580,56.406250 91.406250,52.968750 C 96.614580,52.968750 101.82292,54.218750 107.03125,52.968750 C 111.09375,52.135417 112.03125,46.927083 107.03125,44.843750 C 102.34375,43.750000 97.656250,45.156250 92.968750,45.312500 C 96.822920,41.250000 102.23958,38.437500 104.53125,33.125000 C 105.72917,28.958333 103.17708,27.291667 98.750000,28.125000 C 93.750000,31.145833 91.250000,37.291667 87.500000,41.875000 z "
       id="path870"
       sodipodi:nodetypes="ccccccccccccccccccccccccc" />
    <path
       sodipodi:type="arc"
       style="fill:url(#linearGradient596);fill-opacity:0.75000000;fill-rule:evenodd;stroke:#3f3f00;stroke-width:1.0000000pt;stroke-opacity:0.99900031;"
       id="path877"
       sodipodi:cx="84.296875"
       sodipodi:cy="50.156250"
       sodipodi:rx="6.3281250"
       sodipodi:ry="6.5625000"
       d="M 90.625000 50.156250 A 6.3281250 6.5625000 0 1 0 77.968750,50.156250 A 6.3281250 6.5625000 0 1 0 90.625000 50.156250 z" />
  </g>
  <ellipse
     cx="47.59568024"
     cy="41.55554962"
     rx="28.88131142"
     ry="28.88131142"
     transform="matrix(0.562686,0.000000,0.000000,0.556553,5.406070,6.574450)"
     style="font-size:12;fill:url(#radialGradient670);fill-opacity:0.75;fill-rule:evenodd;stroke:#261933;stroke-width:2.04345;stroke-dasharray:none;"
     id="path594" />
  <path
     d="M 32.260428,30.394345 C 31.792326,30.158515 31.012906,28.975695 31.370522,28.489354 L 37.019140,20.807481 L 34.058588,29.843601 C 33.887246,30.366568 32.688347,30.609930 32.260428,30.394345 z "
     style="font-size:12.000000;fill:url(#linearGradient578);fill-opacity:0.75000000;fill-rule:evenodd;stroke:#261933;stroke-width:1.3901349;"
     id="path666" />
  <path
     d="M 32.898956,29.947645 C 32.607284,30.358816 31.170655,30.806963 30.591309,30.293367 L 21.440394,22.181017 L 32.266219,27.932231 C 32.892765,28.265083 33.165587,29.571770 32.898956,29.947645 z "
     style="font-size:12.000000;fill:url(#linearGradient578);fill-opacity:0.75000000;fill-rule:evenodd;stroke:#261933;stroke-width:1.5502726;"
     id="path667" />
  <path
     d="M 45.143220,34.255660 C 44.341294,36.159307 42.925334,38.197321 41.407183,39.602667 C 39.981789,40.922148 38.312688,41.776930 36.425801,42.458137 C 38.520246,42.383484 40.900127,41.690720 42.369496,40.330532 C 43.843672,38.965894 45.030007,36.569897 45.143220,34.255660 z "
     style="font-size:12;fill:url(#linearGradient733);fill-opacity:0.75;fill-rule:evenodd;stroke-width:1pt;"
     id="path668" />
  <path
     d="M 18.304526,30.858604 C 18.420678,26.699751 20.348637,21.805480 23.043508,19.209217 C 25.714839,16.635634 30.755970,15.532882 35.448492,15.969447 C 31.545801,17.267653 27.324833,18.734775 24.507017,21.449483 C 21.958633,23.904622 19.489271,27.400552 18.304526,30.858604 z "
     style="font-size:12;fill:url(#linearGradient861);fill-opacity:0.75;fill-rule:evenodd;stroke-width:1pt;"
     id="path593" />
</svg>
