<?xml version="1.0" encoding="UTF-8" standalone="no"?>
<!DOCTYPE svg PUBLIC "-//W3C//DTD SVG 20010904//EN"
"http://www.w3.org/TR/2001/REC-SVG-20010904/DTD/svg10.dtd">
<!-- Created with Inkscape (http://www.inkscape.org/) -->
<svg
   id="svg1"
   sodipodi:version="0.32"
   inkscape:version="0.37"
   width="48pt"
   height="48pt"
   sodipodi:docbase="/home/tom"
   sodipodi:docname="identity.svg"
   xmlns="http://www.w3.org/2000/svg"
   xmlns:inkscape="http://www.inkscape.org/namespaces/inkscape"
   xmlns:sodipodi="http://sodipodi.sourceforge.net/DTD/sodipodi-0.dtd"
   xmlns:xlink="http://www.w3.org/1999/xlink">
  <defs
     id="defs3">
    <linearGradient
       id="linearGradient876">
      <stop
         style="stop-color:#ffffff;stop-opacity:1;"
         offset="0.00000000"
         id="stop877" />
      <stop
         style="stop-color:#7f7f7f;stop-opacity:1;"
         offset="1.00000000"
         id="stop878" />
    </linearGradient>
    <linearGradient
       id="linearGradient642">
      <stop
         style="stop-color:#d9cce6;stop-opacity:1;"
         offset="0.00000000"
         id="stop643" />
      <stop
         style="stop-color:#73667f;stop-opacity:1;"
         offset="1.00000000"
         id="stop644" />
    </linearGradient>
    <linearGradient
       id="linearGradient866">
      <stop
         style="stop-color:#ffffff;stop-opacity:1;"
         offset="0.00000000"
         id="stop867" />
      <stop
         style="stop-color:#d9cce6;stop-opacity:1;"
         offset="1.00000000"
         id="stop868" />
    </linearGradient>
    <linearGradient
       id="linearGradient584">
      <stop
         style="stop-color:#ffffff;stop-opacity:1;"
         offset="0.00000000"
         id="stop585" />
      <stop
         style="stop-color:#ffffff;stop-opacity:0;"
         offset="1.00000000"
         id="stop586" />
    </linearGradient>
    <linearGradient
       xlink:href="#linearGradient866"
       id="linearGradient586"
       x1="-0.00000000"
       y1="0.01562500"
       x2="0.99122804"
       y2="0.98437500" />
    <linearGradient
       xlink:href="#linearGradient584"
       id="linearGradient587"
       x1="0.00000000"
       y1="-0.00000000"
       x2="1.00000000"
       y2="1.00000000" />
    <linearGradient
       xlink:href="#linearGradient642"
       id="linearGradient638" />
    <radialGradient
       xlink:href="#linearGradient866"
       id="radialGradient639" />
    <linearGradient
       xlink:href="#linearGradient642"
       id="linearGradient640"
       x1="-0.00000000"
       y1="0.00000000"
       x2="1.00000000"
       y2="0.00000000" />
    <linearGradient
       xlink:href="#linearGradient584"
       id="linearGradient641"
       x1="0.00000000"
       y1="-0.00000000"
       x2="1.00000000"
       y2="-0.00000000" />
    <linearGradient
       xlink:href="#linearGradient584"
       id="linearGradient645" />
    <linearGradient
       xlink:href="#linearGradient584"
       id="linearGradient875"
       x1="0.00000000"
       y1="-0.00000000"
       x2="0.99166667"
       y2="0.98437500" />
  </defs>
  <sodipodi:namedview
     id="base"
     pagecolor="#ffffff"
     bordercolor="#666666"
     borderopacity="1.0"
     inkscape:pageopacity="0.0"
     inkscape:pageshadow="2"
     inkscape:zoom="7.97947193"
     inkscape:cx="21.7571879"
     inkscape:cy="23.6484736"
     inkscape:window-width="1018"
     inkscape:window-height="711"
     inkscape:window-x="0"
     inkscape:window-y="30" />
  <path
     d="M 4.4389304 48.086315 C 5.2483181 50.50443 38.765774 61.377487 40.966438 59.55288 C 42.936267 57.902492 57.675565 8.7785888 56.688667 6.8303779 C 55.662821 4.6824777 21.657054 -0.6675724 20.042945 0.80153134 C 18.054709 2.621752 3.5888672 45.311841 4.4389304 48.086315 z "
     style="font-size:12;opacity:0.302675;fill-rule:evenodd;stroke-width:12.5;"
     id="path639" />
  <path
     d="M 4.5541516 46.08493 C 5.3114351 48.34726 36.66955 58.519843 38.728432 56.812781 C 40.571358 55.268717 54.36111 9.3095333 53.437795 7.4867937 C 52.478034 5.477268 20.663028 0.47192513 19.152904 1.8463842 C 17.292759 3.5493405 3.7588508 43.489198 4.5541516 46.08493 z "
     style="font-size:12;fill:url(#linearGradient586);fill-rule:evenodd;stroke:#261933;stroke-width:1.87726;"
     id="path634" />
  <path
     d="M 6.6876568 43.965773 C 6.360392 43.13667 19.363758 4.5872629 20.579427 3.7922731 C 22.09876 2.7554118 46.659814 7.3454032 46.98631 8.172561 C 47.28557 8.9306762 27.823671 5.3906629 23.493845 9.2635774 C 15.189619 16.482895 6.9861475 44.721984 6.6876568 43.965773 z "
     style="font-size:12;opacity:0.699936;fill:url(#linearGradient587);fill-rule:evenodd;stroke:none;stroke-width:0.100121pt;"
     id="path640" />
  <path
     style="font-size:12;fill-opacity:0.3;fill-rule:evenodd;stroke-width:1pt;"
     d="M 5.267454 42.646274 C 5.2864757 38.732143 8.6687952 18.086484 23.18166 18.292424 C 40.795934 18.537569 41.599627 39.792929 41.948924 43.247604 C 42.054979 44.38784 38.883668 44.600155 38.252342 43.247604 C 36.507846 38.679396 32.711111 27.704218 32.565291 27.613034 C 31.000134 26.81212 38.494714 40.033256 37.114931 43.848933 C 36.030325 46.848325 29.194202 47.961587 25.172128 48.05824 C 20.853195 48.162029 13.461737 47.528123 12.091913 44.450262 C 10.428644 40.713056 16.457052 27.607512 16.072848 27.613034 C 14.991854 27.624483 11.086559 42.519784 10.67015 42.646274 C 8.5136189 43.035535 5.3193421 43.411724 5.267454 42.646274 z "
     id="path612"
     sodipodi:nodetypes="cssssssssss" />
  <path
     sodipodi:type="arc"
     style="font-size:12;fill-opacity:0.3;fill-rule:evenodd;stroke-width:1pt;"
     id="path614"
     sodipodi:cx="36.65656281"
     sodipodi:cy="15.35418892"
     sodipodi:rx="10.33903027"
     sodipodi:ry="10.33903027"
     d="M 46.995593 15.354189 A 10.339030 10.339030 0 1 0 26.317533,15.354189 A 10.339 10.339 0 1 0 46.9956 15.3542 L 36.656563 15.354189 z"
     transform="matrix(0.965898,0.000000,0.000000,0.940322,-13.41642,-2.185424)" />
  <path
     style="font-size:12;fill-opacity:1.00;fill-rule:evenodd;stroke-width:1pt;fill:url(#linearGradient640);"
     d="M 2.8419249 40.632455 C 2.8612616 36.969133 6.2994901 17.646406 21.052253 17.839148 C 38.957692 18.068585 39.77467 37.961947 40.12974 41.195253 C 40.23755 42.262425 37.013815 42.461135 36.372053 41.195253 C 34.598721 36.919765 30.739225 26.647852 30.590997 26.562513 C 28.999966 25.81292 36.618432 38.186874 35.215842 41.758051 C 34.113307 44.565248 27.164183 45.607174 23.075623 45.697635 C 18.685299 45.794772 11.171659 45.201486 9.7791927 42.320848 C 8.0884291 38.823112 14.216487 26.557344 13.825932 26.562513 C 12.727068 26.573228 8.7572202 40.51407 8.3339281 40.632455 C 6.1417487 40.996774 2.8946703 41.348855 2.8419249 40.632455 z "
     id="path646"
     sodipodi:nodetypes="cssssssssss" />
  <path
     style="font-size:12;fill-opacity:1.00;fill-rule:evenodd;stroke-width:1pt;fill:url(#linearGradient641);"
     d="M 7.7558234 27.828807 C 6.8735014 30.33634 12.468306 25.357234 14.982144 24.73342 C 17.382204 24.137839 17.958121 23.929926 22.497518 24.170622 C 25.191376 24.144824 31.07513 20.15244 28.278573 19.386842 C 12.249351 15.280009 8.1926233 26.448123 7.7558234 27.828807 z "
     id="path637"
     sodipodi:nodetypes="cssss" />
  <path
     sodipodi:type="arc"
     style="font-size:12;fill-opacity:1.00;fill-rule:evenodd;stroke-width:1pt;fill:url(#linearGradient638);"
     id="path608"
     sodipodi:cx="36.65656281"
     sodipodi:cy="15.35418892"
     sodipodi:rx="10.33903027"
     sodipodi:ry="10.33903027"
     d="M 46.995593 15.354189 A 10.339030 10.339030 0 1 0 26.317533,15.354189 A 10.339 10.339 0 1 0 46.9956 15.3542 L 36.656563 15.354189 z"
     transform="matrix(0.936574,0.000000,0.000000,0.911774,-13.85743,-2.632573)" />
  <path
     style="font-size:12;fill-opacity:0.491667;fill-rule:evenodd;stroke-width:1pt;fill:url(#linearGradient645);"
     d="M 17.29458 9.5378913 C 18.953986 8.8184742 20.049203 9.6097719 21.34132 9.5378913 C 23.421486 9.422173 27.516252 7.4710365 27.41143 7.2867015 C 24.609987 2.8685695 19.162554 2.4611075 15.849317 4.4727124 C 10.201916 7.9014863 12.262024 15.807823 13.536893 15.165869 C 15.056202 14.40083 14.699636 10.589065 17.29458 9.5378913 z "
     id="path630"
     sodipodi:nodetypes="csssss" />
</svg>
