<?xml version="1.0" encoding="UTF-8" standalone="no"?>
<!DOCTYPE svg PUBLIC "-//W3C//DTD SVG 20010904//EN"
"http://www.w3.org/TR/2001/REC-SVG-20010904/DTD/svg10.dtd">
<!-- Created with Inkscape (http://www.inkscape.org/) -->
<svg
   version="1"
   x="0.00000000"
   y="0.00000000"
   width="40pt"
   height="400pt"
   id="svg548"
   sodipodi:version="0.32"
   sodipodi:docname="kde.svg"
   sodipodi:docbase="/home/tom"
   inkscape:version="0.37"
   xmlns="http://www.w3.org/2000/svg"
   xmlns:inkscape="http://www.inkscape.org/namespaces/inkscape"
   xmlns:sodipodi="http://sodipodi.sourceforge.net/DTD/sodipodi-0.dtd"
   xmlns:xlink="http://www.w3.org/1999/xlink">
  <sodipodi:namedview
     id="base"
     inkscape:zoom="2"
     inkscape:cx="18.0312195"
     inkscape:cy="108.235596"
     inkscape:window-width="1018"
     inkscape:window-height="711"
     inkscape:window-x="0"
     inkscape:window-y="30"
     showgrid="true"
     gridspacingy="1pt"
     gridspacingx="0.99pt">
    <sodipodi:guide
       orientation="vertical"
       position="36.00323641"
       id="guide1024" />
  </sodipodi:namedview>
  <defs
     id="defs550">
    <linearGradient
       x1="0.00000000"
       y1="0.00000000"
       x2="1.00000000"
       y2="0.00000000"
       id="linearGradient1129"
       gradientUnits="objectBoundingBox"
       spreadMethod="pad">
      <stop
         style="stop-color:#d9cce6;stop-opacity:1;"
         offset="0.00000000"
         id="stop1130" />
      <stop
         style="stop-color:#73667f;stop-opacity:1;"
         offset="1.00000000"
         id="stop1131" />
    </linearGradient>
    <linearGradient
       x1="0.00000000"
       y1="0.00000000"
       x2="1.00000000"
       y2="0.00000000"
       id="linearGradient588"
       gradientUnits="objectBoundingBox"
       spreadMethod="pad">
      <stop
         style="stop-color:#a673f3;stop-opacity:1;"
         offset="0.00000000"
         id="stop589" />
      <stop
         style="stop-color:#4c3f8c;stop-opacity:1;"
         offset="1.00000000"
         id="stop590" />
    </linearGradient>
    <linearGradient
       x1="0.00000000"
       y1="0.00000000"
       x2="1.00000000"
       y2="0.00000000"
       id="linearGradient576"
       gradientUnits="objectBoundingBox"
       spreadMethod="pad">
      <stop
         style="stop-color:#000000;stop-opacity:1;"
         offset="0.00000000"
         id="stop577" />
      <stop
         style="stop-color:#000000;stop-opacity:0;"
         offset="1.00000000"
         id="stop578" />
    </linearGradient>
    <linearGradient
       x1="0.00000000"
       y1="0.00000000"
       x2="1.00000000"
       y2="0.00000000"
       id="linearGradient569"
       gradientUnits="objectBoundingBox"
       spreadMethod="pad">
      <stop
         style="stop-color:#736b7f;stop-opacity:1;"
         offset="0.00000000"
         id="stop570" />
      <stop
         style="stop-color:#f3ebff;stop-opacity:1;"
         offset="1.00000000"
         id="stop571" />
    </linearGradient>
    <linearGradient
       x1="0.00000000"
       y1="0.00000000"
       x2="1.00000000"
       y2="0.00000000"
       id="linearGradient564"
       gradientUnits="objectBoundingBox"
       spreadMethod="pad">
      <stop
         style="stop-color:#7f7366;stop-opacity:1;"
         offset="0.00000000"
         id="stop565" />
      <stop
         style="stop-color:#7f7366;stop-opacity:0;"
         offset="1.00000000"
         id="stop566" />
    </linearGradient>
    <linearGradient
       x1="0.00000000"
       y1="0.00000000"
       x2="1.00000000"
       y2="0.00000000"
       id="linearGradient558"
       gradientUnits="objectBoundingBox"
       spreadMethod="pad">
      <stop
         style="stop-color:#ffffff;stop-opacity:1;"
         offset="0.00000000"
         id="stop559" />
      <stop
         style="stop-color:#ffffff;stop-opacity:0;"
         offset="1.00000000"
         id="stop560" />
    </linearGradient>
    <linearGradient
       id="linearGradient561"
       xlink:href="#linearGradient1129"
       y2="0.98437500"
       x2="0.98648649"
       y1="-0.00000000"
       x1="-0.01351351" />
    <linearGradient
       x1="0.49351925"
       y1="0.99222833"
       x2="0.49350709"
       y2="0.01562530"
       id="linearGradient563"
       xlink:href="#linearGradient564"
       gradientUnits="objectBoundingBox"
       spreadMethod="pad" />
    <linearGradient
       x1="0.12337894"
       y1="0.99219656"
       x2="0.82467574"
       y2="0.00000038"
       id="linearGradient572"
       xlink:href="#linearGradient569"
       gradientUnits="objectBoundingBox"
       spreadMethod="pad" />
    <linearGradient
       x1="0.03246462"
       y1="0.98445034"
       x2="0.69480515"
       y2="0.24218844"
       id="linearGradient575"
       xlink:href="#linearGradient564"
       gradientUnits="objectBoundingBox"
       spreadMethod="pad" />
    <radialGradient
       cx="0.48876417"
       cy="0.98437452"
       fx="0.49438202"
       fy="0.86718750"
       r="0.79719150"
       id="radialGradient579"
       xlink:href="#linearGradient576"
       gradientUnits="objectBoundingBox"
       spreadMethod="pad" />
    <linearGradient
       x1="0.57826090"
       y1="0.97656250"
       x2="0.29130435"
       y2="0.51562500"
       id="linearGradient583"
       xlink:href="#linearGradient564"
       gradientUnits="objectBoundingBox"
       spreadMethod="pad" />
    <linearGradient
       x1="0.96277922"
       y1="0.00000272"
       x2="0.00531922"
       y2="0.98437500"
       id="linearGradient585"
       xlink:href="#linearGradient558"
       gradientUnits="objectBoundingBox"
       spreadMethod="pad" />
    <radialGradient
       cx="0.14615387"
       cy="0.39062509"
       fx="0.14615387"
       fy="0.39062509"
       r="0.52400964"
       id="radialGradient587"
       xlink:href="#linearGradient558"
       gradientUnits="objectBoundingBox"
       spreadMethod="pad" />
    <radialGradient
       cx="0.13076705"
       cy="0.41407111"
       fx="0.13076705"
       fy="0.41407111"
       r="0.75421256"
       id="radialGradient592"
       xlink:href="#linearGradient558"
       gradientUnits="objectBoundingBox"
       spreadMethod="pad" />
    <linearGradient
       xlink:href="#linearGradient558"
       id="linearGradient1132"
       x1="0.01315789"
       y1="0.01562500"
       x2="0.96052629"
       y2="0.96875000" />
    <linearGradient
       xlink:href="#linearGradient1129"
       id="linearGradient1133"
       x1="0.01515152"
       y1="0.00000000"
       x2="0.97727275"
       y2="1.00000000" />
    <linearGradient
       xlink:href="#linearGradient558"
       id="linearGradient1134"
       x1="0.01094890"
       y1="0.02040816"
       x2="0.98905110"
       y2="0.97959185" />
    <linearGradient
       xlink:href="#linearGradient558"
       id="linearGradient1135"
       x1="-0.00000000"
       y1="0.01562500"
       x2="1.00000000"
       y2="0.99218750" />
  </defs>
  <path
     sodipodi:type="arc"
     style="font-size:12;opacity:0.1;fill:#ffffff;fill-rule:evenodd;stroke:#ffffff;stroke-width:1pt;"
     id="path1025"
     sodipodi:cx="29.96055794"
     sodipodi:cy="30.29227257"
     sodipodi:rx="29.96055794"
     sodipodi:ry="29.96055794"
     d="M 59.921116 30.292273 A 29.960558 29.960558 0 1 0 0.000000,30.292273 A 29.9606 29.9606 0 1 0 59.9211 30.2923 L 29.960558 30.292273 z"
     transform="matrix(0.921177,-4.681141e-16,4.497767e-16,0.952560,2.101920,-0.527688)" />
  <g
     id="g940"
     transform="matrix(0.939008,-4.574322e-16,4.599656e-16,0.933836,-3.670802,-2.588783)"
     style="font-size:12;">
    <path
       d="M 19.356123 32.054245 C 18.910775 30.725418 10.254194 28.448961 9.494728 22.218197 C 8.731944 15.86264 17.877351 6.4255333 26.993904 6.2430273 C 39.22145 5.9006301 55.06091 20.418283 56.161019 28.64297 C 57.399567 37.792672 26.930727 57.45677 18.315485 56.37947 C 9.942804 55.430287 7.822139 48.440444 8.891246 43.603435 C 9.99116 38.822584 19.568268 33.285772 19.356123 32.054245 z "
       style="font-size:12;opacity:0.296369;fill:#000000;fill-rule:evenodd;stroke-width:1pt;fill-opacity:1;"
       id="path581" />
    <path
       d="M 19.089827 31.097836 C 18.681548 29.879615 10.745499 27.792639 10.049245 22.080494 C 9.349951 16.253944 17.734142 7.6023343 26.091876 7.4350193 C 37.301661 7.1211233 51.822721 20.430398 52.831262 27.970502 C 53.966719 36.358624 26.033958 54.385981 18.135806 53.398356 C 10.460026 52.528172 8.515875 46.120129 9.495994 41.68573 C 10.504357 37.302812 19.284312 32.226859 19.089827 31.097836 z "
       style="font-size:12;fill:#bfb8cc;fill-rule:evenodd;stroke:#261e2e;stroke-width:1.875;stroke-dasharray:none;"
       id="path552" />
    <path
       d="M 24.306507 28.850686 C 23.910312 27.668519 14.445506 25.635676 13.014241 21.924552 C 11.506652 18.261652 18.41145 10.362895 26.497204 9.7106633 C 35.550895 8.9717023 49.80578 19.969595 51.48961 27.466604 C 52.685829 32.966506 25.404891 50.479077 17.820972 49.014505 C 11.327981 47.909357 11.082875 44.427727 11.956101 41.818284 C 13.107219 38.505091 24.495236 29.946297 24.306507 28.850686 z "
       style="font-size:12;fill:url(#radialGradient592);fill-rule:evenodd;stroke-width:1pt;"
       id="path557" />
    <path
       d="M 24.39875 28.91931 C 24.003897 27.741147 14.571164 25.715192 13.144751 22.016644 C 11.642268 18.366156 18.523669 10.494165 26.582023 9.8441443 C 35.605036 9.1076863 49.811615 20.06831 51.48974 27.539917 C 52.681905 33.021181 25.493412 50.474406 17.935193 49.014799 C 11.464205 47.913395 11.219929 44.443563 12.090195 41.842963 C 13.237412 38.540997 24.586841 30.011206 24.39875 28.91931 z "
       style="font-size:12;fill:url(#radialGradient587);fill-rule:evenodd;stroke-width:1pt;"
       id="path596" />
    <path
       d="M 25.513822 17.610672 C 29.896756 13.540958 37.329414 20.25786 35.143064 24.133745 C 32.577747 28.370302 21.199115 21.617118 25.513822 17.610672 z "
       style="font-size:12;fill:url(#linearGradient572);fill-rule:evenodd;stroke-width:1pt;"
       id="path568" />
    <path
       d="M 27.431967 19.009515 C 29.958326 16.663701 34.242569 20.535376 32.982341 22.769468 C 31.50367 25.211452 24.944936 21.318864 27.431967 19.009515 z "
       style="font-size:12;fill:#bfb8cc;fill-rule:evenodd;stroke-width:1pt;fill-opacity:1;"
       id="path562" />
    <path
       d="M 27.431967 19.009515 C 29.958326 16.663701 34.242569 20.535376 32.982341 22.769468 C 31.50367 25.211452 24.944936 21.318864 27.431967 19.009515 z "
       style="font-size:12;fill:url(#linearGradient563);fill-rule:evenodd;stroke-width:1pt;"
       id="path567" />
    <path
       d="M 32.983632 21.602637 C 32.952349 22.519329 32.37765 23.762002 31.084708 23.505515 C 29.807497 23.29667 27.733033 22.412578 27.125621 20.833893 C 26.947581 20.357813 29.690769 19.038124 30.727196 19.348702 C 31.526414 19.587994 33.025639 20.886192 32.983632 21.602637 z "
       style="font-size:12;fill:url(#radialGradient579);fill-rule:evenodd;stroke-width:1pt;"
       id="path574"
       sodipodi:nodetypes="ccccc" />
    <path
       d="M 11.961959 21.348188 C 12.255262 26.237122 17.339117 27.607289 20.272447 29.856194 C 21.421356 30.051682 22.549011 29.042951 22.198932 28.337273 C 18.043331 26.479487 13.40417 24.965943 11.961959 21.348188 z "
       style="font-size:12;fill:url(#linearGradient575);fill-rule:evenodd;stroke-width:1pt;"
       id="path580"
       sodipodi:nodetypes="cccc" />
    <path
       d="M 11.274446 46.09999 C 12.605065 49.610546 16.058978 51.592229 19.342958 51.705516 C 27.69469 51.422467 49.465561 36.530929 50.93779 29.453173 C 46.889287 34.32267 30.185996 47.515576 19.003266 48.817872 C 16.172264 48.874516 14.275378 48.506502 11.274446 46.09999 z "
       style="font-size:12;fill:url(#linearGradient583);fill-rule:evenodd;stroke-width:1pt;"
       id="path582" />
    <path
       d="M 50.486021 27.128405 C 49.276559 25.561787 38.761956 40.516688 19.51155 48.255391 C 36.779373 43.090418 51.365501 28.283703 50.486021 27.128405 z "
       style="font-size:12;opacity:0.804375;fill:url(#linearGradient585);fill-rule:evenodd;stroke-width:1pt;"
       id="path584" />
  </g>
  <g
     id="g619"
     transform="matrix(0.939008,-4.574322e-16,4.599656e-16,0.933836,-3.670802,47.41122)"
     style="font-size:12;">
    <path
       d="M 19.356123 32.054245 C 18.910775 30.725418 10.254194 28.448961 9.494728 22.218197 C 8.731944 15.86264 17.877351 6.4255333 26.993904 6.2430273 C 39.22145 5.9006301 55.06091 20.418283 56.161019 28.64297 C 57.399567 37.792672 26.930727 57.45677 18.315485 56.37947 C 9.942804 55.430287 7.822139 48.440444 8.891246 43.603435 C 9.99116 38.822584 19.568268 33.285772 19.356123 32.054245 z "
       style="font-size:12;opacity:0.296369;fill:#000000;fill-rule:evenodd;stroke-width:1pt;fill-opacity:1;"
       id="path620" />
    <path
       d="M 19.089827 31.097836 C 18.681548 29.879615 10.745499 27.792639 10.049245 22.080494 C 9.349951 16.253944 17.734142 7.6023343 26.091876 7.4350193 C 37.301661 7.1211233 51.822721 20.430398 52.831262 27.970502 C 53.966719 36.358624 26.033958 54.385981 18.135806 53.398356 C 10.460026 52.528172 8.515875 46.120129 9.495994 41.68573 C 10.504357 37.302812 19.284312 32.226859 19.089827 31.097836 z "
       style="font-size:12;fill:#bfb8cc;fill-rule:evenodd;stroke:#261e2e;stroke-width:1.875;stroke-dasharray:none;"
       id="path621" />
    <path
       d="M 24.306507 28.850686 C 23.910312 27.668519 14.445506 25.635676 13.014241 21.924552 C 11.506652 18.261652 18.41145 10.362895 26.497204 9.7106633 C 35.550895 8.9717023 49.80578 19.969595 51.48961 27.466604 C 52.685829 32.966506 25.404891 50.479077 17.820972 49.014505 C 11.327981 47.909357 11.082875 44.427727 11.956101 41.818284 C 13.107219 38.505091 24.495236 29.946297 24.306507 28.850686 z "
       style="font-size:12;fill:url(#radialGradient592);fill-rule:evenodd;stroke-width:1pt;"
       id="path622" />
    <path
       d="M 24.39875 28.91931 C 24.003897 27.741147 14.571164 25.715192 13.144751 22.016644 C 11.642268 18.366156 18.523669 10.494165 26.582023 9.8441443 C 35.605036 9.1076863 49.811615 20.06831 51.48974 27.539917 C 52.681905 33.021181 25.493412 50.474406 17.935193 49.014799 C 11.464205 47.913395 11.219929 44.443563 12.090195 41.842963 C 13.237412 38.540997 24.586841 30.011206 24.39875 28.91931 z "
       style="font-size:12;fill:url(#radialGradient587);fill-rule:evenodd;stroke-width:1pt;"
       id="path623" />
    <path
       d="M 25.513822 17.610672 C 29.896756 13.540958 37.329414 20.25786 35.143064 24.133745 C 32.577747 28.370302 21.199115 21.617118 25.513822 17.610672 z "
       style="font-size:12;fill:url(#linearGradient572);fill-rule:evenodd;stroke-width:1pt;"
       id="path624" />
    <path
       d="M 27.431967 19.009515 C 29.958326 16.663701 34.242569 20.535376 32.982341 22.769468 C 31.50367 25.211452 24.944936 21.318864 27.431967 19.009515 z "
       style="font-size:12;fill:#bfb8cc;fill-rule:evenodd;stroke-width:1pt;fill-opacity:1;"
       id="path625" />
    <path
       d="M 27.431967 19.009515 C 29.958326 16.663701 34.242569 20.535376 32.982341 22.769468 C 31.50367 25.211452 24.944936 21.318864 27.431967 19.009515 z "
       style="font-size:12;fill:url(#linearGradient563);fill-rule:evenodd;stroke-width:1pt;"
       id="path626" />
    <path
       d="M 32.983632 21.602637 C 32.952349 22.519329 32.37765 23.762002 31.084708 23.505515 C 29.807497 23.29667 27.733033 22.412578 27.125621 20.833893 C 26.947581 20.357813 29.690769 19.038124 30.727196 19.348702 C 31.526414 19.587994 33.025639 20.886192 32.983632 21.602637 z "
       style="font-size:12;fill:url(#radialGradient579);fill-rule:evenodd;stroke-width:1pt;"
       id="path627"
       sodipodi:nodetypes="ccccc" />
    <path
       d="M 11.961959 21.348188 C 12.255262 26.237122 17.339117 27.607289 20.272447 29.856194 C 21.421356 30.051682 22.549011 29.042951 22.198932 28.337273 C 18.043331 26.479487 13.40417 24.965943 11.961959 21.348188 z "
       style="font-size:12;fill:url(#linearGradient575);fill-rule:evenodd;stroke-width:1pt;"
       id="path628"
       sodipodi:nodetypes="cccc" />
    <path
       d="M 11.274446 46.09999 C 12.605065 49.610546 16.058978 51.592229 19.342958 51.705516 C 27.69469 51.422467 49.465561 36.530929 50.93779 29.453173 C 46.889287 34.32267 30.185996 47.515576 19.003266 48.817872 C 16.172264 48.874516 14.275378 48.506502 11.274446 46.09999 z "
       style="font-size:12;fill:url(#linearGradient583);fill-rule:evenodd;stroke-width:1pt;"
       id="path629" />
    <path
       d="M 50.486021 27.128405 C 49.276559 25.561787 38.761956 40.516688 19.51155 48.255391 C 36.779373 43.090418 51.365501 28.283703 50.486021 27.128405 z "
       style="font-size:12;opacity:0.804375;fill:url(#linearGradient585);fill-rule:evenodd;stroke-width:1pt;"
       id="path630" />
  </g>
  <g
     id="g631"
     transform="matrix(0.939008,-4.574322e-16,4.599656e-16,0.933836,-3.670802,97.41122)"
     style="font-size:12;">
    <path
       d="M 19.356123 32.054245 C 18.910775 30.725418 10.254194 28.448961 9.494728 22.218197 C 8.731944 15.86264 17.877351 6.4255333 26.993904 6.2430273 C 39.22145 5.9006301 55.06091 20.418283 56.161019 28.64297 C 57.399567 37.792672 26.930727 57.45677 18.315485 56.37947 C 9.942804 55.430287 7.822139 48.440444 8.891246 43.603435 C 9.99116 38.822584 19.568268 33.285772 19.356123 32.054245 z "
       style="font-size:12;opacity:0.296369;fill:#000000;fill-rule:evenodd;stroke-width:1pt;fill-opacity:1;"
       id="path632" />
    <path
       d="M 19.089827 31.097836 C 18.681548 29.879615 10.745499 27.792639 10.049245 22.080494 C 9.349951 16.253944 17.734142 7.6023343 26.091876 7.4350193 C 37.301661 7.1211233 51.822721 20.430398 52.831262 27.970502 C 53.966719 36.358624 26.033958 54.385981 18.135806 53.398356 C 10.460026 52.528172 8.515875 46.120129 9.495994 41.68573 C 10.504357 37.302812 19.284312 32.226859 19.089827 31.097836 z "
       style="font-size:12;fill:#bfb8cc;fill-rule:evenodd;stroke:#261e2e;stroke-width:1.875;stroke-dasharray:none;"
       id="path633" />
    <path
       d="M 24.306507 28.850686 C 23.910312 27.668519 14.445506 25.635676 13.014241 21.924552 C 11.506652 18.261652 18.41145 10.362895 26.497204 9.7106633 C 35.550895 8.9717023 49.80578 19.969595 51.48961 27.466604 C 52.685829 32.966506 25.404891 50.479077 17.820972 49.014505 C 11.327981 47.909357 11.082875 44.427727 11.956101 41.818284 C 13.107219 38.505091 24.495236 29.946297 24.306507 28.850686 z "
       style="font-size:12;fill:url(#radialGradient592);fill-rule:evenodd;stroke-width:1pt;"
       id="path634" />
    <path
       d="M 24.39875 28.91931 C 24.003897 27.741147 14.571164 25.715192 13.144751 22.016644 C 11.642268 18.366156 18.523669 10.494165 26.582023 9.8441443 C 35.605036 9.1076863 49.811615 20.06831 51.48974 27.539917 C 52.681905 33.021181 25.493412 50.474406 17.935193 49.014799 C 11.464205 47.913395 11.219929 44.443563 12.090195 41.842963 C 13.237412 38.540997 24.586841 30.011206 24.39875 28.91931 z "
       style="font-size:12;fill:url(#radialGradient587);fill-rule:evenodd;stroke-width:1pt;"
       id="path635" />
    <path
       d="M 25.513822 17.610672 C 29.896756 13.540958 37.329414 20.25786 35.143064 24.133745 C 32.577747 28.370302 21.199115 21.617118 25.513822 17.610672 z "
       style="font-size:12;fill:url(#linearGradient572);fill-rule:evenodd;stroke-width:1pt;"
       id="path636" />
    <path
       d="M 27.431967 19.009515 C 29.958326 16.663701 34.242569 20.535376 32.982341 22.769468 C 31.50367 25.211452 24.944936 21.318864 27.431967 19.009515 z "
       style="font-size:12;fill:#bfb8cc;fill-rule:evenodd;stroke-width:1pt;fill-opacity:1;"
       id="path637" />
    <path
       d="M 27.431967 19.009515 C 29.958326 16.663701 34.242569 20.535376 32.982341 22.769468 C 31.50367 25.211452 24.944936 21.318864 27.431967 19.009515 z "
       style="font-size:12;fill:url(#linearGradient563);fill-rule:evenodd;stroke-width:1pt;"
       id="path638" />
    <path
       d="M 32.983632 21.602637 C 32.952349 22.519329 32.37765 23.762002 31.084708 23.505515 C 29.807497 23.29667 27.733033 22.412578 27.125621 20.833893 C 26.947581 20.357813 29.690769 19.038124 30.727196 19.348702 C 31.526414 19.587994 33.025639 20.886192 32.983632 21.602637 z "
       style="font-size:12;fill:url(#radialGradient579);fill-rule:evenodd;stroke-width:1pt;"
       id="path639"
       sodipodi:nodetypes="ccccc" />
    <path
       d="M 11.961959 21.348188 C 12.255262 26.237122 17.339117 27.607289 20.272447 29.856194 C 21.421356 30.051682 22.549011 29.042951 22.198932 28.337273 C 18.043331 26.479487 13.40417 24.965943 11.961959 21.348188 z "
       style="font-size:12;fill:url(#linearGradient575);fill-rule:evenodd;stroke-width:1pt;"
       id="path640"
       sodipodi:nodetypes="cccc" />
    <path
       d="M 11.274446 46.09999 C 12.605065 49.610546 16.058978 51.592229 19.342958 51.705516 C 27.69469 51.422467 49.465561 36.530929 50.93779 29.453173 C 46.889287 34.32267 30.185996 47.515576 19.003266 48.817872 C 16.172264 48.874516 14.275378 48.506502 11.274446 46.09999 z "
       style="font-size:12;fill:url(#linearGradient583);fill-rule:evenodd;stroke-width:1pt;"
       id="path641" />
    <path
       d="M 50.486021 27.128405 C 49.276559 25.561787 38.761956 40.516688 19.51155 48.255391 C 36.779373 43.090418 51.365501 28.283703 50.486021 27.128405 z "
       style="font-size:12;opacity:0.804375;fill:url(#linearGradient585);fill-rule:evenodd;stroke-width:1pt;"
       id="path642" />
  </g>
  <g
     id="g643"
     transform="matrix(0.939008,-4.574322e-16,4.599656e-16,0.933836,-3.670802,147.4112)"
     style="font-size:12;">
    <path
       d="M 19.356123 32.054245 C 18.910775 30.725418 10.254194 28.448961 9.494728 22.218197 C 8.731944 15.86264 17.877351 6.4255333 26.993904 6.2430273 C 39.22145 5.9006301 55.06091 20.418283 56.161019 28.64297 C 57.399567 37.792672 26.930727 57.45677 18.315485 56.37947 C 9.942804 55.430287 7.822139 48.440444 8.891246 43.603435 C 9.99116 38.822584 19.568268 33.285772 19.356123 32.054245 z "
       style="font-size:12;opacity:0.296369;fill:#000000;fill-rule:evenodd;stroke-width:1pt;fill-opacity:1;"
       id="path644" />
    <path
       d="M 19.089827 31.097836 C 18.681548 29.879615 10.745499 27.792639 10.049245 22.080494 C 9.349951 16.253944 17.734142 7.6023343 26.091876 7.4350193 C 37.301661 7.1211233 51.822721 20.430398 52.831262 27.970502 C 53.966719 36.358624 26.033958 54.385981 18.135806 53.398356 C 10.460026 52.528172 8.515875 46.120129 9.495994 41.68573 C 10.504357 37.302812 19.284312 32.226859 19.089827 31.097836 z "
       style="font-size:12;fill:#bfb8cc;fill-rule:evenodd;stroke:#261e2e;stroke-width:1.875;stroke-dasharray:none;"
       id="path645" />
    <path
       d="M 24.306507 28.850686 C 23.910312 27.668519 14.445506 25.635676 13.014241 21.924552 C 11.506652 18.261652 18.41145 10.362895 26.497204 9.7106633 C 35.550895 8.9717023 49.80578 19.969595 51.48961 27.466604 C 52.685829 32.966506 25.404891 50.479077 17.820972 49.014505 C 11.327981 47.909357 11.082875 44.427727 11.956101 41.818284 C 13.107219 38.505091 24.495236 29.946297 24.306507 28.850686 z "
       style="font-size:12;fill:url(#radialGradient592);fill-rule:evenodd;stroke-width:1pt;"
       id="path646" />
    <path
       d="M 24.39875 28.91931 C 24.003897 27.741147 14.571164 25.715192 13.144751 22.016644 C 11.642268 18.366156 18.523669 10.494165 26.582023 9.8441443 C 35.605036 9.1076863 49.811615 20.06831 51.48974 27.539917 C 52.681905 33.021181 25.493412 50.474406 17.935193 49.014799 C 11.464205 47.913395 11.219929 44.443563 12.090195 41.842963 C 13.237412 38.540997 24.586841 30.011206 24.39875 28.91931 z "
       style="font-size:12;fill:url(#radialGradient587);fill-rule:evenodd;stroke-width:1pt;"
       id="path647" />
    <path
       d="M 25.513822 17.610672 C 29.896756 13.540958 37.329414 20.25786 35.143064 24.133745 C 32.577747 28.370302 21.199115 21.617118 25.513822 17.610672 z "
       style="font-size:12;fill:url(#linearGradient572);fill-rule:evenodd;stroke-width:1pt;"
       id="path648" />
    <path
       d="M 27.431967 19.009515 C 29.958326 16.663701 34.242569 20.535376 32.982341 22.769468 C 31.50367 25.211452 24.944936 21.318864 27.431967 19.009515 z "
       style="font-size:12;fill:#bfb8cc;fill-rule:evenodd;stroke-width:1pt;fill-opacity:1;"
       id="path649" />
    <path
       d="M 27.431967 19.009515 C 29.958326 16.663701 34.242569 20.535376 32.982341 22.769468 C 31.50367 25.211452 24.944936 21.318864 27.431967 19.009515 z "
       style="font-size:12;fill:url(#linearGradient563);fill-rule:evenodd;stroke-width:1pt;"
       id="path650" />
    <path
       d="M 32.983632 21.602637 C 32.952349 22.519329 32.37765 23.762002 31.084708 23.505515 C 29.807497 23.29667 27.733033 22.412578 27.125621 20.833893 C 26.947581 20.357813 29.690769 19.038124 30.727196 19.348702 C 31.526414 19.587994 33.025639 20.886192 32.983632 21.602637 z "
       style="font-size:12;fill:url(#radialGradient579);fill-rule:evenodd;stroke-width:1pt;"
       id="path651"
       sodipodi:nodetypes="ccccc" />
    <path
       d="M 11.961959 21.348188 C 12.255262 26.237122 17.339117 27.607289 20.272447 29.856194 C 21.421356 30.051682 22.549011 29.042951 22.198932 28.337273 C 18.043331 26.479487 13.40417 24.965943 11.961959 21.348188 z "
       style="font-size:12;fill:url(#linearGradient575);fill-rule:evenodd;stroke-width:1pt;"
       id="path652"
       sodipodi:nodetypes="cccc" />
    <path
       d="M 11.274446 46.09999 C 12.605065 49.610546 16.058978 51.592229 19.342958 51.705516 C 27.69469 51.422467 49.465561 36.530929 50.93779 29.453173 C 46.889287 34.32267 30.185996 47.515576 19.003266 48.817872 C 16.172264 48.874516 14.275378 48.506502 11.274446 46.09999 z "
       style="font-size:12;fill:url(#linearGradient583);fill-rule:evenodd;stroke-width:1pt;"
       id="path653" />
    <path
       d="M 50.486021 27.128405 C 49.276559 25.561787 38.761956 40.516688 19.51155 48.255391 C 36.779373 43.090418 51.365501 28.283703 50.486021 27.128405 z "
       style="font-size:12;opacity:0.804375;fill:url(#linearGradient585);fill-rule:evenodd;stroke-width:1pt;"
       id="path654" />
  </g>
  <g
     id="g655"
     transform="matrix(0.939008,-4.574322e-16,4.599656e-16,0.933836,-3.670802,197.4112)"
     style="font-size:12;">
    <path
       d="M 19.356123 32.054245 C 18.910775 30.725418 10.254194 28.448961 9.494728 22.218197 C 8.731944 15.86264 17.877351 6.4255333 26.993904 6.2430273 C 39.22145 5.9006301 55.06091 20.418283 56.161019 28.64297 C 57.399567 37.792672 26.930727 57.45677 18.315485 56.37947 C 9.942804 55.430287 7.822139 48.440444 8.891246 43.603435 C 9.99116 38.822584 19.568268 33.285772 19.356123 32.054245 z "
       style="font-size:12;opacity:0.296369;fill:#000000;fill-rule:evenodd;stroke-width:1pt;fill-opacity:1;"
       id="path656" />
    <path
       d="M 19.089827 31.097836 C 18.681548 29.879615 10.745499 27.792639 10.049245 22.080494 C 9.349951 16.253944 17.734142 7.6023343 26.091876 7.4350193 C 37.301661 7.1211233 51.822721 20.430398 52.831262 27.970502 C 53.966719 36.358624 26.033958 54.385981 18.135806 53.398356 C 10.460026 52.528172 8.515875 46.120129 9.495994 41.68573 C 10.504357 37.302812 19.284312 32.226859 19.089827 31.097836 z "
       style="font-size:12;fill:#bfb8cc;fill-rule:evenodd;stroke:#261e2e;stroke-width:1.875;stroke-dasharray:none;"
       id="path657" />
    <path
       d="M 24.306507 28.850686 C 23.910312 27.668519 14.445506 25.635676 13.014241 21.924552 C 11.506652 18.261652 18.41145 10.362895 26.497204 9.7106633 C 35.550895 8.9717023 49.80578 19.969595 51.48961 27.466604 C 52.685829 32.966506 25.404891 50.479077 17.820972 49.014505 C 11.327981 47.909357 11.082875 44.427727 11.956101 41.818284 C 13.107219 38.505091 24.495236 29.946297 24.306507 28.850686 z "
       style="font-size:12;fill:url(#radialGradient592);fill-rule:evenodd;stroke-width:1pt;"
       id="path658" />
    <path
       d="M 24.39875 28.91931 C 24.003897 27.741147 14.571164 25.715192 13.144751 22.016644 C 11.642268 18.366156 18.523669 10.494165 26.582023 9.8441443 C 35.605036 9.1076863 49.811615 20.06831 51.48974 27.539917 C 52.681905 33.021181 25.493412 50.474406 17.935193 49.014799 C 11.464205 47.913395 11.219929 44.443563 12.090195 41.842963 C 13.237412 38.540997 24.586841 30.011206 24.39875 28.91931 z "
       style="font-size:12;fill:url(#radialGradient587);fill-rule:evenodd;stroke-width:1pt;"
       id="path659" />
    <path
       d="M 25.513822 17.610672 C 29.896756 13.540958 37.329414 20.25786 35.143064 24.133745 C 32.577747 28.370302 21.199115 21.617118 25.513822 17.610672 z "
       style="font-size:12;fill:url(#linearGradient572);fill-rule:evenodd;stroke-width:1pt;"
       id="path660" />
    <path
       d="M 27.431967 19.009515 C 29.958326 16.663701 34.242569 20.535376 32.982341 22.769468 C 31.50367 25.211452 24.944936 21.318864 27.431967 19.009515 z "
       style="font-size:12;fill:#bfb8cc;fill-rule:evenodd;stroke-width:1pt;fill-opacity:1;"
       id="path661" />
    <path
       d="M 27.431967 19.009515 C 29.958326 16.663701 34.242569 20.535376 32.982341 22.769468 C 31.50367 25.211452 24.944936 21.318864 27.431967 19.009515 z "
       style="font-size:12;fill:url(#linearGradient563);fill-rule:evenodd;stroke-width:1pt;"
       id="path662" />
    <path
       d="M 32.983632 21.602637 C 32.952349 22.519329 32.37765 23.762002 31.084708 23.505515 C 29.807497 23.29667 27.733033 22.412578 27.125621 20.833893 C 26.947581 20.357813 29.690769 19.038124 30.727196 19.348702 C 31.526414 19.587994 33.025639 20.886192 32.983632 21.602637 z "
       style="font-size:12;fill:url(#radialGradient579);fill-rule:evenodd;stroke-width:1pt;"
       id="path663"
       sodipodi:nodetypes="ccccc" />
    <path
       d="M 11.961959 21.348188 C 12.255262 26.237122 17.339117 27.607289 20.272447 29.856194 C 21.421356 30.051682 22.549011 29.042951 22.198932 28.337273 C 18.043331 26.479487 13.40417 24.965943 11.961959 21.348188 z "
       style="font-size:12;fill:url(#linearGradient575);fill-rule:evenodd;stroke-width:1pt;"
       id="path664"
       sodipodi:nodetypes="cccc" />
    <path
       d="M 11.274446 46.09999 C 12.605065 49.610546 16.058978 51.592229 19.342958 51.705516 C 27.69469 51.422467 49.465561 36.530929 50.93779 29.453173 C 46.889287 34.32267 30.185996 47.515576 19.003266 48.817872 C 16.172264 48.874516 14.275378 48.506502 11.274446 46.09999 z "
       style="font-size:12;fill:url(#linearGradient583);fill-rule:evenodd;stroke-width:1pt;"
       id="path665" />
    <path
       d="M 50.486021 27.128405 C 49.276559 25.561787 38.761956 40.516688 19.51155 48.255391 C 36.779373 43.090418 51.365501 28.283703 50.486021 27.128405 z "
       style="font-size:12;opacity:0.804375;fill:url(#linearGradient585);fill-rule:evenodd;stroke-width:1pt;"
       id="path666" />
  </g>
  <g
     id="g667"
     transform="matrix(0.939008,-4.574322e-16,4.599656e-16,0.933836,-3.670802,247.4112)"
     style="font-size:12;">
    <path
       d="M 19.356123 32.054245 C 18.910775 30.725418 10.254194 28.448961 9.494728 22.218197 C 8.731944 15.86264 17.877351 6.4255333 26.993904 6.2430273 C 39.22145 5.9006301 55.06091 20.418283 56.161019 28.64297 C 57.399567 37.792672 26.930727 57.45677 18.315485 56.37947 C 9.942804 55.430287 7.822139 48.440444 8.891246 43.603435 C 9.99116 38.822584 19.568268 33.285772 19.356123 32.054245 z "
       style="font-size:12;opacity:0.296369;fill:#000000;fill-rule:evenodd;stroke-width:1pt;fill-opacity:1;"
       id="path668" />
    <path
       d="M 19.089827 31.097836 C 18.681548 29.879615 10.745499 27.792639 10.049245 22.080494 C 9.349951 16.253944 17.734142 7.6023343 26.091876 7.4350193 C 37.301661 7.1211233 51.822721 20.430398 52.831262 27.970502 C 53.966719 36.358624 26.033958 54.385981 18.135806 53.398356 C 10.460026 52.528172 8.515875 46.120129 9.495994 41.68573 C 10.504357 37.302812 19.284312 32.226859 19.089827 31.097836 z "
       style="font-size:12;fill:#bfb8cc;fill-rule:evenodd;stroke:#261e2e;stroke-width:1.875;stroke-dasharray:none;"
       id="path669" />
    <path
       d="M 24.306507 28.850686 C 23.910312 27.668519 14.445506 25.635676 13.014241 21.924552 C 11.506652 18.261652 18.41145 10.362895 26.497204 9.7106633 C 35.550895 8.9717023 49.80578 19.969595 51.48961 27.466604 C 52.685829 32.966506 25.404891 50.479077 17.820972 49.014505 C 11.327981 47.909357 11.082875 44.427727 11.956101 41.818284 C 13.107219 38.505091 24.495236 29.946297 24.306507 28.850686 z "
       style="font-size:12;fill:url(#radialGradient592);fill-rule:evenodd;stroke-width:1pt;"
       id="path670" />
    <path
       d="M 24.39875 28.91931 C 24.003897 27.741147 14.571164 25.715192 13.144751 22.016644 C 11.642268 18.366156 18.523669 10.494165 26.582023 9.8441443 C 35.605036 9.1076863 49.811615 20.06831 51.48974 27.539917 C 52.681905 33.021181 25.493412 50.474406 17.935193 49.014799 C 11.464205 47.913395 11.219929 44.443563 12.090195 41.842963 C 13.237412 38.540997 24.586841 30.011206 24.39875 28.91931 z "
       style="font-size:12;fill:url(#radialGradient587);fill-rule:evenodd;stroke-width:1pt;"
       id="path671" />
    <path
       d="M 25.513822 17.610672 C 29.896756 13.540958 37.329414 20.25786 35.143064 24.133745 C 32.577747 28.370302 21.199115 21.617118 25.513822 17.610672 z "
       style="font-size:12;fill:url(#linearGradient572);fill-rule:evenodd;stroke-width:1pt;"
       id="path672" />
    <path
       d="M 27.431967 19.009515 C 29.958326 16.663701 34.242569 20.535376 32.982341 22.769468 C 31.50367 25.211452 24.944936 21.318864 27.431967 19.009515 z "
       style="font-size:12;fill:#bfb8cc;fill-rule:evenodd;stroke-width:1pt;fill-opacity:1;"
       id="path673" />
    <path
       d="M 27.431967 19.009515 C 29.958326 16.663701 34.242569 20.535376 32.982341 22.769468 C 31.50367 25.211452 24.944936 21.318864 27.431967 19.009515 z "
       style="font-size:12;fill:url(#linearGradient563);fill-rule:evenodd;stroke-width:1pt;"
       id="path674" />
    <path
       d="M 32.983632 21.602637 C 32.952349 22.519329 32.37765 23.762002 31.084708 23.505515 C 29.807497 23.29667 27.733033 22.412578 27.125621 20.833893 C 26.947581 20.357813 29.690769 19.038124 30.727196 19.348702 C 31.526414 19.587994 33.025639 20.886192 32.983632 21.602637 z "
       style="font-size:12;fill:url(#radialGradient579);fill-rule:evenodd;stroke-width:1pt;"
       id="path675"
       sodipodi:nodetypes="ccccc" />
    <path
       d="M 11.961959 21.348188 C 12.255262 26.237122 17.339117 27.607289 20.272447 29.856194 C 21.421356 30.051682 22.549011 29.042951 22.198932 28.337273 C 18.043331 26.479487 13.40417 24.965943 11.961959 21.348188 z "
       style="font-size:12;fill:url(#linearGradient575);fill-rule:evenodd;stroke-width:1pt;"
       id="path676"
       sodipodi:nodetypes="cccc" />
    <path
       d="M 11.274446 46.09999 C 12.605065 49.610546 16.058978 51.592229 19.342958 51.705516 C 27.69469 51.422467 49.465561 36.530929 50.93779 29.453173 C 46.889287 34.32267 30.185996 47.515576 19.003266 48.817872 C 16.172264 48.874516 14.275378 48.506502 11.274446 46.09999 z "
       style="font-size:12;fill:url(#linearGradient583);fill-rule:evenodd;stroke-width:1pt;"
       id="path677" />
    <path
       d="M 50.486021 27.128405 C 49.276559 25.561787 38.761956 40.516688 19.51155 48.255391 C 36.779373 43.090418 51.365501 28.283703 50.486021 27.128405 z "
       style="font-size:12;opacity:0.804375;fill:url(#linearGradient585);fill-rule:evenodd;stroke-width:1pt;"
       id="path678" />
  </g>
  <g
     id="g679"
     transform="matrix(0.939008,-4.574322e-16,4.599656e-16,0.933836,-3.670802,297.4112)"
     style="font-size:12;">
    <path
       d="M 19.356123 32.054245 C 18.910775 30.725418 10.254194 28.448961 9.494728 22.218197 C 8.731944 15.86264 17.877351 6.4255333 26.993904 6.2430273 C 39.22145 5.9006301 55.06091 20.418283 56.161019 28.64297 C 57.399567 37.792672 26.930727 57.45677 18.315485 56.37947 C 9.942804 55.430287 7.822139 48.440444 8.891246 43.603435 C 9.99116 38.822584 19.568268 33.285772 19.356123 32.054245 z "
       style="font-size:12;opacity:0.296369;fill:#000000;fill-rule:evenodd;stroke-width:1pt;fill-opacity:1;"
       id="path680" />
    <path
       d="M 19.089827 31.097836 C 18.681548 29.879615 10.745499 27.792639 10.049245 22.080494 C 9.349951 16.253944 17.734142 7.6023343 26.091876 7.4350193 C 37.301661 7.1211233 51.822721 20.430398 52.831262 27.970502 C 53.966719 36.358624 26.033958 54.385981 18.135806 53.398356 C 10.460026 52.528172 8.515875 46.120129 9.495994 41.68573 C 10.504357 37.302812 19.284312 32.226859 19.089827 31.097836 z "
       style="font-size:12;fill:#bfb8cc;fill-rule:evenodd;stroke:#261e2e;stroke-width:1.875;stroke-dasharray:none;"
       id="path681" />
    <path
       d="M 24.306507 28.850686 C 23.910312 27.668519 14.445506 25.635676 13.014241 21.924552 C 11.506652 18.261652 18.41145 10.362895 26.497204 9.7106633 C 35.550895 8.9717023 49.80578 19.969595 51.48961 27.466604 C 52.685829 32.966506 25.404891 50.479077 17.820972 49.014505 C 11.327981 47.909357 11.082875 44.427727 11.956101 41.818284 C 13.107219 38.505091 24.495236 29.946297 24.306507 28.850686 z "
       style="font-size:12;fill:url(#radialGradient592);fill-rule:evenodd;stroke-width:1pt;"
       id="path682" />
    <path
       d="M 24.39875 28.91931 C 24.003897 27.741147 14.571164 25.715192 13.144751 22.016644 C 11.642268 18.366156 18.523669 10.494165 26.582023 9.8441443 C 35.605036 9.1076863 49.811615 20.06831 51.48974 27.539917 C 52.681905 33.021181 25.493412 50.474406 17.935193 49.014799 C 11.464205 47.913395 11.219929 44.443563 12.090195 41.842963 C 13.237412 38.540997 24.586841 30.011206 24.39875 28.91931 z "
       style="font-size:12;fill:url(#radialGradient587);fill-rule:evenodd;stroke-width:1pt;"
       id="path683" />
    <path
       d="M 25.513822 17.610672 C 29.896756 13.540958 37.329414 20.25786 35.143064 24.133745 C 32.577747 28.370302 21.199115 21.617118 25.513822 17.610672 z "
       style="font-size:12;fill:url(#linearGradient572);fill-rule:evenodd;stroke-width:1pt;"
       id="path684" />
    <path
       d="M 27.431967 19.009515 C 29.958326 16.663701 34.242569 20.535376 32.982341 22.769468 C 31.50367 25.211452 24.944936 21.318864 27.431967 19.009515 z "
       style="font-size:12;fill:#bfb8cc;fill-rule:evenodd;stroke-width:1pt;fill-opacity:1;"
       id="path685" />
    <path
       d="M 27.431967 19.009515 C 29.958326 16.663701 34.242569 20.535376 32.982341 22.769468 C 31.50367 25.211452 24.944936 21.318864 27.431967 19.009515 z "
       style="font-size:12;fill:url(#linearGradient563);fill-rule:evenodd;stroke-width:1pt;"
       id="path686" />
    <path
       d="M 32.983632 21.602637 C 32.952349 22.519329 32.37765 23.762002 31.084708 23.505515 C 29.807497 23.29667 27.733033 22.412578 27.125621 20.833893 C 26.947581 20.357813 29.690769 19.038124 30.727196 19.348702 C 31.526414 19.587994 33.025639 20.886192 32.983632 21.602637 z "
       style="font-size:12;fill:url(#radialGradient579);fill-rule:evenodd;stroke-width:1pt;"
       id="path687"
       sodipodi:nodetypes="ccccc" />
    <path
       d="M 11.961959 21.348188 C 12.255262 26.237122 17.339117 27.607289 20.272447 29.856194 C 21.421356 30.051682 22.549011 29.042951 22.198932 28.337273 C 18.043331 26.479487 13.40417 24.965943 11.961959 21.348188 z "
       style="font-size:12;fill:url(#linearGradient575);fill-rule:evenodd;stroke-width:1pt;"
       id="path688"
       sodipodi:nodetypes="cccc" />
    <path
       d="M 11.274446 46.09999 C 12.605065 49.610546 16.058978 51.592229 19.342958 51.705516 C 27.69469 51.422467 49.465561 36.530929 50.93779 29.453173 C 46.889287 34.32267 30.185996 47.515576 19.003266 48.817872 C 16.172264 48.874516 14.275378 48.506502 11.274446 46.09999 z "
       style="font-size:12;fill:url(#linearGradient583);fill-rule:evenodd;stroke-width:1pt;"
       id="path689" />
    <path
       d="M 50.486021 27.128405 C 49.276559 25.561787 38.761956 40.516688 19.51155 48.255391 C 36.779373 43.090418 51.365501 28.283703 50.486021 27.128405 z "
       style="font-size:12;opacity:0.804375;fill:url(#linearGradient585);fill-rule:evenodd;stroke-width:1pt;"
       id="path690" />
  </g>
  <g
     id="g691"
     transform="matrix(0.939008,-4.574322e-16,4.599656e-16,0.933836,-3.670802,347.4112)"
     style="font-size:12;">
    <path
       d="M 19.356123 32.054245 C 18.910775 30.725418 10.254194 28.448961 9.494728 22.218197 C 8.731944 15.86264 17.877351 6.4255333 26.993904 6.2430273 C 39.22145 5.9006301 55.06091 20.418283 56.161019 28.64297 C 57.399567 37.792672 26.930727 57.45677 18.315485 56.37947 C 9.942804 55.430287 7.822139 48.440444 8.891246 43.603435 C 9.99116 38.822584 19.568268 33.285772 19.356123 32.054245 z "
       style="font-size:12;opacity:0.296369;fill:#000000;fill-rule:evenodd;stroke-width:1pt;fill-opacity:1;"
       id="path692" />
    <path
       d="M 19.089827 31.097836 C 18.681548 29.879615 10.745499 27.792639 10.049245 22.080494 C 9.349951 16.253944 17.734142 7.6023343 26.091876 7.4350193 C 37.301661 7.1211233 51.822721 20.430398 52.831262 27.970502 C 53.966719 36.358624 26.033958 54.385981 18.135806 53.398356 C 10.460026 52.528172 8.515875 46.120129 9.495994 41.68573 C 10.504357 37.302812 19.284312 32.226859 19.089827 31.097836 z "
       style="font-size:12;fill:#bfb8cc;fill-rule:evenodd;stroke:#261e2e;stroke-width:1.875;stroke-dasharray:none;"
       id="path693" />
    <path
       d="M 24.306507 28.850686 C 23.910312 27.668519 14.445506 25.635676 13.014241 21.924552 C 11.506652 18.261652 18.41145 10.362895 26.497204 9.7106633 C 35.550895 8.9717023 49.80578 19.969595 51.48961 27.466604 C 52.685829 32.966506 25.404891 50.479077 17.820972 49.014505 C 11.327981 47.909357 11.082875 44.427727 11.956101 41.818284 C 13.107219 38.505091 24.495236 29.946297 24.306507 28.850686 z "
       style="font-size:12;fill:url(#radialGradient592);fill-rule:evenodd;stroke-width:1pt;"
       id="path694" />
    <path
       d="M 24.39875 28.91931 C 24.003897 27.741147 14.571164 25.715192 13.144751 22.016644 C 11.642268 18.366156 18.523669 10.494165 26.582023 9.8441443 C 35.605036 9.1076863 49.811615 20.06831 51.48974 27.539917 C 52.681905 33.021181 25.493412 50.474406 17.935193 49.014799 C 11.464205 47.913395 11.219929 44.443563 12.090195 41.842963 C 13.237412 38.540997 24.586841 30.011206 24.39875 28.91931 z "
       style="font-size:12;fill:url(#radialGradient587);fill-rule:evenodd;stroke-width:1pt;"
       id="path695" />
    <path
       d="M 25.513822 17.610672 C 29.896756 13.540958 37.329414 20.25786 35.143064 24.133745 C 32.577747 28.370302 21.199115 21.617118 25.513822 17.610672 z "
       style="font-size:12;fill:url(#linearGradient572);fill-rule:evenodd;stroke-width:1pt;"
       id="path696" />
    <path
       d="M 27.431967 19.009515 C 29.958326 16.663701 34.242569 20.535376 32.982341 22.769468 C 31.50367 25.211452 24.944936 21.318864 27.431967 19.009515 z "
       style="font-size:12;fill:#bfb8cc;fill-rule:evenodd;stroke-width:1pt;fill-opacity:1;"
       id="path697" />
    <path
       d="M 27.431967 19.009515 C 29.958326 16.663701 34.242569 20.535376 32.982341 22.769468 C 31.50367 25.211452 24.944936 21.318864 27.431967 19.009515 z "
       style="font-size:12;fill:url(#linearGradient563);fill-rule:evenodd;stroke-width:1pt;"
       id="path698" />
    <path
       d="M 32.983632 21.602637 C 32.952349 22.519329 32.37765 23.762002 31.084708 23.505515 C 29.807497 23.29667 27.733033 22.412578 27.125621 20.833893 C 26.947581 20.357813 29.690769 19.038124 30.727196 19.348702 C 31.526414 19.587994 33.025639 20.886192 32.983632 21.602637 z "
       style="font-size:12;fill:url(#radialGradient579);fill-rule:evenodd;stroke-width:1pt;"
       id="path699"
       sodipodi:nodetypes="ccccc" />
    <path
       d="M 11.961959 21.348188 C 12.255262 26.237122 17.339117 27.607289 20.272447 29.856194 C 21.421356 30.051682 22.549011 29.042951 22.198932 28.337273 C 18.043331 26.479487 13.40417 24.965943 11.961959 21.348188 z "
       style="font-size:12;fill:url(#linearGradient575);fill-rule:evenodd;stroke-width:1pt;"
       id="path700"
       sodipodi:nodetypes="cccc" />
    <path
       d="M 11.274446 46.09999 C 12.605065 49.610546 16.058978 51.592229 19.342958 51.705516 C 27.69469 51.422467 49.465561 36.530929 50.93779 29.453173 C 46.889287 34.32267 30.185996 47.515576 19.003266 48.817872 C 16.172264 48.874516 14.275378 48.506502 11.274446 46.09999 z "
       style="font-size:12;fill:url(#linearGradient583);fill-rule:evenodd;stroke-width:1pt;"
       id="path701" />
    <path
       d="M 50.486021 27.128405 C 49.276559 25.561787 38.761956 40.516688 19.51155 48.255391 C 36.779373 43.090418 51.365501 28.283703 50.486021 27.128405 z "
       style="font-size:12;opacity:0.804375;fill:url(#linearGradient585);fill-rule:evenodd;stroke-width:1pt;"
       id="path702" />
  </g>
  <g
     id="g703"
     transform="matrix(0.939008,-4.574322e-16,4.599656e-16,0.933836,-3.670802,397.4112)"
     style="font-size:12;">
    <path
       d="M 19.356123 32.054245 C 18.910775 30.725418 10.254194 28.448961 9.494728 22.218197 C 8.731944 15.86264 17.877351 6.4255333 26.993904 6.2430273 C 39.22145 5.9006301 55.06091 20.418283 56.161019 28.64297 C 57.399567 37.792672 26.930727 57.45677 18.315485 56.37947 C 9.942804 55.430287 7.822139 48.440444 8.891246 43.603435 C 9.99116 38.822584 19.568268 33.285772 19.356123 32.054245 z "
       style="font-size:12;opacity:0.296369;fill:#000000;fill-rule:evenodd;stroke-width:1pt;fill-opacity:1;"
       id="path704" />
    <path
       d="M 19.089827 31.097836 C 18.681548 29.879615 10.745499 27.792639 10.049245 22.080494 C 9.349951 16.253944 17.734142 7.6023343 26.091876 7.4350193 C 37.301661 7.1211233 51.822721 20.430398 52.831262 27.970502 C 53.966719 36.358624 26.033958 54.385981 18.135806 53.398356 C 10.460026 52.528172 8.515875 46.120129 9.495994 41.68573 C 10.504357 37.302812 19.284312 32.226859 19.089827 31.097836 z "
       style="font-size:12;fill:#bfb8cc;fill-rule:evenodd;stroke:#261e2e;stroke-width:1.875;stroke-dasharray:none;"
       id="path705" />
    <path
       d="M 24.306507 28.850686 C 23.910312 27.668519 14.445506 25.635676 13.014241 21.924552 C 11.506652 18.261652 18.41145 10.362895 26.497204 9.7106633 C 35.550895 8.9717023 49.80578 19.969595 51.48961 27.466604 C 52.685829 32.966506 25.404891 50.479077 17.820972 49.014505 C 11.327981 47.909357 11.082875 44.427727 11.956101 41.818284 C 13.107219 38.505091 24.495236 29.946297 24.306507 28.850686 z "
       style="font-size:12;fill:url(#radialGradient592);fill-rule:evenodd;stroke-width:1pt;"
       id="path706" />
    <path
       d="M 24.39875 28.91931 C 24.003897 27.741147 14.571164 25.715192 13.144751 22.016644 C 11.642268 18.366156 18.523669 10.494165 26.582023 9.8441443 C 35.605036 9.1076863 49.811615 20.06831 51.48974 27.539917 C 52.681905 33.021181 25.493412 50.474406 17.935193 49.014799 C 11.464205 47.913395 11.219929 44.443563 12.090195 41.842963 C 13.237412 38.540997 24.586841 30.011206 24.39875 28.91931 z "
       style="font-size:12;fill:url(#radialGradient587);fill-rule:evenodd;stroke-width:1pt;"
       id="path707" />
    <path
       d="M 25.513822 17.610672 C 29.896756 13.540958 37.329414 20.25786 35.143064 24.133745 C 32.577747 28.370302 21.199115 21.617118 25.513822 17.610672 z "
       style="font-size:12;fill:url(#linearGradient572);fill-rule:evenodd;stroke-width:1pt;"
       id="path708" />
    <path
       d="M 27.431967 19.009515 C 29.958326 16.663701 34.242569 20.535376 32.982341 22.769468 C 31.50367 25.211452 24.944936 21.318864 27.431967 19.009515 z "
       style="font-size:12;fill:#bfb8cc;fill-rule:evenodd;stroke-width:1pt;fill-opacity:1;"
       id="path709" />
    <path
       d="M 27.431967 19.009515 C 29.958326 16.663701 34.242569 20.535376 32.982341 22.769468 C 31.50367 25.211452 24.944936 21.318864 27.431967 19.009515 z "
       style="font-size:12;fill:url(#linearGradient563);fill-rule:evenodd;stroke-width:1pt;"
       id="path710" />
    <path
       d="M 32.983632 21.602637 C 32.952349 22.519329 32.37765 23.762002 31.084708 23.505515 C 29.807497 23.29667 27.733033 22.412578 27.125621 20.833893 C 26.947581 20.357813 29.690769 19.038124 30.727196 19.348702 C 31.526414 19.587994 33.025639 20.886192 32.983632 21.602637 z "
       style="font-size:12;fill:url(#radialGradient579);fill-rule:evenodd;stroke-width:1pt;"
       id="path711"
       sodipodi:nodetypes="ccccc" />
    <path
       d="M 11.961959 21.348188 C 12.255262 26.237122 17.339117 27.607289 20.272447 29.856194 C 21.421356 30.051682 22.549011 29.042951 22.198932 28.337273 C 18.043331 26.479487 13.40417 24.965943 11.961959 21.348188 z "
       style="font-size:12;fill:url(#linearGradient575);fill-rule:evenodd;stroke-width:1pt;"
       id="path712"
       sodipodi:nodetypes="cccc" />
    <path
       d="M 11.274446 46.09999 C 12.605065 49.610546 16.058978 51.592229 19.342958 51.705516 C 27.69469 51.422467 49.465561 36.530929 50.93779 29.453173 C 46.889287 34.32267 30.185996 47.515576 19.003266 48.817872 C 16.172264 48.874516 14.275378 48.506502 11.274446 46.09999 z "
       style="font-size:12;fill:url(#linearGradient583);fill-rule:evenodd;stroke-width:1pt;"
       id="path713" />
    <path
       d="M 50.486021 27.128405 C 49.276559 25.561787 38.761956 40.516688 19.51155 48.255391 C 36.779373 43.090418 51.365501 28.283703 50.486021 27.128405 z "
       style="font-size:12;opacity:0.804375;fill:url(#linearGradient585);fill-rule:evenodd;stroke-width:1pt;"
       id="path714" />
  </g>
  <g
     id="g715"
     transform="matrix(0.939008,-4.574322e-16,4.599656e-16,0.933836,-3.670802,447.4112)"
     style="font-size:12;">
    <path
       d="M 19.356123 32.054245 C 18.910775 30.725418 10.254194 28.448961 9.494728 22.218197 C 8.731944 15.86264 17.877351 6.4255333 26.993904 6.2430273 C 39.22145 5.9006301 55.06091 20.418283 56.161019 28.64297 C 57.399567 37.792672 26.930727 57.45677 18.315485 56.37947 C 9.942804 55.430287 7.822139 48.440444 8.891246 43.603435 C 9.99116 38.822584 19.568268 33.285772 19.356123 32.054245 z "
       style="font-size:12;opacity:0.296369;fill:#000000;fill-rule:evenodd;stroke-width:1pt;fill-opacity:1;"
       id="path716" />
    <path
       d="M 19.089827 31.097836 C 18.681548 29.879615 10.745499 27.792639 10.049245 22.080494 C 9.349951 16.253944 17.734142 7.6023343 26.091876 7.4350193 C 37.301661 7.1211233 51.822721 20.430398 52.831262 27.970502 C 53.966719 36.358624 26.033958 54.385981 18.135806 53.398356 C 10.460026 52.528172 8.515875 46.120129 9.495994 41.68573 C 10.504357 37.302812 19.284312 32.226859 19.089827 31.097836 z "
       style="font-size:12;fill:#bfb8cc;fill-rule:evenodd;stroke:#261e2e;stroke-width:1.875;stroke-dasharray:none;"
       id="path717" />
    <path
       d="M 24.306507 28.850686 C 23.910312 27.668519 14.445506 25.635676 13.014241 21.924552 C 11.506652 18.261652 18.41145 10.362895 26.497204 9.7106633 C 35.550895 8.9717023 49.80578 19.969595 51.48961 27.466604 C 52.685829 32.966506 25.404891 50.479077 17.820972 49.014505 C 11.327981 47.909357 11.082875 44.427727 11.956101 41.818284 C 13.107219 38.505091 24.495236 29.946297 24.306507 28.850686 z "
       style="font-size:12;fill:url(#radialGradient592);fill-rule:evenodd;stroke-width:1pt;"
       id="path718" />
    <path
       d="M 24.39875 28.91931 C 24.003897 27.741147 14.571164 25.715192 13.144751 22.016644 C 11.642268 18.366156 18.523669 10.494165 26.582023 9.8441443 C 35.605036 9.1076863 49.811615 20.06831 51.48974 27.539917 C 52.681905 33.021181 25.493412 50.474406 17.935193 49.014799 C 11.464205 47.913395 11.219929 44.443563 12.090195 41.842963 C 13.237412 38.540997 24.586841 30.011206 24.39875 28.91931 z "
       style="font-size:12;fill:url(#radialGradient587);fill-rule:evenodd;stroke-width:1pt;"
       id="path719" />
    <path
       d="M 25.513822 17.610672 C 29.896756 13.540958 37.329414 20.25786 35.143064 24.133745 C 32.577747 28.370302 21.199115 21.617118 25.513822 17.610672 z "
       style="font-size:12;fill:url(#linearGradient572);fill-rule:evenodd;stroke-width:1pt;"
       id="path720" />
    <path
       d="M 27.431967 19.009515 C 29.958326 16.663701 34.242569 20.535376 32.982341 22.769468 C 31.50367 25.211452 24.944936 21.318864 27.431967 19.009515 z "
       style="font-size:12;fill:#bfb8cc;fill-rule:evenodd;stroke-width:1pt;fill-opacity:1;"
       id="path721" />
    <path
       d="M 27.431967 19.009515 C 29.958326 16.663701 34.242569 20.535376 32.982341 22.769468 C 31.50367 25.211452 24.944936 21.318864 27.431967 19.009515 z "
       style="font-size:12;fill:url(#linearGradient563);fill-rule:evenodd;stroke-width:1pt;"
       id="path722" />
    <path
       d="M 32.983632 21.602637 C 32.952349 22.519329 32.37765 23.762002 31.084708 23.505515 C 29.807497 23.29667 27.733033 22.412578 27.125621 20.833893 C 26.947581 20.357813 29.690769 19.038124 30.727196 19.348702 C 31.526414 19.587994 33.025639 20.886192 32.983632 21.602637 z "
       style="font-size:12;fill:url(#radialGradient579);fill-rule:evenodd;stroke-width:1pt;"
       id="path723"
       sodipodi:nodetypes="ccccc" />
    <path
       d="M 11.961959 21.348188 C 12.255262 26.237122 17.339117 27.607289 20.272447 29.856194 C 21.421356 30.051682 22.549011 29.042951 22.198932 28.337273 C 18.043331 26.479487 13.40417 24.965943 11.961959 21.348188 z "
       style="font-size:12;fill:url(#linearGradient575);fill-rule:evenodd;stroke-width:1pt;"
       id="path724"
       sodipodi:nodetypes="cccc" />
    <path
       d="M 11.274446 46.09999 C 12.605065 49.610546 16.058978 51.592229 19.342958 51.705516 C 27.69469 51.422467 49.465561 36.530929 50.93779 29.453173 C 46.889287 34.32267 30.185996 47.515576 19.003266 48.817872 C 16.172264 48.874516 14.275378 48.506502 11.274446 46.09999 z "
       style="font-size:12;fill:url(#linearGradient583);fill-rule:evenodd;stroke-width:1pt;"
       id="path725" />
    <path
       d="M 50.486021 27.128405 C 49.276559 25.561787 38.761956 40.516688 19.51155 48.255391 C 36.779373 43.090418 51.365501 28.283703 50.486021 27.128405 z "
       style="font-size:12;opacity:0.804375;fill:url(#linearGradient585);fill-rule:evenodd;stroke-width:1pt;"
       id="path726" />
  </g>
  <rect
     style="font-size:12;fill:#ffffff;fill-opacity:0.2;fill-rule:evenodd;stroke:none;stroke-width:1pt;"
     id="rect727"
     width="60.0000000"
     height="50.0000000"
     x="-4.37500000"
     y="51.8750000" />
  <rect
     style="font-size:12;fill:#ffffff;fill-opacity:0.2;fill-rule:evenodd;stroke:none;stroke-width:1pt;"
     id="rect728"
     width="60.00000000"
     height="50.00000000"
     x="-4.37500000"
     y="98.12500000" />
  <rect
     style="font-size:12;fill:#ffffff;fill-opacity:0.2;fill-rule:evenodd;stroke:none;stroke-width:1pt;"
     id="rect729"
     width="60.00000000"
     height="50.00000000"
     x="-5.62500000"
     y="100.62500000" />
  <rect
     style="font-size:12;fill:#ffffff;fill-opacity:0.2;fill-rule:evenodd;stroke:none;stroke-width:1pt;"
     id="rect730"
     width="60.00000000"
     height="50.00000000"
     x="-8.12500000"
     y="152.50000000" />
  <rect
     style="font-size:12;fill:#ffffff;fill-opacity:0.2;fill-rule:evenodd;stroke:none;stroke-width:1pt;"
     id="rect731"
     width="60.00000000"
     height="50.00000000"
     x="-6.87500000"
     y="148.12500000" />
  <rect
     style="font-size:12;fill:#ffffff;fill-opacity:0.2;fill-rule:evenodd;stroke:none;stroke-width:1pt;"
     id="rect732"
     width="60.00000000"
     height="50.00000000"
     x="-6.25000000"
     y="151.87500000" />
  <rect
     style="font-size:12;fill:#ffffff;fill-opacity:0.2;fill-rule:evenodd;stroke:none;stroke-width:1pt;"
     id="rect734"
     width="60.00000000"
     height="50.00000000"
     x="-6.25000000"
     y="198.12500000" />
  <rect
     style="font-size:12;fill:#ffffff;fill-opacity:0.2;fill-rule:evenodd;stroke:none;stroke-width:1pt;"
     id="rect735"
     width="60.00000000"
     height="50.00000000"
     x="-6.25000000"
     y="199.37500000" />
  <rect
     style="font-size:12;fill:#ffffff;fill-opacity:0.2;fill-rule:evenodd;stroke:none;stroke-width:1pt;"
     id="rect736"
     width="60.00000000"
     height="50.00000000"
     x="-6.25000000"
     y="198.12500000" />
  <rect
     style="font-size:12;fill:#ffffff;fill-opacity:0.2;fill-rule:evenodd;stroke:none;stroke-width:1pt;"
     id="rect737"
     width="60.00000000"
     height="50.00000000"
     x="-6.25000000"
     y="200.62500000" />
  <rect
     style="font-size:12;fill:#ffffff;fill-opacity:0.2;fill-rule:evenodd;stroke:none;stroke-width:1pt;"
     id="rect738"
     width="60.00000000"
     height="50.00000000"
     x="-5.62500000"
     y="202.50000000" />
  <rect
     style="font-size:12;fill:#ffffff;fill-opacity:0.2;fill-rule:evenodd;stroke:none;stroke-width:1pt;"
     id="rect739"
     width="60.00000000"
     height="50.00000000"
     x="-5.62500000"
     y="250.62500000" />
  <rect
     style="font-size:12;fill:#ffffff;fill-opacity:0.2;fill-rule:evenodd;stroke:none;stroke-width:1pt;"
     id="rect740"
     width="60.00000000"
     height="50.00000000"
     x="-5.62500000"
     y="254.37500000" />
  <rect
     style="font-size:12;fill:#ffffff;fill-opacity:0.2;fill-rule:evenodd;stroke:none;stroke-width:1pt;"
     id="rect741"
     width="60.00000000"
     height="50.00000000"
     x="-6.87500000"
     y="245.00000000" />
  <rect
     style="font-size:12;fill:#ffffff;fill-opacity:0.2;fill-rule:evenodd;stroke:none;stroke-width:1pt;"
     id="rect742"
     width="60.00000000"
     height="50.00000000"
     x="-3.75000000"
     y="300.00000000" />
  <rect
     style="font-size:12;fill:#ffffff;fill-opacity:0.2;fill-rule:evenodd;stroke:none;stroke-width:1pt;"
     id="rect743"
     width="60.00000000"
     height="50.00000000"
     x="-6.87500000"
     y="300.00000000" />
  <rect
     style="font-size:12;fill:#ffffff;fill-opacity:0.2;fill-rule:evenodd;stroke:none;stroke-width:1pt;"
     id="rect744"
     width="60.00000000"
     height="50.00000000"
     x="-6.87500000"
     y="350.00000000" />
</svg>
