<?xml version="1.0" encoding="UTF-8" standalone="no"?>
<!DOCTYPE svg PUBLIC "-//W3C//DTD SVG 20010904//EN"
"http://www.w3.org/TR/2001/REC-SVG-20010904/DTD/svg10.dtd">
<!-- Created with Inkscape (http://www.inkscape.org/) -->
<svg
   version="1"
   x="0.00000000"
   y="0.00000000"
   width="48pt"
   height="48pt"
   id="svg548"
   sodipodi:version="0.32"
   sodipodi:docname="kde1.svg"
   sodipodi:docbase="/home/tom"
   inkscape:version="0.38"
   xmlns="http://www.w3.org/2000/svg"
   xmlns:inkscape="http://www.inkscape.org/namespaces/inkscape"
   xmlns:sodipodi="http://sodipodi.sourceforge.net/DTD/sodipodi-0.dtd"
   xmlns:xlink="http://www.w3.org/1999/xlink">
  <sodipodi:namedview
     id="base"
     inkscape:zoom="4.9440000"
     inkscape:cx="25.678122"
     inkscape:cy="22.158583"
     inkscape:window-width="1018"
     inkscape:window-height="711"
     inkscape:window-x="0"
     inkscape:window-y="30" />
  <defs
     id="defs550">
    <linearGradient
       x1="0.00000000"
       y1="0.00000000"
       x2="1.00000000"
       y2="0.00000000"
       id="linearGradient920"
       gradientUnits="objectBoundingBox"
       spreadMethod="pad">
      <stop
         style="stop-color:#d9cce6;stop-opacity:1.0000000;"
         offset="0.0000000"
         id="stop921" />
      <stop
         style="stop-color:#ffffff;stop-opacity:1.0000000;"
         offset="1.0000000"
         id="stop922" />
    </linearGradient>
    <linearGradient
       xlink:href="#linearGradient920"
       id="linearGradient869"
       x1="8.1250111e-16"
       y1="-6.6895274e-17"
       x2="1.0000000"
       y2="-6.6895274e-17" />
    <linearGradient
       xlink:href="#linearGradient584"
       id="linearGradient862"
       x1="0.01515152"
       y1="0.00000004"
       x2="0.97727269"
       y2="1.00000012" />
    <linearGradient
       id="linearGradient578">
      <stop
         style="stop-color:#d9cce6;stop-opacity:1;"
         offset="0.00000000"
         id="stop579" />
      <stop
         style="stop-color:#73667f;stop-opacity:1;"
         offset="1.00000000"
         id="stop580" />
    </linearGradient>
    <linearGradient
       xlink:href="#linearGradient584"
       id="linearGradient860"
       x1="0.01724138"
       y1="0.01562503"
       x2="0.97413802"
       y2="0.98437494" />
    <linearGradient
       id="linearGradient584">
      <stop
         style="stop-color:#ffffff;stop-opacity:1;"
         offset="0.00000000"
         id="stop585" />
      <stop
         style="stop-color:#ffffff;stop-opacity:0;"
         offset="1.00000000"
         id="stop586" />
    </linearGradient>
    <linearGradient
       xlink:href="#linearGradient584"
       id="linearGradient861"
       x1="-0.00000059"
       y1="0.01562460"
       x2="0.99315012"
       y2="0.97656339" />
    <linearGradient
       x1="0.00000000"
       y1="0.00000000"
       x2="1.00000000"
       y2="0.00000000"
       id="linearGradient1129"
       gradientUnits="objectBoundingBox"
       spreadMethod="pad">
      <stop
         style="stop-color:#d9cce6;stop-opacity:1;"
         offset="0.00000000"
         id="stop1130" />
      <stop
         style="stop-color:#73667f;stop-opacity:1;"
         offset="1.00000000"
         id="stop1131" />
    </linearGradient>
    <linearGradient
       x1="0.00000000"
       y1="0.00000000"
       x2="1.00000000"
       y2="0.00000000"
       id="linearGradient588"
       gradientUnits="objectBoundingBox"
       spreadMethod="pad">
      <stop
         style="stop-color:#a673f3;stop-opacity:1;"
         offset="0.00000000"
         id="stop589" />
      <stop
         style="stop-color:#4c3f8c;stop-opacity:1;"
         offset="1.00000000"
         id="stop590" />
    </linearGradient>
    <linearGradient
       x1="0.00000000"
       y1="0.00000000"
       x2="1.00000000"
       y2="0.00000000"
       id="linearGradient576"
       gradientUnits="objectBoundingBox"
       spreadMethod="pad">
      <stop
         style="stop-color:#000000;stop-opacity:1;"
         offset="0.00000000"
         id="stop577" />
      <stop
         style="stop-color:#000000;stop-opacity:0;"
         offset="1.00000000"
         id="stop578" />
    </linearGradient>
    <linearGradient
       x1="0.00000000"
       y1="0.00000000"
       x2="1.00000000"
       y2="0.00000000"
       id="linearGradient569"
       gradientUnits="objectBoundingBox"
       spreadMethod="pad">
      <stop
         style="stop-color:#736b7f;stop-opacity:1;"
         offset="0.00000000"
         id="stop570" />
      <stop
         style="stop-color:#f3ebff;stop-opacity:1;"
         offset="1.00000000"
         id="stop571" />
    </linearGradient>
    <linearGradient
       x1="0.00000000"
       y1="0.00000000"
       x2="1.00000000"
       y2="0.00000000"
       id="linearGradient564"
       gradientUnits="objectBoundingBox"
       spreadMethod="pad">
      <stop
         style="stop-color:#7f7366;stop-opacity:1;"
         offset="0.00000000"
         id="stop565" />
      <stop
         style="stop-color:#7f7366;stop-opacity:0;"
         offset="1.00000000"
         id="stop566" />
    </linearGradient>
    <linearGradient
       x1="0.00000000"
       y1="0.00000000"
       x2="1.00000000"
       y2="0.00000000"
       id="linearGradient558"
       gradientUnits="objectBoundingBox"
       spreadMethod="pad">
      <stop
         style="stop-color:#ffffff;stop-opacity:1;"
         offset="0.00000000"
         id="stop559" />
      <stop
         style="stop-color:#ffffff;stop-opacity:0;"
         offset="1.00000000"
         id="stop560" />
    </linearGradient>
    <linearGradient
       id="linearGradient561"
       xlink:href="#linearGradient1129"
       x1="-0.01351351"
       y1="-0.00000000"
       x2="0.98648649"
       y2="0.98437500" />
    <linearGradient
       x1="0.49351925"
       y1="0.99222833"
       x2="0.49350709"
       y2="0.01562530"
       id="linearGradient563"
       xlink:href="#linearGradient564"
       gradientUnits="objectBoundingBox"
       spreadMethod="pad" />
    <linearGradient
       x1="0.12337894"
       y1="0.99219656"
       x2="0.82467574"
       y2="0.00000038"
       id="linearGradient572"
       xlink:href="#linearGradient569"
       gradientUnits="objectBoundingBox"
       spreadMethod="pad" />
    <linearGradient
       x1="0.03246462"
       y1="0.98445034"
       x2="0.69480515"
       y2="0.24218844"
       id="linearGradient575"
       xlink:href="#linearGradient564"
       gradientUnits="objectBoundingBox"
       spreadMethod="pad" />
    <radialGradient
       cx="0.48876417"
       cy="0.98437452"
       fx="0.48804680"
       fy="0.96095657"
       r="0.79719150"
       id="radialGradient579"
       xlink:href="#linearGradient576"
       gradientUnits="objectBoundingBox"
       spreadMethod="pad" />
    <linearGradient
       x1="0.57826090"
       y1="0.97656250"
       x2="0.29130435"
       y2="0.51562500"
       id="linearGradient583"
       xlink:href="#linearGradient564"
       gradientUnits="objectBoundingBox"
       spreadMethod="pad" />
    <linearGradient
       x1="0.96277922"
       y1="0.00000272"
       x2="0.00531922"
       y2="0.98437500"
       id="linearGradient585"
       xlink:href="#linearGradient558"
       gradientUnits="objectBoundingBox"
       spreadMethod="pad" />
    <radialGradient
       cx="0.14615387"
       cy="0.39062509"
       fx="0.14615387"
       fy="0.39062509"
       r="0.52400964"
       id="radialGradient587"
       xlink:href="#linearGradient558"
       gradientUnits="objectBoundingBox"
       spreadMethod="pad" />
    <radialGradient
       cx="0.13076705"
       cy="0.41407111"
       fx="0.13076705"
       fy="0.41407111"
       r="0.75421256"
       id="radialGradient592"
       xlink:href="#linearGradient558"
       gradientUnits="objectBoundingBox"
       spreadMethod="pad" />
    <linearGradient
       xlink:href="#linearGradient558"
       id="linearGradient1132"
       x1="0.01315789"
       y1="0.01562500"
       x2="0.96052629"
       y2="0.96875000" />
    <linearGradient
       xlink:href="#linearGradient1129"
       id="linearGradient1133"
       x1="0.01515152"
       y1="0.00000000"
       x2="0.97727275"
       y2="1.00000000" />
    <linearGradient
       xlink:href="#linearGradient558"
       id="linearGradient1134"
       x1="0.01094890"
       y1="0.02040816"
       x2="0.98905110"
       y2="0.97959185" />
    <linearGradient
       xlink:href="#linearGradient558"
       id="linearGradient1135"
       x1="-0.00000000"
       y1="0.01562500"
       x2="1.00000000"
       y2="0.99218750" />
    <linearGradient
       xlink:href="#linearGradient920"
       id="linearGradient797"
       x1="0.92361110"
       y1="0.75572520"
       x2="0.090277776"
       y2="0.35877863" />
  </defs>
  <path
     d="M 10.044544 54.871626 C 1.6418008 51.279342 0.39646187 20.679217 2.1313955 7.7816841 C 2.6881654 3.6421438 14.661702 2.3334236 18.476767 2.8522612 C 20.066983 3.0685804 20.039031 10.275579 21.84956 10.246455 C 30.806137 10.102593 42.825125 -0.34038515 49.221338 3.2414468 C 54.716573 6.3187693 58.714486 29.00962 54.150761 35.024047 C 45.655594 46.219681 18.938294 58.673771 10.044544 54.871626 z "
     style="font-size:12;opacity:0.302675;fill-rule:evenodd;stroke-width:18.75;stroke-linecap:round;stroke-linejoin:round;"
     id="path1123" />
  <path
     d="M 10.906626 51.347415 C 3.2914096 48.091826 2.1627826 20.35978 3.735137 8.671102 C 4.239775 4.9195497 15.091029 3.7334932 18.548515 4.2037017 C 19.989684 4.3997455 19.964354 10.931249 21.605186 10.904857 C 29.722284 10.774478 40.61476 1.3102838 46.411471 4.5564101 C 51.391652 7.3453026 55.01485 27.909393 50.878872 33.360101 C 43.179936 43.506396 18.966785 54.793194 10.906626 51.347415 z "
     style="font-size:12;fill:url(#linearGradient1133);fill-rule:evenodd;stroke:#261933;stroke-width:1.875;stroke-linecap:round;stroke-linejoin:round;stroke-dasharray:none;"
     id="path1124" />
  <path
     d="M 11.024125 48.878663 C 6.2301975 45.02877 3.7888526 18.767907 5.9689123 9.6116245 C 6.7279711 6.4235129 17.376401 5.8629452 17.725493 7.0252682 C 14.764395 7.1521328 10.31445 9.9592247 9.6133962 12.903505 C 7.3752781 22.303618 10.365111 46.312742 11.024125 48.878663 z "
     style="font-size:12;opacity:0.7;fill:url(#linearGradient1135);fill-rule:evenodd;stroke:none;stroke-width:1pt;"
     id="path1125" />
  <path
     d="M 23.486123 13.021111 C 34.290367 11.068651 42.305614 4.6233552 44.530427 6.437455 C 45.132502 6.9556629 36.723571 11.675196 31.598221 13.373926 C 29.86554 13.948115 22.969407 13.113492 23.486123 13.021111 z "
     style="font-size:12;opacity:0.699936;fill:url(#linearGradient1134);fill-rule:evenodd;stroke:none;stroke-width:1pt;"
     id="path1126" />
  <path
     d="M 11.54063 51.576346 C 9.4802519 51.246518 8.4368112 28.895031 13.702011 23.778407 C 22.181186 15.53838 43.775944 10.462947 52.773858 12.638588 C 57.298732 13.732796 54.799221 28.725499 50.612477 33.786141 C 41.695983 44.68149 20.024806 52.833284 11.54063 51.576346 z "
     style="font-size:12;fill:url(#linearGradient561);fill-rule:evenodd;stroke:#261933;stroke-width:1.875;stroke-linecap:round;stroke-linejoin:round;stroke-dasharray:none;"
     id="path576"
     sodipodi:nodetypes="ccccc" />
  <path
     d="M 13.14187 47.914621 C 10.389269 42.753829 13.017878 28.190157 15.137114 25.609016 C 24.411281 15.688732 49.056431 14.225387 51.002823 15.146007 C 35.614744 17.438829 28.361716 19.564064 19.369517 28.430582 C 15.372323 33.015694 12.623661 40.837769 13.14187 47.914621 z "
     style="font-size:12;opacity:0.7;fill:url(#linearGradient1132);fill-rule:evenodd;stroke:none;stroke-width:1.25;"
     id="path577"
     sodipodi:nodetypes="ccccc" />
  <path
     d="M 42.710801,36.011629 C 42.710801,41.356155 38.373191,45.693765 33.028667,45.693765 C 27.684065,45.693765 23.346454,41.356155 23.346454,36.011629 C 23.346454,30.667105 27.684065,26.329495 33.028667,26.329495 C 38.373191,26.329495 42.710801,30.667105 42.710801,36.011629 z M 40.311676,36.011629 C 40.311676,39.937270 37.048838,43.123286 33.028667,43.123286 C 29.008418,43.123286 25.745656,39.937270 25.745656,36.011629 C 25.745656,32.085988 29.008418,28.899895 33.028667,28.899895 C 37.048838,28.899895 40.311676,32.085988 40.311676,36.011629 z "
     style="font-size:12;opacity:0.3;fill-rule:evenodd;stroke-width:13.4904;"
     id="path1566" />
  <path
     d="M 41.884157,34.770808 C 41.884157,40.115333 37.270187,44.729304 31.925661,44.729304 C 26.581059,44.729304 21.967089,40.115333 21.967089,34.770808 C 21.967089,29.426283 26.581059,24.812313 31.925661,24.812313 C 37.270187,24.812313 41.884157,29.426283 41.884157,34.770808 z M 38.655954,34.770808 C 38.655954,38.696449 35.945833,41.329745 31.925661,41.329745 C 27.905414,41.329745 25.195372,38.696449 25.195372,34.770808 C 25.195372,30.845167 27.905414,28.211794 31.925661,28.211794 C 35.945833,28.211794 38.655954,30.845167 38.655954,34.770808 z "
     style="font-size:12.000000;fill:url(#linearGradient869);fill-rule:evenodd;stroke:#261933;stroke-width:1.4624062;"
     id="path1525"
     sodipodi:nodetypes="cccccccccs" />
  <path
     d="M 38.609477,43.666979 C 38.412397,43.279399 40.017312,41.509393 40.404720,41.712541 C 41.792229,42.439584 43.044697,44.579100 44.618524,45.675593 C 47.838715,47.919118 52.375239,49.257732 54.786943,51.732941 C 55.561678,52.528013 54.838503,55.047269 54.079755,55.681326 C 53.247851,56.376747 50.326763,57.288148 49.330766,56.503246 C 46.561904,54.321778 44.671781,50.330180 42.198538,47.368937 C 41.098018,46.051338 39.238407,44.904241 38.609477,43.666979 z "
     style="font-size:12;opacity:0.3;fill-rule:evenodd;stroke-width:13.4904;"
     id="path1565"
     sodipodi:nodetypes="ccsccccc" />
  <ellipse
     cx="373.574921"
     cy="328.786621"
     rx="115.024445"
     ry="115.024429"
     transform="matrix(5.593298e-2,0.000000,0.000000,5.461696e-2,11.03043,16.81353)"
     style="font-size:12;fill-rule:evenodd;stroke-width:1pt;fill:url(#linearGradient862);"
     id="path1521" />
  <path
     d="M 37.854145,41.551829 C 37.657065,41.164250 39.164236,39.589733 39.551644,39.792880 C 40.939153,40.519923 42.191628,42.659430 43.765448,43.755933 C 46.985647,45.999449 51.522159,47.338072 53.933871,49.813281 C 54.708605,50.608353 53.789942,53.127608 53.031194,53.761666 C 52.199282,54.457087 49.571435,55.172999 48.575439,54.388097 C 45.806573,52.206629 43.916451,48.215030 41.443208,45.253789 C 40.342687,43.936189 38.483075,42.789092 37.854145,41.551829 z "
     style="font-size:12.000000;fill:url(#linearGradient797);fill-rule:evenodd;stroke:#261933;stroke-width:1.4624062;"
     id="path1531"
     sodipodi:nodetypes="cccccccc" />
  <path
     d="M 23.932220,38.375758 C 23.242822,36.996963 22.553503,32.447052 25.517857,28.931195 C 29.102659,25.691130 32.825358,26.173607 34.341969,26.380450 C 31.929118,26.518345 29.447320,26.173685 26.207254,29.344882 C 23.173952,32.309156 24.001167,36.721252 23.932220,38.375758 z "
     style="font-size:12;opacity:0.7;fill-rule:evenodd;stroke:none;stroke-width:1pt;fill:url(#linearGradient860);"
     id="path1533" />
  <path
     d="M 38.634090,41.414915 C 38.627082,41.369449 38.768439,41.131689 38.841854,41.188265 C 39.511294,41.704554 40.856070,43.091036 40.862565,43.133426 C 40.868633,43.172910 39.558469,41.957270 38.879629,41.433803 C 38.815616,41.384404 38.639731,41.451323 38.634090,41.414915 z "
     style="font-size:12;opacity:0.7;fill-rule:evenodd;stroke:none;stroke-width:1pt;fill:url(#linearGradient861);"
     id="path1538" />
</svg>
