<?xml version="1.0" encoding="UTF-8" standalone="no"?>
<!DOCTYPE svg PUBLIC "-//W3C//DTD SVG 20010904//EN"
"http://www.w3.org/TR/2001/REC-SVG-20010904/DTD/svg10.dtd">
<!-- Created with Inkscape (http://www.inkscape.org/) -->
<svg
   version="1"
   x="0.00000000"
   y="0.00000000"
   width="48pt"
   height="48pt"
   id="svg548"
   sodipodi:version="0.32"
   sodipodi:docname="kde2.svg"
   sodipodi:docbase="/home/tom"
   inkscape:version="0.38"
   xmlns="http://www.w3.org/2000/svg"
   xmlns:inkscape="http://www.inkscape.org/namespaces/inkscape"
   xmlns:sodipodi="http://sodipodi.sourceforge.net/DTD/sodipodi-0.dtd"
   xmlns:xlink="http://www.w3.org/1999/xlink">
  <sodipodi:namedview
     id="base"
     inkscape:zoom="4.9440000"
     inkscape:cx="25.678122"
     inkscape:cy="22.158583"
     inkscape:window-width="1018"
     inkscape:window-height="711"
     inkscape:window-x="0"
     inkscape:window-y="30" />
  <defs
     id="defs550">
    <linearGradient
       x1="0.00000000"
       y1="0.00000000"
       x2="1.00000000"
       y2="0.00000000"
       id="linearGradient920"
       gradientUnits="objectBoundingBox"
       spreadMethod="pad">
      <stop
         style="stop-color:#d9cce6;stop-opacity:1.0000000;"
         offset="0.0000000"
         id="stop921" />
      <stop
         style="stop-color:#ffffff;stop-opacity:1.0000000;"
         offset="1.0000000"
         id="stop922" />
    </linearGradient>
    <linearGradient
       xlink:href="#linearGradient920"
       id="linearGradient869"
       x1="8.1250111e-16"
       y1="-6.6895274e-17"
       x2="1.0000000"
       y2="-6.6895274e-17" />
    <linearGradient
       xlink:href="#linearGradient584"
       id="linearGradient862"
       x1="0.01515152"
       y1="0.00000004"
       x2="0.97727269"
       y2="1.00000012" />
    <linearGradient
       id="linearGradient578">
      <stop
         style="stop-color:#d9cce6;stop-opacity:1;"
         offset="0.00000000"
         id="stop579" />
      <stop
         style="stop-color:#73667f;stop-opacity:1;"
         offset="1.00000000"
         id="stop580" />
    </linearGradient>
    <linearGradient
       xlink:href="#linearGradient584"
       id="linearGradient860"
       x1="0.01724138"
       y1="0.01562503"
       x2="0.97413802"
       y2="0.98437494" />
    <linearGradient
       id="linearGradient584">
      <stop
         style="stop-color:#ffffff;stop-opacity:1;"
         offset="0.00000000"
         id="stop585" />
      <stop
         style="stop-color:#ffffff;stop-opacity:0;"
         offset="1.00000000"
         id="stop586" />
    </linearGradient>
    <linearGradient
       xlink:href="#linearGradient584"
       id="linearGradient861"
       x1="-0.00000059"
       y1="0.01562460"
       x2="0.99315012"
       y2="0.97656339" />
    <linearGradient
       x1="0.00000000"
       y1="0.00000000"
       x2="1.00000000"
       y2="0.00000000"
       id="linearGradient1129"
       gradientUnits="objectBoundingBox"
       spreadMethod="pad">
      <stop
         style="stop-color:#d9cce6;stop-opacity:1;"
         offset="0.00000000"
         id="stop1130" />
      <stop
         style="stop-color:#73667f;stop-opacity:1;"
         offset="1.00000000"
         id="stop1131" />
    </linearGradient>
    <linearGradient
       x1="0.00000000"
       y1="0.00000000"
       x2="1.00000000"
       y2="0.00000000"
       id="linearGradient588"
       gradientUnits="objectBoundingBox"
       spreadMethod="pad">
      <stop
         style="stop-color:#a673f3;stop-opacity:1;"
         offset="0.00000000"
         id="stop589" />
      <stop
         style="stop-color:#4c3f8c;stop-opacity:1;"
         offset="1.00000000"
         id="stop590" />
    </linearGradient>
    <linearGradient
       x1="0.00000000"
       y1="0.00000000"
       x2="1.00000000"
       y2="0.00000000"
       id="linearGradient576"
       gradientUnits="objectBoundingBox"
       spreadMethod="pad">
      <stop
         style="stop-color:#000000;stop-opacity:1;"
         offset="0.00000000"
         id="stop577" />
      <stop
         style="stop-color:#000000;stop-opacity:0;"
         offset="1.00000000"
         id="stop578" />
    </linearGradient>
    <linearGradient
       x1="0.00000000"
       y1="0.00000000"
       x2="1.00000000"
       y2="0.00000000"
       id="linearGradient569"
       gradientUnits="objectBoundingBox"
       spreadMethod="pad">
      <stop
         style="stop-color:#736b7f;stop-opacity:1;"
         offset="0.00000000"
         id="stop570" />
      <stop
         style="stop-color:#f3ebff;stop-opacity:1;"
         offset="1.00000000"
         id="stop571" />
    </linearGradient>
    <linearGradient
       x1="0.00000000"
       y1="0.00000000"
       x2="1.00000000"
       y2="0.00000000"
       id="linearGradient564"
       gradientUnits="objectBoundingBox"
       spreadMethod="pad">
      <stop
         style="stop-color:#7f7366;stop-opacity:1;"
         offset="0.00000000"
         id="stop565" />
      <stop
         style="stop-color:#7f7366;stop-opacity:0;"
         offset="1.00000000"
         id="stop566" />
    </linearGradient>
    <linearGradient
       x1="0.00000000"
       y1="0.00000000"
       x2="1.00000000"
       y2="0.00000000"
       id="linearGradient558"
       gradientUnits="objectBoundingBox"
       spreadMethod="pad">
      <stop
         style="stop-color:#ffffff;stop-opacity:1;"
         offset="0.00000000"
         id="stop559" />
      <stop
         style="stop-color:#ffffff;stop-opacity:0;"
         offset="1.00000000"
         id="stop560" />
    </linearGradient>
    <linearGradient
       id="linearGradient561"
       xlink:href="#linearGradient1129"
       x1="-0.01351351"
       y1="-0.00000000"
       x2="0.98648649"
       y2="0.98437500" />
    <linearGradient
       x1="0.49351925"
       y1="0.99222833"
       x2="0.49350709"
       y2="0.01562530"
       id="linearGradient563"
       xlink:href="#linearGradient564"
       gradientUnits="objectBoundingBox"
       spreadMethod="pad" />
    <linearGradient
       x1="0.12337894"
       y1="0.99219656"
       x2="0.82467574"
       y2="0.00000038"
       id="linearGradient572"
       xlink:href="#linearGradient569"
       gradientUnits="objectBoundingBox"
       spreadMethod="pad" />
    <linearGradient
       x1="0.03246462"
       y1="0.98445034"
       x2="0.69480515"
       y2="0.24218844"
       id="linearGradient575"
       xlink:href="#linearGradient564"
       gradientUnits="objectBoundingBox"
       spreadMethod="pad" />
    <radialGradient
       cx="0.48876417"
       cy="0.98437452"
       fx="0.48804680"
       fy="0.96095657"
       r="0.79719150"
       id="radialGradient579"
       xlink:href="#linearGradient576"
       gradientUnits="objectBoundingBox"
       spreadMethod="pad" />
    <linearGradient
       x1="0.57826090"
       y1="0.97656250"
       x2="0.29130435"
       y2="0.51562500"
       id="linearGradient583"
       xlink:href="#linearGradient564"
       gradientUnits="objectBoundingBox"
       spreadMethod="pad" />
    <linearGradient
       x1="0.96277922"
       y1="0.00000272"
       x2="0.00531922"
       y2="0.98437500"
       id="linearGradient585"
       xlink:href="#linearGradient558"
       gradientUnits="objectBoundingBox"
       spreadMethod="pad" />
    <radialGradient
       cx="0.14615387"
       cy="0.39062509"
       fx="0.14615387"
       fy="0.39062509"
       r="0.52400964"
       id="radialGradient587"
       xlink:href="#linearGradient558"
       gradientUnits="objectBoundingBox"
       spreadMethod="pad" />
    <radialGradient
       cx="0.13076705"
       cy="0.41407111"
       fx="0.13076705"
       fy="0.41407111"
       r="0.75421256"
       id="radialGradient592"
       xlink:href="#linearGradient558"
       gradientUnits="objectBoundingBox"
       spreadMethod="pad" />
    <linearGradient
       xlink:href="#linearGradient558"
       id="linearGradient1132"
       x1="0.01315789"
       y1="0.01562500"
       x2="0.96052629"
       y2="0.96875000" />
    <linearGradient
       xlink:href="#linearGradient1129"
       id="linearGradient1133"
       x1="0.01515152"
       y1="0.00000000"
       x2="0.97727275"
       y2="1.00000000" />
    <linearGradient
       xlink:href="#linearGradient558"
       id="linearGradient1134"
       x1="0.01094890"
       y1="0.02040816"
       x2="0.98905110"
       y2="0.97959185" />
    <linearGradient
       xlink:href="#linearGradient558"
       id="linearGradient1135"
       x1="-0.00000000"
       y1="0.01562500"
       x2="1.00000000"
       y2="0.99218750" />
    <linearGradient
       xlink:href="#linearGradient920"
       id="linearGradient797"
       x1="0.92361110"
       y1="0.75572520"
       x2="0.090277776"
       y2="0.35877863" />
  </defs>
  <path
     d="M 10.044544 54.871626 C 1.6418008 51.279342 0.39646187 20.679217 2.1313955 7.7816841 C 2.6881654 3.6421438 14.661702 2.3334236 18.476767 2.8522612 C 20.066983 3.0685804 20.039031 10.275579 21.84956 10.246455 C 30.806137 10.102593 42.825125 -0.34038515 49.221338 3.2414468 C 54.716573 6.3187693 58.714486 29.00962 54.150761 35.024047 C 45.655594 46.219681 18.938294 58.673771 10.044544 54.871626 z "
     style="font-size:12;opacity:0.302675;fill-rule:evenodd;stroke-width:18.75;stroke-linecap:round;stroke-linejoin:round;"
     id="path1123" />
  <path
     d="M 10.906626 51.347415 C 3.2914096 48.091826 2.1627826 20.35978 3.735137 8.671102 C 4.239775 4.9195497 15.091029 3.7334932 18.548515 4.2037017 C 19.989684 4.3997455 19.964354 10.931249 21.605186 10.904857 C 29.722284 10.774478 40.61476 1.3102838 46.411471 4.5564101 C 51.391652 7.3453026 55.01485 27.909393 50.878872 33.360101 C 43.179936 43.506396 18.966785 54.793194 10.906626 51.347415 z "
     style="font-size:12;fill:url(#linearGradient1133);fill-rule:evenodd;stroke:#261933;stroke-width:1.875;stroke-linecap:round;stroke-linejoin:round;stroke-dasharray:none;"
     id="path1124" />
  <path
     d="M 11.024125 48.878663 C 6.2301975 45.02877 3.7888526 18.767907 5.9689123 9.6116245 C 6.7279711 6.4235129 17.376401 5.8629452 17.725493 7.0252682 C 14.764395 7.1521328 10.31445 9.9592247 9.6133962 12.903505 C 7.3752781 22.303618 10.365111 46.312742 11.024125 48.878663 z "
     style="font-size:12;opacity:0.7;fill:url(#linearGradient1135);fill-rule:evenodd;stroke:none;stroke-width:1pt;"
     id="path1125" />
  <path
     d="M 23.486123 13.021111 C 34.290367 11.068651 42.305614 4.6233552 44.530427 6.437455 C 45.132502 6.9556629 36.723571 11.675196 31.598221 13.373926 C 29.86554 13.948115 22.969407 13.113492 23.486123 13.021111 z "
     style="font-size:12;opacity:0.699936;fill:url(#linearGradient1134);fill-rule:evenodd;stroke:none;stroke-width:1pt;"
     id="path1126" />
  <path
     d="M 11.54063 51.576346 C 9.4802519 51.246518 8.4368112 28.895031 13.702011 23.778407 C 22.181186 15.53838 43.775944 10.462947 52.773858 12.638588 C 57.298732 13.732796 54.799221 28.725499 50.612477 33.786141 C 41.695983 44.68149 20.024806 52.833284 11.54063 51.576346 z "
     style="font-size:12;fill:url(#linearGradient561);fill-rule:evenodd;stroke:#261933;stroke-width:1.875;stroke-linecap:round;stroke-linejoin:round;stroke-dasharray:none;"
     id="path576"
     sodipodi:nodetypes="ccccc" />
  <path
     d="M 13.14187 47.914621 C 10.389269 42.753829 13.017878 28.190157 15.137114 25.609016 C 24.411281 15.688732 49.056431 14.225387 51.002823 15.146007 C 35.614744 17.438829 28.361716 19.564064 19.369517 28.430582 C 15.372323 33.015694 12.623661 40.837769 13.14187 47.914621 z "
     style="font-size:12;opacity:0.7;fill:url(#linearGradient1132);fill-rule:evenodd;stroke:none;stroke-width:1.25;"
     id="path577"
     sodipodi:nodetypes="ccccc" />
  <path
     d="M 46.254108,28.925015 C 46.254108,34.269541 41.916498,38.607151 36.571974,38.607151 C 31.227372,38.607151 26.889761,34.269541 26.889761,28.925015 C 26.889761,23.580491 31.227372,19.242881 36.571974,19.242881 C 41.916498,19.242881 46.254108,23.580491 46.254108,28.925015 z M 43.854983,28.925015 C 43.854983,32.850656 40.592145,36.036672 36.571974,36.036672 C 32.551725,36.036672 29.288963,32.850656 29.288963,28.925015 C 29.288963,24.999374 32.551725,21.813281 36.571974,21.813281 C 40.592145,21.813281 43.854983,24.999374 43.854983,28.925015 z "
     style="font-size:12;opacity:0.3;fill-rule:evenodd;stroke-width:13.4904;"
     id="path1566" />
  <path
     d="M 45.427464,27.684194 C 45.427464,33.028719 40.813494,37.642690 35.468968,37.642690 C 30.124366,37.642690 25.510396,33.028719 25.510396,27.684194 C 25.510396,22.339669 30.124366,17.725699 35.468968,17.725699 C 40.813494,17.725699 45.427464,22.339669 45.427464,27.684194 z M 42.199261,27.684194 C 42.199261,31.609835 39.489140,34.243131 35.468968,34.243131 C 31.448721,34.243131 28.738679,31.609835 28.738679,27.684194 C 28.738679,23.758553 31.448721,21.125180 35.468968,21.125180 C 39.489140,21.125180 42.199261,23.758553 42.199261,27.684194 z "
     style="font-size:12.000000;fill:url(#linearGradient869);fill-rule:evenodd;stroke:#261933;stroke-width:1.4624062;"
     id="path1525"
     sodipodi:nodetypes="cccccccccs" />
  <path
     d="M 42.152784,36.580365 C 41.955704,36.192785 43.560619,34.422779 43.948027,34.625927 C 45.335536,35.352970 46.588004,37.492486 48.161831,38.588979 C 51.382022,40.832504 55.918546,42.171118 58.330250,44.646327 C 59.104985,45.441399 58.381810,47.960655 57.623062,48.594712 C 56.791158,49.290133 53.870070,50.201534 52.874073,49.416632 C 50.105211,47.235164 48.215088,43.243566 45.741845,40.282323 C 44.641325,38.964724 42.781714,37.817627 42.152784,36.580365 z "
     style="font-size:12;opacity:0.3;fill-rule:evenodd;stroke-width:13.4904;"
     id="path1565"
     sodipodi:nodetypes="ccsccccc" />
  <ellipse
     cx="373.574921"
     cy="328.786621"
     rx="115.024445"
     ry="115.024429"
     transform="matrix(5.593298e-2,0.000000,0.000000,5.461696e-2,14.57374,9.726913)"
     style="font-size:12;fill-rule:evenodd;stroke-width:1pt;fill:url(#linearGradient862);"
     id="path1521" />
  <path
     d="M 41.397452,34.465215 C 41.200372,34.077636 42.707543,32.503119 43.094951,32.706266 C 44.482460,33.433309 45.734935,35.572816 47.308755,36.669319 C 50.528954,38.912835 55.065466,40.251458 57.477178,42.726667 C 58.251912,43.521739 57.333249,46.040994 56.574501,46.675052 C 55.742589,47.370473 53.114742,48.086385 52.118746,47.301483 C 49.349880,45.120015 47.459758,41.128416 44.986515,38.167175 C 43.885994,36.849575 42.026382,35.702478 41.397452,34.465215 z "
     style="font-size:12.000000;fill:url(#linearGradient797);fill-rule:evenodd;stroke:#261933;stroke-width:1.4624062;"
     id="path1531"
     sodipodi:nodetypes="cccccccc" />
  <path
     d="M 27.475527,31.289144 C 26.786129,29.910349 26.096810,25.360438 29.061164,21.844581 C 32.645966,18.604516 36.368665,19.086993 37.885276,19.293836 C 35.472425,19.431731 32.990627,19.087071 29.750561,22.258268 C 26.717259,25.222542 27.544474,29.634638 27.475527,31.289144 z "
     style="font-size:12;opacity:0.7;fill-rule:evenodd;stroke:none;stroke-width:1pt;fill:url(#linearGradient860);"
     id="path1533" />
  <path
     d="M 42.177397,34.328301 C 42.170389,34.282835 42.311746,34.045075 42.385161,34.101651 C 43.054601,34.617940 44.399377,36.004422 44.405872,36.046812 C 44.411940,36.086296 43.101776,34.870656 42.422936,34.347189 C 42.358923,34.297790 42.183038,34.364709 42.177397,34.328301 z "
     style="font-size:12;opacity:0.7;fill-rule:evenodd;stroke:none;stroke-width:1pt;fill:url(#linearGradient861);"
     id="path1538" />
</svg>
