<?xml version="1.0" encoding="UTF-8" standalone="no"?>
<!DOCTYPE svg PUBLIC "-//W3C//DTD SVG 20010904//EN"
"http://www.w3.org/TR/2001/REC-SVG-20010904/DTD/svg10.dtd">
<!-- Created with Inkscape (http://www.inkscape.org/) -->
<svg
   version="1"
   x="0.00000000"
   y="0.00000000"
   width="48pt"
   height="48pt"
   id="svg548"
   sodipodi:version="0.32"
   sodipodi:docname="kde3.svg"
   sodipodi:docbase="/home/tom"
   inkscape:version="0.38"
   xmlns="http://www.w3.org/2000/svg"
   xmlns:inkscape="http://www.inkscape.org/namespaces/inkscape"
   xmlns:sodipodi="http://sodipodi.sourceforge.net/DTD/sodipodi-0.dtd"
   xmlns:xlink="http://www.w3.org/1999/xlink">
  <sodipodi:namedview
     id="base"
     inkscape:zoom="4.9440000"
     inkscape:cx="25.678122"
     inkscape:cy="22.158583"
     inkscape:window-width="1018"
     inkscape:window-height="711"
     inkscape:window-x="0"
     inkscape:window-y="30" />
  <defs
     id="defs550">
    <linearGradient
       x1="0.00000000"
       y1="0.00000000"
       x2="1.00000000"
       y2="0.00000000"
       id="linearGradient920"
       gradientUnits="objectBoundingBox"
       spreadMethod="pad">
      <stop
         style="stop-color:#d9cce6;stop-opacity:1.0000000;"
         offset="0.0000000"
         id="stop921" />
      <stop
         style="stop-color:#ffffff;stop-opacity:1.0000000;"
         offset="1.0000000"
         id="stop922" />
    </linearGradient>
    <linearGradient
       xlink:href="#linearGradient920"
       id="linearGradient869"
       x1="8.1250111e-16"
       y1="-6.6895274e-17"
       x2="1.0000000"
       y2="-6.6895274e-17" />
    <linearGradient
       xlink:href="#linearGradient584"
       id="linearGradient862"
       x1="0.01515152"
       y1="0.00000004"
       x2="0.97727269"
       y2="1.00000012" />
    <linearGradient
       id="linearGradient578">
      <stop
         style="stop-color:#d9cce6;stop-opacity:1;"
         offset="0.00000000"
         id="stop579" />
      <stop
         style="stop-color:#73667f;stop-opacity:1;"
         offset="1.00000000"
         id="stop580" />
    </linearGradient>
    <linearGradient
       xlink:href="#linearGradient584"
       id="linearGradient860"
       x1="0.01724138"
       y1="0.01562503"
       x2="0.97413802"
       y2="0.98437494" />
    <linearGradient
       id="linearGradient584">
      <stop
         style="stop-color:#ffffff;stop-opacity:1;"
         offset="0.00000000"
         id="stop585" />
      <stop
         style="stop-color:#ffffff;stop-opacity:0;"
         offset="1.00000000"
         id="stop586" />
    </linearGradient>
    <linearGradient
       xlink:href="#linearGradient584"
       id="linearGradient861"
       x1="-0.00000059"
       y1="0.01562460"
       x2="0.99315012"
       y2="0.97656339" />
    <linearGradient
       x1="0.00000000"
       y1="0.00000000"
       x2="1.00000000"
       y2="0.00000000"
       id="linearGradient1129"
       gradientUnits="objectBoundingBox"
       spreadMethod="pad">
      <stop
         style="stop-color:#d9cce6;stop-opacity:1;"
         offset="0.00000000"
         id="stop1130" />
      <stop
         style="stop-color:#73667f;stop-opacity:1;"
         offset="1.00000000"
         id="stop1131" />
    </linearGradient>
    <linearGradient
       x1="0.00000000"
       y1="0.00000000"
       x2="1.00000000"
       y2="0.00000000"
       id="linearGradient588"
       gradientUnits="objectBoundingBox"
       spreadMethod="pad">
      <stop
         style="stop-color:#a673f3;stop-opacity:1;"
         offset="0.00000000"
         id="stop589" />
      <stop
         style="stop-color:#4c3f8c;stop-opacity:1;"
         offset="1.00000000"
         id="stop590" />
    </linearGradient>
    <linearGradient
       x1="0.00000000"
       y1="0.00000000"
       x2="1.00000000"
       y2="0.00000000"
       id="linearGradient576"
       gradientUnits="objectBoundingBox"
       spreadMethod="pad">
      <stop
         style="stop-color:#000000;stop-opacity:1;"
         offset="0.00000000"
         id="stop577" />
      <stop
         style="stop-color:#000000;stop-opacity:0;"
         offset="1.00000000"
         id="stop578" />
    </linearGradient>
    <linearGradient
       x1="0.00000000"
       y1="0.00000000"
       x2="1.00000000"
       y2="0.00000000"
       id="linearGradient569"
       gradientUnits="objectBoundingBox"
       spreadMethod="pad">
      <stop
         style="stop-color:#736b7f;stop-opacity:1;"
         offset="0.00000000"
         id="stop570" />
      <stop
         style="stop-color:#f3ebff;stop-opacity:1;"
         offset="1.00000000"
         id="stop571" />
    </linearGradient>
    <linearGradient
       x1="0.00000000"
       y1="0.00000000"
       x2="1.00000000"
       y2="0.00000000"
       id="linearGradient564"
       gradientUnits="objectBoundingBox"
       spreadMethod="pad">
      <stop
         style="stop-color:#7f7366;stop-opacity:1;"
         offset="0.00000000"
         id="stop565" />
      <stop
         style="stop-color:#7f7366;stop-opacity:0;"
         offset="1.00000000"
         id="stop566" />
    </linearGradient>
    <linearGradient
       x1="0.00000000"
       y1="0.00000000"
       x2="1.00000000"
       y2="0.00000000"
       id="linearGradient558"
       gradientUnits="objectBoundingBox"
       spreadMethod="pad">
      <stop
         style="stop-color:#ffffff;stop-opacity:1;"
         offset="0.00000000"
         id="stop559" />
      <stop
         style="stop-color:#ffffff;stop-opacity:0;"
         offset="1.00000000"
         id="stop560" />
    </linearGradient>
    <linearGradient
       id="linearGradient561"
       xlink:href="#linearGradient1129"
       x1="-0.01351351"
       y1="-0.00000000"
       x2="0.98648649"
       y2="0.98437500" />
    <linearGradient
       x1="0.49351925"
       y1="0.99222833"
       x2="0.49350709"
       y2="0.01562530"
       id="linearGradient563"
       xlink:href="#linearGradient564"
       gradientUnits="objectBoundingBox"
       spreadMethod="pad" />
    <linearGradient
       x1="0.12337894"
       y1="0.99219656"
       x2="0.82467574"
       y2="0.00000038"
       id="linearGradient572"
       xlink:href="#linearGradient569"
       gradientUnits="objectBoundingBox"
       spreadMethod="pad" />
    <linearGradient
       x1="0.03246462"
       y1="0.98445034"
       x2="0.69480515"
       y2="0.24218844"
       id="linearGradient575"
       xlink:href="#linearGradient564"
       gradientUnits="objectBoundingBox"
       spreadMethod="pad" />
    <radialGradient
       cx="0.48876417"
       cy="0.98437452"
       fx="0.48804680"
       fy="0.96095657"
       r="0.79719150"
       id="radialGradient579"
       xlink:href="#linearGradient576"
       gradientUnits="objectBoundingBox"
       spreadMethod="pad" />
    <linearGradient
       x1="0.57826090"
       y1="0.97656250"
       x2="0.29130435"
       y2="0.51562500"
       id="linearGradient583"
       xlink:href="#linearGradient564"
       gradientUnits="objectBoundingBox"
       spreadMethod="pad" />
    <linearGradient
       x1="0.96277922"
       y1="0.00000272"
       x2="0.00531922"
       y2="0.98437500"
       id="linearGradient585"
       xlink:href="#linearGradient558"
       gradientUnits="objectBoundingBox"
       spreadMethod="pad" />
    <radialGradient
       cx="0.14615387"
       cy="0.39062509"
       fx="0.14615387"
       fy="0.39062509"
       r="0.52400964"
       id="radialGradient587"
       xlink:href="#linearGradient558"
       gradientUnits="objectBoundingBox"
       spreadMethod="pad" />
    <radialGradient
       cx="0.13076705"
       cy="0.41407111"
       fx="0.13076705"
       fy="0.41407111"
       r="0.75421256"
       id="radialGradient592"
       xlink:href="#linearGradient558"
       gradientUnits="objectBoundingBox"
       spreadMethod="pad" />
    <linearGradient
       xlink:href="#linearGradient558"
       id="linearGradient1132"
       x1="0.01315789"
       y1="0.01562500"
       x2="0.96052629"
       y2="0.96875000" />
    <linearGradient
       xlink:href="#linearGradient1129"
       id="linearGradient1133"
       x1="0.01515152"
       y1="0.00000000"
       x2="0.97727275"
       y2="1.00000000" />
    <linearGradient
       xlink:href="#linearGradient558"
       id="linearGradient1134"
       x1="0.01094890"
       y1="0.02040816"
       x2="0.98905110"
       y2="0.97959185" />
    <linearGradient
       xlink:href="#linearGradient558"
       id="linearGradient1135"
       x1="-0.00000000"
       y1="0.01562500"
       x2="1.00000000"
       y2="0.99218750" />
    <linearGradient
       xlink:href="#linearGradient920"
       id="linearGradient797"
       x1="0.92361110"
       y1="0.75572520"
       x2="0.090277776"
       y2="0.35877863" />
  </defs>
  <path
     d="M 10.044544 54.871626 C 1.6418008 51.279342 0.39646187 20.679217 2.1313955 7.7816841 C 2.6881654 3.6421438 14.661702 2.3334236 18.476767 2.8522612 C 20.066983 3.0685804 20.039031 10.275579 21.84956 10.246455 C 30.806137 10.102593 42.825125 -0.34038515 49.221338 3.2414468 C 54.716573 6.3187693 58.714486 29.00962 54.150761 35.024047 C 45.655594 46.219681 18.938294 58.673771 10.044544 54.871626 z "
     style="font-size:12;opacity:0.302675;fill-rule:evenodd;stroke-width:18.75;stroke-linecap:round;stroke-linejoin:round;"
     id="path1123" />
  <path
     d="M 10.906626 51.347415 C 3.2914096 48.091826 2.1627826 20.35978 3.735137 8.671102 C 4.239775 4.9195497 15.091029 3.7334932 18.548515 4.2037017 C 19.989684 4.3997455 19.964354 10.931249 21.605186 10.904857 C 29.722284 10.774478 40.61476 1.3102838 46.411471 4.5564101 C 51.391652 7.3453026 55.01485 27.909393 50.878872 33.360101 C 43.179936 43.506396 18.966785 54.793194 10.906626 51.347415 z "
     style="font-size:12;fill:url(#linearGradient1133);fill-rule:evenodd;stroke:#261933;stroke-width:1.875;stroke-linecap:round;stroke-linejoin:round;stroke-dasharray:none;"
     id="path1124" />
  <path
     d="M 11.024125 48.878663 C 6.2301975 45.02877 3.7888526 18.767907 5.9689123 9.6116245 C 6.7279711 6.4235129 17.376401 5.8629452 17.725493 7.0252682 C 14.764395 7.1521328 10.31445 9.9592247 9.6133962 12.903505 C 7.3752781 22.303618 10.365111 46.312742 11.024125 48.878663 z "
     style="font-size:12;opacity:0.7;fill:url(#linearGradient1135);fill-rule:evenodd;stroke:none;stroke-width:1pt;"
     id="path1125" />
  <path
     d="M 23.486123 13.021111 C 34.290367 11.068651 42.305614 4.6233552 44.530427 6.437455 C 45.132502 6.9556629 36.723571 11.675196 31.598221 13.373926 C 29.86554 13.948115 22.969407 13.113492 23.486123 13.021111 z "
     style="font-size:12;opacity:0.699936;fill:url(#linearGradient1134);fill-rule:evenodd;stroke:none;stroke-width:1pt;"
     id="path1126" />
  <path
     d="M 11.54063 51.576346 C 9.4802519 51.246518 8.4368112 28.895031 13.702011 23.778407 C 22.181186 15.53838 43.775944 10.462947 52.773858 12.638588 C 57.298732 13.732796 54.799221 28.725499 50.612477 33.786141 C 41.695983 44.68149 20.024806 52.833284 11.54063 51.576346 z "
     style="font-size:12;fill:url(#linearGradient561);fill-rule:evenodd;stroke:#261933;stroke-width:1.875;stroke-linecap:round;stroke-linejoin:round;stroke-dasharray:none;"
     id="path576"
     sodipodi:nodetypes="ccccc" />
  <path
     d="M 13.14187 47.914621 C 10.389269 42.753829 13.017878 28.190157 15.137114 25.609016 C 24.411281 15.688732 49.056431 14.225387 51.002823 15.146007 C 35.614744 17.438829 28.361716 19.564064 19.369517 28.430582 C 15.372323 33.015694 12.623661 40.837769 13.14187 47.914621 z "
     style="font-size:12;opacity:0.7;fill:url(#linearGradient1132);fill-rule:evenodd;stroke:none;stroke-width:1.25;"
     id="path577"
     sodipodi:nodetypes="ccccc" />
  <path
     d="M 39.167494,21.838401 C 39.167494,27.182927 34.829884,31.520537 29.485360,31.520537 C 24.140758,31.520537 19.803147,27.182927 19.803147,21.838401 C 19.803147,16.493877 24.140758,12.156267 29.485360,12.156267 C 34.829884,12.156267 39.167494,16.493877 39.167494,21.838401 z M 36.768369,21.838401 C 36.768369,25.764042 33.505531,28.950058 29.485360,28.950058 C 25.465111,28.950058 22.202349,25.764042 22.202349,21.838401 C 22.202349,17.912760 25.465111,14.726667 29.485360,14.726667 C 33.505531,14.726667 36.768369,17.912760 36.768369,21.838401 z "
     style="font-size:12;opacity:0.3;fill-rule:evenodd;stroke-width:13.4904;"
     id="path1566" />
  <path
     d="M 38.340850,20.597580 C 38.340850,25.942105 33.726880,30.556076 28.382354,30.556076 C 23.037752,30.556076 18.423782,25.942105 18.423782,20.597580 C 18.423782,15.253055 23.037752,10.639085 28.382354,10.639085 C 33.726880,10.639085 38.340850,15.253055 38.340850,20.597580 z M 35.112647,20.597580 C 35.112647,24.523221 32.402526,27.156517 28.382354,27.156517 C 24.362107,27.156517 21.652065,24.523221 21.652065,20.597580 C 21.652065,16.671939 24.362107,14.038566 28.382354,14.038566 C 32.402526,14.038566 35.112647,16.671939 35.112647,20.597580 z "
     style="font-size:12.000000;fill:url(#linearGradient869);fill-rule:evenodd;stroke:#261933;stroke-width:1.4624062;"
     id="path1525"
     sodipodi:nodetypes="cccccccccs" />
  <path
     d="M 35.066170,29.493751 C 34.869090,29.106171 36.474005,27.336165 36.861413,27.539313 C 38.248922,28.266356 39.501390,30.405872 41.075217,31.502365 C 44.295408,33.745890 48.831932,35.084504 51.243636,37.559713 C 52.018371,38.354785 51.295196,40.874041 50.536448,41.508098 C 49.704544,42.203519 46.783456,43.114920 45.787459,42.330018 C 43.018597,40.148550 41.128474,36.156952 38.655231,33.195709 C 37.554711,31.878110 35.695100,30.731013 35.066170,29.493751 z "
     style="font-size:12;opacity:0.3;fill-rule:evenodd;stroke-width:13.4904;"
     id="path1565"
     sodipodi:nodetypes="ccsccccc" />
  <ellipse
     cx="373.574921"
     cy="328.786621"
     rx="115.024445"
     ry="115.024429"
     transform="matrix(5.593298e-2,0.000000,0.000000,5.461696e-2,7.487123,2.640299)"
     style="font-size:12;fill-rule:evenodd;stroke-width:1pt;fill:url(#linearGradient862);"
     id="path1521" />
  <path
     d="M 34.310838,27.378601 C 34.113758,26.991022 35.620929,25.416505 36.008337,25.619652 C 37.395846,26.346695 38.648321,28.486202 40.222141,29.582705 C 43.442340,31.826221 47.978852,33.164844 50.390564,35.640053 C 51.165298,36.435125 50.246635,38.954380 49.487887,39.588438 C 48.655975,40.283859 46.028128,40.999771 45.032132,40.214869 C 42.263266,38.033401 40.373144,34.041802 37.899901,31.080561 C 36.799380,29.762961 34.939768,28.615864 34.310838,27.378601 z "
     style="font-size:12.000000;fill:url(#linearGradient797);fill-rule:evenodd;stroke:#261933;stroke-width:1.4624062;"
     id="path1531"
     sodipodi:nodetypes="cccccccc" />
  <path
     d="M 20.388913,24.202530 C 19.699515,22.823735 19.010196,18.273824 21.974550,14.757967 C 25.559352,11.517902 29.282051,12.000379 30.798662,12.207222 C 28.385811,12.345117 25.904013,12.000457 22.663947,15.171654 C 19.630645,18.135928 20.457860,22.548024 20.388913,24.202530 z "
     style="font-size:12;opacity:0.7;fill-rule:evenodd;stroke:none;stroke-width:1pt;fill:url(#linearGradient860);"
     id="path1533" />
  <path
     d="M 35.090783,27.241687 C 35.083775,27.196221 35.225132,26.958461 35.298547,27.015037 C 35.967987,27.531326 37.312763,28.917808 37.319258,28.960198 C 37.325326,28.999682 36.015162,27.784042 35.336322,27.260575 C 35.272309,27.211176 35.096424,27.278095 35.090783,27.241687 z "
     style="font-size:12;opacity:0.7;fill-rule:evenodd;stroke:none;stroke-width:1pt;fill:url(#linearGradient861);"
     id="path1538" />
</svg>
