<?xml version="1.0" encoding="UTF-8" standalone="no"?>
<!DOCTYPE svg PUBLIC "-//W3C//DTD SVG 20010904//EN"
"http://www.w3.org/TR/2001/REC-SVG-20010904/DTD/svg10.dtd">
<!-- Created with Inkscape (http://www.inkscape.org/) -->
<svg
   version="1"
   x="0.00000000"
   y="0.00000000"
   width="48pt"
   height="48pt"
   id="svg548"
   sodipodi:version="0.32"
   sodipodi:docname="kde6.svg"
   sodipodi:docbase="/home/tom"
   inkscape:version="0.38"
   xmlns="http://www.w3.org/2000/svg"
   xmlns:inkscape="http://www.inkscape.org/namespaces/inkscape"
   xmlns:sodipodi="http://sodipodi.sourceforge.net/DTD/sodipodi-0.dtd"
   xmlns:xlink="http://www.w3.org/1999/xlink">
  <sodipodi:namedview
     id="base"
     inkscape:zoom="4.9440000"
     inkscape:cx="25.678122"
     inkscape:cy="22.158583"
     inkscape:window-width="1018"
     inkscape:window-height="711"
     inkscape:window-x="0"
     inkscape:window-y="30" />
  <defs
     id="defs550">
    <linearGradient
       x1="0.00000000"
       y1="0.00000000"
       x2="1.00000000"
       y2="0.00000000"
       id="linearGradient920"
       gradientUnits="objectBoundingBox"
       spreadMethod="pad">
      <stop
         style="stop-color:#d9cce6;stop-opacity:1.0000000;"
         offset="0.0000000"
         id="stop921" />
      <stop
         style="stop-color:#ffffff;stop-opacity:1.0000000;"
         offset="1.0000000"
         id="stop922" />
    </linearGradient>
    <linearGradient
       xlink:href="#linearGradient920"
       id="linearGradient869"
       x1="8.1250111e-16"
       y1="-6.6895274e-17"
       x2="1.0000000"
       y2="-6.6895274e-17" />
    <linearGradient
       xlink:href="#linearGradient584"
       id="linearGradient862"
       x1="0.01515152"
       y1="0.00000004"
       x2="0.97727269"
       y2="1.00000012" />
    <linearGradient
       id="linearGradient578">
      <stop
         style="stop-color:#d9cce6;stop-opacity:1;"
         offset="0.00000000"
         id="stop579" />
      <stop
         style="stop-color:#73667f;stop-opacity:1;"
         offset="1.00000000"
         id="stop580" />
    </linearGradient>
    <linearGradient
       xlink:href="#linearGradient584"
       id="linearGradient860"
       x1="0.01724138"
       y1="0.01562503"
       x2="0.97413802"
       y2="0.98437494" />
    <linearGradient
       id="linearGradient584">
      <stop
         style="stop-color:#ffffff;stop-opacity:1;"
         offset="0.00000000"
         id="stop585" />
      <stop
         style="stop-color:#ffffff;stop-opacity:0;"
         offset="1.00000000"
         id="stop586" />
    </linearGradient>
    <linearGradient
       xlink:href="#linearGradient584"
       id="linearGradient861"
       x1="-0.00000059"
       y1="0.01562460"
       x2="0.99315012"
       y2="0.97656339" />
    <linearGradient
       x1="0.00000000"
       y1="0.00000000"
       x2="1.00000000"
       y2="0.00000000"
       id="linearGradient1129"
       gradientUnits="objectBoundingBox"
       spreadMethod="pad">
      <stop
         style="stop-color:#d9cce6;stop-opacity:1;"
         offset="0.00000000"
         id="stop1130" />
      <stop
         style="stop-color:#73667f;stop-opacity:1;"
         offset="1.00000000"
         id="stop1131" />
    </linearGradient>
    <linearGradient
       x1="0.00000000"
       y1="0.00000000"
       x2="1.00000000"
       y2="0.00000000"
       id="linearGradient588"
       gradientUnits="objectBoundingBox"
       spreadMethod="pad">
      <stop
         style="stop-color:#a673f3;stop-opacity:1;"
         offset="0.00000000"
         id="stop589" />
      <stop
         style="stop-color:#4c3f8c;stop-opacity:1;"
         offset="1.00000000"
         id="stop590" />
    </linearGradient>
    <linearGradient
       x1="0.00000000"
       y1="0.00000000"
       x2="1.00000000"
       y2="0.00000000"
       id="linearGradient576"
       gradientUnits="objectBoundingBox"
       spreadMethod="pad">
      <stop
         style="stop-color:#000000;stop-opacity:1;"
         offset="0.00000000"
         id="stop577" />
      <stop
         style="stop-color:#000000;stop-opacity:0;"
         offset="1.00000000"
         id="stop578" />
    </linearGradient>
    <linearGradient
       x1="0.00000000"
       y1="0.00000000"
       x2="1.00000000"
       y2="0.00000000"
       id="linearGradient569"
       gradientUnits="objectBoundingBox"
       spreadMethod="pad">
      <stop
         style="stop-color:#736b7f;stop-opacity:1;"
         offset="0.00000000"
         id="stop570" />
      <stop
         style="stop-color:#f3ebff;stop-opacity:1;"
         offset="1.00000000"
         id="stop571" />
    </linearGradient>
    <linearGradient
       x1="0.00000000"
       y1="0.00000000"
       x2="1.00000000"
       y2="0.00000000"
       id="linearGradient564"
       gradientUnits="objectBoundingBox"
       spreadMethod="pad">
      <stop
         style="stop-color:#7f7366;stop-opacity:1;"
         offset="0.00000000"
         id="stop565" />
      <stop
         style="stop-color:#7f7366;stop-opacity:0;"
         offset="1.00000000"
         id="stop566" />
    </linearGradient>
    <linearGradient
       x1="0.00000000"
       y1="0.00000000"
       x2="1.00000000"
       y2="0.00000000"
       id="linearGradient558"
       gradientUnits="objectBoundingBox"
       spreadMethod="pad">
      <stop
         style="stop-color:#ffffff;stop-opacity:1;"
         offset="0.00000000"
         id="stop559" />
      <stop
         style="stop-color:#ffffff;stop-opacity:0;"
         offset="1.00000000"
         id="stop560" />
    </linearGradient>
    <linearGradient
       id="linearGradient561"
       xlink:href="#linearGradient1129"
       x1="-0.01351351"
       y1="-0.00000000"
       x2="0.98648649"
       y2="0.98437500" />
    <linearGradient
       x1="0.49351925"
       y1="0.99222833"
       x2="0.49350709"
       y2="0.01562530"
       id="linearGradient563"
       xlink:href="#linearGradient564"
       gradientUnits="objectBoundingBox"
       spreadMethod="pad" />
    <linearGradient
       x1="0.12337894"
       y1="0.99219656"
       x2="0.82467574"
       y2="0.00000038"
       id="linearGradient572"
       xlink:href="#linearGradient569"
       gradientUnits="objectBoundingBox"
       spreadMethod="pad" />
    <linearGradient
       x1="0.03246462"
       y1="0.98445034"
       x2="0.69480515"
       y2="0.24218844"
       id="linearGradient575"
       xlink:href="#linearGradient564"
       gradientUnits="objectBoundingBox"
       spreadMethod="pad" />
    <radialGradient
       cx="0.48876417"
       cy="0.98437452"
       fx="0.48804680"
       fy="0.96095657"
       r="0.79719150"
       id="radialGradient579"
       xlink:href="#linearGradient576"
       gradientUnits="objectBoundingBox"
       spreadMethod="pad" />
    <linearGradient
       x1="0.57826090"
       y1="0.97656250"
       x2="0.29130435"
       y2="0.51562500"
       id="linearGradient583"
       xlink:href="#linearGradient564"
       gradientUnits="objectBoundingBox"
       spreadMethod="pad" />
    <linearGradient
       x1="0.96277922"
       y1="0.00000272"
       x2="0.00531922"
       y2="0.98437500"
       id="linearGradient585"
       xlink:href="#linearGradient558"
       gradientUnits="objectBoundingBox"
       spreadMethod="pad" />
    <radialGradient
       cx="0.14615387"
       cy="0.39062509"
       fx="0.14615387"
       fy="0.39062509"
       r="0.52400964"
       id="radialGradient587"
       xlink:href="#linearGradient558"
       gradientUnits="objectBoundingBox"
       spreadMethod="pad" />
    <radialGradient
       cx="0.13076705"
       cy="0.41407111"
       fx="0.13076705"
       fy="0.41407111"
       r="0.75421256"
       id="radialGradient592"
       xlink:href="#linearGradient558"
       gradientUnits="objectBoundingBox"
       spreadMethod="pad" />
    <linearGradient
       xlink:href="#linearGradient558"
       id="linearGradient1132"
       x1="0.01315789"
       y1="0.01562500"
       x2="0.96052629"
       y2="0.96875000" />
    <linearGradient
       xlink:href="#linearGradient1129"
       id="linearGradient1133"
       x1="0.01515152"
       y1="0.00000000"
       x2="0.97727275"
       y2="1.00000000" />
    <linearGradient
       xlink:href="#linearGradient558"
       id="linearGradient1134"
       x1="0.01094890"
       y1="0.02040816"
       x2="0.98905110"
       y2="0.97959185" />
    <linearGradient
       xlink:href="#linearGradient558"
       id="linearGradient1135"
       x1="-0.00000000"
       y1="0.01562500"
       x2="1.00000000"
       y2="0.99218750" />
    <linearGradient
       xlink:href="#linearGradient920"
       id="linearGradient797"
       x1="0.92361110"
       y1="0.75572520"
       x2="0.090277776"
       y2="0.35877863" />
  </defs>
  <path
     d="M 10.044544 54.871626 C 1.6418008 51.279342 0.39646187 20.679217 2.1313955 7.7816841 C 2.6881654 3.6421438 14.661702 2.3334236 18.476767 2.8522612 C 20.066983 3.0685804 20.039031 10.275579 21.84956 10.246455 C 30.806137 10.102593 42.825125 -0.34038515 49.221338 3.2414468 C 54.716573 6.3187693 58.714486 29.00962 54.150761 35.024047 C 45.655594 46.219681 18.938294 58.673771 10.044544 54.871626 z "
     style="font-size:12;opacity:0.302675;fill-rule:evenodd;stroke-width:18.75;stroke-linecap:round;stroke-linejoin:round;"
     id="path1123" />
  <path
     d="M 10.906626 51.347415 C 3.2914096 48.091826 2.1627826 20.35978 3.735137 8.671102 C 4.239775 4.9195497 15.091029 3.7334932 18.548515 4.2037017 C 19.989684 4.3997455 19.964354 10.931249 21.605186 10.904857 C 29.722284 10.774478 40.61476 1.3102838 46.411471 4.5564101 C 51.391652 7.3453026 55.01485 27.909393 50.878872 33.360101 C 43.179936 43.506396 18.966785 54.793194 10.906626 51.347415 z "
     style="font-size:12;fill:url(#linearGradient1133);fill-rule:evenodd;stroke:#261933;stroke-width:1.875;stroke-linecap:round;stroke-linejoin:round;stroke-dasharray:none;"
     id="path1124" />
  <path
     d="M 11.024125 48.878663 C 6.2301975 45.02877 3.7888526 18.767907 5.9689123 9.6116245 C 6.7279711 6.4235129 17.376401 5.8629452 17.725493 7.0252682 C 14.764395 7.1521328 10.31445 9.9592247 9.6133962 12.903505 C 7.3752781 22.303618 10.365111 46.312742 11.024125 48.878663 z "
     style="font-size:12;opacity:0.7;fill:url(#linearGradient1135);fill-rule:evenodd;stroke:none;stroke-width:1pt;"
     id="path1125" />
  <path
     d="M 23.486123 13.021111 C 34.290367 11.068651 42.305614 4.6233552 44.530427 6.437455 C 45.132502 6.9556629 36.723571 11.675196 31.598221 13.373926 C 29.86554 13.948115 22.969407 13.113492 23.486123 13.021111 z "
     style="font-size:12;opacity:0.699936;fill:url(#linearGradient1134);fill-rule:evenodd;stroke:none;stroke-width:1pt;"
     id="path1126" />
  <path
     d="M 11.54063 51.576346 C 9.4802519 51.246518 8.4368112 28.895031 13.702011 23.778407 C 22.181186 15.53838 43.775944 10.462947 52.773858 12.638588 C 57.298732 13.732796 54.799221 28.725499 50.612477 33.786141 C 41.695983 44.68149 20.024806 52.833284 11.54063 51.576346 z "
     style="font-size:12;fill:url(#linearGradient561);fill-rule:evenodd;stroke:#261933;stroke-width:1.875;stroke-linecap:round;stroke-linejoin:round;stroke-dasharray:none;"
     id="path576"
     sodipodi:nodetypes="ccccc" />
  <path
     d="M 13.14187 47.914621 C 10.389269 42.753829 13.017878 28.190157 15.137114 25.609016 C 24.411281 15.688732 49.056431 14.225387 51.002823 15.146007 C 35.614744 17.438829 28.361716 19.564064 19.369517 28.430582 C 15.372323 33.015694 12.623661 40.837769 13.14187 47.914621 z "
     style="font-size:12;opacity:0.7;fill:url(#linearGradient1132);fill-rule:evenodd;stroke:none;stroke-width:1.25;"
     id="path577"
     sodipodi:nodetypes="ccccc" />
  <path
     d="M 35.624187,39.554936 C 35.624187,44.899462 31.286577,49.237072 25.942053,49.237072 C 20.597451,49.237072 16.259840,44.899462 16.259840,39.554936 C 16.259840,34.210412 20.597451,29.872802 25.942053,29.872802 C 31.286577,29.872802 35.624187,34.210412 35.624187,39.554936 z M 33.225062,39.554936 C 33.225062,43.480577 29.962224,46.666593 25.942053,46.666593 C 21.921804,46.666593 18.659042,43.480577 18.659042,39.554936 C 18.659042,35.629295 21.921804,32.443202 25.942053,32.443202 C 29.962224,32.443202 33.225062,35.629295 33.225062,39.554936 z "
     style="font-size:12;opacity:0.3;fill-rule:evenodd;stroke-width:13.4904;"
     id="path1566" />
  <path
     d="M 34.797543,38.314115 C 34.797543,43.658640 30.183573,48.272611 24.839047,48.272611 C 19.494445,48.272611 14.880475,43.658640 14.880475,38.314115 C 14.880475,32.969590 19.494445,28.355620 24.839047,28.355620 C 30.183573,28.355620 34.797543,32.969590 34.797543,38.314115 z M 31.569340,38.314115 C 31.569340,42.239756 28.859219,44.873052 24.839047,44.873052 C 20.818800,44.873052 18.108758,42.239756 18.108758,38.314115 C 18.108758,34.388474 20.818800,31.755101 24.839047,31.755101 C 28.859219,31.755101 31.569340,34.388474 31.569340,38.314115 z "
     style="font-size:12.000000;fill:url(#linearGradient869);fill-rule:evenodd;stroke:#261933;stroke-width:1.4624062;"
     id="path1525"
     sodipodi:nodetypes="cccccccccs" />
  <path
     d="M 31.522863,47.210286 C 31.325783,46.822706 32.930698,45.052700 33.318106,45.255848 C 34.705615,45.982891 35.958083,48.122407 37.531910,49.218900 C 40.752101,51.462425 45.288625,52.801039 47.700329,55.276248 C 48.475064,56.071320 47.751889,58.590576 46.993141,59.224633 C 46.161237,59.920054 43.240149,60.831455 42.244152,60.046553 C 39.475290,57.865085 37.585167,53.873487 35.111924,50.912244 C 34.011404,49.594645 32.151793,48.447548 31.522863,47.210286 z "
     style="font-size:12;opacity:0.3;fill-rule:evenodd;stroke-width:13.4904;"
     id="path1565"
     sodipodi:nodetypes="ccsccccc" />
  <ellipse
     cx="373.574921"
     cy="328.786621"
     rx="115.024445"
     ry="115.024429"
     transform="matrix(5.593298e-2,0.000000,0.000000,5.461696e-2,3.943816,20.35684)"
     style="font-size:12;fill-rule:evenodd;stroke-width:1pt;fill:url(#linearGradient862);"
     id="path1521" />
  <path
     d="M 30.767531,45.095136 C 30.570451,44.707557 32.077622,43.133040 32.465030,43.336187 C 33.852539,44.063230 35.105014,46.202737 36.678834,47.299240 C 39.899033,49.542756 44.435545,50.881379 46.847257,53.356588 C 47.621991,54.151660 46.703328,56.670915 45.944580,57.304973 C 45.112668,58.000394 42.484821,58.716306 41.488825,57.931404 C 38.719959,55.749936 36.829837,51.758337 34.356594,48.797096 C 33.256073,47.479496 31.396461,46.332399 30.767531,45.095136 z "
     style="font-size:12.000000;fill:url(#linearGradient797);fill-rule:evenodd;stroke:#261933;stroke-width:1.4624062;"
     id="path1531"
     sodipodi:nodetypes="cccccccc" />
  <path
     d="M 16.845606,41.919065 C 16.156208,40.540270 15.466889,35.990359 18.431243,32.474502 C 22.016045,29.234437 25.738744,29.716914 27.255355,29.923757 C 24.842504,30.061652 22.360706,29.716992 19.120640,32.888189 C 16.087338,35.852463 16.914553,40.264559 16.845606,41.919065 z "
     style="font-size:12;opacity:0.7;fill-rule:evenodd;stroke:none;stroke-width:1pt;fill:url(#linearGradient860);"
     id="path1533" />
  <path
     d="M 31.547476,44.958222 C 31.540468,44.912756 31.681825,44.674996 31.755240,44.731572 C 32.424680,45.247861 33.769456,46.634343 33.775951,46.676733 C 33.782019,46.716217 32.471855,45.500577 31.793015,44.977110 C 31.729002,44.927711 31.553117,44.994630 31.547476,44.958222 z "
     style="font-size:12;opacity:0.7;fill-rule:evenodd;stroke:none;stroke-width:1pt;fill:url(#linearGradient861);"
     id="path1538" />
</svg>
