<?xml version="1.0" encoding="UTF-8" standalone="no"?>
<!DOCTYPE svg PUBLIC "-//W3C//DTD SVG 20010904//EN"
"http://www.w3.org/TR/2001/REC-SVG-20010904/DTD/svg10.dtd">
<!-- Created with Inkscape (http://www.inkscape.org/) -->
<svg
   id="svg1"
   sodipodi:version="0.32"
   inkscape:version="0.37"
   width="48pt"
   height="48pt"
   sodipodi:docbase="/home/tom/Pics/lilasvg/scalable/actions"
   sodipodi:docname="key_enter.svg"
   xmlns="http://www.w3.org/2000/svg"
   xmlns:inkscape="http://www.inkscape.org/namespaces/inkscape"
   xmlns:sodipodi="http://sodipodi.sourceforge.net/DTD/sodipodi-0.dtd"
   xmlns:xlink="http://www.w3.org/1999/xlink">
  <defs
     id="defs3">
    <linearGradient
       id="linearGradient584">
      <stop
         style="stop-color:#ffffff;stop-opacity:1;"
         offset="0.00000000"
         id="stop585" />
      <stop
         style="stop-color:#ffffff;stop-opacity:0;"
         offset="1.00000000"
         id="stop586" />
    </linearGradient>
    <linearGradient
       id="linearGradient578">
      <stop
         style="stop-color:#d9cce6;stop-opacity:1;"
         offset="0.00000000"
         id="stop579" />
      <stop
         style="stop-color:#73667f;stop-opacity:1;"
         offset="1.00000000"
         id="stop580" />
    </linearGradient>
    <linearGradient
       xlink:href="#linearGradient578"
       id="linearGradient581"
       x1="0.04000000"
       y1="0.00781250"
       x2="0.98000002"
       y2="0.98437500" />
    <linearGradient
       xlink:href="#linearGradient584"
       id="linearGradient583"
       x1="0.02777778"
       y1="-0.00000000"
       x2="1.00925922"
       y2="0.98449612" />
    <linearGradient
       xlink:href="#linearGradient584"
       id="linearGradient744"
       x1="-0.00833333"
       y1="0.00781250"
       x2="0.99166667"
       y2="0.97656250" />
    <linearGradient
       xlink:href="#linearGradient584"
       id="linearGradient746"
       x1="0.01219512"
       y1="0.02343750"
       x2="0.97560978"
       y2="0.96875000" />
  </defs>
  <sodipodi:namedview
     id="base"
     pagecolor="#ffffff"
     bordercolor="#666666"
     borderopacity="1.0"
     inkscape:pageopacity="0.0"
     inkscape:pageshadow="2"
     inkscape:zoom="2"
     inkscape:cx="26.0349274"
     inkscape:cy="23.9614487"
     inkscape:window-width="640"
     inkscape:window-height="516"
     inkscape:window-x="183"
     inkscape:window-y="132">
    <sodipodi:guide
       orientation="horizontal"
       position="-3.00771781"
       id="guide588" />
  </sodipodi:namedview>
  <path
     style="fill:#000000;fill-rule:evenodd;stroke:none;stroke-opacity:1;stroke-width:18.75;stroke-linejoin:miter;stroke-linecap:butt;fill-opacity:1;stroke-dasharray:none;opacity:0.296369;"
     d="M 42.06834 1.3665386 C 48.863797 0.51975368 52.282925 10.783487 50.631514 25.709362 C 48.21347 41.743278 26.816018 45.15527 26.454147 46.296027 C 24.422217 48.98535 27.778856 60.156861 25.975395 59.222537 C 21.156011 56.72575 6.7856971 40.444325 6.5856218 36.960213 C 6.6261119 33.50231 21.841536 17.04907 26.454147 14.93727 C 28.464371 14.016924 25.899622 27.909617 26.693534 28.342537 C 27.97425 29.026725 39.0008 31.629817 41.499862 24.69902 C 43.204403 20.185412 43.733607 6.8706124 42.06834 1.3665386 z "
     id="path739"
     sodipodi:nodetypes="cccccccsc" />
  <path
     style="font-size:12;fill:url(#linearGradient581);fill-rule:evenodd;stroke:#261933;stroke-width:1.87744;"
     d="M 44.967948 2.7073753 C 52.215642 2.5870081 55.478358 15.67698 54.021595 28.843544 C 51.888565 42.987545 28.313672 44.430848 27.994451 45.437142 C 26.20203 47.809475 29.16302 57.664204 27.572127 56.840009 C 23.320807 54.637518 10.644323 40.275181 10.467825 37.20174 C 10.503544 34.151421 23.925525 19.63752 27.994451 17.774636 C 29.767737 16.962774 27.505297 29.217937 28.205616 29.59983 C 29.335381 30.203369 41.587724 32.094604 44.621345 25.151613 C 46.247586 21.218513 44.758439 7.3970981 44.967948 2.7073753 z "
     id="path735"
     sodipodi:nodetypes="cccccccsc" />
  <path
     style="font-size:12;opacity:0.201783;fill-rule:evenodd;stroke:none;stroke-width:0.96523pt;"
     d="M 42.598083 1.4679297 C 42.149393 9.5847169 42.280682 18.973323 40.875471 23.264904 C 39.676321 26.927174 30.102844 31.372307 27.783289 30.444486 C 25.879565 29.682994 30.05409 17.512345 28.205626 18.196966 C 24.352656 19.623985 7.9824714 36.658888 10.678989 36.779411 C 28.527797 37.778899 41.31317 34.413696 43.620603 27.48819 C 47.583877 15.955576 46.260984 2.1193671 42.598083 1.4679297 z "
     id="path737"
     sodipodi:nodetypes="csssssc" />
  <path
     style="fill:url(#linearGradient583);fill-rule:evenodd;stroke:none;stroke-opacity:1;stroke-width:1pt;stroke-linejoin:miter;stroke-linecap:butt;fill-opacity:1;"
     d="M 12.686358 36.905131 C 12.77825 37.732158 22.135328 49.639261 25.485889 52.716302 C 26.234523 53.403826 25.89688 49.326566 24.98394 48.198825 C 21.630372 44.056175 12.610939 36.226331 12.686358 36.905131 z "
     id="path941"
     sodipodi:nodetypes="csss" />
</svg>
