<?xml version="1.0" encoding="UTF-8" standalone="no"?>
<!DOCTYPE svg PUBLIC "-//W3C//DTD SVG 20010904//EN"
"http://www.w3.org/TR/2001/REC-SVG-20010904/DTD/svg10.dtd">
<!-- Created with Inkscape (http://www.inkscape.org/) -->
<svg
   id="svg1"
   sodipodi:version="0.32"
   inkscape:version="0.40"
   width="48pt"
   height="48pt"
   sodipodi:docbase="/home/stefan/software/Lila-themes/new-lila-icons"
   sodipodi:docname="palm-pilot-sync2.svg"
   xmlns="http://www.w3.org/2000/svg"
   xmlns:cc="http://web.resource.org/cc/"
   xmlns:inkscape="http://www.inkscape.org/namespaces/inkscape"
   xmlns:sodipodi="http://sodipodi.sourceforge.net/DTD/sodipodi-0.dtd"
   xmlns:rdf="http://www.w3.org/1999/02/22-rdf-syntax-ns#"
   xmlns:dc="http://purl.org/dc/elements/1.1/"
   xmlns:xlink="http://www.w3.org/1999/xlink">
  <metadata
     id="metadata27">
    <rdf:RDF
       id="RDF28">
      <cc:Work
         rdf:about=""
         id="Work29">
        <dc:format
           id="format30">image/svg+xml</dc:format>
        <dc:type
           id="type32"
           rdf:resource="http://purl.org/dc/dcmitype/StillImage" />
      </cc:Work>
    </rdf:RDF>
  </metadata>
  <defs
     id="defs3">
    <linearGradient
       id="linearGradient5533">
      <stop
         offset="0.0000000"
         style="stop-color:#ffffff;stop-opacity:1.0000000;"
         id="stop5535" />
      <stop
         offset="1.0000000"
         style="stop-color:#ffffff;stop-opacity:0.0000000;"
         id="stop5534" />
    </linearGradient>
    <linearGradient
       id="linearGradient4884">
      <stop
         offset="0.0000000"
         style="stop-color:#d9cce6;stop-opacity:1.0000000;"
         id="stop4886" />
      <stop
         offset="1.0000000"
         style="stop-color:#73667f;stop-opacity:1.0000000;"
         id="stop4885" />
    </linearGradient>
    <linearGradient
       id="linearGradient3635">
      <stop
         offset="0.0000000"
         style="stop-color:#ffffff;stop-opacity:1.0000000;"
         id="stop3637" />
      <stop
         offset="1.0000000"
         style="stop-color:#d9cce6;stop-opacity:1.0000000;"
         id="stop3636" />
    </linearGradient>
    <linearGradient
       id="linearGradient584">
      <stop
         style="stop-color:#ffffff;stop-opacity:1.0000000;"
         offset="0.0000000"
         id="stop585" />
      <stop
         style="stop-color:#ffffff;stop-opacity:0.0000000;"
         offset="1.0000000"
         id="stop586" />
    </linearGradient>
    <linearGradient
       xlink:href="#linearGradient584"
       id="linearGradient861"
       x1="7.4265384"
       y1="8.7259662"
       x2="45.251406"
       y2="46.929084"
       gradientTransform="matrix(1.113968,0.000000,0.000000,1.035753,-3.443979,-4.072672)"
       gradientUnits="userSpaceOnUse" />
    <radialGradient
       xlink:href="#linearGradient4884"
       id="radialGradient595"
       cx="21.490238"
       cy="22.865087"
       r="34.705611"
       fx="21.088794"
       fy="22.457373"
       gradientUnits="userSpaceOnUse"
       gradientTransform="matrix(1.074149,0.000000,0.000000,1.074149,-3.443979,-4.072672)" />
    <linearGradient
       inkscape:collect="always"
       xlink:href="#linearGradient5533"
       id="linearGradient3608"
       gradientUnits="userSpaceOnUse"
       gradientTransform="matrix(1.764892,0.000000,0.000000,0.566607,20.49730,21.85374)"
       x1="-5.3388405"
       y1="37.674553"
       x2="33.237923"
       y2="1.1146827" />
    <defs
       id="defs3575">
      <linearGradient
         id="linearGradient3414"
         x1="0.0000000"
         y1="0.50000000"
         x2="1.0000000"
         y2="0.50000000"
         gradientUnits="objectBoundingBox"
         spreadMethod="pad"
         xlink:href="#linearGradient5533" />
      <linearGradient
         id="linearGradient3397"
         x1="0.0000000"
         y1="0.50000000"
         x2="1.0000000"
         y2="0.50000000"
         gradientUnits="objectBoundingBox"
         spreadMethod="pad"
         xlink:href="#linearGradient3635" />
      <linearGradient
         id="linearGradient3392"
         x1="0.0000000"
         y1="0.50000000"
         x2="1.0000000"
         y2="0.50000000"
         gradientUnits="objectBoundingBox"
         spreadMethod="pad"
         xlink:href="#linearGradient4884" />
      <linearGradient
         inkscape:collect="always"
         xlink:href="#linearGradient3392"
         id="linearGradient3395"
         gradientTransform="scale(1.105293,0.904737)"
         x1="9.9828625"
         y1="11.063726"
         x2="38.205387"
         y2="46.586163"
         gradientUnits="userSpaceOnUse" />
    </defs>
    <radialGradient
       inkscape:collect="always"
       xlink:href="#linearGradient3635"
       id="radialGradient4883"
       gradientTransform="matrix(1.062733,0.000000,0.000000,1.085688,-3.443979,-4.072672)"
       cx="25.471415"
       cy="27.664686"
       fx="25.471415"
       fy="27.664686"
       r="28.471544"
       gradientUnits="userSpaceOnUse" />
    <linearGradient
       inkscape:collect="always"
       xlink:href="#linearGradient584"
       id="linearGradient5560"
       gradientUnits="userSpaceOnUse"
       gradientTransform="matrix(1.431497,0.000000,0.000000,0.806006,-3.767761,-5.367799)"
       x1="10.570802"
       y1="20.091782"
       x2="27.755575"
       y2="45.593033" />
    <linearGradient
       inkscape:collect="always"
       xlink:href="#linearGradient584"
       id="linearGradient5611"
       gradientUnits="userSpaceOnUse"
       gradientTransform="matrix(0.495782,0.000000,0.000000,0.533156,7.934133,18.09676)"
       x1="27.812448"
       y1="27.668201"
       x2="38.963023"
       y2="38.470320" />
    <linearGradient
       inkscape:collect="always"
       xlink:href="#linearGradient584"
       id="linearGradient1717"
       gradientUnits="userSpaceOnUse"
       gradientTransform="matrix(0.461558,0.000000,0.000000,0.496352,20.81817,52.93051)"
       x1="27.812448"
       y1="27.668201"
       x2="38.963023"
       y2="38.470320" />
    <linearGradient
       inkscape:collect="always"
       xlink:href="#linearGradient584"
       id="linearGradient1718"
       gradientUnits="userSpaceOnUse"
       gradientTransform="matrix(1.332681,0.000000,0.000000,0.750367,9.924061,31.08573)"
       x1="10.570802"
       y1="20.091782"
       x2="27.755575"
       y2="45.593033" />
    <linearGradient
       inkscape:collect="always"
       xlink:href="#linearGradient5533"
       id="linearGradient1719"
       gradientUnits="userSpaceOnUse"
       gradientTransform="matrix(1.764892,0.000000,0.000000,0.566607,61.46875,13.90416)"
       x1="-5.3388405"
       y1="37.674553"
       x2="33.237923"
       y2="1.1146827" />
    <linearGradient
       inkscape:collect="always"
       xlink:href="#linearGradient584"
       id="linearGradient1720"
       x1="7.4265384"
       y1="8.7259662"
       x2="45.251406"
       y2="46.929084"
       gradientTransform="matrix(1.037071,0.000000,0.000000,0.964255,10.22549,32.29145)"
       gradientUnits="userSpaceOnUse" />
    <radialGradient
       inkscape:collect="always"
       xlink:href="#linearGradient3635"
       id="radialGradient1721"
       gradientUnits="userSpaceOnUse"
       gradientTransform="matrix(0.989372,0.000000,0.000000,1.010742,10.22549,32.29145)"
       cx="25.471415"
       cy="27.664686"
       fx="25.471415"
       fy="27.664686"
       r="28.471544" />
    <radialGradient
       inkscape:collect="always"
       xlink:href="#linearGradient4884"
       id="radialGradient1722"
       cx="21.469329"
       cy="22.844864"
       fx="21.066890"
       fy="22.436138"
       r="34.791685"
       gradientUnits="userSpaceOnUse"
       gradientTransform="translate(10.22549,32.29145)" />
  </defs>
  <sodipodi:namedview
     id="base"
     pagecolor="#ffffff"
     bordercolor="#666666"
     borderopacity="1.0"
     inkscape:pageopacity="0.0"
     inkscape:pageshadow="2"
     inkscape:zoom="8.2937733"
     inkscape:cx="23.006254"
     inkscape:cy="24.143310"
     inkscape:window-width="1142"
     inkscape:window-height="748"
     inkscape:window-x="0"
     inkscape:window-y="30"
     inkscape:current-layer="svg1" />
  <path
     style="font-size:12.000000;opacity:0.29999998;fill:#000000;fill-opacity:1.0000000;fill-rule:evenodd;stroke:none;stroke-width:1.8750000;stroke-opacity:1.0000000"
     d="M 32.404715,5.1150765 C 17.450445,5.1150765 5.3160313,17.249494 5.3160313,32.203762 C 5.3160313,45.403448 14.766070,56.388320 27.268942,58.788940 C 28.341699,58.997918 29.428161,59.047216 30.524955,59.091044 C 31.156573,59.135149 31.761946,59.292447 32.404715,59.292447 C 32.646946,59.292447 32.868912,59.231642 33.109625,59.225313 C 33.120981,59.225014 33.131839,59.225625 33.143192,59.225313 C 33.165690,59.223762 33.187840,59.226924 33.210326,59.225313 C 43.420324,58.918848 52.120961,52.947039 56.472357,44.355068 C 56.548802,44.212201 56.666969,44.096492 56.740894,43.952262 C 56.796244,43.840442 56.821540,43.728477 56.875163,43.616591 C 57.218242,42.882975 57.504022,42.135165 57.781476,41.367592 C 58.197840,40.266802 58.524109,39.170783 58.788490,38.078012 C 58.838650,37.851611 58.911876,37.635154 58.956326,37.406669 C 60.570756,29.905689 58.700609,23.021745 55.465343,18.206262 C 55.022192,17.478113 54.563283,16.772530 54.055523,16.091532 C 53.903444,15.919344 53.808754,15.650257 53.652717,15.487324 C 53.506098,15.243724 53.471296,15.299233 53.451314,15.353055 C 48.485185,9.1568427 40.957260,5.1150765 32.404715,5.1150765 z "
     id="path1711"
     sodipodi:nodetypes="ccccccccccccccccccc" />
  <path
     style="font-size:12.000000;fill:url(#radialGradient595);fill-opacity:1.0000000;fill-rule:evenodd;stroke:#261933;stroke-width:1.8750007;stroke-opacity:1.0000000"
     d="M 55.786201,29.246769 C 55.786201,44.201044 43.649399,56.337846 28.695124,56.337846 C 13.740850,56.337846 1.6040504,44.201044 1.6040504,29.246769 C 1.6040504,14.292495 13.740850,2.1556935 28.695124,2.1556935 C 43.649399,2.1556935 55.786201,14.292495 55.786201,29.246769 z "
     id="path594" />
  <path
     style="fill:url(#radialGradient4883);fill-opacity:1.0000000;fill-rule:evenodd;stroke:#261933;stroke-width:1.8750007;stroke-linecap:butt;stroke-linejoin:round;stroke-miterlimit:4.0000000;stroke-opacity:1.0000000"
     d="M 29.799395,7.2632402 C 28.794781,6.7427774 30.207571,11.998339 29.698694,14.446611 C 24.897104,14.924308 21.656085,16.554190 18.453697,19.045311 C 13.523357,23.072626 9.3006289,29.240515 8.8416032,35.838677 C 8.4935456,41.511311 11.119439,47.498551 15.176005,51.603350 C 20.038693,56.626935 28.124538,57.162809 34.398096,55.406227 C 42.009057,54.104837 49.210073,48.452561 53.025765,41.008019 C 58.560736,29.826003 55.431160,18.279248 49.941791,12.547275 C 48.406599,9.9966475 54.728103,24.889584 49.748074,33.354707 C 46.229985,39.334806 40.120176,43.165167 31.947693,45.361962 C 30.282324,46.274934 32.647092,51.371794 30.940679,51.169080 C 28.134381,49.060797 18.486420,40.635291 18.957204,37.574381 L 29.329455,26.765757 C 29.830424,27.038940 28.228796,35.805436 29.497291,35.224680 C 32.407951,33.892089 41.992291,23.509887 42.017840,21.327878 C 41.891588,19.129329 32.840527,8.8387665 29.799395,7.2632402 z "
     id="path1708"
     sodipodi:nodetypes="ccccccccsccccccc" />
  <path
     style="fill:url(#linearGradient861);fill-opacity:1.0000000;fill-rule:evenodd;stroke:none;stroke-width:1.0000000pt;stroke-linecap:butt;stroke-linejoin:miter;stroke-opacity:1.0000000"
     d="M 8.5030161,44.222565 C 5.1461229,39.709246 -0.25658090,19.219972 15.570248,8.7181239 C 31.116778,-1.7093856 46.209371,11.114104 47.372805,13.261345 C 47.888344,14.287390 33.201257,3.8221860 18.430795,13.934415 C 2.3793167,25.091931 9.2024909,45.118114 8.5030161,44.222565 z "
     id="path602"
     sodipodi:nodetypes="cssss" />
  <path
     style="fill:url(#linearGradient5560);fill-opacity:1.0000000;fill-rule:evenodd;stroke:none;stroke-width:1.0000000pt;stroke-linecap:butt;stroke-linejoin:miter;stroke-opacity:1.0000000"
     d="M 10.097749,34.962998 C 9.9185255,34.738969 10.454078,28.653937 15.883922,23.495869 C 20.906920,18.803854 24.526889,16.779111 30.329875,15.695202 C 32.241995,15.338046 30.510647,10.947618 31.053592,10.078906 C 31.378827,9.5585292 33.949992,12.168081 34.179045,12.683446 C 34.297265,12.949444 32.269854,11.949501 32.095410,12.422993 C 31.662127,13.599045 33.542082,16.334122 32.032082,16.660732 C 25.654607,18.040168 22.605076,19.787681 16.925739,24.798141 C 10.961446,30.070840 10.265798,35.173059 10.097749,34.962998 z "
     id="path742"
     sodipodi:nodetypes="cssssssss" />
  <path
     style="fill:url(#linearGradient5611);fill-opacity:1.0000000;fill-rule:evenodd;stroke:none;stroke-width:1.0000000pt;stroke-linecap:butt;stroke-linejoin:miter;stroke-opacity:1.0000000"
     d="M 21.769240,38.734333 C 21.800946,38.464836 25.688253,34.063986 27.146412,32.828260 C 27.421879,32.594814 27.294935,33.970043 26.970111,34.326814 C 25.502544,35.938735 21.742179,38.964354 21.769240,38.734333 z "
     id="path743"
     sodipodi:nodetypes="csss" />
</svg>
