<?xml version="1.0" encoding="UTF-8" standalone="no"?>
<!-- Created with Inkscape (http://www.inkscape.org/) -->
<svg
   xmlns:dc="http://purl.org/dc/elements/1.1/"
   xmlns:cc="http://web.resource.org/cc/"
   xmlns:rdf="http://www.w3.org/1999/02/22-rdf-syntax-ns#"
   xmlns:svg="http://www.w3.org/2000/svg"
   xmlns="http://www.w3.org/2000/svg"
   xmlns:xlink="http://www.w3.org/1999/xlink"
   xmlns:sodipodi="http://inkscape.sourceforge.net/DTD/sodipodi-0.dtd"
   xmlns:inkscape="http://www.inkscape.org/namespaces/inkscape"
   id="svg1"
   sodipodi:version="0.32"
   inkscape:version="0.42"
   width="48pt"
   height="48pt"
   sodipodi:docname="personal.svg"
   sodipodi:docbase="/home/jakob/dev/lila/lila-theme/trunk/lila/kde/scalable/apps">
  <metadata
     id="metadata41">
    <rdf:RDF>
      <cc:Work
         rdf:about="">
        <dc:format>image/svg+xml</dc:format>
        <dc:type
           rdf:resource="http://purl.org/dc/dcmitype/StillImage" />
      </cc:Work>
    </rdf:RDF>
  </metadata>
  <defs
     id="defs3">
    <linearGradient
       id="linearGradient662">
      <stop
         style="stop-color:#73667f;stop-opacity:1.0000000;"
         offset="0.0000000"
         id="stop663" />
      <stop
         style="stop-color:#d9cce6;stop-opacity:1.0000000;"
         offset="1.0000000"
         id="stop664" />
    </linearGradient>
    <linearGradient
       id="linearGradient599">
      <stop
         style="stop-color:#ffffff;stop-opacity:1;"
         offset="0.00000000"
         id="stop600" />
      <stop
         style="stop-color:#d9cce6;stop-opacity:1;"
         offset="1.00000000"
         id="stop601" />
    </linearGradient>
    <linearGradient
       id="linearGradient584">
      <stop
         style="stop-color:#ffffff;stop-opacity:0.0000000;"
         offset="0.0000000"
         id="stop585" />
      <stop
         style="stop-color:#ffffff;stop-opacity:1.0000000;"
         offset="1.0000000"
         id="stop586" />
    </linearGradient>
    <linearGradient
       id="linearGradient578">
      <stop
         style="stop-color:#8a86b9;stop-opacity:1;"
         offset="0.00000000"
         id="stop579" />
      <stop
         style="stop-color:#b1ace8;stop-opacity:1;"
         offset="1.00000000"
         id="stop580" />
    </linearGradient>
    <linearGradient
       xlink:href="#linearGradient662"
       id="linearGradient581"
       x1="47.597397"
       y1="26.292163"
       x2="25.715729"
       y2="4.7118366"
       gradientUnits="userSpaceOnUse" />
    <linearGradient
       xlink:href="#linearGradient584"
       id="linearGradient583"
       gradientTransform="matrix(1.443052,0.000000,0.000000,1.150536,-20.85955,-10.03589)"
       x1="37.893478"
       y1="16.942226"
       x2="30.146963"
       y2="10.998850"
       gradientUnits="userSpaceOnUse" />
    <linearGradient
       xlink:href="#linearGradient662"
       id="linearGradient860"
       x1="51.167714"
       y1="58.971920"
       x2="18.737092"
       y2="27.217567"
       gradientTransform="matrix(1.459661,0.000000,0.000000,1.137447,-20.85955,-10.03589)"
       gradientUnits="userSpaceOnUse" />
    <linearGradient
       xlink:href="#linearGradient662"
       id="linearGradient861"
       x1="-0.44711539"
       y1="0.32075471"
       x2="1.27403843"
       y2="1.12578619" />
    <linearGradient
       xlink:href="#linearGradient584"
       id="linearGradient862"
       gradientTransform="matrix(1.853577,0.000000,0.000000,0.895718,-20.85955,-10.03589)"
       x1="29.975149"
       y1="44.213566"
       x2="22.594681"
       y2="37.644417"
       gradientUnits="userSpaceOnUse" />
    <radialGradient
       xlink:href="#linearGradient662"
       id="radialGradient595"
       cx="0.025806455"
       cy="0.032467529"
       r="0.20663640"
       fx="0.025806455"
       fy="0.032467529" />
    <linearGradient
       xlink:href="#linearGradient662"
       id="linearGradient652" />
    <linearGradient
       xlink:href="#linearGradient599"
       id="linearGradient654"
       x1="19.920939"
       y1="-1.1157925"
       x2="46.400416"
       y2="25.086450"
       gradientUnits="userSpaceOnUse" />
    <linearGradient
       xlink:href="#linearGradient584"
       id="linearGradient661"
       x1="16.155644"
       y1="16.503242"
       x2="1.4097120"
       y2="19.361511"
       gradientTransform="matrix(1.119930,0.000000,0.000000,0.892913,-2.292000e-3,0.000000)"
       gradientUnits="userSpaceOnUse" />
    <radialGradient
       xlink:href="#linearGradient662"
       id="radialGradient628"
       cx="0.50000000"
       cy="0.50000000"
       r="0.50000000"
       fx="0.50000000"
       fy="0.50000000" />
    <linearGradient
       xlink:href="#linearGradient662"
       id="linearGradient669"
       x1="0.93162394"
       y1="-0.46961325"
       x2="0.19658124"
       y2="1.51933682" />
    <linearGradient
       xlink:href="#linearGradient599"
       id="linearGradient670"
       x1="-2.5624680"
       y1="20.548300"
       x2="29.321978"
       y2="52.975274"
       gradientTransform="matrix(1.131698,0.000000,0.000000,0.883628,-2.292000e-3,0.000000)"
       gradientUnits="userSpaceOnUse" />
  </defs>
  <sodipodi:namedview
     id="base"
     pagecolor="#ffffff"
     bordercolor="#666666"
     borderopacity="1.0"
     inkscape:pageopacity="0.0"
     inkscape:pageshadow="2"
     inkscape:zoom="7.9794719"
     inkscape:cx="22.837633"
     inkscape:cy="23.732827"
     inkscape:window-width="938"
     inkscape:window-height="903"
     inkscape:window-x="97"
     inkscape:window-y="51"
     inkscape:current-layer="svg1" />
  <path
     style="font-size:12.000000px;fill-opacity:0.29999998;fill-rule:evenodd;stroke-width:1.0000000pt"
     d="M 9.8845444,52.999700 C 9.9084524,47.946557 14.159400,21.293017 32.399381,21.558884 C 54.537256,21.875367 55.547349,49.316032 55.986350,53.776017 C 56.119642,55.248062 52.133890,55.522160 51.340432,53.776017 C 49.147925,47.878460 44.376131,33.709508 44.192865,33.591789 C 42.225751,32.557811 51.645049,49.626294 49.910917,54.552332 C 48.547770,58.424548 39.956030,59.861766 34.901028,59.986547 C 29.472931,60.120539 20.183239,59.302166 18.461626,55.328648 C 16.371204,50.503914 23.947794,33.584661 23.464921,33.591789 C 22.106312,33.606570 17.198082,52.836401 16.674731,52.999700 C 13.964373,53.502236 9.9497594,53.987894 9.8845444,52.999700 z "
     id="path612"
     sodipodi:nodetypes="cssssssssss" />
  <path
     sodipodi:type="arc"
     style="font-size:12.000000px;fill-opacity:0.29999998;fill-rule:evenodd;stroke-width:1.0000000pt"
     id="path614"
     sodipodi:cx="36.656563"
     sodipodi:cy="15.354189"
     sodipodi:rx="10.339030"
     sodipodi:ry="10.339030"
     d="M 46.995593 15.354189 A 10.339030 10.339030 0 1 1  26.317533,15.354189 A 10.339030 10.339030 0 1 1  46.995593 15.354189 z"
     transform="matrix(1.195166,0.000000,0.000000,1.195166,-12.52050,-3.873789)" />
  <path
     style="font-size:12.000000px;fill:url(#linearGradient860);fill-opacity:1.0000000;fill-rule:evenodd;stroke:#261933;stroke-width:1.8750007;stroke-miterlimit:4.0000000;stroke-dasharray:none"
     d="M 7.4542224,50.120292 C 7.4781474,45.464146 11.732478,20.904628 29.986976,21.149607 C 52.142471,21.441224 53.153369,46.726029 53.592718,50.835617 C 53.726119,52.192011 49.737193,52.444575 48.943102,50.835617 C 46.748851,45.401398 41.973260,32.345622 41.789847,32.237154 C 39.821168,31.284408 49.247962,47.011915 47.512451,51.550943 C 46.148217,55.118939 37.549640,56.443244 32.490614,56.558222 C 27.058198,56.681685 17.761111,55.927609 16.038127,52.266267 C 13.946042,47.820586 21.528663,32.230585 21.045405,32.237154 C 19.685715,32.250773 14.773578,49.969823 14.249812,50.120292 C 11.537295,50.583346 7.5194864,51.030849 7.4542224,50.120292 z "
     id="path634"
     sodipodi:nodetypes="cssssssssss" />
  <path
     style="font-size:12.000000px;fill:url(#linearGradient862);fill-opacity:1.0000000;fill-rule:evenodd;stroke-width:1.0000000pt"
     d="M 14.736572,34.629975 C 13.730257,37.567686 20.111307,31.734397 22.978418,31.003564 C 25.715762,30.305810 26.372614,30.062228 31.549939,30.344217 C 34.622367,30.313993 41.332975,25.636702 38.143414,24.739762 C 19.861581,19.928387 15.234757,33.012431 14.736572,34.629975 z "
     id="path637"
     sodipodi:nodetypes="cssss" />
  <path
     sodipodi:type="arc"
     style="font-size:12.000000px;fill:url(#linearGradient581);fill-opacity:1.0000000;fill-rule:evenodd;stroke:#261933;stroke-width:1.6179404;stroke-dasharray:none;stroke-opacity:1.0000000"
     id="path608"
     sodipodi:cx="36.656563"
     sodipodi:cy="15.354189"
     sodipodi:rx="10.339030"
     sodipodi:ry="10.339030"
     d="M 46.995593 15.354189 A 10.339030 10.339030 0 1 1  26.317533,15.354189 A 10.339030 10.339030 0 1 1  46.995593 15.354189 z"
     transform="matrix(1.158880,0.000000,0.000000,1.158880,-13.20892,-4.870307)" />
  <path
     style="font-size:12.000000px;fill:url(#linearGradient583);fill-opacity:1.0;fill-rule:evenodd;stroke-width:1.0000000pt"
     d="M 25.903104,10.923891 C 27.863609,10.050816 29.157554,11.011123 30.684127,10.923891 C 33.141740,10.783456 37.979505,8.4155842 37.855663,8.1918779 C 34.545896,2.8300941 28.110022,2.3356039 24.195596,4.7768594 C 17.523469,8.9379721 19.957385,18.532991 21.463582,17.753925 C 23.258568,16.825483 22.837304,12.199579 25.903104,10.923891 z "
     id="path630"
     sodipodi:nodetypes="csssss" />
</svg>
