<?xml version="1.0" encoding="UTF-8" standalone="no"?>
<!DOCTYPE svg PUBLIC "-//W3C//DTD SVG 20010904//EN"
"http://www.w3.org/TR/2001/REC-SVG-20010904/DTD/svg10.dtd">
<!-- Created with Inkscape (http://www.inkscape.org/) -->
<svg
   id="svg1"
   sodipodi:version="0.32"
   inkscape:version="0.37"
   width="48pt"
   height="48pt"
   sodipodi:docname="kopeteaway.svg"
   sodipodi:docbase="/home/tom"
   xmlns="http://www.w3.org/2000/svg"
   xmlns:inkscape="http://www.inkscape.org/namespaces/inkscape"
   xmlns:sodipodi="http://sodipodi.sourceforge.net/DTD/sodipodi-0.dtd"
   xmlns:xlink="http://www.w3.org/1999/xlink">
  <defs
     id="defs3">
    <linearGradient
       id="linearGradient746">
      <stop
         style="stop-color:#ffffff;stop-opacity:1;"
         offset="0.00000000"
         id="stop747" />
      <stop
         style="stop-color:#ffffff;stop-opacity:0;"
         offset="1.00000000"
         id="stop748" />
    </linearGradient>
    <linearGradient
       id="linearGradient743">
      <stop
         style="stop-color:#d9cce6;stop-opacity:1;"
         offset="0.00000000"
         id="stop744" />
      <stop
         style="stop-color:#73667f;stop-opacity:1;"
         offset="1.00000000"
         id="stop745" />
    </linearGradient>
    <linearGradient
       id="linearGradient662">
      <stop
         style="stop-color:#5d517f;stop-opacity:1;"
         offset="0.00000000"
         id="stop663" />
      <stop
         style="stop-color:#f3f3ff;stop-opacity:1;"
         offset="1.00000000"
         id="stop664" />
    </linearGradient>
    <linearGradient
       id="linearGradient599">
      <stop
         style="stop-color:#ffffff;stop-opacity:1;"
         offset="0.00000000"
         id="stop600" />
      <stop
         style="stop-color:#d9cce6;stop-opacity:1;"
         offset="1.00000000"
         id="stop601" />
    </linearGradient>
    <linearGradient
       id="linearGradient584">
      <stop
         style="stop-color:#ffffff;stop-opacity:0.366667;"
         offset="0.00000000"
         id="stop585" />
      <stop
         style="stop-color:#ffffff;stop-opacity:0.2;"
         offset="1.00000000"
         id="stop586" />
    </linearGradient>
    <linearGradient
       id="linearGradient578">
      <stop
         style="stop-color:#8a86b9;stop-opacity:1;"
         offset="0.00000000"
         id="stop579" />
      <stop
         style="stop-color:#b1ace8;stop-opacity:1;"
         offset="1.00000000"
         id="stop580" />
    </linearGradient>
    <linearGradient
       xlink:href="#linearGradient743"
       id="linearGradient581"
       x1="0.15862067"
       y1="0.06338029"
       x2="0.64827585"
       y2="0.57746482" />
    <linearGradient
       xlink:href="#linearGradient746"
       id="linearGradient583"
       x1="-0.00000000"
       y1="-0.00000000"
       x2="1.00000000"
       y2="-0.00000000" />
    <linearGradient
       xlink:href="#linearGradient662"
       id="linearGradient860"
       x1="-0.00000000"
       y1="0.00000000"
       x2="1.00000000"
       y2="0.00000000" />
    <linearGradient
       xlink:href="#linearGradient746"
       id="linearGradient861"
       x1="-0.44711539"
       y1="0.32075471"
       x2="1.27403843"
       y2="1.12578619" />
    <linearGradient
       xlink:href="#linearGradient584"
       id="linearGradient862" />
    <radialGradient
       xlink:href="#linearGradient599"
       id="radialGradient595"
       cx="0.71794873"
       cy="0.48290598"
       r="1.68339193"
       fx="0.71794873"
       fy="0.48290598" />
    <linearGradient
       xlink:href="#linearGradient662"
       id="linearGradient652" />
    <linearGradient
       xlink:href="#linearGradient662"
       id="linearGradient654"
       x1="0.45493558"
       y1="1.61965811"
       x2="0.46351928"
       y2="0.15811966" />
    <linearGradient
       xlink:href="#linearGradient584"
       id="linearGradient661"
       x1="0.58641970"
       y1="0.50781268"
       x2="-0.78395075"
       y2="0.77343768" />
    <radialGradient
       xlink:href="#linearGradient662"
       id="radialGradient628"
       cx="0.50000000"
       cy="0.50000000"
       r="0.50000000"
       fx="0.50000000"
       fy="0.50000000" />
    <linearGradient
       xlink:href="#linearGradient662"
       id="linearGradient669"
       x1="0.93162394"
       y1="-0.46961325"
       x2="0.19658124"
       y2="1.51933682" />
    <linearGradient
       xlink:href="#linearGradient662"
       id="linearGradient670"
       x1="0.03433478"
       y1="2.03333330"
       x2="0.90128756"
       y2="-0.10000000" />
    <linearGradient
       xlink:href="#linearGradient743"
       id="linearGradient749"
       x1="0.00000000"
       y1="-0.00000000"
       x2="1.00000000"
       y2="-0.00000000" />
  </defs>
  <sodipodi:namedview
     id="base"
     pagecolor="#ffffff"
     bordercolor="#666666"
     borderopacity="1.0"
     inkscape:pageopacity="0.0"
     inkscape:pageshadow="2"
     inkscape:zoom="7.97947193"
     inkscape:cx="22.8376830"
     inkscape:cy="23.7327047"
     inkscape:window-width="938"
     inkscape:window-height="711"
     inkscape:window-x="80"
     inkscape:window-y="30" />
  <g
     id="g633"
     transform="matrix(1.252122,0.000000,0.000000,1.252122,43.80526,17.33407)"
     style="font-size:12;">
    <path
       sodipodi:type="arc"
       style="font-size:12;fill:#000000;fill-opacity:0.3;fill-rule:evenodd;stroke:none;stroke-width:1pt;stroke-opacity:1;"
       id="path631"
       sodipodi:cx="36.65656281"
       sodipodi:cy="15.35418892"
       sodipodi:rx="10.33903027"
       sodipodi:ry="10.33903027"
       d="M 46.995593 15.354189 A 10.339030 10.339030 0 1 0 26.317533,15.354189 A 10.339 10.339 0 1 0 46.9956 15.3542 L 36.656563 15.354189 z"
       transform="matrix(0.862937,0.000000,0.000000,0.878088,-41.74896,-15.05385)" />
    <path
       style="font-size:12;fill:#000000;fill-opacity:0.3;fill-rule:evenodd;stroke:none;stroke-width:0.835132pt;"
       d="M -27.100824 26.650495 C -27.082995 23.079537 -23.912943 4.2440025 -10.310868 4.4318855 C 6.1979791 4.6555376 6.9512341 24.047319 7.2786085 27.199103 C 7.3780101 28.239368 4.4057202 28.433066 3.8140154 27.199103 C 2.1789994 23.031414 -1.3794624 13.018492 -1.5161292 12.935304 C -2.983062 12.204611 4.0411764 24.266575 2.7479861 27.74771 C 1.7314467 30.484128 -4.6756584 31.499782 -8.4453173 31.587962 C -12.493204 31.682651 -19.420795 31.104324 -20.704651 28.296317 C -22.263538 24.886772 -16.613457 12.930267 -16.97355 12.935304 C -17.986704 12.945749 -21.646911 26.535095 -22.037187 26.650495 C -24.058381 27.005627 -27.052192 27.348831 -27.100824 26.650495 z "
       id="path628"
       sodipodi:nodetypes="cssssssssss" />
    <path
       style="font-size:12;fill:url(#linearGradient670);fill-opacity:0.75;fill-rule:evenodd;stroke:url(#linearGradient669);stroke-width:0.835132pt;"
       d="M -28.35404 24.998875 C -28.336536 21.592646 -25.224258 3.6259975 -11.87008 3.8052131 C 4.3378938 4.018548 5.0774208 22.515784 5.3988289 25.522176 C 5.4964188 26.514453 2.5782989 26.699217 1.9973775 25.522176 C 0.3921601 21.546743 -3.1014496 11.995719 -3.2356251 11.916368 C -4.6758235 11.219382 2.2203986 22.724926 0.95077735 26.045476 C -0.047236198 28.655663 -6.3375721 29.624465 -10.038529 29.708577 C -14.012643 29.798898 -20.813979 29.247249 -22.074437 26.568776 C -23.604913 23.316513 -18.057805 11.911563 -18.411335 11.916368 C -19.406024 11.926331 -22.999524 24.888799 -23.382688 24.998875 C -25.367045 25.337626 -28.306294 25.664998 -28.35404 24.998875 z "
       id="path650"
       sodipodi:nodetypes="cssssssssss" />
    <path
       style="font-size:12;fill:url(#linearGradient862);fill-opacity:0.75;fill-rule:evenodd;stroke-width:1pt;"
       d="M -24.8459 13.093792 C -25.644576 15.425347 -20.580168 10.795676 -18.304646 10.215642 C -16.132114 9.6618589 -15.610795 9.4685372 -11.501741 9.692341 C -9.063266 9.6683533 -3.7372999 5.9561573 -6.2687382 5.2442895 C -20.778365 1.4256754 -24.450509 11.810006 -24.8459 13.093792 z "
       id="path651"
       sodipodi:nodetypes="cssss" />
    <path
       sodipodi:type="arc"
       style="font-size:12;fill:url(#linearGradient654);fill-opacity:0.75;fill-rule:evenodd;stroke:url(#linearGradient652);stroke-width:1pt;stroke-opacity:1;"
       id="path653"
       sodipodi:cx="36.65656281"
       sodipodi:cy="15.35418892"
       sodipodi:rx="10.33903027"
       sodipodi:ry="10.33903027"
       d="M 46.995593 15.354189 A 10.339030 10.339030 0 1 0 26.317533,15.354189 A 10.339 10.339 0 1 0 46.9956 15.3542 L 36.656563 15.354189 z"
       transform="matrix(0.847785,0.000000,0.000000,0.847785,-42.60342,-15.84179)" />
    <path
       style="font-size:12;fill:url(#linearGradient661);fill-opacity:0.491667;fill-rule:evenodd;stroke-width:1pt;"
       d="M -14.703352 -4.5108495 C -13.201262 -5.1797785 -12.209873 -4.4440144 -11.040251 -4.5108495 C -9.1572889 -4.6184479 -5.450713 -6.4326519 -5.5455982 -6.6040508 C -8.0814593 -10.712117 -13.012467 -11.090984 -16.011604 -9.2205537 C -21.123622 -6.0324125 -19.258817 1.3190552 -18.104806 0.72215339 C -16.72953 0.010804196 -17.052293 -3.5334488 -14.703352 -4.5108495 z "
       id="path654"
       sodipodi:nodetypes="csssss" />
  </g>
  <g
     transform="matrix(0.571710,0.000000,0.000000,0.565479,23.73212,23.86802)"
     style="font-size:12;opacity:0.3;stroke:#000000;"
     id="g677">
    <ellipse
       cx="47.59568024"
       cy="41.55554962"
       rx="28.88131142"
       ry="28.88131142"
       transform="matrix(0.917566,0.000000,0.000000,0.917566,-11.48724,-5.833475)"
       style="fill-rule:evenodd;stroke-width:2.05418;"
       id="path675" />
    <ellipse
       cx="42.10733032"
       cy="34.26774216"
       rx="21.77344894"
       ry="21.77344894"
       transform="matrix(0.934849,0.000000,0.000000,0.934849,-7.035911,0.205833)"
       style="fill-rule:evenodd;stroke-width:1pt;"
       id="path676" />
  </g>
  <ellipse
     cx="47.59568024"
     cy="41.55554962"
     rx="28.88131142"
     ry="28.88131142"
     transform="matrix(0.524581,0.000000,0.000000,0.518863,16.58001,19.60536)"
     style="font-size:12;fill:url(#linearGradient581);fill-opacity:0.75;fill-rule:evenodd;stroke:#261933;stroke-width:2.04345;stroke-dasharray:none;"
     id="path594" />
  <ellipse
     cx="42.10733032"
     cy="34.26774216"
     rx="21.77344894"
     ry="21.77344894"
     transform="matrix(0.534463,0.000000,0.000000,0.528637,19.12488,23.02046)"
     style="font-size:12;fill:url(#radialGradient595);fill-opacity:0.75;fill-rule:evenodd;stroke-width:1pt;stroke:none;stroke-opacity:1;"
     id="path623" />
  <path
     d="M 41.167435 42.019115 C 40.856256 41.862343 40.338125 41.076045 40.575856 40.752742 L 44.330864 35.646095 L 42.36279 41.652999 C 42.248888 42.00065 41.4519 42.162429 41.167435 42.019115 z "
     style="font-size:12;fill:url(#linearGradient749);fill-opacity:0.75;fill-rule:evenodd;stroke:#261933;stroke-width:0.924114;"
     id="path666" />
  <path
     d="M 42.425587 41.726232 C 42.225009 42.008988 41.23706 42.317172 40.838653 41.96398 L 34.545703 36.385236 L 41.990463 40.340262 C 42.42133 40.569159 42.608945 41.467749 42.425587 41.726232 z "
     style="font-size:12;fill:url(#linearGradient860);fill-opacity:0.75;fill-rule:evenodd;stroke:#261933;stroke-width:1.0661;"
     id="path667" />
  <path
     d="M 53.626171 45.412015 C 52.87855 47.186747 51.558479 49.086748 50.143137 50.396924 C 48.81427 51.62705 47.2582 52.423947 45.499093 53.059023 C 47.451702 52.989426 49.670418 52.343576 51.040282 51.075498 C 52.414627 49.803273 53.520624 47.569533 53.626171 45.412015 z "
     style="font-size:12;fill:url(#linearGradient583);fill-opacity:0.75;fill-rule:evenodd;stroke-width:1pt;"
     id="path668" />
  <path
     d="M 28.604985 42.245007 C 28.713271 38.36779 30.51067 33.804958 33.023045 31.384513 C 35.513474 28.985213 40.213221 27.957139 44.587967 28.364139 C 40.949565 29.574431 37.014439 30.9422 34.387446 33.473069 C 32.011637 35.761947 29.7095 39.021133 28.604985 42.245007 z "
     style="font-size:12;fill:url(#linearGradient861);fill-opacity:0.75;fill-rule:evenodd;stroke-width:1pt;"
     id="path593" />
</svg>
