<?xml version="1.0" encoding="UTF-8" standalone="no"?>
<!DOCTYPE svg PUBLIC "-//W3C//DTD SVG 20010904//EN"
"http://www.w3.org/TR/2001/REC-SVG-20010904/DTD/svg10.dtd">
<!-- Created with Inkscape (http://www.inkscape.org/) -->
<svg
   version="1.0"
   x="0"
   y="0"
   width="48pt"
   height="48pt"
   id="svg1"
   sodipodi:version="0.32"
   inkscape:version="0.37"
   sodipodi:docname="laptop_nobattery.svg"
   sodipodi:docbase="/home/jakob/dev/lila/svg-icons/lila/kde/scalable/actions"
   xmlns="http://www.w3.org/2000/svg"
   xmlns:inkscape="http://www.inkscape.org/namespaces/inkscape"
   xmlns:sodipodi="http://sodipodi.sourceforge.net/DTD/sodipodi-0.dtd"
   xmlns:xlink="http://www.w3.org/1999/xlink">
  <sodipodi:namedview
     id="base"
     inkscape:zoom="6.11764706"
     inkscape:cx="29.0000015"
     inkscape:cy="16.7499988"
     inkscape:window-width="1018"
     inkscape:window-height="711"
     inkscape:window-x="468"
     inkscape:window-y="272" />
  <defs
     id="defs3">
    <linearGradient
       id="linearGradient635">
      <stop
         style="stop-color:#d9cce6;stop-opacity:1;"
         offset="0.00000000"
         id="stop636" />
      <stop
         style="stop-color:#ffffff;stop-opacity:1;"
         offset="1.00000000"
         id="stop637" />
    </linearGradient>
    <linearGradient
       id="linearGradient632">
      <stop
         style="stop-color:#ff0000;stop-opacity:1;"
         offset="0.00000000"
         id="stop633" />
      <stop
         style="stop-color:#9a0000;stop-opacity:1;"
         offset="1.00000000"
         id="stop634" />
    </linearGradient>
    <linearGradient
       id="linearGradient595">
      <stop
         style="stop-color:#7f7f7f;stop-opacity:1;"
         offset="0"
         id="stop596" />
      <stop
         style="stop-color:#e6e6e6;stop-opacity:1;"
         offset="1"
         id="stop597" />
    </linearGradient>
    <linearGradient
       id="linearGradient590">
      <stop
         style="stop-color:#ffffff;stop-opacity:1;"
         offset="0"
         id="stop591" />
      <stop
         style="stop-color:#ffffff;stop-opacity:0;"
         offset="1"
         id="stop592" />
    </linearGradient>
    <linearGradient
       id="linearGradient584">
      <stop
         style="stop-color:#d9cce6;stop-opacity:1;"
         offset="0.00000000"
         id="stop585" />
      <stop
         style="stop-color:#73667f;stop-opacity:1;"
         offset="1.00000000"
         id="stop586" />
    </linearGradient>
    <linearGradient
       x1="0.01204819"
       y1="0.01562500"
       x2="0.98795182"
       y2="1.00000000"
       id="linearGradient587"
       xlink:href="#linearGradient584" />
    <linearGradient
       x1="0.011696"
       y1="0.000001"
       x2="0.842105"
       y2="0.906250"
       id="linearGradient589"
       xlink:href="#linearGradient590" />
    <linearGradient
       id="linearGradient594"
       xlink:href="#linearGradient632"
       x1="0.00000000"
       y1="0.00000000"
       x2="1.00000000"
       y2="0.00000000" />
    <linearGradient
       x1="0.00000100"
       y1="0.02343400"
       x2="0.95238101"
       y2="0.97656202"
       id="linearGradient599"
       xlink:href="#linearGradient635" />
    <linearGradient
       id="linearGradient601"
       xlink:href="#linearGradient590" />
    <linearGradient
       xlink:href="#linearGradient590"
       id="linearGradient602"
       x1="0.00000000"
       y1="-0.00000000"
       x2="1.00000000"
       y2="-0.00000000" />
    <radialGradient
       xlink:href="#linearGradient590"
       id="radialGradient603"
       cx="0.47493827"
       cy="0.48125076"
       r="1.89275241"
       fx="0.47493827"
       fy="0.48125076" />
    <linearGradient
       xlink:href="#linearGradient635"
       id="linearGradient609"
       x1="0.00000000"
       y1="0.00000000"
       x2="1.00000000"
       y2="0.00000000" />
  </defs>
  <path
     d="M 4.8022939 55.40648 C 5.6368291 57.214521 26.26906 58.179635 26.905009 56.36298 C 27.611696 54.078472 27.413707 12.982791 26.726034 10.930714 C 26.050537 8.9391209 5.5506353 8.6147224 4.8917818 10.69159 C 4.2622797 12.438607 3.9800631 53.431429 4.8022939 55.40648 z "
     style="font-size:12;fill:url(#linearGradient587);fill-rule:evenodd;stroke:#261933;stroke-width:1.98503;"
     id="path583" />
  <path
     d="M 6.0551207 52.088462 C 5.7317806 50.895336 5.3169771 13.691462 6.1446075 11.970042 C 7.2552994 9.7185294 25.430178 11.798439 25.741741 12.948392 C 26.026719 14.000131 11.812904 10.863444 7.9342885 18.574755 C 5.2507208 23.910077 6.3283857 53.096855 6.0551207 52.088462 z "
     style="font-size:12;opacity:0.7;fill:url(#linearGradient589);fill-rule:evenodd;stroke:none;stroke-width:0.110046pt;"
     id="path588" />
  <path
     d="M 15.513846 3.9483966 C 17.228657 3.8558704 19.458887 3.6882598 20.732656 4.8717875 C 20.732656 6.2404194 20.8284 7.5869477 20.377329 9.1731299 C 19.579239 11.980354 20.987896 8.2520816 20.227506 10.524871 C 19.988545 11.239485 11.138917 11.823788 10.894537 11.071907 C 10.139565 8.7485429 10.561943 12.301825 10.166137 9.4047242 C 9.93752 7.732823 10.330971 6.3357525 10.410414 4.8916244 C 11.650398 3.89939 13.980804 3.8239187 15.513846 3.9483966 z "
     style="font-size:12;fill:#261933;fill-rule:evenodd;stroke-width:1.28711pt;fill-opacity:1;"
     id="path603"
     sodipodi:nodetypes="cccccccc" />
  <rect
     style="font-size:12;fill:url(#linearGradient609);fill-opacity:1.00;fill-rule:evenodd;stroke:#261933;stroke-width:2.57549;"
     id="rect602"
     width="23.49759674"
     height="56.59855731"
     x="34.73557663"
     y="1.97115390"
     ry="5.63817049" />
  <path
     style="font-size:12;opacity:0.3;fill-rule:evenodd;stroke-width:2.07367;"
     d="M 49.394215 32.950281 C 49.394215 42.697205 41.483667 50.607754 31.736741 50.607754 C 21.989816 50.607754 14.079267 42.697205 14.079267 32.950281 C 14.079267 23.203354 21.989816 15.292806 31.736741 15.292806 C 41.483667 15.292806 49.394215 23.203354 49.394215 32.950281 z "
     id="path952" />
  <path
     style="font-size:12;fill-rule:evenodd;stroke:#330000;stroke-width:1.26177;fill:url(#linearGradient594);"
     d="M 47.180459 32.054239 C 47.180459 40.841024 40.049155 47.972327 31.262371 47.972327 C 22.475586 47.972327 15.344282 40.841024 15.344282 32.054239 C 15.344282 23.267455 22.475586 16.136152 31.262371 16.136152 C 40.049155 16.136152 47.180459 23.267455 47.180459 32.054239 z "
     id="path951" />
  <path
     style="fill:url(#linearGradient601);fill-rule:evenodd;stroke:none;stroke-opacity:1;stroke-width:1pt;stroke-linejoin:miter;stroke-linecap:butt;fill-opacity:1;opacity:0.800000;"
     d="M 18.40707 39.007945 C 17.588322 37.801294 13.427897 26.335408 23.475899 19.627127 C 32.131722 13.699214 41.442187 20.955795 42.409468 23.056041 C 42.656228 23.629862 34.402247 16.947693 25.563065 23.056041 C 15.728784 29.968644 18.731294 39.540598 18.40707 39.007945 z "
     id="path918"
     sodipodi:nodetypes="cssss" />
  <path
     style="font-size:12;fill:url(#linearGradient599);fill-rule:evenodd;stroke:#261933;stroke-width:1.26177;"
     d="M 21.171569 31.295271 C 26.69943 30.435481 35.991992 30.307726 41.545684 31.295271 C 42.787146 31.532958 42.797963 34.317476 41.545684 34.509722 C 35.90965 35.299183 26.617123 35.447595 21.171569 34.616872 C 19.908075 34.357721 19.908059 31.561067 21.171569 31.295271 z "
     id="path657"
     sodipodi:nodetypes="cssss" />
  <path
     style="fill:url(#linearGradient602);fill-rule:evenodd;stroke:none;stroke-opacity:1;stroke-width:1pt;stroke-linejoin:miter;stroke-linecap:butt;fill-opacity:1;"
     d="M 21.201238 33.467933 C 21.093017 33.354103 20.984858 32.187826 21.44821 32.104158 C 27.947966 30.85466 40.532211 31.774356 40.629666 31.876857 C 40.7243 31.976396 28.037335 31.756525 22.024476 32.710276 C 21.646735 32.765433 21.285107 33.556143 21.201238 33.467933 z "
     id="path658"
     sodipodi:nodetypes="cssss" />
</svg>
