<?xml version="1.0" encoding="UTF-8" standalone="no"?>
<!DOCTYPE svg PUBLIC "-//W3C//DTD SVG 20010904//EN"
"http://www.w3.org/TR/2001/REC-SVG-20010904/DTD/svg10.dtd">
<!-- Created with Inkscape (http://www.inkscape.org/) -->
<svg
   version="1.0"
   x="0"
   y="0"
   width="48pt"
   height="48pt"
   id="svg1"
   sodipodi:version="0.32"
   inkscape:version="0.37"
   sodipodi:docname="laptop_nocharge.svg"
   sodipodi:docbase="/home/tom/Pics/lilasvg/scalable/actions"
   xmlns="http://www.w3.org/2000/svg"
   xmlns:inkscape="http://www.inkscape.org/namespaces/inkscape"
   xmlns:sodipodi="http://sodipodi.sourceforge.net/DTD/sodipodi-0.dtd"
   xmlns:xlink="http://www.w3.org/1999/xlink">
  <sodipodi:namedview
     id="base"
     inkscape:zoom="8.65165944"
     inkscape:cx="31.9007701"
     inkscape:cy="21.2278852"
     inkscape:window-width="1018"
     inkscape:window-height="711"
     inkscape:window-x="0"
     inkscape:window-y="30" />
  <defs
     id="defs3">
    <linearGradient
       id="linearGradient600">
      <stop
         style="stop-color:#d9cce6;stop-opacity:1;"
         offset="0.00000000"
         id="stop601" />
      <stop
         style="stop-color:#ffffff;stop-opacity:1;"
         offset="1.00000000"
         id="stop602" />
    </linearGradient>
    <linearGradient
       id="linearGradient596">
      <stop
         style="stop-color:#ffffff;stop-opacity:1;"
         offset="0"
         id="stop598" />
      <stop
         style="stop-color:#ffffff;stop-opacity:0;"
         offset="1"
         id="stop599" />
    </linearGradient>
    <linearGradient
       id="linearGradient595">
      <stop
         style="stop-color:#7f7f7f;stop-opacity:1;"
         offset="0"
         id="stop596" />
      <stop
         style="stop-color:#e6e6e6;stop-opacity:1;"
         offset="1"
         id="stop597" />
    </linearGradient>
    <linearGradient
       id="linearGradient590">
      <stop
         style="stop-color:#ffffff;stop-opacity:1;"
         offset="0"
         id="stop591" />
      <stop
         style="stop-color:#ffffff;stop-opacity:0;"
         offset="1"
         id="stop592" />
    </linearGradient>
    <linearGradient
       id="linearGradient584">
      <stop
         style="stop-color:#d9cce6;stop-opacity:1;"
         offset="0.00000000"
         id="stop585" />
      <stop
         style="stop-color:#73667f;stop-opacity:1;"
         offset="1.00000000"
         id="stop586" />
    </linearGradient>
    <linearGradient
       x1="0.01204819"
       y1="0.01562500"
       x2="0.98795182"
       y2="1.00000000"
       id="linearGradient587"
       xlink:href="#linearGradient584" />
    <linearGradient
       x1="0.011696"
       y1="0.000001"
       x2="0.842105"
       y2="0.906250"
       id="linearGradient589"
       xlink:href="#linearGradient590" />
    <linearGradient
       id="linearGradient594"
       xlink:href="#linearGradient600"
       x1="0.82539684"
       y1="0.97183096"
       x2="-0.07936508"
       y2="0.01408451" />
    <linearGradient
       x1="0.000001"
       y1="0.023434"
       x2="0.952381"
       y2="0.976562"
       id="linearGradient599"
       xlink:href="#linearGradient590" />
    <linearGradient
       id="linearGradient601"
       xlink:href="#linearGradient590"
       x1="0.35714287"
       y1="0.22656250"
       x2="0.92857140"
       y2="0.89062500" />
    <linearGradient
       xlink:href="#linearGradient584"
       id="linearGradient602"
       x1="0.26984128"
       y1="0.14062500"
       x2="0.42857143"
       y2="0.59375000" />
    <radialGradient
       xlink:href="#linearGradient590"
       id="radialGradient603"
       cx="0.47493827"
       cy="0.48125076"
       r="1.89275241"
       fx="0.47493827"
       fy="0.48125076" />
    <linearGradient
       xlink:href="#linearGradient590"
       id="linearGradient609"
       x1="0.20634921"
       y1="0.27343750"
       x2="1.69841266"
       y2="3.66406250" />
  </defs>
  <path
     d="M 4.8022939 55.40648 C 5.6368291 57.214521 26.26906 58.179635 26.905009 56.36298 C 27.611696 54.078472 27.413707 12.982791 26.726034 10.930714 C 26.050537 8.9391209 5.5506353 8.6147224 4.8917818 10.69159 C 4.2622797 12.438607 3.9800631 53.431429 4.8022939 55.40648 z "
     style="font-size:12;fill:url(#linearGradient587);fill-rule:evenodd;stroke:#261933;stroke-width:1.98503;"
     id="path583" />
  <path
     d="M 6.0551207 52.088462 C 5.7317806 50.895336 5.3169771 13.691462 6.1446075 11.970042 C 7.2552994 9.7185294 25.430178 11.798439 25.741741 12.948392 C 26.026719 14.000131 11.812904 10.863444 7.9342885 18.574755 C 5.2507208 23.910077 6.3283857 53.096855 6.0551207 52.088462 z "
     style="font-size:12;opacity:0.7;fill:url(#linearGradient589);fill-rule:evenodd;stroke:none;stroke-width:0.110046pt;"
     id="path588" />
  <path
     style="font-size:12;fill:url(#linearGradient601);fill-rule:evenodd;stroke:#261933;stroke-width:0.893864pt;"
     d="M 21.391117 23.04881 L 9.3671923 34.851322 L 13.257285 36.724737 L 11.489061 47.590542 L 21.744761 36.724737 L 17.147379 33.35259 L 21.391117 23.04881 z "
     id="path597" />
  <path
     d="M 15.513846 3.9483966 C 17.228657 3.8558704 19.458887 3.6882598 20.732656 4.8717875 C 20.732656 6.2404194 20.8284 7.5869477 20.377329 9.1731299 C 19.579239 11.980354 20.987896 8.2520816 20.227506 10.524871 C 19.988545 11.239485 11.138917 11.823788 10.894537 11.071907 C 10.139565 8.7485429 10.561943 12.301825 10.166137 9.4047242 C 9.93752 7.732823 10.330971 6.3357525 10.410414 4.8916244 C 11.650398 3.89939 13.980804 3.8239187 15.513846 3.9483966 z "
     style="font-size:12;fill:#261933;fill-rule:evenodd;stroke-width:1.28711pt;fill-opacity:1;"
     id="path603"
     sodipodi:nodetypes="cccccccc" />
  <rect
     style="font-size:12;fill:url(#linearGradient594);fill-opacity:0.75;fill-rule:evenodd;stroke:#261933;stroke-width:2.5;"
     id="rect602"
     width="23.4975967"
     height="53.3293266"
     x="34.7355766"
     y="5.24038458"
     ry="0.97807139" />
</svg>
