<?xml version="1.0" encoding="UTF-8" standalone="no"?>
<!DOCTYPE svg PUBLIC "-//W3C//DTD SVG 20010904//EN"
"http://www.w3.org/TR/2001/REC-SVG-20010904/DTD/svg10.dtd">
<!-- Created with Inkscape (http://www.inkscape.org/) -->
<svg
   version="1.0"
   x="0"
   y="0"
   width="48pt"
   height="48pt"
   id="svg1"
   sodipodi:version="0.32"
   inkscape:version="0.38"
   sodipodi:docname="laptop_charge.svg"
   sodipodi:docbase="/home/tom/Pics/lilasvg/scalable/actions"
   xmlns="http://www.w3.org/2000/svg"
   xmlns:inkscape="http://www.inkscape.org/namespaces/inkscape"
   xmlns:sodipodi="http://sodipodi.sourceforge.net/DTD/sodipodi-0.dtd"
   xmlns:xlink="http://www.w3.org/1999/xlink">
  <sodipodi:namedview
     id="base"
     inkscape:zoom="6.1176471"
     inkscape:cx="29.000001"
     inkscape:cy="16.749999"
     inkscape:window-width="1018"
     inkscape:window-height="711"
     inkscape:window-x="0"
     inkscape:window-y="30" />
  <defs
     id="defs3">
    <linearGradient
       id="linearGradient635">
      <stop
         style="stop-color:#d9cce6;stop-opacity:1;"
         offset="0.00000000"
         id="stop636" />
      <stop
         style="stop-color:#ffffff;stop-opacity:1;"
         offset="1.00000000"
         id="stop637" />
    </linearGradient>
    <linearGradient
       id="linearGradient632">
      <stop
         style="stop-color:#ff0000;stop-opacity:1;"
         offset="0.00000000"
         id="stop633" />
      <stop
         style="stop-color:#9a0000;stop-opacity:1;"
         offset="1.00000000"
         id="stop634" />
    </linearGradient>
    <linearGradient
       id="linearGradient595">
      <stop
         style="stop-color:#7f7f7f;stop-opacity:1;"
         offset="0"
         id="stop596" />
      <stop
         style="stop-color:#e6e6e6;stop-opacity:1;"
         offset="1"
         id="stop597" />
    </linearGradient>
    <linearGradient
       id="linearGradient590">
      <stop
         style="stop-color:#ffffff;stop-opacity:1;"
         offset="0"
         id="stop591" />
      <stop
         style="stop-color:#ffffff;stop-opacity:0;"
         offset="1"
         id="stop592" />
    </linearGradient>
    <linearGradient
       id="linearGradient584">
      <stop
         style="stop-color:#d9cce6;stop-opacity:1;"
         offset="0.00000000"
         id="stop585" />
      <stop
         style="stop-color:#73667f;stop-opacity:1;"
         offset="1.00000000"
         id="stop586" />
    </linearGradient>
    <linearGradient
       id="linearGradient587"
       xlink:href="#linearGradient584"
       x1="-0.00000000"
       y1="-0.00000000"
       x2="1.00000000"
       y2="-0.00000000" />
    <linearGradient
       id="linearGradient589"
       xlink:href="#linearGradient635"
       x1="0.90476191"
       y1="0.96478873"
       x2="-0.12698413"
       y2="-0.06338028" />
    <linearGradient
       id="linearGradient594"
       xlink:href="#linearGradient635"
       x1="1.79726803"
       y1="0.05962684"
       x2="2.79726791"
       y2="0.05962684" />
    <linearGradient
       x1="0.00000100"
       y1="0.02343400"
       x2="0.95238101"
       y2="0.97656202"
       id="linearGradient599"
       xlink:href="#linearGradient635" />
    <linearGradient
       id="linearGradient601"
       xlink:href="#linearGradient590" />
    <linearGradient
       xlink:href="#linearGradient584"
       id="linearGradient602"
       x1="0.00000000"
       y1="-0.00000000"
       x2="1.00000000"
       y2="-0.00000000" />
    <radialGradient
       xlink:href="#linearGradient590"
       id="radialGradient603"
       cx="0.47493827"
       cy="0.48125076"
       r="1.89275241"
       fx="0.47493827"
       fy="0.48125076" />
    <linearGradient
       xlink:href="#linearGradient590"
       id="linearGradient609"
       x1="0.20634921"
       y1="0.27343750"
       x2="1.69841266"
       y2="3.66406250" />
  </defs>
  <rect
     style="font-size:12.000000;fill:#ffffff;fill-opacity:1.0000000;fill-rule:evenodd;stroke:#261933;stroke-width:2.4154954;"
     id="rect602"
     width="22.943562"
     height="50.987199"
     x="35.319084"
     y="5.1854868"
     ry="0.78141303" />
  <path
     style="font-size:12;fill:url(#linearGradient602);fill-opacity:0.75;fill-rule:evenodd;stroke:#000000;stroke-width:2.5;stroke-dasharray:none;"
     d="M 8.9804161 19.993491 C 7.7008142 20.268924 5.8977369 21.921518 5.1416072 23.298681 C 3.309449 26.236627 2.2625014 29.174574 2.0007642 32.11252 C 1.6808642 35.601331 1.6226993 38.906522 2.3497471 42.028089 C 2.7278108 43.833702 2.9313853 44.721205 3.7456777 46.06777 C 4.589052 47.720361 5.3451817 48.546661 7.5844866 49.372952 C 12.150342 50.780722 15.145777 50.627706 19.449896 49.7402 C 22.474412 49.128123 24.888208 48.33243 26.429548 46.802249 C 28.407117 44.721205 29.163246 44.109134 30.00662 42.487142 C 30.297439 41.599639 30.413765 40.436701 30.355602 39.824629 C 30.297439 36.978493 30.326521 36.427629 29.919374 34.31598 C 29.279573 32.234935 27.941806 29.970267 25.557091 26.971114 C 23.579523 24.584032 22.474412 23.665924 20.409598 22.288761 C 18.14121 21.064617 17.007018 20.574959 14.215157 19.993491 C 13.168209 19.871077 12.12126 19.748662 11.074313 19.626248 C 10.201856 19.656851 9.8528734 19.687456 8.9804161 19.993491 z "
     id="path599"
     sodipodi:nodetypes="cccccccccccccccc" />
  <path
     sodipodi:type="arc"
     style="font-size:12;fill:url(#radialGradient603);fill-opacity:0.75;fill-rule:evenodd;stroke:#000000;stroke-width:1pt;"
     id="path601"
     sodipodi:cx="-46.71875000"
     sodipodi:cy="59.06250000"
     sodipodi:rx="11.71875000"
     sodipodi:ry="6.40625000"
     d="M -35.000000 59.062500 A 11.718750 6.406250 0 1 0 -58.437500,59.062500 A 11.7188 6.40625 0 1 0 -35 59.0625 L -46.718750 59.062500 z"
     transform="matrix(0.807299,0.763698,-0.664961,0.927170,94.84924,13.51650)" />
  <rect
     style="font-size:12;fill:url(#linearGradient594);fill-opacity:0.75;fill-rule:evenodd;stroke:#000000;stroke-width:2.50004;stroke-dasharray:none;"
     id="rect622"
     width="4.17678149"
     height="18.00825764"
     x="30.42389875"
     y="-5.52011091"
     ry="2.25103221"
     transform="matrix(0.742403,0.669953,-0.664011,0.747723,0.000000,0.000000)" />
  <rect
     style="font-size:12;fill:url(#linearGradient587);fill-opacity:0.75;fill-rule:evenodd;stroke:#000000;stroke-width:2.50004;stroke-dasharray:none;"
     id="rect624"
     width="4.17678006"
     height="18.00825955"
     x="37.93069559"
     y="-4.44633546"
     ry="2.25103244"
     transform="matrix(0.742403,0.669953,-0.664011,0.747723,0.000000,0.000000)" />
</svg>
