<?xml version="1.0" encoding="UTF-8" standalone="no"?>
<!DOCTYPE svg PUBLIC "-//W3C//DTD SVG 20010904//EN"
"http://www.w3.org/TR/2001/REC-SVG-20010904/DTD/svg10.dtd">
<!-- Created with Inkscape (http://www.inkscape.org/) -->
<svg
   version="1.0"
   x="0"
   y="0"
   width="48pt"
   height="48pt"
   id="svg1"
   sodipodi:version="0.32"
   inkscape:version="0.37"
   sodipodi:docname="laptop_power.svg"
   sodipodi:docbase="/home/jakob/dev/lila/svg-icons/lila/kde/scalable/actions"
   xmlns="http://www.w3.org/2000/svg"
   xmlns:inkscape="http://www.inkscape.org/namespaces/inkscape"
   xmlns:sodipodi="http://sodipodi.sourceforge.net/DTD/sodipodi-0.dtd"
   xmlns:xlink="http://www.w3.org/1999/xlink">
  <sodipodi:namedview
     id="base"
     inkscape:zoom="2.83025210"
     inkscape:cx="27.4999917"
     inkscape:cy="20.4374945"
     inkscape:window-width="1392"
     inkscape:window-height="983"
     inkscape:window-x="0"
     inkscape:window-y="0" />
  <defs
     id="defs3">
    <linearGradient
       id="linearGradient635">
      <stop
         style="stop-color:#d9cce6;stop-opacity:1;"
         offset="0.00000000"
         id="stop636" />
      <stop
         style="stop-color:#ffffff;stop-opacity:1;"
         offset="1.00000000"
         id="stop637" />
    </linearGradient>
    <linearGradient
       id="linearGradient632">
      <stop
         style="stop-color:#ff0000;stop-opacity:1;"
         offset="0.00000000"
         id="stop633" />
      <stop
         style="stop-color:#9a0000;stop-opacity:1;"
         offset="1.00000000"
         id="stop634" />
    </linearGradient>
    <linearGradient
       id="linearGradient595">
      <stop
         style="stop-color:#7f7f7f;stop-opacity:1;"
         offset="0"
         id="stop596" />
      <stop
         style="stop-color:#e6e6e6;stop-opacity:1;"
         offset="1"
         id="stop597" />
    </linearGradient>
    <linearGradient
       id="linearGradient590">
      <stop
         style="stop-color:#ffffff;stop-opacity:1;"
         offset="0"
         id="stop591" />
      <stop
         style="stop-color:#ffffff;stop-opacity:0;"
         offset="1"
         id="stop592" />
    </linearGradient>
    <linearGradient
       id="linearGradient584">
      <stop
         style="stop-color:#d9cce6;stop-opacity:1;"
         offset="0.00000000"
         id="stop585" />
      <stop
         style="stop-color:#73667f;stop-opacity:1;"
         offset="1.00000000"
         id="stop586" />
    </linearGradient>
    <linearGradient
       id="linearGradient587"
       xlink:href="#linearGradient635"
       x1="1.10282409"
       y1="0.45772511"
       x2="-1.83782232"
       y2="0.44091809" />
    <linearGradient
       id="linearGradient589"
       xlink:href="#linearGradient635"
       x1="0.93617022"
       y1="0.93959731"
       x2="0.03546099"
       y2="0.03355705" />
    <linearGradient
       id="linearGradient594"
       xlink:href="#linearGradient635"
       x1="0.80569249"
       y1="0.46173388"
       x2="-1.78956795"
       y2="0.44532508" />
    <linearGradient
       x1="0.00000100"
       y1="0.02343400"
       x2="0.95238101"
       y2="0.97656202"
       id="linearGradient599"
       xlink:href="#linearGradient635" />
    <linearGradient
       id="linearGradient601"
       xlink:href="#linearGradient590" />
    <linearGradient
       xlink:href="#linearGradient584"
       id="linearGradient602"
       x1="0.00000000"
       y1="-0.00000000"
       x2="1.00000000"
       y2="-0.00000000" />
    <radialGradient
       xlink:href="#linearGradient590"
       id="radialGradient603"
       cx="0.47493827"
       cy="0.48125076"
       r="1.89275241"
       fx="0.47493827"
       fy="0.48125076" />
    <linearGradient
       xlink:href="#linearGradient590"
       id="linearGradient609"
       x1="0.20634921"
       y1="0.27343750"
       x2="1.69841266"
       y2="3.66406250" />
    <radialGradient
       xlink:href="#linearGradient635"
       id="radialGradient604"
       cx="0.50000000"
       cy="0.50000000"
       r="0.50000000"
       fx="0.50000000"
       fy="0.50000000" />
  </defs>
  <path
     style="font-size:12;fill:#000000;fill-opacity:0.3;fill-rule:evenodd;stroke:none;stroke-width:1.87503;stroke-dasharray:none;"
     d="M 43.88636 3.7251799 C 42.978471 3.8098618 42.07887 4.2332825 41.395925 5.0023255 L 34.499339 12.760984 C 32.123662 11.465223 29.505663 10.176206 27.059967 9.7277646 C 23.893944 9.1472432 20.870446 9.4309034 18.75852 10.078979 C 16.646595 10.55854 13.389958 13.161288 11.255289 16.720136 C 9.1206214 20.278986 7.2099962 24.93972 6.5617794 30.577166 C 5.7450457 36.214608 5.9057771 41.676057 6.8172085 46.413771 C 7.7286399 51.320003 11.005063 56.704132 15.437942 58.546654 C 19.87082 60.220661 28.295467 59.879206 34.339695 58.64244 C 40.383924 57.405672 43.451549 55.437225 46.185221 53.470001 C 48.918893 51.334258 51.658588 48.412547 52.76252 44.657696 C 53.866454 41.071357 53.147053 37.16406 52.283591 33.706173 C 51.901161 32.174658 50.878882 30.216176 49.761229 28.278303 L 56.881315 20.264216 C 58.247203 18.72613 58.234255 16.434166 56.817458 15.155632 C 55.40066 13.8771 53.138621 14.096478 51.772734 15.634563 L 45.73822 22.435363 C 45.522615 22.178342 45.311322 21.809504 45.099647 21.57329 C 43.549591 19.737737 41.877925 18.112497 40.246494 16.688207 L 46.536436 9.6319782 C 47.902322 8.0938934 47.857447 5.80193 46.44065 4.5233958 C 45.732251 3.8841294 44.794248 3.6404979 43.88636 3.7251799 z "
     id="path608" />
  <path
     style="font-size:12;fill:url(#linearGradient602);fill-opacity:1.00;fill-rule:evenodd;stroke:#261933;stroke-width:1.91572;"
     d="M 16.977792 8.094708 C 14.865867 8.5742687 11.600796 11.167328 9.4661281 14.726177 C 7.3314605 18.285027 5.4391305 22.952938 4.7909137 28.590382 C 3.97418 34.227825 4.11809 39.702672 5.0295212 44.440387 C 5.9409521 49.346618 9.2312535 54.713085 13.664132 56.555609 C 18.097009 58.229613 26.517618 57.892595 32.561846 56.655829 C 38.606074 55.419061 41.678019 53.439922 44.411692 51.472696 C 47.145364 49.336955 49.882143 46.424687 50.986077 42.669836 C 52.090009 39.083499 51.368594 35.177288 50.505131 31.7194 C 49.641671 28.261513 46.23331 22.866804 43.309625 19.604174 C 40.554453 16.341543 37.381593 13.520571 34.818925 11.880715 C 32.087739 10.240861 28.441395 8.3381942 25.275371 7.7576743 C 22.109347 7.1771532 19.089717 7.4466317 16.977792 8.094708 z "
     id="path599"
     sodipodi:nodetypes="czzzzzzzzzzzz" />
  <path
     sodipodi:type="arc"
     style="font-size:12;fill:url(#radialGradient603);fill-opacity:1.00;fill-rule:evenodd;stroke:#261933;stroke-width:1.03617;stroke-opacity:1;stroke-dasharray:none;"
     id="path601"
     sodipodi:cx="-46.71875000"
     sodipodi:cy="59.06250000"
     sodipodi:rx="11.71875000"
     sodipodi:ry="6.40625000"
     d="M -35.000000 59.062500 A 11.718750 6.406250 0 1 0 -58.437500,59.062500 A 11.7188 6.40625 0 1 0 -35 59.0625 L -46.718750 59.062500 z"
     transform="matrix(1.331625,1.259707,-1.096842,1.529351,157.6057,-2.588975)" />
  <rect
     style="font-size:12;fill:url(#linearGradient594);fill-opacity:1.00;fill-rule:evenodd;stroke:#261933;stroke-width:1.91575;"
     id="rect622"
     width="6.88949630"
     height="29.70434668"
     x="31.63913000"
     y="-28.02346516"
     ry="3.71304357"
     transform="matrix(0.742403,0.669953,-0.664011,0.747723,0.000000,0.000000)" />
  <rect
     style="font-size:12;fill:url(#linearGradient587);fill-opacity:1.00;fill-rule:evenodd;stroke:#261933;stroke-width:1.91575;"
     id="rect624"
     width="6.88949346"
     height="29.70435236"
     x="46.45691045"
     y="-27.08224832"
     ry="3.71304405"
     transform="matrix(0.742403,0.669953,-0.664011,0.747723,0.000000,0.000000)" />
  <path
     style="fill:url(#linearGradient589);fill-rule:evenodd;stroke:none;stroke-opacity:1;stroke-width:1pt;stroke-linejoin:miter;stroke-linecap:butt;fill-opacity:1;"
     d="M 10.927631 20.496386 C 11.601697 41.223954 22.892324 49.144245 38.901423 49.312763 C 25.083043 46.953526 13.623899 38.190655 10.927631 20.496386 z "
     id="path604"
     sodipodi:nodetypes="ccc" />
</svg>
