<?xml version="1.0" encoding="UTF-8" standalone="no"?>
<!DOCTYPE svg PUBLIC "-//W3C//DTD SVG 20010904//EN"
"http://www.w3.org/TR/2001/REC-SVG-20010904/DTD/svg10.dtd">
<!-- Created with Inkscape (http://www.inkscape.org/) -->
<svg
   id="svg1"
   sodipodi:version="0.32"
   inkscape:version="0.37"
   width="48pt"
   height="48pt"
   sodipodi:docbase="/home/tom"
   sodipodi:docname="mail_find.svg"
   xmlns="http://www.w3.org/2000/svg"
   xmlns:inkscape="http://www.inkscape.org/namespaces/inkscape"
   xmlns:sodipodi="http://sodipodi.sourceforge.net/DTD/sodipodi-0.dtd"
   xmlns:xlink="http://www.w3.org/1999/xlink">
  <defs
     id="defs3">
    <linearGradient
       id="linearGradient599">
      <stop
         style="stop-color:#ffffff;stop-opacity:1;"
         offset="0.00000000"
         id="stop600" />
      <stop
         style="stop-color:#d9cce6;stop-opacity:1;"
         offset="1.00000000"
         id="stop601" />
    </linearGradient>
    <linearGradient
       id="linearGradient584">
      <stop
         style="stop-color:#ffffff;stop-opacity:1;"
         offset="0.00000000"
         id="stop585" />
      <stop
         style="stop-color:#ffffff;stop-opacity:0;"
         offset="1.00000000"
         id="stop586" />
    </linearGradient>
    <linearGradient
       id="linearGradient578">
      <stop
         style="stop-color:#d9cce6;stop-opacity:1;"
         offset="0.00000000"
         id="stop579" />
      <stop
         style="stop-color:#73667f;stop-opacity:1;"
         offset="1.00000000"
         id="stop580" />
    </linearGradient>
    <linearGradient
       xlink:href="#linearGradient599"
       id="linearGradient581"
       x1="0.00000000"
       y1="-0.00000000"
       x2="0.98888886"
       y2="0.98437500" />
    <linearGradient
       xlink:href="#linearGradient599"
       id="linearGradient583"
       x1="-0.00000000"
       y1="0.00000000"
       x2="0.97500002"
       y2="0.98437500" />
    <linearGradient
       xlink:href="#linearGradient599"
       id="linearGradient860"
       x1="0.00000000"
       y1="0.00000000"
       x2="0.98905110"
       y2="0.97457629" />
    <linearGradient
       xlink:href="#linearGradient578"
       id="linearGradient861"
       x1="0.00000000"
       y1="-0.00000000"
       x2="0.98888886"
       y2="0.98437500" />
    <linearGradient
       xlink:href="#linearGradient584"
       id="linearGradient862"
       x1="-0.08500000"
       y1="-0.13281250"
       x2="0.99500000"
       y2="0.96875000" />
    <radialGradient
       xlink:href="#linearGradient578"
       id="radialGradient595"
       cx="0.33846155"
       cy="0.34375000"
       r="0.66501766"
       fx="0.33076921"
       fy="0.33593750" />
    <linearGradient
       xlink:href="#linearGradient578"
       id="linearGradient635"
       x1="-0.00000000"
       y1="-0.00000000"
       x2="1.00000000"
       y2="-0.00000000" />
    <linearGradient
       xlink:href="#linearGradient578"
       id="linearGradient636"
       x1="-0.00000000"
       y1="-0.00000000"
       x2="1.00000000"
       y2="-0.00000000" />
  </defs>
  <sodipodi:namedview
     id="base"
     pagecolor="#ffffff"
     bordercolor="#666666"
     borderopacity="1.0"
     inkscape:pageopacity="0.0"
     inkscape:pageshadow="2"
     inkscape:zoom="5.64233871"
     inkscape:cx="32.4215132"
     inkscape:cy="26.5535832"
     inkscape:window-width="640"
     inkscape:window-height="535"
     inkscape:window-x="236"
     inkscape:window-y="112" />
  <g
     id="g604"
     transform="matrix(1.691644,2.876924e-2,-3.209944e-2,1.516143,61.53657,-30.31157)">
    <path
       style="font-size:12;fill:url(#linearGradient581);fill-rule:evenodd;stroke:#261933;stroke-width:1.875;stroke-dasharray:none;"
       d="M -32.510926 50.442911 C -31.289577 51.594259 -5.0803113 51.459852 -3.7913862 50.026685 C -2.4530372 48.682625 -2.0028341 31.001903 -3.6526445 29.770391 C -5.3257956 28.406784 -30.785139 28.94781 -32.510926 30.047875 C -34.176752 31.030706 -33.753792 49.390797 -32.510926 50.442911 z "
       id="path596"
       sodipodi:nodetypes="cssss" />
    <path
       style="font-size:12;fill:url(#linearGradient860);fill-rule:evenodd;stroke:#261933;stroke-width:1.875;stroke-dasharray:none;"
       d="M -32.649668 50.442911 C -33.738539 49.45197 -22.490714 38.836565 -17.526818 38.788604 C -12.917534 38.74407 -2.6599755 48.978789 -3.930128 50.165427 C -5.066091 51.35684 -32.182111 51.512214 -32.649668 50.442911 z "
       id="path597"
       sodipodi:nodetypes="csss" />
    <path
       style="font-size:12;fill:url(#linearGradient583);fill-rule:evenodd;stroke:#261933;stroke-width:1.875;stroke-dasharray:none;"
       d="M -32.649668 30.186616 C -33.652052 31.444835 -22.868375 44.407645 -18.081785 44.338274 C -13.295195 44.268903 -2.8273979 30.967397 -3.930128 29.770391 C -4.9411143 28.515028 -31.690217 28.601475 -32.649668 30.186616 z "
       id="path598"
       sodipodi:nodetypes="csss" />
    <path
       style="fill:url(#linearGradient862);fill-rule:evenodd;stroke:none;stroke-opacity:1;stroke-width:1pt;stroke-linejoin:miter;stroke-linecap:butt;fill-opacity:1;"
       d="M -31.400992 48.084301 C -31.792824 47.716958 -32.235931 32.632807 -31.123509 31.296551 C -30.096665 30.229753 -5.2869599 30.935014 -4.9013203 31.296551 C -4.5470033 31.628722 -26.801232 31.620727 -28.90364 33.377677 C -30.930163 35.091825 -31.052868 48.410667 -31.400992 48.084301 z "
       id="path603"
       sodipodi:nodetypes="cssss" />
  </g>
  <path
     style="fill:url(#linearGradient583);fill-rule:evenodd;stroke:none;stroke-opacity:1;stroke-width:1pt;stroke-linejoin:miter;stroke-linecap:butt;fill-opacity:1;"
     d="M 53.884222 46.811252 C 51.652386 43.196654 44.744786 38.377155 44.638439 38.385591 C 44.5355 38.393757 50.409469 43.776606 52.772891 46.715199 C 53.105773 47.129093 52.631672 48.450644 52.727355 48.443053 C 52.840958 48.434042 54.190207 47.322499 53.884222 46.811252 z "
     id="path665"
     sodipodi:nodetypes="cssss" />
  <path
     style="fill:url(#linearGradient612);fill-rule:evenodd;stroke:none;stroke-opacity:1;stroke-width:1pt;stroke-linejoin:miter;stroke-linecap:butt;fill-opacity:1;"
     d="M 44.037628 42.692279 C 42.282446 42.656334 36.39663 42.15532 36.112172 42.282028 C 35.880044 42.385426 40.398345 43.274436 42.487875 43.382597 C 43.040166 43.411186 44.414685 42.757366 44.037628 42.692279 z "
     id="path666"
     sodipodi:nodetypes="csss" />
  <path
     style="fill:url(#linearGradient583);fill-rule:evenodd;stroke:none;stroke-opacity:1;stroke-width:1pt;stroke-linejoin:miter;stroke-linecap:butt;fill-opacity:1;"
     d="M 53.884222 46.811252 C 51.652386 43.196654 44.744786 38.377155 44.638439 38.385591 C 44.5355 38.393757 50.409469 43.776606 52.772891 46.715199 C 53.105773 47.129093 52.631672 48.450644 52.727355 48.443053 C 52.840958 48.434042 54.190207 47.322499 53.884222 46.811252 z "
     id="path636"
     sodipodi:nodetypes="cssss" />
  <path
     style="fill:url(#linearGradient612);fill-rule:evenodd;stroke:none;stroke-opacity:1;stroke-width:1pt;stroke-linejoin:miter;stroke-linecap:butt;fill-opacity:1;"
     d="M 44.037628 42.692279 C 42.282446 42.656334 36.39663 42.15532 36.112172 42.282028 C 35.880044 42.385426 40.398345 43.274436 42.487875 43.382597 C 43.040166 43.411186 44.414685 42.757366 44.037628 42.692279 z "
     id="path637"
     sodipodi:nodetypes="csss" />
  <path
     d="M 42.182684 28.436376 C 42.182684 36.51761 36.180359 43.076329 28.784679 43.076329 C 21.388892 43.076329 15.386565 36.51761 15.386565 28.436376 C 15.386565 20.355141 21.388892 13.796421 28.784679 13.796421 C 36.180359 13.796421 42.182684 20.355141 42.182684 28.436376 z M 38.862808 28.436376 C 38.862808 34.372175 34.347737 39.189616 28.784679 39.189616 C 23.221513 39.189616 18.706548 34.372175 18.706548 28.436376 C 18.706548 22.500576 23.221513 17.683017 28.784679 17.683017 C 34.347737 17.683017 38.862808 22.500576 38.862808 28.436376 z "
     style="font-size:12;opacity:0.3;fill-rule:evenodd;stroke-width:13.4904;"
     id="path1566" />
  <path
     d="M 41.038785 26.56018 C 41.038785 34.641416 34.654038 41.618009 27.258355 41.618009 C 19.862568 41.618009 13.477819 34.641416 13.477819 26.56018 C 13.477819 18.478947 19.862568 11.502352 27.258355 11.502352 C 34.654038 11.502352 41.038785 18.478947 41.038785 26.56018 z M 36.571641 26.56018 C 36.571641 32.49598 32.821414 36.477676 27.258355 36.477676 C 21.695192 36.477676 17.945072 32.49598 17.945072 26.56018 C 17.945072 20.624382 21.695192 16.642567 27.258355 16.642567 C 32.821414 16.642567 36.571641 20.624382 36.571641 26.56018 z "
     style="font-size:12;fill:url(#linearGradient636);fill-rule:evenodd;stroke:#261933;stroke-width:2.11537;"
     id="path1525"
     sodipodi:nodetypes="cccccccccs" />
  <path
     d="M 36.507327 40.01171 C 36.234612 39.425666 38.455471 36.749314 38.991561 37.056486 C 40.911576 38.155818 42.644725 41.390891 44.822565 43.048852 C 49.278622 46.441193 55.556207 48.465255 58.893484 52.207916 C 59.965548 53.410112 58.964839 57.219375 57.91489 58.178106 C 56.763706 59.229623 52.721549 60.607715 51.343302 59.420898 C 47.511788 56.12239 44.896261 50.08686 41.473823 45.609288 C 39.950938 43.617 37.377633 41.882523 36.507327 40.01171 z "
     style="font-size:12;opacity:0.3;fill-rule:evenodd;stroke-width:13.4904;"
     id="path1565"
     sodipodi:nodetypes="ccsccccc" />
  <ellipse
     cx="373.574921"
     cy="328.786621"
     rx="115.024445"
     ry="115.024429"
     transform="matrix(7.739929e-2,0.000000,0.000000,8.258402e-2,-1.656177,-0.592278)"
     style="font-size:12;fill-rule:evenodd;stroke-width:1pt;fill:url(#linearGradient862);"
     id="path1521" />
  <path
     d="M 35.462111 36.81348 C 35.189394 36.227438 37.274997 33.846678 37.811086 34.153848 C 39.731102 35.25318 41.464259 38.488238 43.64209 40.146214 C 48.098158 43.538541 54.375727 45.562618 57.713019 49.305278 C 58.785082 50.507474 57.513849 54.316735 56.4639 55.275468 C 55.312718 56.326984 51.676334 57.409486 50.298086 56.222667 C 46.466571 52.92416 43.851047 46.88863 40.428605 42.411059 C 38.90572 40.418773 36.332415 38.684295 35.462111 36.81348 z "
     style="font-size:12;fill:url(#linearGradient635);fill-rule:evenodd;stroke:#261933;stroke-width:2.11537;"
     id="path1531"
     sodipodi:nodetypes="cccccccc" />
  <path
     d="M 16.19714 32.011076 C 15.243162 29.926257 14.289291 23.046526 18.391323 17.730344 C 23.351923 12.831177 28.503343 13.56071 30.60201 13.873468 C 27.26314 14.081973 23.828861 13.560828 19.345301 18.355863 C 15.147861 22.838019 16.292549 29.509367 16.19714 32.011076 z "
     style="font-size:12;opacity:0.7;fill-rule:evenodd;stroke:none;stroke-width:1pt;fill:url(#linearGradient860);"
     id="path1533" />
  <path
     d="M 36.541387 36.606459 C 36.531689 36.537712 36.727299 36.178203 36.828888 36.26375 C 37.755249 37.044409 39.616132 39.140851 39.62512 39.204948 C 39.633517 39.264649 37.82053 37.426531 36.88116 36.635017 C 36.792581 36.560324 36.549193 36.661509 36.541387 36.606459 z "
     style="font-size:12;opacity:0.7;fill-rule:evenodd;stroke:none;stroke-width:1pt;fill:url(#linearGradient861);"
     id="path1538" />
</svg>
