<?xml version="1.0" encoding="UTF-8" standalone="no"?>
<!DOCTYPE svg PUBLIC "-//W3C//DTD SVG 20010904//EN"
"http://www.w3.org/TR/2001/REC-SVG-20010904/DTD/svg10.dtd">
<!-- Created with Inkscape (http://www.inkscape.org/) -->
<svg
   id="svg1"
   sodipodi:version="0.32"
   inkscape:version="0.40"
   width="48.000000pt"
   height="48.000000pt"
   sodipodi:docbase="/home/andrew/lila"
   sodipodi:docname="balsa_forward.svg"
   xmlns="http://www.w3.org/2000/svg"
   xmlns:cc="http://web.resource.org/cc/"
   xmlns:inkscape="http://www.inkscape.org/namespaces/inkscape"
   xmlns:sodipodi="http://sodipodi.sourceforge.net/DTD/sodipodi-0.dtd"
   xmlns:rdf="http://www.w3.org/1999/02/22-rdf-syntax-ns#"
   xmlns:dc="http://purl.org/dc/elements/1.1/"
   xmlns:xlink="http://www.w3.org/1999/xlink">
  <metadata
     id="metadata1160">
    <rdf:RDF
       id="RDF1161">
      <cc:Work
         rdf:about=""
         id="Work1162">
        <dc:format
           id="format1163">image/svg+xml</dc:format>
        <dc:type
           id="type1165"
           rdf:resource="http://purl.org/dc/dcmitype/StillImage" />
      </cc:Work>
    </rdf:RDF>
  </metadata>
  <defs
     id="defs3">
    <linearGradient
       inkscape:collect="always"
       xlink:href="#linearGradient584"
       id="linearGradient1892"
       x1="9.0543469"
       y1="7.9058657"
       x2="38.185177"
       y2="36.802136"
       gradientTransform="matrix(0.448108,0.000000,0.000000,0.557901,14.67390,14.97287)"
       gradientUnits="userSpaceOnUse" />
    <linearGradient
       inkscape:collect="always"
       xlink:href="#linearGradient578"
       id="linearGradient1891"
       x1="4.9496509"
       y1="5.4596280"
       x2="55.299973"
       y2="54.677450"
       gradientTransform="matrix(0.496406,0.000000,0.000000,0.503619,14.67390,14.97287)"
       gradientUnits="userSpaceOnUse" />
    <linearGradient
       id="linearGradient599">
      <stop
         style="stop-color:#ffffff;stop-opacity:1;"
         offset="0.00000000"
         id="stop600" />
      <stop
         style="stop-color:#d9cce6;stop-opacity:1;"
         offset="1.00000000"
         id="stop601" />
    </linearGradient>
    <linearGradient
       id="linearGradient584">
      <stop
         style="stop-color:#ffffff;stop-opacity:1;"
         offset="0.00000000"
         id="stop585" />
      <stop
         style="stop-color:#ffffff;stop-opacity:0;"
         offset="1.00000000"
         id="stop586" />
    </linearGradient>
    <linearGradient
       id="linearGradient578">
      <stop
         style="stop-color:#d9cce6;stop-opacity:1;"
         offset="0.00000000"
         id="stop579" />
      <stop
         style="stop-color:#73667f;stop-opacity:1;"
         offset="1.00000000"
         id="stop580" />
    </linearGradient>
    <linearGradient
       xlink:href="#linearGradient599"
       id="linearGradient581"
       x1="4.5925566"
       y1="4.3577366"
       x2="55.442810"
       y2="54.975880"
       gradientTransform="scale(0.992813,1.007239)"
       gradientUnits="userSpaceOnUse" />
    <linearGradient
       xlink:href="#linearGradient599"
       id="linearGradient583"
       x1="8.5246955"
       y1="7.4745783"
       x2="37.960076"
       y2="37.192990"
       gradientTransform="scale(0.896216,1.115802)"
       gradientUnits="userSpaceOnUse" />
    <linearGradient
       xlink:href="#linearGradient599"
       id="linearGradient860"
       x1="0.00000000"
       y1="0.00000000"
       x2="0.98905110"
       y2="0.97457629" />
    <linearGradient
       xlink:href="#linearGradient584"
       id="linearGradient861"
       x1="-0.36956522"
       y1="-0.37500000"
       x2="0.81159419"
       y2="0.76562500" />
    <linearGradient
       xlink:href="#linearGradient584"
       id="linearGradient862"
       x1="-0.08500000"
       y1="-0.13281250"
       x2="0.99500000"
       y2="0.96875000" />
    <radialGradient
       xlink:href="#linearGradient578"
       id="radialGradient595"
       cx="0.33846155"
       cy="0.34375000"
       r="0.66501766"
       fx="0.33076921"
       fy="0.33593750" />
    <linearGradient
       inkscape:collect="always"
       xlink:href="#linearGradient599"
       id="linearGradient1188"
       x1="0.91550749"
       y1="4.1149543"
       x2="25.931114"
       y2="29.016375"
       gradientTransform="scale(1.092626,0.915226)"
       gradientUnits="userSpaceOnUse" />
    <linearGradient
       inkscape:collect="always"
       xlink:href="#linearGradient599"
       id="linearGradient1189"
       x1="0.72228011"
       y1="18.032919"
       x2="17.643449"
       y2="34.706446"
       gradientTransform="scale(1.303241,0.767318)"
       gradientUnits="userSpaceOnUse" />
    <linearGradient
       inkscape:collect="always"
       xlink:href="#linearGradient599"
       id="linearGradient1190"
       x1="5.0333643"
       y1="4.5306602"
       x2="23.086508"
       y2="22.757391"
       gradientTransform="scale(1.203773,0.830721)"
       gradientUnits="userSpaceOnUse" />
    <linearGradient
       inkscape:collect="always"
       xlink:href="#linearGradient584"
       id="linearGradient1191"
       x1="0.71294369"
       y1="5.4813294"
       x2="19.078900"
       y2="24.213967"
       gradientTransform="scale(1.393138,0.717804)"
       gradientUnits="userSpaceOnUse" />
    <linearGradient
       inkscape:collect="always"
       xlink:href="#linearGradient599"
       id="linearGradient1894"
       gradientUnits="userSpaceOnUse"
       gradientTransform="matrix(0.738733,0.000000,0.000000,0.919733,10.90254,10.29523)"
       x1="8.5246955"
       y1="7.4745783"
       x2="37.960076"
       y2="37.192990" />
    <linearGradient
       inkscape:collect="always"
       xlink:href="#linearGradient578"
       id="linearGradient1895"
       gradientUnits="userSpaceOnUse"
       gradientTransform="matrix(0.818356,0.000000,0.000000,0.830247,10.90254,10.29523)"
       x1="4.5925565"
       y1="4.3577366"
       x2="55.442810"
       y2="54.975880" />
    <linearGradient
       inkscape:collect="always"
       xlink:href="#linearGradient578"
       id="linearGradient2527"
       gradientUnits="userSpaceOnUse"
       gradientTransform="matrix(0.818356,0.000000,0.000000,0.830247,10.90254,10.29523)"
       x1="4.5925565"
       y1="4.3577366"
       x2="55.442810"
       y2="54.975880" />
    <linearGradient
       inkscape:collect="always"
       xlink:href="#linearGradient599"
       id="linearGradient2528"
       gradientUnits="userSpaceOnUse"
       gradientTransform="matrix(0.738733,0.000000,0.000000,0.919733,10.90254,10.29523)"
       x1="8.5246955"
       y1="7.4745783"
       x2="37.960076"
       y2="37.192990" />
    <linearGradient
       inkscape:collect="always"
       xlink:href="#linearGradient578"
       id="linearGradient1908"
       gradientUnits="userSpaceOnUse"
       gradientTransform="matrix(0.496406,0.000000,0.000000,0.503619,14.67390,14.97287)"
       x1="4.9496509"
       y1="5.4596280"
       x2="55.299973"
       y2="54.677450" />
    <linearGradient
       inkscape:collect="always"
       xlink:href="#linearGradient584"
       id="linearGradient1909"
       gradientUnits="userSpaceOnUse"
       gradientTransform="matrix(0.448108,0.000000,0.000000,0.557901,14.67390,14.97287)"
       x1="9.0543469"
       y1="7.9058657"
       x2="38.185177"
       y2="36.802136" />
  </defs>
  <sodipodi:namedview
     id="base"
     pagecolor="#ffffff"
     bordercolor="#666666"
     borderopacity="1.0"
     inkscape:pageopacity="0.0"
     inkscape:pageshadow="2"
     inkscape:zoom="11.354167"
     inkscape:cx="24.123306"
     inkscape:cy="23.574604"
     inkscape:window-width="640"
     inkscape:window-height="757"
     inkscape:window-x="64"
     inkscape:window-y="0"
     showguides="true"
     inkscape:guide-bbox="true"
     inkscape:current-layer="svg1">
    <sodipodi:guide
       orientation="horizontal"
       position="54.605505"
       id="guide1181" />
  </sodipodi:namedview>
  <path
     style="font-size:12.000000;fill:#000000;fill-opacity:0.29999998;fill-rule:evenodd;stroke:none;stroke-width:1.4514248;"
     d="M 1.5270214,21.050941 C 2.1486486,22.265374 22.256083,29.302837 23.633580,28.556483 C 25.024647,27.891831 30.186303,14.474746 29.258403,13.082196 C 28.348618,11.582128 8.7046886,5.0603573 7.0833969,5.4326072 C 5.5399625,5.7314170 0.86188166,19.906638 1.5270214,21.050941 z "
     id="path1435"
     sodipodi:nodetypes="cssss"
     transform="matrix(2.010763,0.000000,0.000000,2.010763,-0.473689,-2.549703)" />
  <path
     style="font-size:12.000000;fill:url(#linearGradient1188);fill-rule:evenodd;stroke:#261933;stroke-width:0.93248185;stroke-miterlimit:4.0000000;stroke-dasharray:none;"
     d="M 1.5928059,19.186357 C 2.1848241,20.342945 21.334508,27.045202 22.646391,26.334398 C 23.971201,25.701404 28.886998,12.923398 28.003296,11.597177 C 27.136845,10.168560 8.4285886,3.9574319 6.8845223,4.3119513 C 5.4146041,4.5965278 0.95934761,18.096559 1.5928059,19.186357 z "
     id="path596"
     sodipodi:nodetypes="cssss"
     transform="matrix(2.010763,0.000000,0.000000,2.010763,-0.473689,-2.549703)" />
  <path
     style="font-size:12.000000;fill:url(#linearGradient1189);fill-rule:evenodd;stroke:#261933;stroke-width:0.93248185;stroke-miterlimit:4.0000000;stroke-dasharray:none;"
     d="M 1.4916193,19.150359 C 0.95459984,18.145131 11.912091,13.321529 15.544779,14.574488 C 18.917954,15.737938 23.743434,25.863708 22.509207,26.399586 C 21.371607,26.973763 1.5551732,20.051530 1.4916193,19.150359 z "
     id="path597"
     sodipodi:nodetypes="csss"
     transform="matrix(2.010763,0.000000,0.000000,2.010763,-0.473689,-2.549703)" />
  <path
     style="font-size:12.000000;fill:url(#linearGradient1190);fill-rule:evenodd;stroke:#261933;stroke-width:0.93248185;stroke-miterlimit:4.0000000;stroke-dasharray:none;"
     d="M 6.7473378,4.3771391 C 5.6898254,5.0346975 10.191179,17.286613 13.700110,18.477953 C 17.209041,19.669293 28.294585,12.684290 27.800923,11.525181 C 27.389314,10.347314 7.8583621,3.4700121 6.7473378,4.3771391 z "
     id="path598"
     sodipodi:nodetypes="csss"
     transform="matrix(2.010763,0.000000,0.000000,2.010763,-0.473689,-2.549703)" />
  <path
     style="fill:url(#linearGradient1191);fill-rule:evenodd;stroke-width:1.0000000pt;"
     d="M 3.0142647,17.754172 C 2.8238069,17.384598 6.4143912,6.2685315 7.5724036,5.5826101 C 8.5980888,5.0710043 26.509191,12.022513 26.696639,12.386245 C 26.868862,12.720434 10.640594,6.9404988 8.6514163,7.6763759 C 6.7286882,8.4007261 3.1834775,18.082520 3.0142647,17.754172 z "
     id="path603"
     sodipodi:nodetypes="cssss"
     transform="matrix(2.010763,0.000000,0.000000,2.010763,-0.473689,-2.549703)" />
  <path
     style="font-size:12.000000;opacity:0.30267498;fill:#000000;fill-opacity:1.0000000;fill-rule:evenodd;stroke:none;stroke-width:14.847900;"
     d="M 16.960604,37.855074 C 16.088371,37.309677 16.412693,24.098169 16.960604,23.368369 C 17.612212,22.536984 28.218024,23.910295 29.085348,23.368369 C 29.838266,22.951449 28.349253,16.372193 29.085348,16.597407 C 29.769678,16.831707 43.820229,27.236835 43.886984,30.139330 C 43.856894,32.871810 30.047651,44.255463 29.085348,44.468571 C 28.237285,44.636904 29.598770,38.030576 28.927883,37.540146 C 28.083149,36.890288 17.901246,38.512869 16.960604,37.855074 z "
     id="path617"
     sodipodi:nodetypes="csssssss"
     transform="translate(16.11302,15.52827)" />
  <path
     style="font-size:12.000000;fill:url(#linearGradient1908);fill-rule:evenodd;stroke:#261933;stroke-width:1.2500000;stroke-miterlimit:4.0000000;"
     d="M 17.904043,36.672814 C 17.123101,36.184500 17.413478,24.355763 17.904043,23.702347 C 18.487450,22.957978 27.983214,24.187553 28.759760,23.702347 C 29.433875,23.329064 28.100708,17.438419 28.759760,17.640062 C 29.372466,17.849839 41.952429,26.989167 42.012194,29.764631 C 41.985200,32.299503 29.621346,42.403311 28.759760,42.594115 C 28.000460,42.744829 29.219445,36.829947 28.618777,36.390848 C 27.862457,35.809006 18.746233,37.261762 17.904043,36.672814 z "
     id="path589"
     sodipodi:nodetypes="csssssss"
     transform="translate(16.11302,15.52827)" />
  <path
     style="fill:url(#linearGradient1909);fill-opacity:1.0000000;fill-rule:evenodd;stroke:none;stroke-width:1.0000000pt;stroke-linecap:butt;stroke-linejoin:miter;stroke-opacity:1.0000000;"
     d="M 18.645173,35.980712 C 18.422026,35.690621 18.400102,25.367683 18.895145,24.607000 C 19.500733,23.801440 27.436847,25.786751 29.768914,24.607000 C 30.978113,23.995288 29.454372,19.514204 29.518942,19.232609 C 29.600574,18.718588 31.861727,20.569716 32.018659,20.857424 C 32.111699,21.027998 30.404338,20.203533 30.268857,20.607453 C 30.210632,21.153670 31.851065,25.005629 30.768800,25.606887 C 28.476447,26.880417 22.028294,24.213740 20.145004,26.231817 C 18.951033,27.520184 18.838646,36.232227 18.645173,35.980712 z "
     id="path618"
     sodipodi:nodetypes="cssssssss"
     transform="translate(16.11302,15.52827)" />
  <path
     style="opacity:0.20178296;fill:#261e2e;fill-opacity:1.0000000;fill-rule:evenodd;stroke:none;stroke-width:1.0000000pt;stroke-linecap:butt;stroke-linejoin:miter;stroke-opacity:1.0000000;"
     d="M 17.520301,30.043885 C 18.512107,29.932264 41.169390,29.307567 41.892539,29.981392 C 42.490239,30.475828 31.913864,40.813386 28.894013,42.292497 C 27.830993,42.813160 30.111781,36.870815 28.831520,36.230684 C 26.528854,35.079350 20.785030,37.530497 18.145230,36.480656 C 17.584271,36.284123 16.866359,30.124514 17.520301,30.043885 z "
     id="path644"
     sodipodi:nodetypes="csssss"
     transform="translate(16.11302,15.52827)" />
</svg>
