<?xml version="1.0" encoding="UTF-8" standalone="no"?>
<!DOCTYPE svg PUBLIC "-//W3C//DTD SVG 20010904//EN"
"http://www.w3.org/TR/2001/REC-SVG-20010904/DTD/svg10.dtd">
<!-- Created with Inkscape (http://www.inkscape.org/) -->
<svg
   id="svg1"
   sodipodi:version="0.32"
   inkscape:version="0.37"
   width="48pt"
   height="48pt"
   sodipodi:docbase="/home/tom"
   sodipodi:docname="mail_replyall.svg"
   xmlns="http://www.w3.org/2000/svg"
   xmlns:inkscape="http://www.inkscape.org/namespaces/inkscape"
   xmlns:sodipodi="http://sodipodi.sourceforge.net/DTD/sodipodi-0.dtd"
   xmlns:xlink="http://www.w3.org/1999/xlink">
  <defs
     id="defs3">
    <linearGradient
       id="linearGradient599">
      <stop
         style="stop-color:#ffffff;stop-opacity:1;"
         offset="0.00000000"
         id="stop600" />
      <stop
         style="stop-color:#d9cce6;stop-opacity:1;"
         offset="1.00000000"
         id="stop601" />
    </linearGradient>
    <linearGradient
       id="linearGradient584">
      <stop
         style="stop-color:#ffffff;stop-opacity:1;"
         offset="0.00000000"
         id="stop585" />
      <stop
         style="stop-color:#ffffff;stop-opacity:0;"
         offset="1.00000000"
         id="stop586" />
    </linearGradient>
    <linearGradient
       id="linearGradient578">
      <stop
         style="stop-color:#d9cce6;stop-opacity:1;"
         offset="0.00000000"
         id="stop579" />
      <stop
         style="stop-color:#73667f;stop-opacity:1;"
         offset="1.00000000"
         id="stop580" />
    </linearGradient>
    <linearGradient
       xlink:href="#linearGradient599"
       id="linearGradient581"
       x1="0.00000000"
       y1="-0.00000000"
       x2="0.98888886"
       y2="0.98437500" />
    <linearGradient
       xlink:href="#linearGradient599"
       id="linearGradient583"
       x1="-0.00000000"
       y1="0.00000000"
       x2="0.97500002"
       y2="0.98437500" />
    <linearGradient
       xlink:href="#linearGradient599"
       id="linearGradient860"
       x1="0.00000000"
       y1="0.00000000"
       x2="0.98905110"
       y2="0.97457629" />
    <linearGradient
       xlink:href="#linearGradient578"
       id="linearGradient861"
       x1="0.00000000"
       y1="-0.00000000"
       x2="0.98888886"
       y2="0.98437500" />
    <linearGradient
       xlink:href="#linearGradient584"
       id="linearGradient862"
       x1="-0.08500000"
       y1="-0.13281250"
       x2="0.99500000"
       y2="0.96875000" />
    <radialGradient
       xlink:href="#linearGradient578"
       id="radialGradient595"
       cx="0.33846155"
       cy="0.34375000"
       r="0.66501766"
       fx="0.33076921"
       fy="0.33593750" />
  </defs>
  <sodipodi:namedview
     id="base"
     pagecolor="#ffffff"
     bordercolor="#666666"
     borderopacity="1.0"
     inkscape:pageopacity="0.0"
     inkscape:pageshadow="2"
     inkscape:zoom="5.64233871"
     inkscape:cx="32.4215132"
     inkscape:cy="26.5535832"
     inkscape:window-width="640"
     inkscape:window-height="535"
     inkscape:window-x="169"
     inkscape:window-y="128" />
  <g
     id="g604"
     transform="matrix(1.691644,2.876924e-2,-3.209944e-2,1.516143,61.53657,-30.31157)">
    <path
       style="font-size:12;fill:url(#linearGradient581);fill-rule:evenodd;stroke:#261933;stroke-width:1.875;stroke-dasharray:none;"
       d="M -32.510926 50.442911 C -31.289577 51.594259 -5.0803113 51.459852 -3.7913862 50.026685 C -2.4530372 48.682625 -2.0028341 31.001903 -3.6526445 29.770391 C -5.3257956 28.406784 -30.785139 28.94781 -32.510926 30.047875 C -34.176752 31.030706 -33.753792 49.390797 -32.510926 50.442911 z "
       id="path596"
       sodipodi:nodetypes="cssss" />
    <path
       style="font-size:12;fill:url(#linearGradient860);fill-rule:evenodd;stroke:#261933;stroke-width:1.875;stroke-dasharray:none;"
       d="M -32.649668 50.442911 C -33.738539 49.45197 -22.490714 38.836565 -17.526818 38.788604 C -12.917534 38.74407 -2.6599755 48.978789 -3.930128 50.165427 C -5.066091 51.35684 -32.182111 51.512214 -32.649668 50.442911 z "
       id="path597"
       sodipodi:nodetypes="csss" />
    <path
       style="font-size:12;fill:url(#linearGradient583);fill-rule:evenodd;stroke:#261933;stroke-width:1.875;stroke-dasharray:none;"
       d="M -32.649668 30.186616 C -33.652052 31.444835 -22.868375 44.407645 -18.081785 44.338274 C -13.295195 44.268903 -2.8273979 30.967397 -3.930128 29.770391 C -4.9411143 28.515028 -31.690217 28.601475 -32.649668 30.186616 z "
       id="path598"
       sodipodi:nodetypes="csss" />
    <path
       style="fill:url(#linearGradient862);fill-rule:evenodd;stroke:none;stroke-opacity:1;stroke-width:1pt;stroke-linejoin:miter;stroke-linecap:butt;fill-opacity:1;"
       d="M -31.400992 48.084301 C -31.792824 47.716958 -32.235931 32.632807 -31.123509 31.296551 C -30.096665 30.229753 -5.2869599 30.935014 -4.9013203 31.296551 C -4.5470033 31.628722 -26.801232 31.620727 -28.90364 33.377677 C -30.930163 35.091825 -31.052868 48.410667 -31.400992 48.084301 z "
       id="path603"
       sodipodi:nodetypes="cssss" />
  </g>
  <path
     style="font-size:12;fill:url(#linearGradient861);fill-rule:evenodd;stroke:#261933;stroke-width:0.719588;"
     d="M 30.31691 51.3872 C 30.921957 51.003667 30.45898 42.115146 30.059879 41.634079 C 29.585896 41.086564 22.135602 42.209897 21.514724 41.8613 C 20.976693 41.59472 21.909372 37.137356 21.394589 37.302775 C 20.916452 37.473341 11.195153 44.608954 11.20311 46.697211 C 11.274591 48.602739 21.207111 55.941493 21.889093 56.066935 C 22.48977 56.164371 21.413025 51.742198 21.877143 51.399447 C 22.460956 50.946102 29.665645 51.847688 30.31691 51.3872 z "
     id="path635"
     sodipodi:nodetypes="csssssss" />
  <path
     style="fill:url(#linearGradient583);fill-rule:evenodd;stroke:none;stroke-opacity:1;stroke-width:1pt;stroke-linejoin:miter;stroke-linecap:butt;fill-opacity:1;"
     d="M 11.85339 46.589713 C 14.085226 42.975115 20.992826 38.155616 21.099173 38.164052 C 21.202112 38.172218 15.328143 43.555067 12.964721 46.49366 C 12.631839 46.907554 13.10594 48.229105 13.010257 48.221514 C 12.896655 48.212503 11.547405 47.10096 11.85339 46.589713 z "
     id="path636"
     sodipodi:nodetypes="cssss" />
  <path
     style="fill:url(#linearGradient612);fill-rule:evenodd;stroke:none;stroke-opacity:1;stroke-width:1pt;stroke-linejoin:miter;stroke-linecap:butt;fill-opacity:1;"
     d="M 21.699984 42.47074 C 23.455166 42.434795 29.340982 41.933781 29.62544 42.060489 C 29.857568 42.163887 25.339267 43.052897 23.249737 43.161058 C 22.697446 43.189647 21.322927 42.535827 21.699984 42.47074 z "
     id="path637"
     sodipodi:nodetypes="csss" />
  <path
     style="font-size:12;fill:url(#linearGradient861);fill-rule:evenodd;stroke:#261933;stroke-width:0.719588;"
     d="M 20.569179 51.3872 C 21.174226 51.003667 20.711249 42.115146 20.312148 41.634079 C 19.838165 41.086564 12.387871 42.209897 11.766993 41.8613 C 11.228962 41.59472 12.161641 37.137356 11.646858 37.302775 C 11.168721 37.473341 1.4474222 44.608954 1.4553791 46.697211 C 1.5268595 48.602739 11.45938 55.941493 12.141362 56.066935 C 12.742039 56.164371 11.665294 51.742198 12.129412 51.399447 C 12.713225 50.946102 19.917914 51.847688 20.569179 51.3872 z "
     id="path589"
     sodipodi:nodetypes="csssssss" />
  <path
     style="fill:url(#linearGradient583);fill-rule:evenodd;stroke:none;stroke-opacity:1;stroke-width:1pt;stroke-linejoin:miter;stroke-linecap:butt;fill-opacity:1;"
     d="M 2.1056589 46.589713 C 4.337495 42.975115 11.245095 38.155616 11.351442 38.164052 C 11.454381 38.172218 5.5804124 43.555067 3.2169904 46.49366 C 2.8841077 46.907554 3.3582094 48.229105 3.2625263 48.221514 C 3.1489235 48.212503 1.7996737 47.10096 2.1056589 46.589713 z "
     id="path665"
     sodipodi:nodetypes="cssss" />
  <path
     style="fill:url(#linearGradient612);fill-rule:evenodd;stroke:none;stroke-opacity:1;stroke-width:1pt;stroke-linejoin:miter;stroke-linecap:butt;fill-opacity:1;"
     d="M 11.952253 42.47074 C 13.707435 42.434795 19.593251 41.933781 19.877709 42.060489 C 20.109837 42.163887 15.591536 43.052897 13.502006 43.161058 C 12.949715 43.189647 11.575196 42.535827 11.952253 42.47074 z "
     id="path666"
     sodipodi:nodetypes="csss" />
</svg>
