<?xml version="1.0" encoding="UTF-8" standalone="no"?>
<!DOCTYPE svg PUBLIC "-//W3C//DTD SVG 20010904//EN"
"http://www.w3.org/TR/2001/REC-SVG-20010904/DTD/svg10.dtd">
<!-- Created with Inkscape (http://www.inkscape.org/) -->
<svg
   id="svg1"
   sodipodi:version="0.32"
   inkscape:version="0.40"
   width="48.000000pt"
   height="48.000000pt"
   sodipodi:docbase="/home/andrew/lila"
   sodipodi:docname="balsa_send.svg"
   xmlns="http://www.w3.org/2000/svg"
   xmlns:cc="http://web.resource.org/cc/"
   xmlns:inkscape="http://www.inkscape.org/namespaces/inkscape"
   xmlns:sodipodi="http://sodipodi.sourceforge.net/DTD/sodipodi-0.dtd"
   xmlns:rdf="http://www.w3.org/1999/02/22-rdf-syntax-ns#"
   xmlns:dc="http://purl.org/dc/elements/1.1/"
   xmlns:xlink="http://www.w3.org/1999/xlink">
  <metadata
     id="metadata1160">
    <rdf:RDF
       id="RDF1161">
      <cc:Work
         rdf:about=""
         id="Work1162">
        <dc:format
           id="format1163">image/svg+xml</dc:format>
        <dc:type
           id="type1165"
           rdf:resource="http://purl.org/dc/dcmitype/StillImage" />
      </cc:Work>
    </rdf:RDF>
  </metadata>
  <defs
     id="defs3">
    <linearGradient
       id="linearGradient599">
      <stop
         style="stop-color:#ffffff;stop-opacity:1;"
         offset="0.00000000"
         id="stop600" />
      <stop
         style="stop-color:#d9cce6;stop-opacity:1;"
         offset="1.00000000"
         id="stop601" />
    </linearGradient>
    <linearGradient
       id="linearGradient584">
      <stop
         style="stop-color:#ffffff;stop-opacity:1;"
         offset="0.00000000"
         id="stop585" />
      <stop
         style="stop-color:#ffffff;stop-opacity:0;"
         offset="1.00000000"
         id="stop586" />
    </linearGradient>
    <linearGradient
       id="linearGradient578">
      <stop
         style="stop-color:#d9cce6;stop-opacity:1;"
         offset="0.00000000"
         id="stop579" />
      <stop
         style="stop-color:#73667f;stop-opacity:1;"
         offset="1.00000000"
         id="stop580" />
    </linearGradient>
    <linearGradient
       xlink:href="#linearGradient599"
       id="linearGradient581"
       x1="3.7925978"
       y1="4.1747480"
       x2="54.728393"
       y2="54.878042"
       gradientTransform="scale(1.007239,0.992813)"
       gradientUnits="userSpaceOnUse" />
    <linearGradient
       xlink:href="#linearGradient599"
       id="linearGradient583"
       x1="56.997281"
       y1="10.558986"
       x2="63.834787"
       y2="17.462238"
       gradientTransform="scale(0.335628,2.979491)"
       gradientUnits="userSpaceOnUse" />
    <linearGradient
       xlink:href="#linearGradient599"
       id="linearGradient860"
       x1="0.00000000"
       y1="0.00000000"
       x2="0.98905110"
       y2="0.97457629" />
    <linearGradient
       xlink:href="#linearGradient584"
       id="linearGradient861"
       x1="-0.36956522"
       y1="-0.37500000"
       x2="0.81159419"
       y2="0.76562500" />
    <linearGradient
       xlink:href="#linearGradient584"
       id="linearGradient862"
       x1="-0.08500000"
       y1="-0.13281250"
       x2="0.99500000"
       y2="0.96875000" />
    <radialGradient
       xlink:href="#linearGradient578"
       id="radialGradient595"
       cx="0.33846155"
       cy="0.34375000"
       r="0.66501766"
       fx="0.33076921"
       fy="0.33593750" />
    <linearGradient
       inkscape:collect="always"
       xlink:href="#linearGradient599"
       id="linearGradient1188"
       x1="0.91550749"
       y1="4.1149543"
       x2="25.931114"
       y2="29.016375"
       gradientTransform="scale(1.092626,0.915226)"
       gradientUnits="userSpaceOnUse" />
    <linearGradient
       inkscape:collect="always"
       xlink:href="#linearGradient599"
       id="linearGradient1189"
       x1="0.72228011"
       y1="18.032919"
       x2="17.643449"
       y2="34.706446"
       gradientTransform="scale(1.303241,0.767318)"
       gradientUnits="userSpaceOnUse" />
    <linearGradient
       inkscape:collect="always"
       xlink:href="#linearGradient599"
       id="linearGradient1190"
       x1="5.0333643"
       y1="4.5306602"
       x2="23.086508"
       y2="22.757391"
       gradientTransform="scale(1.203773,0.830721)"
       gradientUnits="userSpaceOnUse" />
    <linearGradient
       inkscape:collect="always"
       xlink:href="#linearGradient584"
       id="linearGradient1191"
       x1="0.71294369"
       y1="5.4813294"
       x2="19.078900"
       y2="24.213967"
       gradientTransform="scale(1.393138,0.717804)"
       gradientUnits="userSpaceOnUse" />
    <linearGradient
       xlink:href="#linearGradient584"
       id="linearGradient614"
       x1="7.0530323"
       y1="9.3276539"
       x2="34.944145"
       y2="36.071073"
       gradientTransform="scale(1.160569,0.861646)"
       gradientUnits="userSpaceOnUse" />
    <linearGradient
       xlink:href="#linearGradient584"
       id="linearGradient612"
       x1="8.3515288"
       y1="-5.2807980"
       x2="26.605192"
       y2="22.513647"
       gradientTransform="scale(1.015051,0.985172)"
       gradientUnits="userSpaceOnUse" />
    <linearGradient
       xlink:href="#linearGradient584"
       id="linearGradient1155"
       x1="0.01538462"
       y1="0.01428571"
       x2="0.96923077"
       y2="0.98571426" />
    <linearGradient
       xlink:href="#linearGradient578"
       id="linearGradient1154"
       x1="0.00694444"
       y1="0.02142857"
       x2="0.98611110"
       y2="0.97857141" />
    <linearGradient
       id="linearGradient1151">
      <stop
         style="stop-color:#d9cce6;stop-opacity:1;"
         offset="0.00000000"
         id="stop1152" />
      <stop
         style="stop-color:#73667f;stop-opacity:1;"
         offset="1.00000000"
         id="stop1153" />
    </linearGradient>
    <linearGradient
       id="linearGradient1148">
      <stop
         style="stop-color:#ffffff;stop-opacity:1;"
         offset="0.00000000"
         id="stop1149" />
      <stop
         style="stop-color:#ffffff;stop-opacity:0;"
         offset="1.00000000"
         id="stop1150" />
    </linearGradient>
    <linearGradient
       inkscape:collect="always"
       xlink:href="#linearGradient1151"
       id="linearGradient1105"
       gradientUnits="userSpaceOnUse"
       gradientTransform="scale(1.007239,0.992813)"
       x1="3.4706728"
       y1="5.1652875"
       x2="54.978794"
       y2="54.692303" />
    <linearGradient
       inkscape:collect="always"
       xlink:href="#linearGradient584"
       id="linearGradient1106"
       gradientUnits="userSpaceOnUse"
       gradientTransform="scale(1.160569,0.861646)"
       x1="7.0530323"
       y1="9.3276539"
       x2="34.944145"
       y2="36.071073" />
    <linearGradient
       xlink:href="#linearGradient584"
       id="linearGradient1181"
       x1="0.01052632"
       y1="0.02857143"
       x2="0.97894734"
       y2="0.95714283" />
    <linearGradient
       xlink:href="#linearGradient584"
       id="linearGradient1180"
       x1="-0.00000000"
       y1="-0.00000000"
       x2="0.95890409"
       y2="0.96428573" />
    <linearGradient
       xlink:href="#linearGradient584"
       id="linearGradient1179"
       x1="-0.87500000"
       y1="0.00000000"
       x2="1.00000000"
       y2="0.99285716" />
    <linearGradient
       xlink:href="#linearGradient578"
       id="linearGradient1178"
       x1="0.00694444"
       y1="0.02142857"
       x2="0.98611110"
       y2="0.97857141" />
    <linearGradient
       id="linearGradient1175">
      <stop
         style="stop-color:#d9cce6;stop-opacity:1;"
         offset="0.00000000"
         id="stop1176" />
      <stop
         style="stop-color:#73667f;stop-opacity:1;"
         offset="1.00000000"
         id="stop1177" />
    </linearGradient>
    <linearGradient
       id="linearGradient1172">
      <stop
         style="stop-color:#ffffff;stop-opacity:1;"
         offset="0.00000000"
         id="stop1173" />
      <stop
         style="stop-color:#ffffff;stop-opacity:0;"
         offset="1.00000000"
         id="stop1174" />
    </linearGradient>
    <linearGradient
       inkscape:collect="always"
       xlink:href="#linearGradient1175"
       id="linearGradient1817"
       gradientTransform="scale(1.007239,0.992813)"
       x1="4.9216871"
       y1="5.1803732"
       x2="56.040833"
       y2="55.302010"
       gradientUnits="userSpaceOnUse" />
    <linearGradient
       inkscape:collect="always"
       xlink:href="#linearGradient1175"
       id="linearGradient1841"
       gradientUnits="userSpaceOnUse"
       gradientTransform="scale(1.007239,0.992813)"
       x1="4.9216871"
       y1="5.1803732"
       x2="56.040833"
       y2="55.302010" />
    <linearGradient
       inkscape:collect="always"
       xlink:href="#linearGradient584"
       id="linearGradient1842"
       gradientUnits="userSpaceOnUse"
       gradientTransform="scale(1.015051,0.985172)"
       x1="8.3515288"
       y1="-5.2807980"
       x2="26.605192"
       y2="22.513647" />
    <linearGradient
       inkscape:collect="always"
       xlink:href="#linearGradient599"
       id="linearGradient1843"
       gradientUnits="userSpaceOnUse"
       gradientTransform="scale(0.335628,2.979491)"
       x1="56.997281"
       y1="10.558986"
       x2="63.834787"
       y2="17.462238" />
  </defs>
  <sodipodi:namedview
     id="base"
     pagecolor="#ffffff"
     bordercolor="#666666"
     borderopacity="1.0"
     inkscape:pageopacity="0.0"
     inkscape:pageshadow="2"
     inkscape:zoom="11.354167"
     inkscape:cx="23.505803"
     inkscape:cy="23.721277"
     inkscape:window-width="640"
     inkscape:window-height="757"
     inkscape:window-x="64"
     inkscape:window-y="0"
     showguides="true"
     inkscape:guide-bbox="true"
     inkscape:current-layer="svg1">
    <sodipodi:guide
       orientation="horizontal"
       position="54.605505"
       id="guide1181" />
  </sodipodi:namedview>
  <path
     style="font-size:12.000000;fill:#000000;fill-opacity:0.29999998;fill-rule:evenodd;stroke:none;stroke-width:1.4514248"
     d="M 2.0463304,38.017282 C 3.2962754,40.459219 43.727561,54.609890 46.497381,53.109149 C 49.294487,51.772691 59.673353,24.794113 57.807566,21.994025 C 55.978204,18.977744 16.478918,5.8640083 13.218885,6.6125147 C 10.115404,7.2133504 0.70889204,35.716360 2.0463304,38.017282 z "
     id="path1435"
     sodipodi:nodetypes="cssss" />
  <path
     style="font-size:12.000000;fill:url(#linearGradient1188);fill-rule:evenodd;stroke:#261933;stroke-width:0.93248185;stroke-miterlimit:4.0000000;stroke-dasharray:none;"
     d="M 1.5928059,19.186357 C 2.1848241,20.342945 21.334508,27.045202 22.646391,26.334398 C 23.971201,25.701404 28.886998,12.923398 28.003296,11.597177 C 27.136845,10.168560 8.4285886,3.9574319 6.8845223,4.3119513 C 5.4146041,4.5965278 0.95934761,18.096559 1.5928059,19.186357 z "
     id="path596"
     sodipodi:nodetypes="cssss"
     transform="matrix(2.010763,0.000000,0.000000,2.010763,-0.473689,-2.549703)" />
  <path
     style="font-size:12.000000;fill:url(#linearGradient1189);fill-rule:evenodd;stroke:#261933;stroke-width:0.93248185;stroke-miterlimit:4.0000000;stroke-dasharray:none;"
     d="M 1.4916193,19.150359 C 0.95459984,18.145131 11.912091,13.321529 15.544779,14.574488 C 18.917954,15.737938 23.743434,25.863708 22.509207,26.399586 C 21.371607,26.973763 1.5551732,20.051530 1.4916193,19.150359 z "
     id="path597"
     sodipodi:nodetypes="csss"
     transform="matrix(2.010763,0.000000,0.000000,2.010763,-0.473689,-2.549703)" />
  <path
     style="font-size:12.000000;fill:url(#linearGradient1190);fill-rule:evenodd;stroke:#261933;stroke-width:0.93248185;stroke-miterlimit:4.0000000;stroke-dasharray:none;"
     d="M 6.7473378,4.3771391 C 5.6898254,5.0346975 10.191179,17.286613 13.700110,18.477953 C 17.209041,19.669293 28.294585,12.684290 27.800923,11.525181 C 27.389314,10.347314 7.8583621,3.4700121 6.7473378,4.3771391 z "
     id="path598"
     sodipodi:nodetypes="csss"
     transform="matrix(2.010763,0.000000,0.000000,2.010763,-0.473689,-2.549703)" />
  <path
     style="fill:url(#linearGradient1191);fill-rule:evenodd;stroke-width:1.0000000pt;"
     d="M 3.0142647,17.754172 C 2.8238069,17.384598 6.4143912,6.2685315 7.5724036,5.5826101 C 8.5980888,5.0710043 26.509191,12.022513 26.696639,12.386245 C 26.868862,12.720434 10.640594,6.9404988 8.6514163,7.6763759 C 6.7286882,8.4007261 3.1834775,18.082520 3.0142647,17.754172 z "
     id="path603"
     sodipodi:nodetypes="cssss"
     transform="matrix(2.010763,0.000000,0.000000,2.010763,-0.473689,-2.549703)" />
  <g
     id="g1835"
     transform="translate(16.05485,2.500000e-7)">
    <path
       style="font-size:12.000000;opacity:0.30267498;fill:#000000;fill-opacity:1.0000000;fill-rule:evenodd;stroke:none;stroke-width:14.847900"
       d="M 46.170935,57.490485 C 45.079739,59.235599 18.646941,58.586715 17.186799,57.490485 C 15.523415,56.186789 18.271054,34.967313 17.186799,33.232022 C 16.352652,31.725627 3.1892700,34.704756 3.6398657,33.232022 C 4.1086368,31.862853 24.926595,3.7513464 30.733735,3.6177935 C 36.200720,3.6779900 58.976452,31.306703 59.402827,33.232022 C 59.739617,34.928776 46.522070,32.204799 45.540849,33.547066 C 44.240649,35.237160 47.487013,55.608506 46.170935,57.490485 z "
       id="path1183"
       sodipodi:nodetypes="csssssss"
       transform="matrix(0.500000,0.000000,0.000000,0.500000,-1.814280,-1.808897)" />
    <path
       style="font-size:12.000000;fill:url(#linearGradient1841);fill-opacity:1.0000000;fill-rule:evenodd;stroke:#261933;stroke-width:2.5000000;stroke-miterlimit:4.0000000"
       d="M 43.982362,53.657866 C 43.005372,55.220327 19.339142,54.639359 18.031827,53.657866 C 16.542537,52.490618 19.002599,33.492063 18.031827,31.938395 C 17.284982,30.589666 5.4993338,33.256988 5.9027677,31.938395 C 6.3224768,30.712532 24.607898,5.5432896 30.160880,5.4237165 C 35.232499,5.4777221 55.447599,30.214588 55.829349,31.938395 C 56.130889,33.457560 44.296744,31.018685 43.418223,32.220467 C 42.254109,33.733666 45.160693,51.972863 43.982362,53.657866 z "
       id="path1184"
       sodipodi:nodetypes="csssssss"
       transform="matrix(0.500000,0.000000,0.000000,0.500000,-1.814280,-1.808897)" />
    <path
       style="opacity:0.20178296;fill:#261e2e;fill-opacity:1.0000000;fill-rule:evenodd;stroke:none;stroke-width:1.0000000pt;stroke-linecap:butt;stroke-linejoin:miter;stroke-opacity:1.0000000"
       d="M 30.719596,54.425634 C 30.496274,52.441289 29.246416,7.1099516 30.594563,5.6631121 C 31.583802,4.4672685 52.266573,25.627853 55.225890,31.669793 C 56.267602,33.796619 44.378511,29.233352 43.097777,31.794823 C 40.794258,36.401861 45.698363,47.893759 43.597903,53.175312 C 43.204695,54.297646 30.880915,55.734001 30.719596,54.425634 z "
       id="path1185"
       sodipodi:nodetypes="csssss"
       transform="matrix(0.500000,0.000000,0.000000,0.500000,-1.814280,-1.808897)" />
    <path
       style="fill:url(#linearGradient1842);fill-opacity:1.0000000;fill-rule:evenodd;stroke:none;stroke-width:1.0000000pt;stroke-linecap:butt;stroke-linejoin:miter;stroke-opacity:1.0000000"
       d="M 8.3918912,31.087243 C 8.4222790,30.661820 21.411850,12.889780 29.610547,7.0394370 C 30.678489,6.2605865 33.354969,8.9019125 33.323811,9.3381239 C 33.296028,9.7270824 30.384746,9.0389750 29.433723,9.8685898 C 22.074106,16.288681 8.3633386,31.486989 8.3918912,31.087243 z "
       id="path707"
       sodipodi:nodetypes="cssss"
       transform="matrix(0.500000,0.000000,0.000000,0.500000,-1.814280,-1.808897)" />
    <path
       style="fill:url(#linearGradient1843);fill-opacity:1.0000000;fill-rule:evenodd;stroke:none;stroke-width:1.0000000pt;stroke-linecap:butt;stroke-linejoin:miter;stroke-opacity:1.0000000"
       d="M 19.178042,52.305897 C 18.936577,51.098574 19.651677,35.322203 20.238974,31.617710 C 20.417906,30.489066 21.583055,35.733137 21.476729,37.806484 C 21.229411,42.629198 19.349161,53.161497 19.178042,52.305897 z "
       id="path706"
       sodipodi:nodetypes="csss"
       transform="matrix(0.500000,0.000000,0.000000,0.500000,-1.814280,-1.808897)" />
  </g>
</svg>
