<?xml version="1.0" encoding="UTF-8" standalone="no"?>
<!DOCTYPE svg PUBLIC "-//W3C//DTD SVG 20010904//EN"
"http://www.w3.org/TR/2001/REC-SVG-20010904/DTD/svg10.dtd">
<!-- Created with Inkscape (http://www.inkscape.org/) -->
<svg
   id="svg1"
   sodipodi:version="0.32"
   inkscape:version="0.40"
   width="48.000000pt"
   height="48.000000pt"
   sodipodi:docbase="/home/andrew/lila"
   sodipodi:docname="balsa_reply.svg"
   xmlns="http://www.w3.org/2000/svg"
   xmlns:cc="http://web.resource.org/cc/"
   xmlns:inkscape="http://www.inkscape.org/namespaces/inkscape"
   xmlns:sodipodi="http://sodipodi.sourceforge.net/DTD/sodipodi-0.dtd"
   xmlns:rdf="http://www.w3.org/1999/02/22-rdf-syntax-ns#"
   xmlns:dc="http://purl.org/dc/elements/1.1/"
   xmlns:xlink="http://www.w3.org/1999/xlink">
  <metadata
     id="metadata1160">
    <rdf:RDF
       id="RDF1161">
      <cc:Work
         rdf:about=""
         id="Work1162">
        <dc:format
           id="format1163">image/svg+xml</dc:format>
        <dc:type
           id="type1165"
           rdf:resource="http://purl.org/dc/dcmitype/StillImage" />
      </cc:Work>
    </rdf:RDF>
  </metadata>
  <defs
     id="defs3">
    <linearGradient
       inkscape:collect="always"
       xlink:href="#linearGradient584"
       id="linearGradient1966"
       x1="11.386008"
       y1="47.574556"
       x2="16.755725"
       y2="55.750903"
       gradientTransform="scale(2.819833,0.354631)"
       gradientUnits="userSpaceOnUse" />
    <linearGradient
       inkscape:collect="always"
       xlink:href="#linearGradient584"
       id="linearGradient1965"
       x1="7.4164142"
       y1="7.3349332"
       x2="31.443598"
       y2="31.805014"
       gradientTransform="scale(0.961178,1.040390)"
       gradientUnits="userSpaceOnUse" />
    <linearGradient
       inkscape:collect="always"
       xlink:href="#linearGradient578"
       id="linearGradient1964"
       x1="4.6733252"
       y1="5.1125192"
       x2="55.114119"
       y2="54.418778"
       gradientTransform="scale(0.992813,1.007239)"
       gradientUnits="userSpaceOnUse" />
    <linearGradient
       xlink:href="#linearGradient584"
       id="linearGradient612"
       x1="11.386008"
       y1="47.574556"
       x2="16.755725"
       y2="55.750903"
       gradientTransform="matrix(2.819833,0.000000,0.000000,0.354631,-0.596594,-0.636566)"
       gradientUnits="userSpaceOnUse" />
    <linearGradient
       id="linearGradient599">
      <stop
         style="stop-color:#ffffff;stop-opacity:1;"
         offset="0.00000000"
         id="stop600" />
      <stop
         style="stop-color:#d9cce6;stop-opacity:1;"
         offset="1.00000000"
         id="stop601" />
    </linearGradient>
    <linearGradient
       id="linearGradient584">
      <stop
         style="stop-color:#ffffff;stop-opacity:1;"
         offset="0.00000000"
         id="stop585" />
      <stop
         style="stop-color:#ffffff;stop-opacity:0;"
         offset="1.00000000"
         id="stop586" />
    </linearGradient>
    <linearGradient
       id="linearGradient578">
      <stop
         style="stop-color:#d9cce6;stop-opacity:1;"
         offset="0.00000000"
         id="stop579" />
      <stop
         style="stop-color:#73667f;stop-opacity:1;"
         offset="1.00000000"
         id="stop580" />
    </linearGradient>
    <linearGradient
       xlink:href="#linearGradient578"
       id="linearGradient581"
       x1="4.5925565"
       y1="4.3577366"
       x2="55.442810"
       y2="54.975880"
       gradientTransform="matrix(0.992813,0.000000,0.000000,1.007239,-0.596594,-0.636566)"
       gradientUnits="userSpaceOnUse" />
    <linearGradient
       xlink:href="#linearGradient599"
       id="linearGradient583"
       x1="8.5246955"
       y1="7.4745783"
       x2="37.960076"
       y2="37.192990"
       gradientTransform="matrix(0.896216,0.000000,0.000000,1.115802,-0.596594,-0.636566)"
       gradientUnits="userSpaceOnUse" />
    <linearGradient
       xlink:href="#linearGradient599"
       id="linearGradient860"
       x1="0.00000000"
       y1="0.00000000"
       x2="0.98905110"
       y2="0.97457629" />
    <linearGradient
       xlink:href="#linearGradient584"
       id="linearGradient861"
       x1="-0.36956522"
       y1="-0.37500000"
       x2="0.81159419"
       y2="0.76562500" />
    <linearGradient
       xlink:href="#linearGradient584"
       id="linearGradient862"
       x1="-0.08500000"
       y1="-0.13281250"
       x2="0.99500000"
       y2="0.96875000" />
    <radialGradient
       xlink:href="#linearGradient578"
       id="radialGradient595"
       cx="0.33846155"
       cy="0.34375000"
       r="0.66501766"
       fx="0.33076921"
       fy="0.33593750" />
    <linearGradient
       inkscape:collect="always"
       xlink:href="#linearGradient599"
       id="linearGradient1188"
       x1="0.91550749"
       y1="4.1149543"
       x2="25.931114"
       y2="29.016375"
       gradientTransform="scale(1.092626,0.915226)"
       gradientUnits="userSpaceOnUse" />
    <linearGradient
       inkscape:collect="always"
       xlink:href="#linearGradient599"
       id="linearGradient1189"
       x1="0.72228011"
       y1="18.032919"
       x2="17.643449"
       y2="34.706446"
       gradientTransform="scale(1.303241,0.767318)"
       gradientUnits="userSpaceOnUse" />
    <linearGradient
       inkscape:collect="always"
       xlink:href="#linearGradient599"
       id="linearGradient1190"
       x1="5.0333643"
       y1="4.5306602"
       x2="23.086508"
       y2="22.757391"
       gradientTransform="scale(1.203773,0.830721)"
       gradientUnits="userSpaceOnUse" />
    <linearGradient
       inkscape:collect="always"
       xlink:href="#linearGradient584"
       id="linearGradient1191"
       x1="0.71294369"
       y1="5.4813294"
       x2="19.078900"
       y2="24.213967"
       gradientTransform="scale(1.393138,0.717804)"
       gradientUnits="userSpaceOnUse" />
    <linearGradient
       inkscape:collect="always"
       xlink:href="#linearGradient578"
       id="linearGradient2093"
       gradientUnits="userSpaceOnUse"
       gradientTransform="scale(0.992813,1.007239)"
       x1="4.6733251"
       y1="5.1125193"
       x2="55.114120"
       y2="54.418777" />
  </defs>
  <sodipodi:namedview
     id="base"
     pagecolor="#ffffff"
     bordercolor="#666666"
     borderopacity="1.0"
     inkscape:pageopacity="0.0"
     inkscape:pageshadow="2"
     inkscape:zoom="11.354167"
     inkscape:cx="24.123305"
     inkscape:cy="23.574604"
     inkscape:window-width="640"
     inkscape:window-height="757"
     inkscape:window-x="64"
     inkscape:window-y="0"
     showguides="true"
     inkscape:guide-bbox="true"
     inkscape:current-layer="svg1">
    <sodipodi:guide
       orientation="horizontal"
       position="54.605505"
       id="guide1181" />
  </sodipodi:namedview>
  <path
     style="font-size:12.000000;fill:#000000;fill-opacity:0.29999998;fill-rule:evenodd;stroke:none;stroke-width:1.4514248;"
     d="M 1.5270214,21.050941 C 2.1486486,22.265374 22.256083,29.302837 23.633580,28.556483 C 25.024647,27.891831 30.186303,14.474746 29.258403,13.082196 C 28.348618,11.582128 8.7046886,5.0603573 7.0833969,5.4326072 C 5.5399625,5.7314170 0.86188166,19.906638 1.5270214,21.050941 z "
     id="path1435"
     sodipodi:nodetypes="cssss"
     transform="matrix(2.010763,0.000000,0.000000,2.010763,-0.473689,-2.549703)" />
  <path
     style="font-size:12.000000;fill:url(#linearGradient1188);fill-rule:evenodd;stroke:#261933;stroke-width:0.93248185;stroke-miterlimit:4.0000000;stroke-dasharray:none;"
     d="M 1.5928059,19.186357 C 2.1848241,20.342945 21.334508,27.045202 22.646391,26.334398 C 23.971201,25.701404 28.886998,12.923398 28.003296,11.597177 C 27.136845,10.168560 8.4285886,3.9574319 6.8845223,4.3119513 C 5.4146041,4.5965278 0.95934761,18.096559 1.5928059,19.186357 z "
     id="path596"
     sodipodi:nodetypes="cssss"
     transform="matrix(2.010763,0.000000,0.000000,2.010763,-0.473689,-2.549703)" />
  <path
     style="font-size:12.000000;fill:url(#linearGradient1189);fill-rule:evenodd;stroke:#261933;stroke-width:0.93248185;stroke-miterlimit:4.0000000;stroke-dasharray:none;"
     d="M 1.4916193,19.150359 C 0.95459984,18.145131 11.912091,13.321529 15.544779,14.574488 C 18.917954,15.737938 23.743434,25.863708 22.509207,26.399586 C 21.371607,26.973763 1.5551732,20.051530 1.4916193,19.150359 z "
     id="path597"
     sodipodi:nodetypes="csss"
     transform="matrix(2.010763,0.000000,0.000000,2.010763,-0.473689,-2.549703)" />
  <path
     style="font-size:12.000000;fill:url(#linearGradient1190);fill-rule:evenodd;stroke:#261933;stroke-width:0.93248185;stroke-miterlimit:4.0000000;stroke-dasharray:none;"
     d="M 6.7473378,4.3771391 C 5.6898254,5.0346975 10.191179,17.286613 13.700110,18.477953 C 17.209041,19.669293 28.294585,12.684290 27.800923,11.525181 C 27.389314,10.347314 7.8583621,3.4700121 6.7473378,4.3771391 z "
     id="path598"
     sodipodi:nodetypes="csss"
     transform="matrix(2.010763,0.000000,0.000000,2.010763,-0.473689,-2.549703)" />
  <path
     style="fill:url(#linearGradient1191);fill-rule:evenodd;stroke-width:1.0000000pt;"
     d="M 3.0142647,17.754172 C 2.8238069,17.384598 6.4143912,6.2685315 7.5724036,5.5826101 C 8.5980888,5.0710043 26.509191,12.022513 26.696639,12.386245 C 26.868862,12.720434 10.640594,6.9404988 8.6514163,7.6763759 C 6.7286882,8.4007261 3.1834775,18.082520 3.0142647,17.754172 z "
     id="path603"
     sodipodi:nodetypes="cssss"
     transform="matrix(2.010763,0.000000,0.000000,2.010763,-0.473689,-2.549703)" />
  <path
     style="font-size:12.000000;opacity:0.30267498;fill:#000000;fill-opacity:1.0000000;fill-rule:evenodd;stroke:none;stroke-width:14.847900;"
     d="M 57.185183,45.841285 C 58.932784,44.748530 58.282973,18.278041 57.185183,16.815820 C 55.879627,15.150061 34.629893,17.901619 32.892128,16.815820 C 31.383584,15.980480 34.366964,2.7983284 32.892128,3.2495668 C 31.521008,3.7190068 3.3694150,24.566651 3.2356728,30.382071 C 3.2959543,35.856851 30.964064,58.665060 32.892128,59.092042 C 34.591299,59.429314 31.863439,46.192919 33.207623,45.210297 C 34.900126,43.908246 55.300519,47.159240 57.185183,45.841285 z "
     id="path617"
     sodipodi:nodetypes="csssssss"
     transform="matrix(0.500000,0.000000,0.000000,0.500000,-1.617840,30.45081)" />
  <path
     style="font-size:12.000000;fill:url(#linearGradient2093);fill-rule:evenodd;stroke:#261933;stroke-width:2.5000000;stroke-miterlimit:4.0000000;fill-opacity:1.0;"
     d="M 53.524172,43.118367 C 55.088862,42.139984 54.507066,18.440007 53.524172,17.130827 C 52.355262,15.639415 33.329613,18.102984 31.773729,17.130827 C 30.423077,16.382920 33.094203,4.5804642 31.773729,4.9844741 C 30.546117,5.4047817 5.3409860,23.716278 5.2212425,29.277179 C 5.2753264,34.356029 30.047466,54.599953 31.773729,54.982247 C 33.295059,55.284216 30.852709,43.433198 32.056204,42.553422 C 33.571564,41.387649 51.836767,44.298380 53.524172,43.118367 z "
     id="path589"
     sodipodi:nodetypes="csssssss"
     transform="matrix(0.500000,0.000000,0.000000,0.500000,-1.617840,30.45081)" />
  <path
     style="opacity:0.20178296;fill:#261e2e;fill-opacity:1.0000000;fill-rule:evenodd;stroke:none;stroke-width:1.0000000pt;stroke-linecap:butt;stroke-linejoin:miter;stroke-opacity:1.0000000;"
     d="M 54.293035,29.836689 C 52.305858,29.613049 6.9098832,28.361409 5.4609799,29.711479 C 4.2634320,30.702128 25.454190,51.414391 31.504744,54.377928 C 33.634603,55.421124 29.064829,43.515081 31.629954,42.232520 C 36.243560,39.925716 47.751846,44.836815 53.040932,42.733360 C 54.164865,42.339591 55.603268,29.998238 54.293035,29.836689 z "
     id="path644"
     sodipodi:nodetypes="csssss"
     transform="matrix(0.500000,0.000000,0.000000,0.500000,-1.617840,30.45081)" />
  <path
     style="fill:url(#linearGradient1965);fill-opacity:1.0000000;fill-rule:evenodd;stroke:none;stroke-width:1.0000000pt;stroke-linecap:butt;stroke-linejoin:miter;stroke-opacity:1.0000000;"
     d="M 6.8824850,29.036988 C 12.801610,19.570525 30.694647,7.2268616 30.964582,7.2568547 C 31.225869,7.2858862 15.924185,21.202746 9.7156730,28.859913 C 8.8412165,29.938408 9.9585423,33.490829 9.7156730,33.463844 C 9.4273208,33.431805 6.0699156,30.376605 6.8824850,29.036988 z "
     id="path665"
     sodipodi:nodetypes="cssss"
     transform="matrix(0.500000,0.000000,0.000000,0.500000,-1.617840,30.45081)" />
  <path
     style="fill:url(#linearGradient1966);fill-opacity:1.0000000;fill-rule:evenodd;stroke:none;stroke-width:1.0000000pt;stroke-linecap:butt;stroke-linejoin:miter;stroke-opacity:1.0000000;"
     d="M 32.204101,18.766681 C 36.670941,18.795242 51.675519,17.877935 52.390565,18.235457 C 52.974062,18.527207 41.421852,20.574442 36.099734,20.714497 C 34.693029,20.751515 31.240665,18.913290 32.204101,18.766681 z "
     id="path666"
     sodipodi:nodetypes="csss"
     transform="matrix(0.500000,0.000000,0.000000,0.500000,-1.617840,30.45081)" />
</svg>
