<?xml version="1.0" encoding="UTF-8" standalone="no"?>
<!DOCTYPE svg PUBLIC "-//W3C//DTD SVG 20010904//EN"
"http://www.w3.org/TR/2001/REC-SVG-20010904/DTD/svg10.dtd">
<!-- Created with Inkscape (http://www.inkscape.org/) -->
<svg
   id="svg1"
   sodipodi:version="0.32"
   inkscape:version="0.37"
   width="48pt"
   height="48pt"
   sodipodi:docbase="/home/tom/Pics/lilasvg/scalable/actions"
   sodipodi:docname="mail_new.svg"
   xmlns="http://www.w3.org/2000/svg"
   xmlns:inkscape="http://www.inkscape.org/namespaces/inkscape"
   xmlns:sodipodi="http://sodipodi.sourceforge.net/DTD/sodipodi-0.dtd"
   xmlns:xlink="http://www.w3.org/1999/xlink">
  <defs
     id="defs3">
    <linearGradient
       id="linearGradient599">
      <stop
         style="stop-color:#ffffff;stop-opacity:1;"
         offset="0.00000000"
         id="stop600" />
      <stop
         style="stop-color:#d9cce6;stop-opacity:1;"
         offset="1.00000000"
         id="stop601" />
    </linearGradient>
    <linearGradient
       id="linearGradient584">
      <stop
         style="stop-color:#ffffff;stop-opacity:1;"
         offset="0.00000000"
         id="stop585" />
      <stop
         style="stop-color:#ffffff;stop-opacity:0;"
         offset="1.00000000"
         id="stop586" />
    </linearGradient>
    <linearGradient
       id="linearGradient578">
      <stop
         style="stop-color:#d9cce6;stop-opacity:1;"
         offset="0.00000000"
         id="stop579" />
      <stop
         style="stop-color:#73667f;stop-opacity:1;"
         offset="1.00000000"
         id="stop580" />
    </linearGradient>
    <linearGradient
       xlink:href="#linearGradient599"
       id="linearGradient581"
       x1="0.00000000"
       y1="-0.00000000"
       x2="0.98888886"
       y2="0.98437500" />
    <linearGradient
       xlink:href="#linearGradient599"
       id="linearGradient583"
       x1="-0.00000000"
       y1="0.00000000"
       x2="0.97500002"
       y2="0.98437500" />
    <linearGradient
       xlink:href="#linearGradient599"
       id="linearGradient860"
       x1="0.00000000"
       y1="0.00000000"
       x2="0.98905110"
       y2="0.97457629" />
    <linearGradient
       xlink:href="#linearGradient584"
       id="linearGradient861"
       x1="-0.00000000"
       y1="0.00000000"
       x2="1.00000000"
       y2="0.00000000" />
    <linearGradient
       xlink:href="#linearGradient584"
       id="linearGradient862"
       x1="-0.08500000"
       y1="-0.13281250"
       x2="0.99500000"
       y2="0.96875000" />
    <radialGradient
       xlink:href="#linearGradient578"
       id="radialGradient595"
       cx="0.33846155"
       cy="0.34375000"
       r="0.66501766"
       fx="0.33076921"
       fy="0.33593750" />
  </defs>
  <sodipodi:namedview
     id="base"
     pagecolor="#ffffff"
     bordercolor="#666666"
     borderopacity="1.0"
     inkscape:pageopacity="0.0"
     inkscape:pageshadow="2"
     inkscape:zoom="5.64233871"
     inkscape:cx="32.4215132"
     inkscape:cy="26.5535832"
     inkscape:window-width="640"
     inkscape:window-height="535"
     inkscape:window-x="282"
     inkscape:window-y="92" />
  <path
     d="M 5.3250881 48.086314 C 6.1344761 50.504429 39.651931 61.377486 41.852595 59.552879 C 43.822425 57.902491 58.561723 8.7785888 57.574825 6.8303779 C 56.548979 4.6824777 22.543212 -0.66757256 20.929103 0.80153144 C 18.940867 2.6217524 4.4750251 45.31184 5.3250881 48.086314 z "
     style="font-size:12;opacity:0.302675;fill-rule:evenodd;stroke-width:12.5;fill:#000000;fill-opacity:0.564516;"
     id="path639" />
  <path
     d="M 5.4403091 46.084929 C 6.1975931 48.347259 37.555707 58.519842 39.614589 56.81278 C 41.457515 55.268716 55.247268 9.3095333 54.323953 7.4867937 C 53.364192 5.477268 21.549186 0.47192444 20.039062 1.8463844 C 18.178917 3.5493405 4.6450081 43.489197 5.4403091 46.084929 z "
     style="font-size:12;fill:url(#linearGradient861);fill-rule:evenodd;stroke:#261933;stroke-width:1.87726;"
     id="path634" />
  <path
     d="M 7.5738141 43.965772 C 7.2465501 43.136669 20.249916 4.5872629 21.465585 3.7922731 C 22.984918 2.7554118 47.545972 7.3454032 47.872468 8.172561 C 48.171728 8.9306762 28.709828 5.3906629 24.380002 9.2635774 C 16.075777 16.482895 7.8723051 44.721983 7.5738141 43.965772 z "
     style="font-size:12;opacity:0.699936;fill:#000000;fill-rule:evenodd;stroke:none;stroke-width:0.100121pt;fill-opacity:0.153226;"
     id="path640" />
  <g
     id="g604"
     transform="matrix(0.950170,-0.311733,0.311733,0.950170,23.15363,-11.18066)">
    <path
       style="font-size:12;fill:url(#linearGradient581);fill-rule:evenodd;stroke:#261933;stroke-width:1.875;stroke-dasharray:none;"
       d="M -32.510926 50.442911 C -31.289577 51.594259 -5.0803113 51.459852 -3.7913862 50.026685 C -2.4530372 48.682625 -2.0028341 31.001903 -3.6526445 29.770391 C -5.3257956 28.406784 -30.785139 28.94781 -32.510926 30.047875 C -34.176752 31.030706 -33.753792 49.390797 -32.510926 50.442911 z "
       id="path596"
       sodipodi:nodetypes="cssss" />
    <path
       style="font-size:12;fill:url(#linearGradient860);fill-rule:evenodd;stroke:#261933;stroke-width:1.875;stroke-dasharray:none;"
       d="M -32.649668 50.442911 C -33.738539 49.45197 -22.490714 38.836565 -17.526818 38.788604 C -12.917534 38.74407 -2.6599755 48.978789 -3.930128 50.165427 C -5.066091 51.35684 -32.182111 51.512214 -32.649668 50.442911 z "
       id="path597"
       sodipodi:nodetypes="csss" />
    <path
       style="font-size:12;fill:url(#linearGradient583);fill-rule:evenodd;stroke:#261933;stroke-width:1.875;stroke-dasharray:none;"
       d="M -32.649668 30.186616 C -33.652052 31.444835 -22.868375 44.407645 -18.081785 44.338274 C -13.295195 44.268903 -2.8273979 30.967397 -3.930128 29.770391 C -4.9411143 28.515028 -31.690217 28.601475 -32.649668 30.186616 z "
       id="path598"
       sodipodi:nodetypes="csss" />
    <path
       style="fill:url(#linearGradient862);fill-rule:evenodd;stroke:none;stroke-opacity:1;stroke-width:1pt;stroke-linejoin:miter;stroke-linecap:butt;fill-opacity:1;"
       d="M -31.400992 48.084301 C -31.792824 47.716958 -32.235931 32.632807 -31.123509 31.296551 C -30.096665 30.229753 -5.2869599 30.935014 -4.9013203 31.296551 C -4.5470033 31.628722 -26.801232 31.620727 -28.90364 33.377677 C -30.930163 35.091825 -31.052868 48.410667 -31.400992 48.084301 z "
       id="path603"
       sodipodi:nodetypes="cssss" />
  </g>
</svg>
