<?xml version="1.0" encoding="UTF-8" standalone="no"?>
<!-- Created with Inkscape (http://www.inkscape.org/) -->
<svg
   xmlns:dc="http://purl.org/dc/elements/1.1/"
   xmlns:cc="http://web.resource.org/cc/"
   xmlns:rdf="http://www.w3.org/1999/02/22-rdf-syntax-ns#"
   xmlns:svg="http://www.w3.org/2000/svg"
   xmlns="http://www.w3.org/2000/svg"
   xmlns:xlink="http://www.w3.org/1999/xlink"
   xmlns:sodipodi="http://inkscape.sourceforge.net/DTD/sodipodi-0.dtd"
   xmlns:inkscape="http://www.inkscape.org/namespaces/inkscape"
   id="svg1"
   sodipodi:version="0.32"
   inkscape:version="0.42.2"
   width="48pt"
   height="48pt"
   sodipodi:docbase="/home/jakob/dev/lila/lila-theme/trunk/lila/kde/scalable/actions"
   sodipodi:docname="open.svg">
  <metadata
     id="metadata29">
    <rdf:RDF>
      <cc:Work
         rdf:about="">
        <dc:format>image/svg+xml</dc:format>
        <dc:type
           rdf:resource="http://purl.org/dc/dcmitype/StillImage" />
      </cc:Work>
    </rdf:RDF>
  </metadata>
  <defs
     id="defs3">
    <linearGradient
       id="linearGradient866">
      <stop
         style="stop-color:#faf8fd;stop-opacity:1;"
         offset="0.00000000"
         id="stop867" />
      <stop
         style="stop-color:#d9cce6;stop-opacity:1;"
         offset="1.00000000"
         id="stop868" />
    </linearGradient>
    <linearGradient
       id="linearGradient584">
      <stop
         style="stop-color:#ffffff;stop-opacity:1;"
         offset="0.00000000"
         id="stop585" />
      <stop
         style="stop-color:#ffffff;stop-opacity:0;"
         offset="1.00000000"
         id="stop586" />
    </linearGradient>
    <linearGradient
       id="linearGradient578">
      <stop
         style="stop-color:#d9cce6;stop-opacity:1;"
         offset="0.00000000"
         id="stop579" />
      <stop
         style="stop-color:#73667f;stop-opacity:1;"
         offset="1.00000000"
         id="stop580" />
    </linearGradient>
    <linearGradient
       xlink:href="#linearGradient584"
       id="linearGradient581"
       x1="10.162819"
       y1="16.401213"
       x2="45.944872"
       y2="52.399005"
       gradientTransform="matrix(1.087700,0.000000,0.000000,0.919371,1.032006e-3,0.000000)"
       gradientUnits="userSpaceOnUse" />
    <linearGradient
       xlink:href="#linearGradient584"
       id="linearGradient583"
       x1="26.589064"
       y1="21.808052"
       x2="53.641206"
       y2="47.650329"
       gradientTransform="matrix(0.999606,0.000000,0.000000,1.000394,1.032006e-3,0.000000)"
       gradientUnits="userSpaceOnUse" />
    <linearGradient
       xlink:href="#linearGradient584"
       id="linearGradient860"
       x1="7.6106669"
       y1="4.1443218"
       x2="30.936748"
       y2="26.204646"
       gradientTransform="matrix(0.544211,0.000000,0.000000,1.837523,1.032006e-3,0.000000)"
       gradientUnits="userSpaceOnUse" />
    <linearGradient
       xlink:href="#linearGradient578"
       id="linearGradient861"
       x1="7.7442571"
       y1="12.858634"
       x2="51.803357"
       y2="55.460161"
       gradientTransform="matrix(1.067197,0.000000,0.000000,0.937034,1.032006e-3,0.000000)"
       gradientUnits="userSpaceOnUse" />
    <linearGradient
       xlink:href="#linearGradient578"
       id="linearGradient862"
       x1="1.4356291"
       y1="3.1686162"
       x2="52.654844"
       y2="53.593734"
       gradientTransform="matrix(1.014477,0.000000,0.000000,0.985729,1.032006e-3,0.000000)"
       gradientUnits="userSpaceOnUse" />
    <linearGradient
       xlink:href="#linearGradient866"
       id="linearGradient869"
       x1="25.165851"
       y1="18.498141"
       x2="61.193225"
       y2="54.742734"
       gradientTransform="matrix(0.943134,0.000000,0.000000,1.060294,1.032006e-3,0.000000)"
       gradientUnits="userSpaceOnUse" />
    <linearGradient
       inkscape:collect="always"
       xlink:href="#linearGradient584"
       id="linearGradient1327"
       x1="13.778052"
       y1="10.113895"
       x2="26.500474"
       y2="22.267326"
       gradientTransform="matrix(1.682464,0.000000,0.000000,0.594366,1.032006e-3,0.000000)"
       gradientUnits="userSpaceOnUse" />
  </defs>
  <sodipodi:namedview
     id="base"
     pagecolor="#ffffff"
     bordercolor="#666666"
     borderopacity="1.0"
     inkscape:pageopacity="0.0"
     inkscape:pageshadow="2"
     inkscape:zoom="5.6423387"
     inkscape:cx="25.824965"
     inkscape:cy="33.159294"
     inkscape:window-width="754"
     inkscape:window-height="516"
     inkscape:window-x="152"
     inkscape:window-y="77"
     inkscape:current-layer="svg1" />
  <path
     d="M 9.3917820,55.205208 C 0.89958211,51.574681 -0.35901382,20.648788 1.3943906,7.6139481 C 1.9570866,3.4303383 14.058094,2.1076863 17.913772,2.6320469 C 19.520918,2.8506692 19.492669,10.134394 21.322473,10.104961 C 30.374401,9.9595671 42.521341,-0.59458717 48.985648,3.0253775 C 54.539386,6.1354603 58.579861,29.067876 53.967551,35.146332 C 45.381945,46.461155 18.380213,59.047830 9.3917820,55.205208 z "
     style="font-size:12.000000px;opacity:0.30267498;fill-rule:evenodd;stroke-width:18.750000;stroke-linecap:round;stroke-linejoin:round"
     id="path574" />
  <path
     d="M 10.263041,51.643477 C 2.5667536,48.353231 1.4261117,20.325950 3.0152051,8.5128357 C 3.5252153,4.7213446 14.491991,3.5226611 17.986285,3.9978755 C 19.442796,4.1960060 19.417197,10.797045 21.075497,10.770370 C 29.279010,10.638605 40.287445,1.0736552 46.145868,4.3543392 C 51.179067,7.1729219 54.840838,27.955937 50.660830,33.464673 C 42.879930,43.718983 18.409007,55.125940 10.263041,51.643477 z "
     style="font-size:12.000000px;fill:url(#linearGradient862);fill-rule:evenodd;stroke:#261933;stroke-width:1.8750000;stroke-linecap:round;stroke-linejoin:round;stroke-dasharray:none"
     id="path562" />
  <path
     d="M 10.381792,49.148444 C 5.5368277,45.257566 3.0694924,18.717130 5.2727606,9.4633704 C 6.0398999,6.2413177 16.801694,5.6747840 17.154501,6.8494794 C 14.161880,6.9776946 9.6645600,9.8146723 8.9560442,12.790296 C 6.6940996,22.290483 9.7157600,46.555207 10.381792,49.148444 z "
     style="font-size:12.000000px;opacity:0.69999999;fill:url(#linearGradient860);fill-rule:evenodd;stroke:none;stroke-width:1.0000000pt"
     id="path567" />
  <path
     d="M 22.976458,12.909155 C 33.895724,10.935909 41.996299,4.4219959 44.244799,6.2554085 C 44.853283,6.7791344 36.354831,11.548911 31.174916,13.265726 C 29.423790,13.846028 22.454240,13.002519 22.976458,12.909155 z "
     style="font-size:12.000000px;opacity:0.69993597;fill:url(#linearGradient1327);fill-rule:evenodd;stroke:none;stroke-width:1.0000000pt"
     id="path568" />
  <path
     d="M 10.903794,51.874847 C 8.8214826,51.541507 7.7669325,28.952067 13.088186,23.780972 C 21.657629,15.453223 43.482284,10.323756 52.575988,12.522560 C 57.149034,13.628416 54.622914,28.780732 50.391598,33.895248 C 41.380180,44.906588 19.478293,53.145166 10.903794,51.874847 z "
     style="font-size:12.000000px;fill:url(#linearGradient861);fill-rule:evenodd;stroke:#261933;stroke-width:1.8750000;stroke-linecap:round;stroke-linejoin:round;stroke-dasharray:none"
     id="path576"
     sodipodi:nodetypes="ccccc" />
  <path
     d="M 12.522081,48.174138 C 9.7401770,42.958405 12.396770,28.239690 14.538566,25.631070 C 23.911465,15.605174 48.818987,14.126251 50.786100,15.056672 C 35.234200,17.373902 27.903958,19.521763 18.816028,28.482673 C 14.776281,33.116599 11.998356,41.021947 12.522081,48.174138 z "
     style="font-size:12.000000px;opacity:0.69999999;fill:url(#linearGradient581);fill-rule:evenodd;stroke:none;stroke-width:1.2500000"
     id="path577"
     sodipodi:nodetypes="ccccc" />
  <path
     d="M 24.283644,51.383354 C 24.833945,53.027428 47.622452,60.420018 49.118680,59.179466 C 50.457964,58.057368 60.479210,24.658046 59.808219,23.333457 C 59.110749,21.873101 35.990240,18.235606 34.892805,19.234448 C 33.541006,20.472014 23.705685,49.496989 24.283644,51.383354 z "
     style="font-size:12.000000px;opacity:0.30267498;fill-rule:evenodd;stroke-width:12.500000"
     id="path639" />
  <path
     d="M 24.931686,49.840572 C 25.435528,51.345767 46.298982,58.113876 47.668818,56.978120 C 48.894967,55.950810 58.069681,25.372849 57.455371,24.160127 C 56.816818,22.823131 35.649382,19.492935 34.644655,20.407401 C 33.407047,21.540427 24.402550,48.113557 24.931686,49.840572 z "
     style="font-size:12.000000px;fill:url(#linearGradient869);fill-rule:evenodd;stroke:#261933;stroke-width:1.8750000;stroke-dasharray:none"
     id="path634" />
  <path
     d="M 26.351167,48.430636 C 26.133430,47.879012 34.784942,22.230985 35.593759,21.702056 C 36.604617,21.012203 52.945786,24.066056 53.163012,24.616386 C 53.362119,25.120784 40.413563,22.765511 37.532806,25.342274 C 32.007766,30.145489 26.549762,48.933767 26.351167,48.430636 z "
     style="font-size:12.000000px;opacity:0.69993597;fill:url(#linearGradient583);fill-rule:evenodd;stroke:#ffffff;stroke-width:0.066613299pt"
     id="path640" />
</svg>
