<?xml version="1.0" encoding="UTF-8" standalone="no"?>
<!DOCTYPE svg PUBLIC "-//W3C//DTD SVG 20010904//EN"
"http://www.w3.org/TR/2001/REC-SVG-20010904/DTD/svg10.dtd">
<!-- Created with Inkscape (http://www.inkscape.org/) -->
<svg
   version="1.0"
   x="0"
   y="0"
   width="48pt"
   height="48pt"
   id="svg1418"
   sodipodi:version="0.32"
   inkscape:version="0.38"
   sodipodi:docname="package_editors.svg"
   sodipodi:docbase="/home/tom/Pics/lilasvg/scalable/apps"
   xmlns="http://www.w3.org/2000/svg"
   xmlns:inkscape="http://www.inkscape.org/namespaces/inkscape"
   xmlns:sodipodi="http://sodipodi.sourceforge.net/DTD/sodipodi-0.dtd"
   xmlns:xlink="http://www.w3.org/1999/xlink">
  <sodipodi:namedview
     id="base"
     pagecolor="#ffffff"
     bordercolor="#666666"
     borderopacity="1.0"
     inkscape:pageopacity="0.0"
     inkscape:pageshadow="2"
     inkscape:zoom="4.9119411"
     inkscape:cx="17.457656"
     inkscape:cy="24.037603"
     inkscape:window-width="640"
     inkscape:window-height="500"
     inkscape:window-x="155"
     inkscape:window-y="70" />
  <defs
     id="defs1420">
    <linearGradient
       id="linearGradient621">
      <stop
         style="stop-color:#ffffff;stop-opacity:1;"
         offset="0.00000000"
         id="stop622" />
      <stop
         style="stop-color:#d9cce6;stop-opacity:1;"
         offset="1.00000000"
         id="stop623" />
    </linearGradient>
    <linearGradient
       id="linearGradient1439">
      <stop
         style="stop-color:#ffffff;stop-opacity:1;"
         offset="0"
         id="stop1440" />
      <stop
         style="stop-color:#ffffff;stop-opacity:0;"
         offset="1"
         id="stop1441" />
    </linearGradient>
    <linearGradient
       id="linearGradient1432">
      <stop
         style="stop-color:#7f7f7f;stop-opacity:1;"
         offset="0"
         id="stop1433" />
      <stop
         style="stop-color:#e6e6e6;stop-opacity:1;"
         offset="1"
         id="stop1434" />
    </linearGradient>
    <linearGradient
       id="linearGradient1428">
      <stop
         style="stop-color:#f50000;stop-opacity:1;"
         offset="0.00000000"
         id="stop1429" />
      <stop
         style="stop-color:#a90000;stop-opacity:1;"
         offset="1.00000000"
         id="stop1430" />
    </linearGradient>
    <linearGradient
       id="linearGradient1422">
      <stop
         style="stop-color:#d7a600;stop-opacity:1;"
         offset="0.00000000"
         id="stop1423" />
      <stop
         style="stop-color:#fff300;stop-opacity:1;"
         offset="1.00000000"
         id="stop1424" />
    </linearGradient>
    <linearGradient
       x1="0.64516127"
       y1="0.66406250"
       x2="0.32258064"
       y2="0.32031250"
       id="linearGradient1425"
       xlink:href="#linearGradient1422" />
    <linearGradient
       x1="0.01923077"
       y1="0.00781250"
       x2="0.98076922"
       y2="0.98437500"
       id="linearGradient1427"
       xlink:href="#linearGradient1428" />
    <linearGradient
       x1="0.98101264"
       y1="0.92187500"
       x2="0.01898734"
       y2="0.02343750"
       id="linearGradient1435"
       xlink:href="#linearGradient1432" />
    <linearGradient
       x1="0.015748"
       y1="0.023437"
       x2="0.984252"
       y2="0.984375"
       id="linearGradient1438"
       xlink:href="#linearGradient1439" />
    <linearGradient
       id="linearGradient1443"
       xlink:href="#linearGradient1439"
       x1="0.00000000"
       y1="0.00000000"
       x2="0.98437500"
       y2="1.00781250" />
    <linearGradient
       xlink:href="#linearGradient621"
       id="linearGradient620"
       x1="0.00000000"
       y1="-0.00000000"
       x2="1.00877190"
       y2="0.99218750" />
  </defs>
  <path
     d="M 8.3051795,57.308488 C 9.6237396,58.467579 15.616366,57.125563 18.024414,54.958665 C 32.347542,42.069653 49.854215,25.804601 58.498811,12.140881 C 60.150355,9.5303977 51.558618,4.1579816 48.912723,6.1359416 C 35.493080,16.167919 21.919034,33.531416 10.302309,48.170526 C 8.3832249,50.588930 7.0497062,56.204862 8.3051795,57.308488 z "
     style="font-size:12;opacity:0.3;fill:#3f3f19;fill-rule:evenodd;stroke-width:12.5;"
     id="path1442" />
  <path
     d="M 6.0417513,55.611425 C 7.3603145,56.770519 13.352937,55.428502 15.760986,53.261603 C 30.084116,40.372592 47.590787,24.107540 56.235373,10.443820 C 57.886932,7.8333342 49.295193,2.4609307 46.649295,4.4388885 C 33.229657,14.470857 19.655607,31.834352 8.0388811,46.473463 C 6.1197982,48.891869 4.7862670,54.507801 6.0417513,55.611425 z "
     style="font-size:12.000000;fill:url(#linearGradient1425);fill-rule:evenodd;stroke:#3f3f19;stroke-width:2.9029446;"
     id="path1421" />
  <path
     d="M 41.623350,9.4647909 C 41.721303,10.448671 50.180680,16.303985 51.275902,16.187657 C 51.642620,16.170565 55.804666,10.139824 55.769465,9.7258950 C 55.538482,7.4019850 50.895798,4.7085495 47.980785,4.6673223 C 46.323504,4.6436154 41.592543,9.1880297 41.623350,9.4647909 z "
     style="font-size:12;fill:url(#linearGradient1427);fill-rule:evenodd;stroke-width:1pt;"
     id="path1426" />
  <path
     d="M 37.481104,13.398214 C 37.584904,14.440974 46.551006,20.647034 47.711790,20.523762 C 48.100443,20.505676 51.570420,16.329124 51.532975,15.890386 C 51.288160,13.427215 44.749550,9.1922207 41.677448,9.3288359 C 41.046668,9.3476915 37.448486,13.104914 37.481104,13.398214 z "
     style="font-size:12.000000;fill:url(#linearGradient1435);fill-rule:evenodd;stroke:#3f3f19;stroke-width:1.7417668;"
     id="path1431" />
  <ellipse
     cx="152.361847"
     cy="565.562134"
     rx="26.788887"
     ry="26.788879"
     transform="matrix(0.131024,0.000000,0.000000,0.128468,-13.52224,-17.16955)"
     style="font-size:12;fill:#3f3f19;fill-rule:evenodd;stroke-width:1pt;"
     id="path1436" />
  <path
     d="M 8.0388811,51.042440 C 13.813227,40.966357 32.957395,17.983734 47.315154,6.0053567 C 48.889671,4.5377957 53.792920,7.6784151 53.838914,8.3551007 C 53.881640,8.9838216 49.119648,8.4879677 47.581448,9.9216120 C 33.852893,22.717119 12.939544,44.303036 8.0388811,51.042440 z "
     style="font-size:12;opacity:0.990000;fill:url(#linearGradient1438);fill-rule:evenodd;stroke:none;stroke-width:0.106874pt;"
     id="path1437" />
</svg>
