<?xml version="1.0" encoding="UTF-8" standalone="no"?>
<!-- Created with Inkscape (http://www.inkscape.org/) -->
<svg
   xmlns:dc="http://purl.org/dc/elements/1.1/"
   xmlns:cc="http://web.resource.org/cc/"
   xmlns:rdf="http://www.w3.org/1999/02/22-rdf-syntax-ns#"
   xmlns:svg="http://www.w3.org/2000/svg"
   xmlns="http://www.w3.org/2000/svg"
   xmlns:xlink="http://www.w3.org/1999/xlink"
   xmlns:sodipodi="http://inkscape.sourceforge.net/DTD/sodipodi-0.dtd"
   xmlns:inkscape="http://www.inkscape.org/namespaces/inkscape"
   id="svg1"
   sodipodi:version="0.32"
   inkscape:version="0.42"
   width="48pt"
   height="48pt"
   sodipodi:docbase="/home/jakob/dev/lila/lila-theme/branches/tango/scalable/actions"
   sodipodi:docname="media-seek-backward.svg">
  <defs
     id="defs3">
    <linearGradient
       id="linearGradient599">
      <stop
         style="stop-color:#ffffff;stop-opacity:1;"
         offset="0.00000000"
         id="stop600" />
      <stop
         style="stop-color:#d9cce6;stop-opacity:1;"
         offset="1.00000000"
         id="stop601" />
    </linearGradient>
    <linearGradient
       id="linearGradient584">
      <stop
         style="stop-color:#ffffff;stop-opacity:1;"
         offset="0.00000000"
         id="stop585" />
      <stop
         style="stop-color:#ffffff;stop-opacity:0;"
         offset="1.00000000"
         id="stop586" />
    </linearGradient>
    <linearGradient
       id="linearGradient578">
      <stop
         style="stop-color:#d9cce6;stop-opacity:1;"
         offset="0.00000000"
         id="stop579" />
      <stop
         style="stop-color:#73667f;stop-opacity:1;"
         offset="1.00000000"
         id="stop580" />
    </linearGradient>
    <linearGradient
       xlink:href="#linearGradient599"
       id="linearGradient581"
       x1="7.8272437"
       y1="12.768172"
       x2="44.012544"
       y2="48.788301"
       gradientTransform="matrix(1.030148,0.000000,0.000000,0.970735,-0.297197,-0.303138)"
       gradientUnits="userSpaceOnUse" />
    <linearGradient
       xlink:href="#linearGradient578"
       id="linearGradient583"
       x1="0.00000000"
       y1="0.00000000"
       x2="1.00000000"
       y2="0.00000000" />
    <linearGradient
       xlink:href="#linearGradient599"
       id="linearGradient860"
       x1="0.00000000"
       y1="0.00000000"
       x2="0.98905110"
       y2="0.97457629" />
    <linearGradient
       xlink:href="#linearGradient578"
       id="linearGradient861"
       x1="0.00000000"
       y1="-0.00000000"
       x2="0.98888886"
       y2="0.98437500" />
    <linearGradient
       xlink:href="#linearGradient584"
       id="linearGradient862"
       x1="-0.08500000"
       y1="-0.13281250"
       x2="0.99500000"
       y2="0.96875000" />
    <radialGradient
       xlink:href="#linearGradient599"
       id="radialGradient595"
       cx="0.50000000"
       cy="0.49218750"
       r="0.54896194"
       fx="0.50000000"
       fy="0.49218750" />
    <radialGradient
       xlink:href="#linearGradient578"
       id="radialGradient670"
       cx="46.193975"
       cy="40.621080"
       r="31.063221"
       fx="46.193975"
       fy="40.621080"
       gradientUnits="userSpaceOnUse" />
  </defs>
  <sodipodi:namedview
     id="base"
     pagecolor="#ffffff"
     bordercolor="#666666"
     borderopacity="1.0"
     inkscape:pageopacity="0.0"
     inkscape:pageshadow="2"
     inkscape:zoom="11.313708"
     inkscape:cx="24.645265"
     inkscape:cy="20.626828"
     inkscape:window-width="1022"
     inkscape:window-height="695"
     inkscape:window-x="0"
     inkscape:window-y="26"
     showguides="true"
     inkscape:guide-bbox="true"
     inkscape:current-layer="svg1" />
  <g
     transform="matrix(0.939009,0.000000,0.000000,0.950000,1.035028,1.240930)"
     style="font-size:12.000000px;opacity:0.29999998;stroke:#000000"
     id="g677">
    <ellipse
       cx="47.595680"
       cy="41.555550"
       rx="28.881311"
       ry="28.881311"
       transform="matrix(0.917566,0.000000,0.000000,0.917566,-11.48724,-5.833475)"
       style="fill-rule:evenodd;stroke-width:2.0541799"
       id="path675"
       d="M 76.476992 41.555550 A 28.881311 28.881311 0 1 0 18.714369,41.555550 A 28.881311 28.881311 0 1 0 76.476992 41.555550 z"
       sodipodi:cx="47.595680"
       sodipodi:cy="41.555550"
       sodipodi:rx="28.881311"
       sodipodi:ry="28.881311" />
    <ellipse
       cx="42.107330"
       cy="34.267742"
       rx="21.773449"
       ry="21.773449"
       transform="matrix(0.934849,0.000000,0.000000,0.934849,-7.035911,0.205833)"
       style="fill-rule:evenodd;stroke-width:1.0000000pt"
       id="path676"
       d="M 63.880779 34.267742 A 21.773449 21.773449 0 1 0 20.333881,34.267742 A 21.773449 21.773449 0 1 0 63.880779 34.267742 z"
       sodipodi:cx="42.107330"
       sodipodi:cy="34.267742"
       sodipodi:rx="21.773449"
       sodipodi:ry="21.773449" />
  </g>
  <metadata
     id="metadata933">
    <rdf:RDF>
      <cc:Work
         rdf:about="">
        <dc:format>image/svg+xml</dc:format>
        <dc:type
           rdf:resource="http://purl.org/dc/dcmitype/StillImage" />
      </cc:Work>
    </rdf:RDF>
  </metadata>
  <ellipse
     cx="47.595680"
     cy="41.555550"
     rx="28.881311"
     ry="28.881311"
     transform="matrix(0.861603,0.000000,0.000000,0.871687,-11.00890,-6.223432)"
     style="font-size:12.000000px;fill:url(#radialGradient670);fill-opacity:1.0000000;fill-rule:evenodd;stroke:#261933;stroke-width:2.0434501"
     id="path594"
     d="M 76.476992 41.555550 A 28.881311 28.881311 0 1 0 18.714369,41.555550 A 28.881311 28.881311 0 1 0 76.476992 41.555550 z"
     sodipodi:cx="47.595680"
     sodipodi:cy="41.555550"
     sodipodi:rx="28.881311"
     sodipodi:ry="28.881311" />
  <path
     style="font-size:12.000000px;fill:url(#linearGradient581);fill-rule:evenodd;stroke:#261933;stroke-width:1.3735670"
     d="M 34.265303,12.853112 C 34.831305,11.584244 8.4528027,26.803571 8.4528026,29.790612 C 8.4528026,32.804807 34.674564,47.747198 34.265303,46.821862 C 33.156142,44.314056 32.452088,41.969106 31.890303,39.759362 C 38.442175,43.795637 44.971418,47.350384 44.765303,46.884362 C 40.912339,38.172832 40.921552,30.298830 40.921553,29.884362 C 40.921553,29.451761 40.905586,21.537108 44.765303,12.884362 C 45.051252,12.243320 38.451675,15.808551 31.859053,19.884362 C 32.421119,17.674229 33.153223,15.346183 34.265303,12.853112 z "
     id="path968" />
</svg>
