<?xml version="1.0" encoding="UTF-8" standalone="no"?>
<!DOCTYPE svg PUBLIC "-//W3C//DTD SVG 20010904//EN"
"http://www.w3.org/TR/2001/REC-SVG-20010904/DTD/svg10.dtd">
<!-- Created with Inkscape (http://www.inkscape.org/) -->
<svg
   id="svg1"
   sodipodi:version="0.32"
   inkscape:version="0.40"
   width="48pt"
   height="48pt"
   sodipodi:docbase="/home/jakob/dev/lila-cvs/andere-icons"
   sodipodi:docname="project_open1.svg"
   xmlns="http://www.w3.org/2000/svg"
   xmlns:cc="http://web.resource.org/cc/"
   xmlns:inkscape="http://www.inkscape.org/namespaces/inkscape"
   xmlns:sodipodi="http://sodipodi.sourceforge.net/DTD/sodipodi-0.dtd"
   xmlns:rdf="http://www.w3.org/1999/02/22-rdf-syntax-ns#"
   xmlns:dc="http://purl.org/dc/elements/1.1/"
   xmlns:xlink="http://www.w3.org/1999/xlink">
  <metadata
     id="metadata32">
    <rdf:RDF
       id="RDF33">
      <cc:Work
         rdf:about=""
         id="Work34">
        <dc:format
           id="format35">image/svg+xml</dc:format>
        <dc:type
           id="type37"
           rdf:resource="http://purl.org/dc/dcmitype/StillImage" />
      </cc:Work>
    </rdf:RDF>
  </metadata>
  <defs
     id="defs3">
    <linearGradient
       id="linearGradient584">
      <stop
         style="stop-color:#ffffff;stop-opacity:1;"
         offset="0.00000000"
         id="stop585" />
      <stop
         style="stop-color:#ffffff;stop-opacity:0;"
         offset="1.00000000"
         id="stop586" />
    </linearGradient>
    <linearGradient
       id="linearGradient578">
      <stop
         style="stop-color:#d9cce6;stop-opacity:1;"
         offset="0.00000000"
         id="stop579" />
      <stop
         style="stop-color:#73667f;stop-opacity:1;"
         offset="1.00000000"
         id="stop580" />
    </linearGradient>
    <linearGradient
       xlink:href="#linearGradient584"
       id="linearGradient581"
       x1="12.195200"
       y1="34.690324"
       x2="81.265222"
       y2="7.4917665"
       gradientTransform="matrix(0.890934,0.000000,0.000000,0.820887,8.053617,-0.964567)"
       gradientUnits="userSpaceOnUse" />
    <linearGradient
       xlink:href="#linearGradient584"
       id="linearGradient583"
       x1="1.2731385"
       y1="18.599604"
       x2="12.713946"
       y2="18.599604"
       gradientTransform="matrix(3.271416,0.000000,0.000000,0.223559,8.053617,-0.964568)"
       gradientUnits="userSpaceOnUse" />
    <linearGradient
       xlink:href="#linearGradient578"
       id="linearGradient654"
       x1="0.62902899"
       y1="2.0319597"
       x2="27.307993"
       y2="2.0319597"
       gradientTransform="matrix(1.757658,0.000000,0.000000,0.416097,8.053617,-0.964567)"
       gradientUnits="userSpaceOnUse" />
    <linearGradient
       xlink:href="#linearGradient578"
       id="linearGradient655"
       x1="-0.00000000"
       y1="-0.00000000"
       x2="1.00000000"
       y2="-0.00000000" />
    <linearGradient
       xlink:href="#linearGradient584"
       id="linearGradient653"
       x1="0.00000000"
       y1="-0.00000000"
       x2="0.97945207"
       y2="0.97656250" />
    <linearGradient
       xlink:href="#linearGradient866"
       id="linearGradient869"
       x1="25.165851"
       y1="18.498141"
       x2="61.193225"
       y2="54.742734"
       gradientTransform="scale(0.943134,1.060294)"
       gradientUnits="userSpaceOnUse" />
    <linearGradient
       xlink:href="#linearGradient578"
       id="linearGradient862"
       x1="1.4356291"
       y1="3.1686162"
       x2="52.654844"
       y2="53.593734"
       gradientTransform="scale(1.014477,0.985729)"
       gradientUnits="userSpaceOnUse" />
    <linearGradient
       xlink:href="#linearGradient578"
       id="linearGradient861"
       x1="7.7442571"
       y1="12.858634"
       x2="51.803357"
       y2="55.460161"
       gradientTransform="scale(1.067197,0.937034)"
       gradientUnits="userSpaceOnUse" />
    <linearGradient
       xlink:href="#linearGradient584"
       id="linearGradient860"
       x1="7.6106669"
       y1="4.1443218"
       x2="30.936748"
       y2="26.204646"
       gradientTransform="scale(0.544211,1.837523)"
       gradientUnits="userSpaceOnUse" />
    <linearGradient
       xlink:href="#linearGradient584"
       id="linearGradient1259"
       x1="0.01094890"
       y1="0.01030928"
       x2="1.01459849"
       y2="0.96907216" />
    <linearGradient
       xlink:href="#linearGradient584"
       id="linearGradient1258"
       x1="-0.00684932"
       y1="0.00775194"
       x2="0.97945207"
       y2="1.00000000" />
    <linearGradient
       id="linearGradient1255">
      <stop
         style="stop-color:#d9cce6;stop-opacity:1;"
         offset="0.00000000"
         id="stop1256" />
      <stop
         style="stop-color:#73667f;stop-opacity:1;"
         offset="1.00000000"
         id="stop1257" />
    </linearGradient>
    <linearGradient
       id="linearGradient1252">
      <stop
         style="stop-color:#ffffff;stop-opacity:1;"
         offset="0.00000000"
         id="stop1253" />
      <stop
         style="stop-color:#ffffff;stop-opacity:0;"
         offset="1.00000000"
         id="stop1254" />
    </linearGradient>
    <linearGradient
       id="linearGradient866">
      <stop
         style="stop-color:#faf8fd;stop-opacity:1;"
         offset="0.00000000"
         id="stop867" />
      <stop
         style="stop-color:#d9cce6;stop-opacity:1;"
         offset="1.00000000"
         id="stop868" />
    </linearGradient>
    <linearGradient
       inkscape:collect="always"
       xlink:href="#linearGradient584"
       id="linearGradient1274"
       gradientUnits="userSpaceOnUse"
       gradientTransform="matrix(3.886965,0.000000,0.000000,0.265624,-0.407867,1.307025)"
       x1="1.2731385"
       y1="18.599604"
       x2="12.713946"
       y2="18.599604" />
    <linearGradient
       inkscape:collect="always"
       xlink:href="#linearGradient584"
       id="linearGradient1275"
       gradientUnits="userSpaceOnUse"
       gradientTransform="matrix(1.058571,0.000000,0.000000,0.975344,-0.407867,1.307025)"
       x1="12.195200"
       y1="34.690324"
       x2="81.265222"
       y2="7.4917665" />
    <linearGradient
       inkscape:collect="always"
       xlink:href="#linearGradient584"
       id="linearGradient1276"
       gradientUnits="userSpaceOnUse"
       gradientTransform="matrix(3.886965,0.000000,0.000000,0.265624,-0.407867,1.307025)"
       x1="1.2731385"
       y1="18.599604"
       x2="12.713946"
       y2="18.599604" />
  </defs>
  <sodipodi:namedview
     id="base"
     pagecolor="#ffffff"
     bordercolor="#666666"
     borderopacity="1.0"
     inkscape:pageopacity="0.0"
     inkscape:pageshadow="2"
     inkscape:zoom="5.6568542"
     inkscape:cx="23.999951"
     inkscape:cy="24.000005"
     inkscape:window-width="1400"
     inkscape:window-height="992"
     inkscape:window-x="0"
     inkscape:window-y="0"
     inkscape:current-layer="svg1" />
  <path
     style="font-size:12.000000;opacity:0.30267498;fill-rule:evenodd;stroke-width:1.2500000"
     d="M 11.386888,43.115620 C 10.048568,41.628606 10.208097,5.3768543 12.250030,3.7903052 C 13.781569,2.5959456 56.024295,2.7889538 57.357518,4.4874087 C 58.888073,6.5820995 59.642252,45.842077 57.863840,47.097318 C 56.154894,48.401268 12.888375,44.896988 11.386888,43.115620 z "
     id="path737"
     sodipodi:nodetypes="cssss" />
  <path
     style="font-size:12.000000;fill:url(#linearGradient581);fill-rule:evenodd;stroke:#261933;stroke-width:1.8750000;stroke-miterlimit:4.0000000;stroke-opacity:1.0000000"
     d="M 10.524533,39.255324 C 9.2560579,37.845913 9.4072599,3.4860143 11.342632,1.9822608 C 12.794244,0.85023052 52.832469,1.0331656 54.096116,2.6429863 C 55.546794,4.6283612 56.261618,41.839496 54.576013,43.029230 C 52.956250,44.265134 11.947664,40.943728 10.524533,39.255324 z "
     id="path738"
     sodipodi:nodetypes="cssss" />
  <path
     style="font-size:12.000000;fill:url(#linearGradient654);fill-rule:evenodd;stroke:#261933;stroke-width:1.8750000;stroke-miterlimit:4.0000000;stroke-opacity:1.0000000"
     d="M 10.758291,7.8706744 C 10.021681,7.6183824 10.855788,2.5151454 11.342632,1.9822608 C 12.498528,0.51274272 52.594799,1.2896370 54.096116,2.6429863 C 54.775892,3.3128027 55.070700,8.2231994 54.228877,9.0067224 C 52.939740,10.625033 12.612767,8.9248814 10.758291,7.8706744 z "
     id="path739"
     sodipodi:nodetypes="cssss" />
  <path
     style="font-size:12.000000;fill-rule:evenodd;stroke-width:1.0000000pt"
     d="M 47.904022,4.0748974 C 47.612560,4.4205651 48.939346,5.6708169 48.994243,5.9353780 C 49.047005,6.1740079 47.667401,7.2389210 47.963233,7.5276953 C 48.222588,7.8371014 49.572457,6.4105283 49.819493,6.4559549 C 50.002307,6.4779224 50.967759,7.9249224 51.274377,7.6742914 C 51.565856,7.4006896 50.481081,6.0191080 50.439378,5.7554099 C 50.442390,5.5134220 52.002711,4.5559228 51.767021,4.2459282 C 51.458458,3.9263703 49.880466,5.2804957 49.594262,5.1952384 C 49.347865,5.0980803 48.199174,3.7680358 47.904022,4.0748974 z "
     id="path740"
     sodipodi:nodetypes="cssssssss" />
  <path
     style="font-size:12.000000;fill:url(#linearGradient583);fill-rule:evenodd;stroke-width:1.0000000pt"
     d="M 12.306332,5.7399226 C 12.173654,5.5462804 12.090817,3.3936555 12.833642,3.3585986 C 24.537302,2.8062683 49.525773,3.8025930 49.645792,3.9777629 C 49.763817,4.1500202 25.387402,3.8421289 13.547776,4.4008740 C 12.940914,4.4295122 12.411699,5.8937066 12.306332,5.7399226 z "
     id="path741"
     sodipodi:nodetypes="cssss" />
  <g
     id="g1264"
     transform="matrix(0.769532,0.000000,0.000000,0.769532,1.222193,14.35207)">
    <path
       d="M 9.3907500,55.205208 C 0.89855006,51.574681 -0.36004585,20.648788 1.3933586,7.6139481 C 1.9560546,3.4303383 14.057062,2.1076863 17.912740,2.6320469 C 19.519886,2.8506692 19.491637,10.134394 21.321441,10.104961 C 30.373369,9.9595671 42.520309,-0.59458717 48.984616,3.0253775 C 54.538354,6.1354603 58.578829,29.067876 53.966519,35.146332 C 45.380913,46.461155 18.379181,59.047830 9.3907500,55.205208 z "
       style="font-size:12.000000;opacity:0.30267498;fill-rule:evenodd;stroke-width:18.750000;stroke-linecap:round;stroke-linejoin:round"
       id="path574" />
    <path
       d="M 10.262009,51.643477 C 2.5657216,48.353231 1.4250797,20.325950 3.0141731,8.5128357 C 3.5241833,4.7213446 14.490959,3.5226611 17.985253,3.9978755 C 19.441764,4.1960060 19.416165,10.797045 21.074465,10.770370 C 29.277978,10.638605 40.286413,1.0736552 46.144836,4.3543392 C 51.178035,7.1729219 54.839806,27.955937 50.659798,33.464673 C 42.878898,43.718983 18.407975,55.125940 10.262009,51.643477 z "
       style="font-size:12.000000;fill:url(#linearGradient862);fill-rule:evenodd;stroke:#261933;stroke-width:2.4365458;stroke-linecap:round;stroke-linejoin:round;stroke-miterlimit:4.0000000"
       id="path562" />
    <path
       d="M 10.380760,49.148444 C 5.5357957,45.257566 3.0684604,18.717130 5.2717286,9.4633704 C 6.0388679,6.2413177 16.800662,5.6747840 17.153469,6.8494794 C 14.160848,6.9776946 9.6635281,9.8146723 8.9550122,12.790296 C 6.6930676,22.290483 9.7147281,46.555207 10.380760,49.148444 z "
       style="font-size:12.000000;opacity:0.69999999;fill:url(#linearGradient860);fill-rule:evenodd;stroke:none;stroke-width:1.0000000pt"
       id="path567" />
    <path
       d="M 22.975426,12.909155 C 33.894692,10.935909 41.995267,4.4219959 44.243767,6.2554085 C 44.852251,6.7791344 36.353799,11.548911 31.173884,13.265726 C 29.422758,13.846028 22.453208,13.002519 22.975426,12.909155 z "
       style="font-size:12.000000;opacity:0.69993597;fill:url(#linearGradient1274);fill-rule:evenodd;stroke:none;stroke-width:1.0000000pt"
       id="path568" />
    <path
       d="M 10.902762,51.874847 C 8.8204506,51.541507 7.7659005,28.952067 13.087154,23.780972 C 21.656597,15.453223 43.481252,10.323756 52.574956,12.522560 C 57.148002,13.628416 54.621882,28.780732 50.390566,33.895248 C 41.379148,44.906588 19.477261,53.145166 10.902762,51.874847 z "
       style="font-size:12.000000;fill:url(#linearGradient861);fill-rule:evenodd;stroke:#261933;stroke-width:2.4365458;stroke-linecap:round;stroke-linejoin:round;stroke-miterlimit:4.0000000"
       id="path576"
       sodipodi:nodetypes="ccccc" />
    <path
       d="M 12.521049,48.174138 C 9.7391451,42.958405 12.395738,28.239690 14.537534,25.631070 C 23.910433,15.605174 48.817955,14.126251 50.785068,15.056672 C 35.233168,17.373902 27.902926,19.521763 18.814996,28.482673 C 14.775249,33.116599 11.997324,41.021947 12.521049,48.174138 z "
       style="font-size:12.000000;opacity:0.69999999;fill:url(#linearGradient1275);fill-rule:evenodd;stroke:none;stroke-width:1.2500000"
       id="path577"
       sodipodi:nodetypes="ccccc" />
    <path
       d="M 24.282612,51.383354 C 24.832913,53.027428 47.621420,60.420018 49.117648,59.179466 C 50.456932,58.057368 60.478178,24.658046 59.807187,23.333457 C 59.109717,21.873101 35.989208,18.235606 34.891773,19.234448 C 33.539974,20.472014 23.704653,49.496989 24.282612,51.383354 z "
       style="font-size:12.000000;opacity:0.30267498;fill-rule:evenodd;stroke-width:12.500000"
       id="path639" />
    <path
       d="M 24.930654,49.840572 C 25.434496,51.345767 46.297950,58.113876 47.667786,56.978120 C 48.893935,55.950810 58.068649,25.372849 57.454339,24.160127 C 56.815786,22.823131 35.648350,19.492935 34.643623,20.407401 C 33.406015,21.540427 24.401518,48.113557 24.930654,49.840572 z "
       style="font-size:12.000000;fill:url(#linearGradient869);fill-rule:evenodd;stroke:#261933;stroke-width:2.4365458;stroke-miterlimit:4.0000000"
       id="path634" />
    <path
       d="M 26.350135,48.430636 C 26.132398,47.879012 34.783910,22.230985 35.592727,21.702056 C 36.603585,21.012203 52.944754,24.066056 53.161980,24.616386 C 53.361087,25.120784 40.412531,22.765511 37.531774,25.342274 C 32.006734,30.145489 26.548730,48.933767 26.350135,48.430636 z "
       style="font-size:12.000000;opacity:0.69993597;fill:url(#linearGradient1276);fill-rule:evenodd;stroke:#ffffff;stroke-width:0.066613299pt"
       id="path640" />
  </g>
</svg>
