<?xml version="1.0" encoding="UTF-8" standalone="no"?>
<!DOCTYPE svg PUBLIC "-//W3C//DTD SVG 20010904//EN"
"http://www.w3.org/TR/2001/REC-SVG-20010904/DTD/svg10.dtd">
<!-- Created with Inkscape (http://www.inkscape.org/) -->
<svg
   id="svg1"
   sodipodi:version="0.32"
   inkscape:version="0.37"
   width="48pt"
   height="48pt"
   sodipodi:docbase="/home/dan/Projects/Lila-gtk/gtk-2.0"
   sodipodi:docname="stock_question.svg"
   xmlns="http://www.w3.org/2000/svg"
   xmlns:inkscape="http://www.inkscape.org/namespaces/inkscape"
   xmlns:sodipodi="http://sodipodi.sourceforge.net/DTD/sodipodi-0.dtd"
   xmlns:xlink="http://www.w3.org/1999/xlink">
  <defs
     id="defs3">
    <linearGradient
       id="linearGradient584">
      <stop
         style="stop-color:#ffffff;stop-opacity:1;"
         offset="0.00000000"
         id="stop585" />
      <stop
         style="stop-color:#ffffff;stop-opacity:0;"
         offset="1.00000000"
         id="stop586" />
    </linearGradient>
    <linearGradient
       id="linearGradient578">
      <stop
         style="stop-color:#faf8fd;stop-opacity:1;"
         offset="0.00000000"
         id="stop579" />
      <stop
         style="stop-color:#d9cce6;stop-opacity:1;"
         offset="1.00000000"
         id="stop580" />
    </linearGradient>
    <linearGradient
       xlink:href="#linearGradient578"
       id="linearGradient581"
       x1="0.00000000"
       y1="0.00000000"
       x2="0.98666668"
       y2="1.00781250" />
    <linearGradient
       xlink:href="#linearGradient584"
       id="linearGradient583"
       x1="0.00000000"
       y1="0.00000000"
       x2="1.00364959"
       y2="0.95238096" />
    <linearGradient
       xlink:href="#linearGradient584"
       id="linearGradient654"
       x1="-0.00000000"
       y1="-0.00000000"
       x2="0.96341461"
       y2="0.99218750" />
    <linearGradient
       xlink:href="#linearGradient584"
       id="linearGradient655"
       x1="-0.00000000"
       y1="-0.00000000"
       x2="0.98148149"
       y2="0.95312500" />
    <linearGradient
       xlink:href="#linearGradient584"
       id="linearGradient713"
       x1="-0.00000000"
       y1="-0.00000000"
       x2="0.95454544"
       y2="0.99218750" />
    <linearGradient
       xlink:href="#linearGradient584"
       id="linearGradient1245"
       x1="0.00000000"
       y1="0.00000000"
       x2="0.97692305"
       y2="0.99218750" />
  </defs>
  <sodipodi:namedview
     id="base"
     pagecolor="#ffffff"
     bordercolor="#666666"
     borderopacity="1.0"
     inkscape:pageopacity="0.0"
     inkscape:pageshadow="2"
     inkscape:zoom="7.97947191"
     inkscape:cx="24.3048889"
     inkscape:cy="23.5023315"
     inkscape:window-width="632"
     inkscape:window-height="516"
     inkscape:window-x="236"
     inkscape:window-y="67" />
  <path
     style="font-size:12;fill:#000000;fill-rule:evenodd;stroke:none;stroke-width:1.875;stroke-opacity:1;stroke-dasharray:none;fill-opacity:1;opacity:0.296369;"
     d="M 2.3831784 19.730817 C 2.3831784 13.953932 15.615956 8.0646689 30.303475 7.8439604 C 46.208919 7.9054685 59.329525 14.204427 59.329525 20.283694 C 59.329525 29.132108 47.450909 57.056504 30.303475 57.050024 C 14.096915 57.043801 2.3831784 28.881614 2.3831784 19.730817 z "
     id="path1464"
     sodipodi:nodetypes="cssss" />
  <path
     style="font-size:12;fill:url(#linearGradient581);fill-rule:evenodd;stroke:#261933;stroke-width:1.875;stroke-opacity:1;stroke-dasharray:none;"
     d="M 3.3230902 19.007633 C 3.3230902 13.628034 15.645827 8.1437854 29.32326 7.9382554 C 44.134859 7.9955334 56.353138 13.861302 56.353138 19.522488 C 56.353138 27.762381 45.291435 53.766367 29.32326 53.760333 C 14.231253 53.754538 3.3230902 27.529114 3.3230902 19.007633 z "
     id="path1462"
     sodipodi:nodetypes="cssss" />
  <path
     style="fill:#261933;fill-rule:evenodd;stroke:none;stroke-opacity:1;stroke-width:1pt;stroke-linejoin:miter;stroke-linecap:butt;fill-opacity:1;"
     d="M 20.291061 23.466357 C 19.478889 19.76514 25.256744 12.677493 31.179059 12.221373 C 34.060449 12.09025 39.13049 19.008635 38.854206 22.395406 C 38.340032 28.519845 32.861538 27.906723 31.893027 31.141503 C 31.231885 33.227843 31.666732 37.626152 31.357551 38.638158 C 31.074834 39.726757 27.324038 39.868857 26.895257 38.816651 C 26.178223 37.316608 26.336802 33.611432 26.895257 31.319995 C 27.767128 27.463891 32.91994 26.425462 33.499453 22.930882 C 33.882312 20.800657 32.511276 17.66065 30.108109 17.576128 C 26.588612 17.442412 25.800267 23.835361 23.325421 25.072782 C 22.23043 25.620277 20.476879 24.551689 20.291061 23.466357 z "
     id="path1465"
     sodipodi:nodetypes="cssssssssss" />
  <path
     style="font-size:12;fill:#261933;fill-rule:evenodd;stroke-width:1pt;fill-opacity:1;"
     d="M 32.606994 46.224058 C 32.606994 47.948289 31.207618 49.347665 29.483387 49.347665 C 27.759157 49.347665 26.359781 47.948289 26.359781 46.224058 C 26.359781 44.499828 27.759157 43.100452 29.483387 43.100452 C 31.207618 43.100452 32.606994 44.499828 32.606994 46.224058 z "
     id="path1467" />
  <path
     style="fill:url(#linearGradient583);fill-rule:evenodd;stroke:none;stroke-opacity:1;stroke-width:1pt;stroke-linejoin:miter;stroke-linecap:butt;fill-opacity:1;"
     d="M 7.0493387 22.246875 C 5.9084045 23.09347 5.683925 18.230555 6.8926867 17.390664 C 23.062962 6.2638237 45.089903 11.889304 45.115768 12.691105 C 45.142121 13.508041 25.169736 8.6445454 7.0493387 22.246875 z "
     id="path1463"
     sodipodi:nodetypes="csss" />
</svg>
