<?xml version="1.0" encoding="UTF-8" standalone="no"?>
<!DOCTYPE svg PUBLIC "-//W3C//DTD SVG 20010904//EN"
"http://www.w3.org/TR/2001/REC-SVG-20010904/DTD/svg10.dtd">
<!-- Created with Inkscape (http://www.inkscape.org/) -->
<svg
   id="svg1"
   sodipodi:version="0.32"
   inkscape:version="0.40"
   width="48pt"
   height="48pt"
   sodipodi:docbase="/home/jakob/dev/lila-cvs/lila-theme/trunk/lila/kde/scalable/actions"
   sodipodi:docname="rebuild.svg"
   xmlns="http://www.w3.org/2000/svg"
   xmlns:cc="http://web.resource.org/cc/"
   xmlns:inkscape="http://www.inkscape.org/namespaces/inkscape"
   xmlns:sodipodi="http://sodipodi.sourceforge.net/DTD/sodipodi-0.dtd"
   xmlns:rdf="http://www.w3.org/1999/02/22-rdf-syntax-ns#"
   xmlns:dc="http://purl.org/dc/elements/1.1/"
   xmlns:xlink="http://www.w3.org/1999/xlink">
  <metadata
     id="metadata32">
    <rdf:RDF
       id="RDF33">
      <cc:Work
         rdf:about=""
         id="Work34">
        <dc:format
           id="format35">image/svg+xml</dc:format>
        <dc:type
           id="type37"
           rdf:resource="http://purl.org/dc/dcmitype/StillImage" />
      </cc:Work>
    </rdf:RDF>
  </metadata>
  <defs
     id="defs3">
    <linearGradient
       id="linearGradient584">
      <stop
         style="stop-color:#ffffff;stop-opacity:1;"
         offset="0.00000000"
         id="stop585" />
      <stop
         style="stop-color:#ffffff;stop-opacity:0;"
         offset="1.00000000"
         id="stop586" />
    </linearGradient>
    <linearGradient
       id="linearGradient578">
      <stop
         style="stop-color:#d9cce6;stop-opacity:1;"
         offset="0.00000000"
         id="stop579" />
      <stop
         style="stop-color:#73667f;stop-opacity:1;"
         offset="1.00000000"
         id="stop580" />
    </linearGradient>
    <linearGradient
       xlink:href="#linearGradient584"
       id="linearGradient581"
       x1="12.195200"
       y1="34.690324"
       x2="81.265222"
       y2="7.4917665"
       gradientTransform="matrix(1.058571,0.000000,0.000000,0.975344,-0.407867,1.307025)"
       gradientUnits="userSpaceOnUse" />
    <linearGradient
       xlink:href="#linearGradient584"
       id="linearGradient583"
       x1="1.2731385"
       y1="18.599604"
       x2="12.713946"
       y2="18.599604"
       gradientTransform="matrix(3.886965,0.000000,0.000000,0.265624,-0.407867,1.307025)"
       gradientUnits="userSpaceOnUse" />
    <linearGradient
       xlink:href="#linearGradient578"
       id="linearGradient654"
       x1="0.62902899"
       y1="2.0319597"
       x2="27.307993"
       y2="2.0319597"
       gradientTransform="matrix(2.088378,0.000000,0.000000,0.494389,-0.407867,1.307025)"
       gradientUnits="userSpaceOnUse" />
    <linearGradient
       xlink:href="#linearGradient578"
       id="linearGradient655"
       x1="-0.00000000"
       y1="-0.00000000"
       x2="1.00000000"
       y2="-0.00000000" />
    <linearGradient
       xlink:href="#linearGradient584"
       id="linearGradient653"
       x1="0.00000000"
       y1="-0.00000000"
       x2="0.97945207"
       y2="0.97656250" />
    <linearGradient
       xlink:href="#linearGradient584"
       id="linearGradient746"
       x1="51.039787"
       y1="14.406930"
       x2="65.279172"
       y2="28.378763"
       gradientTransform="scale(0.795275,1.257427)"
       gradientUnits="userSpaceOnUse" />
    <linearGradient
       xlink:href="#linearGradient584"
       id="linearGradient744"
       x1="27.812448"
       y1="27.668201"
       x2="38.963023"
       y2="38.470320"
       gradientTransform="scale(0.964314,1.037007)"
       gradientUnits="userSpaceOnUse" />
    <linearGradient
       xlink:href="#linearGradient584"
       id="linearGradient1251"
       x1="0.00000000"
       y1="0.00781250"
       x2="0.95370370"
       y2="0.97656250" />
    <linearGradient
       xlink:href="#linearGradient578"
       id="linearGradient1250"
       x1="0.04000000"
       y1="0.00781250"
       x2="0.98000002"
       y2="0.98437500" />
    <linearGradient
       id="linearGradient1247">
      <stop
         style="stop-color:#d9cce6;stop-opacity:1;"
         offset="0.00000000"
         id="stop1248" />
      <stop
         style="stop-color:#73667f;stop-opacity:1;"
         offset="1.00000000"
         id="stop1249" />
    </linearGradient>
    <linearGradient
       id="linearGradient1244">
      <stop
         style="stop-color:#ffffff;stop-opacity:1;"
         offset="0.00000000"
         id="stop1245" />
      <stop
         style="stop-color:#ffffff;stop-opacity:0;"
         offset="1.00000000"
         id="stop1246" />
    </linearGradient>
    <linearGradient
       inkscape:collect="always"
       xlink:href="#linearGradient578"
       id="linearGradient1264"
       gradientUnits="userSpaceOnUse"
       gradientTransform="matrix(1.058571,1.563031e-17,-1.820170e-17,0.975344,-0.407867,1.307025)"
       x1="12.195200"
       y1="34.690323"
       x2="81.265221"
       y2="7.4917665" />
    <linearGradient
       inkscape:collect="always"
       xlink:href="#linearGradient578"
       id="linearGradient1265"
       gradientUnits="userSpaceOnUse"
       gradientTransform="matrix(1.058571,1.563031e-17,-1.820170e-17,0.975344,-0.407867,1.307025)"
       x1="12.195200"
       y1="34.690323"
       x2="81.265221"
       y2="7.4917665" />
    <linearGradient
       inkscape:collect="always"
       xlink:href="#linearGradient584"
       id="linearGradient1266"
       gradientUnits="userSpaceOnUse"
       gradientTransform="matrix(3.886965,5.739290e-17,-4.957030e-18,0.265624,-0.407867,1.307025)"
       x1="1.2731385"
       y1="18.599604"
       x2="12.713946"
       y2="18.599604" />
  </defs>
  <sodipodi:namedview
     id="base"
     pagecolor="#ffffff"
     bordercolor="#666666"
     borderopacity="1.0"
     inkscape:pageopacity="0.0"
     inkscape:pageshadow="2"
     inkscape:zoom="1.0000000"
     inkscape:cx="23.999939"
     inkscape:cy="24.000000"
     inkscape:window-width="1400"
     inkscape:window-height="992"
     inkscape:window-x="0"
     inkscape:window-y="0"
     inkscape:current-layer="svg1" />
  <path
     style="font-size:12.000000;opacity:0.30267498;fill-rule:evenodd;stroke-width:1.2500000"
     d="M 3.5525916,53.681338 C 1.9624538,51.914527 2.1519994,8.8416480 4.5781422,6.9565739 C 6.3978563,5.5374837 56.588970,5.7668083 58.173052,7.7848444 C 59.991596,10.273672 60.887682,56.920805 58.774644,58.412232 C 56.744142,59.961533 5.3365978,55.797888 3.5525916,53.681338 z "
     id="path737"
     sodipodi:nodetypes="cssss" />
  <path
     style="font-size:12.000000;fill:url(#linearGradient581);fill-rule:evenodd;stroke:#261933;stroke-width:3.1072614;stroke-opacity:1.0000000;"
     d="M 2.5279755,49.094688 C 1.0208248,47.420083 1.2004775,6.5950277 3.5000080,4.8083280 C 5.2247557,3.4632950 52.796570,3.6806511 54.297985,5.5933755 C 56.021623,7.9523184 56.870948,52.165098 54.868179,53.578692 C 52.943642,55.047144 4.2188828,51.100783 2.5279755,49.094688 z "
     id="path738"
     sodipodi:nodetypes="cssss" />
  <path
     style="font-size:12.000000;fill:url(#linearGradient654);fill-rule:evenodd;stroke:#261933;stroke-width:3.1072614;stroke-opacity:1.0000000;"
     d="M 2.8057183,11.804705 C 1.9305074,11.504942 2.9215597,5.4414801 3.5000080,4.8083280 C 4.8733979,3.0623055 52.514180,3.9853802 54.297985,5.5933755 C 55.105667,6.3892246 55.455947,12.223561 54.455726,13.154512 C 52.924025,15.077324 5.0091323,13.057271 2.8057183,11.804705 z "
     id="path739"
     sodipodi:nodetypes="cssss" />
  <path
     style="font-size:12.000000;fill-rule:evenodd;stroke-width:1.0000000pt"
     d="M 46.940787,7.2947150 C 46.594484,7.7054234 48.170917,9.1909225 48.236144,9.5052635 C 48.298834,9.7887939 46.659644,11.054081 47.011139,11.397191 C 47.319294,11.764815 48.923155,10.069818 49.216673,10.123792 C 49.433885,10.149893 50.580996,11.869160 50.945308,11.571371 C 51.291632,11.246288 50.002745,9.6047481 49.953195,9.2914326 C 49.956774,9.0039122 51.810685,7.8662500 51.530648,7.4979269 C 51.164026,7.1182410 49.289118,8.7271585 48.949062,8.6258592 C 48.656304,8.5104199 47.291475,6.9301143 46.940787,7.2947150 z "
     id="path740"
     sodipodi:nodetypes="cssssssss" />
  <path
     style="font-size:12.000000;fill:url(#linearGradient583);fill-rule:evenodd;stroke-width:1.0000000pt"
     d="M 4.6450384,9.2730312 C 4.4873955,9.0429533 4.3889714,6.4852906 5.2715673,6.4436374 C 19.177387,5.7873807 48.867686,6.9711738 49.010288,7.1793036 C 49.150521,7.3839728 20.187442,7.0181488 6.1200726,7.6820273 C 5.3990227,7.7160541 4.7702310,9.4557512 4.6450384,9.2730312 z "
     id="path741"
     sodipodi:nodetypes="cssss" />
  <g
     id="g1254"
     transform="matrix(0.579565,3.152696e-2,-3.152696e-2,0.579565,11.62401,14.59437)">
    <path
       style="opacity:0.30267498;fill:#000000;fill-opacity:1.0000000;fill-rule:evenodd;stroke:none;stroke-width:18.750000;stroke-linecap:butt;stroke-linejoin:miter;stroke-opacity:1.0000000"
       d="M 45.502790,15.393363 C 50.673704,14.749013 60.785194,22.797470 59.528572,34.155123 C 57.688593,46.355926 41.406475,48.952237 41.131117,49.820282 C 39.584946,51.866686 42.139132,60.367506 40.766811,59.656544 C 37.099566,57.756645 26.164663,45.367506 26.012419,42.716315 C 26.043228,40.085068 37.621204,27.565185 41.131117,25.958238 C 42.660771,25.257914 40.709160,35.829380 41.313269,36.158805 C 42.287818,36.679427 48.532685,37.229792 51.149532,31.240675 C 52.552348,27.847930 51.538050,18.627999 45.502790,15.393363 z "
       id="path1255"
       sodipodi:nodetypes="cccccccsc" />
    <path
       style="opacity:0.29636899;fill:#000000;fill-opacity:1.0000000;fill-rule:evenodd;stroke:none;stroke-width:18.750000;stroke-linecap:butt;stroke-linejoin:miter;stroke-opacity:1.0000000"
       d="M 16.980376,47.888408 C 11.462772,48.575959 0.67335240,39.987886 2.0142280,27.868753 C 3.9775683,14.849941 21.351330,12.079559 21.645150,11.153316 C 23.294986,8.9697083 20.569551,-0.10105368 22.033880,0.65757515 C 25.946998,2.6848540 37.615039,15.904632 37.777491,18.733573 C 37.744615,21.541233 25.390386,34.900518 21.645150,36.615203 C 20.012939,37.362481 22.095397,26.082245 21.450786,25.730734 C 20.410895,25.175206 13.747338,24.587943 10.955044,30.978602 C 9.4581757,34.598817 10.540479,44.436903 16.980376,47.888408 z "
       id="path1256"
       sodipodi:nodetypes="cccccccsc" />
    <path
       style="font-size:12.000000;fill:url(#linearGradient1264);fill-opacity:1.0000000;fill-rule:evenodd;stroke:#261933;stroke-width:1.8792400"
       d="M 16.279553,44.255823 C 11.412310,44.862332 1.8946357,37.286535 3.0774629,26.595883 C 4.8093836,15.111594 20.135305,12.667755 20.394491,11.850689 C 21.849860,9.9244638 19.445674,1.9228714 20.737401,2.5920793 C 24.189282,4.3804033 34.482012,16.041969 34.625316,18.537463 C 34.596315,21.014184 23.698278,32.798813 20.394491,34.311390 C 18.954668,34.970585 20.791667,25.019949 20.223035,24.709869 C 19.305718,24.219823 13.427593,23.701779 10.964426,29.339173 C 9.6439927,32.532674 10.598725,41.211147 16.279553,44.255823 z "
       id="path735"
       sodipodi:nodetypes="cccccccsc" />
    <path
       style="font-size:12.000000;fill:url(#linearGradient1265);fill-opacity:1.0000000;fill-rule:evenodd;stroke:#261933;stroke-width:1.8792400"
       d="M 43.268738,14.931243 C 48.135982,14.324733 57.653655,21.900530 56.470829,32.591183 C 54.738907,44.075472 39.412987,46.519309 39.153801,47.336376 C 37.698430,49.262600 40.102617,57.264193 38.810889,56.594985 C 35.359008,54.806661 25.066279,43.145095 24.922976,40.649602 C 24.951977,38.172880 35.850014,26.388252 39.153801,24.875674 C 40.593623,24.216479 38.756623,34.167116 39.325256,34.477195 C 40.242572,34.967243 46.120698,35.485287 48.583866,29.847892 C 49.904298,26.654392 48.949567,17.975918 43.268738,14.931243 z "
       id="path736"
       sodipodi:nodetypes="cccccccsc" />
    <path
       style="font-size:12.000000;opacity:0.20178296;fill-rule:evenodd;stroke:none;stroke-width:0.96522999pt"
       d="M 13.879172,43.227089 C 10.427659,37.399792 8.7947263,33.338110 9.9356913,29.853542 C 10.909347,26.879944 18.682574,23.270698 20.565946,24.024047 C 22.111688,24.642343 18.722157,34.524359 20.223034,33.968478 C 23.351462,32.809801 36.643312,18.978234 34.453861,18.880375 C 19.961440,18.068836 9.5803007,20.801227 7.7067677,26.424427 C 4.4887691,35.788385 10.141900,41.171819 13.879172,43.227089 z "
       id="path1259"
       sodipodi:nodetypes="csssssc" />
    <path
       style="font-size:12.000000;opacity:0.20178296;fill-rule:evenodd;stroke:none;stroke-width:1.2500000"
       d="M 46.258630,15.622715 C 57.768562,21.797321 57.686937,33.338108 52.088125,39.969429 C 50.038828,42.333888 41.455229,45.731398 39.571857,46.484746 C 38.026115,47.103042 41.415646,56.985057 39.914768,56.429177 C 36.786340,55.270502 23.494491,41.438933 25.683942,41.341075 C 40.176362,40.529536 43.093288,40.761677 47.973187,37.397592 C 51.877008,34.588195 58.225778,27.283905 46.258630,15.622715 z "
       id="path1260"
       sodipodi:nodetypes="csssssc" />
    <path
       style="fill:url(#linearGradient1266);fill-opacity:1.0000000;fill-rule:evenodd;stroke:none;stroke-width:1.0000000pt;stroke-linecap:butt;stroke-linejoin:miter;stroke-opacity:1.0000000"
       d="M 4.7697397,31.518134 C 4.6028884,31.309570 3.5943174,24.438864 8.6493406,19.636858 C 13.325601,15.268734 18.805700,15.795207 22.098088,12.676103 C 23.412724,11.430656 21.964950,7.3519532 22.470416,6.5432073 C 22.773200,6.0587523 25.166877,8.4881672 25.380118,8.9679563 C 25.490177,9.2155919 23.602719,8.2846762 23.440317,8.7254822 C 23.036943,9.8203515 24.764026,12.626531 23.682791,13.574983 C 20.157002,16.667782 14.906533,16.184647 9.6192405,20.849234 C 4.0666635,25.757958 4.9261883,31.713694 4.7697397,31.518134 z "
       id="path742"
       sodipodi:nodetypes="cssssssss" />
    <path
       style="fill:url(#linearGradient744);fill-opacity:1.0000000;fill-rule:evenodd;stroke:none;stroke-width:1.0000000pt;stroke-linecap:butt;stroke-linejoin:miter;stroke-opacity:1.0000000"
       d="M 26.909808,40.140885 C 26.971477,39.616703 34.532435,31.056887 37.368607,28.653352 C 37.904399,28.199292 37.657488,30.874165 37.025696,31.568098 C 34.171222,34.703343 26.857174,40.588286 26.909808,40.140885 z "
       id="path743"
       sodipodi:nodetypes="csss" />
    <path
       style="fill:url(#linearGradient746);fill-opacity:1.0000000;fill-rule:evenodd;stroke:none;stroke-width:1.0000000pt;stroke-linecap:butt;stroke-linejoin:miter;stroke-opacity:1.0000000"
       d="M 40.454810,36.197401 C 40.184623,36.170385 47.278988,37.408830 50.227787,29.510630 C 52.440973,23.353405 47.377524,17.652341 47.655951,17.680184 C 47.949042,17.709493 53.443250,24.756819 51.942346,29.682085 C 49.537694,37.298326 40.756142,36.227535 40.454810,36.197401 z "
       id="path745"
       sodipodi:nodetypes="cssss" />
  </g>
</svg>
