<?xml version="1.0" encoding="UTF-8" standalone="no"?>
<!DOCTYPE svg PUBLIC "-//W3C//DTD SVG 20010904//EN"
"http://www.w3.org/TR/2001/REC-SVG-20010904/DTD/svg10.dtd">
<!-- Created with Inkscape (http://www.inkscape.org/) -->
<svg
   id="svg1"
   sodipodi:version="0.32"
   inkscape:version="0.37"
   width="48pt"
   height="48pt"
   sodipodi:docbase="/home/tom"
   sodipodi:docname="reload_page.svg"
   xmlns="http://www.w3.org/2000/svg"
   xmlns:inkscape="http://www.inkscape.org/namespaces/inkscape"
   xmlns:sodipodi="http://sodipodi.sourceforge.net/DTD/sodipodi-0.dtd"
   xmlns:xlink="http://www.w3.org/1999/xlink">
  <defs
     id="defs3">
    <linearGradient
       id="linearGradient703">
      <stop
         style="stop-color:#d9cce6;stop-opacity:1;"
         offset="0.00000000"
         id="stop704" />
      <stop
         style="stop-color:#73667f;stop-opacity:1;"
         offset="1.00000000"
         id="stop705" />
    </linearGradient>
    <linearGradient
       id="linearGradient866">
      <stop
         style="stop-color:#ffffff;stop-opacity:1;"
         offset="0.00000000"
         id="stop867" />
      <stop
         style="stop-color:#d9cce6;stop-opacity:1;"
         offset="1.00000000"
         id="stop868" />
    </linearGradient>
    <linearGradient
       id="linearGradient584">
      <stop
         style="stop-color:#ffffff;stop-opacity:1;"
         offset="0.00000000"
         id="stop585" />
      <stop
         style="stop-color:#ffffff;stop-opacity:0;"
         offset="1.00000000"
         id="stop586" />
    </linearGradient>
    <linearGradient
       xlink:href="#linearGradient866"
       id="linearGradient586"
       x1="-0.00000000"
       y1="0.01562500"
       x2="0.99122804"
       y2="0.98437500" />
    <linearGradient
       xlink:href="#linearGradient584"
       id="linearGradient587"
       x1="0.00000000"
       y1="-0.00000000"
       x2="1.00000000"
       y2="1.00000000" />
    <linearGradient
       xlink:href="#linearGradient703"
       id="linearGradient700"
       x1="-0.00000000"
       y1="0.00000000"
       x2="1.00000000"
       y2="0.00000000" />
    <linearGradient
       xlink:href="#linearGradient584"
       id="linearGradient701"
       x1="-0.00000000"
       y1="0.00000000"
       x2="1.00000000"
       y2="0.00000000" />
    <linearGradient
       xlink:href="#linearGradient584"
       id="linearGradient702"
       x1="0.00467290"
       y1="0.02343750"
       x2="0.99065423"
       y2="0.99218750" />
    <linearGradient
       xlink:href="#linearGradient703"
       id="linearGradient845"
       x1="0.03333334"
       y1="0.02343750"
       x2="0.96666664"
       y2="0.98437500" />
    <radialGradient
       xlink:href="#linearGradient703"
       id="radialGradient846" />
    <linearGradient
       xlink:href="#linearGradient584"
       id="linearGradient847"
       x1="0.00000000"
       y1="-0.00000000"
       x2="0.98540145"
       y2="0.93902439" />
    <linearGradient
       xlink:href="#linearGradient703"
       id="linearGradient848"
       x1="0.01219511"
       y1="0.01562503"
       x2="0.99999994"
       y2="1.00000012" />
    <linearGradient
       xlink:href="#linearGradient584"
       id="linearGradient849"
       x1="0.00000000"
       y1="-0.00000000"
       x2="0.98514849"
       y2="1.02343750" />
    <linearGradient
       xlink:href="#linearGradient703"
       id="linearGradient850"
       x1="-0.00000000"
       y1="0.00000000"
       x2="1.00000000"
       y2="0.95652175" />
    <linearGradient
       xlink:href="#linearGradient584"
       id="linearGradient863"
       x1="-0.00000000"
       y1="-0.00000000"
       x2="0.99635035"
       y2="0.82142860" />
  </defs>
  <sodipodi:namedview
     id="base"
     pagecolor="#ffffff"
     bordercolor="#666666"
     borderopacity="1.0"
     inkscape:pageopacity="0.0"
     inkscape:pageshadow="2"
     inkscape:zoom="3.98973596"
     inkscape:cx="23.7002996"
     inkscape:cy="24.2014062"
     inkscape:window-width="640"
     inkscape:window-height="574"
     inkscape:window-x="134"
     inkscape:window-y="52" />
  <path
     d="M 4.4389304 48.086315 C 5.2483181 50.50443 38.765774 61.377487 40.966438 59.55288 C 42.936267 57.902492 57.675565 8.7785888 56.688667 6.8303779 C 55.662821 4.6824777 21.657054 -0.6675724 20.042945 0.80153134 C 18.054709 2.621752 3.5888672 45.311841 4.4389304 48.086315 z "
     style="font-size:12;opacity:0.302675;fill-rule:evenodd;stroke-width:12.5;"
     id="path639" />
  <path
     d="M 4.5541516 46.08493 C 5.3114351 48.34726 36.66955 58.519843 38.728432 56.812781 C 40.571358 55.268717 54.36111 9.3095333 53.437795 7.4867937 C 52.478034 5.477268 20.663028 0.47192513 19.152904 1.8463842 C 17.292759 3.5493405 3.7588508 43.489198 4.5541516 46.08493 z "
     style="font-size:12;fill:url(#linearGradient586);fill-rule:evenodd;stroke:#261933;stroke-width:1.87726;"
     id="path634" />
  <path
     d="M 6.6876568 43.965773 C 6.360392 43.13667 19.363758 4.5872629 20.579427 3.7922731 C 22.09876 2.7554118 46.659814 7.3454032 46.98631 8.172561 C 47.28557 8.9306762 27.823671 5.3906629 23.493845 9.2635774 C 15.189619 16.482895 6.9861475 44.721984 6.6876568 43.965773 z "
     style="font-size:12;opacity:0.699936;fill:url(#linearGradient587);fill-rule:evenodd;stroke:none;stroke-width:0.100121pt;"
     id="path640" />
  <path
     style="fill:#000000;fill-rule:evenodd;stroke:none;stroke-opacity:1;stroke-width:18.75;stroke-linejoin:miter;stroke-linecap:butt;fill-opacity:1;stroke-dasharray:none;opacity:0.302675;"
     d="M 38.179448 18.877816 C 41.627311 18.448177 48.369453 23.814729 47.531561 31.387787 C 46.3047 39.523041 35.448106 41.25421 35.264502 41.833005 C 34.233546 43.197507 35.936627 48.865686 35.02159 48.391631 C 32.576344 47.124816 25.285166 38.863983 25.183653 37.096221 C 25.204196 35.341757 32.924162 26.993747 35.264502 25.922267 C 36.284445 25.455304 34.98315 32.504149 35.385958 32.723803 C 36.035767 33.070943 40.199722 33.437916 41.944583 29.444491 C 42.879954 27.182276 42.203639 21.034608 38.179448 18.877816 z "
     id="path741"
     sodipodi:nodetypes="cccccccsc" />
  <path
     style="fill:#000000;fill-rule:evenodd;stroke:none;stroke-opacity:1;stroke-width:18.75;stroke-linejoin:miter;stroke-linecap:butt;fill-opacity:1;stroke-dasharray:none;opacity:0.296369;"
     d="M 19.161266 40.54487 C 15.482237 41.003316 8.2880648 35.276958 9.1821338 27.19616 C 10.491251 18.515473 22.075731 16.668238 22.271645 16.050637 C 23.371723 14.594651 21.554457 8.5464466 22.530843 9.0522852 C 25.140032 10.404034 32.920051 19.218721 33.028371 21.105003 C 33.00645 22.977095 24.768894 31.884802 22.271645 33.02812 C 21.183319 33.52639 22.571861 26.004951 22.142047 25.770572 C 21.448668 25.400156 17.00554 25.008581 15.143694 29.269746 C 14.145612 31.683634 14.86727 38.243475 19.161266 40.54487 z "
     id="path739"
     sodipodi:nodetypes="cccccccsc" />
  <path
     style="font-size:12;fill-rule:evenodd;stroke:#261933;stroke-width:1.25304;fill:url(#linearGradient700);"
     d="M 18.693971 38.122734 C 15.448589 38.527143 9.1023928 33.475751 9.8910778 26.347436 C 11.045888 18.689938 21.26491 17.060435 21.43773 16.515632 C 22.408142 15.231263 20.805078 9.8959592 21.666376 10.342174 C 23.968022 11.534593 30.83101 19.310294 30.926563 20.97424 C 30.907226 22.625669 23.64063 30.483426 21.43773 31.491983 C 20.477685 31.931522 21.702559 25.296634 21.323407 25.089878 C 20.711758 24.763126 16.79234 24.417704 15.149949 28.176607 C 14.269511 30.305971 14.906107 36.092604 18.693971 38.122734 z "
     id="path735"
     sodipodi:nodetypes="cccccccsc" />
  <path
     style="font-size:12;opacity:0.201783;fill-rule:evenodd;stroke:none;stroke-width:0.96523pt;"
     d="M 17.093444 37.436795 C 14.792044 33.551269 13.703236 30.843019 14.46401 28.519578 C 15.113224 26.536842 20.296258 24.130268 21.552053 24.632586 C 22.582723 25.044854 20.322651 31.633987 21.323406 31.263336 C 23.40938 30.490753 32.272123 21.268137 30.81224 21.202888 C 21.14898 20.661769 14.227042 22.483673 12.977807 26.233112 C 10.832109 32.476814 14.601505 36.066381 17.093444 37.436795 z "
     id="path737"
     sodipodi:nodetypes="csssssc" />
  <path
     style="fill:url(#linearGradient701);fill-rule:evenodd;stroke:none;stroke-opacity:1;stroke-width:1pt;stroke-linejoin:miter;stroke-linecap:butt;fill-opacity:1;"
     d="M 11.019455 29.629495 C 10.908202 29.490429 10.235707 24.909178 13.606296 21.707295 C 16.724334 18.794716 20.378355 19.145758 22.573655 17.066001 C 23.450228 16.235562 22.484882 13.515964 22.821916 12.976708 C 23.023806 12.653682 24.619863 14.273569 24.762048 14.593482 C 24.835433 14.758601 23.576913 14.137885 23.468627 14.431805 C 23.199665 15.161843 24.351249 17.032948 23.630303 17.665357 C 21.279377 19.727574 17.778469 19.405429 14.253006 22.515684 C 10.550658 25.788723 11.123772 29.759891 11.019455 29.629495 z "
     id="path742"
     sodipodi:nodetypes="cssssssss" />
  <path
     style="font-size:12;fill:url(#linearGradient700);fill-rule:evenodd;stroke:#261933;stroke-width:1.25304;"
     d="M 36.788496 18.833829 C 40.041204 18.493327 46.286824 23.668556 45.358095 30.779981 C 44.052904 38.413286 33.803811 39.84149 33.620309 40.382789 C 32.624824 41.647824 34.122646 47.013624 33.270291 46.550556 C 30.992542 45.3131 24.28381 37.403925 24.221001 35.738421 C 24.272814 34.087692 31.692548 26.374371 33.914857 25.409335 C 34.883361 24.988763 33.528232 31.598277 33.903244 31.81245 C 34.508349 32.151168 38.420215 32.573609 40.136217 28.847735 C 41.058364 26.736099 40.5357 20.938065 36.788496 18.833829 z "
     id="path643"
     sodipodi:nodetypes="cccccccsc" />
  <path
     style="font-size:12;opacity:0.201783;fill-rule:evenodd;stroke:none;stroke-width:0.96523pt;"
     d="M 38.375223 19.551114 C 40.599759 23.481152 41.635092 26.210292 40.828769 28.518321 C 40.140685 30.487905 34.911321 32.792076 33.665649 32.265157 C 32.643286 31.832698 35.032513 25.289289 34.024662 25.640186 C 31.923897 26.371594 22.881482 35.418117 24.339799 35.512066 C 33.990548 36.243133 40.946979 34.557719 42.269715 30.833575 C 44.537796 24.633281 40.839727 20.970273 38.375223 19.551114 z "
     id="path644"
     sodipodi:nodetypes="csssssc" />
  <path
     style="fill:url(#linearGradient701);fill-rule:evenodd;stroke:none;stroke-opacity:1;stroke-width:1pt;stroke-linejoin:miter;stroke-linecap:butt;fill-opacity:1;"
     d="M 44.294487 27.476365 C 44.402983 27.617592 44.985246 32.211183 41.552336 35.346155 C 38.377618 38.196847 34.731207 37.774007 32.495428 39.810186 C 31.602692 40.623224 32.514363 43.361282 32.166789 43.893805 C 31.958585 44.212798 30.394696 42.561834 30.25883 42.239186 C 30.188707 42.072656 31.434775 42.718004 31.548821 42.42627 C 31.832089 41.701663 30.717528 39.808271 31.450772 39.190164 C 33.841802 37.174583 37.335698 37.56552 40.92165 34.525204 C 44.687654 31.325614 44.192754 27.343942 44.294487 27.476365 z "
     id="path645"
     sodipodi:nodetypes="cssssssss" />
</svg>
