<?xml version="1.0" encoding="UTF-8" standalone="no"?>
<!-- Created with Inkscape (http://www.inkscape.org/) -->
<svg
   xmlns:dc="http://purl.org/dc/elements/1.1/"
   xmlns:cc="http://web.resource.org/cc/"
   xmlns:rdf="http://www.w3.org/1999/02/22-rdf-syntax-ns#"
   xmlns:svg="http://www.w3.org/2000/svg"
   xmlns="http://www.w3.org/2000/svg"
   xmlns:xlink="http://www.w3.org/1999/xlink"
   xmlns:sodipodi="http://inkscape.sourceforge.net/DTD/sodipodi-0.dtd"
   xmlns:inkscape="http://www.inkscape.org/namespaces/inkscape"
   id="svg1"
   sodipodi:version="0.32"
   inkscape:version="0.42"
   width="48pt"
   height="48pt"
   sodipodi:docbase="/home/jakob/dev/lila/lila-theme/trunk/lila/kde/scalable/actions"
   sodipodi:docname="reload.svg">
  <metadata
     id="metadata24">
    <rdf:RDF>
      <cc:Work
         rdf:about="">
        <dc:format>image/svg+xml</dc:format>
        <dc:type
           rdf:resource="http://purl.org/dc/dcmitype/StillImage" />
      </cc:Work>
    </rdf:RDF>
  </metadata>
  <defs
     id="defs3">
    <linearGradient
       id="linearGradient584">
      <stop
         style="stop-color:#ffffff;stop-opacity:1;"
         offset="0.00000000"
         id="stop585" />
      <stop
         style="stop-color:#ffffff;stop-opacity:0;"
         offset="1.00000000"
         id="stop586" />
    </linearGradient>
    <linearGradient
       id="linearGradient578">
      <stop
         style="stop-color:#d9cce6;stop-opacity:1;"
         offset="0.00000000"
         id="stop579" />
      <stop
         style="stop-color:#73667f;stop-opacity:1;"
         offset="1.00000000"
         id="stop580" />
    </linearGradient>
    <linearGradient
       xlink:href="#linearGradient578"
       id="linearGradient581"
       x1="28.884377"
       y1="12.536167"
       x2="64.830908"
       y2="49.880884"
       gradientTransform="matrix(0.876753,0.000000,0.000000,1.140572,6.496963e-5,0.000000)"
       gradientUnits="userSpaceOnUse" />
    <linearGradient
       xlink:href="#linearGradient584"
       id="linearGradient583"
       x1="5.0215772"
       y1="6.0846706"
       x2="26.792050"
       y2="28.198610"
       gradientTransform="matrix(0.911518,0.000000,0.000000,1.097071,6.496963e-5,0.000000)"
       gradientUnits="userSpaceOnUse" />
    <linearGradient
       xlink:href="#linearGradient584"
       id="linearGradient744"
       x1="27.812448"
       y1="27.668201"
       x2="38.963023"
       y2="38.470320"
       gradientTransform="matrix(0.964314,0.000000,0.000000,1.037007,6.496963e-5,0.000000)"
       gradientUnits="userSpaceOnUse" />
    <linearGradient
       xlink:href="#linearGradient584"
       id="linearGradient746"
       x1="51.039787"
       y1="14.406930"
       x2="65.279172"
       y2="28.378763"
       gradientTransform="matrix(0.795275,0.000000,0.000000,1.257427,6.496963e-5,0.000000)"
       gradientUnits="userSpaceOnUse" />
    <linearGradient
       inkscape:collect="always"
       xlink:href="#linearGradient578"
       id="linearGradient1322"
       x1="3.8530090"
       y1="1.7128120"
       x2="39.799541"
       y2="39.057530"
       gradientTransform="matrix(0.876753,0.000000,0.000000,1.140572,6.496963e-5,0.000000)"
       gradientUnits="userSpaceOnUse" />
  </defs>
  <sodipodi:namedview
     id="base"
     pagecolor="#ffffff"
     bordercolor="#666666"
     borderopacity="1.0"
     inkscape:pageopacity="0.0"
     inkscape:pageshadow="2"
     inkscape:zoom="7.9794719"
     inkscape:cx="24.041183"
     inkscape:cy="23.600369"
     inkscape:window-width="895"
     inkscape:window-height="516"
     inkscape:window-x="195"
     inkscape:window-y="68"
     inkscape:current-layer="svg1" />
  <path
     style="opacity:0.30267498;fill:#000000;fill-opacity:1.0000000;fill-rule:evenodd;stroke:none;stroke-width:18.750000;stroke-linecap:butt;stroke-linejoin:miter;stroke-dasharray:none;stroke-opacity:1.0000000"
     d="M 45.502855,15.393363 C 50.673769,14.749013 60.785259,22.797470 59.528637,34.155123 C 57.688658,46.355926 41.406540,48.952237 41.131182,49.820282 C 39.585011,51.866686 42.139197,60.367506 40.766876,59.656544 C 37.099631,57.756645 26.164728,45.367506 26.012484,42.716315 C 26.043293,40.085068 37.621269,27.565185 41.131182,25.958238 C 42.660836,25.257914 40.709225,35.829380 41.313334,36.158805 C 42.287883,36.679427 48.532750,37.229792 51.149597,31.240675 C 52.552413,27.847930 51.538115,18.627999 45.502855,15.393363 z "
     id="path741"
     sodipodi:nodetypes="cccccccsc" />
  <path
     style="opacity:0.29636899;fill:#000000;fill-opacity:1.0000000;fill-rule:evenodd;stroke:none;stroke-width:18.750000;stroke-linecap:butt;stroke-linejoin:miter;stroke-dasharray:none;stroke-opacity:1.0000000"
     d="M 16.980441,47.888408 C 11.462837,48.575959 0.67341717,39.987886 2.0142928,27.868753 C 3.9776331,14.849941 21.351395,12.079559 21.645215,11.153316 C 23.295051,8.9697083 20.569616,-0.10105368 22.033945,0.65757515 C 25.947063,2.6848540 37.615104,15.904632 37.777556,18.733573 C 37.744680,21.541233 25.390451,34.900518 21.645215,36.615203 C 20.013004,37.362481 22.095462,26.082245 21.450851,25.730734 C 20.410960,25.175206 13.747403,24.587943 10.955109,30.978602 C 9.4582400,34.598817 10.540544,44.436903 16.980441,47.888408 z "
     id="path739"
     sodipodi:nodetypes="cccccccsc" />
  <path
     style="font-size:12.000000px;fill:url(#linearGradient1322);fill-rule:evenodd;stroke:#261933;stroke-width:1.8792400"
     d="M 16.279618,44.255823 C 11.412375,44.862332 1.8947005,37.286535 3.0775277,26.595883 C 4.8094484,15.111594 20.135370,12.667755 20.394556,11.850689 C 21.849925,9.9244638 19.445739,1.9228714 20.737466,2.5920793 C 24.189347,4.3804033 34.482077,16.041969 34.625381,18.537463 C 34.596380,21.014184 23.698343,32.798813 20.394556,34.311390 C 18.954733,34.970585 20.791732,25.019949 20.223100,24.709869 C 19.305783,24.219823 13.427658,23.701779 10.964491,29.339173 C 9.6440570,32.532674 10.598790,41.211147 16.279618,44.255823 z "
     id="path735"
     sodipodi:nodetypes="cccccccsc" />
  <path
     style="font-size:12.000000px;fill:url(#linearGradient581);fill-rule:evenodd;stroke:#261933;stroke-width:1.8792400"
     d="M 43.268803,14.931243 C 48.136047,14.324733 57.653720,21.900530 56.470894,32.591183 C 54.738972,44.075472 39.413052,46.519309 39.153866,47.336376 C 37.698495,49.262600 40.102682,57.264193 38.810954,56.594985 C 35.359073,54.806661 25.066344,43.145095 24.923041,40.649602 C 24.952042,38.172880 35.850079,26.388252 39.153866,24.875674 C 40.593688,24.216479 38.756688,34.167116 39.325321,34.477195 C 40.242637,34.967243 46.120763,35.485287 48.583931,29.847892 C 49.904363,26.654392 48.949632,17.975918 43.268803,14.931243 z "
     id="path736"
     sodipodi:nodetypes="cccccccsc" />
  <path
     style="font-size:12.000000px;opacity:0.20178296;fill-rule:evenodd;stroke:none;stroke-width:0.96522999pt"
     d="M 13.879237,43.227089 C 10.427724,37.399792 8.7947911,33.338110 9.9357560,29.853542 C 10.909412,26.879944 18.682639,23.270698 20.566011,24.024047 C 22.111753,24.642343 18.722222,34.524359 20.223099,33.968478 C 23.351527,32.809801 36.643377,18.978234 34.453926,18.880375 C 19.961505,18.068836 9.5803650,20.801227 7.7068325,26.424427 C 4.4888339,35.788385 10.141965,41.171819 13.879237,43.227089 z "
     id="path737"
     sodipodi:nodetypes="csssssc" />
  <path
     style="font-size:12.000000px;opacity:0.20178296;fill-rule:evenodd;stroke:none;stroke-width:1.2500000;stroke-dasharray:none"
     d="M 46.258695,15.622715 C 57.768627,21.797321 57.687002,33.338108 52.088190,39.969429 C 50.038893,42.333888 41.455294,45.731398 39.571922,46.484746 C 38.026180,47.103042 41.415711,56.985057 39.914833,56.429177 C 36.786405,55.270502 23.494556,41.438933 25.684007,41.341075 C 40.176427,40.529536 43.093353,40.761677 47.973252,37.397592 C 51.877073,34.588195 58.225843,27.283905 46.258695,15.622715 z "
     id="path738"
     sodipodi:nodetypes="csssssc" />
  <path
     style="fill:url(#linearGradient583);fill-opacity:1.0000000;fill-rule:evenodd;stroke:none;stroke-width:1.0000000pt;stroke-linecap:butt;stroke-linejoin:miter;stroke-opacity:1.0000000"
     d="M 4.7698045,31.518134 C 4.6029532,31.309570 3.5943822,24.438864 8.6494054,19.636858 C 13.325666,15.268734 18.805765,15.795207 22.098153,12.676103 C 23.412789,11.430656 21.965015,7.3519532 22.470481,6.5432073 C 22.773265,6.0587523 25.166942,8.4881672 25.380183,8.9679563 C 25.490242,9.2155919 23.602784,8.2846762 23.440382,8.7254822 C 23.037008,9.8203515 24.764091,12.626531 23.682856,13.574983 C 20.157067,16.667782 14.906598,16.184647 9.6193050,20.849234 C 4.0667283,25.757958 4.9262531,31.713694 4.7698045,31.518134 z "
     id="path742"
     sodipodi:nodetypes="cssssssss" />
  <path
     style="fill:url(#linearGradient744);fill-opacity:1.0000000;fill-rule:evenodd;stroke:none;stroke-width:1.0000000pt;stroke-linecap:butt;stroke-linejoin:miter;stroke-opacity:1.0000000"
     d="M 26.909873,40.140885 C 26.971542,39.616703 34.532500,31.056887 37.368672,28.653352 C 37.904464,28.199292 37.657553,30.874165 37.025761,31.568098 C 34.171287,34.703343 26.857239,40.588286 26.909873,40.140885 z "
     id="path743"
     sodipodi:nodetypes="csss" />
  <path
     style="fill:url(#linearGradient746);fill-opacity:1.0000000;fill-rule:evenodd;stroke:none;stroke-width:1.0000000pt;stroke-linecap:butt;stroke-linejoin:miter;stroke-opacity:1.0000000"
     d="M 40.454875,36.197401 C 40.184688,36.170385 47.279053,37.408830 50.227852,29.510630 C 52.441038,23.353405 47.377589,17.652341 47.656016,17.680184 C 47.949107,17.709493 53.443315,24.756819 51.942411,29.682085 C 49.537759,37.298326 40.756207,36.227535 40.454875,36.197401 z "
     id="path745"
     sodipodi:nodetypes="cssss" />
</svg>
