<?xml version="1.0" encoding="UTF-8" standalone="no"?>
<!DOCTYPE svg PUBLIC "-//W3C//DTD SVG 20010904//EN"
"http://www.w3.org/TR/2001/REC-SVG-20010904/DTD/svg10.dtd">
<!-- Created with Inkscape (http://www.inkscape.org/) -->
<svg
   id="svg1"
   sodipodi:version="0.32"
   inkscape:version="0.37"
   width="48pt"
   height="48pt"
   sodipodi:docbase="/home/tom"
   sodipodi:docname="reload_all_tabs.svg"
   xmlns="http://www.w3.org/2000/svg"
   xmlns:inkscape="http://www.inkscape.org/namespaces/inkscape"
   xmlns:sodipodi="http://sodipodi.sourceforge.net/DTD/sodipodi-0.dtd"
   xmlns:xlink="http://www.w3.org/1999/xlink">
  <defs
     id="defs3">
    <linearGradient
       id="linearGradient608">
      <stop
         style="stop-color:#d9cce6;stop-opacity:1;"
         offset="0.00000000"
         id="stop609" />
      <stop
         style="stop-color:#000000;stop-opacity:1;"
         offset="1.00000000"
         id="stop610" />
    </linearGradient>
    <linearGradient
       id="linearGradient619">
      <stop
         style="stop-color:#ffea20;stop-opacity:1;"
         offset="0.00000000"
         id="stop620" />
      <stop
         style="stop-color:#ffc500;stop-opacity:1;"
         offset="1.00000000"
         id="stop621" />
    </linearGradient>
    <linearGradient
       id="linearGradient584">
      <stop
         style="stop-color:#ffffff;stop-opacity:1;"
         offset="0.00000000"
         id="stop585" />
      <stop
         style="stop-color:#ffffff;stop-opacity:0;"
         offset="1.00000000"
         id="stop586" />
    </linearGradient>
    <linearGradient
       id="linearGradient578">
      <stop
         style="stop-color:#d9cce6;stop-opacity:1;"
         offset="0.00000000"
         id="stop579" />
      <stop
         style="stop-color:#73667f;stop-opacity:1;"
         offset="1.00000000"
         id="stop580" />
    </linearGradient>
    <linearGradient
       xlink:href="#linearGradient584"
       id="linearGradient581"
       y2="1.00000000"
       x2="0.97945207"
       y1="0.00775194"
       x1="-0.00684932" />
    <linearGradient
       xlink:href="#linearGradient608"
       id="linearGradient583"
       x1="-0.00000000"
       y1="0.02325581"
       x2="0.98611110"
       y2="0.97674417" />
    <linearGradient
       xlink:href="#linearGradient578"
       id="linearGradient860"
       x1="-0.00684932"
       y1="0.00775194"
       x2="0.97945207"
       y2="1.00000000" />
    <linearGradient
       xlink:href="#linearGradient578"
       id="linearGradient861"
       x1="0.00000000"
       y1="0.02325581"
       x2="0.98611110"
       y2="0.97674417" />
    <linearGradient
       xlink:href="#linearGradient584"
       id="linearGradient862"
       x1="0.00000000"
       y1="0.02325581"
       x2="0.98611110"
       y2="0.97674417" />
    <radialGradient
       xlink:href="#linearGradient619"
       id="radialGradient618"
       cx="0.50000000"
       cy="0.50000000"
       r="0.50000000"
       fx="0.50000000"
       fy="0.50000000" />
    <linearGradient
       xlink:href="#linearGradient619"
       id="linearGradient622"
       x1="0.00000000"
       y1="0.00000000"
       x2="1.00000000"
       y2="0.00000000" />
  </defs>
  <sodipodi:namedview
     id="base"
     pagecolor="#ffffff"
     bordercolor="#666666"
     borderopacity="1.0"
     inkscape:pageopacity="0.0"
     inkscape:pageshadow="2"
     inkscape:zoom="2"
     inkscape:cx="26.9381866"
     inkscape:cy="23.6060867"
     inkscape:window-width="640"
     inkscape:window-height="535"
     inkscape:window-x="184"
     inkscape:window-y="160" />
  <path
     d="M 28.283978 50.852584 C 26.624158 50.571003 24.785622 30.695866 29.027214 26.327689 C 35.857953 24.580876 46.767798 24.478167 54.016429 26.335558 C 57.66162 27.269709 58.142916 46.679158 54.770115 50.999538 C 46.838613 52.898108 35.118746 51.925657 28.283978 50.852584 z "
     style="font-size:12;fill:url(#linearGradient583);fill-rule:evenodd;stroke:#261933;stroke-width:1.53704;stroke-linecap:round;stroke-linejoin:round;"
     id="path606"
     sodipodi:nodetypes="ccccc" />
  <path
     d="M 28.825458 50.416535 C 26.607991 45.908775 27.478134 29.806599 29.185368 27.552065 C 36.656545 24.838231 52.768116 26.400383 54.33611 27.204509 C 41.939629 29.207203 39.090513 26.46489 31.846487 30.963376 C 28.626389 34.968305 28.407995 44.235164 28.825458 50.416535 z "
     style="font-size:12;opacity:0.7;fill:url(#linearGradient581);fill-rule:evenodd;stroke:none;stroke-width:1.25;"
     id="path607"
     sodipodi:nodetypes="ccccc" />
  <path
     d="M 6.039398 50.939216 C 4.379578 50.605546 2.541042 27.053716 6.782634 21.877473 C 13.613373 19.807518 24.523218 19.685808 31.771849 21.886798 C 35.41704 22.993757 35.898336 45.99375 32.525535 51.113355 C 24.594033 53.363141 12.874166 52.210796 6.039398 50.939216 z "
     style="font-size:12;fill:url(#linearGradient861);fill-rule:evenodd;stroke:#261933;stroke-width:1.67318;stroke-linecap:round;stroke-linejoin:round;"
     id="path576"
     sodipodi:nodetypes="ccccc" />
  <path
     d="M 6.580878 49.741256 C 4.363411 44.520334 5.233554 25.870674 6.940788 23.259455 C 14.411965 20.116272 30.523536 21.925569 32.09153 22.856913 C 19.695049 25.176449 16.845933 22.000281 9.601907 27.210461 C 6.381809 31.849 6.163415 42.581945 6.580878 49.741256 z "
     style="font-size:12;opacity:0.7;fill:url(#linearGradient581);fill-rule:evenodd;stroke:none;stroke-width:1.25;"
     id="path577"
     sodipodi:nodetypes="ccccc" />
  <path
     style="fill:#000000;fill-rule:evenodd;stroke:none;stroke-opacity:1;stroke-width:18.75;stroke-linejoin:miter;stroke-linecap:butt;fill-opacity:1;stroke-dasharray:none;opacity:0.296369;"
     d="M 19.895593 38.360718 C 15.297275 38.445774 7.170418 30.442193 9.328692 20.590501 C 12.077311 10.052993 26.609158 9.2871808 26.93149 8.5508951 C 28.478702 6.8984636 27.02682 -0.7999252 28.165224 -0.0484068 C 31.20738 1.9598684 39.653595 13.849718 39.540874 16.19078 C 39.269334 18.497326 27.944153 28.410031 24.714231 29.494285 C 23.3066 29.966815 26.001804 20.869727 25.502197 20.524461 C 24.695229 19.976964 19.265331 18.913644 16.412047 23.927051 C 14.865561 26.774468 14.899084 34.960927 19.895593 38.360718 z "
     id="path739"
     sodipodi:nodetypes="cccccccsc" />
  <path
     style="font-size:12;fill:url(#linearGradient860);fill-rule:evenodd;stroke:#261933;stroke-width:1.2609;"
     d="M 19.635468 35.311748 C 15.579154 35.386778 8.41021 28.326578 10.314085 19.636103 C 12.738729 10.34065 25.557708 9.6651017 25.842048 9.0156028 C 27.206887 7.5579431 25.92614 0.7669628 26.930364 1.4298997 C 29.613937 3.2014595 37.0646 13.689856 36.96516 15.754975 C 36.725635 17.789651 26.735352 26.533946 23.886136 27.490401 C 22.644426 27.907232 25.021945 19.882417 24.581223 19.577847 C 23.869365 19.094882 19.079498 18.156896 16.562528 22.579376 C 15.198328 25.091166 15.227896 32.312687 19.635468 35.311748 z "
     id="path735"
     sodipodi:nodetypes="cccccccsc" />
  <path
     style="font-size:12;opacity:0.201783;fill-rule:evenodd;stroke:none;stroke-width:0.96523pt;"
     d="M 17.750643 34.256545 C 15.419089 29.162805 14.429638 25.679715 15.671568 22.912878 C 16.731384 20.551767 23.439462 18.259928 24.923 19.043592 C 26.140596 19.68677 22.492031 27.519946 23.774969 27.193411 C 26.44912 26.512784 38.586662 16.293257 36.794269 16.022102 C 24.944368 14.092561 16.167533 15.436053 14.136799 19.8982 C 10.67445 27.320192 14.855564 32.240559 17.750643 34.256545 z "
     id="path737"
     sodipodi:nodetypes="csssssc" />
  <path
     style="fill:url(#linearGradient862);fill-rule:evenodd;stroke:none;stroke-opacity:1;stroke-width:1pt;stroke-linejoin:miter;stroke-linecap:butt;fill-opacity:1;"
     d="M 11.277417 23.832212 C 11.158338 23.646132 10.927058 17.906881 15.503178 14.397243 C 19.729968 11.211509 24.191718 12.121768 27.171443 9.8428886 C 28.361242 8.9329407 27.525572 5.4519749 28.011761 4.8307665 C 28.303004 4.4586523 30.060337 6.6653848 30.193956 7.0785998 C 30.262917 7.2918744 28.791478 6.3617966 28.61951 6.7102338 C 28.192377 7.575682 29.368605 10.034269 28.396646 10.720251 C 25.227226 12.957168 20.950587 12.102551 16.19538 15.478929 C 11.200712 19.033019 11.389074 24.006692 11.277417 23.832212 z "
     id="path742"
     sodipodi:nodetypes="cssssssss" />
  <path
     style="fill:#000000;fill-rule:evenodd;stroke:none;stroke-opacity:1;stroke-width:18.75;stroke-linejoin:miter;stroke-linecap:butt;fill-opacity:1;stroke-dasharray:none;opacity:0.296369;"
     d="M 42.6596 12.208375 C 47.24806 11.895651 55.76139 19.486853 54.093757 29.433359 C 51.870476 40.094081 37.394401 41.578772 37.108936 42.33012 C 35.645474 44.057162 37.476905 51.674184 36.302673 50.979977 C 33.164774 49.124857 24.139977 37.667977 24.136598 35.324205 C 24.293552 33.00704 35.113816 22.545523 38.286066 21.30261 C 39.668563 20.760934 37.427281 29.980359 37.943377 30.300454 C 38.776474 30.807306 44.252377 31.600357 46.853825 26.45177 C 48.257369 23.531245 47.818381 15.356496 42.6596 12.208375 z "
     id="path601"
     sodipodi:nodetypes="cccccccsc" />
  <path
     style="font-size:12;fill:url(#linearGradient860);fill-rule:evenodd;stroke:#261933;stroke-width:1.2609;"
     d="M 43.070433 15.240717 C 47.118051 14.964854 54.627914 21.661282 53.156849 30.435396 C 51.195621 39.83954 38.42584 41.149232 38.174022 41.812018 C 36.883062 43.335494 38.49862 50.054698 37.462791 49.442318 C 34.69476 47.805861 26.733712 37.699399 26.730737 35.63189 C 26.869182 33.587847 36.414063 24.359429 39.212405 23.263015 C 40.431943 22.785189 38.454843 30.917921 38.91011 31.200286 C 39.645018 31.647397 44.475467 32.346971 46.770285 27.805245 C 48.008391 25.228964 47.62115 18.017773 43.070433 15.240717 z "
     id="path602"
     sodipodi:nodetypes="cccccccsc" />
  <path
     style="font-size:12;opacity:0.201783;fill-rule:evenodd;stroke:none;stroke-width:0.96523pt;"
     d="M 45.005213 16.201262 C 47.586217 21.173259 48.746985 24.603062 47.643631 27.42802 C 46.702071 29.838729 40.115751 32.460032 38.595217 31.750815 C 37.347256 31.168739 40.603335 23.164451 39.338146 23.554134 C 36.700992 24.366387 25.084562 35.174588 26.888186 35.356626 C 38.819118 36.696827 47.518631 34.920234 49.325845 30.362974 C 52.416304 22.778589 47.996597 18.071369 45.005213 16.201262 z "
     id="path603"
     sodipodi:nodetypes="csssssc" />
  <path
     style="fill:url(#linearGradient862);fill-rule:evenodd;stroke:none;stroke-opacity:1;stroke-width:1pt;stroke-linejoin:miter;stroke-linecap:butt;fill-opacity:1;"
     d="M 51.98685 26.292155 C 52.115 26.472108 52.630283 32.192858 48.233627 35.92486 C 44.169827 39.316053 39.668465 38.627919 36.80528 41.051598 C 35.662015 42.019364 36.669085 45.454663 36.214263 46.099192 C 35.94181 46.485276 34.077326 44.3683 33.923403 43.96221 C 33.843962 43.752614 35.359666 44.608664 35.514163 44.252136 C 35.897903 43.366592 34.601335 40.969287 35.538122 40.236002 C 38.592848 37.844837 42.90657 38.486567 47.488694 34.87879 C 52.301183 31.081657 51.866687 26.12342 51.98685 26.292155 z "
     id="path604"
     sodipodi:nodetypes="cssssssss" />
</svg>
