<?xml version="1.0" encoding="UTF-8" standalone="no"?>
<!-- Created with Inkscape (http://www.inkscape.org/) -->
<svg
   xmlns:dc="http://purl.org/dc/elements/1.1/"
   xmlns:cc="http://web.resource.org/cc/"
   xmlns:rdf="http://www.w3.org/1999/02/22-rdf-syntax-ns#"
   xmlns:svg="http://www.w3.org/2000/svg"
   xmlns="http://www.w3.org/2000/svg"
   xmlns:xlink="http://www.w3.org/1999/xlink"
   xmlns:sodipodi="http://inkscape.sourceforge.net/DTD/sodipodi-0.dtd"
   xmlns:inkscape="http://www.inkscape.org/namespaces/inkscape"
   version="1.0"
   x="0"
   y="0"
   width="48pt"
   height="48pt"
   id="svg1418"
   sodipodi:version="0.32"
   inkscape:version="0.42.2"
   sodipodi:docname="replace.svg"
   sodipodi:docbase="/home/jakob/dev/lila/lila-theme/trunk/lila/kde/scalable/actions">
  <metadata
     id="metadata50">
    <rdf:RDF>
      <cc:Work
         rdf:about="">
        <dc:format>image/svg+xml</dc:format>
        <dc:type
           rdf:resource="http://purl.org/dc/dcmitype/StillImage" />
      </cc:Work>
    </rdf:RDF>
  </metadata>
  <sodipodi:namedview
     id="base"
     pagecolor="#ffffff"
     bordercolor="#666666"
     borderopacity="1.0"
     inkscape:pageopacity="0.0"
     inkscape:pageshadow="2"
     inkscape:zoom="6.9465338"
     inkscape:cx="25.551676"
     inkscape:cy="23.264184"
     inkscape:window-width="754"
     inkscape:window-height="516"
     inkscape:window-x="167"
     inkscape:window-y="61"
     inkscape:current-layer="svg1418" />
  <defs
     id="defs1420">
    <linearGradient
       id="linearGradient760">
      <stop
         style="stop-color:#d9cce6;stop-opacity:1;"
         offset="0.00000000"
         id="stop761" />
      <stop
         style="stop-color:#73667f;stop-opacity:1;"
         offset="1.00000000"
         id="stop762" />
    </linearGradient>
    <linearGradient
       id="linearGradient756">
      <stop
         style="stop-color:#ffffff;stop-opacity:1;"
         offset="0.00000000"
         id="stop757" />
      <stop
         style="stop-color:#d9cce6;stop-opacity:1;"
         offset="1.00000000"
         id="stop758" />
    </linearGradient>
    <linearGradient
       id="linearGradient1439">
      <stop
         style="stop-color:#ffffff;stop-opacity:1;"
         offset="0"
         id="stop1440" />
      <stop
         style="stop-color:#ffffff;stop-opacity:0;"
         offset="1"
         id="stop1441" />
    </linearGradient>
    <linearGradient
       id="linearGradient1432">
      <stop
         style="stop-color:#7f7f7f;stop-opacity:1;"
         offset="0"
         id="stop1433" />
      <stop
         style="stop-color:#e6e6e6;stop-opacity:1;"
         offset="1"
         id="stop1434" />
    </linearGradient>
    <linearGradient
       id="linearGradient1428">
      <stop
         style="stop-color:#f50000;stop-opacity:1;"
         offset="0.00000000"
         id="stop1429" />
      <stop
         style="stop-color:#a90000;stop-opacity:1;"
         offset="1.00000000"
         id="stop1430" />
    </linearGradient>
    <linearGradient
       id="linearGradient1422">
      <stop
         style="stop-color:#d7a600;stop-opacity:1;"
         offset="0.00000000"
         id="stop1423" />
      <stop
         style="stop-color:#fff300;stop-opacity:1;"
         offset="1.00000000"
         id="stop1424" />
    </linearGradient>
    <linearGradient
       x1="39.717665"
       y1="29.061570"
       x2="29.406269"
       y2="18.073489"
       id="linearGradient1425"
       xlink:href="#linearGradient1422"
       gradientTransform="matrix(1.163984,0.000000,0.000000,0.859118,2.453020e-3,0.000000)"
       gradientUnits="userSpaceOnUse" />
    <linearGradient
       x1="47.207695"
       y1="8.6159094"
       x2="54.585724"
       y2="16.109220"
       id="linearGradient1427"
       xlink:href="#linearGradient1428"
       gradientTransform="matrix(1.061293,0.000000,0.000000,0.942247,2.453020e-3,0.000000)"
       gradientUnits="userSpaceOnUse" />
    <linearGradient
       x1="53.922027"
       y1="17.695947"
       x2="45.544834"
       y2="9.8724686"
       id="linearGradient1435"
       xlink:href="#linearGradient1432"
       gradientTransform="matrix(1.024019,0.000000,0.000000,0.976544,2.453020e-3,0.000000)"
       gradientUnits="userSpaceOnUse" />
    <linearGradient
       x1="20.929504"
       y1="11.202166"
       x2="46.391306"
       y2="36.465060"
       id="linearGradient1438"
       xlink:href="#linearGradient1439"
       gradientTransform="matrix(1.220948,0.000000,0.000000,0.819036,2.453020e-3,0.000000)"
       gradientUnits="userSpaceOnUse" />
    <linearGradient
       id="linearGradient1443"
       xlink:href="#linearGradient1439"
       x1="5.4485436"
       y1="4.7462115"
       x2="43.492022"
       y2="42.789690"
       gradientTransform="matrix(0.999604,0.000000,0.000000,1.000396,2.453020e-3,0.000000)"
       gradientUnits="userSpaceOnUse" />
    <linearGradient
       xlink:href="#linearGradient756"
       id="linearGradient755"
       x1="2.2261718"
       y1="1.1495644"
       x2="53.438598"
       y2="52.513379"
       gradientTransform="matrix(0.942222,0.000000,0.000000,1.061322,2.453020e-3,0.000000)"
       gradientUnits="userSpaceOnUse" />
    <linearGradient
       xlink:href="#linearGradient760"
       id="linearGradient759"
       x1="28.221331"
       y1="41.301512"
       x2="49.136267"
       y2="61.686571"
       gradientTransform="matrix(1.105771,0.000000,0.000000,0.904346,2.453020e-3,0.000000)"
       gradientUnits="userSpaceOnUse" />
    <linearGradient
       xlink:href="#linearGradient760"
       id="linearGradient763"
       x1="10.398148"
       y1="19.188877"
       x2="36.340381"
       y2="45.327350"
       gradientTransform="matrix(1.000002,0.000000,0.000000,0.999998,2.453020e-3,0.000000)"
       gradientUnits="userSpaceOnUse" />
    <linearGradient
       xlink:href="#linearGradient1439"
       id="linearGradient764"
       x1="14.817327"
       y1="19.243265"
       x2="28.787211"
       y2="33.135882"
       gradientTransform="matrix(0.882228,0.000000,0.000000,1.133494,2.453020e-3,0.000000)"
       gradientUnits="userSpaceOnUse" />
    <radialGradient
       xlink:href="#linearGradient1439"
       id="radialGradient765"
       cx="331.74782"
       cy="292.84151"
       r="162.11975"
       fx="333.49061"
       fy="291.04425"
       gradientUnits="userSpaceOnUse" />
    <linearGradient
       xlink:href="#linearGradient1439"
       id="linearGradient766"
       x1="28.098220"
       y1="46.540451"
       x2="30.629563"
       y2="49.049427"
       gradientTransform="matrix(1.173197,0.000000,0.000000,0.852372,2.453020e-3,0.000000)"
       gradientUnits="userSpaceOnUse" />
  </defs>
  <path
     d="M 2.9580930,47.418858 C 3.7463354,49.773803 36.388203,60.362819 38.531375,58.585878 C 40.449743,56.978605 54.803998,9.1379843 53.842892,7.2406671 C 52.843844,5.1488773 19.726420,-0.061411985 18.154476,1.3693138 C 16.218181,3.1419847 2.1302354,44.716863 2.9580930,47.418858 z "
     style="font-size:12.000000px;opacity:0.30267498;fill-rule:evenodd;stroke-width:12.500000"
     id="path639" />
  <path
     d="M 3.0703035,45.469756 C 3.8078042,47.672987 34.346737,57.579825 36.351840,55.917359 C 38.146621,54.413632 51.576131,9.6550592 50.676938,7.8799353 C 49.742251,5.9229046 18.758360,1.0483181 17.287686,2.3868725 C 15.476134,4.0453416 2.2957790,42.941832 3.0703035,45.469756 z "
     style="font-size:12.000000px;fill:url(#linearGradient755);fill-rule:evenodd;stroke:#261933;stroke-width:1.8750000;stroke-dasharray:none"
     id="path634" />
  <path
     d="M 5.1480744,43.405958 C 4.8293590,42.598516 17.493034,5.0561494 18.676943,4.2819284 C 20.156588,3.2721531 44.076020,7.7422381 44.393985,8.5477886 C 44.685427,9.2860993 25.731944,5.8385629 21.515227,9.6103042 C 13.427937,16.641027 5.4387671,44.142415 5.1480744,43.405958 z "
     style="font-size:12.000000px;opacity:0.69993597;fill:url(#linearGradient1443);fill-rule:evenodd;stroke:none;stroke-width:0.10010999pt"
     id="path640" />
  <path
     d="M 37.354407,32.749503 C 38.031050,39.396610 33.185430,45.340557 26.538323,46.017201 C 19.891119,46.693854 13.947171,41.848234 13.270527,35.201127 C 12.593883,28.554018 17.439505,22.610070 24.086708,21.933417 C 30.733815,21.256773 36.677762,26.102394 37.354407,32.749503 z M 34.370560,33.053243 C 34.867566,37.935652 31.212865,42.311263 26.212887,42.820237 C 21.212812,43.329221 16.751475,39.779783 16.254469,34.897375 C 15.757464,30.014965 19.412059,25.639266 24.412134,25.130283 C 29.412113,24.621309 33.873554,28.170834 34.370560,33.053243 z "
     style="font-size:12.000000px;opacity:0.29999998;fill-rule:evenodd;stroke-width:13.490400"
     id="path1566" />
  <path
     d="M 36.169197,31.310922 C 36.845840,37.958028 31.691493,44.280680 25.044384,44.957324 C 18.397181,45.633977 12.074529,40.479629 11.397885,33.832523 C 10.721241,27.185416 15.875589,20.862762 22.522793,20.186109 C 29.169900,19.509464 35.492553,24.663815 36.169197,31.310922 z M 32.154206,31.719629 C 32.651213,36.602038 29.613962,40.220242 24.613983,40.729216 C 19.613909,41.238200 15.909981,38.306215 15.412974,33.423806 C 14.915968,28.541395 17.953110,24.923105 22.953185,24.414122 C 27.953163,23.905148 31.657200,26.837218 32.154206,31.719629 z "
     style="font-size:12.000000px;fill:url(#linearGradient763);fill-rule:evenodd;stroke:#261933;stroke-width:1.8750000;stroke-dasharray:none"
     id="path1525"
     sodipodi:nodetypes="cccccccccs" />
  <path
     d="M 33.222702,42.789881 C 32.928520,42.332790 34.700497,39.928204 35.208046,40.131816 C 37.025768,40.860390 38.854365,43.362786 40.950591,44.527265 C 45.239657,46.909896 51.051315,48.000412 54.364177,50.773554 C 55.428390,51.664317 54.847919,54.889131 53.984518,55.773784 C 53.037899,56.744018 49.520268,58.247373 48.182151,57.397271 C 44.462269,55.034680 41.606122,50.309538 38.155186,46.939698 C 36.619629,45.440301 34.161560,44.249067 33.222702,42.789881 z "
     style="font-size:12.000000px;opacity:0.29999998;fill-rule:evenodd;stroke-width:13.490400"
     id="path1565"
     sodipodi:nodetypes="ccsccccc" />
  <ellipse
     cx="373.57492"
     cy="328.78662"
     rx="115.02444"
     ry="115.02443"
     transform="matrix(6.956511e-2,-7.081397e-3,6.914781e-3,6.792835e-2,-4.477772,12.88328)"
     style="font-size:12.000000px;fill:url(#radialGradient765);fill-rule:evenodd;stroke-width:1.0000000pt"
     id="path1521"
     sodipodi:cx="373.57492"
     sodipodi:cy="328.78662"
     sodipodi:rx="115.02444"
     sodipodi:ry="115.02443" />
  <path
     d="M 32.015491,40.254851 C 31.721307,39.797761 33.396470,37.648683 33.904018,37.852295 C 35.721739,38.580869 37.550344,41.083251 39.646562,42.247745 C 43.935639,44.630363 49.747283,45.720892 53.060156,48.494032 C 54.124368,49.384796 53.300757,52.634358 52.437356,53.519012 C 51.490738,54.489246 48.313058,55.712343 46.974940,54.862239 C 43.255057,52.499649 40.398913,47.774508 36.947976,44.404669 C 35.412418,42.905272 32.954349,41.714036 32.015491,40.254851 z "
     style="font-size:12.000000px;fill:url(#linearGradient759);fill-rule:evenodd;stroke:#261933;stroke-width:1.8750000;stroke-dasharray:none"
     id="path1531"
     sodipodi:nodetypes="cccccccc" />
  <path
     d="M 14.298368,38.067285 C 13.266385,36.439728 11.833022,30.868171 15.074731,26.120119 C 19.123023,21.636521 23.814113,21.765276 25.726544,21.830521 C 22.743084,22.307502 19.612780,22.193050 15.984525,26.547348 C 12.587230,30.618115 14.174651,36.000809 14.298368,38.067285 z "
     style="font-size:12.000000px;opacity:0.69999999;fill:url(#linearGradient764);fill-rule:evenodd;stroke:none;stroke-width:1.0000000pt"
     id="path1533" />
  <path
     d="M 32.968191,39.985823 C 32.953720,39.930162 33.099427,39.616559 33.197897,39.677628 C 34.095859,40.234994 35.943924,41.789139 35.957369,41.841037 C 35.969914,41.889377 34.186527,40.543331 33.275965,39.978227 C 33.190096,39.924895 32.979816,40.030390 32.968191,39.985823 z "
     style="font-size:12.000000px;opacity:0.69999999;fill:url(#linearGradient766);fill-rule:evenodd;stroke:none;stroke-width:1.0000000pt"
     id="path1538" />
  <path
     d="M 24.374771,33.927134 C 24.982597,34.780901 28.620384,34.768718 30.297716,33.805349 C 40.274563,28.075069 52.536610,20.770075 59.337336,13.846271 C 60.636615,12.523461 56.387296,8.2441974 54.597655,9.0654211 C 45.520819,13.230572 35.383951,21.693037 26.737994,28.805317 C 25.309679,29.980278 23.796024,33.114221 24.374771,33.927134 z "
     style="font-size:12.000000px;opacity:0.29999998;fill:#3f3f19;fill-rule:evenodd;stroke-width:12.500000"
     id="path1442" />
  <path
     d="M 23.292630,32.633884 C 23.900456,33.487652 27.538243,33.475469 29.215575,32.512101 C 39.192423,26.781821 51.454481,19.476828 58.255196,12.553023 C 59.554475,11.230210 55.305165,6.9509562 53.515514,7.7721768 C 44.438689,11.937326 34.301811,20.399786 25.655853,27.512068 C 24.227537,28.687029 22.713877,31.820970 23.292630,32.633884 z "
     style="font-size:12.000000px;fill:url(#linearGradient1425);fill-rule:evenodd;stroke:#3f3f19;stroke-width:1.8750000;stroke-dasharray:none"
     id="path1421" />
  <path
     d="M 49.948032,10.079230 C 49.874304,10.671333 53.983249,15.217777 54.631019,15.291480 C 54.845016,15.329031 58.046758,12.318080 58.081246,12.069756 C 58.255630,10.671271 55.931678,8.4823491 54.254054,8.0795807 C 53.300298,7.8504358 49.966900,9.9122532 49.948032,10.079230 z "
     style="font-size:12.000000px;fill:url(#linearGradient1427);fill-rule:evenodd;stroke-width:1.0000000pt"
     id="path1426" />
  <path
     d="M 47.035466,11.857690 C 46.957304,12.485224 51.312381,17.304010 51.998931,17.382136 C 52.225728,17.421952 54.782328,15.413026 54.818817,15.149804 C 55.003653,13.667513 51.789157,10.324634 49.997273,10.006194 C 49.630573,9.9353962 47.055469,11.680736 47.035466,11.857690 z "
     style="font-size:12.000000px;fill:url(#linearGradient1435);fill-rule:evenodd;stroke:#3f3f19;stroke-width:1.1250000;stroke-dasharray:none"
     id="path1431" />
  <ellipse
     cx="152.36185"
     cy="565.56213"
     rx="26.788887"
     ry="26.788879"
     transform="matrix(6.493149e-2,1.460176e-2,-1.460176e-2,6.493149e-2,22.02665,-6.609479)"
     style="font-size:12.000000px;fill:#3f3f19;fill-rule:evenodd;stroke-width:1.0000000pt"
     id="path1436"
     sodipodi:cx="152.36185"
     sodipodi:cy="565.56213"
     sodipodi:rx="26.788887"
     sodipodi:ry="26.788879" />
  <path
     d="M 25.050801,30.202629 C 29.719175,25.018818 43.816282,13.970624 53.692530,8.7810900 C 54.795981,8.1213162 57.211155,10.607404 57.148102,11.011862 C 57.089518,11.387649 54.405668,10.477342 53.327677,11.121857 C 43.706512,16.874277 28.772859,26.870269 25.050801,30.202629 z "
     style="font-size:12.000000px;opacity:0.99000001;fill:url(#linearGradient1438);fill-rule:evenodd;stroke:none;stroke-width:0.10687400pt"
     id="path1437" />
</svg>
