<?xml version="1.0" encoding="UTF-8" standalone="no"?>
<!-- Created with Inkscape (http://www.inkscape.org/) -->
<svg
   xmlns:dc="http://purl.org/dc/elements/1.1/"
   xmlns:cc="http://web.resource.org/cc/"
   xmlns:rdf="http://www.w3.org/1999/02/22-rdf-syntax-ns#"
   xmlns:svg="http://www.w3.org/2000/svg"
   xmlns="http://www.w3.org/2000/svg"
   xmlns:xlink="http://www.w3.org/1999/xlink"
   xmlns:sodipodi="http://inkscape.sourceforge.net/DTD/sodipodi-0.dtd"
   xmlns:inkscape="http://www.inkscape.org/namespaces/inkscape"
   id="svg1"
   sodipodi:version="0.32"
   inkscape:version="0.42.2"
   width="48pt"
   height="48pt"
   sodipodi:docbase="/home/jakob/dev/lila/lila-theme/trunk/lila/kde/scalable/actions"
   sodipodi:docname="revert.svg">
  <metadata
     id="metadata39">
    <rdf:RDF>
      <cc:Work
         rdf:about="">
        <dc:format>image/svg+xml</dc:format>
        <dc:type
           rdf:resource="http://purl.org/dc/dcmitype/StillImage" />
      </cc:Work>
    </rdf:RDF>
  </metadata>
  <defs
     id="defs3">
    <linearGradient
       id="linearGradient916">
      <stop
         style="stop-color:#cccccc;stop-opacity:1;"
         offset="0.00000000"
         id="stop917" />
      <stop
         style="stop-color:#7f7f7f;stop-opacity:1;"
         offset="1.00000000"
         id="stop918" />
    </linearGradient>
    <linearGradient
       id="linearGradient866">
      <stop
         style="stop-color:#ffffff;stop-opacity:1;"
         offset="0.00000000"
         id="stop867" />
      <stop
         style="stop-color:#d9d1e1;stop-opacity:1;"
         offset="1.00000000"
         id="stop868" />
    </linearGradient>
    <linearGradient
       id="linearGradient584">
      <stop
         style="stop-color:#ffffff;stop-opacity:1;"
         offset="0.00000000"
         id="stop585" />
      <stop
         style="stop-color:#ffffff;stop-opacity:0;"
         offset="1.00000000"
         id="stop586" />
    </linearGradient>
    <linearGradient
       id="linearGradient578">
      <stop
         style="stop-color:#d9cce6;stop-opacity:1;"
         offset="0.00000000"
         id="stop579" />
      <stop
         style="stop-color:#73667f;stop-opacity:1;"
         offset="1.00000000"
         id="stop580" />
    </linearGradient>
    <linearGradient
       xlink:href="#linearGradient584"
       id="linearGradient581"
       x1="10.971927"
       y1="11.239586"
       x2="48.190731"
       y2="49.066617"
       gradientTransform="matrix(1.091205,0.000000,0.000000,0.916418,5.010000e-4,0.000000)"
       gradientUnits="userSpaceOnUse" />
    <linearGradient
       xlink:href="#linearGradient584"
       id="linearGradient583"
       x1="5.6233936"
       y1="5.2365720"
       x2="16.744359"
       y2="16.358196"
       gradientTransform="matrix(0.910660,0.000000,0.000000,1.098105,5.010000e-4,0.000000)"
       gradientUnits="userSpaceOnUse" />
    <linearGradient
       xlink:href="#linearGradient584"
       id="linearGradient860"
       x1="25.601817"
       y1="33.995774"
       x2="29.698104"
       y2="38.028553"
       gradientTransform="matrix(0.792547,0.000000,0.000000,1.261755,5.010000e-4,0.000000)"
       gradientUnits="userSpaceOnUse" />
    <linearGradient
       xlink:href="#linearGradient578"
       id="linearGradient861"
       x1="9.4815000"
       y1="8.2000444"
       x2="57.855963"
       y2="56.199511"
       gradientTransform="matrix(0.990570,0.000000,0.000000,1.009520,5.010000e-4,0.000000)"
       gradientUnits="userSpaceOnUse" />
    <linearGradient
       xlink:href="#linearGradient866"
       id="linearGradient862"
       x1="17.525746"
       y1="10.087608"
       x2="45.722049"
       y2="37.139442"
       gradientTransform="matrix(1.113066,0.000000,0.000000,0.898419,5.010000e-4,0.000000)"
       gradientUnits="userSpaceOnUse" />
    <linearGradient
       xlink:href="#linearGradient916"
       id="linearGradient869"
       x1="15.379514"
       y1="39.629427"
       x2="34.785356"
       y2="58.434534"
       gradientTransform="matrix(1.105632,0.000000,0.000000,0.904460,5.010000e-4,0.000000)"
       gradientUnits="userSpaceOnUse" />
    <linearGradient
       xlink:href="#linearGradient578"
       id="linearGradient915"
       x1="3.4317727"
       y1="1.2418201"
       x2="37.975657"
       y2="36.350218"
       gradientTransform="matrix(0.877121,0.000000,0.000000,1.140093,5.010000e-4,0.000000)"
       gradientUnits="userSpaceOnUse" />
    <linearGradient
       inkscape:collect="always"
       xlink:href="#linearGradient584"
       id="linearGradient1337"
       x1="17.279804"
       y1="36.522777"
       x2="28.334723"
       y2="47.578350"
       gradientTransform="matrix(0.998293,0.000000,0.000000,1.001710,5.010000e-4,0.000000)"
       gradientUnits="userSpaceOnUse" />
  </defs>
  <sodipodi:namedview
     id="base"
     pagecolor="#ffffff"
     bordercolor="#666666"
     borderopacity="1.0"
     inkscape:pageopacity="0.0"
     inkscape:pageshadow="2"
     inkscape:zoom="7.9794719"
     inkscape:cx="26.541465"
     inkscape:cy="23.994607"
     inkscape:window-width="1400"
     inkscape:window-height="992"
     inkscape:window-x="0"
     inkscape:window-y="0"
     inkscape:current-layer="svg1" />
  <path
     d="M 12.261845,50.034427 C 13.438914,51.666317 48.543984,60.853315 50.096699,60.011457 C 51.576527,59.085658 60.719222,18.281761 59.685001,16.734572 C 58.878297,15.470544 21.441460,10.619333 20.295288,11.681329 C 19.100906,12.922957 11.283140,48.497911 12.261845,50.034427 z "
     style="font-size:12.000000px;opacity:0.30267498;fill-rule:evenodd;stroke-width:12.500000"
     id="path1382" />
  <path
     d="M 9.6417520,46.937955 C 10.818821,48.569843 45.923893,57.756843 47.476607,56.914983 C 48.956434,55.989185 58.099129,15.185288 57.064907,13.638100 C 56.258204,12.374072 18.821367,7.5228604 17.675195,8.5848551 C 16.480813,9.8265032 8.6630466,45.401437 9.6417520,46.937955 z "
     style="font-size:12.000000px;fill:url(#linearGradient861);fill-rule:evenodd;stroke:#261933;stroke-width:1.8750000;stroke-dasharray:none"
     id="path1289" />
  <path
     d="M 16.249863,48.752013 C 16.854486,43.785078 17.977506,39.336447 19.230006,34.887815 C 27.522552,36.572199 35.556042,38.515833 43.719012,40.718521 C 42.768824,45.599040 41.689059,50.609229 40.350145,55.230596 C 31.884863,53.762106 24.326514,51.386587 16.249863,48.752013 z "
     style="font-size:12.000000px;fill:#595161;fill-rule:evenodd;stroke:#261933;stroke-width:1.1300000"
     id="path1294" />
  <path
     d="M 23.894628,9.2327143 C 22.253402,15.020271 20.612176,21.585175 19.877883,27.761448 C 28.040853,30.050551 37.499579,32.080504 45.792220,33.592155 C 47.606182,26.811259 49.160993,19.641637 50.327171,12.731166 C 42.120946,11.305855 32.100758,9.6214306 23.894628,9.2327143 z "
     style="font-size:12.000000px;fill:url(#linearGradient862);fill-rule:evenodd;stroke:#261933;stroke-width:1.1300000"
     id="path1295" />
  <path
     d="M 21.415258,38.709626 C 20.804444,41.091718 20.193628,43.473906 19.582812,45.855999 C 20.498988,46.100287 21.220896,46.344671 22.137069,46.588959 C 22.625741,44.267938 23.438351,41.687670 23.991810,39.366648 C 23.197779,39.061288 22.338865,38.885409 21.415258,38.709626 z M 16.862492,48.434813 C 17.451013,43.835263 18.648154,39.837716 19.625400,35.562105 C 25.855600,36.765156 32.863253,38.367108 39.028665,40.153249 C 38.116205,44.547381 36.755224,49.171392 35.583613,53.695101 C 29.288626,52.373623 23.092693,50.728109 16.862492,48.434813 z "
     style="font-size:12.000000px;fill:url(#linearGradient869);fill-rule:evenodd;stroke:none;stroke-width:6.2500000;stroke-dasharray:none;stroke-opacity:1.0000000"
     id="path1306"
     sodipodi:nodetypes="cccccccccc" />
  <path
     d="M 11.714912,45.771775 C 11.345908,44.826161 17.382221,12.446005 19.489251,10.657854 C 21.590279,8.8552012 53.597525,14.405740 53.955286,15.322486 C 54.288561,16.176542 29.102992,10.296491 21.951091,15.451965 C 15.022803,20.446243 12.036945,46.596962 11.714912,45.771775 z "
     style="font-size:12.000000px;opacity:0.69999999;fill:url(#linearGradient581);fill-rule:evenodd;stroke:none;stroke-width:1.0000000pt"
     id="path1310" />
  <path
     d="M 17.590058,47.316508 C 17.511362,47.136627 19.493198,36.781830 20.181568,36.432451 C 21.209121,35.867370 28.460681,37.808524 28.538902,37.987358 C 28.611789,38.153996 22.780225,36.813746 21.186637,38.010225 C 19.568944,39.240524 17.662564,47.482193 17.590058,47.316508 z "
     style="font-size:12.000000px;opacity:0.69999999;fill:url(#linearGradient1337);fill-rule:evenodd;stroke:none;stroke-width:1.0000000pt"
     id="path1315"
     sodipodi:nodetypes="ccccc" />
  <path
     d="M 20.331396,46.549229 C 20.292905,46.453000 21.937752,47.516757 22.275030,47.132317 C 23.017517,46.285886 23.530101,42.754857 23.570689,42.856421 C 23.616422,42.970849 23.431967,47.138987 22.712824,47.958838 C 22.352205,48.369955 20.379321,46.668895 20.331396,46.549229 z "
     style="font-size:12.000000px;opacity:0.99000001;fill:url(#linearGradient860);fill-rule:evenodd;stroke:none;stroke-width:1.0000000pt"
     id="path1316" />
  <path
     d="M 25.580252,15.270466 C 32.086849,16.287634 39.591747,17.832822 45.793460,19.579898 C 46.193809,19.692706 45.802416,20.915290 45.386343,20.850310 C 38.930815,19.841336 31.430967,18.119125 25.178951,16.357852 C 24.829001,16.259242 25.215346,15.213490 25.580252,15.270466 z "
     style="font-size:12.000000px;opacity:0.24999996;fill-rule:evenodd;stroke-width:1.0000000pt"
     id="path1379" />
  <path
     d="M 24.847104,18.894006 C 31.353700,19.911078 38.858501,21.456265 45.060309,23.203439 C 45.460564,23.316246 45.069265,24.538829 44.653195,24.473851 C 38.197667,23.464781 30.697722,21.742666 24.445801,19.981392 C 24.095756,19.882782 24.482195,18.836936 24.847104,18.894006 z "
     style="font-size:12.000000px;opacity:0.24999996;fill-rule:evenodd;stroke-width:1.0000000pt"
     id="path1380" />
  <path
     d="M 24.047261,22.711148 C 30.553856,23.728125 38.058755,25.273313 44.260467,27.020486 C 44.660817,27.133292 44.269327,28.355875 43.853446,28.290898 C 37.397919,27.281827 29.897977,25.559713 23.645958,23.798438 C 23.296008,23.699828 23.682447,22.653982 24.047261,22.711148 z "
     style="font-size:12.000000px;opacity:0.24999996;fill-rule:evenodd;stroke-width:1.0000000pt"
     id="path1381" />
  <path
     style="opacity:0.30000000;fill:#000000;fill-opacity:1.0000000;fill-rule:evenodd;stroke:none;stroke-width:18.750000;stroke-linecap:butt;stroke-linejoin:miter;stroke-dasharray:none;stroke-opacity:1.0000000"
     d="M 20.275390,44.829796 C 25.444984,45.473981 35.553886,37.427578 34.297588,26.072830 C 32.458075,13.875147 16.180124,11.279499 15.904833,10.411677 C 14.359058,8.3657943 16.912596,-0.13285027 15.540626,0.57792983 C 11.874316,2.4773423 0.94220600,14.863316 0.79000000,17.513828 C 0.82080300,20.144402 12.395824,32.661083 15.904833,34.267619 C 17.434096,34.967765 15.482983,24.399002 16.086945,24.069661 C 17.061240,23.549170 23.304513,22.998949 25.920687,28.986532 C 27.323144,32.378411 26.309103,41.595987 20.275390,44.829796 z "
     id="path739"
     sodipodi:nodetypes="cccccccsc" />
  <path
     style="font-size:12.000000px;fill:url(#linearGradient915);fill-rule:evenodd;stroke:#261933;stroke-width:1.8750000;stroke-dasharray:none"
     d="M 20.932011,41.426328 C 25.492267,41.994583 34.409630,34.896608 33.301411,24.880242 C 31.678724,14.120298 17.319453,11.830598 17.076608,11.065067 C 15.713037,9.2603333 17.965588,1.7634201 16.755328,2.3904205 C 13.521168,4.0659496 3.8776270,14.991991 3.7433570,17.330088 C 3.7705300,19.650596 13.981203,30.691938 17.076608,32.109114 C 18.425622,32.726732 16.704488,23.403707 17.237250,23.113185 C 18.096711,22.654047 23.604091,22.168679 25.911896,27.450508 C 27.149047,30.442585 26.254533,38.573687 20.932011,41.426328 z "
     id="path735"
     sodipodi:nodetypes="cccccccsc" />
  <path
     style="font-size:12.000000px;opacity:0.20178296;fill-rule:evenodd;stroke:none;stroke-width:0.96522999pt"
     d="M 23.180996,40.462477 C 26.414813,35.002723 27.944752,31.197221 26.875749,27.932433 C 25.963504,25.146388 18.680552,21.764786 16.915968,22.470619 C 15.467724,23.049919 18.643463,32.308650 17.237258,31.787829 C 14.306140,30.702235 1.8526430,17.743059 3.9039990,17.651372 C 17.482347,16.891019 27.208725,19.451072 28.964091,24.719599 C 31.979119,33.492950 26.682552,38.536839 23.180996,40.462477 z "
     id="path737"
     sodipodi:nodetypes="csssssc" />
  <path
     style="fill:url(#linearGradient583);fill-opacity:1.0000000;fill-rule:evenodd;stroke:none;stroke-width:1.0000000pt;stroke-linecap:butt;stroke-linejoin:miter;stroke-opacity:1.0000000"
     d="M 5.4310900,17.555731 C 5.5009960,16.926577 12.619324,7.8683367 15.168238,5.5274999 C 15.737756,5.0044717 15.480897,8.1062171 14.786384,8.9641373 C 12.235182,12.115628 5.3737150,18.072123 5.4310900,17.555731 z "
     id="path941"
     sodipodi:nodetypes="csss" />
</svg>
