<?xml version="1.0" encoding="UTF-8" standalone="no"?>
<!DOCTYPE svg PUBLIC "-//W3C//DTD SVG 20010904//EN"
"http://www.w3.org/TR/2001/REC-SVG-20010904/DTD/svg10.dtd">
<!-- Created with Inkscape (http://www.inkscape.org/) -->
<svg
   id="svg1"
   sodipodi:version="0.32"
   inkscape:version="0.40"
   width="48pt"
   height="48pt"
   sodipodi:docbase="/home/jakob/dev/lila-cvs/lila-theme/trunk/lila/kde/scalable/actions"
   sodipodi:docname="view_sidetree.svg"
   xmlns="http://www.w3.org/2000/svg"
   xmlns:cc="http://web.resource.org/cc/"
   xmlns:inkscape="http://www.inkscape.org/namespaces/inkscape"
   xmlns:sodipodi="http://sodipodi.sourceforge.net/DTD/sodipodi-0.dtd"
   xmlns:rdf="http://www.w3.org/1999/02/22-rdf-syntax-ns#"
   xmlns:dc="http://purl.org/dc/elements/1.1/"
   xmlns:xlink="http://www.w3.org/1999/xlink">
  <metadata
     id="metadata24">
    <rdf:RDF
       id="RDF25">
      <cc:Work
         rdf:about=""
         id="Work26">
        <dc:format
           id="format27">image/svg+xml</dc:format>
        <dc:type
           id="type29"
           rdf:resource="http://purl.org/dc/dcmitype/StillImage" />
      </cc:Work>
    </rdf:RDF>
  </metadata>
  <defs
     id="defs3">
    <linearGradient
       id="linearGradient1704">
      <stop
         style="stop-color:#d9cce6;stop-opacity:1.0000000;"
         offset="0.0000000"
         id="stop1705" />
      <stop
         style="stop-color:#ffffff;stop-opacity:1.0000000;"
         offset="1.0000000"
         id="stop1706" />
    </linearGradient>
    <linearGradient
       id="linearGradient584">
      <stop
         style="stop-color:#ffffff;stop-opacity:1;"
         offset="0.00000000"
         id="stop585" />
      <stop
         style="stop-color:#ffffff;stop-opacity:0;"
         offset="1.00000000"
         id="stop586" />
    </linearGradient>
    <linearGradient
       id="linearGradient578">
      <stop
         style="stop-color:#d9cce6;stop-opacity:1.0000000;"
         offset="0.0000000"
         id="stop579" />
      <stop
         style="stop-color:#73667f;stop-opacity:1.0000000;"
         offset="1.0000000"
         id="stop580" />
    </linearGradient>
    <linearGradient
       xlink:href="#linearGradient584"
       id="linearGradient581"
       x1="12.195200"
       y1="34.690324"
       x2="81.265222"
       y2="7.4917665"
       gradientTransform="matrix(1.058571,0.000000,0.000000,0.975344,-0.407867,1.307025)"
       gradientUnits="userSpaceOnUse" />
    <linearGradient
       xlink:href="#linearGradient584"
       id="linearGradient583"
       x1="1.2731385"
       y1="18.599604"
       x2="12.713946"
       y2="18.599604"
       gradientTransform="matrix(3.886965,0.000000,0.000000,0.265624,-0.407867,1.307025)"
       gradientUnits="userSpaceOnUse" />
    <linearGradient
       xlink:href="#linearGradient578"
       id="linearGradient654"
       x1="0.62902899"
       y1="2.0319597"
       x2="27.307993"
       y2="2.0319597"
       gradientTransform="matrix(2.088378,0.000000,0.000000,0.494389,-0.407867,1.307025)"
       gradientUnits="userSpaceOnUse" />
    <linearGradient
       xlink:href="#linearGradient578"
       id="linearGradient655"
       x1="32.850120"
       y1="29.487572"
       x2="42.119437"
       y2="29.487572"
       gradientTransform="matrix(0.923092,0.000000,0.000000,1.118493,-6.441649,10.35842)"
       gradientUnits="userSpaceOnUse" />
    <linearGradient
       xlink:href="#linearGradient584"
       id="linearGradient653"
       x1="0.00000000"
       y1="-0.00000000"
       x2="0.97945207"
       y2="0.97656250" />
    <linearGradient
       inkscape:collect="always"
       xlink:href="#linearGradient578"
       id="linearGradient1080"
       x1="32.562363"
       y1="16.069535"
       x2="41.831680"
       y2="16.069535"
       gradientTransform="matrix(0.923092,0.000000,0.000000,1.118493,-6.441649,10.35842)"
       gradientUnits="userSpaceOnUse" />
    <linearGradient
       inkscape:collect="always"
       xlink:href="#linearGradient1704"
       id="linearGradient1082"
       gradientUnits="userSpaceOnUse"
       gradientTransform="matrix(0.627770,0.000000,0.000000,-0.734199,6.124765,60.74891)"
       x1="12.195200"
       y1="34.690323"
       x2="81.265221"
       y2="7.4917665" />
  </defs>
  <sodipodi:namedview
     id="base"
     pagecolor="#ffffff"
     bordercolor="#666666"
     borderopacity="1.0"
     inkscape:pageopacity="0.0"
     inkscape:pageshadow="2"
     inkscape:zoom="8.0000000"
     inkscape:cx="23.102051"
     inkscape:cy="22.310913"
     inkscape:window-width="1400"
     inkscape:window-height="992"
     inkscape:window-x="0"
     inkscape:window-y="0"
     inkscape:current-layer="svg1" />
  <path
     style="font-size:12.000000;opacity:0.30267498;fill-rule:evenodd;stroke-width:1.2500000"
     d="M 3.5525916,53.681338 C 1.9624538,51.914527 2.1519994,8.8416480 4.5781422,6.9565739 C 6.3978563,5.5374837 56.588970,5.7668083 58.173052,7.7848444 C 59.991596,10.273672 60.887682,56.920805 58.774644,58.412232 C 56.744142,59.961533 5.3365978,55.797888 3.5525916,53.681338 z "
     id="path737"
     sodipodi:nodetypes="cssss" />
  <path
     style="font-size:12.000000;fill:url(#linearGradient581);fill-rule:evenodd;stroke:#261933;stroke-width:3.1072614;stroke-opacity:1.0000000;"
     d="M 2.5279755,49.094688 C 1.0208248,47.420083 1.2004775,6.5950277 3.5000080,4.8083280 C 5.2247557,3.4632950 52.796570,3.6806511 54.297985,5.5933755 C 56.021623,7.9523184 56.870948,52.165098 54.868179,53.578692 C 52.943642,55.047144 4.2188828,51.100783 2.5279755,49.094688 z "
     id="path738"
     sodipodi:nodetypes="cssss" />
  <path
     style="font-size:12.000000;fill:url(#linearGradient654);fill-rule:evenodd;stroke:#261933;stroke-width:3.1072614;stroke-opacity:1.0000000;"
     d="M 2.8057183,11.804705 C 1.9305074,11.504942 2.9215597,5.4414801 3.5000080,4.8083280 C 4.8733979,3.0623055 52.514180,3.9853802 54.297985,5.5933755 C 55.105667,6.3892246 55.455947,12.223561 54.455726,13.154512 C 52.924025,15.077324 5.0091323,13.057271 2.8057183,11.804705 z "
     id="path739"
     sodipodi:nodetypes="cssss" />
  <path
     style="font-size:12.000000;fill-rule:evenodd;stroke-width:1.0000000pt"
     d="M 46.940787,7.2947150 C 46.594484,7.7054234 48.170917,9.1909225 48.236144,9.5052635 C 48.298834,9.7887939 46.659644,11.054081 47.011139,11.397191 C 47.319294,11.764815 48.923155,10.069818 49.216673,10.123792 C 49.433885,10.149893 50.580996,11.869160 50.945308,11.571371 C 51.291632,11.246288 50.002745,9.6047481 49.953195,9.2914326 C 49.956774,9.0039122 51.810685,7.8662500 51.530648,7.4979269 C 51.164026,7.1182410 49.289118,8.7271585 48.949062,8.6258592 C 48.656304,8.5104199 47.291475,6.9301143 46.940787,7.2947150 z "
     id="path740"
     sodipodi:nodetypes="cssssssss" />
  <path
     style="font-size:12.000000;fill:url(#linearGradient583);fill-rule:evenodd;stroke-width:1.0000000pt"
     d="M 4.6450384,9.2730312 C 4.4873955,9.0429533 4.3889714,6.4852906 5.2715673,6.4436374 C 19.177387,5.7873807 48.867686,6.9711738 49.010288,7.1793036 C 49.150521,7.3839728 20.187442,7.0181488 6.1200726,7.6820273 C 5.3990227,7.7160541 4.7702310,9.4557512 4.6450384,9.2730312 z "
     id="path741"
     sodipodi:nodetypes="cssss" />
  <path
     style="font-size:12.000000;fill:url(#linearGradient1082);fill-opacity:1.0000000;fill-rule:evenodd;stroke:#261933;stroke-width:2.0760801;stroke-opacity:1.0000000"
     d="M 7.8658584,23.815862 C 6.9720684,25.076430 7.0786094,55.396019 8.4423044,56.740966 C 9.4651364,57.753448 37.676776,59.922785 38.567165,58.482971 C 39.589339,56.707262 40.093016,22.876922 38.905308,21.812828 C 37.763994,20.707443 8.8686214,22.305764 7.8658584,23.815862 z "
     id="path1081"
     sodipodi:nodetypes="cssss" />
  <path
     style="fill:none;fill-opacity:1.0000000;fill-rule:evenodd;stroke:#261933;stroke-width:1.6250000;stroke-linecap:round;stroke-linejoin:round;stroke-miterlimit:4.0000000;stroke-opacity:1.0000000"
     d="M 14.193121,27.761794 L 14.323830,48.069693 L 19.986220,48.609369"
     id="path668"
     sodipodi:nodetypes="ccc" />
  <path
     style="fill:none;fill-opacity:1.0000000;fill-rule:evenodd;stroke:#261933;stroke-width:1.6250000;stroke-linecap:round;stroke-linejoin:miter;stroke-miterlimit:4.0000000;stroke-opacity:1.0000000"
     d="M 14.850875,32.935221 L 19.454965,33.202955"
     id="path669"
     sodipodi:nodetypes="cc" />
  <path
     style="font-size:12.000000;fill:url(#linearGradient1080);fill-opacity:1.0000000;fill-rule:evenodd;stroke:#261933;stroke-width:1.6250000;stroke-miterlimit:4.0000000"
     d="M 24.382156,29.003181 C 23.835408,29.598565 24.185807,36.852431 24.623205,37.603133 C 24.787229,38.017313 30.734920,38.572017 31.391018,37.898974 C 31.637054,37.329475 31.927272,29.977887 31.353189,29.253070 C 30.505729,28.813003 24.573519,28.666660 24.382156,29.003181 z "
     id="path610"
     sodipodi:nodetypes="ccccc" />
  <path
     style="font-size:12.000000;fill:url(#linearGradient655);fill-opacity:1.0000000;fill-rule:evenodd;stroke:#261933;stroke-width:1.6250000;stroke-miterlimit:4.0000000"
     d="M 24.647784,44.011154 C 24.101035,44.606539 24.451434,51.860404 24.888832,52.611106 C 25.052856,53.025286 31.000548,53.579990 31.656646,52.906947 C 31.902683,52.337448 32.192901,44.985860 31.618817,44.261043 C 30.771358,43.820976 24.839146,43.674633 24.647784,44.011154 z "
     id="path657"
     sodipodi:nodetypes="ccccc" />
</svg>
