<?xml version="1.0" encoding="UTF-8" standalone="no"?>
<!-- Created with Inkscape (http://www.inkscape.org/) -->
<svg
   xmlns:dc="http://purl.org/dc/elements/1.1/"
   xmlns:cc="http://web.resource.org/cc/"
   xmlns:rdf="http://www.w3.org/1999/02/22-rdf-syntax-ns#"
   xmlns:svg="http://www.w3.org/2000/svg"
   xmlns="http://www.w3.org/2000/svg"
   xmlns:xlink="http://www.w3.org/1999/xlink"
   xmlns:sodipodi="http://inkscape.sourceforge.net/DTD/sodipodi-0.dtd"
   xmlns:inkscape="http://www.inkscape.org/namespaces/inkscape"
   id="svg1"
   sodipodi:version="0.32"
   inkscape:version="0.42.2"
   width="48pt"
   height="48pt"
   sodipodi:docname="amsn.svg"
   sodipodi:docbase="/home/jakob/dev/lila/lila-theme/trunk/lila/kde/scalable/apps">
  <metadata
     id="metadata41">
    <rdf:RDF>
      <cc:Work
         rdf:about="">
        <dc:format>image/svg+xml</dc:format>
        <dc:type
           rdf:resource="http://purl.org/dc/dcmitype/StillImage" />
      </cc:Work>
    </rdf:RDF>
  </metadata>
  <defs
     id="defs3">
    <linearGradient
       id="linearGradient662">
      <stop
         style="stop-color:#73667f;stop-opacity:1.0000000;"
         offset="0.0000000"
         id="stop663" />
      <stop
         style="stop-color:#d9cce6;stop-opacity:1.0000000;"
         offset="1.0000000"
         id="stop664" />
    </linearGradient>
    <linearGradient
       id="linearGradient599">
      <stop
         style="stop-color:#ffffff;stop-opacity:1;"
         offset="0.00000000"
         id="stop600" />
      <stop
         style="stop-color:#d9cce6;stop-opacity:1;"
         offset="1.00000000"
         id="stop601" />
    </linearGradient>
    <linearGradient
       id="linearGradient584">
      <stop
         style="stop-color:#ffffff;stop-opacity:0.366667;"
         offset="0.00000000"
         id="stop585" />
      <stop
         style="stop-color:#ffffff;stop-opacity:0.2;"
         offset="1.00000000"
         id="stop586" />
    </linearGradient>
    <linearGradient
       id="linearGradient578">
      <stop
         style="stop-color:#8a86b9;stop-opacity:1;"
         offset="0.00000000"
         id="stop579" />
      <stop
         style="stop-color:#b1ace8;stop-opacity:1;"
         offset="1.00000000"
         id="stop580" />
    </linearGradient>
    <linearGradient
       xlink:href="#linearGradient662"
       id="linearGradient581"
       x1="47.597397"
       y1="26.292163"
       x2="25.715729"
       y2="4.7118366"
       gradientUnits="userSpaceOnUse" />
    <linearGradient
       xlink:href="#linearGradient584"
       id="linearGradient583"
       gradientTransform="matrix(1.119930,0.000000,0.000000,0.892913,-2.292000e-3,0.000000)"
       x1="28.149532"
       y1="17.922541"
       x2="40.689831"
       y2="17.922541"
       gradientUnits="userSpaceOnUse" />
    <linearGradient
       xlink:href="#linearGradient662"
       id="linearGradient860"
       x1="51.167714"
       y1="58.971920"
       x2="18.737092"
       y2="27.217567"
       gradientTransform="matrix(1.132819,0.000000,0.000000,0.882754,-2.292000e-3,0.000000)"
       gradientUnits="userSpaceOnUse" />
    <linearGradient
       xlink:href="#linearGradient662"
       id="linearGradient861"
       x1="-0.44711539"
       y1="0.32075471"
       x2="1.27403843"
       y2="1.12578619" />
    <linearGradient
       xlink:href="#linearGradient584"
       id="linearGradient862"
       gradientTransform="matrix(1.438532,0.000000,0.000000,0.695153,-2.292000e-3,0.000000)"
       x1="19.146536"
       y1="44.213523"
       x2="32.284822"
       y2="44.213523"
       gradientUnits="userSpaceOnUse" />
    <radialGradient
       xlink:href="#linearGradient662"
       id="radialGradient595"
       cx="0.025806455"
       cy="0.032467529"
       r="0.20663640"
       fx="0.025806455"
       fy="0.032467529" />
    <linearGradient
       xlink:href="#linearGradient662"
       id="linearGradient652" />
    <linearGradient
       xlink:href="#linearGradient599"
       id="linearGradient654"
       x1="19.920939"
       y1="-1.1157925"
       x2="46.400416"
       y2="25.086450"
       gradientUnits="userSpaceOnUse" />
    <linearGradient
       xlink:href="#linearGradient584"
       id="linearGradient661"
       x1="16.155644"
       y1="16.503242"
       x2="1.4097120"
       y2="19.361511"
       gradientTransform="matrix(1.119930,0.000000,0.000000,0.892913,-2.292000e-3,0.000000)"
       gradientUnits="userSpaceOnUse" />
    <radialGradient
       xlink:href="#linearGradient662"
       id="radialGradient628"
       cx="0.50000000"
       cy="0.50000000"
       r="0.50000000"
       fx="0.50000000"
       fy="0.50000000" />
    <linearGradient
       xlink:href="#linearGradient662"
       id="linearGradient669"
       x1="0.93162394"
       y1="-0.46961325"
       x2="0.19658124"
       y2="1.51933682" />
    <linearGradient
       xlink:href="#linearGradient599"
       id="linearGradient670"
       x1="-2.5624680"
       y1="20.548300"
       x2="29.321978"
       y2="52.975274"
       gradientTransform="matrix(1.131698,0.000000,0.000000,0.883628,-2.292000e-3,0.000000)"
       gradientUnits="userSpaceOnUse" />
    <linearGradient
       inkscape:collect="always"
       xlink:href="#linearGradient584"
       id="linearGradient1339"
       gradientTransform="matrix(1.438532,0.000000,0.000000,0.695153,-2.292000e-3,0.000000)"
       x1="4.7214935"
       y1="40.157877"
       x2="15.773312"
       y2="40.157877"
       gradientUnits="userSpaceOnUse" />
  </defs>
  <sodipodi:namedview
     id="base"
     pagecolor="#ffffff"
     bordercolor="#666666"
     borderopacity="1.0"
     inkscape:pageopacity="0.0"
     inkscape:pageshadow="2"
     inkscape:zoom="7.9794719"
     inkscape:cx="22.837633"
     inkscape:cy="23.732827"
     inkscape:window-width="938"
     inkscape:window-height="903"
     inkscape:window-x="97"
     inkscape:window-y="51"
     inkscape:current-layer="svg1" />
  <path
     sodipodi:type="arc"
     style="font-size:12.000000px;fill-opacity:0.29999998;fill-rule:evenodd;stroke-width:1.0000000pt"
     id="path631"
     sodipodi:cx="36.656563"
     sodipodi:cy="15.354189"
     sodipodi:rx="10.339030"
     sodipodi:ry="10.339030"
     d="M 46.995593 15.354189 A 10.339030 10.339030 0 1 1  26.317533,15.354189 A 10.339030 10.339030 0 1 1  46.995593 15.354189 z"
     transform="matrix(0.801925,0.000000,0.000000,0.816005,-10.45958,4.994089)" />
  <path
     style="font-size:12.000000px;fill-opacity:0.29999998;fill-rule:evenodd;stroke-width:0.83513203pt"
     d="M 3.3744189,43.971352 C 3.3909873,40.652871 6.3369071,23.149065 18.977274,23.323665 C 34.318896,23.531504 35.018894,41.552228 35.323122,44.481172 C 35.415496,45.447887 32.653356,45.627890 32.103486,44.481172 C 30.584071,40.608151 27.277203,31.303172 27.150199,31.225866 C 25.786982,30.546835 32.314586,41.755982 31.112828,44.990990 C 30.168161,47.533935 24.214058,48.477780 20.710925,48.559725 C 16.949236,48.647719 10.511446,48.110282 9.3183630,45.500809 C 7.8696942,42.332329 13.120297,31.221185 12.785664,31.225866 C 11.844143,31.235572 8.4427239,43.864111 8.0800415,43.971352 C 6.2017520,44.301375 3.4196124,44.620313 3.3744189,43.971352 z "
     id="path628"
     sodipodi:nodetypes="cssssssssss" />
  <path
     style="font-size:12.000000px;fill:url(#linearGradient670);fill-opacity:1.0000000;fill-rule:evenodd;stroke:#261933;stroke-width:1.8750000"
     d="M 1.8775000,41.993427 C 1.8937664,38.828029 4.7859970,22.131676 17.195994,22.298221 C 32.258016,22.496472 32.945256,39.685898 33.243939,42.479729 C 33.334629,43.401849 30.622829,43.573550 30.082981,42.479729 C 28.591257,38.785371 25.344656,29.909633 25.219967,29.835893 C 23.881595,29.188186 30.290234,39.880253 29.110378,42.966030 C 28.182927,45.391669 22.337337,46.291974 18.898049,46.370139 C 15.204917,46.454074 8.8844561,45.941428 7.7131162,43.452332 C 6.2908495,40.430013 11.445760,29.831427 11.117226,29.835893 C 10.192864,29.845151 6.8534357,41.891134 6.4973625,41.993427 C 4.6533055,42.308228 1.9218702,42.612453 1.8775000,41.993427 z "
     id="path650"
     sodipodi:nodetypes="cssssssssss" />
  <path
     style="font-size:12.000000px;fill:url(#linearGradient1339);fill-opacity:1.0000000;fill-rule:evenodd;stroke-width:1.0000000pt"
     d="M 6.8592837,31.221169 C 6.2023251,33.139012 10.368102,29.330832 12.239855,28.853719 C 14.026892,28.398200 14.455708,28.239181 17.835650,28.423273 C 19.841441,28.403542 24.222366,25.350039 22.140107,24.764485 C 10.205074,21.623447 7.1845164,30.165179 6.8592837,31.221169 z "
     id="path651"
     sodipodi:nodetypes="cssss" />
  <path
     sodipodi:type="arc"
     style="font-size:12.000000px;fill:url(#linearGradient654);fill-opacity:1.0000000;fill-rule:evenodd;stroke:#261933;stroke-width:2.3799129;stroke-dasharray:none;stroke-opacity:1.0000000"
     id="path653"
     sodipodi:cx="36.656563"
     sodipodi:cy="15.354189"
     sodipodi:rx="10.339030"
     sodipodi:ry="10.339030"
     d="M 46.995593 15.354189 A 10.339030 10.339030 0 1 1  26.317533,15.354189 A 10.339030 10.339030 0 1 1  46.995593 15.354189 z"
     transform="matrix(0.787844,0.000000,0.000000,0.787844,-11.36440,4.040320)" />
  <path
     style="font-size:12.000000px;fill:url(#linearGradient661);fill-opacity:0.49166700;fill-rule:evenodd;stroke-width:1.0000000pt"
     d="M 15.113736,14.886811 C 16.419315,14.305395 17.281005,14.944902 18.297611,14.886811 C 19.934234,14.793289 23.155895,13.216429 23.073424,13.067453 C 20.869317,9.4968260 16.583410,9.1675244 13.976637,10.793255 C 9.5334000,13.564307 11.154241,19.954016 12.157278,19.435204 C 13.352633,18.816918 13.072096,15.736343 15.113736,14.886811 z "
     id="path654"
     sodipodi:nodetypes="csssss" />
  <path
     style="font-size:12.000000px;fill-opacity:0.29999998;fill-rule:evenodd;stroke-width:1.0000000pt"
     d="M 23.857715,48.920924 C 23.876269,44.999260 27.175363,24.313868 41.331124,24.520203 C 58.511980,24.765820 59.295897,46.062088 59.636599,49.523412 C 59.740045,50.665842 56.646766,50.878566 56.030975,49.523412 C 54.329405,44.946411 50.626092,33.950110 50.483861,33.858751 C 48.957215,33.056297 56.267384,46.302877 54.921552,50.125898 C 53.863634,53.131063 47.195721,54.246466 43.272613,54.343306 C 39.059953,54.447295 31.850369,53.812169 30.514252,50.728384 C 28.891909,46.983985 34.771981,33.853219 34.397231,33.858751 C 33.342836,33.870222 29.533636,48.794191 29.127472,48.920924 C 27.024005,49.310935 23.908327,49.687846 23.857715,48.920924 z "
     id="path612"
     sodipodi:nodetypes="cssssssssss" />
  <path
     sodipodi:type="arc"
     style="font-size:12.000000px;fill-opacity:0.29999998;fill-rule:evenodd;stroke-width:1.0000000pt"
     id="path614"
     sodipodi:cx="36.656563"
     sodipodi:cy="15.354189"
     sodipodi:rx="10.339030"
     sodipodi:ry="10.339030"
     d="M 46.995593 15.354189 A 10.339030 10.339030 0 1 1  26.317533,15.354189 A 10.339030 10.339030 0 1 1  46.995593 15.354189 z"
     transform="matrix(0.927549,0.000000,0.000000,0.927549,6.469516,4.782306)" />
  <path
     style="font-size:12.000000px;fill:url(#linearGradient860);fill-opacity:1.0000000;fill-rule:evenodd;stroke:#261933;stroke-width:1.8749999"
     d="M 21.971571,46.686244 C 21.990140,43.072684 25.291857,24.012437 39.458879,24.202562 C 56.653403,24.428881 57.437944,44.052012 57.778916,47.241397 C 57.882446,48.294072 54.786705,48.490083 54.170424,47.241397 C 52.467501,43.023987 48.761241,32.891609 48.618898,32.807428 C 47.091037,32.068018 54.407021,44.273883 53.060119,47.796549 C 52.001359,50.565614 45.328141,51.593385 41.401913,51.682618 C 37.185902,51.778436 29.970582,51.193209 28.633402,48.351701 C 27.009768,44.901479 32.894519,32.802330 32.519470,32.807428 C 31.464237,32.817998 27.652006,46.569468 27.245520,46.686244 C 25.140379,47.045613 22.022222,47.392913 21.971571,46.686244 z "
     id="path634"
     sodipodi:nodetypes="cssssssssss" />
  <path
     style="font-size:12.000000px;fill:url(#linearGradient862);fill-opacity:1.0000000;fill-rule:evenodd;stroke-width:1.0000000pt"
     d="M 27.623297,34.664471 C 26.842312,36.944382 31.794544,32.417258 34.019664,31.850070 C 36.144073,31.308554 36.653846,31.119514 40.671886,31.338361 C 43.056349,31.314905 48.264346,27.684933 45.788978,26.988832 C 31.600736,23.254800 28.009930,33.409120 27.623297,34.664471 z "
     id="path637"
     sodipodi:nodetypes="cssss" />
  <path
     sodipodi:type="arc"
     style="font-size:12.000000px;fill:url(#linearGradient581);fill-opacity:1.0000000;fill-rule:evenodd;stroke:#261933;stroke-width:2.0847485;stroke-dasharray:none;stroke-opacity:1.0000000"
     id="path608"
     sodipodi:cx="36.656563"
     sodipodi:cy="15.354189"
     sodipodi:rx="10.339030"
     sodipodi:ry="10.339030"
     d="M 46.995593 15.354189 A 10.339030 10.339030 0 1 1  26.317533,15.354189 A 10.339030 10.339030 0 1 1  46.995593 15.354189 z"
     transform="matrix(0.899389,0.000000,0.000000,0.899389,5.935245,4.008923)" />
  <path
     style="font-size:12.000000px;fill:url(#linearGradient583);fill-opacity:0.49166700;fill-rule:evenodd;stroke-width:1.0000000pt"
     d="M 36.289466,16.266552 C 37.810984,15.588973 38.815194,16.334252 39.999943,16.266552 C 41.907258,16.157563 45.661771,14.319895 45.565659,14.146280 C 42.997001,9.9850842 38.002221,9.6013181 34.964296,11.495938 C 29.786164,14.725312 31.675087,22.171855 32.844023,21.567234 C 34.237084,20.846685 33.910148,17.256594 36.289466,16.266552 z "
     id="path630"
     sodipodi:nodetypes="csssss" />
</svg>
