<?xml version="1.0" encoding="UTF-8" standalone="no"?>
<!-- Created with Inkscape (http://www.inkscape.org/) -->
<svg
   xmlns:dc="http://purl.org/dc/elements/1.1/"
   xmlns:cc="http://web.resource.org/cc/"
   xmlns:rdf="http://www.w3.org/1999/02/22-rdf-syntax-ns#"
   xmlns:svg="http://www.w3.org/2000/svg"
   xmlns="http://www.w3.org/2000/svg"
   xmlns:xlink="http://www.w3.org/1999/xlink"
   xmlns:sodipodi="http://inkscape.sourceforge.net/DTD/sodipodi-0.dtd"
   xmlns:inkscape="http://www.inkscape.org/namespaces/inkscape"
   id="svg1"
   sodipodi:version="0.32"
   inkscape:version="0.43"
   width="48pt"
   height="48pt"
   sodipodi:docbase="/home/jakob/dev/lila/lila-theme/trunk/lila/kde/scalable/actions"
   sodipodi:docname="tab_new.svg">
  <metadata
     id="metadata29">
    <rdf:RDF>
      <cc:Work
         rdf:about="">
        <dc:format>image/svg+xml</dc:format>
        <dc:type
           rdf:resource="http://purl.org/dc/dcmitype/StillImage" />
      </cc:Work>
    </rdf:RDF>
  </metadata>
  <defs
     id="defs3">
    <linearGradient
       id="linearGradient608">
      <stop
         style="stop-color:#d9cce6;stop-opacity:1;"
         offset="0.00000000"
         id="stop609" />
      <stop
         style="stop-color:#000000;stop-opacity:1;"
         offset="1.00000000"
         id="stop610" />
    </linearGradient>
    <linearGradient
       id="linearGradient619">
      <stop
         style="stop-color:#ffea20;stop-opacity:1;"
         offset="0.00000000"
         id="stop620" />
      <stop
         style="stop-color:#ffc500;stop-opacity:1;"
         offset="1.00000000"
         id="stop621" />
    </linearGradient>
    <linearGradient
       id="linearGradient584">
      <stop
         style="stop-color:#ffffff;stop-opacity:1;"
         offset="0.00000000"
         id="stop585" />
      <stop
         style="stop-color:#ffffff;stop-opacity:0;"
         offset="1.00000000"
         id="stop586" />
    </linearGradient>
    <linearGradient
       id="linearGradient578">
      <stop
         style="stop-color:#d9cce6;stop-opacity:1;"
         offset="0.00000000"
         id="stop579" />
      <stop
         style="stop-color:#73667f;stop-opacity:1;"
         offset="1.00000000"
         id="stop580" />
    </linearGradient>
    <linearGradient
       xlink:href="#linearGradient584"
       id="linearGradient581"
       y2="1.00000000"
       x2="0.97945207"
       y1="0.00775194"
       x1="-0.00684932" />
    <linearGradient
       xlink:href="#linearGradient578"
       id="linearGradient583"
       x1="0"
       y1="0.02325581"
       x2="0.9861111"
       y2="0.97674417" />
    <linearGradient
       xlink:href="#linearGradient584"
       id="linearGradient860"
       x1="-0.02500000"
       y1="0.03100775"
       x2="0.97500002"
       y2="0.97674417" />
    <linearGradient
       xlink:href="#linearGradient608"
       id="linearGradient861"
       x1="0"
       y1="0.02325581"
       x2="0.9861111"
       y2="0.97674417" />
    <linearGradient
       xlink:href="#linearGradient578"
       id="linearGradient862"
       x1="-0.00000000"
       y1="0.00775194"
       x2="1.00000000"
       y2="0.99224806" />
    <radialGradient
       xlink:href="#linearGradient619"
       id="radialGradient618"
       cx="0.50000000"
       cy="0.50000000"
       r="0.50000000"
       fx="0.50000000"
       fy="0.50000000" />
    <linearGradient
       xlink:href="#linearGradient619"
       id="linearGradient622"
       x1="0.00000000"
       y1="0.00000000"
       x2="1.00000000"
       y2="0.00000000" />
  </defs>
  <sodipodi:namedview
     id="base"
     pagecolor="#ffffff"
     bordercolor="#666666"
     borderopacity="1.0"
     inkscape:pageopacity="0.0"
     inkscape:pageshadow="2"
     inkscape:zoom="2"
     inkscape:cx="26.938187"
     inkscape:cy="23.606087"
     inkscape:window-width="1400"
     inkscape:window-height="993"
     inkscape:window-x="0"
     inkscape:window-y="0"
     inkscape:current-layer="svg1" />
  <path
     d="M 6.039398 50.939216 C 4.379578 50.605546 2.541042 27.053716 6.782634 21.877473 C 13.613373 19.807518 24.523218 19.685808 31.771849 21.886798 C 35.41704 22.993757 35.898336 45.99375 32.525535 51.113355 C 24.594033 53.363141 12.874166 52.210796 6.039398 50.939216 z "
     style="font-size:12;fill:url(#linearGradient861);fill-rule:evenodd;stroke:#261933;stroke-width:1.67318;stroke-linecap:round;stroke-linejoin:round;fill-opacity:1.0"
     id="path576"
     sodipodi:nodetypes="ccccc" />
  <path
     d="M 6.580878 49.741256 C 4.363411 44.520334 5.233554 25.870674 6.940788 23.259455 C 14.411965 20.116272 30.523536 21.925569 32.09153 22.856913 C 19.695049 25.176449 16.845933 22.000281 9.601907 27.210461 C 6.381809 31.849 6.163415 42.581945 6.580878 49.741256 z "
     style="font-size:12;opacity:0.7;fill:url(#linearGradient581);fill-rule:evenodd;stroke:none;stroke-width:1.25;"
     id="path577"
     sodipodi:nodetypes="ccccc" />
  <path
     d="M 28.283978 50.852584 C 26.624158 50.571003 24.785622 30.695866 29.027214 26.327689 C 35.857953 24.580876 46.767798 24.478167 54.016429 26.335558 C 57.66162 27.269709 58.142916 46.679158 54.770115 50.999538 C 46.838613 52.898108 35.118746 51.925657 28.283978 50.852584 z "
     style="font-size:12;fill:url(#linearGradient583);fill-rule:evenodd;stroke:#261933;stroke-width:1.53704;stroke-linecap:round;stroke-linejoin:round;fill-opacity:1.0"
     id="path606"
     sodipodi:nodetypes="ccccc" />
  <path
     d="M 28.825458 50.416535 C 26.607991 45.908775 27.478134 29.806599 29.185368 27.552065 C 36.656545 24.838231 52.768116 26.400383 54.33611 27.204509 C 41.939629 29.207203 39.090513 26.46489 31.846487 30.963376 C 28.626389 34.968305 28.407995 44.235164 28.825458 50.416535 z "
     style="font-size:12;opacity:0.7;fill:url(#linearGradient581);fill-rule:evenodd;stroke:none;stroke-width:1.25;"
     id="path607"
     sodipodi:nodetypes="ccccc" />
  <path
     style="font-size:12;fill:url(#linearGradient622);fill-rule:evenodd;stroke:#333300;stroke-width:1.05381;"
     d="M 52.19125 18.873321 C 52.19125 25.272976 46.892053 30.466904 40.362684 30.466904 C 33.833315 30.466904 28.534117 25.272976 28.534117 18.873321 C 28.534117 12.47366 33.833315 7.2797323 40.362684 7.2797323 C 46.892053 7.2797323 52.19125 12.47366 52.19125 18.873321 z "
     id="path1189" />
</svg>
