<?xml version="1.0" encoding="UTF-8" standalone="no"?>
<!DOCTYPE svg PUBLIC "-//W3C//DTD SVG 20010904//EN"
"http://www.w3.org/TR/2001/REC-SVG-20010904/DTD/svg10.dtd">
<!-- Created with Inkscape (http://www.inkscape.org/) -->
<svg
   id="svg1"
   sodipodi:version="0.32"
   inkscape:version="0.37"
   width="48pt"
   height="48pt"
   sodipodi:docbase="/home/tom"
   sodipodi:docname="todo.svg"
   xmlns="http://www.w3.org/2000/svg"
   xmlns:inkscape="http://www.inkscape.org/namespaces/inkscape"
   xmlns:sodipodi="http://sodipodi.sourceforge.net/DTD/sodipodi-0.dtd"
   xmlns:xlink="http://www.w3.org/1999/xlink">
  <defs
     id="defs3">
    <linearGradient
       id="linearGradient703">
      <stop
         style="stop-color:#d9cce6;stop-opacity:1;"
         offset="0.00000000"
         id="stop704" />
      <stop
         style="stop-color:#73667f;stop-opacity:1;"
         offset="1.00000000"
         id="stop705" />
    </linearGradient>
    <linearGradient
       id="linearGradient866">
      <stop
         style="stop-color:#ffffff;stop-opacity:1;"
         offset="0.00000000"
         id="stop867" />
      <stop
         style="stop-color:#d9cce6;stop-opacity:1;"
         offset="1.00000000"
         id="stop868" />
    </linearGradient>
    <linearGradient
       id="linearGradient584">
      <stop
         style="stop-color:#ffffff;stop-opacity:1;"
         offset="0.00000000"
         id="stop585" />
      <stop
         style="stop-color:#ffffff;stop-opacity:0;"
         offset="1.00000000"
         id="stop586" />
    </linearGradient>
    <linearGradient
       xlink:href="#linearGradient866"
       id="linearGradient586"
       x1="-0.00000000"
       y1="0.01562500"
       x2="0.99122804"
       y2="0.98437500" />
    <linearGradient
       xlink:href="#linearGradient703"
       id="linearGradient587" />
    <linearGradient
       xlink:href="#linearGradient584"
       id="linearGradient700"
       x1="0.00000000"
       y1="0.00000000"
       x2="1.00000000"
       y2="0.00000000" />
    <linearGradient
       xlink:href="#linearGradient584"
       id="linearGradient701"
       x1="-0.00000000"
       y1="-0.00000000"
       x2="1.00000000"
       y2="-0.00000000" />
    <linearGradient
       xlink:href="#linearGradient584"
       id="linearGradient702" />
    <linearGradient
       xlink:href="#linearGradient703"
       id="linearGradient845" />
    <radialGradient
       xlink:href="#linearGradient703"
       id="radialGradient846" />
    <linearGradient
       xlink:href="#linearGradient703"
       id="linearGradient847"
       x1="0.00000000"
       y1="-0.00000000"
       x2="1.00000000"
       y2="-0.00000000" />
    <linearGradient
       xlink:href="#linearGradient703"
       id="linearGradient848"
       x1="0.01219511"
       y1="0.01562503"
       x2="0.99999994"
       y2="1.00000012" />
    <linearGradient
       xlink:href="#linearGradient584"
       id="linearGradient849"
       x1="0.00000000"
       y1="-0.00000000"
       x2="0.98514849"
       y2="1.02343750" />
    <linearGradient
       xlink:href="#linearGradient703"
       id="linearGradient850"
       x1="-0.00000000"
       y1="0.00000000"
       x2="1.00000000"
       y2="0.95652175" />
    <linearGradient
       xlink:href="#linearGradient584"
       id="linearGradient863"
       x1="-0.00000000"
       y1="-0.00000000"
       x2="0.99635035"
       y2="0.82142860" />
  </defs>
  <sodipodi:namedview
     id="base"
     pagecolor="#ffffff"
     bordercolor="#666666"
     borderopacity="1.0"
     inkscape:pageopacity="0.0"
     inkscape:pageshadow="2"
     inkscape:zoom="7.94444444"
     inkscape:cx="20.7282088"
     inkscape:cy="20.4361222"
     inkscape:window-width="1018"
     inkscape:window-height="711"
     inkscape:window-x="0"
     inkscape:window-y="30" />
  <path
     d="M 7.2081722 48.167484 C 10.011414 49.315507 50.839668 49.399571 53.483411 48.785163 C 55.45324 47.704646 54.795554 13.294821 53.808656 12.019318 C 52.78281 10.613077 11.023166 11.46166 9.4090566 12.423489 C 7.4208206 13.615197 6.358109 46.351023 7.2081722 48.167484 z "
     style="font-size:12;opacity:0.302675;fill-rule:evenodd;stroke-width:12.5;"
     id="path639"
     sodipodi:nodetypes="ccccc" />
  <path
     d="M 7.092767 45.698612 C 9.7212683 46.549059 47.94417 47.400659 51.061201 46.302902 C 52.459154 45.057982 51.873599 12.1454 50.523576 11.169277 C 48.86999 10.50685 9.0607238 10.656087 7.0563915 11.320513 C 5.6815245 12.666083 5.673271 44.225792 7.092767 45.698612 z "
     style="font-size:12;fill:url(#linearGradient586);fill-rule:evenodd;stroke:#261933;stroke-width:1.49762;"
     id="path634"
     sodipodi:nodetypes="ccccc" />
  <path
     style="font-size:12;fill:none;fill-opacity:1.00;fill-rule:evenodd;stroke:#261933;stroke-width:0.954774pt;stroke-linecap:round;"
     d="M 8.2806643 23.20411 L 48.93406 22.963051 "
     id="path637" />
  <path
     style="font-size:12;fill:none;fill-opacity:1.00;fill-rule:evenodd;stroke:#261933;stroke-width:0.951872pt;stroke-linecap:round;"
     d="M 49.585485 34.533889 L 8.1960105 34.895478 "
     id="path638" />
  <path
     style="font-size:12;fill:none;fill-opacity:1.00;fill-rule:evenodd;stroke:#261933;stroke-width:0.754905pt;stroke-linecap:round;"
     d="M 15.598765 12.879668 L 16.321943 43.995161 L 16.321943 43.926473 "
     id="path642" />
  <path
     style="font-size:12;fill:none;fill-opacity:1.00;fill-rule:evenodd;stroke:#261933;stroke-width:0.748675pt;stroke-linecap:round;"
     d="M 27.420753 12.994543 L 28.384989 44.071504 "
     id="path643" />
  <path
     style="font-size:12;fill:none;fill-opacity:1.00;fill-rule:evenodd;stroke:#261933;stroke-width:0.748618pt;stroke-linecap:round;"
     d="M 39.714768 44.138107 L 38.871061 12.728128 "
     id="path644" />
  <path
     style="fill:#000000;fill-rule:evenodd;stroke:none;stroke-opacity:1;stroke-width:12.5;stroke-linejoin:miter;stroke-linecap:butt;fill-opacity:1;stroke-dasharray:none;opacity:0.302675;"
     d="M 28.511464 30.064676 C 28.828152 32.540595 35.602568 48.037275 38.562518 46.506264 C 43.267583 44.07261 50.466458 22.098345 50.183136 19.883294 C 49.981887 18.309888 42.752111 32.986027 37.536047 35.683991 C 35.087094 36.950691 28.343582 28.752137 28.511464 30.064676 z "
     id="path587"
     sodipodi:nodetypes="cssss" />
  <rect
     style="font-size:12;fill:#0000ff;fill-rule:evenodd;stroke-width:1pt;"
     id="rect575"
     width="0.00000000"
     height="0.00000000"
     x="46.53356465"
     y="42.94840368" />
  <path
     style="font-size:12;fill:url(#linearGradient587);fill-rule:evenodd;stroke:#261933;stroke-width:0.920161;"
     d="M 29.475946 31.050763 C 29.746553 33.166421 35.867847 46.474764 38.397107 45.166525 C 42.417557 43.086982 49.36718 22.780165 49.125086 20.887417 C 48.953119 19.54295 42.176647 34.278749 37.71955 36.584144 C 35.626932 37.666532 29.332491 29.929207 29.475946 31.050763 z "
     id="path577"
     sodipodi:nodetypes="cssss" />
  <path
     style="fill:url(#linearGradient700);fill-rule:evenodd;stroke:none;stroke-opacity:1;stroke-width:1pt;stroke-linejoin:miter;stroke-linecap:butt;fill-opacity:1;"
     d="M 31.621542 34.890251 C 31.327708 34.489569 30.725222 33.126518 31.056911 33.309286 C 32.569681 34.142853 35.336301 38.59268 37.154921 37.939256 C 41.371517 36.577747 45.07365 28.162546 47.205342 25.291534 C 47.655587 24.661284 46.561035 27.935265 46.189009 28.679317 C 46.109326 28.838674 46.106906 28.154933 45.963158 28.340538 C 43.133187 31.994421 41.670865 38.28425 37.267846 40.197778 C 35.743061 40.83775 34.017038 36.61804 32.299099 35.003178 C 32.134936 34.848866 31.74177 35.054199 31.621542 34.890251 z "
     id="path582"
     sodipodi:nodetypes="cssssssss" />
</svg>
