<?xml version="1.0" encoding="UTF-8" standalone="no"?>
<!-- Created with Inkscape (http://www.inkscape.org/) -->
<svg
   xmlns:dc="http://purl.org/dc/elements/1.1/"
   xmlns:cc="http://web.resource.org/cc/"
   xmlns:rdf="http://www.w3.org/1999/02/22-rdf-syntax-ns#"
   xmlns:svg="http://www.w3.org/2000/svg"
   xmlns="http://www.w3.org/2000/svg"
   xmlns:xlink="http://www.w3.org/1999/xlink"
   xmlns:sodipodi="http://inkscape.sourceforge.net/DTD/sodipodi-0.dtd"
   xmlns:inkscape="http://www.inkscape.org/namespaces/inkscape"
   id="svg1"
   sodipodi:version="0.32"
   inkscape:version="0.42"
   width="48pt"
   height="48pt"
   sodipodi:docbase="/home/jakob/dev/lila/lila-theme/trunk/lila/kde/scalable/actions"
   sodipodi:docname="top.svg">
  <metadata
     id="metadata25">
    <rdf:RDF>
      <cc:Work
         rdf:about="">
        <dc:format>image/svg+xml</dc:format>
        <dc:type
           rdf:resource="http://purl.org/dc/dcmitype/StillImage" />
      </cc:Work>
    </rdf:RDF>
  </metadata>
  <defs
     id="defs3">
    <linearGradient
       id="linearGradient584">
      <stop
         style="stop-color:#ffffff;stop-opacity:1;"
         offset="0.00000000"
         id="stop585" />
      <stop
         style="stop-color:#ffffff;stop-opacity:0;"
         offset="1.00000000"
         id="stop586" />
    </linearGradient>
    <linearGradient
       id="linearGradient578">
      <stop
         style="stop-color:#d9cce6;stop-opacity:1;"
         offset="0.00000000"
         id="stop579" />
      <stop
         style="stop-color:#73667f;stop-opacity:1;"
         offset="1.00000000"
         id="stop580" />
    </linearGradient>
    <linearGradient
       xlink:href="#linearGradient578"
       id="linearGradient581"
       x1="8.0988861"
       y1="14.816921"
       x2="50.873387"
       y2="56.629320"
       gradientTransform="matrix(1.007177,0.000000,0.000000,0.992874,-7.697497e-5,0.000000)"
       gradientUnits="userSpaceOnUse" />
    <linearGradient
       xlink:href="#linearGradient578"
       id="linearGradient583"
       x1="3.9863570"
       y1="3.4980796"
       x2="26.165833"
       y2="24.434740"
       gradientTransform="matrix(1.992614,0.000000,0.000000,0.501853,-7.697497e-5,0.000000)"
       gradientUnits="userSpaceOnUse" />
    <linearGradient
       xlink:href="#linearGradient584"
       id="linearGradient612"
       x1="11.678473"
       y1="16.900966"
       x2="31.632096"
       y2="35.640579"
       gradientTransform="matrix(1.015052,0.000000,0.000000,0.985172,-7.697497e-5,0.000000)"
       gradientUnits="userSpaceOnUse" />
    <linearGradient
       xlink:href="#linearGradient584"
       id="linearGradient614"
       x1="60.727145"
       y1="12.454359"
       x2="66.483635"
       y2="17.888287"
       gradientTransform="matrix(0.335628,0.000000,0.000000,2.979491,-7.697497e-5,0.000000)"
       gradientUnits="userSpaceOnUse" />
    <linearGradient
       xlink:href="#linearGradient584"
       id="linearGradient844"
       x1="3.9640476"
       y1="10.324092"
       x2="18.909656"
       y2="23.968519"
       gradientTransform="matrix(2.643519,0.000000,0.000000,0.378284,-7.697497e-5,0.000000)"
       gradientUnits="userSpaceOnUse" />
  </defs>
  <sodipodi:namedview
     id="base"
     pagecolor="#ffffff"
     bordercolor="#666666"
     borderopacity="1.0"
     inkscape:pageopacity="0.0"
     inkscape:pageshadow="2"
     inkscape:zoom="7.9794720"
     inkscape:cx="26.619758"
     inkscape:cy="24.084410"
     inkscape:window-width="895"
     inkscape:window-height="516"
     inkscape:window-x="181"
     inkscape:window-y="116"
     inkscape:current-layer="svg1" />
  <path
     style="font-size:12.000000px;opacity:0.30267498;fill-rule:evenodd;stroke-width:12.500000"
     d="M 18.252960,58.683248 C 19.173101,60.154792 41.462234,59.607629 42.693472,58.683248 C 44.096106,57.583921 41.779186,39.690861 42.693472,38.227599 C 43.396863,36.957350 54.496716,39.469465 54.116755,38.227599 C 53.721471,37.073066 36.032118,13.445160 31.270191,13.255768 C 26.296492,13.255768 7.4548702,36.604096 7.0953348,38.227599 C 6.8113413,39.658363 17.956875,37.361405 18.784277,38.493256 C 19.880651,39.918406 17.143195,57.096293 18.252960,58.683248 z "
     id="path591"
     sodipodi:nodetypes="csssssss" />
  <path
     style="font-size:12.000000px;opacity:0.30267498;fill-rule:evenodd;stroke-width:12.500000"
     d="M 8.5340832,12.550284 C 10.358378,13.468645 50.790966,13.781309 52.661586,12.697585 C 54.492911,11.759240 54.210749,2.8703472 52.661586,2.0040480 C 50.858959,0.87935624 9.9324570,1.0296106 8.5183321,2.0040480 C 7.1109394,2.8676938 6.9619214,11.827793 8.5340832,12.550284 z "
     id="path592"
     sodipodi:nodetypes="cssss" />
  <path
     style="font-size:12.000000px;fill:url(#linearGradient581);fill-rule:evenodd;stroke:#261933;stroke-width:1.8741900"
     d="M 18.785615,55.403250 C 19.609659,56.721109 39.570965,56.231090 40.673611,55.403250 C 41.929755,54.418734 39.854825,38.394384 40.673611,37.083942 C 41.303545,35.946355 51.244151,38.196111 50.903882,37.083942 C 50.549879,36.049986 35.065638,14.720114 30.443353,14.720114 C 25.634789,14.542960 9.1152530,35.629995 8.7932655,37.083942 C 8.5389329,38.365281 18.520452,36.308212 19.261441,37.321856 C 20.243314,38.598166 17.791751,53.982032 18.785615,55.403250 z "
     id="path589"
     sodipodi:nodetypes="csssssss" />
  <path
     style="font-size:12.000000px;fill:url(#linearGradient583);fill-rule:evenodd;stroke:#261933;stroke-width:1.8741900"
     d="M 9.7593500,11.035964 C 11.430819,11.740352 48.476236,11.980168 50.190140,11.148943 C 51.868047,10.429226 51.609531,3.6113771 50.190140,2.9469189 C 48.538520,2.0842725 11.040577,2.1995182 9.7449180,2.9469189 C 8.4554290,3.6093412 8.3188953,10.481806 9.7593500,11.035964 z "
     id="path590"
     sodipodi:nodetypes="cssss" />
  <path
     style="opacity:0.20178296;fill:#261e2e;fill-opacity:1.0000000;fill-rule:evenodd;stroke:none;stroke-width:1.0000000pt;stroke-linecap:butt;stroke-linejoin:miter;stroke-opacity:1.0000000"
     d="M 30.474544,56.059728 C 30.285187,54.377183 29.225424,15.940318 30.368528,14.713528 C 31.207304,13.699562 48.744431,31.641820 51.253653,36.764835 C 52.136928,38.568192 42.056062,34.698956 40.970121,36.870851 C 39.016939,40.777202 43.175179,50.521291 41.394185,54.999570 C 41.060775,55.951206 30.611325,57.169105 30.474544,56.059728 z "
     id="path644"
     sodipodi:nodetypes="csssss" />
  <path
     style="opacity:0.19547798;fill:#261e2e;fill-opacity:1.0000000;fill-rule:evenodd;stroke:none;stroke-width:1.0000000pt;stroke-linecap:butt;stroke-linejoin:miter;stroke-opacity:1.0000000"
     d="M 30.266483,10.866749 C 30.026014,10.856489 30.127291,3.0094400 30.391751,2.9749091 C 34.663701,2.2918422 45.454268,1.4226760 50.183978,3.3507119 C 52.009923,4.0950441 51.908137,10.294122 50.058712,10.992016 C 45.268963,12.799470 35.325646,11.008679 30.266483,10.866749 z "
     id="path646"
     sodipodi:nodetypes="cssss" />
  <path
     style="fill:url(#linearGradient614);fill-opacity:1.0000000;fill-rule:evenodd;stroke:none;stroke-width:1.0000000pt;stroke-linecap:butt;stroke-linejoin:miter;stroke-opacity:1.0000000"
     d="M 20.414791,53.797037 C 20.215218,52.799171 20.806258,39.759801 21.291665,36.697988 C 21.439555,35.765151 22.402566,40.099442 22.314685,41.813090 C 22.110275,45.799124 20.556224,54.504203 20.414791,53.797037 z "
     id="path706"
     sodipodi:nodetypes="csss" />
  <path
     style="fill:url(#linearGradient612);fill-opacity:1.0000000;fill-rule:evenodd;stroke:none;stroke-width:1.0000000pt;stroke-linecap:butt;stroke-linejoin:miter;stroke-opacity:1.0000000"
     d="M 11.854212,36.259552 C 11.879328,35.907935 22.615372,21.219117 29.391696,16.383736 C 30.274370,15.740007 32.486506,17.923096 32.460765,18.283631 C 32.437789,18.605109 30.031586,18.036381 29.245551,18.722067 C 23.162735,24.028355 11.830613,36.589948 11.854212,36.259552 z "
     id="path707"
     sodipodi:nodetypes="cssss" />
  <path
     style="fill:url(#linearGradient844);fill-opacity:1.0000000;fill-rule:evenodd;stroke:none;stroke-width:1.0000000pt;stroke-linecap:butt;stroke-linejoin:miter;stroke-opacity:1.0000000"
     d="M 10.922796,9.3225853 C 10.657115,9.0569062 9.6760050,4.7239940 11.099951,4.5394088 C 22.431143,3.0705494 48.947646,4.1216790 49.188212,4.3622528 C 49.420055,4.5940927 24.097311,4.4555189 12.517188,5.9566458 C 11.342172,6.1089622 11.129528,9.5293183 10.922796,9.3225853 z "
     id="path843"
     sodipodi:nodetypes="cssss" />
</svg>
