<?xml version="1.0" encoding="UTF-8" standalone="no"?>
<!-- Created with Inkscape (http://www.inkscape.org/) -->
<svg
   xmlns:dc="http://purl.org/dc/elements/1.1/"
   xmlns:cc="http://web.resource.org/cc/"
   xmlns:rdf="http://www.w3.org/1999/02/22-rdf-syntax-ns#"
   xmlns:svg="http://www.w3.org/2000/svg"
   xmlns="http://www.w3.org/2000/svg"
   xmlns:xlink="http://www.w3.org/1999/xlink"
   xmlns:sodipodi="http://inkscape.sourceforge.net/DTD/sodipodi-0.dtd"
   xmlns:inkscape="http://www.inkscape.org/namespaces/inkscape"
   id="svg1"
   sodipodi:version="0.32"
   inkscape:version="0.42.2"
   width="48pt"
   height="48pt"
   sodipodi:docbase="/home/jakob/dev/lila/lila-theme/branches/tango/scalable/actions"
   sodipodi:docname="format-indent-less.svg">
  <metadata
     id="metadata31">
    <rdf:RDF>
      <cc:Work
         rdf:about="">
        <dc:format>image/svg+xml</dc:format>
        <dc:type
           rdf:resource="http://purl.org/dc/dcmitype/StillImage" />
      </cc:Work>
    </rdf:RDF>
  </metadata>
  <defs
     id="defs3">
    <linearGradient
       id="linearGradient1085">
      <stop
         style="stop-color:#faf8fd;stop-opacity:1;"
         offset="0.00000000"
         id="stop1086" />
      <stop
         style="stop-color:#ffffff;stop-opacity:0;"
         offset="1.00000000"
         id="stop1087" />
    </linearGradient>
    <linearGradient
       id="linearGradient584">
      <stop
         style="stop-color:#d9cce6;stop-opacity:1;"
         offset="0.00000000"
         id="stop585" />
      <stop
         style="stop-color:#73667f;stop-opacity:1;"
         offset="1.00000000"
         id="stop586" />
    </linearGradient>
    <linearGradient
       id="linearGradient578">
      <stop
         style="stop-color:#faf8fd;stop-opacity:1;"
         offset="0.00000000"
         id="stop579" />
      <stop
         style="stop-color:#d9cce6;stop-opacity:1;"
         offset="1.00000000"
         id="stop580" />
    </linearGradient>
    <linearGradient
       xlink:href="#linearGradient578"
       id="linearGradient581"
       x1="3.3262202"
       y1="4.3624692"
       x2="55.837559"
       y2="56.463563"
       gradientTransform="matrix(1.013076,0.000000,0.000000,0.987093,7.490000e-4,0.000000)"
       gradientUnits="userSpaceOnUse" />
    <linearGradient
       xlink:href="#linearGradient1085"
       id="linearGradient583"
       x1="6.5600808"
       y1="8.0187415"
       x2="49.514063"
       y2="50.276710"
       gradientTransform="matrix(1.023983,0.000000,0.000000,0.976578,7.490000e-4,0.000000)"
       gradientUnits="userSpaceOnUse" />
    <linearGradient
       xlink:href="#linearGradient1085"
       id="linearGradient654"
       x1="5.6129786"
       y1="79.343993"
       x2="7.3173994"
       y2="80.959620"
       gradientTransform="matrix(4.739705,0.000000,0.000000,0.596080,-14.25694,-21.93981)"
       gradientUnits="userSpaceOnUse" />
    <linearGradient
       xlink:href="#linearGradient584"
       id="linearGradient655"
       x1="8.7451640"
       y1="23.086705"
       x2="22.773834"
       y2="37.005776"
       gradientTransform="matrix(1.669382,0.000000,0.000000,1.692387,-14.62278,-21.13493)"
       gradientUnits="userSpaceOnUse" />
    <linearGradient
       xlink:href="#linearGradient1085"
       id="linearGradient713"
       x1="11.227243"
       y1="25.198421"
       x2="15.514008"
       y2="29.415724"
       gradientTransform="matrix(1.940271,0.000000,0.000000,2.100170,-18.99976,-31.28876)"
       gradientUnits="userSpaceOnUse" />
    <linearGradient
       inkscape:collect="always"
       xlink:href="#linearGradient1085"
       id="linearGradient2082"
       x1="0.98748374"
       y1="29.807692"
       x2="22.384184"
       y2="29.807692"
       gradientUnits="userSpaceOnUse" />
  </defs>
  <sodipodi:namedview
     id="base"
     pagecolor="#ffffff"
     bordercolor="#666666"
     borderopacity="1.0"
     inkscape:pageopacity="0.0"
     inkscape:pageshadow="2"
     inkscape:zoom="13.666667"
     inkscape:cx="30.000002"
     inkscape:cy="30.000002"
     inkscape:window-width="1400"
     inkscape:window-height="992"
     inkscape:window-x="0"
     inkscape:window-y="0"
     inkscape:current-layer="svg1" />
  <path
     style="opacity:0.29636899;fill:#000000;fill-opacity:1.0000000;fill-rule:evenodd;stroke:none;stroke-width:1.8750000;stroke-linecap:butt;stroke-linejoin:miter;stroke-dasharray:none;stroke-opacity:1.0000000"
     d="M 7.1875942,7.9441926 C 9.4295290,6.0057716 56.506924,6.0085340 58.454737,7.9441926 C 60.422253,9.7244595 59.741980,55.956242 57.929818,57.811551 C 56.403286,59.378594 9.0876200,59.833611 7.1875942,57.986524 C 5.1458210,55.826666 4.7561449,10.070304 7.1875942,7.9441926 z "
     id="path712"
     sodipodi:nodetypes="cssss" />
  <path
     style="font-size:12.000000px;fill:url(#linearGradient581);fill-rule:evenodd;stroke:#261933;stroke-width:1.8750000;stroke-dasharray:none"
     d="M 5.9012056,6.6209014 C 8.0265670,4.7832713 52.656095,4.7858901 54.502628,6.6209013 C 56.367839,8.3085990 55.722938,52.136483 54.005003,53.895323 C 52.557845,55.380884 7.7024360,55.812241 5.9012056,54.061197 C 3.9655977,52.013644 3.5961834,8.6364611 5.9012056,6.6209014 z "
     id="path684"
     sodipodi:nodetypes="cssss" />
  <path
     sodipodi:nodetypes="cssssss"
     id="path1332"
     d="M 13.270379,16.383283 C 13.003821,16.474548 8.9087072,18.939372 6.0509640,21.459537 C 3.1932212,23.979702 1.5728496,26.555208 1.5728496,29.501986 C 1.5728496,32.307905 3.0764232,35.056541 5.8444366,37.782987 C 8.6124501,40.509433 12.644903,43.213688 13.019736,43.296697 C 13.350071,43.362266 11.926912,36.261081 11.978669,29.729382 C 12.030427,23.197684 13.557101,16.295559 13.270379,16.383283 z "
     style="font-size:12.000000px;fill:none;fill-rule:evenodd;stroke:url(#linearGradient2082);stroke-width:3.1250000;stroke-dasharray:none;fill-opacity:1.0;stroke-miterlimit:4.0000000" />
  <path
     style="fill:url(#linearGradient583);fill-opacity:1.0000000;fill-rule:evenodd;stroke:none;stroke-width:1.0000000pt;stroke-linecap:butt;stroke-linejoin:miter;stroke-opacity:1.0000000"
     d="M 7.3940821,50.080193 C 6.6687474,49.354858 6.2082158,11.534699 7.7258324,8.9431540 C 9.0478040,6.8515750 50.295260,8.2191651 51.019249,8.9431540 C 51.677553,9.6014583 15.539132,9.7065422 11.872711,13.090032 C 7.7482443,16.730348 8.0510402,50.737151 7.3940821,50.080193 z "
     id="path691"
     sodipodi:nodetypes="cssss" />
  <path
     style="fill:#261933;fill-opacity:1.0000000;fill-rule:evenodd;stroke:none;stroke-width:1.0000000pt;stroke-linecap:butt;stroke-linejoin:miter;stroke-opacity:1.0000000"
     d="M 13.002863,12.073763 C 23.593310,11.202960 37.237891,11.203045 47.779601,12.073763 C 48.777920,12.156221 48.629929,14.850493 47.622949,14.933293 C 37.037683,15.803670 23.541484,15.803756 13.002863,14.933293 C 12.001454,14.850579 12.001063,12.156136 13.002863,12.073763 z "
     id="path852"
     sodipodi:nodetypes="cssss" />
  <path
     style="fill:#261933;fill-opacity:1.0000000;fill-rule:evenodd;stroke:none;stroke-width:1.0000000pt;stroke-linecap:butt;stroke-linejoin:miter;stroke-opacity:1.0000000"
     d="M 25.802880,23.806917 C 32.223559,22.936114 40.495871,22.936199 46.887004,23.806917 C 47.492253,23.889376 47.402531,26.583647 46.792028,26.666447 C 40.374492,27.536824 32.192138,27.536910 25.802880,26.666447 C 25.195755,26.583734 25.195519,23.889290 25.802880,23.806917 z "
     id="path853"
     sodipodi:nodetypes="cssss" />
  <path
     style="fill:#261933;fill-opacity:1.0000000;fill-rule:evenodd;stroke:none;stroke-width:1.0000000pt;stroke-linecap:butt;stroke-linejoin:miter;stroke-opacity:1.0000000"
     d="M 13.525581,44.977646 C 23.566168,44.106843 36.502318,44.106928 46.496699,44.977646 C 47.443185,45.060105 47.302878,47.754376 46.348181,47.837176 C 36.312505,48.707553 23.517033,48.707639 13.525581,47.837176 C 12.576165,47.754462 12.575795,45.060019 13.525581,44.977646 z "
     id="path854"
     sodipodi:nodetypes="cssss" />
  <path
     style="fill:#261933;fill-opacity:1.0000000;fill-rule:evenodd;stroke:none;stroke-width:1.0000000pt;stroke-linecap:butt;stroke-linejoin:miter;stroke-opacity:1.0000000"
     d="M 25.802880,33.333109 C 32.223559,32.462306 40.495871,32.462391 46.887004,33.333109 C 47.492253,33.415568 47.402531,36.109839 46.792028,36.192639 C 40.374492,37.063016 32.192138,37.063102 25.802880,36.192639 C 25.195755,36.109926 25.195519,33.415482 25.802880,33.333109 z "
     id="path1079"
     sodipodi:nodetypes="cssss" />
  <path
     style="font-size:12.000000px;opacity:0.30267498;fill:#000000;fill-opacity:1.0000000;fill-rule:evenodd;stroke:none;stroke-width:14.847900"
     d="M 23.553904,36.695298 C 24.312835,36.220748 24.030643,24.725386 23.553904,24.090387 C 22.986938,23.366996 13.758799,24.561918 13.004138,24.090387 C 12.349022,23.727624 13.644615,18.003000 13.004138,18.198958 C 12.408703,18.402822 0.18328784,27.456347 0.12520690,29.981812 C 0.15138478,32.359352 12.166837,42.264291 13.004138,42.449714 C 13.742039,42.596182 12.557410,36.848003 13.141149,36.421279 C 13.876155,35.855837 22.735448,37.267646 23.553904,36.695298 z "
     id="path617"
     sodipodi:nodetypes="csssssss" />
  <path
     style="font-size:12.000000px;fill:url(#linearGradient655);fill-rule:evenodd;stroke:#261933;stroke-width:1.8749995;stroke-dasharray:none"
     d="M 21.964031,35.512811 C 22.643529,35.087925 22.390872,24.795720 21.964031,24.227182 C 21.456406,23.579504 13.194124,24.649362 12.518450,24.227182 C 11.931901,23.902387 13.091893,18.776927 12.518450,18.952376 C 11.985334,19.134906 1.0394847,27.087050 0.98748375,29.501986 C 1.0109710,31.707582 11.768785,40.498926 12.518450,40.664944 C 13.179119,40.796081 12.118478,35.649532 12.641120,35.267470 C 13.299195,34.761208 21.231240,36.025254 21.964031,35.512811 z "
     id="path589"
     sodipodi:nodetypes="csssssss" />
  <path
     style="opacity:0.20178296;fill:#261e2e;fill-opacity:1.0000000;fill-rule:evenodd;stroke:none;stroke-width:1.0000000pt;stroke-linecap:butt;stroke-linejoin:miter;stroke-opacity:1.0000000"
     d="M 22.297927,29.744970 C 21.434955,29.647850 1.7208094,29.104299 1.0915932,29.690594 C 0.57153236,30.120804 9.7740594,39.115534 12.401638,40.402514 C 13.326574,40.855542 11.342054,35.685096 12.456015,35.128116 C 14.459568,34.126340 19.457280,36.259088 21.754175,35.345616 C 22.242267,35.174617 22.866923,29.815126 22.297927,29.744970 z "
     id="path644"
     sodipodi:nodetypes="csssss" />
  <path
     style="fill:url(#linearGradient713);fill-opacity:1.0000000;fill-rule:evenodd;stroke:none;stroke-width:1.0000000pt;stroke-linecap:butt;stroke-linejoin:miter;stroke-opacity:1.0000000"
     d="M 2.8279159,29.169800 C 4.8763697,25.893709 11.068684,21.621888 11.162100,21.632265 C 11.252525,21.642314 5.9570116,26.458575 3.8084091,29.108521 C 3.5057829,29.481760 3.8924592,30.711160 3.8084091,30.701821 C 3.7086176,30.690733 2.5467075,29.633407 2.8279159,29.169800 z "
     id="path665"
     sodipodi:nodetypes="cssss" />
  <path
     style="fill:url(#linearGradient654);fill-opacity:1.0000000;fill-rule:evenodd;stroke:none;stroke-width:1.0000000pt;stroke-linecap:butt;stroke-linejoin:miter;stroke-opacity:1.0000000"
     d="M 12.413473,25.599892 C 14.191012,25.611259 20.161941,25.246227 20.446486,25.388499 C 20.678683,25.504598 16.081589,26.319275 13.963704,26.375007 C 13.403918,26.389742 12.030082,25.658237 12.413473,25.599892 z "
     id="path666"
     sodipodi:nodetypes="csss" />
</svg>
