<?xml version="1.0" encoding="UTF-8" standalone="no"?>
<!DOCTYPE svg PUBLIC "-//W3C//DTD SVG 20010904//EN"
"http://www.w3.org/TR/2001/REC-SVG-20010904/DTD/svg10.dtd">
<!-- Created with Inkscape (http://www.inkscape.org/) -->
<svg
   version="1.0"
   x="0"
   y="0"
   width="48pt"
   height="48pt"
   id="svg1"
   sodipodi:version="0.32"
   inkscape:version="0.37"
   sodipodi:docname="decrypted.svg"
   sodipodi:docbase="/home/tom/Pics/lilasvg/scalable/actions"
   xmlns="http://www.w3.org/2000/svg"
   xmlns:inkscape="http://www.inkscape.org/namespaces/inkscape"
   xmlns:sodipodi="http://sodipodi.sourceforge.net/DTD/sodipodi-0.dtd"
   xmlns:xlink="http://www.w3.org/1999/xlink">
  <sodipodi:namedview
     id="base"
     inkscape:zoom="2"
     inkscape:cx="26.2697182"
     inkscape:cy="32.2392426"
     inkscape:window-width="400"
     inkscape:window-height="501"
     inkscape:window-x="308"
     inkscape:window-y="100" />
  <defs
     id="defs3">
    <linearGradient
       id="linearGradient595">
      <stop
         style="stop-color:#7f7f7f;stop-opacity:1;"
         offset="0"
         id="stop596" />
      <stop
         style="stop-color:#e6e6e6;stop-opacity:1;"
         offset="1"
         id="stop597" />
    </linearGradient>
    <linearGradient
       id="linearGradient590">
      <stop
         style="stop-color:#ffffff;stop-opacity:1;"
         offset="0"
         id="stop591" />
      <stop
         style="stop-color:#ffffff;stop-opacity:0;"
         offset="1"
         id="stop592" />
    </linearGradient>
    <linearGradient
       id="linearGradient584">
      <stop
         style="stop-color:#d9cce6;stop-opacity:1;"
         offset="0.00000000"
         id="stop585" />
      <stop
         style="stop-color:#73667f;stop-opacity:1;"
         offset="1.00000000"
         id="stop586" />
    </linearGradient>
    <linearGradient
       x1="0.01204819"
       y1="0.01562500"
       x2="0.98795182"
       y2="1.00000000"
       id="linearGradient587"
       xlink:href="#linearGradient584" />
    <linearGradient
       x1="0.011696"
       y1="0.000001"
       x2="0.842105"
       y2="0.906250"
       id="linearGradient589"
       xlink:href="#linearGradient590" />
    <linearGradient
       x1="0.99218750"
       y1="0.98437500"
       x2="0.01562500"
       y2="0.00781250"
       id="linearGradient594"
       xlink:href="#linearGradient595" />
    <linearGradient
       x1="0.000001"
       y1="0.023434"
       x2="0.952381"
       y2="0.976562"
       id="linearGradient599"
       xlink:href="#linearGradient590" />
    <linearGradient
       id="linearGradient601"
       xlink:href="#linearGradient595" />
  </defs>
  <path
     d="M 20.006608 19.364298 C 19.891993 11.027262 23.699038 5.2919698 32.751893 5.3742395 C 42.434494 5.4634977 44.624393 19.01146 44.385997 26.399644 C 44.267469 30.004683 37.709815 29.282892 37.798038 26.399644 C 37.727127 22.462515 38.769047 13.083657 32.471544 13.083657 C 26.200525 12.943484 26.453388 15.089435 26.403609 18.890925 C 26.512964 21.103092 19.997637 22.31918 20.006608 19.364298 z "
     style="font-size:12;opacity:0.302675;fill-rule:evenodd;stroke-width:12.5;"
     id="path602"
     sodipodi:nodetypes="ccccccc" />
  <path
     d="M 14.479347 55.521662 C 15.839626 56.624533 49.46983 57.213241 50.506427 56.105115 C 51.658313 54.711584 51.335586 29.643749 50.214699 28.39201 C 49.113648 27.177165 15.699121 26.979284 14.625209 28.246146 C 13.599123 29.311805 13.139123 54.316896 14.479347 55.521662 z "
     style="font-size:12;opacity:0.296369;fill-rule:evenodd;stroke-width:12.5;"
     id="path600" />
  <path
     d="M 19.773385 15.84725 C 19.660412 7.629103 21.822003 3.8577207 30.745751 3.9388171 C 40.290274 4.0268017 42.448952 17.381564 42.213948 24.664389 C 42.09711 28.218018 35.632972 27.506521 35.719937 24.664389 C 35.650036 20.783405 36.677108 11.538295 30.4694 11.538295 C 24.287809 11.400122 24.967443 13.050833 24.918373 16.798112 C 25.026169 18.978733 19.764551 18.759995 19.773385 15.84725 z "
     style="font-size:12;fill:url(#linearGradient594);fill-rule:evenodd;stroke:#333333;stroke-width:1.875;stroke-dasharray:none;"
     id="path593"
     sodipodi:nodetypes="ccccccc" />
  <path
     d="M 13.841903 52.813781 C 15.130484 53.858532 46.988098 54.416209 47.970047 53.366481 C 49.061222 52.046411 48.755513 28.29986 47.693698 27.114096 C 46.650682 25.963283 14.997394 25.775834 13.980078 26.975922 C 13.008083 27.985411 12.572321 51.672526 13.841903 52.813781 z "
     style="font-size:12;fill:url(#linearGradient587);fill-rule:evenodd;stroke:#261933;stroke-width:1.875;stroke-dasharray:none;"
     id="path583" />
  <path
     d="M 15.776355 51.432138 C 15.277096 50.758229 14.636609 29.744496 15.914529 28.772193 C 17.629515 27.500479 45.692806 28.675267 46.17388 29.32479 C 46.613907 29.918841 24.666778 28.147157 18.677923 32.502709 C 14.534305 35.51624 16.198296 52.001705 15.776355 51.432138 z "
     style="font-size:12;opacity:0.7;fill:url(#linearGradient589);fill-rule:evenodd;stroke:none;stroke-width:0.110046pt;"
     id="path588" />
  <path
     d="M 21.07382 18.584903 C 21.967893 12.830738 24.170464 8.6228081 27.291482 6.1495417 C 29.052499 4.7540375 33.852748 5.1038538 36.134462 7.3930733 C 33.161881 6.3473853 29.813683 6.3563156 27.982357 7.8075778 C 24.931638 10.225128 22.658768 14.074311 21.07382 18.584903 z "
     style="font-size:12;opacity:0.7;fill:url(#linearGradient599);fill-rule:evenodd;stroke:none;stroke-width:0.110046pt;"
     id="path598" />
  <path
     d="M 31.496165 32.785356 C 33.132315 32.918045 36.144118 35.851715 36.144118 37.312409 C 36.144118 38.61826 31.926544 39.571565 31.496165 41.084987 C 30.734684 43.76344 33.294067 47.719198 32.568548 49.887732 C 32.340554 50.569566 28.868715 50.353668 28.635544 49.636277 C 27.915203 47.419488 30.085968 43.849194 29.708326 41.084987 C 29.490196 39.489778 26.551031 37.935822 26.847805 36.557938 C 27.147019 35.169277 30.033447 32.666588 31.496165 32.785356 z "
     style="font-size:12;fill:#261933;fill-rule:evenodd;stroke-width:1.28711pt;fill-opacity:1;"
     id="path603" />
</svg>
