<?xml version="1.0" encoding="UTF-8" standalone="no"?>
<!-- Created with Inkscape (http://www.inkscape.org/) -->
<svg
   xmlns:dc="http://purl.org/dc/elements/1.1/"
   xmlns:cc="http://web.resource.org/cc/"
   xmlns:rdf="http://www.w3.org/1999/02/22-rdf-syntax-ns#"
   xmlns:svg="http://www.w3.org/2000/svg"
   xmlns="http://www.w3.org/2000/svg"
   xmlns:xlink="http://www.w3.org/1999/xlink"
   xmlns:sodipodi="http://inkscape.sourceforge.net/DTD/sodipodi-0.dtd"
   xmlns:inkscape="http://www.inkscape.org/namespaces/inkscape"
   id="svg1"
   sodipodi:version="0.32"
   inkscape:version="0.42"
   width="48pt"
   height="48pt"
   sodipodi:docbase="/home/jakob/dev/lila/lila-theme/trunk/lila/kde/scalable/actions"
   sodipodi:docname="up.svg">
  <metadata
     id="metadata25">
    <rdf:RDF>
      <cc:Work
         rdf:about="">
        <dc:format>image/svg+xml</dc:format>
        <dc:type
           rdf:resource="http://purl.org/dc/dcmitype/StillImage" />
      </cc:Work>
    </rdf:RDF>
  </metadata>
  <defs
     id="defs3">
    <linearGradient
       id="linearGradient584">
      <stop
         style="stop-color:#ffffff;stop-opacity:1;"
         offset="0.00000000"
         id="stop585" />
      <stop
         style="stop-color:#ffffff;stop-opacity:0;"
         offset="1.00000000"
         id="stop586" />
    </linearGradient>
    <linearGradient
       id="linearGradient578">
      <stop
         style="stop-color:#d9cce6;stop-opacity:1;"
         offset="0.00000000"
         id="stop579" />
      <stop
         style="stop-color:#73667f;stop-opacity:1;"
         offset="1.00000000"
         id="stop580" />
    </linearGradient>
    <linearGradient
       xlink:href="#linearGradient578"
       id="linearGradient581"
       x1="8.0988861"
       y1="14.816921"
       x2="50.873387"
       y2="56.629320"
       gradientTransform="matrix(1.195903,0.000000,0.000000,1.178920,-5.398623,-12.29978)"
       gradientUnits="userSpaceOnUse" />
    <linearGradient
       xlink:href="#linearGradient578"
       id="linearGradient583"
       x1="3.9863570"
       y1="3.4980796"
       x2="26.165833"
       y2="24.434740"
       gradientTransform="matrix(1.992614,0.000000,0.000000,0.501853,-7.697497e-5,0.000000)"
       gradientUnits="userSpaceOnUse" />
    <linearGradient
       xlink:href="#linearGradient584"
       id="linearGradient612"
       x1="11.678473"
       y1="16.900966"
       x2="31.632096"
       y2="35.640579"
       gradientTransform="matrix(1.205254,0.000000,0.000000,1.169775,-5.398623,-12.29978)"
       gradientUnits="userSpaceOnUse" />
    <linearGradient
       xlink:href="#linearGradient584"
       id="linearGradient614"
       x1="60.727145"
       y1="12.454359"
       x2="66.483635"
       y2="17.888287"
       gradientTransform="matrix(0.398518,0.000000,0.000000,3.537791,-5.398623,-12.29978)"
       gradientUnits="userSpaceOnUse" />
    <linearGradient
       xlink:href="#linearGradient584"
       id="linearGradient844"
       x1="3.9640476"
       y1="10.324092"
       x2="18.909656"
       y2="23.968519"
       gradientTransform="matrix(2.643519,0.000000,0.000000,0.378284,-7.697497e-5,0.000000)"
       gradientUnits="userSpaceOnUse" />
  </defs>
  <sodipodi:namedview
     id="base"
     pagecolor="#ffffff"
     bordercolor="#666666"
     borderopacity="1.0"
     inkscape:pageopacity="0.0"
     inkscape:pageshadow="2"
     inkscape:zoom="7.9794720"
     inkscape:cx="26.619758"
     inkscape:cy="24.084410"
     inkscape:window-width="1400"
     inkscape:window-height="995"
     inkscape:window-x="0"
     inkscape:window-y="0"
     inkscape:current-layer="svg1" />
  <path
     style="font-size:12.000000px;opacity:0.30267498;fill-rule:evenodd;stroke-width:12.500000"
     d="M 16.274688,57.379604 C 17.367246,59.126888 43.832941,58.477197 45.294890,57.379604 C 46.960351,56.074284 44.209284,34.828403 45.294890,33.090953 C 46.130083,31.582684 59.309839,34.565522 58.858680,33.090953 C 58.389327,31.720083 37.385324,3.6647541 31.731102,3.4398736 C 25.825426,3.4398736 3.4532400,31.163237 3.0263345,33.090953 C 2.6891260,34.789816 15.923122,32.062451 16.905563,33.406390 C 18.207377,35.098586 14.956974,55.495284 16.274688,57.379604 z "
     id="path591"
     sodipodi:nodetypes="csssssss" />
  <path
     style="font-size:12.000000px;fill:url(#linearGradient581);fill-rule:evenodd;stroke:#261933;stroke-width:1.8741897"
     d="M 16.907150,53.484990 C 17.885605,55.049791 41.587280,54.467952 42.896541,53.484990 C 44.388062,52.315995 41.924330,33.288986 42.896541,31.732992 C 43.644513,30.382243 55.447799,33.053560 55.043770,31.732992 C 54.623434,30.505292 36.237740,5.1786080 30.749327,5.1786080 C 25.039729,4.9682587 5.4247462,30.006603 5.0424244,31.732992 C 4.7404347,33.254430 16.592301,30.811905 17.472137,32.015487 C 18.637994,33.530953 15.727055,51.797463 16.907150,53.484990 z "
     id="path589"
     sodipodi:nodetypes="csssssss" />
  <path
     style="opacity:0.20178296;fill:#261e2e;fill-opacity:1.0000000;fill-rule:evenodd;stroke:none;stroke-width:1.0000000pt;stroke-linecap:butt;stroke-linejoin:miter;stroke-opacity:1.0000000"
     d="M 30.786366,54.264486 C 30.561527,52.266664 29.303184,6.6274575 30.660484,5.1707903 C 31.656431,3.9668262 52.479684,25.271124 55.459087,31.354095 C 56.507871,33.495367 44.538041,28.901109 43.248615,31.479976 C 40.929444,36.118304 45.866859,47.688251 43.752141,53.005675 C 43.356256,54.135629 30.948777,55.581740 30.786366,54.264486 z "
     id="path644"
     sodipodi:nodetypes="csssss" />
  <path
     style="fill:url(#linearGradient614);fill-opacity:1.0000000;fill-rule:evenodd;stroke:none;stroke-width:1.0000000pt;stroke-linecap:butt;stroke-linejoin:miter;stroke-opacity:1.0000000"
     d="M 18.841605,51.577810 C 18.604636,50.392963 19.306426,34.910261 19.882789,31.274722 C 20.058390,30.167089 21.201851,35.313544 21.097503,37.348298 C 20.854791,42.081239 19.009540,52.417485 18.841605,51.577810 z "
     id="path706"
     sodipodi:nodetypes="csss" />
  <path
     style="fill:url(#linearGradient612);fill-opacity:1.0000000;fill-rule:evenodd;stroke:none;stroke-width:1.0000000pt;stroke-linecap:butt;stroke-linejoin:miter;stroke-opacity:1.0000000"
     d="M 8.6769350,30.754132 C 8.7067580,30.336628 21.454533,12.895403 29.500612,7.1539637 C 30.548683,6.3896120 33.175331,8.9817703 33.144767,9.4098633 C 33.117486,9.7915803 30.260406,9.1162833 29.327082,9.9304533 C 22.104462,16.231039 8.6489140,31.146438 8.6769350,30.754132 z "
     id="path707"
     sodipodi:nodetypes="cssss" />
</svg>
