<?xml version="1.0" encoding="UTF-8" standalone="no"?>
<!DOCTYPE svg PUBLIC "-//W3C//DTD SVG 20010904//EN"
"http://www.w3.org/TR/2001/REC-SVG-20010904/DTD/svg10.dtd">
<!-- Created with Inkscape (http://www.inkscape.org/) -->
<svg
   id="svg1"
   sodipodi:version="0.32"
   inkscape:version="0.37"
   width="48pt"
   height="48pt"
   sodipodi:docbase="/home/tom"
   sodipodi:docname="view_icons.svg"
   xmlns="http://www.w3.org/2000/svg"
   xmlns:inkscape="http://www.inkscape.org/namespaces/inkscape"
   xmlns:sodipodi="http://sodipodi.sourceforge.net/DTD/sodipodi-0.dtd"
   xmlns:xlink="http://www.w3.org/1999/xlink">
  <defs
     id="defs3">
    <linearGradient
       id="linearGradient584">
      <stop
         style="stop-color:#ffffff;stop-opacity:1;"
         offset="0.00000000"
         id="stop585" />
      <stop
         style="stop-color:#ffffff;stop-opacity:0;"
         offset="1.00000000"
         id="stop586" />
    </linearGradient>
    <linearGradient
       id="linearGradient578">
      <stop
         style="stop-color:#d9cce6;stop-opacity:1;"
         offset="0.00000000"
         id="stop579" />
      <stop
         style="stop-color:#73667f;stop-opacity:1;"
         offset="1.00000000"
         id="stop580" />
    </linearGradient>
    <linearGradient
       xlink:href="#linearGradient584"
       id="linearGradient581"
       x1="0.21710527"
       y1="0.61718750"
       x2="1.48684216"
       y2="0.11718750" />
    <linearGradient
       xlink:href="#linearGradient584"
       id="linearGradient583"
       x1="-0.00000000"
       y1="-0.00000000"
       x2="1.00000000"
       y2="-0.00000000" />
    <linearGradient
       xlink:href="#linearGradient578"
       id="linearGradient654"
       x1="0.00000000"
       y1="-0.00000000"
       x2="1.00000000"
       y2="-0.00000000" />
    <linearGradient
       xlink:href="#linearGradient578"
       id="linearGradient655"
       x1="-0.00000000"
       y1="-0.00000000"
       x2="1.00000000"
       y2="-0.00000000" />
    <linearGradient
       xlink:href="#linearGradient584"
       id="linearGradient653"
       x1="0.00000000"
       y1="-0.00000000"
       x2="0.97945207"
       y2="0.97656250" />
  </defs>
  <sodipodi:namedview
     id="base"
     pagecolor="#ffffff"
     bordercolor="#666666"
     borderopacity="1.0"
     inkscape:pageopacity="0.0"
     inkscape:pageshadow="2"
     inkscape:zoom="0.50000000"
     inkscape:cx="21.3551025"
     inkscape:cy="26.3932495"
     inkscape:window-width="1018"
     inkscape:window-height="711"
     inkscape:window-x="0"
     inkscape:window-y="30" />
  <path
     style="font-size:12;opacity:0.302675;fill-rule:evenodd;stroke-width:1.25;"
     d="M 3.8976841 51.54416 C 2.3327506 49.805354 2.5192919 7.415197 4.9069794 5.5600021 C 6.6978503 4.163405 56.093416 4.3890947 57.65239 6.3751442 C 59.442109 8.8245232 60.323992 54.73228 58.244446 56.200068 C 56.246128 57.724812 5.6534132 53.627162 3.8976841 51.54416 z "
     id="path737"
     sodipodi:nodetypes="cssss" />
  <path
     style="font-size:12;fill:url(#linearGradient581);fill-rule:evenodd;stroke:#000000;stroke-width:3.05801;"
     d="M 2.8893086 47.03021 C 1.4060468 45.382149 1.582852 5.2041865 3.845934 3.4458067 C 5.5433438 2.122093 52.361127 2.3360039 53.838744 4.2184109 C 55.535062 6.5399637 56.370924 50.051953 54.3999 51.443141 C 52.505868 52.888318 4.5534144 49.004508 2.8893086 47.03021 z "
     id="path738"
     sodipodi:nodetypes="cssss" />
  <path
     style="font-size:12;fill:url(#linearGradient654);fill-rule:evenodd;stroke:#000000;stroke-width:3.05801;"
     d="M 3.1626491 10.331288 C 2.3013106 10.036277 3.2766543 4.0689231 3.845934 3.4458067 C 5.1975552 1.7274594 52.083213 2.635903 53.838744 4.2184109 C 54.633624 5.0016455 54.978352 10.743505 53.993985 11.6597 C 52.486562 13.552035 5.3311381 11.564 3.1626491 10.331288 z "
     id="path739"
     sodipodi:nodetypes="cssss" />
  <path
     style="font-size:12;fill-rule:evenodd;stroke-width:1pt;"
     d="M 46.59816 5.8927835 C 46.257346 6.296982 47.808792 7.7589354 47.872985 8.068294 C 47.934682 8.3473303 46.321474 9.5925616 46.667397 9.9302332 C 46.970668 10.292031 48.549107 8.6239005 48.837973 8.6770184 C 49.051742 8.7027059 50.180671 10.394722 50.539208 10.101653 C 50.880043 9.7817226 49.611585 8.1662017 49.56282 7.8578524 C 49.566343 7.5748893 51.390869 6.4552595 51.11527 6.0927744 C 50.754459 5.7191067 48.909269 7.3025222 48.574603 7.2028286 C 48.286486 7.089219 46.94329 5.5339619 46.59816 5.8927835 z "
     id="path740"
     sodipodi:nodetypes="cssssssss" />
  <path
     style="font-size:12;fill:url(#linearGradient583);fill-rule:evenodd;stroke-width:1pt;"
     d="M 4.9728152 7.8397426 C 4.817671 7.6133116 4.720807 5.0961888 5.5894134 5.0551958 C 19.274821 4.4093411 48.494517 5.5743706 48.634859 5.7792014 C 48.772869 5.9806266 20.268866 5.620601 6.4244696 6.2739568 C 5.7148486 6.3074442 5.0960235 8.0195665 4.9728152 7.8397426 z "
     id="path741"
     sodipodi:nodetypes="cssss" />
  <path
     style="font-size:12;fill:url(#linearGradient655);fill-opacity:1.00;fill-rule:evenodd;stroke:#261933;stroke-width:0.957088;"
     d="M 13.081674 15.342933 C 12.543592 15.92888 12.888437 23.067769 13.318902 23.806572 C 13.480326 24.214187 19.333744 24.760099 19.979442 24.097724 C 20.221579 23.537252 20.507197 16.302189 19.942213 15.588861 C 19.108186 15.155769 13.270003 15.011746 13.081674 15.342933 z "
     id="path610"
     sodipodi:nodetypes="ccccc" />
  <path
     style="font-size:12;fill:url(#linearGradient655);fill-opacity:1.00;fill-rule:evenodd;stroke:#261933;stroke-width:0.957088;"
     d="M 34.46022 16.22909 C 33.922138 16.815037 34.266983 23.953926 34.697448 24.692729 C 34.858872 25.100344 40.71229 25.646256 41.357988 24.983881 C 41.600125 24.423409 41.885743 17.188346 41.320759 16.475018 C 40.486732 16.041926 34.648549 15.897903 34.46022 16.22909 z "
     id="path639"
     sodipodi:nodetypes="ccccc" />
  <path
     style="fill:none;fill-rule:evenodd;stroke:#261933;stroke-opacity:1;stroke-width:1pt;stroke-linejoin:miter;stroke-linecap:round;fill-opacity:1.00;"
     d="M 11.520046 26.215251 L 20.603159 26.879869 "
     id="path642" />
  <path
     style="fill:none;fill-rule:evenodd;stroke:#261933;stroke-opacity:1;stroke-width:1pt;stroke-linejoin:miter;stroke-linecap:round;fill-opacity:1.00;"
     d="M 33.230901 27.212178 L 42.314014 27.876796 "
     id="path646" />
  <path
     style="font-size:12;fill:url(#linearGradient655);fill-opacity:1.00;fill-rule:evenodd;stroke:#261933;stroke-width:0.957088;"
     d="M 13.413983 32.069153 C 12.875901 32.6551 13.220746 39.793989 13.651211 40.532792 C 13.812635 40.940407 19.666053 41.486319 20.311751 40.823944 C 20.553888 40.263472 20.839506 33.028409 20.274522 32.315081 C 19.440495 31.881989 13.602312 31.737966 13.413983 32.069153 z "
     id="path647"
     sodipodi:nodetypes="ccccc" />
  <path
     style="font-size:12;fill:url(#linearGradient655);fill-opacity:1.00;fill-rule:evenodd;stroke:#261933;stroke-width:0.957088;"
     d="M 34.792529 32.95531 C 34.254447 33.541257 34.599292 40.680146 35.029757 41.418949 C 35.191181 41.826564 41.044599 42.372476 41.690297 41.710101 C 41.932434 41.149629 42.218052 33.914566 41.653068 33.201238 C 40.819041 32.768146 34.980858 32.624123 34.792529 32.95531 z "
     id="path648"
     sodipodi:nodetypes="ccccc" />
  <path
     style="fill:none;fill-rule:evenodd;stroke:#261933;stroke-opacity:1;stroke-width:1pt;stroke-linejoin:miter;stroke-linecap:round;fill-opacity:1.00;"
     d="M 11.852355 42.941471 L 20.935468 43.606089 "
     id="path649" />
  <path
     style="fill:none;fill-rule:evenodd;stroke:#261933;stroke-opacity:1;stroke-width:1pt;stroke-linejoin:miter;stroke-linecap:round;fill-opacity:1.00;"
     d="M 33.56321 43.938398 L 42.646323 44.603016 "
     id="path650" />
</svg>
