<?xml version="1.0" encoding="UTF-8" standalone="no"?>
<!-- Created with Inkscape (http://www.inkscape.org/) -->
<svg
   xmlns:dc="http://purl.org/dc/elements/1.1/"
   xmlns:cc="http://web.resource.org/cc/"
   xmlns:rdf="http://www.w3.org/1999/02/22-rdf-syntax-ns#"
   xmlns:svg="http://www.w3.org/2000/svg"
   xmlns="http://www.w3.org/2000/svg"
   xmlns:xlink="http://www.w3.org/1999/xlink"
   xmlns:sodipodi="http://inkscape.sourceforge.net/DTD/sodipodi-0.dtd"
   xmlns:inkscape="http://www.inkscape.org/namespaces/inkscape"
   id="svg1"
   sodipodi:version="0.32"
   inkscape:version="0.42"
   width="48pt"
   height="48pt"
   sodipodi:docbase="/home/jakob/dev/lila/lila-theme/trunk/lila/kde/scalable/actions"
   sodipodi:docname="viewmag+.svg">
  <metadata
     id="metadata29">
    <rdf:RDF>
      <cc:Work
         rdf:about="">
        <dc:format>image/svg+xml</dc:format>
        <dc:type
           rdf:resource="http://purl.org/dc/dcmitype/StillImage" />
      </cc:Work>
    </rdf:RDF>
  </metadata>
  <defs
     id="defs3">
    <linearGradient
       id="linearGradient584">
      <stop
         style="stop-color:#ffffff;stop-opacity:1;"
         offset="0.00000000"
         id="stop585" />
      <stop
         style="stop-color:#ffffff;stop-opacity:0;"
         offset="1.00000000"
         id="stop586" />
    </linearGradient>
    <linearGradient
       id="linearGradient578">
      <stop
         style="stop-color:#d9cce6;stop-opacity:1;"
         offset="0.00000000"
         id="stop579" />
      <stop
         style="stop-color:#73667f;stop-opacity:1;"
         offset="1.00000000"
         id="stop580" />
    </linearGradient>
    <linearGradient
       xlink:href="#linearGradient578"
       id="linearGradient581"
       x1="14.311795"
       y1="16.101774"
       x2="36.484341"
       y2="38.463290"
       gradientTransform="matrix(1.004673,0.000000,0.000000,0.995348,-2.387000e-3,0.000000)"
       gradientUnits="userSpaceOnUse" />
    <linearGradient
       xlink:href="#linearGradient578"
       id="linearGradient583"
       x1="2.8901209"
       y1="3.7254963"
       x2="48.307349"
       y2="49.852368"
       gradientTransform="matrix(1.000002,0.000000,0.000000,0.999998,-2.387000e-3,0.000000)"
       gradientUnits="userSpaceOnUse" />
    <linearGradient
       xlink:href="#linearGradient584"
       id="linearGradient654"
       x1="10.108975"
       y1="69.965596"
       x2="12.600760"
       y2="72.476403"
       gradientTransform="matrix(2.739812,0.000000,0.000000,0.364989,-2.387000e-3,0.000000)"
       gradientUnits="userSpaceOnUse" />
    <linearGradient
       xlink:href="#linearGradient584"
       id="linearGradient655"
       x1="69.729115"
       y1="10.059263"
       x2="72.056853"
       y2="12.432465"
       gradientTransform="matrix(0.346784,0.000000,0.000000,2.883642,-2.387000e-3,0.000000)"
       gradientUnits="userSpaceOnUse" />
    <linearGradient
       xlink:href="#linearGradient584"
       id="linearGradient653"
       x1="37.433931"
       y1="44.579067"
       x2="39.727901"
       y2="46.866270"
       gradientTransform="matrix(1.067787,0.000000,0.000000,0.936516,-2.387000e-3,0.000000)"
       gradientUnits="userSpaceOnUse" />
    <linearGradient
       xlink:href="#linearGradient584"
       id="linearGradient682"
       x1="16.010198"
       y1="18.288402"
       x2="25.891936"
       y2="28.324542"
       gradientTransform="matrix(1.018149,0.000000,0.000000,0.982174,-2.387000e-3,0.000000)"
       gradientUnits="userSpaceOnUse" />
    <linearGradient
       inkscape:collect="always"
       xlink:href="#linearGradient584"
       id="linearGradient1327"
       x1="258.55046"
       y1="213.76220"
       x2="486.85654"
       y2="443.81111"
       gradientUnits="userSpaceOnUse" />
    <linearGradient
       inkscape:collect="always"
       xlink:href="#linearGradient578"
       id="linearGradient1329"
       x1="36.592544"
       y1="40.893670"
       x2="56.174880"
       y2="60.642901"
       gradientTransform="matrix(1.042268,0.000000,0.000000,0.959446,-2.387000e-3,0.000000)"
       gradientUnits="userSpaceOnUse" />
    <linearGradient
       inkscape:collect="always"
       xlink:href="#linearGradient584"
       id="linearGradient1331"
       x1="6.1810676"
       y1="6.8453907"
       x2="32.039986"
       y2="33.209367"
       gradientTransform="matrix(0.951948,0.000000,0.000000,1.050478,-2.387000e-3,0.000000)"
       gradientUnits="userSpaceOnUse" />
  </defs>
  <sodipodi:namedview
     id="base"
     pagecolor="#ffffff"
     bordercolor="#666666"
     borderopacity="1.0"
     inkscape:pageopacity="0.0"
     inkscape:pageshadow="2"
     inkscape:zoom="5.6423388"
     inkscape:cx="19.735066"
     inkscape:cy="25.498632"
     inkscape:window-width="895"
     inkscape:window-height="516"
     inkscape:window-x="59"
     inkscape:window-y="258"
     inkscape:current-layer="svg1" />
  <path
     d="M 50.759007,29.850076 C 50.759007,42.227760 40.713299,52.273466 28.335620,52.273466 C 15.957760,52.273466 5.9120464,42.227760 5.9120464,29.850076 C 5.9120464,17.472398 15.957760,7.4266870 28.335620,7.4266870 C 40.713299,7.4266870 50.759007,17.472398 50.759007,29.850076 z M 45.202742,29.850076 C 45.202742,38.941685 37.646155,46.320356 28.335620,46.320356 C 19.024902,46.320356 11.468492,38.941685 11.468492,29.850076 C 11.468492,20.758468 19.024902,13.379619 28.335620,13.379619 C 37.646155,13.379619 45.202742,20.758468 45.202742,29.850076 z "
     style="font-size:12.000000px;opacity:0.29999998;fill-rule:evenodd;stroke-width:13.490400"
     id="path1566" />
  <path
     d="M 48.844538,26.976392 C 48.844538,39.354071 38.158790,50.039818 25.781107,50.039818 C 13.403249,50.039818 2.7175000,39.354071 2.7175000,26.976392 C 2.7175000,14.598711 13.403249,3.9129603 25.781107,3.9129603 C 38.158790,3.9129603 48.844538,14.598711 48.844538,26.976392 z M 41.368163,26.976392 C 41.368163,36.068000 35.091643,42.166593 25.781107,42.166593 C 16.470394,42.166593 10.194058,36.068000 10.194058,26.976392 C 10.194058,17.884781 16.470394,11.786008 25.781107,11.786008 C 35.091643,11.786008 41.368163,17.884781 41.368163,26.976392 z "
     style="font-size:12.000000px;fill:url(#linearGradient583);fill-rule:evenodd;stroke:#261933;stroke-width:1.8750000;stroke-dasharray:none"
     id="path1525"
     sodipodi:nodetypes="cccccccccs" />
  <path
     d="M 39.941744,44.540075 C 39.720603,44.105174 41.521465,42.119064 41.956174,42.347013 C 43.513086,43.162825 44.918471,45.563559 46.684450,46.793925 C 50.297801,49.311367 55.388203,50.813414 58.094353,53.590827 C 58.963677,54.482972 58.152214,57.309810 57.300827,58.021281 C 56.367349,58.801606 53.089621,59.824282 51.972022,58.943551 C 48.865102,56.495742 46.744209,52.016801 43.969003,48.694013 C 42.734117,47.215546 40.647463,45.928397 39.941744,44.540075 z "
     style="font-size:12.000000px;opacity:0.29999998;fill-rule:evenodd;stroke-width:13.490400"
     id="path1565"
     sodipodi:nodetypes="ccsccccc" />
  <ellipse
     cx="373.57492"
     cy="328.78662"
     rx="115.02444"
     ry="115.02443"
     transform="matrix(0.129538,0.000000,0.000000,0.126491,-22.61132,-14.61187)"
     style="font-size:12.000000px;fill:url(#linearGradient1327);fill-rule:evenodd;stroke-width:1.0000000pt"
     id="path1521"
     sodipodi:cx="373.57492"
     sodipodi:cy="328.78662"
     sodipodi:rx="115.02444"
     sodipodi:ry="115.02443" />
  <path
     d="M 39.094193,42.166681 C 38.873051,41.731781 40.564237,39.965029 40.998944,40.192979 C 42.555856,41.008788 43.961248,43.409510 45.727220,44.639888 C 49.340581,47.157321 54.430970,48.659379 57.137132,51.436792 C 58.006453,52.328936 56.975627,55.155772 56.124240,55.867243 C 55.190763,56.647571 52.242073,57.450890 51.124471,56.570158 C 48.017550,54.122349 45.896659,49.643408 43.121453,46.320621 C 41.886566,44.842153 39.799910,43.555004 39.094193,42.166681 z "
     style="font-size:12.000000px;fill:url(#linearGradient1329);fill-rule:evenodd;stroke:#261933;stroke-width:1.8750000;stroke-dasharray:none"
     id="path1531"
     sodipodi:nodetypes="cccccccc" />
  <path
     d="M 7.2686557,35.325294 C 5.6720407,32.132066 4.0756085,21.594675 10.940919,13.452108 C 19.243159,5.9482635 27.864764,7.0656590 31.377169,7.5446962 C 25.789113,7.8640547 20.041380,7.0658394 12.537531,14.410189 C 5.5125411,21.275315 7.4283341,31.493531 7.2686557,35.325294 z "
     style="font-size:12.000000px;opacity:0.69999999;fill:url(#linearGradient1331);fill-rule:evenodd;stroke:none;stroke-width:1.0000000pt"
     id="path1533" />
  <path
     d="M 39.969364,42.013051 C 39.961500,41.962033 40.120115,41.695244 40.202495,41.758727 C 40.953667,42.338052 42.462629,43.893813 42.469918,43.941378 C 42.476726,43.985683 41.006601,42.621624 40.244880,42.034244 C 40.173052,41.978815 39.975692,42.053903 39.969364,42.013051 z "
     style="font-size:12.000000px;opacity:0.69999999;fill:url(#linearGradient653);fill-rule:evenodd;stroke:none;stroke-width:1.0000000pt"
     id="path1538" />
  <path
     style="font-size:12.000000px;opacity:0.29636899;fill:#000000;fill-opacity:1.0000000;fill-rule:evenodd;stroke:none;stroke-width:18.750000;stroke-dasharray:none"
     d="M 24.193484,17.336295 C 23.645387,18.151551 24.689318,24.852768 24.116778,25.467254 C 23.622305,26.080055 16.562505,25.004240 15.755696,25.467254 C 14.892841,26.044469 14.759582,29.158047 15.678989,29.609440 C 16.551038,30.075245 23.595336,28.947839 24.116778,29.609442 C 24.663619,30.129239 23.417928,36.990138 24.040070,37.970521 C 24.620142,38.847947 27.741729,38.792074 28.335673,37.893813 C 28.925647,36.924848 27.987621,30.267051 28.489086,29.686148 C 29.009430,29.160084 35.926444,30.236387 36.543338,29.686148 C 37.378701,29.023448 37.503923,25.963288 36.620045,25.390547 C 35.838167,24.834198 29.004833,25.868061 28.412378,25.390547 C 27.782452,24.897715 28.883768,18.040966 28.335673,17.259589 C 27.785003,16.397477 24.737073,16.451670 24.193484,17.336295 z "
     id="path656"
     sodipodi:nodetypes="cssssssssssss" />
  <path
     style="font-size:12.000000px;fill:url(#linearGradient581);fill-rule:evenodd;stroke:#261933;stroke-width:1.8750000;stroke-dasharray:none"
     d="M 23.662052,17.598057 C 23.161806,18.342138 24.114600,24.458318 23.592042,25.019158 C 23.140738,25.578459 16.697280,24.596567 15.960908,25.019158 C 15.173383,25.545980 15.051758,28.387735 15.890897,28.799720 C 16.686812,29.224857 23.116125,28.195878 23.592042,28.799721 C 24.091143,29.274139 22.954202,35.536060 23.522032,36.430853 C 24.051463,37.231681 26.900526,37.180682 27.442614,36.360844 C 27.981084,35.476471 27.124949,29.399919 27.582635,28.869732 C 28.057552,28.389595 34.370691,29.371932 34.933729,28.869732 C 35.696161,28.264887 35.810451,25.471887 35.003738,24.949149 C 34.290123,24.441369 28.053357,25.384973 27.512624,24.949149 C 26.937692,24.499341 27.942860,18.241208 27.442614,17.528047 C 26.940022,16.741200 24.158184,16.790662 23.662052,17.598057 z "
     id="path650"
     sodipodi:nodetypes="cssssssssssss" />
  <path
     style="fill:url(#linearGradient682);fill-opacity:1.0000000;fill-rule:evenodd;stroke:none;stroke-width:1.0000000pt;stroke-linecap:butt;stroke-linejoin:miter;stroke-opacity:1.0000000"
     d="M 16.198135,28.052860 C 16.055037,27.883744 15.867323,26.017972 16.465246,25.849201 C 18.627459,25.238900 22.758598,26.776843 24.144657,25.448538 C 25.429699,24.217039 23.853668,20.198374 24.411767,18.236568 C 24.588220,17.616311 26.562629,17.790101 26.682201,17.969459 C 26.785222,18.123989 25.070290,18.483160 24.945987,19.104677 C 24.513811,21.265556 25.933046,24.791824 24.678878,25.982757 C 23.284206,27.307109 19.445158,26.168805 16.999465,26.650532 C 16.506948,26.747544 16.299888,28.173112 16.198135,28.052860 z "
     id="path651"
     sodipodi:nodetypes="cssssssss" />
  <path
     style="opacity:0.80082798;fill:url(#linearGradient655);fill-opacity:1.0000000;fill-rule:evenodd;stroke:none;stroke-width:1.0000000pt;stroke-linecap:butt;stroke-linejoin:miter;stroke-opacity:1.0000000"
     d="M 24.211435,35.932602 C 24.101011,35.366687 24.288465,30.036595 24.478544,29.054522 C 24.555575,28.656527 25.048212,30.879612 25.012763,31.792398 C 24.959175,33.172305 24.279085,36.279312 24.211435,35.932602 z "
     id="path652"
     sodipodi:nodetypes="csss" />
  <path
     style="opacity:0.80082798;fill:url(#linearGradient654);fill-opacity:1.0000000;fill-rule:evenodd;stroke:none;stroke-width:1.0000000pt;stroke-linecap:butt;stroke-linejoin:miter;stroke-opacity:1.0000000"
     d="M 27.750642,25.915981 C 29.127900,25.598151 34.248410,25.456678 34.561945,25.582092 C 34.804887,25.679270 31.135701,26.316948 29.420078,26.450200 C 28.843006,26.495021 27.391686,25.998817 27.750642,25.915981 z "
     id="path653"
     sodipodi:nodetypes="csss" />
</svg>
