<?xml version="1.0" encoding="UTF-8" standalone="no"?>
<!DOCTYPE svg PUBLIC "-//W3C//DTD SVG 20010904//EN"
"http://www.w3.org/TR/2001/REC-SVG-20010904/DTD/svg10.dtd">
<!-- Created with Inkscape (http://www.inkscape.org/) -->
<svg
   id="svg1"
   sodipodi:version="0.32"
   inkscape:version="0.40"
   width="48pt"
   height="48pt"
   sodipodi:docbase="/home/jakob/dev/lila-cvs/lila-kde/scalable/actions"
   sodipodi:docname="view_remove.svg"
   xmlns="http://www.w3.org/2000/svg"
   xmlns:cc="http://web.resource.org/cc/"
   xmlns:inkscape="http://www.inkscape.org/namespaces/inkscape"
   xmlns:sodipodi="http://sodipodi.sourceforge.net/DTD/sodipodi-0.dtd"
   xmlns:rdf="http://www.w3.org/1999/02/22-rdf-syntax-ns#"
   xmlns:dc="http://purl.org/dc/elements/1.1/"
   xmlns:xlink="http://www.w3.org/1999/xlink">
  <metadata
     id="metadata32">
    <rdf:RDF
       id="RDF33">
      <cc:Work
         rdf:about=""
         id="Work34">
        <dc:format
           id="format35">image/svg+xml</dc:format>
        <dc:type
           id="type37"
           rdf:resource="http://purl.org/dc/dcmitype/StillImage" />
      </cc:Work>
    </rdf:RDF>
  </metadata>
  <defs
     id="defs3">
    <linearGradient
       id="linearGradient584">
      <stop
         style="stop-color:#ffffff;stop-opacity:1;"
         offset="0.00000000"
         id="stop585" />
      <stop
         style="stop-color:#ffffff;stop-opacity:0;"
         offset="1.00000000"
         id="stop586" />
    </linearGradient>
    <linearGradient
       id="linearGradient578">
      <stop
         style="stop-color:#d9cce6;stop-opacity:1;"
         offset="0.00000000"
         id="stop579" />
      <stop
         style="stop-color:#73667f;stop-opacity:1;"
         offset="1.00000000"
         id="stop580" />
    </linearGradient>
    <linearGradient
       xlink:href="#linearGradient584"
       id="linearGradient581"
       x1="12.195200"
       y1="34.690324"
       x2="81.265222"
       y2="7.4917665"
       gradientTransform="matrix(1.058571,0.000000,0.000000,0.975344,-0.407867,1.307025)"
       gradientUnits="userSpaceOnUse" />
    <linearGradient
       xlink:href="#linearGradient584"
       id="linearGradient583"
       x1="1.2731385"
       y1="18.599604"
       x2="12.713946"
       y2="18.599604"
       gradientTransform="matrix(3.886965,0.000000,0.000000,0.265624,-0.407867,1.307025)"
       gradientUnits="userSpaceOnUse" />
    <linearGradient
       xlink:href="#linearGradient578"
       id="linearGradient654"
       x1="0.62902899"
       y1="2.0319597"
       x2="27.307993"
       y2="2.0319597"
       gradientTransform="matrix(2.088378,0.000000,0.000000,0.494389,-0.407867,1.307025)"
       gradientUnits="userSpaceOnUse" />
    <linearGradient
       xlink:href="#linearGradient578"
       id="linearGradient655"
       x1="-0.00000000"
       y1="-0.00000000"
       x2="1.00000000"
       y2="-0.00000000" />
    <linearGradient
       xlink:href="#linearGradient584"
       id="linearGradient653"
       x1="0.00000000"
       y1="-0.00000000"
       x2="0.97945207"
       y2="0.97656250" />
    <linearGradient
       xlink:href="#linearGradient584"
       id="linearGradient600"
       x1="12.683742"
       y1="28.761297"
       x2="29.532001"
       y2="45.477929"
       gradientTransform="scale(0.900530,1.110457)"
       gradientUnits="userSpaceOnUse" />
    <linearGradient
       xlink:href="#linearGradient584"
       id="linearGradient599"
       x1="10.818061"
       y1="12.214143"
       x2="28.093218"
       y2="28.809789"
       gradientTransform="scale(1.072983,0.931981)"
       gradientUnits="userSpaceOnUse" />
    <linearGradient
       xlink:href="#linearGradient584"
       id="linearGradient5785"
       x1="-0.01086957"
       y1="0.00000000"
       x2="0.98369563"
       y2="0.96875000" />
    <linearGradient
       xlink:href="#linearGradient578"
       id="linearGradient5784"
       x1="0.01538462"
       y1="0.03125000"
       x2="0.99230766"
       y2="0.98437500" />
    <linearGradient
       id="linearGradient5781">
      <stop
         style="stop-color:#f50000;stop-opacity:1;"
         offset="0.00000000"
         id="stop5782" />
      <stop
         style="stop-color:#a90000;stop-opacity:1;"
         offset="1.00000000"
         id="stop5783" />
    </linearGradient>
    <linearGradient
       id="linearGradient5778">
      <stop
         style="stop-color:#ffffff;stop-opacity:1;"
         offset="0.00000000"
         id="stop5779" />
      <stop
         style="stop-color:#ffffff;stop-opacity:0;"
         offset="1.00000000"
         id="stop5780" />
    </linearGradient>
    <linearGradient
       inkscape:collect="always"
       xlink:href="#linearGradient5781"
       id="linearGradient5794"
       gradientUnits="userSpaceOnUse"
       gradientTransform="matrix(1.058571,3.000173e-18,4.814792e-18,0.975344,-0.407867,1.307025)"
       x1="12.195200"
       y1="34.690323"
       x2="81.265221"
       y2="7.4917665" />
    <linearGradient
       inkscape:collect="always"
       xlink:href="#linearGradient584"
       id="linearGradient5795"
       gradientUnits="userSpaceOnUse"
       gradientTransform="matrix(3.886965,1.101633e-17,1.311255e-18,0.265624,-0.407867,1.307025)"
       x1="1.2731385"
       y1="18.599604"
       x2="12.713946"
       y2="18.599604" />
  </defs>
  <sodipodi:namedview
     id="base"
     pagecolor="#ffffff"
     bordercolor="#666666"
     borderopacity="1.0"
     inkscape:pageopacity="0.0"
     inkscape:pageshadow="2"
     inkscape:zoom="1.4142136"
     inkscape:cx="23.999983"
     inkscape:cy="23.999961"
     inkscape:window-width="1400"
     inkscape:window-height="992"
     inkscape:window-x="0"
     inkscape:window-y="0"
     inkscape:current-layer="svg1" />
  <path
     style="font-size:12.000000;opacity:0.30267498;fill-rule:evenodd;stroke-width:1.2500000"
     d="M 3.5525916,53.681338 C 1.9624538,51.914527 2.1519994,8.8416480 4.5781422,6.9565739 C 6.3978563,5.5374837 56.588970,5.7668083 58.173052,7.7848444 C 59.991596,10.273672 60.887682,56.920805 58.774644,58.412232 C 56.744142,59.961533 5.3365978,55.797888 3.5525916,53.681338 z "
     id="path737"
     sodipodi:nodetypes="cssss" />
  <path
     style="font-size:12.000000;fill:url(#linearGradient581);fill-rule:evenodd;stroke:#261933;stroke-width:3.1072614;stroke-opacity:1.0000000;"
     d="M 2.5279755,49.094688 C 1.0208248,47.420083 1.2004775,6.5950277 3.5000080,4.8083280 C 5.2247557,3.4632950 52.796570,3.6806511 54.297985,5.5933755 C 56.021623,7.9523184 56.870948,52.165098 54.868179,53.578692 C 52.943642,55.047144 4.2188828,51.100783 2.5279755,49.094688 z "
     id="path738"
     sodipodi:nodetypes="cssss" />
  <path
     style="font-size:12.000000;fill:url(#linearGradient654);fill-rule:evenodd;stroke:#261933;stroke-width:3.1072614;stroke-opacity:1.0000000;"
     d="M 2.8057183,11.804705 C 1.9305074,11.504942 2.9215597,5.4414801 3.5000080,4.8083280 C 4.8733979,3.0623055 52.514180,3.9853802 54.297985,5.5933755 C 55.105667,6.3892246 55.455947,12.223561 54.455726,13.154512 C 52.924025,15.077324 5.0091323,13.057271 2.8057183,11.804705 z "
     id="path739"
     sodipodi:nodetypes="cssss" />
  <path
     style="font-size:12.000000;fill-rule:evenodd;stroke-width:1.0000000pt"
     d="M 46.940787,7.2947150 C 46.594484,7.7054234 48.170917,9.1909225 48.236144,9.5052635 C 48.298834,9.7887939 46.659644,11.054081 47.011139,11.397191 C 47.319294,11.764815 48.923155,10.069818 49.216673,10.123792 C 49.433885,10.149893 50.580996,11.869160 50.945308,11.571371 C 51.291632,11.246288 50.002745,9.6047481 49.953195,9.2914326 C 49.956774,9.0039122 51.810685,7.8662500 51.530648,7.4979269 C 51.164026,7.1182410 49.289118,8.7271585 48.949062,8.6258592 C 48.656304,8.5104199 47.291475,6.9301143 46.940787,7.2947150 z "
     id="path740"
     sodipodi:nodetypes="cssssssss" />
  <path
     style="font-size:12.000000;fill:url(#linearGradient583);fill-rule:evenodd;stroke-width:1.0000000pt"
     d="M 4.6450384,9.2730312 C 4.4873955,9.0429533 4.3889714,6.4852906 5.2715673,6.4436374 C 19.177387,5.7873807 48.867686,6.9711738 49.010288,7.1793036 C 49.150521,7.3839728 20.187442,7.0181488 6.1200726,7.6820273 C 5.3990227,7.7160541 4.7702310,9.4557512 4.6450384,9.2730312 z "
     id="path741"
     sodipodi:nodetypes="cssss" />
  <g
     id="g5788"
     transform="matrix(0.513793,5.052820e-3,-5.052820e-3,0.513793,12.55343,15.63752)">
    <path
       style="opacity:0.29999998;fill:#000000;fill-opacity:1.0000000;fill-rule:evenodd;stroke:none;stroke-width:18.750000;stroke-linecap:butt;stroke-linejoin:miter;stroke-opacity:1.0000000"
       d="M 6.9343421,57.521581 C 8.6697699,59.269489 30.340458,42.753724 33.163015,42.585814 C 35.496203,42.585814 55.852471,59.147552 57.388115,57.521581 C 58.948921,55.868962 42.450042,35.015780 42.452338,32.750056 C 42.454776,30.538321 59.141756,9.1884812 57.570255,7.4320985 C 56.045307,5.7277530 35.305967,22.370314 33.163015,22.367873 C 30.792285,22.179666 8.9251706,5.4728096 7.2986293,7.2499548 C 5.6465865,9.0549664 23.321268,30.419816 23.327264,33.114342 C 23.150472,35.518854 5.2704576,55.662281 6.9343421,57.521581 z "
       id="path601"
       sodipodi:nodetypes="cssssssss" />
    <path
       style="font-size:12.000000;fill:url(#linearGradient5794);fill-opacity:1.0000000;fill-rule:evenodd;stroke:#330000;stroke-width:1.8745600"
       d="M 8.6789349,52.921631 C 10.201644,54.455286 29.216052,39.963940 31.692638,39.816608 C 33.739832,39.816610 51.600940,54.348291 52.948352,52.921631 C 54.317837,51.471577 39.841309,33.174476 39.843326,31.186470 C 39.845462,29.245838 54.487041,10.512949 53.108167,8.9718535 C 51.770142,7.4764170 33.572918,22.079021 31.692638,22.076881 C 29.612497,21.911742 10.425738,7.2527237 8.9985705,8.8120369 C 7.5490258,10.395798 23.057238,29.141858 23.062500,31.506106 C 22.907378,33.615884 7.2190010,51.290239 8.6789349,52.921631 z "
       id="path589"
       sodipodi:nodetypes="cssssssss" />
    <path
       style="font-size:12.000000;fill:url(#linearGradient600);fill-rule:evenodd;stroke:none;stroke-width:1.0000000pt"
       d="M 11.425068,50.323641 C 11.667991,49.575931 22.742805,35.368244 26.375023,31.706693 C 27.073600,31.002476 25.959680,36.622014 25.056727,37.705778 C 21.185667,42.351995 11.224771,50.940143 11.425068,50.323641 z "
       id="path596"
       sodipodi:nodetypes="csss" />
    <path
       style="opacity:0.75038201;fill:url(#linearGradient599);fill-opacity:1.0000000;fill-rule:evenodd;stroke:none;stroke-width:1.0000000pt;stroke-linecap:butt;stroke-linejoin:miter;stroke-opacity:1.0000000"
       d="M 19.863314,23.039014 C 18.904982,22.113726 10.930725,11.494995 11.549574,11.207671 C 12.266137,10.874983 24.231025,19.334637 25.148082,20.220071 C 25.614127,20.670048 15.529076,14.447013 15.219429,14.574634 C 15.041851,14.657082 20.288086,23.449137 19.863314,23.039014 z "
       id="path597"
       sodipodi:nodetypes="cssss" />
    <path
       style="fill:url(#linearGradient5795);fill-opacity:1.0000000;fill-rule:evenodd;stroke:none;stroke-width:1.0000000pt;stroke-linecap:butt;stroke-linejoin:miter;stroke-opacity:1.0000000"
       d="M 32.616090,24.462783 C 35.912102,21.298612 49.321330,12.110487 50.071639,12.168203 C 50.706412,12.217033 43.026197,20.214299 38.724604,23.195602 C 37.645678,23.943372 31.916665,25.134229 32.616090,24.462783 z "
       id="path598"
       sodipodi:nodetypes="csss" />
  </g>
</svg>
