<?xml version="1.0" encoding="UTF-8" standalone="no"?>
<!DOCTYPE svg PUBLIC "-//W3C//DTD SVG 20010904//EN"
"http://www.w3.org/TR/2001/REC-SVG-20010904/DTD/svg10.dtd">
<!-- Created with Inkscape (http://www.inkscape.org/) -->
<svg
   id="svg1"
   sodipodi:version="0.32"
   inkscape:version="0.37"
   width="48pt"
   height="48pt"
   sodipodi:docbase="/home/tom"
   sodipodi:docname="whatsnext.svg"
   xmlns="http://www.w3.org/2000/svg"
   xmlns:inkscape="http://www.inkscape.org/namespaces/inkscape"
   xmlns:sodipodi="http://sodipodi.sourceforge.net/DTD/sodipodi-0.dtd"
   xmlns:xlink="http://www.w3.org/1999/xlink">
  <defs
     id="defs3">
    <linearGradient
       id="linearGradient702">
      <stop
         style="stop-color:#dbb73a;stop-opacity:1;"
         offset="0.00000000"
         id="stop703" />
      <stop
         style="stop-color:#ffffe6;stop-opacity:1;"
         offset="1.00000000"
         id="stop704" />
    </linearGradient>
    <linearGradient
       id="linearGradient645">
      <stop
         style="stop-color:#ffffff;stop-opacity:1;"
         offset="0.00000000"
         id="stop646" />
      <stop
         style="stop-color:#d9cce6;stop-opacity:1;"
         offset="1.00000000"
         id="stop647" />
    </linearGradient>
    <linearGradient
       id="linearGradient878">
      <stop
         style="stop-color:#fff300;stop-opacity:1;"
         offset="0.00000000"
         id="stop879" />
      <stop
         style="stop-color:#997f00;stop-opacity:1;"
         offset="1.00000000"
         id="stop880" />
    </linearGradient>
    <linearGradient
       id="linearGradient874">
      <stop
         style="stop-color:#ffffff;stop-opacity:1;"
         offset="0.00000000"
         id="stop875" />
      <stop
         style="stop-color:#4c4c4c;stop-opacity:1;"
         offset="1.00000000"
         id="stop876" />
    </linearGradient>
    <linearGradient
       id="linearGradient584">
      <stop
         style="stop-color:#ffffff;stop-opacity:1;"
         offset="0.00000000"
         id="stop585" />
      <stop
         style="stop-color:#ffffff;stop-opacity:0;"
         offset="1.00000000"
         id="stop586" />
    </linearGradient>
    <linearGradient
       id="linearGradient578">
      <stop
         style="stop-color:#d9cce6;stop-opacity:1;"
         offset="0.00000000"
         id="stop579" />
      <stop
         style="stop-color:#73667f;stop-opacity:1;"
         offset="1.00000000"
         id="stop580" />
    </linearGradient>
    <linearGradient
       xlink:href="#linearGradient874"
       id="linearGradient581"
       x1="-0.00000000"
       y1="0.00000000"
       x2="1.00000000"
       y2="0.00000000" />
    <linearGradient
       xlink:href="#linearGradient584"
       id="linearGradient583"
       x1="-0.00000000"
       y1="0.00000000"
       x2="1.00000000"
       y2="0.00000000" />
    <linearGradient
       xlink:href="#linearGradient584"
       id="linearGradient877"
       x1="-0.00000000"
       y1="0.00000000"
       x2="1.00000000"
       y2="0.00000000" />
    <linearGradient
       xlink:href="#linearGradient702"
       id="linearGradient882"
       x1="0.00000000"
       y1="-0.00000000"
       x2="1.00000000"
       y2="-0.00000000" />
    <linearGradient
       xlink:href="#linearGradient645"
       id="linearGradient884" />
    <linearGradient
       xlink:href="#linearGradient874"
       id="linearGradient644"
       x1="0.16504854"
       y1="0.16197184"
       x2="1.11650491"
       y2="0.59859157" />
    <linearGradient
       xlink:href="#linearGradient584"
       id="linearGradient648"
       x1="0.00000000"
       y1="0.00000000"
       x2="0.96666664"
       y2="0.98437500" />
    <linearGradient
       xlink:href="#linearGradient584"
       id="linearGradient649"
       x1="-0.00000000"
       y1="0.00000000"
       x2="1.00000000"
       y2="0.00000000" />
    <linearGradient
       xlink:href="#linearGradient584"
       id="linearGradient650"
       x1="0.00000000"
       y1="0.00000000"
       x2="1.00000000"
       y2="1.02343750" />
  </defs>
  <sodipodi:namedview
     id="base"
     pagecolor="#ffffff"
     bordercolor="#666666"
     borderopacity="1.0"
     inkscape:pageopacity="0.0"
     inkscape:pageshadow="2"
     inkscape:zoom="2"
     inkscape:cx="18.4043732"
     inkscape:cy="26.3047791"
     inkscape:window-width="1018"
     inkscape:window-height="711"
     inkscape:window-x="0"
     inkscape:window-y="30" />
  <path
     d="M 7.2081722 48.167484 C 10.011414 49.315507 50.839668 49.399571 53.483411 48.785163 C 55.45324 47.704646 54.795554 13.294821 53.808656 12.019318 C 52.78281 10.613077 11.023166 11.46166 9.4090566 12.423489 C 7.4208206 13.615197 6.358109 46.351023 7.2081722 48.167484 z "
     style="font-size:12;opacity:0.302675;fill-rule:evenodd;stroke-width:12.5;"
     id="path639"
     sodipodi:nodetypes="ccccc" />
  <path
     d="M 7.092767 45.698612 C 9.7212683 46.549059 47.94417 47.400659 51.061201 46.302902 C 52.459154 45.057982 51.873599 12.1454 50.523576 11.169277 C 48.86999 10.50685 9.0607238 10.656087 7.0563915 11.320513 C 5.6815245 12.666083 5.673271 44.225792 7.092767 45.698612 z "
     style="font-size:12;fill:url(#linearGradient884);fill-rule:evenodd;stroke:#261933;stroke-width:1.49762;"
     id="path634"
     sodipodi:nodetypes="ccccc" />
  <path
     style="font-size:12;fill:none;fill-opacity:1.00;fill-rule:evenodd;stroke:#261933;stroke-width:0.954774pt;stroke-linecap:round;"
     d="M 8.2806643 23.20411 L 48.93406 22.963051 "
     id="path637" />
  <path
     style="font-size:12;fill:none;fill-opacity:1.00;fill-rule:evenodd;stroke:#261933;stroke-width:0.951872pt;stroke-linecap:round;"
     d="M 49.585485 34.533889 L 8.1960105 34.895478 "
     id="path638" />
  <path
     style="font-size:12;fill:none;fill-opacity:1.00;fill-rule:evenodd;stroke:#261933;stroke-width:0.754905pt;stroke-linecap:round;"
     d="M 15.598765 12.879668 L 16.321943 43.995161 L 16.321943 43.926473 "
     id="path642" />
  <path
     style="font-size:12;fill:none;fill-opacity:1.00;fill-rule:evenodd;stroke:#261933;stroke-width:0.748675pt;stroke-linecap:round;"
     d="M 27.420753 12.994543 L 28.384989 44.071504 "
     id="path643" />
  <path
     style="font-size:12;fill:none;fill-opacity:1.00;fill-rule:evenodd;stroke:#261933;stroke-width:0.588778pt;stroke-linecap:round;"
     d="M 37.821893 37.431662 L 37.158329 12.728128 "
     id="path644" />
  <path
     style="font-size:12;fill:url(#linearGradient882);fill-rule:evenodd;stroke:#3f3f00;stroke-width:1.09648;"
     d="M 36.548379 35.326366 C 36.90285 35.786582 43.244236 35.788823 43.567938 35.326366 C 43.860792 34.990559 43.624994 31.577474 43.65052 30.784298 C 43.700756 29.140949 49.150383 27.949949 49.26617 21.534997 C 49.337072 17.52414 45.547666 13.325038 40.182032 13.359273 C 33.958411 13.399511 30.793176 17.855238 30.850149 21.452413 C 30.804024 27.931069 36.546057 28.915795 36.548379 30.784298 C 36.510441 31.667502 36.153179 34.910222 36.548379 35.326366 z "
     id="path574"
     sodipodi:nodetypes="csssssss" />
  <path
     style="fill:#000000;fill-rule:evenodd;stroke:none;stroke-opacity:1;stroke-width:1pt;stroke-linejoin:miter;stroke-linecap:butt;fill-opacity:1;"
     d="M 39.035891 33.394467 C 38.794052 32.040171 39.095255 30.450172 38.705558 29.100149 C 38.32448 27.779987 36.487333 26.460076 36.723565 25.383911 C 36.982831 24.202806 39.02436 22.417024 40.192055 22.328339 C 41.199046 22.251858 42.936631 23.82021 43.247626 24.888414 C 43.569767 25.994898 42.318473 27.502946 42.091464 28.852398 C 41.822975 30.448409 42.071469 32.340214 41.76113 33.7248 C 41.713609 33.936821 41.036712 33.860627 41.017883 33.642216 C 40.899074 32.264021 41.122299 30.486274 41.348215 28.934982 C 41.535215 27.650923 42.494765 26.231592 42.256628 25.136162 C 42.081852 24.332183 40.826348 23.163848 40.10947 23.236752 C 39.202212 23.329015 37.505533 24.715132 37.384229 25.63166 C 37.257785 26.587017 39.053563 27.673919 39.366222 28.852398 C 39.769284 30.371632 39.629512 32.375586 39.531388 33.7248 C 39.519402 33.889609 39.069328 33.58172 39.035891 33.394467 z "
     id="path584"
     sodipodi:nodetypes="cssssssssssssss" />
  <path
     style="font-size:12;fill:url(#linearGradient581);fill-rule:evenodd;stroke:#3f3f3f;stroke-width:1.09648;"
     d="M 35.970297 32.18821 C 36.407955 31.581337 43.528687 31.643741 44.063437 32.270793 C 44.528796 32.888343 44.688969 40.794254 44.228603 41.354928 C 43.805336 41.792012 36.303274 41.885005 35.887715 41.354927 C 35.41282 40.849586 35.611637 32.717794 35.970297 32.18821 z "
     id="path575"
     sodipodi:nodetypes="cssss" />
  <path
     style="fill:#000000;fill-rule:evenodd;stroke:none;stroke-opacity:1;stroke-width:1pt;stroke-linejoin:miter;stroke-linecap:butt;fill-opacity:1;opacity:0.302675;"
     d="M 36.878712 33.344371 C 37.088179 33.149867 41.905015 33.117386 43.320189 33.426955 C 43.666786 33.502774 42.648808 34.506751 42.164026 34.500535 C 40.501648 34.479224 36.702789 33.507726 36.878712 33.344371 z "
     id="path585"
     sodipodi:nodetypes="csss" />
  <path
     style="fill:#000000;fill-rule:evenodd;stroke:none;stroke-opacity:1;stroke-width:1pt;stroke-linejoin:miter;stroke-linecap:butt;fill-opacity:1;opacity:0.296369;"
     d="M 36.878712 35.326366 C 37.088179 35.13186 41.905015 35.099379 43.320189 35.40895 C 43.666786 35.484767 42.648808 36.488745 42.164026 36.482529 C 40.501648 36.461216 36.702789 35.489719 36.878712 35.326366 z "
     id="path588"
     sodipodi:nodetypes="csss" />
  <path
     style="fill:#000000;fill-rule:evenodd;stroke:none;stroke-opacity:1;stroke-width:1pt;stroke-linejoin:miter;stroke-linecap:butt;fill-opacity:1;opacity:0.296369;"
     d="M 36.796129 37.390941 C 37.005597 37.196436 41.822432 37.163954 43.237606 37.473524 C 43.584203 37.549341 42.566226 38.553319 42.081444 38.547103 C 40.419065 38.525791 36.620209 37.554295 36.796129 37.390941 z "
     id="path589"
     sodipodi:nodetypes="csss" />
  <path
     style="fill:#000000;fill-rule:evenodd;stroke:none;stroke-opacity:1;stroke-width:1pt;stroke-linejoin:miter;stroke-linecap:butt;fill-opacity:1;opacity:0.300000;"
     d="M 36.878712 39.455518 C 37.088179 39.261012 41.905015 39.228531 43.320189 39.5381 C 43.666786 39.613919 42.648808 40.617898 42.164026 40.611681 C 40.501648 40.590368 36.702789 39.618872 36.878712 39.455518 z "
     id="path590"
     sodipodi:nodetypes="csss" />
  <path
     style="fill:url(#linearGradient583);fill-rule:evenodd;stroke:none;stroke-opacity:1;stroke-width:1pt;stroke-linejoin:miter;stroke-linecap:butt;fill-opacity:1;opacity:0.699936;"
     d="M 33.238354 25.891684 C 32.985463 25.575571 30.973311 20.099425 34.406255 16.89885 C 38.022613 13.519372 44.438339 15.424149 44.683781 15.73095 C 44.905501 16.008099 40.572375 14.152316 35.807734 18.650702 C 31.937877 22.216896 33.452623 26.159522 33.238354 25.891684 z "
     id="path613"
     sodipodi:nodetypes="cssss" />
  <path
     style="fill:url(#linearGradient877);fill-rule:evenodd;stroke:none;stroke-opacity:1;stroke-width:1pt;stroke-linejoin:miter;stroke-linecap:butt;fill-opacity:1;"
     d="M 43.515879 28.344278 C 43.633804 28.422895 46.120594 27.45567 47.150541 24.957366 C 48.181732 22.268026 47.373889 19.315135 47.253162 19.234652 C 47.140308 19.159417 47.492333 20.904674 46.202053 24.490207 C 45.076101 27.930487 43.400222 28.267174 43.515879 28.344278 z "
     id="path618"
     sodipodi:nodetypes="cssss" />
  <path
     style="fill:#000000;fill-rule:evenodd;stroke:none;stroke-opacity:1;stroke-width:1pt;stroke-linejoin:miter;stroke-linecap:butt;fill-opacity:1;opacity:0.296369;"
     d="M 35.340574 43.760568 C 35.400153 43.462683 38.540992 43.234594 40.128967 43.293408 C 41.694324 43.351384 44.856798 43.829798 44.800571 44.110938 C 44.740009 44.413748 41.43434 45.106581 39.778599 45.045259 C 38.28101 44.989792 35.283362 44.046633 35.340574 43.760568 z "
     id="path629"
     sodipodi:nodetypes="cssss" />
  <path
     style="font-size:12;opacity:0.145032;fill-rule:evenodd;stroke:none;stroke-width:0.129441pt;"
     d="M 30.902552 44.110938 C 30.962038 44.785114 36.978848 46.115689 40.012178 46.09637 C 43.090861 46.076761 49.296092 44.645818 49.238595 43.994147 C 49.179302 43.322197 42.844357 42.105236 39.661807 42.125506 C 36.732345 42.144165 30.845248 43.461493 30.902552 44.110938 z "
     id="path630"
     sodipodi:nodetypes="cssss" />
</svg>
