<?xml version="1.0" encoding="UTF-8" standalone="no"?>
<!DOCTYPE svg PUBLIC "-//W3C//DTD SVG 20010904//EN"
"http://www.w3.org/TR/2001/REC-SVG-20010904/DTD/svg10.dtd">
<!-- Created with Inkscape (http://www.inkscape.org/) -->
<svg
   id="svg1"
   sodipodi:version="0.32"
   inkscape:version="0.37"
   width="48pt"
   height="48pt"
   sodipodi:docbase="/home/tom"
   sodipodi:docname="window_nofullscreen.svg"
   xmlns="http://www.w3.org/2000/svg"
   xmlns:inkscape="http://www.inkscape.org/namespaces/inkscape"
   xmlns:sodipodi="http://sodipodi.sourceforge.net/DTD/sodipodi-0.dtd"
   xmlns:xlink="http://www.w3.org/1999/xlink">
  <defs
     id="defs3">
    <linearGradient
       id="linearGradient584">
      <stop
         style="stop-color:#ffffff;stop-opacity:1;"
         offset="0.00000000"
         id="stop585" />
      <stop
         style="stop-color:#ffffff;stop-opacity:0;"
         offset="1.00000000"
         id="stop586" />
    </linearGradient>
    <linearGradient
       id="linearGradient578">
      <stop
         style="stop-color:#d9cce6;stop-opacity:1;"
         offset="0.00000000"
         id="stop579" />
      <stop
         style="stop-color:#73667f;stop-opacity:1;"
         offset="1.00000000"
         id="stop580" />
    </linearGradient>
    <linearGradient
       xlink:href="#linearGradient584"
       id="linearGradient581"
       x1="0.21710527"
       y1="0.61718750"
       x2="1.48684216"
       y2="0.11718750" />
    <linearGradient
       xlink:href="#linearGradient584"
       id="linearGradient583"
       x1="-0.00000000"
       y1="-0.00000000"
       x2="1.00000000"
       y2="-0.00000000" />
    <linearGradient
       xlink:href="#linearGradient578"
       id="linearGradient654"
       x1="0.00000000"
       y1="-0.00000000"
       x2="1.00000000"
       y2="-0.00000000" />
    <linearGradient
       xlink:href="#linearGradient584"
       id="linearGradient655"
       x1="0.00000000"
       y1="-0.00000000"
       x2="0.96551722"
       y2="0.98437500" />
    <linearGradient
       xlink:href="#linearGradient584"
       id="linearGradient653"
       x1="0.00000000"
       y1="-0.00000000"
       x2="0.97945207"
       y2="0.97656250" />
  </defs>
  <sodipodi:namedview
     id="base"
     pagecolor="#ffffff"
     bordercolor="#666666"
     borderopacity="1.0"
     inkscape:pageopacity="0.0"
     inkscape:pageshadow="2"
     inkscape:zoom="7.97947198"
     inkscape:cx="26.5150898"
     inkscape:cy="23.9848125"
     inkscape:window-width="640"
     inkscape:window-height="516"
     inkscape:window-x="59"
     inkscape:window-y="258" />
  <path
     style="font-size:12;opacity:0.302675;fill-rule:evenodd;stroke-width:1.25;"
     d="M 5.8979326 48.796903 C 4.486431 47.228577 4.654683 8.9945073 6.8082728 7.3212026 C 8.4235601 6.061533 52.976202 6.2650952 54.382328 8.0564251 C 55.996576 10.265658 56.791997 51.672448 54.916337 52.996329 C 53.113941 54.371582 7.4815235 50.67568 5.8979326 48.796903 z "
     id="path737"
     sodipodi:nodetypes="cssss" />
  <path
     style="font-size:12;fill:url(#linearGradient581);fill-rule:evenodd;stroke:#000000;stroke-width:2.75819;"
     d="M 4.988422 44.725518 C 3.6505847 43.239039 3.8100552 7.0002724 5.8512563 5.4142907 C 7.3822458 4.2203588 49.609841 4.4132971 50.942586 6.1111459 C 52.472591 8.2050851 53.226502 47.450998 51.448724 48.705789 C 49.74039 50.009275 6.4893727 46.506248 4.988422 44.725518 z "
     id="path738"
     sodipodi:nodetypes="cssss" />
  <path
     style="fill:#261933;fill-rule:evenodd;stroke:none;stroke-opacity:1;stroke-width:1pt;stroke-linejoin:miter;stroke-linecap:butt;fill-opacity:1;"
     d="M 43.856186 29.957837 C 43.392521 30.386014 35.777308 30.507696 34.746094 29.223385 C 33.680542 27.896311 33.865253 18.129788 34.312279 17.716976 C 34.660578 17.395336 36.328526 24.252333 37.438824 25.635135 C 38.425293 26.863716 44.187846 29.651563 43.856186 29.957837 z "
     id="path761"
     sodipodi:nodetypes="cssss" />
  <path
     style="fill:#261933;fill-rule:evenodd;stroke:none;stroke-opacity:1;stroke-width:1pt;stroke-linejoin:miter;stroke-linecap:butt;fill-opacity:1;"
     d="M 43.639279 33.111541 C 43.175613 32.683365 35.560402 32.561683 34.529186 33.845993 C 33.463635 35.173067 33.648347 44.939592 34.095372 45.352403 C 34.443671 45.674043 36.111618 38.29771 37.221916 36.914907 C 38.208385 35.686326 43.97094 33.417816 43.639279 33.111541 z "
     id="path762"
     sodipodi:nodetypes="cssss" />
  <path
     style="font-size:12;fill:url(#linearGradient654);fill-rule:evenodd;stroke:#000000;stroke-width:2.75819;"
     d="M 5.2349631 11.624694 C 4.4580734 11.358607 5.3377908 5.9763145 5.8512563 5.4142907 C 7.0703595 3.8644165 49.359174 4.6837929 50.942586 6.1111459 C 51.659534 6.8175893 51.970463 11.996496 51.082607 12.822863 C 49.722977 14.529667 7.1908455 12.736546 5.2349631 11.624694 z "
     id="path739"
     sodipodi:nodetypes="cssss" />
  <path
     style="font-size:12;fill-rule:evenodd;stroke-width:1pt;"
     d="M 44.411896 7.6213568 C 44.104496 7.9859262 45.503833 9.3045443 45.561732 9.5835722 C 45.617381 9.8352508 44.162337 10.958395 44.474345 11.26296 C 44.747882 11.589286 46.171565 10.084705 46.432109 10.132615 C 46.624919 10.155784 47.643164 11.681909 47.966549 11.417573 C 48.273968 11.12901 47.129874 9.6718807 47.08589 9.3937631 C 47.089068 9.1385427 48.73471 8.1286856 48.486132 7.8017399 C 48.160696 7.4647079 46.496416 8.8928796 46.194561 8.8029603 C 45.934692 8.7004894 44.723188 7.2977154 44.411896 7.6213568 z "
     id="path740"
     sodipodi:nodetypes="cssssssss" />
  <path
     style="font-size:12;fill:url(#linearGradient583);fill-rule:evenodd;stroke-width:1pt;"
     d="M 6.8676538 9.3774289 C 6.7277206 9.173198 6.6403535 6.9028632 7.4237985 6.8658894 C 19.767438 6.2833566 46.122327 7.3341623 46.248909 7.5189107 C 46.373388 7.7005874 20.664023 7.3758601 8.1769827 7.9651585 C 7.5369356 7.9953627 6.9787823 9.5396221 6.8676538 9.3774289 z "
     id="path741"
     sodipodi:nodetypes="cssss" />
  <path
     style="fill:#261933;fill-rule:evenodd;stroke:none;stroke-opacity:1;stroke-width:1pt;stroke-linejoin:miter;stroke-linecap:butt;fill-opacity:1;"
     d="M 10.995643 29.330484 C 11.459308 29.758661 19.074519 29.880343 20.105735 28.596032 C 21.171287 27.268958 20.986576 17.502435 20.539549 17.089623 C 20.191251 16.767983 18.676679 24.144316 17.566382 25.527118 C 16.579912 26.755699 10.663982 29.02421 10.995643 29.330484 z "
     id="path759"
     sodipodi:nodetypes="cssss" />
  <path
     style="fill:#261933;fill-rule:evenodd;stroke:none;stroke-opacity:1;stroke-width:1pt;stroke-linejoin:miter;stroke-linecap:butt;fill-opacity:1;"
     d="M 10.996727 31.858552 C 11.460392 31.430376 19.075603 31.308694 20.106819 32.593004 C 21.172371 33.920078 20.98766 43.686603 20.540633 44.099414 C 20.192335 44.421054 18.217633 36.87161 17.107336 35.488808 C 16.120867 34.260227 10.665066 32.164827 10.996727 31.858552 z "
     id="path760"
     sodipodi:nodetypes="cssss" />
</svg>
