<?xml version="1.0" encoding="UTF-8" standalone="no"?>
<!-- Created with Inkscape (http://www.inkscape.org/) -->
<svg
   xmlns:dc="http://purl.org/dc/elements/1.1/"
   xmlns:cc="http://web.resource.org/cc/"
   xmlns:rdf="http://www.w3.org/1999/02/22-rdf-syntax-ns#"
   xmlns:svg="http://www.w3.org/2000/svg"
   xmlns="http://www.w3.org/2000/svg"
   xmlns:xlink="http://www.w3.org/1999/xlink"
   xmlns:sodipodi="http://inkscape.sourceforge.net/DTD/sodipodi-0.dtd"
   xmlns:inkscape="http://www.inkscape.org/namespaces/inkscape"
   id="svg1"
   sodipodi:version="0.32"
   inkscape:version="0.42"
   width="48pt"
   height="48pt"
   sodipodi:docbase="/home/jakob/dev/lila/lila-theme/trunk/lila/kde/scalable/actions"
   sodipodi:docname="window_new.svg">
  <metadata
     id="metadata21">
    <rdf:RDF>
      <cc:Work
         rdf:about="">
        <dc:format>image/svg+xml</dc:format>
        <dc:type
           rdf:resource="http://purl.org/dc/dcmitype/StillImage" />
      </cc:Work>
    </rdf:RDF>
  </metadata>
  <defs
     id="defs3">
    <linearGradient
       id="linearGradient2047">
      <stop
         style="stop-color:#ffff33;stop-opacity:1.0000000;"
         offset="0.0000000"
         id="stop2049" />
      <stop
         style="stop-color:#ffc000;stop-opacity:1.0000000;"
         offset="1.0000000"
         id="stop2051" />
    </linearGradient>
    <linearGradient
       id="linearGradient584">
      <stop
         style="stop-color:#ffffff;stop-opacity:1;"
         offset="0.00000000"
         id="stop585" />
      <stop
         style="stop-color:#ffffff;stop-opacity:0;"
         offset="1.00000000"
         id="stop586" />
    </linearGradient>
    <linearGradient
       id="linearGradient578">
      <stop
         style="stop-color:#d9cce6;stop-opacity:1;"
         offset="0.00000000"
         id="stop579" />
      <stop
         style="stop-color:#73667f;stop-opacity:1;"
         offset="1.00000000"
         id="stop580" />
    </linearGradient>
    <linearGradient
       xlink:href="#linearGradient584"
       id="linearGradient581"
       x1="13.286358"
       y1="33.691866"
       x2="75.584498"
       y2="9.1599572"
       gradientTransform="matrix(1.159909,0.000000,0.000000,1.068715,-3.055601,-1.813052)"
       gradientUnits="userSpaceOnUse" />
    <linearGradient
       xlink:href="#linearGradient584"
       id="linearGradient583"
       x1="1.7711050"
       y1="25.598537"
       x2="12.090213"
       y2="25.598537"
       gradientTransform="matrix(4.259069,0.000000,0.000000,0.291053,-3.055601,-1.813052)"
       gradientUnits="userSpaceOnUse" />
    <linearGradient
       xlink:href="#linearGradient578"
       id="linearGradient654"
       x1="1.7265159"
       y1="6.5728728"
       x2="25.789774"
       y2="6.5728728"
       gradientTransform="matrix(2.288301,0.000000,0.000000,0.541718,-3.055601,-1.813052)"
       gradientUnits="userSpaceOnUse" />
    <linearGradient
       xlink:href="#linearGradient584"
       id="linearGradient655"
       x1="0.00000000"
       y1="-0.00000000"
       x2="0.96551722"
       y2="0.98437500" />
    <linearGradient
       xlink:href="#linearGradient584"
       id="linearGradient653"
       x1="0.00000000"
       y1="-0.00000000"
       x2="0.97945207"
       y2="0.97656250" />
    <linearGradient
       inkscape:collect="always"
       xlink:href="#linearGradient2047"
       id="linearGradient2053"
       x1="32.487360"
       y1="42.920267"
       x2="60.000000"
       y2="42.920267"
       gradientUnits="userSpaceOnUse" />
  </defs>
  <sodipodi:namedview
     id="base"
     pagecolor="#ffffff"
     bordercolor="#666666"
     borderopacity="1.0"
     inkscape:pageopacity="0.0"
     inkscape:pageshadow="2"
     inkscape:zoom="7.9794720"
     inkscape:cx="26.515090"
     inkscape:cy="23.984809"
     inkscape:window-width="1400"
     inkscape:window-height="997"
     inkscape:window-x="0"
     inkscape:window-y="0"
     inkscape:current-layer="svg1" />
  <path
     style="font-size:12.000000;opacity:0.30267498;fill-rule:evenodd;stroke-width:1.2500000"
     d="M 3.5110316,52.516386 C 1.9394957,50.770245 2.1268239,8.2012422 4.5245851,6.3382202 C 6.3230118,4.9357307 55.926980,5.1623725 57.492531,7.1568014 C 59.289800,9.6165145 60.175405,55.717957 58.087085,57.191938 C 56.080336,58.723116 5.2741682,54.608177 3.5110316,52.516386 z "
     id="path737"
     sodipodi:nodetypes="cssss" />
  <path
     style="font-size:12.000000;fill:url(#linearGradient581);fill-rule:evenodd;stroke:#261933;stroke-width:3.0709102;stroke-opacity:1.0000000"
     d="M 2.4984018,47.983393 C 1.0088821,46.328378 1.1864332,5.9809033 3.4590632,4.2151048 C 5.1636345,2.8858064 52.178945,3.1006198 53.662795,4.9909687 C 55.366270,7.3223162 56.205659,51.017884 54.226318,52.414942 C 52.324295,53.866216 4.1695285,49.966020 2.4984018,47.983393 z "
     id="path738"
     sodipodi:nodetypes="cssss" />
  <path
     style="font-size:12.000000;fill:url(#linearGradient654);fill-rule:evenodd;stroke:#261933;stroke-width:3.0709102;stroke-opacity:1.0000000"
     d="M 2.7728954,11.129636 C 1.9079229,10.833381 2.8873816,4.8408502 3.4590632,4.2151048 C 4.8163869,2.4895078 51.899858,3.4017841 53.662795,4.9909687 C 54.461030,5.7775078 54.807211,11.543593 53.818691,12.463652 C 52.304908,14.363972 4.9505335,12.367549 2.7728954,11.129636 z "
     id="path739"
     sodipodi:nodetypes="cssss" />
  <path
     style="font-size:12.000000;fill-rule:evenodd;stroke-width:1.0000000pt"
     d="M 46.391663,6.6724055 C 46.049410,7.0783094 47.607403,8.5464308 47.671866,8.8570946 C 47.733824,9.1373082 46.113809,10.387793 46.461192,10.726889 C 46.765743,11.090214 48.350841,9.4150452 48.640925,9.4683872 C 48.855596,9.4941831 49.989288,11.193338 50.349338,10.899032 C 50.691612,10.577752 49.417802,8.9554154 49.368831,8.6457652 C 49.372370,8.3616082 51.204593,7.2372547 50.927831,6.8732402 C 50.565498,6.4979960 48.712523,8.0880921 48.376444,7.9879778 C 48.087112,7.8738889 46.738249,6.3120700 46.391663,6.6724055 z "
     id="path740"
     sodipodi:nodetypes="cssssssss" />
  <path
     style="font-size:12.000000;fill:url(#linearGradient583);fill-rule:evenodd;stroke-width:1.0000000pt"
     d="M 4.5906987,8.6275790 C 4.4349000,8.4001926 4.3376274,5.8724500 5.2098984,5.8312841 C 18.953045,5.1827044 48.296021,6.3526492 48.436954,6.5583442 C 48.575547,6.7606192 19.951284,6.3990747 6.0484778,7.0551871 C 5.3358629,7.0888158 4.7144268,8.8081615 4.5906987,8.6275790 z "
     id="path741"
     sodipodi:nodetypes="cssss" />
  <path
     style="font-size:12.000000;fill:url(#linearGradient2053);fill-opacity:1.0;fill-rule:evenodd;stroke:#333300;stroke-width:1.1732898;stroke-opacity:1.0000000"
     d="M 59.413355,42.920270 C 59.413355,50.045510 53.513342,55.828320 46.243680,55.828320 C 38.974019,55.828320 33.074005,50.045510 33.074005,42.920270 C 33.074005,35.795023 38.974019,30.012214 46.243680,30.012214 C 53.513342,30.012214 59.413355,35.795023 59.413355,42.920270 z "
     id="path1189" />
</svg>
