<?xml version="1.0" encoding="UTF-8" standalone="no"?>
<!DOCTYPE svg PUBLIC "-//W3C//DTD SVG 20010904//EN"
"http://www.w3.org/TR/2001/REC-SVG-20010904/DTD/svg10.dtd">
<!-- Created with Inkscape (http://www.inkscape.org/) -->
<svg
   id="svg1"
   sodipodi:version="0.32"
   inkscape:version="0.37"
   width="48pt"
   height="48pt"
   sodipodi:docbase="/home/tom"
   sodipodi:docname="window_fullscreen.svg"
   xmlns="http://www.w3.org/2000/svg"
   xmlns:inkscape="http://www.inkscape.org/namespaces/inkscape"
   xmlns:sodipodi="http://sodipodi.sourceforge.net/DTD/sodipodi-0.dtd"
   xmlns:xlink="http://www.w3.org/1999/xlink">
  <defs
     id="defs3">
    <linearGradient
       id="linearGradient584">
      <stop
         style="stop-color:#ffffff;stop-opacity:1;"
         offset="0.00000000"
         id="stop585" />
      <stop
         style="stop-color:#ffffff;stop-opacity:0;"
         offset="1.00000000"
         id="stop586" />
    </linearGradient>
    <linearGradient
       id="linearGradient578">
      <stop
         style="stop-color:#d9cce6;stop-opacity:1;"
         offset="0.00000000"
         id="stop579" />
      <stop
         style="stop-color:#73667f;stop-opacity:1;"
         offset="1.00000000"
         id="stop580" />
    </linearGradient>
    <linearGradient
       xlink:href="#linearGradient584"
       id="linearGradient581"
       x1="0.21710527"
       y1="0.61718750"
       x2="1.48684216"
       y2="0.11718750" />
    <linearGradient
       xlink:href="#linearGradient584"
       id="linearGradient583"
       x1="-0.00000000"
       y1="-0.00000000"
       x2="1.00000000"
       y2="-0.00000000" />
    <linearGradient
       xlink:href="#linearGradient578"
       id="linearGradient654"
       x1="0.00000000"
       y1="-0.00000000"
       x2="1.00000000"
       y2="-0.00000000" />
    <linearGradient
       xlink:href="#linearGradient584"
       id="linearGradient655"
       x1="0.00000000"
       y1="-0.00000000"
       x2="0.96551722"
       y2="0.98437500" />
    <linearGradient
       xlink:href="#linearGradient584"
       id="linearGradient653"
       x1="0.00000000"
       y1="-0.00000000"
       x2="0.97945207"
       y2="0.97656250" />
  </defs>
  <sodipodi:namedview
     id="base"
     pagecolor="#ffffff"
     bordercolor="#666666"
     borderopacity="1.0"
     inkscape:pageopacity="0.0"
     inkscape:pageshadow="2"
     inkscape:zoom="7.97947198"
     inkscape:cx="26.5150898"
     inkscape:cy="23.9848125"
     inkscape:window-width="640"
     inkscape:window-height="516"
     inkscape:window-x="59"
     inkscape:window-y="258" />
  <path
     style="font-size:12;opacity:0.302675;fill-rule:evenodd;stroke-width:1.25;"
     d="M 5.8979326 48.796903 C 4.486431 47.228577 4.654683 8.9945073 6.8082728 7.3212026 C 8.4235601 6.061533 52.976202 6.2650952 54.382328 8.0564251 C 55.996576 10.265658 56.791997 51.672448 54.916337 52.996329 C 53.113941 54.371582 7.4815235 50.67568 5.8979326 48.796903 z "
     id="path737"
     sodipodi:nodetypes="cssss" />
  <path
     style="font-size:12;fill:url(#linearGradient581);fill-rule:evenodd;stroke:#000000;stroke-width:2.75819;"
     d="M 4.988422 44.725518 C 3.6505847 43.239039 3.8100552 7.0002724 5.8512563 5.4142907 C 7.3822458 4.2203588 49.609841 4.4132971 50.942586 6.1111459 C 52.472591 8.2050851 53.226502 47.450998 51.448724 48.705789 C 49.74039 50.009275 6.4893727 46.506248 4.988422 44.725518 z "
     id="path738"
     sodipodi:nodetypes="cssss" />
  <path
     style="fill:#261933;fill-rule:evenodd;stroke:none;stroke-opacity:1;stroke-width:1pt;stroke-linejoin:miter;stroke-linecap:butt;fill-opacity:1;"
     d="M 33.971818 18.002399 C 34.435483 17.574222 42.050696 17.45254 43.08191 18.736851 C 44.147462 20.063925 43.962751 29.830448 43.515725 30.24326 C 43.167426 30.5649 41.499478 23.707903 40.38918 22.325101 C 39.402711 21.09652 33.640158 18.308673 33.971818 18.002399 z "
     id="path761"
     sodipodi:nodetypes="cssss" />
  <path
     style="fill:#261933;fill-rule:evenodd;stroke:none;stroke-opacity:1;stroke-width:1pt;stroke-linejoin:miter;stroke-linecap:butt;fill-opacity:1;"
     d="M 33.754911 45.066234 C 34.218577 45.49441 41.833788 45.616092 42.865004 44.331782 C 43.930555 43.004708 43.745843 33.238183 43.298818 32.825372 C 42.950519 32.503732 41.282572 39.880065 40.172274 41.262868 C 39.185805 42.491449 33.42325 44.759959 33.754911 45.066234 z "
     id="path762"
     sodipodi:nodetypes="cssss" />
  <path
     style="font-size:12;fill:url(#linearGradient654);fill-rule:evenodd;stroke:#000000;stroke-width:2.75819;"
     d="M 5.2349631 11.624694 C 4.4580734 11.358607 5.3377908 5.9763145 5.8512563 5.4142907 C 7.0703595 3.8644165 49.359174 4.6837929 50.942586 6.1111459 C 51.659534 6.8175893 51.970463 11.996496 51.082607 12.822863 C 49.722977 14.529667 7.1908455 12.736546 5.2349631 11.624694 z "
     id="path739"
     sodipodi:nodetypes="cssss" />
  <path
     style="font-size:12;fill-rule:evenodd;stroke-width:1pt;"
     d="M 44.411896 7.6213568 C 44.104496 7.9859262 45.503833 9.3045443 45.561732 9.5835722 C 45.617381 9.8352508 44.162337 10.958395 44.474345 11.26296 C 44.747882 11.589286 46.171565 10.084705 46.432109 10.132615 C 46.624919 10.155784 47.643164 11.681909 47.966549 11.417573 C 48.273968 11.12901 47.129874 9.6718807 47.08589 9.3937631 C 47.089068 9.1385427 48.73471 8.1286856 48.486132 7.8017399 C 48.160696 7.4647079 46.496416 8.8928796 46.194561 8.8029603 C 45.934692 8.7004894 44.723188 7.2977154 44.411896 7.6213568 z "
     id="path740"
     sodipodi:nodetypes="cssssssss" />
  <path
     style="font-size:12;fill:url(#linearGradient583);fill-rule:evenodd;stroke-width:1pt;"
     d="M 6.8676538 9.3774289 C 6.7277206 9.173198 6.6403535 6.9028632 7.4237985 6.8658894 C 19.767438 6.2833566 46.122327 7.3341623 46.248909 7.5189107 C 46.373388 7.7005874 20.664023 7.3758601 8.1769827 7.9651585 C 7.5369356 7.9953627 6.9787823 9.5396221 6.8676538 9.3774289 z "
     id="path741"
     sodipodi:nodetypes="cssss" />
  <path
     style="fill:#261933;fill-rule:evenodd;stroke:none;stroke-opacity:1;stroke-width:1pt;stroke-linejoin:miter;stroke-linecap:butt;fill-opacity:1;"
     d="M 20.880355 17.375792 C 20.41669 16.947615 12.801479 16.825933 11.770263 18.110244 C 10.704711 19.437318 10.889422 29.203841 11.336449 29.616653 C 11.684747 29.938293 13.199319 22.56196 14.309616 21.179158 C 15.296086 19.950577 21.212016 17.682066 20.880355 17.375792 z "
     id="path759"
     sodipodi:nodetypes="cssss" />
  <path
     style="fill:#261933;fill-rule:evenodd;stroke:none;stroke-opacity:1;stroke-width:1pt;stroke-linejoin:miter;stroke-linecap:butt;fill-opacity:1;"
     d="M 20.880355 43.813019 C 20.41669 44.241195 12.801479 44.362877 11.770263 43.078567 C 10.704711 41.751493 10.889422 31.984968 11.336449 31.572157 C 11.684747 31.250517 13.659449 38.799961 14.769746 40.182763 C 15.756215 41.411344 21.212016 43.506744 20.880355 43.813019 z "
     id="path760"
     sodipodi:nodetypes="cssss" />
</svg>
