<?xml version="1.0" encoding="UTF-8" standalone="no"?>
<!-- Created with Inkscape (http://www.inkscape.org/) -->
<svg
   xmlns:dc="http://purl.org/dc/elements/1.1/"
   xmlns:cc="http://web.resource.org/cc/"
   xmlns:rdf="http://www.w3.org/1999/02/22-rdf-syntax-ns#"
   xmlns:svg="http://www.w3.org/2000/svg"
   xmlns="http://www.w3.org/2000/svg"
   xmlns:xlink="http://www.w3.org/1999/xlink"
   xmlns:sodipodi="http://inkscape.sourceforge.net/DTD/sodipodi-0.dtd"
   xmlns:inkscape="http://www.inkscape.org/namespaces/inkscape"
   id="svg1"
   sodipodi:version="0.32"
   inkscape:version="0.42"
   width="48pt"
   height="48pt"
   sodipodi:docbase="/home/jakob/dev/lila/lila-theme/trunk/lila/kde/scalable/apps"
   sodipodi:docname="kcharselect.svg">
  <metadata
     id="metadata25">
    <rdf:RDF>
      <cc:Work
         rdf:about="">
        <dc:format>image/svg+xml</dc:format>
        <dc:type
           rdf:resource="http://purl.org/dc/dcmitype/StillImage" />
      </cc:Work>
    </rdf:RDF>
  </metadata>
  <defs
     id="defs3">
    <linearGradient
       id="linearGradient866">
      <stop
         style="stop-color:#d9cce6;stop-opacity:1;"
         offset="0.00000000"
         id="stop867" />
      <stop
         style="stop-color:#73667f;stop-opacity:1;"
         offset="1.00000000"
         id="stop868" />
    </linearGradient>
    <linearGradient
       id="linearGradient584">
      <stop
         style="stop-color:#ffffff;stop-opacity:1;"
         offset="0.00000000"
         id="stop585" />
      <stop
         style="stop-color:#ffffff;stop-opacity:0;"
         offset="1.00000000"
         id="stop586" />
    </linearGradient>
    <linearGradient
       xlink:href="#linearGradient584"
       id="linearGradient586"
       x1="8.9141157"
       y1="12.124899"
       x2="23.414974"
       y2="26.296921"
       gradientTransform="matrix(1.262938,0.000000,0.000000,0.861022,-1.784268,-2.409862)"
       gradientUnits="userSpaceOnUse" />
    <linearGradient
       xlink:href="#linearGradient584"
       id="linearGradient587"
       x1="5.1045614"
       y1="23.938355"
       x2="17.308465"
       y2="36.142259"
       gradientTransform="matrix(1.032480,0.000000,0.000000,1.053210,-1.784268,-2.409862)"
       gradientUnits="userSpaceOnUse" />
    <linearGradient
       xlink:href="#linearGradient584"
       id="linearGradient753"
       x1="40.771143"
       y1="19.604677"
       x2="56.083084"
       y2="35.477147"
       gradientTransform="matrix(0.742518,0.000000,0.000000,1.464502,-1.784268,-2.409862)"
       gradientUnits="userSpaceOnUse" />
    <linearGradient
       xlink:href="#linearGradient866"
       id="linearGradient754"
       x1="5.2659800"
       y1="9.7729619"
       x2="36.441900"
       y2="40.731125"
       gradientTransform="matrix(1.422832,0.000000,0.000000,0.764264,-1.784269,-2.409862)"
       gradientUnits="userSpaceOnUse" />
    <linearGradient
       xlink:href="#linearGradient866"
       id="linearGradient755"
       x1="1.3721350"
       y1="19.294164"
       x2="47.080061"
       y2="64.761521"
       gradientTransform="matrix(1.271120,0.000000,0.000000,0.855481,-1.784269,-2.409862)"
       gradientUnits="userSpaceOnUse" />
  </defs>
  <sodipodi:namedview
     id="base"
     pagecolor="#ffffff"
     bordercolor="#666666"
     borderopacity="1.0"
     inkscape:pageopacity="0.0"
     inkscape:pageshadow="2"
     inkscape:zoom="5.6423387"
     inkscape:cx="24.619295"
     inkscape:cy="28.334844"
     inkscape:window-width="895"
     inkscape:window-height="516"
     inkscape:window-x="137"
     inkscape:window-y="73"
     inkscape:current-layer="svg1" />
  <path
     style="font-size:12.000000px;opacity:0.29636899;fill:#000000;fill-opacity:1.0000000;fill-rule:evenodd;stroke:none;stroke-width:1.8750000;stroke-dasharray:none"
     d="M 7.4114046,17.949877 C 6.2775222,16.852009 -0.33570912,38.214396 1.4020144,40.425543 C 2.8458070,42.487402 27.004052,56.563310 30.135948,56.309873 C 33.669844,56.277284 58.533060,41.818245 59.776905,39.301695 C 61.378386,36.271001 51.981461,11.817549 50.491203,14.002934 C 46.832628,19.682734 33.471789,25.166381 30.374793,25.366753 C 27.035380,25.569108 11.337839,21.543818 7.4114046,17.949877 z "
     id="path756"
     sodipodi:nodetypes="cssssss" />
  <path
     style="font-size:12.000000px;fill:url(#linearGradient754);fill-rule:evenodd;stroke:#261933;stroke-width:1.8750002;stroke-dasharray:none"
     d="M 6.6919435,18.087106 C 6.2889025,20.470199 26.353036,28.375474 29.392472,28.168038 C 33.047822,27.932573 48.923657,18.354966 49.546263,15.444895 C 50.465675,12.219951 32.235376,6.0140152 28.739783,6.0369452 C 25.930047,6.0566916 6.9650295,15.069812 6.6919435,18.087106 z "
     id="path554"
     sodipodi:nodetypes="cssss" />
  <path
     style="font-size:12.000000px;fill:url(#linearGradient755);fill-rule:evenodd;stroke:#261933;stroke-width:1.8750002;stroke-dasharray:none"
     d="M 7.0110218,18.695957 C 5.9176605,17.637322 -0.45923440,35.081066 1.2163883,37.213194 C 2.6085844,39.201368 25.672470,52.873320 28.692442,52.628940 C 32.100048,52.597515 56.305753,38.556126 57.505146,36.129508 C 59.049394,33.207121 50.664389,13.120830 49.227388,15.228116 C 45.699558,20.704938 32.490671,27.582755 29.504352,27.775968 C 26.284278,27.971090 10.797139,22.161461 7.0110218,18.695957 z "
     id="path555"
     sodipodi:nodetypes="cssssss" />
  <path
     style="font-size:12.000000px;opacity:0.99000001;fill:url(#linearGradient587);fill-rule:evenodd;stroke:none;stroke-width:1.0000000pt"
     d="M 3.5705331,35.634342 C 3.0023915,34.425888 5.4333825,24.109414 6.9067751,23.029186 C 8.2449633,21.873640 15.882874,25.475845 16.082982,26.104363 C 16.250009,26.629132 10.206851,25.328038 8.1915671,26.488854 C 6.5364041,27.442362 3.7756754,36.140094 3.5705331,35.634342 z "
     id="path583"
     sodipodi:nodetypes="cssss" />
  <path
     style="font-size:12.000000px;opacity:0.99000001;fill:url(#linearGradient753);fill-rule:evenodd;stroke:none;stroke-width:1.0000000pt"
     d="M 28.665509,49.361756 C 28.360582,49.681099 28.355703,33.066017 29.430677,30.632538 C 30.084040,29.469086 40.519863,26.027982 40.174907,26.318571 C 38.875937,27.278480 32.480472,31.543470 31.560658,32.489258 C 29.568027,34.730304 29.033544,48.976324 28.665509,49.361756 z "
     id="path584"
     sodipodi:nodetypes="cssss" />
  <path
     style="font-size:12.000000px;opacity:0.99000001;fill:url(#linearGradient586);fill-rule:evenodd;stroke:none;stroke-width:1.0000000pt"
     d="M 15.800628,20.429203 C 14.992464,20.429203 8.9013725,17.914728 9.5173845,17.330959 C 12.311734,14.858146 27.333564,7.8331396 27.937847,7.8331396 C 28.434610,7.8331396 12.849021,15.564412 12.645408,17.330959 C 12.744324,18.694736 16.093507,20.429203 15.800628,20.429203 z "
     id="path585"
     sodipodi:nodetypes="cssss" />
  <path
     style="font-size:12.000000px;opacity:0.99000001;fill:#261933;fill-opacity:1.0000000;fill-rule:evenodd;stroke-width:1.0000000pt"
     d="M 15.133952,18.550821 C 15.586090,17.492588 32.669385,11.408228 34.244680,12.265797 C 35.361630,12.900245 30.521746,23.659529 29.652936,24.048715 C 28.866282,24.461137 26.233303,23.360066 26.046293,22.748571 C 25.802186,21.842703 27.975474,20.022477 25.999896,18.829937 C 22.994705,17.705884 20.535072,20.680958 19.424088,20.695458 C 18.233331,20.706198 14.726431,19.370635 15.133952,18.550821 z M 27.618144,17.346632 C 30.345760,19.221201 31.349747,14.299416 31.349747,14.299416 C 31.349747,14.299416 24.727709,15.600865 27.618144,17.346632 z "
     id="path616"
     sodipodi:nodetypes="cccccccccc" />
  <path
     style="font-size:12.000000px;fill:#261933;fill-rule:evenodd;stroke-width:1.0000000pt"
     d="M 38.461388,12.947860 C 38.461388,13.613077 37.748739,14.152963 36.870655,14.152963 C 35.992569,14.152963 35.279919,13.613077 35.279919,12.947860 C 35.279919,12.282646 35.992569,11.742759 36.870655,11.742759 C 37.748739,11.742759 38.461388,12.282646 38.461388,12.947860 z "
     id="path758" />
  <path
     style="font-size:12.000000px;fill:#261933;fill-rule:evenodd;stroke-width:1.0000000pt"
     d="M 33.298324,10.512580 C 33.298324,11.167430 32.596782,11.698902 31.732382,11.698902 C 30.867979,11.698902 30.166435,11.167430 30.166435,10.512580 C 30.166435,9.8577306 30.867979,9.3262582 31.732382,9.3262582 C 32.596782,9.3262582 33.298324,9.8577306 33.298324,10.512580 z "
     id="path759" />
</svg>
