<?xml version="1.0" encoding="UTF-8" standalone="no"?>
<!-- Created with Inkscape (http://www.inkscape.org/) -->
<svg
   xmlns:dc="http://purl.org/dc/elements/1.1/"
   xmlns:cc="http://web.resource.org/cc/"
   xmlns:rdf="http://www.w3.org/1999/02/22-rdf-syntax-ns#"
   xmlns:svg="http://www.w3.org/2000/svg"
   xmlns="http://www.w3.org/2000/svg"
   xmlns:xlink="http://www.w3.org/1999/xlink"
   xmlns:sodipodi="http://sodipodi.sourceforge.net/DTD/sodipodi-0.dtd"
   xmlns:inkscape="http://www.inkscape.org/namespaces/inkscape"
   id="svg1"
   sodipodi:version="0.32"
   inkscape:version="0.44.1"
   width="48pt"
   height="48pt"
   sodipodi:docbase="/home/Mess/.icons/Lila/scalable/apps"
   sodipodi:docname="ati.svg">
  <metadata
     id="metadata50">
    <rdf:RDF>
      <cc:Work
         rdf:about="">
        <dc:format>image/svg+xml</dc:format>
        <dc:type
           rdf:resource="http://purl.org/dc/dcmitype/StillImage" />
      </cc:Work>
    </rdf:RDF>
  </metadata>
  <defs
     id="defs3">
    <linearGradient
       id="linearGradient887">
      <stop
         offset="0.0000000"
         style="stop-color:#f50000;stop-opacity:1.0000000;"
         id="stop889" />
      <stop
         offset="1.0000000"
         style="stop-color:#a90000;stop-opacity:1.0000000;"
         id="stop888" />
    </linearGradient>
    <linearGradient
       id="linearGradient642">
      <stop
         style="stop-color:#d9cce6;stop-opacity:1;"
         offset="0.00000000"
         id="stop643" />
      <stop
         style="stop-color:#73667f;stop-opacity:1;"
         offset="1.00000000"
         id="stop644" />
    </linearGradient>
    <linearGradient
       id="linearGradient866">
      <stop
         style="stop-color:#ffffff;stop-opacity:1;"
         offset="0.00000000"
         id="stop867" />
      <stop
         style="stop-color:#d9cce6;stop-opacity:1;"
         offset="1.00000000"
         id="stop868" />
    </linearGradient>
    <linearGradient
       id="linearGradient584">
      <stop
         style="stop-color:#ffffff;stop-opacity:1;"
         offset="0.00000000"
         id="stop585" />
      <stop
         style="stop-color:#ffffff;stop-opacity:0;"
         offset="1.00000000"
         id="stop586" />
    </linearGradient>
    <linearGradient
       xlink:href="#linearGradient866"
       id="linearGradient586"
       x1="-0.00000000"
       y1="0.01562500"
       x2="0.99122804"
       y2="0.98437500" />
    <linearGradient
       xlink:href="#linearGradient584"
       id="linearGradient587"
       x1="0.00000000"
       y1="-0.00000000"
       x2="1.00000000"
       y2="1.00000000" />
    <linearGradient
       xlink:href="#linearGradient866"
       id="linearGradient638"
       x1="1.1267549"
       y1="2.6132078"
       x2="52.130516"
       y2="55.508359"
       gradientTransform="matrix(1.085602,0,0,0.921148,-3.995043e-6,-3.712691e-8)"
       gradientUnits="userSpaceOnUse" />
    <radialGradient
       xlink:href="#linearGradient866"
       id="radialGradient639" />
    <linearGradient
       xlink:href="#linearGradient642"
       id="linearGradient640"
       x1="5.9405983"
       y1="3.9837171"
       x2="33.555457"
       y2="32.622627"
       gradientTransform="matrix(1.691971,0,0,0.591027,-3.762263e-6,3.366729e-7)"
       gradientUnits="userSpaceOnUse" />
    <linearGradient
       xlink:href="#linearGradient584"
       id="linearGradient641"
       x1="0.00000000"
       y1="0.00000000"
       x2="0.99270076"
       y2="0.95238096" />
    <linearGradient
       xlink:href="#linearGradient584"
       id="linearGradient645"
       x1="5.8555882"
       y1="11.165552"
       x2="22.610721"
       y2="27.199967"
       gradientTransform="matrix(2.263946,0,0,0.441707,-6.44067e-6,-1.542136e-6)"
       gradientUnits="userSpaceOnUse" />
    <linearGradient
       xlink:href="#linearGradient584"
       id="linearGradient699"
       x1="0.00000000"
       y1="0.00000000"
       x2="0.98701298"
       y2="1.00781250" />
    <linearGradient
       xlink:href="#linearGradient584"
       id="linearGradient700"
       x1="-0.00000000"
       y1="-0.00000000"
       x2="0.96875000"
       y2="0.99218750" />
    <linearGradient
       xlink:href="#linearGradient584"
       id="linearGradient701"
       x1="-0.00000000"
       y1="-0.00000000"
       x2="0.97058821"
       y2="0.97656250" />
    <linearGradient
       xlink:href="#linearGradient584"
       id="linearGradient702"
       x1="-0.00000000"
       y1="0.00000000"
       x2="1.01485145"
       y2="1.02343750" />
    <linearGradient
       xlink:href="#linearGradient584"
       id="linearGradient703"
       x1="0.00000000"
       y1="-0.00000000"
       x2="1.01315784"
       y2="1.00781250" />
    <linearGradient
       xlink:href="#linearGradient642"
       id="linearGradient704"
       x1="0.26760563"
       y1="0.31250000"
       x2="0.65492958"
       y2="0.65625000" />
    <defs
       id="defs858">
      <linearGradient
         id="linearGradient859">
        <stop
           style="stop-color:#ffffff;stop-opacity:1;"
           offset="0.00000000"
           id="stop860" />
        <stop
           style="stop-color:#ffffff;stop-opacity:0;"
           offset="1.00000000"
           id="stop861" />
      </linearGradient>
      <linearGradient
         id="linearGradient578"
         x1="0.0000000"
         y1="0.50000000"
         x2="1.0000000"
         y2="0.50000000"
         gradientUnits="objectBoundingBox"
         spreadMethod="pad"
         xlink:href="#linearGradient887" />
      <linearGradient
         xlink:href="#linearGradient887"
         id="linearGradient581"
         x1="8.0685777"
         y1="8.9695791"
         x2="53.892638"
         y2="53.677356"
         gradientTransform="matrix(0.774315,0,0,0.769749,14.71467,14.86596)"
         gradientUnits="userSpaceOnUse" />
      <linearGradient
         xlink:href="#linearGradient584"
         id="linearGradient583"
         x1="27.306528"
         y1="14.4226"
         x2="42.033803"
         y2="28.76761"
         gradientTransform="matrix(0.915083,0,0,0.651338,14.71467,14.86596)"
         gradientUnits="userSpaceOnUse" />
      <linearGradient
         xlink:href="#linearGradient584"
         id="linearGradient599"
         x1="10.818061"
         y1="12.214143"
         x2="28.093218"
         y2="28.809789"
         gradientTransform="matrix(0.828374,0,0,0.719516,14.71467,14.86596)"
         gradientUnits="userSpaceOnUse" />
      <linearGradient
         xlink:href="#linearGradient584"
         id="linearGradient600"
         x1="12.683742"
         y1="28.761297"
         x2="29.532001"
         y2="45.477929"
         gradientTransform="matrix(0.695235,0,0,0.857305,14.71467,14.86596)"
         gradientUnits="userSpaceOnUse" />
    </defs>
    <sodipodi:namedview
       id="namedview869"
       pagecolor="#ffffff"
       bordercolor="#666666"
       borderopacity="1.0"
       inkscape:pageopacity="0.0"
       inkscape:pageshadow="2"
       inkscape:zoom="3.98973597"
       inkscape:cx="24.6369548"
       inkscape:cy="20.6429740"
       inkscape:window-width="508"
       inkscape:window-height="527"
       inkscape:window-x="183"
       inkscape:window-y="84" />
    <linearGradient
       inkscape:collect="always"
       xlink:href="#linearGradient887"
       id="linearGradient6394"
       x1="29.701214"
       y1="19.646452"
       x2="38.849689"
       y2="31.42668"
       gradientUnits="userSpaceOnUse" />
    <linearGradient
       inkscape:collect="always"
       xlink:href="#linearGradient887"
       id="linearGradient7287"
       x1="44.540443"
       y1="35.687614"
       x2="54.588921"
       y2="35.687614"
       gradientUnits="userSpaceOnUse" />
    <linearGradient
       inkscape:collect="always"
       xlink:href="#linearGradient887"
       id="linearGradient8180"
       x1="21.901527"
       y1="35.123669"
       x2="31.360144"
       y2="35.123669"
       gradientUnits="userSpaceOnUse"
       gradientTransform="matrix(0.994326,0,0,1.055884,-0.845769,0.148931)" />
    <linearGradient
       inkscape:collect="always"
       xlink:href="#linearGradient584"
       id="linearGradient9958"
       x1="11.858259"
       y1="28.270235"
       x2="16.261156"
       y2="33.413639"
       gradientUnits="userSpaceOnUse"
       gradientTransform="translate(1.423268e-6,-4.576732e-6)" />
    <linearGradient
       inkscape:collect="always"
       xlink:href="#linearGradient859"
       id="linearGradient11740"
       x1="39.201996"
       y1="14.310289"
       x2="40.242546"
       y2="20.546728"
       gradientUnits="userSpaceOnUse" />
    <linearGradient
       inkscape:collect="always"
       xlink:href="#linearGradient859"
       id="linearGradient13522"
       x1="22.808527"
       y1="33.04834"
       x2="33.261368"
       y2="39.447262"
       gradientUnits="userSpaceOnUse"
       gradientTransform="translate(0.312026,-1.210608)" />
    <linearGradient
       inkscape:collect="always"
       xlink:href="#linearGradient859"
       id="linearGradient13526"
       gradientUnits="userSpaceOnUse"
       x1="-7.9259415"
       y1="61.324703"
       x2="-4.0256238"
       y2="65.475334"
       gradientTransform="matrix(1.042554,0,0,1,31.07174,-26.20814)" />
    <linearGradient
       inkscape:collect="always"
       xlink:href="#linearGradient859"
       id="linearGradient15308"
       x1="24.832102"
       y1="31.723919"
       x2="30.453142"
       y2="37.784344"
       gradientUnits="userSpaceOnUse"
       gradientTransform="matrix(1,0,0,0.943548,0,2.226862)" />
    <linearGradient
       inkscape:collect="always"
       xlink:href="#linearGradient859"
       id="linearGradient17090"
       x1="28.231064"
       y1="33.660019"
       x2="38.08239"
       y2="36.396828"
       gradientUnits="userSpaceOnUse" />
  </defs>
  <sodipodi:namedview
     id="base"
     pagecolor="#ffffff"
     bordercolor="#666666"
     borderopacity="1.0"
     inkscape:pageopacity="0.0"
     inkscape:pageshadow="2"
     inkscape:zoom="7.9794719"
     inkscape:cx="28.019514"
     inkscape:cy="38.070052"
     inkscape:window-width="1280"
     inkscape:window-height="947"
     inkscape:window-x="0"
     inkscape:window-y="31"
     inkscape:current-layer="svg1" />
  <rect
     style="opacity:0.3;fill:black;fill-opacity:1;fill-rule:nonzero;stroke:none;stroke-width:1.86648834;stroke-linecap:round;stroke-linejoin:round;stroke-miterlimit:4;stroke-dasharray:none;stroke-opacity:1"
     id="rect17979"
     width="9.0819864"
     height="18.731749"
     x="46.506695"
     y="27.760483"
     ry="3.8006446" />
  <path
     sodipodi:type="arc"
     style="opacity:0.3;fill:black;fill-opacity:1;fill-rule:nonzero;stroke:none;stroke-width:1.81400001;stroke-linejoin:round;stroke-miterlimit:4;stroke-dasharray:none;stroke-opacity:1"
     id="path17981"
     sodipodi:cx="26.630835"
     sodipodi:cy="35.123669"
     sodipodi:rx="3.8223081"
     sodipodi:ry="4.3235946"
     d="M 30.453143 35.123669 A 3.8223081 4.3235946 0 1 1  22.808527,35.123669 A 3.8223081 4.3235946 0 1 1  30.453143 35.123669 z"
     transform="matrix(1.005707,0,0,0.947074,-0.423478,5.683939)" />
  <path
     style="opacity:0.3;fill:black;fill-opacity:1;fill-rule:evenodd;stroke:none;stroke-width:1.79999995;stroke-linecap:butt;stroke-linejoin:miter;stroke-miterlimit:4;stroke-dasharray:none;stroke-opacity:1"
     d="M 24.16621,16.322975 C 27.419626,13.955354 44.433815,14.291163 54.243389,14.693795 C 55.280384,14.693795 55.423078,14.951953 56.624499,15.696367 C 57.765177,17.483482 58.943929,21.804977 56.74982,24.970165 C 55.743134,25.473507 54.26925,26.22338 50.859707,26.098058 C 44.643151,26.428846 42.550032,26.239807 42.713804,30.23367 C 43.018795,35.889897 43.012024,35.813225 43.465733,43.141792 C 42.820502,46.687242 42.022501,47.168828 38.578192,47.402726 C 35.950746,47.528048 34.344441,47.382757 33.815973,46.650796 C 31.473964,42.540193 35.49444,20.79996 28.051179,27.977881 C 22.747515,32.975693 18.888429,40.377034 13.263233,45.021616 C 12.333925,45.790677 11.865602,46.498919 9.8795499,47.277405 C 9.0395499,47.606666 7.8058209,47.33888 6.2452249,46.525475 C 5.3522099,46.060023 3.9083819,44.028507 3.7387929,43.141793 C 3.2454769,40.562441 3.4021899,40.581637 3.7387929,38.755537 C 14.312869,26.020097 14.598413,25.758661 24.16621,16.322975 z "
     id="path17983"
     sodipodi:nodetypes="cccccccccccssscc" />
  <path
     style="opacity:0.75038201;fill:url(#linearGradient599);fill-rule:evenodd;stroke-width:1pt"
     d="M 25.412823,25.634738 C 24.672963,24.920388 18.516606,16.72242 18.994375,16.500598 C 19.547582,16.243753 28.784823,22.774851 29.492817,23.458432 C 29.852618,23.805827 22.066666,19.001464 21.827609,19.099991 C 21.690514,19.163643 25.74076,25.951364 25.412823,25.634738 z "
     id="path597"
     sodipodi:nodetypes="cssss" />
  <path
     style="fill:url(#linearGradient583);fill-rule:evenodd;stroke-width:1pt"
     d="M 75.862527,46.785381 C 78.407144,44.342549 88.759457,37.24905 89.338717,37.293608 C 89.82878,37.331306 83.899432,43.505428 80.578477,45.80708 C 79.745515,46.38438 75.322551,47.303756 75.862527,46.785381 z "
     id="path598"
     sodipodi:nodetypes="csss" />
  <rect
     style="opacity:1;fill:url(#linearGradient7287);fill-opacity:1;fill-rule:nonzero;stroke:#340000;stroke-width:1.86648834;stroke-linecap:round;stroke-linejoin:round;stroke-miterlimit:4;stroke-dasharray:none;stroke-opacity:1"
     id="rect1956"
     width="9.0819864"
     height="18.731749"
     x="45.023689"
     y="25.569809"
     ry="3.8006446" />
  <path
     sodipodi:type="arc"
     style="opacity:1;fill:url(#linearGradient8180);fill-opacity:1;fill-rule:nonzero;stroke:#340000;stroke-width:1.81400001;stroke-linejoin:round;stroke-miterlimit:4;stroke-dasharray:none;stroke-opacity:1"
     id="path1958"
     sodipodi:cx="26.630835"
     sodipodi:cy="35.123669"
     sodipodi:rx="3.8223081"
     sodipodi:ry="4.3235946"
     d="M 30.453143 35.123669 A 3.8223081 4.3235946 0 1 1  22.808527,35.123669 A 3.8223081 4.3235946 0 1 1  30.453143 35.123669 z"
     transform="matrix(1.005707,0,0,0.947074,-1.906479,3.493274)" />
  <path
     style="fill:url(#linearGradient6394);fill-opacity:1.0;fill-rule:evenodd;stroke:#340000;stroke-width:1.8;stroke-linecap:butt;stroke-linejoin:miter;stroke-opacity:1;stroke-miterlimit:4;stroke-dasharray:none"
     d="M 22.432562,13.881659 C 26.68855,12.140646 41.446951,11.849847 52.760384,12.001836 C 53.797379,12.001836 53.940073,12.259994 55.141494,13.004408 C 56.282172,14.791523 57.460924,19.113018 55.266815,22.278206 C 54.260129,22.781548 52.786245,23.531421 49.376702,23.406099 C 43.160146,23.736887 41.067027,23.547848 41.230799,27.541711 C 41.53579,33.197938 41.529019,33.121266 41.982728,40.449833 C 41.337497,43.995283 40.539496,44.476869 37.095187,44.710767 C 34.467741,44.836089 32.861436,44.690798 32.332968,43.958837 C 29.990959,39.848234 34.011435,18.108001 26.568174,25.285922 C 21.26451,30.283734 17.405424,37.685075 11.780228,42.329657 C 10.85092,43.098718 10.382597,43.80696 8.3965456,44.585446 C 7.5565457,44.914707 6.3228159,44.646921 4.7622199,43.833516 C 3.8692048,43.368064 2.4253777,41.336548 2.2557884,40.449834 C 1.7624722,37.870482 1.9191853,37.889678 2.2557885,36.063578 C 12.829864,23.328138 12.864765,23.317345 22.432562,13.881659 z "
     id="path5501"
     sodipodi:nodetypes="cccccccccccssscc" />
  <path
     style="font-size:12px;fill:url(#linearGradient9958);fill-opacity:1;fill-rule:evenodd;stroke-width:1pt"
     d="M 6.1772842,40.524009 C 5.9144738,40.42596 3.7553285,38.437725 4.1277365,37.925166 C 9.9952464,29.849493 24.667733,14.636243 24.897044,14.759317 C 30.747397,17.89935 15.059068,31.094291 9.123394,39.263777 C 8.8191491,39.682522 6.3860027,40.601881 6.1772842,40.524009 z "
     id="path636"
     sodipodi:nodetypes="cssss" />
  <path
     style="font-size:12px;fill:url(#linearGradient11740);fill-opacity:1;fill-rule:evenodd;stroke-width:1pt"
     d="M 23.936198,19.263296 C 23.85548,18.924191 24.035032,15.062485 24.613621,14.95041 C 33.729632,13.184617 52.976307,13.299695 53.019998,13.629706 C 54.134696,22.04923 35.74408,19.13231 26.522167,20.918615 C 26.04948,21.010175 24.000302,19.532606 23.936198,19.263296 z "
     id="path9960"
     sodipodi:nodetypes="cssss" />
  <path
     sodipodi:type="arc"
     style="opacity:1;fill:url(#linearGradient13522);fill-opacity:1;fill-rule:nonzero;stroke:none;stroke-width:1.81400001;stroke-linejoin:round;stroke-miterlimit:4;stroke-dasharray:none;stroke-opacity:1"
     id="path11742"
     sodipodi:cx="26.630835"
     sodipodi:cy="35.123669"
     sodipodi:rx="3.8223081"
     sodipodi:ry="4.3235946"
     d="M 30.453143 35.123669 A 3.8223081 4.3235946 0 1 1  22.808527,35.123669 A 3.8223081 4.3235946 0 1 1  30.453143 35.123669 z"
     transform="matrix(0.803279,0,0,0.724637,28.11004,-6.870707)" />
  <path
     sodipodi:type="arc"
     style="opacity:1;fill:url(#linearGradient13526);fill-opacity:1;fill-rule:nonzero;stroke:none;stroke-width:1.81400001;stroke-linejoin:round;stroke-miterlimit:4;stroke-dasharray:none;stroke-opacity:1"
     id="path13524"
     sodipodi:cx="26.630835"
     sodipodi:cy="35.123669"
     sodipodi:rx="3.8223081"
     sodipodi:ry="4.3235946"
     d="M 30.453143 35.123669 A 3.8223081 4.3235946 0 1 1  22.808527,35.123669 A 3.8223081 4.3235946 0 1 1  30.453143 35.123669 z"
     transform="matrix(0.770492,0,0,0.724638,4.420145,11.24342)" />
  <path
     sodipodi:type="arc"
     style="opacity:1;fill:url(#linearGradient15308);fill-opacity:1;fill-rule:nonzero;stroke:none;stroke-width:1.81400001;stroke-linejoin:round;stroke-miterlimit:4;stroke-dasharray:none;stroke-opacity:1"
     id="path13528"
     sodipodi:cx="26.630835"
     sodipodi:cy="35.123669"
     sodipodi:rx="3.8223081"
     sodipodi:ry="4.3235946"
     d="M 30.453143 35.123669 A 3.8223081 4.3235946 0 1 1  22.808527,35.123669 A 3.8223081 4.3235946 0 1 1  30.453143 35.123669 z"
     transform="matrix(0.557377,0,0,1.797101,33.5307,-27.93447)" />
  <path
     style="font-size:12px;fill:url(#linearGradient17090);fill-opacity:1;fill-rule:evenodd;stroke-width:1pt"
     d="M 36.934203,42.696057 C 36.701218,42.764657 34.052122,42.852622 33.977399,42.493406 C 32.8001,36.833742 32.951542,24.684184 33.178148,24.639416 C 38.959533,23.497327 36.888791,35.25278 38.079764,40.978191 C 38.140811,41.271659 37.119237,42.641576 36.934203,42.696057 z "
     id="path15310"
     sodipodi:nodetypes="cssss" />
</svg>
