<?xml version="1.0" encoding="UTF-8" standalone="no"?>
<!DOCTYPE svg PUBLIC "-//W3C//DTD SVG 20010904//EN"
"http://www.w3.org/TR/2001/REC-SVG-20010904/DTD/svg10.dtd">
<!-- Created with Inkscape (http://www.inkscape.org/) -->
<svg
   version="1.0"
   x="0.0000000"
   y="0.0000000"
   width="60.000000"
   height="60.000000"
   id="svg1"
   xmlns="http://www.w3.org/2000/svg"
   xmlns:xlink="http://www.w3.org/1999/xlink"
   xmlns:sodipodi="http://sodipodi.sourceforge.net/DTD/sodipodi-0.dtd"
   xmlns:inkscape="http://www.inkscape.org/namespaces/inkscape"
   sodipodi:version="0.32"
   inkscape:version="0.40"
   xmlns:rdf="http://www.w3.org/1999/02/22-rdf-syntax-ns#"
   xmlns:cc="http://web.resource.org/cc/"
   xmlns:dc="http://purl.org/dc/elements/1.1/"
   sodipodi:docname="audacity.svg"
   sodipodi:docbase="/home/scaba">
  <metadata
     id="metadata41">
    <rdf:RDF
       id="RDF42">
      <cc:Work
         rdf:about=""
         id="Work43">
        <dc:format
           id="format44">image/svg+xml</dc:format>
        <dc:type
           id="type46"
           rdf:resource="http://purl.org/dc/dcmitype/StillImage" />
      </cc:Work>
    </rdf:RDF>
  </metadata>
  <sodipodi:namedview
     id="base"
     pagecolor="#ffffff"
     bordercolor="#666666"
     borderopacity="1.0"
     inkscape:pageopacity="0.0"
     inkscape:pageshadow="2"
     inkscape:zoom="6.9465337"
     inkscape:cx="33.838064"
     inkscape:cy="14.532017"
     inkscape:window-width="1022"
     inkscape:window-height="695"
     inkscape:window-x="0"
     inkscape:window-y="26"
     inkscape:current-layer="svg1" />
  <defs
     id="defs3">
    <linearGradient
       id="linearGradient1708">
      <stop
         style="stop-color:#ffffff;stop-opacity:1.0000000;"
         offset="0.0000000"
         id="stop1709" />
      <stop
         style="stop-color:#d9cce6;stop-opacity:1.0000000;"
         offset="1.0000000"
         id="stop1710" />
    </linearGradient>
    <linearGradient
       id="linearGradient584">
      <stop
         style="stop-color:#ffffff;stop-opacity:1.0000000;"
         offset="0.0000000"
         id="stop585" />
      <stop
         style="stop-color:#ffffff;stop-opacity:0.0000000;"
         offset="1.0000000"
         id="stop586" />
    </linearGradient>
    <linearGradient
       id="linearGradient578">
      <stop
         style="stop-color:#d9cce6;stop-opacity:1.0000000;"
         offset="0.0000000"
         id="stop579" />
      <stop
         style="stop-color:#73667f;stop-opacity:1.0000000;"
         offset="1.0000000"
         id="stop580" />
    </linearGradient>
    <linearGradient
       x1="11.889954"
       y1="17.899555"
       x2="47.707611"
       y2="53.933167"
       id="linearGradient581"
       xlink:href="#linearGradient584"
       gradientUnits="userSpaceOnUse"
       gradientTransform="matrix(1.087700,0.000000,0.000000,0.919371,66.35103,-1.329236)" />
    <linearGradient
       x1="14.901803"
       y1="12.416366"
       x2="27.636885"
       y2="24.581890"
       id="linearGradient583"
       xlink:href="#linearGradient584"
       gradientUnits="userSpaceOnUse"
       gradientTransform="matrix(1.682464,0.000000,0.000000,0.594366,66.35103,-1.329236)" />
    <linearGradient
       x1="11.050006"
       y1="4.8899484"
       x2="34.399300"
       y2="26.972225"
       id="linearGradient860"
       xlink:href="#linearGradient584"
       gradientUnits="userSpaceOnUse"
       gradientTransform="matrix(0.544211,0.000000,0.000000,1.837523,66.35103,-1.329236)" />
    <linearGradient
       x1="9.5028210"
       y1="14.326502"
       x2="53.603920"
       y2="56.968639"
       id="linearGradient861"
       xlink:href="#linearGradient578"
       gradientUnits="userSpaceOnUse"
       gradientTransform="matrix(1.067200,0.000000,0.000000,0.937032,66.35103,-1.329236)" />
    <linearGradient
       x1="3.2789278"
       y1="4.5549574"
       x2="54.547245"
       y2="55.028416"
       id="linearGradient862"
       xlink:href="#linearGradient578"
       gradientUnits="userSpaceOnUse"
       gradientTransform="matrix(1.014478,0.000000,0.000000,0.985729,66.35103,-1.329236)" />
    <linearGradient
       x1="1.6300739"
       y1="17.134445"
       x2="23.789167"
       y2="39.286045"
       id="linearGradient1715"
       xlink:href="#linearGradient584"
       gradientUnits="userSpaceOnUse"
       gradientTransform="matrix(0.905665,0.000000,0.000000,1.104161,0.110770,-0.996927)" />
    <linearGradient
       x1="1.6300739"
       y1="17.134445"
       x2="23.789167"
       y2="39.286045"
       id="linearGradient1718"
       xlink:href="#linearGradient584"
       gradientUnits="userSpaceOnUse"
       gradientTransform="matrix(0.905665,0.000000,0.000000,1.104161,16.09532,-8.614897)" />
    <linearGradient
       x1="1.6300739"
       y1="17.134445"
       x2="23.789167"
       y2="39.286045"
       id="linearGradient1721"
       xlink:href="#linearGradient584"
       gradientUnits="userSpaceOnUse"
       gradientTransform="matrix(0.905665,0.000000,0.000000,1.104161,8.119905,-17.91955)" />
    <linearGradient
       x1="6.4574761"
       y1="4.6498289"
       x2="25.565939"
       y2="25.086603"
       id="linearGradient3038"
       xlink:href="#linearGradient578"
       gradientUnits="userSpaceOnUse"
       gradientTransform="scale(1.001030,0.998971)" />
    <linearGradient
       x1="6.4574761"
       y1="4.6498289"
       x2="25.565939"
       y2="25.086603"
       id="linearGradient3039"
       xlink:href="#linearGradient578"
       gradientUnits="userSpaceOnUse"
       gradientTransform="scale(1.001030,0.998971)" />
    <linearGradient
       x1="6.4574761"
       y1="4.6498289"
       x2="25.565939"
       y2="25.086603"
       id="linearGradient3040"
       xlink:href="#linearGradient578"
       gradientUnits="userSpaceOnUse"
       gradientTransform="scale(1.001030,0.998971)" />
    <linearGradient
       x1="10.786067"
       y1="7.1828723"
       x2="27.083527"
       y2="25.066830"
       id="linearGradient1711"
       xlink:href="#linearGradient1708"
       gradientUnits="userSpaceOnUse"
       gradientTransform="matrix(1.003804,0.000000,0.000000,0.996210,1.439567,66.93986)" />
    <linearGradient
       x1="19.457455"
       y1="20.837318"
       x2="50.554337"
       y2="17.274693"
       id="linearGradient1720"
       xlink:href="#linearGradient578"
       gradientUnits="userSpaceOnUse"
       gradientTransform="matrix(0.871647,0.000000,0.000000,1.147253,1.439567,66.93986)" />
    <linearGradient
       x1="26.271854"
       y1="22.911760"
       x2="46.103157"
       y2="28.879768"
       id="linearGradient1729"
       xlink:href="#linearGradient584"
       gradientUnits="userSpaceOnUse"
       gradientTransform="matrix(0.877053,0.000000,0.000000,1.140182,1.439567,66.93986)" />
    <linearGradient
       x1="17.726391"
       y1="15.945027"
       x2="29.533092"
       y2="25.974466"
       id="linearGradient1731"
       xlink:href="#linearGradient584"
       gradientUnits="userSpaceOnUse"
       gradientTransform="matrix(1.003804,0.000000,0.000000,0.996210,1.439567,66.93986)" />
    <linearGradient
       x1="0.68105149"
       y1="18.030296"
       x2="19.792030"
       y2="36.926769"
       id="linearGradient1725"
       xlink:href="#linearGradient578"
       gradientUnits="userSpaceOnUse"
       gradientTransform="matrix(0.779034,0.000000,0.000000,1.283641,1.250000,5.000000)" />
    <linearGradient
       x1="56.761101"
       y1="17.391520"
       x2="76.099586"
       y2="36.982716"
       id="linearGradient1730"
       xlink:href="#linearGradient578"
       gradientUnits="userSpaceOnUse"
       gradientTransform="matrix(0.779034,0.000000,0.000000,1.283641,-2.500000,5.000000)" />
    <linearGradient
       x1="10.304859"
       y1="27.244661"
       x2="37.341202"
       y2="54.379482"
       id="linearGradient1735"
       xlink:href="#linearGradient1708"
       gradientUnits="userSpaceOnUse"
       gradientTransform="matrix(1.200907,0.000000,0.000000,0.832704,0.312500,5.000000)" />
    <linearGradient
       x1="4.1915374"
       y1="23.661066"
       x2="15.371488"
       y2="34.761372"
       id="linearGradient1771"
       xlink:href="#linearGradient584"
       gradientUnits="userSpaceOnUse"
       gradientTransform="scale(0.810240,1.234202)" />
    <linearGradient
       x1="55.059399"
       y1="19.946152"
       x2="65.578896"
       y2="33.111507"
       id="linearGradient1773"
       xlink:href="#linearGradient584"
       gradientUnits="userSpaceOnUse"
       gradientTransform="scale(0.810240,1.234202)" />
    <linearGradient
       inkscape:collect="always"
       xlink:href="#linearGradient578"
       id="linearGradient1123"
       gradientUnits="userSpaceOnUse"
       gradientTransform="matrix(0.779034,0.000000,0.000000,1.283641,1.250000,5.000000)"
       x1="0.68105149"
       y1="18.030296"
       x2="19.792030"
       y2="36.926769" />
    <linearGradient
       inkscape:collect="always"
       xlink:href="#linearGradient578"
       id="linearGradient1124"
       gradientUnits="userSpaceOnUse"
       gradientTransform="matrix(0.779034,0.000000,0.000000,1.283641,-2.500000,5.000000)"
       x1="56.761101"
       y1="17.391520"
       x2="76.099586"
       y2="36.982716" />
    <linearGradient
       inkscape:collect="always"
       xlink:href="#linearGradient584"
       id="linearGradient1125"
       gradientUnits="userSpaceOnUse"
       gradientTransform="scale(0.810240,1.234202)"
       x1="4.1915374"
       y1="23.661066"
       x2="15.371488"
       y2="34.761372" />
    <linearGradient
       inkscape:collect="always"
       xlink:href="#linearGradient584"
       id="linearGradient1126"
       gradientUnits="userSpaceOnUse"
       gradientTransform="scale(0.810240,1.234202)"
       x1="55.059399"
       y1="19.946152"
       x2="65.578896"
       y2="33.111507" />
  </defs>
  <path
     style="opacity:0.29999998;fill:#000000;fill-opacity:1.0000000;stroke:none;stroke-width:2.5000000;stroke-linecap:butt;stroke-linejoin:miter;stroke-miterlimit:4.0000000;stroke-opacity:1.0000000;"
     d="M 32.312500,10.281250 C 27.237646,10.321552 23.401337,11.291040 20.531250,13.156250 C 17.661162,15.021462 15.844919,17.749812 14.750000,20.968750 C 13.852359,23.607711 13.474625,26.655535 13.250000,29.906250 C 13.403081,29.786765 13.523866,29.560966 13.687500,29.500000 C 14.525380,29.187824 15.141393,29.907249 15.816277,29.774730 C 15.949761,26.382772 16.531766,23.789800 17.125000,21.781250 C 18.091826,18.938891 19.555414,16.777759 21.906250,15.250000 C 24.257085,13.722242 27.580634,12.819075 32.343750,12.781250 C 37.060419,12.743496 40.387860,13.630215 42.750000,15.187500 C 45.112129,16.744787 46.616000,19.005150 47.625000,22.000000 C 48.393549,24.281172 48.775100,27.090730 49.031250,30.125000 C 48.252050,30.125000 47.601908,30.696511 47.031250,31.468750 C 46.063370,38.400858 46.343750,42.316178 46.343750,49.406250 C 46.343751,49.794050 39.325300,52.234375 37.531250,50.906250 C 29.031816,44.614168 30.053789,56.203434 20.812500,51.062500 C 18.705951,49.890624 14.796875,52.137800 13.781250,50.968750 C 9.8956793,46.496207 10.064482,35.794391 12.156250,31.406250 C 7.8319444,33.014515 4.6562500,37.616020 4.6562500,43.187500 C 4.6562500,50.079140 9.4279185,55.656250 15.343750,55.656250 C 16.580534,55.656250 18.081102,54.739720 18.800753,53.013320 C 20.062091,52.150376 21.327059,52.021130 22.468750,52.656250 C 27.545945,55.480700 31.590547,49.913715 33.627364,50.732072 L 36.896166,51.690861 C 37.453915,51.980761 38.650071,52.453293 40.014566,52.627241 C 41.761079,52.827045 43.838420,52.556390 45.968750,51.781250 C 46.700769,53.738960 47.700830,55.093750 49.031250,55.093750 C 54.947079,55.093750 59.718750,49.516640 59.718750,42.625000 C 59.718749,36.770355 56.263560,31.878596 51.593750,30.531250 C 51.328669,27.117970 50.890440,23.923200 49.968750,21.187500 C 48.836449,17.826696 47.015960,14.999672 44.125000,13.093750 C 41.234039,11.187829 37.355660,10.240881 32.312500,10.281250 z "
     id="path1754"
     sodipodi:nodetypes="cccccccccccccccccccccccccccccccc"
     transform="matrix(1.017600,0.000000,0.000000,1.017600,-0.768760,-2.117370)" />
  <path
     d="M 29.375000,7.4687500 C 24.300149,7.5090503 20.463837,8.4785401 17.593750,10.343750 C 14.723663,12.208960 12.907419,14.937312 11.812500,18.156250 C 9.6226618,24.594126 10.053975,33.051955 9.9375000,42.468750 L 12.437500,42.500000 C 12.555005,32.999969 12.253846,24.653472 14.187500,18.968750 C 15.154327,16.126389 16.617914,13.965260 18.968750,12.437500 C 21.319586,10.909741 24.643134,10.006575 29.406250,9.9687500 C 34.122928,9.9309942 37.450363,10.817715 39.812500,12.375000 C 42.174637,13.932285 43.678501,16.192650 44.687500,19.187500 C 46.705497,25.177200 46.459700,34.057699 46.562500,44.281250 L 49.062500,44.250000 C 48.960296,34.085752 49.295837,25.096611 47.031250,18.375000 C 45.898957,15.014194 44.078460,12.187173 41.187500,10.281250 C 38.296540,8.3753275 34.418164,7.4283808 29.375000,7.4687500 z "
     style="fill:#261933;fill-opacity:1.0000000;fill-rule:evenodd;stroke:none;stroke-width:2.5000000;stroke-linecap:butt;stroke-linejoin:miter;stroke-miterlimit:4.0000000;stroke-opacity:1.0000000;"
     id="path1100"
     transform="matrix(1.017600,0.000000,0.000000,1.017600,-0.768760,-2.117370)" />
  <path
     d="M 12.409029,52.846603 C 6.4931975,52.846603 1.6919426,47.253389 1.6919426,40.361749 C 1.6919426,33.470110 6.4931975,27.876896 12.409029,27.876896 C 18.324861,27.876896 18.324861,52.846603 12.409029,52.846603 z "
     style="fill:url(#linearGradient1123);fill-opacity:1.0000000;stroke:#261933;stroke-width:1.8750000;stroke-linecap:butt;stroke-linejoin:miter;stroke-miterlimit:4.0000000;stroke-opacity:1.0000000;"
     id="path1097"
     transform="matrix(1.017600,0.000000,0.000000,1.017600,-0.768760,-2.117370)" />
  <path
     d="M 46.067080,52.294174 C 51.982912,52.294174 56.784167,46.700960 56.784167,39.809320 C 56.784167,32.917681 51.982912,27.324467 46.067080,27.324467 C 40.151248,27.324467 40.151248,52.294174 46.067080,52.294174 z "
     style="fill:url(#linearGradient1124);fill-opacity:1.0000000;stroke:#261933;stroke-width:1.8750000;stroke-linecap:butt;stroke-linejoin:miter;stroke-miterlimit:4.0000000;stroke-opacity:1.0000000;"
     id="path1099"
     transform="matrix(1.017600,0.000000,0.000000,1.017600,-0.768760,-2.117370)" />
  <path
     d="M 16.753361,42.187500 C 16.753361,40.858194 16.675236,39.211529 16.675236,37.812500 C 16.675236,36.173349 16.536186,34.530668 17.343750,33.125000 C 17.967375,32.039501 18.137380,31.050923 19.218750,30.390625 C 20.361449,29.692879 21.100165,30.610926 21.718750,31.406250 C 23.026240,33.087308 21.835593,36.781072 21.796875,38.828125 C 21.758730,40.766764 21.127249,43.077089 21.250000,45.390625 C 21.346581,47.210939 21.732770,49.969739 23.281250,50.156250 C 25.785368,50.457865 25.395962,49.369663 26.171875,47.734375 C 27.143027,45.687608 25.859375,40.677371 25.859375,38.593750 C 25.859375,36.469104 25.312500,34.478094 25.312500,32.343750 C 25.312500,30.977505 27.508408,29.744710 28.359375,30.000000 C 29.399398,30.312007 30.008301,31.108330 30.312500,32.031250 C 31.597043,35.928461 29.609375,38.773478 29.609375,43.125000 C 29.609375,44.457397 30.843686,47.199978 32.578125,47.031250 C 35.926492,46.705518 35.312500,40.772644 35.312500,36.796875 C 35.312500,34.604357 34.338834,32.812972 34.843750,30.625000 C 35.161392,29.248551 35.488667,28.130083 36.718750,27.890625 C 38.759487,27.493359 39.118326,28.660752 39.609375,29.843750 C 40.324818,31.567341 39.973158,34.824425 39.609375,36.562500 C 39.140625,38.802083 39.062500,41.276041 39.062500,43.671875 C 39.062500,45.064552 38.587125,47.270729 39.375000,47.812500 C 40.469544,48.565147 42.190745,48.484175 42.265625,48.359375"
     style="fill:none;fill-opacity:1.00000000;fill-rule:evenodd;stroke:#261933;stroke-width:1.8750000;stroke-linecap:butt;stroke-linejoin:miter;stroke-miterlimit:4.0000000;stroke-opacity:1.0000000;"
     id="path1738"
     sodipodi:nodetypes="ccccccccccccccccccccccc"
     transform="matrix(1.017600,0.000000,0.000000,1.017600,-0.768760,-2.117370)" />
  <path
     d="M 4.0879611,45.636893 C 3.7040352,45.387341 2.0225486,38.433909 4.7508738,33.814952 C 7.5937014,29.002147 12.094425,28.920785 12.484854,29.174563 C 12.830995,29.399555 10.149570,29.798041 7.0710679,34.477864 C 3.3452179,40.141761 4.4406048,45.866111 4.0879611,45.636893 z "
     style="fill:url(#linearGradient1125);fill-opacity:1.0000000;fill-rule:evenodd;stroke:none;stroke-width:0.25000000pt;stroke-linecap:butt;stroke-linejoin:miter;stroke-opacity:1.0000000;"
     id="path1767"
     transform="matrix(1.017600,0.000000,0.000000,1.017600,-0.768760,-2.117370)" />
  <path
     d="M 43.064438,37.441839 C 42.680512,37.192287 43.687563,30.452670 45.384632,28.934461 C 47.523434,27.021075 50.960416,30.116993 51.350845,30.370771 C 51.696986,30.595763 48.669943,30.089522 46.820942,31.365140 C 45.175276,32.500479 43.417081,37.671057 43.064438,37.441839 z "
     style="fill:url(#linearGradient1126);fill-opacity:1.0000000;fill-rule:evenodd;stroke:none;stroke-width:0.25000000pt;stroke-linecap:butt;stroke-linejoin:miter;stroke-opacity:1.0000000;"
     id="path1772"
     transform="matrix(1.017600,0.000000,0.000000,1.017600,-0.768760,-2.117370)" />
</svg>
