<?xml version="1.0" encoding="UTF-8" standalone="no"?>
<!DOCTYPE svg PUBLIC "-//W3C//DTD SVG 20010904//EN"
"http://www.w3.org/TR/2001/REC-SVG-20010904/DTD/svg10.dtd">
<!-- Created with Inkscape (http://www.inkscape.org/) -->
<svg
   width="48.000000pt"
   height="48.000000pt"
   xmlns="http://www.w3.org/2000/svg"
   xmlns:cc="http://web.resource.org/cc/"
   xmlns:inkscape="http://www.inkscape.org/namespaces/inkscape"
   xmlns:sodipodi="http://sodipodi.sourceforge.net/DTD/sodipodi-0.dtd"
   xmlns:rdf="http://www.w3.org/1999/02/22-rdf-syntax-ns#"
   xmlns:dc="http://purl.org/dc/elements/1.1/"
   xmlns:xlink="http://www.w3.org/1999/xlink"
   id="svg1"
   sodipodi:version="0.32"
   inkscape:version="0.40"
   sodipodi:docbase="/home/pinuz/lila-inkscape/icon theme/dafare"
   sodipodi:docname="beast.svg">
  <defs
     id="defs3">
    <linearGradient
       id="linearGradient3579">
      <stop
         offset="0.0000000"
         style="stop-color:#ffffff;stop-opacity:1.0000000;"
         id="stop3581" />
      <stop
         offset="1.0000000"
         style="stop-color:#d9cce6;stop-opacity:1.0000000;"
         id="stop3580" />
    </linearGradient>
    <linearGradient
       id="linearGradient3576">
      <stop
         offset="0.0000000"
         style="stop-color:#ffffff;stop-opacity:1.0000000;"
         id="stop3578" />
      <stop
         offset="1.0000000"
         style="stop-color:#ffffff;stop-opacity:0.0000000;"
         id="stop3577" />
    </linearGradient>
    <linearGradient
       id="linearGradient3460">
      <stop
         offset="0.0000000"
         style="stop-color:#ffffff;stop-opacity:1.0000000;"
         id="stop3462" />
      <stop
         offset="1.0000000"
         style="stop-color:#d9cce6;stop-opacity:1.0000000;"
         id="stop3461" />
    </linearGradient>
    <linearGradient
       inkscape:collect="always"
       xlink:href="#linearGradient3438"
       id="linearGradient3463"
       gradientUnits="userSpaceOnUse"
       gradientTransform="scale(0.981404,1.018949)"
       x1="5.7649722"
       y1="2.0117230"
       x2="57.383396"
       y2="53.230003" />
    <linearGradient
       inkscape:collect="always"
       xlink:href="#linearGradient3460"
       id="linearGradient3464"
       gradientUnits="userSpaceOnUse"
       gradientTransform="scale(1.033787,0.967317)"
       x1="13.071521"
       y1="2.8869450"
       x2="47.716108"
       y2="36.125331" />
    <linearGradient
       inkscape:collect="always"
       xlink:href="#linearGradient916"
       id="linearGradient3465"
       gradientUnits="userSpaceOnUse"
       gradientTransform="scale(1.321923,0.756474)"
       x1="8.1316384"
       y1="52.728143"
       x2="26.200284"
       y2="70.237448" />
    <linearGradient
       inkscape:collect="always"
       xlink:href="#linearGradient584"
       id="linearGradient3466"
       gradientUnits="userSpaceOnUse"
       gradientTransform="scale(1.062125,0.941509)"
       x1="7.6488083"
       y1="5.8938519"
       x2="44.391609"
       y2="40.466928" />
    <linearGradient
       inkscape:collect="always"
       xlink:href="#linearGradient584"
       id="linearGradient3467"
       gradientUnits="userSpaceOnUse"
       gradientTransform="scale(1.320302,0.757402)"
       x1="10.102079"
       y1="58.750951"
       x2="15.698135"
       y2="58.750951" />
    <linearGradient
       inkscape:collect="always"
       xlink:href="#linearGradient2814"
       id="linearGradient3468"
       x1="2.3435844"
       y1="2.2820689"
       x2="55.475528"
       y2="56.672470"
       gradientUnits="userSpaceOnUse" />
    <linearGradient
       inkscape:collect="always"
       xlink:href="#linearGradient584"
       id="linearGradient3469"
       x1="5.4427566"
       y1="7.3336703"
       x2="45.667449"
       y2="45.183026"
       gradientTransform="scale(1.070410,0.934221)"
       gradientUnits="userSpaceOnUse" />
    <linearGradient
       inkscape:collect="always"
       xlink:href="#linearGradient584"
       id="linearGradient3470"
       gradientTransform="scale(0.880310,1.135964)"
       x1="35.460467"
       y1="13.645152"
       x2="55.558683"
       y2="13.645152"
       gradientUnits="userSpaceOnUse" />
    <linearGradient
       inkscape:collect="always"
       xlink:href="#linearGradient584"
       id="linearGradient3471"
       gradientTransform="scale(0.865842,1.154945)"
       x1="15.243068"
       y1="38.676094"
       x2="34.921941"
       y2="38.676094"
       gradientUnits="userSpaceOnUse" />
    <defs
       id="defs3366">
      <linearGradient
         xlink:href="#linearGradient584"
         id="linearGradient654" />
      <linearGradient
         xlink:href="#linearGradient584"
         id="linearGradient583" />
      <linearGradient
         xlink:href="#linearGradient584"
         id="linearGradient581"
         x1="0.01351351"
         y1="0.04687500"
         x2="0.99324322"
         y2="0.96875000" />
      <linearGradient
         id="linearGradient2814"
         x1="0.0000000"
         y1="0.50000000"
         x2="1.0000000"
         y2="0.50000000"
         gradientUnits="objectBoundingBox"
         spreadMethod="pad"
         xlink:href="#linearGradient3579" />
      <linearGradient
         id="linearGradient578"
         x1="0.0000000"
         y1="0.50000000"
         x2="1.0000000"
         y2="0.50000000"
         gradientUnits="objectBoundingBox"
         spreadMethod="pad"
         xlink:href="#linearGradient2814" />
      <linearGradient
         xlink:href="#linearGradient578"
         id="linearGradient655"
         x1="0.00000000"
         y1="-0.00000000"
         x2="0.96923077"
         y2="0.99218750" />
      <linearGradient
         id="linearGradient584"
         x1="0.0000000"
         y1="0.50000000"
         x2="1.0000000"
         y2="0.50000000"
         gradientUnits="objectBoundingBox"
         spreadMethod="pad"
         xlink:href="#linearGradient3576" />
      <linearGradient
         id="linearGradient916">
        <stop
           style="stop-color:#cccccc;stop-opacity:1;"
           offset="0.00000000"
           id="stop917" />
        <stop
           style="stop-color:#7f7f7f;stop-opacity:1;"
           offset="1.00000000"
           id="stop918" />
      </linearGradient>
      <linearGradient
         id="linearGradient866"
         x1="0.0000000"
         y1="0.50000000"
         x2="1.0000000"
         y2="0.50000000"
         gradientUnits="objectBoundingBox"
         spreadMethod="pad"
         xlink:href="#linearGradient3460" />
      <linearGradient
         id="linearGradient3438">
        <stop
           offset="0.0000000"
           style="stop-color:#d9cce6;stop-opacity:1.0000000;"
           id="stop3440" />
        <stop
           offset="1.0000000"
           style="stop-color:#73667f;stop-opacity:1.0000000;"
           id="stop3439" />
      </linearGradient>
    </defs>
    <sodipodi:namedview
       id="namedview3392"
       pagecolor="#ffffff"
       bordercolor="#666666"
       borderopacity="1.0"
       inkscape:pageopacity="0.0"
       inkscape:pageshadow="2"
       inkscape:zoom="8.0000000"
       inkscape:cx="24.000000"
       inkscape:cy="24.000000"
       inkscape:current-layer="layer1"
       showgrid="true"
       inkscape:grid-bbox="true"
       gridspacingy="1.0000000pt"
       gridspacingx="1.0000000pt"
       gridoriginy="0.0000000pt"
       gridoriginx="0.0000000pt"
       inkscape:window-width="640"
       inkscape:window-height="542"
       inkscape:window-x="0"
       inkscape:window-y="27" />
    <metadata
       id="metadata3393">
      <rdf:RDF
         id="RDF3394">
        <cc:Work
           rdf:about=""
           id="Work3395">
          <dc:format
             id="format3396">image/svg+xml</dc:format>
          <dc:type
             id="type3398"
             rdf:resource="http://purl.org/dc/dcmitype/StillImage" />
        </cc:Work>
      </rdf:RDF>
    </metadata>
    <defs
       id="defs2746">
      <linearGradient
         id="linearGradient2843">
        <stop
           style="stop-color:#ffffff;stop-opacity:1;"
           offset="0.00000000"
           id="stop2844" />
        <stop
           style="stop-color:#ffffff;stop-opacity:0;"
           offset="1.00000000"
           id="stop2845" />
      </linearGradient>
      <linearGradient
         id="linearGradient2846"
         x1="0.0000000"
         y1="0.50000000"
         x2="1.0000000"
         y2="0.50000000"
         gradientUnits="objectBoundingBox"
         spreadMethod="pad"
         xlink:href="#linearGradient2814" />
      <linearGradient
         xlink:href="#linearGradient584"
         id="linearGradient2847"
         x1="0.013513510"
         y1="0.046875000"
         x2="0.99324322"
         y2="0.96875000" />
      <linearGradient
         xlink:href="#linearGradient584"
         id="linearGradient2848" />
      <linearGradient
         xlink:href="#linearGradient584"
         id="linearGradient2849" />
      <linearGradient
         xlink:href="#linearGradient578"
         id="linearGradient2850"
         x1="0.0000000"
         y1="-0.0000000"
         x2="0.96923077"
         y2="0.99218750" />
      <linearGradient
         xlink:href="#linearGradient584"
         id="linearGradient713" />
    </defs>
    <sodipodi:namedview
       id="namedview2758"
       pagecolor="#ffffff"
       bordercolor="#666666"
       borderopacity="1.0"
       inkscape:pageopacity="0.0"
       inkscape:pageshadow="2"
       inkscape:zoom="5.64233871"
       inkscape:cx="23.0963011"
       inkscape:cy="23.9821367"
       inkscape:window-width="640"
       inkscape:window-height="516"
       inkscape:window-x="96"
       inkscape:window-y="127" />
    <linearGradient
       inkscape:collect="always"
       xlink:href="#linearGradient3579"
       id="linearGradient3585"
       gradientTransform="scale(1.089843,0.917563)"
       x1="-8.6705389"
       y1="48.555580"
       x2="12.371960"
       y2="48.555580"
       gradientUnits="userSpaceOnUse" />
    <linearGradient
       inkscape:collect="always"
       xlink:href="#linearGradient3579"
       id="linearGradient3588"
       gradientUnits="userSpaceOnUse"
       gradientTransform="matrix(0.388397,0.570935,-0.480683,0.327000,44.80488,-1.647748)"
       x1="-8.6705389"
       y1="48.555580"
       x2="12.371960"
       y2="48.555580" />
    <linearGradient
       inkscape:collect="always"
       xlink:href="#linearGradient3579"
       id="linearGradient3592"
       gradientUnits="userSpaceOnUse"
       gradientTransform="scale(1.089843,0.917563)"
       x1="-8.6705389"
       y1="48.555580"
       x2="12.371960"
       y2="48.555580" />
    <linearGradient
       inkscape:collect="always"
       xlink:href="#linearGradient3579"
       id="linearGradient3599"
       gradientUnits="userSpaceOnUse"
       gradientTransform="matrix(0.388397,0.570935,-0.480683,0.327000,44.80488,-1.647748)"
       x1="-8.6705389"
       y1="48.555580"
       x2="12.371960"
       y2="48.555580" />
    <linearGradient
       inkscape:collect="always"
       xlink:href="#linearGradient3579"
       id="linearGradient3603"
       gradientUnits="userSpaceOnUse"
       gradientTransform="matrix(0.388397,0.570935,-0.480683,0.327000,44.80488,-1.647748)"
       x1="-8.6705389"
       y1="48.555580"
       x2="12.371960"
       y2="48.555580" />
    <linearGradient
       inkscape:collect="always"
       xlink:href="#linearGradient3579"
       id="linearGradient3612"
       gradientUnits="userSpaceOnUse"
       gradientTransform="matrix(0.712278,1.047032,-0.881520,0.599681,2.368186,-0.514431)"
       x1="2.8569069"
       y1="-3.4128399"
       x2="29.712610"
       y2="-10.619188" />
    <linearGradient
       inkscape:collect="always"
       xlink:href="#linearGradient3579"
       id="linearGradient3613"
       gradientUnits="userSpaceOnUse"
       gradientTransform="matrix(1.266339,0.000000,0.000000,1.066159,12.66311,-16.05040)"
       x1="-17.980253"
       y1="29.495342"
       x2="10.459007"
       y2="57.399521" />
    <linearGradient
       inkscape:collect="always"
       xlink:href="#linearGradient3579"
       id="linearGradient3614"
       gradientUnits="userSpaceOnUse"
       gradientTransform="matrix(-0.198194,1.250733,-1.053019,-0.166865,37.87464,-8.509812)"
       x1="10.273926"
       y1="5.2128782"
       x2="28.343527"
       y2="-18.312628" />
    <linearGradient
       inkscape:collect="always"
       xlink:href="#linearGradient3579"
       id="linearGradient3615"
       gradientUnits="userSpaceOnUse"
       gradientTransform="matrix(-0.586972,0.817746,-0.688477,-0.494185,57.68522,10.54787)"
       x1="22.669722"
       y1="4.2183795"
       x2="23.464621"
       y2="-20.537476" />
    <linearGradient
       inkscape:collect="always"
       xlink:href="#linearGradient3576"
       id="linearGradient3637"
       gradientTransform="matrix(0.916747,0.000000,0.000000,1.090813,0.108014,0.216027)"
       x1="4.8138986"
       y1="32.130939"
       x2="19.440744"
       y2="32.130939"
       gradientUnits="userSpaceOnUse" />
    <linearGradient
       inkscape:collect="always"
       xlink:href="#linearGradient3576"
       id="linearGradient3639"
       gradientUnits="userSpaceOnUse"
       gradientTransform="matrix(0.445872,0.801014,-0.953105,0.530532,0.000000,0.000000)"
       x1="21.868263"
       y1="-8.1638918"
       x2="41.483341"
       y2="-23.009855" />
    <linearGradient
       inkscape:collect="always"
       xlink:href="#linearGradient3576"
       id="linearGradient3641"
       gradientUnits="userSpaceOnUse"
       gradientTransform="matrix(-0.219493,0.890083,-1.059087,-0.261168,35.82808,-9.556878)"
       x1="21.868263"
       y1="-8.1638918"
       x2="41.483341"
       y2="-23.009855" />
    <linearGradient
       inkscape:collect="always"
       xlink:href="#linearGradient3576"
       id="linearGradient3643"
       gradientUnits="userSpaceOnUse"
       gradientTransform="matrix(-0.420400,0.522037,-0.715376,-0.434340,54.16924,11.74696)"
       x1="21.868263"
       y1="-8.1638918"
       x2="41.483341"
       y2="-23.009855" />
    <linearGradient
       inkscape:collect="always"
       xlink:href="#linearGradient3576"
       id="linearGradient3645"
       gradientUnits="userSpaceOnUse"
       gradientTransform="scale(0.916747,1.090813)"
       x1="16.544565"
       y1="30.198935"
       x2="29.558775"
       y2="40.613300" />
    <linearGradient
       inkscape:collect="always"
       xlink:href="#linearGradient3576"
       id="linearGradient3647"
       gradientUnits="userSpaceOnUse"
       gradientTransform="matrix(0.480847,0.780520,-0.928720,0.572146,0.000000,0.000000)"
       x1="31.350353"
       y1="-2.3799789"
       x2="46.134682"
       y2="-13.531707" />
    <linearGradient
       inkscape:collect="always"
       xlink:href="#linearGradient3576"
       id="linearGradient3649"
       gradientUnits="userSpaceOnUse"
       gradientTransform="matrix(-0.210638,0.892220,-1.061628,-0.250633,37.07573,-9.726822)"
       x1="31.350353"
       y1="-2.3799789"
       x2="46.134682"
       y2="-13.531707" />
    <linearGradient
       inkscape:collect="always"
       xlink:href="#linearGradient3576"
       id="linearGradient3651"
       gradientUnits="userSpaceOnUse"
       gradientTransform="matrix(-0.581218,0.708951,-0.843561,-0.691575,59.55206,2.516504)"
       x1="31.350353"
       y1="-2.3799789"
       x2="46.134682"
       y2="-13.531707" />
    <linearGradient
       inkscape:collect="always"
       xlink:href="#linearGradient3579"
       id="linearGradient3660"
       gradientUnits="userSpaceOnUse"
       gradientTransform="matrix(-0.198194,1.250733,-1.053019,-0.166865,58.65757,6.714591)"
       x1="10.273926"
       y1="5.2128782"
       x2="28.343527"
       y2="-18.312628" />
    <linearGradient
       inkscape:collect="always"
       xlink:href="#linearGradient3579"
       id="linearGradient3661"
       gradientUnits="userSpaceOnUse"
       gradientTransform="matrix(-0.586972,0.817746,-0.688477,-0.494185,78.46815,25.77227)"
       x1="22.669722"
       y1="4.2183795"
       x2="23.464621"
       y2="-20.537476" />
    <linearGradient
       inkscape:collect="always"
       xlink:href="#linearGradient3579"
       id="linearGradient3662"
       gradientUnits="userSpaceOnUse"
       gradientTransform="matrix(1.266339,0.000000,0.000000,1.066159,33.44604,-0.825997)"
       x1="-17.980253"
       y1="29.495342"
       x2="10.459007"
       y2="57.399521" />
    <linearGradient
       inkscape:collect="always"
       xlink:href="#linearGradient3579"
       id="linearGradient3663"
       gradientUnits="userSpaceOnUse"
       gradientTransform="matrix(0.712278,1.047032,-0.881520,0.599681,23.15111,14.70997)"
       x1="2.8569069"
       y1="-3.4128399"
       x2="29.712610"
       y2="-10.619188" />
    <linearGradient
       inkscape:collect="always"
       xlink:href="#linearGradient3579"
       id="linearGradient3699"
       gradientUnits="userSpaceOnUse"
       gradientTransform="matrix(0.712278,1.047032,-0.881520,0.599681,2.368186,-0.514431)"
       x1="2.8569069"
       y1="-3.4128399"
       x2="29.712610"
       y2="-10.619188" />
    <linearGradient
       inkscape:collect="always"
       xlink:href="#linearGradient3579"
       id="linearGradient3700"
       gradientUnits="userSpaceOnUse"
       gradientTransform="matrix(1.266339,0.000000,0.000000,1.066159,12.66311,-16.05040)"
       x1="-17.980253"
       y1="29.495342"
       x2="10.459007"
       y2="57.399521" />
    <linearGradient
       inkscape:collect="always"
       xlink:href="#linearGradient3579"
       id="linearGradient3701"
       gradientUnits="userSpaceOnUse"
       gradientTransform="matrix(-0.586972,0.817746,-0.688477,-0.494185,57.68522,10.54787)"
       x1="22.669722"
       y1="4.2183795"
       x2="23.464621"
       y2="-20.537476" />
    <linearGradient
       inkscape:collect="always"
       xlink:href="#linearGradient3579"
       id="linearGradient3702"
       gradientUnits="userSpaceOnUse"
       gradientTransform="matrix(-0.198194,1.250733,-1.053019,-0.166865,37.87464,-8.509812)"
       x1="10.273926"
       y1="5.2128782"
       x2="28.343527"
       y2="-18.312628" />
    <linearGradient
       inkscape:collect="always"
       xlink:href="#linearGradient3576"
       id="linearGradient3703"
       gradientUnits="userSpaceOnUse"
       gradientTransform="matrix(0.916747,0.000000,0.000000,1.090813,0.108014,0.216027)"
       x1="4.8138986"
       y1="32.130939"
       x2="19.440744"
       y2="32.130939" />
    <linearGradient
       inkscape:collect="always"
       xlink:href="#linearGradient3576"
       id="linearGradient3704"
       gradientUnits="userSpaceOnUse"
       gradientTransform="matrix(0.445872,0.801014,-0.953105,0.530532,-3.077711e-16,-6.318731e-16)"
       x1="21.868263"
       y1="-8.1638918"
       x2="41.483341"
       y2="-23.009855" />
    <linearGradient
       inkscape:collect="always"
       xlink:href="#linearGradient3576"
       id="linearGradient3705"
       gradientUnits="userSpaceOnUse"
       gradientTransform="matrix(-0.219493,0.890083,-1.059087,-0.261168,35.82808,-9.556878)"
       x1="21.868263"
       y1="-8.1638918"
       x2="41.483341"
       y2="-23.009855" />
    <linearGradient
       inkscape:collect="always"
       xlink:href="#linearGradient3576"
       id="linearGradient3706"
       gradientUnits="userSpaceOnUse"
       gradientTransform="matrix(-0.420400,0.522037,-0.715376,-0.434340,54.16924,11.74696)"
       x1="21.868263"
       y1="-8.1638918"
       x2="41.483341"
       y2="-23.009855" />
    <linearGradient
       inkscape:collect="always"
       xlink:href="#linearGradient3576"
       id="linearGradient3707"
       gradientUnits="userSpaceOnUse"
       gradientTransform="scale(0.916747,1.090813)"
       x1="16.544565"
       y1="30.198935"
       x2="29.558775"
       y2="40.613300" />
    <linearGradient
       inkscape:collect="always"
       xlink:href="#linearGradient3576"
       id="linearGradient3708"
       gradientUnits="userSpaceOnUse"
       gradientTransform="matrix(0.480847,0.780520,-0.928720,0.572146,-3.077711e-16,-6.318731e-16)"
       x1="31.350353"
       y1="-2.3799789"
       x2="46.134682"
       y2="-13.531707" />
    <linearGradient
       inkscape:collect="always"
       xlink:href="#linearGradient3576"
       id="linearGradient3709"
       gradientUnits="userSpaceOnUse"
       gradientTransform="matrix(-0.210638,0.892220,-1.061628,-0.250633,37.07573,-9.726822)"
       x1="31.350353"
       y1="-2.3799789"
       x2="46.134682"
       y2="-13.531707" />
    <linearGradient
       inkscape:collect="always"
       xlink:href="#linearGradient3576"
       id="linearGradient3710"
       gradientUnits="userSpaceOnUse"
       gradientTransform="matrix(-0.581218,0.708951,-0.843561,-0.691575,59.55206,2.516504)"
       x1="31.350353"
       y1="-2.3799789"
       x2="46.134682"
       y2="-13.531707" />
  </defs>
  <sodipodi:namedview
     id="base"
     pagecolor="#ffffff"
     bordercolor="#666666"
     borderopacity="1.0"
     inkscape:pageopacity="0.0"
     inkscape:pageshadow="2"
     inkscape:zoom="9.3631285"
     inkscape:cx="39.499999"
     inkscape:cy="20.750000"
     inkscape:current-layer="layer1"
     inkscape:window-width="1400"
     inkscape:window-height="1002"
     inkscape:window-x="0"
     inkscape:window-y="27" />
  <metadata
     id="metadata4">
    <rdf:RDF
       id="RDF5">
      <cc:Work
         rdf:about=""
         id="Work6">
        <dc:format
           id="format7">image/svg+xml</dc:format>
        <dc:type
           id="type9"
           rdf:resource="http://purl.org/dc/dcmitype/StillImage" />
      </cc:Work>
    </rdf:RDF>
  </metadata>
  <g
     inkscape:label="Layer 1"
     inkscape:groupmode="layer"
     id="layer1">
    <g
       id="g3664"
       style="opacity:0.29999998;fill:#000000;fill-opacity:1.0000000;stroke:none;stroke-opacity:1.0000000;"
       transform="matrix(1.043527,0.000000,0.000000,1.043527,-21.95697,-16.86654)">
      <path
         style="fill-rule:evenodd;stroke-width:1.1503209;stroke-linecap:round;stroke-linejoin:round;stroke-miterlimit:4.0000000"
         d="M 52.825948,27.051420 C 53.703581,30.430738 54.098451,33.916423 53.928461,36.898179 C 53.835336,38.599246 53.073097,39.586770 51.654460,39.745609 L 48.060235,40.148045 C 46.641597,40.306885 46.004788,39.599378 45.212804,37.874045 C 44.009291,34.408960 43.923935,31.178905 44.110292,28.027284 C 44.299349,25.926122 44.965655,25.338693 46.384293,25.179853 L 49.978518,24.777419 C 51.397154,24.618578 52.281412,25.229021 52.825948,27.051420 z "
         id="path3652"
         sodipodi:nodetypes="ccccccccc" />
      <path
         style="fill-rule:evenodd;stroke-width:0.25000000pt;stroke-linecap:butt;stroke-linejoin:miter"
         d="M 47.195933,37.892834 C 47.140960,36.483778 51.474938,36.113653 52.108490,37.283195 C 53.221794,38.681491 51.282677,53.041620 50.283584,52.388995 C 49.600494,52.853691 46.777206,39.398953 47.195933,37.892834 z "
         id="path3653"
         sodipodi:nodetypes="cccc" />
      <path
         style="fill-rule:evenodd;stroke-width:1.8155410;stroke-linecap:round;stroke-linejoin:round;stroke-miterlimit:4.0000000"
         d="M 32.176597,41.042502 C 37.365578,42.897189 42.264797,45.476289 46.004958,48.345150 C 48.142110,49.976781 48.754116,51.848137 47.702013,53.840409 L 45.036429,58.887982 C 43.984326,60.880253 41.823205,62.071786 39.541170,60.585037 C 34.497070,57.426411 30.467145,55.137077 25.712808,53.282389 C 22.996128,52.230286 22.963651,49.779401 24.015754,47.787130 L 26.681337,42.739557 C 27.733441,40.747285 29.315033,40.135282 32.176597,41.042502 z "
         id="path3654"
         sodipodi:nodetypes="ccccccccc" />
      <path
         style="fill-rule:evenodd;stroke-width:0.25000000pt;stroke-linecap:butt;stroke-linejoin:miter"
         d="M 40.581650,57.529726 C 39.567477,55.066731 42.803091,50.850438 44.891725,51.061930 C 47.704769,50.850438 64.722707,66.128993 62.984122,66.853404 C 62.984122,68.157341 42.175354,59.413193 40.581650,57.529726 z "
         id="path3655"
         sodipodi:nodetypes="cccc" />
      <path
         style="fill-rule:evenodd;stroke-width:0.91437882;stroke-linecap:round;stroke-linejoin:round;stroke-miterlimit:4.0000000"
         d="M 77.363083,51.295239 C 75.080319,52.873614 72.586262,54.120683 70.314047,54.808427 C 69.018819,55.203656 68.073418,54.904472 67.567269,53.888906 L 66.284898,51.315895 C 65.778748,50.300329 66.380466,49.520720 67.204420,48.569118 C 69.372077,46.826906 71.643797,45.850406 74.253457,45.055928 C 75.936315,44.707932 76.494085,44.959884 77.000236,45.975449 L 78.282605,48.548461 C 78.788756,49.564026 78.574667,50.390869 77.363083,51.295239 z "
         id="path3656"
         sodipodi:nodetypes="ccccccccc" />
      <path
         style="fill-rule:evenodd;stroke-width:0.25000000pt;stroke-linecap:butt;stroke-linejoin:miter"
         d="M 67.981253,50.036592 C 69.286834,50.344984 70.229347,52.762624 69.529416,53.555074 C 68.789802,54.768140 57.540702,57.243946 57.754905,56.319858 C 57.221400,55.936913 66.742591,50.135509 67.981253,50.036592 z "
         id="path3657"
         sodipodi:nodetypes="cccc" />
      <path
         style="fill-rule:evenodd;stroke-width:1.1503203;stroke-linecap:round;stroke-linejoin:round;stroke-miterlimit:4.0000000"
         d="M 71.825356,36.032088 C 70.150155,39.095375 68.050360,41.905495 65.884173,43.961556 C 64.651188,45.137162 63.419426,45.334578 62.277017,44.478622 L 59.382634,42.309996 C 58.240224,41.454040 58.011912,40.134993 58.865567,38.702840 C 60.584813,35.404978 62.265561,33.110117 64.806752,30.773372 C 66.189086,29.783697 67.271497,29.400351 68.413907,30.256305 L 71.308290,32.424933 C 72.450699,33.280888 72.676847,34.331320 71.825356,36.032088 z "
         id="path3658"
         sodipodi:nodetypes="ccccccccc" />
      <path
         style="fill-rule:evenodd;stroke-width:0.25000000pt;stroke-linecap:butt;stroke-linejoin:miter"
         d="M 60.613265,40.074653 C 62.255149,39.684233 64.756880,41.709431 64.417414,42.995501 C 64.270811,44.776843 53.145086,54.034370 52.864161,52.874549 C 52.048174,52.745246 59.276576,40.885201 60.613265,40.074653 z "
         id="path3659"
         sodipodi:nodetypes="cccc" />
    </g>
    <path
       style="fill:url(#linearGradient3699);fill-opacity:1.0000000;fill-rule:evenodd;stroke:#261933;stroke-width:1.1503209;stroke-linecap:round;stroke-linejoin:round;stroke-miterlimit:4.0000000;stroke-opacity:1.0000000;"
       d="M 32.043021,11.827017 C 32.920654,15.206335 33.315524,18.692020 33.145534,21.673776 C 33.052409,23.374843 32.290170,24.362367 30.871533,24.521206 L 27.277308,24.923642 C 25.858670,25.082482 25.221861,24.374975 24.429877,22.649642 C 23.226364,19.184557 23.141008,15.954502 23.327365,12.802881 C 23.516422,10.701719 24.182728,10.114290 25.601366,9.9554499 L 29.195591,9.5530157 C 30.614227,9.3941753 31.498485,10.004618 32.043021,11.827017 z "
       id="path3586"
       sodipodi:nodetypes="ccccccccc"
       transform="matrix(1.043527,0.000000,0.000000,1.043527,-1.756535,-2.377946)" />
    <path
       style="fill:#261933;fill-opacity:1.0000000;fill-rule:evenodd;stroke:none;stroke-width:0.25000000pt;stroke-linecap:butt;stroke-linejoin:miter;stroke-opacity:1.0000000;"
       d="M 26.413006,22.668431 C 26.358033,21.259375 30.692011,20.889250 31.325563,22.058792 C 32.438867,23.457088 30.499750,37.817217 29.500657,37.164592 C 28.817567,37.629288 25.994279,24.174550 26.413006,22.668431 z "
       id="path3587"
       sodipodi:nodetypes="cccc"
       transform="matrix(1.043527,0.000000,0.000000,1.043527,-1.756535,-2.377946)" />
    <path
       style="fill:url(#linearGradient3700);fill-opacity:1.0000000;fill-rule:evenodd;stroke:#261933;stroke-width:1.8155410;stroke-linecap:round;stroke-linejoin:round;stroke-miterlimit:4.0000000;stroke-opacity:1.0000000;"
       d="M 11.393670,25.818099 C 16.582651,27.672786 21.481870,30.251886 25.222031,33.120747 C 27.359183,34.752378 27.971189,36.623734 26.919086,38.616006 L 24.253502,43.663579 C 23.201399,45.655850 21.040278,46.847383 18.758243,45.360634 C 13.714143,42.202008 9.6842182,39.912674 4.9298818,38.057986 C 2.2132011,37.005883 2.1807247,34.554998 3.2328271,32.562727 L 5.8984109,27.515154 C 6.9505142,25.522882 8.5321067,24.910879 11.393670,25.818099 z "
       id="rect2737"
       sodipodi:nodetypes="ccccccccc"
       transform="matrix(1.043527,0.000000,0.000000,1.043527,-1.756535,-2.377946)" />
    <path
       style="fill:#261933;fill-opacity:1.0000000;fill-rule:evenodd;stroke:none;stroke-width:0.25000000pt;stroke-linecap:butt;stroke-linejoin:miter;stroke-opacity:1.0000000;"
       d="M 19.798723,42.305323 C 18.784550,39.842328 22.020164,35.626035 24.108798,35.837527 C 26.921842,35.626035 43.939780,50.904590 42.201195,51.629001 C 42.201195,52.932938 21.392427,44.188790 19.798723,42.305323 z "
       id="path3364"
       sodipodi:nodetypes="cccc"
       transform="matrix(1.043527,0.000000,0.000000,1.043527,-1.756535,-2.377946)" />
    <path
       style="fill:url(#linearGradient3701);fill-opacity:1.0000000;fill-rule:evenodd;stroke:#261933;stroke-width:0.91437882;stroke-linecap:round;stroke-linejoin:round;stroke-miterlimit:4.0000000;stroke-opacity:1.0000000;"
       d="M 56.580156,36.070836 C 54.297392,37.649211 51.803335,38.896280 49.531120,39.584024 C 48.235892,39.979253 47.290491,39.680069 46.784342,38.664503 L 45.501971,36.091492 C 44.995821,35.075926 45.597539,34.296317 46.421493,33.344715 C 48.589150,31.602503 50.860870,30.626003 53.470530,29.831525 C 55.153388,29.483529 55.711158,29.735481 56.217309,30.751046 L 57.499678,33.324058 C 58.005829,34.339623 57.791740,35.166466 56.580156,36.070836 z "
       id="path3597"
       sodipodi:nodetypes="ccccccccc"
       transform="matrix(1.043527,0.000000,0.000000,1.043527,-1.756535,-2.377946)" />
    <path
       style="fill:#261933;fill-opacity:1.0000000;fill-rule:evenodd;stroke:none;stroke-width:0.25000000pt;stroke-linecap:butt;stroke-linejoin:miter;stroke-opacity:1.0000000;"
       d="M 47.198326,34.812189 C 48.503907,35.120581 49.446420,37.538221 48.746489,38.330671 C 48.006875,39.543737 36.757775,42.019543 36.971978,41.095455 C 36.438473,40.712510 45.959664,34.911106 47.198326,34.812189 z "
       id="path3598"
       sodipodi:nodetypes="cccc"
       transform="matrix(1.043527,0.000000,0.000000,1.043527,-1.756535,-2.377946)" />
    <path
       style="fill:url(#linearGradient3702);fill-opacity:1.0000000;fill-rule:evenodd;stroke:#261933;stroke-width:1.1503203;stroke-linecap:round;stroke-linejoin:round;stroke-miterlimit:4.0000000;stroke-opacity:1.0000000;"
       d="M 51.042429,20.807685 C 49.367228,23.870972 47.267433,26.681092 45.101246,28.737153 C 43.868261,29.912759 42.636499,30.110175 41.494090,29.254219 L 38.599707,27.085593 C 37.457297,26.229637 37.228985,24.910590 38.082640,23.478437 C 39.801886,20.180575 41.482634,17.885714 44.023825,15.548969 C 45.406159,14.559294 46.488570,14.175948 47.630980,15.031902 L 50.525363,17.200530 C 51.667772,18.056485 51.893920,19.106917 51.042429,20.807685 z "
       id="path3601"
       sodipodi:nodetypes="ccccccccc"
       transform="matrix(1.043527,0.000000,0.000000,1.043527,-1.756535,-2.377946)" />
    <path
       style="fill:#261933;fill-opacity:1.0000000;fill-rule:evenodd;stroke:none;stroke-width:0.25000000pt;stroke-linecap:butt;stroke-linejoin:miter;stroke-opacity:1.0000000;"
       d="M 39.830338,24.850250 C 41.472222,24.459830 43.973953,26.485028 43.634487,27.771098 C 43.487884,29.552440 32.362159,38.809967 32.081234,37.650146 C 31.265247,37.520843 38.493649,25.660798 39.830338,24.850250 z "
       id="path3602"
       sodipodi:nodetypes="cccc"
       transform="matrix(1.043527,0.000000,0.000000,1.043527,-1.756535,-2.377946)" />
    <path
       style="fill:url(#linearGradient3703);fill-opacity:1.0000000;fill-rule:evenodd;stroke:none;stroke-width:0.25000000pt;stroke-linecap:butt;stroke-linejoin:miter;stroke-opacity:1.0000000;"
       d="M 18.362316,42.594376 C 13.892609,40.048340 7.1237557,37.471444 4.5211417,35.604351 C 5.0303488,31.983323 6.5579700,29.720180 8.5947983,27.287302 C 8.3684841,29.720180 7.4632271,31.474116 7.9158556,34.585937 C 10.235577,37.131973 15.024181,39.708869 18.362316,42.594376 z "
       id="path3633"
       sodipodi:nodetypes="ccccc"
       transform="matrix(1.043527,0.000000,0.000000,1.043527,-1.756535,-2.377946)" />
    <path
       style="fill:url(#linearGradient3704);fill-opacity:1.0000000;fill-rule:evenodd;stroke:none;stroke-width:0.25000000pt;stroke-linecap:butt;stroke-linejoin:miter;stroke-opacity:1.0000000;"
       d="M 25.971943,23.664636 C 24.168461,20.667313 23.928629,14.094849 24.488723,11.392028 C 25.503452,10.866178 26.611971,10.909300 28.084184,10.862368 C 26.640493,11.498727 25.582665,12.186891 25.805374,14.175623 C 25.097422,16.283977 26.551589,20.875088 25.971943,23.664636 z "
       id="path3638"
       sodipodi:nodetypes="ccccc"
       transform="matrix(1.043527,0.000000,0.000000,1.043527,-1.756535,-2.377946)" />
    <path
       style="fill:url(#linearGradient3705);fill-opacity:1.0000000;fill-rule:evenodd;stroke:none;stroke-width:0.25000000pt;stroke-linecap:butt;stroke-linejoin:miter;stroke-opacity:1.0000000;"
       d="M 38.711340,25.460882 C 39.433806,22.038232 43.736863,17.064450 45.988542,15.467925 C 47.089540,15.774512 47.871476,16.561436 48.980962,17.530278 C 47.490706,17.012270 46.247559,16.795113 45.055403,18.402414 C 43.100588,19.463098 41.036425,23.814205 38.711340,25.460882 z "
       id="path3640"
       sodipodi:nodetypes="ccccc"
       transform="matrix(1.043527,0.000000,0.000000,1.043527,-1.756535,-2.377946)" />
    <path
       style="fill:url(#linearGradient3706);fill-opacity:1.0000000;fill-rule:evenodd;stroke:none;stroke-width:0.25000000pt;stroke-linecap:butt;stroke-linejoin:miter;stroke-opacity:1.0000000;"
       d="M 46.228900,35.167639 C 47.754724,33.129823 52.400662,30.982615 54.541778,30.511225 C 55.275351,30.985496 53.056460,31.652380 51.703213,32.395910 C 49.938158,32.594253 48.439272,34.682110 46.228900,35.167639 z "
       id="path3642"
       sodipodi:nodetypes="cccc"
       transform="matrix(1.043527,0.000000,0.000000,1.043527,-1.756535,-2.377946)" />
    <path
       style="fill:url(#linearGradient3707);fill-opacity:1.0000000;fill-rule:evenodd;stroke:none;stroke-width:0.25000000pt;stroke-linecap:butt;stroke-linejoin:miter;stroke-opacity:1.0000000;"
       d="M 27.415236,45.316962 C 24.043153,43.885676 21.118619,42.454471 20.774364,41.704821 C 20.559422,39.170545 21.877463,37.202593 24.805165,36.558873 C 23.429372,38.370158 22.997207,39.613304 23.214321,40.824752 C 23.326769,41.857358 24.343883,42.662063 27.415236,45.316962 z "
       id="path3644"
       sodipodi:nodetypes="ccccc"
       transform="matrix(1.043527,0.000000,0.000000,1.043527,-1.756535,-2.377946)" />
    <path
       style="fill:url(#linearGradient3708);fill-opacity:1.0000000;fill-rule:evenodd;stroke:none;stroke-width:0.25000000pt;stroke-linecap:butt;stroke-linejoin:miter;stroke-opacity:1.0000000;"
       d="M 29.135149,35.660005 C 27.984568,32.724253 26.378572,23.419234 26.840310,22.571046 C 27.761619,21.523200 29.964533,21.424381 31.193047,22.148846 C 30.158883,22.660434 28.111574,22.375191 27.988923,23.734427 C 27.539867,25.297646 29.112735,33.298370 29.135149,35.660005 z "
       id="path3646"
       sodipodi:nodetypes="ccccc"
       transform="matrix(1.043527,0.000000,0.000000,1.043527,-1.756535,-2.377946)" />
    <path
       style="fill:url(#linearGradient3709);fill-opacity:1.0000000;fill-rule:evenodd;stroke:none;stroke-width:0.25000000pt;stroke-linecap:butt;stroke-linejoin:miter;stroke-opacity:1.0000000;"
       d="M 32.476011,37.113067 C 33.734226,34.221809 39.218146,25.482544 40.144016,25.207972 C 41.536291,25.116526 43.165966,26.602040 43.524337,27.982499 C 42.430803,27.614529 41.182501,25.966932 40.135887,26.842812 C 38.714111,27.632657 34.127702,35.424950 32.476011,37.113067 z "
       id="path3648"
       sodipodi:nodetypes="ccccc"
       transform="matrix(1.043527,0.000000,0.000000,1.043527,-1.756535,-2.377946)" />
    <path
       style="fill:url(#linearGradient3710);fill-opacity:1.0000000;fill-rule:evenodd;stroke:none;stroke-width:0.25000000pt;stroke-linecap:butt;stroke-linejoin:miter;stroke-opacity:1.0000000;"
       d="M 37.584957,40.895686 C 39.985508,38.851224 46.007359,35.086891 46.959715,35.247021 C 47.894884,35.725755 47.000181,36.334250 46.234144,36.712052 C 44.609922,36.796922 39.810373,40.104898 37.584957,40.895686 z "
       id="path3650"
       sodipodi:nodetypes="cccc"
       transform="matrix(1.043527,0.000000,0.000000,1.043527,-1.756535,-2.377946)" />
  </g>
  <g
     id="g3399"
     inkscape:label="Layer 1"
     inkscape:groupmode="layer" />
</svg>
