<?xml version="1.0" encoding="UTF-8" standalone="no"?>
<!DOCTYPE svg PUBLIC "-//W3C//DTD SVG 1.0//EN"
"http://www.w3.org/TR/2001/REC-SVG-20010904/DTD/svg10.dtd">
<!-- Created with Inkscape (http://www.inkscape.org/) -->
<svg
   xmlns="http://www.w3.org/2000/svg"
   xmlns:xlink="http://www.w3.org/1999/xlink"
   version="1.0"
   x="0.0000000"
   y="0.0000000"
   width="60.000000"
   height="60.000000"
   id="svg1">
  <defs
     id="defs3">
    <linearGradient
       id="linearGradient590">
      <stop
         style="stop-color:#ffffff;stop-opacity:1.0000000;"
         offset="0.0000000"
         id="stop591" />
      <stop
         style="stop-color:#d9cce6;stop-opacity:1.0000000;"
         offset="1.0000000"
         id="stop592" />
    </linearGradient>
    <linearGradient
       id="linearGradient573">
      <stop
         style="stop-color:#ffffff;stop-opacity:1.0000000;"
         offset="0.0000000"
         id="stop574" />
      <stop
         style="stop-color:#ffffff;stop-opacity:0.0000000;"
         offset="1.0000000"
         id="stop575" />
    </linearGradient>
    <linearGradient
       id="linearGradient564">
      <stop
         style="stop-color:#d9cce6;stop-opacity:1.0000000;"
         offset="0.0000000"
         id="stop565" />
      <stop
         style="stop-color:#73667f;stop-opacity:1.0000000;"
         offset="1.0000000"
         id="stop566" />
    </linearGradient>
    <linearGradient
       x1="275.58652"
       y1="70.210632"
       x2="552.61499"
       y2="346.92993"
       id="linearGradient567"
       xlink:href="#linearGradient564"
       gradientUnits="userSpaceOnUse"
       gradientTransform="matrix(8.519944e-2,0.000000,0.000000,0.132768,-3.850390,-5.248229)" />
    <linearGradient
       x1="125.42768"
       y1="517.06696"
       x2="243.32468"
       y2="635.67969"
       id="linearGradient569"
       xlink:href="#linearGradient564"
       gradientUnits="userSpaceOnUse"
       gradientTransform="matrix(0.121644,0.000000,0.000000,9.298844e-2,-3.850390,-5.248229)" />
    <linearGradient
       x1="300.08640"
       y1="100.54506"
       x2="396.24155"
       y2="248.50636"
       id="linearGradient572"
       xlink:href="#linearGradient573"
       gradientUnits="userSpaceOnUse"
       gradientTransform="matrix(9.300060e-2,0.000000,0.000000,0.121631,-3.850390,-5.248243)" />
    <linearGradient
       x1="142.98250"
       y1="572.34644"
       x2="180.48210"
       y2="615.49744"
       id="linearGradient577"
       xlink:href="#linearGradient573"
       gradientUnits="userSpaceOnUse"
       gradientTransform="matrix(0.127357,0.000000,0.000000,8.881839e-2,-3.850390,-5.248243)" />
    <linearGradient
       x1="2.7472699"
       y1="1.8352425"
       x2="61.176895"
       y2="51.219109"
       id="linearGradient589"
       xlink:href="#linearGradient590"
       gradientUnits="userSpaceOnUse"
       gradientTransform="matrix(1.035329,8.782627e-2,-8.583272e-2,1.039695,-2.202572,-1.721402)" />
    <linearGradient
       id="linearGradient594"
       xlink:href="#linearGradient590" />
    <linearGradient
       x1="142.98250"
       y1="572.34644"
       x2="180.48210"
       y2="615.49744"
       id="linearGradient3036"
       xlink:href="#linearGradient573"
       gradientUnits="userSpaceOnUse"
       gradientTransform="matrix(0.148711,0.000000,0.000000,0.103711,8.279835,7.555083)" />
    <linearGradient
       x1="300.08640"
       y1="100.54506"
       x2="396.24155"
       y2="248.50636"
       id="linearGradient3037"
       xlink:href="#linearGradient573"
       gradientUnits="userSpaceOnUse"
       gradientTransform="matrix(0.108594,0.000000,0.000000,0.142025,8.279835,7.555083)" />
    <linearGradient
       x1="125.42768"
       y1="517.06696"
       x2="243.32468"
       y2="635.67969"
       id="linearGradient3038"
       xlink:href="#linearGradient564"
       gradientUnits="userSpaceOnUse"
       gradientTransform="matrix(0.142041,0.000000,0.000000,0.108580,8.279834,7.555093)" />
    <linearGradient
       x1="275.58652"
       y1="70.210632"
       x2="552.61499"
       y2="346.92993"
       id="linearGradient3039"
       xlink:href="#linearGradient564"
       gradientUnits="userSpaceOnUse"
       gradientTransform="matrix(9.948500e-2,0.000000,0.000000,0.155029,8.279834,7.555093)" />
    <linearGradient
       x1="2.7472699"
       y1="1.8352425"
       x2="61.176895"
       y2="51.219109"
       id="linearGradient3040"
       xlink:href="#linearGradient590"
       gradientUnits="userSpaceOnUse"
       gradientTransform="matrix(1.046353,8.876146e-2,-8.674668e-2,1.050766,15.00235,16.58637)" />
    <linearGradient
       x1="13.012025"
       y1="4.4254627"
       x2="18.377048"
       y2="9.7904863"
       id="linearGradient3050"
       xlink:href="#linearGradient573"
       gradientUnits="userSpaceOnUse"
       gradientTransform="scale(1.016802,0.983476)" />
    <linearGradient
       x1="13.012025"
       y1="4.4254627"
       x2="18.377048"
       y2="9.7904863"
       id="linearGradient3052"
       xlink:href="#linearGradient573"
       gradientUnits="userSpaceOnUse"
       gradientTransform="matrix(1.016802,0.000000,0.000000,0.983476,-9.597097,16.63824)" />
    <linearGradient
       x1="1.9288015"
       y1="18.560024"
       x2="12.374537"
       y2="29.005762"
       id="linearGradient3057"
       xlink:href="#linearGradient573"
       gradientUnits="userSpaceOnUse"
       gradientTransform="scale(1.190484,0.839995)" />
    <linearGradient
       x1="1.9288015"
       y1="18.560024"
       x2="12.374537"
       y2="29.005762"
       id="linearGradient3066"
       xlink:href="#linearGradient573"
       gradientUnits="userSpaceOnUse"
       gradientTransform="matrix(1.190484,0.000000,0.000000,0.839995,11.06277,40.47592)" />
    <linearGradient
       x1="13.012025"
       y1="4.4254627"
       x2="18.377048"
       y2="9.7904863"
       id="linearGradient3067"
       xlink:href="#linearGradient573"
       gradientUnits="userSpaceOnUse"
       gradientTransform="matrix(1.016802,0.000000,0.000000,0.983476,11.06277,40.47592)" />
    <linearGradient
       x1="142.98250"
       y1="572.34644"
       x2="180.48210"
       y2="615.49744"
       id="linearGradient3068"
       xlink:href="#linearGradient573"
       gradientUnits="userSpaceOnUse"
       gradientTransform="matrix(0.127357,0.000000,0.000000,8.881839e-2,7.212384,35.22768)" />
    <linearGradient
       x1="300.08640"
       y1="100.54506"
       x2="396.24155"
       y2="248.50636"
       id="linearGradient3069"
       xlink:href="#linearGradient573"
       gradientUnits="userSpaceOnUse"
       gradientTransform="matrix(9.300060e-2,0.000000,0.000000,0.121631,7.212384,35.22768)" />
    <linearGradient
       x1="275.58652"
       y1="70.210632"
       x2="552.61499"
       y2="346.92993"
       id="linearGradient3070"
       xlink:href="#linearGradient564"
       gradientUnits="userSpaceOnUse"
       gradientTransform="matrix(8.519944e-2,0.000000,0.000000,0.132768,7.212384,35.22769)" />
    <linearGradient
       x1="2.7472699"
       y1="1.8352425"
       x2="61.176895"
       y2="51.219109"
       id="linearGradient3071"
       xlink:href="#linearGradient590"
       gradientUnits="userSpaceOnUse"
       gradientTransform="matrix(1.035329,8.782627e-2,-8.583272e-2,1.039695,8.860202,38.75452)" />
  </defs>
  <path
     d="M 39.297271,4.1246728 C 38.442089,4.0355268 36.257000,5.9895038 34.109771,8.0309228 C 31.180209,7.8536588 30.383179,9.4553458 30.141021,11.687173 C 29.894526,11.899475 29.174137,12.656432 29.078521,12.687173 C 28.265143,12.948670 18.969004,4.4075048 16.578521,6.3434228 C 14.234765,8.2415008 16.410365,18.655702 16.141021,19.280923 C 15.838079,19.984132 5.1783411,22.381013 4.6097701,24.562173 C 4.0548281,26.691052 12.366174,32.616081 12.641021,34.218423 C 12.918076,35.833639 3.4182931,47.769059 4.5785201,48.812173 C 5.7912951,49.902530 18.100642,44.888962 18.547271,45.218423 C 18.670449,45.309288 19.365566,47.423270 19.828521,48.718423 C 19.505575,48.837164 18.988961,48.914343 18.797271,49.030923 C 17.826399,49.621617 15.656130,52.156958 17.547271,53.780923 C 17.076167,56.977202 20.536451,58.480884 23.641021,58.218423 C 23.820261,58.519036 24.085291,59.159903 24.203521,59.187173 C 24.538029,59.264326 25.491638,58.440428 26.641021,57.343423 C 28.215045,55.908718 28.584746,55.484999 30.297271,53.718423 C 30.297271,53.697753 30.297652,53.676527 30.297271,53.655923 C 32.059772,51.774934 33.923383,49.737991 34.234771,49.593423 C 35.083858,49.199220 47.227580,60.088340 48.578521,59.280923 C 49.999075,58.431900 46.547084,44.805939 46.859771,43.905923 C 47.211940,42.892273 58.992608,40.971869 59.453521,38.749673 C 59.988928,36.168314 51.229455,29.453301 51.328521,28.437173 C 51.454659,27.143400 60.595873,15.007586 59.484771,13.624673 C 58.718133,12.670487 52.300280,14.487003 47.797271,15.687173 C 47.303541,14.653197 46.483756,13.775553 45.203521,13.187173 C 44.685450,12.025418 43.850155,11.015189 42.359771,10.405923 C 42.135868,10.312879 42.013098,10.305803 41.797271,10.218423 C 41.063147,7.1913268 40.180405,4.2167318 39.297271,4.1246728 z "
     style="font-size:12.000000;opacity:0.29999998;fill:#000000;fill-opacity:1.0000000;fill-rule:evenodd;stroke:none;stroke-width:1.8749995;stroke-miterlimit:4.0000000;stroke-opacity:1.0000000"
     id="path3058" />
  <path
     d="M 45.236985,56.135352 C 43.886044,56.942770 31.746240,46.057544 30.897153,46.451747 C 30.125978,46.809775 22.021888,56.310960 20.863759,56.043842 C 19.770632,55.791717 15.717292,42.446245 15.221926,42.080829 C 14.775297,41.751364 2.4714629,46.758601 1.2586874,45.668244 C 0.098461066,44.625129 9.5846766,32.692283 9.3076222,31.077067 C 9.0327752,29.474722 0.73394679,23.547894 1.2888888,21.419015 C 1.8574595,19.237854 12.522393,16.860637 12.825335,16.157428 C 13.094679,15.532207 10.917960,5.0998266 13.261716,3.2017486 C 15.652199,1.2658297 24.940209,9.8196696 25.753587,9.5581718 C 26.608561,9.2832998 34.196603,0.80720823 35.975074,0.99259926 C 37.741344,1.1767180 39.477027,12.923601 40.112383,13.462487 C 40.767051,14.017754 55.021617,9.0537833 56.170178,10.483325 C 57.281276,11.866239 48.127487,24.012360 48.001349,25.306133 C 47.902281,26.322265 56.675348,33.036055 56.139941,35.617414 C 55.679026,37.839612 43.895506,39.772043 43.543337,40.785693 C 43.230649,41.685706 46.657539,55.286329 45.236985,56.135352 z "
     style="font-size:12.000000;fill:url(#linearGradient589);fill-opacity:1.0000000;fill-rule:evenodd;stroke:#261933;stroke-width:1.8749995;stroke-miterlimit:4.0000000;stroke-opacity:1.0000000"
     id="path597" />
  <path
     d="M 24.062978,42.854371 C 27.722805,44.953324 38.508729,34.289448 42.415170,25.283120 C 43.542125,22.576941 48.375986,12.635674 41.668172,9.8935753 C 24.226321,2.6454009 31.515440,12.710475 28.031554,20.305492 C 24.458737,28.203751 20.903322,41.003454 24.062978,42.854371 z "
     style="font-size:12.000000;opacity:0.29636899;fill-rule:evenodd;stroke-width:17.025299"
     id="path593" />
  <path
     d="M 21.429218,40.240327 C 25.089043,42.339277 35.874965,31.675413 39.781406,22.669096 C 40.908359,19.962919 45.742221,10.021661 39.034515,7.2795655 C 21.592560,0.031471213 28.881678,10.096570 25.397791,17.691472 C 21.824976,25.589721 18.269561,38.389411 21.429218,40.240327 z "
     style="font-size:12.000000;fill:url(#linearGradient567);fill-opacity:1.0000000;fill-rule:evenodd;stroke:#261933;stroke-width:1.8749986;stroke-miterlimit:4.0000000;stroke-opacity:1.0000000"
     id="path563" />
  <path
     d="M 26.980506,50.582677 C 26.980506,53.063914 24.074189,54.537633 20.839801,55.077681 C 17.645766,55.610950 13.471145,53.735135 14.699521,50.582677 C 15.502032,48.178891 17.450182,46.088095 20.839801,46.088095 C 24.229312,46.088095 26.980506,48.101545 26.980506,50.582677 z "
     style="font-size:12.000000;opacity:0.29636899;fill-rule:evenodd;stroke-width:21.028000"
     id="path595" />
  <path
     d="M 24.869760,48.241350 C 24.869760,50.722692 21.963549,52.196302 18.729053,52.736457 C 15.535126,53.269725 11.360507,51.393805 12.588776,48.241350 C 13.391394,45.837567 15.339543,43.746774 18.729053,43.746774 C 22.118565,43.746774 24.869760,45.760327 24.869760,48.241350 z "
     style="font-size:12.000000;fill:url(#linearGradient569);fill-opacity:1.0000000;fill-rule:evenodd;stroke:#261933;stroke-width:1.8749986;stroke-miterlimit:4.0000000;stroke-opacity:1.0000000"
     id="path570" />
  <path
     d="M 23.083307,27.894513 C 23.259460,23.364120 26.917136,16.845099 27.303834,14.845936 C 27.839113,12.078639 27.269564,6.8702869 28.904588,6.0693792 C 31.005191,5.0406689 40.071537,8.5081299 40.012927,9.1413118 C 39.941824,9.7659119 33.220437,9.0614541 31.099550,10.272723 C 29.678901,11.083698 29.919720,14.562116 29.203577,16.449267 C 28.512843,18.269353 24.882526,20.415092 23.083307,27.894513 z "
     style="font-size:12.000000;opacity:0.69993597;fill:url(#linearGradient572);fill-rule:evenodd;stroke:none;stroke-width:0.81421499pt"
     id="path571" />
  <path
     d="M 14.215779,50.646337 C 12.324638,49.022374 14.492849,46.478934 15.463721,45.888240 C 16.578718,45.210133 20.365313,44.285339 21.574793,45.558273 C 19.109394,45.634561 17.930065,46.675505 16.620019,47.220428 C 15.543349,47.752850 13.468461,49.423199 14.215779,50.646337 z "
     style="font-size:12.000000;opacity:0.69993597;fill:url(#linearGradient577);fill-rule:evenodd;stroke:none;stroke-width:1.0696200pt"
     id="path576" />
  <path
     d="M 13.614780,9.6125881 C 13.163175,9.1108049 12.901667,4.9419395 13.742021,4.3957096 C 14.598213,3.8391847 18.201032,5.7450055 18.704418,6.3043237 C 18.964477,6.5932784 16.766196,6.4635336 16.032358,6.9405284 C 15.069650,7.5662884 13.926621,9.9590778 13.614780,9.6125881 z "
     style="fill:url(#linearGradient3050);fill-opacity:1.0000000;fill-rule:evenodd;stroke:none;stroke-width:0.25000000pt;stroke-linecap:butt;stroke-linejoin:miter;stroke-opacity:1.0000000"
     id="path3046" />
  <path
     d="M 4.8351557,24.372537 C 4.2790443,24.296704 1.7134187,22.005180 2.4175778,21.445995 C 4.5975468,19.714843 10.130324,19.162085 13.487540,17.501526 C 14.074793,17.211057 14.095522,15.515180 14.250985,15.592912 C 14.434831,15.684835 15.092356,17.605454 14.505467,18.010490 C 12.080987,19.683723 7.7828123,20.139604 5.2168785,21.827718 C 4.5593752,22.260286 5.2121445,24.423945 4.8351557,24.372537 z "
     style="fill:url(#linearGradient3057);fill-opacity:1.0000000;fill-rule:evenodd;stroke:none;stroke-width:0.25000000pt;stroke-linecap:butt;stroke-linejoin:miter;stroke-opacity:1.0000000"
     id="path3053" />
</svg>
