<?xml version="1.0" encoding="UTF-8" standalone="no"?>
<!DOCTYPE svg PUBLIC "-//W3C//DTD SVG 20010904//EN"
"http://www.w3.org/TR/2001/REC-SVG-20010904/DTD/svg10.dtd">
<!-- Created with Inkscape (http://www.inkscape.org/) -->
<svg
   version="1.0"
   x="0.0000000"
   y="0.0000000"
   width="60.000000"
   height="60.000000"
   id="svg1"
   sodipodi:version="0.32"
   inkscape:version="0.40"
   sodipodi:docname="blogtk-icon.svg"
   sodipodi:docbase="/home/scaba"
   xmlns="http://www.w3.org/2000/svg"
   xmlns:cc="http://web.resource.org/cc/"
   xmlns:inkscape="http://www.inkscape.org/namespaces/inkscape"
   xmlns:sodipodi="http://sodipodi.sourceforge.net/DTD/sodipodi-0.dtd"
   xmlns:rdf="http://www.w3.org/1999/02/22-rdf-syntax-ns#"
   xmlns:dc="http://purl.org/dc/elements/1.1/"
   xmlns:xlink="http://www.w3.org/1999/xlink">
  <metadata
     id="metadata50">
    <rdf:RDF
       id="RDF51">
      <cc:Work
         rdf:about=""
         id="Work52">
        <dc:format
           id="format53">image/svg+xml</dc:format>
        <dc:type
           id="type55"
           rdf:resource="http://purl.org/dc/dcmitype/StillImage" />
      </cc:Work>
    </rdf:RDF>
  </metadata>
  <sodipodi:namedview
     id="base"
     pagecolor="#ffffff"
     bordercolor="#666666"
     borderopacity="1.0"
     inkscape:pageopacity="0.0"
     inkscape:pageshadow="2"
     inkscape:zoom="4.0000000"
     inkscape:cx="21.050644"
     inkscape:cy="20.533333"
     inkscape:window-width="640"
     inkscape:window-height="538"
     inkscape:window-x="0"
     inkscape:window-y="26"
     inkscape:current-layer="svg1" />
  <defs
     id="defs3">
    <linearGradient
       id="linearGradient1751">
      <stop
         style="stop-color:#000000;stop-opacity:1.0000000;"
         offset="0.0000000"
         id="stop1752" />
      <stop
         style="stop-color:#000000;stop-opacity:0.0000000;"
         offset="1.0000000"
         id="stop1753" />
    </linearGradient>
    <linearGradient
       id="linearGradient1708">
      <stop
         style="stop-color:#ffffff;stop-opacity:1.0000000;"
         offset="0.0000000"
         id="stop1709" />
      <stop
         style="stop-color:#d9cce6;stop-opacity:1.0000000;"
         offset="1.0000000"
         id="stop1710" />
    </linearGradient>
    <linearGradient
       id="linearGradient584">
      <stop
         style="stop-color:#ffffff;stop-opacity:1.0000000;"
         offset="0.0000000"
         id="stop585" />
      <stop
         style="stop-color:#ffffff;stop-opacity:0.0000000;"
         offset="1.0000000"
         id="stop586" />
    </linearGradient>
    <linearGradient
       id="linearGradient578">
      <stop
         style="stop-color:#d9cce6;stop-opacity:1.0000000;"
         offset="0.0000000"
         id="stop579" />
      <stop
         style="stop-color:#73667f;stop-opacity:1.0000000;"
         offset="1.0000000"
         id="stop580" />
    </linearGradient>
    <linearGradient
       x1="11.889954"
       y1="17.899555"
       x2="47.707611"
       y2="53.933167"
       id="linearGradient581"
       xlink:href="#linearGradient584"
       gradientUnits="userSpaceOnUse"
       gradientTransform="matrix(1.087700,0.000000,0.000000,0.919371,66.35103,-1.329236)" />
    <linearGradient
       x1="14.901803"
       y1="12.416366"
       x2="27.636885"
       y2="24.581890"
       id="linearGradient583"
       xlink:href="#linearGradient584"
       gradientUnits="userSpaceOnUse"
       gradientTransform="matrix(1.682464,0.000000,0.000000,0.594366,66.35103,-1.329236)" />
    <linearGradient
       x1="11.050006"
       y1="4.8899484"
       x2="34.399300"
       y2="26.972225"
       id="linearGradient860"
       xlink:href="#linearGradient584"
       gradientUnits="userSpaceOnUse"
       gradientTransform="matrix(0.544211,0.000000,0.000000,1.837523,66.35103,-1.329236)" />
    <linearGradient
       x1="9.5028210"
       y1="14.326502"
       x2="53.603920"
       y2="56.968639"
       id="linearGradient861"
       xlink:href="#linearGradient578"
       gradientUnits="userSpaceOnUse"
       gradientTransform="matrix(1.067200,0.000000,0.000000,0.937032,66.35103,-1.329236)" />
    <linearGradient
       x1="3.2789278"
       y1="4.5549574"
       x2="54.547245"
       y2="55.028416"
       id="linearGradient862"
       xlink:href="#linearGradient578"
       gradientUnits="userSpaceOnUse"
       gradientTransform="matrix(1.014478,0.000000,0.000000,0.985729,66.35103,-1.329236)" />
    <linearGradient
       x1="1.6300739"
       y1="17.134445"
       x2="23.789167"
       y2="39.286045"
       id="linearGradient1715"
       xlink:href="#linearGradient584"
       gradientUnits="userSpaceOnUse"
       gradientTransform="matrix(0.905665,0.000000,0.000000,1.104161,0.110770,-0.996927)" />
    <linearGradient
       x1="1.6300739"
       y1="17.134445"
       x2="23.789167"
       y2="39.286045"
       id="linearGradient1718"
       xlink:href="#linearGradient584"
       gradientUnits="userSpaceOnUse"
       gradientTransform="matrix(0.905665,0.000000,0.000000,1.104161,16.09532,-8.614897)" />
    <linearGradient
       x1="1.6300739"
       y1="17.134445"
       x2="23.789167"
       y2="39.286045"
       id="linearGradient1721"
       xlink:href="#linearGradient584"
       gradientUnits="userSpaceOnUse"
       gradientTransform="matrix(0.905665,0.000000,0.000000,1.104161,8.119905,-17.91955)" />
    <linearGradient
       x1="6.4574761"
       y1="4.6498289"
       x2="25.565939"
       y2="25.086603"
       id="linearGradient3038"
       xlink:href="#linearGradient578"
       gradientUnits="userSpaceOnUse"
       gradientTransform="scale(1.001030,0.998971)" />
    <linearGradient
       x1="6.4574761"
       y1="4.6498289"
       x2="25.565939"
       y2="25.086603"
       id="linearGradient3039"
       xlink:href="#linearGradient578"
       gradientUnits="userSpaceOnUse"
       gradientTransform="scale(1.001030,0.998971)" />
    <linearGradient
       x1="6.4574761"
       y1="4.6498289"
       x2="25.565939"
       y2="25.086603"
       id="linearGradient3040"
       xlink:href="#linearGradient578"
       gradientUnits="userSpaceOnUse"
       gradientTransform="scale(1.001030,0.998971)" />
    <linearGradient
       x1="10.786067"
       y1="7.1828723"
       x2="27.083527"
       y2="25.066830"
       id="linearGradient1711"
       xlink:href="#linearGradient1708"
       gradientUnits="userSpaceOnUse"
       gradientTransform="matrix(1.003804,0.000000,0.000000,0.996210,1.439567,66.93986)" />
    <linearGradient
       x1="19.457455"
       y1="20.837318"
       x2="50.554337"
       y2="17.274693"
       id="linearGradient1720"
       xlink:href="#linearGradient578"
       gradientUnits="userSpaceOnUse"
       gradientTransform="matrix(0.871647,0.000000,0.000000,1.147253,1.439567,66.93986)" />
    <linearGradient
       x1="26.271854"
       y1="22.911760"
       x2="46.103157"
       y2="28.879768"
       id="linearGradient1729"
       xlink:href="#linearGradient584"
       gradientUnits="userSpaceOnUse"
       gradientTransform="matrix(0.877053,0.000000,0.000000,1.140182,1.439567,66.93986)" />
    <linearGradient
       x1="17.726391"
       y1="15.945027"
       x2="29.533092"
       y2="25.974466"
       id="linearGradient1731"
       xlink:href="#linearGradient584"
       gradientUnits="userSpaceOnUse"
       gradientTransform="matrix(1.003804,0.000000,0.000000,0.996210,1.439567,66.93986)" />
    <linearGradient
       x1="3.6834369"
       y1="1.7422262"
       x2="76.163071"
       y2="45.082687"
       id="linearGradient1727"
       xlink:href="#linearGradient578"
       gradientUnits="userSpaceOnUse"
       gradientTransform="scale(0.774541,1.291087)" />
    <linearGradient
       x1="3.6834369"
       y1="1.7422262"
       x2="76.163071"
       y2="45.082687"
       id="linearGradient1728"
       xlink:href="#linearGradient578"
       gradientUnits="userSpaceOnUse"
       gradientTransform="scale(0.774541,1.291087)" />
    <linearGradient
       x1="3.6834369"
       y1="1.7422262"
       x2="76.163071"
       y2="45.082687"
       id="linearGradient1730"
       xlink:href="#linearGradient578"
       gradientUnits="userSpaceOnUse"
       gradientTransform="scale(0.774541,1.291087)" />
    <linearGradient
       x1="33.924404"
       y1="32.116669"
       x2="55.912971"
       y2="43.889935"
       id="linearGradient1732"
       xlink:href="#linearGradient578"
       gradientUnits="userSpaceOnUse"
       gradientTransform="scale(0.774541,1.291087)" />
    <linearGradient
       x1="41.817337"
       y1="1.0928454"
       x2="73.107437"
       y2="30.274836"
       id="linearGradient1733"
       xlink:href="#linearGradient578"
       gradientUnits="userSpaceOnUse"
       gradientTransform="scale(0.774541,1.291087)" />
    <linearGradient
       x1="2.1345782"
       y1="2.6566355"
       x2="43.725266"
       y2="43.870567"
       id="linearGradient1736"
       xlink:href="#linearGradient578"
       gradientUnits="userSpaceOnUse"
       gradientTransform="scale(0.774541,1.291087)" />
    <linearGradient
       x1="3.6834369"
       y1="1.7422262"
       x2="76.163071"
       y2="45.082687"
       id="linearGradient1740"
       xlink:href="#linearGradient578"
       gradientUnits="userSpaceOnUse"
       gradientTransform="matrix(0.740311,0.000000,0.000000,1.234029,54.66228,16.49914)" />
    <linearGradient
       x1="3.6834369"
       y1="1.7422262"
       x2="76.163071"
       y2="45.082687"
       id="linearGradient1741"
       xlink:href="#linearGradient578"
       gradientUnits="userSpaceOnUse"
       gradientTransform="matrix(0.740311,0.000000,0.000000,1.234029,54.66228,16.49914)" />
    <linearGradient
       x1="3.6834369"
       y1="1.7422262"
       x2="76.163071"
       y2="45.082687"
       id="linearGradient1742"
       xlink:href="#linearGradient578"
       gradientUnits="userSpaceOnUse"
       gradientTransform="matrix(0.740311,0.000000,0.000000,1.234029,54.66228,16.49914)" />
    <linearGradient
       x1="5.5727582"
       y1="4.1957588"
       x2="31.098251"
       y2="30.246668"
       id="linearGradient1754"
       xlink:href="#linearGradient584"
       gradientUnits="userSpaceOnUse"
       gradientTransform="scale(0.775873,1.288871)" />
    <linearGradient
       x1="44.088223"
       y1="2.2177489"
       x2="63.957405"
       y2="22.052240"
       id="linearGradient1758"
       xlink:href="#linearGradient584"
       gradientUnits="userSpaceOnUse"
       gradientTransform="scale(0.810010,1.234553)" />
    <linearGradient
       x1="28.920782"
       y1="42.987495"
       x2="38.046368"
       y2="51.982365"
       id="linearGradient1762"
       xlink:href="#linearGradient584"
       gradientUnits="userSpaceOnUse"
       gradientTransform="scale(0.992271,1.007789)" />
    <linearGradient
       inkscape:collect="always"
       xlink:href="#linearGradient578"
       id="linearGradient1114"
       gradientUnits="userSpaceOnUse"
       gradientTransform="scale(0.774541,1.291087)"
       x1="2.1345782"
       y1="2.6566355"
       x2="43.725266"
       y2="43.870567" />
    <linearGradient
       inkscape:collect="always"
       xlink:href="#linearGradient578"
       id="linearGradient1115"
       gradientUnits="userSpaceOnUse"
       gradientTransform="scale(0.774541,1.291087)"
       x1="33.924404"
       y1="32.116669"
       x2="55.912971"
       y2="43.889935" />
    <linearGradient
       inkscape:collect="always"
       xlink:href="#linearGradient578"
       id="linearGradient1116"
       gradientUnits="userSpaceOnUse"
       gradientTransform="scale(0.774541,1.291087)"
       x1="41.817337"
       y1="1.0928454"
       x2="73.107437"
       y2="30.274836" />
    <linearGradient
       inkscape:collect="always"
       xlink:href="#linearGradient584"
       id="linearGradient1117"
       gradientUnits="userSpaceOnUse"
       gradientTransform="scale(0.775873,1.288871)"
       x1="5.5727582"
       y1="4.1957588"
       x2="31.098251"
       y2="30.246668" />
    <linearGradient
       inkscape:collect="always"
       xlink:href="#linearGradient584"
       id="linearGradient1118"
       gradientUnits="userSpaceOnUse"
       gradientTransform="scale(0.810010,1.234553)"
       x1="44.088223"
       y1="2.2177489"
       x2="63.957405"
       y2="22.052240" />
    <linearGradient
       inkscape:collect="always"
       xlink:href="#linearGradient584"
       id="linearGradient1119"
       gradientUnits="userSpaceOnUse"
       gradientTransform="scale(0.992271,1.007789)"
       x1="28.920782"
       y1="42.987495"
       x2="38.046368"
       y2="51.982365" />
  </defs>
  <path
     d="M 46.096432,5.1814688 C 44.524523,5.1988978 43.339151,5.4807198 43.033932,6.1189688 C 39.584014,13.333150 36.164653,30.742384 35.658932,40.337719 C 35.581032,41.815713 45.700351,41.963856 46.408932,40.525219 C 51.768142,29.644372 56.029752,17.120010 58.658932,8.8689688 C 59.133582,7.3793948 50.812162,5.1291808 46.096432,5.1814688 z M 26.815182,7.4314688 C 22.755075,7.2432648 17.288646,8.5539118 10.315182,12.025219 C 7.8741844,13.240316 3.8408804,57.011220 5.2526824,58.275219 C 11.550222,63.913460 46.547618,40.492449 27.627682,30.618969 C 38.465556,21.946627 38.995513,7.9960828 26.815182,7.4314688 z M 21.846432,20.712719 C 24.252740,20.563704 26.193215,22.739404 24.877682,24.900219 C 24.141599,26.109259 19.868454,30.042733 18.971432,29.525219 C 18.038011,28.986706 18.332311,22.615218 19.408932,21.743969 C 20.210300,21.095465 21.044328,20.762390 21.846432,20.712719 z M 20.752682,36.681469 C 23.188696,36.651257 25.005715,38.333153 23.690182,40.493969 C 22.954104,41.703012 18.680953,45.636481 17.783932,45.118969 C 16.850509,44.580454 16.957366,37.968869 18.190182,37.337719 C 19.044348,36.900423 19.940678,36.691540 20.752682,36.681469 z M 39.440182,45.618969 C 35.850777,45.357242 30.046213,48.609148 29.940182,51.931469 C 29.834579,55.240351 32.692532,58.886191 36.283932,59.118969 C 40.085627,59.365375 44.430943,56.274101 45.158932,53.431469 C 45.898151,50.544997 42.819470,45.865375 39.440182,45.618969 z "
     style="opacity:0.29999998;fill:#000000;fill-opacity:1.0000000;fill-rule:evenodd;stroke:none;stroke-width:1.8750004;stroke-linecap:butt;stroke-linejoin:miter;stroke-miterlimit:4.0000000;stroke-opacity:1.0000000;"
     id="path1737"
     transform="matrix(1.032000,0.000000,0.000000,1.032000,-0.935607,-1.032697)" />
  <path
     d="M 24.068567,4.1935396 C 20.008457,4.0053349 14.554378,5.3220493 7.5809142,8.7933560 C 5.1399189,10.008454 1.0913929,53.766472 2.5031948,55.030471 C 8.8007357,60.668712 43.824834,37.245315 24.904898,27.371835 C 35.742772,18.699494 36.248898,4.7581536 24.068567,4.1935396 z M 19.110324,17.485217 C 21.516635,17.336202 23.472488,19.506053 22.156955,21.666868 C 21.420875,22.875909 17.139928,26.814067 16.242906,26.296553 C 15.309482,25.758040 15.584450,19.372010 16.661071,18.500761 C 17.462438,17.852258 18.308220,17.534888 19.110324,17.485217 z M 18.005173,33.435229 C 20.441185,33.405017 22.277731,35.097638 20.962198,37.258454 C 20.226117,38.467495 15.945169,42.405651 15.048148,41.888139 C 14.114724,41.349625 14.233497,34.723496 15.466313,34.092346 C 16.320481,33.655049 17.193169,33.445300 18.005173,33.435229 z "
     style="fill:url(#linearGradient1114);fill-opacity:1.0000000;fill-rule:evenodd;stroke:#261933;stroke-width:1.8750004;stroke-linecap:butt;stroke-linejoin:miter;stroke-miterlimit:4.0000000;stroke-opacity:1.0000000;"
     id="path1098"
     transform="matrix(1.032000,0.000000,0.000000,1.032000,-0.935607,-1.032697)" />
  <path
     d="M 27.437156,48.256767 C 28.427070,44.271531 33.131017,42.100823 36.720422,42.362550 C 40.099707,42.608957 43.206542,47.076246 42.422965,50.177147 C 41.586796,53.486172 37.354038,56.126095 33.552343,55.879689 C 29.960944,55.646913 26.498852,52.034228 27.437156,48.256767 z "
     style="fill:url(#linearGradient1115);fill-opacity:1.0000000;fill-rule:evenodd;stroke:#261933;stroke-width:1.8750004;stroke-linecap:butt;stroke-linejoin:miter;stroke-miterlimit:4.0000000;stroke-opacity:1.0000000;"
     id="path1101"
     transform="matrix(1.032000,0.000000,0.000000,1.032000,-0.935607,-1.032697)" />
  <path
     d="M 32.918727,37.082419 C 32.840830,38.560413 42.981616,38.732260 43.690197,37.293623 C 49.049412,26.412777 53.310926,13.863872 55.940103,5.6128309 C 56.572969,3.6267324 41.531790,0.31416594 40.310912,2.8671622 C 36.860993,10.081342 33.424448,27.487084 32.918727,37.082419 z "
     style="fill:url(#linearGradient1116);fill-opacity:1.0000000;fill-rule:evenodd;stroke:#261933;stroke-width:1.8750004;stroke-linecap:butt;stroke-linejoin:miter;stroke-miterlimit:4.0000000;stroke-opacity:1.0000000;"
     id="path1102"
     transform="matrix(1.032000,0.000000,0.000000,1.032000,-0.935607,-1.032697)" />
  <path
     d="M 4.6403883,38.565826 C 3.9708487,37.738748 4.2384177,17.069249 8.3968931,10.060583 C 10.793887,6.0207057 23.655541,4.6157038 24.306796,5.4201948 C 24.907710,6.1624998 14.640162,10.509795 12.153398,14.700971 C 8.0846929,21.558339 5.2230170,39.285544 4.6403883,38.565826 z "
     style="fill:url(#linearGradient1117);fill-opacity:1.0000000;fill-rule:evenodd;stroke:none;stroke-width:0.25000000pt;stroke-linecap:butt;stroke-linejoin:miter;stroke-opacity:1.0000000;"
     id="path1748"
     transform="matrix(1.032000,0.000000,0.000000,1.032000,-0.935607,-1.032697)" />
  <path
     d="M 35.576310,27.296311 C 35.185022,26.631120 37.750502,8.6779536 41.542524,3.4314570 C 43.127460,1.2386010 51.298659,4.2837603 51.707184,4.9782531 C 52.035228,5.5359286 45.233821,5.1380923 43.752232,7.1879618 C 39.856863,12.577445 35.921591,27.883289 35.576310,27.296311 z "
     style="fill:url(#linearGradient1118);fill-opacity:1.0000000;fill-rule:evenodd;stroke:none;stroke-width:0.25000000pt;stroke-linecap:butt;stroke-linejoin:miter;stroke-opacity:1.0000000;"
     id="path1749"
     transform="matrix(1.032000,0.000000,0.000000,1.032000,-0.935607,-1.032697)" />
  <path
     d="M 30.273009,52.486990 C 29.900398,52.072978 26.590162,49.430227 30.714952,44.753010 C 33.281943,41.842225 37.419590,43.903925 37.786019,44.311068 C 38.082503,44.640494 36.339901,43.324359 32.703689,46.962718 C 28.909142,50.759506 30.563311,52.809547 30.273009,52.486990 z "
     style="fill:url(#linearGradient1119);fill-opacity:1.0000000;fill-rule:evenodd;stroke:none;stroke-width:0.25000000pt;stroke-linecap:butt;stroke-linejoin:miter;stroke-opacity:1.0000000;"
     id="path1750"
     transform="matrix(1.032000,0.000000,0.000000,1.032000,-0.935607,-1.032697)" />
</svg>
