<?xml version="1.0" encoding="UTF-8" standalone="no"?>
<!DOCTYPE svg PUBLIC "-//W3C//DTD SVG 20010904//EN"
"http://www.w3.org/TR/2001/REC-SVG-20010904/DTD/svg10.dtd">
<!-- Created with Inkscape (http://www.inkscape.org/) -->
<svg
   width="48pt"
   height="48pt"
   xmlns="http://www.w3.org/2000/svg"
   xmlns:cc="http://web.resource.org/cc/"
   xmlns:inkscape="http://www.inkscape.org/namespaces/inkscape"
   xmlns:sodipodi="http://sodipodi.sourceforge.net/DTD/sodipodi-0.dtd"
   xmlns:rdf="http://www.w3.org/1999/02/22-rdf-syntax-ns#"
   xmlns:dc="http://purl.org/dc/elements/1.1/"
   xmlns:xlink="http://www.w3.org/1999/xlink"
   id="svg2806"
   sodipodi:version="0.32"
   inkscape:version="0.40"
   sodipodi:docbase="/home/pinuz/lila-inkscape/icon theme/dafare"
   sodipodi:docname="disks2.svg">
  <defs
     id="defs3">
    <linearGradient
       xlink:href="#linearGradient584"
       id="linearGradient654" />
    <linearGradient
       xlink:href="#linearGradient584"
       id="linearGradient583" />
    <linearGradient
       xlink:href="#linearGradient584"
       id="linearGradient581"
       x1="0.01351351"
       y1="0.04687500"
       x2="0.99324322"
       y2="0.96875000" />
    <linearGradient
       id="linearGradient2814">
      <stop
         offset="0.0000000"
         style="stop-color:#ffffff;stop-opacity:1.0000000;"
         id="stop2816" />
      <stop
         offset="1.0000000"
         style="stop-color:#d9cce6;stop-opacity:1.0000000;"
         id="stop2815" />
    </linearGradient>
    <linearGradient
       id="linearGradient578"
       x1="0.0000000"
       y1="0.50000000"
       x2="1.0000000"
       y2="0.50000000"
       gradientUnits="objectBoundingBox"
       spreadMethod="pad"
       xlink:href="#linearGradient2814" />
    <linearGradient
       xlink:href="#linearGradient578"
       id="linearGradient655"
       x1="0.00000000"
       y1="-0.00000000"
       x2="0.96923077"
       y2="0.99218750" />
    <linearGradient
       inkscape:collect="always"
       xlink:href="#linearGradient584"
       id="linearGradient2813"
       gradientTransform="scale(1.320302,0.757402)"
       x1="10.102079"
       y1="58.750951"
       x2="15.698135"
       y2="58.750951"
       gradientUnits="userSpaceOnUse" />
    <linearGradient
       id="linearGradient584">
      <stop
         style="stop-color:#ffffff;stop-opacity:1;"
         offset="0.00000000"
         id="stop585" />
      <stop
         style="stop-color:#ffffff;stop-opacity:0;"
         offset="1.00000000"
         id="stop586" />
    </linearGradient>
    <linearGradient
       inkscape:collect="always"
       xlink:href="#linearGradient584"
       id="linearGradient2812"
       x1="7.6488083"
       y1="5.8938519"
       x2="44.391609"
       y2="40.466928"
       gradientTransform="scale(1.062125,0.941509)"
       gradientUnits="userSpaceOnUse" />
    <linearGradient
       id="linearGradient916">
      <stop
         style="stop-color:#cccccc;stop-opacity:1;"
         offset="0.00000000"
         id="stop917" />
      <stop
         style="stop-color:#7f7f7f;stop-opacity:1;"
         offset="1.00000000"
         id="stop918" />
    </linearGradient>
    <linearGradient
       inkscape:collect="always"
       xlink:href="#linearGradient916"
       id="linearGradient2811"
       x1="8.1316384"
       y1="52.728143"
       x2="26.200284"
       y2="70.237448"
       gradientTransform="scale(1.321923,0.756474)"
       gradientUnits="userSpaceOnUse" />
    <linearGradient
       id="linearGradient866">
      <stop
         style="stop-color:#ffffff;stop-opacity:1.0000000;"
         offset="0.0000000"
         id="stop867" />
      <stop
         style="stop-color:#d9cce6;stop-opacity:1.0000000;"
         offset="1.0000000"
         id="stop868" />
    </linearGradient>
    <linearGradient
       inkscape:collect="always"
       xlink:href="#linearGradient866"
       id="linearGradient2810"
       x1="13.071521"
       y1="2.8869450"
       x2="47.716108"
       y2="36.125331"
       gradientTransform="scale(1.033787,0.967317)"
       gradientUnits="userSpaceOnUse" />
    <linearGradient
       id="linearGradient3438">
      <stop
         offset="0.0000000"
         style="stop-color:#d9cce6;stop-opacity:1.0000000;"
         id="stop3440" />
      <stop
         offset="1.0000000"
         style="stop-color:#73667f;stop-opacity:1.0000000;"
         id="stop3439" />
    </linearGradient>
    <linearGradient
       inkscape:collect="always"
       xlink:href="#linearGradient3438"
       id="linearGradient2809"
       x1="5.7649722"
       y1="2.0117230"
       x2="57.383396"
       y2="53.230003"
       gradientTransform="scale(0.981404,1.018949)"
       gradientUnits="userSpaceOnUse" />
  </defs>
  <sodipodi:namedview
     id="base"
     pagecolor="#ffffff"
     bordercolor="#666666"
     borderopacity="1.0"
     inkscape:pageopacity="0.0"
     inkscape:pageshadow="2"
     inkscape:zoom="8.0000000"
     inkscape:cx="24.000000"
     inkscape:cy="24.000000"
     inkscape:current-layer="layer1"
     showgrid="true"
     inkscape:grid-bbox="true"
     gridspacingy="1.0000000pt"
     gridspacingx="1.0000000pt"
     gridoriginy="0.0000000pt"
     gridoriginx="0.0000000pt"
     inkscape:window-width="640"
     inkscape:window-height="542"
     inkscape:window-x="0"
     inkscape:window-y="27" />
  <metadata
     id="metadata4">
    <rdf:RDF
       id="RDF5">
      <cc:Work
         rdf:about=""
         id="Work6">
        <dc:format
           id="format7">image/svg+xml</dc:format>
        <dc:type
           id="type9"
           rdf:resource="http://purl.org/dc/dcmitype/StillImage" />
      </cc:Work>
    </rdf:RDF>
  </metadata>
  <g
     id="layer1"
     inkscape:label="Layer 1"
     inkscape:groupmode="layer">
    <g
       id="g2745">
      <defs
         id="defs2746">
        <linearGradient
           id="linearGradient2843">
          <stop
             style="stop-color:#ffffff;stop-opacity:1;"
             offset="0.00000000"
             id="stop2844" />
          <stop
             style="stop-color:#ffffff;stop-opacity:0;"
             offset="1.00000000"
             id="stop2845" />
        </linearGradient>
        <linearGradient
           id="linearGradient2846"
           x1="0.0000000"
           y1="0.50000000"
           x2="1.0000000"
           y2="0.50000000"
           gradientUnits="objectBoundingBox"
           spreadMethod="pad"
           xlink:href="#linearGradient2814" />
        <linearGradient
           xlink:href="#linearGradient584"
           id="linearGradient2847"
           x1="0.01351351"
           y1="0.04687500"
           x2="0.99324322"
           y2="0.96875000" />
        <linearGradient
           xlink:href="#linearGradient584"
           id="linearGradient2848" />
        <linearGradient
           xlink:href="#linearGradient584"
           id="linearGradient2849" />
        <linearGradient
           xlink:href="#linearGradient578"
           id="linearGradient2850"
           x1="0.00000000"
           y1="-0.00000000"
           x2="0.96923077"
           y2="0.99218750" />
        <linearGradient
           xlink:href="#linearGradient584"
           id="linearGradient713" />
      </defs>
      <sodipodi:namedview
         id="namedview2758"
         pagecolor="#ffffff"
         bordercolor="#666666"
         borderopacity="1.0"
         inkscape:pageopacity="0.0"
         inkscape:pageshadow="2"
         inkscape:zoom="5.64233871"
         inkscape:cx="23.0963011"
         inkscape:cy="23.9821367"
         inkscape:window-width="640"
         inkscape:window-height="516"
         inkscape:window-x="96"
         inkscape:window-y="127" />
      <path
         d="M 36.118897 32.546487 C 36.118897 34.871102 34.232321 36.757678 31.907706 36.757678 C 29.583089 36.757678 27.696413 34.871102 27.696413 32.546487 C 27.696413 30.22187 29.583089 28.335194 31.907706 28.335194 C 34.232321 28.335194 36.118897 30.22187 36.118897 32.546487 z M 58.669514 32.138888 C 58.669514 47.061377 46.55843 59.172358 31.635941 59.172358 C 16.713451 59.172358 4.6024598 47.061377 4.6024598 32.138888 C 4.6024598 17.2164 16.713451 5.1053163 31.635941 5.1053163 C 46.55843 5.1053163 58.669514 17.2164 58.669514 32.138888 z "
         style="font-size:12;opacity:0.302675;fill-rule:evenodd;stroke-width:12.5;"
         id="path782" />
      <path
         d="M 34.142707 30.090541 C 34.142707 32.366857 32.295328 34.214238 30.019011 34.214238 C 27.742693 34.214238 25.895215 32.366857 25.895215 30.090541 C 25.895215 27.814224 27.742693 25.966746 30.019011 25.966746 C 32.295328 25.966746 34.142707 27.814224 34.142707 30.090541 z M 56.224788 29.691414 C 56.224788 44.303857 44.365336 56.163209 29.752893 56.163209 C 15.140448 56.163209 3.2810857 44.303857 3.2810857 29.691414 C 3.2810857 15.078969 15.140448 3.2195676 29.752893 3.2195676 C 44.365336 3.2195676 56.224788 15.078969 56.224788 29.691414 z "
         style="font-size:12;fill:url(#linearGradient655);fill-rule:evenodd;stroke:#261933;stroke-width:1.875;stroke-dasharray:none;"
         id="path773" />
      <path
         d="M 9.0011055 43.392896 C 4.1204139 37.981788 1.0217144 15.522169 19.11093 7.210253 C 33.787948 0.52499748 48.148535 11.238426 49.174482 14.260508 C 49.477048 15.112445 36.930363 4.5046413 21.90453 12.265166 C -0.14499078 23.553358 9.6014807 44.077157 9.0011055 43.392896 z "
         style="font-size:12;opacity:0.7;fill-rule:evenodd;stroke:none;stroke-width:0.0778586pt;fill:url(#linearGradient581);"
         id="path774" />
      <path
         d="M 39.82112 30.278517 C 39.82112 35.464806 34.97533 39.8566 29.980089 40.025561 C 24.417649 40.025561 19.766075 35.370817 19.950882 30.184529 C 20.142324 24.810364 24.417649 20.061235 29.980089 20.061235 C 35.166277 20.061235 40.01593 24.90772 39.82112 30.278517 z M 37.202325 30.223452 C 37.202325 34.262073 33.924622 37.539775 29.886001 37.539775 C 25.847379 37.539775 22.569677 34.262073 22.569677 30.223452 C 22.569677 26.184831 25.847379 22.907127 29.886001 22.907127 C 33.924622 22.907127 37.202325 26.184831 37.202325 30.223452 z "
         style="font-size:12;opacity:0.100892;fill:#3f003f;fill-rule:evenodd;stroke-width:1pt;"
         id="path779" />
      <path
         d="M 31.216196 25.235045 C 31.210947 25.612088 33.486473 27.095298 33.810233 26.897813 C 38.868164 22.772731 48.783377 16.593181 48.908464 12.398175 C 48.994925 9.4338322 34.085957 3.3896875 33.610668 4.1506354 C 31.562637 7.7161848 31.329796 18.518304 31.216196 25.235045 z "
         style="font-size:12;fill:url(#linearGradient583);fill-rule:evenodd;stroke-width:1pt;"
         id="path780" />
      <path
         d="M 29.473007 34.718049 C 29.439136 34.342493 27.022281 33.103018 26.720708 33.332986 C 22.117364 37.959801 12.895625 45.133311 13.205717 49.318609 C 13.426772 52.276018 28.881644 56.743083 29.275523 55.937104 C 30.943145 52.178566 30.055853 41.410426 29.473007 34.718049 z "
         style="font-size:12;fill:url(#linearGradient654);fill-rule:evenodd;stroke-width:1pt;"
         id="path781" />
    </g>
    <g
       id="g2765"
       transform="matrix(0.542776,0.000000,0.000000,0.542776,27.97600,28.09428)">
      <defs
         id="defs2766">
        <linearGradient
           id="linearGradient652">
          <stop
             style="stop-color:#ffffff;stop-opacity:0;"
             offset="0.00000000"
             id="stop653" />
          <stop
             style="stop-color:#000000;stop-opacity:1;"
             offset="1.00000000"
             id="stop654" />
        </linearGradient>
        <linearGradient
           id="linearGradient2864">
          <stop
             style="stop-color:#cccccc;stop-opacity:1;"
             offset="0.00000000"
             id="stop2865" />
          <stop
             style="stop-color:#7f7f7f;stop-opacity:1;"
             offset="1.00000000"
             id="stop2866" />
        </linearGradient>
        <linearGradient
           id="linearGradient2867">
          <stop
             style="stop-color:#ffffff;stop-opacity:1.0000000;"
             offset="0.0000000"
             id="stop2868" />
          <stop
             style="stop-color:#d9cce6;stop-opacity:1.0000000;"
             offset="1.0000000"
             id="stop2869" />
        </linearGradient>
        <linearGradient
           id="linearGradient2776">
          <stop
             style="stop-color:#ffffff;stop-opacity:1;"
             offset="0.00000000"
             id="stop2777" />
          <stop
             style="stop-color:#ffffff;stop-opacity:0;"
             offset="1.00000000"
             id="stop2778" />
        </linearGradient>
        <linearGradient
           id="linearGradient2779"
           x1="0.0000000"
           y1="0.50000000"
           x2="1.0000000"
           y2="0.50000000"
           gradientUnits="objectBoundingBox"
           spreadMethod="pad"
           xlink:href="#linearGradient3438" />
        <linearGradient
           xlink:href="#linearGradient584"
           id="linearGradient2782"
           x1="0.0064935102"
           y1="-0.0000000"
           x2="0.96753246"
           y2="0.97674417" />
        <linearGradient
           xlink:href="#linearGradient584"
           id="linearGradient2783"
           x1="-0.030769231"
           y1="0.023255810"
           x2="0.97692305"
           y2="1.0310078" />
        <linearGradient
           xlink:href="#linearGradient652"
           id="linearGradient860" />
        <linearGradient
           xlink:href="#linearGradient578"
           id="linearGradient861"
           x1="0.015625000"
           y1="0.015503880"
           x2="0.98437500"
           y2="0.97674417" />
        <linearGradient
           xlink:href="#linearGradient866"
           id="linearGradient862"
           x1="0.0061728400"
           y1="0.015503880"
           x2="1.0000000"
           y2="0.96899223" />
        <linearGradient
           xlink:href="#linearGradient916"
           id="linearGradient869"
           x1="0.0064102602"
           y1="0.015503880"
           x2="0.97435898"
           y2="0.95348835" />
        <linearGradient
           xlink:href="#linearGradient652"
           id="linearGradient915"
           x1="-0.023529410"
           y1="0.0082644597"
           x2="1.0235294"
           y2="0.98760331" />
        <linearGradient
           xlink:href="#linearGradient652"
           id="linearGradient2789"
           x1="0.013698630"
           y1="0.0082644597"
           x2="0.94520545"
           y2="0.99586779" />
      </defs>
      <sodipodi:namedview
         id="namedview2790"
         pagecolor="#ffffff"
         bordercolor="#666666"
         borderopacity="1.0"
         inkscape:pageopacity="0.0"
         inkscape:pageshadow="2"
         inkscape:zoom="8.0000000"
         inkscape:cx="25.779004"
         inkscape:cy="24.508938"
         inkscape:window-width="705"
         inkscape:window-height="544"
         inkscape:window-x="547"
         inkscape:window-y="424" />
      <path
         d="M 8.3905812,44.279826 C 8.7160968,44.731121 11.464006,50.497178 13.044688,51.439704 C 14.697247,52.471793 38.868872,58.722625 40.969048,58.781504 C 43.083130,58.838577 48.098449,56.481176 48.527849,56.248362 C 50.164820,55.224253 59.745314,14.996430 58.601267,13.284944 C 58.378175,12.935380 55.707204,11.039605 51.723561,10.358235 C 47.739918,9.6768640 26.148642,6.8549456 22.118059,6.4952030 C 18.087476,6.1354604 16.009008,6.6003803 15.692037,6.8940725 C 14.370823,8.2675722 7.3079461,42.580144 8.3905812,44.279826 z "
         style="font-size:12.000000;opacity:0.29999998;fill:#000000;fill-opacity:1.0000000;fill-rule:evenodd;stroke:none;stroke-width:1.8750000"
         id="path657"
         sodipodi:nodetypes="cssccsscc" />
      <path
         d="M 5.8905812,40.061076 C 6.2160968,40.512371 8.9640057,46.278428 10.544688,47.220954 C 12.197247,48.253043 36.368872,54.503875 38.469048,54.562754 C 40.583130,54.619827 45.598449,52.262426 46.027849,52.029612 C 47.664820,51.005503 57.245314,10.777680 56.101267,9.0661941 C 55.878175,8.7166301 53.207204,6.8208554 49.223561,6.1394847 C 45.239918,5.4581140 23.648642,2.6361956 19.618059,2.2764530 C 15.587476,1.9167104 13.509008,2.3816303 13.192037,2.6753225 C 11.870823,4.0488222 4.8079461,38.361394 5.8905812,40.061076 z "
         style="font-size:12.000000;fill:url(#linearGradient2809);fill-opacity:1.0000000;fill-rule:evenodd;stroke:#261933;stroke-width:1.8750000"
         id="path1289"
         sodipodi:nodetypes="cssccsscc" />
      <path
         d="M 19.463853,2.8947939 C 17.648344,9.2969353 14.727981,22.083244 13.915713,28.915380 C 22.945515,31.447565 33.408671,33.693080 42.581914,35.365254 C 44.588502,27.864290 47.413273,14.409048 48.703289,6.7647488 C 39.625638,5.1880827 28.541399,3.3247883 19.463853,2.8947939 z "
         style="font-size:12.000000;fill:url(#linearGradient2810);fill-rule:evenodd;stroke:#261933;stroke-width:1.2500000"
         id="path1295"
         sodipodi:nodetypes="ccccc" />
      <path
         style="fill:#ffffff;fill-opacity:0.29999998;fill-rule:evenodd;stroke:none;stroke-width:1.0000000pt;stroke-linecap:butt;stroke-linejoin:miter;stroke-opacity:1.0000000"
         d="M 13.833948,3.3747117 C 15.533789,3.1049127 16.519804,3.0011293 18.738035,3.1792801 C 14.850592,17.168640 14.477048,23.080884 10.474141,45.899313 C 9.1441119,44.231384 7.9901515,42.077376 6.7429865,39.636048 C 6.2473836,37.945489 10.172537,16.251921 13.833948,3.3747117 z "
         id="path650"
         sodipodi:nodetypes="ccccc" />
      <path
         d="M 11.528719,47.325795 C 12.196330,43.230373 11.913726,44.772823 12.631676,40.606021 C 19.581946,41.959061 27.375085,44.321181 34.329985,46.139484 C 33.412090,49.979109 33.704149,48.705062 32.609464,52.852074 C 25.429451,51.396604 18.596177,49.309307 11.528719,47.325795 z "
         style="font-size:12.000000;fill:url(#linearGradient2811);fill-rule:evenodd;stroke:#261933;stroke-width:1.8750000;stroke-opacity:1.0000000"
         id="path1306"
         sodipodi:nodetypes="ccccc" />
      <path
         d="M 7.6089682,39.178935 C 7.2007802,38.132905 12.269829,6.3231590 14.600606,4.3451230 C 16.924744,2.3510450 47.018364,7.5534990 47.414116,8.5675960 C 47.782782,9.5123440 25.235237,3.9453860 17.323870,9.6483240 C 9.6598616,15.172948 7.9651982,40.091749 7.6089682,39.178935 z "
         style="font-size:12.000000;opacity:0.69999999;fill:url(#linearGradient2812);fill-rule:evenodd;stroke:none;stroke-width:1.0000000pt"
         id="path1310"
         sodipodi:nodetypes="ccccc" />
      <path
         d="M 13.347520,46.615999 C 13.268301,46.532815 13.684675,42.455278 14.173685,42.385546 C 14.899030,42.263394 20.646666,43.859966 20.725411,43.942663 C 20.798784,44.019722 16.200063,42.827344 15.109107,43.149529 C 14.003317,43.483107 13.420501,46.692618 13.347520,46.615999 z "
         style="font-size:12.000000;opacity:0.69999999;fill:url(#linearGradient2813);fill-rule:evenodd;stroke:none;stroke-width:1.0000000pt"
         id="path1315"
         sodipodi:nodetypes="ccccc" />
      <path
         d="M 21.328475,9.5736994 C 28.526013,10.698881 36.827861,12.408153 43.688139,14.340753 C 44.131002,14.465540 43.698046,15.817951 43.237790,15.746071 C 36.096745,14.629953 27.800482,12.724859 20.884559,10.776555 C 20.497448,10.667474 20.924819,9.5106721 21.328475,9.5736994 z "
         style="font-size:12.000000;opacity:0.24999996;fill-rule:evenodd;stroke-width:1.0000000pt"
         id="path1379" />
      <path
         d="M 20.517473,13.582025 C 27.715010,14.707101 36.016752,16.416373 42.877134,18.349081 C 43.319893,18.473867 42.887041,19.826277 42.426788,19.754399 C 35.285743,18.638175 26.989373,16.733187 20.073556,14.784882 C 19.686339,14.675800 20.113814,13.518895 20.517473,13.582025 z "
         style="font-size:12.000000;opacity:0.24999996;fill-rule:evenodd;stroke-width:1.0000000pt"
         id="path1380" />
      <path
         d="M 19.632694,17.804513 C 26.830230,18.929483 35.132080,20.638756 41.992356,22.571463 C 42.435220,22.696248 42.002157,24.048658 41.542114,23.976781 C 34.401069,22.860556 26.104702,20.955569 19.188777,19.007263 C 18.801665,18.898181 19.229141,17.741276 19.632694,17.804513 z "
         style="font-size:12.000000;opacity:0.24999996;fill-rule:evenodd;stroke-width:1.0000000pt"
         id="path1381" />
      <path
         style="fill:#000000;fill-opacity:0.14999999;fill-rule:evenodd;stroke:none;stroke-width:1.0000000pt;stroke-linecap:butt;stroke-linejoin:miter;stroke-opacity:1.0000000"
         d="M 49.253038,7.0796482 C 51.360014,7.4574020 53.494612,8.3047188 55.297753,9.5387348 C 54.411251,20.114111 46.978486,48.035700 45.456692,51.291416 C 43.097837,52.295777 39.606505,53.907809 38.352505,53.558724 C 41.949187,40.303029 46.650724,23.180343 49.253038,7.0796482 z "
         id="path651"
         sodipodi:nodetypes="ccccc" />
      <path
         d="M 18.527840,22.444901 C 25.725376,23.569871 34.027226,25.279144 40.887502,27.211851 C 41.330366,27.336636 40.897303,28.689046 40.437260,28.617169 C 33.296215,27.500944 24.999848,25.595957 18.083923,23.647651 C 17.696811,23.538569 18.124287,22.381664 18.527840,22.444901 z "
         style="font-size:12.000000;opacity:0.24999996;fill-rule:evenodd;stroke-width:1.0000000pt"
         id="path656" />
      <metadata
         id="metadata39">
        <rdf:RDF
           id="RDF40">
          <cc:Work
             rdf:about=""
             id="Work41">
            <dc:format
               id="format42">image/svg+xml</dc:format>
            <dc:type
               id="type44"
               rdf:resource="http://purl.org/dc/dcmitype/StillImage" />
          </cc:Work>
        </rdf:RDF>
      </metadata>
    </g>
  </g>
</svg>
