<?xml version="1.0" encoding="UTF-8" standalone="no"?>
<!-- Created with Inkscape (http://www.inkscape.org/) -->
<svg
   xmlns:dc="http://purl.org/dc/elements/1.1/"
   xmlns:cc="http://web.resource.org/cc/"
   xmlns:rdf="http://www.w3.org/1999/02/22-rdf-syntax-ns#"
   xmlns:svg="http://www.w3.org/2000/svg"
   xmlns="http://www.w3.org/2000/svg"
   xmlns:xlink="http://www.w3.org/1999/xlink"
   xmlns:sodipodi="http://inkscape.sourceforge.net/DTD/sodipodi-0.dtd"
   xmlns:inkscape="http://www.inkscape.org/namespaces/inkscape"
   id="svg1"
   sodipodi:version="0.32"
   inkscape:version="0.42.2"
   width="48pt"
   height="48pt"
   sodipodi:docbase="/home/jakob/dev/lila-cvs/lila-theme/trunk/lila/kde/scalable/devices"
   sodipodi:docname="zip_unmount.svg">
  <defs
     id="defs3">
    <linearGradient
       id="linearGradient652">
      <stop
         style="stop-color:#ffffff;stop-opacity:0;"
         offset="0.00000000"
         id="stop653" />
      <stop
         style="stop-color:#000000;stop-opacity:1;"
         offset="1.00000000"
         id="stop654" />
    </linearGradient>
    <linearGradient
       id="linearGradient916">
      <stop
         style="stop-color:#cccccc;stop-opacity:1;"
         offset="0.00000000"
         id="stop917" />
      <stop
         style="stop-color:#7f7f7f;stop-opacity:1;"
         offset="1.00000000"
         id="stop918" />
    </linearGradient>
    <linearGradient
       id="linearGradient866">
      <stop
         style="stop-color:#ffffff;stop-opacity:1.0000000;"
         offset="0.0000000"
         id="stop867" />
      <stop
         style="stop-color:#d9cce6;stop-opacity:1.0000000;"
         offset="1.0000000"
         id="stop868" />
    </linearGradient>
    <linearGradient
       id="linearGradient584">
      <stop
         style="stop-color:#ffffff;stop-opacity:1;"
         offset="0.00000000"
         id="stop585" />
      <stop
         style="stop-color:#ffffff;stop-opacity:0;"
         offset="1.00000000"
         id="stop586" />
    </linearGradient>
    <linearGradient
       id="linearGradient578">
      <stop
         style="stop-color:#d9cce6;stop-opacity:1;"
         offset="0.00000000"
         id="stop579" />
      <stop
         style="stop-color:#73667f;stop-opacity:1;"
         offset="1.00000000"
         id="stop580" />
    </linearGradient>
    <linearGradient
       xlink:href="#linearGradient584"
       id="linearGradient581"
       x1="7.3855373"
       y1="4.1358989"
       x2="43.427378"
       y2="40.766733"
       gradientTransform="matrix(1.062125,0.000000,0.000000,0.941509,-6.920290e-4,0.000000)"
       gradientUnits="userSpaceOnUse" />
    <linearGradient
       xlink:href="#linearGradient584"
       id="linearGradient583"
       x1="9.9298925"
       y1="56.083064"
       x2="15.568995"
       y2="61.722500"
       gradientTransform="matrix(1.320302,0.000000,0.000000,0.757402,-6.920290e-4,0.000000)"
       gradientUnits="userSpaceOnUse" />
    <linearGradient
       xlink:href="#linearGradient652"
       id="linearGradient860" />
    <linearGradient
       xlink:href="#linearGradient578"
       id="linearGradient861"
       x1="5.7649724"
       y1="2.0117230"
       x2="57.383395"
       y2="53.230002"
       gradientTransform="matrix(0.981404,0.000000,0.000000,1.018949,-6.920290e-4,0.000000)"
       gradientUnits="userSpaceOnUse" />
    <linearGradient
       xlink:href="#linearGradient866"
       id="linearGradient862"
       x1="13.071521"
       y1="2.8869450"
       x2="47.716108"
       y2="36.125331"
       gradientTransform="matrix(1.033787,0.000000,0.000000,0.967317,-6.920290e-4,0.000000)"
       gradientUnits="userSpaceOnUse" />
    <linearGradient
       xlink:href="#linearGradient916"
       id="linearGradient869"
       x1="8.1316384"
       y1="52.728143"
       x2="26.200284"
       y2="70.237448"
       gradientTransform="matrix(1.321923,0.000000,0.000000,0.756474,-6.920290e-4,0.000000)"
       gradientUnits="userSpaceOnUse" />
    <linearGradient
       xlink:href="#linearGradient652"
       id="linearGradient915"
       x1="-0.02352941"
       y1="0.00826446"
       x2="1.02352941"
       y2="0.98760331" />
    <linearGradient
       xlink:href="#linearGradient652"
       id="linearGradient655"
       x1="0.01369863"
       y1="0.00826446"
       x2="0.94520545"
       y2="0.99586779" />
  </defs>
  <sodipodi:namedview
     id="base"
     pagecolor="#ffffff"
     bordercolor="#666666"
     borderopacity="1.0"
     inkscape:pageopacity="0.0"
     inkscape:pageshadow="2"
     inkscape:zoom="8.0000000"
     inkscape:cx="25.779004"
     inkscape:cy="27.720930"
     inkscape:window-width="754"
     inkscape:window-height="544"
     inkscape:window-x="547"
     inkscape:window-y="424"
     inkscape:current-layer="svg1" />
  <path
     d="M 8.3898888,44.279826 C 8.7154044,44.731121 11.463314,50.497178 13.043996,51.439704 C 14.696555,52.471793 38.868180,58.722625 40.968356,58.781504 C 43.082438,58.838577 48.097757,56.481176 48.527157,56.248362 C 50.164128,55.224253 59.744622,14.996430 58.600575,13.284944 C 58.377483,12.935380 55.706512,11.039605 51.722869,10.358235 C 47.739226,9.6768640 26.147950,6.8549456 22.117367,6.4952030 C 18.086784,6.1354604 16.008316,6.6003803 15.691345,6.8940725 C 14.370131,8.2675722 7.3072537,42.580144 8.3898888,44.279826 z "
     style="font-size:12.000000px;opacity:0.29999998;fill:#000000;fill-opacity:1.0000000;fill-rule:evenodd;stroke:none;stroke-width:1.8750000;stroke-dasharray:none"
     id="path657"
     sodipodi:nodetypes="cssccsscc" />
  <path
     d="M 5.8898888,40.061076 C 6.2154044,40.512371 8.9633133,46.278428 10.543996,47.220954 C 12.196555,48.253043 36.368180,54.503875 38.468356,54.562754 C 40.582438,54.619827 45.597757,52.262426 46.027157,52.029612 C 47.664128,51.005503 57.244622,10.777680 56.100575,9.0661941 C 55.877483,8.7166301 53.206512,6.8208554 49.222869,6.1394847 C 45.239226,5.4581140 23.647950,2.6361956 19.617367,2.2764530 C 15.586784,1.9167104 13.508316,2.3816303 13.191345,2.6753225 C 11.870131,4.0488222 4.8072536,38.361394 5.8898888,40.061076 z "
     style="font-size:12.000000px;fill:url(#linearGradient861);fill-rule:evenodd;stroke:#261933;stroke-width:1.8750000;stroke-dasharray:none"
     id="path1289"
     sodipodi:nodetypes="cssccsscc" />
  <path
     d="M 19.463161,2.8947939 C 17.647652,9.2969353 14.727289,22.083244 13.915021,28.915380 C 22.944823,31.447565 33.407979,33.693080 42.581222,35.365254 C 44.587810,27.864290 47.412581,14.409048 48.702597,6.7647488 C 39.624946,5.1880827 28.540707,3.3247883 19.463161,2.8947939 z "
     style="font-size:12.000000px;fill:url(#linearGradient862);fill-rule:evenodd;stroke:#261933;stroke-width:1.2500000;stroke-dasharray:none"
     id="path1295"
     sodipodi:nodetypes="ccccc" />
  <path
     style="fill:#ffffff;fill-opacity:1.0000000;fill-rule:evenodd;stroke:none;stroke-width:1.0000000pt;stroke-linecap:butt;stroke-linejoin:miter;stroke-opacity:1.0000000;opacity:0.30000000"
     d="M 13.833256,3.3747117 C 15.533097,3.1049127 16.519112,3.0011293 18.737343,3.1792801 C 14.849900,17.168640 14.476356,23.080884 10.473449,45.899313 C 9.1434195,44.231384 7.9894591,42.077376 6.7422941,39.636048 C 6.2466912,37.945489 10.171845,16.251921 13.833256,3.3747117 z "
     id="path650"
     sodipodi:nodetypes="ccccc" />
  <path
     d="M 11.528027,47.325795 C 12.195638,43.230373 11.913034,44.772823 12.630984,40.606021 C 19.581254,41.959061 27.374393,44.321181 34.329293,46.139484 C 33.411398,49.979109 33.703457,48.705062 32.608772,52.852074 C 25.428759,51.396604 18.595485,49.309307 11.528027,47.325795 z "
     style="font-size:12.000000px;fill:url(#linearGradient869);fill-rule:evenodd;stroke:#261933;stroke-width:1.8750000;stroke-dasharray:none;stroke-opacity:1.0000000"
     id="path1306"
     sodipodi:nodetypes="ccccc" />
  <path
     d="M 7.6082758,39.178935 C 7.2000878,38.132905 12.269137,6.3231590 14.599914,4.3451230 C 16.924052,2.3510450 47.017672,7.5534990 47.413424,8.5675960 C 47.782090,9.5123440 25.234545,3.9453860 17.323178,9.6483240 C 9.6591692,15.172948 7.9645058,40.091749 7.6082758,39.178935 z "
     style="font-size:12.000000px;opacity:0.69999999;fill:url(#linearGradient581);fill-rule:evenodd;stroke:none;stroke-width:1.0000000pt"
     id="path1310"
     sodipodi:nodetypes="ccccc" />
  <path
     d="M 13.346828,46.615999 C 13.267609,46.532815 13.683983,42.455278 14.172993,42.385546 C 14.898338,42.263394 20.645974,43.859966 20.724719,43.942663 C 20.798092,44.019722 16.199371,42.827344 15.108415,43.149529 C 14.002625,43.483107 13.419809,46.692618 13.346828,46.615999 z "
     style="font-size:12.000000px;opacity:0.69999999;fill:url(#linearGradient583);fill-rule:evenodd;stroke:none;stroke-width:1.0000000pt"
     id="path1315"
     sodipodi:nodetypes="ccccc" />
  <path
     d="M 21.327783,9.5736994 C 28.525321,10.698881 36.827169,12.408153 43.687447,14.340753 C 44.130310,14.465540 43.697354,15.817951 43.237098,15.746071 C 36.096053,14.629953 27.799790,12.724859 20.883867,10.776555 C 20.496756,10.667474 20.924127,9.5106721 21.327783,9.5736994 z "
     style="font-size:12.000000px;opacity:0.24999996;fill-rule:evenodd;stroke-width:1.0000000pt"
     id="path1379" />
  <path
     d="M 20.516781,13.582025 C 27.714318,14.707101 36.016060,16.416373 42.876442,18.349081 C 43.319201,18.473867 42.886349,19.826277 42.426096,19.754399 C 35.285051,18.638175 26.988681,16.733187 20.072864,14.784882 C 19.685647,14.675800 20.113122,13.518895 20.516781,13.582025 z "
     style="font-size:12.000000px;opacity:0.24999996;fill-rule:evenodd;stroke-width:1.0000000pt"
     id="path1380" />
  <path
     d="M 19.632002,17.804513 C 26.829538,18.929483 35.131388,20.638756 41.991664,22.571463 C 42.434528,22.696248 42.001465,24.048658 41.541422,23.976781 C 34.400377,22.860556 26.104010,20.955569 19.188085,19.007263 C 18.800973,18.898181 19.228449,17.741276 19.632002,17.804513 z "
     style="font-size:12.000000px;opacity:0.24999996;fill-rule:evenodd;stroke-width:1.0000000pt"
     id="path1381" />
  <path
     style="fill:#000000;fill-opacity:1.0000000;fill-rule:evenodd;stroke:none;stroke-width:1.0000000pt;stroke-linecap:butt;stroke-linejoin:miter;stroke-opacity:1.0000000;opacity:0.14000000"
     d="M 49.252346,7.0796482 C 51.359322,7.4574020 53.493920,8.3047188 55.297061,9.5387348 C 54.410559,20.114111 46.977794,48.035700 45.456000,51.291416 C 43.097145,52.295777 39.605813,53.907809 38.351813,53.558724 C 41.948495,40.303029 46.650032,23.180343 49.252346,7.0796482 z "
     id="path651"
     sodipodi:nodetypes="ccccc" />
  <path
     d="M 18.527148,22.444901 C 25.724684,23.569871 34.026534,25.279144 40.886810,27.211851 C 41.329674,27.336636 40.896611,28.689046 40.436568,28.617169 C 33.295523,27.500944 24.999156,25.595957 18.083231,23.647651 C 17.696119,23.538569 18.123595,22.381664 18.527148,22.444901 z "
     style="font-size:12.000000px;opacity:0.24999996;fill-rule:evenodd;stroke-width:1.0000000pt"
     id="path656" />
  <metadata
     id="metadata39">
    <rdf:RDF>
      <cc:Work
         rdf:about="">
        <dc:format>image/svg+xml</dc:format>
        <dc:type
           rdf:resource="http://purl.org/dc/dcmitype/StillImage" />
      </cc:Work>
    </rdf:RDF>
  </metadata>
</svg>
