<?xml version="1.0" encoding="UTF-8" standalone="no"?>
<!DOCTYPE svg PUBLIC "-//W3C//DTD SVG 20010904//EN"
"http://www.w3.org/TR/2001/REC-SVG-20010904/DTD/svg10.dtd">
<!-- Created with Inkscape (http://www.inkscape.org/) -->
<svg
   version="1.0"
   x="0"
   y="0"
   width="48pt"
   height="48pt"
   id="svg611"
   sodipodi:version="0.32"
   inkscape:version="0.38.1"
   sodipodi:docname="gnome-settings-background.svg"
   sodipodi:docbase="/home/dan/svg-icons/lila/gnome/scalable/apps"
   xmlns="http://www.w3.org/2000/svg"
   xmlns:inkscape="http://www.inkscape.org/namespaces/inkscape"
   xmlns:sodipodi="http://sodipodi.sourceforge.net/DTD/sodipodi-0.dtd"
   xmlns:xlink="http://www.w3.org/1999/xlink">
  <sodipodi:namedview
     id="base"
     pagecolor="#ffffff"
     bordercolor="#666666"
     borderopacity="1.0"
     inkscape:pageopacity="0.0"
     inkscape:pageshadow="2"
     inkscape:zoom="5.6568542"
     inkscape:cx="27.050956"
     inkscape:cy="23.492769"
     inkscape:window-width="671"
     inkscape:window-height="525"
     inkscape:window-x="90"
     inkscape:window-y="300" />
  <defs
     id="defs613">
    <linearGradient
       id="linearGradient1535">
      <stop
         style="stop-color:#ffffff;stop-opacity:1;"
         offset="0"
         id="stop1537" />
      <stop
         style="stop-color:#ffffff;stop-opacity:0;"
         offset="1"
         id="stop1536" />
    </linearGradient>
    <linearGradient
       id="linearGradient1528">
      <stop
         style="stop-color:#d9cce6;stop-opacity:1.0000000;"
         offset="0.0000000"
         id="stop1530" />
      <stop
         style="stop-color:#73667f;stop-opacity:1.0000000;"
         offset="1.0000000"
         id="stop1529" />
    </linearGradient>
    <linearGradient
       id="linearGradient642">
      <stop
         style="stop-color:#ffffff;stop-opacity:1;"
         offset="0"
         id="stop643" />
      <stop
         style="stop-color:#ffffff;stop-opacity:0;"
         offset="1"
         id="stop644" />
    </linearGradient>
    <linearGradient
       id="linearGradient635">
      <stop
         style="stop-color:#ffffff;stop-opacity:1.0000000;"
         offset="0.0000000"
         id="stop636" />
      <stop
         style="stop-color:#d9cce6;stop-opacity:1.0000000;"
         offset="1.0000000"
         id="stop637" />
    </linearGradient>
    <linearGradient
       x1="0.00833333"
       y1="0.00000000"
       x2="0.94166666"
       y2="0.95312500"
       id="linearGradient638"
       xlink:href="#linearGradient1528" />
    <linearGradient
       x1="0.027523"
       y1="0.023438"
       x2="1.000000"
       y2="1.015625"
       id="linearGradient641"
       xlink:href="#linearGradient642" />
    <linearGradient
       x1="-0.000009"
       y1="0.015624"
       x2="0.727272"
       y2="0.984375"
       id="linearGradient1522"
       xlink:href="#linearGradient642" />
    <linearGradient
       x1="0.027523"
       y1="0.007813"
       x2="1.009174"
       y2="0.992188"
       id="linearGradient1527"
       xlink:href="#linearGradient1535" />
    <linearGradient
       id="linearGradient1532"
       xlink:href="#linearGradient635" />
    <linearGradient
       id="linearGradient1534"
       xlink:href="#linearGradient1528"
       x1="0.00000000"
       y1="0.00000000"
       x2="1.00000000"
       y2="0.00000000" />
    <linearGradient
       id="linearGradient1539"
       xlink:href="#linearGradient1528"
       x1="0.00000000"
       y1="-0.00000000"
       x2="1.00000000"
       y2="-0.00000000" />
    <linearGradient
       id="linearGradient1567"
       xlink:href="#linearGradient635"
       x1="0.66521740"
       y1="0.21093750"
       x2="0.32608697"
       y2="0.73437500" />
  </defs>
  <path
     d="M 11.323296 57.160451 C 11.951521 57.577304 14.621051 58.71284 15.942291 58.429631 C 17.047672 58.07211 55.203686 45.61152 56.142616 44.148515 C 57.124721 42.551005 55.856932 11.468189 54.696814 10.413698 C 53.445181 9.265018 12.788123 5.1677725 11.53798 5.1310154 C 10.405014 4.9884573 7.6400123 5.9645902 7.1064044 6.5581759 C 6.0443342 7.7273842 10.152592 56.301396 11.323296 57.160451 z "
     style="font-size:12;opacity:0.3;fill-rule:evenodd;stroke-width:12.5;"
     id="path839" />
  <path
     d="M 10.710824 54.464037 C 11.309499 54.860979 13.851862 55.942451 15.110416 55.672891 C 16.163471 55.332261 52.506055 43.463828 53.400251 42.070343 C 54.335686 40.548752 53.128257 10.943036 52.023269 9.9385553 C 50.831206 8.844563 12.106038 4.9420868 10.915404 4.907046 C 9.8362807 4.7712615 7.2027255 5.7009364 6.6944162 6.2663239 C 5.6828474 7.3800001 9.5957511 53.645804 10.710824 54.464037 z "
     style="font-size:12;fill:url(#linearGradient638);fill-rule:evenodd;stroke:#261933;stroke-width:1.875;stroke-dasharray:none;"
     id="path834" />
  <path
     d="M 14.383126 53.660677 C 14.070498 53.348051 10.313979 7.7669659 10.825691 6.4958449 C 11.139641 6.1159772 50.332629 10.543036 50.646074 10.856477 C 50.944548 11.155154 14.326404 6.3756002 12.77671 8.676233 C 11.094427 11.058617 14.682413 53.959959 14.383126 53.660677 z "
     style="font-size:12;opacity:0.7;fill:url(#linearGradient641);fill-rule:evenodd;stroke:none;stroke-width:0.105188pt;"
     id="path835" />
  <path
     d="M 11.514286 52.972175 C 11.398196 52.797942 8.00685 21.776137 7.8420129 7.1843481 C 7.8321255 6.6661201 9.7765052 6.2993477 9.9075644 6.4958449 C 10.006036 6.6436043 8.5226851 7.8148987 8.5305678 8.2171495 C 8.701402 22.810149 11.627626 53.142245 11.514286 52.972175 z "
     style="font-size:12;opacity:0.699936;fill:url(#linearGradient1522);fill-rule:evenodd;stroke:none;stroke-width:0.105188pt;"
     id="path836" />
  <path
     d="M 15.177322 10.961774 C 14.558788 11.749148 16.374674 48.355066 17.31663 49.041019 C 18.289339 49.671571 48.857076 39.875433 49.619702 38.879506 C 50.338948 38.047123 49.355237 14.69976 48.871027 13.849962 C 48.247804 12.943851 15.852983 10.20882 15.177322 10.961774 z "
     style="font-size:12;fill:#261933;fill-rule:evenodd;stroke:#261933;stroke-width:0.613348;fill-opacity:0.50000000;"
     id="path837" />
  <path
     d="M 17.744431 47.008737 C 17.506854 46.716067 15.346975 12.931632 15.926202 12.138455 C 16.692801 11.234891 45.424386 13.9854 45.661957 14.277763 C 45.888033 14.555666 19.622945 11.623281 17.31663 13.84986 C 15.744634 15.369718 17.970295 47.286535 17.744431 47.008737 z "
     style="font-size:12;opacity:0.699936;fill:url(#linearGradient1527);fill-rule:evenodd;stroke:none;stroke-width:0.0980447pt;"
     id="path838" />
  <path
     d="M 28.020713 29.093211 C 27.781899 28.356784 23.139879 27.095185 22.732622 23.642136 C 22.323586 20.119927 27.227734 14.889943 32.11641 14.788799 C 38.673329 14.599045 47.167107 22.644635 47.757032 27.202705 C 48.421192 32.273411 32.082532 43.171129 27.462679 42.574096 C 22.972899 42.048065 21.835711 38.174339 22.40901 35.493698 C 22.99883 32.844182 28.134474 29.775716 28.020713 29.093211 z "
     style="font-size:12;opacity:0.296369;fill:#000000;fill-rule:evenodd;stroke-width:1pt;fill-opacity:1;"
     id="path581" />
  <path
     d="M 27.877914 28.563175 C 27.658978 27.888045 23.403338 26.731456 23.029978 23.565821 C 22.654987 20.336785 27.150939 15.542118 31.632704 15.449393 C 37.643858 15.275434 45.430655 22.651349 45.971478 26.830027 C 46.580356 31.47867 31.601646 41.469317 27.366329 40.921982 C 23.250256 40.439731 22.207721 36.888434 22.733301 34.430918 C 23.274028 32.001933 27.982206 29.188873 27.877914 28.563175 z "
     style="font-size:12;fill:#d9cce6;fill-rule:evenodd;stroke:#261e2e;stroke-width:1.39216;fill-opacity:1.0000000;"
     id="path552" />
  <path
     d="M 30.423549 27.582846 C 30.207427 26.943168 25.044465 25.843184 24.263725 23.835071 C 23.441347 21.853052 27.207849 17.578986 31.618553 17.22606 C 36.557256 16.826203 44.333161 22.77723 45.251675 26.83391 C 45.904201 29.809941 31.022706 39.286101 26.885751 38.493613 C 23.343886 37.89561 23.210182 36.011679 23.686519 34.599693 C 24.314442 32.806904 30.526499 28.175686 30.423549 27.582846 z "
     style="font-size:12;fill:url(#linearGradient1532);fill-rule:evenodd;stroke-width:1pt;"
     id="path596" />
  <path
     d="M 31.322728 21.088675 C 33.673039 18.833265 37.658741 22.55573 36.486329 24.703721 C 35.110699 27.051593 29.009003 23.309022 31.322728 21.088675 z "
     style="font-size:12;fill:url(#linearGradient1539);fill-rule:evenodd;stroke-width:1pt;"
     id="path568" />
  <path
     d="M 32.351317 21.863905 C 33.706056 20.56387 36.003445 22.709527 35.327659 23.947647 C 34.534733 25.300979 31.017668 23.143731 32.351317 21.863905 z "
     style="font-size:12;fill:#d9cce6;fill-rule:evenodd;stroke-width:1pt;fill-opacity:1.0000000;"
     id="path562" />
  <path
     d="M 35.465705,23.379122 C 35.448930,23.887146 35.140752,24.575827 34.447423,24.433685 C 33.762529,24.317944 32.650115,23.827986 32.324396,22.953088 C 32.228923,22.689248 33.699934,21.957885 34.255710,22.130005 C 34.684284,22.262620 35.488231,22.982073 35.465705,23.379122 z "
     style="font-size:12;fill:#000000;fill-rule:evenodd;stroke-width:1pt;fill-opacity:1;"
     id="path574"
     sodipodi:nodetypes="ccccc" />
  <path
     d="M 23.686982 36.877274 C 24.400514 38.822802 26.252646 39.921037 28.013654 39.98382 C 32.4922 39.826956 44.166648 31.574161 44.956119 27.651713 C 42.785143 30.350358 33.828142 37.661782 27.831497 38.383507 C 26.313396 38.414899 25.296205 38.210947 23.686982 36.877274 z "
     style="font-size:12;fill:url(#linearGradient1567);fill-rule:evenodd;stroke-width:1pt;"
     id="path582" />
</svg>
