<?xml version="1.0" encoding="UTF-8" standalone="no"?>
<!DOCTYPE svg PUBLIC "-//W3C//DTD SVG 20010904//EN"
"http://www.w3.org/TR/2001/REC-SVG-20010904/DTD/svg10.dtd">
<!-- Created with Inkscape (http://www.inkscape.org/) -->
<svg
   version="1.0"
   x="0"
   y="0"
   width="48.000000pt"
   height="48.000000pt"
   id="svg1"
   sodipodi:version="0.32"
   inkscape:version="0.38.1"
   sodipodi:docname="gnome-logo-icon-transparent.svg"
   sodipodi:docbase="/home/ed"
   xmlns="http://www.w3.org/2000/svg"
   xmlns:inkscape="http://www.inkscape.org/namespaces/inkscape"
   xmlns:sodipodi="http://sodipodi.sourceforge.net/DTD/sodipodi-0.dtd"
   xmlns:xlink="http://www.w3.org/1999/xlink">
  <sodipodi:namedview
     id="base"
     pagecolor="#ffffff"
     bordercolor="#666666"
     borderopacity="1.0"
     inkscape:pageopacity="0.0"
     inkscape:pageshadow="2"
     inkscape:zoom="4.9119411"
     inkscape:cx="37.042618"
     inkscape:cy="31.032089"
     inkscape:window-width="640"
     inkscape:window-height="503"
     inkscape:window-x="98"
     inkscape:window-y="322" />
  <defs
     id="defs3">
    <linearGradient
       id="linearGradient652">
      <stop
         style="stop-color:#ffffff;stop-opacity:1;"
         offset="0"
         id="stop653" />
      <stop
         style="stop-color:#ffffff;stop-opacity:0;"
         offset="1"
         id="stop654" />
    </linearGradient>
    <linearGradient
       id="linearGradient646">
      <stop
         style="stop-color:#d9cce6;stop-opacity:1;"
         offset="0.00000000"
         id="stop647" />
      <stop
         style="stop-color:#73667f;stop-opacity:1;"
         offset="1.00000000"
         id="stop648" />
    </linearGradient>
    <defs
       id="defs588" />
    <linearGradient
       x1="0.03278688"
       y1="0.05468750"
       x2="0.96721309"
       y2="0.96093750"
       id="linearGradient649"
       xlink:href="#linearGradient646" />
    <linearGradient
       x1="-0.012345"
       y1="0.015622"
       x2="0.962963"
       y2="0.976562"
       id="linearGradient651"
       xlink:href="#linearGradient652" />
    <linearGradient
       x1="0.006135"
       y1="0.015626"
       x2="0.975460"
       y2="1.000000"
       id="linearGradient656"
       xlink:href="#linearGradient652" />
    <linearGradient
       x1="0.015757"
       y1="0.039054"
       x2="0.992126"
       y2="0.976562"
       id="linearGradient658"
       xlink:href="#linearGradient652" />
    <linearGradient
       x1="0.07142857"
       y1="0.06250001"
       x2="0.98214287"
       y2="0.95312500"
       id="linearGradient663"
       xlink:href="#linearGradient646" />
    <linearGradient
       x1="0.03571417"
       y1="0.10156250"
       x2="0.98214293"
       y2="0.97656244"
       id="linearGradient664"
       xlink:href="#linearGradient646" />
    <linearGradient
       x1="0.08928561"
       y1="0.08593744"
       x2="0.98214304"
       y2="0.96093750"
       id="linearGradient665"
       xlink:href="#linearGradient646" />
    <linearGradient
       x1="0.04464274"
       y1="0.09374994"
       x2="1.00892878"
       y2="0.99218732"
       id="linearGradient666"
       xlink:href="#linearGradient646" />
    <linearGradient
       x1="0.009712"
       y1="0.007812"
       x2="0.990291"
       y2="0.968750"
       id="linearGradient668"
       xlink:href="#linearGradient652" />
    <linearGradient
       id="linearGradient675"
       xlink:href="#linearGradient652" />
  </defs>
  <ellipse
     cx="235.504730"
     cy="137.500076"
     rx="62.354645"
     ry="72.145889"
     transform="matrix(6.854981e-2,0.000000,0.000000,6.854981e-2,37.17641,20.18796)"
     style="font-size:12;opacity:0.296369;fill-rule:evenodd;stroke-width:22.2427;"
     id="path680" />
  <ellipse
     cx="235.504730"
     cy="137.500076"
     rx="62.354645"
     ry="72.145889"
     transform="matrix(6.217824e-2,0.000000,0.000000,6.217824e-2,32.60852,12.44227)"
     style="font-size:12;opacity:0.296369;fill-rule:evenodd;stroke-width:17.3851;"
     id="path678" />
  <ellipse
     cx="235.504730"
     cy="137.500076"
     rx="62.354645"
     ry="72.145889"
     transform="matrix(7.397340e-2,0.000000,0.000000,7.397340e-2,20.58467,4.051515)"
     style="font-size:12;opacity:0.296369;fill-rule:evenodd;stroke-width:14.9752;"
     id="path677" />
  <ellipse
     cx="235.504730"
     cy="137.500076"
     rx="62.354645"
     ry="72.145889"
     transform="matrix(9.601626e-2,0.000000,0.000000,9.601626e-2,2.737556,-3.227711)"
     style="font-size:12;opacity:0.302675;fill-rule:evenodd;stroke-width:12.5;"
     id="path676" />
  <path
     d="M 20.882642,39.434045 C 20.519262,38.349879 13.456431,36.492485 12.836830,31.408971 C 12.214515,26.223510 19.676118,18.523925 27.114160,18.375078 C 37.090435,18.095622 50.013588,29.940472 50.911235,36.650777 C 51.921681,44.115966 27.062593,60.159602 20.033525,59.280628 C 13.202490,58.506100 11.472337,52.803308 12.344471,48.856836 C 13.241792,44.956287 21.055700,40.438849 20.882642,39.434045 z M 28.306899,28.675862 C 30.555141,26.588196 34.367965,30.033841 33.246449,32.022167 C 31.930380,34.195389 26.093400,30.731177 28.306899,28.675862 z "
     style="font-size:12;opacity:0.296369;fill-rule:evenodd;stroke-width:12.5;stroke-linejoin:round;"
     id="path674" />
  <ellipse
     cx="310.227997"
     cy="331.262512"
     rx="293.737457"
     ry="298.890747"
     transform="matrix(9.348947e-2,0.000000,0.000000,9.348947e-2,0.701059,0.838508)"
     style="font-size:12;opacity:0.296369;fill:#cccccc;fill-rule:evenodd;stroke:#ffffff;stroke-width:12.5041;stroke-dashoffset:0;"
     id="path672" />
  <path
     d="M 20.463636,38.254640 C 20.128693,37.255022 13.616647,35.542572 13.045364,30.855491 C 12.471578,26.074409 19.351300,18.975264 26.209300,18.837923 C 35.407588,18.580361 47.322849,29.501406 48.150593,35.688523 C 49.082243,42.571445 26.161751,57.364045 19.680836,56.553517 C 13.382508,55.839489 11.787280,50.581323 12.591401,46.942706 C 13.418745,43.346338 20.623198,39.181085 20.463636,38.254640 z M 27.308921,28.335518 C 29.381938,26.410653 32.897427,29.587595 31.863272,31.420768 C 30.649934,33.424511 25.268139,30.230453 27.308921,28.335518 z "
     style="font-size:12.000000;fill:url(#linearGradient649);fill-rule:evenodd;stroke:#261e2e;stroke-width:1.8769157;stroke-linejoin:round;"
     id="path594" />
  <path
     d="M 16.789786,54.209525 C 14.863520,53.130925 13.532862,48.925932 14.216759,47.579158 C 15.676950,44.703725 21.646644,39.758374 21.935637,39.860380 C 22.207516,39.956276 17.378386,45.365499 16.591884,48.766769 C 15.695168,52.211286 17.220825,54.463984 16.789786,54.209525 z "
     style="font-size:12.000000;opacity:0.69993597;fill:url(#linearGradient651);fill-rule:evenodd;stroke:#ffffff;stroke-width:0.096016389pt;"
     id="path650" />
  <path
     d="M 20.055419,36.198743 C 14.473221,32.189452 13.055876,29.735545 17.779295,24.818529 C 20.304173,22.293150 26.587987,18.423301 35.196272,22.938209 C 27.621941,20.995126 21.432324,26.499043 19.758615,28.084161 C 18.367295,29.397101 16.591783,31.570119 20.055419,36.198743 z "
     style="font-size:12.000000;opacity:0.69999999;fill:url(#linearGradient656);fill-rule:evenodd;stroke:#ffffff;stroke-width:0.096016389pt;"
     id="path655" />
  <path
     d="M 28.539078,34.367473 C 28.244875,34.165167 32.038949,34.012912 32.832961,33.025705 C 33.693738,31.955413 33.196533,27.983860 33.503847,28.195175 C 33.912063,28.475862 35.809498,33.470157 34.979752,34.501709 C 34.154609,35.527558 28.960506,34.657169 28.539078,34.367473 z "
     style="font-size:12.000000;opacity:0.69999999;fill:url(#linearGradient658);fill-rule:evenodd;stroke:#ffffff;stroke-width:0.13019087pt;"
     id="path657" />
  <ellipse
     cx="235.504730"
     cy="137.500076"
     rx="62.354645"
     ry="72.145889"
     transform="matrix(9.601626e-2,0.000000,0.000000,9.601626e-2,1.648994,-4.712119)"
     style="font-size:12;fill:url(#linearGradient663);fill-rule:evenodd;stroke:#261e2e;stroke-width:19.5479;stroke-dasharray:none;stroke-opacity:1;"
     id="path659" />
  <ellipse
     cx="235.504730"
     cy="137.500076"
     rx="62.354645"
     ry="72.145889"
     transform="matrix(7.397340e-2,0.000000,0.000000,7.397340e-2,19.79299,2.666073)"
     style="font-size:12;fill:url(#linearGradient664);fill-rule:evenodd;stroke:#261e2e;stroke-width:25.3728;stroke-opacity:1;stroke-dasharray:none;"
     id="path660" />
  <ellipse
     cx="235.504730"
     cy="137.500076"
     rx="62.354645"
     ry="72.145889"
     transform="matrix(6.217824e-2,0.000000,0.000000,6.217824e-2,31.91577,11.15581)"
     style="font-size:12;fill:url(#linearGradient665);fill-rule:evenodd;stroke:#261e2e;stroke-width:30.186;stroke-opacity:1;stroke-dasharray:none;"
     id="path661" />
  <ellipse
     cx="235.504730"
     cy="137.500076"
     rx="62.354645"
     ry="72.145889"
     transform="matrix(5.237237e-2,0.000000,0.000000,5.237237e-2,40.08138,21.32786)"
     style="font-size:12;fill:url(#linearGradient666);fill-rule:evenodd;stroke:#261e2e;stroke-width:35.8378;stroke-dasharray:none;stroke-opacity:1;"
     id="path662" />
  <path
     d="M 21.693697,12.835881 C 21.430344,12.555070 18.765085,8.2094129 20.840037,5.1536457 C 22.777222,2.2058760 27.319130,3.9334168 27.573944,4.2052101 C 27.793258,4.4392513 24.431198,3.4590788 22.262705,6.6711394 C 20.322162,9.6770197 21.904568,13.060857 21.693697,12.835881 z "
     style="font-size:12.000000;opacity:0.69999999;fill:url(#linearGradient668);fill-rule:evenodd;stroke:#ffffff;stroke-width:0.092022431pt;"
     id="path667" />
  <path
     d="M 35.413542,15.705339 C 35.232634,15.512462 33.402015,12.527641 34.827303,10.428719 C 36.157685,8.4041846 39.277214,9.5907842 39.452278,9.7773526 C 39.603035,9.9381313 37.293702,9.2648684 35.804400,11.471130 C 34.471607,13.535725 35.558365,15.859902 35.413542,15.705339 z "
     style="font-size:12.000000;opacity:0.69999999;fill:url(#linearGradient668);fill-rule:evenodd;stroke:#ffffff;stroke-width:0.063204908pt;"
     id="path669" />
  <path
     d="M 45.176571,22.243915 C 45.029743,22.087317 43.543363,19.663768 44.700592,17.959476 C 45.780822,16.315601 48.313907,17.279033 48.455983,17.430521 C 48.578338,17.561125 46.703289,17.014421 45.494068,18.805840 C 44.411779,20.482255 45.294178,22.369408 45.176571,22.243915 z "
     style="font-size:12.000000;opacity:0.69999999;fill:url(#linearGradient668);fill-rule:evenodd;stroke:#ffffff;stroke-width:0.051320779pt;"
     id="path670" />
  <path
     d="M 51.433560,30.529997 C 51.315150,30.403867 50.117208,28.450555 51.049838,27.077041 C 51.920511,25.752256 53.961964,26.528664 54.076467,26.650714 C 54.175085,26.756075 52.663990,26.315454 51.689375,27.759182 C 50.817103,29.110237 51.528270,30.631188 51.433560,30.529997 z "
     style="font-size:12.000000;opacity:0.69999999;fill:url(#linearGradient668);fill-rule:evenodd;stroke:#ffffff;stroke-width:0.041360915pt;"
     id="path671" />
</svg>
