<?xml version="1.0" encoding="UTF-8" standalone="no"?>
<!DOCTYPE svg PUBLIC "-//W3C//DTD SVG 20010904//EN"
"http://www.w3.org/TR/2001/REC-SVG-20010904/DTD/svg10.dtd">
<!-- Created with Inkscape (http://www.inkscape.org/) -->
<svg
   version="1.0"
   x="0"
   y="0"
   width="625.000000"
   height="625.000000"
   id="svg1"
   sodipodi:version="0.32"
   inkscape:version="0.37"
   sodipodi:docname="gnome-logo.svg"
   sodipodi:docbase="/usr/share/icons/Lila/scalable/apps"
   xmlns="http://www.w3.org/2000/svg"
   xmlns:inkscape="http://www.inkscape.org/namespaces/inkscape"
   xmlns:sodipodi="http://sodipodi.sourceforge.net/DTD/sodipodi-0.dtd"
   xmlns:xlink="http://www.w3.org/1999/xlink">
  <sodipodi:namedview
     id="base"
     pagecolor="#ffffff"
     bordercolor="#666666"
     borderopacity="1.0"
     inkscape:pageopacity="0.0"
     inkscape:pageshadow="2"
     inkscape:zoom="0.61399264"
     inkscape:cx="276.025421"
     inkscape:cy="250.151262"
     inkscape:window-width="640"
     inkscape:window-height="500"
     inkscape:window-x="98"
     inkscape:window-y="322" />
  <defs
     id="defs3">
    <linearGradient
       id="linearGradient652">
      <stop
         style="stop-color:#ffffff;stop-opacity:1;"
         offset="0"
         id="stop653" />
      <stop
         style="stop-color:#ffffff;stop-opacity:0;"
         offset="1"
         id="stop654" />
    </linearGradient>
    <linearGradient
       id="linearGradient646">
      <stop
         style="stop-color:#d9cce6;stop-opacity:1;"
         offset="0.00000000"
         id="stop647" />
      <stop
         style="stop-color:#73667f;stop-opacity:1;"
         offset="1.00000000"
         id="stop648" />
    </linearGradient>
    <defs
       id="defs588" />
    <linearGradient
       x1="0.03278688"
       y1="0.05468750"
       x2="0.96721309"
       y2="0.96093750"
       id="linearGradient649"
       xlink:href="#linearGradient646" />
    <linearGradient
       x1="-0.012345"
       y1="0.015622"
       x2="0.962963"
       y2="0.976562"
       id="linearGradient651"
       xlink:href="#linearGradient652" />
    <linearGradient
       x1="0.006135"
       y1="0.015626"
       x2="0.975460"
       y2="1.000000"
       id="linearGradient656"
       xlink:href="#linearGradient652" />
    <linearGradient
       x1="0.015757"
       y1="0.039054"
       x2="0.992126"
       y2="0.976562"
       id="linearGradient658"
       xlink:href="#linearGradient652" />
    <linearGradient
       x1="0.07142857"
       y1="0.06250001"
       x2="0.98214287"
       y2="0.95312500"
       id="linearGradient663"
       xlink:href="#linearGradient646" />
    <linearGradient
       x1="0.03571417"
       y1="0.10156250"
       x2="0.98214293"
       y2="0.97656244"
       id="linearGradient664"
       xlink:href="#linearGradient646" />
    <linearGradient
       x1="0.08928561"
       y1="0.08593744"
       x2="0.98214304"
       y2="0.96093750"
       id="linearGradient665"
       xlink:href="#linearGradient646" />
    <linearGradient
       x1="0.04464274"
       y1="0.09374994"
       x2="1.00892878"
       y2="0.99218732"
       id="linearGradient666"
       xlink:href="#linearGradient646" />
    <linearGradient
       x1="0.009712"
       y1="0.007812"
       x2="0.990291"
       y2="0.968750"
       id="linearGradient668"
       xlink:href="#linearGradient652" />
    <linearGradient
       id="linearGradient675"
       xlink:href="#linearGradient652" />
  </defs>
  <ellipse
     cx="235.504730"
     cy="137.500076"
     rx="62.354645"
     ry="72.145889"
     transform="matrix(0.684797,0.000000,0.000000,0.684797,388.1452,211.2186)"
     style="font-size:12;opacity:0.296369;fill-rule:evenodd;stroke-width:22.2427;"
     id="path680" />
  <ellipse
     cx="235.504730"
     cy="137.500076"
     rx="62.354645"
     ry="72.145889"
     transform="matrix(0.621149,0.000000,0.000000,0.621148,342.5129,133.8408)"
     style="font-size:12;opacity:0.296369;fill-rule:evenodd;stroke-width:17.3851;"
     id="path678" />
  <ellipse
     cx="235.504730"
     cy="137.500076"
     rx="62.354645"
     ry="72.145889"
     transform="matrix(0.738979,0.000000,0.000000,0.738979,222.3970,50.01884)"
     style="font-size:12;opacity:0.296369;fill-rule:evenodd;stroke-width:14.9752;"
     id="path677" />
  <ellipse
     cx="235.504730"
     cy="137.500076"
     rx="62.354645"
     ry="72.145889"
     transform="matrix(0.959184,0.000000,0.000000,0.959184,44.10816,-22.69913)"
     style="font-size:12;opacity:0.302675;fill-rule:evenodd;stroke-width:12.5;"
     id="path676" />
  <path
     d="M 225.37379 403.48302 C 221.7437 392.65241 151.18748 374.09743 144.99779 323.31417 C 138.78098 271.51249 213.32086 194.59522 287.62538 193.10826 C 387.28629 190.31655 516.38593 308.64415 525.35323 375.67874 C 535.44741 450.25441 287.11021 610.52703 216.89129 601.74628 C 148.65065 594.00889 131.36679 537.03919 140.07922 497.61474 C 149.04327 458.64906 227.10261 413.5208 225.37379 403.48302 z M 299.54057 296.01097 C 322.00004 275.1556 360.08938 309.57689 348.88567 329.43987 C 335.7384 351.1499 277.42817 316.54314 299.54057 296.01097 z "
     style="font-size:12;opacity:0.296369;fill-rule:evenodd;stroke-width:12.5;stroke-linejoin:round;"
     id="path674" />
  <ellipse
     cx="310.227997"
     cy="331.262512"
     rx="293.737457"
     ry="298.890747"
     transform="matrix(0.933942,0.000000,0.000000,0.933942,23.76395,17.92156)"
     style="font-size:12;opacity:0.296369;fill:#cccccc;fill-rule:evenodd;stroke:#ffffff;stroke-width:12.5041;stroke-dashoffset:0;"
     id="path672" />
  <path
     d="M 221.188 391.701 C 217.842 381.715 152.788 364.608 147.081 317.785 C 141.349 270.023 210.076 199.104 278.586 197.732 C 370.475 195.159 489.506 304.258 497.775 366.066 C 507.082 434.825 278.111 582.6 213.368 574.503 C 150.449 567.37 134.513 514.842 142.546 478.493 C 150.811 442.566 222.782 400.956 221.188 391.701 z M 289.571 292.611 C 310.28 273.382 345.399 305.119 335.068 323.432 C 322.947 343.449 269.184 311.541 289.571 292.611 z "
     style="font-size:12;fill:url(#linearGradient649);fill-rule:evenodd;stroke:#261e2e;stroke-width:18.75;stroke-linejoin:round;stroke-dasharray:none;stroke-opacity:1;"
     id="path594" />
  <path
     d="M 184.487 551.087 C 165.244 540.312 151.951 498.305 158.783 484.851 C 173.37 456.126 233.006 406.723 235.893 407.742 C 238.609 408.7 190.367 462.737 182.51 496.715 C 173.552 531.125 188.793 553.629 184.487 551.087 z "
     style="font-size:12;opacity:0.699936;fill:url(#linearGradient651);fill-rule:evenodd;stroke:#ffffff;stroke-width:0.959184pt;"
     id="path650" />
  <path
     d="M 217.11 371.163 C 161.345 331.111 147.186 306.597 194.372 257.477 C 219.595 232.249 282.369 193.59 368.364 238.693 C 292.698 219.282 230.865 274.265 214.145 290.1 C 200.246 303.216 182.509 324.924 217.11 371.163 z "
     style="font-size:12;opacity:0.7;fill:url(#linearGradient656);fill-rule:evenodd;stroke:#ffffff;stroke-width:0.959184pt;"
     id="path655" />
  <path
     d="M 301.86 352.869 C 298.921 350.848 336.823 349.327 344.755 339.465 C 353.354 328.773 348.387 289.098 351.457 291.209 C 355.535 294.013 374.49 343.905 366.201 354.21 C 357.958 364.458 306.07 355.763 301.86 352.869 z "
     style="font-size:12;opacity:0.7;fill:url(#linearGradient658);fill-rule:evenodd;stroke:#ffffff;stroke-width:1.30058pt;"
     id="path657" />
  <ellipse
     cx="235.504730"
     cy="137.500076"
     rx="62.354645"
     ry="72.145889"
     transform="matrix(0.959184,0.000000,0.000000,0.959184,33.23363,-37.52808)"
     style="font-size:12;fill:url(#linearGradient663);fill-rule:evenodd;stroke:#261e2e;stroke-width:19.5479;stroke-dasharray:none;stroke-opacity:1;"
     id="path659" />
  <ellipse
     cx="235.504730"
     cy="137.500076"
     rx="62.354645"
     ry="72.145889"
     transform="matrix(0.738979,0.000000,0.000000,0.738979,214.4883,36.17855)"
     style="font-size:12;fill:url(#linearGradient664);fill-rule:evenodd;stroke:#261e2e;stroke-width:25.3728;stroke-opacity:1;stroke-dasharray:none;"
     id="path660" />
  <ellipse
     cx="235.504730"
     cy="137.500076"
     rx="62.354645"
     ry="72.145889"
     transform="matrix(0.621149,0.000000,0.000000,0.621148,335.5926,120.9892)"
     style="font-size:12;fill:url(#linearGradient665);fill-rule:evenodd;stroke:#261e2e;stroke-width:30.186;stroke-opacity:1;stroke-dasharray:none;"
     id="path661" />
  <ellipse
     cx="235.504730"
     cy="137.500076"
     rx="62.354645"
     ry="72.145889"
     transform="matrix(0.523190,0.000000,0.000000,0.523190,417.1652,222.6059)"
     style="font-size:12;fill:url(#linearGradient666);fill-rule:evenodd;stroke:#261e2e;stroke-width:35.8378;stroke-dasharray:none;stroke-opacity:1;"
     id="path662" />
  <path
     d="M 233.47605 137.77283 C 230.84523 134.96759 204.21983 91.555368 224.94817 61.028883 C 244.30025 31.581272 289.67298 48.839048 292.2185 51.554204 C 294.40941 53.892229 260.82313 44.10051 239.16034 76.18833 C 219.77471 106.21645 235.58262 140.02029 233.47605 137.77283 z "
     style="font-size:12;opacity:0.7;fill:url(#linearGradient668);fill-rule:evenodd;stroke:#ffffff;stroke-width:0.919285pt;"
     id="path667" />
  <path
     d="M 370.53448 166.43813 C 368.72723 164.51133 350.43973 134.69358 364.67807 113.72578 C 377.9683 93.501097 409.13175 105.35498 410.88061 107.21876 C 412.38665 108.8249 389.31689 102.09915 374.43907 124.13924 C 361.12474 144.76412 371.98121 167.98217 370.53448 166.43813 z "
     style="font-size:12;opacity:0.7;fill:url(#linearGradient668);fill-rule:evenodd;stroke:#ffffff;stroke-width:0.631404pt;"
     id="path669" />
  <path
     d="M 468.06512 231.75714 C 466.59834 230.19276 451.7497 205.98201 463.31018 188.95649 C 474.10146 172.53452 499.40647 182.159 500.82579 183.67234 C 502.0481 184.97704 483.31671 179.51558 471.23686 197.41149 C 460.42499 214.15852 469.23997 233.0108 468.06512 231.75714 z "
     style="font-size:12;opacity:0.7;fill:url(#linearGradient668);fill-rule:evenodd;stroke:#ffffff;stroke-width:0.512684pt;"
     id="path670" />
  <path
     d="M 530.57117 314.53341 C 529.38828 313.27338 517.42109 293.76019 526.73787 280.03907 C 535.43572 266.80475 555.82942 274.56091 556.97329 275.78015 C 557.95844 276.83268 542.8629 272.431 533.1267 286.85352 C 524.41289 300.35031 531.5173 315.54427 530.57117 314.53341 z "
     style="font-size:12;opacity:0.7;fill:url(#linearGradient668);fill-rule:evenodd;stroke:#ffffff;stroke-width:0.413187pt;"
     id="path671" />
</svg>
