<?xml version="1.0" encoding="UTF-8" standalone="no"?>
<!DOCTYPE svg PUBLIC "-//W3C//DTD SVG 20010904//EN"
"http://www.w3.org/TR/2001/REC-SVG-20010904/DTD/svg10.dtd">
<!-- Created with Inkscape (http://www.inkscape.org/) -->
<svg
   width="8.0000000pt"
   height="24.000000pt"
   id="svg2895"
   sodipodi:version="0.32"
   inkscape:version="0.40"
   sodipodi:docbase="/home/stefan/software/Lila-themes/new-lila-icons"
   sodipodi:docname="gnome-netstatus-75-100.svg"
   xmlns="http://www.w3.org/2000/svg"
   xmlns:cc="http://web.resource.org/cc/"
   xmlns:inkscape="http://www.inkscape.org/namespaces/inkscape"
   xmlns:sodipodi="http://sodipodi.sourceforge.net/DTD/sodipodi-0.dtd"
   xmlns:rdf="http://www.w3.org/1999/02/22-rdf-syntax-ns#"
   xmlns:dc="http://purl.org/dc/elements/1.1/"
   xmlns:xlink="http://www.w3.org/1999/xlink">
  <defs
     id="defs3">
    <linearGradient
       id="linearGradient1715">
      <stop
         style="stop-color:#ffffff;stop-opacity:1.0000000;"
         offset="0.0000000"
         id="stop1716" />
      <stop
         style="stop-color:#ffffff;stop-opacity:0.0000000;"
         offset="1.0000000"
         id="stop1717" />
    </linearGradient>
    <linearGradient
       id="linearGradient3629">
      <stop
         offset="0.0000000"
         style="stop-color:#00ff00;stop-opacity:1.0000000;"
         id="stop3631" />
      <stop
         offset="1.0000000"
         style="stop-color:#008700;stop-opacity:1.0000000;"
         id="stop3630" />
    </linearGradient>
    <linearGradient
       inkscape:collect="always"
       xlink:href="#linearGradient3629"
       id="linearGradient3387"
       gradientTransform="scale(1.025116,0.975500)"
       x1="1.9233667"
       y1="0.34026167"
       x2="7.9588437"
       y2="6.3415041"
       gradientUnits="userSpaceOnUse" />
    <linearGradient
       inkscape:collect="always"
       xlink:href="#linearGradient3629"
       id="linearGradient3388"
       gradientTransform="scale(0.981424,1.018928)"
       x1="1.9874028"
       y1="7.1463289"
       x2="8.3563404"
       y2="12.954469"
       gradientUnits="userSpaceOnUse" />
    <linearGradient
       inkscape:collect="always"
       xlink:href="#linearGradient3629"
       id="linearGradient3389"
       gradientTransform="scale(0.981424,1.018928)"
       x1="2.0089898"
       y1="13.904217"
       x2="8.3347530"
       y2="19.691469"
       gradientUnits="userSpaceOnUse" />
    <linearGradient
       inkscape:collect="always"
       xlink:href="#linearGradient3629"
       id="linearGradient3390"
       x1="1.1213737"
       y1="22.672344"
       x2="12.090720"
       y2="33.557426"
       gradientUnits="userSpaceOnUse" />
    <linearGradient
       inkscape:collect="always"
       xlink:href="#linearGradient3629"
       id="linearGradient3397"
       gradientTransform="scale(1.025116,0.975500)"
       x1="1.9215859"
       y1="0.33642313"
       x2="7.9659672"
       y2="6.4069719"
       gradientUnits="userSpaceOnUse" />
    <linearGradient
       inkscape:collect="always"
       xlink:href="#linearGradient3629"
       id="linearGradient3398"
       gradientTransform="scale(0.981424,1.018928)"
       x1="2.0268621"
       y1="7.1217613"
       x2="8.3600607"
       y2="12.933576"
       gradientUnits="userSpaceOnUse" />
    <linearGradient
       inkscape:collect="always"
       xlink:href="#linearGradient3629"
       id="linearGradient3399"
       gradientTransform="scale(0.981424,1.018928)"
       x1="2.0465889"
       y1="13.921434"
       x2="8.3600626"
       y2="19.657034"
       gradientUnits="userSpaceOnUse" />
    <linearGradient
       inkscape:collect="always"
       xlink:href="#linearGradient3629"
       id="linearGradient3400"
       x1="1.1213737"
       y1="22.629593"
       x2="12.060652"
       y2="33.525043"
       gradientUnits="userSpaceOnUse" />
    <linearGradient
       inkscape:collect="always"
       xlink:href="#linearGradient1715"
       id="linearGradient1718"
       gradientTransform="scale(0.989430,1.010683)"
       x1="1.2516080"
       y1="20.667551"
       x2="7.5658808"
       y2="27.061035"
       gradientUnits="userSpaceOnUse" />
    <linearGradient
       inkscape:collect="always"
       xlink:href="#linearGradient1715"
       id="linearGradient1723"
       gradientTransform="scale(0.961581,1.039954)"
       x1="2.1014376"
       y1="13.714087"
       x2="5.9096437"
       y2="17.814648"
       gradientUnits="userSpaceOnUse" />
    <linearGradient
       inkscape:collect="always"
       xlink:href="#linearGradient1715"
       id="linearGradient1725"
       gradientUnits="userSpaceOnUse"
       gradientTransform="matrix(0.961581,0.000000,0.000000,1.039954,4.690500e-2,-6.941092)"
       x1="2.1014376"
       y1="13.714087"
       x2="5.9096437"
       y2="17.814648" />
    <linearGradient
       inkscape:collect="always"
       xlink:href="#linearGradient1715"
       id="linearGradient1727"
       gradientUnits="userSpaceOnUse"
       gradientTransform="matrix(0.961581,0.000000,0.000000,1.039954,7.843002e-3,-13.85515)"
       x1="2.1014376"
       y1="13.714087"
       x2="5.9096437"
       y2="17.814648" />
  </defs>
  <sodipodi:namedview
     id="base"
     pagecolor="#ffffff"
     bordercolor="#666666"
     borderopacity="1.0"
     inkscape:pageopacity="0.0"
     inkscape:pageshadow="2"
     inkscape:zoom="5.6568543"
     inkscape:cx="6.7744457"
     inkscape:cy="11.537549"
     inkscape:current-layer="layer1"
     showgrid="false"
     inkscape:grid-bbox="false"
     gridspacingy="1.0000000pt"
     gridspacingx="1.0000000pt"
     gridoriginy="0.0000000pt"
     gridoriginx="0.0000000pt"
     inkscape:window-width="640"
     inkscape:window-height="542"
     inkscape:window-x="1"
     inkscape:window-y="48" />
  <metadata
     id="metadata4">
    <rdf:RDF
       id="RDF5">
      <cc:Work
         rdf:about=""
         id="Work6">
        <dc:format
           id="format7">image/svg+xml</dc:format>
        <dc:type
           id="type9"
           rdf:resource="http://purl.org/dc/dcmitype/StillImage" />
      </cc:Work>
    </rdf:RDF>
  </metadata>
  <g
     id="layer1"
     inkscape:label="Layer 1"
     inkscape:groupmode="layer">
    <path
       style="opacity:0.29999998;fill:#000000;fill-opacity:1.0000000;fill-rule:evenodd;stroke:none;stroke-width:1.2780353;stroke-linecap:round;stroke-linejoin:round;stroke-miterlimit:4.0000000;stroke-opacity:1.0000000"
       d="M 6.1875000,2.0312500 C 5.1285820,2.0312500 4.0358080,2.3805200 3.4062500,3.0937500 C 3.4062500,4.4350475 3.4062500,5.7837026 3.4062500,7.1250000 C 4.8027600,6.0551557 7.5159360,5.9125096 8.8437500,7.1250000 C 8.8437500,5.7837026 8.8437490,4.4350474 8.8437500,3.0937500 C 8.2828900,2.3805200 7.2464180,2.0312500 6.1875000,2.0312500 z M 6.1875000,8.9375000 C 5.1285820,8.9375000 4.0358080,9.3180204 3.4062500,10.031250 C 3.4062500,11.372548 3.4062500,12.689953 3.4062500,14.031250 C 4.8027600,12.961406 7.5159360,12.818760 8.8437500,14.031250 C 8.8437500,12.689953 8.8437490,11.372548 8.8437500,10.031250 C 8.2828900,9.3180205 7.2464180,8.9375000 6.1875000,8.9375000 z M 6.1875000,15.875000 C 5.1285810,15.875000 4.0358080,16.224270 3.4062500,16.937500 C 3.4062500,18.278798 3.4062500,19.627451 3.4062500,20.968750 C 4.4592740,19.756258 7.6533300,19.684936 8.8437500,20.968750 C 8.8437500,19.627451 8.8437490,18.278798 8.8437500,16.937500 C 8.2828900,16.224270 7.2464190,15.875000 6.1875000,15.875000 z M 6.1250000,22.500000 C 4.1299610,22.500000 2.5000000,24.178723 2.5000000,26.250000 C 2.5000000,28.321278 4.1299610,29.999999 6.1250000,30.000000 C 8.1200390,30.000000 9.7500010,28.321278 9.7500000,26.250000 C 9.7500000,24.178722 8.1200380,22.500000 6.1250000,22.500000 z "
       id="path1076" />
    <path
       sodipodi:type="arc"
       style="fill:url(#linearGradient3390);fill-opacity:1.0;fill-rule:evenodd;stroke:url(#linearGradient3400);stroke-width:1.2780353;stroke-linecap:round;stroke-linejoin:round;stroke-miterlimit:4.0000000;stroke-opacity:1.0000000;"
       id="path2746"
       sodipodi:cx="6.6468253"
       sodipodi:cy="28.095238"
       sodipodi:rx="4.8743386"
       sodipodi:ry="4.8743386"
       d="M 11.521164 28.095238 A 4.8743386 4.8743386 0 1 1  1.7724867,28.095238 A 4.8743386 4.8743386 0 1 1  11.521164 28.095238 z"
       transform="matrix(0.741475,0.000000,0.000000,0.769810,0.168529,3.315932)" />
    <path
       style="fill:url(#linearGradient3389);fill-opacity:1.0;fill-rule:evenodd;stroke:url(#linearGradient3399);stroke-width:0.86691409;stroke-linecap:round;stroke-linejoin:round;stroke-miterlimit:4.0000000;stroke-opacity:1.0000000;"
       d="M 2.3839388,15.649408 C 3.6430551,14.222947 6.6883130,14.222947 7.8100338,15.649408 C 7.8100338,16.990706 7.8100338,18.332005 7.8100338,19.673304 C 6.6196149,18.389490 3.4369624,18.460812 2.3839388,19.673304 C 2.3839388,18.332005 2.3839388,16.990706 2.3839388,15.649408 z "
       id="rect3368"
       sodipodi:nodetypes="ccccc" />
    <path
       style="fill:url(#linearGradient3388);fill-opacity:1.0;fill-rule:evenodd;stroke:url(#linearGradient3398);stroke-width:0.86691409;stroke-linecap:round;stroke-linejoin:round;stroke-miterlimit:4.0000000;stroke-opacity:1.0000000;"
       d="M 2.3839415,8.7210301 C 3.6430566,7.2945710 6.6883120,7.2945710 7.8100317,8.7210301 C 7.8100317,10.062328 7.8100317,11.403626 7.8100317,12.744923 C 6.4822189,11.532433 3.7804518,11.675079 2.3839415,12.744923 C 2.3839415,11.403626 2.3839415,10.062328 2.3839415,8.7210301 z "
       id="path3372"
       sodipodi:nodetypes="ccccc" />
    <path
       style="fill:url(#linearGradient3387);fill-opacity:1.0;fill-rule:evenodd;stroke:url(#linearGradient3397);stroke-width:0.86691409;stroke-linecap:round;stroke-linejoin:round;stroke-miterlimit:4.0000000;stroke-opacity:1.0000000;"
       d="M 2.3839415,1.7926505 C 3.6430566,0.36619135 6.6883120,0.36619135 7.8100317,1.7926505 C 7.8100317,3.1339480 7.8100317,4.4752456 7.8100317,5.8165430 C 6.4822189,4.6040526 3.7804518,4.7466987 2.3839415,5.8165430 C 2.3839415,4.4752456 2.3839415,3.1339480 2.3839415,1.7926505 z "
       id="path3374"
       sodipodi:nodetypes="ccccc" />
    <path
       style="fill:url(#linearGradient1718);fill-opacity:1.0;fill-rule:evenodd;stroke:none;stroke-width:0.25000000pt;stroke-linecap:butt;stroke-linejoin:miter;stroke-opacity:1.0000000;"
       d="M 2.0312500,27.343750 C 1.8359375,27.154948 0.14031031,24.421032 2.3046875,22.109375 C 4.5052083,19.759115 7.3046875,21.490886 7.5000000,21.679688 C 7.6953125,21.868490 5.6380208,21.165364 3.4765625,23.242187 C 1.3353262,25.299580 2.2265625,27.532552 2.0312500,27.343750 z "
       id="path1713"
       sodipodi:nodetypes="czzzz" />
    <path
       style="fill:url(#linearGradient1723);fill-opacity:1.0;fill-rule:evenodd;stroke:none;stroke-width:0.25000000pt;stroke-linecap:butt;stroke-linejoin:miter;stroke-opacity:1.0000000;"
       d="M 2.1484375,18.554687 C 1.9548011,18.450953 1.9362177,15.811818 2.2265625,15.390625 C 2.9520048,14.338251 5.5018560,14.149989 5.7031250,14.257812 C 5.8664393,14.345302 4.0393377,14.722206 2.9687500,15.742187 C 2.3640970,16.318258 2.3193844,18.646266 2.1484375,18.554687 z "
       id="path1719"
       sodipodi:nodetypes="cssss" />
    <path
       style="fill:url(#linearGradient1725);fill-opacity:1.0000000;fill-rule:evenodd;stroke:none;stroke-width:0.25000000pt;stroke-linecap:butt;stroke-linejoin:miter;stroke-opacity:1.0000000"
       d="M 2.1953427,11.613595 C 2.0017063,11.509861 1.9831229,8.8707258 2.2734677,8.4495328 C 2.9989100,7.3971588 5.5487612,7.2088968 5.7500302,7.3167198 C 5.9133445,7.4042098 4.0862429,7.7811138 3.0156552,8.8010948 C 2.4110022,9.3771658 2.3662896,11.705174 2.1953427,11.613595 z "
       id="path1724"
       sodipodi:nodetypes="cssss" />
    <path
       style="fill:url(#linearGradient1727);fill-opacity:1.0000000;fill-rule:evenodd;stroke:none;stroke-width:0.25000000pt;stroke-linecap:butt;stroke-linejoin:miter;stroke-opacity:1.0000000"
       d="M 2.1562802,4.6995323 C 1.9626438,4.5957983 1.9440604,1.9566633 2.2344052,1.5354703 C 2.9598475,0.48309630 5.5096987,0.29483430 5.7109677,0.40265730 C 5.8742820,0.49014730 4.0471804,0.86705128 2.9765927,1.8870323 C 2.3719397,2.4631033 2.3272271,4.7911113 2.1562802,4.6995323 z "
       id="path1726"
       sodipodi:nodetypes="cssss" />
  </g>
</svg>
