<?xml version="1.0" encoding="UTF-8" standalone="no"?>
<!DOCTYPE svg PUBLIC "-//W3C//DTD SVG 20010904//EN"
"http://www.w3.org/TR/2001/REC-SVG-20010904/DTD/svg10.dtd">
<!-- Created with Inkscape (http://www.inkscape.org/) -->
<svg
   id="svg1"
   sodipodi:version="0.32"
   inkscape:version="0.37"
   width="48pt"
   height="48pt"
   sodipodi:docbase="/home/dan/Projects/Lila-icons/scalable/apps"
   sodipodi:docname="gnome-desktop-config.svg"
   xmlns="http://www.w3.org/2000/svg"
   xmlns:inkscape="http://www.inkscape.org/namespaces/inkscape"
   xmlns:sodipodi="http://sodipodi.sourceforge.net/DTD/sodipodi-0.dtd"
   xmlns:xlink="http://www.w3.org/1999/xlink">
  <defs
     id="defs3">
    <linearGradient
       id="linearGradient1304">
      <stop
         style="stop-color:#d9cce6;stop-opacity:1;"
         offset="0.00000000"
         id="stop1305" />
      <stop
         style="stop-color:#73667f;stop-opacity:1;"
         offset="1.00000000"
         id="stop1306" />
    </linearGradient>
    <linearGradient
       id="linearGradient1299">
      <stop
         style="stop-color:#c7b397;stop-opacity:1;"
         offset="0.00000000"
         id="stop1300" />
      <stop
         style="stop-color:#faebdc;stop-opacity:1;"
         offset="1.00000000"
         id="stop1301" />
    </linearGradient>
    <linearGradient
       id="linearGradient866">
      <stop
         style="stop-color:#ffffff;stop-opacity:1;"
         offset="0.00000000"
         id="stop867" />
      <stop
         style="stop-color:#d9cce6;stop-opacity:1;"
         offset="1.00000000"
         id="stop868" />
    </linearGradient>
    <linearGradient
       id="linearGradient584">
      <stop
         style="stop-color:#ffffff;stop-opacity:1;"
         offset="0.00000000"
         id="stop585" />
      <stop
         style="stop-color:#ffffff;stop-opacity:0;"
         offset="1.00000000"
         id="stop586" />
    </linearGradient>
    <linearGradient
       xlink:href="#linearGradient584"
       id="linearGradient586"
       x1="-0.00000000"
       y1="0.00000000"
       x2="0.96753246"
       y2="0.98437500" />
    <linearGradient
       xlink:href="#linearGradient584"
       id="linearGradient587"
       x1="-0.00000000"
       y1="0.00000000"
       x2="0.99218750"
       y2="0.99218750" />
    <linearGradient
       xlink:href="#linearGradient1299"
       id="linearGradient1298"
       x1="0.98734176"
       y1="0.98437500"
       x2="-0.00632911"
       y2="0.00781250" />
    <linearGradient
       xlink:href="#linearGradient1304"
       id="linearGradient1303"
       x1="0.00000000"
       y1="0.00000000"
       x2="0.96551722"
       y2="0.99218750" />
    <linearGradient
       xlink:href="#linearGradient584"
       id="linearGradient1323"
       x1="0.00000000"
       y1="0.00000000"
       x2="1.00000000"
       y2="1.03906250" />
    <linearGradient
       xlink:href="#linearGradient584"
       id="linearGradient1325"
       x1="-0.00000000"
       y1="-0.00000000"
       x2="0.93750000"
       y2="0.99218750" />
    <linearGradient
       xlink:href="#linearGradient584"
       id="linearGradient1327"
       x1="0.00877193"
       y1="0.00781250"
       x2="1.00000000"
       y2="0.98437500" />
    <radialGradient
       xlink:href="#linearGradient1304"
       id="radialGradient1329" />
    <linearGradient
       xlink:href="#linearGradient584"
       id="linearGradient1330"
       x1="-0.00000000"
       y1="-0.00000000"
       x2="0.99270076"
       y2="0.95714283" />
    <linearGradient
       xlink:href="#linearGradient584"
       id="linearGradient1349"
       x1="0.00000000"
       y1="-0.00000000"
       x2="0.99019605"
       y2="0.99218750" />
    <linearGradient
       xlink:href="#linearGradient584"
       id="linearGradient1350"
       x1="-0.00000000"
       y1="0.00000000"
       x2="0.97368419"
       y2="0.99218750" />
    <linearGradient
       xlink:href="#linearGradient584"
       id="linearGradient1351"
       x1="-0.00000000"
       y1="-0.00000000"
       x2="0.99504948"
       y2="0.99218750" />
    <linearGradient
       xlink:href="#linearGradient1304"
       id="linearGradient1352"
       x1="0.22535211"
       y1="0.25000000"
       x2="0.67605633"
       y2="0.74218750" />
  </defs>
  <sodipodi:namedview
     id="base"
     pagecolor="#ffffff"
     bordercolor="#666666"
     borderopacity="1.0"
     inkscape:pageopacity="0.0"
     inkscape:pageshadow="2"
     inkscape:zoom="5.64233871"
     inkscape:cx="31.1412486"
     inkscape:cy="24.7164888"
     inkscape:window-width="640"
     inkscape:window-height="516"
     inkscape:window-x="45"
     inkscape:window-y="104" />
  <g
     id="g1336"
     style="opacity:0.302675;"
     transform="matrix(1.031173,0.000000,0.000000,1.031173,-4.913542e-2,1.234288)">
    <path
       style="font-size:12;fill:#000000;fill-rule:evenodd;stroke:none;stroke-width:1.875;stroke-dasharray:none;stroke-opacity:1;fill-opacity:1;"
       d="M 5.2097885 9.6405202 C 3.7224927 10.425261 3.4268646 48.780504 4.8006034 50.354427 C 6.2259577 51.753082 54.019117 52.060947 55.334949 50.763613 C 56.688022 49.433065 56.782395 10.670252 55.539543 9.6405202 C 54.223954 8.3810153 6.8766833 8.6530688 5.2097885 9.6405202 z "
       id="path1331"
       sodipodi:nodetypes="cssss" />
    <path
       style="fill:#000000;fill-rule:evenodd;stroke:none;stroke-opacity:1;stroke-width:1.875;stroke-linejoin:miter;stroke-linecap:butt;fill-opacity:1;stroke-dasharray:none;"
       d="M 3.1330394 51.287503 C 0.93453145 48.810703 1.2336065 37.345477 2.9763874 37.345477 C 5.3065577 37.345477 15.32035 48.480186 15.351893 51.287503 C 15.372567 53.127528 5.0596999 53.458045 3.1330394 51.287503 z "
       id="path1332"
       sodipodi:nodetypes="csss" />
    <path
       style="fill:#000000;fill-rule:evenodd;stroke:none;stroke-opacity:1;stroke-width:1.875;stroke-linejoin:miter;stroke-linecap:butt;fill-opacity:1;stroke-dasharray:none;"
       d="M 56.091166 51.287503 C 58.289674 48.810703 57.990598 37.345477 56.247818 37.345477 C 53.917647 37.345477 43.903855 48.480186 43.872312 51.287503 C 43.851638 53.127528 54.164505 53.458045 56.091166 51.287503 z "
       id="path1333"
       sodipodi:nodetypes="csss" />
    <path
       style="fill:#000000;fill-rule:evenodd;stroke:none;stroke-opacity:1;stroke-width:1.875;stroke-linejoin:miter;stroke-linecap:butt;fill-opacity:1;stroke-dasharray:none;"
       d="M 56.874426 8.4615017 C 59.072934 10.938302 58.773858 22.403528 57.031078 22.403528 C 54.700907 22.403528 44.687115 11.268819 44.655572 8.4615017 C 44.634898 6.6214767 54.947765 6.29096 56.874426 8.4615017 z "
       id="path1334"
       sodipodi:nodetypes="csss" />
    <path
       style="fill:#000000;fill-rule:evenodd;stroke:none;stroke-opacity:1;stroke-width:1.875;stroke-linejoin:miter;stroke-linecap:butt;fill-opacity:1;stroke-dasharray:none;"
       d="M 3.9162993 8.4615017 C 1.7177913 10.938302 2.0168664 22.403528 3.7596473 22.403528 C 6.0898176 22.403528 16.10361 11.268819 16.135153 8.4615017 C 16.155827 6.6214767 5.8429598 6.29096 3.9162993 8.4615017 z "
       id="path1335"
       sodipodi:nodetypes="csss" />
  </g>
  <path
     style="font-size:12;fill:url(#linearGradient1298);fill-rule:evenodd;stroke:#333300;stroke-width:1.875;stroke-dasharray:none;stroke-opacity:1;"
     d="M 4.3236311 9.6405202 C 2.8363353 10.425261 2.5407072 48.780504 3.914446 50.354427 C 5.3398003 51.753082 53.13296 52.060947 54.448792 50.763613 C 55.801865 49.433065 55.896238 10.670252 54.653386 9.6405202 C 53.337797 8.3810153 5.9905259 8.6530688 4.3236311 9.6405202 z "
     id="path1208"
     sodipodi:nodetypes="cssss" />
  <path
     style="fill:url(#linearGradient1303);fill-rule:evenodd;stroke:#261933;stroke-opacity:1;stroke-width:1.875;stroke-linejoin:miter;stroke-linecap:butt;fill-opacity:1;stroke-dasharray:none;"
     d="M 2.246882 51.287503 C 0.048374086 48.810703 0.34744914 37.345477 2.09023 37.345477 C 4.4204003 37.345477 14.434193 48.480186 14.465736 51.287503 C 14.48641 53.127528 4.1735425 53.458045 2.246882 51.287503 z "
     id="path1320"
     sodipodi:nodetypes="csss" />
  <path
     style="fill:url(#linearGradient1303);fill-rule:evenodd;stroke:#261933;stroke-opacity:1;stroke-width:1.875;stroke-linejoin:miter;stroke-linecap:butt;fill-opacity:1;stroke-dasharray:none;"
     d="M 55.205009 51.287503 C 57.403517 48.810703 57.104441 37.345477 55.361661 37.345477 C 53.03149 37.345477 43.017698 48.480186 42.986155 51.287503 C 42.965481 53.127528 53.278348 53.458045 55.205009 51.287503 z "
     id="path1321"
     sodipodi:nodetypes="csss" />
  <path
     style="fill:url(#linearGradient1303);fill-rule:evenodd;stroke:#261933;stroke-opacity:1;stroke-width:1.875;stroke-linejoin:miter;stroke-linecap:butt;fill-opacity:1;stroke-dasharray:none;"
     d="M 55.988269 8.4615017 C 58.186777 10.938302 57.887701 22.403528 56.144921 22.403528 C 53.81475 22.403528 43.800958 11.268819 43.769415 8.4615017 C 43.748741 6.6214767 54.061608 6.29096 55.988269 8.4615017 z "
     id="path1319"
     sodipodi:nodetypes="csss" />
  <path
     style="fill:url(#linearGradient1303);fill-rule:evenodd;stroke:#261933;stroke-opacity:1;stroke-width:1.875;stroke-linejoin:miter;stroke-linecap:butt;fill-opacity:1;stroke-dasharray:none;"
     d="M 3.0301419 8.4615017 C 0.83163394 10.938302 1.130709 22.403528 2.8734899 22.403528 C 5.2036602 22.403528 15.217453 11.268819 15.248996 8.4615017 C 15.26967 6.6214767 4.9568024 6.29096 3.0301419 8.4615017 z "
     id="path1302"
     sodipodi:nodetypes="csss" />
  <path
     style="fill:url(#linearGradient1323);fill-rule:evenodd;stroke:none;stroke-opacity:1;stroke-width:1pt;stroke-linejoin:miter;stroke-linecap:butt;fill-opacity:1;"
     d="M 3.1867938 19.42714 C 2.9379435 19.17829 2.5520584 11.428986 4.2833576 9.5580655 C 5.7895323 7.930425 12.647476 8.6797178 12.899216 8.9314576 C 13.117432 9.1496737 7.179524 9.3617715 5.6932254 10.967933 C 3.9420501 12.860332 3.4078994 19.648246 3.1867938 19.42714 z "
     id="path1322"
     sodipodi:nodetypes="cssss" />
  <path
     style="fill:url(#linearGradient1325);fill-rule:evenodd;stroke:none;stroke-opacity:1;stroke-width:1pt;stroke-linejoin:miter;stroke-linecap:butt;fill-opacity:1;"
     d="M 3.0301418 50.130926 C 2.8044985 49.848872 2.2281312 42.134733 2.4035339 39.635244 C 2.4370005 39.158346 3.6185085 40.561225 3.6567497 41.201764 C 3.8273778 44.059785 3.2222371 50.371045 3.0301418 50.130926 z "
     id="path1324"
     sodipodi:nodetypes="csss" />
  <path
     style="fill:url(#linearGradient1327);fill-rule:evenodd;stroke:none;stroke-opacity:1;stroke-width:1pt;stroke-linejoin:miter;stroke-linecap:butt;fill-opacity:1;"
     d="M 44.856218 50.757534 C 45.189863 49.968919 52.51933 41.443459 54.56864 39.635244 C 55.182413 39.093679 53.795096 42.620719 52.845469 43.708195 C 50.557622 46.328149 44.615472 51.326569 44.856218 50.757534 z "
     id="path1326"
     sodipodi:nodetypes="csss" />
  <path
     style="fill:url(#linearGradient1330);fill-rule:evenodd;stroke:none;stroke-opacity:1;stroke-width:1pt;stroke-linejoin:miter;stroke-linecap:butt;fill-opacity:1;"
     d="M 45.639478 9.0881097 C 46.081695 8.7343364 52.928251 8.7370218 54.568641 9.2447616 C 55.121378 9.4158469 53.123876 11.140462 52.218861 11.124585 C 50.147488 11.088245 45.298435 9.3609442 45.639478 9.0881097 z "
     id="path1328"
     sodipodi:nodetypes="csss" />
  <path
     d="M 13.741437 41.264462 C 15.219252 42.043606 16.520121 38.454811 19.249734 41.580743 C 22.329701 45.110412 18.052622 45.528914 18.486157 47.04177 C 18.825353 48.050677 22.961594 47.064487 23.896074 45.959641 C 24.845252 44.837558 23.018383 41.7151 24.13706 40.361183 C 27.845915 35.872782 33.277279 31.38966 38.378798 28.43296 C 40.039713 27.470419 43.106519 29.522505 44.42442 28.603326 C 45.703244 27.711271 47.093169 23.518575 46.168779 22.999324 C 44.748056 22.170136 42.786028 26.817212 40.183889 23.74366 C 37.564446 20.648994 42.084043 19.055162 41.773646 17.779547 C 41.490234 16.745033 36.985599 17.692761 35.860509 18.860141 C 34.750854 20.011487 36.279547 23.298968 35.069406 24.735729 C 31.314919 29.19313 25.983302 33.617192 20.966565 36.542625 C 19.511497 37.39112 16.834599 35.286052 15.653923 36.057649 C 14.426245 36.859976 12.790249 40.709333 13.741437 41.264462 z "
     style="font-size:12;opacity:0.302675;fill-rule:evenodd;stroke-width:12.5;"
     id="path636" />
  <path
     d="M 12.720999 40.098217 C 14.198808 40.877362 15.499657 37.288565 18.229269 40.414497 C 21.309237 43.944167 17.032158 44.362669 17.465691 45.875527 C 17.804888 46.884433 21.94113 45.898243 22.875609 44.793396 C 23.824787 43.671313 21.997919 40.548854 23.116596 39.194939 C 26.825451 34.706538 32.256813 30.223416 37.358336 27.266713 C 39.019244 26.304174 42.08605 28.356261 43.403958 27.43708 C 44.682775 26.545025 46.072702 22.35233 45.148317 21.833078 C 43.727586 21.003892 41.76556 25.650967 39.163421 22.577415 C 36.543982 19.482748 41.063582 17.888916 40.753178 16.613336 C 40.469773 15.578815 35.965135 16.526569 34.840045 17.693896 C 33.730389 18.845242 35.259082 22.132723 34.048942 23.569484 C 30.294455 28.026884 24.962839 32.450946 19.946101 35.376381 C 18.491033 36.224874 15.814134 34.119807 14.633478 34.891403 C 13.405807 35.69373 11.76981 39.543088 12.720999 40.098217 z "
     style="font-size:12;fill:url(#linearGradient1352);fill-rule:evenodd;stroke:#261933;stroke-width:1.625;stroke-dasharray:none;"
     id="path630" />
  <path
     d="M 13.310622 39.103006 C 13.270275 38.914667 14.166326 36.239239 15.059976 35.82301 C 15.939939 35.413127 18.593454 36.44742 18.63147 36.624736 C 18.666343 36.787553 16.216133 36.406732 15.278581 36.843406 C 14.4425 37.232846 13.343145 39.254801 13.310622 39.103006 z "
     style="font-size:12;opacity:0.699936;fill:url(#linearGradient1351);fill-rule:evenodd;stroke:none;stroke-width:0.0999203pt;"
     id="path631" />
  <path
     d="M 18.63147 45.152702 C 18.561585 45.117761 19.895524 44.175666 20.162166 43.549183 C 20.381504 43.033807 20.021596 41.693119 20.089275 41.726991 C 20.167377 41.766008 20.826195 43.235239 20.599507 43.767853 C 20.340215 44.377167 18.707365 45.190652 18.63147 45.152702 z "
     style="font-size:12;opacity:0.699936;fill:url(#linearGradient1350);fill-rule:evenodd;stroke:none;stroke-width:0.0999203pt;"
     id="path632" />
  <path
     d="M 20.606321 36.181849 C 20.546594 36.071478 25.954909 32.684984 28.393761 30.654679 C 30.736675 28.704144 34.892959 24.130693 34.951752 24.239327 C 35.012082 24.3507 31.131725 29.33263 28.750931 31.314632 C 26.349892 33.313471 20.66565 36.291485 20.606321 36.181849 z "
     style="font-size:12;opacity:0.7;fill:url(#linearGradient586);fill-rule:evenodd;stroke:none;stroke-width:0.0999203pt;"
     id="path633" />
  <path
     d="M 35.395909 21.172388 C 35.246387 21.022866 35.004666 18.968841 35.541623 18.402623 C 36.340944 17.559674 39.265647 16.805744 39.404743 16.944823 C 39.532887 17.072986 37.192377 18.309088 36.343417 19.204349 C 35.8561 19.718256 35.513629 21.290109 35.395909 21.172388 z "
     style="font-size:12;opacity:0.7;fill:url(#linearGradient587);fill-rule:evenodd;stroke:none;stroke-width:0.0999203pt;"
     id="path634" />
  <path
     d="M 40.425205 24.452387 C 40.413849 24.338875 41.561254 24.655222 42.028724 24.452387 C 42.848962 24.09642 44.276967 22.6632 44.28826 22.775909 C 44.301288 22.906122 42.925792 24.823519 42.101618 25.181222 C 41.638152 25.382388 40.438171 24.581798 40.425205 24.452387 z "
     style="font-size:12;opacity:0.699936;fill:url(#linearGradient1349);fill-rule:evenodd;stroke:none;stroke-width:0.0999203pt;"
     id="path635" />
</svg>
