<?xml version="1.0" encoding="UTF-8" standalone="no"?>
<!-- Created with Inkscape (http://www.inkscape.org/) -->
<svg
   xmlns:dc="http://purl.org/dc/elements/1.1/"
   xmlns:cc="http://web.resource.org/cc/"
   xmlns:rdf="http://www.w3.org/1999/02/22-rdf-syntax-ns#"
   xmlns:svg="http://www.w3.org/2000/svg"
   xmlns="http://www.w3.org/2000/svg"
   xmlns:xlink="http://www.w3.org/1999/xlink"
   xmlns:sodipodi="http://inkscape.sourceforge.net/DTD/sodipodi-0.dtd"
   xmlns:inkscape="http://www.inkscape.org/namespaces/inkscape"
   id="svg1"
   sodipodi:version="0.32"
   inkscape:version="0.42.2"
   width="48pt"
   height="48pt"
   sodipodi:docbase="/home/jakob/dev/lila-cvs/lila-theme/trunk/lila/gnome/scalable/devices"
   sodipodi:docname="gnome-dev-cdrom-audio.svg">
  <metadata
     id="metadata44">
    <rdf:RDF>
      <cc:Work
         rdf:about="">
        <dc:format>image/svg+xml</dc:format>
        <dc:type
           rdf:resource="http://purl.org/dc/dcmitype/StillImage" />
      </cc:Work>
    </rdf:RDF>
  </metadata>
  <defs
     id="defs3">
    <linearGradient
       id="linearGradient2888">
      <stop
         offset="0.0000000"
         style="stop-color:#d9cce6;stop-opacity:1.0000000;"
         id="stop2890" />
      <stop
         offset="1.0000000"
         style="stop-color:#73667f;stop-opacity:1.0000000;"
         id="stop2889" />
    </linearGradient>
    <linearGradient
       id="linearGradient584">
      <stop
         style="stop-color:#ffffff;stop-opacity:1;"
         offset="0.00000000"
         id="stop585" />
      <stop
         style="stop-color:#ffffff;stop-opacity:0;"
         offset="1.00000000"
         id="stop586" />
    </linearGradient>
    <linearGradient
       id="linearGradient578">
      <stop
         style="stop-color:#ffffff;stop-opacity:1;"
         offset="0.00000000"
         id="stop579" />
      <stop
         style="stop-color:#d9cce6;stop-opacity:1;"
         offset="1.00000000"
         id="stop580" />
    </linearGradient>
    <linearGradient
       xlink:href="#linearGradient584"
       id="linearGradient581"
       x1="5.4427566"
       y1="7.3336703"
       x2="45.667449"
       y2="45.183026"
       gradientTransform="matrix(1.070410,0.000000,0.000000,0.934221,-3.586000e-3,0.000000)"
       gradientUnits="userSpaceOnUse" />
    <linearGradient
       xlink:href="#linearGradient584"
       id="linearGradient583"
       gradientTransform="matrix(0.772683,0.000000,0.000000,1.294192,-3.586000e-3,0.000000)"
       x1="57.790266"
       y1="33.873174"
       x2="72.268709"
       y2="33.873174"
       gradientUnits="userSpaceOnUse" />
    <linearGradient
       xlink:href="#linearGradient584"
       id="linearGradient654"
       gradientTransform="matrix(0.865842,0.000000,0.000000,1.154945,-3.586000e-3,0.000000)"
       x1="15.243068"
       y1="38.676094"
       x2="34.921941"
       y2="38.676094"
       gradientUnits="userSpaceOnUse" />
    <linearGradient
       xlink:href="#linearGradient578"
       id="linearGradient655"
       x1="2.3435844"
       y1="2.2820689"
       x2="55.475528"
       y2="56.672470"
       gradientUnits="userSpaceOnUse"
       gradientTransform="translate(-3.586000e-3,0.000000)" />
    <linearGradient
       xlink:href="#linearGradient2888"
       id="linearGradient713"
       x1="0.013513510"
       y1="0.046875000"
       x2="0.99324322"
       y2="0.96875000" />
    <defs
       id="defs2842">
      <linearGradient
         id="linearGradient2843">
        <stop
           style="stop-color:#ffffff;stop-opacity:1;"
           offset="0.00000000"
           id="stop2844" />
        <stop
           style="stop-color:#ffffff;stop-opacity:0;"
           offset="1.00000000"
           id="stop2845" />
      </linearGradient>
      <linearGradient
         id="linearGradient2846"
         x1="0.0000000"
         y1="0.50000000"
         x2="1.0000000"
         y2="0.50000000"
         gradientUnits="objectBoundingBox"
         spreadMethod="pad"
         xlink:href="#linearGradient2888" />
      <linearGradient
         xlink:href="#linearGradient578"
         id="linearGradient2849"
         x1="-0.00000000"
         y1="-0.00000000"
         x2="0.96428573"
         y2="0.98437500" />
      <linearGradient
         xlink:href="#linearGradient584"
         id="linearGradient2850"
         x1="0.00000000"
         y1="-0.00000000"
         x2="0.98717946"
         y2="1.00000000" />
      <linearGradient
         xlink:href="#linearGradient584"
         id="linearGradient860"
         x1="0.01086957"
         y1="0.05555556"
         x2="0.99637681"
         y2="0.94444442" />
      <linearGradient
         xlink:href="#linearGradient584"
         id="linearGradient861"
         x1="0.01811594"
         y1="0.00833333"
         x2="0.98913044"
         y2="1.00000000" />
      <linearGradient
         xlink:href="#linearGradient584"
         id="linearGradient862"
         x1="-0.28676471"
         y1="-0.21875000"
         x2="0.97887325"
         y2="1.03906250" />
      <radialGradient
         xlink:href="#linearGradient584"
         id="radialGradient595" />
      <linearGradient
         xlink:href="#linearGradient584"
         id="linearGradient612"
         x1="0.00000000"
         y1="0.00000000"
         x2="1.03389835"
         y2="1.02343750" />
      <linearGradient
         xlink:href="#linearGradient578"
         id="linearGradient613"
         x1="0.00000000"
         y1="0.00000000"
         x2="0.96874988"
         y2="1.00000012" />
    </defs>
    <sodipodi:namedview
       id="namedview2857"
       pagecolor="#ffffff"
       bordercolor="#666666"
       borderopacity="1.0"
       inkscape:pageopacity="0.0"
       inkscape:pageshadow="2"
       inkscape:zoom="5.64233871"
       inkscape:cx="25.7884720"
       inkscape:cy="24.7998202"
       inkscape:window-width="640"
       inkscape:window-height="535"
       inkscape:window-x="65"
       inkscape:window-y="68" />
    <linearGradient
       xlink:href="#linearGradient2888"
       id="linearGradient2891"
       x1="28.567481"
       y1="25.025157"
       x2="60.462050"
       y2="55.036298"
       gradientTransform="matrix(0.964271,0.000000,0.000000,1.037052,-3.586000e-3,0.000000)"
       gradientUnits="userSpaceOnUse" />
    <linearGradient
       inkscape:collect="always"
       xlink:href="#linearGradient584"
       id="linearGradient1342"
       gradientTransform="matrix(0.880310,0.000000,0.000000,1.135964,-3.586000e-3,0.000000)"
       x1="35.460467"
       y1="13.645152"
       x2="55.558683"
       y2="13.645152"
       gradientUnits="userSpaceOnUse" />
    <linearGradient
       inkscape:collect="always"
       xlink:href="#linearGradient584"
       id="linearGradient1344"
       gradientTransform="matrix(1.017981,0.000000,0.000000,0.982337,-3.586000e-3,0.000000)"
       x1="28.678948"
       y1="39.848075"
       x2="54.103560"
       y2="39.848075"
       gradientUnits="userSpaceOnUse" />
  </defs>
  <sodipodi:namedview
     id="base"
     pagecolor="#ffffff"
     bordercolor="#666666"
     borderopacity="1.0"
     inkscape:pageopacity="0.0"
     inkscape:pageshadow="2"
     inkscape:zoom="5.6423387"
     inkscape:cx="24.863378"
     inkscape:cy="24.030350"
     inkscape:window-width="1400"
     inkscape:window-height="992"
     inkscape:window-x="0"
     inkscape:window-y="0"
     inkscape:current-layer="svg1" />
  <path
     d="M 36.115311,32.546487 C 36.115311,34.871102 34.228735,36.757678 31.904120,36.757678 C 29.579503,36.757678 27.692827,34.871102 27.692827,32.546487 C 27.692827,30.221870 29.579503,28.335194 31.904120,28.335194 C 34.228735,28.335194 36.115311,30.221870 36.115311,32.546487 z M 58.665928,32.138888 C 58.665928,47.061377 46.554844,59.172358 31.632355,59.172358 C 16.709865,59.172358 4.5988741,47.061377 4.5988741,32.138888 C 4.5988741,17.216400 16.709865,5.1053163 31.632355,5.1053163 C 46.554844,5.1053163 58.665928,17.216400 58.665928,32.138888 z "
     style="font-size:12.000000px;opacity:0.30267498;fill-rule:evenodd;stroke-width:12.500000"
     id="path782" />
  <path
     d="M 34.139121,30.090541 C 34.139121,32.366857 32.291742,34.214238 30.015425,34.214238 C 27.739107,34.214238 25.891629,32.366857 25.891629,30.090541 C 25.891629,27.814224 27.739107,25.966746 30.015425,25.966746 C 32.291742,25.966746 34.139121,27.814224 34.139121,30.090541 z M 56.221202,29.691414 C 56.221202,44.303857 44.361750,56.163209 29.749307,56.163209 C 15.136862,56.163209 3.2775000,44.303857 3.2775000,29.691414 C 3.2775000,15.078969 15.136862,3.2195676 29.749307,3.2195676 C 44.361750,3.2195676 56.221202,15.078969 56.221202,29.691414 z "
     style="font-size:12.000000px;fill:url(#linearGradient655);fill-rule:evenodd;stroke:#261933;stroke-width:1.8750000;stroke-dasharray:none"
     id="path773" />
  <path
     d="M 8.9975198,43.392896 C 4.1168282,37.981788 1.0181287,15.522169 19.107344,7.2102530 C 33.784362,0.52499748 48.144949,11.238426 49.170896,14.260508 C 49.473462,15.112445 36.926777,4.5046413 21.900944,12.265166 C -0.14857650,23.553358 9.5978950,44.077157 8.9975198,43.392896 z "
     style="font-size:12.000000px;opacity:0.69999999;fill:url(#linearGradient581);fill-rule:evenodd;stroke:none;stroke-width:0.077858597pt"
     id="path774" />
  <path
     d="M 39.817534,30.278517 C 39.817534,35.464806 34.971744,39.856600 29.976503,40.025561 C 24.414063,40.025561 19.762489,35.370817 19.947296,30.184529 C 20.138738,24.810364 24.414063,20.061235 29.976503,20.061235 C 35.162691,20.061235 40.012344,24.907720 39.817534,30.278517 z M 37.198739,30.223452 C 37.198739,34.262073 33.921036,37.539775 29.882415,37.539775 C 25.843793,37.539775 22.566091,34.262073 22.566091,30.223452 C 22.566091,26.184831 25.843793,22.907127 29.882415,22.907127 C 33.921036,22.907127 37.198739,26.184831 37.198739,30.223452 z "
     style="font-size:12.000000px;opacity:0.10089196;fill:#3f003f;fill-rule:evenodd;stroke-width:1.0000000pt"
     id="path779" />
  <path
     d="M 31.212610,25.235045 C 31.207361,25.612088 33.482887,27.095298 33.806647,26.897813 C 38.864578,22.772731 48.779791,16.593181 48.904878,12.398175 C 48.991339,9.4338322 34.082371,3.3896875 33.607082,4.1506354 C 31.559051,7.7161848 31.326210,18.518304 31.212610,25.235045 z "
     style="font-size:12.000000px;fill:url(#linearGradient1342);fill-rule:evenodd;stroke-width:1.0000000pt"
     id="path780" />
  <path
     d="M 29.469421,34.718049 C 29.435550,34.342493 27.018695,33.103018 26.717122,33.332986 C 22.113778,37.959801 12.892039,45.133311 13.202131,49.318609 C 13.423186,52.276018 28.878058,56.743083 29.271937,55.937104 C 30.939559,52.178566 30.052267,41.410426 29.469421,34.718049 z "
     style="font-size:12.000000px;fill:url(#linearGradient654);fill-rule:evenodd;stroke-width:1.0000000pt"
     id="path781" />
  <path
     style="font-size:12.000000px;opacity:0.30267498;fill-rule:evenodd;stroke-width:1.8750000"
     d="M 55.738893,39.192322 C 56.058229,36.032617 54.542413,35.037416 52.726936,34.836727 C 48.559369,34.437101 43.884099,33.333561 43.703750,35.947203 C 43.023242,39.499380 42.577430,41.796089 41.894805,47.619294 C 41.570102,50.074997 42.800629,57.213497 37.421478,57.707836 C 31.925988,58.213255 29.004849,54.294497 30.551609,50.530435 C 32.727793,45.373160 38.225139,48.656725 38.788078,46.728156 C 40.449917,40.869075 40.217854,34.127320 41.561297,28.147974 C 41.613983,27.913481 42.321402,27.676862 42.733167,27.620090 C 43.811241,27.359591 56.890170,28.427431 57.727767,28.969060 C 58.139532,28.912290 58.713784,29.405015 58.878417,29.563232 C 60.262200,30.893097 59.428753,36.481504 59.174098,37.660665 C 58.493589,41.212841 58.018853,43.494169 57.336225,49.317376 C 57.011523,51.773079 58.270977,58.926959 52.891826,59.421297 C 47.396335,59.926716 44.475194,56.007960 46.021955,52.243897 C 48.198141,47.086621 53.666559,50.354805 54.229499,48.426239 C 55.060418,45.496696 55.419556,42.352025 55.738893,39.192322 z "
     id="path702"
     sodipodi:nodetypes="csccccccccccccccc" />
  <path
     style="font-size:12.000000px;fill:url(#linearGradient2891);fill-rule:evenodd;stroke:#261933;stroke-width:1.8750000;stroke-dasharray:none"
     d="M 53.655811,36.919870 C 53.975148,33.760165 52.459331,32.764963 50.643854,32.564275 C 46.476288,32.164648 41.801017,31.061108 41.620669,33.674750 C 40.940160,37.226927 40.494349,39.523636 39.811724,45.346842 C 39.487021,47.802545 40.717547,54.941045 35.338396,55.435383 C 29.842906,55.940803 26.921768,52.022045 28.468527,48.257983 C 30.644711,43.100707 36.142058,46.384273 36.704997,44.455704 C 38.366836,38.596622 38.134772,31.854867 39.478215,25.875522 C 39.530902,25.641029 40.238320,25.404409 40.650086,25.347638 C 41.728159,25.087139 54.807088,26.154979 55.644686,26.696608 C 56.056451,26.639837 56.630702,27.132562 56.795335,27.290780 C 58.179119,28.620644 57.345672,34.209052 57.091016,35.388212 C 56.410507,38.940389 55.935771,41.221717 55.253144,47.044923 C 54.928442,49.500626 56.187895,56.654507 50.808744,57.148845 C 45.313253,57.654264 42.392112,53.735508 43.938873,49.971445 C 46.115059,44.814169 51.583478,48.082352 52.146418,46.153786 C 52.977336,43.224244 53.336475,40.079573 53.655811,36.919870 z "
     id="path701"
     sodipodi:nodetypes="csccccccccccccccc" />
  <path
     style="fill:url(#linearGradient1344);fill-rule:evenodd;stroke-width:1.0000000pt"
     d="M 29.268311,51.620986 C 29.107872,51.430610 29.015442,49.437218 30.932855,47.535993 C 33.218052,45.349381 36.760690,47.662690 37.368757,45.764297 C 39.140536,40.500501 39.403435,32.576269 40.557076,26.719618 C 40.592352,26.540535 49.850199,26.693516 55.072813,27.819546 C 48.124436,27.120122 42.356333,27.446607 41.589730,27.940413 C 40.397397,28.685448 39.521030,40.951533 37.853014,46.164519 C 37.231893,48.063189 34.731779,46.254610 31.636026,48.361646 C 29.157437,50.008308 29.409632,51.788674 29.268311,51.620986 z "
     id="path698"
     sodipodi:nodetypes="cssscssss" />
  <path
     style="fill:url(#linearGradient583);fill-rule:evenodd;stroke-width:1.0000000pt"
     d="M 44.727246,53.196323 C 44.566805,53.005946 44.474376,51.012553 46.391789,49.111328 C 48.676987,46.924717 52.219626,49.238024 52.827692,47.339632 C 54.599471,42.075836 53.860939,40.408044 55.014579,34.551393 C 55.085131,34.193225 55.990483,35.103928 55.814603,35.457090 C 54.171520,38.587177 54.979966,42.526868 53.311949,47.739855 C 52.690826,49.638525 50.190713,47.829946 47.094961,49.936981 C 44.616371,51.583643 44.868567,53.364010 44.727246,53.196323 z "
     id="path700"
     sodipodi:nodetypes="csssssss" />
</svg>
