<?xml version="1.0" encoding="UTF-8" standalone="no"?>
<!DOCTYPE svg PUBLIC "-//W3C//DTD SVG 20010904//EN"
"http://www.w3.org/TR/2001/REC-SVG-20010904/DTD/svg10.dtd">
<!-- Created with Inkscape (http://www.inkscape.org/) -->
<svg
   id="svg1"
   sodipodi:version="0.32"
   inkscape:version="0.38.1"
   width="48pt"
   height="48pt"
   sodipodi:docbase="/home/scaba"
   sodipodi:docname="pdf.svg"
   xmlns="http://www.w3.org/2000/svg"
   xmlns:inkscape="http://www.inkscape.org/namespaces/inkscape"
   xmlns:sodipodi="http://sodipodi.sourceforge.net/DTD/sodipodi-0.dtd"
   xmlns:xlink="http://www.w3.org/1999/xlink">
  <defs
     id="defs3">
    <linearGradient
       id="linearGradient866">
      <stop
         style="stop-color:#ffffff;stop-opacity:1;"
         offset="0.00000000"
         id="stop867" />
      <stop
         style="stop-color:#d9cce6;stop-opacity:1;"
         offset="1.00000000"
         id="stop868" />
    </linearGradient>
    <linearGradient
       xlink:href="#linearGradient866"
       id="linearGradient586"
       x1="-1.3145951e-17"
       y1="0.015625000"
       x2="0.99122804"
       y2="0.98437500" />
    <linearGradient
       id="linearGradient880">
      <stop
         style="stop-color:#ffa8a8;stop-opacity:1.0000000;"
         offset="0.0000000"
         id="stop881" />
      <stop
         style="stop-color:#d90000;stop-opacity:1.0000000;"
         offset="1.0000000"
         id="stop882" />
    </linearGradient>
    <linearGradient
       xlink:href="#linearGradient880"
       id="linearGradient638"
       x1="5.1174343e-17"
       y1="0.50000000"
       x2="1.0000000"
       y2="0.50000000" />
    <linearGradient
       id="linearGradient584">
      <stop
         style="stop-color:#ffffff;stop-opacity:1;"
         offset="0.00000000"
         id="stop585" />
      <stop
         style="stop-color:#ffffff;stop-opacity:0;"
         offset="1.00000000"
         id="stop586" />
    </linearGradient>
    <linearGradient
       id="linearGradient578">
      <stop
         style="stop-color:#d9cce6;stop-opacity:1;"
         offset="0.00000000"
         id="stop579" />
      <stop
         style="stop-color:#73667f;stop-opacity:1;"
         offset="1.00000000"
         id="stop580" />
    </linearGradient>
    <linearGradient
       xlink:href="#linearGradient578"
       id="linearGradient581"
       x1="0.00000000"
       y1="-0.00000000"
       x2="1.00704229"
       y2="1.01562500" />
    <linearGradient
       xlink:href="#linearGradient578"
       id="linearGradient583"
       x1="0.02307692"
       y1="0.01562500"
       x2="0.96923077"
       y2="0.97656250" />
    <linearGradient
       xlink:href="#linearGradient584"
       id="linearGradient654"
       x1="0.00000002"
       y1="-0.00000001"
       x2="0.99242425"
       y2="1.00000012" />
    <linearGradient
       xlink:href="#linearGradient584"
       id="linearGradient655"
       x1="0.00000000"
       y1="-0.00000000"
       x2="0.96551722"
       y2="0.98437500" />
    <linearGradient
       xlink:href="#linearGradient584"
       id="linearGradient653"
       x1="0.00000000"
       y1="-0.00000000"
       x2="0.97945207"
       y2="0.97656250" />
  </defs>
  <sodipodi:namedview
     id="base"
     pagecolor="#ffffff"
     bordercolor="#666666"
     borderopacity="1.0"
     inkscape:pageopacity="0.0"
     inkscape:pageshadow="2"
     inkscape:zoom="8.0885664"
     inkscape:cx="24.598305"
     inkscape:cy="27.127095"
     inkscape:window-width="635"
     inkscape:window-height="656"
     inkscape:window-x="405"
     inkscape:window-y="26" />
  <path
     d="M 3.7114800,47.796651 C 4.4475220,49.995641 34.927684,59.883401 36.928928,58.224136 C 38.720255,56.723304 52.123903,12.050923 51.226435,10.279256 C 50.293551,8.3259939 19.369327,3.4607559 17.901486,4.7967319 C 16.093420,6.4520079 2.9384480,45.273596 3.7114800,47.796651 z "
     style="font-size:12.000000;opacity:0.30267498;fill-rule:evenodd;stroke-width:12.500000;"
     id="path639" />
  <path
     d="M 3.8162600,45.976629 C 4.5049200,48.033950 33.021416,57.284711 34.893725,55.732340 C 36.569649,54.328196 49.109797,12.533754 48.270153,10.876188 C 47.397363,9.0487619 18.465378,4.4969949 17.092099,5.7469029 C 15.400517,7.2955399 3.0930280,43.616117 3.8162600,45.976629 z "
     style="font-size:12.000000;fill:url(#linearGradient586);fill-rule:evenodd;stroke:#261933;stroke-width:1.7071459;"
     id="path634" />
  <path
     d="M 8.4680140,42.040478 C 16.646657,43.982102 26.352103,46.494963 34.096683,48.825971 C 34.634823,48.994781 34.345380,49.836510 33.775672,49.715714 C 25.523923,47.867950 16.006466,45.044066 8.1256770,42.790050 C 7.6170110,42.638230 7.9313160,41.919429 8.4680140,42.040478 z "
     style="font-size:12.000000;fill:#261933;fill-rule:evenodd;stroke-width:1.0000000pt;"
     id="path862" />
  <path
     d="M 7.5654330,44.280248 C 15.723604,46.306170 25.402600,48.919060 33.122712,51.329866 C 33.659081,51.504220 33.360968,52.342921 32.792535,52.216250 C 24.560297,50.283424 15.072488,47.361471 7.2153790,45.026246 C 6.7083060,44.869185 7.0300130,44.153665 7.5654330,44.280248 z "
     style="font-size:12.000000;fill:#261933;fill-rule:evenodd;stroke-width:1.0000000pt;"
     id="path861" />
  <path
     d="M 35.357198,15.165718 C 39.061093,15.620152 40.273771,15.994919 44.189528,16.946022 C 44.460438,17.011762 44.285057,17.950873 43.998948,17.919600 C 40.382823,17.346883 38.769638,16.978137 35.150017,16.071253 C 34.895010,16.009313 35.086819,15.136204 35.357198,15.165718 z "
     style="font-size:12.000000;fill:#261933;fill-rule:evenodd;stroke-width:1.0000000pt;"
     id="path1230"
     sodipodi:nodetypes="ccccc" />
  <path
     style="font-size:12.000000;fill:url(#linearGradient638);stroke-width:1.0000000pt;font-family:helvetica;"
     d="M 18.700115,31.019226 C 21.194515,30.728212 25.922281,30.990172 28.790839,31.946358 C 30.453774,34.856492 32.929465,37.804728 33.989582,34.915381 C 34.924984,32.150754 34.031158,31.007487 30.123266,29.801861 C 28.210889,25.644528 26.602052,24.442906 24.946632,20.144322 C 26.796895,17.217661 29.840552,11.509592 24.760302,11.592740 C 19.570575,11.675884 22.153707,17.571287 23.068320,19.774673 C 20.873449,23.636984 18.956995,26.500254 17.494989,28.734122 C 14.510725,28.793010 12.370375,30.156270 12.690153,33.664747 C 12.955190,37.173224 16.871316,34.386520 18.700115,31.019226 z M 27.753583,29.302982 C 26.007502,29.053539 22.325368,28.701704 19.830967,28.826425 C 20.535638,27.395618 22.379531,24.865725 23.887261,22.069220 C 24.918579,24.592671 26.547957,26.850152 27.753583,29.302982 z M 24.099136,18.560533 L 22.718203,15.292266 C 23.508094,13.879272 25.271707,13.494093 26.386171,14.839966 L 24.099136,18.560533 z "
     id="path879"
     sodipodi:nodetypes="ccccczcczccccccccc" />
  <path
     d="M 36.286599,12.716469 C 39.990493,13.170903 41.203172,13.545669 45.118928,14.496772 C 45.389837,14.562513 45.214457,15.501624 44.928348,15.470350 C 41.312222,14.897633 39.699037,14.528888 36.079417,13.622003 C 35.824410,13.560065 36.016219,12.686954 36.286599,12.716469 z "
     style="font-size:12.000000;fill:#261933;fill-rule:evenodd;stroke-width:1.0000000pt;"
     id="path1424"
     sodipodi:nodetypes="ccccc" />
  <path
     d="M 34.661335,17.692900 C 38.365230,18.147335 39.577908,18.522101 43.493665,19.473204 C 43.764573,19.538944 43.589194,20.478055 43.303084,20.446782 C 39.686960,19.874064 38.073773,19.505318 34.454153,18.598435 C 34.199146,18.536495 34.390956,17.663385 34.661335,17.692900 z "
     style="font-size:12.000000;fill:#261933;fill-rule:evenodd;stroke-width:1.0000000pt;"
     id="path1427"
     sodipodi:nodetypes="ccccc" />
  <path
     d="M 33.960153,20.136373 C 37.664048,20.590808 38.876726,20.965575 42.792483,21.916677 C 43.063391,21.982418 42.888012,22.921529 42.601902,22.890255 C 38.985777,22.317537 37.372591,21.948792 33.752971,21.041908 C 33.497964,20.979969 33.689774,20.106858 33.960153,20.136373 z "
     style="font-size:12.000000;fill:#261933;fill-rule:evenodd;stroke-width:1.0000000pt;"
     id="path1442"
     sodipodi:nodetypes="ccccc" />
  <path
     d="M 9.3774310,39.546025 C 17.556073,41.487649 27.261520,44.000511 35.006101,46.331519 C 35.544241,46.500328 35.254798,47.342058 34.685088,47.221262 C 26.433341,45.373498 16.915882,42.549613 9.0350940,40.295598 C 8.5264280,40.143778 8.8407330,39.424976 9.3774310,39.546025 z "
     style="font-size:12.000000;fill:#261933;fill-rule:evenodd;stroke-width:1.0000000pt;"
     id="path1444" />
  <path
     d="M 50.761394 29.850076 C 50.761394 42.22776 40.715686 52.273466 28.338007 52.273466 C 15.960147 52.273466 5.9144335 42.22776 5.9144335 29.850076 C 5.9144335 17.472398 15.960147 7.426687 28.338007 7.426687 C 40.715686 7.426687 50.761394 17.472398 50.761394 29.850076 z M 45.205129 29.850076 C 45.205129 38.941685 37.648542 46.320356 28.338007 46.320356 C 19.027289 46.320356 11.470879 38.941685 11.470879 29.850076 C 11.470879 20.758468 19.027289 13.379619 28.338007 13.379619 C 37.648542 13.379619 45.205129 20.758468 45.205129 29.850076 z "
     style="font-size:12.000000;opacity:0.29999998;fill-rule:evenodd;stroke-width:13.490400;"
     id="path1405"
     transform="matrix(0.954557,0.000000,0.000000,0.954557,0.818552,-0.924087)" />
  <path
     d="M 48.846925 26.976392 C 48.846925 39.354071 38.161177 50.039818 25.783494 50.039818 C 13.405636 50.039818 2.7198871 39.354071 2.7198871 26.976392 C 2.7198871 14.598711 13.405636 3.9129603 25.783494 3.9129603 C 38.161177 3.9129603 48.846925 14.598711 48.846925 26.976392 z M 41.37055 26.976392 C 41.37055 36.068 35.09403 42.166593 25.783494 42.166593 C 16.472781 42.166593 10.196445 36.068 10.196445 26.976392 C 10.196445 17.884781 16.472781 11.786008 25.783494 11.786008 C 35.09403 11.786008 41.37055 17.884781 41.37055 26.976392 z "
     style="font-size:12.000000;fill:url(#linearGradient583);fill-rule:evenodd;stroke:#261933;stroke-width:1.8750000;"
     id="path1406"
     sodipodi:nodetypes="cccccccccs"
     transform="matrix(0.954557,0.000000,0.000000,0.954557,0.818552,-0.924087)" />
  <path
     d="M 39.944131 44.540075 C 39.72299 44.105174 41.523852 42.119064 41.958561 42.347013 C 43.515473 43.162825 44.920858 45.563559 46.686837 46.793925 C 50.300188 49.311367 55.39059 50.813414 58.09674 53.590827 C 58.966064 54.482972 58.154601 57.30981 57.303214 58.021281 C 56.369736 58.801606 53.092008 59.824282 51.974409 58.943551 C 48.867489 56.495742 46.746596 52.016801 43.97139 48.694013 C 42.736504 47.215546 40.64985 45.928397 39.944131 44.540075 z "
     style="font-size:12.000000;opacity:0.29999998;fill-rule:evenodd;stroke-width:13.490400;"
     id="path1407"
     sodipodi:nodetypes="ccsccccc"
     transform="matrix(0.954557,0.000000,0.000000,0.954557,0.818552,-0.924087)" />
  <path
     d="M 39.09658 42.166681 C 38.875438 41.731781 40.566624 39.965029 41.001331 40.192979 C 42.558243 41.008788 43.963635 43.40951 45.729607 44.639888 C 49.342968 47.157321 54.433357 48.659379 57.139519 51.436792 C 58.00884 52.328936 56.978014 55.155772 56.126627 55.867243 C 55.19315 56.647571 52.24446 57.45089 51.126858 56.570158 C 48.019937 54.122349 45.899046 49.643408 43.12384 46.320621 C 41.888953 44.842153 39.802297 43.555004 39.09658 42.166681 z "
     style="font-size:12.000000;fill:url(#linearGradient581);fill-rule:evenodd;stroke:#261933;stroke-width:1.8750000;"
     id="path1409"
     sodipodi:nodetypes="cccccccc"
     transform="matrix(0.954557,0.000000,0.000000,0.954557,0.818552,-0.924087)" />
  <path
     d="M 7.2710428 35.325294 C 5.6744278 32.132066 4.0779956 21.594675 10.943306 13.452108 C 19.245546 5.9482635 27.867151 7.065659 31.379556 7.5446962 C 25.7915 7.8640547 20.043767 7.0658394 12.539918 14.410189 C 5.5149282 21.275315 7.4307212 31.493531 7.2710428 35.325294 z "
     style="font-size:12.000000;opacity:0.69999999;fill:url(#linearGradient655);fill-rule:evenodd;stroke-width:1.0000000pt;"
     id="path1410"
     transform="matrix(0.954557,0.000000,0.000000,0.954557,0.818552,-0.924087)" />
  <path
     d="M 39.971751 42.013051 C 39.963887 41.962033 40.122502 41.695244 40.204882 41.758727 C 40.956054 42.338052 42.465016 43.893813 42.472305 43.941378 C 42.479113 43.985683 41.008988 42.621624 40.247267 42.034244 C 40.175439 41.978815 39.978079 42.053903 39.971751 42.013051 z "
     style="font-size:12.000000;opacity:0.69999999;fill:url(#linearGradient653);fill-rule:evenodd;stroke-width:1.0000000pt;"
     id="path1411"
     transform="matrix(0.954557,0.000000,0.000000,0.954557,0.818552,-0.924087)" />
</svg>
