<?xml version="1.0" encoding="UTF-8" standalone="no"?>
<!DOCTYPE svg PUBLIC "-//W3C//DTD SVG 20010904//EN"
"http://www.w3.org/TR/2001/REC-SVG-20010904/DTD/svg10.dtd">
<!-- Created with Inkscape (http://www.inkscape.org/) -->
<svg
   id="svg1"
   sodipodi:version="0.32"
   inkscape:version="0.40"
   width="48pt"
   height="48pt"
   sodipodi:docbase="/home/scaba"
   sodipodi:docname="download.svg"
   xmlns="http://www.w3.org/2000/svg"
   xmlns:inkscape="http://www.inkscape.org/namespaces/inkscape"
   xmlns:sodipodi="http://sodipodi.sourceforge.net/DTD/sodipodi-0.dtd"
   xmlns:xlink="http://www.w3.org/1999/xlink"
   xmlns:rdf="http://www.w3.org/1999/02/22-rdf-syntax-ns#"
   xmlns:cc="http://web.resource.org/cc/"
   xmlns:dc="http://purl.org/dc/elements/1.1/">
  <metadata
     id="metadata1307">
    <rdf:RDF
       id="RDF1308">
      <cc:Work
         rdf:about=""
         id="Work1309">
        <dc:format
           id="format1310">image/svg+xml</dc:format>
        <dc:type
           id="type1312"
           rdf:resource="http://purl.org/dc/dcmitype/StillImage" />
      </cc:Work>
    </rdf:RDF>
  </metadata>
  <defs
     id="defs3">
    <linearGradient
       id="linearGradient989">
      <stop
         offset="0.0000000"
         style="stop-color:#7fff7f;stop-opacity:1.0000000;"
         id="stop991" />
      <stop
         offset="1.0000000"
         style="stop-color:#3fbf3f;stop-opacity:1.0000000;"
         id="stop990" />
    </linearGradient>
    <linearGradient
       id="linearGradient945">
      <stop
         offset="0.0000000"
         style="stop-color:#d9cce6;stop-opacity:1.0000000;"
         id="stop947" />
      <stop
         offset="1.0000000"
         style="stop-color:#73667f;stop-opacity:1.0000000;"
         id="stop946" />
    </linearGradient>
    <linearGradient
       id="linearGradient2888">
      <stop
         offset="0.0000000"
         style="stop-color:#d9cce6;stop-opacity:1.0000000;"
         id="stop2890" />
      <stop
         offset="1.0000000"
         style="stop-color:#73667f;stop-opacity:1.0000000;"
         id="stop2889" />
    </linearGradient>
    <linearGradient
       id="linearGradient584">
      <stop
         style="stop-color:#ffffff;stop-opacity:1;"
         offset="0.00000000"
         id="stop585" />
      <stop
         style="stop-color:#ffffff;stop-opacity:0;"
         offset="1.00000000"
         id="stop586" />
    </linearGradient>
    <linearGradient
       id="linearGradient578">
      <stop
         style="stop-color:#ffffff;stop-opacity:1;"
         offset="0.00000000"
         id="stop579" />
      <stop
         style="stop-color:#d9cce6;stop-opacity:1;"
         offset="1.00000000"
         id="stop580" />
    </linearGradient>
    <linearGradient
       xlink:href="#linearGradient584"
       id="linearGradient581"
       x1="2.9962117"
       y1="6.0695675"
       x2="32.824474"
       y2="34.136420"
       gradientTransform="matrix(1.070410,0.000000,0.000000,0.934221,-62.53476,40.21670)"
       gradientUnits="userSpaceOnUse" />
    <linearGradient
       xlink:href="#linearGradient584"
       id="linearGradient583" />
    <linearGradient
       xlink:href="#linearGradient584"
       id="linearGradient654"
       gradientTransform="matrix(0.865842,0.000000,0.000000,1.154945,-62.53476,40.21670)"
       x1="10.017873"
       y1="29.190604"
       x2="24.610566"
       y2="29.190604"
       gradientUnits="userSpaceOnUse" />
    <linearGradient
       xlink:href="#linearGradient578"
       id="linearGradient655"
       x1="0.38253029"
       y1="2.0397631"
       x2="40.251749"
       y2="42.853304"
       gradientUnits="userSpaceOnUse"
       gradientTransform="translate(-62.53476,40.21670)" />
    <linearGradient
       xlink:href="#linearGradient2888"
       id="linearGradient713"
       x1="0.013513510"
       y1="0.046875000"
       x2="0.99324322"
       y2="0.96875000" />
    <defs
       id="defs2842">
      <linearGradient
         id="linearGradient2843">
        <stop
           style="stop-color:#ffffff;stop-opacity:1;"
           offset="0.00000000"
           id="stop2844" />
        <stop
           style="stop-color:#ffffff;stop-opacity:0;"
           offset="1.00000000"
           id="stop2845" />
      </linearGradient>
      <linearGradient
         id="linearGradient2846"
         x1="0.0000000"
         y1="0.50000000"
         x2="1.0000000"
         y2="0.50000000"
         gradientUnits="objectBoundingBox"
         spreadMethod="pad"
         xlink:href="#linearGradient2888" />
      <linearGradient
         xlink:href="#linearGradient578"
         id="linearGradient2849"
         x1="-0.00000000"
         y1="-0.00000000"
         x2="0.96428573"
         y2="0.98437500" />
      <linearGradient
         xlink:href="#linearGradient584"
         id="linearGradient2850"
         x1="0.00000000"
         y1="-0.00000000"
         x2="0.98717946"
         y2="1.00000000" />
      <linearGradient
         xlink:href="#linearGradient584"
         id="linearGradient860"
         x1="0.01086957"
         y1="0.05555556"
         x2="0.99637681"
         y2="0.94444442" />
      <linearGradient
         xlink:href="#linearGradient584"
         id="linearGradient861"
         x1="0.01811594"
         y1="0.00833333"
         x2="0.98913044"
         y2="1.00000000" />
      <linearGradient
         xlink:href="#linearGradient584"
         id="linearGradient862"
         x1="-0.28676471"
         y1="-0.21875000"
         x2="0.97887325"
         y2="1.03906250" />
      <radialGradient
         xlink:href="#linearGradient584"
         id="radialGradient595" />
      <linearGradient
         xlink:href="#linearGradient584"
         id="linearGradient612"
         x1="0.00000000"
         y1="0.00000000"
         x2="1.03389835"
         y2="1.02343750" />
      <linearGradient
         xlink:href="#linearGradient578"
         id="linearGradient613"
         x1="0.00000000"
         y1="0.00000000"
         x2="0.96874988"
         y2="1.00000012" />
    </defs>
    <sodipodi:namedview
       id="namedview2857"
       pagecolor="#ffffff"
       bordercolor="#666666"
       borderopacity="1.0"
       inkscape:pageopacity="0.0"
       inkscape:pageshadow="2"
       inkscape:zoom="5.64233871"
       inkscape:cx="25.7884720"
       inkscape:cy="24.7998202"
       inkscape:window-width="640"
       inkscape:window-height="535"
       inkscape:window-x="65"
       inkscape:window-y="68" />
    <linearGradient
       xlink:href="#linearGradient2888"
       id="linearGradient2891"
       x1="0.013513510"
       y1="0.046875000"
       x2="0.99324322"
       y2="0.96875000" />
    <sodipodi:namedview
       id="namedview865"
       inkscape:zoom="6.99187184"
       inkscape:cx="26.6988416"
       inkscape:cy="22.4514457"
       inkscape:window-width="441"
       inkscape:window-height="516"
       inkscape:window-x="183"
       inkscape:window-y="304" />
    <defs
       id="defs866">
      <linearGradient
         id="linearGradient570">
        <stop
           style="stop-color:#ffffff;stop-opacity:1;"
           offset="0"
           id="stop571" />
        <stop
           style="stop-color:#ffffff;stop-opacity:0;"
           offset="1"
           id="stop572" />
      </linearGradient>
      <linearGradient
         id="linearGradient563"
         x1="0.0000000"
         y1="0.50000000"
         x2="1.0000000"
         y2="0.50000000"
         gradientUnits="objectBoundingBox"
         spreadMethod="pad"
         xlink:href="#linearGradient945" />
      <linearGradient
         x1="0.00980392"
         y1="0.01562500"
         x2="0.98529410"
         y2="0.97656250"
         id="linearGradient566"
         xlink:href="#linearGradient563" />
      <linearGradient
         x1="0.007273"
         y1="-0.030301"
         x2="0.985455"
         y2="1.045454"
         id="linearGradient569"
         xlink:href="#linearGradient570" />
      <linearGradient
         x1="0.007273"
         y1="0.013158"
         x2="0.978182"
         y2="0.973684"
         id="linearGradient573"
         xlink:href="#linearGradient570" />
      <linearGradient
         x1="0.006712"
         y1="0.046874"
         x2="1.020134"
         y2="0.984375"
         id="linearGradient575"
         xlink:href="#linearGradient570" />
      <linearGradient
         id="linearGradient877"
         xlink:href="#linearGradient570" />
    </defs>
    <defs
       id="defs885">
      <linearGradient
         id="linearGradient969">
        <stop
           style="stop-color:#7f7f7f;stop-opacity:1;"
           offset="0.000000"
           id="stop970" />
        <stop
           style="stop-color:#e6e6e6;stop-opacity:1;"
           offset="1.000000"
           id="stop971" />
      </linearGradient>
      <linearGradient
         id="linearGradient964">
        <stop
           style="stop-color:#ffff32;stop-opacity:1;"
           offset="0.000000"
           id="stop965" />
        <stop
           style="stop-color:#ffc500;stop-opacity:1;"
           offset="1.000000"
           id="stop966" />
      </linearGradient>
      <linearGradient
         id="linearGradient884"
         x1="0.0000000"
         y1="0.50000000"
         x2="1.0000000"
         y2="0.50000000"
         gradientUnits="objectBoundingBox"
         spreadMethod="pad"
         xlink:href="#linearGradient989" />
      <linearGradient
         id="linearGradient866">
        <stop
           style="stop-color:#ffffff;stop-opacity:1;"
           offset="0.00000000"
           id="stop867" />
        <stop
           style="stop-color:#d9cce6;stop-opacity:1;"
           offset="1.00000000"
           id="stop868" />
      </linearGradient>
      <linearGradient
         id="linearGradient898">
        <stop
           style="stop-color:#ffffff;stop-opacity:1;"
           offset="0.00000000"
           id="stop899" />
        <stop
           style="stop-color:#ffffff;stop-opacity:0;"
           offset="1.00000000"
           id="stop900" />
      </linearGradient>
      <linearGradient
         id="linearGradient901">
        <stop
           style="stop-color:#d9cce6;stop-opacity:1;"
           offset="0.00000000"
           id="stop902" />
        <stop
           style="stop-color:#73667f;stop-opacity:1;"
           offset="1.00000000"
           id="stop903" />
      </linearGradient>
      <linearGradient
         xlink:href="#linearGradient584"
         id="linearGradient904"
         x1="-0.00684932"
         y1="0.00775194"
         x2="0.97945207"
         y2="1.00000000" />
      <linearGradient
         xlink:href="#linearGradient584"
         id="linearGradient905"
         x1="0.01094890"
         y1="0.01030928"
         x2="1.01459849"
         y2="0.96907216" />
      <linearGradient
         xlink:href="#linearGradient584"
         id="linearGradient906"
         x1="-0.02500000"
         y1="0.03100775"
         x2="0.97500002"
         y2="0.97674417" />
      <linearGradient
         xlink:href="#linearGradient578"
         id="linearGradient907"
         x1="0.00000000"
         y1="0.02325581"
         x2="0.98611110"
         y2="0.97674417" />
      <linearGradient
         xlink:href="#linearGradient578"
         id="linearGradient908"
         x1="-0.00000000"
         y1="0.00775194"
         x2="1.00000000"
         y2="0.99224806" />
      <linearGradient
         xlink:href="#linearGradient866"
         id="linearGradient869"
         x1="-0.00684932"
         y1="0.00775194"
         x2="0.97945207"
         y2="1.00000000" />
      <linearGradient
         xlink:href="#linearGradient884"
         id="linearGradient883"
         x1="-0.16999437"
         y1="-0.22656719"
         x2="0.78999752"
         y2="0.81250203"
         gradientUnits="objectBoundingBox"
         spreadMethod="pad" />
      <linearGradient
         xlink:href="#linearGradient964"
         id="linearGradient963"
         x1="-0.00001396"
         y1="0.03123664"
         x2="0.98192781"
         y2="0.99218798"
         gradientUnits="objectBoundingBox"
         spreadMethod="pad" />
      <linearGradient
         xlink:href="#linearGradient584"
         id="linearGradient967"
         x1="-0.00578947"
         y1="0.03114940"
         x2="0.84302366"
         y2="0.84374923"
         gradientUnits="objectBoundingBox"
         spreadMethod="pad" />
      <linearGradient
         xlink:href="#linearGradient969"
         id="linearGradient968"
         x1="0.01561102"
         y1="-0.00001780"
         x2="0.98437500"
         y2="0.99218690"
         gradientUnits="objectBoundingBox"
         spreadMethod="pad" />
      <linearGradient
         xlink:href="#linearGradient584"
         id="linearGradient972"
         x1="-0.00000030"
         y1="0.00000010"
         x2="0.99999970"
         y2="0.00000010"
         gradientUnits="objectBoundingBox"
         spreadMethod="pad" />
      <linearGradient
         xlink:href="#linearGradient884"
         id="linearGradient1815"
         x1="-0.01466661"
         y1="0.05835330"
         x2="1.02921987"
         y2="0.95953709"
         gradientUnits="objectBoundingBox"
         spreadMethod="pad" />
      <linearGradient
         xlink:href="#linearGradient584"
         id="linearGradient1816"
         x1="0.00624930"
         y1="0.02343486"
         x2="1.48749995"
         y2="1.35937512"
         gradientUnits="objectBoundingBox"
         spreadMethod="pad" />
      <linearGradient
         xlink:href="#linearGradient584"
         id="linearGradient1817"
         x1="0.00413379"
         y1="0.01517161"
         x2="0.98347086"
         y2="1.01515150"
         gradientUnits="objectBoundingBox"
         spreadMethod="pad" />
      <linearGradient
         xlink:href="#linearGradient584"
         id="linearGradient1818"
         x1="-0.03225702"
         y1="0.00781346"
         x2="0.96774155"
         y2="0.99999982"
         gradientUnits="objectBoundingBox"
         spreadMethod="pad" />
      <linearGradient
         xlink:href="#linearGradient584"
         id="linearGradient1819"
         x1="-0.00000289"
         y1="0.00782308"
         x2="1.00000000"
         y2="0.99218750"
         gradientUnits="objectBoundingBox"
         spreadMethod="pad" />
    </defs>
    <sodipodi:namedview
       id="namedview920"
       pagecolor="#ffffff"
       bordercolor="#666666"
       borderopacity="1.0"
       inkscape:pageopacity="0.0"
       inkscape:pageshadow="2"
       inkscape:zoom="11.284677"
       inkscape:cx="14.021707"
       inkscape:cy="10.973442"
       inkscape:window-width="640"
       inkscape:window-height="525"
       inkscape:window-x="154"
       inkscape:window-y="386" />
    <linearGradient
       inkscape:collect="always"
       xlink:href="#linearGradient570"
       id="linearGradient1318"
       x1="6.4940634"
       y1="4.9005452"
       x2="47.371744"
       y2="49.855749"
       gradientTransform="matrix(0.747334,0.000000,0.000000,0.632715,0.775137,0.934062)"
       gradientUnits="userSpaceOnUse" />
    <linearGradient
       inkscape:collect="always"
       xlink:href="#linearGradient945"
       id="linearGradient1319"
       x1="4.4373132"
       y1="-1.0645131"
       x2="566.59054"
       y2="552.70233"
       gradientUnits="userSpaceOnUse" />
    <linearGradient
       inkscape:collect="always"
       xlink:href="#linearGradient584"
       id="linearGradient1320"
       gradientTransform="matrix(0.880310,0.000000,0.000000,1.135964,-62.53476,40.21670)"
       x1="25.031033"
       y1="10.637665"
       x2="39.934686"
       y2="10.637665"
       gradientUnits="userSpaceOnUse" />
    <linearGradient
       inkscape:collect="always"
       xlink:href="#linearGradient584"
       id="linearGradient1321"
       gradientTransform="matrix(1.275717,0.000000,0.000000,1.060337,-10.19355,-0.125526)"
       x1="37.051806"
       y1="11.917198"
       x2="51.320852"
       y2="11.917198"
       gradientUnits="userSpaceOnUse" />
    <linearGradient
       inkscape:collect="always"
       xlink:href="#linearGradient989"
       id="linearGradient1322"
       gradientUnits="userSpaceOnUse"
       spreadMethod="pad"
       x1="24.028619"
       y1="-2.3159024"
       x2="47.049113"
       y2="22.600856"
       gradientTransform="matrix(1.325765,0.000000,0.000000,1.020309,-10.19354,-0.125527)" />
    <linearGradient
       inkscape:collect="always"
       xlink:href="#linearGradient570"
       id="linearGradient1323"
       x1="37.072729"
       y1="36.919704"
       x2="55.009408"
       y2="53.512648"
       gradientTransform="matrix(1.024844,0.000000,0.000000,1.072933,-0.498998,-2.714611)"
       gradientUnits="userSpaceOnUse" />
    <linearGradient
       inkscape:collect="always"
       xlink:href="#linearGradient570"
       id="linearGradient1324"
       x1="9.6132471"
       y1="56.782565"
       x2="30.085047"
       y2="77.035437"
       gradientTransform="matrix(1.836925,0.000000,0.000000,0.598603,-0.498998,-2.714611)"
       gradientUnits="userSpaceOnUse" />
    <linearGradient
       inkscape:collect="always"
       xlink:href="#linearGradient570"
       id="linearGradient1325"
       x1="8.2247938"
       y1="83.712433"
       x2="18.706140"
       y2="95.239288"
       gradientTransform="matrix(1.958820,0.000000,0.000000,0.561353,-0.498998,-2.714611)"
       gradientUnits="userSpaceOnUse" />
    <linearGradient
       inkscape:collect="always"
       xlink:href="#linearGradient945"
       id="linearGradient1326"
       x1="11.152923"
       y1="38.091173"
       x2="44.853622"
       y2="71.289115"
       gradientTransform="matrix(1.306990,0.000000,0.000000,0.841314,-0.498998,-2.714611)"
       gradientUnits="userSpaceOnUse" />
    <linearGradient
       inkscape:collect="always"
       xlink:href="#linearGradient945"
       id="linearGradient1344"
       gradientUnits="userSpaceOnUse"
       gradientTransform="matrix(1.306990,0.000000,0.000000,0.841314,-0.498998,-2.714611)"
       x1="11.152923"
       y1="38.091173"
       x2="44.853622"
       y2="71.289115" />
    <linearGradient
       inkscape:collect="always"
       xlink:href="#linearGradient570"
       id="linearGradient1345"
       gradientUnits="userSpaceOnUse"
       gradientTransform="matrix(1.958820,0.000000,0.000000,0.561353,-0.498998,-2.714611)"
       x1="8.2247938"
       y1="83.712433"
       x2="18.706140"
       y2="95.239288" />
    <linearGradient
       inkscape:collect="always"
       xlink:href="#linearGradient570"
       id="linearGradient1346"
       gradientUnits="userSpaceOnUse"
       gradientTransform="matrix(1.836925,0.000000,0.000000,0.598603,-0.498998,-2.714611)"
       x1="9.6132471"
       y1="56.782565"
       x2="30.085047"
       y2="77.035437" />
    <linearGradient
       inkscape:collect="always"
       xlink:href="#linearGradient570"
       id="linearGradient1347"
       gradientUnits="userSpaceOnUse"
       gradientTransform="matrix(1.024844,0.000000,0.000000,1.072933,-0.498998,-2.714611)"
       x1="37.072729"
       y1="36.919704"
       x2="55.009408"
       y2="53.512648" />
    <linearGradient
       inkscape:collect="always"
       xlink:href="#linearGradient945"
       id="linearGradient1348"
       gradientUnits="userSpaceOnUse"
       x1="4.4373132"
       y1="-1.0645131"
       x2="566.59054"
       y2="552.70233" />
    <linearGradient
       inkscape:collect="always"
       xlink:href="#linearGradient570"
       id="linearGradient1349"
       gradientUnits="userSpaceOnUse"
       gradientTransform="matrix(0.747334,0.000000,0.000000,0.632715,0.775137,0.934062)"
       x1="6.4940634"
       y1="4.9005452"
       x2="47.371744"
       y2="49.855749" />
    <linearGradient
       inkscape:collect="always"
       xlink:href="#linearGradient989"
       id="linearGradient1350"
       gradientUnits="userSpaceOnUse"
       gradientTransform="matrix(1.325765,0.000000,0.000000,1.020309,-10.19354,-0.125527)"
       spreadMethod="pad"
       x1="24.028619"
       y1="-2.3159024"
       x2="47.049113"
       y2="22.600856" />
    <linearGradient
       inkscape:collect="always"
       xlink:href="#linearGradient584"
       id="linearGradient1351"
       gradientUnits="userSpaceOnUse"
       gradientTransform="matrix(1.275717,0.000000,0.000000,1.060337,-10.19355,-0.125526)"
       x1="37.051806"
       y1="11.917198"
       x2="51.320852"
       y2="11.917198" />
  </defs>
  <sodipodi:namedview
     id="base"
     pagecolor="#ffffff"
     bordercolor="#666666"
     borderopacity="1.0"
     inkscape:pageopacity="0.0"
     inkscape:pageshadow="2"
     inkscape:zoom="8.0000000"
     inkscape:cx="30.592737"
     inkscape:cy="19.506462"
     inkscape:window-width="1022"
     inkscape:window-height="695"
     inkscape:window-x="0"
     inkscape:window-y="26"
     showguides="true"
     snaptoguides="true"
     inkscape:current-layer="svg1" />
  <path
     d="M 14.870531,53.547063 C 15.620853,54.001972 37.327386,59.468014 38.706531,59.202136 C 40.101999,58.952342 58.320156,43.703372 59.030961,42.365579 C 59.634339,41.358396 59.745013,35.711801 59.030961,35.168395 C 58.094603,34.584275 37.795447,30.393199 36.471836,30.798591 C 35.105920,31.184418 15.255294,44.218416 14.551294,45.193117 C 13.876354,46.111888 14.285075,53.091920 14.870531,53.547063 z "
     style="font-size:12.000000;opacity:0.30267498;fill-rule:evenodd;stroke-width:12.500000;"
     id="path776"
     transform="matrix(1.065300,0.000000,0.000000,1.065300,-3.478728,-3.076675)" />
  <path
     d="M 15.255899,51.562848 C 15.970834,51.996298 36.653635,57.204548 37.967738,56.951135 C 39.297391,56.713269 56.656337,42.183409 57.333621,40.908710 C 57.908540,39.949026 58.013995,34.568659 57.333621,34.050888 C 56.441421,33.494384 37.099621,29.500894 35.838435,29.887243 C 34.536938,30.254875 15.622516,42.674155 14.951717,43.602817 C 14.308609,44.478256 14.698055,51.129092 15.255899,51.562848 z "
     style="font-size:12.000000;fill:url(#linearGradient1344);fill-rule:evenodd;stroke:#261933;stroke-width:1.9661494;"
     id="path679"
     transform="matrix(1.065300,0.000000,0.000000,1.065300,-3.478728,-3.076675)" />
  <path
     d="M 15.965641,50.460714 C 15.763574,50.045756 15.063577,44.479538 15.762856,44.460060 C 16.833675,44.427299 36.272719,49.081539 36.446796,49.438980 C 36.610682,49.775509 22.758703,46.226418 16.920170,46.715052 C 15.931701,46.797864 16.101551,50.739795 15.965641,50.460714 z "
     style="font-size:12.000000;opacity:0.69999999;fill:url(#linearGradient1345);fill-rule:evenodd;stroke-width:0.10669100pt;"
     id="path680"
     transform="matrix(1.065300,0.000000,0.000000,1.065300,-3.478728,-3.076675)" />
  <path
     d="M 16.878176,43.725255 C 16.912613,43.434098 35.000892,31.224671 36.244034,31.111817 C 37.530508,31.004244 55.643735,34.744924 55.609991,35.030576 C 55.576173,35.316452 40.879101,32.329070 36.184625,33.345902 C 31.911299,34.293432 16.845021,44.005545 16.878176,43.725255 z "
     style="font-size:12.000000;opacity:0.69999999;fill:url(#linearGradient1346);fill-rule:evenodd;stroke-width:0.10669100pt;"
     id="path682"
     transform="matrix(1.065300,0.000000,0.000000,1.065300,-3.478728,-3.076675)" />
  <path
     d="M 37.967738,54.991681 C 37.710397,54.769746 37.013866,50.236739 37.604111,49.101318 C 38.292036,47.850472 55.267952,35.802672 55.508611,36.010266 C 55.741115,36.210835 43.559997,44.568991 38.880166,49.633213 C 37.713115,50.896209 38.183561,55.178063 37.967738,54.991681 z "
     style="font-size:12.000000;opacity:0.69999999;fill:url(#linearGradient1347);fill-rule:evenodd;stroke-width:0.10669100pt;"
     id="path683"
     transform="matrix(1.065300,0.000000,0.000000,1.065300,-3.478728,-3.076675)" />
  <ellipse
     cx="410.20490"
     cy="422.40900"
     rx="11.720139"
     ry="11.720139"
     transform="matrix(0.116973,0.000000,0.000000,0.141279,-15.35403,-6.935489)"
     style="font-size:12.000000;fill:#80ff80;fill-rule:evenodd;stroke:#003f00;stroke-width:6.2500000;stroke-linecap:round;stroke-linejoin:round;"
     id="path722"
     sodipodi:cx="410.20490"
     sodipodi:cy="422.40900"
     sodipodi:rx="11.720139"
     sodipodi:ry="11.720139" />
  <rect
     style="font-size:12.000000;fill:#808080;fill-rule:evenodd;stroke-width:1.0000000pt;"
     id="rect630"
     width="0.0000000"
     height="4.5257583"
     x="60.007011"
     y="-118.47043"
     transform="matrix(0.000000,1.065300,-1.065300,0.000000,-3.478728,-3.076675)" />
  <ellipse
     cx="286.92639"
     cy="278.06998"
     rx="278.19861"
     ry="278.19858"
     transform="matrix(6.901360e-2,0.000000,0.000000,6.901360e-2,1.808866,2.769156)"
     style="font-size:12.000000;opacity:0.30267498;fill-rule:evenodd;stroke-width:13.253600;"
     id="path1023"
     sodipodi:cx="286.92639"
     sodipodi:cy="278.06998"
     sodipodi:rx="278.19861"
     sodipodi:ry="278.19858" />
  <ellipse
     cx="286.92639"
     cy="278.06998"
     rx="278.19861"
     ry="278.19858"
     transform="matrix(6.901360e-2,0.000000,0.000000,6.901360e-2,0.132394,0.693526)"
     style="font-size:12.000000;fill:url(#linearGradient1348);fill-rule:evenodd;stroke:#261933;stroke-width:19.880501;stroke-opacity:1.0000000;"
     id="path983"
     sodipodi:cx="286.92639"
     sodipodi:cy="278.06998"
     sodipodi:rx="278.19861"
     sodipodi:ry="278.19858" />
  <path
     d="M 9.0372417,9.4671488 C 9.6937746,9.1033690 10.415149,10.389303 11.302959,10.512256 C 12.095908,10.621954 14.023948,9.3772342 15.059919,9.9693350 C 15.746401,10.263394 15.162266,12.847899 14.953244,14.395261 C 14.690097,15.637164 13.849820,17.416011 13.324209,18.955889 C 13.050963,19.630554 11.152185,22.074864 11.074565,22.230101 C 10.997084,22.385202 11.818677,24.456596 11.307353,24.712396 C 10.774393,25.027817 10.116212,21.996008 8.9801605,21.143986 C 8.4899249,20.849789 7.3594994,20.986207 6.9632707,21.299293 C 6.4912036,21.555297 6.8974665,24.238233 7.5837553,25.022734 C 8.2872926,26.077732 9.3467544,26.889297 9.9886562,27.970330 C 10.820552,29.371591 11.333181,30.969921 12.005443,32.469682 C 12.005443,32.469682 11.450639,34.384124 11.528258,34.384124 C 11.605877,34.384124 12.703603,36.580944 12.703603,36.580944 C 10.449630,34.868935 8.6351341,33.198478 7.1184057,31.150920 C 6.0494143,29.707689 5.1968291,27.727168 4.9463538,26.108643 C 4.8606845,25.555144 5.8960660,25.223032 6.1099709,24.634845 C 6.5021732,23.654237 4.4454923,21.220438 4.3623786,20.425359 C 4.2602984,19.569216 4.7781886,16.144023 5.9548099,14.084992 C 6.7972427,12.476634 7.7803643,10.163452 9.0372417,9.4671488 z "
     style="font-size:12.000000;opacity:0.50445902;fill:#261933;fill-rule:evenodd;stroke:#000000;stroke-width:0.078441882pt;"
     id="path565"
     transform="matrix(1.065300,0.000000,0.000000,1.065300,-3.478728,-3.076675)" />
  <path
     d="M 22.400264,15.326139 C 21.980917,15.928339 21.532100,17.006279 21.779588,17.575508 C 22.049261,18.195567 23.215745,18.881703 23.951681,18.894342 C 24.715574,18.907531 25.495404,18.051801 26.278874,17.653196 C 26.969272,17.301988 27.635282,16.763737 28.373347,16.644699 C 29.238490,16.505193 30.463976,16.461230 31.088361,16.877556 C 31.549953,17.185353 31.733696,18.206557 31.631417,18.816860 C 31.414567,19.282231 30.688933,19.682896 30.933190,19.980458 C 31.147024,20.161729 32.630985,19.068333 32.872500,18.429041 C 33.070597,17.904805 32.130583,17.157465 32.251958,16.489668 C 32.350047,16.048546 33.961841,16.160096 34.501603,16.257017 C 34.946847,16.365340 35.379177,17.469521 35.820438,17.420544 C 36.224674,17.420544 37.233790,16.116136 37.343141,16.122248 C 37.764003,16.191762 38.069945,17.420544 38.069945,17.420544 C 37.345822,18.092876 36.761688,19.015717 35.897918,19.437470 C 34.537937,20.101626 32.932875,20.501535 31.398699,20.678616 C 28.899164,20.967043 25.935772,19.952021 23.796513,20.833716 C 22.108816,21.529401 19.942492,23.820259 19.917902,25.410554 C 19.890769,27.155810 21.022906,30.121885 23.053087,30.301300 C 25.510791,30.571732 28.079151,31.125158 28.964693,32.257367 C 29.656531,33.142014 28.850256,36.475506 28.961671,37.577697 C 29.003575,37.943123 30.067157,37.295725 30.700545,36.968834 C 31.670433,36.468361 32.843648,35.480062 33.182770,34.408919 C 33.826251,32.377162 33.898646,29.857225 33.648345,27.660127 C 33.433208,25.771859 31.558405,22.353812 31.786656,22.152483 C 31.997945,21.966059 33.657960,25.743834 34.966973,26.496600 C 35.726539,26.933258 37.469530,26.289571 37.992391,25.720756 C 38.348822,25.332936 37.352138,23.852199 37.604503,23.626349 C 37.843473,23.412519 39.361782,24.911182 39.466261,24.402195 C 40.298632,20.537390 39.516261,17.683625 38.155597,14.105394 C 37.042146,11.374239 33.885804,7.6145295 30.515633,5.7715803 C 30.041055,5.5097509 27.984429,6.6685523 26.397431,7.6836300 C 25.492726,8.1364306 24.552643,9.4999134 25.017257,9.8270803 C 25.426853,10.150263 26.641005,9.0600279 27.500239,8.8664605 C 29.040527,8.4982863 29.756201,8.6978972 30.933190,9.2753680 C 30.933190,9.2753680 32.601382,10.655818 31.864067,11.680043 C 31.396023,12.300032 29.847214,12.300651 29.847214,12.300651 C 29.511048,12.119791 29.160321,11.689385 28.838717,11.757660 C 28.307134,11.870518 27.858385,12.587910 27.287303,12.843776 C 26.125835,13.363823 24.768396,13.470087 23.641343,14.084992 C 23.004044,14.232056 22.661421,14.929596 22.400264,15.326139 z "
     style="font-size:12.000000;opacity:0.49999997;fill:#261933;fill-rule:evenodd;stroke:#000000;stroke-width:0.078441882pt;"
     id="path566"
     transform="matrix(1.065300,0.000000,0.000000,1.065300,-3.478728,-3.076675)" />
  <path
     d="M 8.0018874,31.257934 C 7.7620245,30.538486 -1.3229393,14.267431 15.945324,5.9287623 C 23.774668,2.1118762 35.341603,9.1878588 36.628294,13.422622 C 36.826459,14.063287 28.803001,4.9176220 17.369184,9.9754483 C 2.4828116,16.517693 8.2116653,31.887338 8.0018874,31.257934 z "
     style="font-size:12.000000;opacity:0.69999999;fill:url(#linearGradient1349);fill-rule:evenodd;stroke:none;stroke-width:0.099890900pt;"
     id="path984"
     transform="matrix(1.065300,0.000000,0.000000,1.065300,-3.478728,-3.076675)" />
  <path
     style="font-size:12.000000;opacity:0.29636899;fill-rule:evenodd;stroke-width:18.750000;"
     d="M 25.178327,13.964546 C 24.678563,9.9524645 30.921024,2.1070248 39.730127,3.0820307 C 49.193185,4.5096549 51.206906,17.142847 51.880171,17.356491 C 53.467381,18.556163 60.060697,16.574382 59.509269,17.639157 C 58.035690,20.484553 48.426555,28.968870 46.370266,29.086998 C 44.329446,29.063091 34.618908,20.079813 33.372544,17.356491 C 32.829366,16.169645 41.028696,17.683888 41.284200,17.215165 C 41.688000,16.459022 42.114867,11.613667 37.469653,9.5832685 C 34.838207,8.4948339 27.687139,9.2818231 25.178327,13.964546 z "
     id="path739"
     sodipodi:nodetypes="cccccccsc"
     transform="matrix(1.065300,0.000000,0.000000,1.065300,-3.478728,-3.076675)" />
  <path
     style="font-size:12.000000;fill:url(#linearGradient1350);fill-rule:evenodd;stroke:#261933;stroke-width:1.4538147;"
     d="M 27.818759,13.454948 C 27.377903,9.9157685 32.884565,2.9950709 40.655340,3.8551505 C 49.002990,5.1145055 50.779357,16.258624 51.373262,16.447088 C 52.773389,17.505351 58.589552,15.757164 58.103121,16.696437 C 56.803232,19.206441 48.326724,26.690716 46.512810,26.794916 C 44.712541,26.773833 36.146581,18.849414 35.047126,16.447088 C 34.567974,15.400135 41.800848,16.735893 42.026239,16.322416 C 42.382441,15.655394 42.758993,11.381168 38.661310,9.5900915 C 36.340033,8.6299503 30.031861,9.3241745 27.818759,13.454948 z "
     id="path735"
     sodipodi:nodetypes="cccccccsc"
     transform="matrix(1.065300,0.000000,0.000000,1.065300,-3.478728,-3.076675)" />
  <path
     style="font-size:12.000000;opacity:0.20178296;fill-rule:evenodd;stroke-width:0.96522999pt;"
     d="M 28.566522,11.709528 C 32.802242,9.1997884 35.754580,8.0124163 38.287428,8.8420595 C 40.448864,9.5500465 43.072336,15.202285 42.524746,16.571757 C 42.075321,17.695737 34.892324,15.231063 35.296381,16.322416 C 36.138594,18.597225 46.192425,28.262290 46.263556,26.670243 C 46.853443,16.132204 44.867334,8.5836399 40.779969,7.2213119 C 33.973535,4.8813773 30.060445,8.9919990 28.566522,11.709528 z "
     id="path737"
     sodipodi:nodetypes="csssssc"
     transform="matrix(1.065300,0.000000,0.000000,1.065300,-3.478728,-3.076675)" />
  <path
     style="font-size:12.000000;fill:url(#linearGradient1351);fill-rule:evenodd;stroke-width:1.0000000pt;"
     d="M 37.077477,5.0856801 C 37.229075,4.9643572 42.223225,4.2309806 45.713687,7.9067008 C 48.888767,11.307006 48.506088,15.291816 50.773289,17.685843 C 51.678575,18.641774 54.643286,17.589037 55.231144,17.956580 C 55.583281,18.176750 53.817399,19.917291 53.468650,20.072349 C 53.288650,20.152375 53.965311,18.779929 53.644900,18.661839 C 52.849065,18.368529 50.809323,19.624365 50.119916,18.838146 C 47.871835,16.274401 48.223016,12.456568 44.832440,8.6119521 C 41.264407,4.5744430 36.935328,5.1994426 37.077477,5.0856801 z "
     id="path742"
     sodipodi:nodetypes="cssssssss"
     transform="matrix(1.065300,0.000000,0.000000,1.065300,-3.478728,-3.076675)" />
</svg>
