<?xml version="1.0" encoding="UTF-8" standalone="no"?>
<!DOCTYPE svg PUBLIC "-//W3C//DTD SVG 20010904//EN"
"http://www.w3.org/TR/2001/REC-SVG-20010904/DTD/svg10.dtd">
<!-- Created with Inkscape (http://www.inkscape.org/) -->
<svg
   version="1.0"
   x="0.0000000"
   y="0.0000000"
   width="60.000000"
   height="60.000000"
   id="svg1"
   sodipodi:version="0.32"
   inkscape:version="0.40"
   sodipodi:docname="gnome-planner.svg"
   sodipodi:docbase="/home/stefan/software/Lila-themes/new-lila-icons"
   xmlns="http://www.w3.org/2000/svg"
   xmlns:cc="http://web.resource.org/cc/"
   xmlns:inkscape="http://www.inkscape.org/namespaces/inkscape"
   xmlns:sodipodi="http://sodipodi.sourceforge.net/DTD/sodipodi-0.dtd"
   xmlns:rdf="http://www.w3.org/1999/02/22-rdf-syntax-ns#"
   xmlns:dc="http://purl.org/dc/elements/1.1/"
   xmlns:xlink="http://www.w3.org/1999/xlink">
  <metadata
     id="metadata28">
    <rdf:RDF
       id="RDF29">
      <cc:Work
         rdf:about=""
         id="Work30">
        <dc:format
           id="format31">image/svg+xml</dc:format>
        <dc:type
           id="type33"
           rdf:resource="http://purl.org/dc/dcmitype/StillImage" />
      </cc:Work>
    </rdf:RDF>
  </metadata>
  <sodipodi:namedview
     id="base"
     pagecolor="#ffffff"
     bordercolor="#666666"
     borderopacity="1.0"
     inkscape:pageopacity="0.0"
     inkscape:pageshadow="2"
     inkscape:zoom="6.9465337"
     inkscape:cx="26.442676"
     inkscape:cy="62.274026"
     inkscape:window-width="1269"
     inkscape:window-height="968"
     showguides="true"
     inkscape:guide-bbox="true"
     inkscape:window-x="0"
     inkscape:window-y="0"
     inkscape:current-layer="svg1" />
  <defs
     id="defs3">
    <linearGradient
       id="linearGradient2327">
      <stop
         style="stop-color:#ffffff;stop-opacity:1.0000000;"
         offset="0.0000000"
         id="stop2328" />
      <stop
         style="stop-color:#ffffff;stop-opacity:0.0000000;"
         offset="1.0000000"
         id="stop2329" />
    </linearGradient>
    <linearGradient
       id="linearGradient2320">
      <stop
         style="stop-color:#d9cce6;stop-opacity:1.0000000;"
         offset="0.0000000"
         id="stop2321" />
      <stop
         style="stop-color:#73667f;stop-opacity:1.0000000;"
         offset="1.0000000"
         id="stop2322" />
    </linearGradient>
    <linearGradient
       id="linearGradient2309">
      <stop
         style="stop-color:#ffffff;stop-opacity:1.0000000;"
         offset="0.0000000"
         id="stop2310" />
      <stop
         style="stop-color:#d9cce6;stop-opacity:1.0000000;"
         offset="1.0000000"
         id="stop2311" />
    </linearGradient>
    <linearGradient
       x1="1.0472022"
       y1="39.094986"
       x2="21.264275"
       y2="61.438004"
       id="linearGradient2312"
       xlink:href="#linearGradient2320"
       gradientUnits="userSpaceOnUse"
       gradientTransform="matrix(2.177170,0.000000,0.000000,0.459312,0.000000,-1.079676)" />
    <linearGradient
       x1="8.4957237"
       y1="62.869129"
       x2="27.418297"
       y2="85.044907"
       id="linearGradient2319"
       xlink:href="#linearGradient2320"
       gradientUnits="userSpaceOnUse"
       gradientTransform="scale(2.071518,0.482738)" />
    <linearGradient
       x1="4.3648725"
       y1="69.264465"
       x2="18.894825"
       y2="84.497253"
       id="linearGradient2323"
       xlink:href="#linearGradient2320"
       gradientUnits="userSpaceOnUse"
       gradientTransform="scale(1.567509,0.637955)" />
    <linearGradient
       x1="1.1021320"
       y1="59.719189"
       x2="13.755548"
       y2="78.326759"
       id="linearGradient2332"
       xlink:href="#linearGradient2327"
       gradientUnits="userSpaceOnUse"
       gradientTransform="matrix(3.064777,0.000000,0.000000,0.326288,0.000000,-1.079676)" />
    <linearGradient
       x1="1.7875894"
       y1="66.051598"
       x2="13.902660"
       y2="75.953697"
       id="linearGradient2342"
       xlink:href="#linearGradient2327"
       gradientUnits="userSpaceOnUse"
       gradientTransform="matrix(2.796756,0.000000,0.000000,0.326288,16.65493,12.79143)" />
    <linearGradient
       x1="1.1021320"
       y1="59.719189"
       x2="13.755548"
       y2="78.326759"
       id="linearGradient1741"
       xlink:href="#linearGradient2327"
       gradientUnits="userSpaceOnUse"
       gradientTransform="matrix(3.064777,0.000000,0.000000,0.326288,15.45966,12.24462)" />
    <linearGradient
       x1="1.1021320"
       y1="59.719189"
       x2="13.755548"
       y2="78.326759"
       id="linearGradient1743"
       xlink:href="#linearGradient2327"
       gradientUnits="userSpaceOnUse"
       gradientTransform="matrix(3.064777,0.000000,0.000000,0.326288,4.413531,25.19089)" />
  </defs>
  <path
     style="opacity:0.29999998;fill:#000000;fill-opacity:1.0000000;fill-rule:evenodd;stroke:none;stroke-width:1.8750000;stroke-linecap:butt;stroke-linejoin:miter;stroke-miterlimit:4.0000000;stroke-opacity:1.0000000"
     d="M 32.538557,5.8025323 C 23.476067,5.8006833 14.419984,6.2214773 6.6323075,7.0837823 C 4.8728765,7.2785983 5.7572295,13.659569 6.2885575,14.083782 C 6.7056795,14.416812 7.6799065,10.604998 9.1635575,10.490032 C 23.935015,9.3453803 40.226428,9.2716493 55.038557,10.302532 C 56.601501,10.411308 57.786876,14.202867 58.288557,13.896282 C 58.866549,13.543065 60.186504,7.2676553 58.507307,7.0837823 C 50.685144,6.2272673 41.601047,5.8043813 32.538557,5.8025323 z M 26.476057,20.066607 C 18.781642,20.024622 11.166019,20.424019 6.1635575,21.566607 C 4.7694055,21.885038 4.7391665,28.694119 6.0385575,28.754107 C 18.170901,29.314221 35.092708,29.790808 46.882307,28.816607 C 48.069089,28.718541 48.190541,21.271472 47.194807,21.160357 C 41.936865,20.573624 34.170472,20.108592 26.476057,20.066607 z M 38.913557,33.365032 C 32.231188,33.405271 25.790800,33.884748 21.476057,34.802532 C 20.204286,35.073049 20.255334,42.335740 21.476057,42.458782 C 28.728032,43.189747 47.676376,43.374155 57.413557,42.646282 C 58.710245,42.550443 58.856940,34.724071 57.757307,34.552532 C 52.528877,33.736926 45.595926,33.324793 38.913557,33.365032 z M 20.476057,46.927532 C 16.756379,46.913686 13.042627,47.198071 10.476057,47.833782 C 9.4268885,48.093650 9.1718435,55.449224 10.476057,55.490032 C 16.507800,56.010506 24.483186,56.067090 30.538557,55.490032 C 31.707218,55.378662 31.593890,48.067362 30.538557,47.833782 C 27.916603,47.253456 24.195736,46.941378 20.476057,46.927532 z "
     id="path1084"
     sodipodi:nodetypes="cccccccccccccccccccccccccc" />
  <path
     d="M 3.9588090,11.774509 C 3.4274813,11.350297 2.5654707,4.9909837 4.3249023,4.7961678 C 19.900255,3.0715612 40.540377,3.0847450 56.184702,4.7977751 C 57.863901,4.9816448 56.541155,11.241347 55.963163,11.594564 C 55.461480,11.901148 54.287081,8.1044223 52.724137,7.9956460 C 37.912007,6.9647650 21.609401,7.0309402 6.8379427,8.1755919 C 5.3542917,8.2905612 4.3759311,12.107539 3.9588090,11.774509 z "
     style="fill:#261933;fill-opacity:1.0000000;fill-rule:evenodd;stroke:#261933;stroke-width:1.8750000;stroke-linecap:butt;stroke-linejoin:miter;stroke-miterlimit:4.0000000;stroke-opacity:1.0000000"
     id="path1061" />
  <path
     d="M 3.8462688,19.262921 C 13.851193,16.977747 34.368451,17.701541 44.884335,18.875007 C 45.880068,18.986121 45.738808,26.424971 44.552026,26.523037 C 32.762427,27.497237 15.867843,27.027986 3.7354991,26.467872 C 2.4361082,26.407883 2.4521168,19.581352 3.8462688,19.262921 z "
     style="fill:url(#linearGradient2312);fill-opacity:1.0000000;fill-rule:evenodd;stroke:#261933;stroke-width:1.8750000;stroke-linecap:butt;stroke-linejoin:round;stroke-miterlimit:4.0000000;stroke-opacity:1.0000000"
     id="path1685"
     sodipodi:nodetypes="ccccc" />
  <path
     d="M 19.158825,32.508432 C 27.788310,30.672863 44.974612,30.614087 55.431472,32.245299 C 56.531105,32.416836 56.395851,40.254140 55.099163,40.349979 C 45.361982,41.077853 26.410800,40.887427 19.158825,40.156462 C 17.938102,40.033419 17.887053,32.778949 19.158825,32.508432 z "
     style="fill:url(#linearGradient2319);fill-opacity:1.0000000;fill-rule:evenodd;stroke:#261933;stroke-width:1.8750000;stroke-linecap:butt;stroke-linejoin:round;stroke-miterlimit:4.0000000;stroke-opacity:1.0000000"
     id="path2307"
     sodipodi:nodetypes="ccccc" />
  <path
     d="M 8.1562904,45.530753 C 13.289429,44.259331 22.979620,44.370101 28.223528,45.530753 C 29.278861,45.764333 29.392189,53.067413 28.223528,53.178783 C 22.168157,53.755840 14.188033,53.699257 8.1562904,53.178783 C 6.8520762,53.137974 7.1071215,45.790621 8.1562904,45.530753 z "
     style="fill:url(#linearGradient2323);fill-opacity:1.0000000;fill-rule:evenodd;stroke:#261933;stroke-width:1.8750000;stroke-linecap:butt;stroke-linejoin:round;stroke-miterlimit:4.0000000;stroke-opacity:1.0000000"
     id="path2308"
     sodipodi:nodetypes="ccccc" />
  <path
     d="M 3.8770757,24.679689 C 3.7415592,24.263547 3.5610394,20.386398 4.5076685,20.160096 C 15.428040,17.549464 41.622681,19.431340 42.148144,19.655211 C 42.459941,19.788051 9.5616921,19.232293 5.4341772,21.910677 C 4.3151665,22.636814 3.9700997,24.965345 3.8770757,24.679689 z "
     style="fill:url(#linearGradient2332);fill-opacity:1.0000000;fill-rule:evenodd;stroke:none;stroke-width:0.0000000;stroke-linecap:butt;stroke-linejoin:miter;stroke-miterlimit:4.0000000;stroke-opacity:1.0000000"
     id="path2326"
     sodipodi:nodetypes="ccccc" />
  <path
     d="M 19.336742,38.003978 C 19.201226,37.587836 19.020706,33.710687 19.967335,33.484385 C 30.887706,30.873753 49.072153,32.547248 49.597616,32.771119 C 49.909413,32.903959 25.021359,32.556582 20.893844,35.234966 C 19.774833,35.961103 19.429766,38.289634 19.336742,38.003978 z "
     style="fill:url(#linearGradient1741);fill-opacity:1.0000000;fill-rule:evenodd;stroke:none;stroke-width:0.0000000;stroke-linecap:butt;stroke-linejoin:miter;stroke-miterlimit:4.0000000;stroke-opacity:1.0000000"
     id="path1740"
     sodipodi:nodetypes="ccccc" />
  <path
     d="M 8.2906129,50.950259 C 8.1550969,50.534117 7.9721252,46.646455 8.9212059,46.430666 C 16.029830,44.814403 25.651655,46.183249 26.177118,46.407120 C 26.488915,46.539960 13.975230,45.502863 9.8477149,48.181247 C 8.7287039,48.907384 8.3836369,51.235915 8.2906129,50.950259 z "
     style="fill:url(#linearGradient1743);fill-opacity:1.0000000;fill-rule:evenodd;stroke:none;stroke-width:0.0000000;stroke-linecap:butt;stroke-linejoin:miter;stroke-miterlimit:4.0000000;stroke-opacity:1.0000000"
     id="path1742" />
</svg>
