<?xml version="1.0" encoding="UTF-8" standalone="no"?>
<!DOCTYPE svg PUBLIC "-//W3C//DTD SVG 20010904//EN"
"http://www.w3.org/TR/2001/REC-SVG-20010904/DTD/svg10.dtd">
<!-- Created with Inkscape (http://www.inkscape.org/) -->
<svg
   width="48pt"
   height="48pt"
   id="svg3074"
   sodipodi:version="0.32"
   inkscape:version="0.40"
   sodipodi:docbase="/home/pinuz/lila-inkscape/icon theme/dafare"
   sodipodi:docname="gnome-reboot.svg"
   xmlns="http://www.w3.org/2000/svg"
   xmlns:cc="http://web.resource.org/cc/"
   xmlns:inkscape="http://www.inkscape.org/namespaces/inkscape"
   xmlns:sodipodi="http://sodipodi.sourceforge.net/DTD/sodipodi-0.dtd"
   xmlns:rdf="http://www.w3.org/1999/02/22-rdf-syntax-ns#"
   xmlns:dc="http://purl.org/dc/elements/1.1/"
   xmlns:xlink="http://www.w3.org/1999/xlink">
  <defs
     id="defs3">
    <linearGradient
       id="linearGradient3675">
      <stop
         offset="0.0000000"
         style="stop-color:#7fff7f;stop-opacity:1.0000000;"
         id="stop3677" />
      <stop
         offset="1.0000000"
         style="stop-color:#3fbf3f;stop-opacity:1.0000000;"
         id="stop3676" />
    </linearGradient>
    <linearGradient
       id="linearGradient3051">
      <stop
         offset="0.0000000"
         style="stop-color:#7fff7f;stop-opacity:1.0000000;"
         id="stop3053" />
      <stop
         offset="1.0000000"
         style="stop-color:#3fbf3f;stop-opacity:1.0000000;"
         id="stop3052" />
    </linearGradient>
    <linearGradient
       id="linearGradient3251">
      <stop
         offset="0.0000000"
         style="stop-color:#ffffff;stop-opacity:1.0000000;"
         id="stop3253" />
      <stop
         offset="1.0000000"
         style="stop-color:#ffffff;stop-opacity:0.0000000;"
         id="stop3252" />
    </linearGradient>
    <linearGradient
       inkscape:collect="always"
       xlink:href="#linearGradient884"
       id="linearGradient3199"
       gradientUnits="userSpaceOnUse"
       spreadMethod="pad"
       x1="1.6180284"
       y1="-4.4861374"
       x2="24.456966"
       y2="20.234110"
       gradientTransform="scale(0.876361,1.141082)" />
    <linearGradient
       inkscape:collect="always"
       xlink:href="#linearGradient3251"
       id="linearGradient3200"
       x1="7.3863332"
       y1="4.1088183"
       x2="21.523862"
       y2="18.043013"
       gradientTransform="scale(0.911685,1.096870)"
       gradientUnits="userSpaceOnUse" />
    <linearGradient
       inkscape:collect="always"
       xlink:href="#linearGradient884"
       id="linearGradient3249"
       gradientUnits="userSpaceOnUse"
       gradientTransform="scale(0.876361,1.141082)"
       spreadMethod="pad"
       x1="1.6180284"
       y1="-4.4861374"
       x2="24.456966"
       y2="20.234110" />
    <linearGradient
       inkscape:collect="always"
       xlink:href="#linearGradient3251"
       id="linearGradient3250"
       gradientUnits="userSpaceOnUse"
       gradientTransform="scale(0.959760,-1.041927)"
       x1="1.7428377"
       y1="-22.300179"
       x2="20.008614"
       y2="-4.4833093" />
    <linearGradient
       inkscape:collect="always"
       xlink:href="#linearGradient884"
       id="linearGradient3972"
       gradientUnits="userSpaceOnUse"
       gradientTransform="scale(0.876361,1.141082)"
       spreadMethod="pad"
       x1="1.6180284"
       y1="-4.4861374"
       x2="24.456966"
       y2="20.234110" />
    <linearGradient
       inkscape:collect="always"
       xlink:href="#linearGradient3251"
       id="linearGradient3973"
       gradientUnits="userSpaceOnUse"
       gradientTransform="scale(0.911685,1.096870)"
       x1="7.3863332"
       y1="4.1088183"
       x2="21.523862"
       y2="18.043013" />
    <linearGradient
       inkscape:collect="always"
       xlink:href="#linearGradient3675"
       id="linearGradient3974"
       gradientUnits="userSpaceOnUse"
       gradientTransform="scale(0.876361,1.141082)"
       spreadMethod="pad"
       x1="1.6180284"
       y1="-4.4861374"
       x2="24.456966"
       y2="20.234110" />
    <linearGradient
       inkscape:collect="always"
       xlink:href="#linearGradient3251"
       id="linearGradient3975"
       gradientUnits="userSpaceOnUse"
       gradientTransform="scale(0.959760,-1.041927)"
       x1="1.7428377"
       y1="-22.300179"
       x2="20.008614"
       y2="-4.4833093" />
    <defs
       id="defs3202">
      <linearGradient
         id="linearGradient3203">
        <stop
           style="stop-color:#7f7f7f;stop-opacity:1;"
           offset="0.000000"
           id="stop3204" />
        <stop
           style="stop-color:#e6e6e6;stop-opacity:1;"
           offset="1.000000"
           id="stop3205" />
      </linearGradient>
      <linearGradient
         id="linearGradient3206">
        <stop
           style="stop-color:#ffff32;stop-opacity:1;"
           offset="0.000000"
           id="stop3207" />
        <stop
           style="stop-color:#ffc500;stop-opacity:1;"
           offset="1.000000"
           id="stop3208" />
      </linearGradient>
      <linearGradient
         id="linearGradient3209"
         x1="0.0000000"
         y1="0.50000000"
         x2="1.0000000"
         y2="0.50000000"
         gradientUnits="objectBoundingBox"
         spreadMethod="pad"
         xlink:href="#linearGradient3675" />
      <linearGradient
         id="linearGradient3212">
        <stop
           style="stop-color:#ffffff;stop-opacity:1;"
           offset="0.00000000"
           id="stop3213" />
        <stop
           style="stop-color:#d9cce6;stop-opacity:1;"
           offset="1.00000000"
           id="stop3214" />
      </linearGradient>
      <linearGradient
         id="linearGradient3215">
        <stop
           style="stop-color:#ffffff;stop-opacity:1;"
           offset="0.00000000"
           id="stop3216" />
        <stop
           style="stop-color:#ffffff;stop-opacity:0;"
           offset="1.00000000"
           id="stop3217" />
      </linearGradient>
      <linearGradient
         id="linearGradient3218">
        <stop
           style="stop-color:#d9cce6;stop-opacity:1;"
           offset="0.00000000"
           id="stop3219" />
        <stop
           style="stop-color:#73667f;stop-opacity:1;"
           offset="1.00000000"
           id="stop3220" />
      </linearGradient>
      <linearGradient
         xlink:href="#linearGradient584"
         id="linearGradient3221"
         x1="-0.0068493201"
         y1="0.0077519398"
         x2="0.97945207"
         y2="1.0000000" />
      <linearGradient
         xlink:href="#linearGradient584"
         id="linearGradient3222"
         x1="0.010948900"
         y1="0.010309280"
         x2="1.0145985"
         y2="0.96907216" />
      <linearGradient
         xlink:href="#linearGradient584"
         id="linearGradient3223"
         x1="-0.025000000"
         y1="0.031007750"
         x2="0.97500002"
         y2="0.97674417" />
      <linearGradient
         xlink:href="#linearGradient578"
         id="linearGradient3224"
         x1="0.0000000"
         y1="0.023255810"
         x2="0.98611110"
         y2="0.97674417" />
      <linearGradient
         xlink:href="#linearGradient578"
         id="linearGradient3225"
         x1="-0.0000000"
         y1="0.0077519398"
         x2="1.0000000"
         y2="0.99224806" />
      <linearGradient
         xlink:href="#linearGradient866"
         id="linearGradient3226"
         x1="-0.0068493201"
         y1="0.0077519398"
         x2="0.97945207"
         y2="1.0000000" />
      <linearGradient
         xlink:href="#linearGradient884"
         id="linearGradient3227"
         x1="-0.16999437"
         y1="-0.22656719"
         x2="0.78999752"
         y2="0.81250203"
         gradientUnits="objectBoundingBox"
         spreadMethod="pad" />
      <linearGradient
         xlink:href="#linearGradient964"
         id="linearGradient3228"
         x1="-1.3960000e-05"
         y1="0.031236639"
         x2="0.98192781"
         y2="0.99218798"
         gradientUnits="objectBoundingBox"
         spreadMethod="pad" />
      <linearGradient
         xlink:href="#linearGradient584"
         id="linearGradient3229"
         x1="-0.0057894699"
         y1="0.031149400"
         x2="0.84302366"
         y2="0.84374923"
         gradientUnits="objectBoundingBox"
         spreadMethod="pad" />
      <linearGradient
         xlink:href="#linearGradient969"
         id="linearGradient3230"
         x1="0.015611020"
         y1="-1.7799999e-05"
         x2="0.98437500"
         y2="0.99218690"
         gradientUnits="objectBoundingBox"
         spreadMethod="pad" />
      <linearGradient
         xlink:href="#linearGradient584"
         id="linearGradient3231"
         x1="-3.0000001e-07"
         y1="1.0000000e-07"
         x2="0.99999970"
         y2="1.0000000e-07"
         gradientUnits="objectBoundingBox"
         spreadMethod="pad" />
      <linearGradient
         xlink:href="#linearGradient884"
         id="linearGradient3232"
         x1="-0.014666610"
         y1="0.058353301"
         x2="1.0292199"
         y2="0.95953709"
         gradientUnits="objectBoundingBox"
         spreadMethod="pad" />
      <linearGradient
         xlink:href="#linearGradient584"
         id="linearGradient3233"
         x1="0.0062493002"
         y1="0.023434861"
         x2="1.4875000"
         y2="1.3593751"
         gradientUnits="objectBoundingBox"
         spreadMethod="pad" />
      <linearGradient
         xlink:href="#linearGradient584"
         id="linearGradient3234"
         x1="0.0041337898"
         y1="0.015171610"
         x2="0.98347086"
         y2="1.0151515"
         gradientUnits="objectBoundingBox"
         spreadMethod="pad" />
      <linearGradient
         xlink:href="#linearGradient584"
         id="linearGradient3235"
         x1="-0.032257020"
         y1="0.0078134602"
         x2="0.96774155"
         y2="0.99999982"
         gradientUnits="objectBoundingBox"
         spreadMethod="pad" />
      <linearGradient
         xlink:href="#linearGradient584"
         id="linearGradient3236"
         x1="-2.8899999e-06"
         y1="0.0078230798"
         x2="1.0000000"
         y2="0.99218750"
         gradientUnits="objectBoundingBox"
         spreadMethod="pad" />
    </defs>
    <sodipodi:namedview
       id="namedview3237"
       pagecolor="#ffffff"
       bordercolor="#666666"
       borderopacity="1.0"
       inkscape:pageopacity="0.0"
       inkscape:pageshadow="2"
       inkscape:zoom="15.958943"
       inkscape:cx="13.834041"
       inkscape:cy="11.289268"
       inkscape:window-width="1022"
       inkscape:window-height="695"
       inkscape:window-x="0"
       inkscape:window-y="26" />
    <metadata
       id="metadata3243">
      <rdf:RDF
         id="RDF3244">
        <cc:Work
           rdf:about=""
           id="Work3245">
          <dc:format
             id="format3246">image/svg+xml</dc:format>
          <dc:type
             id="type3248"
             rdf:resource="http://purl.org/dc/dcmitype/StillImage" />
        </cc:Work>
      </rdf:RDF>
    </metadata>
    <defs
       id="defs3152">
      <linearGradient
         id="linearGradient969">
        <stop
           style="stop-color:#7f7f7f;stop-opacity:1;"
           offset="0.000000"
           id="stop970" />
        <stop
           style="stop-color:#e6e6e6;stop-opacity:1;"
           offset="1.000000"
           id="stop971" />
      </linearGradient>
      <linearGradient
         id="linearGradient964">
        <stop
           style="stop-color:#ffff32;stop-opacity:1;"
           offset="0.000000"
           id="stop965" />
        <stop
           style="stop-color:#ffc500;stop-opacity:1;"
           offset="1.000000"
           id="stop966" />
      </linearGradient>
      <linearGradient
         id="linearGradient884"
         x1="0.0000000"
         y1="0.50000000"
         x2="1.0000000"
         y2="0.50000000"
         gradientUnits="objectBoundingBox"
         spreadMethod="pad"
         xlink:href="#linearGradient3051" />
      <linearGradient
         id="linearGradient866">
        <stop
           style="stop-color:#ffffff;stop-opacity:1;"
           offset="0.00000000"
           id="stop867" />
        <stop
           style="stop-color:#d9cce6;stop-opacity:1;"
           offset="1.00000000"
           id="stop868" />
      </linearGradient>
      <linearGradient
         id="linearGradient584">
        <stop
           style="stop-color:#ffffff;stop-opacity:1;"
           offset="0.00000000"
           id="stop585" />
        <stop
           style="stop-color:#ffffff;stop-opacity:0;"
           offset="1.00000000"
           id="stop586" />
      </linearGradient>
      <linearGradient
         id="linearGradient3168">
        <stop
           style="stop-color:#d9cce6;stop-opacity:1;"
           offset="0.00000000"
           id="stop579" />
        <stop
           style="stop-color:#73667f;stop-opacity:1;"
           offset="1.00000000"
           id="stop580" />
      </linearGradient>
      <linearGradient
         xlink:href="#linearGradient584"
         id="linearGradient581"
         x1="-0.0068493201"
         y1="0.0077519398"
         x2="0.97945207"
         y2="1.0000000" />
      <linearGradient
         xlink:href="#linearGradient584"
         id="linearGradient3172"
         x1="0.010948900"
         y1="0.010309280"
         x2="1.0145985"
         y2="0.96907216" />
      <linearGradient
         xlink:href="#linearGradient584"
         id="linearGradient860"
         x1="-0.025000000"
         y1="0.031007750"
         x2="0.97500002"
         y2="0.97674417" />
      <linearGradient
         xlink:href="#linearGradient578"
         id="linearGradient861"
         x1="0.0000000"
         y1="0.023255810"
         x2="0.98611110"
         y2="0.97674417" />
      <linearGradient
         xlink:href="#linearGradient578"
         id="linearGradient862"
         x1="-0.0000000"
         y1="0.0077519398"
         x2="1.0000000"
         y2="0.99224806" />
      <linearGradient
         xlink:href="#linearGradient866"
         id="linearGradient869"
         x1="-0.0068493201"
         y1="0.0077519398"
         x2="0.97945207"
         y2="1.0000000" />
      <linearGradient
         xlink:href="#linearGradient884"
         id="linearGradient883"
         x1="-0.16999437"
         y1="-0.22656719"
         x2="0.78999752"
         y2="0.81250203"
         gradientUnits="objectBoundingBox"
         spreadMethod="pad" />
      <linearGradient
         xlink:href="#linearGradient964"
         id="linearGradient963"
         x1="-1.3960000e-05"
         y1="0.031236639"
         x2="0.98192781"
         y2="0.99218798"
         gradientUnits="objectBoundingBox"
         spreadMethod="pad" />
      <linearGradient
         xlink:href="#linearGradient584"
         id="linearGradient967"
         x1="-0.0057894699"
         y1="0.031149400"
         x2="0.84302366"
         y2="0.84374923"
         gradientUnits="objectBoundingBox"
         spreadMethod="pad" />
      <linearGradient
         xlink:href="#linearGradient969"
         id="linearGradient968"
         x1="0.015611020"
         y1="-1.7799999e-05"
         x2="0.98437500"
         y2="0.99218690"
         gradientUnits="objectBoundingBox"
         spreadMethod="pad" />
      <linearGradient
         xlink:href="#linearGradient584"
         id="linearGradient972"
         x1="-3.0000001e-07"
         y1="1.0000000e-07"
         x2="0.99999970"
         y2="1.0000000e-07"
         gradientUnits="objectBoundingBox"
         spreadMethod="pad" />
      <linearGradient
         xlink:href="#linearGradient884"
         id="linearGradient1815"
         x1="-0.014666610"
         y1="0.058353301"
         x2="1.0292199"
         y2="0.95953709"
         gradientUnits="objectBoundingBox"
         spreadMethod="pad" />
      <linearGradient
         xlink:href="#linearGradient584"
         id="linearGradient1816"
         x1="0.0062493002"
         y1="0.023434861"
         x2="1.4875000"
         y2="1.3593751"
         gradientUnits="objectBoundingBox"
         spreadMethod="pad" />
      <linearGradient
         xlink:href="#linearGradient584"
         id="linearGradient1817"
         x1="0.0041337898"
         y1="0.015171610"
         x2="0.98347086"
         y2="1.0151515"
         gradientUnits="objectBoundingBox"
         spreadMethod="pad" />
      <linearGradient
         xlink:href="#linearGradient584"
         id="linearGradient1818"
         x1="-0.032257020"
         y1="0.0078134602"
         x2="0.96774155"
         y2="0.99999982"
         gradientUnits="objectBoundingBox"
         spreadMethod="pad" />
      <linearGradient
         xlink:href="#linearGradient584"
         id="linearGradient1819"
         x1="-2.8899999e-06"
         y1="0.0078230798"
         x2="1.0000000"
         y2="0.99218750"
         gradientUnits="objectBoundingBox"
         spreadMethod="pad" />
    </defs>
    <sodipodi:namedview
       id="namedview3187"
       pagecolor="#ffffff"
       bordercolor="#666666"
       borderopacity="1.0"
       inkscape:pageopacity="0.0"
       inkscape:pageshadow="2"
       inkscape:zoom="15.958943"
       inkscape:cx="13.834041"
       inkscape:cy="11.289268"
       inkscape:window-width="1022"
       inkscape:window-height="695"
       inkscape:window-x="0"
       inkscape:window-y="26" />
    <metadata
       id="metadata43">
      <rdf:RDF
         id="RDF44">
        <cc:Work
           rdf:about=""
           id="Work45">
          <dc:format
             id="format46">image/svg+xml</dc:format>
          <dc:type
             id="type48"
             rdf:resource="http://purl.org/dc/dcmitype/StillImage" />
        </cc:Work>
      </rdf:RDF>
    </metadata>
    <linearGradient
       inkscape:collect="always"
       xlink:href="#linearGradient3051"
       id="linearGradient3723"
       gradientUnits="userSpaceOnUse"
       gradientTransform="scale(0.876361,1.141082)"
       spreadMethod="pad"
       x1="1.6180284"
       y1="-4.4861374"
       x2="24.456966"
       y2="20.234110" />
  </defs>
  <sodipodi:namedview
     id="base"
     pagecolor="#ffffff"
     bordercolor="#666666"
     borderopacity="1.0"
     inkscape:pageopacity="0.0"
     inkscape:pageshadow="2"
     inkscape:zoom="9.0720000"
     inkscape:cx="25.000000"
     inkscape:cy="27.129629"
     inkscape:current-layer="svg3074"
     showgrid="true"
     inkscape:grid-bbox="true"
     gridspacingy="1.0000000pt"
     gridspacingx="1.0000000pt"
     gridoriginy="0.0000000pt"
     gridoriginx="0.0000000pt"
     inkscape:window-width="640"
     inkscape:window-height="542"
     inkscape:window-x="651"
     inkscape:window-y="375" />
  <metadata
     id="metadata4">
    <rdf:RDF
       id="RDF5">
      <cc:Work
         rdf:about=""
         id="Work6">
        <dc:format
           id="format7">image/svg+xml</dc:format>
        <dc:type
           id="type9"
           rdf:resource="http://purl.org/dc/dcmitype/StillImage" />
      </cc:Work>
    </rdf:RDF>
  </metadata>
  <g
     id="layer1"
     inkscape:label="Layer 1"
     inkscape:groupmode="layer" />
  <g
     id="g3084">
    <sodipodi:namedview
       id="namedview3085"
       pagecolor="#ffffff"
       bordercolor="#666666"
       borderopacity="1.0"
       inkscape:pageopacity="0.0"
       inkscape:pageshadow="2"
       inkscape:zoom="1.22798528"
       inkscape:cx="19.0849479"
       inkscape:cy="26.4350009"
       inkscape:window-width="640"
       inkscape:window-height="500"
       inkscape:window-x="98"
       inkscape:window-y="299" />
    <defs
       id="defs3086">
      <linearGradient
         id="linearGradient1152">
        <stop
           offset="0.00000000"
           style="stop-color:#ffffff;stop-opacity:1;"
           id="stop1154" />
        <stop
           offset="1.00000000"
           style="stop-color:#ffffff;stop-opacity:0;"
           id="stop1153" />
      </linearGradient>
      <linearGradient
         id="linearGradient1149">
        <stop
           offset="0.00000000"
           style="stop-color:#ffffff;stop-opacity:1;"
           id="stop1151" />
        <stop
           offset="1.00000000"
           style="stop-color:#ffffff;stop-opacity:0;"
           id="stop1150" />
      </linearGradient>
      <linearGradient
         id="linearGradient1146">
        <stop
           offset="0.00000000"
           style="stop-color:#ffffff;stop-opacity:1;"
           id="stop1148" />
        <stop
           offset="1.00000000"
           style="stop-color:#d9cce6;stop-opacity:1;"
           id="stop1147" />
      </linearGradient>
      <linearGradient
         id="linearGradient778">
        <stop
           style="stop-color:#d9cce6;stop-opacity:1;"
           offset="0.00000000"
           id="stop780" />
        <stop
           style="stop-color:#73667f;stop-opacity:1;"
           offset="1.00000000"
           id="stop779" />
      </linearGradient>
      <linearGradient
         id="linearGradient570"
         x1="0.0000000"
         y1="0.50000000"
         x2="1.0000000"
         y2="0.50000000"
         gradientUnits="objectBoundingBox"
         spreadMethod="pad"
         xlink:href="#linearGradient3251" />
      <linearGradient
         id="linearGradient563">
        <stop
           style="stop-color:#cac5fa;stop-opacity:1;"
           offset="0"
           id="stop564" />
        <stop
           style="stop-color:#9500ed;stop-opacity:1;"
           offset="1"
           id="stop565" />
      </linearGradient>
      <linearGradient
         x1="0.02542373"
         y1="0.00781250"
         x2="0.97457629"
         y2="0.98437500"
         id="linearGradient566"
         xlink:href="#linearGradient778" />
      <linearGradient
         x1="0.000005"
         y1="0.000006"
         x2="0.981818"
         y2="0.850001"
         id="linearGradient569"
         xlink:href="#linearGradient570" />
      <linearGradient
         x1="0.007752"
         y1="0.015627"
         x2="0.976744"
         y2="0.992188"
         id="linearGradient573"
         xlink:href="#linearGradient570" />
      <linearGradient
         x1="-0.146345"
         y1="0.000002"
         x2="0.975610"
         y2="0.703125"
         id="linearGradient575"
         xlink:href="#linearGradient570" />
      <linearGradient
         x1="0.00520833"
         y1="0.03125007"
         x2="1.00520825"
         y2="0.98437488"
         id="linearGradient578"
         xlink:href="#linearGradient778" />
      <linearGradient
         x1="0.018434"
         y1="0.031280"
         x2="1.009217"
         y2="1.007813"
         id="linearGradient583"
         xlink:href="#linearGradient570" />
      <linearGradient
         id="linearGradient637"
         xlink:href="#linearGradient778"
         x1="0.00833333"
         y1="0.00781250"
         x2="0.98333329"
         y2="0.96875006" />
      <linearGradient
         id="linearGradient640"
         xlink:href="#linearGradient1146"
         x1="0.03378378"
         y1="0.02580645"
         x2="0.98648649"
         y2="0.95483869" />
      <linearGradient
         x1="0.010877"
         y1="0.038449"
         x2="0.989090"
         y2="0.987177"
         id="linearGradient645"
         xlink:href="#linearGradient570" />
      <linearGradient
         x1="0.056578"
         y1="0.023450"
         x2="0.867923"
         y2="0.976563"
         id="linearGradient646"
         xlink:href="#linearGradient570" />
      <linearGradient
         x1="0.000007"
         y1="0.000000"
         x2="0.951807"
         y2="0.984375"
         id="linearGradient647"
         xlink:href="#linearGradient570" />
      <linearGradient
         x1="0.056605"
         y1="0.015625"
         x2="0.943396"
         y2="0.984375"
         id="linearGradient675"
         xlink:href="#linearGradient570" />
      <linearGradient
         x1="0.011765"
         y1="-0.000000"
         x2="1.011765"
         y2="1.015625"
         id="linearGradient676"
         xlink:href="#linearGradient570" />
      <defs
         id="defs613">
        <linearGradient
           id="linearGradient1535"
           x1="0.00000000"
           y1="0.00000000"
           x2="1.00000000"
           y2="0.00000000"
           gradientUnits="objectBoundingBox"
           spreadMethod="pad"
           xlink:href="#linearGradient1149" />
        <linearGradient
           x1="0.000000"
           y1="0.000000"
           x2="1.000000"
           y2="0.000000"
           id="linearGradient1528"
           xlink:href="#linearGradient778"
           gradientUnits="objectBoundingBox"
           spreadMethod="pad" />
        <linearGradient
           id="linearGradient642"
           x1="0.00000000"
           y1="0.00000000"
           x2="1.00000000"
           y2="0.00000000"
           gradientUnits="objectBoundingBox"
           spreadMethod="pad"
           xlink:href="#linearGradient1152" />
        <linearGradient
           id="linearGradient635"
           x1="0.00000000"
           y1="0.00000000"
           x2="1.00000000"
           y2="0.00000000"
           gradientUnits="objectBoundingBox"
           spreadMethod="pad"
           xlink:href="#linearGradient1146" />
        <linearGradient
           x1="0.984000"
           y1="0.960938"
           x2="-0.008000"
           y2="0.007813"
           id="linearGradient638"
           xlink:href="#linearGradient1528" />
        <linearGradient
           x1="0.027523"
           y1="0.023438"
           x2="1.000000"
           y2="1.015625"
           id="linearGradient641"
           xlink:href="#linearGradient642" />
        <linearGradient
           x1="-0.000009"
           y1="0.015624"
           x2="0.727272"
           y2="0.984375"
           id="linearGradient1522"
           xlink:href="#linearGradient642" />
        <linearGradient
           x1="0.027523"
           y1="0.007813"
           x2="1.009174"
           y2="0.992188"
           id="linearGradient1527"
           xlink:href="#linearGradient1535" />
        <linearGradient
           x1="0.010743"
           y1="0.031251"
           x2="0.967741"
           y2="0.992187"
           id="linearGradient1532"
           xlink:href="#linearGradient635" />
        <linearGradient
           x1="0.007275"
           y1="-0.012819"
           x2="0.996364"
           y2="0.974359"
           id="linearGradient1534"
           xlink:href="#linearGradient635" />
        <linearGradient
           x1="0.017094"
           y1="0.000000"
           x2="0.974359"
           y2="0.984375"
           id="linearGradient1539"
           xlink:href="#linearGradient1535" />
        <linearGradient
           id="linearGradient1567"
           xlink:href="#linearGradient1535" />
      </defs>
    </defs>
    <path
       d="M 21.773566 42.147275 C 22.814845 43.382026 44.352751 51.539525 45.959434 51.707959 C 47.73646 51.878003 57.698023 47.618832 58.366373 46.578949 C 59.34907 45.152418 59.132552 16.546493 58.237281 15.262969 C 57.412107 13.833145 36.969258 11.066611 35.679225 11.091142 C 34.314386 11.114278 22.577308 12.580261 21.928086 13.563355 C 21.420564 14.45262 20.462402 40.930142 21.773566 42.147275 z "
       style="font-size:12;opacity:0.296369;fill-rule:evenodd;stroke-width:12.5;"
       id="path707"
       sodipodi:nodetypes="ccccccc" />
    <path
       d="M 20.998131 40.336133 C 21.99504 41.518268 42.929015 49.328168 44.467238 49.489436 C 46.168543 49.652233 55.564125 45.873089 56.203996 44.877522 C 57.14482 43.511778 56.76525 15.826199 55.908126 14.597365 C 55.118113 13.228458 35.990141 9.8402294 34.755076 9.8637178 C 33.448392 9.8858677 21.767625 12.028968 21.146066 12.970173 C 20.66017 13.821547 19.742836 39.170862 20.998131 40.336133 z "
       style="font-size:12;fill:url(#linearGradient566);fill-rule:evenodd;stroke:#261933;stroke-width:1.875;stroke-dasharray:none;stroke-opacity:1;"
       id="path677"
       sodipodi:nodetypes="ccccccc" />
    <path
       d="M 22.033583 39.004808 C 21.692554 38.480173 21.525635 15.366189 22.773165 14.745304 C 23.72233 14.347137 43.205746 18.468166 43.54179 18.985116 C 43.846769 19.454338 27.568365 16.046041 25.027959 18.201317 C 22.580839 20.419869 22.333577 39.466346 22.033583 39.004808 z "
       style="font-size:12;opacity:0.7;fill:url(#linearGradient573);fill-rule:evenodd;stroke:none;stroke-width:0.0958748pt;"
       id="path678"
       sodipodi:nodetypes="ccccc" />
    <path
       d="M 44.961858 47.880265 C 44.581138 47.550353 44.413739 19.740684 45.117176 18.803608 C 45.681401 18.00266 54.299819 15.661578 54.69933 16.007791 C 55.039399 16.302607 47.580115 17.711303 46.917521 19.994469 C 44.375101 28.756323 45.320814 48.191287 44.961858 47.880265 z "
       style="font-size:12;opacity:0.7;fill:url(#linearGradient575);fill-rule:evenodd;stroke:none;stroke-width:0.0958748pt;"
       id="path679"
       sodipodi:nodetypes="ccccc" />
    <path
       d="M 24.696135 13.561914 C 24.67159 13.439098 31.242687 11.307597 34.163335 11.34298 C 39.378467 11.406161 49.078741 13.733627 49.103572 13.857686 C 49.12802 13.98012 39.148272 12.755031 33.972064 12.692328 C 31.012491 12.656467 24.720869 13.685688 24.696135 13.561914 z "
       style="font-size:12;opacity:0.7;fill:url(#linearGradient569);fill-rule:evenodd;stroke:none;stroke-width:0.0958748pt;"
       id="path680" />
    <ellipse
       cx="410.204895"
       cy="422.408997"
       rx="11.720139"
       ry="11.720139"
       transform="matrix(0.139457,0.000000,0.000000,0.139457,-6.266341,-18.10593)"
       style="font-size:12;fill:#80ff80;fill-rule:evenodd;stroke:#003f00;stroke-width:6.25;stroke-linecap:round;stroke-linejoin:round;"
       id="path722" />
    <path
       d="M 22.912118 38.451291 C 18.55446 38.64679 8.2111406 46.874614 9.9804795 49.928107 C 10.553985 51.01739 15.962475 55.443043 22.427247 55.424184 C 28.121652 55.407107 34.50135 50.503289 35.197226 48.796602 C 35.661353 47.423394 26.959973 38.269622 22.912118 38.451291 z "
       style="font-size:12;opacity:0.296369;fill-rule:evenodd;stroke-width:12.5;"
       id="path748" />
    <path
       d="M 229.89 398.196 C 188.297 400.062 89.5725 478.595 106.46 507.74 C 111.934 518.137 163.557 560.379 225.262 560.199 C 279.614 560.036 340.507 513.23 347.149 496.94 C 351.579 483.833 268.526 396.462 229.89 398.196 z "
       style="font-size:12;fill:url(#linearGradient578);fill-rule:evenodd;stroke:#261933;stroke-width:19.5567;stroke-dasharray:none;stroke-opacity:1;"
       id="path746"
       transform="matrix(9.587485e-2,0.000000,0.000000,9.587485e-2,0.288696,-5.992872e-2)" />
    <path
       d="M 123.431 496.94 C 123.431 494.276 161.943 436.411 225.262 413.625 C 237.546 409.401 265.377 427.92 265.377 430.596 C 265.377 433.063 237.814 426.077 225.262 429.053 C 166.49 444.162 123.431 499.418 123.431 496.94 z "
       style="font-size:12;opacity:0.7;fill:url(#linearGradient583);fill-rule:evenodd;stroke:none;stroke-width:1pt;"
       id="path747"
       transform="matrix(9.587485e-2,0.000000,0.000000,9.587485e-2,0.288696,-5.992872e-2)" />
    <path
       d="M 5.5924086 46.622814 C 6.0354871 46.916817 7.9182691 47.717692 8.8501214 47.517944 C 9.6297314 47.265791 36.540642 38.477514 37.202847 37.445675 C 37.895516 36.318977 37.001366 14.396695 36.183148 13.652978 C 35.300385 12.842829 6.6255295 9.9530992 5.7438214 9.927175 C 4.9447569 9.8266303 2.9946384 10.515084 2.6182932 10.933731 C 1.8692296 11.758358 4.7667262 46.016937 5.5924086 46.622814 z "
       style="font-size:12;opacity:0.3;fill-rule:evenodd;stroke-width:12.5;"
       id="path839" />
    <path
       d="M 117.088 552.856 C 122.967 556.754 147.933 567.374 160.292 564.727 C 170.633 561.382 527.517 444.834 536.298 431.15 C 545.484 416.208 533.627 125.48 522.776 115.616 C 511.07 104.873 130.789 66.5507 119.097 66.2066 C 108.5 64.8732 82.6385 74.0026 77.6469 79.5547 C 67.7133 90.491 106.138 544.821 117.088 552.856 z "
       transform="matrix(7.113482e-2,0.000000,0.000000,7.113482e-2,-2.859900,5.420796)"
       style="font-size:12;fill:url(#linearGradient637);fill-rule:evenodd;stroke:#261933;stroke-width:26.3584;stroke-dasharray:none;stroke-opacity:1;"
       id="path834" />
    <path
       d="M 153.15 544.967 C 150.08 541.897 113.191 94.291 118.216 81.8086 C 121.299 78.0783 506.174 121.552 509.252 124.63 C 512.183 127.563 152.593 80.6278 137.375 103.22 C 120.855 126.615 156.089 547.906 153.15 544.967 z "
       transform="matrix(7.113482e-2,0.000000,0.000000,7.113482e-2,-2.859900,5.420796)"
       style="font-size:12;opacity:0.7;fill:url(#linearGradient641);fill-rule:evenodd;stroke:none;stroke-width:1.03294pt;"
       id="path835" />
    <path
       d="M 124.978 538.206 C 123.838 536.495 90.535 231.861 88.9163 88.5697 C 88.8192 83.4807 107.913 79.879 109.2 81.8086 C 110.167 83.2596 95.6005 94.7617 95.6779 98.7118 C 97.3555 242.015 126.091 539.876 124.978 538.206 z "
       transform="matrix(7.113482e-2,0.000000,0.000000,7.113482e-2,-2.859900,5.420796)"
       style="font-size:12;opacity:0.699936;fill:url(#linearGradient1522);fill-rule:evenodd;stroke:none;stroke-width:1.03294pt;"
       id="path836" />
    <path
       d="M 160.949 125.664 C 154.875 133.396 172.707 492.866 181.957 499.602 C 191.509 505.794 491.684 409.596 499.173 399.816 C 506.236 391.642 496.576 162.371 491.821 154.026 C 485.701 145.128 167.584 118.27 160.949 125.664 z "
       style="font-size:12;fill-rule:evenodd;stroke:#261933;stroke-width:6.50174;stroke-dasharray:none;stroke-opacity:1;fill:#261933;fill-opacity:1;"
       id="path837"
       transform="matrix(7.113482e-2,0.000000,0.000000,7.113482e-2,-2.859900,5.420796)" />
    <path
       d="M 186.158 479.645 C 183.825 476.771 162.615 145.008 168.303 137.219 C 175.831 128.346 457.975 155.356 460.308 158.227 C 462.528 160.956 204.605 132.16 181.957 154.025 C 166.52 168.95 188.376 482.373 186.158 479.645 z "
       style="font-size:12;opacity:0.699936;fill:url(#linearGradient1527);fill-rule:evenodd;stroke:none;stroke-width:0.962798pt;"
       id="path838"
       transform="matrix(7.113482e-2,0.000000,0.000000,7.113482e-2,-2.859900,5.420796)" />
    <g
       id="g1305"
       style="opacity:0.650000;">
      <path
         d="M 17.272691 27.252745 C 17.079373 26.841056 14.203512 26.431351 13.725357 24.451189 C 13.241459 22.430942 15.836261 19.04623 18.768315 18.646001 C 22.697259 18.07773 28.347052 22.164601 29.009715 24.774806 C 29.751611 27.677994 20.665797 35.158075 17.848149 35.133412 C 15.113523 35.140955 14.168131 32.967056 14.331646 31.367743 C 14.507193 29.785358 17.387213 27.641809 17.272691 27.252745 z M 19.712331 22.661292 C 20.504876 21.733204 22.169508 22.919646 21.817621 23.756714 C 21.397421 24.675809 18.932136 23.574926 19.712331 22.661292 z "
         style="font-size:12;opacity:0.200000;fill:none;fill-rule:evenodd;stroke:url(#linearGradient640);stroke-width:0.537549;stroke-linejoin:round;"
         id="path594"
         transform="translate(0.000000,-0.179946)" />
      <path
         d="M 17.091377 27.225119 C 16.887315 26.790549 13.851613 26.358072 13.346882 24.267853 C 12.83609 22.13532 15.575111 18.562485 18.670129 18.140012 C 22.817444 17.540156 28.781253 21.854176 29.480746 24.609456 C 30.263877 27.674003 20.673073 35.569828 17.69882 35.543794 C 14.812203 35.551756 13.814267 33.257032 13.986869 31.568829 C 14.172173 29.898494 17.212265 27.635807 17.091377 27.225119 z M 19.666613 22.378473 C 20.503208 21.398802 22.26036 22.651186 21.888915 23.534778 C 21.445361 24.504956 18.843055 23.342886 19.666613 22.378473 z "
         style="font-size:12;opacity:0.201783;fill:none;fill-rule:evenodd;stroke:url(#linearGradient640);stroke-width:1.25;stroke-linejoin:round;"
         id="path1293"
         transform="translate(0.000000,-0.179946)" />
      <path
         d="M 17.091377 27.225119 C 16.887315 26.790549 13.851613 26.358072 13.346882 24.267853 C 12.83609 22.13532 15.575111 18.562485 18.670129 18.140012 C 22.817444 17.540156 28.781253 21.854176 29.480746 24.609456 C 30.263877 27.674003 20.673073 35.569828 17.69882 35.543794 C 14.812203 35.551756 13.814267 33.257032 13.986869 31.568829 C 14.172173 29.898494 17.212265 27.635807 17.091377 27.225119 z M 19.666613 22.378473 C 20.503208 21.398802 22.26036 22.651186 21.888915 23.534778 C 21.445361 24.504956 18.843055 23.342886 19.666613 22.378473 z "
         style="font-size:12;opacity:0.15;fill:none;fill-rule:evenodd;stroke:url(#linearGradient640);stroke-width:3.75;stroke-linejoin:round;"
         id="path1294"
         transform="translate(0.000000,-0.179946)" />
      <path
         d="M 17.091377 27.225119 C 16.887315 26.790549 13.851613 26.358072 13.346882 24.267853 C 12.83609 22.13532 15.575111 18.562485 18.670129 18.140012 C 22.817444 17.540156 28.781253 21.854176 29.480746 24.609456 C 30.263877 27.674003 20.673073 35.569828 17.69882 35.543794 C 14.812203 35.551756 13.814267 33.257032 13.986869 31.568829 C 14.172173 29.898494 17.212265 27.635807 17.091377 27.225119 z M 19.666613 22.378473 C 20.503208 21.398802 22.26036 22.651186 21.888915 23.534778 C 21.445361 24.504956 18.843055 23.342886 19.666613 22.378473 z "
         style="font-size:12;opacity:0.05;fill:none;fill-rule:evenodd;stroke:url(#linearGradient640);stroke-width:5;stroke-linejoin:round;"
         id="path1295"
         transform="translate(0.000000,-0.179946)" />
    </g>
  </g>
  <path
     style="font-size:12.000000;opacity:0.29636899;fill-rule:evenodd;stroke-width:18.750000;"
     d="M 15.539947,29.363018 C 12.271243,29.770183 4.6475396,25.662277 5.4418918,18.485368 C 6.6049989,10.775671 16.343604,9.2458297 16.517664,8.6973108 C 17.495054,7.4041861 15.880468,2.0325112 16.747956,2.4817686 C 19.066142,3.6823159 25.978445,11.511024 26.074686,13.186315 C 26.055208,14.849002 18.736395,22.760325 16.517664,23.775757 C 15.550722,24.218292 16.784398,17.538174 16.402523,17.330010 C 15.786481,17.001028 11.838897,16.653253 10.184701,20.437779 C 9.2979365,22.581659 11.724862,27.319050 15.539947,29.363018 z "
     id="path739"
     sodipodi:nodetypes="cccccccsc"
     transform="translate(5.317545,11.46839)" />
  <path
     style="font-size:12.000000;fill:url(#linearGradient3723);fill-rule:evenodd;stroke:#261933;stroke-width:1.0625000;fill-opacity:1.0;"
     d="M 13.810496,27.626336 C 10.767486,28.005388 4.8170220,23.270721 5.5565244,16.589355 C 6.6393265,9.4119881 16.221116,7.8846559 16.383159,7.3740120 C 17.293061,6.1701729 15.789958,1.1693959 16.597551,1.5876333 C 18.755670,2.7052864 25.190701,9.9934471 25.280293,11.553063 C 25.262166,13.100946 18.448696,20.466018 16.383159,21.411337 C 15.482982,21.823315 16.631476,15.604440 16.275965,15.410648 C 15.702455,15.104383 12.027446,14.780620 10.487466,18.303837 C 9.6619303,20.299687 10.258829,25.723496 13.810496,27.626336 z "
     id="path735"
     sodipodi:nodetypes="cccccccsc"
     transform="translate(5.317545,11.46839)" />
  <path
     style="font-size:12.000000;opacity:0.20178296;fill-rule:evenodd;stroke-width:0.96522999pt;"
     d="M 12.309773,26.983405 C 10.151881,23.341504 9.1309703,20.803063 9.8443033,18.625302 C 10.453035,16.766886 15.312869,14.511206 16.490351,14.982028 C 17.456756,15.368446 15.337613,21.544436 16.275965,21.197026 C 18.231862,20.472885 26.541952,11.828532 25.173099,11.767373 C 16.112420,11.260184 9.6221123,12.967854 8.4507733,16.482199 C 6.4388813,22.334418 9.9732223,25.698919 12.309773,26.983405 z "
     id="path737"
     sodipodi:nodetypes="csssssc"
     transform="translate(5.317545,11.46839)" />
  <path
     style="font-size:12.000000;fill:url(#linearGradient3973);fill-rule:evenodd;stroke-width:1.0000000pt;"
     d="M 6.6145423,19.665627 C 6.5102280,19.535282 5.8796658,15.241278 9.0400753,12.240154 C 11.963681,9.5101981 15.389849,9.8392281 17.448250,7.8898727 C 18.270166,7.1115018 17.365015,4.5624237 17.681031,4.0569793 C 17.870335,3.7542090 19.366864,5.2725273 19.500184,5.5723825 C 19.568991,5.7271482 18.388952,5.1453509 18.287417,5.4208420 C 18.035228,6.1051074 19.115004,7.8588914 18.439008,8.4516484 C 16.234682,10.384563 12.952083,10.082616 9.6464553,12.997856 C 6.1749771,16.065675 6.7123560,19.787848 6.6145423,19.665627 z "
     id="path742"
     sodipodi:nodetypes="cssssssss"
     transform="translate(5.317545,11.46839)" />
  <rect
     style="font-size:12.000000;fill:#808080;fill-rule:evenodd;stroke-width:1.0000000pt;"
     id="rect630"
     width="0.0000000"
     height="4.5257583"
     x="62.140923"
     y="-58.160851"
     transform="translate(5.317545,11.46839)" />
  <path
     style="font-size:12.000000;opacity:0.29636899;fill-rule:evenodd;stroke-width:18.750000;"
     d="M 14.289951,26.689473 C 11.021247,27.096638 3.3975436,22.988732 4.1918958,15.811823 C 5.3550029,8.1021264 15.093608,6.5722851 15.267668,6.0237662 C 16.245058,4.7306415 14.630472,-0.64103337 15.497960,-0.19177597 C 17.816146,1.0087713 24.728449,8.8374794 24.824690,10.512770 C 24.805212,12.175457 17.486399,20.086780 15.267668,21.102212 C 14.300726,21.544747 15.534402,14.864629 15.152527,14.656465 C 14.536485,14.327483 10.588901,13.979708 8.9347050,17.764234 C 8.0479405,19.908114 10.474866,24.645505 14.289951,26.689473 z "
     id="path3238"
     sodipodi:nodetypes="cccccccsc"
     transform="matrix(-1.000000,0.000000,0.000000,-1.000000,53.85447,47.28162)" />
  <path
     style="font-size:12.000000;fill:url(#linearGradient3974);fill-rule:evenodd;stroke:#261933;stroke-width:1.0625000;fill-opacity:1.0;"
     d="M 13.810496,27.626336 C 10.767486,28.005388 4.8170220,23.270721 5.5565244,16.589355 C 6.6393265,9.4119881 16.221116,7.8846559 16.383159,7.3740120 C 17.293061,6.1701729 15.789958,1.1693959 16.597551,1.5876333 C 18.755670,2.7052864 25.190701,9.9934471 25.280293,11.553063 C 25.262166,13.100946 18.448696,20.466018 16.383159,21.411337 C 15.482982,21.823315 16.631476,15.604440 16.275965,15.410648 C 15.702455,15.104383 12.027446,14.780620 10.487466,18.303837 C 9.6619303,20.299687 10.258829,25.723496 13.810496,27.626336 z "
     id="path3239"
     sodipodi:nodetypes="cccccccsc"
     transform="matrix(-1.000000,0.000000,0.000000,-1.000000,53.85447,47.28162)" />
  <path
     style="font-size:12.000000;opacity:0.20178296;fill-rule:evenodd;stroke-width:0.96522999pt;"
     d="M 12.041277,26.822193 C 9.8833850,30.843487 0.11851800,15.266359 10.873540,10.096343 C 12.317687,9.4021307 15.312869,8.5531036 16.490351,8.0332339 C 17.456756,7.6065611 15.337613,0.78719065 16.275965,1.1707919 C 18.231862,1.9703699 26.542159,11.519584 25.173099,11.582774 C 16.917909,11.963801 13.500423,11.294571 11.225236,12.552201 C 5.4145560,15.764108 8.8544870,25.152781 12.041277,26.822193 z "
     id="path3240"
     sodipodi:nodetypes="csssssc"
     transform="matrix(-1.000000,0.000000,0.000000,-1.000000,53.85447,47.28162)" />
  <path
     style="font-size:12.000000;fill:url(#linearGradient3975);fill-opacity:1.0000000;fill-rule:evenodd;stroke-width:1.0000000pt;"
     d="M 9.9063227,23.521592 C 9.5083450,22.803693 8.1930550,17.596587 11.056611,15.590470 C 13.570166,13.829552 15.775825,14.098388 16.804990,14.783358 C 17.705001,15.382369 16.766504,18.994040 17.082520,19.450117 C 17.271824,19.723315 18.768353,18.353295 18.901673,18.082727 C 18.970480,17.943078 17.790441,18.468049 17.688906,18.219466 C 17.436717,17.602035 18.258993,14.785014 17.482502,14.410702 C 14.141757,12.800276 11.398095,14.660875 10.673248,15.216787 C 8.7514889,16.690656 8.6830644,21.764478 9.9063227,23.521592 z "
     id="path3241"
     sodipodi:nodetypes="csssssssc"
     transform="matrix(-1.000000,0.000000,0.000000,-1.000000,53.85447,47.28162)" />
  <rect
     style="font-size:12.000000;fill:#808080;fill-rule:evenodd;stroke-width:1.0000000pt;"
     id="rect3242"
     width="0.0000000"
     height="4.5257583"
     x="62.140923"
     y="-58.160851"
     transform="matrix(-1.000000,0.000000,0.000000,-1.000000,53.85447,47.28162)" />
</svg>
