<?xml version="1.0" encoding="UTF-8" standalone="no"?>
<!DOCTYPE svg PUBLIC "-//W3C//DTD SVG 20010904//EN"
"http://www.w3.org/TR/2001/REC-SVG-20010904/DTD/svg10.dtd">
<!-- Created with Inkscape (http://www.inkscape.org/) -->
<svg
   id="svg1"
   sodipodi:version="0.32"
   inkscape:version="0.39"
   width="48.000000pt"
   height="48.000000pt"
   sodipodi:docbase="/home/stefan/new-lila-icons/makzu"
   sodipodi:docname="gnome-blackjack.svg"
   xmlns="http://www.w3.org/2000/svg"
   xmlns:cc="http://web.resource.org/cc/"
   xmlns:inkscape="http://www.inkscape.org/namespaces/inkscape"
   xmlns:sodipodi="http://sodipodi.sourceforge.net/DTD/sodipodi-0.dtd"
   xmlns:rdf="http://www.w3.org/1999/02/22-rdf-syntax-ns#"
   xmlns:dc="http://purl.org/dc/elements/1.1/"
   xmlns:xlink="http://www.w3.org/1999/xlink">
  <defs
     id="defs3">
    <linearGradient
       id="linearGradient1029">
      <stop
         offset="0.0000000"
         style="stop-color:#d9cce6;stop-opacity:1.0000000;"
         id="stop1031" />
      <stop
         offset="1.0000000"
         style="stop-color:#73667f;stop-opacity:1.0000000;"
         id="stop1030" />
    </linearGradient>
    <linearGradient
       id="linearGradient866">
      <stop
         style="stop-color:#ffffff;stop-opacity:1;"
         offset="0.00000000"
         id="stop867" />
      <stop
         style="stop-color:#d9cce6;stop-opacity:1;"
         offset="1.00000000"
         id="stop868" />
    </linearGradient>
    <linearGradient
       xlink:href="#linearGradient866"
       id="linearGradient586"
       x1="-0.00000000"
       y1="0.01562500"
       x2="0.99122804"
       y2="0.98437500" />
    <linearGradient
       id="linearGradient584">
      <stop
         style="stop-color:#ffffff;stop-opacity:1;"
         offset="0.00000000"
         id="stop585" />
      <stop
         style="stop-color:#ffffff;stop-opacity:0;"
         offset="1.00000000"
         id="stop586" />
    </linearGradient>
    <linearGradient
       xlink:href="#linearGradient584"
       id="linearGradient587"
       x1="0.00000000"
       y1="-0.00000000"
       x2="1.00000000"
       y2="1.00000000" />
    <defs
       id="defs1339">
      <linearGradient
         id="linearGradient1340">
        <stop
           style="stop-color:#ffffff;stop-opacity:1;"
           offset="0.00000000"
           id="stop1341" />
        <stop
           style="stop-color:#d9cce6;stop-opacity:1;"
           offset="1.00000000"
           id="stop1342" />
      </linearGradient>
      <linearGradient
         id="linearGradient1343">
        <stop
           style="stop-color:#ffffff;stop-opacity:1;"
           offset="0.00000000"
           id="stop1344" />
        <stop
           style="stop-color:#ffffff;stop-opacity:0;"
           offset="1.00000000"
           id="stop1345" />
      </linearGradient>
      <linearGradient
         id="linearGradient578"
         x1="0.0000000"
         y1="0.50000000"
         x2="1.0000000"
         y2="0.50000000"
         gradientUnits="objectBoundingBox"
         spreadMethod="pad"
         xlink:href="#linearGradient1029" />
      <linearGradient
         xlink:href="#linearGradient584"
         id="linearGradient581"
         x1="0.010948900"
         y1="0.010309280"
         x2="0.68695652"
         y2="0.72656250" />
      <linearGradient
         xlink:href="#linearGradient584"
         id="linearGradient1350"
         x1="0.010948900"
         y1="0.010309280"
         x2="1.0145985"
         y2="0.96907216" />
      <linearGradient
         xlink:href="#linearGradient584"
         id="linearGradient860"
         x1="0.010948900"
         y1="0.010309280"
         x2="0.83277589"
         y2="0.71875000" />
      <linearGradient
         xlink:href="#linearGradient578"
         id="linearGradient861"
         x1="0.0000000"
         y1="0.023255810"
         x2="0.98611110"
         y2="0.97674417" />
      <linearGradient
         xlink:href="#linearGradient578"
         id="linearGradient862"
         x1="-0.0000000"
         y1="0.0077519398"
         x2="1.0000000"
         y2="0.99224806" />
      <linearGradient
         xlink:href="#linearGradient578"
         id="linearGradient869"
         x1="-0.0068493201"
         y1="0.0077519398"
         x2="0.97945207"
         y2="1.0000000" />
    </defs>
    <sodipodi:namedview
       id="namedview1355"
       pagecolor="#ffffff"
       bordercolor="#666666"
       borderopacity="1.0"
       inkscape:pageopacity="0.0"
       inkscape:pageshadow="2"
       inkscape:zoom="15.958944"
       inkscape:cx="12.882328"
       inkscape:cy="12.067810"
       inkscape:window-width="640"
       inkscape:window-height="525"
       inkscape:window-x="204"
       inkscape:window-y="142" />
    <linearGradient
       inkscape:collect="always"
       xlink:href="#linearGradient1029"
       id="linearGradient1653"
       x1="-0.10772681"
       y1="0.17204319"
       x2="0.98081529"
       y2="0.94635761" />
    <sodipodi:namedview
       id="namedview1282"
       inkscape:zoom="6.9918719"
       inkscape:cx="19.282786"
       inkscape:cy="26.231670"
       inkscape:window-width="787"
       inkscape:window-height="557"
       inkscape:window-x="79"
       inkscape:window-y="69" />
    <defs
       id="defs550">
      <linearGradient
         x1="0.0000000"
         y1="0.0000000"
         x2="1.0000000"
         y2="0.0000000"
         id="linearGradient1129"
         gradientUnits="objectBoundingBox"
         spreadMethod="pad">
        <stop
           style="stop-color:#d9cce6;stop-opacity:1;"
           offset="0.00000000"
           id="stop1130" />
        <stop
           style="stop-color:#73667f;stop-opacity:1;"
           offset="1.00000000"
           id="stop1131" />
      </linearGradient>
      <linearGradient
         x1="0.0000000"
         y1="0.0000000"
         x2="1.0000000"
         y2="0.0000000"
         id="linearGradient588"
         gradientUnits="objectBoundingBox"
         spreadMethod="pad">
        <stop
           style="stop-color:#a673f3;stop-opacity:1;"
           offset="0.00000000"
           id="stop589" />
        <stop
           style="stop-color:#4c3f8c;stop-opacity:1;"
           offset="1.00000000"
           id="stop590" />
      </linearGradient>
      <linearGradient
         x1="0.0000000"
         y1="0.0000000"
         x2="1.0000000"
         y2="0.0000000"
         id="linearGradient576"
         gradientUnits="objectBoundingBox"
         spreadMethod="pad">
        <stop
           style="stop-color:#000000;stop-opacity:1;"
           offset="0.00000000"
           id="stop577" />
        <stop
           style="stop-color:#000000;stop-opacity:0;"
           offset="1.00000000"
           id="stop578" />
      </linearGradient>
      <linearGradient
         x1="0.0000000"
         y1="0.0000000"
         x2="1.0000000"
         y2="0.0000000"
         id="linearGradient569"
         gradientUnits="objectBoundingBox"
         spreadMethod="pad">
        <stop
           style="stop-color:#73667f;stop-opacity:1.0000000;"
           offset="0.0000000"
           id="stop570" />
        <stop
           style="stop-color:#f3e6ff;stop-opacity:1.0000000;"
           offset="1.0000000"
           id="stop571" />
      </linearGradient>
      <linearGradient
         x1="0.0000000"
         y1="0.0000000"
         x2="1.0000000"
         y2="0.0000000"
         id="linearGradient564"
         gradientUnits="objectBoundingBox"
         spreadMethod="pad">
        <stop
           style="stop-color:#7f7366;stop-opacity:1;"
           offset="0.00000000"
           id="stop565" />
        <stop
           style="stop-color:#7f7366;stop-opacity:0;"
           offset="1.00000000"
           id="stop566" />
      </linearGradient>
      <linearGradient
         x1="0.0000000"
         y1="0.0000000"
         x2="1.0000000"
         y2="0.0000000"
         id="linearGradient558"
         gradientUnits="objectBoundingBox"
         spreadMethod="pad">
        <stop
           style="stop-color:#ffffff;stop-opacity:1;"
           offset="0.00000000"
           id="stop559" />
        <stop
           style="stop-color:#ffffff;stop-opacity:0;"
           offset="1.00000000"
           id="stop560" />
      </linearGradient>
      <linearGradient
         id="linearGradient561"
         xlink:href="#linearGradient1129"
         x1="-0.013513510"
         y1="-0.0000000"
         x2="0.98648649"
         y2="0.98437500" />
      <linearGradient
         x1="0.49351925"
         y1="0.99222833"
         x2="0.49350709"
         y2="0.015625300"
         id="linearGradient563"
         xlink:href="#linearGradient564"
         gradientUnits="objectBoundingBox"
         spreadMethod="pad" />
      <linearGradient
         x1="0.12337894"
         y1="0.99219656"
         x2="0.82467574"
         y2="3.7999999e-07"
         id="linearGradient572"
         xlink:href="#linearGradient569"
         gradientUnits="objectBoundingBox"
         spreadMethod="pad" />
      <linearGradient
         x1="0.032464620"
         y1="0.98445034"
         x2="0.69480515"
         y2="0.24218844"
         id="linearGradient575"
         xlink:href="#linearGradient564"
         gradientUnits="objectBoundingBox"
         spreadMethod="pad" />
      <radialGradient
         cx="0.48876417"
         cy="0.98437452"
         fx="0.48804680"
         fy="0.96095657"
         r="0.79719150"
         id="radialGradient579"
         xlink:href="#linearGradient576"
         gradientUnits="objectBoundingBox"
         spreadMethod="pad" />
      <linearGradient
         x1="0.57826090"
         y1="0.97656250"
         x2="0.29130435"
         y2="0.51562500"
         id="linearGradient583"
         xlink:href="#linearGradient564"
         gradientUnits="objectBoundingBox"
         spreadMethod="pad" />
      <linearGradient
         x1="0.96277922"
         y1="2.7200001e-06"
         x2="0.0053192200"
         y2="0.98437500"
         id="linearGradient585"
         xlink:href="#linearGradient558"
         gradientUnits="objectBoundingBox"
         spreadMethod="pad" />
      <radialGradient
         cx="0.14615387"
         cy="0.39062509"
         fx="0.14615387"
         fy="0.39062509"
         r="0.52400964"
         id="radialGradient587"
         xlink:href="#linearGradient558"
         gradientUnits="objectBoundingBox"
         spreadMethod="pad" />
      <radialGradient
         cx="0.13076705"
         cy="0.41407111"
         fx="0.13076705"
         fy="0.41407111"
         r="0.75421256"
         id="radialGradient592"
         xlink:href="#linearGradient558"
         gradientUnits="objectBoundingBox"
         spreadMethod="pad" />
      <linearGradient
         xlink:href="#linearGradient558"
         id="linearGradient1132"
         x1="0.013157890"
         y1="0.015625000"
         x2="0.96052629"
         y2="0.96875000" />
      <linearGradient
         xlink:href="#linearGradient1129"
         id="linearGradient1133"
         x1="0.015151520"
         y1="0.0000000"
         x2="0.97727275"
         y2="1.0000000" />
      <linearGradient
         xlink:href="#linearGradient558"
         id="linearGradient1134"
         x1="0.010948900"
         y1="0.020408159"
         x2="0.98905110"
         y2="0.97959185" />
      <linearGradient
         xlink:href="#linearGradient558"
         id="linearGradient1135"
         x1="-0.0000000"
         y1="0.015625000"
         x2="1.0000000"
         y2="0.99218750" />
    </defs>
    <metadata
       id="metadata52">
      <rdf:RDF
         id="RDF53">
        <cc:Work
           rdf:about=""
           id="Work54">
          <dc:format
             id="format55">image/svg+xml</dc:format>
          <dc:type
             id="type57"
             rdf:resource="http://purl.org/dc/dcmitype/StillImage" />
        </cc:Work>
      </rdf:RDF>
    </metadata>
  </defs>
  <sodipodi:namedview
     id="base"
     pagecolor="#ffffff"
     bordercolor="#666666"
     borderopacity="1.0"
     inkscape:pageopacity="0.0"
     inkscape:pageshadow="2"
     inkscape:zoom="10.041667"
     inkscape:cx="24.503153"
     inkscape:cy="24.492715"
     inkscape:window-width="876"
     inkscape:window-height="648"
     inkscape:window-x="122"
     inkscape:window-y="99" />
  <metadata
     id="metadata4">
    <rdf:RDF
       id="RDF5">
      <cc:Work
         rdf:about=""
         id="Work6">
        <dc:format
           id="format7">image/svg+xml</dc:format>
        <dc:type
           id="type9"
           rdf:resource="http://purl.org/dc/dcmitype/StillImage" />
      </cc:Work>
    </rdf:RDF>
  </metadata>
  <path
     d="M 4.7194628,51.112321 C 5.3151948,52.892030 29.983715,60.894506 31.603378,59.551610 C 33.053154,58.336940 43.901152,22.182184 43.174807,20.748287 C 42.419791,19.167451 17.391848,15.229893 16.203877,16.311140 C 14.740555,17.650807 4.0938218,49.070334 4.7194628,51.112321 z "
     style="font-size:12.000000;opacity:0.29999998;fill:#000000;fill-opacity:1.0000000;fill-rule:evenodd;stroke:none;stroke-width:1.8750000;stroke-miterlimit:4.0000000;"
     id="path1107"
     transform="matrix(1.023200,0.000000,0.000000,1.023181,-6.201000e-2,-1.086661)" />
  <path
     d="M 5.6355059,46.694403 C 6.3927889,48.956733 37.750904,59.129316 39.809786,57.422254 C 41.652712,55.878190 55.442464,9.9190071 54.519149,8.0962671 C 53.559388,6.0867414 21.744382,1.0813985 20.234258,2.4558576 C 18.374113,4.1588139 4.8402049,44.098671 5.6355059,46.694403 z "
     style="font-size:12.000000;fill:url(#linearGradient586);fill-rule:evenodd;stroke:#261933;stroke-width:2.3294401;stroke-miterlimit:4.0000000;"
     id="path1336"
     transform="matrix(0.804922,0.000000,0.000000,0.804907,-3.143223,9.253944)" />
  <path
     d="M 17.504851,31.744830 C 17.016320,30.287152 7.5203515,27.789957 6.6872431,20.955026 C 5.8504963,13.983201 15.882690,3.6310235 25.883232,3.4308204 C 39.296424,3.0552232 56.671761,18.980583 57.878543,28.002780 C 59.237187,38.039684 25.813929,59.610516 16.363307,58.428756 C 7.1787670,57.387534 4.8524719,49.719921 6.0252452,44.413889 C 7.2318121,39.169462 17.737567,33.095771 17.504851,31.744830 z "
     style="font-size:12.000000;opacity:0.29636899;fill:#000000;fill-opacity:1.0000000;fill-rule:evenodd;stroke-width:1.0000000pt;"
     id="path581"
     transform="matrix(0.397364,0.209421,-0.209424,0.397356,15.55822,15.80238)" />
  <path
     d="M 17.212734,30.695683 C 16.764866,29.359336 8.0592951,27.069996 7.2955292,20.803970 C 6.5284288,14.412448 15.725594,4.9219332 24.893738,4.7383935 C 37.190482,4.3940614 53.119581,18.993873 54.225916,27.265105 C 55.471472,36.466583 24.830204,56.241966 16.166205,55.158577 C 7.7461430,54.204016 5.6134761,47.174615 6.6886322,42.310233 C 7.7947709,37.502325 17.426077,31.934180 17.212734,30.695683 z "
     style="font-size:12.000000;fill:#bfb8cc;fill-rule:evenodd;stroke:#261e2e;stroke-width:2.7829173;stroke-linecap:round;stroke-linejoin:round;stroke-miterlimit:4.0000000;"
     id="path552"
     transform="matrix(0.397364,0.209421,-0.209424,0.397356,15.55822,15.80238)" />
  <path
     d="M 22.935250,28.230636 C 22.500638,26.933840 12.118076,24.703881 10.548027,20.632907 C 8.8942540,16.614834 16.468578,7.9501724 25.338368,7.2346965 C 35.269953,6.4240814 50.907067,18.488388 52.754169,26.712347 C 54.066381,32.745548 24.140140,51.956229 15.820844,50.349644 C 8.6982588,49.137336 8.4293864,45.318110 9.3872839,42.455642 C 10.650020,38.821183 23.142279,29.432484 22.935250,28.230636 z "
     style="font-size:12.000000;fill:url(#radialGradient592);fill-rule:evenodd;stroke-width:1.0000000pt;"
     id="path557"
     transform="matrix(0.397364,0.209421,-0.209424,0.397356,15.55822,15.80238)" />
  <path
     d="M 23.036437,28.305914 C 22.603299,27.013510 12.255917,24.791109 10.691192,20.733931 C 9.0430209,16.729470 16.591679,8.0941711 25.431412,7.3811207 C 35.329344,6.5732514 50.913466,18.596677 52.754312,26.792769 C 54.062076,32.805525 24.237244,51.951105 15.946140,50.349969 C 8.8476915,49.141765 8.5797284,45.335481 9.5343799,42.482712 C 10.792837,38.860571 23.242766,29.503686 23.036437,28.305914 z "
     style="font-size:12.000000;fill:url(#radialGradient587);fill-rule:evenodd;stroke-width:1.0000000pt;"
     id="path596"
     transform="matrix(0.397364,0.209421,-0.209424,0.397356,15.55822,15.80238)" />
  <path
     d="M 24.259633,15.900731 C 29.067559,11.436396 37.220926,18.804605 34.822577,23.056316 C 32.008512,27.703672 19.526550,20.295664 24.259633,15.900731 z "
     style="font-size:12.000000;fill:url(#linearGradient572);fill-rule:evenodd;stroke-width:1.0000000pt;"
     id="path568"
     transform="matrix(0.397364,0.209421,-0.209424,0.397356,15.55822,15.80238)" />
  <path
     d="M 26.363772,17.435214 C 29.135099,14.861938 33.834765,19.109029 32.452338,21.559752 C 30.830288,24.238523 23.635584,19.968489 26.363772,17.435214 z "
     style="font-size:12.000000;fill:#bfb8cc;fill-opacity:1.0000000;fill-rule:evenodd;stroke-width:1.0000000pt;"
     id="path562"
     transform="matrix(0.397364,0.209421,-0.209424,0.397356,15.55822,15.80238)" />
  <path
     d="M 26.363772,17.435214 C 29.135099,14.861938 33.834765,19.109029 32.452338,21.559752 C 30.830288,24.238523 23.635584,19.968489 26.363772,17.435214 z "
     style="font-size:12.000000;fill:url(#linearGradient563);fill-rule:evenodd;stroke-width:1.0000000pt;"
     id="path567"
     transform="matrix(0.397364,0.209421,-0.209424,0.397356,15.55822,15.80238)" />
  <path
     d="M 32.453754,20.279779 C 32.419438,21.285357 31.789013,22.648528 30.370702,22.367170 C 28.969645,22.138074 26.694030,21.168256 26.027720,19.436493 C 25.832417,18.914250 28.841598,17.466597 29.978523,17.807290 C 30.855237,18.069786 32.499835,19.493864 32.453754,20.279779 z "
     style="font-size:12.000000;fill:url(#radialGradient579);fill-rule:evenodd;stroke-width:1.0000000pt;"
     id="path574"
     sodipodi:nodetypes="ccccc"
     transform="matrix(0.397364,0.209421,-0.209424,0.397356,15.55822,15.80238)" />
  <path
     d="M 9.3937109,20.000657 C 9.7154539,25.363647 15.292265,26.866673 18.510026,29.333645 C 19.770340,29.548088 21.007338,28.441544 20.623314,27.667440 C 16.064764,25.629514 10.975766,23.969209 9.3937109,20.000657 z "
     style="font-size:12.000000;fill:url(#linearGradient575);fill-rule:evenodd;stroke-width:1.0000000pt;"
     id="path580"
     sodipodi:nodetypes="cccc"
     transform="matrix(0.397364,0.209421,-0.209424,0.397356,15.55822,15.80238)" />
  <path
     d="M 8.6395321,47.152524 C 10.099175,51.003481 13.887997,53.177320 17.490409,53.301591 C 26.651969,52.991096 50.533858,36.655596 52.148842,28.891544 C 47.707775,34.233212 29.384846,48.705372 17.117779,50.133945 C 14.012268,50.196083 11.931450,49.792383 8.6395321,47.152524 z "
     style="font-size:12.000000;fill:url(#linearGradient583);fill-rule:evenodd;stroke-width:1.0000000pt;"
     id="path582"
     transform="matrix(0.397364,0.209421,-0.209424,0.397356,15.55822,15.80238)" />
  <path
     d="M 51.653269,26.341355 C 50.326531,24.622828 38.792375,41.027836 17.675350,49.516923 C 36.617551,43.851127 52.618027,27.608676 51.653269,26.341355 z "
     style="font-size:12.000000;opacity:0.80437499;fill:url(#linearGradient585);fill-rule:evenodd;stroke-width:1.0000000pt;"
     id="path584"
     transform="matrix(0.397364,0.209421,-0.209424,0.397356,15.55822,15.80238)" />
  <path
     style="font-size:12.000000;font-style:normal;font-variant:normal;font-weight:normal;font-stretch:normal;fill:#261933;fill-opacity:1.0000000;stroke:none;stroke-width:1.0000000pt;stroke-linecap:butt;stroke-linejoin:miter;stroke-opacity:1.0000000;font-family:Radio Stars;text-anchor:middle;writing-mode:lr;"
     d="M 17.263902,18.453062 L 14.317017,17.978504 L 13.227728,19.166986 C 13.034566,19.378351 12.808738,19.463219 12.550242,19.421591 C 12.343441,19.388289 12.173790,19.288986 12.041291,19.123681 C 11.909978,18.950991 11.860973,18.761247 11.894277,18.554447 C 11.916874,18.414120 11.979498,18.284027 12.082150,18.164167 L 15.391051,14.343916 C 15.818799,13.852092 16.195161,13.632344 16.520136,13.684671 C 16.741701,13.720357 16.927436,13.837405 17.077343,14.035815 C 17.171470,14.157060 17.281470,14.367993 17.407340,14.668614 L 19.338577,19.332720 C 19.398403,19.478746 19.417021,19.621922 19.394431,19.762250 C 19.361120,19.969049 19.251928,20.129529 19.066854,20.243692 C 18.889148,20.359042 18.700593,20.400661 18.501188,20.368549 C 18.242682,20.326921 18.054318,20.179140 17.936097,19.925208 L 17.263902,18.453062 M 15.293736,16.783261 L 16.700708,17.009835 L 16.184735,15.767431 L 15.293736,16.783261"
     id="text1010"
     transform="matrix(1.023200,0.000000,0.000000,1.023181,-6.201000e-2,-1.086661)" />
  <path
     style="font-size:12.000000;font-style:normal;font-variant:normal;font-weight:normal;font-stretch:normal;fill:#261933;fill-opacity:1.0000000;stroke:none;stroke-width:1.0000000pt;stroke-linecap:butt;stroke-linejoin:miter;stroke-opacity:1.0000000;font-family:Radio Stars;text-anchor:middle;writing-mode:lr;"
     d="M 26.619861,49.192018 L 23.713221,48.513203 L 23.156202,47.000334 C 23.057661,46.731492 22.880906,46.567299 22.625940,46.507755 C 22.421964,46.460118 22.227324,46.487642 22.042019,46.590327 C 21.855011,46.700296 21.737690,46.857267 21.690054,47.061243 C 21.657729,47.199654 21.666322,47.343779 21.715833,47.493621 L 23.328193,52.283555 C 23.537397,52.900884 23.802265,53.246979 24.122800,53.321844 C 24.341340,53.372875 24.557595,53.335034 24.771564,53.208321 C 24.904651,53.131848 25.086445,52.978409 25.316947,52.748007 L 28.873162,49.165139 C 28.983909,49.052723 29.055450,48.927311 29.087783,48.788902 C 29.135411,48.584925 29.095258,48.395018 28.967325,48.219181 C 28.846660,48.045040 28.687988,47.935004 28.491305,47.889071 C 28.236329,47.829523 28.005985,47.894802 27.800271,48.084906 L 26.619861,49.192018 M 24.163518,49.989626 L 25.551275,50.313722 L 24.602563,51.267526 L 24.163518,49.989626"
     id="text1690"
     transform="matrix(1.023200,0.000000,0.000000,1.023181,-6.201000e-2,-1.086661)" />
  <path
     d="M 7.7690109,44.575246 C 7.4417459,43.746143 20.445112,5.1967363 21.660781,4.4017465 C 23.180114,3.3648852 47.741168,7.9548761 48.067664,8.7820341 C 48.366924,9.5401491 28.905025,6.0001363 24.575199,9.8730511 C 16.270973,17.092368 8.0675019,45.331457 7.7690109,44.575246 z "
     style="font-size:12.000000;opacity:0.69993597;fill:url(#linearGradient587);fill-rule:evenodd;stroke:none;stroke-width:0.10012100pt;"
     id="path1337"
     transform="matrix(0.804922,0.000000,0.000000,0.804907,-3.143223,9.253944)" />
  <path
     d="M 20.053343,41.258815 C 20.649075,43.038524 45.317595,51.041000 46.937258,49.698104 C 48.387034,48.483434 59.235032,12.328678 58.508687,10.894781 C 57.753671,9.3139454 32.725728,5.3763879 31.537757,6.4576349 C 30.074435,7.7973019 19.427702,39.216828 20.053343,41.258815 z "
     style="font-size:12.000000;opacity:0.29999998;fill:#000000;fill-opacity:1.0000000;fill-rule:evenodd;stroke:none;stroke-width:1.8750000;stroke-miterlimit:4.0000000;"
     id="path1108"
     transform="matrix(1.023200,0.000000,0.000000,1.023181,-6.201000e-2,-1.086661)" />
  <path
     d="M 5.6355059,46.694403 C 6.3927889,48.956733 37.750904,59.129316 39.809786,57.422254 C 41.652712,55.878190 55.442464,9.9190071 54.519149,8.0962671 C 53.559388,6.0867414 21.744382,1.0813985 20.234258,2.4558576 C 18.374113,4.1588139 4.8402049,44.098671 5.6355059,46.694403 z "
     style="font-size:12.000000;fill:url(#linearGradient586);fill-rule:evenodd;stroke:#261933;stroke-width:2.3294401;stroke-miterlimit:4.0000000;"
     id="path634"
     transform="matrix(0.804922,0.000000,0.000000,0.804907,12.54641,-0.827976)" />
  <path
     d="M 13.249998,9.5632160 C 19.844967,8.3714292 24.737516,4.4371841 26.095556,5.5445205 C 26.463067,5.8608373 21.330210,8.7416647 18.201667,9.7785800 C 17.144027,10.129068 12.934591,9.6196090 13.249998,9.5632160 z "
     style="font-size:12.000000;opacity:0.69993597;fill:none;fill-rule:evenodd;stroke:none;stroke-width:1.0000000pt;"
     id="path1356"
     transform="matrix(0.792801,0.304682,-0.304687,0.792786,29.17021,7.289266)" />
  <path
     d="M 26.421230,14.990644 C 24.179846,20.037118 23.285853,20.271364 21.798414,22.007185 C 19.657953,23.900806 18.388542,24.841702 15.921571,26.289767 C 18.189008,24.396145 19.057125,23.511306 20.649845,22.007730 C 22.828452,19.494003 23.916469,19.005947 26.421230,14.990644 z "
     style="font-size:12.000000;fill:url(#linearGradient612);fill-opacity:0.75000000;fill-rule:evenodd;stroke-width:1.0000000pt;"
     id="path620"
     transform="matrix(0.792801,0.304682,-0.304687,0.792786,29.17021,7.289266)" />
  <path
     d="M 37.614535,19.857716 C 37.413794,17.465368 36.161608,15.555328 33.946379,14.541457 C 30.970191,13.574734 28.794875,15.997085 27.943869,19.266065 C 27.057482,25.647828 29.156769,28.660635 32.334818,33.480936 C 38.416666,32.182494 43.154698,30.358879 45.483393,26.107223 C 47.812088,21.855567 47.241786,19.883976 43.784402,18.398064 C 40.858159,17.284124 39.126147,18.106474 37.614535,19.857716 z "
     style="font-size:12.000000;fill:#000000;fill-opacity:0.29999998;fill-rule:evenodd;stroke-width:1.8750000;stroke-opacity:0.24999996;"
     id="path623"
     sodipodi:nodetypes="cccczcc"
     transform="matrix(1.023200,0.000000,0.000000,1.023181,0.201996,-0.506717)" />
  <path
     d="M 14.910045,7.1923681 C 13.432005,4.1374885 10.811177,2.2521994 7.3740717,2.0377535 C 2.9568005,2.2714042 1.3148732,6.5707734 1.8496861,11.315701 C 3.9163118,20.185852 8.2140951,23.096663 14.851875,27.845402 C 22.218360,23.048008 26.537411,20.311321 28.462046,11.448209 C 29.031555,6.7295324 27.626406,2.3450241 22.310920,2.1376246 C 17.884895,2.1516961 16.016540,4.1150843 14.910045,7.1923681 z "
     style="font-size:12.000000;fill:url(#linearGradient1653);fill-rule:evenodd;stroke:#261933;stroke-width:1.7269236;stroke-linecap:round;stroke-linejoin:round;stroke-miterlimit:4.0000000;"
     id="path618"
     transform="matrix(0.675658,0.259662,-0.259667,0.675645,29.95473,9.538309)" />
  <path
     d="M 33.198819,14.024436 C 32.168719,13.696729 30.948188,13.638630 29.780373,14.959250 C 28.410509,16.447767 28.217381,18.225667 28.202526,19.906624 C 28.806198,18.346643 29.783619,16.571281 31.121816,15.609537 C 32.238544,15.142722 33.222434,15.172063 35.680970,16.710079 C 34.987581,15.067540 33.967363,14.458145 33.198819,14.024436 z "
     style="font-size:12.000000;fill:url(#linearGradient581);fill-opacity:0.75000000;fill-rule:evenodd;stroke-width:1.0000000pt;"
     id="path619"
     sodipodi:nodetypes="cccccc"
     transform="matrix(1.023200,0.000000,0.000000,1.023181,0.201996,-0.506717)" />
  <path
     d="M 14.981644,7.6096257 C 14.981644,13.717486 14.887618,21.690603 14.887618,27.798463 C 19.150402,24.753816 20.761489,24.511362 24.262413,20.408513 C 25.894968,18.756235 27.793016,14.402712 28.391620,11.803624 C 28.101388,9.9656950 28.453386,6.2297733 25.877576,3.2779502 C 22.122700,2.0897951 18.377472,0.55794048 14.981644,7.6096257 z "
     style="font-size:12.000000;fill:#261e2e;fill-opacity:0.20000000;fill-rule:evenodd;stroke-width:1.0000000pt;"
     id="path622"
     transform="matrix(0.675658,0.259662,-0.259667,0.675645,29.95473,9.538309)" />
  <path
     d="M 42.712211,17.567905 C 41.682112,17.240198 39.081746,16.995170 37.724130,19.002891 C 40.175779,18.083852 40.685242,18.090985 41.893599,18.143404 C 43.072446,18.384503 43.459053,18.844161 45.070591,20.170667 C 44.377202,18.528129 43.673793,17.885791 42.712211,17.567905 z "
     style="font-size:12.000000;fill:url(#linearGradient860);fill-opacity:0.75000000;fill-rule:evenodd;stroke-width:1.0000000pt;"
     id="path591"
     sodipodi:nodetypes="ccccc"
     transform="matrix(1.023200,0.000000,0.000000,1.023181,0.201996,-0.506717)" />
  <path
     style="font-size:12.000000;font-style:normal;font-variant:normal;font-weight:normal;font-stretch:normal;fill:#261933;fill-opacity:1.0000000;stroke:none;stroke-width:1.0000000pt;stroke-linecap:butt;stroke-linejoin:miter;stroke-opacity:1.0000000;font-family:Radio Stars;text-anchor:start;writing-mode:lr;"
     d="M 35.397243,8.7938385 C 35.292063,9.3035889 34.988344,9.5066522 34.486086,9.4030287 L 28.413923,8.1502423 C 28.174034,8.1007494 28.002087,7.9871196 27.898085,7.8093529 C 27.794080,7.6315871 27.763732,7.4377547 27.807038,7.2278559 C 27.850343,7.0179586 27.954932,6.8519660 28.120802,6.7298775 C 28.286670,6.6077918 28.489550,6.5714945 28.729438,6.6209856 L 34.048206,7.7183335 L 34.892676,3.6253230 C 34.942161,3.3854441 35.055019,3.2172501 35.231250,3.1207402 C 35.409012,3.0167438 35.599100,2.9856229 35.801513,3.0273774 C 36.003909,3.0691417 36.166157,3.1729552 36.288256,3.3388179 C 36.411884,3.4971933 36.448956,3.6963205 36.399472,3.9361995 L 35.397243,8.7938385"
     id="text1842" />
  <path
     d="M 7.7690109,44.575246 C 7.4417459,43.746143 20.445112,5.1967363 21.660781,4.4017465 C 23.180114,3.3648852 47.741168,7.9548761 48.067664,8.7820341 C 48.366924,9.5401491 28.905025,6.0001363 24.575199,9.8730511 C 16.270973,17.092368 8.0675019,45.331457 7.7690109,44.575246 z "
     style="font-size:12.000000;opacity:0.69993597;fill:url(#linearGradient587);fill-rule:evenodd;stroke:none;stroke-width:0.10012100pt;"
     id="path640"
     transform="matrix(0.804922,0.000000,0.000000,0.804907,12.54641,-0.827976)" />
  <path
     style="font-size:12.000000;font-style:normal;font-variant:normal;font-weight:normal;font-stretch:normal;fill:#261933;fill-opacity:1.0000000;stroke:none;stroke-width:1.0000000pt;stroke-linecap:butt;stroke-linejoin:miter;stroke-opacity:1.0000000;font-family:Radio Stars;text-anchor:start;writing-mode:lr;"
     d="M 37.393178,37.210363 C 37.531522,36.720838 37.841851,36.544227 38.324172,36.680528 L 44.155285,38.328357 C 44.385650,38.393456 44.545279,38.516304 44.634172,38.696902 C 44.723066,38.877497 44.739031,39.068580 44.682070,39.270150 C 44.625108,39.471718 44.511492,39.626182 44.341225,39.733544 C 44.170958,39.840901 43.970641,39.862032 43.740277,39.796934 L 38.632653,38.353557 L 37.521894,42.284158 C 37.456801,42.514519 37.334970,42.670549 37.156401,42.752247 C 36.975812,42.841136 36.788329,42.858119 36.593951,42.803196 C 36.399589,42.748263 36.248723,42.635666 36.141356,42.465403 C 36.031970,42.302330 36.009823,42.105614 36.074914,41.875253 L 37.393178,37.210363"
     id="text1845"
     transform="matrix(1.023200,0.000000,0.000000,1.023181,-6.201000e-2,-1.086661)" />
</svg>
