<?xml version="1.0" encoding="UTF-8" standalone="no"?>
<!DOCTYPE svg PUBLIC "-//W3C//DTD SVG 20010904//EN"
"http://www.w3.org/TR/2001/REC-SVG-20010904/DTD/svg10.dtd">
<!-- Created with Inkscape (http://www.inkscape.org/) -->
<svg
   id="svg634"
   sodipodi:version="0.32"
   width="48pt"
   height="48pt"
   xml:space="preserve"
   sodipodi:docbase="/home/dan"
   sodipodi:docname="gnome-settings-theme-mod.svg"
   xmlns="http://www.w3.org/2000/svg"
   xmlns:sodipodi="http://sodipodi.sourceforge.net/DTD/sodipodi-0.dtd"
   xmlns:xml="http://www.w3.org/XML/1998/namespace"
   xmlns:xlink="http://www.w3.org/1999/xlink"
   xmlns:inkscape="http://www.inkscape.org/namespaces/inkscape"
   inkscape:version="0.37">
  <defs
     id="defs636">
    <linearGradient
       id="linearGradient670">
      <stop
         offset="0.00000000"
         style="stop-color:#ffffff;stop-opacity:1;"
         id="stop671" />
      <stop
         offset="1.00000000"
         style="stop-color:#ffffff;stop-opacity:0;"
         id="stop672" />
    </linearGradient>
    <linearGradient
       id="linearGradient725">
      <stop
         offset="0"
         style="stop-color:#d9cce6;stop-opacity:1;"
         id="stop726" />
      <stop
         offset="1"
         style="stop-color:#73667f;stop-opacity:1;"
         id="stop727" />
    </linearGradient>
    <linearGradient
       id="linearGradient796">
      <stop
         offset="0"
         style="stop-color:#dfd8e6;stop-opacity:1;"
         id="stop797" />
      <stop
         offset="1"
         style="stop-color:#79727f;stop-opacity:1;"
         id="stop798" />
    </linearGradient>
    <linearGradient
       id="linearGradient799">
      <stop
         offset="0"
         style="stop-color:#d8e6e6;stop-opacity:1;"
         id="stop800" />
      <stop
         offset="1"
         style="stop-color:#727F7f;stop-opacity:1;"
         id="stop801" />
    </linearGradient>
    <linearGradient
       xlink:href="#linearGradient725"
       id="linearGradient686"
       x1="-0.00000000"
       y1="0.00000000"
       x2="1.00000000"
       y2="0.98101264" />
    <linearGradient
       xlink:href="#linearGradient796"
       id="linearGradient795"
       x1="-1.71303893e-9"
       y1="4.26109592e-9"
       x2="0.99999994"
       y2="4.26109592e-9" />
    <linearGradient
       xlink:href="#linearGradient799"
       id="linearGradient812"
       x1="-1.71303893e-9"
       y1="4.26109592e-9"
       x2="0.99999994"
       y2="4.26109592e-9" />
    <linearGradient
       xlink:href="#linearGradient670"
       id="linearGradient669"
       x1="0.00000000"
       y1="0.00000000"
       x2="0.99156117"
       y2="0.98734176" />
    <linearGradient
       xlink:href="#linearGradient670"
       id="linearGradient674"
       x1="-0.00000000"
       y1="0.00000000"
       x2="0.95238096"
       y2="0.98734176" />
    <linearGradient
       xlink:href="#linearGradient670"
       id="linearGradient676"
       x1="0.00000000"
       y1="-0.00000000"
       x2="1.00558662"
       y2="1.01898730" />
    <linearGradient
       xlink:href="#linearGradient796"
       id="linearGradient743"
       x1="-0.00000000"
       y1="0.00000000"
       x2="1.00000000"
       y2="0.98101264" />
    <linearGradient
       xlink:href="#linearGradient799"
       id="linearGradient767"
       x1="-0.00000000"
       y1="0.00000000"
       x2="1.00000000"
       y2="0.98101264" />
  </defs>
  <sodipodi:namedview
     id="base"
     inkscape:zoom="11.6509521"
     inkscape:cx="24.4525882"
     inkscape:cy="23.5014763"
     inkscape:window-width="761"
     inkscape:window-height="785"
     inkscape:window-x="25"
     inkscape:window-y="55" />
  <g
     id="g768">
    <path
       style="font-size:12;opacity:0.295979;fill-rule:evenodd;stroke-width:1.875;stroke-linejoin:round;"
       d="M 2.2155862 33.190641 C 2.3966782 33.134499 5.1959784 31.358806 6.8156459 30.29759 C 7.6438787 29.764846 9.7250216 28.350662 10.642723 27.578289 C 11.41161 27.034297 11.715425 26.685954 13.329428 25.512373 C 15.016613 24.221649 15.709109 23.770304 17.345102 22.696612 C 18.20576 22.191183 19.036902 22.114127 19.320633 22.001001 C 19.749278 22.03782 20.360144 22.650593 21.752166 23.439691 C 22.682801 23.994567 23.661585 24.567406 25.241263 24.679831 C 27.126369 24.567406 28.005123 23.949532 29.360427 23.119962 C 29.643053 22.937083 30.837488 22.184489 31.507497 22.128347 C 32.192224 22.202899 32.520261 22.412941 32.733204 22.560441 C 33.150966 22.62632 36.349799 24.849088 36.515243 25.067042 C 36.808377 25.216368 41.931723 29.229831 42.241207 29.505215 C 42.585118 29.773519 47.095651 32.604272 47.859331 33.039642 C 47.183205 33.812157 46.545816 34.397238 45.121722 35.895113 C 43.034546 38.131645 42.005219 39.344714 41.285316 40.129319 C 40.008255 40.121032 39.272083 39.570194 38.367749 39.095651 C 36.733024 37.715689 35.661117 36.88619 35.2664 36.864657 C 35.192457 37.213294 35.424429 39.414011 35.91377 43.019185 C 36.886133 50.239333 38.078895 58.796091 37.511747 59.48028 C 35.192457 60.16951 32.075204 60.045897 27.207301 59.995375 C 23.262506 59.952622 19.379415 59.49466 17.592623 59.45404 C 16.115902 59.422708 13.492427 60.207009 13.167332 59.430305 C 12.844752 58.819146 13.165729 56.741058 14.484295 43.43286 C 15.158676 37.151979 15.407414 37.047313 15.288538 36.805016 C 14.282844 37.552812 13.347695 37.90366 12.619069 38.500984 L 11.296903 39.5848 C 10.794475 39.996658 9.7128287 40.157324 9.2785143 40.013161 C 7.9860859 39.584404 6.2757557 36.987895 5.7395799 36.359918 C 4.3291503 34.98946 2.4930848 33.443193 2.2155862 33.190641 z "
       id="path691"
       sodipodi:nodetypes="ccccccccccccccccccscsssscssscc"
       transform="matrix(0.984692,0.000000,0.000000,0.984692,12.74787,-18.55200)" />
    <path
       style="font-size:12;fill:url(#linearGradient767);fill-rule:evenodd;stroke:#000000;stroke-width:1.875;stroke-linejoin:round;"
       d="M 1.1427126 31.423521 C 1.3212506 31.368171 4.0810716 29.617521 5.6778966 28.571271 C 6.4944486 28.046041 8.5462406 26.651801 9.4509986 25.890321 C 10.209043 25.354001 10.508573 25.010571 12.099813 23.853541 C 13.763203 22.581021 14.445933 22.136041 16.058853 21.077491 C 16.907373 20.579191 17.726793 20.503221 18.006523 20.391691 C 18.429123 20.427991 19.031373 21.032121 20.403763 21.810091 C 21.321273 22.357141 22.286253 22.921901 23.843653 23.032741 C 25.702173 22.921901 26.568533 22.312741 27.904723 21.494871 C 28.183363 21.314571 29.360953 20.572591 30.021513 20.517241 C 30.696583 20.590741 31.019993 20.797821 31.229933 20.943241 C 31.641803 21.008191 34.795523 23.199611 34.958633 23.414491 C 35.247633 23.561711 40.298723 27.518571 40.603843 27.790071 C 40.942903 28.054591 45.389823 30.845421 46.142733 31.274651 C 45.476143 32.036271 44.847743 32.613101 43.443733 34.089851 C 41.385993 36.294841 40.371183 37.490801 39.661433 38.264341 C 38.402383 38.256171 37.676593 37.713101 36.785013 37.245251 C 35.173343 35.884751 34.116553 35.066951 33.727403 35.045721 C 33.654503 35.389441 33.883203 37.559121 34.365643 41.113451 C 35.324293 48.231771 36.500233 56.667851 35.941083 57.342391 C 33.654503 58.021901 30.581213 57.900031 25.781963 57.850221 C 21.892803 57.808071 18.064476 57.356568 16.302883 57.316521 C 14.846989 57.285631 12.260513 58.058871 11.940003 57.293121 C 11.621973 56.690581 11.938423 54.641801 13.238393 41.521291 C 13.903263 35.328991 14.148493 35.225801 14.031293 34.986921 C 13.039783 35.724171 12.117823 36.070071 11.399473 36.658971 L 10.095953 37.727501 C 9.6006106 38.133551 8.5342196 38.291951 8.1060306 38.149821 C 6.8318296 37.727111 5.1456206 35.167221 4.6170066 34.548101 C 3.2264686 33.196971 1.4162976 31.672511 1.1427126 31.423521 z "
       id="path692"
       sodipodi:nodetypes="ccccccccccccccccccscsssscssscc"
       transform="matrix(0.984692,0.000000,0.000000,0.984692,12.74787,-18.55200)" />
    <path
       style="font-size:12;fill:none;fill-rule:evenodd;stroke:#000000;stroke-width:1.25;stroke-linecap:round;stroke-linejoin:round;"
       d="M 3.8955267 29.38378 C 4.6285777 29.98918 6.0910847 31.54326 7.9321997 33.49589 C 9.5619947 35.66391 10.817232 37.16316 10.918552 37.19946 "
       id="path693"
       sodipodi:nodetypes="ccc"
       transform="matrix(0.984692,0.000000,0.000000,0.984692,12.74787,-18.55200)" />
    <path
       style="font-size:12;fill:none;fill-rule:evenodd;stroke:#000000;stroke-width:1.25;stroke-linecap:round;stroke-linejoin:round;"
       d="M 36.880956 37.382534 C 37.688156 36.337404 38.031316 35.607514 39.495816 33.675884 C 41.376626 31.680584 41.942846 31.083964 43.456336 29.640284 "
       id="path694"
       sodipodi:nodetypes="ccc"
       transform="matrix(0.984692,0.000000,0.000000,0.984692,12.74787,-18.55200)" />
    <path
       style="font-size:12;fill:none;fill-rule:evenodd;stroke:#000000;stroke-linecap:round;stroke-linejoin:round;"
       d="M 15.879118 22.208232 C 16.053178 22.619682 16.656678 24.381422 16.826438 24.696652 C 17.017468 25.051472 17.471548 25.980662 17.677028 26.292282 C 17.825408 26.507682 18.177978 26.866702 18.489328 27.174432 C 18.596928 27.325182 19.480878 27.924882 19.803628 28.104732 C 20.237308 28.319982 20.716478 28.525782 21.234198 28.656282 C 21.623808 28.754452 23.648088 28.911432 24.032088 28.911512 C 24.639788 28.911582 25.656378 28.694532 25.996138 28.596362 C 26.369308 28.488582 26.931468 28.241462 27.246578 28.104732 C 27.615328 27.934182 27.839088 27.784102 28.135878 27.592552 C 28.403238 27.419982 28.620298 27.253932 28.870528 27.040852 C 29.157228 26.796812 29.450468 26.334352 29.643828 26.075682 C 29.842388 25.835912 30.529418 24.183802 30.707098 23.672302 C 30.853038 23.307952 31.212698 22.212952 31.248368 21.873352 "
       id="path695"
       sodipodi:nodetypes="csssssssssssss"
       transform="matrix(0.984692,0.000000,0.000000,0.984692,12.74787,-18.55200)" />
    <path
       style="font-size:12;fill:none;fill-rule:evenodd;stroke:#000000;stroke-linecap:round;stroke-linejoin:round;"
       d="M 18.450766 20.998103 C 18.450766 21.167833 18.577206 22.157603 18.663386 22.534703 C 18.794136 23.022363 19.248166 23.907283 19.475426 24.268253 C 19.714626 24.617753 20.509506 25.310083 20.848006 25.647203 C 21.212756 25.961303 22.070106 26.234983 22.413916 26.376203 C 22.708686 26.497333 23.304806 26.636983 23.651196 26.671633 C 24.025246 26.663453 24.725846 26.599783 25.062426 26.494403 C 25.503046 26.376133 26.016416 26.108533 26.396396 25.844223 C 26.783866 25.560283 27.334516 25.020283 27.653036 24.583483 C 27.873076 24.255133 28.546886 23.008633 28.580996 22.574083 C 28.629096 22.183103 28.700856 21.632903 28.658286 21.155753 "
       id="path696"
       sodipodi:nodetypes="cssssssssss"
       transform="matrix(0.984692,0.000000,0.000000,0.984692,12.74787,-18.55200)" />
    <path
       style="font-size:12;fill:#ffffff;fill-rule:evenodd;stroke:#000000;stroke-width:0.542811;stroke-linecap:round;stroke-linejoin:round;"
       d="M 24.908243 22.971471 C 24.086703 23.345641 22.351683 22.802191 22.325453 23.042871 L 22.139213 24.752411 L 24.888893 24.843771 C 24.961993 24.496301 24.997883 23.344891 24.908243 22.971471 z "
       id="path697"
       sodipodi:nodetypes="csccc"
       transform="matrix(0.984692,0.000000,0.000000,0.984692,12.74787,-18.55200)" />
    <path
       d="M 20.129453 41.812541 C 20.000423 41.440671 17.492203 40.803581 17.272133 39.059921 C 17.051123 37.281321 19.700993 34.640351 22.342493 34.589271 C 25.885393 34.493451 30.474843 38.556201 30.793613 40.857891 C 31.152463 43.418431 22.324193 48.921431 19.827943 48.619931 C 17.401983 48.354301 16.787513 46.398201 17.097283 45.044591 C 17.415983 43.706661 20.190933 42.157181 20.129453 41.812541 z M 22.766043 38.122481 C 23.564503 37.406401 24.918563 38.588281 24.520243 39.270241 C 24.052913 40.015681 21.980003 38.827421 22.766043 38.122481 z "
       style="font-size:12;fill:none;fill-rule:evenodd;stroke:#000000;stroke-linejoin:round;"
       id="path698"
       transform="matrix(0.984692,0.000000,0.000000,0.984692,12.74787,-18.55200)" />
    <path
       style="font-size:12;fill:url(#linearGradient669);fill-rule:evenodd;stroke-width:1pt;"
       d="M 3.592233 31.558686 C 2.9977623 31.710466 8.3222564 28.81447 10.582524 27.286841 C 13.014813 25.642949 16.684777 22.295644 17.669903 22.044123 C 18.205812 21.907295 16.426873 25.25585 15.145631 26.121793 C 11.734317 28.427371 4.5187979 31.322116 3.592233 31.558686 z "
       id="path699"
       sodipodi:nodetypes="cssss"
       transform="matrix(0.984692,0.000000,0.000000,0.984692,12.74787,-18.55200)" />
    <path
       style="font-size:12;fill:url(#linearGradient674);fill-rule:evenodd;stroke-width:1pt;"
       d="M 13.625496 55.601218 C 13.515935 54.045451 15.040499 38.470547 15.663956 35.431192 C 15.898798 34.28634 16.454118 40.538054 16.200393 43.048596 C 15.774631 47.261396 13.694747 56.584586 13.625496 55.601218 z "
       id="path700"
       sodipodi:nodetypes="csss"
       transform="matrix(0.984692,0.000000,0.000000,0.984692,12.74787,-18.55200)" />
    <path
       style="font-size:12;fill:url(#linearGradient676);fill-rule:evenodd;stroke-width:1pt;"
       d="M 24.244937 27.430706 C 24.170858 27.34428 26.041982 27.711428 28.189846 25.382388 C 28.880364 24.63149 29.407911 22.112563 29.479527 22.196115 C 29.559638 22.289578 29.306815 25.233098 28.4933 25.913433 C 26.451387 27.608645 24.322585 27.521295 24.244937 27.430706 z "
       id="path701"
       sodipodi:nodetypes="cssss"
       transform="matrix(0.984692,0.000000,0.000000,0.984692,12.74787,-18.55200)" />
  </g>
  <g
     id="g744">
    <path
       style="font-size:12;opacity:0.295979;fill-rule:evenodd;stroke-width:1.875;stroke-linejoin:round;"
       d="M 2.2155862 33.190641 C 2.3966782 33.134499 5.1959784 31.358806 6.8156459 30.29759 C 7.6438787 29.764846 9.7250216 28.350662 10.642723 27.578289 C 11.41161 27.034297 11.715425 26.685954 13.329428 25.512373 C 15.016613 24.221649 15.709109 23.770304 17.345102 22.696612 C 18.20576 22.191183 19.036902 22.114127 19.320633 22.001001 C 19.749278 22.03782 20.360144 22.650593 21.752166 23.439691 C 22.682801 23.994567 23.661585 24.567406 25.241263 24.679831 C 27.126369 24.567406 28.005123 23.949532 29.360427 23.119962 C 29.643053 22.937083 30.837488 22.184489 31.507497 22.128347 C 32.192224 22.202899 32.520261 22.412941 32.733204 22.560441 C 33.150966 22.62632 36.349799 24.849088 36.515243 25.067042 C 36.808377 25.216368 41.931723 29.229831 42.241207 29.505215 C 42.585118 29.773519 47.095651 32.604272 47.859331 33.039642 C 47.183205 33.812157 46.545816 34.397238 45.121722 35.895113 C 43.034546 38.131645 42.005219 39.344714 41.285316 40.129319 C 40.008255 40.121032 39.272083 39.570194 38.367749 39.095651 C 36.733024 37.715689 35.661117 36.88619 35.2664 36.864657 C 35.192457 37.213294 35.424429 39.414011 35.91377 43.019185 C 36.886133 50.239333 38.078895 58.796091 37.511747 59.48028 C 35.192457 60.16951 32.075204 60.045897 27.207301 59.995375 C 23.262506 59.952622 19.379415 59.49466 17.592623 59.45404 C 16.115902 59.422708 13.492427 60.207009 13.167332 59.430305 C 12.844752 58.819146 13.165729 56.741058 14.484295 43.43286 C 15.158676 37.151979 15.407414 37.047313 15.288538 36.805016 C 14.282844 37.552812 13.347695 37.90366 12.619069 38.500984 L 11.296903 39.5848 C 10.794475 39.996658 9.7128287 40.157324 9.2785143 40.013161 C 7.9860859 39.584404 6.2757557 36.987895 5.7395799 36.359918 C 4.3291503 34.98946 2.4930848 33.443193 2.2155862 33.190641 z "
       id="path703"
       sodipodi:nodetypes="ccccccccccccccccccscsssscssscc"
       transform="matrix(0.977038,0.000000,0.000000,0.977038,6.756150,-8.491826)" />
    <path
       style="font-size:12;fill:url(#linearGradient743);fill-rule:evenodd;stroke:#000000;stroke-width:1.875;stroke-linejoin:round;"
       d="M 1.1427126 31.423521 C 1.3212506 31.368171 4.0810716 29.617521 5.6778966 28.571271 C 6.4944486 28.046041 8.5462406 26.651801 9.4509986 25.890321 C 10.209043 25.354001 10.508573 25.010571 12.099813 23.853541 C 13.763203 22.581021 14.445933 22.136041 16.058853 21.077491 C 16.907373 20.579191 17.726793 20.503221 18.006523 20.391691 C 18.429123 20.427991 19.031373 21.032121 20.403763 21.810091 C 21.321273 22.357141 22.286253 22.921901 23.843653 23.032741 C 25.702173 22.921901 26.568533 22.312741 27.904723 21.494871 C 28.183363 21.314571 29.360953 20.572591 30.021513 20.517241 C 30.696583 20.590741 31.019993 20.797821 31.229933 20.943241 C 31.641803 21.008191 34.795523 23.199611 34.958633 23.414491 C 35.247633 23.561711 40.298723 27.518571 40.603843 27.790071 C 40.942903 28.054591 45.389823 30.845421 46.142733 31.274651 C 45.476143 32.036271 44.847743 32.613101 43.443733 34.089851 C 41.385993 36.294841 40.371183 37.490801 39.661433 38.264341 C 38.402383 38.256171 37.676593 37.713101 36.785013 37.245251 C 35.173343 35.884751 34.116553 35.066951 33.727403 35.045721 C 33.654503 35.389441 33.883203 37.559121 34.365643 41.113451 C 35.324293 48.231771 36.500233 56.667851 35.941083 57.342391 C 33.654503 58.021901 30.581213 57.900031 25.781963 57.850221 C 21.892803 57.808071 18.064476 57.356568 16.302883 57.316521 C 14.846989 57.285631 12.260513 58.058871 11.940003 57.293121 C 11.621973 56.690581 11.938423 54.641801 13.238393 41.521291 C 13.903263 35.328991 14.148493 35.225801 14.031293 34.986921 C 13.039783 35.724171 12.117823 36.070071 11.399473 36.658971 L 10.095953 37.727501 C 9.6006106 38.133551 8.5342196 38.291951 8.1060306 38.149821 C 6.8318296 37.727111 5.1456206 35.167221 4.6170066 34.548101 C 3.2264686 33.196971 1.4162976 31.672511 1.1427126 31.423521 z "
       id="path704"
       sodipodi:nodetypes="ccccccccccccccccccscsssscssscc"
       transform="matrix(0.977038,0.000000,0.000000,0.977038,6.756150,-8.491826)" />
    <path
       style="font-size:12;fill:none;fill-rule:evenodd;stroke:#000000;stroke-width:1.25;stroke-linecap:round;stroke-linejoin:round;"
       d="M 3.8955267 29.38378 C 4.6285777 29.98918 6.0910847 31.54326 7.9321997 33.49589 C 9.5619947 35.66391 10.817232 37.16316 10.918552 37.19946 "
       id="path705"
       sodipodi:nodetypes="ccc"
       transform="matrix(0.977038,0.000000,0.000000,0.977038,6.756150,-8.491826)" />
    <path
       style="font-size:12;fill:none;fill-rule:evenodd;stroke:#000000;stroke-width:1.25;stroke-linecap:round;stroke-linejoin:round;"
       d="M 36.880956 37.382534 C 37.688156 36.337404 38.031316 35.607514 39.495816 33.675884 C 41.376626 31.680584 41.942846 31.083964 43.456336 29.640284 "
       id="path706"
       sodipodi:nodetypes="ccc"
       transform="matrix(0.977038,0.000000,0.000000,0.977038,6.756150,-8.491826)" />
    <path
       style="font-size:12;fill:none;fill-rule:evenodd;stroke:#000000;stroke-linecap:round;stroke-linejoin:round;"
       d="M 15.879118 22.208232 C 16.053178 22.619682 16.656678 24.381422 16.826438 24.696652 C 17.017468 25.051472 17.471548 25.980662 17.677028 26.292282 C 17.825408 26.507682 18.177978 26.866702 18.489328 27.174432 C 18.596928 27.325182 19.480878 27.924882 19.803628 28.104732 C 20.237308 28.319982 20.716478 28.525782 21.234198 28.656282 C 21.623808 28.754452 23.648088 28.911432 24.032088 28.911512 C 24.639788 28.911582 25.656378 28.694532 25.996138 28.596362 C 26.369308 28.488582 26.931468 28.241462 27.246578 28.104732 C 27.615328 27.934182 27.839088 27.784102 28.135878 27.592552 C 28.403238 27.419982 28.620298 27.253932 28.870528 27.040852 C 29.157228 26.796812 29.450468 26.334352 29.643828 26.075682 C 29.842388 25.835912 30.529418 24.183802 30.707098 23.672302 C 30.853038 23.307952 31.212698 22.212952 31.248368 21.873352 "
       id="path707"
       sodipodi:nodetypes="csssssssssssss"
       transform="matrix(0.977038,0.000000,0.000000,0.977038,6.756150,-8.491826)" />
    <path
       style="font-size:12;fill:none;fill-rule:evenodd;stroke:#000000;stroke-linecap:round;stroke-linejoin:round;"
       d="M 18.450766 20.998103 C 18.450766 21.167833 18.577206 22.157603 18.663386 22.534703 C 18.794136 23.022363 19.248166 23.907283 19.475426 24.268253 C 19.714626 24.617753 20.509506 25.310083 20.848006 25.647203 C 21.212756 25.961303 22.070106 26.234983 22.413916 26.376203 C 22.708686 26.497333 23.304806 26.636983 23.651196 26.671633 C 24.025246 26.663453 24.725846 26.599783 25.062426 26.494403 C 25.503046 26.376133 26.016416 26.108533 26.396396 25.844223 C 26.783866 25.560283 27.334516 25.020283 27.653036 24.583483 C 27.873076 24.255133 28.546886 23.008633 28.580996 22.574083 C 28.629096 22.183103 28.700856 21.632903 28.658286 21.155753 "
       id="path708"
       sodipodi:nodetypes="cssssssssss"
       transform="matrix(0.977038,0.000000,0.000000,0.977038,6.756150,-8.491826)" />
    <path
       style="font-size:12;fill:#ffffff;fill-rule:evenodd;stroke:#000000;stroke-width:0.542811;stroke-linecap:round;stroke-linejoin:round;"
       d="M 24.908243 22.971471 C 24.086703 23.345641 22.351683 22.802191 22.325453 23.042871 L 22.139213 24.752411 L 24.888893 24.843771 C 24.961993 24.496301 24.997883 23.344891 24.908243 22.971471 z "
       id="path709"
       sodipodi:nodetypes="csccc"
       transform="matrix(0.977038,0.000000,0.000000,0.977038,6.756150,-8.491826)" />
    <path
       d="M 20.129453 41.812541 C 20.000423 41.440671 17.492203 40.803581 17.272133 39.059921 C 17.051123 37.281321 19.700993 34.640351 22.342493 34.589271 C 25.885393 34.493451 30.474843 38.556201 30.793613 40.857891 C 31.152463 43.418431 22.324193 48.921431 19.827943 48.619931 C 17.401983 48.354301 16.787513 46.398201 17.097283 45.044591 C 17.415983 43.706661 20.190933 42.157181 20.129453 41.812541 z M 22.766043 38.122481 C 23.564503 37.406401 24.918563 38.588281 24.520243 39.270241 C 24.052913 40.015681 21.980003 38.827421 22.766043 38.122481 z "
       style="font-size:12;fill:none;fill-rule:evenodd;stroke:#000000;stroke-linejoin:round;"
       id="path710"
       transform="matrix(0.977038,0.000000,0.000000,0.977038,6.756150,-8.491826)" />
    <path
       style="font-size:12;fill:url(#linearGradient669);fill-rule:evenodd;stroke-width:1pt;"
       d="M 3.592233 31.558686 C 2.9977623 31.710466 8.3222564 28.81447 10.582524 27.286841 C 13.014813 25.642949 16.684777 22.295644 17.669903 22.044123 C 18.205812 21.907295 16.426873 25.25585 15.145631 26.121793 C 11.734317 28.427371 4.5187979 31.322116 3.592233 31.558686 z "
       id="path711"
       sodipodi:nodetypes="cssss"
       transform="matrix(0.977038,0.000000,0.000000,0.977038,6.756150,-8.491826)" />
    <path
       style="font-size:12;fill:url(#linearGradient674);fill-rule:evenodd;stroke-width:1pt;"
       d="M 13.625496 55.601218 C 13.515935 54.045451 15.040499 38.470547 15.663956 35.431192 C 15.898798 34.28634 16.454118 40.538054 16.200393 43.048596 C 15.774631 47.261396 13.694747 56.584586 13.625496 55.601218 z "
       id="path712"
       sodipodi:nodetypes="csss"
       transform="matrix(0.977038,0.000000,0.000000,0.977038,6.756150,-8.491826)" />
    <path
       style="font-size:12;fill:url(#linearGradient676);fill-rule:evenodd;stroke-width:1pt;"
       d="M 24.244937 27.430706 C 24.170858 27.34428 26.041982 27.711428 28.189846 25.382388 C 28.880364 24.63149 29.407911 22.112563 29.479527 22.196115 C 29.559638 22.289578 29.306815 25.233098 28.4933 25.913433 C 26.451387 27.608645 24.322585 27.521295 24.244937 27.430706 z "
       id="path713"
       sodipodi:nodetypes="cssss"
       transform="matrix(0.977038,0.000000,0.000000,0.977038,6.756150,-8.491826)" />
  </g>
  <g
     id="g678"
     transform="matrix(0.984692,0.000000,0.000000,0.984692,1.749298e-2,0.919071)">
    <path
       style="font-size:12;fill:#000000;fill-rule:evenodd;stroke:none;stroke-width:1.875;stroke-linejoin:round;stroke-dasharray:none;fill-opacity:1;opacity:0.295979;"
       d="M 2.2155862 33.190641 C 2.3966782 33.134499 5.1959784 31.358806 6.8156459 30.29759 C 7.6438787 29.764846 9.7250216 28.350662 10.642723 27.578289 C 11.41161 27.034297 11.715425 26.685954 13.329428 25.512373 C 15.016613 24.221649 15.709109 23.770304 17.345102 22.696612 C 18.20576 22.191183 19.036902 22.114127 19.320633 22.001001 C 19.749278 22.03782 20.360144 22.650593 21.752166 23.439691 C 22.682801 23.994567 23.661585 24.567406 25.241263 24.679831 C 27.126369 24.567406 28.005123 23.949532 29.360427 23.119962 C 29.643053 22.937083 30.837488 22.184489 31.507497 22.128347 C 32.192224 22.202899 32.520261 22.412941 32.733204 22.560441 C 33.150966 22.62632 36.349799 24.849088 36.515243 25.067042 C 36.808377 25.216368 41.931723 29.229831 42.241207 29.505215 C 42.585118 29.773519 47.095651 32.604272 47.859331 33.039642 C 47.183205 33.812157 46.545816 34.397238 45.121722 35.895113 C 43.034546 38.131645 42.005219 39.344714 41.285316 40.129319 C 40.008255 40.121032 39.272083 39.570194 38.367749 39.095651 C 36.733024 37.715689 35.661117 36.88619 35.2664 36.864657 C 35.192457 37.213294 35.424429 39.414011 35.91377 43.019185 C 36.886133 50.239333 38.078895 58.796091 37.511747 59.48028 C 35.192457 60.16951 32.075204 60.045897 27.207301 59.995375 C 23.262506 59.952622 19.379415 59.49466 17.592623 59.45404 C 16.115902 59.422708 13.492427 60.207009 13.167332 59.430305 C 12.844752 58.819146 13.165729 56.741058 14.484295 43.43286 C 15.158676 37.151979 15.407414 37.047313 15.288538 36.805016 C 14.282844 37.552812 13.347695 37.90366 12.619069 38.500984 L 11.296903 39.5848 C 10.794475 39.996658 9.7128287 40.157324 9.2785143 40.013161 C 7.9860859 39.584404 6.2757557 36.987895 5.7395799 36.359918 C 4.3291503 34.98946 2.4930848 33.443193 2.2155862 33.190641 z "
       id="path677"
       sodipodi:nodetypes="ccccccccccccccccccscsssscssscc" />
    <path
       style="font-size:12;fill:url(#linearGradient686);fill-rule:evenodd;stroke:#000000;stroke-width:1.875;stroke-linejoin:round;stroke-dasharray:none;"
       d="M 1.1427126 31.423521 C 1.3212506 31.368171 4.0810716 29.617521 5.6778966 28.571271 C 6.4944486 28.046041 8.5462406 26.651801 9.4509986 25.890321 C 10.209043 25.354001 10.508573 25.010571 12.099813 23.853541 C 13.763203 22.581021 14.445933 22.136041 16.058853 21.077491 C 16.907373 20.579191 17.726793 20.503221 18.006523 20.391691 C 18.429123 20.427991 19.031373 21.032121 20.403763 21.810091 C 21.321273 22.357141 22.286253 22.921901 23.843653 23.032741 C 25.702173 22.921901 26.568533 22.312741 27.904723 21.494871 C 28.183363 21.314571 29.360953 20.572591 30.021513 20.517241 C 30.696583 20.590741 31.019993 20.797821 31.229933 20.943241 C 31.641803 21.008191 34.795523 23.199611 34.958633 23.414491 C 35.247633 23.561711 40.298723 27.518571 40.603843 27.790071 C 40.942903 28.054591 45.389823 30.845421 46.142733 31.274651 C 45.476143 32.036271 44.847743 32.613101 43.443733 34.089851 C 41.385993 36.294841 40.371183 37.490801 39.661433 38.264341 C 38.402383 38.256171 37.676593 37.713101 36.785013 37.245251 C 35.173343 35.884751 34.116553 35.066951 33.727403 35.045721 C 33.654503 35.389441 33.883203 37.559121 34.365643 41.113451 C 35.324293 48.231771 36.500233 56.667851 35.941083 57.342391 C 33.654503 58.021901 30.581213 57.900031 25.781963 57.850221 C 21.892803 57.808071 18.064476 57.356568 16.302883 57.316521 C 14.846989 57.285631 12.260513 58.058871 11.940003 57.293121 C 11.621973 56.690581 11.938423 54.641801 13.238393 41.521291 C 13.903263 35.328991 14.148493 35.225801 14.031293 34.986921 C 13.039783 35.724171 12.117823 36.070071 11.399473 36.658971 L 10.095953 37.727501 C 9.6006106 38.133551 8.5342196 38.291951 8.1060306 38.149821 C 6.8318296 37.727111 5.1456206 35.167221 4.6170066 34.548101 C 3.2264686 33.196971 1.4162976 31.672511 1.1427126 31.423521 z "
       id="path552"
       sodipodi:nodetypes="ccccccccccccccccccscsssscssscc" />
    <path
       style="font-size:12;fill:none;fill-rule:evenodd;stroke:#000000;stroke-width:1.25;stroke-linecap:round;stroke-linejoin:round;stroke-dasharray:none;"
       d="M 3.8955267 29.38378 C 4.6285777 29.98918 6.0910847 31.54326 7.9321997 33.49589 C 9.5619947 35.66391 10.817232 37.16316 10.918552 37.19946 "
       id="path553"
       sodipodi:nodetypes="ccc" />
    <path
       style="font-size:12;fill:none;fill-rule:evenodd;stroke:#000000;stroke-width:1.25;stroke-linecap:round;stroke-linejoin:round;stroke-dasharray:none;"
       d="M 36.880956 37.382534 C 37.688156 36.337404 38.031316 35.607514 39.495816 33.675884 C 41.376626 31.680584 41.942846 31.083964 43.456336 29.640284 "
       id="path554"
       sodipodi:nodetypes="ccc" />
    <path
       style="font-size:12;fill:none;fill-rule:evenodd;stroke:#000000;stroke-width:1;stroke-linecap:round;stroke-linejoin:round;stroke-dasharray:none;"
       d="M 15.879118 22.208232 C 16.053178 22.619682 16.656678 24.381422 16.826438 24.696652 C 17.017468 25.051472 17.471548 25.980662 17.677028 26.292282 C 17.825408 26.507682 18.177978 26.866702 18.489328 27.174432 C 18.596928 27.325182 19.480878 27.924882 19.803628 28.104732 C 20.237308 28.319982 20.716478 28.525782 21.234198 28.656282 C 21.623808 28.754452 23.648088 28.911432 24.032088 28.911512 C 24.639788 28.911582 25.656378 28.694532 25.996138 28.596362 C 26.369308 28.488582 26.931468 28.241462 27.246578 28.104732 C 27.615328 27.934182 27.839088 27.784102 28.135878 27.592552 C 28.403238 27.419982 28.620298 27.253932 28.870528 27.040852 C 29.157228 26.796812 29.450468 26.334352 29.643828 26.075682 C 29.842388 25.835912 30.529418 24.183802 30.707098 23.672302 C 30.853038 23.307952 31.212698 22.212952 31.248368 21.873352 "
       id="path555"
       sodipodi:nodetypes="csssssssssssss" />
    <path
       style="font-size:12;fill:none;fill-rule:evenodd;stroke:#000000;stroke-width:1;stroke-linecap:round;stroke-linejoin:round;stroke-dasharray:none;"
       d="M 18.450766 20.998103 C 18.450766 21.167833 18.577206 22.157603 18.663386 22.534703 C 18.794136 23.022363 19.248166 23.907283 19.475426 24.268253 C 19.714626 24.617753 20.509506 25.310083 20.848006 25.647203 C 21.212756 25.961303 22.070106 26.234983 22.413916 26.376203 C 22.708686 26.497333 23.304806 26.636983 23.651196 26.671633 C 24.025246 26.663453 24.725846 26.599783 25.062426 26.494403 C 25.503046 26.376133 26.016416 26.108533 26.396396 25.844223 C 26.783866 25.560283 27.334516 25.020283 27.653036 24.583483 C 27.873076 24.255133 28.546886 23.008633 28.580996 22.574083 C 28.629096 22.183103 28.700856 21.632903 28.658286 21.155753 "
       id="path556"
       sodipodi:nodetypes="cssssssssss" />
    <path
       style="font-size:12;fill:#ffffff;fill-rule:evenodd;stroke:#000000;stroke-width:0.542811;stroke-linecap:round;stroke-linejoin:round;"
       d="M 24.908243 22.971471 C 24.086703 23.345641 22.351683 22.802191 22.325453 23.042871 L 22.139213 24.752411 L 24.888893 24.843771 C 24.961993 24.496301 24.997883 23.344891 24.908243 22.971471 z "
       id="path557"
       sodipodi:nodetypes="csccc" />
    <path
       d="M 20.129453 41.812541 C 20.000423 41.440671 17.492203 40.803581 17.272133 39.059921 C 17.051123 37.281321 19.700993 34.640351 22.342493 34.589271 C 25.885393 34.493451 30.474843 38.556201 30.793613 40.857891 C 31.152463 43.418431 22.324193 48.921431 19.827943 48.619931 C 17.401983 48.354301 16.787513 46.398201 17.097283 45.044591 C 17.415983 43.706661 20.190933 42.157181 20.129453 41.812541 z M 22.766043 38.122481 C 23.564503 37.406401 24.918563 38.588281 24.520243 39.270241 C 24.052913 40.015681 21.980003 38.827421 22.766043 38.122481 z "
       style="font-size:12;fill:none;fill-rule:evenodd;stroke:#000000;stroke-width:1;stroke-linejoin:round;stroke-dasharray:none;"
       id="path594" />
    <path
       style="fill:url(#linearGradient669);fill-rule:evenodd;stroke:none;stroke-opacity:1;stroke-width:1pt;stroke-linejoin:miter;stroke-linecap:butt;fill-opacity:1;"
       d="M 3.592233 31.558686 C 2.9977623 31.710466 8.3222564 28.81447 10.582524 27.286841 C 13.014813 25.642949 16.684777 22.295644 17.669903 22.044123 C 18.205812 21.907295 16.426873 25.25585 15.145631 26.121793 C 11.734317 28.427371 4.5187979 31.322116 3.592233 31.558686 z "
       id="path668"
       sodipodi:nodetypes="cssss" />
    <path
       style="fill:url(#linearGradient674);fill-rule:evenodd;stroke:none;stroke-opacity:1;stroke-width:1pt;stroke-linejoin:miter;stroke-linecap:butt;fill-opacity:1;"
       d="M 13.625496 55.601218 C 13.515935 54.045451 15.040499 38.470547 15.663956 35.431192 C 15.898798 34.28634 16.454118 40.538054 16.200393 43.048596 C 15.774631 47.261396 13.694747 56.584586 13.625496 55.601218 z "
       id="path673"
       sodipodi:nodetypes="csss" />
    <path
       style="fill:url(#linearGradient676);fill-rule:evenodd;stroke:none;stroke-opacity:1;stroke-width:1pt;stroke-linejoin:miter;stroke-linecap:butt;fill-opacity:1;"
       d="M 24.244937 27.430706 C 24.170858 27.34428 26.041982 27.711428 28.189846 25.382388 C 28.880364 24.63149 29.407911 22.112563 29.479527 22.196115 C 29.559638 22.289578 29.306815 25.233098 28.4933 25.913433 C 26.451387 27.608645 24.322585 27.521295 24.244937 27.430706 z "
       id="path675"
       sodipodi:nodetypes="cssss" />
  </g>
</svg>
