<?xml version="1.0" encoding="UTF-8" standalone="no"?>
<!DOCTYPE svg PUBLIC "-//W3C//DTD SVG 20010904//EN"
"http://www.w3.org/TR/2001/REC-SVG-20010904/DTD/svg10.dtd">
<!-- Created with Inkscape (http://www.inkscape.org/) -->
<svg
   id="svg1"
   sodipodi:version="0.32"
   inkscape:version="0.39"
   width="48pt"
   height="48pt"
   sodipodi:docbase="/home/scaba/files/pre-release/lila-gnome/Lila/scalable/apps"
   sodipodi:docname="gnome-settings-sound.svg"
   xmlns="http://www.w3.org/2000/svg"
   xmlns:cc="http://web.resource.org/cc/"
   xmlns:inkscape="http://www.inkscape.org/namespaces/inkscape"
   xmlns:sodipodi="http://sodipodi.sourceforge.net/DTD/sodipodi-0.dtd"
   xmlns:rdf="http://www.w3.org/1999/02/22-rdf-syntax-ns#"
   xmlns:dc="http://purl.org/dc/elements/1.1/"
   xmlns:xlink="http://www.w3.org/1999/xlink">
  <defs
     id="defs3">
    <linearGradient
       id="linearGradient599">
      <stop
         style="stop-color:#ffffff;stop-opacity:1;"
         offset="0.00000000"
         id="stop600" />
      <stop
         style="stop-color:#d9cce6;stop-opacity:1;"
         offset="1.00000000"
         id="stop601" />
    </linearGradient>
    <linearGradient
       id="linearGradient584">
      <stop
         style="stop-color:#ffffff;stop-opacity:1;"
         offset="0.00000000"
         id="stop585" />
      <stop
         style="stop-color:#ffffff;stop-opacity:0;"
         offset="1.00000000"
         id="stop586" />
    </linearGradient>
    <linearGradient
       id="linearGradient578">
      <stop
         style="stop-color:#d9cce6;stop-opacity:1;"
         offset="0.00000000"
         id="stop579" />
      <stop
         style="stop-color:#73667f;stop-opacity:1;"
         offset="1.00000000"
         id="stop580" />
    </linearGradient>
    <linearGradient
       xlink:href="#linearGradient578"
       id="linearGradient581"
       x1="-0.00000000"
       y1="0.00000000"
       x2="0.97916669"
       y2="0.97656250" />
    <linearGradient
       xlink:href="#linearGradient578"
       id="linearGradient583"
       x1="0.98979592"
       y1="0.99218750"
       x2="0.03061225"
       y2="-0.00000000" />
    <linearGradient
       xlink:href="#linearGradient578"
       id="linearGradient860"
       x1="-0.00000000"
       y1="-0.00000000"
       x2="0.98076922"
       y2="1.00781250" />
    <linearGradient
       xlink:href="#linearGradient599"
       id="linearGradient861"
       x1="0.98979592"
       y1="0.99218750"
       x2="0.03061225"
       y2="0.00000000" />
    <linearGradient
       xlink:href="#linearGradient584"
       id="linearGradient862"
       x1="-0.00000000"
       y1="0.00000000"
       x2="0.97457629"
       y2="0.99218750" />
    <radialGradient
       xlink:href="#linearGradient578"
       id="radialGradient595"
       cx="0.33846155"
       cy="0.34375000"
       r="0.66501766"
       fx="0.33076921"
       fy="0.33593750" />
    <linearGradient
       xlink:href="#linearGradient584"
       id="linearGradient652"
       x1="-0.00000000"
       y1="-0.00000000"
       x2="0.99637681"
       y2="0.96052629" />
    <linearGradient
       xlink:href="#linearGradient599"
       id="linearGradient654" />
    <linearGradient
       xlink:href="#linearGradient599"
       id="linearGradient661" />
    <linearGradient
       xlink:href="#linearGradient584"
       id="linearGradient616"
       x1="-0.00000000"
       y1="-0.00000000"
       x2="0.99637681"
       y2="0.92500001" />
    <linearGradient
       xlink:href="#linearGradient584"
       id="linearGradient618"
       x1="0.00000000"
       y1="-0.00000000"
       x2="1.00000000"
       y2="1.00781250" />
    <linearGradient
       xlink:href="#linearGradient584"
       id="linearGradient620"
       x1="-0.00000000"
       y1="0.00000000"
       x2="1.00000000"
       y2="0.99218750" />
    <linearGradient
       xlink:href="#linearGradient584"
       id="linearGradient633"
       x1="0.00000000"
       y1="0.00000000"
       x2="1.00000000"
       y2="0.00000000" />
  </defs>
  <sodipodi:namedview
     id="base"
     pagecolor="#ffffff"
     bordercolor="#666666"
     borderopacity="1.0"
     inkscape:pageopacity="0.0"
     inkscape:pageshadow="2"
     inkscape:zoom="5.6568543"
     inkscape:cx="27.750230"
     inkscape:cy="25.328791"
     inkscape:window-width="788"
     inkscape:window-height="714"
     inkscape:window-x="385"
     inkscape:window-y="51"
     showborder="true"
     showgrid="false" />
  <g
     id="g650"
     style="font-size:12.000000;opacity:0.29636899;"
     transform="matrix(-0.856641,0.360299,0.407157,0.968053,44.92987,-10.66127)">
    <path
       style="fill-rule:evenodd;stroke-width:1.8750000;"
       d="M 40.181906,49.683924 C 43.741420,46.987630 55.413093,36.819956 56.782923,33.597578 C 58.501012,29.555960 56.258798,19.433555 53.192815,16.716700 C 50.944448,14.724357 36.640091,12.559718 32.521925,12.563247 C 28.414485,12.566766 34.838722,53.731330 40.181906,49.683924 z "
       id="path643"
       sodipodi:nodetypes="cssss" />
    <path
       style="fill-rule:evenodd;stroke-width:1.8750000;"
       d="M 46.995589,33.682468 C 46.995589,44.404983 40.468842,53.107313 32.426956,53.107313 C 24.385071,53.107313 17.858323,44.404983 17.858323,33.682468 C 17.858323,22.959954 24.385071,14.257624 32.426956,14.257624 C 40.468842,14.257624 46.995589,22.959954 46.995589,33.682468 z "
       id="path644"
       transform="matrix(1.373487,0.000000,0.000000,1.373487,-17.61598,-13.82184)" />
  </g>
  <path
     style="font-size:12.000000;fill:url(#linearGradient860);fill-rule:evenodd;stroke:#000000;stroke-width:1.8523394;"
     d="M 28.517288,50.445252 C 24.630871,49.077844 11.408003,43.371137 9.1230194,40.830696 C 6.2571136,37.644386 4.4343735,27.607575 5.9612357,24.139435 C 7.0809237,21.596156 18.002078,15.105951 21.372668,13.815250 C 24.734477,12.527909 34.351191,52.497867 28.517288,50.445252 z "
     id="path637"
     sodipodi:nodetypes="cssss" />
  <path
     style="font-size:12.000000;fill:url(#linearGradient652);fill-rule:evenodd;stroke-width:1.0000000pt;"
     d="M 7.8456118,25.116552 C 7.9528488,24.775773 15.745567,18.201793 19.190991,17.056392 C 20.092316,16.756754 21.002684,20.410181 20.885857,20.781433 C 20.799849,21.054749 19.354729,18.733371 18.582488,18.990099 C 15.007982,20.178412 7.7500137,25.420342 7.8456118,25.116552 z "
     id="path642"
     sodipodi:nodetypes="cssss" />
  <path
     style="font-size:12.000000;fill:url(#linearGradient581);fill-rule:evenodd;stroke:#261933;stroke-width:1.8523394;"
     d="M 16.825045,36.712701 C 22.479352,50.156309 34.309658,58.021411 43.231981,54.268730 C 52.154300,50.516052 54.806602,36.559647 49.152294,23.116038 C 43.497987,9.6724304 31.667680,1.8073295 22.745361,5.5600080 C 13.823038,9.3126876 11.170737,23.269095 16.825045,36.712701 z "
     id="path635" />
  <path
     style="font-size:12.000000;fill:url(#linearGradient583);fill-rule:evenodd;stroke-width:0.37500000;"
     d="M 23.081932,34.081091 C 26.547476,42.320721 33.798308,47.141266 39.266829,44.841238 C 44.735348,42.541207 46.360953,33.987283 42.895410,25.747650 C 39.429866,17.508018 32.179032,12.687472 26.710512,14.987502 C 21.241991,17.287532 19.616389,25.841459 23.081932,34.081091 z "
     id="path636" />
  <path
     style="font-size:12.000000;fill:url(#linearGradient861);fill-rule:evenodd;stroke:#261933;stroke-width:0.47981063;"
     d="M 29.729875,31.285002 C 30.869857,33.995405 33.254997,35.581113 35.053851,34.824523 C 36.852708,34.067934 37.387446,31.254143 36.247465,28.543738 C 35.107483,25.833330 32.722340,24.247628 30.923484,25.004216 C 29.124629,25.760805 28.589892,28.574594 29.729875,31.285002 z "
     id="path638" />
  <path
     style="font-size:12.000000;fill:url(#linearGradient862);fill-rule:evenodd;stroke-width:1.0000000pt;"
     d="M 21.722964,41.450119 C 21.252865,40.992175 12.314784,25.368445 18.419485,12.274774 C 22.373742,4.0053949 33.701472,7.3154469 34.172262,7.7740654 C 34.599921,8.1906661 24.980877,6.0780714 21.114834,14.900430 C 15.395393,28.361104 22.151314,41.867393 21.722964,41.450119 z "
     id="path639"
     sodipodi:nodetypes="cssss" />
  <path
     style="font-size:12.000000;fill:url(#linearGradient862);fill-rule:evenodd;stroke-width:1.0000000pt;"
     d="M 30.923901,32.393666 C 30.829144,32.301358 29.027475,29.152052 30.258014,26.512739 C 31.055078,24.845865 33.338431,25.513078 33.433329,25.605522 C 33.519533,25.689496 31.580604,25.263656 30.801320,27.041996 C 29.648440,29.755290 31.010244,32.477776 30.923901,32.393666 z "
     id="path640"
     sodipodi:nodetypes="cssss" />
  <path
     style="font-size:12.000000;fill:url(#linearGradient862);fill-rule:evenodd;stroke-width:1.0000000pt;"
     d="M 40.070506,23.449431 C 40.350618,23.722300 45.676441,33.031814 42.038907,40.833776 C 39.682733,45.761145 32.933024,43.788827 32.652499,43.515555 C 32.397676,43.267320 38.129254,44.526126 40.432866,39.269261 C 43.840837,31.248617 39.815271,23.200795 40.070506,23.449431 z "
     id="path641"
     sodipodi:nodetypes="cssss" />
  <metadata
     id="metadata1156">
    <rdf:RDF
       id="RDF1157">
      <cc:Work
         rdf:about=""
         id="Work1158">
        <dc:format
           id="format1159">image/svg+xml</dc:format>
        <dc:type
           id="type1161"
           rdf:resource="http://purl.org/dc/dcmitype/StillImage" />
      </cc:Work>
    </rdf:RDF>
  </metadata>
</svg>
