<?xml version="1.0" encoding="UTF-8" standalone="no"?>
<!DOCTYPE svg PUBLIC "-//W3C//DTD SVG 20010904//EN"
"http://www.w3.org/TR/2001/REC-SVG-20010904/DTD/svg10.dtd">
<!-- Created with Inkscape (http://www.inkscape.org/) -->
<svg
   id="svg1"
   sodipodi:version="0.32"
   inkscape:version="0.38"
   width="48.000000pt"
   height="48.000000pt"
   sodipodi:docname="gnumeric.svg"
   sodipodi:docbase="/home/dan/Projects/Lila-icons/scalable/apps"
   xmlns="http://www.w3.org/2000/svg"
   xmlns:inkscape="http://www.inkscape.org/namespaces/inkscape"
   xmlns:sodipodi="http://sodipodi.sourceforge.net/DTD/sodipodi-0.dtd"
   xmlns:xlink="http://www.w3.org/1999/xlink">
  <defs
     id="defs3">
    <linearGradient
       id="linearGradient863">
      <stop
         style="stop-color:#ffffff;stop-opacity:1.0000000;"
         offset="0.0000000"
         id="stop864" />
      <stop
         style="stop-color:#ffffff;stop-opacity:0.0000000;"
         offset="1.0000000"
         id="stop865" />
    </linearGradient>
    <linearGradient
       id="linearGradient997">
      <stop
         style="stop-color:#ffffff;stop-opacity:0.50000000;"
         offset="0.0000000"
         id="stop998" />
      <stop
         style="stop-color:#bfbfbf;stop-opacity:0.0000000;"
         offset="1.0000000"
         id="stop999" />
    </linearGradient>
    <linearGradient
       id="linearGradient947">
      <stop
         style="stop-color:#d9cce6;stop-opacity:1.0000000;"
         offset="0.0000000"
         id="stop948" />
      <stop
         style="stop-color:#73667f;stop-opacity:1.0000000;"
         offset="1.0000000"
         id="stop949" />
    </linearGradient>
    <linearGradient
       id="linearGradient941">
      <stop
         style="stop-color:#d9cce6;stop-opacity:1.0000000;"
         offset="0.0000000"
         id="stop942" />
      <stop
         style="stop-color:#fff;stop-opacity:1;"
         offset="1.0000000"
         id="stop943" />
    </linearGradient>
    <linearGradient
       xlink:href="#linearGradient941"
       id="linearGradient944"
       x1="1.0000000"
       y1="0.98086125"
       x2="-0.015503877"
       y2="0.0078125019" />
    <radialGradient
       xlink:href="#linearGradient941"
       id="radialGradient945"
       cx="0.50000000"
       cy="0.50000000"
       r="0.50000000"
       fx="0.50000000"
       fy="0.50000000" />
    <linearGradient
       xlink:href="#linearGradient947"
       id="linearGradient946"
       x1="0.0095238099"
       y1="-0.0047846888"
       x2="1.0000000"
       y2="1.0047847" />
    <linearGradient
       xlink:href="#linearGradient997"
       id="linearGradient996"
       y2="0.87559807"
       x2="0.87500000"
       y1="0.066985644"
       x1="0.33571428"
       spreadMethod="reflect" />
    <linearGradient
       xlink:href="#linearGradient863"
       id="linearGradient1017"
       x1="-0.41784036"
       y1="-0.32812500"
       x2="0.42723006"
       y2="0.72656250" />
    <linearGradient
       xlink:href="#linearGradient863"
       id="linearGradient867"
       x1="-0.082706764"
       y1="-0.046875000"
       x2="0.57142860"
       y2="0.62500000" />
  </defs>
  <sodipodi:namedview
     id="base"
     pagecolor="#ffffff"
     bordercolor="#666666"
     borderopacity="1.0"
     inkscape:pageopacity="0.0"
     inkscape:pageshadow="2"
     inkscape:zoom="6.4980192"
     inkscape:cx="26.974544"
     inkscape:cy="26.220482"
     inkscape:window-width="569"
     inkscape:window-height="525"
     inkscape:window-x="189"
     inkscape:window-y="60" />
  <path
     style="fill-opacity:0.29999998;fill-rule:evenodd;stroke-width:1.0000000pt;stroke-linecap:round;stroke-linejoin:bevel;"
     d="M 41.610248,29.475411 C 32.543920,29.071641 24.019666,33.445969 21.577944,40.225411 C 21.014486,41.789853 20.917156,43.349260 21.046666,44.881661 C 21.558558,50.938513 27.079589,56.349800 35.391171,58.006661 C 40.588165,59.042649 45.543776,58.564522 50.204450,56.569161 C 57.075828,53.617725 60.642660,48.156150 59.798705,42.475411 C 59.800559,42.465683 59.796876,42.453896 59.798705,42.444161 C 59.813933,42.363123 59.785313,42.275498 59.798705,42.194161 C 59.687249,41.556533 59.553213,40.926741 59.329931,40.287911 C 59.323015,40.268124 59.337061,40.245209 59.329931,40.225411 L 59.298679,40.225411 C 59.233365,40.075992 59.140901,39.939495 59.079918,39.787911 C 57.099052,34.864144 52.254746,31.287347 45.516704,29.944161 C 44.214898,29.684654 42.905437,29.533092 41.610248,29.475411 z "
     id="path1054" />
  <rect
     style="fill:#000000;fill-opacity:0.29999998;fill-rule:evenodd;stroke-width:1.0000000pt;"
     id="rect1016"
     width="45.625000"
     height="45.625000"
     x="5.5141093"
     y="7.3168764"
     sodipodi:fill-cmyk="(0.0000000 0.0000000 0.0000000 1.0000000)" />
  <rect
     style="fill:url(#linearGradient944);fill-rule:evenodd;stroke:#261933;stroke-width:1.8750000;"
     id="rect920"
     width="45.625000"
     height="45.625000"
     x="3.1250000"
     y="5.3125001"
     transform="translate(-1.154198,-1.538930)" />
  <rect
     style="fill:url(#linearGradient946);fill-rule:evenodd;stroke:#261933;stroke-width:1.8750000;"
     id="rect922"
     width="37.716667"
     height="37.716667"
     x="7.0791669"
     y="9.2666665"
     transform="translate(-1.154198,-1.538930)" />
  <rect
     style="fill:#ded5ff;fill-rule:evenodd;stroke:#261933;stroke-width:1.8750000;"
     id="small box"
     width="31.025000"
     height="31.010773"
     x="13.862500"
     y="16.057114"
     sodipodi:fill-cmyk="(0.13000000 0.16666663 0.0000000 0.0000000)"
     transform="translate(-1.154198,-1.538930)" />
  <g
     id="grid"
     transform="translate(-1.154198,-1.538929)"
     style="stroke:#261933;stroke-width:1.8750000;">
    <path
       style="fill:none;fill-opacity:0.75000000;fill-rule:evenodd;stroke:#261933;stroke-width:1.8750000;stroke-opacity:1.0000000;stroke-dasharray:none;"
       d="M 7.5051230,22.187500 L 44.682377,22.187500 L 44.682377,22.187500"
       id="path924"
       sodipodi:nodetypes="ccc" />
    <path
       style="fill:none;fill-opacity:0.75000000;fill-rule:evenodd;stroke:#261933;stroke-width:1.8750000;stroke-opacity:1.0000000;stroke-dasharray:none;"
       d="M 7.5051230,29.274114 L 44.682377,29.274114 L 44.682377,29.274114"
       id="path925"
       sodipodi:nodetypes="ccc" />
    <path
       style="fill:none;fill-opacity:0.75000000;fill-rule:evenodd;stroke:#261933;stroke-width:1.8750000;stroke-opacity:1.0000000;stroke-dasharray:none;"
       d="M 7.5051230,36.360728 L 44.682377,36.360728 L 44.682377,36.360728"
       id="path926"
       sodipodi:nodetypes="ccc" />
    <path
       style="fill:none;fill-opacity:0.75000000;fill-rule:evenodd;stroke:#261933;stroke-width:1.8750000;stroke-opacity:1.0000000;stroke-dasharray:none;"
       d="M 7.5051230,43.447342 L 44.682377,43.447342 L 44.682377,43.447342"
       id="path927"
       sodipodi:nodetypes="ccc" />
    <path
       style="fill:none;fill-opacity:0.75000000;fill-rule:evenodd;stroke:#261933;stroke-width:1.8750000;stroke-opacity:1.0000000;stroke-dasharray:none;"
       d="M 7.5051230,15.972442 L 44.682377,15.972442 L 44.682377,15.972442"
       id="path928"
       sodipodi:nodetypes="ccc" />
    <path
       style="fill:none;fill-opacity:0.75000000;fill-rule:evenodd;stroke:#261933;stroke-width:1.8750000;stroke-opacity:1.0000000;stroke-dasharray:none;"
       d="M 14.090057,5.3476605 L 14.090057,47.363951 L 14.090057,47.363951"
       id="path929"
       sodipodi:nodetypes="ccc" />
    <path
       style="fill:none;fill-opacity:0.75000000;fill-rule:evenodd;stroke:#261933;stroke-width:1.8750000;stroke-opacity:1.0000000;stroke-dasharray:none;"
       d="M 24.719978,5.3476608 L 24.719978,47.363951 L 24.719978,47.363951"
       id="path930"
       sodipodi:nodetypes="ccc" />
    <path
       style="fill:none;fill-opacity:0.75000000;fill-rule:evenodd;stroke:#261933;stroke-width:1.8750000;stroke-opacity:1.0000000;stroke-dasharray:none;"
       d="M 35.349899,5.3476605 L 35.349899,47.363951 L 35.349899,47.363951"
       id="path931"
       sodipodi:nodetypes="ccc" />
  </g>
  <g
     id="g893"
     transform="translate(-35.43307,0.000000)">
    <path
       style="fill:#9d6fb3;fill-rule:evenodd;stroke-width:1.0000000pt;stroke-linecap:round;stroke-linejoin:bevel;fill-opacity:1.0000000;"
       d="M 30.375000 21.906250 C 21.309150 21.502480 12.785344 25.876808 10.343750 32.656250 C 9.7803215 34.220692 9.6829968 35.780099 9.8125000 37.312500 C 10.119706 38.021377 10.439335 38.726400 10.875000 39.375000 C 11.454997 40.238474 12.157969 41.036704 12.937500 41.781250 C 13.717031 42.525796 14.584322 43.200697 15.531250 43.812500 C 16.478178 44.424303 17.480311 44.972257 18.562500 45.437500 C 19.644689 45.902743 20.783437 46.288882 21.968750 46.593750 C 23.043494 46.870179 24.178163 47.053750 25.312500 47.187500 L 29.218750 36.406250 L 47.812500 32.781250 C 47.811207 32.593782 47.854949 32.407026 47.843750 32.218750 C 45.862990 27.294983 41.018938 23.718186 34.281250 22.375000 C 32.979514 22.115493 31.670121 21.963931 30.375000 21.906250 z "
       id="path879"
       transform="translate(44.90879,5.547690)" />
    <path
       style="fill:#ff0000;fill-opacity:0.75000000;fill-rule:evenodd;stroke-width:1.0000000pt;stroke-linecap:round;stroke-linejoin:bevel;"
       d="M 47.843750 32.218750 C 47.854949 32.407026 47.811207 32.593782 47.812500 32.781250 L 48.093750 32.718750 C 48.031380 32.542150 47.913442 32.391989 47.843750 32.218750 z "
       id="path880"
       transform="translate(44.90879,5.547690)" />
    <path
       style="fill:#512966;fill-rule:evenodd;stroke-width:1.0000000pt;stroke-linecap:round;stroke-linejoin:bevel;fill-opacity:1.0000000;"
       d="M 25.312500 47.187500 C 24.178163 47.053750 23.043494 46.870179 21.968750 46.593750 C 20.783437 46.288882 19.644689 45.902743 18.562500 45.437500 C 17.480311 44.972257 16.478178 44.424303 15.531250 43.812500 C 14.584322 43.200697 13.717031 42.525796 12.937500 41.781250 C 12.157969 41.036704 11.454997 40.238474 10.875000 39.375000 C 10.439335 38.726400 10.119706 38.021377 9.8125000 37.312500 C 10.324364 43.369352 15.845106 48.780639 24.156250 50.437500 L 25.312500 47.187500 z "
       id="path881"
       transform="translate(44.90879,5.547690)" />
    <path
       style="fill:#7f7f00;fill-rule:evenodd;stroke-width:1.0000000pt;stroke-linecap:round;stroke-linejoin:bevel;fill-opacity:1.0000000;"
       d="M 36.812500 46.187500 C 35.984894 46.448000 35.173907 46.728554 34.281250 46.906250 C 32.979387 47.165404 31.670150 47.317669 30.375000 47.375000 C 29.079850 47.432331 27.787549 47.380676 26.531250 47.250000 C 26.136563 47.208946 25.763768 47.089965 25.375000 47.031250 L 24.156250 50.437500 C 29.363194 51.475526 34.331581 51.005313 39.000000 49.000000 L 36.812500 46.187500 z "
       id="path883"
       transform="translate(44.90879,5.547690)" />
    <path
       style="fill:#cccc00;fill-rule:evenodd;stroke-width:1.0000000pt;stroke-linecap:round;stroke-linejoin:bevel;fill-opacity:1.0000000;"
       d="M 36.812500 46.187500 L 29.218750 36.406250 L 25.375000 47.031250 C 25.763768 47.089965 26.136563 47.208946 26.531250 47.250000 C 27.787549 47.380676 29.079850 47.432331 30.375000 47.375000 C 31.670150 47.317669 32.979387 47.165404 34.281250 46.906250 C 35.173907 46.728554 35.984894 46.448000 36.812500 46.187500 z "
       id="path884"
       transform="translate(44.90879,5.547690)" />
    <path
       style="fill:#237f24;fill-rule:evenodd;stroke-width:1.0000000pt;stroke-linecap:round;stroke-linejoin:bevel;fill-opacity:1.0000000;"
       d="M 48.562500 34.625000 C 48.549108 34.706337 48.577728 34.793962 48.562500 34.875000 C 48.386860 35.809687 48.097268 36.711878 47.687500 37.593750 C 47.277732 38.475622 46.750327 39.319852 46.125000 40.125000 C 45.499673 40.930148 44.759816 41.701735 43.937500 42.406250 C 43.115184 43.110765 42.219484 43.763779 41.218750 44.343750 C 40.218016 44.923721 39.129333 45.412232 37.968750 45.843750 C 37.594870 45.982763 37.170445 46.065534 36.781250 46.187500 L 38.968750 49.000000 C 45.955297 45.998939 49.573342 40.408282 48.562500 34.625000 z "
       id="path886"
       transform="translate(44.90879,5.547690)" />
    <path
       style="fill:#66cc65;fill-rule:evenodd;stroke-width:1.0000000pt;stroke-linecap:round;stroke-linejoin:bevel;fill-opacity:1.0000000;"
       d="M 48.562500 34.625000 C 48.447599 33.967623 48.331089 33.315255 48.093750 32.656250 L 29.218750 36.406250 L 36.781250 46.187500 C 37.170445 46.065534 37.594870 45.982763 37.968750 45.843750 C 39.129333 45.412232 40.218016 44.923721 41.218750 44.343750 C 42.219484 43.763779 43.115184 43.110765 43.937500 42.406250 C 44.759816 41.701735 45.499673 40.930148 46.125000 40.125000 C 46.750327 39.319852 47.277732 38.475622 47.687500 37.593750 C 48.097268 36.711878 48.386860 35.809687 48.562500 34.875000 C 48.577728 34.793962 48.549108 34.706337 48.562500 34.625000 z "
       id="path887"
       transform="translate(44.90879,5.547690)" />
  </g>
  <path
     style="fill:url(#linearGradient996);fill-rule:evenodd;stroke-width:1.8750000;stroke-linecap:round;stroke-linejoin:bevel;stroke:#261933;stroke-opacity:1.0000000;stroke-dasharray:none;"
     d="M 39.845802,27.461070 C 30.779951,27.057300 22.256146,31.431628 19.814552,38.211070 C 19.251124,39.775512 19.153799,41.334919 19.283302,42.867320 C 19.795167,48.924172 25.315908,54.335459 33.627052,55.992320 C 38.823773,57.028308 43.779123,56.550181 48.439552,54.554820 C 55.310568,51.603384 58.877212,46.141809 58.033302,40.461070 C 58.035156,40.451342 58.031473,40.439555 58.033302,40.429820 C 58.048529,40.348782 58.019910,40.261157 58.033302,40.179820 C 57.921852,39.542192 57.787823,38.912400 57.564552,38.273570 C 57.557637,38.253783 57.571682,38.230868 57.564552,38.211070 L 57.533302,38.211070 C 57.467991,38.061651 57.375532,37.925154 57.314552,37.773570 C 55.333791,32.849803 50.489740,29.273006 43.752052,27.929820 C 42.450315,27.670313 41.140923,27.518751 39.845802,27.461070 z "
     id="path995" />
  <path
     style="fill:url(#linearGradient1017);fill-rule:evenodd;stroke:none;stroke-opacity:1;stroke-width:1pt;stroke-linejoin:miter;stroke-linecap:butt;fill-opacity:1;"
     d="M 22.891591,48.481360 C 22.667164,47.904261 18.018312,34.759228 31.355709,30.783658 C 44.885474,26.615721 53.061042,34.438619 53.285469,35.015718 C 53.509896,35.592817 43.731275,30.078315 32.317541,33.861519 C 21.096172,37.452357 23.116018,49.058459 22.891591,48.481360 z "
     id="path862"
     sodipodi:nodetypes="czzzz" />
  <path
     style="fill:url(#linearGradient867);fill-rule:evenodd;stroke:none;stroke-opacity:1;stroke-width:1pt;stroke-linejoin:miter;stroke-linecap:butt;fill-opacity:1;"
     d="M 3.6549600,46.149625 C 2.9060181,45.264512 3.1003231,6.9645600 4.4244252,5.9450658 C 5.6027017,5.1529320 44.465473,5.0697982 45.206084,5.9450658 C 45.876159,6.7369730 11.404477,4.9709875 7.5022862,9.6000261 C 3.5992502,14.195913 4.3167044,46.931687 3.6549600,46.149625 z "
     id="path866"
     sodipodi:nodetypes="cssss" />
</svg>
