<?xml version="1.0" encoding="UTF-8" standalone="no"?>
<!DOCTYPE svg PUBLIC "-//W3C//DTD SVG 20010904//EN"
"http://www.w3.org/TR/2001/REC-SVG-20010904/DTD/svg10.dtd">
<!-- Created with Inkscape (http://www.inkscape.org/) -->
<svg
   id="svg1"
   sodipodi:version="0.32"
   inkscape:version="0.38.1"
   width="48.000000pt"
   height="48.000000pt"
   sodipodi:docname="gnumeric.svg"
   sodipodi:docbase="/home/dan/svg-icons/lila/gnome/scalable/apps"
   xmlns="http://www.w3.org/2000/svg"
   xmlns:inkscape="http://www.inkscape.org/namespaces/inkscape"
   xmlns:sodipodi="http://sodipodi.sourceforge.net/DTD/sodipodi-0.dtd"
   xmlns:xlink="http://www.w3.org/1999/xlink">
  <defs
     id="defs3">
    <linearGradient
       id="linearGradient863">
      <stop
         style="stop-color:#ffffff;stop-opacity:1.0000000;"
         offset="0.0000000"
         id="stop864" />
      <stop
         style="stop-color:#ffffff;stop-opacity:0.0000000;"
         offset="1.0000000"
         id="stop865" />
    </linearGradient>
    <linearGradient
       id="linearGradient997">
      <stop
         style="stop-color:#ffffff;stop-opacity:0.50000000;"
         offset="0.0000000"
         id="stop998" />
      <stop
         style="stop-color:#bfbfbf;stop-opacity:0.0000000;"
         offset="1.0000000"
         id="stop999" />
    </linearGradient>
    <linearGradient
       id="linearGradient947">
      <stop
         style="stop-color:#d9cce6;stop-opacity:1.0000000;"
         offset="0.0000000"
         id="stop948" />
      <stop
         style="stop-color:#73667f;stop-opacity:1.0000000;"
         offset="1.0000000"
         id="stop949" />
    </linearGradient>
    <linearGradient
       id="linearGradient941">
      <stop
         style="stop-color:#d9cce6;stop-opacity:1.0000000;"
         offset="0.0000000"
         id="stop942" />
      <stop
         style="stop-color:#fff;stop-opacity:1;"
         offset="1.0000000"
         id="stop943" />
    </linearGradient>
    <linearGradient
       xlink:href="#linearGradient941"
       id="linearGradient944"
       x1="1.0000000"
       y1="0.98086125"
       x2="-0.015503877"
       y2="0.0078125019" />
    <radialGradient
       xlink:href="#linearGradient941"
       id="radialGradient945"
       cx="0.50000000"
       cy="0.50000000"
       r="0.50000000"
       fx="0.50000000"
       fy="0.50000000" />
    <linearGradient
       xlink:href="#linearGradient947"
       id="linearGradient946"
       x1="-0.45424029"
       y1="-0.26663518"
       x2="1.0731555"
       y2="0.98066658" />
    <linearGradient
       xlink:href="#linearGradient997"
       id="linearGradient996"
       y2="0.87559807"
       x2="0.87500000"
       y1="0.066985644"
       x1="0.33571428"
       spreadMethod="reflect" />
    <linearGradient
       xlink:href="#linearGradient863"
       id="linearGradient1017"
       x1="-0.41784036"
       y1="-0.32812500"
       x2="0.42723006"
       y2="0.72656250" />
    <linearGradient
       xlink:href="#linearGradient863"
       id="linearGradient867"
       x1="-0.082706764"
       y1="-0.046875000"
       x2="0.57142860"
       y2="0.62500000" />
  </defs>
  <sodipodi:namedview
     id="base"
     pagecolor="#ffffff"
     bordercolor="#666666"
     borderopacity="1.0"
     inkscape:pageopacity="0.0"
     inkscape:pageshadow="2"
     inkscape:zoom="4.5947934"
     inkscape:cx="26.974543"
     inkscape:cy="26.220414"
     inkscape:window-width="569"
     inkscape:window-height="525"
     inkscape:window-x="93"
     inkscape:window-y="316" />
  <path
     style="fill-opacity:0.29999998;fill-rule:evenodd;stroke-width:1.0000000pt;stroke-linecap:round;stroke-linejoin:bevel;"
     d="M 43.234199,31.311845 C 34.268977,29.902547 25.311218,33.301991 22.130869,39.767918 C 21.396963,41.260013 21.126856,42.798930 21.085183,44.336229 C 20.920476,50.412442 25.805625,56.404029 33.881458,58.974734 C 38.931043,60.582122 43.909090,60.657945 48.762719,59.193149 C 55.919646,57.024001 60.071604,51.992864 59.864490,46.253512 C 59.867414,46.244050 59.865065,46.231928 59.867964,46.222456 C 59.892109,46.143613 59.873408,46.053349 59.895760,45.974005 C 59.855889,45.327939 59.792708,44.687149 59.641837,44.027455 C 59.637164,44.007021 59.653671,43.985810 59.648787,43.965342 L 59.617729,43.961867 C 59.569433,43.806113 59.492718,43.660182 59.448967,43.502757 C 58.027827,38.389278 53.611241,34.296047 47.064316,32.212026 C 45.799435,31.809387 44.514945,31.513174 43.234199,31.311845 z "
     id="path1054" />
  <rect
     style="fill:#000000;fill-opacity:0.29999998;fill-rule:evenodd;stroke-width:1.0000000pt;"
     id="rect1016"
     width="45.625045"
     height="45.625045"
     x="10.351392"
     y="4.1522187"
     sodipodi:fill-cmyk="(0.0000000 0.0000000 0.0000000 1.0000000)"
     transform="matrix(0.993800,0.111184,-0.111184,0.993800,0.000000,0.000000)" />
  <rect
     style="fill:url(#linearGradient944);fill-rule:evenodd;stroke:#261933;stroke-width:1.8750020;stroke-linecap:round;stroke-linejoin:round;"
     id="rect920"
     width="45.625045"
     height="45.625045"
     x="6.8080803"
     y="0.60890830"
     transform="matrix(0.993800,0.111184,-0.111184,0.993800,0.000000,0.000000)" />
  <rect
     style="fill:url(#linearGradient946);fill-rule:evenodd;stroke:#261933;stroke-width:1.8750020;stroke-linecap:round;stroke-linejoin:round;"
     id="rect922"
     width="37.716704"
     height="37.716704"
     x="10.762252"
     y="4.5630790"
     transform="matrix(0.993800,0.111184,-0.111184,0.993800,0.000000,0.000000)" />
  <rect
     style="fill:#d9cce6;fill-rule:evenodd;stroke:#261933;stroke-width:1.8750020;fill-opacity:1.0000000;"
     id="small box"
     width="31.025031"
     height="31.010804"
     x="17.545591"
     y="11.353534"
     sodipodi:fill-cmyk="(0.055555504 0.11111107 0.0000000 0.10000002)"
     transform="matrix(0.993800,0.111184,-0.111184,0.993800,0.000000,0.000000)" />
  <g
     id="grid"
     transform="matrix(0.993800,0.111184,-0.111184,0.993800,4.183204,-4.264930)"
     style="stroke:#261933;stroke-width:1.8750000;stroke-linejoin:round;stroke-linecap:round;">
    <path
       style="fill:none;fill-opacity:0.75000000;fill-rule:evenodd;stroke:#261933;stroke-width:1.8750000;stroke-opacity:1.0000000;stroke-dasharray:none;stroke-linejoin:round;stroke-linecap:round;"
       d="M 7.5051230,22.187500 L 44.682377,22.187500 L 44.682377,22.187500"
       id="path924"
       sodipodi:nodetypes="ccc" />
    <path
       style="fill:none;fill-opacity:0.75000000;fill-rule:evenodd;stroke:#261933;stroke-width:1.8750000;stroke-opacity:1.0000000;stroke-dasharray:none;stroke-linejoin:round;stroke-linecap:round;"
       d="M 7.5051230,29.274114 L 44.682377,29.274114 L 44.682377,29.274114"
       id="path925"
       sodipodi:nodetypes="ccc" />
    <path
       style="fill:none;fill-opacity:0.75000000;fill-rule:evenodd;stroke:#261933;stroke-width:1.8750000;stroke-opacity:1.0000000;stroke-dasharray:none;stroke-linejoin:round;stroke-linecap:round;"
       d="M 7.5051230,36.360728 L 44.682377,36.360728 L 44.682377,36.360728"
       id="path926"
       sodipodi:nodetypes="ccc" />
    <path
       style="fill:none;fill-opacity:0.75000000;fill-rule:evenodd;stroke:#261933;stroke-width:1.8750000;stroke-opacity:1.0000000;stroke-dasharray:none;stroke-linejoin:round;stroke-linecap:round;"
       d="M 7.5051230,43.447342 L 44.682377,43.447342 L 44.682377,43.447342"
       id="path927"
       sodipodi:nodetypes="ccc" />
    <path
       style="fill:none;fill-opacity:0.75000000;fill-rule:evenodd;stroke:#261933;stroke-width:1.8750000;stroke-opacity:1.0000000;stroke-dasharray:none;stroke-linejoin:round;stroke-linecap:round;"
       d="M 7.5051230,15.972442 L 44.682377,15.972442 L 44.682377,15.972442"
       id="path928"
       sodipodi:nodetypes="ccc" />
    <path
       style="fill:none;fill-opacity:0.75000000;fill-rule:evenodd;stroke:#261933;stroke-width:1.8750000;stroke-opacity:1.0000000;stroke-dasharray:none;stroke-linejoin:round;stroke-linecap:round;"
       d="M 14.090057,5.3476605 L 14.090057,47.363951 L 14.090057,47.363951"
       id="path929"
       sodipodi:nodetypes="ccc" />
    <path
       style="fill:none;fill-opacity:0.75000000;fill-rule:evenodd;stroke:#261933;stroke-width:1.8750000;stroke-opacity:1.0000000;stroke-dasharray:none;stroke-linejoin:round;stroke-linecap:round;"
       d="M 24.719978,5.3476608 L 24.719978,47.363951 L 24.719978,47.363951"
       id="path930"
       sodipodi:nodetypes="ccc" />
    <path
       style="fill:none;fill-opacity:0.75000000;fill-rule:evenodd;stroke:#261933;stroke-width:1.8750000;stroke-opacity:1.0000000;stroke-dasharray:none;stroke-linejoin:round;stroke-linecap:round;"
       d="M 35.349899,5.3476605 L 35.349899,47.363951 L 35.349899,47.363951"
       id="path931"
       sodipodi:nodetypes="ccc" />
  </g>
  <path
     style="fill:#73667f;fill-rule:evenodd;stroke-width:1.0000000pt;stroke-linecap:round;stroke-linejoin:bevel;fill-opacity:1.0000000;"
     d="M 30.375000 21.906250 C 21.309150 21.502480 12.785344 25.876808 10.343750 32.656250 C 9.7803215 34.220692 9.6829968 35.780099 9.8125000 37.312500 C 10.119706 38.021377 10.439335 38.726400 10.875000 39.375000 C 11.454997 40.238474 12.157969 41.036704 12.937500 41.781250 C 13.717031 42.525796 14.584322 43.200697 15.531250 43.812500 C 16.478178 44.424303 17.480311 44.972257 18.562500 45.437500 C 19.644689 45.902743 20.783437 46.288882 21.968750 46.593750 C 23.043494 46.870179 24.178163 47.053750 25.312500 47.187500 L 29.218750 36.406250 L 47.812500 32.781250 C 47.811207 32.593782 47.854949 32.407026 47.843750 32.218750 C 45.862990 27.294983 41.018938 23.718186 34.281250 22.375000 C 32.979514 22.115493 31.670121 21.963931 30.375000 21.906250 z "
     id="path879"
     transform="matrix(0.993800,0.111184,-0.111184,0.993800,13.95930,3.959622)" />
  <path
     style="fill:#ff0000;fill-opacity:0.75000000;fill-rule:evenodd;stroke-width:1.0000000pt;stroke-linecap:round;stroke-linejoin:bevel;"
     d="M 47.843750 32.218750 C 47.854949 32.407026 47.811207 32.593782 47.812500 32.781250 L 48.093750 32.718750 C 48.031380 32.542150 47.913442 32.391989 47.843750 32.218750 z "
     id="path880"
     transform="matrix(0.993800,0.111184,-0.111184,0.993800,13.95930,3.959622)" />
  <path
     style="fill:#512966;fill-rule:evenodd;stroke-width:1.0000000pt;stroke-linecap:round;stroke-linejoin:bevel;"
     d="M 25.312500 47.187500 C 24.178163 47.053750 23.043494 46.870179 21.968750 46.593750 C 20.783437 46.288882 19.644689 45.902743 18.562500 45.437500 C 17.480311 44.972257 16.478178 44.424303 15.531250 43.812500 C 14.584322 43.200697 13.717031 42.525796 12.937500 41.781250 C 12.157969 41.036704 11.454997 40.238474 10.875000 39.375000 C 10.439335 38.726400 10.119706 38.021377 9.8125000 37.312500 C 10.324364 43.369352 15.845106 48.780639 24.156250 50.437500 L 25.312500 47.187500 z "
     id="path881"
     transform="matrix(0.993800,0.111184,-0.111184,0.993800,13.95930,3.959622)" />
  <path
     style="fill:#7f7f00;fill-rule:evenodd;stroke-width:1.0000000pt;stroke-linecap:round;stroke-linejoin:bevel;"
     d="M 36.812500 46.187500 C 35.984894 46.448000 35.173907 46.728554 34.281250 46.906250 C 32.979387 47.165404 31.670150 47.317669 30.375000 47.375000 C 29.079850 47.432331 27.787549 47.380676 26.531250 47.250000 C 26.136563 47.208946 25.763768 47.089965 25.375000 47.031250 L 24.156250 50.437500 C 29.363194 51.475526 34.331581 51.005313 39.000000 49.000000 L 36.812500 46.187500 z "
     id="path883"
     transform="matrix(0.993800,0.111184,-0.111184,0.993800,13.95930,3.959622)" />
  <path
     style="fill:#cccc00;fill-rule:evenodd;stroke-width:1.0000000pt;stroke-linecap:round;stroke-linejoin:bevel;"
     d="M 36.812500 46.187500 L 29.218750 36.406250 L 25.375000 47.031250 C 25.763768 47.089965 26.136563 47.208946 26.531250 47.250000 C 27.787549 47.380676 29.079850 47.432331 30.375000 47.375000 C 31.670150 47.317669 32.979387 47.165404 34.281250 46.906250 C 35.173907 46.728554 35.984894 46.448000 36.812500 46.187500 z "
     id="path884"
     transform="matrix(0.993800,0.111184,-0.111184,0.993800,13.95930,3.959622)" />
  <path
     style="fill:#237f24;fill-rule:evenodd;stroke-width:1.0000000pt;stroke-linecap:round;stroke-linejoin:bevel;"
     d="M 48.562500 34.625000 C 48.549108 34.706337 48.577728 34.793962 48.562500 34.875000 C 48.386860 35.809687 48.097268 36.711878 47.687500 37.593750 C 47.277732 38.475622 46.750327 39.319852 46.125000 40.125000 C 45.499673 40.930148 44.759816 41.701735 43.937500 42.406250 C 43.115184 43.110765 42.219484 43.763779 41.218750 44.343750 C 40.218016 44.923721 39.129333 45.412232 37.968750 45.843750 C 37.594870 45.982763 37.170445 46.065534 36.781250 46.187500 L 38.968750 49.000000 C 45.955297 45.998939 49.573342 40.408282 48.562500 34.625000 z "
     id="path886"
     transform="matrix(0.993800,0.111184,-0.111184,0.993800,13.95930,3.959622)" />
  <path
     style="fill:#66cc65;fill-rule:evenodd;stroke-width:1.0000000pt;stroke-linecap:round;stroke-linejoin:bevel;"
     d="M 48.562500 34.625000 C 48.447599 33.967623 48.331089 33.315255 48.093750 32.656250 L 29.218750 36.406250 L 36.781250 46.187500 C 37.170445 46.065534 37.594870 45.982763 37.968750 45.843750 C 39.129333 45.412232 40.218016 44.923721 41.218750 44.343750 C 42.219484 43.763779 43.115184 43.110765 43.937500 42.406250 C 44.759816 41.701735 45.499673 40.930148 46.125000 40.125000 C 46.750327 39.319852 47.277732 38.475622 47.687500 37.593750 C 48.097268 36.711878 48.386860 35.809687 48.562500 34.875000 C 48.577728 34.793962 48.549108 34.706337 48.562500 34.625000 z "
     id="path887"
     transform="matrix(0.993800,0.111184,-0.111184,0.993800,13.95930,3.959622)" />
  <path
     style="fill:url(#linearGradient996);fill-rule:evenodd;stroke-width:1.8750000;stroke-linecap:round;stroke-linejoin:bevel;stroke:#261933;stroke-opacity:1.0000000;stroke-dasharray:none;"
     d="M 42.082754,29.067139 C 33.118006,27.657894 24.160694,31.057388 20.980472,37.523329 C 20.246595,39.015428 19.976493,40.554345 19.934813,42.091643 C 19.770079,48.167853 24.654941,54.159408 32.730338,56.730063 C 37.779653,58.337422 42.757439,58.413215 47.610825,56.948392 C 54.767392,54.779204 58.919162,49.748047 58.712094,44.008699 C 58.715017,43.999238 58.712668,43.987114 58.715568,43.977643 C 58.739711,43.898801 58.721012,43.808537 58.743365,43.729193 C 58.703499,43.083128 58.640324,42.442339 58.489465,41.782645 C 58.484793,41.762212 58.501299,41.741000 58.496415,41.720533 L 58.465358,41.717058 C 58.417065,41.561303 58.340355,41.415373 58.296608,41.257948 C 56.875572,36.144481 52.459238,32.051279 45.912666,29.967296 C 44.647854,29.564666 43.363431,29.268459 42.082754,29.067139 z "
     id="path995" />
  <path
     style="fill:url(#linearGradient1017);fill-rule:evenodd;stroke:none;stroke-opacity:1;stroke-width:1pt;stroke-linejoin:miter;stroke-linecap:butt;fill-opacity:1;"
     d="M 22.518440,48.118735 C 22.359569,47.520262 19.201060,33.939852 32.897783,31.471839 C 46.807070,28.834040 54.062165,37.517428 54.221037,38.115902 C 54.379908,38.714375 45.275041,32.146836 33.511443,34.637557 C 21.960404,36.958493 22.677312,48.717209 22.518440,48.118735 z "
     id="path862"
     sodipodi:nodetypes="czzzz" />
  <path
     style="fill:url(#linearGradient867);fill-rule:evenodd;stroke:none;stroke-opacity:1;stroke-width:1pt;stroke-linejoin:miter;stroke-linecap:butt;fill-opacity:1;"
     d="M 3.6603323,43.662649 C 3.0144446,42.699754 7.4658937,4.6588717 8.8951377,3.7929178 C 10.154181,3.1367010 48.785239,7.3750081 49.423943,8.3271932 C 50.001815,9.1886921 15.940214,3.6009503 11.547542,7.7674261 C 7.1577152,11.900862 4.2310208,44.513437 3.6603323,43.662649 z "
     id="path866"
     sodipodi:nodetypes="cssss" />
</svg>
