<?xml version="1.0" encoding="UTF-8" standalone="no"?>
<!DOCTYPE svg PUBLIC "-//W3C//DTD SVG 20010904//EN"
"http://www.w3.org/TR/2001/REC-SVG-20010904/DTD/svg10.dtd">
<!-- Created with Inkscape (http://www.inkscape.org/) -->
<svg
   version="1.0"
   x="0"
   y="0"
   width="48pt"
   height="48pt"
   id="svg611"
   sodipodi:version="0.32"
   inkscape:version="0.38.1"
   sodipodi:docname="gok.svg"
   sodipodi:docbase="/home/ed/Desktop/Lila"
   xmlns="http://www.w3.org/2000/svg"
   xmlns:inkscape="http://www.inkscape.org/namespaces/inkscape"
   xmlns:sodipodi="http://sodipodi.sourceforge.net/DTD/sodipodi-0.dtd"
   xmlns:xlink="http://www.w3.org/1999/xlink">
  <sodipodi:namedview
     id="base"
     pagecolor="#ffffff"
     bordercolor="#666666"
     borderopacity="1.0"
     inkscape:pageopacity="0.0"
     inkscape:pageshadow="2"
     inkscape:zoom="11.313708"
     inkscape:cx="31.122452"
     inkscape:cy="21.079062"
     inkscape:window-width="793"
     inkscape:window-height="705"
     inkscape:window-x="681"
     inkscape:window-y="249" />
  <defs
     id="defs613">
    <linearGradient
       id="linearGradient935">
      <stop
         offset="0.0000000"
         style="stop-color:#d9cce6;stop-opacity:1.0000000;"
         id="stop937" />
      <stop
         offset="1.0000000"
         style="stop-color:#73667f;stop-opacity:1.0000000;"
         id="stop936" />
    </linearGradient>
    <linearGradient
       id="linearGradient932">
      <stop
         offset="0.0000000"
         style="stop-color:#ffffff;stop-opacity:1.0000000;"
         id="stop934" />
      <stop
         offset="1.0000000"
         style="stop-color:#ffffff;stop-opacity:0.0000000;"
         id="stop933" />
    </linearGradient>
    <linearGradient
       id="linearGradient929">
      <stop
         offset="0.0000000"
         style="stop-color:#faf8fd;stop-opacity:1.0000000;"
         id="stop931" />
      <stop
         offset="1.0000000"
         style="stop-color:#d9cce6;stop-opacity:1.0000000;"
         id="stop930" />
    </linearGradient>
    <linearGradient
       id="linearGradient1535">
      <stop
         style="stop-color:#ffffff;stop-opacity:1;"
         offset="0"
         id="stop1537" />
      <stop
         style="stop-color:#ffffff;stop-opacity:0;"
         offset="1"
         id="stop1536" />
    </linearGradient>
    <linearGradient
       id="linearGradient1528">
      <stop
         style="stop-color:#d9cce6;stop-opacity:1.0000000;"
         offset="0.0000000"
         id="stop1530" />
      <stop
         style="stop-color:#73667f;stop-opacity:1.0000000;"
         offset="1.0000000"
         id="stop1529" />
    </linearGradient>
    <linearGradient
       id="linearGradient642">
      <stop
         style="stop-color:#ffffff;stop-opacity:1;"
         offset="0"
         id="stop643" />
      <stop
         style="stop-color:#ffffff;stop-opacity:0;"
         offset="1"
         id="stop644" />
    </linearGradient>
    <linearGradient
       id="linearGradient635">
      <stop
         style="stop-color:#ffffff;stop-opacity:1.0000000;"
         offset="0.0000000"
         id="stop636" />
      <stop
         style="stop-color:#d9cce6;stop-opacity:1.0000000;"
         offset="1.0000000"
         id="stop637" />
    </linearGradient>
    <linearGradient
       x1="0.00833333"
       y1="0.00000000"
       x2="0.94166666"
       y2="0.95312500"
       id="linearGradient638"
       xlink:href="#linearGradient1528" />
    <linearGradient
       x1="0.027523"
       y1="0.023438"
       x2="1.000000"
       y2="1.015625"
       id="linearGradient641"
       xlink:href="#linearGradient642" />
    <linearGradient
       x1="-0.000009"
       y1="0.015624"
       x2="0.727272"
       y2="0.984375"
       id="linearGradient1522"
       xlink:href="#linearGradient642" />
    <linearGradient
       x1="0.027523"
       y1="0.007813"
       x2="1.009174"
       y2="0.992188"
       id="linearGradient1527"
       xlink:href="#linearGradient1535" />
    <linearGradient
       id="linearGradient1532"
       xlink:href="#linearGradient635"
       x1="2.0328791e-18"
       y1="0.50000000"
       x2="1.0000000"
       y2="0.50000000" />
    <linearGradient
       id="linearGradient1534"
       xlink:href="#linearGradient1528"
       y2="0.00000000"
       x2="1.00000000"
       y1="0.00000000"
       x1="0.00000000" />
    <linearGradient
       id="linearGradient1539"
       xlink:href="#linearGradient1528"
       y2="-0.00000000"
       x2="1.00000000"
       y1="-0.00000000"
       x1="0.00000000" />
    <linearGradient
       id="linearGradient1567"
       xlink:href="#linearGradient635"
       x1="0.66521740"
       y1="0.21093750"
       x2="0.32608697"
       y2="0.73437500" />
    <defs
       id="defs3">
      <linearGradient
         id="linearGradient656"
         x1="0.0000000"
         y1="0.50000000"
         x2="1.0000000"
         y2="0.50000000"
         gradientUnits="objectBoundingBox"
         spreadMethod="pad"
         xlink:href="#linearGradient935" />
      <linearGradient
         id="linearGradient584"
         x1="0.0000000"
         y1="0.50000000"
         x2="1.0000000"
         y2="0.50000000"
         gradientUnits="objectBoundingBox"
         spreadMethod="pad"
         xlink:href="#linearGradient932" />
      <linearGradient
         id="linearGradient578"
         x1="0.0000000"
         y1="0.50000000"
         x2="1.0000000"
         y2="0.50000000"
         gradientUnits="objectBoundingBox"
         spreadMethod="pad"
         xlink:href="#linearGradient929" />
      <linearGradient
         xlink:href="#linearGradient578"
         id="linearGradient581"
         x1="0.00000000"
         y1="0.00000000"
         x2="0.98941797"
         y2="0.98734176" />
      <linearGradient
         xlink:href="#linearGradient656"
         id="linearGradient583"
         x1="0.00000000"
         y1="-0.00000000"
         x2="1.01003349"
         y2="0.96938777" />
      <linearGradient
         xlink:href="#linearGradient584"
         id="linearGradient654"
         x1="-0.00000000"
         y1="0.00000000"
         x2="1.00000000"
         y2="0.93333334" />
      <linearGradient
         xlink:href="#linearGradient578"
         id="linearGradient655"
         x1="0.00000000"
         y1="-0.00000000"
         x2="0.98757762"
         y2="1.00632906" />
      <linearGradient
         xlink:href="#linearGradient584"
         id="linearGradient713"
         x1="-0.00000000"
         y1="-0.00000000"
         x2="0.98773009"
         y2="0.99367088" />
    </defs>
    <sodipodi:namedview
       id="namedview874"
       pagecolor="#ffffff"
       bordercolor="#666666"
       borderopacity="1.0"
       inkscape:pageopacity="0.0"
       inkscape:pageshadow="2"
       inkscape:zoom="5.64233870"
       inkscape:cx="27.1710079"
       inkscape:cy="23.8130291"
       inkscape:window-width="640"
       inkscape:window-height="525"
       inkscape:window-x="95"
       inkscape:window-y="79"
       showborder="true" />
  </defs>
  <path
     d="M 11.323296 57.160451 C 11.951521 57.577304 14.621051 58.71284 15.942291 58.429631 C 17.047672 58.07211 55.203686 45.61152 56.142616 44.148515 C 57.124721 42.551005 55.856932 11.468189 54.696814 10.413698 C 53.445181 9.265018 12.788123 5.1677725 11.53798 5.1310154 C 10.405014 4.9884573 7.6400123 5.9645902 7.1064044 6.5581759 C 6.0443342 7.7273842 10.152592 56.301396 11.323296 57.160451 z "
     style="font-size:12;opacity:0.3;fill-rule:evenodd;stroke-width:12.5;"
     id="path839" />
  <path
     d="M 10.710824 54.464037 C 11.309499 54.860979 13.851862 55.942451 15.110416 55.672891 C 16.163471 55.332261 52.506055 43.463828 53.400251 42.070343 C 54.335686 40.548752 53.128257 10.943036 52.023269 9.9385553 C 50.831206 8.844563 12.106038 4.9420868 10.915404 4.907046 C 9.8362807 4.7712615 7.2027255 5.7009364 6.6944162 6.2663239 C 5.6828474 7.3800001 9.5957511 53.645804 10.710824 54.464037 z "
     style="font-size:12;fill:url(#linearGradient638);fill-rule:evenodd;stroke:#261933;stroke-width:1.875;stroke-dasharray:none;"
     id="path834" />
  <path
     d="M 14.383126 53.660677 C 14.070498 53.348051 10.313979 7.7669659 10.825691 6.4958449 C 11.139641 6.1159772 50.332629 10.543036 50.646074 10.856477 C 50.944548 11.155154 14.326404 6.3756002 12.77671 8.676233 C 11.094427 11.058617 14.682413 53.959959 14.383126 53.660677 z "
     style="font-size:12;opacity:0.7;fill:url(#linearGradient641);fill-rule:evenodd;stroke:none;stroke-width:0.105188pt;"
     id="path835" />
  <path
     d="M 11.514286 52.972175 C 11.398196 52.797942 8.00685 21.776137 7.8420129 7.1843481 C 7.8321255 6.6661201 9.7765052 6.2993477 9.9075644 6.4958449 C 10.006036 6.6436043 8.5226851 7.8148987 8.5305678 8.2171495 C 8.701402 22.810149 11.627626 53.142245 11.514286 52.972175 z "
     style="font-size:12;opacity:0.699936;fill:url(#linearGradient1522);fill-rule:evenodd;stroke:none;stroke-width:0.105188pt;"
     id="path836" />
  <path
     d="M 15.177322 10.961774 C 14.558788 11.749148 16.374674 48.355066 17.31663 49.041019 C 18.289339 49.671571 48.857076 39.875433 49.619702 38.879506 C 50.338948 38.047123 49.355237 14.69976 48.871027 13.849962 C 48.247804 12.943851 15.852983 10.20882 15.177322 10.961774 z "
     style="font-size:12;fill:#261933;fill-rule:evenodd;stroke:none;stroke-width:0.613348;fill-opacity:0.50000000;"
     id="path837" />
  <path
     d="M 17.744431 47.008737 C 17.506854 46.716067 15.346975 12.931632 15.926202 12.138455 C 16.692801 11.234891 45.424386 13.9854 45.661957 14.277763 C 45.888033 14.555666 19.622945 11.623281 17.31663 13.84986 C 15.744634 15.369718 17.970295 47.286535 17.744431 47.008737 z "
     style="font-size:12;opacity:0.699936;fill:url(#linearGradient1527);fill-rule:evenodd;stroke:none;stroke-width:0.0980447pt;"
     id="path838" />
  <path
     d="M 15.177322 10.961774 C 14.558788 11.749148 16.374674 48.355066 17.31663 49.041019 C 18.289339 49.671571 48.857076 39.875433 49.619702 38.879506 C 50.338948 38.047123 49.355237 14.69976 48.871027 13.849962 C 48.247804 12.943851 15.852983 10.20882 15.177322 10.961774 z "
     style="font-size:12;fill:none;fill-rule:evenodd;stroke:#261933;stroke-width:0.613348;fill-opacity:0.50000000;"
     id="path2414" />
  <path
     d="M 16.062704,36.898672 C 16.198932,39.091219 17.081141,48.869531 17.316630,49.041019 C 18.289339,49.671571 48.857076,39.875433 49.619702,38.879506 C 49.799514,38.671410 49.876932,32.241314 49.826564,30.818276 C 49.795533,30.097810 16.077433,35.878335 16.062704,36.898672 z "
     style="font-size:12;fill:url(#linearGradient1532);fill-rule:evenodd;stroke:#261933;stroke-width:0.62500000;fill-opacity:1.0000000;stroke-opacity:1.0000000;stroke-dasharray:none;"
     id="path2415"
     sodipodi:nodetypes="cccss" />
  <path
     style="fill:none;fill-rule:evenodd;stroke:#261933;stroke-opacity:1.0000000;stroke-width:0.62500000;stroke-linejoin:miter;stroke-linecap:butt;stroke-dasharray:none;fill-opacity:1.0000000;"
     d="M 29.154029,34.049096 L 29.622779,45.845971"
     id="path2416" />
  <path
     style="fill:none;fill-rule:evenodd;stroke:#261933;stroke-width:0.62500000;stroke-dasharray:none;"
     d="M 40.517978,32.173990 L 40.823550,42.252327"
     id="path2417" />
  <path
     style="font-size:12.000000;fill-opacity:1.0000000;stroke-width:3.0000000pt;font-family:Radio Stars;fill:#271a34;"
     d="M 30.908566,35.051955 C 30.270602,35.211665 29.986028,35.602485 30.000877,36.246253 L 30.220616,43.244508 C 30.235466,43.888278 30.534700,44.132944 31.172665,43.973234 L 38.987304,41.645825 C 39.634791,41.483732 39.947036,41.085988 39.932188,40.442216 L 39.790574,34.303336 C 39.775724,33.659566 39.448817,33.421829 38.801330,33.583922 L 30.908566,35.051955 z M 32.113437,36.957943 L 37.878627,35.749042 L 37.975878,39.964901 L 32.210688,41.486302 L 32.113437,36.957943 z "
     id="path2426"
     sodipodi:nodetypes="cccccccccccccc" />
  <path
     style="font-size:12.000000;fill-opacity:1.0000000;stroke-width:3.0000000pt;font-family:Radio Stars;fill:#271a34;"
     d="M 42.162356,32.891827 C 41.959872,32.944608 41.808117,33.039941 41.668380,33.196356 C 41.514161,33.379043 41.441957,33.601286 41.447462,33.839832 L 41.558996,40.001781 C 41.564500,40.240327 41.623740,40.406511 41.776823,40.501598 C 41.929735,40.589230 42.106343,40.620768 42.308829,40.567987 C 42.511313,40.515207 42.713658,40.384891 42.860723,40.219068 C 43.007615,40.045789 43.058523,39.850896 43.053019,39.612347 L 43.014720,37.093164 L 47.584671,35.901957 L 47.544845,37.399126 C 47.550349,37.637673 47.638885,37.796221 47.791968,37.891308 C 47.944880,37.978939 48.121487,38.010477 48.323972,37.957697 C 48.526456,37.904916 48.699507,37.782238 48.846572,37.616413 C 48.993463,37.443136 49.073668,37.240604 49.068162,37.002056 L 49.090520,34.747784 C 49.078823,34.240872 48.813852,34.058240 48.311392,34.189211 L 46.172889,34.746636 L 48.552871,33.159548 C 48.872421,32.948764 49.042822,32.680539 49.035424,32.359990 C 49.030608,32.151262 48.963698,31.979577 48.817597,31.860172 C 48.678995,31.738813 48.494902,31.709932 48.284919,31.764665 C 48.187427,31.790077 48.075656,31.840304 47.964023,31.906898 L 42.971719,35.229522 L 42.941484,33.450398 C 42.935980,33.211851 42.854446,33.029684 42.693689,32.929097 C 42.548449,32.846965 42.364838,32.839049 42.162356,32.891827 z "
     id="path2429"
     sodipodi:nodetypes="ccccccccccccccccccccccccccc" />
  <path
     style="font-size:12.000000;fill-opacity:1.0000000;stroke-width:3.0000000pt;font-family:Radio Stars;fill:#271a34;"
     d="M 18.694224,37.670887 C 17.987583,37.849879 17.636182,38.299488 17.662774,39.023350 L 17.916352,46.394738 C 17.942944,47.118600 18.320597,47.383539 19.027238,47.204547 L 27.555387,44.888111 C 28.262028,44.709119 28.613428,44.259513 28.586837,43.535648 L 28.420330,39.003193 L 23.064489,40.359831 C 22.726988,40.445319 22.475955,40.629779 22.293932,40.890766 C 22.111910,41.151754 22.022087,41.414234 22.033037,41.712294 C 22.043987,42.010355 22.151261,42.222912 22.348926,42.387724 C 22.546591,42.552537 22.806423,42.607590 23.143923,42.522103 L 26.357428,41.708120 L 26.404784,42.997166 L 19.977773,44.625132 L 19.725503,39.806642 L 27.301807,37.985473 C 27.639308,37.899985 27.890341,37.715526 28.072364,37.454538 C 28.254386,37.193550 28.344208,36.931071 28.333258,36.633010 C 28.322308,36.334949 28.215035,36.122393 28.017371,35.957580 C 27.819706,35.792767 27.559874,35.737715 27.222373,35.823201 L 18.694224,37.670887 z "
     id="path2428"
     sodipodi:nodetypes="cccccccccccccccccccccc" />
</svg>
