<?xml version="1.0" encoding="UTF-8" standalone="no"?>
<!DOCTYPE svg PUBLIC "-//W3C//DTD SVG 20010904//EN"
"http://www.w3.org/TR/2001/REC-SVG-20010904/DTD/svg10.dtd">
<!-- Created with Inkscape (http://www.inkscape.org/) -->
<svg
   version="1.0"
   x="0"
   y="0"
   width="48pt"
   height="48pt"
   id="svg611"
   sodipodi:version="0.32"
   inkscape:version="0.38.1"
   sodipodi:docname="grip.svg"
   sodipodi:docbase="/home/ed/Desktop/Lila"
   xmlns="http://www.w3.org/2000/svg"
   xmlns:inkscape="http://www.inkscape.org/namespaces/inkscape"
   xmlns:sodipodi="http://sodipodi.sourceforge.net/DTD/sodipodi-0.dtd"
   xmlns:xlink="http://www.w3.org/1999/xlink">
  <sodipodi:namedview
     id="base"
     pagecolor="#ffffff"
     bordercolor="#666666"
     borderopacity="1.0"
     inkscape:pageopacity="0.0"
     inkscape:pageshadow="2"
     inkscape:zoom="2.8284271"
     inkscape:cx="27.500461"
     inkscape:cy="26.871094"
     inkscape:window-width="1052"
     inkscape:window-height="525"
     inkscape:window-x="180"
     inkscape:window-y="304" />
  <defs
     id="defs613">
    <linearGradient
       id="linearGradient923">
      <stop
         style="stop-color:#d9cce6;stop-opacity:1.0000000;"
         offset="0.0000000"
         id="stop925" />
      <stop
         style="stop-color:#ffffff;stop-opacity:1.0000000;"
         offset="1.0000000"
         id="stop924" />
    </linearGradient>
    <linearGradient
       id="linearGradient1528">
      <stop
         style="stop-color:#d9cce6;stop-opacity:1;"
         offset="0.00000000"
         id="stop1530" />
      <stop
         style="stop-color:#73667f;stop-opacity:1;"
         offset="1.00000000"
         id="stop1529" />
    </linearGradient>
    <linearGradient
       xlink:href="#linearGradient923"
       id="linearGradient1049"
       x1="0.015151516"
       y1="0.015625000"
       x2="0.97727275"
       y2="0.96875000" />
    <linearGradient
       xlink:href="#linearGradient1528"
       id="linearGradient1051"
       x1="0.015151516"
       y1="0.015625000"
       x2="0.97727275"
       y2="0.96875000" />
    <linearGradient
       xlink:href="#linearGradient1528"
       id="linearGradient841"
       x1="0.0086956518"
       y1="0.0078125000"
       x2="0.97826087"
       y2="0.95312500" />
  </defs>
  <g
     id="g842"
     style="fill:#000000;fill-opacity:0.30000001;stroke:none;stroke-opacity:1.0000000;"
     transform="translate(2.659424,2.659424)">
    <path
       style="fill:#000000;fill-rule:evenodd;stroke:none;stroke-width:1.8750000;stroke-dasharray:none;fill-opacity:0.30000001;stroke-opacity:1.0000000;"
       d="M 30.074774,5.4439914 C 28.129467,5.3343525 26.167070,5.4866340 24.139851,5.8854320 C 11.412770,8.3891271 3.0706760,20.770627 5.5748209,33.499994 C 8.0789656,46.229361 20.509066,54.569168 33.238432,52.065023 C 45.967799,49.560879 54.283082,37.155304 51.778937,24.425937 L 51.460119,22.733748 L 49.767930,23.077091 L 33.336530,26.289797 L 31.644341,26.633140 L 31.987683,28.325329 C 32.120794,28.987131 32.112076,29.516288 31.938634,30.042042 C 31.337511,31.864245 29.443585,32.825533 27.622326,32.224721 C 25.800128,31.623598 24.814312,29.705144 25.415123,27.883888 C 26.014507,26.066959 27.916312,25.090082 29.731431,25.676685 L 31.374572,26.216224 L 31.914110,24.573084 L 37.039726,8.7302715 L 37.554740,7.0871314 L 35.936124,6.5721174 C 33.964508,5.9349381 32.020083,5.5536304 30.074774,5.4439914 z M 29.878578,8.8528938 C 30.953751,8.9134000 32.069032,9.2309087 33.164858,9.4905303 L 29.044746,22.218734 C 26.034043,22.072449 23.138232,23.819363 22.153368,26.804811 C 20.971405,30.387726 22.961276,34.304826 26.543249,35.486477 C 30.126164,36.668439 34.018739,34.703092 35.200390,31.121120 C 35.394899,30.531503 35.478102,29.941908 35.494684,29.379882 L 48.590755,26.804811 C 49.708806,37.075512 42.902820,46.673712 32.576271,48.705169 C 21.671259,50.850424 11.104453,43.742846 8.9591988,32.837833 C 6.8139444,21.932820 13.894712,11.390990 24.802011,9.2452855 C 26.587650,8.8940114 28.241116,8.7607444 29.878578,8.8528938 z "
       id="path843" />
    <path
       style="fill:#000000;fill-rule:evenodd;stroke:none;stroke-width:1.8750000;stroke-dasharray:none;fill-opacity:0.30000001;stroke-opacity:1.0000000;"
       d="M 39.443125,1.6426974 L 38.903586,3.2613129 L 33.704397,19.104125 L 33.164858,20.722741 L 34.783474,21.262279 C 35.985047,21.658663 36.769988,22.667225 37.015201,23.886399 L 37.358544,25.554063 L 39.026209,25.235245 L 55.457609,21.998014 L 57.149798,21.654671 L 56.806455,19.987007 C 55.125892,11.463142 49.314541,4.8942617 41.061740,2.1822359 L 39.443125,1.6426974 z M 41.552230,6.1797258 C 47.263529,8.5637521 51.231566,13.027828 52.907063,18.981503 L 39.810992,21.556573 C 39.285946,20.445472 38.469964,19.487640 37.407593,18.785307 L 41.552230,6.1797258 z "
       id="path844" />
  </g>
  <g
     id="g845"
     style="fill:#000000;fill-opacity:0.30000001;stroke:none;stroke-opacity:1.0000000;"
     transform="translate(2.659424,2.659424)">
    <path
       style="font-size:12.000000;fill:#000000;fill-opacity:0.30000001;stroke:none;stroke-width:1.8750000;font-family:Bitstream Vera Sans;stroke-opacity:1.0000000;stroke-dasharray:none;"
       d="M 30.531250,39.343750 C 29.515395,39.343750 28.586767,39.552473 27.812500,39.968750 C 27.602094,40.079609 27.500585,40.325444 27.312500,40.468750 L 27.312500,40.375000 L 27.312500,39.656250 L 26.593750,39.656250 L 24.656250,39.656250 L 23.937500,39.656250 L 23.937500,40.375000 L 23.937500,52.031250 L 23.937500,52.781250 L 24.656250,52.781250 L 26.593750,52.781250 L 27.312500,52.781250 L 27.312500,52.031250 L 27.312500,45.906250 C 27.312500,44.692242 27.597139,43.840755 28.031250,43.312500 C 28.473901,42.774995 29.043878,42.531250 29.968750,42.531250 C 30.224707,42.531250 30.442766,42.548193 30.625000,42.593750 C 30.812693,42.634333 30.978084,42.695943 31.125000,42.781250 L 32.250000,43.437500 L 32.218750,42.156250 L 32.218750,40.187500 L 32.218750,39.593750 L 31.625000,39.468750 C 31.412930,39.430881 31.217950,39.422486 31.031250,39.406250 C 30.845826,39.382066 30.701745,39.343751 30.531250,39.343750 z "
       id="path846" />
    <path
       style="font-size:12.000000;fill:#000000;fill-opacity:0.30000001;stroke:none;stroke-width:1.8750000;font-family:Bitstream Vera Sans;stroke-opacity:1.0000000;stroke-dasharray:none;"
       d="M 15.125000 39.343750 C 13.507764 39.343750 12.091058 40.038573 11.093750 41.281250 C 10.094871 42.525886 9.6249997 44.137584 9.6250000 46.062500 C 9.6250000 47.980922 10.095344 49.630955 11.093750 50.875000 C 12.091058 52.117677 13.507765 52.781250 15.125000 52.781250 C 16.082992 52.781250 16.943395 52.597173 17.687500 52.187500 C 17.814483 52.117588 17.881019 51.957204 18.000000 51.875000 C 17.886482 52.530346 17.718562 53.080058 17.406250 53.406250 C 16.948988 53.888915 16.223776 54.187500 15.093750 54.187500 C 14.586265 54.187500 14.113350 54.098564 13.625000 53.968750 C 13.138517 53.839432 12.611952 53.656494 12.093750 53.375000 L 11.031250 52.781250 L 11.031250 54.000000 L 11.031250 55.875000 L 11.031250 56.375000 L 11.500000 56.562500 C 12.107178 56.787381 12.731551 56.957754 13.375000 57.062500 C 14.018469 57.174733 14.694478 57.218752 15.406250 57.218750 C 17.357177 57.218750 18.949404 56.689386 20.000000 55.531250 C 21.050922 54.381027 21.500001 52.689471 21.500000 50.593750 L 21.500000 40.375000 L 21.500000 39.656250 L 20.781250 39.656250 L 18.875000 39.656250 L 18.125000 39.656250 L 18.125000 40.375000 C 17.966989 40.257185 17.860418 40.063952 17.687500 39.968750 C 16.943393 39.559073 16.082991 39.343751 15.125000 39.343750 z M 15.593750 42.437500 C 16.449414 42.437500 16.963138 42.686832 17.406250 43.281250 C 17.854813 43.875731 18.125000 44.773674 18.125000 46.062500 C 18.125000 47.343870 17.855453 48.248421 17.406250 48.843750 C 16.963138 49.438169 16.449414 49.718751 15.593750 49.718750 C 14.746249 49.718750 14.232284 49.441506 13.781250 48.843750 C 13.337580 48.248585 13.062500 47.345093 13.062500 46.062500 C 13.062500 44.772456 13.338213 43.875568 13.781250 43.281250 C 14.232285 42.683494 14.746250 42.437500 15.593750 42.437500 z "
       id="path847" />
    <path
       style="font-size:12.000000;fill:#000000;fill-opacity:0.30000001;stroke:none;stroke-width:1.8750000;font-family:Bitstream Vera Sans;stroke-opacity:1.0000000;stroke-dasharray:none;"
       d="M 45.031250 39.343750 C 44.079426 39.343750 43.211842 39.559631 42.468750 39.968750 C 42.296606 40.062647 42.188569 40.257969 42.031250 40.375000 L 42.031250 39.656250 L 41.312500 39.656250 L 39.375000 39.656250 L 38.625000 39.656250 L 38.625000 40.375000 L 38.625000 56.500000 L 38.625000 57.218750 L 39.375000 57.218750 L 41.312500 57.218750 L 42.031250 57.218750 L 42.031250 56.500000 L 42.031250 52.062500 C 42.192173 52.184640 42.292498 52.401860 42.468750 52.500000 C 43.211041 52.900337 44.081407 53.093752 45.031250 53.093750 C 46.642376 53.093750 48.062707 52.400329 49.062500 51.125000 C 50.071741 49.847679 50.531252 48.171519 50.531250 46.218750 C 50.531250 44.265980 50.071743 42.589823 49.062500 41.312500 C 48.062706 40.037174 46.642377 39.343751 45.031250 39.343750 z M 44.562500 42.437500 C 45.383611 42.437500 45.884923 42.702498 46.343750 43.343750 C 46.806717 43.977575 47.093750 44.908779 47.093750 46.218750 C 47.093750 47.528717 46.808753 48.482853 46.343750 49.125000 C 45.885926 49.759335 45.385282 49.999999 44.562500 50.000000 C 43.739719 50.000000 43.214823 49.761366 42.750000 49.125000 C 42.290567 48.482900 42.031251 47.529915 42.031250 46.218750 C 42.031250 44.907581 42.292594 43.977506 42.750000 43.343750 C 43.215811 42.700488 43.741389 42.437500 44.562500 42.437500 z "
       id="path848" />
    <path
       style="font-size:12.000000;fill:#000000;fill-opacity:0.30000001;stroke:none;stroke-width:1.8750000;font-family:Bitstream Vera Sans;stroke-opacity:1.0000000;stroke-dasharray:none;"
       d="M 32.781250 35.093750 L 32.781250 35.812500 L 32.781250 38.250000 L 32.781250 39.000000 L 33.500000 39.000000 L 35.437500 39.000000 L 36.156250 39.000000 L 36.156250 38.250000 L 36.156250 35.812500 L 36.156250 35.093750 L 35.437500 35.093750 L 33.500000 35.093750 L 32.781250 35.093750 z M 32.781250 39.656250 L 32.781250 40.375000 L 32.781250 52.031250 L 32.781250 52.781250 L 33.500000 52.781250 L 35.437500 52.781250 L 36.156250 52.781250 L 36.156250 52.031250 L 36.156250 40.375000 L 36.156250 39.656250 L 35.437500 39.656250 L 33.500000 39.656250 L 32.781250 39.656250 z "
       id="path849" />
  </g>
  <g
     id="g1431"
     style="fill:url(#linearGradient1049);fill-opacity:1.0000000;">
    <path
       style="fill:url(#linearGradient1049);fill-rule:evenodd;stroke:#261933;stroke-width:1.8750000;stroke-dasharray:none;fill-opacity:1.0000000;"
       d="M 30.074774,5.4439914 C 28.129467,5.3343525 26.167070,5.4866340 24.139851,5.8854320 C 11.412770,8.3891271 3.0706760,20.770627 5.5748209,33.499994 C 8.0789656,46.229361 20.509066,54.569168 33.238432,52.065023 C 45.967799,49.560879 54.283082,37.155304 51.778937,24.425937 L 51.460119,22.733748 L 49.767930,23.077091 L 33.336530,26.289797 L 31.644341,26.633140 L 31.987683,28.325329 C 32.120794,28.987131 32.112076,29.516288 31.938634,30.042042 C 31.337511,31.864245 29.443585,32.825533 27.622326,32.224721 C 25.800128,31.623598 24.814312,29.705144 25.415123,27.883888 C 26.014507,26.066959 27.916312,25.090082 29.731431,25.676685 L 31.374572,26.216224 L 31.914110,24.573084 L 37.039726,8.7302715 L 37.554740,7.0871314 L 35.936124,6.5721174 C 33.964508,5.9349381 32.020083,5.5536304 30.074774,5.4439914 z M 29.878578,8.8528938 C 30.953751,8.9134000 32.069032,9.2309087 33.164858,9.4905303 L 29.044746,22.218734 C 26.034043,22.072449 23.138232,23.819363 22.153368,26.804811 C 20.971405,30.387726 22.961276,34.304826 26.543249,35.486477 C 30.126164,36.668439 34.018739,34.703092 35.200390,31.121120 C 35.394899,30.531503 35.478102,29.941908 35.494684,29.379882 L 48.590755,26.804811 C 49.708806,37.075512 42.902820,46.673712 32.576271,48.705169 C 21.671259,50.850424 11.104453,43.742846 8.9591988,32.837833 C 6.8139444,21.932820 13.894712,11.390990 24.802011,9.2452855 C 26.587650,8.8940114 28.241116,8.7607444 29.878578,8.8528938 z "
       id="path1211" />
    <path
       style="fill:url(#linearGradient1049);fill-rule:evenodd;stroke:#261933;stroke-width:1.8750000;stroke-dasharray:none;fill-opacity:1.0000000;"
       d="M 39.443125,1.6426974 L 38.903586,3.2613129 L 33.704397,19.104125 L 33.164858,20.722741 L 34.783474,21.262279 C 35.985047,21.658663 36.769988,22.667225 37.015201,23.886399 L 37.358544,25.554063 L 39.026209,25.235245 L 55.457609,21.998014 L 57.149798,21.654671 L 56.806455,19.987007 C 55.125892,11.463142 49.314541,4.8942617 41.061740,2.1822359 L 39.443125,1.6426974 z M 41.552230,6.1797258 C 47.263529,8.5637521 51.231566,13.027828 52.907063,18.981503 L 39.810992,21.556573 C 39.285946,20.445472 38.469964,19.487640 37.407593,18.785307 L 41.552230,6.1797258 z "
       id="path1214" />
  </g>
  <g
     id="g1426"
     style="fill:url(#linearGradient841);">
    <path
       style="font-size:12.000000;fill:url(#linearGradient841);fill-opacity:0.30645162;stroke:#261933;stroke-width:1.8750000;font-family:Bitstream Vera Sans;stroke-opacity:1.0000000;stroke-dasharray:none;"
       d="M 30.531250,39.343750 C 29.515395,39.343750 28.586767,39.552473 27.812500,39.968750 C 27.602094,40.079609 27.500585,40.325444 27.312500,40.468750 L 27.312500,40.375000 L 27.312500,39.656250 L 26.593750,39.656250 L 24.656250,39.656250 L 23.937500,39.656250 L 23.937500,40.375000 L 23.937500,52.031250 L 23.937500,52.781250 L 24.656250,52.781250 L 26.593750,52.781250 L 27.312500,52.781250 L 27.312500,52.031250 L 27.312500,45.906250 C 27.312500,44.692242 27.597139,43.840755 28.031250,43.312500 C 28.473901,42.774995 29.043878,42.531250 29.968750,42.531250 C 30.224707,42.531250 30.442766,42.548193 30.625000,42.593750 C 30.812693,42.634333 30.978084,42.695943 31.125000,42.781250 L 32.250000,43.437500 L 32.218750,42.156250 L 32.218750,40.187500 L 32.218750,39.593750 L 31.625000,39.468750 C 31.412930,39.430881 31.217950,39.422486 31.031250,39.406250 C 30.845826,39.382066 30.701745,39.343751 30.531250,39.343750 z "
       id="path1410" />
    <path
       style="font-size:12.000000;fill:url(#linearGradient841);fill-opacity:0.30645162;stroke:#261933;stroke-width:1.8750000;font-family:Bitstream Vera Sans;stroke-opacity:1.0000000;stroke-dasharray:none;"
       d="M 15.125000 39.343750 C 13.507764 39.343750 12.091058 40.038573 11.093750 41.281250 C 10.094871 42.525886 9.6249997 44.137584 9.6250000 46.062500 C 9.6250000 47.980922 10.095344 49.630955 11.093750 50.875000 C 12.091058 52.117677 13.507765 52.781250 15.125000 52.781250 C 16.082992 52.781250 16.943395 52.597173 17.687500 52.187500 C 17.814483 52.117588 17.881019 51.957204 18.000000 51.875000 C 17.886482 52.530346 17.718562 53.080058 17.406250 53.406250 C 16.948988 53.888915 16.223776 54.187500 15.093750 54.187500 C 14.586265 54.187500 14.113350 54.098564 13.625000 53.968750 C 13.138517 53.839432 12.611952 53.656494 12.093750 53.375000 L 11.031250 52.781250 L 11.031250 54.000000 L 11.031250 55.875000 L 11.031250 56.375000 L 11.500000 56.562500 C 12.107178 56.787381 12.731551 56.957754 13.375000 57.062500 C 14.018469 57.174733 14.694478 57.218752 15.406250 57.218750 C 17.357177 57.218750 18.949404 56.689386 20.000000 55.531250 C 21.050922 54.381027 21.500001 52.689471 21.500000 50.593750 L 21.500000 40.375000 L 21.500000 39.656250 L 20.781250 39.656250 L 18.875000 39.656250 L 18.125000 39.656250 L 18.125000 40.375000 C 17.966989 40.257185 17.860418 40.063952 17.687500 39.968750 C 16.943393 39.559073 16.082991 39.343751 15.125000 39.343750 z M 15.593750 42.437500 C 16.449414 42.437500 16.963138 42.686832 17.406250 43.281250 C 17.854813 43.875731 18.125000 44.773674 18.125000 46.062500 C 18.125000 47.343870 17.855453 48.248421 17.406250 48.843750 C 16.963138 49.438169 16.449414 49.718751 15.593750 49.718750 C 14.746249 49.718750 14.232284 49.441506 13.781250 48.843750 C 13.337580 48.248585 13.062500 47.345093 13.062500 46.062500 C 13.062500 44.772456 13.338213 43.875568 13.781250 43.281250 C 14.232285 42.683494 14.746250 42.437500 15.593750 42.437500 z "
       id="path1423" />
    <path
       style="font-size:12.000000;fill:url(#linearGradient841);fill-opacity:0.30645162;stroke:#261933;stroke-width:1.8750000;font-family:Bitstream Vera Sans;stroke-opacity:1.0000000;stroke-dasharray:none;"
       d="M 45.031250 39.343750 C 44.079426 39.343750 43.211842 39.559631 42.468750 39.968750 C 42.296606 40.062647 42.188569 40.257969 42.031250 40.375000 L 42.031250 39.656250 L 41.312500 39.656250 L 39.375000 39.656250 L 38.625000 39.656250 L 38.625000 40.375000 L 38.625000 56.500000 L 38.625000 57.218750 L 39.375000 57.218750 L 41.312500 57.218750 L 42.031250 57.218750 L 42.031250 56.500000 L 42.031250 52.062500 C 42.192173 52.184640 42.292498 52.401860 42.468750 52.500000 C 43.211041 52.900337 44.081407 53.093752 45.031250 53.093750 C 46.642376 53.093750 48.062707 52.400329 49.062500 51.125000 C 50.071741 49.847679 50.531252 48.171519 50.531250 46.218750 C 50.531250 44.265980 50.071743 42.589823 49.062500 41.312500 C 48.062706 40.037174 46.642377 39.343751 45.031250 39.343750 z M 44.562500 42.437500 C 45.383611 42.437500 45.884923 42.702498 46.343750 43.343750 C 46.806717 43.977575 47.093750 44.908779 47.093750 46.218750 C 47.093750 47.528717 46.808753 48.482853 46.343750 49.125000 C 45.885926 49.759335 45.385282 49.999999 44.562500 50.000000 C 43.739719 50.000000 43.214823 49.761366 42.750000 49.125000 C 42.290567 48.482900 42.031251 47.529915 42.031250 46.218750 C 42.031250 44.907581 42.292594 43.977506 42.750000 43.343750 C 43.215811 42.700488 43.741389 42.437500 44.562500 42.437500 z "
       id="path1424" />
    <path
       style="font-size:12.000000;fill:url(#linearGradient841);fill-opacity:0.30645162;stroke:#261933;stroke-width:1.8750000;font-family:Bitstream Vera Sans;stroke-opacity:1.0000000;stroke-dasharray:none;"
       d="M 32.781250 35.093750 L 32.781250 35.812500 L 32.781250 38.250000 L 32.781250 39.000000 L 33.500000 39.000000 L 35.437500 39.000000 L 36.156250 39.000000 L 36.156250 38.250000 L 36.156250 35.812500 L 36.156250 35.093750 L 35.437500 35.093750 L 33.500000 35.093750 L 32.781250 35.093750 z M 32.781250 39.656250 L 32.781250 40.375000 L 32.781250 52.031250 L 32.781250 52.781250 L 33.500000 52.781250 L 35.437500 52.781250 L 36.156250 52.781250 L 36.156250 52.031250 L 36.156250 40.375000 L 36.156250 39.656250 L 35.437500 39.656250 L 33.500000 39.656250 L 32.781250 39.656250 z "
       id="path1425" />
  </g>
</svg>
