<?xml version="1.0" encoding="UTF-8" standalone="no"?>
<!-- Created with Inkscape (http://www.inkscape.org/) -->
<svg
   xmlns:dc="http://purl.org/dc/elements/1.1/"
   xmlns:cc="http://web.resource.org/cc/"
   xmlns:rdf="http://www.w3.org/1999/02/22-rdf-syntax-ns#"
   xmlns:svg="http://www.w3.org/2000/svg"
   xmlns="http://www.w3.org/2000/svg"
   xmlns:xlink="http://www.w3.org/1999/xlink"
   xmlns:sodipodi="http://sodipodi.sourceforge.net/DTD/sodipodi-0.dtd"
   xmlns:inkscape="http://www.inkscape.org/namespaces/inkscape"
   id="svg1"
   sodipodi:version="0.32"
   inkscape:version="0.45"
   width="48pt"
   height="48pt"
   sodipodi:docbase="/home/Mess/trunk/lila/gnome/scalable/stock"
   sodipodi:docname="ktorrent.svg"
   inkscape:output_extension="org.inkscape.output.svg.inkscape"
   sodipodi:modified="true">
  <metadata
     id="metadata19">
    <rdf:RDF>
      <cc:Work
         rdf:about="">
        <dc:format>image/svg+xml</dc:format>
        <dc:type
           rdf:resource="http://purl.org/dc/dcmitype/StillImage" />
      </cc:Work>
    </rdf:RDF>
  </metadata>
  <defs
     id="defs3">
    <linearGradient
       id="linearGradient584">
      <stop
         style="stop-color:#ffffff;stop-opacity:1;"
         offset="0.00000000"
         id="stop585" />
      <stop
         style="stop-color:#ffffff;stop-opacity:0;"
         offset="1.00000000"
         id="stop586" />
    </linearGradient>
    <linearGradient
       id="linearGradient578">
      <stop
         style="stop-color:#d9cce6;stop-opacity:1;"
         offset="0.00000000"
         id="stop579" />
      <stop
         style="stop-color:#73667f;stop-opacity:1;"
         offset="1.00000000"
         id="stop580" />
    </linearGradient>
    <linearGradient
       xlink:href="#linearGradient965"
       id="linearGradient581"
       x1="4.1502929"
       y1="5.2784929"
       x2="54.585316"
       y2="54.579109"
       gradientTransform="matrix(0.7409334,0,0,0.8392858,-2.6345475,11.841552)"
       gradientUnits="userSpaceOnUse" />
    <linearGradient
       xlink:href="#linearGradient584"
       id="linearGradient583"
       x1="57.105171"
       y1="10.65917"
       x2="63.794329"
       y2="17.47163"
       gradientTransform="scale(0.3356278,2.9794909)"
       gradientUnits="userSpaceOnUse" />
    <linearGradient
       xlink:href="#linearGradient584"
       id="linearGradient612"
       x1="8.3515288"
       y1="-5.280798"
       x2="26.605192"
       y2="22.513647"
       gradientTransform="scale(1.0150514,0.9851718)"
       gradientUnits="userSpaceOnUse" />
    <linearGradient
       xlink:href="#linearGradient584"
       id="linearGradient614"
       x1="7.0530323"
       y1="9.3276539"
       x2="34.944145"
       y2="36.071073"
       gradientTransform="matrix(0.8537242,0,0,0.7284026,-2.6345475,11.841553)"
       gradientUnits="userSpaceOnUse" />
    <linearGradient
       y2="0.95714283"
       x2="0.97894734"
       y1="0.02857143"
       x1="0.01052632"
       id="linearGradient2209"
       xlink:href="#linearGradient584" />
    <linearGradient
       y2="0.96428573"
       x2="0.95890409"
       y1="-0.00000000"
       x1="-0.00000000"
       id="linearGradient2207"
       xlink:href="#linearGradient584" />
    <linearGradient
       y2="0.99285716"
       x2="1.00000000"
       y1="0.00000000"
       x1="-0.87500000"
       id="linearGradient2205"
       xlink:href="#linearGradient584" />
    <linearGradient
       y2="0.97857141"
       x2="0.98611110"
       y1="0.02142857"
       x1="0.00694444"
       id="linearGradient2203"
       xlink:href="#linearGradient578" />
    <linearGradient
       id="linearGradient2197">
      <stop
         id="stop2199"
         offset="0.00000000"
         style="stop-color:#d9cce6;stop-opacity:1;" />
      <stop
         id="stop2201"
         offset="1.00000000"
         style="stop-color:#73667f;stop-opacity:1;" />
    </linearGradient>
    <linearGradient
       id="linearGradient2191">
      <stop
         id="stop2193"
         offset="0.00000000"
         style="stop-color:#ffffff;stop-opacity:1;" />
      <stop
         id="stop2195"
         offset="1.00000000"
         style="stop-color:#ffffff;stop-opacity:0;" />
    </linearGradient>
    <linearGradient
       inkscape:collect="always"
       xlink:href="#linearGradient972"
       id="linearGradient2221"
       x1="5.2789125"
       y1="5.6231785"
       x2="55.647869"
       y2="54.859219"
       gradientTransform="scale(1.0072392,0.9928128)"
       gradientUnits="userSpaceOnUse" />
    <radialGradient
       id="radialGradient924"
       xlink:href="#linearGradient914" />
    <linearGradient
       y2="1.00781250"
       x2="0.99230766"
       y1="0.01562500"
       x1="0.02307692"
       id="linearGradient922"
       xlink:href="#linearGradient584" />
    <radialGradient
       fy="23.081676"
       fx="20.601772"
       r="36.9097"
       cy="23.50664"
       cx="20.601771"
       id="radialGradient917"
       xlink:href="#linearGradient578"
       gradientUnits="userSpaceOnUse" />
    <linearGradient
       y2="1.00781250"
       x2="1.00000000"
       y1="0.01562500"
       x1="-0.00000000"
       id="linearGradient600"
       xlink:href="#linearGradient584" />
    <linearGradient
       y2="72.075113"
       x2="23.794276"
       y1="54.80356"
       x1="6.6157741"
       id="linearGradient599"
       xlink:href="#linearGradient914"
       gradientTransform="scale(2.0076923,0.4980843)"
       gradientUnits="userSpaceOnUse" />
    <linearGradient
       y2="1.00781250"
       x2="0.99230766"
       y1="0.01562500"
       x1="0.02307692"
       id="linearGradient2268"
       xlink:href="#linearGradient584" />
    <linearGradient
       y2="0.99218750"
       x2="0.98684210"
       y1="0.00000000"
       x1="-0.00000000"
       id="linearGradient2266"
       xlink:href="#linearGradient584" />
    <linearGradient
       id="linearGradient2260">
      <stop
         id="stop2262"
         offset="0.00000000"
         style="stop-color:#f50000;stop-opacity:1;" />
      <stop
         id="stop2264"
         offset="1.00000000"
         style="stop-color:#a90000;stop-opacity:1;" />
    </linearGradient>
    <linearGradient
       id="linearGradient2254">
      <stop
         id="stop2256"
         offset="0.00000000"
         style="stop-color:#ffffff;stop-opacity:1;" />
      <stop
         id="stop2258"
         offset="1.00000000"
         style="stop-color:#ffffff;stop-opacity:0;" />
    </linearGradient>
    <linearGradient
       id="linearGradient914">
      <stop
         id="stop915"
         offset="0.00000000"
         style="stop-color:#ffffff;stop-opacity:1;" />
      <stop
         id="stop916"
         offset="1.00000000"
         style="stop-color:#7f7f7f;stop-opacity:1;" />
    </linearGradient>
    <linearGradient
       id="linearGradient1000"
       xlink:href="#linearGradient972" />
    <linearGradient
       y2="70.039574"
       x2="49.513095"
       y1="38.112927"
       x1="17.494286"
       id="linearGradient971"
       xlink:href="#linearGradient972"
       gradientTransform="scale(1.2149451,0.8230825)"
       gradientUnits="userSpaceOnUse" />
    <linearGradient
       y2="57.873221"
       x2="59.775977"
       y1="6.3361378"
       x1="9.0317707"
       id="linearGradient713"
       xlink:href="#linearGradient968"
       gradientUnits="userSpaceOnUse" />
    <linearGradient
       y2="42.24471"
       x2="46.728913"
       y1="7.8695327"
       x1="11.627198"
       id="linearGradient655"
       xlink:href="#linearGradient965"
       gradientTransform="scale(0.7767096,1.2874825)"
       gradientUnits="userSpaceOnUse" />
    <linearGradient
       y2="25.442022"
       x2="17.900216"
       y1="15.182976"
       x1="9.6986845"
       id="linearGradient654"
       xlink:href="#linearGradient584"
       gradientTransform="scale(2.1381568,0.4676925)"
       gradientUnits="userSpaceOnUse" />
    <linearGradient
       y2="0.99218750"
       x2="0.96774191"
       y1="0.00000000"
       x1="0.00000000"
       id="linearGradient2343"
       xlink:href="#linearGradient584" />
    <linearGradient
       y2="0.65625000"
       x2="0.65384614"
       y1="0.00000000"
       x1="-0.00000000"
       id="linearGradient2341"
       xlink:href="#linearGradient584" />
    <linearGradient
       id="linearGradient2335">
      <stop
         id="stop2337"
         offset="0.00000000"
         style="stop-color:#faf8fd;stop-opacity:1;" />
      <stop
         id="stop2339"
         offset="1.00000000"
         style="stop-color:#d9cce6;stop-opacity:1;" />
    </linearGradient>
    <linearGradient
       id="linearGradient2329">
      <stop
         id="stop2331"
         offset="0.00000000"
         style="stop-color:#ffffff;stop-opacity:1;" />
      <stop
         id="stop2333"
         offset="1.00000000"
         style="stop-color:#ffffff;stop-opacity:0;" />
    </linearGradient>
    <linearGradient
       id="linearGradient965">
      <stop
         id="stop966"
         offset="0.00000000"
         style="stop-color:#00ff00;stop-opacity:1;" />
      <stop
         id="stop967"
         offset="1.00000000"
         style="stop-color:#007f00;stop-opacity:1;" />
    </linearGradient>
    <linearGradient
       id="linearGradient968">
      <stop
         id="stop969"
         offset="0.00000000"
         style="stop-color:#0000ff;stop-opacity:1;" />
      <stop
         id="stop970"
         offset="1.00000000"
         style="stop-color:#00007f;stop-opacity:1;" />
    </linearGradient>
    <linearGradient
       id="linearGradient972">
      <stop
         id="stop973"
         offset="0.00000000"
         style="stop-color:#ff0000;stop-opacity:1;" />
      <stop
         id="stop974"
         offset="1.00000000"
         style="stop-color:#7f0000;stop-opacity:1;" />
    </linearGradient>
    <linearGradient
       inkscape:collect="always"
       xlink:href="#linearGradient578"
       id="linearGradient2359"
       gradientUnits="userSpaceOnUse"
       gradientTransform="matrix(0.8209804,0,0,0.8658014,10.508085,8.2122708)"
       x1="4.1502928"
       y1="5.2784931"
       x2="54.585316"
       y2="54.579111" />
    <linearGradient
       inkscape:collect="always"
       xlink:href="#linearGradient584"
       id="linearGradient2361"
       gradientUnits="userSpaceOnUse"
       gradientTransform="scale(0.3356278,2.9794909)"
       x1="57.105171"
       y1="10.65917"
       x2="63.794329"
       y2="17.47163" />
  </defs>
  <sodipodi:namedview
     id="base"
     pagecolor="#ffffff"
     bordercolor="#666666"
     borderopacity="1.0"
     inkscape:pageopacity="0.0"
     inkscape:pageshadow="2"
     inkscape:zoom="5.6423387"
     inkscape:cx="19.319744"
     inkscape:cy="31.19472"
     inkscape:window-width="845"
     inkscape:window-height="708"
     inkscape:window-x="147"
     inkscape:window-y="82"
     inkscape:current-layer="g2211" />
  <path
     style="font-size:12px;opacity:0.30267502;fill:#000000;fill-opacity:1;fill-rule:evenodd;stroke:none;stroke-width:14.84790039"
     d="M 31.551209,16.682632 C 30.747303,15.276972 11.273834,15.799639 10.198125,16.682632 C 8.9726815,17.732737 10.996913,34.824665 10.198125,36.222412 C 9.583594,37.435788 -0.11408202,35.03615 0.2178809,36.222412 C 0.56323227,37.325254 15.900159,59.968598 20.178371,60.076172 C 22.727344,60.045487 30.383719,51.120659 35.7415,44.178612 C 38.849516,40.151573 41.184036,36.791756 41.299357,36.222412 C 41.547476,34.855708 31.809893,37.049824 31.087011,35.96865 C 30.129134,34.607308 32.520785,18.198534 31.551209,16.682632 z "
     id="path617"
     sodipodi:nodetypes="cssssssss" />
  <g
     id="g2211"
     transform="matrix(0.7267525,0,0,0.8871173,16.970673,-0.9918615)">
    <path
       sodipodi:nodetypes="csssssss"
       id="path2213"
       d="M 46.170935,57.514023 C 45.079739,59.22107 18.646941,58.58634 17.186799,57.514023 C 15.523415,56.238766 18.271054,35.482165 17.186799,33.784727 C 16.352652,32.311192 3.18927,35.225335 3.6398657,33.784727 C 4.1086368,32.445425 24.926595,4.9471346 30.733735,4.816495 C 36.20072,4.8753784 58.976452,31.901407 59.402827,33.784727 C 59.739617,35.444469 46.52207,32.779912 45.540849,34.092899 C 44.240649,35.746126 47.487013,55.673097 46.170935,57.514023 z "
       style="font-size:12px;opacity:0.30267502;fill:#000000;fill-opacity:1;fill-rule:evenodd;stroke:none;stroke-width:14.84790039" />
    <path
       sodipodi:nodetypes="csssssss"
       id="path2215"
       d="M 43.982362,53.657866 C 43.005372,55.220327 19.339142,54.639359 18.031827,53.657866 C 16.542537,52.490618 19.002599,33.492063 18.031827,31.938395 C 17.284982,30.589666 5.4993338,33.256988 5.9027677,31.938395 C 6.3224768,30.712532 24.607898,5.5432896 30.16088,5.4237165 C 35.232499,5.4777221 55.447599,30.214588 55.829349,31.938395 C 56.130889,33.45756 44.296744,31.018685 43.418223,32.220467 C 42.254109,33.733666 45.160693,51.972863 43.982362,53.657866 z "
       style="font-size:12px;fill:url(#linearGradient2221);fill-opacity:1.0;fill-rule:evenodd;stroke:#261933;stroke-width:1.87065995" />
    <path
       sodipodi:nodetypes="csssss"
       id="path2217"
       d="M 30.719596,54.425634 C 30.496274,52.441289 29.246416,7.1099516 30.594563,5.6631121 C 31.583802,4.4672685 52.266573,25.627853 55.22589,31.669793 C 56.267602,33.796619 44.378511,29.233352 43.097777,31.794823 C 40.794258,36.401861 45.698363,47.893759 43.597903,53.175312 C 43.204695,54.297646 30.880915,55.734001 30.719596,54.425634 z "
       style="opacity:0.201783;fill:#261e2e;fill-opacity:1;fill-rule:evenodd;stroke:none;stroke-width:1pt;stroke-linecap:butt;stroke-linejoin:miter;stroke-opacity:1" />
    <path
       sodipodi:nodetypes="csss"
       id="path706"
       d="M 19.178042,52.305897 C 18.936577,51.098574 19.651677,35.322203 20.238974,31.61771 C 20.417906,30.489066 21.583055,35.733137 21.476729,37.806484 C 21.229411,42.629198 19.349161,53.161497 19.178042,52.305897 z "
       style="fill:url(#linearGradient583);fill-opacity:1;fill-rule:evenodd;stroke:none;stroke-width:1pt;stroke-linecap:butt;stroke-linejoin:miter;stroke-opacity:1" />
    <path
       sodipodi:nodetypes="cssss"
       id="path707"
       d="M 8.3918912,31.087243 C 8.422279,30.66182 21.41185,12.88978 29.610547,7.039437 C 30.678489,6.2605865 33.354969,8.9019125 33.323811,9.3381239 C 33.296028,9.7270824 30.384746,9.038975 29.433723,9.8685898 C 22.074106,16.288681 8.3633386,31.486989 8.3918912,31.087243 z "
       style="fill:url(#linearGradient612);fill-opacity:1;fill-rule:evenodd;stroke:none;stroke-width:1pt;stroke-linecap:butt;stroke-linejoin:miter;stroke-opacity:1" />
  </g>
  <path
     style="font-size:12px;fill:url(#linearGradient581);fill-opacity:1.0;fill-rule:evenodd;stroke:#261933;stroke-width:1.4771086"
     d="M 28.920304,16.954883 C 28.200681,15.632306 10.76878,16.124078 9.8058471,16.954883 C 8.7088783,17.942922 10.520891,34.024635 9.8058471,35.339769 C 9.2557432,36.481426 0.57475614,34.22362 0.87191545,35.339769 C 1.1810618,36.377425 14.649603,57.682439 18.739779,57.783652 C 22.475396,57.737939 37.365285,36.798918 37.646472,35.339769 C 37.868576,34.053842 29.15187,36.118276 28.504773,35.101003 C 27.647317,33.820122 29.78823,18.381188 28.920304,16.954883 z "
     id="path589"
     sodipodi:nodetypes="csssssss" />
  <path
     style="opacity:0.201783;fill:#261e2e;fill-opacity:1;fill-rule:evenodd;stroke:none;stroke-width:1pt;stroke-linecap:butt;stroke-linejoin:miter;stroke-opacity:1"
     d="M 19.151312,16.30499 C 18.986819,17.984682 18.066207,56.356305 19.059216,57.58101 C 19.787863,58.593256 35.022228,40.681454 37.201979,35.567133 C 37.969275,33.766837 29.212095,37.629506 28.268742,35.461296 C 26.572032,31.561576 30.184263,21.834027 28.637122,17.36335 C 28.347495,16.413326 19.270134,15.197497 19.151312,16.30499 z "
     id="path644"
     sodipodi:nodetypes="csssss" />
  <path
     style="fill:url(#linearGradient614);fill-opacity:1;fill-rule:evenodd;stroke:none;stroke-width:1pt;stroke-linecap:butt;stroke-linejoin:miter;stroke-opacity:1"
     d="M 4.7726619,39.010501 C 4.405299,38.818603 2.6691153,36.664375 3.2434281,36.550142 C 5.3197887,36.137155 10.684865,37.912847 11.178614,36.250794 C 11.946349,32.111021 9.9434521,19.608756 11.042526,18.624678 C 11.885468,17.530576 27.388879,18.223416 27.711188,18.624678 C 28.000572,18.984956 14.43549,19.13562 12.877607,20.909296 C 11.696509,22.387229 14.054464,34.001023 12.379319,37.480973 C 11.403791,39.507538 7.5803032,37.377996 4.9255866,37.428842 C 4.5218323,37.436576 4.9660185,39.111503 4.7726619,39.010501 z "
     id="path613"
     sodipodi:nodetypes="cssssssss" />
</svg>
