<?xml version="1.0" encoding="UTF-8" standalone="no"?>
<!DOCTYPE svg PUBLIC "-//W3C//DTD SVG 20010904//EN"
"http://www.w3.org/TR/2001/REC-SVG-20010904/DTD/svg10.dtd">
<!-- Created with Inkscape (http://www.inkscape.org/) -->
<svg
   version="1.0"
   x="0"
   y="0"
   width="48pt"
   height="48pt"
   id="svg611"
   sodipodi:version="0.32"
   inkscape:version="0.38.1"
   sodipodi:docname="larry.svg"
   sodipodi:docbase="/home/ed/Desktop/Lila"
   xmlns="http://www.w3.org/2000/svg"
   xmlns:inkscape="http://www.inkscape.org/namespaces/inkscape"
   xmlns:sodipodi="http://sodipodi.sourceforge.net/DTD/sodipodi-0.dtd"
   xmlns:xlink="http://www.w3.org/1999/xlink">
  <sodipodi:namedview
     id="base"
     pagecolor="#ffffff"
     bordercolor="#666666"
     borderopacity="1.0"
     inkscape:pageopacity="0.0"
     inkscape:pageshadow="2"
     inkscape:zoom="5.6568542"
     inkscape:cx="26.081719"
     inkscape:cy="25.773684"
     inkscape:window-width="857"
     inkscape:window-height="768"
     inkscape:window-x="76"
     inkscape:window-y="124"
     showguides="true"
     snaptoguides="true"
     showgrid="false"
     snaptogrid="false" />
  <defs
     id="defs613">
    <linearGradient
       id="linearGradient1535">
      <stop
         style="stop-color:#ffffff;stop-opacity:1;"
         offset="0"
         id="stop1537" />
      <stop
         style="stop-color:#ffffff;stop-opacity:0;"
         offset="1"
         id="stop1536" />
    </linearGradient>
    <linearGradient
       id="linearGradient1528">
      <stop
         style="stop-color:#d9cce6;stop-opacity:1.0000000;"
         offset="0.0000000"
         id="stop1530" />
      <stop
         style="stop-color:#73667f;stop-opacity:1.0000000;"
         offset="1.0000000"
         id="stop1529" />
    </linearGradient>
    <linearGradient
       id="linearGradient642">
      <stop
         style="stop-color:#ffffff;stop-opacity:1;"
         offset="0"
         id="stop643" />
      <stop
         style="stop-color:#ffffff;stop-opacity:0;"
         offset="1"
         id="stop644" />
    </linearGradient>
    <linearGradient
       id="linearGradient635">
      <stop
         style="stop-color:#ffffff;stop-opacity:1.0000000;"
         offset="0.0000000"
         id="stop636" />
      <stop
         style="stop-color:#d9cce6;stop-opacity:1.0000000;"
         offset="1.0000000"
         id="stop637" />
    </linearGradient>
    <linearGradient
       id="linearGradient638"
       xlink:href="#linearGradient1528"
       x1="0.027397303"
       y1="0.039062656"
       x2="0.95205450"
       y2="0.93750012" />
    <linearGradient
       id="linearGradient641"
       xlink:href="#linearGradient1528"
       x1="0.015384615"
       y1="0.0078125000"
       x2="0.97692305"
       y2="0.96875000" />
    <linearGradient
       id="linearGradient1522"
       xlink:href="#linearGradient635"
       x1="-6.9605779e-17"
       y1="0.50000000"
       x2="1.0000000"
       y2="0.50000000" />
    <linearGradient
       id="linearGradient1527"
       xlink:href="#linearGradient635"
       x1="0.0034014429"
       y1="0.042553201"
       x2="0.98639452"
       y2="0.95744646" />
    <linearGradient
       id="linearGradient1532"
       xlink:href="#linearGradient635"
       x1="0.010615340"
       y1="0.033530705"
       x2="1.0544963"
       y2="0.95004517"
       gradientTransform="scale(0.961222,1.040342)" />
    <linearGradient
       id="linearGradient1534"
       xlink:href="#linearGradient635"
       x1="0.020918185"
       y1="0.044817142"
       x2="0.34863889"
       y2="2.7786629"
       gradientTransform="scale(2.868297,0.348639)" />
    <linearGradient
       id="linearGradient1539"
       xlink:href="#linearGradient635"
       x1="0.024142403"
       y1="-8.7577068e-10"
       x2="0.38024315"
       y2="2.4907429"
       gradientTransform="scale(2.510355,0.398350)" />
    <linearGradient
       id="linearGradient1567"
       xlink:href="#linearGradient635"
       x1="0.0040558549"
       y1="-5.9399252e-07"
       x2="1.1843110"
       y2="0.81321537"
       gradientTransform="scale(0.838629,1.192423)" />
    <linearGradient
       xlink:href="#linearGradient635"
       id="linearGradient896"
       x1="0.0099245850"
       y1="0.031473983"
       x2="0.95937836"
       y2="0.97570312"
       gradientTransform="scale(1.028160,0.972611)" />
    <linearGradient
       xlink:href="#linearGradient1528"
       id="linearGradient899"
       x1="0.041376498"
       y1="0.0078670830"
       x2="0.95856202"
       y2="0.99913907"
       gradientTransform="scale(1.007006,0.993043)" />
    <linearGradient
       xlink:href="#linearGradient1535"
       id="linearGradient901" />
    <linearGradient
       xlink:href="#linearGradient1535"
       id="linearGradient905"
       x1="0.0048523550"
       y1="-0.097928792"
       x2="0.99029034"
       y2="1.0497539" />
    <linearGradient
       xlink:href="#linearGradient1535"
       id="linearGradient939"
       x1="0.0041322312"
       y1="0.023437500"
       x2="0.98347110"
       y2="0.97656250" />
    <linearGradient
       xlink:href="#linearGradient1535"
       id="linearGradient948" />
    <radialGradient
       xlink:href="#linearGradient1535"
       id="radialGradient921" />
    <linearGradient
       xlink:href="#linearGradient1535"
       id="linearGradient1136" />
    <linearGradient
       xlink:href="#linearGradient1535"
       id="linearGradient1138" />
    <linearGradient
       xlink:href="#linearGradient1535"
       id="linearGradient1140" />
    <linearGradient
       xlink:href="#linearGradient1535"
       id="linearGradient1142" />
    <linearGradient
       xlink:href="#linearGradient1535"
       id="linearGradient1144" />
    <linearGradient
       xlink:href="#linearGradient1535"
       id="linearGradient1146" />
    <linearGradient
       xlink:href="#linearGradient1535"
       id="linearGradient1148" />
    <linearGradient
       xlink:href="#linearGradient1535"
       id="linearGradient1150" />
    <linearGradient
       xlink:href="#linearGradient1535"
       id="linearGradient1152" />
    <linearGradient
       xlink:href="#linearGradient1535"
       id="linearGradient1154" />
    <linearGradient
       xlink:href="#linearGradient1535"
       id="linearGradient1156" />
    <linearGradient
       xlink:href="#linearGradient1535"
       id="linearGradient1158" />
    <linearGradient
       xlink:href="#linearGradient1535"
       id="linearGradient1160" />
    <linearGradient
       xlink:href="#linearGradient1535"
       id="linearGradient1162" />
    <linearGradient
       xlink:href="#linearGradient1535"
       id="linearGradient1165" />
    <linearGradient
       xlink:href="#linearGradient1528"
       id="linearGradient1167"
       x1="-8.7603536e-16"
       y1="0.50000000"
       x2="1.0000000"
       y2="0.50000000" />
    <linearGradient
       xlink:href="#linearGradient1528"
       id="linearGradient1169"
       x1="1.9428903e-16"
       y1="0.50000000"
       x2="1.0000000"
       y2="0.50000000" />
    <linearGradient
       xlink:href="#linearGradient1528"
       id="linearGradient1171"
       x1="2.9004577e-15"
       y1="0.50000000"
       x2="1.0000000"
       y2="0.50000000" />
    <linearGradient
       xlink:href="#linearGradient1528"
       id="linearGradient1173"
       x1="7.4593109e-16"
       y1="0.50000000"
       x2="1.0000000"
       y2="0.50000000" />
    <linearGradient
       xlink:href="#linearGradient1528"
       id="linearGradient1175"
       x1="1.2507356e-15"
       y1="0.50000000"
       x2="1.0000000"
       y2="0.50000000" />
    <linearGradient
       xlink:href="#linearGradient1528"
       id="linearGradient1177"
       x1="1.4398205e-16"
       y1="0.50000000"
       x2="1.0000000"
       y2="0.50000000" />
    <linearGradient
       xlink:href="#linearGradient1528"
       id="linearGradient1179"
       x1="2.5396352e-15"
       y1="0.50000000"
       x2="1.0000000"
       y2="0.50000000" />
    <linearGradient
       xlink:href="#linearGradient1528"
       id="linearGradient1181"
       x1="-9.5236319e-16"
       y1="0.50000000"
       x2="1.0000000"
       y2="0.50000000" />
    <linearGradient
       xlink:href="#linearGradient1528"
       id="linearGradient1183"
       x1="-1.5404344e-15"
       y1="0.50000000"
       x2="1.0000000"
       y2="0.50000000" />
    <linearGradient
       xlink:href="#linearGradient1528"
       id="linearGradient1185"
       x1="1.3166551e-15"
       y1="0.50000000"
       x2="1.0000000"
       y2="0.50000000" />
    <linearGradient
       xlink:href="#linearGradient1528"
       id="linearGradient1187"
       x1="-1.1518564e-15"
       y1="0.50000000"
       x2="1.0000000"
       y2="0.50000000" />
    <linearGradient
       xlink:href="#linearGradient1528"
       id="linearGradient1189"
       x1="2.3019781e-15"
       y1="0.50000000"
       x2="1.0000000"
       y2="0.50000000" />
    <linearGradient
       xlink:href="#linearGradient1528"
       id="linearGradient1191"
       x1="1.0633855e-15"
       y1="0.50000000"
       x2="1.0000000"
       y2="0.50000000" />
    <linearGradient
       xlink:href="#linearGradient1528"
       id="linearGradient1193"
       x1="-1.5959456e-15"
       y1="0.50000000"
       x2="1.0000000"
       y2="0.50000000" />
    <linearGradient
       xlink:href="#linearGradient1528"
       id="linearGradient1195"
       x1="-2.7183117e-15"
       y1="0.50000000"
       x2="1.0000000"
       y2="0.50000000" />
    <linearGradient
       xlink:href="#linearGradient1528"
       id="linearGradient1197"
       x1="-3.2153100e-15"
       y1="0.50000000"
       x2="1.0000000"
       y2="0.50000000" />
    <linearGradient
       xlink:href="#linearGradient1528"
       id="linearGradient1199"
       x1="2.6298408e-15"
       y1="0.50000000"
       x2="1.0000000"
       y2="0.50000000" />
    <linearGradient
       xlink:href="#linearGradient1528"
       id="linearGradient1201"
       x1="3.3252481e-16"
       y1="0.50000000"
       x2="1.0000000"
       y2="0.50000000" />
    <linearGradient
       xlink:href="#linearGradient1535"
       id="linearGradient1447" />
    <linearGradient
       xlink:href="#linearGradient1528"
       id="linearGradient1449"
       x1="1.5254725e-16"
       y1="0.50000000"
       x2="1.0000000"
       y2="0.50000000" />
    <linearGradient
       xlink:href="#linearGradient1535"
       id="linearGradient1451" />
    <linearGradient
       xlink:href="#linearGradient1528"
       id="linearGradient1454"
       x1="-2.1412993e-17"
       y1="0.50000000"
       x2="1.0000000"
       y2="0.50000000" />
    <linearGradient
       xlink:href="#linearGradient1535"
       id="linearGradient1456" />
    <linearGradient
       xlink:href="#linearGradient1528"
       id="linearGradient1458"
       x1="3.5778672e-18"
       y1="0.50000000"
       x2="1.0000000"
       y2="0.50000000" />
    <linearGradient
       xlink:href="#linearGradient1535"
       id="linearGradient1460" />
    <linearGradient
       xlink:href="#linearGradient1528"
       id="linearGradient1462"
       x1="-2.7430315e-17"
       y1="0.50000000"
       x2="1.0000000"
       y2="0.50000000" />
    <linearGradient
       xlink:href="#linearGradient1535"
       id="linearGradient1473" />
    <linearGradient
       xlink:href="#linearGradient1528"
       id="linearGradient1477"
       x1="-3.1528599e-16"
       y1="0.50000000"
       x2="1.0000000"
       y2="0.50000000" />
    <linearGradient
       xlink:href="#linearGradient1528"
       id="linearGradient1479"
       x1="4.2674198e-16"
       y1="0.50000000"
       x2="1.0000000"
       y2="0.50000000" />
    <linearGradient
       xlink:href="#linearGradient1535"
       id="linearGradient1481" />
    <linearGradient
       xlink:href="#linearGradient1535"
       id="linearGradient1483" />
    <linearGradient
       xlink:href="#linearGradient1528"
       id="linearGradient1485"
       x1="6.1105634e-16"
       y1="0.50000000"
       x2="1.0000000"
       y2="0.50000000" />
    <linearGradient
       xlink:href="#linearGradient1535"
       id="linearGradient1487" />
    <linearGradient
       xlink:href="#linearGradient1528"
       id="linearGradient1489"
       x1="-3.9464959e-17"
       y1="0.50000000"
       x2="1.0000000"
       y2="0.50000000" />
    <linearGradient
       xlink:href="#linearGradient1535"
       id="linearGradient1503" />
    <linearGradient
       xlink:href="#linearGradient1528"
       id="linearGradient1506"
       x1="4.2121254e-17"
       y1="0.50000000"
       x2="1.0000000"
       y2="0.50000000" />
    <linearGradient
       xlink:href="#linearGradient1535"
       id="linearGradient1509" />
    <linearGradient
       xlink:href="#linearGradient1528"
       id="linearGradient1511"
       x1="1.0737938e-15"
       y1="0.50000000"
       x2="1.0000000"
       y2="0.50000000" />
    <linearGradient
       xlink:href="#linearGradient1535"
       id="linearGradient1523"
       x1="-1.9434324e-17"
       y1="0.50000000"
       x2="1.0000000"
       y2="0.50000000" />
    <defs
       id="defs1215">
      <marker
         id="ArrowEnd"
         viewBox="0 0 10 10"
         refX="0"
         refY="5"
         markerUnits="strokeWidth"
         markerWidth="4"
         markerHeight="3"
         orient="auto">
        <path
           d="M 0 0 L 10 5 L 0 10 z"
           id="path1217" />
      </marker>
      <marker
         id="ArrowStart"
         viewBox="0 0 10 10"
         refX="10"
         refY="5"
         markerUnits="strokeWidth"
         markerWidth="4"
         markerHeight="3"
         orient="auto">
        <path
           d="M 10 0 L 0 5 L 10 10 z"
           id="path1219" />
      </marker>
    </defs>
  </defs>
  <path
     style="fill:#000000;stroke:none;stroke-width:1.8750000;fill-opacity:0.30000001;"
     d="M 4.1508657,23.308379 C 7.1598871,20.334619 6.6875731,20.467213 9.4272279,19.249592 C 10.797047,18.640858 11.308571,18.372751 12.660214,18.365684 C 14.011873,18.358463 15.921210,18.541605 17.262268,18.976107 C 19.944337,19.845112 18.775728,19.756921 20.297716,19.351150 C 21.819703,18.945225 21.603528,18.640858 21.704932,17.524642 C 21.806336,16.408487 21.907894,9.5086408 22.719590,7.9866074 C 23.531286,6.4645738 23.429882,6.0586951 24.444540,7.7836604 C 25.459199,9.5086258 25.865123,13.770314 26.474011,15.190866 C 27.082744,16.611434 27.285707,17.423176 27.590073,17.626108 C 27.894440,17.829055 27.691631,18.031987 29.213619,17.727589 C 30.735607,17.423176 32.359152,17.524642 33.678177,17.626108 C 34.997356,17.727589 35.606090,17.829055 36.214977,17.727589 C 36.823710,17.626108 36.925268,17.829055 37.331040,17.118763 C 37.736964,16.408487 38.853027,13.567367 38.954585,12.146815 C 39.055990,10.726247 38.751623,5.7542822 38.142889,4.6381272 C 37.534002,3.5219815 38.142889,3.0146339 39.461914,4.6381272 C 40.780940,6.2616421 42.303081,8.7983648 42.810410,10.117436 C 43.317739,11.436523 43.520702,11.335057 43.317739,13.262954 C 43.114777,15.190866 42.404485,16.915832 41.592789,17.727589 C 40.780940,18.539300 40.983902,19.655517 42.201523,19.249592 C 43.419144,18.843667 43.926473,18.031987 45.144093,17.220245 C 46.361714,16.408487 49.405843,14.785003 51.841085,14.480590 C 54.276326,14.176177 54.783655,14.379124 55.798314,14.785003 C 56.812972,15.190866 56.812972,14.683522 58.132151,15.698211 C 59.451176,16.712900 61.074722,17.829055 59.857101,19.351150 C 58.639480,20.873138 57.117492,20.568771 56.407201,21.380467 C 55.696909,22.192163 53.870401,22.801050 52.855743,23.004012 C 51.841085,23.206821 46.666235,23.409784 45.955943,23.206821 C 45.245651,23.004012 43.622106,21.684834 44.433802,23.612746 C 45.245651,25.540658 46.260310,30.208179 46.463272,32.034687 C 46.666235,33.861041 47.376526,39.847741 47.782297,42.485945 C 48.188222,45.124149 48.492589,47.457832 48.695551,50.197594 C 48.898514,52.937203 48.188222,53.241569 47.985260,54.459190 C 47.782297,55.676811 47.883855,55.169482 46.463272,56.184140 C 45.042689,57.198798 44.896728,56.457778 43.070374,57.066512 C 41.243866,57.675399 40.983902,57.503319 39.258952,58.416419 C 37.534002,59.329673 34.185506,60.750256 32.866481,59.634040 C 31.547303,58.517977 29.720948,55.981178 27.691631,54.256228 C 25.662161,52.531278 22.922553,48.574049 22.313666,42.080020 C 21.704932,35.585991 20.178489,28.756867 19.278602,26.621537 C 18.378715,24.486206 19.128185,24.195207 16.631486,25.642063 C 14.134803,27.089072 12.268348,27.164204 10.441917,27.164204 C 8.6154699,27.164204 5.7743499,25.946583 4.2523316,25.134733 C 2.7302995,24.323038 2.9332357,24.526000 4.1508657,23.308379 z "
     id="path1365"
     sodipodi:nodetypes="ccccccccccccccccccccccccccccccccccccccccccccc" />
  <path
     style="fill:url(#linearGradient641);stroke:#261933;stroke-opacity:1.0000000;stroke-width:12.203615;stroke-dasharray:none;"
     d="M 11.599700,133.50100 C 31.184200,114.14600 28.110100,115.00900 45.941400,107.08400 C 54.857000,103.12200 58.186300,101.37700 66.983600,101.33100 C 75.781000,101.28400 88.208100,102.47600 96.936500,105.30400 C 114.39300,110.96000 106.78700,110.38600 116.69300,107.74500 C 126.59900,105.10300 125.19200,103.12200 125.85200,95.857000 C 126.51200,88.592400 127.17300,43.684100 132.45600,33.777800 C 137.73900,23.871500 137.07900,21.229800 143.68300,32.456900 C 150.28700,43.684000 152.92900,71.421600 156.89200,80.667400 C 160.85400,89.913300 162.17500,95.196600 164.15600,96.517400 C 166.13700,97.838300 164.81700,99.159100 174.72300,97.177900 C 184.62900,95.196600 195.19600,95.857000 203.78100,96.517400 C 212.36700,97.177900 216.32900,97.838300 220.29200,97.177900 C 224.25400,96.517400 224.91500,97.838300 227.55600,93.215300 C 230.19800,88.592400 237.46200,70.100700 238.12300,60.854900 C 238.78300,51.609000 236.80200,19.248500 232.84000,11.983900 C 228.87700,4.7193600 232.84000,1.4172400 241.42500,11.983900 C 250.01000,22.550700 259.91700,39.061200 263.21900,47.646500 C 266.52100,56.231900 267.84200,55.571500 266.52100,68.119400 C 265.20000,80.667400 260.57700,91.894500 255.29400,97.177900 C 250.01000,102.46100 251.33100,109.72600 259.25600,107.08400 C 267.18100,104.44200 270.48300,99.159100 278.40800,93.875800 C 286.33300,88.592400 306.14600,78.025800 321.99600,76.044500 C 337.84600,74.063200 341.14800,75.384100 347.75200,78.025800 C 354.35600,80.667400 354.35600,77.365300 362.94200,83.969500 C 371.52700,90.573700 382.09400,97.838300 374.16900,107.74500 C 366.24400,117.65100 356.33800,115.67000 351.71500,120.95300 C 347.09200,126.23600 335.20400,130.19900 328.60000,131.52000 C 321.99600,132.84000 288.31500,134.16100 283.69200,132.84000 C 279.06900,131.52000 268.50200,122.93400 273.78500,135.48200 C 279.06900,148.03000 285.67300,178.40900 286.99400,190.29700 C 288.31500,202.18400 292.93800,241.14900 295.57900,258.32000 C 298.22100,275.49100 300.20200,290.68000 301.52300,308.51200 C 302.84400,326.34300 298.22100,328.32400 296.90000,336.24900 C 295.57900,344.17400 296.24000,340.87200 286.99400,347.47600 C 277.74800,354.08000 276.79800,349.25700 264.91100,353.21900 C 253.02300,357.18200 251.33100,356.06200 240.10400,362.00500 C 228.87700,367.94900 207.08300,377.19500 198.49800,369.93000 C 189.91200,362.66600 178.02500,346.15500 164.81700,334.92800 C 151.60800,323.70100 133.77700,297.94500 129.81400,255.67800 C 125.85200,213.41100 115.91700,168.96300 110.06000,155.06500 C 104.20300,141.16700 109.08100,139.27300 92.831000,148.69000 C 76.581100,158.10800 64.433100,158.59700 52.545600,158.59700 C 40.658000,158.59700 22.166300,150.67200 12.260100,145.38800 C 2.3538100,140.10500 3.6746400,141.42600 11.599700,133.50100 z "
     id="path1221"
     sodipodi:nodetypes="ccccccccccccccccccccccccccccccccccccccccccccc"
     transform="matrix(0.153643,0.000000,0.000000,0.153643,0.372142,0.579403)" />
  <path
     style="fill:url(#linearGradient1567);stroke:#261933;stroke-opacity:1.0000000;stroke-width:4.0678716;stroke-dasharray:none;"
     d="M 69.056000,110.38600 C 84.531500,111.04700 87.547700,113.02800 92.831000,115.00900 C 98.114400,116.99000 94.151900,117.65100 87.547700,116.99000 C 80.943500,116.33000 59.234800,116.76100 53.951400,116.76100 C 48.668100,116.76100 48.496200,115.21000 53.119100,113.22900 C 57.742000,111.24700 63.112200,110.38600 69.056000,110.38600 z "
     id="path1222"
     transform="matrix(0.153643,0.000000,0.000000,0.153643,0.372142,0.579403)"
     sodipodi:nodetypes="cccccc" />
  <path
     style="fill:url(#linearGradient896);stroke:#261933;stroke-opacity:1.0000000;stroke-width:4.0678716;stroke-dasharray:none;"
     d="M 33.566200,142.82400 C 44.596100,146.96000 51.030200,148.56800 53.787700,148.33900 C 56.545100,148.10900 62.979200,145.81100 70.332500,143.74300 C 77.685800,141.67500 96.068900,135.24100 99.515700,133.63200 C 102.96300,132.02300 102.50300,132.71300 102.50300,129.72600 C 102.50300,126.73800 102.73300,126.04900 97.677400,125.81900 C 92.622000,125.58900 81.592200,126.73800 73.779300,128.11700 C 65.966500,129.49600 43.217400,134.09200 37.013100,135.93000 C 30.808800,137.76800 30.349200,138.22800 27.361900,139.14700 C 24.374700,140.06600 27.361900,141.21500 33.566200,142.82400 z "
     id="path1223"
     transform="matrix(0.153643,0.000000,0.000000,0.153643,0.372142,0.579403)"
     sodipodi:nodetypes="cccccccccc" />
  <path
     style="fill:url(#linearGradient1532);stroke:#261933;stroke-opacity:1.0000000;stroke-width:4.0678716;stroke-dasharray:none;"
     d="M 294.37700,95.487000 C 304.25800,92.959300 306.32600,92.729500 310.46200,90.661400 C 314.59800,88.593300 317.81500,88.823100 327.00700,89.052900 C 336.19900,89.282700 339.87500,90.431600 344.01100,92.270000 C 348.14800,94.108300 349.98600,94.567800 344.01100,95.487000 C 338.03700,96.406200 323.10100,97.784900 313.67900,98.474200 C 304.25800,99.163600 296.44500,100.08300 291.84900,102.38100 C 287.25300,104.67900 283.34700,104.90800 285.87500,102.38100 C 288.40200,99.853000 290.70000,96.636000 294.37700,95.487000 z "
     id="path1224"
     transform="matrix(0.153643,0.000000,0.000000,0.153643,0.372142,0.579403)"
     sodipodi:nodetypes="ccccccccc" />
  <path
     style="fill:url(#linearGradient1527);stroke:#261933;stroke-opacity:1.0000000;stroke-width:4.0678716;stroke-dasharray:none;"
     d="M 308.62400,107.89600 C 320.80300,106.97600 327.92600,106.28700 333.67100,104.67900 C 339.41600,103.07000 338.26700,104.21900 344.24100,103.98900 C 350.21600,103.75900 350.90500,104.44900 349.98600,106.05700 C 349.06700,107.66600 344.70100,111.57200 340.33500,112.95100 C 335.96900,114.33000 332.75200,114.10000 327.23700,118.00600 C 321.72200,121.91300 313.22000,123.52100 303.79800,123.29100 C 294.37700,123.06200 287.71300,124.67000 282.88700,122.37200 C 278.06200,120.07400 276.45300,118.69600 280.36000,115.01900 C 284.26600,111.34200 287.25400,111.57200 294.37700,110.19400 C 301.50000,108.81500 304.71700,108.12500 308.62400,107.89600 z "
     id="path1225"
     transform="matrix(0.153643,0.000000,0.000000,0.153643,0.372142,0.579403)"
     sodipodi:nodetypes="ccccccccccc" />
  <path
     style="fill:url(#linearGradient1539);stroke:#261933;stroke-opacity:1.0000000;stroke-width:4.0678716;stroke-dasharray:none;"
     d="M 138.81000,88.593300 C 139.03900,76.644300 140.41800,72.048500 141.79700,67.452700 C 143.17600,62.856900 142.94600,63.776100 144.78400,67.452700 C 146.62200,71.129300 149.15000,80.780500 150.06900,83.997500 C 150.98800,87.214600 153.51600,93.648700 154.66500,96.176400 C 155.81400,98.704000 157.19300,101.23200 152.82700,101.69100 C 148.46100,102.15100 146.62200,102.84000 143.63500,102.84000 C 140.64800,102.84000 138.12000,100.77200 138.35000,96.636000 C 138.58000,92.499700 138.58000,89.742300 138.81000,88.593300 z "
     id="path1226"
     transform="matrix(0.153643,0.000000,0.000000,0.153643,0.372142,0.579403)"
     sodipodi:nodetypes="ccccccccc" />
  <path
     style="fill:url(#linearGradient1534);stroke:#261933;stroke-opacity:1.0000000;stroke-width:4.0678716;stroke-dasharray:none;"
     d="M 245.89100,64.005900 C 246.58100,57.801600 245.66200,52.516400 245.66200,50.218500 C 245.66200,47.920700 247.73000,45.622700 247.73000,44.014200 C 247.73000,42.405700 246.35100,38.958800 246.35100,36.660900 C 246.35100,34.363100 245.89100,30.916200 248.41900,38.269500 C 250.94700,45.622700 252.55500,49.299400 254.16400,56.193100 C 255.77200,63.086700 253.70400,70.899600 253.70400,73.886800 C 253.70400,76.874100 253.01500,79.631500 250.94700,85.835800 C 248.87900,92.040200 246.12100,95.257200 242.67400,95.487000 C 239.22800,95.716800 238.53800,96.636000 235.32100,96.636000 C 232.10400,96.636000 232.33400,96.176400 234.63200,93.189100 C 236.93000,90.201800 244.28300,76.414600 245.89100,64.005900 z "
     id="path1227"
     transform="matrix(0.153643,0.000000,0.000000,0.153643,0.372142,0.579403)"
     sodipodi:nodetypes="cccccccccccc" />
  <path
     style="fill:url(#linearGradient1522);stroke:#261933;stroke-opacity:1.0000000;stroke-width:4.0678716;stroke-dasharray:none;"
     d="M 140.30300,214.63300 C 138.00500,197.16900 137.54600,187.51800 133.86900,176.02800 C 130.19300,164.53900 120.08200,137.42400 116.86500,130.07000 C 113.64800,122.71700 115.48600,120.87900 123.29900,119.04000 C 131.11200,117.20200 160.52500,108.01000 177.98900,108.93000 C 195.45300,109.84900 208.32100,103.41500 226.70400,113.52500 C 245.08700,123.63600 251.06200,118.58100 255.65700,137.88300 C 260.25300,157.18500 265.76800,202.22400 268.52600,216.47100 C 271.28300,230.71800 277.25800,279.89300 279.09600,286.32700 C 280.93400,292.76100 282.77300,294.59900 270.36400,294.14000 C 257.95500,293.68000 241.87000,292.76100 222.56800,301.95300 C 203.26600,311.14400 187.18000,323.09300 182.58500,328.60800 C 177.98900,334.12300 177.98900,331.36600 172.01400,326.31000 C 166.04000,321.25500 154.09100,303.79100 151.33300,288.62500 C 148.57600,273.45900 142.14200,243.12700 141.68200,235.31400 C 141.22200,227.50100 140.30300,220.60700 140.30300,214.63300 z "
     id="path1228"
     transform="matrix(0.153643,0.000000,0.000000,0.153643,0.372142,0.579403)"
     sodipodi:nodetypes="cccccccccccccccc" />
  <path
     style="fill:url(#linearGradient899);stroke:#261933;stroke-opacity:1.0000000;stroke-width:4.0678716;stroke-dasharray:none;fill-opacity:1.0000000;"
     d="M 158.68600,189.81500 C 168.79700,185.67900 172.01400,185.22000 176.61000,189.35600 C 181.20600,193.49200 185.80200,200.50100 181.20600,205.09600 C 176.61000,209.69200 174.31200,209.57700 169.25700,213.25400 C 164.20100,216.93100 158.68600,215.09200 155.46900,213.25400 C 152.25200,211.41600 151.33300,208.65800 150.41400,204.52200 C 149.49500,200.38600 152.71200,193.95200 158.68600,189.81500 z "
     id="path1229"
     transform="matrix(0.153643,0.000000,0.000000,0.153643,0.372142,0.579403)"
     sodipodi:nodetypes="ccccccc" />
  <path
     style="fill:url(#linearGradient638);stroke:#261933;stroke-opacity:1.0000000;stroke-width:4.0678716;stroke-dasharray:none;fill-opacity:1.0000000;"
     d="M 227.27900,160.28800 C 233.71300,160.51700 235.89600,162.12600 235.89600,166.72200 C 235.89600,171.31700 230.61000,174.19000 227.39300,174.19000 C 224.17600,174.19000 220.73000,171.43200 219.81000,167.75600 C 218.89100,164.07900 220.27000,160.17300 227.27900,160.28800 z "
     id="path1230"
     transform="matrix(0.153643,0.000000,0.000000,0.153643,0.372142,0.579403)"
     sodipodi:nodetypes="ccccc" />
</svg>
