<?xml version="1.0" encoding="UTF-8" standalone="no"?>
<!DOCTYPE svg PUBLIC "-//W3C//DTD SVG 20010904//EN"
"http://www.w3.org/TR/2001/REC-SVG-20010904/DTD/svg10.dtd">
<!-- Created with Inkscape (http://www.inkscape.org/) -->
<svg
   version="1.0"
   x="0"
   y="0"
   width="48pt"
   height="48pt"
   id="svg611"
   sodipodi:version="0.32"
   inkscape:version="0.38.1"
   sodipodi:docname="login-photo.svg"
   sodipodi:docbase="/home/ed/Desktop/Lila"
   xmlns="http://www.w3.org/2000/svg"
   xmlns:inkscape="http://www.inkscape.org/namespaces/inkscape"
   xmlns:sodipodi="http://sodipodi.sourceforge.net/DTD/sodipodi-0.dtd"
   xmlns:xlink="http://www.w3.org/1999/xlink">
  <sodipodi:namedview
     id="base"
     pagecolor="#ffffff"
     bordercolor="#666666"
     borderopacity="1.0"
     inkscape:pageopacity="0.0"
     inkscape:pageshadow="2"
     inkscape:zoom="11.313708"
     inkscape:cx="23.625368"
     inkscape:cy="26.231810"
     inkscape:window-width="857"
     inkscape:window-height="768"
     inkscape:window-x="572"
     inkscape:window-y="181"
     showguides="true"
     snaptoguides="true"
     showgrid="false"
     snaptogrid="false" />
  <defs
     id="defs613">
    <linearGradient
       id="linearGradient1535">
      <stop
         style="stop-color:#ffffff;stop-opacity:1;"
         offset="0"
         id="stop1537" />
      <stop
         style="stop-color:#ffffff;stop-opacity:0;"
         offset="1"
         id="stop1536" />
    </linearGradient>
    <linearGradient
       id="linearGradient1528">
      <stop
         style="stop-color:#d9cce6;stop-opacity:1.0000000;"
         offset="0.0000000"
         id="stop1530" />
      <stop
         style="stop-color:#73667f;stop-opacity:1.0000000;"
         offset="1.0000000"
         id="stop1529" />
    </linearGradient>
    <linearGradient
       id="linearGradient642">
      <stop
         style="stop-color:#ffffff;stop-opacity:1;"
         offset="0"
         id="stop643" />
      <stop
         style="stop-color:#ffffff;stop-opacity:0;"
         offset="1"
         id="stop644" />
    </linearGradient>
    <linearGradient
       id="linearGradient635">
      <stop
         style="stop-color:#ffffff;stop-opacity:1.0000000;"
         offset="0.0000000"
         id="stop636" />
      <stop
         style="stop-color:#d9cce6;stop-opacity:1.0000000;"
         offset="1.0000000"
         id="stop637" />
    </linearGradient>
    <linearGradient
       id="linearGradient638"
       xlink:href="#linearGradient642"
       x1="0.020547945"
       y1="0.039062500"
       x2="0.96575344"
       y2="0.95312500" />
    <linearGradient
       id="linearGradient641"
       xlink:href="#linearGradient1528"
       x1="0.98412699"
       y1="0.96093750"
       x2="0.015873017"
       y2="0.039062500" />
    <linearGradient
       id="linearGradient1522"
       xlink:href="#linearGradient635" />
    <linearGradient
       id="linearGradient1527"
       xlink:href="#linearGradient635"
       x1="-2.8189256e-16"
       y1="0.50000000"
       x2="1.0000000"
       y2="0.50000000" />
    <linearGradient
       id="linearGradient1532"
       xlink:href="#linearGradient635"
       x1="-7.7412035e-17"
       y1="0.50000000"
       x2="1.0000000"
       y2="0.50000000" />
    <linearGradient
       id="linearGradient1534"
       xlink:href="#linearGradient635"
       x1="6.1257423e-17"
       y1="0.50000000"
       x2="1.0000000"
       y2="0.50000000" />
    <linearGradient
       id="linearGradient1539"
       xlink:href="#linearGradient635"
       x1="-3.2439329e-16"
       y1="0.50000000"
       x2="1.0000000"
       y2="0.50000000" />
    <linearGradient
       id="linearGradient1567"
       xlink:href="#linearGradient635"
       x1="-3.3436795e-16"
       y1="0.50000000"
       x2="1.0000000"
       y2="0.50000000" />
    <linearGradient
       xlink:href="#linearGradient635"
       id="linearGradient896"
       x1="-8.4611138e-16"
       y1="0.50000000"
       x2="1.0000000"
       y2="0.50000000" />
    <linearGradient
       xlink:href="#linearGradient1528"
       id="linearGradient899" />
    <linearGradient
       xlink:href="#linearGradient635"
       id="linearGradient901"
       x1="0.035714287"
       y1="0.015625000"
       x2="0.97321427"
       y2="0.97656250" />
    <linearGradient
       xlink:href="#linearGradient1535"
       id="linearGradient905"
       x1="0.0048523550"
       y1="-0.097928792"
       x2="0.99029034"
       y2="1.0497539" />
    <linearGradient
       xlink:href="#linearGradient1535"
       id="linearGradient939"
       x1="0.0041322312"
       y1="0.023437500"
       x2="0.98347110"
       y2="0.97656250" />
    <linearGradient
       xlink:href="#linearGradient1535"
       id="linearGradient948" />
    <radialGradient
       xlink:href="#linearGradient1535"
       id="radialGradient921" />
    <linearGradient
       xlink:href="#linearGradient1535"
       id="linearGradient1136" />
    <linearGradient
       xlink:href="#linearGradient1535"
       id="linearGradient1138" />
    <linearGradient
       xlink:href="#linearGradient1535"
       id="linearGradient1140" />
    <linearGradient
       xlink:href="#linearGradient1535"
       id="linearGradient1142" />
    <linearGradient
       xlink:href="#linearGradient1535"
       id="linearGradient1144" />
    <linearGradient
       xlink:href="#linearGradient1535"
       id="linearGradient1146" />
    <linearGradient
       xlink:href="#linearGradient1535"
       id="linearGradient1148" />
    <linearGradient
       xlink:href="#linearGradient1535"
       id="linearGradient1150" />
    <linearGradient
       xlink:href="#linearGradient1535"
       id="linearGradient1152" />
    <linearGradient
       xlink:href="#linearGradient1535"
       id="linearGradient1154" />
    <linearGradient
       xlink:href="#linearGradient1535"
       id="linearGradient1156" />
    <linearGradient
       xlink:href="#linearGradient1535"
       id="linearGradient1158" />
    <linearGradient
       xlink:href="#linearGradient1535"
       id="linearGradient1160" />
    <linearGradient
       xlink:href="#linearGradient1535"
       id="linearGradient1162" />
    <linearGradient
       xlink:href="#linearGradient1535"
       id="linearGradient1165" />
    <linearGradient
       xlink:href="#linearGradient1528"
       id="linearGradient1167"
       x1="-8.7603536e-16"
       y1="0.50000000"
       x2="1.0000000"
       y2="0.50000000" />
    <linearGradient
       xlink:href="#linearGradient1528"
       id="linearGradient1169"
       x1="1.9428903e-16"
       y1="0.50000000"
       x2="1.0000000"
       y2="0.50000000" />
    <linearGradient
       xlink:href="#linearGradient1528"
       id="linearGradient1171"
       x1="2.9004577e-15"
       y1="0.50000000"
       x2="1.0000000"
       y2="0.50000000" />
    <linearGradient
       xlink:href="#linearGradient1528"
       id="linearGradient1173"
       x1="7.4593109e-16"
       y1="0.50000000"
       x2="1.0000000"
       y2="0.50000000" />
    <linearGradient
       xlink:href="#linearGradient1528"
       id="linearGradient1175"
       x1="1.2507356e-15"
       y1="0.50000000"
       x2="1.0000000"
       y2="0.50000000" />
    <linearGradient
       xlink:href="#linearGradient1528"
       id="linearGradient1177"
       x1="1.4398205e-16"
       y1="0.50000000"
       x2="1.0000000"
       y2="0.50000000" />
    <linearGradient
       xlink:href="#linearGradient1528"
       id="linearGradient1179"
       x1="2.5396352e-15"
       y1="0.50000000"
       x2="1.0000000"
       y2="0.50000000" />
    <linearGradient
       xlink:href="#linearGradient1528"
       id="linearGradient1181"
       x1="-9.5236319e-16"
       y1="0.50000000"
       x2="1.0000000"
       y2="0.50000000" />
    <linearGradient
       xlink:href="#linearGradient1528"
       id="linearGradient1183"
       x1="-1.5404344e-15"
       y1="0.50000000"
       x2="1.0000000"
       y2="0.50000000" />
    <linearGradient
       xlink:href="#linearGradient1528"
       id="linearGradient1185"
       x1="1.3166551e-15"
       y1="0.50000000"
       x2="1.0000000"
       y2="0.50000000" />
    <linearGradient
       xlink:href="#linearGradient1528"
       id="linearGradient1187"
       x1="-1.1518564e-15"
       y1="0.50000000"
       x2="1.0000000"
       y2="0.50000000" />
    <linearGradient
       xlink:href="#linearGradient1528"
       id="linearGradient1189"
       x1="2.3019781e-15"
       y1="0.50000000"
       x2="1.0000000"
       y2="0.50000000" />
    <linearGradient
       xlink:href="#linearGradient1528"
       id="linearGradient1191"
       x1="1.0633855e-15"
       y1="0.50000000"
       x2="1.0000000"
       y2="0.50000000" />
    <linearGradient
       xlink:href="#linearGradient1528"
       id="linearGradient1193"
       x1="-1.5959456e-15"
       y1="0.50000000"
       x2="1.0000000"
       y2="0.50000000" />
    <linearGradient
       xlink:href="#linearGradient1528"
       id="linearGradient1195"
       x1="-2.7183117e-15"
       y1="0.50000000"
       x2="1.0000000"
       y2="0.50000000" />
    <linearGradient
       xlink:href="#linearGradient1528"
       id="linearGradient1197"
       x1="-3.2153100e-15"
       y1="0.50000000"
       x2="1.0000000"
       y2="0.50000000" />
    <linearGradient
       xlink:href="#linearGradient1528"
       id="linearGradient1199"
       x1="2.6298408e-15"
       y1="0.50000000"
       x2="1.0000000"
       y2="0.50000000" />
    <linearGradient
       xlink:href="#linearGradient1528"
       id="linearGradient1201"
       x1="3.3252481e-16"
       y1="0.50000000"
       x2="1.0000000"
       y2="0.50000000" />
    <linearGradient
       xlink:href="#linearGradient1535"
       id="linearGradient1447" />
    <linearGradient
       xlink:href="#linearGradient1528"
       id="linearGradient1449"
       x1="1.5254725e-16"
       y1="0.50000000"
       x2="1.0000000"
       y2="0.50000000" />
    <linearGradient
       xlink:href="#linearGradient1535"
       id="linearGradient1451" />
    <linearGradient
       xlink:href="#linearGradient1528"
       id="linearGradient1454"
       x1="-2.1412993e-17"
       y1="0.50000000"
       x2="1.0000000"
       y2="0.50000000" />
    <linearGradient
       xlink:href="#linearGradient1535"
       id="linearGradient1456" />
    <linearGradient
       xlink:href="#linearGradient1528"
       id="linearGradient1458"
       x1="3.5778672e-18"
       y1="0.50000000"
       x2="1.0000000"
       y2="0.50000000" />
    <linearGradient
       xlink:href="#linearGradient1535"
       id="linearGradient1460" />
    <linearGradient
       xlink:href="#linearGradient1528"
       id="linearGradient1462"
       x1="-2.7430315e-17"
       y1="0.50000000"
       x2="1.0000000"
       y2="0.50000000" />
    <linearGradient
       xlink:href="#linearGradient1535"
       id="linearGradient1473" />
    <linearGradient
       xlink:href="#linearGradient1528"
       id="linearGradient1477"
       x1="-3.1528599e-16"
       y1="0.50000000"
       x2="1.0000000"
       y2="0.50000000" />
    <linearGradient
       xlink:href="#linearGradient1528"
       id="linearGradient1479"
       x1="4.2674198e-16"
       y1="0.50000000"
       x2="1.0000000"
       y2="0.50000000" />
    <linearGradient
       xlink:href="#linearGradient1535"
       id="linearGradient1481" />
    <linearGradient
       xlink:href="#linearGradient1535"
       id="linearGradient1483" />
    <linearGradient
       xlink:href="#linearGradient1528"
       id="linearGradient1485"
       x1="6.1105634e-16"
       y1="0.50000000"
       x2="1.0000000"
       y2="0.50000000" />
    <linearGradient
       xlink:href="#linearGradient1535"
       id="linearGradient1487" />
    <linearGradient
       xlink:href="#linearGradient1528"
       id="linearGradient1489"
       x1="-3.9464959e-17"
       y1="0.50000000"
       x2="1.0000000"
       y2="0.50000000" />
    <linearGradient
       xlink:href="#linearGradient1535"
       id="linearGradient1503" />
    <linearGradient
       xlink:href="#linearGradient1528"
       id="linearGradient1506"
       x1="4.2121254e-17"
       y1="0.50000000"
       x2="1.0000000"
       y2="0.50000000" />
    <linearGradient
       xlink:href="#linearGradient1535"
       id="linearGradient1509" />
    <linearGradient
       xlink:href="#linearGradient1528"
       id="linearGradient1511"
       x1="1.0737938e-15"
       y1="0.50000000"
       x2="1.0000000"
       y2="0.50000000" />
    <linearGradient
       xlink:href="#linearGradient1535"
       id="linearGradient1523"
       x1="-1.9434324e-17"
       y1="0.50000000"
       x2="1.0000000"
       y2="0.50000000" />
  </defs>
  <path
     style="fill:#000000;fill-rule:evenodd;stroke:none;stroke-width:1.8750000;stroke-dasharray:none;fill-opacity:0.30000001;"
     d="M 9.9569721,6.0924028 C 12.388968,3.9036061 48.625712,4.3900045 51.057708,9.4971971 C 53.489703,14.604389 57.380897,41.599547 54.948902,44.517942 C 52.516906,47.436339 20.171355,63.001114 16.036962,59.353119 C 11.902568,55.705125 5.8225793,8.7675981 9.9569721,6.0924028 z "
     id="path1013" />
  <path
     style="fill:url(#linearGradient901);fill-rule:evenodd;stroke:#261933;stroke-width:1.8750000;stroke-dasharray:none;"
     d="M 7.0683411,2.9733300 C 9.5003378,0.78453334 45.737081,1.2709317 48.169077,6.3781243 C 50.601073,11.485317 54.492266,38.480475 52.060271,41.398870 C 49.628275,44.317266 17.282725,59.882041 13.148332,56.234046 C 9.0139380,52.586052 2.9339484,5.6485254 7.0683411,2.9733300 z "
     id="path924" />
  <path
     style="fill:url(#linearGradient641);fill-rule:evenodd;stroke:#261933;stroke-width:1.2500000;stroke-dasharray:none;"
     d="M 10.126549,5.9275156 C 12.264509,4.6536024 43.644166,4.5590452 45.665232,7.9731287 C 47.686298,11.387212 50.924639,32.839642 49.801766,34.487046 C 48.265158,36.741453 14.761721,50.316441 13.124181,46.762223 C 11.346723,42.904317 6.8076277,7.9051092 10.126549,5.9275156 z "
     id="path1001"
     sodipodi:nodetypes="cssss" />
  <path
     style="fill:url(#linearGradient638);fill-rule:evenodd;stroke:none;stroke-opacity:1.0000000;stroke-width:0.12500000;stroke-linejoin:miter;stroke-linecap:butt;stroke-dasharray:none;fill-opacity:1.0000000;"
     d="M 12.656250,37.031250 C 10.781250,26.406250 9.8437500,8.2812499 10.781250,6.8749999 C 11.718750,5.4687499 35.312500,5.7812499 43.906250,8.1249999 C 52.500000,10.468750 18.750000,5.6249999 14.062500,8.9062499 C 9.3750000,12.187500 14.062500,32.656250 12.656250,37.031250 z "
     id="path1016" />
  <path
     style="fill:#000000;stroke:none;stroke-width:0.62500000;fill-opacity:0.30000001;"
     d="M 33.776372,7.5383018 C 33.627961,7.5773571 33.627372,7.8297065 33.814862,8.1733933 C 34.189749,8.8607728 34.377688,11.917390 34.315238,12.792241 C 34.252694,13.667082 33.564475,15.414804 33.314488,15.852225 C 33.064596,16.289657 32.996548,16.174633 32.621661,16.237130 C 32.246679,16.299617 31.875211,16.241892 31.062800,16.179395 C 30.250483,16.116907 29.248047,16.049657 28.310737,16.237130 C 27.373427,16.424592 27.497430,16.304379 27.309987,16.179395 C 27.122543,16.054419 27.011291,15.553122 26.636405,14.678269 C 26.261424,13.803428 26.010341,11.179472 25.385468,10.117157 C 24.760594,9.0548449 24.826862,9.2952906 24.326981,10.232629 C 23.827101,11.169968 23.754340,15.415033 23.691889,16.102414 C 23.629440,16.789830 23.763167,16.987894 22.825857,17.237880 C 21.888546,17.487773 22.610814,17.542112 20.959072,17.006937 C 20.133186,16.739352 18.962442,16.617588 18.130029,16.622034 C 17.297625,16.626386 16.972126,16.805259 16.128528,17.180144 C 14.441323,17.930012 14.729186,17.831396 12.876089,19.662774 C 12.126217,20.412642 12.015734,20.298363 12.953071,20.798242 C 13.890400,21.298217 15.638809,22.049180 16.763620,22.049180 C 17.888420,22.049180 19.036596,21.997300 20.574169,21.106164 C 22.111750,20.215123 21.636573,20.387730 22.190766,21.702766 C 22.744957,23.017800 23.701909,27.229815 24.076794,31.229138 C 24.451774,35.228462 26.137126,37.672459 27.386968,38.734764 C 28.636714,39.797068 29.750014,41.357614 30.562425,42.044938 C 31.374741,42.732355 33.445386,41.856800 34.507689,41.294375 C 35.569994,40.732046 35.730755,40.841811 36.855605,40.466831 C 37.980356,40.091946 38.059224,40.533594 38.934085,39.908720 C 39.808947,39.283847 39.752105,39.600103 39.877099,38.850235 C 40.002093,38.100367 40.444733,37.920067 40.319739,36.232889 C 40.194746,34.545618 40.011615,33.104054 39.761628,31.479326 C 39.511735,29.854596 39.059079,26.176182 38.934085,25.051429 C 38.809091,23.926581 38.183122,21.042524 37.683146,19.855226 C 37.183267,18.667930 38.188733,19.480141 38.626161,19.605038 C 39.063592,19.730034 42.254476,19.614467 42.879350,19.489569 C 43.504224,19.364575 44.635872,18.988698 45.073302,18.488818 C 45.510733,17.988938 46.440407,18.175191 47.190274,17.237880 C 47.940142,16.300503 46.944105,15.611085 46.131788,14.986193 C 45.319376,14.361300 45.313271,14.678030 44.688399,14.428081 C 44.063525,14.178122 43.743993,14.048158 42.244260,14.235629 C 40.744524,14.423101 38.875653,15.429288 38.125787,15.929207 C 37.375919,16.429116 37.066606,16.930157 36.316738,17.180144 C 35.566871,17.430132 35.451105,16.737018 35.951079,16.237130 C 36.450959,15.737212 36.884572,14.672364 37.009564,13.485067 C 37.134560,12.297778 37.014079,12.353657 36.701642,11.541303 C 36.389206,10.728956 35.435478,9.1732290 34.623161,8.1733933 C 34.217003,7.6734818 33.924784,7.4992453 33.776372,7.5383018 z "
     id="path1012" />
  <path
     style="fill:#261933;stroke:none;stroke-width:0.62500000;fill-opacity:1.0000000;"
     d="M 32.110519,6.2548072 C 31.962108,6.2938624 31.961519,6.5462115 32.149009,6.8898987 C 32.523896,7.5772785 32.711835,10.633894 32.649385,11.508746 C 32.586841,12.383588 31.898622,14.131310 31.648634,14.568732 C 31.398743,15.006164 31.330694,14.891138 30.955807,14.953635 C 30.580826,15.016123 30.209358,14.958397 29.396946,14.895901 C 28.584629,14.833412 27.582194,14.766163 26.644884,14.953635 C 25.707574,15.141097 25.831577,15.020885 25.644134,14.895901 C 25.456690,14.770924 25.345437,14.269628 24.970551,13.394775 C 24.595571,12.519933 24.344488,9.8959776 23.719615,8.8336628 C 23.094741,7.7713500 23.161008,8.0117956 22.661128,8.9491344 C 22.161248,9.8864734 22.088486,14.131540 22.026036,14.818921 C 21.963587,15.506337 22.097313,15.704399 21.160003,15.954386 C 20.222692,16.204278 20.944960,16.258617 19.293219,15.723444 C 18.467333,15.455857 17.296589,15.334093 16.464176,15.338539 C 15.631771,15.342892 15.306272,15.521764 14.462674,15.896650 C 12.775470,16.646519 13.063332,16.547901 11.210236,18.379281 C 10.460363,19.129148 10.349880,19.014868 11.287217,19.514747 C 12.224547,20.014722 13.972956,20.765685 15.097765,20.765685 C 16.222567,20.765685 17.370742,20.713806 18.908315,19.822670 C 20.445897,18.931629 19.970719,19.104237 20.524911,20.419271 C 21.079104,21.734307 22.036055,25.946320 22.410940,29.945643 C 22.785921,33.944967 24.471273,36.388966 25.721115,37.451270 C 26.970860,38.513573 28.084160,40.074121 28.896572,40.761443 C 29.708888,41.448862 31.779533,40.573305 32.841836,40.010881 C 33.904140,39.448552 34.064902,39.558318 35.189752,39.183336 C 36.314503,38.808451 36.393370,39.250100 37.268232,38.625227 C 38.143094,38.000353 38.086252,38.316609 38.211246,37.566740 C 38.336239,36.816874 38.778880,36.636573 38.653886,34.949395 C 38.528892,33.262123 38.345762,31.820559 38.095775,30.195831 C 37.845882,28.571103 37.393225,24.892688 37.268232,23.767936 C 37.143238,22.643088 36.517269,19.759030 36.017293,18.571732 C 35.517414,17.384435 36.522878,18.196646 36.960308,18.321545 C 37.397739,18.446540 40.588623,18.330973 41.213497,18.206074 C 41.838371,18.081080 42.970019,17.705204 43.407448,17.205324 C 43.844879,16.705444 44.774554,16.891697 45.524421,15.954386 C 46.274289,15.017009 45.278252,14.327590 44.465934,13.702698 C 43.653522,13.077806 43.647418,13.394536 43.022545,13.144587 C 42.397672,12.894628 42.078140,12.764663 40.578407,12.952136 C 39.078671,13.139607 37.209800,14.145795 36.459934,14.645713 C 35.710066,15.145622 35.400752,15.646663 34.650885,15.896650 C 33.901017,16.146637 33.785252,15.453524 34.285226,14.953635 C 34.785106,14.453719 35.218719,13.388871 35.343711,12.201572 C 35.468706,11.014284 35.348226,11.070164 35.035789,10.257808 C 34.723352,9.4454624 33.769624,7.8897342 32.957308,6.8898987 C 32.551150,6.3899873 32.258931,6.2157511 32.110519,6.2548072 z "
     id="path1002" />
  <path
     style="fill:url(#linearGradient1522);stroke:none;stroke-width:0.62500000;fill-opacity:1.0000000;"
     d="M 29.242986,15.954386 C 29.971362,15.932635 30.701951,16.014945 31.571653,16.493251 C 33.311061,17.449960 33.869690,16.976311 34.304472,18.802675 C 34.739348,20.629039 35.275201,24.883263 35.536164,26.231321 C 35.797033,27.579378 36.363002,32.242880 36.536914,32.851667 C 36.710826,33.460456 36.883516,33.626417 35.709370,33.582986 C 34.535226,33.539460 33.013115,33.463797 31.186749,34.333548 C 29.360386,35.203206 27.830229,36.332837 27.395446,36.854669 C 26.960571,37.376501 26.960053,37.102127 26.394696,36.623726 C 25.829434,36.145421 24.692651,34.498379 24.431687,33.063365 C 24.170819,31.628352 23.570687,28.760393 23.527162,28.021124 C 23.483636,27.281855 23.392444,26.623377 23.392444,26.058113 C 23.175006,24.405662 23.143764,23.507961 22.795845,22.420773 C 22.448018,21.333677 21.483642,18.767197 21.179247,18.071357 C 20.874854,17.375614 21.055825,17.186879 21.795093,17.012872 C 22.534364,16.838959 25.300355,15.982806 26.952808,16.069858 C 27.779033,16.113335 28.514609,15.976136 29.242986,15.954386 z "
     id="path1007" />
  <path
     style="fill:#261933;stroke:none;stroke-width:0.62500000;fill-opacity:1.0000000;"
     d="M 26.223063,23.213794 C 25.938619,23.226144 25.585017,23.341483 25.040860,23.564075 C 24.397837,24.009369 24.044344,24.717051 24.143263,25.162239 C 24.242179,25.607424 24.344310,25.905786 24.690577,26.103623 C 25.036845,26.301459 25.635064,26.499402 26.179277,26.103623 C 26.723383,25.707842 26.954352,25.700722 27.449050,25.206024 C 27.943751,24.711432 27.462110,23.965476 26.967412,23.520291 C 26.720064,23.297698 26.507506,23.201441 26.223063,23.213794 z "
     id="path1011" />
  <path
     style="fill:#261933;stroke:none;stroke-width:0.62500000;fill-opacity:1.0000000;"
     d="M 31.602225,20.423391 C 30.443258,20.404377 30.205882,21.059765 30.357844,21.667770 C 30.509971,22.275613 31.070281,22.743993 31.602225,22.743993 C 32.134167,22.743993 33.014767,22.259414 33.014767,21.499615 C 33.014767,20.739648 32.666111,20.461255 31.602225,20.423391 z "
     id="path1010" />
  <path
     style="fill:url(#linearGradient1534);stroke:none;stroke-width:0.62500000;fill-opacity:1.0000000;"
     d="M 19.370200,17.667210 C 19.848563,17.688970 19.812840,17.750142 19.812839,18.032867 C 19.812839,18.315498 19.869592,18.246282 19.543406,18.398526 C 19.217268,18.550771 17.467871,19.165110 16.772098,19.360786 C 16.076325,19.556459 15.474144,19.762417 15.213237,19.784180 C 14.952321,19.805847 14.332373,19.655910 13.288718,19.264560 C 12.701665,19.112315 12.428712,19.005102 12.711362,18.918147 C 12.994021,18.831190 13.028832,18.784135 13.615887,18.610224 C 14.202940,18.436310 16.360015,18.009387 17.099267,17.878905 C 17.838527,17.748424 18.891855,17.645446 19.370200,17.667210 z "
     id="path1009" />
  <path
     style="fill:url(#linearGradient1532);stroke:none;stroke-width:0.62500000;fill-opacity:1.0000000;"
     d="M 16.656627,16.204574 C 18.120927,16.267118 18.408406,16.459770 18.908315,16.647213 C 19.408233,16.834656 19.032833,16.882965 18.407940,16.820420 C 17.783047,16.757971 15.732401,16.801175 15.232482,16.801175 C 14.732576,16.801175 14.718081,16.661449 15.155503,16.474006 C 15.592923,16.286469 16.094222,16.204574 16.656627,16.204574 z "
     id="path1008" />
  <path
     style="fill:url(#linearGradient896);stroke:none;stroke-width:0.62500000;fill-opacity:1.0000000;"
     d="M 42.695377,15.588727 C 43.260734,15.566965 43.321199,15.648275 43.234242,15.800425 C 43.147286,15.952668 42.742830,16.305035 42.329718,16.435516 C 41.916604,16.565998 41.600613,16.547058 41.078780,16.916645 C 40.556948,17.286328 39.757097,17.438783 38.865583,17.417022 C 37.974163,17.395353 37.339965,17.557478 36.883328,17.340041 C 36.426784,17.122603 36.282704,16.995134 36.652384,16.647213 C 37.021972,16.299293 37.306321,16.315716 37.980303,16.185329 C 38.654285,16.054847 38.957786,15.995299 39.327467,15.973631 C 40.479851,15.886581 41.151033,15.817858 41.694627,15.665708 C 42.238222,15.513464 42.130115,15.610491 42.695377,15.588727 z "
     id="path1006" />
  <path
     style="fill:url(#linearGradient1567);stroke:none;stroke-width:0.62500000;fill-opacity:1.0000000;"
     d="M 41.059535,14.183829 C 41.929286,14.205573 42.284782,14.317799 42.676132,14.491751 C 43.067576,14.665691 43.241489,14.712699 42.676132,14.799675 C 42.110870,14.886650 40.700112,15.003885 39.808597,15.069106 C 38.917177,15.134338 38.164992,15.217328 37.730117,15.434766 C 37.295241,15.652204 36.932805,15.673872 37.172006,15.434766 C 37.411111,15.195565 37.632384,14.908393 37.980303,14.799675 C 38.915249,14.560503 39.109324,14.533475 39.500674,14.337790 C 39.892025,14.142104 40.189784,14.162084 41.059535,14.183829 z "
     id="path1005" />
  <path
     style="fill:url(#linearGradient1527);stroke:none;stroke-width:0.62500000;fill-opacity:1.0000000;"
     d="M 23.661878,11.835914 C 23.694487,11.846786 23.728884,11.969896 23.815840,12.143838 C 23.989753,12.491719 24.229258,13.398303 24.316215,13.702698 C 24.403170,14.007100 24.650134,14.618237 24.758854,14.857411 C 24.867573,15.096572 24.998761,15.333600 24.585647,15.377030 C 24.172533,15.420556 24.002246,15.492502 23.719615,15.492502 C 23.436983,15.492502 23.197476,15.287251 23.219238,14.895901 C 23.241003,14.504521 23.235966,14.254057 23.257729,14.145338 C 23.279396,13.014717 23.415925,12.578693 23.546407,12.143838 C 23.611647,11.926410 23.629270,11.825042 23.661878,11.835914 z "
     id="path1004" />
  <path
     style="fill:url(#linearGradient1539);stroke:none;stroke-width:0.62500000;fill-opacity:1.0000000;"
     d="M 33.438438,8.9683798 C 33.457457,8.9466367 33.511289,9.0246424 33.630890,9.3725279 C 33.870090,10.068292 34.017511,10.413821 34.169755,11.066106 C 34.321905,11.718382 34.131264,12.457788 34.131264,12.740438 C 34.131265,13.023097 34.057508,13.288852 33.861831,13.875905 C 33.666156,14.462967 33.398935,14.777931 33.072779,14.799675 C 32.746716,14.821418 32.684346,14.895901 32.379953,14.895901 C 32.075557,14.895901 32.104778,14.851392 32.322217,14.568732 C 32.539654,14.286074 33.228553,12.990786 33.380702,11.816669 C 33.445991,11.229616 33.361457,10.725424 33.361457,10.507995 C 33.361457,10.290575 33.553908,10.063591 33.553908,9.9113939 C 33.553908,9.7591964 33.438438,9.4359950 33.438438,9.2185665 C 33.438438,9.1098586 33.419418,8.9901221 33.438438,8.9683798 z "
     id="path1003" />
</svg>
