<?xml version="1.0" encoding="UTF-8" standalone="no"?>
<!DOCTYPE svg PUBLIC "-//W3C//DTD SVG 20010904//EN"
"http://www.w3.org/TR/2001/REC-SVG-20010904/DTD/svg10.dtd">
<!-- Created with Inkscape (http://www.inkscape.org/) -->
<svg
   id="svg1"
   sodipodi:version="0.32"
   inkscape:version="0.40"
   width="48pt"
   height="48pt"
   sodipodi:docbase="/home/scaba"
   sodipodi:docname="mono.svg"
   xmlns="http://www.w3.org/2000/svg"
   xmlns:cc="http://web.resource.org/cc/"
   xmlns:inkscape="http://www.inkscape.org/namespaces/inkscape"
   xmlns:sodipodi="http://sodipodi.sourceforge.net/DTD/sodipodi-0.dtd"
   xmlns:rdf="http://www.w3.org/1999/02/22-rdf-syntax-ns#"
   xmlns:dc="http://purl.org/dc/elements/1.1/"
   xmlns:xlink="http://www.w3.org/1999/xlink">
  <defs
     id="defs3">
    <linearGradient
       id="linearGradient652">
      <stop
         style="stop-color:#ffffff;stop-opacity:0;"
         offset="0.00000000"
         id="stop653" />
      <stop
         style="stop-color:#000000;stop-opacity:1;"
         offset="1.00000000"
         id="stop654" />
    </linearGradient>
    <linearGradient
       id="linearGradient916">
      <stop
         style="stop-color:#cccccc;stop-opacity:1;"
         offset="0.00000000"
         id="stop917" />
      <stop
         style="stop-color:#7f7f7f;stop-opacity:1;"
         offset="1.00000000"
         id="stop918" />
    </linearGradient>
    <linearGradient
       id="linearGradient866">
      <stop
         style="stop-color:#ffffff;stop-opacity:1;"
         offset="0.00000000"
         id="stop867" />
      <stop
         style="stop-color:#d9d1e1;stop-opacity:1;"
         offset="1.00000000"
         id="stop868" />
    </linearGradient>
    <linearGradient
       id="linearGradient584">
      <stop
         style="stop-color:#ffffff;stop-opacity:1;"
         offset="0.00000000"
         id="stop585" />
      <stop
         style="stop-color:#ffffff;stop-opacity:0;"
         offset="1.00000000"
         id="stop586" />
    </linearGradient>
    <linearGradient
       id="linearGradient578">
      <stop
         style="stop-color:#d9cce6;stop-opacity:1.0000000;"
         offset="0.0000000"
         id="stop579" />
      <stop
         style="stop-color:#73667f;stop-opacity:1;"
         offset="1.00000000"
         id="stop580" />
    </linearGradient>
    <linearGradient
       xlink:href="#linearGradient578"
       id="linearGradient581"
       x1="-0.11255837"
       y1="5.9927979"
       x2="51.132161"
       y2="57.097237"
       gradientTransform="matrix(0.953207,0.000000,0.000000,1.049090,0.335934,-0.320140)"
       gradientUnits="userSpaceOnUse" />
    <linearGradient
       xlink:href="#linearGradient584"
       id="linearGradient583"
       x1="0.65723406"
       y1="37.766404"
       x2="12.794296"
       y2="49.624964"
       gradientTransform="matrix(1.751836,0.000000,0.000000,0.570830,0.335934,-0.320140)"
       gradientUnits="userSpaceOnUse" />
    <linearGradient
       xlink:href="#linearGradient584"
       id="linearGradient860"
       x1="6.6989932"
       y1="13.647925"
       x2="19.579314"
       y2="26.266756"
       gradientTransform="matrix(1.657309,0.000000,0.000000,0.603388,0.335934,-0.320140)"
       gradientUnits="userSpaceOnUse" />
    <linearGradient
       xlink:href="#linearGradient578"
       id="linearGradient861" />
    <linearGradient
       xlink:href="#linearGradient866"
       id="linearGradient862"
       x1="0.00617284"
       y1="0.01550388"
       x2="1.00000000"
       y2="0.96899223" />
    <linearGradient
       xlink:href="#linearGradient916"
       id="linearGradient869"
       x1="0.00641026"
       y1="0.01550388"
       x2="0.97435898"
       y2="0.95348835" />
    <linearGradient
       xlink:href="#linearGradient584"
       id="linearGradient915"
       x1="-0.00000000"
       y1="0.00531915"
       x2="0.98550725"
       y2="0.97872341" />
    <linearGradient
       xlink:href="#linearGradient584"
       id="linearGradient655"
       x1="-0.00317460"
       y1="-0.00000000"
       x2="0.99047619"
       y2="0.98347110" />
    <linearGradient
       xlink:href="#linearGradient584"
       id="linearGradient616"
       x1="0.00289855"
       y1="0.01639344"
       x2="0.99130434"
       y2="0.99180329" />
    <linearGradient
       xlink:href="#linearGradient584"
       id="linearGradient618"
       x1="0.00579710"
       y1="-0.00000000"
       x2="0.99710143"
       y2="1.00000000" />
    <linearGradient
       inkscape:collect="always"
       xlink:href="#linearGradient578"
       id="linearGradient1094"
       gradientUnits="userSpaceOnUse"
       gradientTransform="matrix(0.953207,0.000000,0.000000,1.049090,0.335934,-0.320140)"
       x1="-0.11255837"
       y1="5.9927979"
       x2="51.132161"
       y2="57.097237" />
    <linearGradient
       inkscape:collect="always"
       xlink:href="#linearGradient584"
       id="linearGradient1095"
       gradientUnits="userSpaceOnUse"
       gradientTransform="matrix(1.751836,0.000000,0.000000,0.570830,0.335934,-0.320140)"
       x1="0.65723406"
       y1="37.766404"
       x2="12.794296"
       y2="49.624964" />
    <linearGradient
       inkscape:collect="always"
       xlink:href="#linearGradient584"
       id="linearGradient1096"
       gradientUnits="userSpaceOnUse"
       gradientTransform="matrix(1.657309,0.000000,0.000000,0.603388,0.335934,-0.320140)"
       x1="6.6989932"
       y1="13.647925"
       x2="19.579314"
       y2="26.266756" />
  </defs>
  <sodipodi:namedview
     id="base"
     pagecolor="#ffffff"
     bordercolor="#666666"
     borderopacity="1.0"
     inkscape:pageopacity="0.0"
     inkscape:pageshadow="2"
     inkscape:zoom="3.2490096"
     inkscape:cx="36.333394"
     inkscape:cy="26.187330"
     inkscape:window-width="751"
     inkscape:window-height="615"
     inkscape:window-x="247"
     inkscape:window-y="86"
     borderlayer="top"
     showguides="true"
     inkscape:guide-bbox="true"
     inkscape:current-layer="svg1" />
  <metadata
     id="metadata35">
    <rdf:RDF
       id="RDF36">
      <cc:Work
         rdf:about=""
         id="Work37">
        <dc:format
           id="format38">image/svg+xml</dc:format>
        <dc:type
           id="type40"
           rdf:resource="http://purl.org/dc/dcmitype/StillImage" />
      </cc:Work>
    </rdf:RDF>
  </metadata>
  <path
     style="opacity:0.29999998;fill:#000000;fill-opacity:1.0000000;fill-rule:evenodd;stroke:none;stroke-width:1.2499408;stroke-linecap:butt;stroke-linejoin:miter;stroke-miterlimit:4.0000000;stroke-opacity:1.0000000;"
     d="M 3.2027633,26.655042 L 14.559641,23.526497 L 22.244233,26.723054 C 16.849150,23.662521 5.4015989,20.261930 13.811582,10.808285 L 28.160689,12.848640 L 20.680112,11.352380 C 26.664573,7.4076931 46.046067,11.760451 47.202157,12.848640 C 49.378324,14.957007 51.826513,25.770888 50.330398,27.131125 C 49.310318,28.015279 39.313548,25.430829 39.313548,25.430829 L 47.746199,28.083290 C 50.783766,34.997827 51.101124,41.640318 49.514335,48.214795 C 45.116662,45.335628 41.263032,42.252425 37.953444,37.740973 C 40.605649,43.726014 44.209925,47.058594 49.174308,49.575032 C 48.086224,52.680906 46.862130,55.446721 45.093994,58.076512 L 20.272081,47.398654 L 10.122504,59.674792 L 3.2027633,59.668098 L 3.2027633,26.655042 z "
     id="path936"
     sodipodi:nodetypes="cccccccccccccccccc"
     transform="matrix(1.102200,0.000000,0.000000,1.102200,1.996554,-6.122855)" />
  <path
     style="fill:url(#linearGradient1094);fill-opacity:1.0000000;fill-rule:evenodd;stroke:#261933;stroke-width:1.8750000;stroke-linecap:butt;stroke-linejoin:miter;stroke-miterlimit:4.0000000;stroke-opacity:1.0000000;"
     d="M 0.96090282,23.416686 L 12.317780,20.288141 L 20.002372,23.484698 C 14.607289,20.424165 3.1597388,17.023574 11.569721,7.5699296 L 25.918828,9.6102849 L 18.438251,8.1140243 C 24.422712,4.1693378 43.804206,8.5220958 44.960296,9.6102849 C 47.136463,11.718650 49.584652,22.532532 48.088537,23.892769 C 47.068457,24.776923 37.071687,22.192473 37.071687,22.192473 L 45.504338,24.844934 C 48.541905,31.759471 48.859263,38.401961 47.272474,44.976438 C 42.874801,42.097271 39.021171,39.014068 35.711583,34.502616 C 38.363788,40.487657 41.968064,43.820237 46.932447,46.336675 C 45.844363,49.442549 44.620269,52.208364 42.852133,54.838155 L 18.030220,44.160297 L 5.7212699,59.054888 L 0.96090282,59.054889 L 0.96090282,23.416686 z "
     id="path940"
     sodipodi:nodetypes="cccccccccccccccccc"
     transform="matrix(1.102200,0.000000,0.000000,1.102200,1.996554,-6.122855)" />
  <path
     style="fill:url(#linearGradient1095);fill-opacity:1.0000000;fill-rule:evenodd;stroke:none;stroke-width:1.0000000pt;stroke-linecap:butt;stroke-linejoin:miter;stroke-opacity:1.0000000;"
     d="M 1.4872996,24.121377 L 12.050459,21.128860 L 19.107180,24.041696 C 20.104686,23.406920 20.343393,21.709293 22.099698,22.137367 C 23.984659,22.596799 22.371745,25.129885 20.195369,27.034214 C 18.018992,28.938543 14.193832,26.891355 11.536539,27.707496 C 6.8594000,29.293102 3.4383049,25.877347 1.4872996,24.121377 z "
     id="path3428"
     sodipodi:nodetypes="ccczscc"
     transform="matrix(1.102200,0.000000,0.000000,1.102200,1.996554,-6.122855)" />
  <path
     style="fill:url(#linearGradient1096);fill-opacity:1.0000000;fill-rule:evenodd;stroke:none;stroke-width:1.0000000pt;stroke-linecap:butt;stroke-linejoin:miter;stroke-opacity:1.0000000;"
     d="M 11.761910,8.3989924 L 25.228239,10.439344 L 26.180404,9.0791100 L 21.419580,7.9909218 L 32.845557,7.8548983 C 32.845557,7.8548983 30.805204,8.5350159 29.853039,10.303320 C 28.900874,12.071626 27.268592,15.880285 24.684145,15.064144 C 22.099698,14.248003 16.114663,17.240520 13.258169,14.384026 C 10.401675,11.527532 11.761910,8.3989924 11.761910,8.3989924 z "
     id="path4050"
     transform="matrix(1.102200,0.000000,0.000000,1.102200,1.996554,-6.122855)" />
</svg>
