<?xml version="1.0" encoding="UTF-8" standalone="no"?>
<!DOCTYPE svg PUBLIC "-//W3C//DTD SVG 20010904//EN"
"http://www.w3.org/TR/2001/REC-SVG-20010904/DTD/svg10.dtd">
<!-- Created with Inkscape (http://www.inkscape.org/) -->
<svg
   id="svg1"
   sodipodi:version="0.32"
   inkscape:version="0.38"
   width="64pt"
   height="64pt"
   sodipodi:docbase="/home/dan/Projects/Lila-icons/scalable/apps"
   sodipodi:docname="mozilla.svg"
   xmlns="http://www.w3.org/2000/svg"
   xmlns:inkscape="http://www.inkscape.org/namespaces/inkscape"
   xmlns:sodipodi="http://sodipodi.sourceforge.net/DTD/sodipodi-0.dtd"
   xmlns:xlink="http://www.w3.org/1999/xlink">
  <defs
     id="defs3">
    <linearGradient
       id="linearGradient591">
      <stop
         style="stop-color:#ffffff;stop-opacity:1;"
         offset="0.00000000"
         id="stop592" />
      <stop
         style="stop-color:#ffffff;stop-opacity:0;"
         offset="1.00000000"
         id="stop593" />
    </linearGradient>
    <linearGradient
       id="linearGradient582">
      <stop
         style="stop-color:#d9cce6;stop-opacity:1;"
         offset="0.00000000"
         id="stop583" />
      <stop
         style="stop-color:#73667f;stop-opacity:1;"
         offset="1.00000000"
         id="stop584" />
    </linearGradient>
    <linearGradient
       id="linearGradient577">
      <stop
         style="stop-color:#000000;stop-opacity:1;"
         offset="0.00000000"
         id="stop578" />
      <stop
         style="stop-color:#ffffff;stop-opacity:1;"
         offset="1.00000000"
         id="stop579" />
    </linearGradient>
    <linearGradient
       xlink:href="#linearGradient582"
       id="linearGradient580"
       x1="0.013422819"
       y1="0.012987013"
       x2="0.99328858"
       y2="0.96753246" />
    <radialGradient
       xlink:href="#linearGradient591"
       id="radialGradient581"
       cx="0.98863637"
       cy="0.01562500"
       r="1.16435087"
       fx="0.98863637"
       fy="0.01562500" />
    <linearGradient
       xlink:href="#linearGradient591"
       id="linearGradient590"
       x1="0.019607844"
       y1="0.012987013"
       x2="0.98039216"
       y2="0.98051947" />
    <radialGradient
       xlink:href="#linearGradient591"
       id="radialGradient601"
       cx="1.10000002"
       cy="0.98437500"
       r="1.15056360"
       fx="1.10000002"
       fy="0.98437500" />
    <linearGradient
       xlink:href="#linearGradient591"
       id="linearGradient632"
       x1="0.42105263"
       y1="0.04687500"
       x2="0.68421054"
       y2="0.26562500" />
    <linearGradient
       xlink:href="#linearGradient591"
       id="linearGradient633"
       x1="0.03174603"
       y1="0.04687500"
       x2="0.52380955"
       y2="0.48437500" />
    <linearGradient
       xlink:href="#linearGradient591"
       id="linearGradient634"
       x1="0.06172840"
       y1="0.09375000"
       x2="0.92592591"
       y2="0.67187500" />
    <linearGradient
       xlink:href="#linearGradient591"
       id="linearGradient635"
       x1="0.07432432"
       y1="0.07812500"
       x2="0.72297299"
       y2="0.46875000" />
    <linearGradient
       xlink:href="#linearGradient591"
       id="linearGradient636"
       x1="0.06060606"
       y1="0.18750000"
       x2="0.65151513"
       y2="0.50000000" />
    <linearGradient
       xlink:href="#linearGradient591"
       id="linearGradient637"
       x1="0.04385965"
       y1="0.17187500"
       x2="0.60526317"
       y2="0.60937500" />
    <linearGradient
       xlink:href="#linearGradient591"
       id="linearGradient638"
       x1="0.14864865"
       y1="0.10937500"
       x2="0.47297296"
       y2="0.50000000" />
    <linearGradient
       xlink:href="#linearGradient591"
       id="linearGradient639"
       x1="0.08870967"
       y1="0.10937500"
       x2="0.68548387"
       y2="0.51562500" />
    <linearGradient
       xlink:href="#linearGradient591"
       id="linearGradient640" />
    <linearGradient
       xlink:href="#linearGradient591"
       id="linearGradient641" />
    <linearGradient
       xlink:href="#linearGradient591"
       id="linearGradient642" />
    <linearGradient
       xlink:href="#linearGradient591"
       id="linearGradient643" />
  </defs>
  <sodipodi:namedview
     id="base"
     pagecolor="#ffffff"
     bordercolor="#666666"
     borderopacity="1.0"
     inkscape:pageopacity="0.0"
     inkscape:pageshadow="2"
     inkscape:zoom="6.6118421"
     inkscape:cx="36.673854"
     inkscape:cy="31.604070"
     inkscape:window-width="997"
     inkscape:window-height="808"
     showgrid="true"
     gridspacingy="2pt"
     gridspacingx="2pt"
     gridtolerance="0.1px"
     inkscape:window-x="47"
     inkscape:window-y="92" />
  <path
     style="font-size:12;fill:#000000;fill-opacity:1.0000000;fill-rule:evenodd;stroke:none;stroke-width:1.875;stroke-dasharray:none;stroke-linejoin:round;stroke-opacity:1;opacity:0.30412371;"
     d="M 54.523653,18.682294 C 55.141813,16.769880 53.879245,9.1694426 58.188175,7.1354208 C 69.944938,1.4744625 75.112008,6.8189440 72.263420,17.139697 C 71.375065,21.960477 63.860713,21.410733 61.300770,22.898168 C 58.743790,24.985206 59.018680,26.757592 59.450896,29.001955 C 59.718362,31.615981 64.844900,34.444400 68.790919,34.931664 C 71.193537,35.061487 73.268715,35.191306 75.998772,34.659216 C 77.937448,33.546568 77.911487,39.880439 75.429731,38.933268 C 73.280022,38.543806 70.758116,37.286191 70.081883,38.551509 C 68.235746,40.203527 71.509672,41.399870 72.774208,43.217364 C 74.646305,44.823684 71.443094,48.746696 69.549641,45.554143 C 68.411559,43.931379 68.249402,42.102378 66.783880,42.299874 C 65.548656,42.319959 65.138423,45.193934 65.376674,47.696192 C 66.392910,51.141981 59.248735,49.805206 61.083567,46.797344 C 61.764407,45.742330 62.910831,43.843620 62.445632,41.464779 C 62.581298,38.631566 58.175055,35.467396 54.381448,34.288964 C 49.412494,33.328986 46.680498,37.471266 43.002121,41.112069 C 40.134305,44.120804 34.557554,46.031367 34.145533,49.536536 C 34.196197,53.456785 38.548329,54.867966 42.037105,55.147693 C 44.640709,55.128198 46.929662,55.366293 49.180250,54.264254 C 52.676742,50.679334 55.250969,60.424778 51.646094,58.353618 C 47.807266,57.711505 47.059932,57.606591 44.530859,58.255694 C 42.409204,58.707304 47.629358,63.876259 48.643949,64.260215 C 53.680978,66.422775 44.294009,72.407640 44.470596,67.056020 C 44.320840,64.623474 41.079591,60.997533 40.329984,61.768569 C 38.132009,62.986842 39.259572,67.303565 40.926934,68.576471 C 43.380618,72.067816 33.817465,72.887058 35.018935,68.419149 C 36.215797,65.702802 36.311378,64.559721 35.777655,62.158031 C 34.469156,55.933897 31.151263,53.873608 28.533005,55.095993 C 22.353530,58.280247 21.085645,60.306157 22.273555,69.116673 C 22.400009,72.751664 23.836219,78.868826 22.652915,80.021646 C 21.534095,81.386652 16.158563,73.650366 14.876023,68.727211 C 14.116046,61.963704 14.338387,54.041851 20.454634,49.429565 C 22.055820,45.704050 18.215897,44.097142 13.923177,43.846669 C 11.684278,43.532159 10.100260,45.037908 7.6976426,45.881745 C 4.7619941,46.870976 4.1184209,41.737514 6.7492418,41.402917 C 9.0886324,41.013455 12.455095,41.475839 11.683812,40.258984 C 11.699723,39.090594 8.2327673,38.394184 5.9566033,37.225794 C 2.6968649,35.431148 5.6584742,31.485285 7.4740459,33.331161 C 9.3109714,35.119403 12.281148,36.153625 14.609234,36.287083 C 15.967562,36.438881 14.423693,32.876788 13.326227,30.215455 C 11.940374,26.328549 19.671676,25.436554 18.757801,29.825991 C 18.070955,33.940971 18.241068,36.186776 19.104422,37.868496 C 21.268787,40.974160 23.307794,45.105301 25.308441,43.412096 C 28.250787,39.588778 27.618862,38.694229 31.977145,32.511018 C 36.668470,27.225640 42.727625,27.596775 43.258143,26.499698 C 43.799130,24.185770 43.149323,22.997578 37.796403,21.676518 C 34.247750,21.167275 31.026534,21.650903 28.951354,23.458355 C 26.443639,25.966144 24.099641,18.710718 27.322115,18.901810 C 30.757876,19.068896 35.278250,19.558785 35.150542,17.219240 C 34.951198,15.739247 30.684439,15.203211 28.054875,14.607671 C 24.991210,13.734888 28.980279,7.4363672 31.123676,10.635322 C 32.916943,12.835735 37.361691,15.027996 38.015314,13.571583 C 39.459479,10.614952 36.791475,10.281516 35.779846,7.4903617 C 34.048856,3.7556777 40.831288,3.1650793 40.901215,6.7114363 C 41.280576,9.5025891 41.659936,13.452090 42.039296,15.084896 C 42.521244,17.846797 45.831180,21.137738 50.406119,22.410333 C 52.523474,21.636915 53.979558,20.242343 54.523653,18.682294 z "
     id="path863"
     sodipodi:nodetypes="cccccccccccccccccccccccccccccccccccccccccccccccccccccccccc" />
  <path
     style="font-size:12.000000;fill:url(#linearGradient580);fill-rule:evenodd;stroke:#261933;stroke-width:1.8528831;stroke-linejoin:round;"
     d="M 52.947875,16.250928 C 53.566036,14.338514 52.303467,6.7380768 56.612398,4.7040551 C 68.369160,-0.95690327 73.536231,4.3875782 70.687642,14.708331 C 69.799288,19.529111 62.284936,18.979367 59.724992,20.466802 C 57.168013,22.553840 57.442902,24.326226 57.875118,26.570589 C 58.142585,29.184615 63.269122,32.013034 67.215141,32.500298 C 69.617759,32.630121 71.692937,32.759940 74.422994,32.227849 C 76.361670,31.115202 76.335709,37.449073 73.853953,36.501902 C 71.704244,36.112440 69.182338,34.854825 68.506106,36.120143 C 66.659968,37.772161 69.933894,38.968504 71.198430,40.785998 C 73.070528,42.392317 69.867317,46.315330 67.973863,43.122777 C 66.835781,41.500013 66.673624,39.671012 65.208102,39.868508 C 63.972878,39.888593 63.562645,42.762568 63.800896,45.264826 C 64.817132,48.710615 57.672957,47.373840 59.507789,44.365978 C 60.188629,43.310964 61.335053,41.412254 60.869855,39.033413 C 61.005520,36.200200 56.599277,33.036030 52.805671,31.857598 C 47.836716,30.897620 45.104720,35.039899 41.426343,38.680703 C 38.558527,41.689438 32.981776,43.600001 32.569755,47.105170 C 32.620420,51.025419 36.972551,52.436600 40.461328,52.716327 C 43.064931,52.696832 45.353884,52.934927 47.604473,51.832888 C 51.100964,48.247968 53.675192,57.993412 50.070316,55.922252 C 46.231488,55.280139 45.484154,55.175225 42.955081,55.824328 C 40.833426,56.275938 46.053580,61.444893 47.068171,61.828849 C 52.105200,63.991409 42.718231,69.976274 42.894818,64.624654 C 42.745062,62.192108 39.503813,58.566167 38.754207,59.337203 C 36.556231,60.555476 37.683795,64.872199 39.351156,66.145105 C 41.804840,69.636450 32.241687,70.455691 33.443157,65.987783 C 34.640020,63.271436 34.735601,62.128355 34.201878,59.726665 C 32.893378,53.502531 29.575485,51.442242 26.957227,52.664627 C 20.777752,55.848881 19.509867,57.874791 20.697777,66.685307 C 20.824232,70.320298 22.260441,76.437460 21.077137,77.590280 C 19.958318,78.955286 14.582785,71.219000 13.300246,66.295845 C 12.540268,59.532338 12.762609,51.610485 18.878857,46.998199 C 20.480042,43.272684 16.640119,41.665776 12.347399,41.415303 C 10.108501,41.100793 8.5244821,42.606542 6.1218646,43.450379 C 3.1862161,44.439610 2.5426429,39.306147 5.1734638,38.971551 C 7.5128544,38.582089 10.879317,39.044473 10.108034,37.827618 C 10.123945,36.659228 6.6569893,35.962818 4.3808253,34.794428 C 1.1210869,32.999782 4.0826962,29.053919 5.8982680,30.899795 C 7.7351935,32.688036 10.705370,33.722258 13.033456,33.855716 C 14.391784,34.007515 12.847916,30.445422 11.750450,27.784089 C 10.364596,23.897183 18.095898,23.005188 17.182024,27.394625 C 16.495177,31.509605 16.665291,33.755410 17.528644,35.437130 C 19.693009,38.542794 21.732016,42.673935 23.732663,40.980730 C 26.675009,37.157412 26.043084,36.262863 30.401367,30.079652 C 35.092692,24.794274 41.151847,25.165409 41.682365,24.068332 C 42.223352,21.754404 41.573546,20.566212 36.220625,19.245152 C 32.671972,18.735909 29.450756,19.219537 27.375577,21.026989 C 24.867861,23.534778 22.523863,16.279351 25.746337,16.470444 C 29.182098,16.637530 33.702473,17.127419 33.574764,14.787873 C 33.375421,13.307881 29.108662,12.771845 26.479097,12.176305 C 23.415433,11.303522 27.404501,5.0050015 29.547899,8.2039562 C 31.341165,10.404369 35.785914,12.596630 36.439536,11.140217 C 37.883701,8.1835863 35.215697,7.8501494 34.204068,5.0589960 C 32.473078,1.3243119 39.255510,0.73371359 39.325437,4.2800706 C 39.704798,7.0712230 40.084158,11.020724 40.463519,12.653530 C 40.945466,15.415431 44.255402,18.706372 48.830341,19.978967 C 50.947696,19.205549 52.403780,17.810977 52.947875,16.250928 z "
     id="path631"
     sodipodi:nodetypes="cccccccccccccccccccccccccccccccccccccccccccccccccccccccccc" />
  <path
     style="fill:url(#linearGradient639);fill-rule:evenodd;stroke:none;stroke-opacity:1;stroke-width:1pt;stroke-linejoin:miter;stroke-linecap:butt;fill-opacity:0.75;"
     d="M 54.812943,13.513433 C 55.003247,11.856056 54.765056,9.3468481 57.449432,6.2789901 C 58.401577,5.2078271 63.771925,4.2594653 65.050199,4.4831633 C 63.228659,4.8346888 59.300375,6.1063733 57.287093,8.3753104 C 56.136646,9.7494551 55.341111,11.993354 54.812943,13.513433 z "
     id="path671"
     sodipodi:nodetypes="csccc" />
  <path
     sodipodi:type="arc"
     style="font-size:12;fill:#ff0000;fill-opacity:0.75;fill-rule:evenodd;stroke:#330000;stroke-width:1pt;stroke-opacity:1;"
     id="path575"
     sodipodi:cx="60.89552307"
     sodipodi:cy="10.26865673"
     sodipodi:rx="0.55721390"
     sodipodi:ry="0.71641791"
     d="M 61.452737 10.268657 A 0.557214 0.716418 0 1 0 60.338309,10.268657 A 0.557214 0.716418 0 1 0 61.4527 10.2687 L 60.895523 10.268657 z"
     transform="matrix(0.988204,0.000000,0.000000,0.988204,0.505339,-0.538980)" />
  <path
     sodipodi:type="arc"
     style="font-size:12;fill:#ff0000;fill-opacity:0.75;fill-rule:evenodd;stroke:#330000;stroke-width:1pt;stroke-opacity:1;"
     id="path576"
     sodipodi:cx="60.89552307"
     sodipodi:cy="10.26865673"
     sodipodi:rx="0.55721390"
     sodipodi:ry="0.71641791"
     d="M 61.452737 10.268657 A 0.557214 0.716418 0 1 0 60.338309,10.268657 A 0.557214 0.716418 0 1 0 61.4527 10.2687 L 60.895523 10.268657 z"
     transform="matrix(0.988204,0.000000,0.000000,0.988204,4.399159,2.882863)" />
  <path
     style="fill:url(#linearGradient590);fill-rule:evenodd;stroke:none;stroke-opacity:1;stroke-width:1pt;stroke-linejoin:round;stroke-linecap:butt;fill-opacity:0.75;"
     d="M 26.965616,40.316632 C 28.774866,36.186822 29.679490,34.633228 32.511358,31.014728 C 35.343228,27.396228 36.149523,28.084531 40.810309,26.314613 C 35.199013,29.169425 31.111814,33.735159 26.965616,40.316632 z "
     id="path663"
     sodipodi:nodetypes="cccc" />
  <path
     style="fill:url(#linearGradient632);fill-rule:evenodd;stroke:none;stroke-opacity:1;stroke-width:1pt;stroke-linejoin:miter;stroke-linecap:butt;fill-opacity:0.75;"
     d="M 19.571291,48.340261 C 14.484415,53.164926 13.959994,61.136114 15.166161,65.803454 C 15.847907,60.349484 17.473610,53.164926 19.571291,48.340261 z "
     id="path664"
     sodipodi:nodetypes="ccc" />
  <path
     style="fill:url(#linearGradient633);fill-rule:evenodd;stroke:none;stroke-opacity:1;stroke-width:1pt;stroke-linejoin:miter;stroke-linecap:butt;fill-opacity:1;"
     d="M 5.0596886,42.229615 C 4.7792517,41.620839 4.8131740,40.596804 5.0453094,40.318241 C 5.3375942,39.967499 6.2384828,40.043038 6.9065429,40.159306 C 5.9350349,40.448419 5.1107217,40.755982 5.0596886,42.229615 z "
     id="path665"
     sodipodi:nodetypes="cscc" />
  <path
     style="fill:url(#linearGradient636);fill-rule:evenodd;stroke:none;stroke-opacity:1;stroke-width:1pt;stroke-linejoin:miter;stroke-linecap:butt;fill-opacity:1;"
     d="M 36.029908,5.5488916 C 35.567075,5.0769134 35.017284,4.8506812 35.559540,3.6831172 C 36.124697,2.4206428 37.619093,3.3167162 37.876762,4.2993641 C 35.537286,3.5853000 35.989744,4.3944511 36.029908,5.5488916 z "
     id="path666"
     sodipodi:nodetypes="cscc" />
  <path
     style="fill:url(#linearGradient637);fill-rule:evenodd;stroke:none;stroke-opacity:1;stroke-width:1pt;stroke-linejoin:miter;stroke-linecap:butt;fill-opacity:1;"
     d="M 27.319452,11.016264 C 26.628626,10.817880 26.445401,10.262341 27.213877,9.2416879 C 28.000107,8.1315836 28.361451,8.6928911 28.847115,9.4931431 C 27.738810,9.2806681 27.370486,9.9530221 27.319452,11.016264 z "
     id="path667"
     sodipodi:nodetypes="cscc" />
  <path
     style="fill:url(#linearGradient638);fill-rule:evenodd;stroke:none;stroke-opacity:1;stroke-width:1pt;stroke-linejoin:miter;stroke-linecap:butt;fill-opacity:1;"
     d="M 26.128707,19.615117 C 25.665874,19.371133 25.289406,18.255900 25.521542,17.977337 C 25.813826,17.626596 26.988308,17.610936 27.701968,17.727204 C 26.320070,17.925119 25.586954,18.232682 26.128707,19.615117 z "
     id="path668"
     sodipodi:nodetypes="cscc" />
  <path
     style="fill:url(#linearGradient635);fill-rule:evenodd;stroke:none;stroke-opacity:1;stroke-width:1pt;stroke-linejoin:miter;stroke-linecap:butt;fill-opacity:1;"
     d="M 13.901767,28.087327 C 12.800549,27.250557 12.834471,26.728110 13.066606,26.449547 C 13.358891,26.098806 14.396577,25.627157 15.611825,25.789023 C 14.457922,26.123735 13.405614,26.841688 13.901767,28.087327 z "
     id="path669"
     sodipodi:nodetypes="cscc" />
  <path
     style="fill:url(#linearGradient634);fill-rule:evenodd;stroke:none;stroke-opacity:1;stroke-width:1pt;stroke-linejoin:miter;stroke-linecap:butt;fill-opacity:1;"
     d="M 5.2470659,33.676360 C 4.4194415,33.295581 4.1341710,32.408342 4.3663064,32.129779 C 4.6585912,31.779038 5.5138808,31.900175 6.4555348,32.791625 C 5.6664226,32.396753 4.3405208,32.385123 5.2470659,33.676360 z "
     id="path670"
     sodipodi:nodetypes="cscc" />
</svg>
