<?xml version="1.0" encoding="UTF-8" standalone="no"?>
<!DOCTYPE svg PUBLIC "-//W3C//DTD SVG 20010904//EN"
"http://www.w3.org/TR/2001/REC-SVG-20010904/DTD/svg10.dtd">
<!-- Created with Inkscape (http://www.inkscape.org/) -->
<svg
   id="svg1"
   sodipodi:version="0.32"
   inkscape:version="0.38.1"
   width="48pt"
   height="48pt"
   sodipodi:docbase="/home/dan/svg-icons/lila/gnome/scalable/apps"
   sodipodi:docname="muine.svg"
   xmlns="http://www.w3.org/2000/svg"
   xmlns:inkscape="http://www.inkscape.org/namespaces/inkscape"
   xmlns:sodipodi="http://sodipodi.sourceforge.net/DTD/sodipodi-0.dtd"
   xmlns:xlink="http://www.w3.org/1999/xlink">
  <defs
     id="defs3">
    <linearGradient
       id="linearGradient584">
      <stop
         style="stop-color:#ffffff;stop-opacity:1;"
         offset="0.00000000"
         id="stop585" />
      <stop
         style="stop-color:#ffffff;stop-opacity:0;"
         offset="1.00000000"
         id="stop586" />
    </linearGradient>
    <linearGradient
       id="linearGradient578">
      <stop
         style="stop-color:#d9cce6;stop-opacity:1;"
         offset="0.00000000"
         id="stop579" />
      <stop
         style="stop-color:#73667f;stop-opacity:1;"
         offset="1.00000000"
         id="stop580" />
    </linearGradient>
    <linearGradient
       xlink:href="#linearGradient584"
       id="linearGradient581"
       x1="-0.010101010"
       y1="0.0059523811"
       x2="1.1515151"
       y2="1.0714285" />
    <linearGradient
       xlink:href="#linearGradient584"
       id="linearGradient583"
       x1="0.00000000"
       y1="-0.00000000"
       x2="0.98717946"
       y2="1.00000000" />
    <linearGradient
       xlink:href="#linearGradient578"
       id="linearGradient860"
       x1="6.7654216e-17"
       y1="0.50000000"
       x2="1.0000000"
       y2="0.50000000" />
    <linearGradient
       xlink:href="#linearGradient578"
       id="linearGradient861"
       x1="6.7654216e-17"
       y1="2.0599203"
       x2="1.0000000"
       y2="2.0599203" />
    <linearGradient
       xlink:href="#linearGradient578"
       id="linearGradient862"
       x1="-8.1315163e-19"
       y1="0.50000000"
       x2="1.0000000"
       y2="0.50000000" />
    <radialGradient
       xlink:href="#linearGradient584"
       id="radialGradient595" />
    <linearGradient
       xlink:href="#linearGradient584"
       id="linearGradient612" />
    <linearGradient
       xlink:href="#linearGradient584"
       id="linearGradient613"
       x1="-1.6219665e-16"
       y1="0.50000000"
       x2="1.0000000"
       y2="0.50000000" />
    <linearGradient
       xlink:href="#linearGradient584"
       id="linearGradient859" />
    <linearGradient
       xlink:href="#linearGradient584"
       id="linearGradient863" />
    <linearGradient
       xlink:href="#linearGradient584"
       id="linearGradient864" />
  </defs>
  <sodipodi:namedview
     id="base"
     pagecolor="#ffffff"
     bordercolor="#666666"
     borderopacity="1.0"
     inkscape:pageopacity="0.0"
     inkscape:pageshadow="2"
     inkscape:zoom="10.708785"
     inkscape:cx="21.920338"
     inkscape:cy="24.330000"
     inkscape:window-width="841"
     inkscape:window-height="792"
     inkscape:window-x="65"
     inkscape:window-y="68" />
  <path
     style="fill:#000000;fill-rule:evenodd;stroke:none;stroke-opacity:1.0000000;stroke-width:1.8750000;stroke-linejoin:miter;stroke-linecap:butt;fill-opacity:0.30000001;stroke-dasharray:none;"
     d="M 10.869307,58.488767 C 10.869307,58.488767 8.3013224,60.239666 11.803121,59.889486 C 15.771825,59.305853 42.609002,43.250208 43.052081,24.419364 C 43.052081,9.5762279 36.405901,4.0377444 24.885855,4.0377444 C 16.688900,3.5946657 11.593495,10.019307 11.593495,15.779330 C 11.593495,21.539352 14.287709,25.841499 18.053877,25.841499 C 21.820046,25.841499 25.038323,24.581334 25.155050,21.494109 C 25.155050,15.955626 20.011990,14.671633 18.682753,18.437802 C 15.138124,19.545498 13.587349,8.4685312 25.107395,8.4685312 C 34.412047,8.2469918 38.621295,17.108566 37.735138,26.634758 C 35.962823,43.028669 10.869307,58.488767 10.869307,58.488767 z "
     id="path852"
     sodipodi:nodetypes="ccccccccccc" />
  <path
     style="fill:url(#linearGradient862);fill-rule:evenodd;stroke:#000000;stroke-opacity:1.0000000;stroke-width:1.8750000;stroke-linejoin:miter;stroke-linecap:butt;fill-opacity:1.0000000;stroke-dasharray:none;"
     d="M 8.7267196,56.387688 C 8.7267196,56.387688 6.1587345,58.138587 9.6605324,57.788407 C 13.629237,57.204774 40.466414,41.149129 40.909493,22.318285 C 40.909493,7.4751491 34.263313,1.9366656 22.743267,1.9366656 C 14.546312,1.4935869 9.4509069,7.9182281 9.4509069,13.678251 C 9.4509069,19.438273 12.145121,23.740420 15.911289,23.740420 C 19.677458,23.740420 22.895735,22.480255 23.012462,19.393030 C 23.012462,13.854547 18.919941,12.804007 17.590704,16.570176 C 14.046076,17.677872 11.911667,7.6514449 23.431713,7.6514449 C 32.736365,7.4299055 35.311441,14.774034 34.425284,24.300226 C 32.652969,40.694137 8.7267196,56.387688 8.7267196,56.387688 z "
     id="path847"
     sodipodi:nodetypes="ccccccccccc" />
  <path
     sodipodi:type="arc"
     style="fill:#000000;fill-opacity:0.30000001;fill-rule:evenodd;stroke-width:1.8750000;stroke:none;stroke-opacity:1.0000000;stroke-dasharray:none;"
     id="path857"
     sodipodi:cx="44.307869"
     sodipodi:cy="8.3813334"
     sodipodi:rx="3.3230901"
     sodipodi:ry="3.3230901"
     d="M 47.630959 8.3813334 A 3.3230901 3.3230901 0 1 0 40.984779,8.3813334 A 3.3230901 3.3230901 0 1 0 47.630959 8.3813334 z"
     transform="translate(6.684773,6.297520)" />
  <path
     sodipodi:type="arc"
     style="fill:#000000;fill-opacity:0.30000001;fill-rule:evenodd;stroke-width:1.8750000;stroke:none;stroke-opacity:1.0000000;stroke-dasharray:none;"
     id="path858"
     sodipodi:cx="44.307869"
     sodipodi:cy="8.3813334"
     sodipodi:rx="3.3230901"
     sodipodi:ry="3.3230901"
     d="M 47.630959 8.3813334 A 3.3230901 3.3230901 0 1 0 40.984779,8.3813334 A 3.3230901 3.3230901 0 1 0 47.630959 8.3813334 z"
     transform="translate(6.519697,19.58989)" />
  <path
     sodipodi:type="arc"
     style="fill:url(#linearGradient861);fill-opacity:0.75000000;fill-rule:evenodd;stroke-width:1.8750000;stroke:#000000;stroke-opacity:1.0000000;stroke-dasharray:none;"
     id="path848"
     sodipodi:cx="44.307869"
     sodipodi:cy="8.3813334"
     sodipodi:rx="3.3230901"
     sodipodi:ry="3.3230901"
     d="M 47.630959 8.3813334 A 3.3230901 3.3230901 0 1 0 40.984779,8.3813334 A 3.3230901 3.3230901 0 1 0 47.630959 8.3813334 z"
     transform="translate(4.355502,4.189220)" />
  <path
     sodipodi:type="arc"
     style="fill:url(#linearGradient860);fill-opacity:0.75000000;fill-rule:evenodd;stroke-width:1.8750000;stroke:#000000;stroke-opacity:1.0000000;stroke-dasharray:none;"
     id="path849"
     sodipodi:cx="44.307869"
     sodipodi:cy="8.3813334"
     sodipodi:rx="3.3230901"
     sodipodi:ry="3.3230901"
     d="M 47.630959 8.3813334 A 3.3230901 3.3230901 0 1 0 40.984779,8.3813334 A 3.3230901 3.3230901 0 1 0 47.630959 8.3813334 z"
     transform="translate(4.355502,17.48158)" />
  <path
     style="fill:url(#linearGradient612);fill-rule:evenodd;stroke:none;stroke-opacity:1;stroke-width:1pt;stroke-linejoin:miter;stroke-linecap:butt;fill-opacity:0.75;"
     d="M 12.305289,19.520387 C 10.281332,15.851966 10.427371,12.796491 12.071836,9.0015722 C 13.716301,5.3331506 18.017208,2.9297030 24.595066,3.5621893 C 17.005230,4.8271620 14.348787,6.1553837 13.083814,9.3810643 C 11.818841,12.606744 11.925797,13.448518 12.305289,19.520387 z "
     id="path851"
     sodipodi:nodetypes="czczc" />
  <path
     style="fill:url(#linearGradient613);fill-rule:evenodd;stroke:none;stroke-opacity:1;stroke-width:1pt;stroke-linejoin:miter;stroke-linecap:butt;fill-opacity:0.75;"
     d="M 46.732088,13.559143 C 46.226099,11.788181 46.854917,10.371606 49.139205,10.432246 C 46.718956,10.806524 46.732088,13.559143 46.732088,13.559143 z "
     id="path854"
     sodipodi:nodetypes="ccc" />
  <path
     style="fill:url(#linearGradient613);fill-rule:evenodd;stroke:none;stroke-opacity:1;stroke-width:1pt;stroke-linejoin:miter;stroke-linecap:butt;fill-opacity:0.75;"
     d="M 46.810497,26.927877 C 46.304508,25.156915 46.933326,23.740340 49.217614,23.800980 C 46.797365,24.175258 46.810497,26.927877 46.810497,26.927877 z "
     id="path855"
     sodipodi:nodetypes="ccc" />
  <path
     style="fill:url(#linearGradient581);fill-rule:evenodd;stroke:none;stroke-opacity:1;stroke-width:1pt;stroke-linejoin:miter;stroke-linecap:butt;fill-opacity:1;"
     d="M 14.160536,53.793464 C 13.946961,53.618721 27.485557,44.585573 34.354237,31.265231 C 37.365018,25.375298 35.663980,14.987022 35.871683,15.156961 C 36.091977,15.337202 38.028961,27.624100 35.288050,32.199043 C 28.562567,43.346658 14.374958,53.968900 14.160536,53.793464 z "
     id="path939"
     sodipodi:nodetypes="cssss" />
</svg>
