<?xml version="1.0" encoding="UTF-8" standalone="no"?>
<!DOCTYPE svg PUBLIC "-//W3C//DTD SVG 20010904//EN"
"http://www.w3.org/TR/2001/REC-SVG-20010904/DTD/svg10.dtd">
<!-- Created with Inkscape (http://www.inkscape.org/) -->
<svg
   id="svg1"
   sodipodi:version="0.32"
   inkscape:version="0.40"
   width="48pt"
   height="48pt"
   sodipodi:docbase="/home/jakob/dev/lila-cvs/andere-icons"
   sodipodi:docname="netbeans.svg"
   xmlns="http://www.w3.org/2000/svg"
   xmlns:inkscape="http://www.inkscape.org/namespaces/inkscape"
   xmlns:sodipodi="http://sodipodi.sourceforge.net/DTD/sodipodi-0.dtd"
   xmlns:xlink="http://www.w3.org/1999/xlink"
   xmlns:rdf="http://www.w3.org/1999/02/22-rdf-syntax-ns#"
   xmlns:cc="http://web.resource.org/cc/"
   xmlns:dc="http://purl.org/dc/elements/1.1/">
  <metadata
     id="metadata19">
    <rdf:RDF
       id="RDF20">
      <cc:Work
         rdf:about=""
         id="Work21">
        <dc:format
           id="format22">image/svg+xml</dc:format>
        <dc:type
           id="type24"
           rdf:resource="http://purl.org/dc/dcmitype/StillImage" />
      </cc:Work>
    </rdf:RDF>
  </metadata>
  <defs
     id="defs3">
    <linearGradient
       id="linearGradient584">
      <stop
         style="stop-color:#ffffff;stop-opacity:1;"
         offset="0.00000000"
         id="stop585" />
      <stop
         style="stop-color:#ffffff;stop-opacity:0;"
         offset="1.00000000"
         id="stop586" />
    </linearGradient>
    <linearGradient
       id="linearGradient578">
      <stop
         style="stop-color:#d9cce6;stop-opacity:1;"
         offset="0.00000000"
         id="stop579" />
      <stop
         style="stop-color:#73667f;stop-opacity:1;"
         offset="1.00000000"
         id="stop580" />
    </linearGradient>
    <linearGradient
       xlink:href="#linearGradient578"
       id="linearGradient581"
       x1="0.01986755"
       y1="0.01342282"
       x2="0.97350991"
       y2="0.96644294" />
    <linearGradient
       xlink:href="#linearGradient578"
       id="linearGradient583"
       x1="49.033117"
       y1="47.092300"
       x2="5.0077994"
       y2="2.1716101"
       gradientTransform="matrix(1.108364,0.000000,0.000000,0.943070,-0.460072,-0.590200)"
       gradientUnits="userSpaceOnUse" />
    <linearGradient
       xlink:href="#linearGradient584"
       id="linearGradient860"
       x1="0.01449275"
       y1="0.01342282"
       x2="0.68115944"
       y2="0.58389264" />
    <linearGradient
       xlink:href="#linearGradient584"
       id="linearGradient861"
       x1="0.00000000"
       y1="0.00000000"
       x2="1.00000000"
       y2="1.02343750" />
    <linearGradient
       xlink:href="#linearGradient578"
       id="linearGradient862"
       x1="-0.00000000"
       y1="0.00775194"
       x2="1.00000000"
       y2="0.99224806" />
    <radialGradient
       xlink:href="#linearGradient584"
       id="radialGradient1495"
       cx="33.692949"
       cy="24.308280"
       r="16.644560"
       fx="31.715209"
       fy="23.638029"
       gradientTransform="matrix(1.073050,0.000000,0.000000,0.974108,-0.460072,-0.590200)"
       gradientUnits="userSpaceOnUse" />
    <linearGradient
       inkscape:collect="always"
       xlink:href="#linearGradient578"
       id="linearGradient1079"
       gradientUnits="userSpaceOnUse"
       gradientTransform="matrix(1.019347,0.000000,0.000000,1.025427,-0.459469,-0.590200)"
       x1="1.5890244"
       y1="1.3446020"
       x2="56.226263"
       y2="55.946191" />
  </defs>
  <sodipodi:namedview
     id="base"
     pagecolor="#ffffff"
     bordercolor="#666666"
     borderopacity="1.0"
     inkscape:pageopacity="0.0"
     inkscape:pageshadow="2"
     inkscape:zoom="7.9794719"
     inkscape:cx="25.896403"
     inkscape:cy="24.473773"
     inkscape:window-width="1400"
     inkscape:window-height="991"
     inkscape:window-x="0"
     inkscape:window-y="0"
     inkscape:current-layer="svg1" />
  <path
     style="opacity:0.29999998;fill:#000000;fill-opacity:1.0000000;fill-rule:evenodd;stroke:#000000;stroke-width:0.95848352;stroke-linecap:butt;stroke-linejoin:miter;stroke-opacity:1.0000000"
     d="M 30.914151,3.6795291 C 29.836798,2.6021751 26.302360,2.6288731 25.138456,3.7927781 C 23.920700,5.0105331 25.706586,27.006929 22.307230,30.406284 C 18.965907,33.747608 5.6596332,40.482113 5.6596332,42.410673 C 5.6596332,44.452298 5.2017876,45.468395 8.3776083,45.468395 C 11.666609,45.468395 24.118520,35.420683 28.535923,35.502487 C 33.067297,35.502487 51.124621,44.562403 53.224198,44.562403 C 55.210699,44.562403 55.942173,43.203416 55.828923,41.278184 C 55.715674,39.239702 36.977014,33.411423 33.405629,29.840038 C 29.893085,26.327494 31.933392,4.6987691 30.914151,3.6795291 z "
     id="path1703"
     sodipodi:nodetypes="czzzzzzzzz" />
  <path
     style="fill:url(#linearGradient583);fill-opacity:1.0000000;fill-rule:evenodd;stroke:#261933;stroke-width:0.95848352;stroke-linecap:butt;stroke-linejoin:miter;stroke-opacity:1.0000000"
     d="M 29.664151,2.4295287 C 28.586798,1.3521746 25.052360,1.3788727 23.888456,2.5427776 C 22.670700,3.7605328 24.456586,25.756929 21.057230,29.156284 C 17.715907,32.497608 4.4096332,39.232113 4.4096332,41.160673 C 4.4096332,43.202298 3.9517876,44.218395 7.1276083,44.218395 C 10.416609,44.218395 22.868520,34.170683 27.285923,34.252487 C 31.817297,34.252487 49.874621,43.312403 51.974198,43.312403 C 53.960699,43.312403 54.692173,41.953416 54.578923,40.028184 C 54.465674,37.989702 35.727014,32.161423 32.155629,28.590038 C 28.643085,25.077494 30.683392,3.4487692 29.664151,2.4295287 z "
     id="path1493"
     sodipodi:nodetypes="czzzzzzzzz" />
  <path
     style="font-size:12.000000;opacity:0.29999998;fill:#000000;fill-opacity:1.0000000;fill-rule:evenodd;stroke:#000000;stroke-width:2.0565019;stroke-opacity:1.0000000"
     d="M 27.940313,2.2807621 C 20.762117,2.1416461 6.9676521,7.8099461 4.3247800,12.734661 C 1.5100914,17.659377 1.5748368,44.877195 4.6675308,47.798072 C 7.7602237,50.718946 29.297431,58.971749 34.555404,58.971749 C 39.642151,58.971748 54.326394,49.608757 56.560008,45.227441 C 58.621800,40.846125 60.339498,13.816782 55.497478,10.164031 C 53.021725,8.2963561 35.118508,2.2480621 27.940313,2.2807621 z M 28.214514,6.3594971 C 31.590342,6.3594971 47.584379,10.192433 47.442834,12.014885 C 47.148764,13.796644 36.110115,18.390050 32.978749,18.390050 C 29.675568,18.390051 13.818978,14.119628 13.818978,11.877784 C 13.990794,9.6359431 25.010500,6.3594971 28.214514,6.3594971 z M 51.418744,17.533173 C 51.847095,17.552529 52.183798,17.681276 52.412723,17.910199 C 54.331941,19.829419 53.959949,40.937325 52.069971,43.170936 C 50.351808,45.404548 40.304509,52.691622 38.497038,50.368703 C 36.517753,48.217602 36.599609,26.491273 39.011164,24.079715 C 41.192380,21.898500 48.420293,17.397689 51.418744,17.533173 z M 10.425745,17.704549 C 14.696921,17.661786 27.008348,22.530799 29.002840,24.525291 C 31.191552,26.714004 31.761193,49.186563 30.065367,51.054205 C 28.360860,52.758713 13.139474,47.050018 9.9116189,43.822163 C 6.7605528,40.671095 7.4211756,19.783691 9.1575667,18.047300 C 9.3856073,17.819259 9.8155773,17.710658 10.425745,17.704549 z "
     id="path1704" />
  <path
     style="font-size:12.000000;fill:url(#linearGradient1079);fill-opacity:1.0000000;fill-rule:evenodd;stroke:#261933;stroke-width:2.0565019;stroke-opacity:1.0000000"
     d="M 26.690313,1.0307618 C 19.512117,0.89164542 5.7176521,6.5599458 3.0747800,11.484661 C 0.26009146,16.409377 0.32483681,43.627195 3.4175308,46.548072 C 6.5102237,49.468946 28.047431,57.721749 33.305404,57.721749 C 38.392151,57.721748 53.076394,48.358757 55.310008,43.977441 C 57.371800,39.596125 59.089498,12.566782 54.247478,8.9140309 C 51.771725,7.0463559 33.868508,0.99806162 26.690313,1.0307618 z M 26.964514,5.1094967 C 30.340342,5.1094967 46.334379,8.9424326 46.192834,10.764885 C 45.898764,12.546644 34.860115,17.140050 31.728749,17.140050 C 28.425568,17.140051 12.568978,12.869628 12.568978,10.627784 C 12.740794,8.3859424 23.760500,5.1094967 26.964514,5.1094967 z M 50.168744,16.283173 C 50.597095,16.302529 50.933798,16.431276 51.162723,16.660199 C 53.081941,18.579419 52.709949,39.687325 50.819971,41.920936 C 49.101808,44.154548 39.054509,51.441622 37.247038,49.118703 C 35.267753,46.967602 35.349609,25.241273 37.761164,22.829715 C 39.942380,20.648500 47.170293,16.147689 50.168744,16.283173 z M 9.1757445,16.454549 C 13.446921,16.411786 25.758348,21.280799 27.752840,23.275291 C 29.941552,25.464004 30.511193,47.936563 28.815367,49.804205 C 27.110860,51.508713 11.889474,45.800018 8.6616189,42.572163 C 5.5105528,39.421095 6.1711756,18.533691 7.9075667,16.797300 C 8.1356073,16.569259 8.5655773,16.460658 9.1757445,16.454549 z "
     id="path1492" />
  <path
     style="fill:url(#radialGradient1495);fill-opacity:1.0000000;fill-rule:evenodd;stroke:none;stroke-width:1.0000000pt;stroke-linecap:butt;stroke-linejoin:miter;stroke-opacity:1.0000000"
     d="M 32.895770,45.722420 C 32.909792,41.950484 32.827595,24.427933 30.702907,22.038034 C 28.351722,19.648135 7.6841367,13.584552 14.648949,15.113413 C 21.500512,16.755522 28.851653,19.985783 32.434641,19.985783 C 36.130658,19.985783 47.663361,13.059504 48.850136,13.301428 C 50.150158,13.543352 37.375542,18.485310 34.641416,21.516004 C 32.020538,24.546697 33.334745,42.019924 32.895770,45.722420 z "
     id="path1494"
     sodipodi:nodetypes="czzzzzc" />
</svg>
