<?xml version="1.0" encoding="UTF-8" standalone="no"?>
<!DOCTYPE svg PUBLIC "-//W3C//DTD SVG 20010904//EN"
"http://www.w3.org/TR/2001/REC-SVG-20010904/DTD/svg10.dtd">
<!-- Created with Inkscape (http://www.inkscape.org/) -->
<svg
   id="svg1"
   sodipodi:version="0.32"
   inkscape:version="0.38.1"
   width="48pt"
   height="48pt"
   sodipodi:docbase="/home/scaba/files/lila-artwork/lila-gnome/Lila-Purple/scalable/apps"
   sodipodi:docname="ximian-openoffice-impress.svg"
   xmlns="http://www.w3.org/2000/svg"
   xmlns:inkscape="http://www.inkscape.org/namespaces/inkscape"
   xmlns:sodipodi="http://sodipodi.sourceforge.net/DTD/sodipodi-0.dtd"
   xmlns:xlink="http://www.w3.org/1999/xlink">
  <defs
     id="defs3">
    <linearGradient
       id="linearGradient1256">
      <stop
         style="stop-color:#ffffff;stop-opacity:1;"
         offset="0"
         id="stop1258" />
      <stop
         style="stop-color:#ffffff;stop-opacity:0;"
         offset="1"
         id="stop1257" />
    </linearGradient>
    <linearGradient
       x1="0.006447"
       y1="0.039037"
       x2="0.980645"
       y2="0.984374"
       id="linearGradient1567"
       xlink:href="#linearGradient1256" />
    <linearGradient
       id="linearGradient1535">
      <stop
         style="stop-color:#ffffff;stop-opacity:1;"
         offset="0"
         id="stop1537" />
      <stop
         style="stop-color:#ffffff;stop-opacity:0;"
         offset="1"
         id="stop1536" />
    </linearGradient>
    <linearGradient
       id="linearGradient641"
       xlink:href="#linearGradient1535"
       x1="0.53333336"
       y1="-0.17346939"
       x2="0.58947366"
       y2="0.68367344" />
    <linearGradient
       id="linearGradient692">
      <stop
         offset="0.0000000"
         style="stop-color:#d9cce6;stop-opacity:1.0000000;"
         id="stop694" />
      <stop
         offset="1.0000000"
         style="stop-color:#ffffff;stop-opacity:1.0000000;"
         id="stop693" />
    </linearGradient>
    <linearGradient
       id="linearGradient950">
      <stop
         style="stop-color:#d9cce6;stop-opacity:1.0000000;"
         offset="0.0000000"
         id="stop951" />
      <stop
         style="stop-color:#ffffff;stop-opacity:1.0000000;"
         offset="1.0000000"
         id="stop952" />
    </linearGradient>
    <linearGradient
       id="linearGradient703">
      <stop
         style="stop-color:#d9cce6;stop-opacity:1;"
         offset="0.00000000"
         id="stop704" />
      <stop
         style="stop-color:#73667f;stop-opacity:1;"
         offset="1.00000000"
         id="stop705" />
    </linearGradient>
    <linearGradient
       id="linearGradient866">
      <stop
         style="stop-color:#ffffff;stop-opacity:1;"
         offset="0.00000000"
         id="stop867" />
      <stop
         style="stop-color:#d9cce6;stop-opacity:1;"
         offset="1.00000000"
         id="stop868" />
    </linearGradient>
    <linearGradient
       id="linearGradient584">
      <stop
         style="stop-color:#ffffff;stop-opacity:1;"
         offset="0.00000000"
         id="stop585" />
      <stop
         style="stop-color:#ffffff;stop-opacity:0;"
         offset="1.00000000"
         id="stop586" />
    </linearGradient>
    <linearGradient
       xlink:href="#linearGradient866"
       id="linearGradient586"
       x1="0.52898550"
       y1="0.022900764"
       x2="0.51449275"
       y2="0.94656491" />
    <linearGradient
       xlink:href="#linearGradient584"
       id="linearGradient587"
       x1="0.00000000"
       y1="-0.00000000"
       x2="1.00000000"
       y2="1.00000000" />
    <linearGradient
       xlink:href="#linearGradient584"
       id="linearGradient700"
       x1="0.00000000"
       y1="-0.00000000"
       x2="0.98453611"
       y2="0.99218750" />
    <linearGradient
       xlink:href="#linearGradient584"
       id="linearGradient701"
       x1="0.00367647"
       y1="0.01562500"
       x2="1.01102936"
       y2="1.01562500" />
    <linearGradient
       xlink:href="#linearGradient703"
       id="linearGradient702"
       x1="-0.00000000"
       y1="0.00000000"
       x2="0.97457629"
       y2="0.96093750" />
    <linearGradient
       xlink:href="#linearGradient584"
       id="linearGradient845"
       x1="-0.00000000"
       y1="-0.00000000"
       x2="0.99635035"
       y2="0.97727275" />
    <radialGradient
       xlink:href="#linearGradient703"
       id="radialGradient846" />
    <linearGradient
       xlink:href="#linearGradient584"
       id="linearGradient847"
       x1="0.00000000"
       y1="-0.00000000"
       x2="0.98540145"
       y2="0.93902439" />
    <linearGradient
       xlink:href="#linearGradient703"
       id="linearGradient848"
       x1="0.01219511"
       y1="0.01562503"
       x2="0.99999994"
       y2="1.00000012" />
    <linearGradient
       xlink:href="#linearGradient584"
       id="linearGradient849"
       x1="0.00000000"
       y1="-0.00000000"
       x2="0.98514849"
       y2="1.02343750" />
    <linearGradient
       xlink:href="#linearGradient703"
       id="linearGradient850"
       x1="-0.00000000"
       y1="0.00000000"
       x2="1.00000000"
       y2="0.95652175" />
    <linearGradient
       xlink:href="#linearGradient584"
       id="linearGradient863"
       x1="-0.00000000"
       y1="-0.00000000"
       x2="0.99635035"
       y2="0.82142860" />
    <linearGradient
       id="linearGradient1532"
       xlink:href="#linearGradient692"
       x1="0.97058821"
       y1="0.95312500"
       x2="-0.029411765"
       y2="-0.031250000" />
  </defs>
  <sodipodi:namedview
     id="base"
     pagecolor="#ffffff"
     bordercolor="#666666"
     borderopacity="1.0"
     inkscape:pageopacity="0.0"
     inkscape:pageshadow="2"
     inkscape:zoom="5.6423387"
     inkscape:cx="24.287029"
     inkscape:cy="34.329652"
     inkscape:window-width="833"
     inkscape:window-height="631"
     inkscape:window-x="309"
     inkscape:window-y="38" />
  <path
     d="M 9.2729295,30.620773 C 8.9870867,30.034209 12.188492,20.312357 15.384687,18.030616 C 17.946748,16.201439 22.550527,16.885544 25.824612,16.804779 C 28.012667,13.511863 30.423677,9.7897371 33.135200,8.8468245 C 36.901269,7.2973413 47.365804,11.056020 47.690029,11.721344 C 47.973068,12.302154 38.816284,11.744098 35.378655,13.450508 C 32.241893,15.007194 30.475407,18.864797 27.966778,21.510932 C 24.470467,21.435169 20.363441,20.767686 17.417990,22.203056 C 14.132233,23.804264 9.5243161,31.136631 9.2729295,30.620773 z "
     style="font-size:12;fill:#000000;fill-rule:evenodd;stroke:none;stroke-width:2.03405;fill-opacity:1;opacity:0.296369;"
     id="path852"
     sodipodi:nodetypes="ccccccccc" />
  <path
     d="M 6.9465580,29.613200 C 6.6607139,29.026634 9.8621196,19.304782 13.058315,17.023040 C 15.620376,15.193866 19.668565,15.259320 22.942650,15.178557 C 25.130703,11.885641 28.097304,8.7821617 30.808825,7.8392505 C 34.574898,6.2897664 45.039431,10.048443 45.363655,10.713768 C 45.646695,11.294581 36.489911,10.736522 33.052281,12.442935 C 29.915519,13.999618 28.149036,17.857220 25.640407,20.503358 C 22.144096,20.427594 18.037069,19.760112 15.091619,21.195481 C 11.805859,22.796690 7.1979434,30.129057 6.9465580,29.613200 z "
     style="font-size:12.000000;fill:url(#linearGradient850);fill-rule:evenodd;stroke:#261933;stroke-width:1.8750000;stroke-dasharray:none;"
     id="path674"
     sodipodi:nodetypes="ccccccccc" />
  <path
     d="M 12.761624,23.466633 C 12.742093,23.282337 15.187039,19.066776 16.904757,17.763537 C 17.774844,17.103195 20.281523,16.943290 20.299298,17.112341 C 20.318281,17.293396 17.988368,18.074818 17.014959,18.813273 C 15.400568,20.037985 12.778855,23.632237 12.761624,23.466633 z "
     style="font-size:12;opacity:0.7;fill-rule:evenodd;stroke:none;stroke-width:0.115296pt;fill:url(#linearGradient847);"
     id="path676"
     sodipodi:nodetypes="ccccc" />
  <path
     d="M 24.846707,16.518072 C 24.826114,16.321670 28.890760,10.874464 30.721282,9.4857387 C 31.648664,8.7820585 34.320067,8.6117374 34.338834,8.7919818 C 34.359197,8.9847551 31.876216,9.8172966 30.838764,10.604528 C 29.118444,11.909747 24.865331,16.694644 24.846707,16.518072 z "
     style="font-size:12;opacity:0.7;fill-rule:evenodd;stroke:none;stroke-width:0.115296pt;fill:url(#linearGradient845);"
     id="path677" />
  <path
     d="M 3.5555053,19.004340 C 3.3576192,18.598268 5.5739222,11.867920 7.7866188,10.288290 C 9.5603097,9.0219696 12.747462,9.4955679 15.014081,9.4396556 C 16.528852,7.1600008 18.197970,4.5832070 20.075131,3.9304393 C 22.682347,2.8577448 29.926849,5.4598435 30.151307,5.9204408 C 30.347252,6.3225308 24.008095,5.9361919 21.628254,7.1175251 C 19.456703,8.1952047 18.233783,10.865786 16.497082,12.697682 C 14.076619,12.645233 11.233364,12.183139 9.1942554,13.176832 C 6.9195545,14.285334 3.7295381,19.361464 3.5555053,19.004340 z "
     style="font-size:12;fill:#000000;fill-rule:evenodd;stroke:none;stroke-width:2.03405;fill-opacity:1;opacity:0.296369;"
     id="path853"
     sodipodi:nodetypes="ccccccccc" />
  <path
     d="M 1.9449795,18.306806 C 1.7470924,17.900732 3.9633958,11.170384 6.1760918,9.5907560 C 7.9497840,8.3244351 10.889368,8.0292814 13.155987,7.9733688 C 14.670756,5.6937142 16.587446,3.8856714 18.464605,3.2329041 C 21.071822,2.1602099 28.316323,4.7623076 28.540781,5.2229058 C 28.736726,5.6249967 22.397569,5.2386586 20.017728,6.4199906 C 17.846179,7.4976694 16.623258,10.168252 14.886556,12.000148 C 12.466094,11.947698 9.6228368,11.485605 7.5837285,12.479298 C 5.3090287,13.587800 2.1190124,18.663931 1.9449795,18.306806 z "
     style="font-size:12.000000;fill:url(#linearGradient850);fill-rule:evenodd;stroke:#261933;stroke-width:1.8750000;stroke-dasharray:none;"
     id="path854"
     sodipodi:nodetypes="ccccccccc" />
  <path
     d="M 3.9768959,14.343444 C 3.9624871,14.207476 5.7663021,11.097348 7.0335860,10.135855 C 7.6755129,9.6486722 9.5248709,9.5306983 9.5379846,9.6554200 C 9.5519902,9.7889976 7.8330446,10.365510 7.1148900,10.910321 C 5.9238358,11.813881 3.9896088,14.465622 3.9768959,14.343444 z "
     style="font-size:12;opacity:0.7;fill-rule:evenodd;stroke:none;stroke-width:0.115296pt;fill:url(#linearGradient847);"
     id="path855"
     sodipodi:nodetypes="ccccc" />
  <path
     d="M 14.337085,9.2411709 C 14.322830,9.1052041 17.136747,5.3341544 18.404000,4.3727516 C 19.046017,3.8856013 20.895405,3.7676896 20.908397,3.8924708 C 20.922496,4.0259261 19.203552,4.6022852 18.485333,5.1472796 C 17.294370,6.0508716 14.349981,9.3634095 14.337085,9.2411709 z "
     style="font-size:12;opacity:0.7;fill-rule:evenodd;stroke:none;stroke-width:0.115296pt;fill:url(#linearGradient845);"
     id="path856" />
  <path
     d="M 30.496049,42.656702 C 30.900036,43.863644 47.629436,49.290659 48.727842,48.379952 C 49.711034,47.556202 57.067786,23.037234 56.575198,22.064832 C 56.063170,20.992761 39.090046,18.322418 38.284405,19.055684 C 37.292026,19.964203 30.071764,41.271894 30.496049,42.656702 z "
     style="font-size:12;opacity:0.302675;fill-rule:evenodd;stroke-width:12.5;"
     id="path588" />
  <path
     d="M 30.673239,41.657761 C 31.051218,42.786946 46.702837,47.864338 47.730476,47.012300 C 48.650327,46.241619 55.533134,23.302241 55.072285,22.392467 C 54.593243,21.389462 38.713581,18.891170 37.959840,19.577196 C 37.031396,20.427184 30.276284,40.362167 30.673239,41.657761 z "
     style="font-size:12.000000;fill:url(#linearGradient586);fill-rule:evenodd;stroke:#261933;stroke-width:1.2336062;"
     id="path589" />
  <path
     d="M 31.738125,40.600037 C 31.574778,40.186211 38.065083,20.945237 38.671855,20.548439 C 39.430191,20.030915 51.689227,22.321895 51.852188,22.734749 C 52.001559,23.113145 42.287637,21.346236 40.126513,23.279303 C 35.981667,26.882645 31.887109,40.977480 31.738125,40.600037 z "
     style="font-size:12;opacity:0.699936;fill:url(#linearGradient587);fill-rule:evenodd;stroke-width:0.100121pt;"
     id="path590" />
  <path
     d="M 25.741308,46.041717 C 26.145295,47.248658 42.874694,52.675673 43.973101,51.764966 C 44.956291,50.941217 52.313046,26.422248 51.820459,25.449847 C 51.308433,24.377776 34.335304,21.707433 33.529662,22.440698 C 32.537283,23.349217 25.317020,44.656908 25.741308,46.041717 z "
     style="font-size:12;opacity:0.302675;fill-rule:evenodd;stroke-width:12.5;"
     id="path591" />
  <path
     d="M 25.798817,45.042776 C 26.176797,46.171962 41.828417,51.249351 42.856055,50.397314 C 43.775906,49.626634 50.658715,26.687255 50.197865,25.777480 C 49.718826,24.774476 33.839161,22.276184 33.085419,22.962212 C 32.156976,23.812199 25.401864,43.747181 25.798817,45.042776 z "
     style="font-size:12.000000;fill:url(#linearGradient586);fill-rule:evenodd;stroke:#261933;stroke-width:1.2336062;"
     id="path592" />
  <path
     d="M 26.863704,43.985052 C 26.700357,43.571225 33.190663,24.330253 33.797434,23.933452 C 34.555771,23.415929 46.814806,25.706908 46.977769,26.119765 C 47.127137,26.498159 37.413216,24.731249 35.252093,26.664318 C 31.107246,30.267660 27.012688,44.362495 26.863704,43.985052 z "
     style="font-size:12;opacity:0.699936;fill:url(#linearGradient587);fill-rule:evenodd;stroke-width:0.100121pt;"
     id="path593" />
  <path
     d="M 20.596088,49.426728 C 21.000074,50.633671 37.729475,56.060685 38.827881,55.149979 C 39.811072,54.326229 47.167824,29.807262 46.675239,28.834860 C 46.163214,27.762788 29.190084,25.092444 28.384442,25.825712 C 27.392064,26.734229 20.171800,48.041921 20.596088,49.426728 z "
     style="font-size:12;opacity:0.302675;fill-rule:evenodd;stroke-width:12.5;"
     id="path639" />
  <path
     d="M 20.653597,48.427788 C 21.031578,49.556973 36.683197,54.634364 37.710835,53.782326 C 38.630686,53.011645 45.513496,30.072268 45.052646,29.162493 C 44.573606,28.159489 28.693941,25.661198 27.940200,26.347224 C 27.011756,27.197211 20.256643,47.132193 20.653597,48.427788 z "
     style="font-size:12.000000;fill:url(#linearGradient586);fill-rule:evenodd;stroke:#261933;stroke-width:1.2336062;"
     id="path634" />
  <path
     d="M 21.718484,47.370064 C 21.555137,46.956238 28.045442,27.715264 28.652215,27.318467 C 29.410551,26.800942 41.669587,29.091922 41.832549,29.504776 C 41.981917,29.883172 32.267997,28.116262 30.106873,30.049331 C 25.962026,33.652672 21.867468,47.747507 21.718484,47.370064 z "
     style="font-size:12;opacity:0.699936;fill:url(#linearGradient587);fill-rule:evenodd;stroke-width:0.100121pt;"
     id="path640" />
</svg>
