<?xml version="1.0" encoding="UTF-8" standalone="no"?>
<!DOCTYPE svg PUBLIC "-//W3C//DTD SVG 20010904//EN"
"http://www.w3.org/TR/2001/REC-SVG-20010904/DTD/svg10.dtd">
<!-- Created with Inkscape (http://www.inkscape.org/) -->
<svg
   id="svg1"
   sodipodi:version="0.32"
   inkscape:version="0.40"
   width="48pt"
   height="48pt"
   sodipodi:docbase="/home/andrew/lila"
   sodipodi:docname="ooo_math.svg"
   xmlns="http://www.w3.org/2000/svg"
   xmlns:cc="http://web.resource.org/cc/"
   xmlns:inkscape="http://www.inkscape.org/namespaces/inkscape"
   xmlns:sodipodi="http://sodipodi.sourceforge.net/DTD/sodipodi-0.dtd"
   xmlns:rdf="http://www.w3.org/1999/02/22-rdf-syntax-ns#"
   xmlns:dc="http://purl.org/dc/elements/1.1/"
   xmlns:xlink="http://www.w3.org/1999/xlink">
  <defs
     id="defs3">
    <linearGradient
       id="linearGradient1780">
      <stop
         style="stop-color:#d9cce6;stop-opacity:1;"
         offset="0.00000000"
         id="stop1781" />
      <stop
         style="stop-color:#73667f;stop-opacity:1;"
         offset="1.00000000"
         id="stop1782" />
    </linearGradient>
    <linearGradient
       id="linearGradient2614">
      <stop
         offset="0.0000000"
         style="stop-color:#d7a600;stop-opacity:1.0000000;"
         id="stop2616" />
      <stop
         offset="1.0000000"
         style="stop-color:#fff300;stop-opacity:1.0000000;"
         id="stop2615" />
    </linearGradient>
    <linearGradient
       id="linearGradient1422"
       x1="0.0000000"
       y1="0.50000000"
       x2="1.0000000"
       y2="0.50000000"
       gradientUnits="objectBoundingBox"
       spreadMethod="pad"
       xlink:href="#linearGradient2614" />
    <linearGradient
       x1="0.64516127"
       y1="0.66406250"
       x2="0.32258064"
       y2="0.32031250"
       id="linearGradient1425"
       xlink:href="#linearGradient1422" />
    <linearGradient
       id="linearGradient1428">
      <stop
         style="stop-color:#f50000;stop-opacity:1;"
         offset="0.00000000"
         id="stop1429" />
      <stop
         style="stop-color:#a90000;stop-opacity:1;"
         offset="1.00000000"
         id="stop1430" />
    </linearGradient>
    <linearGradient
       x1="0.01923077"
       y1="0.00781250"
       x2="0.98076922"
       y2="0.98437500"
       id="linearGradient1427"
       xlink:href="#linearGradient1428" />
    <linearGradient
       id="linearGradient2617">
      <stop
         offset="0.0000000"
         style="stop-color:#7f7f7f;stop-opacity:1.0000000;"
         id="stop2619" />
      <stop
         offset="1.0000000"
         style="stop-color:#e6e6e6;stop-opacity:1.0000000;"
         id="stop2618" />
    </linearGradient>
    <linearGradient
       id="linearGradient1432"
       x1="0.0000000"
       y1="0.50000000"
       x2="1.0000000"
       y2="0.50000000"
       gradientUnits="objectBoundingBox"
       spreadMethod="pad"
       xlink:href="#linearGradient2617" />
    <linearGradient
       x1="0.98101264"
       y1="0.92187500"
       x2="0.01898734"
       y2="0.02343750"
       id="linearGradient1435"
       xlink:href="#linearGradient1432" />
    <linearGradient
       id="linearGradient1439">
      <stop
         style="stop-color:#ffffff;stop-opacity:1;"
         offset="0"
         id="stop1440" />
      <stop
         style="stop-color:#ffffff;stop-opacity:0;"
         offset="1"
         id="stop1441" />
    </linearGradient>
    <linearGradient
       x1="0.015748"
       y1="0.023437"
       x2="0.984252"
       y2="0.984375"
       id="linearGradient1438"
       xlink:href="#linearGradient1439" />
    <linearGradient
       xlink:href="#linearGradient863"
       id="linearGradient1017"
       x1="-0.41784036"
       y1="-0.32812500"
       x2="0.42723006"
       y2="0.72656250" />
    <linearGradient
       id="linearGradient997">
      <stop
         style="stop-color:#ffffff;stop-opacity:0.50000000;"
         offset="0.0000000"
         id="stop998" />
      <stop
         style="stop-color:#bfbfbf;stop-opacity:0.0000000;"
         offset="1.0000000"
         id="stop999" />
    </linearGradient>
    <linearGradient
       xlink:href="#linearGradient997"
       id="linearGradient996"
       y2="0.87559807"
       x2="0.87500000"
       y1="0.066985644"
       x1="0.33571428"
       spreadMethod="reflect" />
    <linearGradient
       id="linearGradient1256">
      <stop
         style="stop-color:#ffffff;stop-opacity:1;"
         offset="0"
         id="stop1258" />
      <stop
         style="stop-color:#ffffff;stop-opacity:0;"
         offset="1"
         id="stop1257" />
    </linearGradient>
    <linearGradient
       x1="0.006447"
       y1="0.039037"
       x2="0.980645"
       y2="0.984374"
       id="linearGradient1567"
       xlink:href="#linearGradient1256" />
    <linearGradient
       id="linearGradient1535">
      <stop
         style="stop-color:#ffffff;stop-opacity:1;"
         offset="0"
         id="stop1537" />
      <stop
         style="stop-color:#ffffff;stop-opacity:0;"
         offset="1"
         id="stop1536" />
    </linearGradient>
    <linearGradient
       id="linearGradient641"
       xlink:href="#linearGradient1535"
       x1="0.53333336"
       y1="-0.17346939"
       x2="0.58947366"
       y2="0.68367344" />
    <linearGradient
       id="linearGradient692">
      <stop
         offset="0.0000000"
         style="stop-color:#d9cce6;stop-opacity:1.0000000;"
         id="stop694" />
      <stop
         offset="1.0000000"
         style="stop-color:#ffffff;stop-opacity:1.0000000;"
         id="stop693" />
    </linearGradient>
    <linearGradient
       id="linearGradient950">
      <stop
         style="stop-color:#d9cce6;stop-opacity:1.0000000;"
         offset="0.0000000"
         id="stop951" />
      <stop
         style="stop-color:#ffffff;stop-opacity:1.0000000;"
         offset="1.0000000"
         id="stop952" />
    </linearGradient>
    <linearGradient
       id="linearGradient703">
      <stop
         style="stop-color:#d9cce6;stop-opacity:1;"
         offset="0.00000000"
         id="stop704" />
      <stop
         style="stop-color:#73667f;stop-opacity:1;"
         offset="1.00000000"
         id="stop705" />
    </linearGradient>
    <linearGradient
       id="linearGradient866">
      <stop
         style="stop-color:#ffffff;stop-opacity:1;"
         offset="0.00000000"
         id="stop867" />
      <stop
         style="stop-color:#d9cce6;stop-opacity:1;"
         offset="1.00000000"
         id="stop868" />
    </linearGradient>
    <linearGradient
       id="linearGradient584">
      <stop
         style="stop-color:#ffffff;stop-opacity:1;"
         offset="0.00000000"
         id="stop585" />
      <stop
         style="stop-color:#ffffff;stop-opacity:0;"
         offset="1.00000000"
         id="stop586" />
    </linearGradient>
    <linearGradient
       xlink:href="#linearGradient866"
       id="linearGradient586"
       x1="0.52898550"
       y1="0.022900764"
       x2="0.51449275"
       y2="0.94656491" />
    <linearGradient
       xlink:href="#linearGradient584"
       id="linearGradient587"
       x1="0.00000000"
       y1="-0.00000000"
       x2="1.00000000"
       y2="1.00000000" />
    <linearGradient
       xlink:href="#linearGradient584"
       id="linearGradient700"
       x1="0.00000000"
       y1="-0.00000000"
       x2="0.98453611"
       y2="0.99218750" />
    <linearGradient
       xlink:href="#linearGradient584"
       id="linearGradient701"
       x1="0.00367647"
       y1="0.01562500"
       x2="1.01102936"
       y2="1.01562500" />
    <linearGradient
       xlink:href="#linearGradient703"
       id="linearGradient702"
       x1="-0.00000000"
       y1="0.00000000"
       x2="0.97457629"
       y2="0.96093750" />
    <linearGradient
       xlink:href="#linearGradient584"
       id="linearGradient845"
       x1="-0.00000000"
       y1="-0.00000000"
       x2="0.99635035"
       y2="0.97727275" />
    <radialGradient
       xlink:href="#linearGradient703"
       id="radialGradient846" />
    <linearGradient
       xlink:href="#linearGradient584"
       id="linearGradient847"
       x1="0.00000000"
       y1="-0.00000000"
       x2="0.98540145"
       y2="0.93902439" />
    <linearGradient
       xlink:href="#linearGradient703"
       id="linearGradient848"
       x1="0.01219511"
       y1="0.01562503"
       x2="0.99999994"
       y2="1.00000012" />
    <linearGradient
       xlink:href="#linearGradient584"
       id="linearGradient849"
       x1="0.00000000"
       y1="-0.00000000"
       x2="0.98514849"
       y2="1.02343750" />
    <linearGradient
       xlink:href="#linearGradient703"
       id="linearGradient850"
       x1="-0.00000000"
       y1="0.00000000"
       x2="1.00000000"
       y2="0.95652175" />
    <linearGradient
       xlink:href="#linearGradient584"
       id="linearGradient863"
       x1="-0.00000000"
       y1="-0.00000000"
       x2="0.99635035"
       y2="0.82142860" />
    <linearGradient
       id="linearGradient1532"
       xlink:href="#linearGradient692"
       x1="0.97058821"
       y1="0.95312500"
       x2="-0.029411765"
       y2="-0.031250000" />
    <linearGradient
       xlink:href="#linearGradient584"
       id="linearGradient655"
       x1="70.195917"
       y1="13.139134"
       x2="76.508052"
       y2="19.304475"
       gradientTransform="scale(0.368646,2.712633)"
       gradientUnits="userSpaceOnUse" />
    <linearGradient
       xlink:href="#linearGradient584"
       id="linearGradient654"
       x1="13.731889"
       y1="68.310505"
       x2="19.931296"
       y2="73.893431"
       gradientTransform="scale(2.665559,0.375156)"
       gradientUnits="userSpaceOnUse" />
    <linearGradient
       xlink:href="#linearGradient584"
       id="linearGradient583"
       x1="5.7543639"
       y1="6.3438719"
       x2="33.205969"
       y2="32.909327"
       gradientTransform="scale(1.005603,0.994428)"
       gradientUnits="userSpaceOnUse" />
    <linearGradient
       xlink:href="#linearGradient1780"
       id="linearGradient581"
       x1="4.0020409"
       y1="5.3680615"
       x2="55.906673"
       y2="56.028469"
       gradientTransform="scale(1.006195,0.993843)"
       gradientUnits="userSpaceOnUse" />
    <linearGradient
       id="linearGradient578">
      <stop
         style="stop-color:#d9cce6;stop-opacity:1;"
         offset="0.00000000"
         id="stop579" />
      <stop
         style="stop-color:#73667f;stop-opacity:1;"
         offset="1.00000000"
         id="stop580" />
    </linearGradient>
    <linearGradient
       id="linearGradient1319">
      <stop
         style="stop-color:#ffffff;stop-opacity:1;"
         offset="0.00000000"
         id="stop1320" />
      <stop
         style="stop-color:#ffffff;stop-opacity:0;"
         offset="1.00000000"
         id="stop1321" />
    </linearGradient>
    <linearGradient
       xlink:href="#linearGradient584"
       id="linearGradient1419"
       x1="-0.06250000"
       y1="0.00775194"
       x2="0.93750000"
       y2="0.98449612" />
    <linearGradient
       xlink:href="#linearGradient584"
       id="linearGradient1418"
       x1="0.00729927"
       y1="0.04081633"
       x2="0.98175180"
       y2="0.91836733" />
    <linearGradient
       xlink:href="#linearGradient584"
       id="linearGradient1417"
       x1="-0.00000000"
       y1="0.00000000"
       x2="0.99635035"
       y2="0.96774191" />
    <linearGradient
       xlink:href="#linearGradient578"
       id="linearGradient1416"
       x1="0.00364964"
       y1="0.04477612"
       x2="0.99270076"
       y2="0.95522386" />
    <linearGradient
       id="linearGradient1413">
      <stop
         style="stop-color:#d9cce6;stop-opacity:1;"
         offset="0.00000000"
         id="stop1414" />
      <stop
         style="stop-color:#73667f;stop-opacity:1;"
         offset="1.00000000"
         id="stop1415" />
    </linearGradient>
    <linearGradient
       id="linearGradient1410">
      <stop
         style="stop-color:#ffffff;stop-opacity:1;"
         offset="0.00000000"
         id="stop1411" />
      <stop
         style="stop-color:#ffffff;stop-opacity:0;"
         offset="1.00000000"
         id="stop1412" />
    </linearGradient>
    <linearGradient
       inkscape:collect="always"
       xlink:href="#linearGradient578"
       id="linearGradient1424"
       gradientUnits="userSpaceOnUse"
       gradientTransform="scale(1.006195,0.993843)"
       x1="4.0020407"
       y1="5.3680617"
       x2="55.906673"
       y2="56.028468" />
    <linearGradient
       inkscape:collect="always"
       xlink:href="#linearGradient584"
       id="linearGradient1426"
       gradientUnits="userSpaceOnUse"
       gradientTransform="scale(1.005603,0.994428)"
       x1="5.7543639"
       y1="6.3438719"
       x2="33.205969"
       y2="32.909327" />
  </defs>
  <sodipodi:namedview
     id="base"
     pagecolor="#ffffff"
     bordercolor="#666666"
     borderopacity="1.0"
     inkscape:pageopacity="0.0"
     inkscape:pageshadow="2"
     inkscape:zoom="5.6423387"
     inkscape:cx="41.762623"
     inkscape:cy="16.072311"
     inkscape:window-width="668"
     inkscape:window-height="545"
     inkscape:window-x="64"
     inkscape:window-y="0"
     inkscape:current-layer="svg1" />
  <path
     d="M 10.602166,30.620773 C 10.316323,30.034209 13.517728,20.312357 16.713923,18.030616 C 19.275984,16.201439 23.879763,16.885544 27.153848,16.804779 C 29.341903,13.511863 31.752913,9.7897371 34.464436,8.8468245 C 38.230505,7.2973413 48.695040,11.056020 49.019265,11.721344 C 49.302304,12.302154 40.145520,11.744098 36.707891,13.450508 C 33.571129,15.007194 31.804643,18.864797 29.296014,21.510932 C 25.799703,21.435169 21.692677,20.767686 18.747226,22.203056 C 15.461469,23.804264 10.853552,31.136631 10.602166,30.620773 z "
     style="font-size:12.000000;opacity:0.29636899;fill:#000000;fill-opacity:1.0000000;fill-rule:evenodd;stroke:none;stroke-width:2.0340500;"
     id="path852"
     sodipodi:nodetypes="ccccccccc" />
  <path
     d="M 8.2757940,29.613200 C 7.9899499,29.026634 11.191356,19.304782 14.387551,17.023040 C 16.949612,15.193866 20.997801,15.259320 24.271886,15.178557 C 26.459939,11.885641 29.426540,8.7821617 32.138061,7.8392505 C 35.904134,6.2897664 46.368667,10.048443 46.692891,10.713768 C 46.975931,11.294581 37.819147,10.736522 34.381517,12.442935 C 31.244755,13.999618 29.478272,17.857220 26.969643,20.503358 C 23.473332,20.427594 19.366305,19.760112 16.420855,21.195481 C 13.135095,22.796690 8.5271794,30.129057 8.2757940,29.613200 z "
     style="font-size:12.000000;fill:url(#linearGradient850);fill-rule:evenodd;stroke:#261933;stroke-width:1.8750000;"
     id="path674"
     sodipodi:nodetypes="ccccccccc" />
  <path
     d="M 11.210856,23.888202 C 11.190042,23.691798 13.795615,19.199284 15.626184,17.810425 C 16.553433,17.106701 19.224795,16.936290 19.243738,17.116447 C 19.263968,17.309397 16.780985,18.142157 15.743626,18.929127 C 14.023173,20.234299 11.229219,24.064685 11.210856,23.888202 z "
     style="font-size:12.000000;opacity:0.69999999;fill:url(#linearGradient847);fill-rule:evenodd;stroke:none;stroke-width:0.11529599pt;"
     id="path676"
     sodipodi:nodetypes="ccccc" />
  <path
     d="M 26.175943,16.518072 C 26.155350,16.321670 30.219996,10.874464 32.050518,9.4857387 C 32.977900,8.7820585 35.649303,8.6117374 35.668070,8.7919818 C 35.688433,8.9847551 33.205452,9.8172966 32.168000,10.604528 C 30.447680,11.909747 26.194567,16.694644 26.175943,16.518072 z "
     style="font-size:12.000000;opacity:0.69999999;fill:url(#linearGradient845);fill-rule:evenodd;stroke:none;stroke-width:0.11529599pt;"
     id="path677" />
  <path
     d="M 4.8847413,19.004340 C 4.6868552,18.598268 6.9031582,11.867920 9.1158548,10.288290 C 10.889546,9.0219696 14.076698,9.4955679 16.343317,9.4396556 C 17.858088,7.1600008 19.527206,4.5832070 21.404367,3.9304393 C 24.011583,2.8577448 31.256085,5.4598435 31.480543,5.9204408 C 31.676488,6.3225308 25.337331,5.9361919 22.957490,7.1175251 C 20.785939,8.1952047 19.563019,10.865786 17.826318,12.697682 C 15.405855,12.645233 12.562600,12.183139 10.523491,13.176832 C 8.2487905,14.285334 5.0587741,19.361464 4.8847413,19.004340 z "
     style="font-size:12.000000;opacity:0.29636899;fill:#000000;fill-opacity:1.0000000;fill-rule:evenodd;stroke:none;stroke-width:2.0340500;"
     id="path853"
     sodipodi:nodetypes="ccccccccc" />
  <path
     d="M 3.2742155,18.306806 C 3.0763284,17.900732 5.2926318,11.170384 7.5053278,9.5907560 C 9.2790200,8.3244351 12.218604,8.0292814 14.485223,7.9733688 C 15.999992,5.6937142 17.916682,3.8856714 19.793841,3.2329041 C 22.401058,2.1602099 29.645559,4.7623076 29.870017,5.2229058 C 30.065962,5.6249967 23.726805,5.2386586 21.346964,6.4199906 C 19.175415,7.4976694 17.952494,10.168252 16.215792,12.000148 C 13.795330,11.947698 10.952073,11.485605 8.9129645,12.479298 C 6.6382647,13.587800 3.4482484,18.663931 3.2742155,18.306806 z "
     style="font-size:12.000000;fill:url(#linearGradient850);fill-rule:evenodd;stroke:#261933;stroke-width:1.8750000;"
     id="path854"
     sodipodi:nodetypes="ccccccccc" />
  <path
     d="M 5.3061319,14.343444 C 5.2917231,14.207476 7.0955381,11.097348 8.3628220,10.135855 C 9.0047489,9.6486722 10.854107,9.5306983 10.867221,9.6554200 C 10.881226,9.7889976 9.1622806,10.365510 8.4441260,10.910321 C 7.2530718,11.813881 5.3188448,14.465622 5.3061319,14.343444 z "
     style="font-size:12.000000;opacity:0.69999999;fill:url(#linearGradient847);fill-rule:evenodd;stroke:none;stroke-width:0.11529599pt;"
     id="path855"
     sodipodi:nodetypes="ccccc" />
  <path
     d="M 15.666321,9.2411709 C 15.652066,9.1052041 18.465983,5.3341544 19.733236,4.3727516 C 20.375253,3.8856013 22.224641,3.7676896 22.237633,3.8924708 C 22.251732,4.0259261 20.532788,4.6022852 19.814569,5.1472796 C 18.623606,6.0508716 15.679217,9.3634095 15.666321,9.2411709 z "
     style="font-size:12.000000;opacity:0.69999999;fill:url(#linearGradient845);fill-rule:evenodd;stroke:none;stroke-width:0.11529599pt;"
     id="path856" />
  <metadata
     id="metadata1096">
    <rdf:RDF
       id="RDF1097">
      <cc:Work
         rdf:about=""
         id="Work1098">
        <dc:format
           id="format1099">image/svg+xml</dc:format>
        <dc:type
           id="type1101"
           rdf:resource="http://purl.org/dc/dcmitype/StillImage" />
      </cc:Work>
    </rdf:RDF>
  </metadata>
  <path
     d="M 60.023836,22.138577 C 60.003022,21.942173 62.608595,17.449659 64.439164,16.060800 C 65.366413,15.357076 68.037775,15.186665 68.056718,15.366822 C 68.076948,15.559772 65.593965,16.392532 64.556606,17.179502 C 62.836153,18.484674 60.042199,22.315060 60.023836,22.138577 z "
     style="font-size:12.000000;opacity:0.69999999;fill:url(#linearGradient847);fill-rule:evenodd;stroke:none;stroke-width:0.11529599pt;"
     id="path1677"
     sodipodi:nodetypes="ccccc" />
  <path
     style="font-size:12.000000;opacity:0.69999999;fill:url(#linearGradient863);fill-rule:evenodd;stroke:none;stroke-width:0.13532900pt;"
     d="M 61.438566,37.584560 C 64.214751,37.259384 75.790897,37.338374 76.614831,37.584560 C 77.215889,37.764074 69.267312,38.861505 65.713533,38.861505 C 64.208511,38.861505 60.581078,37.684931 61.438566,37.584560 z "
     id="path1678"
     sodipodi:nodetypes="csss" />
  <path
     style="font-size:12.000000;opacity:0.29636899;fill:#000000;fill-opacity:1.0000000;fill-rule:evenodd;stroke:none;stroke-width:18.750000;"
     d="M 27.266060,8.4561476 C 25.914000,10.467244 28.801700,25.036081 27.389340,26.551916 C 26.169560,28.063592 10.592270,25.318211 8.6020096,26.460388 C 6.4734896,27.884276 6.4115056,36.715566 8.6795256,37.829078 C 10.830716,38.978138 25.992545,36.353268 27.278855,37.985330 C 28.627825,39.267581 25.794842,53.351998 27.329562,55.770435 C 28.760502,57.934901 37.280085,58.077211 38.745245,55.861352 C 40.200615,53.471077 37.821935,39.386569 39.058975,37.953582 C 40.342575,36.655870 55.287485,39.044192 56.809255,37.686846 C 58.869955,36.052078 58.963435,27.891585 56.783065,26.478731 C 54.854305,25.106310 40.662685,27.761609 39.201205,26.583664 C 37.647285,25.367929 40.129665,10.291532 38.777605,8.3640056 C 37.419195,6.2373256 28.607000,6.2739266 27.266060,8.4561476 z "
     id="path656"
     sodipodi:nodetypes="cssssssssssss"
     transform="matrix(0.500000,0.000000,0.000000,0.500000,28.81282,18.47353)" />
  <path
     style="font-size:12.000000;fill:url(#linearGradient581);fill-rule:evenodd;stroke:#261933;stroke-width:3.7500000;stroke-miterlimit:4.0000000;stroke-dasharray:none;fill-opacity:1.0;"
     d="M 24.836728,6.1112780 C 23.602698,7.9468000 26.212248,22.928051 24.923188,24.311550 C 23.809898,25.691252 7.9189589,23.379289 6.1024549,24.421752 C 4.1597649,25.721331 3.9702209,34.507751 6.0402369,35.524050 C 8.0036269,36.572792 23.638978,33.923990 24.812988,35.413566 C 26.044188,36.583875 23.460798,51.474002 24.861538,53.681305 C 26.167558,55.656808 34.860668,55.641491 36.197908,53.619088 C 37.526218,51.437489 35.193028,37.003501 36.322058,35.695618 C 37.493598,34.511201 52.952578,36.714060 54.341498,35.475216 C 56.222288,33.983168 56.172768,25.649611 54.182748,24.360102 C 52.422378,23.107496 37.594018,25.325007 36.260128,24.249901 C 34.841868,23.140301 37.470408,7.8998370 36.236388,6.1405880 C 34.996578,4.1995720 26.060598,4.1195720 24.836728,6.1112780 z "
     id="path650"
     sodipodi:nodetypes="cssssssssssss"
     transform="matrix(0.500000,0.000000,0.000000,0.500000,28.81282,18.47353)" />
  <path
     style="fill:url(#linearGradient583);fill-opacity:1.0000000;fill-rule:evenodd;stroke:none;stroke-width:1.0000000pt;stroke-linecap:butt;stroke-linejoin:miter;stroke-opacity:1.0000000;"
     d="M 6.7984249,33.790168 C 6.4454259,33.372986 5.5395709,26.332371 7.0145459,25.916046 C 12.348357,24.410535 22.757308,28.647460 26.176478,25.370755 C 29.346458,22.332857 25.015288,11.759136 26.392028,6.9196970 C 26.827308,5.3896260 33.913528,6.3707630 34.208488,6.8132090 C 34.462618,7.1944060 28.238318,7.1936980 27.931688,8.7268720 C 26.865578,14.057395 30.477648,23.861521 27.383828,26.799353 C 23.943408,30.066303 14.696654,26.040971 8.6635479,27.229311 C 7.4485899,27.468623 7.0494309,34.086810 6.7984249,33.790168 z "
     id="path651"
     sodipodi:nodetypes="cssssssss"
     transform="matrix(0.500000,0.000000,0.000000,0.500000,28.81282,18.47353)" />
  <path
     style="opacity:0.80082798;fill:url(#linearGradient655);fill-opacity:1.0000000;fill-rule:evenodd;stroke:none;stroke-width:1.0000000pt;stroke-linecap:butt;stroke-linejoin:miter;stroke-opacity:1.0000000;"
     d="M 26.062218,52.564224 C 25.830478,51.160880 26.674558,38.031424 27.213598,35.623454 C 27.432058,34.647601 28.487538,40.164554 28.334728,42.412756 C 28.103738,45.811480 26.204178,53.423981 26.062218,52.564224 z "
     id="path652"
     sodipodi:nodetypes="csss"
     transform="matrix(0.500000,0.000000,0.000000,0.500000,28.81282,18.47353)" />
  <path
     style="opacity:0.80082798;fill:url(#linearGradient654);fill-opacity:1.0000000;fill-rule:evenodd;stroke:none;stroke-width:1.0000000pt;stroke-linecap:butt;stroke-linejoin:miter;stroke-opacity:1.0000000;"
     d="M 36.617198,26.636979 C 40.005318,25.813513 52.631848,25.317733 53.408828,25.618097 C 54.010868,25.850838 44.978498,27.528976 40.750458,27.906855 C 39.328308,28.033958 35.734168,26.851598 36.617198,26.636979 z "
     id="path653"
     sodipodi:nodetypes="csss"
     transform="matrix(0.500000,0.000000,0.000000,0.500000,28.81282,18.47353)" />
  <path
     style="opacity:0.29636899;fill:#000000;fill-opacity:1.0000000;fill-rule:evenodd;stroke:none;stroke-width:18.750000;stroke-linecap:butt;stroke-linejoin:miter;stroke-opacity:1.0000000;"
     d="M 6.3770303,29.343265 C 20.129569,27.204219 43.248160,26.886382 57.064966,29.343265 C 60.153550,29.934604 60.180462,36.862092 57.064965,37.340372 C 43.043307,39.304432 19.924802,39.673659 6.3770303,37.606934 C 3.2336318,36.962222 3.2335915,30.004520 6.3770303,29.343265 z "
     id="path659"
     sodipodi:nodetypes="cssss"
     transform="matrix(0.500000,0.000000,0.000000,0.500000,2.233471,33.44491)" />
  <path
     style="font-size:12.000000;fill:url(#linearGradient1424);fill-rule:evenodd;stroke:#261933;stroke-width:3.7500000;stroke-miterlimit:4.0000000;stroke-dasharray:none;"
     d="M 8.1694426,28.343869 C 20.548368,26.418480 41.357853,26.132389 53.794626,28.343869 C 56.574717,28.876137 56.598942,35.111703 53.794626,35.542212 C 41.173460,37.310111 20.364052,37.642458 8.1694426,35.782158 C 5.3400109,35.201827 5.3399738,28.939082 8.1694426,28.343869 z "
     id="path657"
     sodipodi:nodetypes="cssss"
     transform="matrix(0.500000,0.000000,0.000000,0.500000,2.233471,33.44491)" />
  <path
     style="fill:url(#linearGradient1426);fill-opacity:1.0000000;fill-rule:evenodd;stroke:none;stroke-width:1.0000000pt;stroke-linecap:butt;stroke-linejoin:miter;stroke-opacity:1.0000000;"
     d="M 8.2358813,33.209263 C 7.9935370,32.954355 7.7513252,30.342628 8.7889435,30.155263 C 23.344304,27.357174 51.525084,29.416716 51.743323,29.646254 C 51.955243,29.869157 23.544433,29.376788 10.079417,31.512588 C 9.2335166,31.636105 8.4236961,33.406796 8.2358813,33.209263 z "
     id="path658"
     sodipodi:nodetypes="cssss"
     transform="matrix(0.500000,0.000000,0.000000,0.500000,2.233471,33.44491)" />
</svg>
