<?xml version="1.0" encoding="UTF-8" standalone="no"?>
<!DOCTYPE svg PUBLIC "-//W3C//DTD SVG 20010904//EN"
"http://www.w3.org/TR/2001/REC-SVG-20010904/DTD/svg10.dtd">
<!-- Created with Inkscape (http://www.inkscape.org/) -->
<svg
   id="svg1"
   sodipodi:version="0.32"
   inkscape:version="0.40"
   width="48pt"
   height="48pt"
   sodipodi:docbase="/home/andrew/lila"
   sodipodi:docname="ooo_web.svg"
   xmlns="http://www.w3.org/2000/svg"
   xmlns:cc="http://web.resource.org/cc/"
   xmlns:inkscape="http://www.inkscape.org/namespaces/inkscape"
   xmlns:sodipodi="http://sodipodi.sourceforge.net/DTD/sodipodi-0.dtd"
   xmlns:rdf="http://www.w3.org/1999/02/22-rdf-syntax-ns#"
   xmlns:dc="http://purl.org/dc/elements/1.1/"
   xmlns:xlink="http://www.w3.org/1999/xlink">
  <defs
     id="defs3">
    <linearGradient
       id="linearGradient1775">
      <stop
         style="stop-color:#ffffff;stop-opacity:1;"
         offset="0"
         id="stop1776" />
      <stop
         style="stop-color:#ffffff;stop-opacity:0;"
         offset="1"
         id="stop1777" />
    </linearGradient>
    <linearGradient
       id="linearGradient1772">
      <stop
         style="stop-color:#d9cce6;stop-opacity:1;"
         offset="0.00000000"
         id="stop1773" />
      <stop
         style="stop-color:#73667f;stop-opacity:1;"
         offset="1.00000000"
         id="stop1774" />
    </linearGradient>
    <linearGradient
       id="linearGradient2614">
      <stop
         offset="0.0000000"
         style="stop-color:#d7a600;stop-opacity:1.0000000;"
         id="stop2616" />
      <stop
         offset="1.0000000"
         style="stop-color:#fff300;stop-opacity:1.0000000;"
         id="stop2615" />
    </linearGradient>
    <linearGradient
       id="linearGradient1422"
       x1="0.0000000"
       y1="0.50000000"
       x2="1.0000000"
       y2="0.50000000"
       gradientUnits="objectBoundingBox"
       spreadMethod="pad"
       xlink:href="#linearGradient2614" />
    <linearGradient
       x1="0.64516127"
       y1="0.66406250"
       x2="0.32258064"
       y2="0.32031250"
       id="linearGradient1425"
       xlink:href="#linearGradient1422" />
    <linearGradient
       id="linearGradient1428">
      <stop
         style="stop-color:#f50000;stop-opacity:1;"
         offset="0.00000000"
         id="stop1429" />
      <stop
         style="stop-color:#a90000;stop-opacity:1;"
         offset="1.00000000"
         id="stop1430" />
    </linearGradient>
    <linearGradient
       x1="0.01923077"
       y1="0.00781250"
       x2="0.98076922"
       y2="0.98437500"
       id="linearGradient1427"
       xlink:href="#linearGradient1428" />
    <linearGradient
       id="linearGradient2617">
      <stop
         offset="0.0000000"
         style="stop-color:#7f7f7f;stop-opacity:1.0000000;"
         id="stop2619" />
      <stop
         offset="1.0000000"
         style="stop-color:#e6e6e6;stop-opacity:1.0000000;"
         id="stop2618" />
    </linearGradient>
    <linearGradient
       id="linearGradient1432"
       x1="0.0000000"
       y1="0.50000000"
       x2="1.0000000"
       y2="0.50000000"
       gradientUnits="objectBoundingBox"
       spreadMethod="pad"
       xlink:href="#linearGradient2617" />
    <linearGradient
       x1="0.98101264"
       y1="0.92187500"
       x2="0.01898734"
       y2="0.02343750"
       id="linearGradient1435"
       xlink:href="#linearGradient1432" />
    <linearGradient
       id="linearGradient1439">
      <stop
         style="stop-color:#ffffff;stop-opacity:1;"
         offset="0"
         id="stop1440" />
      <stop
         style="stop-color:#ffffff;stop-opacity:0;"
         offset="1"
         id="stop1441" />
    </linearGradient>
    <linearGradient
       x1="0.015748"
       y1="0.023437"
       x2="0.984252"
       y2="0.984375"
       id="linearGradient1438"
       xlink:href="#linearGradient1439" />
    <linearGradient
       xlink:href="#linearGradient863"
       id="linearGradient1017"
       x1="-0.41784036"
       y1="-0.32812500"
       x2="0.42723006"
       y2="0.72656250" />
    <linearGradient
       id="linearGradient997">
      <stop
         style="stop-color:#ffffff;stop-opacity:0.50000000;"
         offset="0.0000000"
         id="stop998" />
      <stop
         style="stop-color:#bfbfbf;stop-opacity:0.0000000;"
         offset="1.0000000"
         id="stop999" />
    </linearGradient>
    <linearGradient
       xlink:href="#linearGradient997"
       id="linearGradient996"
       y2="0.87559807"
       x2="0.87500000"
       y1="0.066985644"
       x1="0.33571428"
       spreadMethod="reflect" />
    <linearGradient
       id="linearGradient1256">
      <stop
         style="stop-color:#ffffff;stop-opacity:1;"
         offset="0"
         id="stop1258" />
      <stop
         style="stop-color:#ffffff;stop-opacity:0;"
         offset="1"
         id="stop1257" />
    </linearGradient>
    <linearGradient
       x1="0.006447"
       y1="0.039037"
       x2="0.980645"
       y2="0.984374"
       id="linearGradient1567"
       xlink:href="#linearGradient1256" />
    <linearGradient
       id="linearGradient1535">
      <stop
         style="stop-color:#ffffff;stop-opacity:1;"
         offset="0"
         id="stop1537" />
      <stop
         style="stop-color:#ffffff;stop-opacity:0;"
         offset="1"
         id="stop1536" />
    </linearGradient>
    <linearGradient
       id="linearGradient641"
       xlink:href="#linearGradient1535"
       x1="0.53333336"
       y1="-0.17346939"
       x2="0.58947366"
       y2="0.68367344" />
    <linearGradient
       id="linearGradient692">
      <stop
         offset="0.0000000"
         style="stop-color:#d9cce6;stop-opacity:1.0000000;"
         id="stop694" />
      <stop
         offset="1.0000000"
         style="stop-color:#ffffff;stop-opacity:1.0000000;"
         id="stop693" />
    </linearGradient>
    <linearGradient
       id="linearGradient950">
      <stop
         style="stop-color:#d9cce6;stop-opacity:1.0000000;"
         offset="0.0000000"
         id="stop951" />
      <stop
         style="stop-color:#ffffff;stop-opacity:1.0000000;"
         offset="1.0000000"
         id="stop952" />
    </linearGradient>
    <linearGradient
       id="linearGradient703">
      <stop
         style="stop-color:#d9cce6;stop-opacity:1;"
         offset="0.00000000"
         id="stop704" />
      <stop
         style="stop-color:#73667f;stop-opacity:1;"
         offset="1.00000000"
         id="stop705" />
    </linearGradient>
    <linearGradient
       id="linearGradient866">
      <stop
         style="stop-color:#ffffff;stop-opacity:1;"
         offset="0.00000000"
         id="stop867" />
      <stop
         style="stop-color:#d9cce6;stop-opacity:1;"
         offset="1.00000000"
         id="stop868" />
    </linearGradient>
    <linearGradient
       id="linearGradient584">
      <stop
         style="stop-color:#ffffff;stop-opacity:1;"
         offset="0.00000000"
         id="stop585" />
      <stop
         style="stop-color:#ffffff;stop-opacity:0;"
         offset="1.00000000"
         id="stop586" />
    </linearGradient>
    <linearGradient
       xlink:href="#linearGradient866"
       id="linearGradient586"
       x1="0.52898550"
       y1="0.022900764"
       x2="0.51449275"
       y2="0.94656491" />
    <linearGradient
       xlink:href="#linearGradient584"
       id="linearGradient587"
       x1="0.00000000"
       y1="-0.00000000"
       x2="1.00000000"
       y2="1.00000000" />
    <linearGradient
       xlink:href="#linearGradient584"
       id="linearGradient700"
       x1="0.00000000"
       y1="-0.00000000"
       x2="0.98453611"
       y2="0.99218750" />
    <linearGradient
       xlink:href="#linearGradient584"
       id="linearGradient701"
       x1="0.00367647"
       y1="0.01562500"
       x2="1.01102936"
       y2="1.01562500" />
    <linearGradient
       xlink:href="#linearGradient703"
       id="linearGradient702"
       x1="-0.00000000"
       y1="0.00000000"
       x2="0.97457629"
       y2="0.96093750" />
    <linearGradient
       xlink:href="#linearGradient584"
       id="linearGradient845"
       x1="-0.00000000"
       y1="-0.00000000"
       x2="0.99635035"
       y2="0.97727275" />
    <radialGradient
       xlink:href="#linearGradient703"
       id="radialGradient846" />
    <linearGradient
       xlink:href="#linearGradient584"
       id="linearGradient847"
       x1="0.00000000"
       y1="-0.00000000"
       x2="0.98540145"
       y2="0.93902439" />
    <linearGradient
       xlink:href="#linearGradient703"
       id="linearGradient848"
       x1="0.01219511"
       y1="0.01562503"
       x2="0.99999994"
       y2="1.00000012" />
    <linearGradient
       xlink:href="#linearGradient584"
       id="linearGradient849"
       x1="0.00000000"
       y1="-0.00000000"
       x2="0.98514849"
       y2="1.02343750" />
    <linearGradient
       xlink:href="#linearGradient703"
       id="linearGradient850"
       x1="-0.00000000"
       y1="0.00000000"
       x2="1.00000000"
       y2="0.95652175" />
    <linearGradient
       xlink:href="#linearGradient584"
       id="linearGradient863"
       x1="-0.00000000"
       y1="-0.00000000"
       x2="0.99635035"
       y2="0.82142860" />
    <linearGradient
       id="linearGradient1532"
       xlink:href="#linearGradient692"
       x1="0.97058821"
       y1="0.95312500"
       x2="-0.029411765"
       y2="-0.031250000" />
    <linearGradient
       x1="-0.006622"
       y1="0.007813"
       x2="0.920530"
       y2="0.921875"
       id="linearGradient578"
       xlink:href="#linearGradient570" />
    <linearGradient
       x1="0.980392"
       y1="0.976562"
       x2="0.006536"
       y2="0.007812"
       id="linearGradient575"
       xlink:href="#linearGradient563" />
    <linearGradient
       x1="0.007280"
       y1="0.021274"
       x2="0.960000"
       y2="0.946808"
       id="linearGradient573"
       xlink:href="#linearGradient570" />
    <linearGradient
       x1="5.8009739"
       y1="7.0153341"
       x2="41.035198"
       y2="42.601677"
       id="linearGradient569"
       xlink:href="#linearGradient1775"
       gradientTransform="scale(1.086809,0.920125)"
       gradientUnits="userSpaceOnUse" />
    <linearGradient
       x1="20.952061"
       y1="30.450672"
       x2="566.19940"
       y2="548.20013"
       id="linearGradient566"
       xlink:href="#linearGradient1772"
       gradientUnits="userSpaceOnUse" />
    <linearGradient
       id="linearGradient563">
      <stop
         style="stop-color:#d9cce6;stop-opacity:1;"
         offset="0.00000000"
         id="stop564" />
      <stop
         style="stop-color:#73667f;stop-opacity:1;"
         offset="1.00000000"
         id="stop565" />
    </linearGradient>
    <linearGradient
       id="linearGradient570">
      <stop
         style="stop-color:#ffffff;stop-opacity:1;"
         offset="0"
         id="stop571" />
      <stop
         style="stop-color:#ffffff;stop-opacity:0;"
         offset="1"
         id="stop572" />
    </linearGradient>
  </defs>
  <sodipodi:namedview
     id="base"
     pagecolor="#ffffff"
     bordercolor="#666666"
     borderopacity="1.0"
     inkscape:pageopacity="0.0"
     inkscape:pageshadow="2"
     inkscape:zoom="5.6423387"
     inkscape:cx="41.762623"
     inkscape:cy="20.969002"
     inkscape:window-width="668"
     inkscape:window-height="545"
     inkscape:window-x="64"
     inkscape:window-y="0"
     inkscape:current-layer="svg1" />
  <path
     d="M 10.602166,30.620773 C 10.316323,30.034209 13.517728,20.312357 16.713923,18.030616 C 19.275984,16.201439 23.879763,16.885544 27.153848,16.804779 C 29.341903,13.511863 31.752913,9.7897371 34.464436,8.8468245 C 38.230505,7.2973413 48.695040,11.056020 49.019265,11.721344 C 49.302304,12.302154 40.145520,11.744098 36.707891,13.450508 C 33.571129,15.007194 31.804643,18.864797 29.296014,21.510932 C 25.799703,21.435169 21.692677,20.767686 18.747226,22.203056 C 15.461469,23.804264 10.853552,31.136631 10.602166,30.620773 z "
     style="font-size:12.000000;opacity:0.29636899;fill:#000000;fill-opacity:1.0000000;fill-rule:evenodd;stroke:none;stroke-width:2.0340500;"
     id="path852"
     sodipodi:nodetypes="ccccccccc" />
  <path
     d="M 8.2757940,29.613200 C 7.9899499,29.026634 11.191356,19.304782 14.387551,17.023040 C 16.949612,15.193866 20.997801,15.259320 24.271886,15.178557 C 26.459939,11.885641 29.426540,8.7821617 32.138061,7.8392505 C 35.904134,6.2897664 46.368667,10.048443 46.692891,10.713768 C 46.975931,11.294581 37.819147,10.736522 34.381517,12.442935 C 31.244755,13.999618 29.478272,17.857220 26.969643,20.503358 C 23.473332,20.427594 19.366305,19.760112 16.420855,21.195481 C 13.135095,22.796690 8.5271794,30.129057 8.2757940,29.613200 z "
     style="font-size:12.000000;fill:url(#linearGradient850);fill-rule:evenodd;stroke:#261933;stroke-width:1.8750000;"
     id="path674"
     sodipodi:nodetypes="ccccccccc" />
  <path
     d="M 11.210856,23.888202 C 11.190042,23.691798 13.795615,19.199284 15.626184,17.810425 C 16.553433,17.106701 19.224795,16.936290 19.243738,17.116447 C 19.263968,17.309397 16.780985,18.142157 15.743626,18.929127 C 14.023173,20.234299 11.229219,24.064685 11.210856,23.888202 z "
     style="font-size:12.000000;opacity:0.69999999;fill:url(#linearGradient847);fill-rule:evenodd;stroke:none;stroke-width:0.11529599pt;"
     id="path676"
     sodipodi:nodetypes="ccccc" />
  <path
     d="M 26.175943,16.518072 C 26.155350,16.321670 30.219996,10.874464 32.050518,9.4857387 C 32.977900,8.7820585 35.649303,8.6117374 35.668070,8.7919818 C 35.688433,8.9847551 33.205452,9.8172966 32.168000,10.604528 C 30.447680,11.909747 26.194567,16.694644 26.175943,16.518072 z "
     style="font-size:12.000000;opacity:0.69999999;fill:url(#linearGradient845);fill-rule:evenodd;stroke:none;stroke-width:0.11529599pt;"
     id="path677" />
  <path
     d="M 4.8847413,19.004340 C 4.6868552,18.598268 6.9031582,11.867920 9.1158548,10.288290 C 10.889546,9.0219696 14.076698,9.4955679 16.343317,9.4396556 C 17.858088,7.1600008 19.527206,4.5832070 21.404367,3.9304393 C 24.011583,2.8577448 31.256085,5.4598435 31.480543,5.9204408 C 31.676488,6.3225308 25.337331,5.9361919 22.957490,7.1175251 C 20.785939,8.1952047 19.563019,10.865786 17.826318,12.697682 C 15.405855,12.645233 12.562600,12.183139 10.523491,13.176832 C 8.2487905,14.285334 5.0587741,19.361464 4.8847413,19.004340 z "
     style="font-size:12.000000;opacity:0.29636899;fill:#000000;fill-opacity:1.0000000;fill-rule:evenodd;stroke:none;stroke-width:2.0340500;"
     id="path853"
     sodipodi:nodetypes="ccccccccc" />
  <path
     d="M 3.2742155,18.306806 C 3.0763284,17.900732 5.2926318,11.170384 7.5053278,9.5907560 C 9.2790200,8.3244351 12.218604,8.0292814 14.485223,7.9733688 C 15.999992,5.6937142 17.916682,3.8856714 19.793841,3.2329041 C 22.401058,2.1602099 29.645559,4.7623076 29.870017,5.2229058 C 30.065962,5.6249967 23.726805,5.2386586 21.346964,6.4199906 C 19.175415,7.4976694 17.952494,10.168252 16.215792,12.000148 C 13.795330,11.947698 10.952073,11.485605 8.9129645,12.479298 C 6.6382647,13.587800 3.4482484,18.663931 3.2742155,18.306806 z "
     style="font-size:12.000000;fill:url(#linearGradient850);fill-rule:evenodd;stroke:#261933;stroke-width:1.8750000;"
     id="path854"
     sodipodi:nodetypes="ccccccccc" />
  <path
     d="M 5.3061319,14.343444 C 5.2917231,14.207476 7.0955381,11.097348 8.3628220,10.135855 C 9.0047489,9.6486722 10.854107,9.5306983 10.867221,9.6554200 C 10.881226,9.7889976 9.1622806,10.365510 8.4441260,10.910321 C 7.2530718,11.813881 5.3188448,14.465622 5.3061319,14.343444 z "
     style="font-size:12.000000;opacity:0.69999999;fill:url(#linearGradient847);fill-rule:evenodd;stroke:none;stroke-width:0.11529599pt;"
     id="path855"
     sodipodi:nodetypes="ccccc" />
  <path
     d="M 15.666321,9.2411709 C 15.652066,9.1052041 18.465983,5.3341544 19.733236,4.3727516 C 20.375253,3.8856013 22.224641,3.7676896 22.237633,3.8924708 C 22.251732,4.0259261 20.532788,4.6022852 19.814569,5.1472796 C 18.623606,6.0508716 15.679217,9.3634095 15.666321,9.2411709 z "
     style="font-size:12.000000;opacity:0.69999999;fill:url(#linearGradient845);fill-rule:evenodd;stroke:none;stroke-width:0.11529599pt;"
     id="path856" />
  <metadata
     id="metadata1096">
    <rdf:RDF
       id="RDF1097">
      <cc:Work
         rdf:about=""
         id="Work1098">
        <dc:format
           id="format1099">image/svg+xml</dc:format>
        <dc:type
           id="type1101"
           rdf:resource="http://purl.org/dc/dcmitype/StillImage" />
      </cc:Work>
    </rdf:RDF>
  </metadata>
  <path
     d="M 60.023836,22.138577 C 60.003022,21.942173 62.608595,17.449659 64.439164,16.060800 C 65.366413,15.357076 68.037775,15.186665 68.056718,15.366822 C 68.076948,15.559772 65.593965,16.392532 64.556606,17.179502 C 62.836153,18.484674 60.042199,22.315060 60.023836,22.138577 z "
     style="font-size:12.000000;opacity:0.69999999;fill:url(#linearGradient847);fill-rule:evenodd;stroke:none;stroke-width:0.11529599pt;"
     id="path1677"
     sodipodi:nodetypes="ccccc" />
  <path
     style="font-size:12.000000;opacity:0.69999999;fill:url(#linearGradient863);fill-rule:evenodd;stroke:none;stroke-width:0.13532900pt;"
     d="M 61.438566,37.584560 C 64.214751,37.259384 75.790897,37.338374 76.614831,37.584560 C 77.215889,37.764074 69.267312,38.861505 65.713533,38.861505 C 64.208511,38.861505 60.581078,37.684931 61.438566,37.584560 z "
     id="path1678"
     sodipodi:nodetypes="csss" />
  <ellipse
     cx="286.92639"
     cy="278.06998"
     rx="278.19861"
     ry="278.19858"
     transform="matrix(6.123713e-2,0.000000,0.000000,6.123713e-2,25.39336,25.93571)"
     style="font-size:12.000000;opacity:0.30267498;fill-rule:evenodd;stroke-width:13.253600;"
     id="path1023"
     d="M 565.12500 278.06998 A 278.19861 278.19858 0 1 0 8.7277832,278.06998 A 278.19861 278.19858 0 1 0 565.12500 278.06998 z"
     sodipodi:cx="286.92639"
     sodipodi:cy="278.06998"
     sodipodi:rx="278.19861"
     sodipodi:ry="278.19858" />
  <ellipse
     cx="286.92639"
     cy="278.06998"
     rx="278.19861"
     ry="278.19858"
     transform="matrix(6.123713e-2,0.000000,0.000000,6.123713e-2,23.90579,24.09396)"
     style="font-size:12.000000;fill:url(#linearGradient566);fill-rule:evenodd;stroke:#261933;stroke-width:30.618679;stroke-opacity:1.0000000;stroke-miterlimit:4.0000000;stroke-dasharray:none;fill-opacity:1.0;"
     id="path983"
     d="M 565.12500 278.06998 A 278.19861 278.19858 0 1 0 8.7277832,278.06998 A 278.19861 278.19858 0 1 0 565.12500 278.06998 z"
     sodipodi:cx="286.92639"
     sodipodi:cy="278.06998"
     sodipodi:rx="278.19861"
     sodipodi:ry="278.19858" />
  <path
     d="M 11.295376,12.589173 C 12.250138,12.060148 13.299196,13.930215 14.590292,14.109020 C 15.743436,14.268547 18.547286,12.458415 20.053847,13.319478 C 21.052161,13.747113 20.202685,17.505625 19.898715,19.755876 C 19.516033,21.561911 18.294062,24.148798 17.529693,26.388162 C 17.132325,27.369294 14.371030,30.923927 14.258151,31.149682 C 14.145474,31.375237 15.340274,34.387559 14.596683,34.759555 C 13.821626,35.218257 12.864468,30.809252 11.212366,29.570200 C 10.499441,29.142365 8.8555206,29.340750 8.2793066,29.796056 C 7.5928025,30.168349 8.1836106,34.070005 9.1816446,35.210864 C 10.204763,36.745094 11.745485,37.925311 12.678969,39.497402 C 13.888754,41.535183 14.634244,43.859554 15.611879,46.040579 C 15.611879,46.040579 14.805056,48.824654 14.917934,48.824654 C 15.030811,48.824654 16.627176,52.019377 16.627176,52.019377 C 13.349340,49.529689 10.710611,47.100430 8.5049106,44.122772 C 6.9503316,42.023954 5.7104608,39.143784 5.3462077,36.790046 C 5.2216224,35.985121 6.7273247,35.502147 7.0383963,34.646777 C 7.6087559,33.220729 4.6178293,29.681380 4.4969618,28.525137 C 4.3485125,27.280092 5.1016534,22.299010 6.8127522,19.304668 C 8.0378596,16.965713 9.4675636,13.601772 11.295376,12.589173 z "
     style="font-size:12.000000;opacity:0.50445902;fill:#261933;fill-rule:evenodd;stroke:#000000;stroke-width:0.11407400pt;"
     id="path565"
     transform="matrix(0.650000,0.000000,0.000000,0.650000,21.90214,21.51456)" />
  <path
     d="M 30.728535,21.109603 C 30.118699,21.985352 29.466008,23.552945 29.825916,24.380745 C 30.218089,25.282466 31.914445,26.280278 32.984680,26.298658 C 34.095571,26.317838 35.229637,25.073393 36.368998,24.493723 C 37.373007,23.982979 38.341552,23.200229 39.414883,23.027118 C 40.673016,22.824240 42.455177,22.760308 43.363189,23.365750 C 44.034457,23.813363 44.301666,25.298448 44.152927,26.185981 C 43.837573,26.862745 42.782320,27.445412 43.137532,27.878141 C 43.448498,28.141754 45.606546,26.551684 45.957769,25.621994 C 46.245853,24.859625 44.878838,23.772807 45.055348,22.801663 C 45.197993,22.160162 47.541943,22.322384 48.326891,22.463331 C 48.974387,22.620861 49.603102,24.226614 50.244805,24.155390 C 50.832665,24.155390 52.300170,22.258455 52.459193,22.267344 C 53.071231,22.368434 53.516147,24.155390 53.516147,24.155390 C 52.463092,25.133127 51.613616,26.475167 50.357480,27.088501 C 48.379730,28.054349 46.045570,28.635916 43.814496,28.893436 C 40.179551,29.312880 35.870041,27.836786 32.759027,29.118991 C 30.304695,30.130689 27.154322,33.462166 27.118562,35.774850 C 27.079104,38.312888 28.725513,42.626298 31.677902,42.887212 C 35.252014,43.280487 38.987049,44.085307 40.274846,45.731820 C 41.280952,47.018317 40.108427,51.866043 40.270452,53.468903 C 40.331390,54.000324 41.878103,53.058846 42.799206,52.583465 C 44.209665,51.855654 45.915813,50.418420 46.408979,48.860712 C 47.344761,45.906032 47.450041,42.241416 47.086041,39.046289 C 46.773179,36.300279 44.046748,31.329588 44.378683,31.036805 C 44.685950,30.765699 47.100024,36.259523 49.003654,37.354232 C 50.108253,37.989241 52.642994,37.053160 53.403365,36.225961 C 53.921704,35.661974 52.472277,33.508615 52.839279,33.180173 C 53.186802,32.869211 55.394800,35.048639 55.546739,34.308446 C 56.757214,28.688059 55.619451,24.537974 53.640707,19.334337 C 52.021472,15.362557 47.431366,9.8950044 42.530298,7.2148983 C 41.840145,6.8341331 38.849299,8.5193184 36.541409,9.9954944 C 35.225742,10.653979 33.858628,12.636821 34.534294,13.112604 C 35.129946,13.582592 36.895626,11.997118 38.145165,11.715624 C 40.385128,11.180206 41.425897,11.470491 43.137532,12.310277 C 43.137532,12.310277 45.563497,14.317793 44.491258,15.807273 C 43.810605,16.708891 41.558251,16.709790 41.558251,16.709790 C 41.069383,16.446776 40.559338,15.820858 40.091646,15.920148 C 39.318592,16.084270 38.666000,17.127537 37.835504,17.499630 C 36.146441,18.255908 34.172388,18.410441 32.533371,19.304668 C 31.606579,19.518535 31.108321,20.532931 30.728535,21.109603 z "
     style="font-size:12.000000;opacity:0.49999997;fill:#261933;fill-rule:evenodd;stroke:#000000;stroke-width:0.11407400pt;"
     id="path566"
     transform="matrix(0.650000,0.000000,0.000000,0.650000,21.90214,21.51456)" />
  <path
     d="M 9.7897126,44.278397 C 9.4408926,43.232139 -3.7709049,19.569979 21.341446,7.4434802 C 32.727260,1.8927782 49.548460,12.183016 51.419628,18.341416 C 51.707810,19.273101 40.039706,5.9730305 23.412093,13.328368 C 1.7636042,22.842420 10.094783,45.193706 9.7897126,44.278397 z "
     style="font-size:12.000000;opacity:0.69999999;fill:url(#linearGradient569);fill-rule:evenodd;stroke:none;stroke-width:0.099890900pt;fill-opacity:1.0;"
     id="path984"
     transform="matrix(0.650000,0.000000,0.000000,0.650000,21.90214,21.51456)" />
</svg>
