<?xml version="1.0" encoding="UTF-8" standalone="no"?>
<!-- Created with Inkscape (http://www.inkscape.org/) -->
<svg
   xmlns:dc="http://purl.org/dc/elements/1.1/"
   xmlns:cc="http://web.resource.org/cc/"
   xmlns:rdf="http://www.w3.org/1999/02/22-rdf-syntax-ns#"
   xmlns:svg="http://www.w3.org/2000/svg"
   xmlns="http://www.w3.org/2000/svg"
   xmlns:xlink="http://www.w3.org/1999/xlink"
   xmlns:sodipodi="http://inkscape.sourceforge.net/DTD/sodipodi-0.dtd"
   xmlns:inkscape="http://www.inkscape.org/namespaces/inkscape"
   version="1.0"
   x="0"
   y="0"
   width="48pt"
   height="48pt"
   id="svg611"
   sodipodi:version="0.32"
   inkscape:version="0.42.2"
   sodipodi:docname="kscreensaver.svg"
   sodipodi:docbase="/home/jakob/dev/lila-cvs/lila-theme/trunk/lila/kde/scalable/apps">
  <metadata
     id="metadata42">
    <rdf:RDF>
      <cc:Work
         rdf:about="">
        <dc:format>image/svg+xml</dc:format>
        <dc:type
           rdf:resource="http://purl.org/dc/dcmitype/StillImage" />
      </cc:Work>
    </rdf:RDF>
  </metadata>
  <sodipodi:namedview
     id="base"
     pagecolor="#ffffff"
     bordercolor="#666666"
     borderopacity="1.0"
     inkscape:pageopacity="0.0"
     inkscape:pageshadow="2"
     inkscape:zoom="13.666667"
     inkscape:cx="30.000001"
     inkscape:cy="29.948781"
     inkscape:window-width="1400"
     inkscape:window-height="992"
     inkscape:window-x="0"
     inkscape:window-y="0"
     inkscape:current-layer="svg611"
     inkscape:document-units="px"
     gridspacingy="1.0000000px"
     gridspacingx="1.0000000px"
     gridoriginy="0.0000000px"
     gridoriginx="0.0000000px"
     gridtolerance="0.40000000px" />
  <defs
     id="defs613">
    <linearGradient
       id="linearGradient868">
      <stop
         style="stop-color:#ffff00;stop-opacity:1.0000000;"
         offset="0.0000000"
         id="stop869" />
      <stop
         style="stop-color:#ffffff;stop-opacity:0;"
         offset="1"
         id="stop870" />
    </linearGradient>
    <linearGradient
       id="linearGradient860">
      <stop
         style="stop-color:#f50000;stop-opacity:1.0000000;"
         offset="0.0000000"
         id="stop861" />
      <stop
         style="stop-color:#a80000;stop-opacity:1.0000000;"
         offset="1.0000000"
         id="stop862" />
    </linearGradient>
    <linearGradient
       id="linearGradient1535">
      <stop
         style="stop-color:#ffffff;stop-opacity:1;"
         offset="0"
         id="stop1537" />
      <stop
         style="stop-color:#ffffff;stop-opacity:0;"
         offset="1"
         id="stop1536" />
    </linearGradient>
    <linearGradient
       id="linearGradient1528">
      <stop
         style="stop-color:#d9cce6;stop-opacity:1.0000000;"
         offset="0.0000000"
         id="stop1530" />
      <stop
         style="stop-color:#73667f;stop-opacity:1.0000000;"
         offset="1.0000000"
         id="stop1529" />
    </linearGradient>
    <linearGradient
       id="linearGradient642">
      <stop
         style="stop-color:#ffffff;stop-opacity:1;"
         offset="0"
         id="stop643" />
      <stop
         style="stop-color:#ffffff;stop-opacity:0;"
         offset="1"
         id="stop644" />
    </linearGradient>
    <linearGradient
       id="linearGradient635">
      <stop
         style="stop-color:#ffffff;stop-opacity:1.0000000;"
         offset="0.0000000"
         id="stop636" />
      <stop
         style="stop-color:#d9cce6;stop-opacity:1.0000000;"
         offset="1.0000000"
         id="stop637" />
    </linearGradient>
    <linearGradient
       x1="6.2175967"
       y1="3.8180369"
       x2="53.684010"
       y2="52.290992"
       id="linearGradient638"
       xlink:href="#linearGradient1528"
       gradientTransform="matrix(0.965084,0.000000,0.000000,1.036180,0.000000,1.525560)"
       gradientUnits="userSpaceOnUse" />
    <linearGradient
       x1="12.919350"
       y1="6.9662588"
       x2="55.101160"
       y2="50.003002"
       id="linearGradient641"
       xlink:href="#linearGradient642"
       gradientTransform="matrix(0.919180,0.000000,0.000000,1.087926,0.000000,1.525560)"
       gradientUnits="userSpaceOnUse" />
    <linearGradient
       x1="27.901974"
       y1="2.0148730"
       x2="37.413106"
       y2="14.683867"
       id="linearGradient1522"
       xlink:href="#linearGradient642"
       gradientTransform="matrix(0.281053,0.000000,0.000000,3.558044,0.000000,1.525560)"
       gradientUnits="userSpaceOnUse" />
    <linearGradient
       x1="18.046341"
       y1="11.283921"
       x2="49.792368"
       y2="43.118041"
       id="linearGradient1527"
       xlink:href="#linearGradient1535"
       gradientTransform="matrix(0.922573,0.000000,0.000000,1.083925,0.000000,1.525560)"
       gradientUnits="userSpaceOnUse" />
    <linearGradient
       id="linearGradient1532"
       xlink:href="#linearGradient860"
       x1="26.217704"
       y1="2.2336635"
       x2="56.534685"
       y2="33.958951"
       gradientTransform="matrix(0.808787,0.000000,0.000000,1.236419,-0.658537,-0.815903)"
       gradientUnits="userSpaceOnUse" />
    <linearGradient
       id="linearGradient1534"
       xlink:href="#linearGradient868"
       x1="52.140467"
       y1="8.6170187"
       x2="57.787789"
       y2="14.793777"
       gradientTransform="matrix(0.417012,0.000000,0.000000,2.398014,-1.097561,-1.401269)"
       gradientUnits="userSpaceOnUse" />
    <linearGradient
       id="linearGradient1539"
       xlink:href="#linearGradient868"
       x1="56.746727"
       y1="3.0514194"
       x2="58.112467"
       y2="11.903125"
       gradientTransform="matrix(0.533693,0.000000,0.000000,1.873737,-0.658537,-0.815903)"
       gradientUnits="userSpaceOnUse" />
    <linearGradient
       id="linearGradient1567"
       xlink:href="#linearGradient868"
       x1="73.565434"
       y1="8.1514532"
       x2="77.765992"
       y2="12.918534"
       gradientTransform="matrix(0.492755,0.136711,-0.522802,1.884359,7.098190,-16.51944)"
       gradientUnits="userSpaceOnUse" />
    <linearGradient
       inkscape:collect="always"
       xlink:href="#linearGradient635"
       id="linearGradient2072"
       x1="14.744928"
       y1="29.951181"
       x2="50.180939"
       y2="29.951181"
       gradientUnits="userSpaceOnUse"
       gradientTransform="translate(0.000000,1.525560)" />
    <linearGradient
       inkscape:collect="always"
       xlink:href="#linearGradient868"
       id="linearGradient2794"
       gradientUnits="userSpaceOnUse"
       gradientTransform="matrix(-0.203889,-0.467395,2.131965,-1.478105,25.19794,78.60687)"
       x1="47.053371"
       y1="9.8716583"
       x2="65.239784"
       y2="11.606289" />
  </defs>
  <path
     d="M 11.323296,58.686011 C 11.951521,59.102864 14.621051,60.238400 15.942291,59.955191 C 17.047672,59.597670 55.203686,47.137080 56.142616,45.674075 C 57.124721,44.076565 55.856932,12.993749 54.696814,11.939258 C 53.445181,10.790578 12.788123,6.6933319 11.537980,6.6565748 C 10.405014,6.5140167 7.6400123,7.4901496 7.1064044,8.0837353 C 6.0443342,9.2529436 10.152592,57.826956 11.323296,58.686011 z "
     style="font-size:12.000000px;opacity:0.29999998;fill-rule:evenodd;stroke-width:12.500000"
     id="path839" />
  <path
     d="M 10.710824,55.989597 C 11.309499,56.386539 13.851862,57.468011 15.110416,57.198451 C 16.163471,56.857821 52.506055,44.989388 53.400251,43.595903 C 54.335686,42.074312 53.128257,12.468596 52.023269,11.464115 C 50.831206,10.370123 12.106038,6.4676462 10.915404,6.4326054 C 9.8362807,6.2968209 7.2027255,7.2264958 6.6944162,7.7918833 C 5.6828474,8.9055595 9.5957511,55.171364 10.710824,55.989597 z "
     style="font-size:12.000000px;fill:url(#linearGradient638);fill-rule:evenodd;stroke:#261933;stroke-width:1.8750000;stroke-miterlimit:4.0000000;stroke-dasharray:none"
     id="path834" />
  <path
     d="M 14.383126,55.186237 C 14.070498,54.873611 10.313979,9.2925253 10.825691,8.0214043 C 11.139641,7.6415366 50.332629,12.068596 50.646074,12.382037 C 50.944548,12.680714 14.326404,7.9011596 12.776710,10.201792 C 11.094427,12.584177 14.682413,55.485519 14.383126,55.186237 z "
     style="font-size:12.000000px;opacity:0.69999999;fill:url(#linearGradient641);fill-rule:evenodd;stroke:none;stroke-width:0.10518800pt"
     id="path835" />
  <path
     d="M 11.514286,54.497735 C 11.398196,54.323502 8.0068500,23.301697 7.8420129,8.7099075 C 7.8321255,8.1916795 9.7765052,7.8249071 9.9075644,8.0214043 C 10.006036,8.1691637 8.5226851,9.3404581 8.5305678,9.7427089 C 8.7014020,24.335709 11.627626,54.667805 11.514286,54.497735 z "
     style="font-size:12.000000px;opacity:0.69993597;fill:url(#linearGradient1522);fill-rule:evenodd;stroke:none;stroke-width:0.10518800pt"
     id="path836" />
  <path
     d="M 15.177322,12.487334 C 14.558788,13.274708 16.374674,49.880626 17.316630,50.566579 C 18.289339,51.197131 48.857076,41.400993 49.619702,40.405066 C 50.338948,39.572683 49.355237,16.225320 48.871027,15.375522 C 48.247804,14.469411 15.852983,11.734380 15.177322,12.487334 z "
     style="font-size:12.000000px;fill:url(#linearGradient2072);fill-opacity:1.0000000;fill-rule:evenodd;stroke:#261933;stroke-width:0.61334801"
     id="path837" />
  <path
     d="M 17.744431,48.534297 C 17.506854,48.241627 15.346975,14.457192 15.926202,13.664015 C 16.692801,12.760451 45.424386,15.510960 45.661957,15.803323 C 45.888033,16.081226 19.622945,13.148841 17.316630,15.375420 C 15.744634,16.895278 17.970295,48.812095 17.744431,48.534297 z "
     style="font-size:12.000000px;opacity:0.69993597;fill:url(#linearGradient1527);fill-rule:evenodd;stroke:none;stroke-width:0.098044699pt"
     id="path838" />
  <path
     style="fill:#000000;fill-opacity:0.29804131;fill-rule:evenodd;stroke:none;stroke-width:1.8750000;stroke-dasharray:none;stroke-opacity:1.0000000"
     d="M 33.260702,42.423746 C 38.044338,42.488531 41.808371,39.832340 44.818435,37.240932 C 47.828498,34.649525 47.691668,30.233449 46.133913,25.439347 C 44.576158,20.645244 42.456837,20.070477 42.575481,13.142338 C 42.629758,9.9728344 42.335951,2.1312535 39.358054,9.8207120 C 36.496372,17.210084 36.663742,21.951634 37.498921,24.802181 C 38.334100,27.652729 34.809671,20.940614 33.953660,18.285523 C 33.089934,15.606507 33.263554,11.326865 34.442672,9.6424520 C 35.621791,7.9580366 33.342229,4.3609080 32.883199,2.7370534 C 32.006429,-0.58555786 32.597181,5.3523358 31.300272,7.6988956 C 30.090775,9.8872980 28.724831,8.0876706 28.036314,16.120968 C 27.358892,24.024823 29.829585,28.559720 30.765457,29.984994 C 31.701329,31.410267 25.434156,26.106743 24.437733,21.023241 C 23.584850,16.672044 23.971362,8.4694420 21.359134,18.562361 C 19.506666,24.866009 20.953968,31.640089 23.360047,35.426948 C 25.728869,39.155169 28.477067,42.358961 33.260702,42.423746 z "
     id="path863"
     sodipodi:nodetypes="csssssssssssssss" />
  <path
     style="fill:url(#linearGradient1532);fill-rule:evenodd;stroke:#330000;stroke-width:1.8750000;stroke-dasharray:none;stroke-opacity:1.0000000;stroke-linejoin:round"
     d="M 31.995898,41.895026 C 36.779534,41.959811 40.543567,39.303620 43.553631,36.712212 C 46.563694,34.120805 46.134181,30.363266 44.576426,25.569164 C 43.018671,20.775061 41.332457,19.395335 41.237506,16.198984 C 40.849920,3.1516485 40.423550,5.1252826 37.800568,10.974919 C 33.805666,19.884135 40.242923,24.312980 36.234117,24.273461 C 35.116348,24.262442 33.734059,22.502577 32.469343,18.634852 C 31.341195,15.184773 31.998750,10.798145 33.177868,9.1137306 C 34.356987,7.4293157 32.077425,3.8321876 31.618395,2.2083330 C 30.741625,-1.1142782 31.332377,4.8236154 30.035468,7.1701748 C 28.825971,9.3585776 26.801490,10.778462 26.771510,15.592248 C 26.723563,23.524935 31.019722,28.681876 29.500653,29.456274 C 26.704818,30.881547 23.451625,24.624002 22.587563,20.348180 C 21.723501,16.072359 22.926070,8.9651108 20.313842,19.058031 C 18.461374,25.361679 19.689164,31.111369 22.095243,34.898228 C 24.464065,38.626449 27.212263,41.830241 31.995898,41.895026 z "
     id="path859"
     sodipodi:nodetypes="cssssszsssssssss" />
  <path
     style="fill:url(#linearGradient1534);fill-opacity:1.0000000;fill-rule:evenodd;stroke:none;stroke-width:0.12500000;stroke-linecap:butt;stroke-linejoin:miter;stroke-dasharray:none;stroke-opacity:1.0000000"
     d="M 21.330983,18.768732 C 19.839430,23.685334 19.839429,29.927761 22.822536,34.568149 C 21.938653,28.307308 19.749788,25.280565 22.732895,24.543996 C 21.993894,22.228664 21.386225,20.462842 21.330983,18.768732 z "
     id="path867"
     sodipodi:nodetypes="cccc" />
  <path
     style="fill:url(#linearGradient1539);fill-opacity:1.0000000;fill-rule:evenodd;stroke:none;stroke-width:0.12500000;stroke-linecap:butt;stroke-linejoin:miter;stroke-dasharray:none;stroke-opacity:1.0000000"
     d="M 28.596340,21.748922 C 27.274892,15.357235 27.453289,12.886162 28.785832,10.805028 C 29.554888,9.6039359 31.824181,7.3664267 31.603211,4.4938054 C 32.542337,7.6978826 32.542336,6.6482714 32.542336,7.9740966 C 32.542336,9.2999226 31.713695,8.8105896 30.277385,10.523115 C 28.067677,12.511853 28.603634,14.676395 28.596340,21.748922 z "
     id="path871"
     sodipodi:nodetypes="cscccc" />
  <path
     style="fill:url(#linearGradient1567);fill-opacity:1.0000000;fill-rule:evenodd;stroke:none;stroke-width:0.12500000;stroke-linecap:butt;stroke-linejoin:miter;stroke-dasharray:none;stroke-opacity:1.0000000"
     d="M 39.850942,8.6264747 C 40.001261,11.689913 40.043479,11.528061 40.119986,12.893314 C 38.985492,12.486438 38.292947,14.197389 37.584931,17.988040 C 36.833873,14.581214 38.510346,12.139784 39.850942,8.6264747 z "
     id="path873"
     sodipodi:nodetypes="cccc" />
  <path
     style="fill:url(#linearGradient2794);fill-opacity:1.0000000;fill-rule:evenodd;stroke:none;stroke-width:0.12500000;stroke-linecap:butt;stroke-linejoin:miter;stroke-dasharray:none;stroke-opacity:1.0000000"
     d="M 29.491530,40.440198 C 34.495635,42.267873 39.850366,38.678397 43.056220,35.768067 C 45.941439,33.148816 45.012446,28.507469 41.797262,21.305693 C 40.121118,25.766153 31.256696,36.406331 24.000881,35.805591 C 25.050661,37.564537 26.570985,39.373512 29.491530,40.440198 z "
     id="path2792"
     sodipodi:nodetypes="csccs" />
</svg>
