<?xml version="1.0" encoding="UTF-8" standalone="no"?>
<!-- Created with Inkscape (http://www.inkscape.org/) -->
<svg
   xmlns:dc="http://purl.org/dc/elements/1.1/"
   xmlns:cc="http://web.resource.org/cc/"
   xmlns:rdf="http://www.w3.org/1999/02/22-rdf-syntax-ns#"
   xmlns:svg="http://www.w3.org/2000/svg"
   xmlns="http://www.w3.org/2000/svg"
   xmlns:xlink="http://www.w3.org/1999/xlink"
   xmlns:sodipodi="http://inkscape.sourceforge.net/DTD/sodipodi-0.dtd"
   xmlns:inkscape="http://www.inkscape.org/namespaces/inkscape"
   version="1.0"
   x="0"
   y="0"
   width="48pt"
   height="48pt"
   id="svg611"
   sodipodi:version="0.32"
   inkscape:version="0.42"
   sodipodi:docname="background.svg"
   sodipodi:docbase="/home/jakob/dev/lila/lila-theme/trunk/lila/kde/scalable/apps">
  <metadata
     id="metadata38">
    <rdf:RDF>
      <cc:Work
         rdf:about="">
        <dc:format>image/svg+xml</dc:format>
        <dc:type
           rdf:resource="http://purl.org/dc/dcmitype/StillImage" />
      </cc:Work>
    </rdf:RDF>
  </metadata>
  <sodipodi:namedview
     id="base"
     pagecolor="#ffffff"
     bordercolor="#666666"
     borderopacity="1.0"
     inkscape:pageopacity="0.0"
     inkscape:pageshadow="2"
     inkscape:zoom="8.0000000"
     inkscape:cx="28.652088"
     inkscape:cy="25.617752"
     inkscape:window-width="1400"
     inkscape:window-height="995"
     inkscape:window-x="0"
     inkscape:window-y="0"
     inkscape:current-layer="svg611" />
  <defs
     id="defs613">
    <linearGradient
       id="linearGradient1535">
      <stop
         style="stop-color:#ffffff;stop-opacity:1;"
         offset="0"
         id="stop1537" />
      <stop
         style="stop-color:#ffffff;stop-opacity:0;"
         offset="1"
         id="stop1536" />
    </linearGradient>
    <linearGradient
       id="linearGradient1528">
      <stop
         style="stop-color:#d9cce6;stop-opacity:1;"
         offset="0.00000000"
         id="stop1530" />
      <stop
         style="stop-color:#73667f;stop-opacity:1;"
         offset="1.00000000"
         id="stop1529" />
    </linearGradient>
    <linearGradient
       id="linearGradient642">
      <stop
         style="stop-color:#ffffff;stop-opacity:1;"
         offset="0"
         id="stop643" />
      <stop
         style="stop-color:#ffffff;stop-opacity:0;"
         offset="1"
         id="stop644" />
    </linearGradient>
    <linearGradient
       id="linearGradient635">
      <stop
         style="stop-color:#ffffff;stop-opacity:1;"
         offset="0.00000000"
         id="stop636" />
      <stop
         style="stop-color:#d9cce6;stop-opacity:1;"
         offset="1.00000000"
         id="stop637" />
    </linearGradient>
    <linearGradient
       x1="6.2175967"
       y1="3.8180369"
       x2="53.684010"
       y2="52.290992"
       id="linearGradient638"
       xlink:href="#linearGradient1528"
       gradientTransform="matrix(0.965084,0.000000,0.000000,1.036180,-1.491958e-3,0.000000)"
       gradientUnits="userSpaceOnUse" />
    <linearGradient
       x1="12.919350"
       y1="6.9662588"
       x2="55.101160"
       y2="50.003002"
       id="linearGradient641"
       xlink:href="#linearGradient642"
       gradientTransform="matrix(0.919180,0.000000,0.000000,1.087926,-1.491958e-3,0.000000)"
       gradientUnits="userSpaceOnUse" />
    <linearGradient
       x1="27.901974"
       y1="2.0148730"
       x2="37.413106"
       y2="14.683867"
       id="linearGradient1522"
       xlink:href="#linearGradient642"
       gradientTransform="matrix(0.281053,0.000000,0.000000,3.558044,-1.491958e-3,0.000000)"
       gradientUnits="userSpaceOnUse" />
    <linearGradient
       x1="18.046341"
       y1="11.283921"
       x2="49.792368"
       y2="43.118041"
       id="linearGradient1527"
       xlink:href="#linearGradient1535"
       gradientTransform="matrix(0.922573,0.000000,0.000000,1.083925,-1.491958e-3,0.000000)"
       gradientUnits="userSpaceOnUse" />
    <linearGradient
       inkscape:collect="always"
       xlink:href="#linearGradient635"
       id="linearGradient4461"
       gradientUnits="userSpaceOnUse"
       gradientTransform="matrix(0.552377,-0.233876,3.656610e-2,0.909060,15.43554,15.15038)"
       x1="31.561108"
       y1="3.8108811"
       x2="28.714420"
       y2="30.818911" />
    <linearGradient
       inkscape:collect="always"
       xlink:href="#linearGradient635"
       id="linearGradient4464"
       gradientUnits="userSpaceOnUse"
       gradientTransform="matrix(0.552377,-0.233876,3.656610e-2,0.909060,15.43554,15.52538)"
       x1="31.561108"
       y1="3.8108811"
       x2="28.714420"
       y2="30.818911" />
    <radialGradient
       inkscape:collect="always"
       xlink:href="#linearGradient1528"
       id="radialGradient4489"
       cx="32.631016"
       cy="28.888510"
       fx="32.631016"
       fy="28.888510"
       r="17.718004"
       gradientTransform="matrix(0.974652,-0.223728,0.225759,0.983500,-5.864261,7.964794)"
       gradientUnits="userSpaceOnUse"
       spreadMethod="pad" />
  </defs>
  <path
     d="M 11.321804,57.160451 C 11.950029,57.577304 14.619559,58.712840 15.940799,58.429631 C 17.046180,58.072110 55.202194,45.611520 56.141124,44.148515 C 57.123229,42.551005 55.855440,11.468189 54.695322,10.413698 C 53.443689,9.2650180 12.786631,5.1677725 11.536488,5.1310154 C 10.403522,4.9884573 7.6385200,5.9645902 7.1049121,6.5581759 C 6.0428419,7.7273842 10.151100,56.301396 11.321804,57.160451 z "
     style="font-size:12.000000px;opacity:0.29999998;fill-rule:evenodd;stroke-width:12.500000"
     id="path839" />
  <path
     d="M 10.709332,54.464037 C 11.308007,54.860979 13.850370,55.942451 15.108924,55.672891 C 16.161979,55.332261 52.504563,43.463828 53.398759,42.070343 C 54.334194,40.548752 53.126765,10.943036 52.021777,9.9385553 C 50.829714,8.8445630 12.104546,4.9420868 10.913912,4.9070460 C 9.8347880,4.7712615 7.2012332,5.7009364 6.6929239,6.2663239 C 5.6813551,7.3800001 9.5942590,53.645804 10.709332,54.464037 z "
     style="font-size:12.000000px;fill:url(#linearGradient638);fill-rule:evenodd;stroke:#261933;stroke-width:1.8750000;stroke-dasharray:none"
     id="path834" />
  <path
     d="M 14.381634,53.660677 C 14.069006,53.348051 10.312487,7.7669659 10.824199,6.4958449 C 11.138149,6.1159772 50.331137,10.543036 50.644582,10.856477 C 50.943056,11.155154 14.324912,6.3756002 12.775218,8.6762330 C 11.092935,11.058617 14.680921,53.959959 14.381634,53.660677 z "
     style="font-size:12.000000px;opacity:0.69999999;fill:url(#linearGradient641);fill-rule:evenodd;stroke:none;stroke-width:0.10518800pt"
     id="path835" />
  <path
     d="M 11.512794,52.972175 C 11.396704,52.797942 8.0053577,21.776137 7.8405206,7.1843481 C 7.8306332,6.6661201 9.7750130,6.2993477 9.9060720,6.4958449 C 10.004544,6.6436043 8.5211928,7.8148987 8.5290755,8.2171495 C 8.6999097,22.810149 11.626134,53.142245 11.512794,52.972175 z "
     style="font-size:12.000000px;opacity:0.69993597;fill:url(#linearGradient1522);fill-rule:evenodd;stroke:none;stroke-width:0.10518800pt"
     id="path836" />
  <path
     d="M 15.175830,10.961774 C 14.557296,11.749148 16.373182,48.355066 17.315138,49.041019 C 18.287847,49.671571 48.855584,39.875433 49.618210,38.879506 C 50.337456,38.047123 49.353745,14.699760 48.869535,13.849962 C 48.246312,12.943851 15.851491,10.208820 15.175830,10.961774 z "
     style="font-size:12.000000px;fill:url(#radialGradient4489);fill-opacity:1.0;fill-rule:evenodd;stroke:#261933;stroke-width:0.61334801"
     id="path837" />
  <path
     style="font-size:12.000000px;opacity:1.0000000;fill:url(#linearGradient4464);fill-opacity:1.0;stroke:#261933;stroke-width:0.49999961;stroke-miterlimit:4.0000000;stroke-dasharray:none;stroke-opacity:1.0000000"
     d="M 16.666633,44.464979 L 16.702108,45.346924 C 16.702108,45.346924 20.421786,36.762198 28.040346,33.536515 C 37.086403,29.706433 38.332700,38.584395 49.873579,33.698010 L 49.789361,31.604289 C 38.791419,36.260796 36.685124,28.959580 29.149711,32.150058 C 20.489325,35.816847 16.666633,44.464979 16.666633,44.464979 L 16.666633,44.464979 z "
     id="path566" />
  <path
     style="font-size:12.000000px;opacity:1.0000000;fill:url(#linearGradient4461);fill-opacity:1.0;stroke:#261933;stroke-width:0.49999961;stroke-miterlimit:4.0000000;stroke-dasharray:none;stroke-opacity:1.0000000"
     d="M 16.544891,41.063388 L 16.614185,42.786106 C 16.614185,42.786106 21.154543,32.656954 27.905084,29.798789 C 36.873561,26.001555 38.258176,34.820672 49.738306,29.960009 L 49.417377,21.981471 C 38.419433,26.637979 35.978964,22.046288 29.324971,24.863576 C 22.670748,27.680959 16.544922,41.063373 16.544922,41.063373 L 16.544891,41.063388 z "
     id="path574" />
  <path
     d="M 17.742939,47.008737 C 17.505362,46.716067 15.345483,12.931632 15.924710,12.138455 C 16.691309,11.234891 45.422894,13.985400 45.660465,14.277763 C 45.886541,14.555666 19.621453,11.623281 17.315138,13.849860 C 15.743142,15.369718 17.968803,47.286535 17.742939,47.008737 z "
     style="font-size:12.000000px;opacity:0.69993597;fill:url(#linearGradient1527);fill-rule:evenodd;stroke:none;stroke-width:0.098044699pt"
     id="path838" />
  <g
     id="Layer_x0020_1"
     style="fill-rule:nonzero;stroke:#000000;stroke-miterlimit:4.0000000"
     transform="matrix(5.163785e-2,0.000000,0.000000,3.928858e-2,-50.76060,5.019599)" />
  <g
     id="Layer_x0020_2"
     style="fill-rule:nonzero;stroke:#000000;stroke-miterlimit:4.0000000"
     transform="matrix(5.163785e-2,0.000000,0.000000,3.928858e-2,-50.76060,5.019599)" />
</svg>
