<?xml version="1.0" encoding="UTF-8" standalone="no"?>
<!DOCTYPE svg PUBLIC "-//W3C//DTD SVG 20010904//EN"
"http://www.w3.org/TR/2001/REC-SVG-20010904/DTD/svg10.dtd">
<!-- Created with Inkscape (http://www.inkscape.org/) -->
<svg
   id="svg1"
   sodipodi:version="0.32"
   inkscape:version="0.38.1"
   width="48pt"
   height="48pt"
   sodipodi:docbase="/home/scaba/files/lila-artwork/devel"
   sodipodi:docname="revelation.svg"
   xmlns="http://www.w3.org/2000/svg"
   xmlns:inkscape="http://www.inkscape.org/namespaces/inkscape"
   xmlns:sodipodi="http://sodipodi.sourceforge.net/DTD/sodipodi-0.dtd"
   xmlns:xlink="http://www.w3.org/1999/xlink">
  <defs
     id="defs3">
    <linearGradient
       id="linearGradient578">
      <stop
         style="stop-color:#d9cce6;stop-opacity:1.0000000;"
         offset="0.0000000"
         id="stop579" />
      <stop
         style="stop-color:#73667f;stop-opacity:1.0000000;"
         offset="1.0000000"
         id="stop580" />
    </linearGradient>
    <linearGradient
       id="linearGradient884">
      <stop
         style="stop-color:#e6e6e6;stop-opacity:1.0000000;"
         offset="0.0000000"
         id="stop885" />
      <stop
         style="stop-color:#7f7f7f;stop-opacity:1.0000000;"
         offset="1.0000000"
         id="stop886" />
    </linearGradient>
    <linearGradient
       xlink:href="#linearGradient884"
       id="linearGradient638"
       y2="0.96875000"
       x2="0.91935486"
       y1="0.046875000"
       x1="0.080645159" />
    <linearGradient
       id="linearGradient584">
      <stop
         style="stop-color:#ffffff;stop-opacity:1;"
         offset="0.00000000"
         id="stop585" />
      <stop
         style="stop-color:#ffffff;stop-opacity:0;"
         offset="1.00000000"
         id="stop586" />
    </linearGradient>
    <linearGradient
       xlink:href="#linearGradient884"
       id="linearGradient581" />
    <linearGradient
       xlink:href="#linearGradient884"
       id="linearGradient583" />
    <linearGradient
       xlink:href="#linearGradient584"
       id="linearGradient860"
       x1="-0.00000000"
       y1="-0.00000000"
       x2="0.97972971"
       y2="1.00000000" />
    <linearGradient
       xlink:href="#linearGradient584"
       id="linearGradient861"
       x1="0.00000000"
       y1="-0.00000000"
       x2="0.96875000"
       y2="1.00000000" />
    <linearGradient
       xlink:href="#linearGradient578"
       id="linearGradient862"
       x1="0.011904762"
       y1="0.0078125000"
       x2="0.96428573"
       y2="0.96093750" />
    <linearGradient
       xlink:href="#linearGradient584"
       id="linearGradient847" />
  </defs>
  <sodipodi:namedview
     id="base"
     pagecolor="#ffffff"
     bordercolor="#666666"
     borderopacity="1.0"
     inkscape:pageopacity="0.0"
     inkscape:pageshadow="2"
     inkscape:zoom="5.6423390"
     inkscape:cx="39.627126"
     inkscape:cy="24.813600"
     inkscape:window-width="1018"
     inkscape:window-height="695"
     inkscape:window-x="0"
     inkscape:window-y="26" />
  <path
     style="fill:#000000;fill-opacity:0.30000001;fill-rule:evenodd;stroke:none;stroke-width:1.9037905;stroke-opacity:1.0000000;"
     d="M 25.752608,5.4623186 C 17.632523,5.4623200 11.041278,14.309125 10.940108,25.243569 L 15.846358,25.243569 C 17.160883,17.627525 20.957327,12.024819 25.596358,12.024819 C 30.235387,12.024821 34.008656,17.627527 35.315108,25.243569 L 40.565108,25.243569 C 40.463936,14.309125 33.872695,5.4623175 25.752608,5.4623186 z M 46.846358,6.9935686 C 45.429208,6.9706261 44.072793,7.4174876 43.752608,7.6185686 C 42.777420,8.2019756 43.746972,10.266449 44.502608,11.306069 C 44.908785,11.864899 43.026842,12.929463 43.315108,13.399819 C 43.661166,13.964472 45.412501,16.174941 45.315108,16.681069 C 45.145453,17.562734 42.547497,18.630225 42.752608,19.212319 C 43.127699,20.276801 44.968566,21.981130 45.502608,23.118569 C 45.825006,23.805243 44.482599,24.653629 43.908858,25.493569 C 43.780513,25.433820 43.685251,25.337319 43.533858,25.337319 L 7.8151075,25.337319 C 7.2614695,25.337319 6.8151075,25.783682 6.8151075,26.337319 L 6.8151075,53.024819 C 6.8151075,53.578455 7.2614705,54.024819 7.8151075,54.024819 L 43.533858,54.024819 C 44.087498,54.024819 44.533858,53.578456 44.533858,53.024819 L 44.533858,50.212319 C 45.815772,50.579407 47.207169,50.750143 48.658858,50.587319 C 54.809621,49.981322 58.623086,45.175444 58.221358,39.306069 C 57.715850,33.196684 52.477860,30.698087 51.721358,28.649819 C 50.469887,25.496523 52.271360,14.211307 50.408858,9.2435686 C 49.759276,7.5171126 48.263508,7.0165111 46.846358,6.9935686 z M 48.377608,42.712319 C 49.725190,42.600885 50.897191,43.621859 51.002608,44.931069 C 51.108020,46.240237 50.100147,47.382122 48.752608,47.493569 C 47.405030,47.605018 46.233038,46.615253 46.127608,45.306069 C 46.022173,43.996864 47.030000,42.823757 48.377608,42.712319 z "
     id="path975" />
  <rect
     style="fill:url(#linearGradient862);fill-opacity:0.75000000;fill-rule:evenodd;stroke:#000000;stroke-width:1.9037905;"
     id="rect845"
     width="37.726181"
     height="28.695490"
     x="4.1425822"
     y="23.602026"
     ry="0.99934542" />
  <path
     style="fill:url(#linearGradient581);fill-opacity:0.41935483;fill-rule:evenodd;stroke:#000000;stroke-width:1.9037905;"
     d="M 23.099427,3.7402297 C 14.979341,3.7402310 8.3950216,12.587562 8.2938516,23.522006 L 13.182153,23.522006 C 14.496676,15.905962 18.284559,10.298512 22.923590,10.298512 C 27.562620,10.298514 31.358574,15.905964 32.665026,23.522006 L 37.905005,23.522006 C 37.803834,12.587562 31.219514,3.7402286 23.099427,3.7402297 z "
     id="path862" />
  <path
     d="M 24.152422,25.991473 C 10.347553,26.397204 6.7850565,33.184444 6.0141639,46.242172 C 5.8477630,40.001387 5.4719351,29.604487 7.2374488,26.252500 C 7.9333768,25.474844 25.941239,25.105611 24.152422,25.991473 z "
     style="font-size:12.000000;opacity:0.69993597;fill:url(#linearGradient860);fill-rule:evenodd;stroke-width:0.19545500pt;"
     id="path857"
     sodipodi:nodetypes="cccc" />
  <path
     d="M 23.094681,5.8014626 C 18.633211,7.8152464 12.426355,14.245143 11.126591,20.155965 C 10.960189,13.915179 14.639044,9.7718205 17.462301,7.1345241 C 18.158230,6.3568682 23.825752,5.4516187 23.094681,5.8014626 z "
     style="font-size:12.000000;opacity:0.69993597;fill:url(#linearGradient860);fill-rule:evenodd;stroke-width:0.19545500pt;"
     id="path856"
     sodipodi:nodetypes="cccc" />
  <path
     style="font-size:12.000000;fill:url(#linearGradient638);fill-rule:evenodd;stroke:#000000;stroke-width:1.5699399;"
     d="M 47.978754,7.1412364 C 49.892413,12.245425 48.033769,23.820481 49.319614,27.060389 C 50.096895,29.164918 55.492218,31.757242 56.011611,38.034435 C 56.424373,44.065027 52.493225,48.982536 46.173517,49.605178 C 39.889351,50.310020 34.737795,45.675621 34.220588,39.973575 C 33.611134,33.595960 38.837628,30.819278 41.425508,28.446867 C 42.530860,27.433548 40.626793,25.936285 40.932701,24.275053 C 41.119170,23.262431 43.327302,22.211731 42.936453,21.379264 C 42.387746,20.210582 40.500214,18.475271 40.114820,17.381551 C 39.904073,16.783468 42.577612,15.682666 42.751927,14.776784 C 42.851996,14.256753 41.052704,11.986903 40.697141,11.406741 C 40.400958,10.923466 42.325898,9.8345774 41.908564,9.2603974 C 41.132175,8.1922218 40.156073,6.0791037 41.158047,5.4796723 C 41.816009,5.0664639 46.643906,3.5934815 47.978754,7.1412364 z M 45.888658,41.534534 C 44.504038,41.649032 43.476356,42.853953 43.584687,44.199118 C 43.693017,45.544262 44.897671,46.537280 46.282263,46.422770 C 47.666815,46.308263 48.696727,45.130407 48.588420,43.785280 C 48.480108,42.440110 47.273254,41.420039 45.888658,41.534534 z "
     id="path893"
     sodipodi:nodetypes="cszzsssssssssscssss"
     transform="matrix(0.973267,0.000000,0.000000,0.973267,1.049171,0.565713)" />
  <path
     d="M 37.048075,33.042433 C 36.288467,38.147169 36.212597,39.809863 37.303676,41.977969 C 38.394754,44.146073 40.870566,47.210283 45.010411,48.658283 C 39.295960,48.503699 37.528668,46.387963 35.605443,42.431234 C 33.552397,35.713776 37.644642,32.824974 37.048075,33.042433 z "
     style="font-size:12.000000;opacity:0.69993597;fill:url(#linearGradient860);fill-rule:evenodd;stroke-width:0.19545500pt;"
     id="path894"
     sodipodi:nodetypes="csccc"
     transform="matrix(0.973267,0.000000,0.000000,0.973267,1.049171,0.565713)" />
  <path
     sodipodi:type="arc"
     style="fill:#ffffff;fill-opacity:0.75000000;fill-rule:evenodd;stroke:none;stroke-width:1.0000000pt;"
     id="path978"
     sodipodi:cx="48.170479"
     sodipodi:cy="45.039738"
     sodipodi:rx="3.2113652"
     sodipodi:ry="3.2113652"
     d="M 51.381844 45.039738 A 3.2113652 3.2113652 0 1 0 44.959114,45.039738 A 3.2113652 3.2113652 0 1 0 51.381844 45.039738 z"
     transform="matrix(0.500000,0.000000,0.000000,0.500000,21.81379,20.87503)" />
</svg>
