<?xml version="1.0" encoding="UTF-8" standalone="no"?>
<!-- Created with Inkscape (http://www.inkscape.org/) -->
<svg
   xmlns:dc="http://purl.org/dc/elements/1.1/"
   xmlns:cc="http://web.resource.org/cc/"
   xmlns:rdf="http://www.w3.org/1999/02/22-rdf-syntax-ns#"
   xmlns:svg="http://www.w3.org/2000/svg"
   xmlns="http://www.w3.org/2000/svg"
   xmlns:xlink="http://www.w3.org/1999/xlink"
   xmlns:sodipodi="http://inkscape.sourceforge.net/DTD/sodipodi-0.dtd"
   xmlns:inkscape="http://www.inkscape.org/namespaces/inkscape"
   id="svg1"
   sodipodi:version="0.32"
   inkscape:version="0.42.2"
   width="48pt"
   height="48pt"
   sodipodi:docbase="/home/jakob/dev/lila-cvs/lila-theme/trunk/lila/kde/scalable/devices"
   sodipodi:docname="mobile_musicplayer.svg">
  <metadata
     id="metadata26">
    <rdf:RDF>
      <cc:Work
         rdf:about="">
        <dc:format>image/svg+xml</dc:format>
        <dc:type
           rdf:resource="http://purl.org/dc/dcmitype/StillImage" />
      </cc:Work>
    </rdf:RDF>
  </metadata>
  <defs
     id="defs3">
    <linearGradient
       id="linearGradient584">
      <stop
         style="stop-color:#ffffff;stop-opacity:1;"
         offset="0.00000000"
         id="stop585" />
      <stop
         style="stop-color:#ffffff;stop-opacity:0;"
         offset="1.00000000"
         id="stop586" />
    </linearGradient>
    <linearGradient
       id="linearGradient578">
      <stop
         style="stop-color:#d9cce6;stop-opacity:1;"
         offset="0.00000000"
         id="stop579" />
      <stop
         style="stop-color:#73667f;stop-opacity:1;"
         offset="1.00000000"
         id="stop580" />
    </linearGradient>
    <linearGradient
       xlink:href="#linearGradient578"
       id="linearGradient581"
       x1="2.8845872"
       y1="1.5625210"
       x2="41.060364"
       y2="40.533625"
       gradientTransform="matrix(1.020433,0.000000,0.000000,0.979976,-3.526982e-3,0.000000)"
       gradientUnits="userSpaceOnUse" />
    <linearGradient
       xlink:href="#linearGradient584"
       id="linearGradient583"
       x1="54.023145"
       y1="23.642766"
       x2="70.743877"
       y2="40.580650"
       gradientTransform="matrix(0.772683,0.000000,0.000000,1.294192,-3.526982e-3,0.000000)"
       gradientUnits="userSpaceOnUse" />
    <linearGradient
       xlink:href="#linearGradient584"
       id="linearGradient860"
       x1="0.01086957"
       y1="0.05555556"
       x2="0.99637681"
       y2="0.94444442" />
    <linearGradient
       xlink:href="#linearGradient584"
       id="linearGradient861"
       x1="0.01811594"
       y1="0.00833333"
       x2="0.98913044"
       y2="1.00000000" />
    <linearGradient
       xlink:href="#linearGradient584"
       id="linearGradient862"
       x1="-0.28676471"
       y1="-0.21875000"
       x2="0.97887325"
       y2="1.03906250" />
    <radialGradient
       xlink:href="#linearGradient584"
       id="radialGradient595" />
    <linearGradient
       xlink:href="#linearGradient584"
       id="linearGradient612"
       x1="0.00000000"
       y1="0.00000000"
       x2="1.03389835"
       y2="1.02343750" />
    <linearGradient
       xlink:href="#linearGradient578"
       id="linearGradient613"
       x1="0.00000000"
       y1="0.00000000"
       x2="0.96874988"
       y2="1.00000012" />
    <linearGradient
       inkscape:collect="always"
       xlink:href="#linearGradient578"
       id="linearGradient1324"
       x1="22.192565"
       y1="18.259957"
       x2="58.609528"
       y2="55.435606"
       gradientTransform="matrix(0.963976,0.000000,0.000000,1.037371,-3.526982e-3,0.000000)"
       gradientUnits="userSpaceOnUse" />
    <linearGradient
       inkscape:collect="always"
       xlink:href="#linearGradient584"
       id="linearGradient1326"
       x1="5.2440408"
       y1="3.6826080"
       x2="31.341958"
       y2="30.119460"
       gradientTransform="matrix(0.952036,0.000000,0.000000,1.050381,-3.526982e-3,0.000000)"
       gradientUnits="userSpaceOnUse" />
    <linearGradient
       inkscape:collect="always"
       xlink:href="#linearGradient584"
       id="linearGradient1328"
       x1="23.239960"
       y1="21.843944"
       x2="52.602102"
       y2="51.587414"
       gradientTransform="matrix(1.017981,0.000000,0.000000,0.982337,-3.526982e-3,0.000000)"
       gradientUnits="userSpaceOnUse" />
  </defs>
  <sodipodi:namedview
     id="base"
     pagecolor="#ffffff"
     bordercolor="#666666"
     borderopacity="1.0"
     inkscape:pageopacity="0.0"
     inkscape:pageshadow="2"
     inkscape:zoom="5.6423387"
     inkscape:cx="25.788472"
     inkscape:cy="24.799820"
     inkscape:window-width="754"
     inkscape:window-height="535"
     inkscape:window-x="65"
     inkscape:window-y="68"
     inkscape:current-layer="svg1" />
  <path
     style="font-size:12.000000px;opacity:0.29999998;fill:#000000;fill-opacity:1.0000000;fill-rule:evenodd;stroke:none;stroke-width:1.8750000;stroke-dasharray:none"
     d="M 54.707829,36.123426 C 55.081411,32.426985 53.308104,31.262729 51.184233,31.027950 C 46.308726,30.560439 40.839271,29.269442 40.628287,32.327061 C 39.832181,36.482643 39.310640,39.169492 38.512058,45.981881 C 38.132198,48.854732 39.571753,57.205843 33.278850,57.784154 C 26.849846,58.375429 23.432496,53.790995 25.242002,49.387535 C 27.787853,43.354197 34.219029,47.195539 34.877594,44.939366 C 36.821728,38.085007 36.550244,30.198036 38.121897,23.202984 C 38.183533,22.928658 39.011120,22.651844 39.492832,22.585429 C 40.754037,22.280679 56.054672,23.529912 57.034552,24.163547 C 57.516263,24.097133 58.188062,24.673557 58.380661,24.858651 C 59.999507,26.414418 59.024483,32.952124 58.726569,34.331587 C 57.930463,38.487169 57.375084,41.156024 56.576499,47.968414 C 56.196640,50.841265 57.670036,59.210369 51.377133,59.788680 C 44.948128,60.379954 41.530775,55.795522 43.340283,51.392061 C 45.886136,45.358723 52.283470,49.182070 52.942036,46.925900 C 53.914102,43.498719 54.334247,39.819865 54.707829,36.123426 z "
     id="path702"
     sodipodi:nodetypes="csccccccccccccccc" />
  <path
     style="font-size:12.000000px;fill:url(#linearGradient1324);fill-rule:evenodd;stroke:#261933;stroke-width:1.8750000;stroke-dasharray:none"
     d="M 52.274893,33.464954 C 52.648475,29.768513 50.875168,28.604257 48.751297,28.369478 C 43.875790,27.901967 38.406335,26.610970 38.195351,29.668589 C 37.399245,33.824171 36.877704,36.511020 36.079122,43.323409 C 35.699262,46.196260 37.138817,54.547371 30.845914,55.125682 C 24.416910,55.716957 20.999560,51.132523 22.809066,46.729063 C 25.354917,40.695725 31.786093,44.537067 32.444658,42.280894 C 34.388792,35.426535 34.117308,27.539564 35.688961,20.544512 C 35.750597,20.270186 36.578184,19.993372 37.059896,19.926957 C 38.321101,19.622207 53.621736,20.871440 54.601616,21.505075 C 55.083327,21.438661 55.755126,22.015085 55.947725,22.200179 C 57.566571,23.755946 56.591547,30.293652 56.293633,31.673115 C 55.497527,35.828697 54.942148,38.497552 54.143563,45.309942 C 53.763704,48.182793 55.237100,56.551897 48.944197,57.130208 C 42.515192,57.721482 39.097839,53.137050 40.907347,48.733589 C 43.453200,42.700251 49.850534,46.523598 50.509100,44.267428 C 51.481166,40.840247 51.901311,37.161393 52.274893,33.464954 z "
     id="path701"
     sodipodi:nodetypes="csccccccccccccccc" />
  <path
     style="opacity:0.30000000;fill:#000000;fill-opacity:1.0000000;fill-rule:evenodd;stroke:none;stroke-width:1.8750000;stroke-linecap:butt;stroke-linejoin:miter;stroke-dasharray:none;stroke-opacity:1.0000000"
     d="M 30.831075,4.6125079 C 26.652060,11.949650 24.239234,20.903507 19.689154,27.953916 C 18.170467,30.268200 12.267879,23.743908 7.3228347,29.662404 C 3.7684027,33.998781 6.0352287,40.331442 13.479690,41.879468 C 20.766400,43.395225 22.006858,33.487228 23.424011,30.382415 C 26.669432,22.984778 27.562539,21.196146 29.890240,16.789963 C 30.700821,15.338897 32.499294,15.934236 34.490245,17.027532 C 36.947033,18.376632 44.847460,17.084221 45.020375,16.689727 C 45.179149,16.327493 38.304289,14.627214 36.385430,12.685619 C 35.270188,11.420288 34.697300,7.2736215 33.409790,4.9639128 C 33.103431,4.4143256 31.158852,4.0370266 30.831075,4.6125079 z "
     id="path646"
     sodipodi:nodetypes="cssssssssss" />
  <path
     style="font-size:12.000000px;fill:url(#linearGradient581);fill-rule:evenodd;stroke:#261933;stroke-width:1.8750000;stroke-dasharray:none"
     d="M 28.505838,2.7503064 C 24.414282,9.9338948 22.051950,18.700368 17.597093,25.603227 C 16.110189,27.869078 10.331131,21.481325 5.4895757,27.275959 C 2.0095299,31.521585 4.2289167,37.721717 11.517582,39.237346 C 18.651796,40.721382 19.866293,31.020739 21.253789,27.980901 C 24.431289,20.738084 25.926694,17.960148 28.205680,13.646177 C 28.999297,12.225479 30.459924,13.033145 32.409209,14.103558 C 34.814582,15.424425 42.228889,14.961012 42.398185,14.574773 C 42.553637,14.220120 36.481356,12.698672 34.602653,10.797711 C 33.510752,9.5588598 32.291151,5.3557283 31.030586,3.0943571 C 30.730638,2.5562716 28.826755,2.1868687 28.505838,2.7503064 z "
     id="path644"
     sodipodi:nodetypes="cssssssssss" />
  <path
     style="fill:url(#linearGradient1326);fill-opacity:1.0000000;fill-rule:evenodd;stroke:none;stroke-width:1.0000000pt;stroke-linecap:butt;stroke-linejoin:miter;stroke-opacity:1.0000000"
     d="M 5.0044417,31.615540 C 4.8725617,31.306667 5.5395957,28.698686 8.7630177,27.002362 C 12.573459,25.082954 16.231088,29.464526 17.764305,27.255401 C 22.126182,21.163839 25.590948,11.045096 29.389258,3.9449214 C 29.621545,3.5107054 30.430252,5.0426397 30.064065,5.4288531 C 26.709824,8.8186437 22.439125,21.895763 18.231145,27.962706 C 16.680976,30.167039 14.169144,26.847792 9.3444577,28.344833 C 5.4975137,29.491415 5.1206057,31.887602 5.0044417,31.615540 z "
     id="path645"
     sodipodi:nodetypes="csssssss" />
  <path
     style="fill:url(#linearGradient1328);fill-opacity:1.0000000;fill-rule:evenodd;stroke:none;stroke-width:1.0000000pt;stroke-linecap:butt;stroke-linejoin:miter;stroke-opacity:1.0000000"
     d="M 23.744709,50.663336 C 23.557016,50.440622 23.448885,48.108614 25.692007,45.884429 C 28.365389,43.326379 32.509812,46.032648 33.221171,43.811777 C 35.293920,37.653824 35.601478,28.383510 36.951087,21.531994 C 36.992355,21.322490 47.822825,21.501458 53.932600,22.818766 C 45.803908,22.000531 39.055982,22.382476 38.159157,22.960165 C 36.764283,23.831758 35.739048,38.181473 33.787688,44.279984 C 33.061058,46.501180 30.136252,44.385379 26.514626,46.850335 C 23.615001,48.776714 23.910036,50.859510 23.744709,50.663336 z "
     id="path698"
     sodipodi:nodetypes="cssscssss" />
  <path
     style="fill:url(#linearGradient583);fill-opacity:1.0000000;fill-rule:evenodd;stroke:none;stroke-width:1.0000000pt;stroke-linecap:butt;stroke-linejoin:miter;stroke-opacity:1.0000000"
     d="M 41.829640,52.506275 C 41.641945,52.283558 41.533815,49.951549 43.776938,47.727365 C 46.450320,45.169316 50.594744,47.875583 51.306102,45.654713 C 53.378851,39.496760 52.514866,37.545661 53.864474,30.694146 C 53.947010,30.275136 55.006153,31.340540 54.800397,31.753693 C 52.878205,35.415485 53.823981,40.024408 51.872619,46.122921 C 51.145987,48.344116 48.221182,46.228316 44.599557,48.693271 C 41.699931,50.619650 41.994967,52.702446 41.829640,52.506275 z "
     id="path700"
     sodipodi:nodetypes="csssssss" />
</svg>
