<?xml version="1.0" encoding="UTF-8" standalone="no"?>
<!DOCTYPE svg PUBLIC "-//W3C//DTD SVG 20010904//EN"
"http://www.w3.org/TR/2001/REC-SVG-20010904/DTD/svg10.dtd">
<!-- Created with Inkscape (http://www.inkscape.org/) -->
<svg
   version="1.0"
   x="0.0000000"
   y="0.0000000"
   width="60.000000"
   height="60.000000"
   id="svg1"
   xmlns="http://www.w3.org/2000/svg"
   xmlns:xlink="http://www.w3.org/1999/xlink"
   xmlns:sodipodi="http://sodipodi.sourceforge.net/DTD/sodipodi-0.dtd"
   xmlns:inkscape="http://www.inkscape.org/namespaces/inkscape"
   sodipodi:version="0.32"
   inkscape:version="0.40"
   xmlns:rdf="http://www.w3.org/1999/02/22-rdf-syntax-ns#"
   xmlns:cc="http://web.resource.org/cc/"
   xmlns:dc="http://purl.org/dc/elements/1.1/"
   sodipodi:docname="seahorse.svg"
   sodipodi:docbase="/home/scaba">
  <metadata
     id="metadata41">
    <rdf:RDF
       id="RDF42">
      <cc:Work
         rdf:about=""
         id="Work43">
        <dc:format
           id="format44">image/svg+xml</dc:format>
        <dc:type
           id="type46"
           rdf:resource="http://purl.org/dc/dcmitype/StillImage" />
      </cc:Work>
    </rdf:RDF>
  </metadata>
  <sodipodi:namedview
     id="base"
     pagecolor="#ffffff"
     bordercolor="#666666"
     borderopacity="1.0"
     inkscape:pageopacity="0.0"
     inkscape:pageshadow="2"
     inkscape:zoom="3.4732669"
     inkscape:cx="39.462066"
     inkscape:cy="34.854679"
     inkscape:window-width="756"
     inkscape:window-height="652"
     inkscape:window-x="242"
     inkscape:window-y="29"
     inkscape:current-layer="svg1" />
  <defs
     id="defs3">
    <linearGradient
       id="linearGradient1708">
      <stop
         style="stop-color:#ffffff;stop-opacity:1.0000000;"
         offset="0.0000000"
         id="stop1709" />
      <stop
         style="stop-color:#d9cce6;stop-opacity:1.0000000;"
         offset="1.0000000"
         id="stop1710" />
    </linearGradient>
    <linearGradient
       id="linearGradient584">
      <stop
         style="stop-color:#ffffff;stop-opacity:1.0000000;"
         offset="0.0000000"
         id="stop585" />
      <stop
         style="stop-color:#ffffff;stop-opacity:0.0000000;"
         offset="1.0000000"
         id="stop586" />
    </linearGradient>
    <linearGradient
       id="linearGradient578">
      <stop
         style="stop-color:#d9cce6;stop-opacity:1.0000000;"
         offset="0.0000000"
         id="stop579" />
      <stop
         style="stop-color:#73667f;stop-opacity:1.0000000;"
         offset="1.0000000"
         id="stop580" />
    </linearGradient>
    <linearGradient
       x1="11.889954"
       y1="17.899555"
       x2="47.707611"
       y2="53.933167"
       id="linearGradient581"
       xlink:href="#linearGradient584"
       gradientUnits="userSpaceOnUse"
       gradientTransform="matrix(1.087700,0.000000,0.000000,0.919371,66.35103,-1.329236)" />
    <linearGradient
       x1="14.901803"
       y1="12.416366"
       x2="27.636885"
       y2="24.581890"
       id="linearGradient583"
       xlink:href="#linearGradient584"
       gradientUnits="userSpaceOnUse"
       gradientTransform="matrix(1.682464,0.000000,0.000000,0.594366,66.35103,-1.329236)" />
    <linearGradient
       x1="11.050006"
       y1="4.8899484"
       x2="34.399300"
       y2="26.972225"
       id="linearGradient860"
       xlink:href="#linearGradient584"
       gradientUnits="userSpaceOnUse"
       gradientTransform="matrix(0.544211,0.000000,0.000000,1.837523,66.35103,-1.329236)" />
    <linearGradient
       x1="9.5028210"
       y1="14.326502"
       x2="53.603920"
       y2="56.968639"
       id="linearGradient861"
       xlink:href="#linearGradient578"
       gradientUnits="userSpaceOnUse"
       gradientTransform="matrix(1.067200,0.000000,0.000000,0.937032,66.35103,-1.329236)" />
    <linearGradient
       x1="3.2789278"
       y1="4.5549574"
       x2="54.547245"
       y2="55.028416"
       id="linearGradient862"
       xlink:href="#linearGradient578"
       gradientUnits="userSpaceOnUse"
       gradientTransform="matrix(1.014478,0.000000,0.000000,0.985729,66.35103,-1.329236)" />
    <linearGradient
       x1="1.6300739"
       y1="17.134445"
       x2="23.789167"
       y2="39.286045"
       id="linearGradient1715"
       xlink:href="#linearGradient584"
       gradientUnits="userSpaceOnUse"
       gradientTransform="matrix(0.905665,0.000000,0.000000,1.104161,0.110770,-0.996927)" />
    <linearGradient
       x1="1.6300739"
       y1="17.134445"
       x2="23.789167"
       y2="39.286045"
       id="linearGradient1718"
       xlink:href="#linearGradient584"
       gradientUnits="userSpaceOnUse"
       gradientTransform="matrix(0.905665,0.000000,0.000000,1.104161,16.09532,-8.614897)" />
    <linearGradient
       x1="1.6300739"
       y1="17.134445"
       x2="23.789167"
       y2="39.286045"
       id="linearGradient1721"
       xlink:href="#linearGradient584"
       gradientUnits="userSpaceOnUse"
       gradientTransform="matrix(0.905665,0.000000,0.000000,1.104161,8.119905,-17.91955)" />
    <linearGradient
       x1="6.4574761"
       y1="4.6498289"
       x2="25.565939"
       y2="25.086603"
       id="linearGradient3038"
       xlink:href="#linearGradient578"
       gradientUnits="userSpaceOnUse"
       gradientTransform="scale(1.001030,0.998971)" />
    <linearGradient
       x1="6.4574761"
       y1="4.6498289"
       x2="25.565939"
       y2="25.086603"
       id="linearGradient3039"
       xlink:href="#linearGradient578"
       gradientUnits="userSpaceOnUse"
       gradientTransform="scale(1.001030,0.998971)" />
    <linearGradient
       x1="6.4574761"
       y1="4.6498289"
       x2="25.565939"
       y2="25.086603"
       id="linearGradient3040"
       xlink:href="#linearGradient578"
       gradientUnits="userSpaceOnUse"
       gradientTransform="scale(1.001030,0.998971)" />
    <linearGradient
       x1="10.786067"
       y1="7.1828723"
       x2="27.083527"
       y2="25.066830"
       id="linearGradient1711"
       xlink:href="#linearGradient1708"
       gradientUnits="userSpaceOnUse"
       gradientTransform="matrix(1.003804,0.000000,0.000000,0.996210,1.439567,66.93986)" />
    <linearGradient
       x1="19.457455"
       y1="20.837318"
       x2="50.554337"
       y2="17.274693"
       id="linearGradient1720"
       xlink:href="#linearGradient578"
       gradientUnits="userSpaceOnUse"
       gradientTransform="matrix(0.871647,0.000000,0.000000,1.147253,1.439567,66.93986)" />
    <linearGradient
       x1="26.271854"
       y1="22.911760"
       x2="46.103157"
       y2="28.879768"
       id="linearGradient1729"
       xlink:href="#linearGradient584"
       gradientUnits="userSpaceOnUse"
       gradientTransform="matrix(0.877053,0.000000,0.000000,1.140182,1.439567,66.93986)" />
    <linearGradient
       x1="17.726391"
       y1="15.945027"
       x2="29.533092"
       y2="25.974466"
       id="linearGradient1731"
       xlink:href="#linearGradient584"
       gradientUnits="userSpaceOnUse"
       gradientTransform="matrix(1.003804,0.000000,0.000000,0.996210,1.439567,66.93986)" />
    <linearGradient
       x1="16.123846"
       y1="4.4876642"
       x2="56.997940"
       y2="45.361755"
       id="linearGradient1738"
       xlink:href="#linearGradient578"
       gradientUnits="userSpaceOnUse"
       gradientTransform="matrix(0.919213,0.000000,0.000000,1.393384,-6.980041,-4.684743)" />
    <linearGradient
       x1="20.948738"
       y1="13.225041"
       x2="24.117455"
       y2="16.393759"
       id="linearGradient1749"
       xlink:href="#linearGradient1708"
       gradientUnits="userSpaceOnUse"
       gradientTransform="matrix(1.392284,0.000000,0.000000,1.367604,-12.22423,-7.939108)" />
    <linearGradient
       x1="14.724068"
       y1="6.4448972"
       x2="31.448246"
       y2="23.169077"
       id="linearGradient1754"
       xlink:href="#linearGradient584"
       gradientUnits="userSpaceOnUse"
       gradientTransform="matrix(1.115792,0.000000,0.000000,1.147901,-6.980042,-4.684743)" />
    <linearGradient
       x1="42.766483"
       y1="10.221963"
       x2="48.657722"
       y2="16.113203"
       id="linearGradient1759"
       xlink:href="#linearGradient584"
       gradientUnits="userSpaceOnUse"
       gradientTransform="matrix(0.687299,0.000000,0.000000,1.863553,-6.980042,-4.684743)" />
    <linearGradient
       x1="28.517855"
       y1="43.774109"
       x2="36.562195"
       y2="51.818447"
       id="linearGradient1764"
       xlink:href="#linearGradient584"
       gradientUnits="userSpaceOnUse"
       gradientTransform="matrix(1.136558,0.000000,0.000000,1.126927,-6.980042,-4.684743)" />
    <linearGradient
       x1="21.745104"
       y1="43.211178"
       x2="28.801422"
       y2="48.463696"
       id="linearGradient1766"
       xlink:href="#linearGradient584"
       gradientUnits="userSpaceOnUse"
       gradientTransform="matrix(1.136558,0.000000,0.000000,1.126927,-6.980042,-4.684743)" />
    <linearGradient
       inkscape:collect="always"
       xlink:href="#linearGradient578"
       id="linearGradient1105"
       gradientUnits="userSpaceOnUse"
       gradientTransform="matrix(0.919213,0.000000,0.000000,1.393384,-6.980041,-4.684743)"
       x1="16.123846"
       y1="4.4876642"
       x2="56.997940"
       y2="45.361755" />
    <linearGradient
       inkscape:collect="always"
       xlink:href="#linearGradient1708"
       id="linearGradient1106"
       gradientUnits="userSpaceOnUse"
       gradientTransform="matrix(1.392284,0.000000,0.000000,1.367604,-12.22423,-7.939108)"
       x1="20.948738"
       y1="13.225041"
       x2="24.117455"
       y2="16.393759" />
    <linearGradient
       inkscape:collect="always"
       xlink:href="#linearGradient584"
       id="linearGradient1107"
       gradientUnits="userSpaceOnUse"
       gradientTransform="matrix(1.115792,0.000000,0.000000,1.147901,-6.980042,-4.684743)"
       x1="14.724068"
       y1="6.4448972"
       x2="31.448246"
       y2="23.169077" />
    <linearGradient
       inkscape:collect="always"
       xlink:href="#linearGradient584"
       id="linearGradient1108"
       gradientUnits="userSpaceOnUse"
       gradientTransform="matrix(0.687299,0.000000,0.000000,1.863553,-6.980042,-4.684743)"
       x1="42.766483"
       y1="10.221963"
       x2="48.657722"
       y2="16.113203" />
    <linearGradient
       inkscape:collect="always"
       xlink:href="#linearGradient584"
       id="linearGradient1109"
       gradientUnits="userSpaceOnUse"
       gradientTransform="matrix(1.136558,0.000000,0.000000,1.126927,-6.980042,-4.684743)"
       x1="28.517855"
       y1="43.774109"
       x2="36.562195"
       y2="51.818447" />
    <linearGradient
       inkscape:collect="always"
       xlink:href="#linearGradient584"
       id="linearGradient1110"
       gradientUnits="userSpaceOnUse"
       gradientTransform="matrix(1.136558,0.000000,0.000000,1.126927,-6.980042,-4.684743)"
       x1="21.745104"
       y1="43.211178"
       x2="28.801422"
       y2="48.463696" />
  </defs>
  <path
     d="M 24.563481,53.936516 C 26.739296,55.995992 30.311885,55.688802 32.440995,54.061556 C 34.307981,52.634649 35.229101,51.562194 35.525639,49.214042 C 35.879800,46.409594 36.124377,42.399089 31.204906,40.095319 C 24.153224,36.793044 21.867379,30.018395 26.005850,22.015477 C 27.192929,19.719918 28.010627,17.657147 27.191888,17.100814 C 24.991792,15.605853 22.782061,19.512154 20.175598,20.729726 C 19.350870,21.114987 17.399756,23.588236 16.131405,25.317555 C 14.484890,27.562481 12.840228,26.983639 11.635896,26.174549 C 10.580272,25.465363 10.800701,23.577009 11.807359,21.528058 C 12.690491,19.730530 16.457104,18.245700 16.631062,16.137762 C 17.162972,9.6923147 19.365064,4.5421012 23.469986,4.4471297 C 28.428817,4.3371400 26.260331,6.5801562 30.061317,6.3435608 C 34.184042,6.0869383 47.187186,13.683352 41.225512,25.307952 C 40.755386,26.224646 40.367547,28.333152 40.950937,29.170569 C 41.534326,30.007988 43.132454,29.595357 44.263996,29.534174 C 46.576542,29.409135 47.471135,30.651436 47.819177,34.302387 C 48.249688,38.818414 45.970579,39.713571 43.480524,39.334839 C 41.104965,38.973521 41.860313,41.151476 41.984409,47.088729 C 42.055944,50.511189 40.496501,53.600278 37.614510,56.482269 C 33.635249,60.461529 27.106045,60.601614 23.090981,57.868729 C 21.284879,56.639391 18.777763,54.792904 19.092004,51.385689 C 19.356569,48.517108 20.576489,46.968431 23.809077,46.151429 C 26.782298,45.399981 29.350967,44.848740 30.168214,47.201654 C 31.039097,49.708992 28.527979,51.654511 26.939240,51.310678 C 24.050399,50.685479 21.449317,50.988866 24.563481,53.936516 z "
     style="opacity:0.29999998;fill:#000000;fill-opacity:1.0000000;stroke:none;stroke-width:1.8750000;stroke-miterlimit:4.0000000;stroke-opacity:1.0000000;"
     id="path1767"
     transform="matrix(1.018000,0.000000,0.000000,1.018000,1.831236,-0.799502)" />
  <path
     d="M 22.029216,51.215347 C 24.205031,53.274822 27.777619,52.967632 29.906730,51.340386 C 31.773715,49.913479 32.694835,48.841025 32.991373,46.492873 C 33.345533,43.688426 33.590111,39.677921 28.670641,37.374151 C 21.618959,34.071876 19.333115,27.297227 23.471585,19.294310 C 24.658664,16.998751 25.476362,14.935981 24.657623,14.379649 C 22.457527,12.884688 20.247796,16.790988 17.641334,18.008560 C 16.816606,18.393820 14.865492,20.867069 13.597142,22.596388 C 11.950627,24.841314 10.305964,24.262472 9.1016328,23.453382 C 8.0460087,22.744196 8.2664384,20.855842 9.2730959,18.806891 C 10.156228,17.009364 13.922841,15.524534 14.096798,13.416597 C 14.628709,6.9711509 16.830800,1.8209387 20.935721,1.7259669 C 25.894552,1.6159772 23.726066,3.8589935 27.527051,3.6223980 C 31.649776,3.3657757 44.652918,10.962188 38.691245,22.586785 C 38.221119,23.503478 37.833280,25.611985 38.416670,26.449402 C 39.000059,27.286820 40.598187,26.874189 41.729729,26.813007 C 44.042274,26.687967 44.936867,27.930268 45.284912,31.581219 C 45.715425,36.097246 43.436312,36.992403 40.946257,36.613671 C 38.570698,36.252353 39.326046,38.430308 39.450142,44.367560 C 39.521677,47.790019 37.962234,50.879108 35.080243,53.761098 C 31.100983,57.740359 24.571780,57.880443 20.556716,55.147558 C 18.750615,53.918221 16.243499,52.071734 16.557740,48.664520 C 16.822305,45.795939 18.042225,44.247262 21.274813,43.430261 C 24.248033,42.678812 26.816702,42.127571 27.633948,44.480485 C 28.504832,46.987823 25.993714,48.933341 24.404975,48.589509 C 21.516134,47.964309 18.915053,48.267696 22.029216,51.215347 z "
     style="fill:url(#linearGradient1105);fill-opacity:1.0000000;stroke:#261933;stroke-width:1.8749998;stroke-miterlimit:4.0000000;stroke-opacity:1.0000000;"
     id="path1099"
     transform="matrix(1.018000,0.000000,0.000000,1.018000,1.831236,-0.799502)" />
  <path
     d="M 17.539758,13.973567 C 18.625862,14.995309 20.968455,13.423547 21.122513,12.830133 C 21.553936,11.168340 18.871848,10.116488 18.302045,10.390812 C 16.643050,11.189512 17.093051,13.553331 17.539758,13.973567 z "
     style="fill:url(#linearGradient1106);fill-opacity:1.0000000;fill-rule:evenodd;stroke:#261933;stroke-width:0.24999988pt;stroke-linecap:butt;stroke-linejoin:miter;stroke-opacity:1.0000000;"
     id="path1725"
     transform="matrix(1.018000,0.000000,0.000000,1.018000,1.831236,-0.799502)" />
  <path
     d="M 9.7155204,22.954862 C 9.4787812,23.007471 9.7040899,20.635901 10.319267,19.782592 C 11.531367,18.101293 14.953678,15.897622 15.009789,15.100957 C 15.353291,10.223856 16.426945,5.3002651 19.160924,3.7943610 C 23.107183,1.6207215 25.414149,4.5497264 25.787724,4.6570733 C 26.899898,4.9766556 28.799533,4.7365203 28.772435,4.9803998 C 28.740588,5.2670197 27.796244,5.8144401 26.548691,6.1860517 C 25.025858,6.6396615 21.999252,4.9118679 19.523477,6.9559043 C 16.469871,9.4770068 16.838776,12.557085 16.361934,13.893464 C 15.617745,15.979096 12.960971,18.651379 11.348086,20.179166 C 10.030271,21.427449 10.009281,22.889583 9.7155204,22.954862 z "
     style="fill:url(#linearGradient1107);fill-opacity:1.0000000;fill-rule:evenodd;stroke:none;stroke-width:0.25000000pt;stroke-linecap:butt;stroke-linejoin:miter;stroke-opacity:1.0000000;"
     id="path1750"
     transform="matrix(1.018000,0.000000,0.000000,1.018000,1.831236,-0.799502)" />
  <path
     d="M 22.716939,25.332090 C 22.577481,24.867230 24.090180,20.032502 25.780417,17.016936 C 26.134378,16.385430 25.888960,14.127708 25.967976,14.391097 C 26.139040,14.961306 27.704342,16.967316 25.905457,20.017894 C 24.728054,22.014552 22.827561,25.700829 22.716939,25.332090 z "
     style="fill:url(#linearGradient1108);fill-opacity:1.0000000;fill-rule:evenodd;stroke:none;stroke-width:0.25000000pt;stroke-linecap:butt;stroke-linejoin:miter;stroke-opacity:1.0000000;"
     id="path1755"
     transform="matrix(1.018000,0.000000,0.000000,1.018000,1.831236,-0.799502)" />
  <path
     d="M 25.228464,53.767945 C 25.012472,53.512681 28.835993,54.710892 32.355740,50.663401 C 35.138416,47.463496 33.951575,44.344174 34.158091,44.588238 C 34.410054,44.886014 36.030569,48.755771 32.316513,51.846837 C 28.164568,55.302340 25.470951,54.054521 25.228464,53.767945 z "
     style="fill:url(#linearGradient1109);fill-opacity:1.0000000;fill-rule:evenodd;stroke:none;stroke-width:0.25000000pt;stroke-linecap:butt;stroke-linejoin:miter;stroke-opacity:1.0000000;"
     id="path1760"
     transform="matrix(1.018000,0.000000,0.000000,1.018000,1.831236,-0.799502)" />
  <path
     d="M 17.851041,49.905117 C 17.635048,49.649853 17.547862,46.574100 19.187031,45.518532 C 21.824101,43.820352 25.557361,43.841176 25.763878,44.085239 C 26.015841,44.383015 22.654353,44.433172 19.634095,46.657761 C 17.859408,47.964918 18.093528,50.191693 17.851041,49.905117 z "
     style="fill:url(#linearGradient1110);fill-opacity:1.0000000;fill-rule:evenodd;stroke:none;stroke-width:0.25000000pt;stroke-linecap:butt;stroke-linejoin:miter;stroke-opacity:1.0000000;"
     id="path1765"
     transform="matrix(1.018000,0.000000,0.000000,1.018000,1.831236,-0.799502)" />
</svg>
