<?xml version="1.0" encoding="UTF-8" standalone="no"?>
<!-- Created with Inkscape (http://www.inkscape.org/) -->
<svg
   xmlns:dc="http://purl.org/dc/elements/1.1/"
   xmlns:cc="http://web.resource.org/cc/"
   xmlns:rdf="http://www.w3.org/1999/02/22-rdf-syntax-ns#"
   xmlns:svg="http://www.w3.org/2000/svg"
   xmlns="http://www.w3.org/2000/svg"
   xmlns:xlink="http://www.w3.org/1999/xlink"
   xmlns:sodipodi="http://sodipodi.sourceforge.net/DTD/sodipodi-0.dtd"
   xmlns:inkscape="http://www.inkscape.org/namespaces/inkscape"
   version="1.0"
   x="0"
   y="0"
   width="48pt"
   height="48pt"
   id="svg1"
   sodipodi:version="0.32"
   inkscape:version="0.45"
   sodipodi:docname="stellarium.svg"
   sodipodi:docbase="/home/Mess/trunk/lila/gnome/scalable/apps"
   inkscape:output_extension="org.inkscape.output.svg.inkscape"
   sodipodi:modified="true">
  <metadata
     id="metadata21">
    <rdf:RDF>
      <cc:Work
         rdf:about="">
        <dc:format>image/svg+xml</dc:format>
        <dc:type
           rdf:resource="http://purl.org/dc/dcmitype/StillImage" />
      </cc:Work>
    </rdf:RDF>
  </metadata>
  <sodipodi:namedview
     id="base"
     pagecolor="#ffffff"
     bordercolor="#666666"
     borderopacity="1.0"
     inkscape:pageopacity="0.0"
     inkscape:pageshadow="2"
     inkscape:zoom="4.9119411"
     inkscape:cx="-1.202837"
     inkscape:cy="48.487284"
     inkscape:window-width="826"
     inkscape:window-height="699"
     inkscape:window-x="100"
     inkscape:window-y="113"
     inkscape:current-layer="svg1" />
  <defs
     id="defs3">
    <linearGradient
       id="linearGradient570">
      <stop
         style="stop-color:#ffffff;stop-opacity:1;"
         offset="0"
         id="stop571" />
      <stop
         style="stop-color:#ffffff;stop-opacity:0;"
         offset="1"
         id="stop572" />
    </linearGradient>
    <linearGradient
       id="linearGradient563">
      <stop
         style="stop-color:#d9cce6;stop-opacity:1;"
         offset="0.00000000"
         id="stop564" />
      <stop
         style="stop-color:#73667f;stop-opacity:1;"
         offset="1.00000000"
         id="stop565" />
    </linearGradient>
    <linearGradient
       x1="20.95206"
       y1="30.450673"
       x2="566.19941"
       y2="548.20016"
       id="linearGradient566"
       xlink:href="#linearGradient563"
       gradientUnits="userSpaceOnUse" />
    <linearGradient
       x1="6.4632646"
       y1="6.8197672"
       x2="41.69749"
       y2="42.40611"
       id="linearGradient569"
       xlink:href="#linearGradient570"
       gradientTransform="matrix(0.5478757,0,0,0.4928564,-44.330935,15.467995)"
       gradientUnits="userSpaceOnUse" />
    <linearGradient
       x1="0.007280"
       y1="0.021274"
       x2="0.960000"
       y2="0.946808"
       id="linearGradient573"
       xlink:href="#linearGradient570" />
    <linearGradient
       x1="0.980392"
       y1="0.976562"
       x2="0.006536"
       y2="0.007812"
       id="linearGradient575"
       xlink:href="#linearGradient563" />
    <linearGradient
       x1="-0.006622"
       y1="0.007813"
       x2="0.920530"
       y2="0.921875"
       id="linearGradient578"
       xlink:href="#linearGradient570" />
    <linearGradient
       xlink:href="#linearGradient1439"
       id="linearGradient1443" />
    <linearGradient
       xlink:href="#linearGradient1439"
       id="linearGradient1438"
       y2="48.534361"
       x2="52.570102"
       y1="6.4683641"
       x1="10.172897"
       gradientTransform="scale(0.9942991,1.0057336)"
       gradientUnits="userSpaceOnUse" />
    <linearGradient
       xlink:href="#linearGradient1432"
       id="linearGradient1435"
       y2="9.5831019"
       x2="33.742495"
       y1="21.529286"
       x1="46.534182"
       gradientTransform="scale(1.0983779,0.9104335)"
       gradientUnits="userSpaceOnUse" />
    <linearGradient
       xlink:href="#linearGradient1428"
       id="linearGradient1427"
       y2="17.054985"
       x2="49.701738"
       y1="5.0888618"
       x1="37.91971"
       gradientTransform="scale(1.0971842,0.911424)"
       gradientUnits="userSpaceOnUse" />
    <linearGradient
       xlink:href="#linearGradient1422"
       id="linearGradient1425"
       y2="19.337631"
       x2="22.788657"
       y1="36.958841"
       x1="39.32469"
       gradientTransform="scale(0.9800917,1.0203127)"
       gradientUnits="userSpaceOnUse" />
    <linearGradient
       id="linearGradient1422">
      <stop
         id="stop1423"
         offset="0.00000000"
         style="stop-color:#d7a600;stop-opacity:1;" />
      <stop
         id="stop1424"
         offset="1.00000000"
         style="stop-color:#fff300;stop-opacity:1;" />
    </linearGradient>
    <linearGradient
       id="linearGradient1428">
      <stop
         id="stop1429"
         offset="0.00000000"
         style="stop-color:#f50000;stop-opacity:1;" />
      <stop
         id="stop1430"
         offset="1.00000000"
         style="stop-color:#a90000;stop-opacity:1;" />
    </linearGradient>
    <linearGradient
       id="linearGradient1432">
      <stop
         id="stop1433"
         offset="0"
         style="stop-color:#7f7f7f;stop-opacity:1;" />
      <stop
         id="stop1434"
         offset="1"
         style="stop-color:#e6e6e6;stop-opacity:1;" />
    </linearGradient>
    <linearGradient
       id="linearGradient1439">
      <stop
         id="stop1440"
         offset="0"
         style="stop-color:#ffffff;stop-opacity:1;" />
      <stop
         id="stop1441"
         offset="1"
         style="stop-color:#ffffff;stop-opacity:0;" />
    </linearGradient>
    <linearGradient
       inkscape:collect="always"
       xlink:href="#linearGradient1422"
       id="linearGradient9051"
       gradientUnits="userSpaceOnUse"
       x1="20.952061"
       y1="30.450672"
       x2="566.1994"
       y2="548.20013" />
    <linearGradient
       inkscape:collect="always"
       xlink:href="#linearGradient563"
       id="linearGradient10034"
       gradientUnits="userSpaceOnUse"
       x1="20.95206"
       y1="30.450673"
       x2="566.19941"
       y2="548.20016" />
    <linearGradient
       inkscape:collect="always"
       xlink:href="#linearGradient570"
       id="linearGradient10036"
       gradientUnits="userSpaceOnUse"
       gradientTransform="matrix(0.2392953,0,0,0.2121043,-27.372573,16.497794)"
       x1="6.4632646"
       y1="6.8197672"
       x2="41.69749"
       y2="42.40611" />
    <linearGradient
       inkscape:collect="always"
       xlink:href="#linearGradient563"
       id="linearGradient3181"
       x1="13.556211"
       y1="14.01523"
       x2="47.172447"
       y2="34.666313"
       gradientUnits="userSpaceOnUse"
       gradientTransform="matrix(1.2315133,0,0,1.296588,-3.3203173,-7.3762497)" />
    <linearGradient
       inkscape:collect="always"
       xlink:href="#linearGradient1439"
       id="linearGradient4176"
       x1="12.844477"
       y1="0.19797747"
       x2="72.458748"
       y2="31.857342"
       gradientUnits="userSpaceOnUse" />
    <linearGradient
       inkscape:collect="always"
       xlink:href="#linearGradient1439"
       id="linearGradient4198"
       gradientUnits="userSpaceOnUse"
       x1="12.844477"
       y1="0.19797747"
       x2="72.458748"
       y2="31.857342"
       gradientTransform="translate(-32.306282,-31.115999)" />
    <linearGradient
       inkscape:collect="always"
       xlink:href="#linearGradient1439"
       id="linearGradient4216"
       x1="17.508352"
       y1="46.563358"
       x2="30.741411"
       y2="51.040203"
       gradientUnits="userSpaceOnUse" />
  </defs>
  <path
     style="opacity:0.3;fill:#000000;fill-opacity:1;fill-rule:evenodd;stroke:none;stroke-width:1.89544773;stroke-linecap:butt;stroke-linejoin:miter;stroke-miterlimit:4;stroke-dasharray:none;stroke-opacity:1"
     d="M 13.316687,15.507261 C 13.311277,15.504414 17.747031,12.102251 18.635224,11.400906 C 25.593924,5.8905311 35.274006,6.2581851 43.455066,7.6678561 C 69.473687,13.539153 64.676165,65.349875 28.914945,58.756991 C 27.365665,57.941416 17.378961,56.179154 17.81685,53.381851 C 18.775681,50.381583 39.943899,51.335912 40.618513,38.278867 C 38.900579,36.362091 36.778161,37.986712 34.945407,39.025477 C 25.486552,38.973461 32.016612,30.332127 38.136529,30.439463 C 38.491099,30.439463 38.845667,30.439463 39.200236,30.439463 C 44.585992,16.002343 30.115425,10.866669 19.344362,14.387346 C 18.14062,14.704184 16.494317,15.514364 15.089532,16.253871 C 13.848766,16.907037 13.115321,16.249285 12.607548,18.120397 C 12.607548,18.52603 12.903925,21.602674 12.607548,22.226752 C 11.823549,23.877606 11.010385,23.952865 8.7072881,23.346666 C 7.0585331,22.912697 4.5689021,22.343835 4.0978891,20.360226 C 3.7061821,18.710606 3.3357101,16.683019 4.4524581,15.507261 C 5.3436001,14.569031 5.6892031,12.894127 7.6435801,12.894127 C 8.5453891,12.894127 13.849478,14.946317 13.316687,15.507261 z "
     id="path4180"
     sodipodi:nodetypes="ccccccccccscsssssc" />
  <path
     style="fill:url(#linearGradient3181);fill-opacity:1;fill-rule:evenodd;stroke:#261933;stroke-width:1.89544773;stroke-linecap:butt;stroke-linejoin:miter;stroke-miterlimit:4;stroke-dasharray:none;stroke-opacity:1"
     d="M 11.217019,11.810139 C 11.211609,11.807292 15.647363,8.4051294 16.535556,7.7037842 C 23.494255,2.1934095 33.174337,2.5610627 41.355397,3.9707341 C 68.391947,8.009762 62.576497,61.652753 26.815276,55.059869 C 25.265996,54.244294 15.279293,52.482032 15.717182,49.684729 C 16.676013,46.684461 37.84423,47.63879 38.518844,34.581745 C 36.80091,32.664969 34.678492,34.28959 32.845738,35.328355 C 23.386883,35.276339 29.916943,26.635005 36.03686,26.742341 C 36.39143,26.742341 36.745998,26.742341 37.100567,26.742341 C 42.486324,12.305221 28.015756,7.1695472 17.244694,10.690224 C 16.040952,11.007062 14.394649,11.817242 12.989864,12.556749 C 11.749098,13.209915 11.015653,12.552163 10.50788,14.423275 C 10.50788,14.828908 10.804257,17.905552 10.50788,18.52963 C 9.7238803,20.180484 8.9107161,20.255743 6.6076191,19.649544 C 4.958865,19.215575 2.4692333,18.646713 1.9982201,16.663104 C 1.6065133,15.013484 1.2360419,12.985897 2.3527893,11.810139 C 3.2439313,10.871909 3.5895343,9.1970049 5.5439117,9.1970049 C 6.4457204,9.1970049 11.74981,11.249195 11.217019,11.810139 z "
     id="path2202"
     sodipodi:nodetypes="ccccccccccscsssssc" />
  <path
     style="fill:none;fill-rule:evenodd;stroke:#261933;stroke-width:1.9;stroke-linecap:butt;stroke-linejoin:miter;stroke-opacity:1;stroke-miterlimit:4;stroke-dasharray:none"
     d="M 35.125432,40.997717 C 35.895775,41.382888 39.125132,41.861457 40.8837,41.861457 C 42.419238,41.861457 43.954776,41.861457 45.490314,41.861457 C 47.400091,41.861457 45.083143,41.725733 46.354054,42.14937"
     id="path3187" />
  <path
     style="fill:none;fill-rule:evenodd;stroke:#000000;stroke-width:1px;stroke-linecap:butt;stroke-linejoin:miter;stroke-opacity:1"
     d="M 38.004566,24.298741 C 38.004566,24.298741 38.004566,24.298741 38.004566,24.298741 z "
     id="path3189" />
  <path
     style="fill:#261933;fill-rule:evenodd;stroke:#261933;stroke-width:1px;stroke-linecap:butt;stroke-linejoin:miter;stroke-opacity:1;fill-opacity:1"
     d="M 38.29248,21.70752 C 38.52072,29.338452 44.464769,31.750104 48.081535,25.450394 C 48.436576,20.729457 44.588249,18.404554 40.595787,17.38882 C 38.786038,16.936382 38.602401,17.876616 38.29248,19.1163"
     id="path3193"
     sodipodi:nodetypes="cccc" />
  <path
     style="fill:none;fill-rule:evenodd;stroke:#261933;stroke-width:1.3;stroke-linecap:butt;stroke-linejoin:miter;stroke-opacity:1;stroke-miterlimit:4;stroke-dasharray:none"
     d="M 48.657361,23.147087 C 47.121823,22.763203 51.728437,22.379318 53.263975,21.995434 C 54.675615,21.642524 55.826096,21.70752 57.294763,21.70752"
     id="path3195" />
  <path
     d="M 14.719045,10.650666 C 14.909463,10.004953 21.837645,0.78734213 41.37545,4.9427742 C 49.469525,7.4549192 53.899245,12.326881 52.680995,16.045966 C 49.764242,16.610901 47.593653,12.931124 36.043839,8.9113635 C 21.028899,3.6486645 14.552407,11.215519 14.719045,10.650666 z "
     style="font-size:12px;opacity:0.3;fill:#ffffff;fill-opacity:1;fill-rule:evenodd;stroke:url(#linearGradient4176);stroke-width:0.0998909pt"
     id="path9049"
     sodipodi:nodetypes="ccccc" />
  <path
     style="fill:none;fill-rule:evenodd;stroke:#261933;stroke-width:3.3;stroke-linecap:butt;stroke-linejoin:miter;stroke-opacity:1;stroke-miterlimit:4;stroke-dasharray:none"
     d="M 35.701259,15.373426 C 38.594933,11.692624 42.174954,8.4664099 46.066141,5.8722845"
     id="path3197"
     sodipodi:nodetypes="cc" />
  <path
     sodipodi:type="star"
     style="opacity:0.3;fill:#ffffff;fill-opacity:1;stroke:#261933;stroke-width:1.89999998;stroke-linecap:round;stroke-linejoin:round;stroke-miterlimit:4;stroke-dasharray:none;stroke-opacity:1"
     id="path4178"
     sodipodi:sides="5"
     sodipodi:cx="14.827539"
     sodipodi:cy="27.465788"
     sodipodi:r1="8.1459646"
     sodipodi:r2="5.1682525"
     sodipodi:arg1="0.81039296"
     sodipodi:arg2="1.4387115"
     inkscape:flatsided="false"
     inkscape:rounded="0"
     inkscape:randomized="0"
     d="M 20.44185,33.368012 L 15.508204,32.589022 L 10.949108,34.629203 L 10.165391,29.696305 L 6.8162261,25.990797 L 11.265509,23.721089 L 13.754707,19.390779 L 17.288232,22.92092 L 22.175806,23.950149 L 19.910362,28.401604 L 20.44185,33.368012 z "
     transform="translate(-0.5758268,6.046181)" />
  <path
     style="fill:none;fill-rule:evenodd;stroke:#000000;stroke-width:1px;stroke-linecap:butt;stroke-linejoin:miter;stroke-opacity:1"
     d="M 5.6982845,-6.8172581 C 5.6982845,-6.8172581 5.6982845,-6.8172581 5.6982845,-6.8172581 z "
     id="path4184" />
  <path
     style="fill:url(#linearGradient4216);fill-rule:evenodd;stroke:none;stroke-width:1px;stroke-linecap:butt;stroke-linejoin:miter;stroke-opacity:1;fill-opacity:1.0"
     d="M 30.741412,46.563357 C 26.74935,46.819718 21.302227,48.128264 17.508353,49.413554 C 21.054386,52.282963 29.117054,51.370244 30.741412,46.563357 z "
     id="path4200"
     sodipodi:nodetypes="ccc" />
</svg>
