<?xml version="1.0" encoding="UTF-8" standalone="no"?>
<!-- Created with Inkscape (http://www.inkscape.org/) -->
<svg
   xmlns:dc="http://purl.org/dc/elements/1.1/"
   xmlns:cc="http://web.resource.org/cc/"
   xmlns:rdf="http://www.w3.org/1999/02/22-rdf-syntax-ns#"
   xmlns:svg="http://www.w3.org/2000/svg"
   xmlns="http://www.w3.org/2000/svg"
   xmlns:xlink="http://www.w3.org/1999/xlink"
   xmlns:sodipodi="http://inkscape.sourceforge.net/DTD/sodipodi-0.dtd"
   xmlns:inkscape="http://www.inkscape.org/namespaces/inkscape"
   id="svg1"
   sodipodi:version="0.32"
   inkscape:version="0.42"
   width="48pt"
   height="48pt"
   sodipodi:docbase="/home/stefan/Desktop"
   sodipodi:docname="system-installer2.svg">
  <metadata
     id="metadata53">
    <rdf:RDF>
      <cc:Work
         rdf:about="">
        <dc:format>image/svg+xml</dc:format>
        <dc:type
           rdf:resource="http://purl.org/dc/dcmitype/StillImage" />
      </cc:Work>
    </rdf:RDF>
  </metadata>
  <defs
     id="defs3">
    <linearGradient
       id="linearGradient679">
      <stop
         style="stop-color:#ffffff;stop-opacity:1;"
         offset="0.000000"
         id="stop680" />
      <stop
         style="stop-color:#d9d1e1;stop-opacity:1;"
         offset="1.000000"
         id="stop681" />
    </linearGradient>
    <linearGradient
       id="linearGradient675">
      <stop
         style="stop-color:#d9cce6;stop-opacity:1;"
         offset="0.000000"
         id="stop676" />
      <stop
         style="stop-color:#73667f;stop-opacity:1;"
         offset="1.000000"
         id="stop677" />
    </linearGradient>
    <linearGradient
       id="linearGradient670">
      <stop
         style="stop-color:#cccccc;stop-opacity:1;"
         offset="0.000000"
         id="stop671" />
      <stop
         style="stop-color:#7f7f7f;stop-opacity:1;"
         offset="1.000000"
         id="stop672" />
    </linearGradient>
    <linearGradient
       id="linearGradient866">
      <stop
         style="stop-color:#ffffff;stop-opacity:1;"
         offset="0.000000"
         id="stop867" />
      <stop
         style="stop-color:#d9cce6;stop-opacity:1;"
         offset="1.000000"
         id="stop868" />
    </linearGradient>
    <linearGradient
       id="linearGradient584">
      <stop
         style="stop-color:#ffffff;stop-opacity:1;"
         offset="0.00000000"
         id="stop585" />
      <stop
         style="stop-color:#ffffff;stop-opacity:0;"
         offset="1.00000000"
         id="stop586" />
    </linearGradient>
    <linearGradient
       xlink:href="#linearGradient866"
       id="linearGradient586"
       x1="-0.00000000"
       y1="0.01562500"
       x2="0.99122804"
       y2="0.98437500" />
    <linearGradient
       xlink:href="#linearGradient584"
       id="linearGradient587"
       x1="0.00000000"
       y1="-0.00000000"
       x2="1.00000000"
       y2="1.00000000" />
    <linearGradient
       xlink:href="#linearGradient866"
       id="linearGradient607"
       x1="15.928911"
       y1="7.6940591"
       x2="41.249984"
       y2="33.203380"
       gradientUnits="userSpaceOnUse"
       spreadMethod="pad"
       gradientTransform="matrix(1.379043,-0.198440,0.197686,1.373803,-16.95280,-2.882965)" />
    <linearGradient
       xlink:href="#linearGradient584"
       id="linearGradient609"
       x1="15.426125"
       y1="9.7835640"
       x2="35.607302"
       y2="29.073391"
       gradientUnits="userSpaceOnUse"
       spreadMethod="pad"
       gradientTransform="matrix(1.498501,-0.215630,0.181928,1.264288,-16.95281,-2.882965)" />
    <linearGradient
       xlink:href="#linearGradient584"
       id="linearGradient610"
       x1="32.831565"
       y1="12.685815"
       x2="42.424586"
       y2="12.685815"
       gradientUnits="userSpaceOnUse"
       spreadMethod="pad"
       gradientTransform="matrix(1.250368,-0.179924,0.218031,1.515184,-16.95281,-2.882965)" />
    <linearGradient
       xlink:href="#linearGradient584"
       id="linearGradient611"
       x1="23.091401"
       y1="24.428209"
       x2="32.321393"
       y2="24.651515"
       gradientUnits="userSpaceOnUse"
       spreadMethod="pad"
       gradientTransform="matrix(1.210051,-0.174122,0.225295,1.565667,-16.95281,-2.882965)" />
    <linearGradient
       xlink:href="#linearGradient584"
       id="linearGradient667"
       x1="19.320200"
       y1="31.313183"
       x2="35.654454"
       y2="47.826427"
       gradientUnits="userSpaceOnUse"
       spreadMethod="pad"
       gradientTransform="matrix(1.562524,-0.224843,0.174473,1.212484,-16.95281,-2.882965)" />
    <linearGradient
       xlink:href="#linearGradient584"
       id="linearGradient668"
       x1="30.075594"
       y1="34.764938"
       x2="31.934308"
       y2="36.617152"
       gradientUnits="userSpaceOnUse"
       spreadMethod="pad"
       gradientTransform="matrix(1.148810,-0.165310,0.237306,1.649131,-16.95281,-2.882965)" />
    <linearGradient
       xlink:href="#linearGradient670"
       id="linearGradient669"
       x1="21.833407"
       y1="41.604173"
       x2="30.877932"
       y2="50.652330"
       gradientUnits="userSpaceOnUse"
       spreadMethod="pad"
       gradientTransform="matrix(1.492168,-0.214718,0.182700,1.269655,-16.95281,-2.882965)" />
    <linearGradient
       xlink:href="#linearGradient584"
       id="linearGradient673"
       x1="22.863139"
       y1="40.456013"
       x2="27.678445"
       y2="45.232441"
       gradientUnits="userSpaceOnUse"
       spreadMethod="pad"
       gradientTransform="matrix(1.437653,-0.206874,0.189628,1.317798,-16.95281,-2.882965)" />
    <linearGradient
       xlink:href="#linearGradient675"
       id="linearGradient674"
       x1="19.990034"
       y1="25.399758"
       x2="43.086980"
       y2="48.505502"
       gradientUnits="userSpaceOnUse"
       spreadMethod="pad"
       gradientTransform="matrix(1.368216,-0.196882,0.199251,1.384676,-16.95280,-2.882965)" />
    <linearGradient
       xlink:href="#linearGradient679"
       id="linearGradient678"
       x1="23.259495"
       y1="29.060371"
       x2="36.347749"
       y2="42.254010"
       gradientUnits="userSpaceOnUse"
       spreadMethod="pad"
       gradientTransform="matrix(1.506916,-0.216840,0.180911,1.257228,-16.95280,-2.882965)" />
    <linearGradient
       xlink:href="#linearGradient679"
       id="linearGradient682" />
  </defs>
  <sodipodi:namedview
     id="base"
     pagecolor="#ffffff"
     bordercolor="#666666"
     borderopacity="1.0"
     inkscape:pageopacity="0.0"
     inkscape:pageshadow="2"
     inkscape:zoom="5.6423387"
     inkscape:cx="27.661037"
     inkscape:cy="24.707570"
     inkscape:window-width="1280"
     inkscape:window-height="948"
     inkscape:window-x="0"
     inkscape:window-y="26"
     inkscape:current-layer="svg1" />
  <path
     d="M 31.058073,20.649939 C 31.141947,22.195194 29.971789,23.627444 28.446057,23.846992 C 26.920325,24.066541 25.613960,22.990655 25.530083,21.445402 C 25.446209,19.900145 26.616429,18.467818 28.142162,18.248270 C 29.667893,18.028721 30.974197,19.104683 31.058073,20.649939 z M 45.844172,18.249199 C 46.382596,28.168707 38.870625,37.363137 29.076443,38.772492 C 19.282260,40.181848 10.896384,33.275072 10.357959,23.355565 C 9.8195344,13.436059 17.331441,4.2415689 27.125625,2.8322135 C 36.919806,1.4228583 45.305746,8.3296930 45.844172,18.249199 z "
     style="font-size:12.000000px;opacity:0.30267498;fill-rule:evenodd;stroke-width:12.500000"
     id="path782" />
  <path
     d="M 29.672411,19.204026 C 29.754544,20.717173 28.608697,22.119669 27.114665,22.334657 C 25.620635,22.549644 24.341409,21.496109 24.259277,19.982961 C 24.177144,18.469812 25.323052,17.067243 26.817085,16.852256 C 28.311114,16.637269 29.590279,17.690878 29.672411,19.204026 z M 44.151298,16.853168 C 44.678537,26.566578 37.322642,35.569976 27.731955,36.950048 C 18.141266,38.330122 9.9296229,31.566849 9.4023837,21.853440 C 8.8751457,12.140030 16.230980,3.1366073 25.821669,1.7565342 C 35.412358,0.37646121 43.624061,7.1397590 44.151298,16.853168 z "
     style="font-size:12.000000px;fill:url(#linearGradient607);fill-rule:evenodd;stroke:#261933;stroke-width:1.7382489"
     id="path773" />
  <path
     d="M 13.651015,30.421073 C 10.252395,27.285074 7.4082280,12.648027 18.980945,5.4143648 C 28.372801,-0.41573309 38.184744,5.3495764 38.967152,7.2615650 C 39.196477,7.7993030 30.578877,1.9328916 20.996876,8.5107040 C 6.9322530,18.096833 14.069752,30.819224 13.651015,30.421073 z "
     style="font-size:12.000000px;opacity:0.69999999;fill:url(#linearGradient609);fill-rule:evenodd;stroke-width:0.077858597pt"
     id="path774" />
  <path
     d="M 33.406147,18.792683 C 33.593276,22.240192 30.571266,25.617234 27.298800,26.201325 C 23.647966,26.726670 20.427015,24.071814 20.361182,20.606850 C 20.292924,17.016372 22.927623,13.455673 26.578459,12.930329 C 29.982346,12.440519 33.340222,15.204125 33.406147,18.792683 z M 31.685348,19.003411 C 31.831067,21.688026 29.798054,24.176393 27.147357,24.557820 C 24.496659,24.939249 22.227118,23.070007 22.081399,20.385393 C 21.935679,17.700777 23.968692,15.212409 26.619389,14.830981 C 29.270085,14.449553 31.539628,16.318796 31.685348,19.003411 z "
     style="font-size:12.000000px;opacity:0.10089196;fill:#3f003f;fill-rule:evenodd;stroke-width:1.0000000pt"
     id="path779" />
  <path
     d="M 27.576440,16.252801 C 27.586600,16.503931 29.133627,17.274959 29.338998,17.113107 C 32.509867,13.893321 38.794621,8.8491130 38.725358,6.0487308 C 38.675149,4.0700614 28.671759,1.4603823 28.387265,2.0110999 C 27.171716,4.5746735 27.408650,11.777216 27.576440,16.252801 z "
     style="font-size:12.000000px;fill:url(#linearGradient610);fill-rule:evenodd;stroke-width:1.0000000pt"
     id="path780" />
  <path
     d="M 26.774482,22.721125 C 26.738700,22.474678 25.107707,21.879015 24.918071,22.060365 C 22.063667,25.570735 16.269930,31.210170 16.624466,33.962998 C 16.876260,35.908015 27.181044,37.417797 27.410479,36.844833 C 28.369387,34.188903 27.398495,27.114738 26.774482,22.721125 z "
     style="font-size:12.000000px;fill:url(#linearGradient611);fill-rule:evenodd;stroke-width:1.0000000pt"
     id="path781" />
  <path
     d="M 21.267200,53.983198 C 22.055774,54.945875 44.075081,59.284059 45.001609,58.705418 C 45.879959,58.077731 49.974403,32.542201 49.277227,31.626387 C 48.731249,30.876730 25.437170,29.303580 24.769959,30.002676 C 24.079811,30.814487 20.604701,53.071866 21.267200,53.983198 z "
     style="font-size:12.000000px;opacity:0.30267498;fill-rule:evenodd;stroke-width:12.500000"
     id="path1382" />
  <path
     d="M 19.532233,52.171224 C 20.320806,53.133899 42.340114,57.472084 43.266644,56.893444 C 44.144990,56.265755 48.239436,30.730227 47.542259,29.814413 C 46.996283,29.064756 23.702203,27.491606 23.034992,28.190701 C 22.344843,29.002525 18.869732,51.259890 19.532233,52.171224 z "
     style="font-size:12.000000px;fill:url(#linearGradient674);fill-rule:evenodd;stroke:#261933;stroke-width:1.7382489"
     id="path1289" />
  <path
     d="M 23.680321,53.040131 C 23.864957,49.951068 24.389280,47.162272 24.993533,44.368561 C 30.176506,45.093459 35.209405,45.988229 40.332071,47.037999 C 39.930834,50.086838 39.454536,53.220642 38.803498,56.124266 C 33.522093,55.539199 28.766099,54.359782 23.680321,53.040131 z "
     style="font-size:12.000000px;fill:#595161;fill-rule:evenodd;stroke:#261933;stroke-width:1.0429493;stroke-dasharray:none"
     id="path1294" />
  <path
     d="M 26.898868,28.354467 C 26.105492,31.989463 25.341636,36.104318 25.122874,39.944831 C 30.248820,41.047945 36.164800,41.941882 41.341271,42.560149 C 42.203558,38.305404 42.891109,33.820536 43.348597,29.510399 C 38.228748,28.942150 31.979297,28.282828 26.898868,28.354467 z "
     style="font-size:12.000000px;fill:url(#linearGradient678);fill-rule:evenodd;stroke:#261933;stroke-width:1.0429493;stroke-dasharray:none"
     id="path1295" />
  <path
     d="M 26.487615,46.644799 C 26.201008,48.138465 25.914403,49.632190 25.627796,51.125856 C 26.202631,51.241868 26.657546,51.365316 27.232377,51.481328 C 27.445905,50.030000 27.849556,48.406335 28.103077,46.952546 C 27.601323,46.794197 27.064435,46.718239 26.487615,46.644799 z M 24.046454,52.821060 C 24.235100,49.959398 24.822307,47.446242 25.263216,44.769788 C 29.154817,45.275867 33.541491,45.998668 37.415242,46.867152 C 37.018826,49.614309 36.354267,52.520404 35.802799,55.357391 C 31.866705,54.780666 27.979457,54.000151 24.046454,52.821060 z "
     style="font-size:12.000000px;fill:url(#linearGradient669);fill-rule:evenodd;stroke-width:6.2500000"
     id="path1306"
     sodipodi:nodetypes="cccccccccc" />
  <path
     d="M 20.767719,51.372619 C 20.504027,50.802899 23.000750,30.585325 24.233527,29.401487 C 25.462051,28.208926 45.430982,30.419939 45.686638,30.972266 C 45.924800,31.486822 30.154398,28.813372 25.935267,32.267428 C 21.848052,35.613485 20.997844,51.869781 20.767719,51.372619 z "
     style="font-size:12.000000px;opacity:0.69999999;fill:url(#linearGradient667);fill-rule:evenodd;stroke-width:1.0000000pt"
     id="path1310" />
  <path
     d="M 24.453120,52.103101 C 24.397710,51.995047 25.227921,45.527746 25.639587,45.285936 C 26.252442,44.898093 30.802560,45.821023 30.857637,45.928447 C 30.908958,46.028547 27.258224,45.422638 26.319929,46.221737 C 25.368038,47.042630 24.504169,52.202625 24.453120,52.103101 z "
     style="font-size:12.000000px;opacity:0.69999999;fill:url(#linearGradient673);fill-rule:evenodd;stroke-width:1.0000000pt"
     id="path1315"
     sodipodi:nodetypes="ccccc" />
  <path
     d="M 26.116222,51.525365 C 26.088806,51.467425 27.144567,52.061628 27.338173,51.811506 C 27.764373,51.260808 27.946716,49.061630 27.975627,49.122784 C 28.008203,49.191684 28.052608,51.771693 27.639808,52.305097 C 27.432808,52.572573 26.150350,51.597415 26.116222,51.525365 z "
     style="font-size:12.000000px;opacity:0.99000001;fill:url(#linearGradient668);fill-rule:evenodd;stroke-width:1.0000000pt"
     id="path1316" />
  <path
     d="M 28.168668,32.017585 C 32.223833,32.398424 36.915302,33.067304 40.809976,33.910292 C 41.061398,33.964727 40.866212,34.734294 40.606900,34.709981 C 36.583573,34.332261 31.888499,33.553912 27.962233,32.704069 C 27.742464,32.656486 27.941247,31.996268 28.168668,32.017585 z "
     style="font-size:12.000000px;opacity:0.24999996;fill-rule:evenodd;stroke-width:1.0000000pt"
     id="path1379" />
  <path
     d="M 27.853682,34.282245 C 31.908843,34.663024 36.600255,35.331908 40.494990,36.174955 C 40.746352,36.229393 40.551225,36.998954 40.291917,36.974642 C 36.268583,36.596864 31.573454,35.818578 27.647247,34.968730 C 27.427419,34.921149 27.626257,34.260872 27.853682,34.282245 z "
     style="font-size:12.000000px;opacity:0.24999996;fill-rule:evenodd;stroke-width:1.0000000pt"
     id="path1380" />
  <path
     d="M 27.504878,36.668950 C 31.560036,37.049671 36.251505,37.718550 40.146182,38.561601 C 40.397604,38.616033 40.202358,39.385603 39.943166,39.361285 C 35.919834,38.983505 31.224707,38.205220 27.298438,37.355375 C 27.078668,37.307791 27.277507,36.647512 27.504878,36.668950 z "
     style="font-size:12.000000px;opacity:0.24999996;fill-rule:evenodd;stroke-width:1.0000000pt"
     id="path1381" />
</svg>
