<?xml version="1.0" encoding="UTF-8" standalone="no"?>
<!-- Created with Inkscape (http://www.inkscape.org/) -->
<svg
   xmlns:dc="http://purl.org/dc/elements/1.1/"
   xmlns:cc="http://web.resource.org/cc/"
   xmlns:rdf="http://www.w3.org/1999/02/22-rdf-syntax-ns#"
   xmlns:svg="http://www.w3.org/2000/svg"
   xmlns="http://www.w3.org/2000/svg"
   xmlns:xlink="http://www.w3.org/1999/xlink"
   xmlns:sodipodi="http://sodipodi.sourceforge.net/DTD/sodipodi-0.dtd"
   xmlns:inkscape="http://www.inkscape.org/namespaces/inkscape"
   id="svg1"
   sodipodi:version="0.32"
   inkscape:version="0.44.1"
   width="48pt"
   height="48pt"
   sodipodi:docbase="/home/Mess/trunk/lila/gnome/scalable/apps"
   sodipodi:docname="system-config-services.svg">
  <defs
     id="defs3">
    <linearGradient
       id="linearGradient584">
      <stop
         style="stop-color:#ffffff;stop-opacity:1;"
         offset="0.00000000"
         id="stop585" />
      <stop
         style="stop-color:#ffffff;stop-opacity:0;"
         offset="1.00000000"
         id="stop586" />
    </linearGradient>
    <linearGradient
       id="linearGradient578">
      <stop
         style="stop-color:#d9cce6;stop-opacity:1;"
         offset="0.00000000"
         id="stop579" />
      <stop
         style="stop-color:#73667f;stop-opacity:1;"
         offset="1.00000000"
         id="stop580" />
    </linearGradient>
    <linearGradient
       xlink:href="#linearGradient578"
       id="linearGradient581"
       x1="9.8956861"
       y1="10.325332"
       x2="17.197304"
       y2="17.27146"
       gradientTransform="matrix(1.010022,0,0,0.990079,-3.177634e-6,-9.470394e-7)"
       gradientUnits="userSpaceOnUse" />
    <linearGradient
       xlink:href="#linearGradient584"
       id="linearGradient583"
       x1="22.515608"
       y1="4.0001574"
       x2="27.128139"
       y2="10.92954"
       gradientTransform="matrix(0.91736,0,0,1.090086,1.497521e-6,-1.111381e-6)"
       gradientUnits="userSpaceOnUse" />
    <linearGradient
       xlink:href="#linearGradient584"
       id="linearGradient599"
       x1="37.693115"
       y1="21.681818"
       x2="39.005875"
       y2="24.382111"
       gradientTransform="matrix(1.202197,0,0,0.83181,-1.962873e-6,-5.809408e-6)"
       gradientUnits="userSpaceOnUse" />
    <linearGradient
       xlink:href="#linearGradient584"
       id="linearGradient600"
       x1="7.7281242"
       y1="19.30847"
       x2="11.73446"
       y2="23.236339"
       gradientTransform="matrix(1.536823,0,0,0.650693,1.497521e-6,-1.111381e-6)"
       gradientUnits="userSpaceOnUse" />
    <linearGradient
       xlink:href="#linearGradient584"
       id="linearGradient841"
       x1="4.6603223"
       y1="32.070274"
       x2="10.73551"
       y2="37.985169"
       gradientTransform="matrix(1.153109,0,0,0.867221,1.497521e-6,-1.111381e-6)"
       gradientUnits="userSpaceOnUse" />
    <linearGradient
       xlink:href="#linearGradient584"
       id="linearGradient842"
       x1="11.156587"
       y1="29.702641"
       x2="6.4657488"
       y2="24.004135"
       gradientTransform="matrix(0.988501,0,0,1.011632,1.497521e-6,-1.111381e-6)"
       gradientUnits="userSpaceOnUse" />
    <linearGradient
       xlink:href="#linearGradient584"
       id="linearGradient845"
       x1="31.590583"
       y1="26.307754"
       x2="46.986677"
       y2="41.69151"
       gradientTransform="scale(0.936107,1.068254)"
       gradientUnits="userSpaceOnUse" />
    <linearGradient
       inkscape:collect="always"
       xlink:href="#linearGradient578"
       id="linearGradient1908"
       gradientUnits="userSpaceOnUse"
       gradientTransform="matrix(1.010021,0,0,0.990079,7.025514e-7,7.640215e-6)"
       x1="25.281403"
       y1="27.919584"
       x2="49.344467"
       y2="51.340683" />
    <linearGradient
       inkscape:collect="always"
       xlink:href="#linearGradient584"
       id="linearGradient1910"
       gradientUnits="userSpaceOnUse"
       gradientTransform="matrix(1.153109,0,0,0.867221,-6.637663e-6,-5.927307e-7)"
       x1="9.7612057"
       y1="37.689381"
       x2="17.546089"
       y2="45.866638" />
    <linearGradient
       inkscape:collect="always"
       xlink:href="#linearGradient584"
       id="linearGradient1914"
       gradientUnits="userSpaceOnUse"
       gradientTransform="matrix(0.91736,0,0,1.090086,-6.637663e-6,-5.927307e-7)"
       x1="36.713207"
       y1="14.467787"
       x2="42.895897"
       y2="21.126917" />
    <linearGradient
       inkscape:collect="always"
       xlink:href="#linearGradient584"
       id="linearGradient1918"
       gradientUnits="userSpaceOnUse"
       gradientTransform="matrix(0.988501,0,0,1.011632,-5.157319e-6,-5.264803e-7)"
       x1="17.650391"
       y1="45.356228"
       x2="21.143093"
       y2="49.071377" />
    <linearGradient
       inkscape:collect="always"
       xlink:href="#linearGradient584"
       id="linearGradient1920"
       gradientUnits="userSpaceOnUse"
       gradientTransform="matrix(0.936107,0,0,1.068254,-5.536184e-6,-5.927307e-7)"
       x1="47.387863"
       y1="41.323997"
       x2="49.798058"
       y2="43.685856" />
    <linearGradient
       inkscape:collect="always"
       xlink:href="#linearGradient584"
       id="linearGradient1930"
       gradientUnits="userSpaceOnUse"
       gradientTransform="matrix(1.536823,-3.440974e-7,-1.655162e-7,0.650693,5.767324e-7,-1.269803e-6)"
       x1="11.316141"
       y1="25.53706"
       x2="16.081726"
       y2="38.451485" />
    <linearGradient
       inkscape:collect="always"
       xlink:href="#linearGradient584"
       id="linearGradient1934"
       gradientUnits="userSpaceOnUse"
       gradientTransform="matrix(1.202197,0,0,0.83181,1.269803e-6,-1.349014e-6)"
       x1="33.975878"
       y1="15.856298"
       x2="38.27882"
       y2="20.125623" />
  </defs>
  <sodipodi:namedview
     id="base"
     pagecolor="#ffffff"
     bordercolor="#666666"
     borderopacity="1.0"
     inkscape:pageopacity="0.0"
     inkscape:pageshadow="2"
     inkscape:zoom="7.9794719"
     inkscape:cx="24.511601"
     inkscape:cy="28.47548"
     inkscape:window-width="1280"
     inkscape:window-height="947"
     inkscape:window-x="0"
     inkscape:window-y="31"
     inkscape:current-layer="svg1" />
  <path
     d="M 36.015357,19.733905 C 36.100101,24.295531 32.23586,21.188456 30.293155,24.570951 C 28.403732,27.947643 34.004508,29.343493 30.993025,32.493086 C 27.897873,35.816994 27.299789,30.162501 23.96712,30.816012 C 20.266612,31.618057 23.783742,36.44026 19.433174,36.44026 C 15.590091,36.353328 18.739493,32.915703 15.153028,31.077261 C 11.479864,29.150655 10.790306,34.347043 7.873326,31.448877 C 4.6583848,28.248731 10.86485,27.815068 8.996149,24.658109 C 7.1354807,21.458185 3.1893173,24.730422 3.0201533,20.081975 C 2.9355191,15.607396 7.4718507,19.158512 8.9116255,15.679933 C 10.303871,12.231372 5.3443644,10.603731 8.2116461,8.1929109 C 11.465867,5.555771 12.364515,11.162722 15.23766,9.8698759 C 18.040927,8.6573769 15.082498,3.3756194 19.433174,3.201527 C 24.122174,3.114482 20.65387,7.8192849 23.628795,9.5218039 C 26.557059,11.149218 28.656008,6.1789253 31.162296,8.5408689 C 33.753749,10.99053 29.12389,12.029716 29.954722,15.070837 C 30.82885,18.35747 35.676926,15.259436 36.015357,19.733905 z M 26.565739,20.588512 C 26.565739,25.377124 24.775056,27.332744 20.11861,27.332744 C 15.462595,27.332744 12.898587,25.26352 12.898587,20.474907 C 12.800821,16.188819 15.620045,13.503462 19.78723,13.503462 C 24.443679,13.503462 26.565739,15.799676 26.565739,20.588512 z "
     style="font-size:12px;opacity:0.30267502;fill:black;fill-opacity:1;fill-rule:evenodd;stroke:none;stroke-width:2.12176991"
     id="path843"
     sodipodi:nodetypes="cccccccccccccccccccccc" />
  <path
     d="M 34.441989,18.3728 C 34.524727,22.826305 30.752076,19.792875 28.855418,23.095198 C 27.01078,26.391853 32.478803,27.754618 29.538698,30.829558 C 26.516911,34.074682 25.933001,28.554215 22.679324,29.192235 C 19.066528,29.975271 22.500294,34.683175 18.252844,34.683175 C 14.50085,34.598303 17.575604,31.242158 14.074148,29.447291 C 10.488046,27.56635 9.8148318,32.639571 6.9669918,29.810101 C 3.8282518,26.685805 9.8876098,26.26242 8.0632018,23.180289 C 6.2466358,20.056212 2.3940048,23.250889 2.2288508,18.712619 C 2.1462228,14.344099 6.5750318,17.811046 7.9806808,14.414916 C 9.3399268,11.048096 4.4979728,9.4590339 7.2972938,7.105356 C 10.474382,4.5307212 11.351731,10.004773 14.156775,8.7425719 C 16.893597,7.5588121 14.00529,2.4022449 18.252844,2.2322786 C 22.830703,2.147298 19.444607,6.7405851 22.349018,8.4027499 C 25.207875,9.9915921 27.257075,5.1391059 29.703958,7.4450657 C 32.233988,9.8366631 27.713867,10.851221 28.525006,13.820258 C 29.378416,17.02899 34.11158,14.004387 34.441989,18.3728 z M 25.216351,19.207152 C 25.216351,23.379512 22.881518,25.590431 18.922035,25.79153 C 14.76744,25.79153 11.775377,23.36915 11.873143,19.096239 C 11.873143,14.923657 14.052853,12.290034 18.598506,12.290034 C 22.753526,12.189483 25.118585,15.034573 25.216351,19.207152 z "
     style="font-size:12px;fill:url(#linearGradient581);fill-rule:evenodd;stroke:#261933;stroke-width:1.34290838"
     id="path1579"
     sodipodi:nodetypes="cccccccccccccccccccccc" />
  <path
     d="M 3.4161148,19.851446 C 3.3048828,19.689 2.8541315,17.863189 3.3357081,17.467477 C 4.2214288,16.739681 7.421291,16.339501 7.5180075,16.480922 C 7.6089006,16.613515 4.876951,17.485673 3.8987528,18.289409 C 3.5096537,18.609181 3.4925992,19.963013 3.4161148,19.851446 z "
     style="font-size:12px;opacity:0.98999999;fill:url(#linearGradient841);fill-rule:evenodd;stroke:none;stroke-width:1.05153999pt"
     id="path1581" />
  <path
     d="M 7.1368554,8.6354279 C 7.1368554,8.4673149 8.2643179,7.0202221 8.8773608,6.9908047 C 9.5352162,6.9593187 10.949337,8.2893989 10.949337,8.4526079 C 10.949337,8.5940239 9.555556,7.8720049 8.8773608,7.9044709 C 8.2846583,7.9329099 7.1368554,8.7719449 7.1368554,8.6354279 z "
     style="font-size:12px;opacity:0.98999999;fill:url(#linearGradient600);fill-rule:evenodd;stroke:none;stroke-width:1.12535pt"
     id="path1582" />
  <path
     d="M 16.28823,7.3037117 C 16.213019,7.108146 16.215349,4.2487109 16.846612,3.5010856 C 17.358594,2.8947698 19.649961,3.0648445 19.717971,3.2417796 C 19.782908,3.4105471 17.819199,3.8584469 17.245458,4.5380863 C 16.675951,5.2124964 16.345965,7.4537399 16.28823,7.3037117 z "
     style="font-size:12px;opacity:0.98999999;fill:url(#linearGradient583);fill-rule:evenodd;stroke:none;stroke-width:1.07368002pt"
     id="path1583" />
  <path
     d="M 7.0609022,27.925847 C 7.1871742,27.567068 9.2009915,25.415823 9.6465553,25.184844 C 9.8618116,25.073169 9.4306581,26.487252 9.0431479,26.897998 C 8.5687746,27.400918 6.986109,28.138086 7.0609022,27.925847 z "
     style="font-size:12px;opacity:0.98999999;fill:url(#linearGradient842);fill-rule:evenodd;stroke:none;stroke-width:1.11113005pt;fill-opacity:1.0"
     id="path1585" />
  <metadata
     id="metadata26">
    <rdf:RDF>
      <cc:Work
         rdf:about="">
        <dc:format>image/svg+xml</dc:format>
        <dc:type
           rdf:resource="http://purl.org/dc/dcmitype/StillImage" />
      </cc:Work>
    </rdf:RDF>
  </metadata>
  <path
     d="M 60.006855,34.844438 C 60.137161,41.715864 54.195369,37.03551 51.208198,42.130745 C 48.302956,47.217241 56.914905,49.319886 52.284341,54.064289 C 47.52513,59.071274 46.605493,50.553602 41.481064,51.53802 C 35.791034,52.746187 41.199097,60.010133 34.509511,60.010133 C 28.600251,59.879183 33.442882,54.700901 27.928209,51.931554 C 22.280222,49.029402 21.219933,56.857005 16.734683,52.49134 C 11.791277,47.670787 21.334554,47.017535 18.461176,42.262035 C 15.600147,37.441816 9.5323869,42.370966 9.2722747,35.368755 C 9.1421382,28.628454 16.117361,33.977693 18.331209,28.73772 C 20.471975,23.542964 12.846063,21.091161 17.254896,17.45961 C 22.2587,13.487142 23.640494,21.933196 28.058341,19.985712 C 32.368744,18.15926 27.81976,10.203059 34.509511,9.9408149 C 41.719481,9.8096949 36.386496,16.896797 40.960844,19.461393 C 45.463445,21.912856 48.690864,14.425833 52.54462,17.983757 C 56.52933,21.673814 49.410295,23.239201 50.687812,27.820204 C 52.031902,32.77104 59.486472,28.104302 60.006855,34.844438 z M 45.476792,36.131781 C 45.476792,43.345126 42.723376,46.290985 35.563462,46.290985 C 28.404209,46.290985 24.461701,43.173999 24.461701,35.960651 C 24.311372,29.504283 28.646309,25.459183 35.053918,25.459183 C 42.213838,25.459183 45.476792,28.918095 45.476792,36.131781 z "
     style="font-size:12px;opacity:0.30267502;fill:black;fill-opacity:1;fill-rule:evenodd;stroke:none;stroke-width:2.12176991"
     id="path1890"
     sodipodi:nodetypes="cccccccccccccccccccccc" />
  <path
     d="M 29.485892,44.902873 C 34.289641,45.969647 39.734366,46.263098 43.60949,41.526112 C 46.169777,38.497772 45.693161,29.73247 43.257649,25.711209 C 45.67052,28.186134 49.51877,38.910207 44.884912,43.073756 C 39.293913,48.202499 32.726398,47.072206 29.485892,44.902873 z "
     style="font-size:12px;opacity:0.69993597;fill-rule:evenodd;stroke:white;stroke-width:0.16350276pt"
     id="path1892" />
  <path
     d="M 57.58937,33.229972 C 57.716589,39.938529 51.915629,35.369108 48.999263,40.343576 C 46.162882,45.309509 54.570707,47.362317 50.049898,51.994266 C 45.403492,56.882572 44.505652,48.566792 39.502684,49.527876 C 33.947522,50.707406 39.227401,57.799179 32.696374,57.799179 C 26.927177,57.671332 31.655026,52.615789 26.271065,49.912082 C 20.756947,47.07872 19.721791,54.720788 15.342851,50.4586 C 10.516616,45.752304 19.833696,45.114536 17.028423,40.471755 C 14.235207,35.765786 8.3112667,40.578102 8.0573207,33.74186 C 7.9302687,27.16132 14.740161,32.38377 16.901536,27.267996 C 18.99156,22.196369 11.546402,19.802679 15.850736,16.257205 C 20.735936,12.378893 22.084979,20.624756 26.398113,18.723432 C 30.606348,16.940272 26.165185,9.1726516 32.696374,8.9166216 C 39.735451,8.7886096 34.528871,15.707732 38.994795,18.211541 C 43.390674,20.604899 46.541596,13.295336 50.304008,16.76893 C 54.19427,20.371522 47.243974,21.899805 48.49121,26.372229 C 49.803442,31.205717 57.081321,26.649593 57.58937,33.229972 z M 43.403705,34.486801 C 43.403705,40.771854 39.813585,44.102281 33.725345,44.405209 C 27.337094,44.405209 22.736393,40.756246 22.886721,34.319726 C 22.886721,28.034341 26.238319,24.067169 33.227878,24.067169 C 39.61678,23.915705 43.253377,28.201417 43.403705,34.486801 z "
     style="font-size:12px;fill:url(#linearGradient1908);fill-rule:evenodd;stroke:#261933;stroke-width:2.04379177"
     id="path1894"
     sodipodi:nodetypes="cccccccccccccccccccccc" />
  <path
     d="M 9.7514833,34.784539 C 9.6114412,34.583456 9.0439457,32.323377 9.6502508,31.833543 C 10.76537,30.932643 14.79399,30.43728 14.915756,30.612338 C 15.030191,30.77647 11.590671,31.856069 10.359122,32.850974 C 9.8692469,33.246802 9.8477747,34.922641 9.7514833,34.784539 z "
     style="font-size:12px;opacity:0.98999999;fill:url(#linearGradient1910);fill-rule:evenodd;stroke:none;stroke-width:1.05153999pt"
     id="path1896" />
  <path
     d="M 30.236663,15.591857 C 30.141971,15.349777 30.144904,11.810227 30.939664,10.884779 C 31.584247,10.134253 34.469074,10.344779 34.554698,10.563798 C 34.636452,10.772705 32.164147,11.327139 31.44181,12.168432 C 30.724801,13.003248 30.30935,15.777569 30.236663,15.591857 z "
     style="font-size:12px;opacity:0.98999999;fill:url(#linearGradient1914);fill-opacity:1;fill-rule:evenodd;stroke:none;stroke-width:1.07368002pt"
     id="path1900" />
  <path
     d="M 15.417318,47.924789 C 15.611478,47.384342 18.707995,44.143802 19.393109,43.795867 C 19.724095,43.627644 19.061137,45.757755 18.465288,46.376484 C 17.735875,47.13406 15.302314,48.244496 15.417318,47.924789 z "
     style="font-size:12px;opacity:0.98999999;fill:url(#linearGradient1918);fill-rule:evenodd;stroke:none;stroke-width:1.11113005pt"
     id="path1904" />
  <path
     style="fill:url(#linearGradient1920);fill-opacity:1;fill-rule:evenodd;stroke:none;stroke-width:1pt;stroke-linecap:butt;stroke-linejoin:miter;stroke-opacity:1"
     d="M 32.766406,46.220267 C 32.439855,45.797241 40.297194,46.243124 43.289357,41.524889 C 46.854727,35.999886 45.22708,30.511516 45.544276,30.92242 C 45.928611,31.420298 47.047767,40.188187 44.792637,42.888062 C 42.788478,45.287469 33.141385,46.706024 32.766406,46.220267 z "
     id="path1906"
     sodipodi:nodetypes="cssss" />
  <path
     d="M 15.803511,18.554767 C 15.955335,18.236128 18.261507,16.288351 18.831428,16.664883 C 19.442938,17.069097 21.841774,19.883367 21.694379,20.192713 C 21.566667,20.46075 18.636715,18.813343 18.006294,18.396645 C 17.455283,18.0326 15.680222,18.813521 15.803511,18.554767 z "
     style="font-size:12px;opacity:0.98999999;fill:url(#linearGradient1930);fill-rule:evenodd;stroke:none;stroke-width:1.12535pt"
     id="path1928"
     sodipodi:nodetypes="csssc" />
  <path
     d="M 25.005445,9.9542053 C 25.434795,9.4496523 27.86324,7.8710533 28.128288,7.8710533 C 28.31336,7.8710533 27.032395,9.5030383 26.355899,9.9542053 C 25.991375,10.197385 24.843998,10.144 25.005445,9.9542053 z "
     style="font-size:12px;opacity:0.98999999;fill:url(#linearGradient1934);fill-rule:evenodd;stroke:none;stroke-width:1.18333998pt"
     id="path1932" />
  <path
     d="M 44.62907,19.246193 C 45.05842,18.74164 47.486865,17.163041 47.751913,17.163041 C 47.936985,17.163041 46.65602,18.795026 45.979524,19.246193 C 45.615,19.489373 44.467623,19.435988 44.62907,19.246193 z "
     style="font-size:12px;opacity:0.98999999;fill:url(#linearGradient599);fill-rule:evenodd;stroke:none;stroke-width:1.18333998pt"
     id="path1584" />
</svg>
