<?xml version="1.0" encoding="UTF-8" standalone="no"?>
<!-- Created with Inkscape (http://www.inkscape.org/) -->
<svg
   xmlns:dc="http://purl.org/dc/elements/1.1/"
   xmlns:cc="http://web.resource.org/cc/"
   xmlns:rdf="http://www.w3.org/1999/02/22-rdf-syntax-ns#"
   xmlns:svg="http://www.w3.org/2000/svg"
   xmlns="http://www.w3.org/2000/svg"
   xmlns:xlink="http://www.w3.org/1999/xlink"
   xmlns:sodipodi="http://sodipodi.sourceforge.net/DTD/sodipodi-0.dtd"
   xmlns:inkscape="http://www.inkscape.org/namespaces/inkscape"
   version="1.0"
   x="0"
   y="0"
   width="48pt"
   height="48pt"
   id="svg1"
   sodipodi:version="0.32"
   inkscape:version="0.44.1"
   sodipodi:docname="vlc.svg"
   sodipodi:docbase="/home/Mess/.icons/Lila/scalable/apps">
  <metadata
     id="metadata33">
    <rdf:RDF>
      <cc:Work
         rdf:about="">
        <dc:format>image/svg+xml</dc:format>
        <dc:type
           rdf:resource="http://purl.org/dc/dcmitype/StillImage" />
      </cc:Work>
    </rdf:RDF>
  </metadata>
  <sodipodi:namedview
     id="base"
     pagecolor="#ffffff"
     bordercolor="#666666"
     borderopacity="1.0"
     inkscape:pageopacity="0.0"
     inkscape:pageshadow="2"
     inkscape:zoom="4"
     inkscape:cx="24.916872"
     inkscape:cy="16.284663"
     inkscape:window-width="1280"
     inkscape:window-height="947"
     inkscape:window-x="0"
     inkscape:window-y="31"
     showguides="true"
     snaptoguides="true"
     inkscape:guide-bbox="true"
     inkscape:current-layer="svg1" />
  <defs
     id="defs3">
    <linearGradient
       id="linearGradient1816">
      <stop
         style="stop-color:#ffffff;stop-opacity:1;"
         offset="0"
         id="stop1817" />
      <stop
         style="stop-color:#ffffff;stop-opacity:0;"
         offset="1"
         id="stop1818" />
    </linearGradient>
    <linearGradient
       id="linearGradient1809">
      <stop
         style="stop-color:#d9cce6;stop-opacity:1.0000000;"
         offset="0.0000000"
         id="stop1810" />
      <stop
         style="stop-color:#ffffff;stop-opacity:1.0000000;"
         offset="1.0000000"
         id="stop1811" />
    </linearGradient>
    <linearGradient
       id="linearGradient570">
      <stop
         style="stop-color:#ffffff;stop-opacity:1;"
         offset="0"
         id="stop571" />
      <stop
         style="stop-color:#ffffff;stop-opacity:0;"
         offset="1"
         id="stop572" />
    </linearGradient>
    <linearGradient
       id="linearGradient563">
      <stop
         style="stop-color:#d9cce6;stop-opacity:1.0000000;"
         offset="0.0000000"
         id="stop564" />
      <stop
         style="stop-color:#73667f;stop-opacity:1.0000000;"
         offset="1.0000000"
         id="stop565" />
    </linearGradient>
    <linearGradient
       id="linearGradient566"
       xlink:href="#linearGradient563"
       x1="14.646099"
       y1="19.579392"
       x2="46.19629"
       y2="52.546277"
       gradientTransform="matrix(0.934107,0,0,1.070541,-2.493115e-6,-4.08566e-7)"
       gradientUnits="userSpaceOnUse" />
    <linearGradient
       id="linearGradient569"
       xlink:href="#linearGradient1816"
       x1="16.50454"
       y1="39.974125"
       x2="23.007236"
       y2="46.330545"
       gradientTransform="matrix(0.953778,0,0,1.048462,-2.366291e-6,-2.126269e-7)"
       gradientUnits="userSpaceOnUse" />
    <linearGradient
       id="linearGradient573"
       xlink:href="#linearGradient570"
       x1="16.035599"
       y1="28.683786"
       x2="24.669243"
       y2="37.787579"
       gradientTransform="matrix(1.222207,0,0,0.818192,-1.002792e-5,3.484216e-6)"
       gradientUnits="userSpaceOnUse" />
    <linearGradient
       x1="0.980392"
       y1="0.976562"
       x2="0.006536"
       y2="0.007812"
       id="linearGradient575"
       xlink:href="#linearGradient563" />
    <linearGradient
       x1="-0.006622"
       y1="0.007813"
       x2="0.920530"
       y2="0.921875"
       id="linearGradient578"
       xlink:href="#linearGradient570" />
    <radialGradient
       xlink:href="#linearGradient1809"
       id="radialGradient1812"
       cx="27.38148"
       cy="37.122593"
       r="33.96916"
       fx="27.38148"
       fy="37.122593"
       gradientTransform="matrix(1.150854,0,0,0.86892,-2.493115e-6,-4.08566e-7)"
       gradientUnits="userSpaceOnUse" />
    <radialGradient
       xlink:href="#linearGradient563"
       id="radialGradient1813"
       cx="25.923149"
       cy="29.636883"
       r="24.969148"
       fx="25.923149"
       fy="29.278108"
       gradientTransform="matrix(1.11987,0,0,0.892961,-2.493115e-6,-4.08566e-7)"
       gradientUnits="userSpaceOnUse" />
    <radialGradient
       xlink:href="#linearGradient1816"
       id="radialGradient1199" />
    <linearGradient
       inkscape:collect="always"
       xlink:href="#linearGradient563"
       id="linearGradient2806"
       x1="10.135382"
       y1="34.965355"
       x2="45.307243"
       y2="50.875259"
       gradientUnits="userSpaceOnUse" />
    <linearGradient
       inkscape:collect="always"
       xlink:href="#linearGradient563"
       id="linearGradient2814"
       x1="20.152082"
       y1="20.348179"
       x2="40.046795"
       y2="27.596024"
       gradientUnits="userSpaceOnUse" />
    <linearGradient
       inkscape:collect="always"
       xlink:href="#linearGradient1809"
       id="linearGradient7283"
       x1="39.498402"
       y1="20.059059"
       x2="27.897942"
       y2="20.684059"
       gradientUnits="userSpaceOnUse" />
    <linearGradient
       inkscape:collect="always"
       xlink:href="#linearGradient1809"
       id="linearGradient7291"
       x1="45.203751"
       y1="34.220932"
       x2="27.736542"
       y2="37.345932"
       gradientUnits="userSpaceOnUse" />
    <linearGradient
       inkscape:collect="always"
       xlink:href="#linearGradient570"
       id="linearGradient8184"
       x1="26.127787"
       y1="7.3918524"
       x2="28.792938"
       y2="8.9843502"
       gradientUnits="userSpaceOnUse" />
    <linearGradient
       inkscape:collect="always"
       xlink:href="#linearGradient570"
       id="linearGradient9077"
       x1="6.3020792"
       y1="46.669846"
       x2="22.96907"
       y2="51.857552"
       gradientUnits="userSpaceOnUse" />
    <linearGradient
       inkscape:collect="always"
       xlink:href="#linearGradient570"
       id="linearGradient9081"
       gradientUnits="userSpaceOnUse"
       x1="8.9537296"
       y1="37.035515"
       x2="10.190324"
       y2="38.73188"
       gradientTransform="translate(-6.265347e-6,1.301485e-6)" />
  </defs>
  <path
     style="opacity:0.3;fill:black;fill-opacity:1;fill-rule:evenodd;stroke:none;stroke-width:1.79999995;stroke-linecap:butt;stroke-linejoin:miter;stroke-miterlimit:4;stroke-dasharray:none;stroke-opacity:1"
     d="M 14.236052,38.610065 C 11.417598,38.996953 4.9843256,55.95925 8.0488676,57.34839 C 24.303902,59.36418 41.309057,59.37411 57.72312,57.87872 C 63.69993,56.21052 54.97263,42.437828 51.359158,37.549405 C 49.799731,34.474327 26.589832,37.73312 14.236052,38.610065 z "
     id="path9088"
     sodipodi:nodetypes="ccccc" />
  <path
     style="opacity:0.3;fill:black;fill-opacity:1;fill-rule:evenodd;stroke:none;stroke-width:1.79999995;stroke-linecap:butt;stroke-linejoin:miter;stroke-miterlimit:4;stroke-dasharray:none;stroke-opacity:1"
     d="M 48.063363,45.56167 C 49.261917,42.931271 45.616436,35.541308 45.234936,34.778291 C 41.327282,22.968017 41.850741,24.562523 40.461962,19.752271 C 39.001181,14.141015 33.263307,-7.1878263 26.850157,14.802525 C 23.263594,25.074259 20.454959,33.926272 17.127438,44.147457 C 16.336334,53.747863 43.440239,57.09135 48.063363,45.56167 z "
     id="path9090"
     sodipodi:nodetypes="cccccc" />
  <path
     style="fill:url(#linearGradient2806);fill-opacity:1.0;fill-rule:evenodd;stroke:#251933;stroke-width:1.8;stroke-linecap:butt;stroke-linejoin:miter;stroke-opacity:1;stroke-miterlimit:4;stroke-dasharray:none"
     d="M 9.3691649,35.428039 C 6.5507106,35.814927 0.11743911,52.777222 3.1819805,54.166369 C 19.437015,56.18215 36.44217,56.19208 52.856232,54.696699 C 58.833043,53.028492 50.10574,39.255802 46.492271,34.367379 C 44.932844,31.292301 21.722945,34.551094 9.3691649,35.428039 z "
     id="path1909"
     sodipodi:nodetypes="ccccc" />
  <path
     style="fill:url(#linearGradient2814);fill-opacity:1.0;fill-rule:evenodd;stroke:#251933;stroke-width:1.8;stroke-linecap:butt;stroke-linejoin:miter;stroke-opacity:1;stroke-miterlimit:4;stroke-dasharray:none"
     d="M 43.696476,42.379644 C 44.89503,39.749245 41.249549,32.359282 40.868049,31.596265 C 36.960395,19.785991 37.483854,21.380497 36.095075,16.570245 C 34.634294,10.958989 28.89642,-10.369852 22.48327,11.620499 C 18.896707,21.892233 16.088072,30.744246 12.760551,40.965431 C 11.969447,50.565837 39.073352,53.909324 43.696476,42.379644 z "
     id="path1911"
     sodipodi:nodetypes="cccccc" />
  <path
     style="fill:url(#linearGradient9077);fill-opacity:1;fill-rule:evenodd;stroke:none;stroke-width:1pt;stroke-linecap:butt;stroke-linejoin:miter;stroke-opacity:1"
     d="M 25.62072,50.905263 C 20.361154,52.799038 14.693468,51.46526 5.423471,50.370651 C 2.5080294,50.026394 5.734029,42.026145 8.0211208,41.482142 C 8.4545983,43.838455 6.2351552,48.542883 9.2385208,49.083106 C 15.277098,50.16928 16.363165,50.638635 25.62072,50.905263 z "
     id="path1200"
     sodipodi:nodetypes="cscsc" />
  <path
     style="fill:url(#linearGradient7291);fill-opacity:1.0;fill-rule:evenodd;stroke:none;stroke-width:0.94523436px;stroke-linecap:butt;stroke-linejoin:miter;stroke-opacity:1"
     d="M 18.199221,29.743802 C 21.293659,32.710159 20.189271,31.975052 23.428067,32.936277 C 27.249304,33.587574 28.270827,33.686217 32.116308,33.294027 C 37.678628,31.580108 38.067122,28.750587 39.437655,30.80866 C 41.503514,35.814266 40.74471,34.490124 42.11044,37.737231 C 42.206993,39.989239 35.92728,42.792363 34.580137,42.877048 C 33.119485,43.111304 27.810681,44.026593 24.334769,43.336952 C 21.90394,42.637152 20.464972,42.648408 16.940648,40.392379 C 14.37793,38.340693 15.015154,37.208738 15.623709,35.603318 C 16.639599,32.295692 17.798166,28.030942 18.199221,29.743802 z "
     id="path6386"
     sodipodi:nodetypes="cccccccccc" />
  <path
     style="fill:url(#linearGradient7283);fill-opacity:1.0;fill-rule:evenodd;stroke:none;stroke-width:0.701;stroke-linecap:butt;stroke-linejoin:miter;stroke-opacity:1;stroke-miterlimit:4;stroke-dasharray:none"
     d="M 23.113878,14.544607 C 24.858494,15.588001 24.918673,15.48533 26.060091,16.015507 C 28.875638,16.569972 28.506302,16.601189 31.002019,16.202166 C 34.769957,14.847065 33.904002,13.732465 34.704377,15.670536 C 35.910816,20.384272 35.467682,18.076679 36.265254,21.134453 C 36.759138,23.63015 38.074376,23.760065 33.105081,25.116077 C 30.185574,25.744363 27.801393,25.704961 25.634467,25.368535 C 23.299725,24.718897 23.260274,24.666437 21.721715,23.59373 C 20.378341,22.450001 19.779228,23.075713 21.047309,19.124965 C 22.203077,15.885201 22.192167,14.244124 23.113878,14.544607 z "
     id="path6390"
     sodipodi:nodetypes="cccccccccc" />
  <path
     style="fill:url(#linearGradient8184);fill-opacity:1.0;fill-rule:evenodd;stroke:none;stroke-width:1pt;stroke-linecap:butt;stroke-linejoin:miter;stroke-opacity:1"
     d="M 24.837075,11.442406 C 23.784346,10.960334 25.694943,4.7382275 27.54417,3.4164067 C 28.328604,2.855696 31.063473,5.0000201 30.705323,6.0618662 C 30.161107,7.6753536 25.515641,11.753134 24.837075,11.442406 z "
     id="path1198"
     sodipodi:nodetypes="csss" />
  <path
     style="fill:url(#linearGradient9081);fill-opacity:1;fill-rule:evenodd;stroke:none;stroke-width:1pt;stroke-linecap:butt;stroke-linejoin:miter;stroke-opacity:1"
     d="M 7.5819611,40.961432 C 6.7535067,40.328795 8.1931376,38.024368 9.2399594,36.618804 C 9.5951577,36.14188 12.773163,35.945712 12.926093,36.390179 C 11.887915,37.282515 10.770795,38.031525 9.823107,38.51414 C 8.7456266,39.062853 8.7850611,39.459223 7.5819611,40.961432 z "
     id="path9079"
     sodipodi:nodetypes="cscsc" />
</svg>
