<?xml version="1.0" encoding="UTF-8" standalone="no"?>
<!DOCTYPE svg PUBLIC "-//W3C//DTD SVG 20010904//EN"
"http://www.w3.org/TR/2001/REC-SVG-20010904/DTD/svg10.dtd">
<!-- Created with Inkscape (http://www.inkscape.org/) -->
<svg
   version="1.0"
   x="0.0000000"
   y="0.0000000"
   width="60.000000"
   height="60.000000"
   id="svg1"
   sodipodi:version="0.32"
   inkscape:version="0.40"
   sodipodi:docname="vmware.svg"
   sodipodi:docbase="/home/scaba"
   xmlns="http://www.w3.org/2000/svg"
   xmlns:cc="http://web.resource.org/cc/"
   xmlns:inkscape="http://www.inkscape.org/namespaces/inkscape"
   xmlns:sodipodi="http://sodipodi.sourceforge.net/DTD/sodipodi-0.dtd"
   xmlns:rdf="http://www.w3.org/1999/02/22-rdf-syntax-ns#"
   xmlns:dc="http://purl.org/dc/elements/1.1/"
   xmlns:xlink="http://www.w3.org/1999/xlink">
  <metadata
     id="metadata28">
    <rdf:RDF
       id="RDF29">
      <cc:Work
         rdf:about=""
         id="Work30">
        <dc:format
           id="format31">image/svg+xml</dc:format>
        <dc:type
           id="type33"
           rdf:resource="http://purl.org/dc/dcmitype/StillImage" />
      </cc:Work>
    </rdf:RDF>
  </metadata>
  <sodipodi:namedview
     id="base"
     pagecolor="#ffffff"
     bordercolor="#666666"
     borderopacity="1.0"
     inkscape:pageopacity="0.0"
     inkscape:pageshadow="2"
     inkscape:zoom="4.9260788"
     inkscape:cx="42.171932"
     inkscape:cy="23.048574"
     inkscape:window-width="719"
     inkscape:window-height="538"
     inkscape:window-x="0"
     inkscape:window-y="26"
     inkscape:current-layer="svg1" />
  <defs
     id="defs3">
    <linearGradient
       id="linearGradient1811">
      <stop
         style="stop-color:#ffffff;stop-opacity:1.0000000;"
         offset="0.0000000"
         id="stop1812" />
      <stop
         style="stop-color:#d9cce6;stop-opacity:1.0000000;"
         offset="1.0000000"
         id="stop1813" />
    </linearGradient>
    <linearGradient
       id="linearGradient584">
      <stop
         style="stop-color:#ffffff;stop-opacity:1.0000000;"
         offset="0.0000000"
         id="stop585" />
      <stop
         style="stop-color:#ffffff;stop-opacity:0.0000000;"
         offset="1.0000000"
         id="stop586" />
    </linearGradient>
    <linearGradient
       id="linearGradient578">
      <stop
         style="stop-color:#d9cce6;stop-opacity:1.0000000;"
         offset="0.0000000"
         id="stop579" />
      <stop
         style="stop-color:#73667f;stop-opacity:1.0000000;"
         offset="1.0000000"
         id="stop580" />
    </linearGradient>
    <linearGradient
       x1="11.889954"
       y1="17.899555"
       x2="47.707611"
       y2="53.933167"
       id="linearGradient581"
       xlink:href="#linearGradient584"
       gradientUnits="userSpaceOnUse"
       gradientTransform="matrix(1.087700,0.000000,0.000000,0.919371,66.35103,-1.329236)" />
    <linearGradient
       x1="14.901803"
       y1="12.416366"
       x2="27.636885"
       y2="24.581890"
       id="linearGradient583"
       xlink:href="#linearGradient584"
       gradientUnits="userSpaceOnUse"
       gradientTransform="matrix(1.682464,0.000000,0.000000,0.594366,66.35103,-1.329236)" />
    <linearGradient
       x1="11.050006"
       y1="4.8899484"
       x2="34.399300"
       y2="26.972225"
       id="linearGradient860"
       xlink:href="#linearGradient584"
       gradientUnits="userSpaceOnUse"
       gradientTransform="matrix(0.544211,0.000000,0.000000,1.837523,66.35103,-1.329236)" />
    <linearGradient
       x1="9.5028210"
       y1="14.326502"
       x2="53.603920"
       y2="56.968639"
       id="linearGradient861"
       xlink:href="#linearGradient578"
       gradientUnits="userSpaceOnUse"
       gradientTransform="matrix(1.067200,0.000000,0.000000,0.937032,66.35103,-1.329236)" />
    <linearGradient
       x1="3.2789278"
       y1="4.5549574"
       x2="54.547245"
       y2="55.028416"
       id="linearGradient862"
       xlink:href="#linearGradient578"
       gradientUnits="userSpaceOnUse"
       gradientTransform="matrix(1.014478,0.000000,0.000000,0.985729,66.35103,-1.329236)" />
    <linearGradient
       x1="1.6300739"
       y1="17.134445"
       x2="23.789167"
       y2="39.286045"
       id="linearGradient1715"
       xlink:href="#linearGradient584"
       gradientUnits="userSpaceOnUse"
       gradientTransform="matrix(0.905665,0.000000,0.000000,1.104161,0.734636,-0.836679)" />
    <linearGradient
       x1="1.6300739"
       y1="17.134445"
       x2="23.789167"
       y2="39.286045"
       id="linearGradient1718"
       xlink:href="#linearGradient584"
       gradientUnits="userSpaceOnUse"
       gradientTransform="matrix(0.905665,0.000000,0.000000,1.104161,16.71919,-8.454654)" />
    <linearGradient
       x1="1.6300739"
       y1="17.134445"
       x2="23.789167"
       y2="39.286045"
       id="linearGradient1721"
       xlink:href="#linearGradient584"
       gradientUnits="userSpaceOnUse"
       gradientTransform="matrix(0.905665,0.000000,0.000000,1.104161,8.743776,-17.75930)" />
    <linearGradient
       x1="6.4574761"
       y1="4.6498289"
       x2="25.565939"
       y2="25.086603"
       id="linearGradient3038"
       xlink:href="#linearGradient578"
       gradientUnits="userSpaceOnUse"
       gradientTransform="scale(1.001030,0.998971)" />
    <linearGradient
       x1="6.4574761"
       y1="4.6498289"
       x2="25.565939"
       y2="25.086603"
       id="linearGradient3039"
       xlink:href="#linearGradient578"
       gradientUnits="userSpaceOnUse"
       gradientTransform="matrix(1.001030,0.000000,0.000000,0.998971,0.623866,0.160248)" />
    <linearGradient
       x1="6.4574761"
       y1="4.6498289"
       x2="25.565939"
       y2="25.086603"
       id="linearGradient3040"
       xlink:href="#linearGradient578"
       gradientUnits="userSpaceOnUse"
       gradientTransform="matrix(1.001030,0.000000,0.000000,0.998971,0.623866,0.160248)" />
    <linearGradient
       inkscape:collect="always"
       xlink:href="#linearGradient578"
       id="linearGradient1734"
       gradientTransform="scale(0.990018,1.010082)"
       x1="-11.734571"
       y1="21.619476"
       x2="30.442415"
       y2="64.113274"
       gradientUnits="userSpaceOnUse" />
    <linearGradient
       inkscape:collect="always"
       xlink:href="#linearGradient578"
       id="linearGradient1736"
       gradientUnits="userSpaceOnUse"
       gradientTransform="scale(0.990018,1.010082)"
       x1="-11.734571"
       y1="21.619476"
       x2="30.442415"
       y2="64.113274" />
    <linearGradient
       inkscape:collect="always"
       xlink:href="#linearGradient578"
       id="linearGradient1738"
       gradientUnits="userSpaceOnUse"
       gradientTransform="scale(0.990018,1.010082)"
       x1="-11.734571"
       y1="21.619476"
       x2="30.442415"
       y2="64.113274" />
    <linearGradient
       inkscape:collect="always"
       xlink:href="#linearGradient578"
       id="linearGradient1740"
       gradientUnits="userSpaceOnUse"
       gradientTransform="scale(0.990018,1.010082)"
       x1="-11.734571"
       y1="21.619476"
       x2="30.442415"
       y2="64.113274" />
    <linearGradient
       inkscape:collect="always"
       xlink:href="#linearGradient578"
       id="linearGradient1742"
       gradientUnits="userSpaceOnUse"
       gradientTransform="scale(0.990018,1.010082)"
       x1="-11.734571"
       y1="21.619476"
       x2="30.442415"
       y2="64.113274" />
    <linearGradient
       inkscape:collect="always"
       xlink:href="#linearGradient578"
       id="linearGradient1744"
       gradientUnits="userSpaceOnUse"
       gradientTransform="scale(0.990018,1.010082)"
       x1="-11.734571"
       y1="21.619476"
       x2="30.442415"
       y2="64.113274" />
    <linearGradient
       inkscape:collect="always"
       xlink:href="#linearGradient578"
       id="linearGradient1746"
       gradientUnits="userSpaceOnUse"
       gradientTransform="scale(0.990018,1.010082)"
       x1="-11.734571"
       y1="21.619476"
       x2="30.442415"
       y2="64.113274" />
    <linearGradient
       inkscape:collect="always"
       xlink:href="#linearGradient578"
       id="linearGradient1774"
       gradientUnits="userSpaceOnUse"
       gradientTransform="matrix(0.990018,0.000000,0.000000,1.010082,-64.52349,3.977476)"
       x1="4.8175893"
       y1="17.624607"
       x2="12.262391"
       y2="25.450964" />
    <linearGradient
       inkscape:collect="always"
       xlink:href="#linearGradient584"
       id="linearGradient1776"
       gradientUnits="userSpaceOnUse"
       gradientTransform="matrix(0.781523,0.000000,0.000000,0.952811,-60.68990,5.758231)"
       x1="1.6300739"
       y1="17.134445"
       x2="23.789167"
       y2="39.286045" />
    <linearGradient
       inkscape:collect="always"
       xlink:href="#linearGradient584"
       id="linearGradient1779"
       gradientUnits="userSpaceOnUse"
       gradientTransform="matrix(0.781523,0.000000,0.000000,0.952811,-48.69810,-0.128341)"
       x1="1.6300739"
       y1="17.134445"
       x2="23.789167"
       y2="39.286045" />
    <linearGradient
       inkscape:collect="always"
       xlink:href="#linearGradient578"
       id="linearGradient1780"
       gradientUnits="userSpaceOnUse"
       gradientTransform="matrix(0.990018,0.000000,0.000000,1.010082,-64.52349,3.977476)"
       x1="17.315353"
       y1="11.796791"
       x2="29.124350"
       y2="21.895317" />
    <linearGradient
       inkscape:collect="always"
       xlink:href="#linearGradient584"
       id="linearGradient1783"
       gradientUnits="userSpaceOnUse"
       gradientTransform="matrix(0.781523,0.000000,0.000000,0.952811,-55.06649,-5.837922)"
       x1="1.6300739"
       y1="17.134445"
       x2="23.789167"
       y2="39.286045" />
    <linearGradient
       inkscape:collect="always"
       xlink:href="#linearGradient578"
       id="linearGradient1784"
       gradientUnits="userSpaceOnUse"
       gradientTransform="matrix(0.990018,0.000000,0.000000,1.010082,-64.52349,3.977476)"
       x1="10.626047"
       y1="5.8917384"
       x2="22.563402"
       y2="17.378811" />
    <linearGradient
       inkscape:collect="always"
       xlink:href="#linearGradient1811"
       id="linearGradient1814"
       gradientTransform="matrix(1.127116,0.000000,0.000000,1.152646,-177.4751,-64.16478)"
       x1="101.13276"
       y1="60.336807"
       x2="150.41855"
       y2="109.45699"
       gradientUnits="userSpaceOnUse" />
    <linearGradient
       inkscape:collect="always"
       xlink:href="#linearGradient578"
       id="linearGradient1110"
       gradientUnits="userSpaceOnUse"
       gradientTransform="matrix(1.001030,0.000000,0.000000,0.998971,0.623866,0.160248)"
       x1="6.4574761"
       y1="4.6498289"
       x2="25.565939"
       y2="25.086603" />
    <linearGradient
       inkscape:collect="always"
       xlink:href="#linearGradient584"
       id="linearGradient1111"
       gradientUnits="userSpaceOnUse"
       gradientTransform="matrix(0.905665,0.000000,0.000000,1.104161,8.743776,-17.75930)"
       x1="1.6300739"
       y1="17.134445"
       x2="23.789167"
       y2="39.286045" />
    <linearGradient
       inkscape:collect="always"
       xlink:href="#linearGradient578"
       id="linearGradient1112"
       gradientUnits="userSpaceOnUse"
       gradientTransform="matrix(1.001030,0.000000,0.000000,0.998971,0.623866,0.160248)"
       x1="6.4574761"
       y1="4.6498289"
       x2="25.565939"
       y2="25.086603" />
    <linearGradient
       inkscape:collect="always"
       xlink:href="#linearGradient584"
       id="linearGradient1113"
       gradientUnits="userSpaceOnUse"
       gradientTransform="matrix(0.905665,0.000000,0.000000,1.104161,16.71919,-8.454654)"
       x1="1.6300739"
       y1="17.134445"
       x2="23.789167"
       y2="39.286045" />
    <linearGradient
       inkscape:collect="always"
       xlink:href="#linearGradient578"
       id="linearGradient1114"
       gradientUnits="userSpaceOnUse"
       gradientTransform="matrix(1.001030,0.000000,0.000000,0.998971,0.623866,0.160248)"
       x1="6.4574761"
       y1="4.6498289"
       x2="25.565939"
       y2="25.086603" />
    <linearGradient
       inkscape:collect="always"
       xlink:href="#linearGradient584"
       id="linearGradient1115"
       gradientUnits="userSpaceOnUse"
       gradientTransform="matrix(0.905665,0.000000,0.000000,1.104161,0.734636,-0.836679)"
       x1="1.6300739"
       y1="17.134445"
       x2="23.789167"
       y2="39.286045" />
  </defs>
  <path
     d="M 32.844180,2.9973195 C 29.145962,3.0316695 25.443289,3.2014885 22.469180,3.5285695 C 20.982125,3.6921095 19.695145,3.9011095 18.625430,4.1535695 C 17.555715,4.4060295 16.753115,4.5258835 15.937930,5.3410694 C 15.112772,6.1662274 15.055555,6.8261954 14.781680,7.8410694 C 14.507805,8.8559434 14.243292,10.126857 14.000430,11.591069 C 13.574741,14.157545 13.240800,17.423816 12.969180,20.684820 C 12.145706,20.806395 11.249462,20.905169 10.594180,21.059820 C 9.5244653,21.312280 8.7218653,21.463384 7.9066803,22.278570 C 7.0815223,23.103728 7.0555553,23.763696 6.7816803,24.778570 C 6.5078053,25.793444 6.2432923,27.064358 6.0004303,28.528570 C 5.5147063,31.456993 5.0858013,35.162588 4.8129303,38.903570 C 4.5400593,42.644552 4.4262183,46.411590 4.5629303,49.497320 C 4.6312863,51.040185 4.7407013,52.408262 4.9691803,53.559820 C 5.1976593,54.711378 5.4156713,55.662561 6.2504303,56.497320 C 7.0754393,57.322329 7.9055693,57.458234 9.0316803,57.747320 C 10.157791,58.036406 11.543946,58.280001 13.125430,58.497320 C 16.288399,58.931958 20.222453,59.263665 24.156680,59.434820 C 28.090907,59.605975 32.012083,59.646716 35.125430,59.497320 C 36.682106,59.422622 38.031666,59.301734 39.125426,59.122320 C 39.672316,59.032613 40.152466,58.921188 40.594176,58.778570 C 41.035896,58.635952 41.444796,58.490449 41.906676,58.028570 C 42.736946,57.198302 42.919666,56.329753 43.187926,55.184820 C 43.405376,54.256761 43.568976,53.066421 43.719176,51.841070 C 46.313266,51.895181 49.023276,51.973193 51.125426,51.872320 C 52.682106,51.797622 54.031666,51.676734 55.125426,51.497320 C 55.672316,51.407613 56.152466,51.296189 56.594176,51.153570 C 57.035896,51.010951 57.444796,50.896699 57.906676,50.434820 C 58.736946,49.604552 58.919666,48.704753 59.187926,47.559820 C 59.456186,46.414887 59.651386,45.022142 59.812926,43.434820 C 60.136016,40.260176 60.274696,36.319520 60.250426,32.372320 C 60.226166,28.425120 60.051756,24.491816 59.687926,21.309820 C 59.506016,19.718822 59.284466,18.334326 59.000426,17.184820 C 58.716396,16.035314 58.509136,15.131023 57.687926,14.309820 C 56.851366,13.473257 56.059106,13.380525 55.000426,13.153569 C 54.097286,12.959954 52.936206,12.839634 51.719176,12.716069 C 51.696956,12.503677 51.711486,12.203366 51.687926,11.997319 C 51.506016,10.406321 51.284466,9.0218254 51.000426,7.8723194 C 50.716396,6.7228134 50.540386,5.8185224 49.719176,4.9973194 C 48.882616,4.1607575 48.090356,4.0992755 47.031676,3.8723195 C 45.973006,3.6453635 44.666956,3.4745255 43.187926,3.3410695 C 40.229876,3.0741575 36.542396,2.9629694 32.844180,2.9973195 z M 32.875430,6.1223194 C 36.491326,6.0887334 40.105176,6.1820334 42.906676,6.4348194 C 44.307426,6.5612124 45.520246,6.7202374 46.375426,6.9035694 C 47.230616,7.0869014 47.773916,7.4895524 47.500426,7.2160694 C 47.355346,7.0709874 47.737016,7.6827394 47.969176,8.6223194 C 48.201346,9.5618994 48.421896,10.865498 48.594176,12.372319 C 48.599186,12.416129 48.589236,12.484409 48.594176,12.528569 C 46.130306,12.385364 43.594876,12.252730 40.812926,12.278569 C 37.114706,12.312919 33.443290,12.513988 30.469180,12.841069 C 28.982125,13.004609 27.663896,13.182359 26.594180,13.434819 C 25.524464,13.687279 24.721865,13.838384 23.906680,14.653570 C 23.081522,15.478728 23.024305,16.138696 22.750430,17.153570 C 22.540535,17.931359 22.350046,18.978253 22.156680,20.028570 C 20.044956,20.089861 18.002600,20.181166 16.156680,20.341070 C 16.418696,17.390747 16.715158,14.407441 17.094180,12.122319 C 17.326227,10.723309 17.551894,9.5050654 17.781680,8.6535694 C 18.011466,7.8020734 18.467402,7.2178484 18.125430,7.5598194 C 17.903606,7.7816434 18.477327,7.3894024 19.344180,7.1848194 C 20.211033,6.9802364 21.405065,6.7771504 22.812930,6.6223194 C 25.628661,6.3126564 29.259530,6.1559054 32.875430,6.1223194 z M 40.844176,15.403570 C 43.705476,15.376993 46.324456,15.528172 48.781676,15.684820 C 48.954196,18.068628 49.140296,20.425620 49.156676,23.091070 C 49.180396,26.949035 49.025116,30.803639 48.719176,33.809820 C 48.566206,35.312910 48.375296,36.626776 48.156676,37.559820 C 47.938066,38.492864 47.550216,39.072529 47.719176,38.903570 C 47.920196,38.702553 47.868636,38.803886 47.656676,38.872320 C 47.444726,38.940754 47.073046,39.017646 46.625426,39.091070 C 46.039046,39.187255 45.106036,39.241152 44.250426,39.309820 C 44.206616,35.612106 44.029156,31.919152 43.687926,28.934820 C 43.506016,27.343822 43.284466,25.928076 43.000426,24.778570 C 42.716396,23.629064 42.509136,22.756023 41.687926,21.934820 C 40.851366,21.098258 40.059106,21.005526 39.000426,20.778570 C 37.941756,20.551614 36.666956,20.380776 35.187930,20.247320 C 32.381926,19.994128 28.880699,19.916454 25.375430,19.934820 C 25.514989,19.250716 25.650148,18.453477 25.781680,17.966070 C 26.011466,17.114574 26.467401,16.530349 26.125430,16.872320 C 25.903607,17.094143 26.446077,16.701903 27.312930,16.497320 C 28.179783,16.292737 29.373815,16.089651 30.781680,15.934820 C 33.597411,15.625157 37.228276,15.437156 40.844176,15.403570 z M 51.906676,15.872320 C 52.802816,15.974310 53.742766,16.087141 54.344176,16.216070 C 55.199366,16.399402 55.742666,16.802053 55.469176,16.528570 C 55.324096,16.383488 55.737016,16.995240 55.969176,17.934820 C 56.201346,18.874400 56.390646,20.146749 56.562926,21.653570 C 56.907506,24.667211 57.101716,28.545605 57.125426,32.403570 C 57.149146,36.261535 57.025116,40.116139 56.719176,43.122320 C 56.566206,44.625410 56.344046,45.908026 56.125426,46.841070 C 55.906816,47.774114 55.518966,48.385029 55.687926,48.216070 C 55.888946,48.015053 55.837386,48.116386 55.625426,48.184820 C 55.413476,48.253254 55.073046,48.330146 54.625426,48.403570 C 53.730196,48.550418 52.453036,48.676116 50.969176,48.747320 C 49.016756,48.841008 46.408636,48.763874 43.937926,48.716070 C 44.076866,46.758329 44.159946,44.673149 44.187926,42.466070 C 45.248026,42.392550 46.322046,42.316602 47.125426,42.184820 C 47.672316,42.095113 48.183716,41.983688 48.625426,41.841070 C 49.067146,41.698452 49.476046,41.584199 49.937926,41.122320 C 50.768196,40.292052 50.950916,39.423503 51.219176,38.278570 C 51.487436,37.133637 51.682636,35.740892 51.844176,34.153570 C 52.167266,30.978926 52.305946,27.038270 52.281676,23.091070 C 52.265896,20.522826 52.069656,18.234922 51.906676,15.872320 z M 24.875430,23.028570 C 28.491330,22.994984 32.105180,23.119534 34.906680,23.372320 C 36.307426,23.498713 37.488996,23.657738 38.344176,23.841070 C 39.199366,24.024402 39.773916,24.427053 39.500426,24.153570 C 39.355346,24.008488 39.737016,24.588990 39.969176,25.528570 C 40.201346,26.468150 40.421896,27.771749 40.594176,29.278570 C 40.919726,32.125757 41.085286,35.790363 41.125426,39.434820 C 38.442576,39.501560 35.494506,39.510731 32.312930,39.372320 C 29.228738,39.238146 26.377336,38.976920 23.719180,38.684820 C 23.724461,36.370894 23.719735,34.060289 23.906680,31.497320 C 24.130347,28.430909 24.499086,25.585773 24.875430,23.028570 z M 21.719180,23.184820 C 21.363421,25.708261 20.994585,28.359701 20.781680,31.278570 C 20.600577,33.761442 20.639674,36.010792 20.625430,38.309820 C 19.579374,38.143772 18.514167,37.989836 17.812930,37.809820 C 16.877025,37.569562 16.263255,37.166395 16.469180,37.372320 C 16.572606,37.475746 16.241681,36.929493 16.062930,36.028570 C 15.884179,35.127647 15.751925,33.879250 15.687930,32.434820 C 15.576329,29.915870 15.710084,26.683250 15.906680,23.497320 C 17.629961,23.333943 19.672126,23.258309 21.719180,23.184820 z M 12.781680,23.872320 C 12.607258,26.929172 12.450814,30.029245 12.562930,32.559820 C 12.631286,34.102685 12.771951,35.470762 13.000430,36.622320 C 13.228909,37.773878 13.415671,38.725061 14.250430,39.559820 C 15.075439,40.384829 15.905569,40.551984 17.031680,40.841070 C 17.995195,41.088416 19.227959,41.304544 20.531680,41.497320 C 20.535894,41.608163 20.526843,41.763151 20.531680,41.872320 C 20.600036,43.415185 20.740701,44.783262 20.969180,45.934820 C 21.197659,47.086378 21.415671,48.037561 22.250430,48.872320 C 23.075439,49.697329 23.905569,49.864483 25.031680,50.153570 C 26.157791,50.442657 27.543946,50.686251 29.125430,50.903570 C 32.288399,51.338209 36.222456,51.638665 40.156676,51.809820 C 40.302386,51.816159 40.417296,51.803842 40.562926,51.809820 C 40.438756,52.786247 40.312876,53.799444 40.156676,54.466070 C 39.938066,55.399114 39.550216,56.010029 39.719176,55.841070 C 39.920196,55.640053 39.868636,55.741386 39.656676,55.809820 C 39.444726,55.878254 39.073046,55.955146 38.625426,56.028570 C 37.730196,56.175417 36.453036,56.301116 34.969180,56.372320 C 32.001475,56.514727 28.171409,56.477679 24.312930,56.309820 C 20.454451,56.141961 16.578372,55.817936 13.562930,55.403570 C 12.055209,55.196387 10.748835,54.987578 9.8129303,54.747320 C 8.8770253,54.507062 8.2632553,54.072644 8.4691803,54.278570 C 8.5726043,54.381994 8.2104313,53.835743 8.0316803,52.934820 C 7.8529293,52.033897 7.7519253,50.785500 7.6879303,49.341070 C 7.5599403,46.452210 7.6713413,42.777186 7.9379303,39.122320 C 8.2045193,35.467454 8.5988353,31.826589 9.0629303,29.028570 C 9.2949773,27.629561 9.5518943,26.442566 9.7816803,25.591070 C 10.011466,24.739574 10.467401,24.124099 10.125430,24.466070 C 9.9036073,24.687894 10.446077,24.295653 11.312930,24.091070 C 11.676545,24.005255 12.304911,23.947774 12.781680,23.872320 z M 23.656680,41.809820 C 26.345213,42.097801 29.154237,42.365342 32.187930,42.497320 C 35.380298,42.636201 38.320136,42.624583 41.062926,42.559820 C 41.029086,44.736540 40.954016,46.798280 40.812926,48.684820 C 40.621236,48.677129 40.473466,48.693164 40.281676,48.684820 C 36.423196,48.516960 32.547122,48.224186 29.531680,47.809820 C 28.023959,47.602637 26.717585,47.362578 25.781680,47.122320 C 24.845775,46.882062 24.232005,46.447645 24.437930,46.653570 C 24.541355,46.756995 24.210431,46.241993 24.031680,45.341070 C 23.856004,44.455646 23.721876,43.222727 23.656680,41.809820 z "
     style="opacity:0.29999998;fill:#000000;fill-opacity:1.0000000;stroke:none;stroke-width:3.1250000;stroke-linecap:butt;stroke-linejoin:miter;stroke-miterlimit:4.0000000;stroke-opacity:1.0000000;"
     id="path1732"
     transform="matrix(1.016500,0.000000,0.000000,1.016500,-1.565401,-0.571134)" />
  <path
     d="M 30.217617,0.56649744 C 26.519398,0.60084774 22.816727,0.77066694 19.842617,1.0977474 C 18.355562,1.2612877 17.037332,1.4702872 15.967617,1.7227474 C 14.897902,1.9752076 14.095302,2.0950621 13.280117,2.9102474 C 12.454959,3.7354052 12.397742,4.4266235 12.123867,5.4414974 C 11.849992,6.4563714 11.616729,7.6960356 11.373867,9.1602474 C 10.888143,12.088671 10.459237,15.794266 10.186367,19.535248 C 9.9134963,23.276230 9.7996543,27.043268 9.9363673,30.128998 C 10.004723,31.671863 10.114138,33.039940 10.342617,34.191498 C 10.571096,35.343056 10.789108,36.294239 11.623867,37.128998 C 12.448876,37.954007 13.279006,38.121162 14.405117,38.410248 C 15.531228,38.699334 16.917383,38.942929 18.498867,39.160248 C 21.661836,39.594886 25.595890,39.926593 29.530117,40.097748 C 33.464344,40.268903 37.385516,40.278394 40.498866,40.128998 C 42.055536,40.054300 43.405096,39.933412 44.498866,39.753998 C 45.045746,39.664291 45.525906,39.584116 45.967616,39.441498 C 46.409326,39.298880 46.818236,39.153377 47.280116,38.691498 C 48.110386,37.861230 48.293106,36.992681 48.561366,35.847748 C 48.829626,34.702815 49.024826,33.310070 49.186366,31.722748 C 49.509456,28.548104 49.679376,24.607448 49.655116,20.660248 C 49.630856,16.713048 49.425196,12.748493 49.061366,9.5664974 C 48.879456,7.9754994 48.657896,6.5910037 48.373866,5.4414974 C 48.089836,4.2919912 47.882566,3.4189509 47.061366,2.5977474 C 46.224806,1.7611855 45.432536,1.6684529 44.373866,1.4414974 C 43.315196,1.2145419 42.040396,1.0437036 40.561366,0.91024744 C 37.603306,0.64333524 33.915836,0.53214724 30.217617,0.56649744 z M 30.248867,3.6914975 C 33.864767,3.6579119 37.478616,3.7512117 40.280116,4.0039975 C 41.680866,4.1303904 42.862436,4.3206655 43.717616,4.5039975 C 44.572796,4.6873295 45.116096,5.0587300 44.842616,4.7852475 C 44.697536,4.6401651 45.110456,5.2519172 45.342616,6.1914974 C 45.574776,7.1310776 45.795326,8.4346767 45.967616,9.9414974 C 46.312196,12.955138 46.506406,16.802283 46.530116,20.660248 C 46.553836,24.518213 46.398556,28.404067 46.092616,31.410248 C 45.939646,32.913338 45.748726,34.195954 45.530116,35.128998 C 45.311506,36.062042 44.923656,36.641707 45.092616,36.472748 C 45.293636,36.271731 45.210816,36.373064 44.998866,36.441498 C 44.786916,36.509932 44.446486,36.618074 43.998866,36.691498 C 43.103636,36.838345 41.826466,36.932794 40.342616,37.003998 C 37.374916,37.146405 33.544846,37.140607 29.686367,36.972748 C 25.827888,36.804889 21.951809,36.480864 18.936367,36.066498 C 17.428646,35.859315 16.122272,35.619256 15.186367,35.378998 C 14.250462,35.138740 13.636692,34.735573 13.842617,34.941498 C 13.946042,35.044923 13.583868,34.498671 13.405117,33.597748 C 13.226366,32.696825 13.125362,31.448428 13.061367,30.003998 C 12.933377,27.115138 13.044778,23.440114 13.311367,19.785248 C 13.577956,16.130382 13.972273,12.489516 14.436367,9.6914974 C 14.668414,8.2924879 14.925331,7.1054938 15.155117,6.2539974 C 15.384903,5.4025010 15.840838,4.7870263 15.498867,5.1289974 C 15.277044,5.3508206 15.819514,4.9585808 16.686367,4.7539975 C 17.553220,4.5494142 18.778502,4.3775788 20.186367,4.2227475 C 23.002098,3.9130848 26.632967,3.7250831 30.248867,3.6914975 z "
     style="fill:url(#linearGradient1110);fill-opacity:1.0000000;stroke:none;stroke-width:0.50000000;stroke-linecap:butt;stroke-linejoin:miter;stroke-miterlimit:4.0000000;stroke-opacity:1.0000000;"
     id="path1719"
     transform="matrix(1.016500,0.000000,0.000000,1.016500,-1.565401,-0.571134)" />
  <path
     d="M 10.294548,26.068327 C 10.025647,25.703390 10.818303,5.9383395 13.506868,3.2497746 C 15.781464,0.97517854 30.741574,0.67215454 31.008477,1.0343805 C 31.258499,1.3736965 18.077829,1.7043345 15.057644,5.3543985 C 11.173186,10.048983 10.542572,26.404931 10.294548,26.068327 z "
     style="fill:url(#linearGradient1111);fill-opacity:1.0000000;fill-rule:evenodd;stroke:none;stroke-width:0.25000000pt;stroke-linecap:butt;stroke-linejoin:miter;stroke-opacity:1.0000000;"
     id="path1720"
     transform="matrix(1.016500,0.000000,0.000000,1.016500,-1.565401,-0.571134)" />
  <path
     d="M 38.186366,9.8789974 C 34.488148,9.9133476 30.785477,10.083167 27.811367,10.410247 C 26.324312,10.573787 25.037332,10.782787 23.967617,11.035247 C 22.897902,11.287707 22.064052,11.407562 21.248867,12.222747 C 20.423709,13.047905 20.397742,13.707873 20.123867,14.722748 C 19.849992,15.737622 19.585479,17.008536 19.342617,18.472748 C 18.856893,21.401172 18.427988,25.106766 18.155117,28.847748 C 17.882246,32.588730 17.768405,36.355768 17.905117,39.441498 C 17.973473,40.984363 18.082888,42.352440 18.311367,43.503998 C 18.539846,44.655556 18.757858,45.606739 19.592617,46.441498 C 20.417626,47.266507 21.247756,47.433662 22.373867,47.722748 C 23.499978,48.011834 24.886133,48.255429 26.467617,48.472748 C 29.630586,48.907386 33.564640,49.207843 37.498866,49.378998 C 41.433096,49.550153 45.354266,49.590894 48.467616,49.441498 C 50.024286,49.366800 51.373846,49.245912 52.467616,49.066498 C 53.014496,48.976791 53.494656,48.865366 53.936366,48.722748 C 54.378076,48.580130 54.786986,48.465876 55.248866,48.003998 C 56.079136,47.173730 56.261856,46.273931 56.530116,45.128998 C 56.798376,43.984065 57.024826,42.591320 57.186366,41.003998 C 57.509456,37.829354 57.648126,33.919948 57.623866,29.972748 C 57.599606,26.025548 57.393946,22.060994 57.030116,18.878998 C 56.848206,17.288000 56.626646,15.903504 56.342616,14.753998 C 56.058586,13.604491 55.851316,12.700200 55.030116,11.878997 C 54.193556,11.042435 53.432536,10.980953 52.373866,10.753997 C 51.315196,10.527041 50.009146,10.356203 48.530116,10.222747 C 45.572056,9.9558351 41.884586,9.8446472 38.186366,9.8789974 z M 38.217616,13.003997 C 41.833516,12.970411 45.447366,13.063711 48.248866,13.316497 C 49.649616,13.442890 50.862436,13.601915 51.717616,13.785247 C 52.572796,13.968579 53.116096,14.371231 52.842616,14.097748 C 52.697536,13.952665 53.079206,14.564418 53.311366,15.503998 C 53.543526,16.443578 53.764076,17.747177 53.936366,19.253998 C 54.280946,22.267639 54.475156,26.114783 54.498866,29.972748 C 54.522586,33.830713 54.367306,37.685317 54.061366,40.691498 C 53.908396,42.194588 53.717476,43.508454 53.498866,44.441498 C 53.280256,45.374542 52.892406,45.954207 53.061366,45.785248 C 53.262386,45.584232 53.210816,45.685564 52.998866,45.753998 C 52.786916,45.822432 52.415236,45.899324 51.967616,45.972748 C 51.072386,46.119595 49.795216,46.245294 48.311366,46.316498 C 45.343666,46.458905 41.513596,46.421857 37.655116,46.253998 C 33.796638,46.086139 29.920559,45.793364 26.905117,45.378998 C 25.397396,45.171815 24.091022,44.931756 23.155117,44.691498 C 22.219212,44.451240 21.605442,44.016823 21.811367,44.222748 C 21.914792,44.326173 21.583868,43.811171 21.405117,42.910248 C 21.226366,42.009325 21.094112,40.760928 21.030117,39.316498 C 20.902127,36.427638 21.013528,32.721364 21.280117,29.066498 C 21.546706,25.411632 21.972272,21.802017 22.436367,19.003998 C 22.668414,17.604988 22.894081,16.386744 23.123867,15.535248 C 23.353653,14.683752 23.809588,14.099527 23.467617,14.441498 C 23.245794,14.663321 23.819514,14.271081 24.686367,14.066498 C 25.553220,13.861914 26.747252,13.658828 28.155117,13.503997 C 30.970848,13.194334 34.601717,13.037583 38.217616,13.003997 z "
     style="fill:url(#linearGradient1112);fill-opacity:1.0000000;stroke:none;stroke-width:0.50000000;stroke-linecap:butt;stroke-linejoin:miter;stroke-miterlimit:4.0000000;stroke-opacity:1.0000000;"
     id="path1716"
     transform="matrix(1.016500,0.000000,0.000000,1.016500,-1.565401,-0.571134)" />
  <path
     d="M 18.269965,35.372979 C 18.001064,35.008042 18.793720,15.242992 21.482285,12.554426 C 23.756881,10.279830 38.716986,9.9768064 38.983896,10.339032 C 39.233916,10.678348 26.053246,11.008986 23.033061,14.659051 C 19.148603,19.353636 18.517989,35.709583 18.269965,35.372979 z "
     style="fill:url(#linearGradient1113);fill-opacity:1.0000000;fill-rule:evenodd;stroke:none;stroke-width:0.25000000pt;stroke-linecap:butt;stroke-linejoin:miter;stroke-opacity:1.0000000;"
     id="path1717"
     transform="matrix(1.016500,0.000000,0.000000,1.016500,-1.565401,-0.571134)" />
  <path
     d="M 22.186367,17.472748 C 18.488148,17.507098 14.816727,17.708167 11.842617,18.035248 C 10.355562,18.198788 9.0373323,18.376538 7.9676173,18.628998 C 6.8979013,18.881458 6.0953023,19.032563 5.2801173,19.847748 C 4.4549593,20.672906 4.3977423,21.332874 4.1238673,22.347748 C 3.8499923,23.362622 3.5854793,24.633536 3.3426173,26.097748 C 2.8568933,29.026172 2.4592373,32.731766 2.1863673,36.472748 C 1.9134963,40.213730 1.7684053,43.980768 1.9051173,47.066498 C 1.9734733,48.609363 2.1141383,49.977440 2.3426173,51.128998 C 2.5710963,52.280556 2.7891073,53.231739 3.6238673,54.066498 C 4.4488763,54.891507 5.2790063,55.058662 6.4051173,55.347748 C 7.5312283,55.636834 8.9173823,55.880429 10.498867,56.097748 C 13.661836,56.532386 17.595890,56.832843 21.530117,57.003998 C 25.464344,57.175153 29.385520,57.215894 32.498867,57.066498 C 34.055540,56.991800 35.405101,56.870912 36.498866,56.691498 C 37.045746,56.601791 37.525906,56.490366 37.967616,56.347748 C 38.409326,56.205130 38.818236,56.090877 39.280116,55.628998 C 40.110386,54.798730 40.293106,53.898931 40.561366,52.753998 C 40.829626,51.609065 41.024826,50.216320 41.186366,48.628998 C 41.509456,45.454354 41.648126,41.513698 41.623866,37.566498 C 41.599606,33.619298 41.425196,29.685994 41.061366,26.503998 C 40.879456,24.913000 40.657896,23.528504 40.373866,22.378998 C 40.089836,21.229492 39.882566,20.325201 39.061366,19.503998 C 38.224806,18.667436 37.432536,18.574704 36.373866,18.347748 C 35.315194,18.120792 34.009146,17.949954 32.530117,17.816498 C 29.572060,17.549586 25.884586,17.438398 22.186367,17.472748 z M 22.217617,20.597748 C 25.833517,20.564162 29.447367,20.688712 32.248867,20.941498 C 33.649617,21.067891 34.862434,21.226916 35.717616,21.410248 C 36.572796,21.593580 37.116096,21.996231 36.842616,21.722748 C 36.697536,21.577666 37.110456,22.189418 37.342616,23.128998 C 37.574776,24.068578 37.764076,25.340927 37.936366,26.847748 C 38.280946,29.861389 38.475156,33.739783 38.498866,37.597748 C 38.522586,41.455713 38.398556,45.310317 38.092616,48.316498 C 37.939646,49.819588 37.717476,51.102204 37.498866,52.035248 C 37.280256,52.968292 36.892406,53.579207 37.061366,53.410248 C 37.262386,53.209231 37.210816,53.310564 36.998866,53.378998 C 36.786916,53.447432 36.446486,53.524324 35.998866,53.597748 C 35.103636,53.744595 33.826470,53.870294 32.342617,53.941498 C 29.374912,54.083905 25.513596,54.046857 21.655117,53.878998 C 17.796638,53.711139 13.920559,53.418364 10.905117,53.003998 C 9.3973963,52.796815 8.1222723,52.556756 7.1863673,52.316498 C 6.2504623,52.076240 5.6366923,51.641823 5.8426173,51.847748 C 5.9460423,51.951173 5.5838683,51.436171 5.4051173,50.535248 C 5.2263663,49.634325 5.0941123,48.385928 5.0301173,46.941498 C 4.9021273,44.052638 5.0135283,40.346364 5.2801173,36.691498 C 5.5467063,33.036632 5.9722723,29.395767 6.4363673,26.597748 C 6.6684143,25.198738 6.9253313,24.011744 7.1551173,23.160248 C 7.3849023,22.308752 7.8408383,21.724527 7.4988673,22.066498 C 7.2770443,22.288321 7.8195143,21.896081 8.6863673,21.691498 C 9.5532203,21.486915 10.778502,21.283829 12.186367,21.128998 C 15.002098,20.819335 18.601717,20.631334 22.217617,20.597748 z "
     style="fill:url(#linearGradient1114);fill-opacity:1.0000000;stroke:none;stroke-width:0.50000000;stroke-linecap:butt;stroke-linejoin:miter;stroke-miterlimit:4.0000000;stroke-opacity:1.0000000;"
     id="rect1088"
     transform="matrix(1.016500,0.000000,0.000000,1.016500,-1.565401,-0.571134)" />
  <path
     d="M 2.2854123,42.990949 C 2.0165113,42.626012 2.8091673,22.860962 5.4977323,20.172397 C 7.7723283,17.897801 22.732438,17.594777 22.999341,17.957003 C 23.249363,18.296319 10.068693,18.626957 7.0485083,22.277021 C 3.1640503,26.971606 2.5334363,43.327553 2.2854123,42.990949 z "
     style="fill:url(#linearGradient1115);fill-opacity:1.0000000;fill-rule:evenodd;stroke:none;stroke-width:0.25000000pt;stroke-linecap:butt;stroke-linejoin:miter;stroke-opacity:1.0000000;"
     id="path1711"
     transform="matrix(1.016500,0.000000,0.000000,1.016500,-1.565401,-0.571134)" />
</svg>
