<?xml version="1.0" encoding="UTF-8" standalone="no"?>
<!-- Created with Inkscape (http://www.inkscape.org/) -->
<svg
   xmlns:dc="http://purl.org/dc/elements/1.1/"
   xmlns:cc="http://web.resource.org/cc/"
   xmlns:rdf="http://www.w3.org/1999/02/22-rdf-syntax-ns#"
   xmlns:svg="http://www.w3.org/2000/svg"
   xmlns="http://www.w3.org/2000/svg"
   xmlns:xlink="http://www.w3.org/1999/xlink"
   xmlns:sodipodi="http://inkscape.sourceforge.net/DTD/sodipodi-0.dtd"
   xmlns:inkscape="http://www.inkscape.org/namespaces/inkscape"
   version="1.0"
   x="0"
   y="0"
   width="48pt"
   height="48pt"
   id="svg1"
   sodipodi:version="0.32"
   inkscape:version="0.42"
   sodipodi:docname="wine.svg"
   sodipodi:docbase="/home/jakob/dev/lila/lila-theme/trunk/lila/kde/scalable/apps">
  <metadata
     id="metadata33">
    <rdf:RDF>
      <cc:Work
         rdf:about="">
        <dc:format>image/svg+xml</dc:format>
        <dc:type
           rdf:resource="http://purl.org/dc/dcmitype/StillImage" />
      </cc:Work>
    </rdf:RDF>
  </metadata>
  <sodipodi:namedview
     id="base"
     pagecolor="#ffffff"
     bordercolor="#666666"
     borderopacity="1.0"
     inkscape:pageopacity="0.0"
     inkscape:pageshadow="2"
     inkscape:zoom="9.7227182"
     inkscape:cx="30.000000"
     inkscape:cy="30.000000"
     inkscape:window-width="1400"
     inkscape:window-height="995"
     inkscape:window-x="0"
     inkscape:window-y="0"
     showgrid="false"
     vertgrid="false"
     snaptogrid="false"
     horizgrid="false"
     snaptoguides="false"
     inkscape:current-layer="svg1" />
  <defs
     id="defs3">
    <linearGradient
       id="linearGradient570">
      <stop
         style="stop-color:#ffffff;stop-opacity:1;"
         offset="0"
         id="stop571" />
      <stop
         style="stop-color:#ffffff;stop-opacity:0;"
         offset="1"
         id="stop572" />
    </linearGradient>
    <linearGradient
       id="linearGradient563">
      <stop
         style="stop-color:#d9cce6;stop-opacity:1;"
         offset="0.00000000"
         id="stop564" />
      <stop
         style="stop-color:#73667f;stop-opacity:1;"
         offset="1.00000000"
         id="stop565" />
    </linearGradient>
    <linearGradient
       x1="23.445892"
       y1="22.109898"
       x2="37.416840"
       y2="36.317333"
       id="linearGradient566"
       xlink:href="#linearGradient570"
       gradientTransform="matrix(1.176225,-0.331018,0.303136,1.077146,-13.50613,8.161627)"
       gradientUnits="userSpaceOnUse" />
    <linearGradient
       x1="42.642258"
       y1="19.079058"
       x2="40.477314"
       y2="25.603552"
       id="linearGradient569"
       xlink:href="#linearGradient570"
       gradientTransform="matrix(0.826380,-0.947569,0.599427,0.522763,-7.690852,34.70151)"
       gradientUnits="userSpaceOnUse" />
    <linearGradient
       x1="41.480064"
       y1="7.2575798"
       x2="48.199047"
       y2="9.9975491"
       id="linearGradient573"
       xlink:href="#linearGradient570"
       gradientTransform="matrix(1.408938,-1.343235,0.207388,1.577106,-34.56969,66.22877)"
       gradientUnits="userSpaceOnUse" />
    <linearGradient
       x1="25.385162"
       y1="30.333403"
       x2="29.022699"
       y2="33.182865"
       id="linearGradient575"
       xlink:href="#linearGradient570"
       gradientTransform="matrix(0.887520,-0.100310,0.299065,0.705226,-11.09381,23.27916)"
       gradientUnits="userSpaceOnUse" />
    <linearGradient
       x1="3.9261248"
       y1="48.429581"
       x2="9.9217955"
       y2="53.534990"
       id="linearGradient578"
       xlink:href="#linearGradient570"
       gradientTransform="matrix(1.254244,0.000000,0.000000,0.797293,7.014708e-4,0.000000)"
       gradientUnits="userSpaceOnUse" />
    <linearGradient
       x1="17.065596"
       y1="38.298225"
       x2="23.077515"
       y2="38.298225"
       id="linearGradient583"
       xlink:href="#linearGradient570"
       gradientTransform="matrix(0.767282,0.000000,0.000000,1.303302,7.014708e-4,0.000000)"
       gradientUnits="userSpaceOnUse" />
    <linearGradient
       x1="0.07954545"
       y1="0.06250000"
       x2="0.95454544"
       y2="0.97656250"
       id="linearGradient637"
       xlink:href="#linearGradient563" />
    <linearGradient
       x1="0.03225806"
       y1="0.05468750"
       x2="0.99596775"
       y2="1.00000000"
       id="linearGradient640"
       xlink:href="#linearGradient563" />
    <linearGradient
       x1="0.010877"
       y1="0.038449"
       x2="0.989090"
       y2="0.987177"
       id="linearGradient645"
       xlink:href="#linearGradient570" />
    <linearGradient
       x1="0.056578"
       y1="0.023450"
       x2="0.867923"
       y2="0.976563"
       id="linearGradient646"
       xlink:href="#linearGradient570" />
    <linearGradient
       x1="0.000007"
       y1="0.000000"
       x2="0.951807"
       y2="0.984375"
       id="linearGradient647"
       xlink:href="#linearGradient570" />
    <linearGradient
       x1="0.056605"
       y1="0.015625"
       x2="0.943396"
       y2="0.984375"
       id="linearGradient675"
       xlink:href="#linearGradient570" />
    <linearGradient
       x1="0.011765"
       y1="-0.000000"
       x2="1.011765"
       y2="1.015625"
       id="linearGradient676"
       xlink:href="#linearGradient570" />
    <linearGradient
       xlink:href="#linearGradient563"
       id="linearGradient684"
       x1="0.09210526"
       y1="0.12500000"
       x2="0.93421054"
       y2="0.92187500" />
    <linearGradient
       xlink:href="#linearGradient563"
       id="linearGradient685"
       x1="0.06603774"
       y1="0.07812500"
       x2="0.94339621"
       y2="0.95312500" />
    <linearGradient
       inkscape:collect="always"
       xlink:href="#linearGradient563"
       id="linearGradient2784"
       gradientUnits="userSpaceOnUse"
       gradientTransform="matrix(1.176225,-0.331018,0.303136,1.077146,-13.50613,8.161627)"
       x1="32.872963"
       y1="13.198403"
       x2="37.959335"
       y2="35.540058" />
    <linearGradient
       inkscape:collect="always"
       xlink:href="#linearGradient563"
       id="linearGradient12961"
       gradientUnits="userSpaceOnUse"
       gradientTransform="matrix(1.176225,-0.331018,0.303136,1.077146,-13.50613,8.161627)"
       x1="12.481265"
       y1="31.963270"
       x2="25.415209"
       y2="40.548618" />
    <linearGradient
       inkscape:collect="always"
       xlink:href="#linearGradient570"
       id="linearGradient14421"
       gradientUnits="userSpaceOnUse"
       gradientTransform="matrix(1.176225,-0.331018,0.303136,1.077146,-13.50613,8.161627)"
       x1="45.141113"
       y1="27.768179"
       x2="36.736015"
       y2="10.142352" />
    <linearGradient
       inkscape:collect="always"
       xlink:href="#linearGradient570"
       id="linearGradient2787"
       gradientUnits="userSpaceOnUse"
       gradientTransform="matrix(-0.332488,-0.450568,0.484625,1.603662e-2,21.78284,69.33280)"
       x1="44.400810"
       y1="12.050202"
       x2="34.685047"
       y2="8.5055141" />
  </defs>
  <path
     d="M 14.367559,54.510445 C 17.316522,56.292646 21.911172,60.219058 23.789163,58.733706 C 25.031714,57.750940 21.364581,55.605100 19.559079,53.868380 C 18.129833,52.493583 18.118917,51.742292 19.743571,48.698478 C 23.216246,42.192376 26.211256,39.092717 29.034230,39.207889 C 31.629484,39.313771 36.192849,37.276481 40.175016,33.640911 C 44.072108,30.083012 52.409800,16.375718 53.940478,13.593272 C 55.458125,10.834516 52.114383,8.4156692 47.116559,5.0343449 C 42.313277,1.7846380 37.762377,0.18009253 36.586212,2.0494977 C 35.410047,3.9189031 25.776368,17.073636 23.465533,22.402170 C 21.247988,27.515586 21.051176,32.229680 22.165615,34.723100 C 23.320602,37.307246 21.162184,42.173355 17.463133,47.255188 C 15.581029,49.845909 14.934906,50.200014 12.979271,49.347063 C 11.159603,48.553414 7.0220247,45.528985 6.6459496,46.965566 C 6.1205096,48.972708 11.520398,52.789768 14.367559,54.510445 z "
     style="font-size:12.000000px;fill:url(#linearGradient566);fill-opacity:1.0000000;fill-rule:evenodd;stroke:none;stroke-width:1.8750000;stroke-miterlimit:4.0000000;stroke-dasharray:none"
     id="path630"
     sodipodi:nodetypes="csszzzzzzzzzssz" />
  <path
     sodipodi:nodetypes="csszzzzssz"
     id="path12233"
     style="font-size:12.000000px;fill:url(#linearGradient12961);fill-opacity:1.0000000;fill-rule:evenodd;stroke:none;stroke-width:0.62500000;stroke-miterlimit:4.0000000;stroke-dasharray:none"
     d="M 14.367559,54.510445 C 17.316522,56.292646 21.911172,60.219058 23.789163,58.733706 C 25.031714,57.750940 21.364581,55.605100 19.559079,53.868380 C 18.129833,52.493583 18.118917,51.742292 19.743571,48.698478 C 23.216246,42.192376 26.211256,39.092717 29.034230,39.207889 C 31.629484,39.313771 21.051176,32.229680 22.165615,34.723100 C 23.320602,37.307246 21.162184,42.173355 17.463133,47.255188 C 15.581029,49.845909 14.934906,50.200014 12.979271,49.347063 C 11.159603,48.553414 7.0220247,45.528985 6.6459496,46.965566 C 6.1205096,48.972708 11.520398,52.789768 14.367559,54.510445 z " />
  <path
     sodipodi:nodetypes="czzzzz"
     id="path14419"
     style="font-size:12.000000px;fill:url(#linearGradient14421);fill-opacity:1.0000000;fill-rule:evenodd;stroke:#261933;stroke-width:0.62500000;stroke-miterlimit:4.0000000;stroke-dasharray:none"
     d="M 40.175016,33.640911 C 44.072108,30.083012 55.328756,12.392597 53.880552,12.131390 C 52.168672,11.822628 50.131847,10.980376 45.134024,7.5990523 C 40.330742,4.3493450 38.821324,2.6003315 37.640352,1.2147514 C 36.512201,-0.10885497 25.776368,17.073636 23.465533,22.402170 C 21.247988,27.515586 36.192849,37.276481 40.175016,33.640911 z " />
  <path
     sodipodi:nodetypes="czzzzzzzz"
     id="path1330"
     style="font-size:12.000000px;fill:url(#linearGradient2784);fill-opacity:1.0000000;fill-rule:evenodd;stroke:#261933;stroke-width:0.62500000;stroke-miterlimit:4.0000000;stroke-dasharray:none"
     d="M 29.507555,38.659179 C 32.102809,38.765062 35.798153,37.444993 39.780322,33.809423 C 43.677413,30.251524 45.946258,26.529464 47.750803,23.551077 C 49.552163,20.577944 48.094855,17.101160 44.861456,15.222258 C 41.628057,13.343356 41.574297,14.669024 37.490532,13.384826 C 33.361030,12.086244 33.291743,6.3978540 32.703660,7.3325561 C 31.527495,9.2019608 25.776368,17.073636 23.465533,22.402170 C 21.247988,27.515586 21.524501,32.092377 22.638939,34.585798 C 23.793926,37.169944 26.684581,38.544007 29.507555,38.659179 z " />
  <path
     d="M 30.538646,37.491183 C 22.609862,37.741509 22.641165,31.164122 24.192222,25.345484 C 25.311693,21.145900 33.141457,9.8806940 32.966943,10.221494 C 32.109297,11.896343 28.549452,19.913622 26.740995,26.408666 C 24.868413,33.134014 26.896578,34.836496 30.538646,37.491183 z "
     style="font-size:12.000000px;opacity:0.69999999;fill:url(#linearGradient573);fill-rule:evenodd;stroke:none;stroke-width:0.11228322pt"
     id="path634"
     sodipodi:nodetypes="csssc" />
  <path
     d="M 17.357602,49.238862 C 14.997997,53.402379 13.072866,51.969357 12.270283,51.473127 C 11.158876,50.785955 8.2708678,48.060029 8.3644879,48.123931 C 8.8245789,48.437977 11.054595,49.790933 12.915646,50.590651 C 14.842688,51.418727 16.080082,50.676587 17.357602,49.238862 z "
     style="font-size:12.000000px;opacity:0.69999999;fill:url(#linearGradient2787);fill-rule:evenodd;stroke:none;stroke-width:0.11228322pt"
     id="path2785"
     sodipodi:nodetypes="csssc" />
  <path
     sodipodi:nodetypes="csszzzzzzzzzssz"
     id="path12963"
     style="font-size:12.000000px;fill:none;fill-opacity:1.0000000;fill-rule:evenodd;stroke:#261933;stroke-width:1.8750000;stroke-miterlimit:4.0000000;stroke-dasharray:none"
     d="M 14.367559,54.510445 C 17.316522,56.292646 21.911172,60.219058 23.789163,58.733706 C 25.031714,57.750940 21.364581,55.605100 19.559079,53.868380 C 18.129833,52.493583 18.118917,51.742292 19.743571,48.698478 C 23.216246,42.192376 26.211256,39.092717 29.034230,39.207889 C 31.629484,39.313771 36.192849,37.276481 40.175016,33.640911 C 44.072108,30.083012 52.409800,16.375718 53.940478,13.593272 C 55.458125,10.834516 52.114383,8.4156692 47.116559,5.0343449 C 42.313277,1.7846380 37.762377,0.18009253 36.586212,2.0494977 C 35.410047,3.9189031 25.776368,17.073636 23.465533,22.402170 C 21.247988,27.515586 21.051176,32.229680 22.165615,34.723100 C 23.320602,37.307246 21.162184,42.173355 17.463133,47.255188 C 15.581029,49.845909 14.934906,50.200014 12.979271,49.347063 C 11.159603,48.553414 6.5228475,45.485687 6.6459496,46.965566 C 6.8276164,49.149485 11.520398,52.789768 14.367559,54.510445 z " />
</svg>
