<?xml version="1.0" encoding="UTF-8" standalone="no"?>
<!DOCTYPE svg PUBLIC "-//W3C//DTD SVG 20010904//EN"
"http://www.w3.org/TR/2001/REC-SVG-20010904/DTD/svg10.dtd">
<!-- Created with Inkscape (http://www.inkscape.org/) -->
<svg
   width="48pt"
   height="48pt"
   id="svg1061"
   sodipodi:version="0.32"
   inkscape:version="0.40"
   sodipodi:docbase="/home/scaba"
   sodipodi:docname="xfce-mouse.svg"
   xmlns="http://www.w3.org/2000/svg"
   xmlns:cc="http://web.resource.org/cc/"
   xmlns:inkscape="http://www.inkscape.org/namespaces/inkscape"
   xmlns:sodipodi="http://sodipodi.sourceforge.net/DTD/sodipodi-0.dtd"
   xmlns:rdf="http://www.w3.org/1999/02/22-rdf-syntax-ns#"
   xmlns:dc="http://purl.org/dc/elements/1.1/"
   xmlns:xlink="http://www.w3.org/1999/xlink">
  <defs
     id="defs3">
    <linearGradient
       x1="0.978904"
       y1="0.968750"
       x2="0.008439"
       y2="0.023437"
       id="linearGradient899"
       xlink:href="#linearGradient642" />
    <defs
       id="defs839">
      <linearGradient
         id="linearGradient983">
        <stop
           style="stop-color:#2ad700;stop-opacity:1;"
           offset="0"
           id="stop984" />
        <stop
           style="stop-color:#e5ffe5;stop-opacity:1;"
           offset="1"
           id="stop985" />
      </linearGradient>
      <linearGradient
         id="linearGradient843">
        <stop
           style="stop-color:#ffffff;stop-opacity:1;"
           offset="0"
           id="stop844" />
        <stop
           style="stop-color:#ffffff;stop-opacity:0;"
           offset="1"
           id="stop845" />
      </linearGradient>
      <linearGradient
         id="linearGradient846">
        <stop
           style="stop-color:#a673f3;stop-opacity:1;"
           offset="0"
           id="stop847" />
        <stop
           style="stop-color:#4c3f8c;stop-opacity:1;"
           offset="1"
           id="stop848" />
      </linearGradient>
      <linearGradient
         id="linearGradient849">
        <stop
           style="stop-color:#ffffff;stop-opacity:1;"
           offset="0"
           id="stop850" />
        <stop
           style="stop-color:#ffffff;stop-opacity:0;"
           offset="1"
           id="stop851" />
      </linearGradient>
      <linearGradient
         x1="0.000000"
         y1="0.000000"
         x2="1.000000"
         y2="0.000000"
         id="linearGradient852"
         xlink:href="#linearGradient923"
         gradientUnits="objectBoundingBox"
         spreadMethod="pad" />
      <linearGradient
         x1="0.015504"
         y1="0.015625"
         x2="1.015504"
         y2="0.984375"
         id="linearGradient855"
         xlink:href="#linearGradient635" />
      <linearGradient
         x1="-0.006803"
         y1="0.023438"
         x2="0.986395"
         y2="0.992188"
         id="linearGradient856"
         xlink:href="#linearGradient642" />
      <linearGradient
         x1="-0.000000"
         y1="0.000000"
         x2="1.000000"
         y2="0.000000"
         id="linearGradient857"
         xlink:href="#linearGradient642" />
      <linearGradient
         x1="0.010309"
         y1="0.023436"
         x2="1.000000"
         y2="0.992188"
         id="linearGradient858"
         xlink:href="#linearGradient642" />
      <linearGradient
         id="linearGradient859"
         xlink:href="#linearGradient1535" />
      <linearGradient
         x1="0.014564"
         y1="-0.000001"
         x2="0.989091"
         y2="1.000000"
         id="linearGradient860"
         xlink:href="#linearGradient1535" />
      <linearGradient
         x1="0.003631"
         y1="0.000003"
         x2="1.003636"
         y2="1.041666"
         id="linearGradient861"
         xlink:href="#linearGradient1535" />
      <linearGradient
         x1="0.003633"
         y1="0.008073"
         x2="0.996364"
         y2="0.975806"
         id="linearGradient862"
         xlink:href="#linearGradient1535" />
    </defs>
    <linearGradient
       x1="0.950420"
       y1="0.945312"
       x2="0.024794"
       y2="0.015625"
       id="linearGradient1044"
       xlink:href="#linearGradient1535" />
    <linearGradient
       x1="0.973546"
       y1="0.953124"
       x2="0.005291"
       y2="-0.015625"
       id="linearGradient1042"
       xlink:href="#linearGradient1535" />
    <linearGradient
       x1="16.539005"
       y1="16.847510"
       x2="26.711875"
       y2="26.670341"
       id="linearGradient1567"
       xlink:href="#linearGradient1535"
       gradientTransform="scale(1.570885,0.636584)"
       gradientUnits="userSpaceOnUse" />
    <linearGradient
       x1="14.578597"
       y1="37.898814"
       x2="18.661955"
       y2="41.991643"
       id="linearGradient1539"
       xlink:href="#linearGradient1535"
       gradientTransform="scale(1.526671,0.655020)"
       gradientUnits="userSpaceOnUse" />
    <linearGradient
       x1="11.082776"
       y1="60.489706"
       x2="19.306320"
       y2="68.618916"
       id="linearGradient1534"
       xlink:href="#linearGradient642"
       gradientTransform="scale(1.473889,0.678477)"
       gradientUnits="userSpaceOnUse" />
    <linearGradient
       x1="9.1640074"
       y1="7.6621731"
       x2="31.414017"
       y2="29.793094"
       id="linearGradient1532"
       xlink:href="#linearGradient1535"
       gradientTransform="scale(1.467927,0.681233)"
       gradientUnits="userSpaceOnUse" />
    <linearGradient
       x1="16.879886"
       y1="12.164606"
       x2="33.519533"
       y2="28.304611"
       id="linearGradient1527"
       xlink:href="#linearGradient1528"
       gradientTransform="scale(1.327778,0.753138)"
       gradientUnits="userSpaceOnUse" />
    <linearGradient
       x1="21.859951"
       y1="23.407687"
       x2="34.605811"
       y2="36.131417"
       id="linearGradient1522"
       xlink:href="#linearGradient1528"
       gradientTransform="scale(0.967689,1.033390)"
       gradientUnits="userSpaceOnUse" />
    <linearGradient
       x1="11.626931"
       y1="47.879241"
       x2="26.721321"
       y2="62.170475"
       id="linearGradient641"
       xlink:href="#linearGradient1528"
       gradientTransform="scale(1.194392,0.837246)"
       gradientUnits="userSpaceOnUse" />
    <linearGradient
       x1="0.87692308"
       y1="0.91406256"
       x2="0.00000000"
       y2="0.00781250"
       id="linearGradient638"
       xlink:href="#linearGradient923" />
    <linearGradient
       id="linearGradient635">
      <stop
         style="stop-color:#e6cfff;stop-opacity:1;"
         offset="0"
         id="stop636" />
      <stop
         style="stop-color:#ffffff;stop-opacity:1;"
         offset="1"
         id="stop637" />
    </linearGradient>
    <linearGradient
       id="linearGradient642">
      <stop
         style="stop-color:#ffffff;stop-opacity:1;"
         offset="0"
         id="stop643" />
      <stop
         style="stop-color:#ffffff;stop-opacity:0;"
         offset="1"
         id="stop644" />
    </linearGradient>
    <linearGradient
       id="linearGradient1528">
      <stop
         style="stop-color:#d9cce6;stop-opacity:1;"
         offset="0.00000000"
         id="stop1530" />
      <stop
         style="stop-color:#73667f;stop-opacity:1;"
         offset="1.00000000"
         id="stop1529" />
    </linearGradient>
    <linearGradient
       id="linearGradient1535">
      <stop
         style="stop-color:#ffffff;stop-opacity:1;"
         offset="0"
         id="stop1537" />
      <stop
         style="stop-color:#ffffff;stop-opacity:0;"
         offset="1"
         id="stop1536" />
    </linearGradient>
    <linearGradient
       id="linearGradient923">
      <stop
         style="stop-color:#d9cce6;stop-opacity:1;"
         offset="0.00000000"
         id="stop925" />
      <stop
         style="stop-color:#f3e6ff;stop-opacity:1;"
         offset="1.00000000"
         id="stop924" />
    </linearGradient>
    <linearGradient
       inkscape:collect="always"
       xlink:href="#linearGradient1528"
       id="linearGradient4279"
       gradientTransform="matrix(1.360692,0.000000,0.000000,0.706411,-0.211790,-0.831007)"
       x1="0.31789720"
       y1="21.111998"
       x2="42.499680"
       y2="62.222683"
       gradientUnits="userSpaceOnUse" />
    <linearGradient
       inkscape:collect="always"
       xlink:href="#linearGradient1528"
       id="linearGradient3588"
       gradientUnits="userSpaceOnUse"
       gradientTransform="matrix(1.360692,0.000000,0.000000,0.706411,-0.211790,-0.831007)"
       x1="0.31789720"
       y1="21.111998"
       x2="42.499680"
       y2="62.222683" />
  </defs>
  <sodipodi:namedview
     id="base"
     pagecolor="#ffffff"
     bordercolor="#666666"
     borderopacity="1.0"
     inkscape:pageopacity="0.0"
     inkscape:pageshadow="2"
     inkscape:zoom="7.1594562"
     inkscape:cx="23.999998"
     inkscape:cy="28.164110"
     inkscape:current-layer="svg1061"
     showgrid="false"
     inkscape:grid-bbox="false"
     gridspacingy="1.0000000pt"
     gridspacingx="1.0000000pt"
     gridoriginy="0.0000000pt"
     gridoriginx="0.0000000pt"
     inkscape:window-width="1022"
     inkscape:window-height="695"
     inkscape:window-x="0"
     inkscape:window-y="26" />
  <metadata
     id="metadata4">
    <rdf:RDF
       id="RDF5">
      <cc:Work
         rdf:about=""
         id="Work6">
        <dc:format
           id="format7">image/svg+xml</dc:format>
        <dc:type
           id="type9"
           rdf:resource="http://purl.org/dc/dcmitype/StillImage" />
      </cc:Work>
    </rdf:RDF>
  </metadata>
  <g
     id="layer1"
     inkscape:label="Layer 1"
     inkscape:groupmode="layer" />
  <path
     d="M 18.085115,45.058630 C 17.758961,43.716920 19.600847,41.806042 18.695395,40.877613 C 17.579563,41.593688 14.573142,42.172227 16.302245,40.065329 C 17.878505,38.833512 18.372724,37.164931 17.890932,35.242691 C 17.795056,32.595974 18.486314,29.927370 19.965694,27.721442 C 19.797895,25.852825 17.340023,24.882793 16.046272,23.658480 C 12.644476,21.085100 8.7298569,19.366475 4.8601041,17.638153 C 3.6346361,16.933575 0.99728607,15.958289 0.77476607,15.046894 C 3.8100041,16.427968 6.8720891,17.762755 10.083978,18.685409 C 14.262548,20.201953 17.868787,22.940952 21.089506,25.947920 C 22.877286,25.483716 24.930395,24.379047 26.996509,25.082578 C 30.224640,25.515628 33.342640,26.950990 36.675488,25.965583 C 38.500766,24.868668 39.271849,22.634010 38.474182,20.640907 C 37.649308,18.333079 40.797884,16.685535 41.583616,19.340106 C 42.163925,20.096454 42.980626,23.293420 43.847840,21.765346 C 43.530838,20.070426 42.605487,17.894710 43.900810,16.439139 C 45.853731,15.160268 46.956469,17.884811 46.913279,19.452205 C 46.894074,20.893848 46.755670,22.362962 48.724653,22.360172 C 51.950619,22.668083 55.607662,23.413297 57.976215,25.933566 C 59.217677,27.138496 58.838496,29.103133 57.394975,29.960716 C 54.878420,32.063050 51.716504,33.123691 48.905285,34.743602 C 47.521508,36.289333 49.609745,37.717201 50.478780,38.864383 C 51.791661,39.854613 51.415059,41.715810 49.660704,40.640458 C 48.579981,40.605720 46.346360,38.902908 45.836082,40.099974 C 46.481780,41.464717 49.181382,42.919899 47.771958,44.490877 C 45.139499,44.040638 42.845340,42.460952 40.296304,41.739025 C 34.798255,42.436898 29.095171,42.710441 23.683584,41.268345 C 22.064702,41.932833 20.941668,43.513153 19.497832,44.509752 C 19.133441,44.710961 18.473983,45.626701 18.085115,45.058630 z M 50.059975,32.920803 C 50.862746,32.693866 53.237099,30.448515 51.450473,30.683045 C 51.030750,30.797459 48.237553,33.746545 50.059975,32.920803 z M 48.990860,30.994072 C 49.830035,30.884041 53.059779,29.258252 50.698344,29.504151 C 50.065904,29.865224 47.578251,30.591989 48.232838,31.237244 C 48.491708,31.176212 48.738847,31.076985 48.990860,30.994072 z M 48.314840,27.629503 C 49.659477,26.702141 46.259442,27.029531 46.459387,25.582286 C 45.290558,24.576271 46.260907,27.980656 47.455238,27.757959 C 47.745371,27.868659 48.048249,27.730175 48.314840,27.629503 z M 48.920888,26.166013 C 50.719301,23.984747 46.054325,23.695409 47.718304,26.114671 C 48.041147,26.413785 48.569321,26.421476 48.920888,26.166013 z M 56.894764,23.492933 C 57.234093,22.499177 58.306432,20.226481 58.936472,20.292332 C 58.399427,21.171219 57.659403,23.532092 56.894764,23.492933 z M 55.744554,22.497122 C 55.738704,21.831157 56.411416,18.320786 56.329552,20.668372 C 56.411822,21.077576 55.727522,24.602692 55.744554,22.497122 z "
     id="path1991"
     style="opacity:0.29999998;fill:#000000;fill-opacity:1.0000000;stroke:#000000;stroke-width:1.8750000;stroke-linecap:round;stroke-linejoin:round;stroke-miterlimit:4.0000000;stroke-opacity:1.0000000;"
     sodipodi:nodetypes="ccccccccccccccccccccccccccccccccccccccccccccccccc"
     transform="matrix(0.990600,0.000000,0.000000,0.990600,0.690322,0.893205)" />
  <path
     d="M 17.531119,43.517495 C 17.204965,42.175785 19.046851,40.264907 18.141399,39.336478 C 17.025567,40.052553 14.019146,40.631092 15.748249,38.524194 C 17.324509,37.292377 17.818728,35.623796 17.336936,33.701556 C 17.241060,31.054839 17.932318,28.386235 19.411698,26.180307 C 19.243899,24.311690 16.786027,23.341658 15.492276,22.117345 C 12.090480,19.543965 8.1758606,17.825340 4.3061073,16.097018 C 3.0806396,15.392440 0.44329004,14.417154 0.22077005,13.505759 C 3.2560075,14.886833 6.3180925,16.221620 9.5299819,17.144274 C 13.708552,18.660818 17.314791,21.399817 20.535510,24.406785 C 22.323290,23.942581 24.376399,22.837912 26.442513,23.541443 C 29.670644,23.974493 32.788644,25.409855 36.121492,24.424448 C 37.946770,23.327533 38.717853,21.092875 37.920186,19.099772 C 37.095312,16.791944 40.243888,15.144400 41.029620,17.798971 C 41.609929,18.555319 42.426630,21.752285 43.293844,20.224211 C 42.976842,18.529291 42.051491,16.353575 43.346814,14.898004 C 45.299735,13.619133 46.402473,16.343676 46.359283,17.911070 C 46.340078,19.352713 46.201674,20.821827 48.170657,20.819037 C 51.396623,21.126948 55.053666,21.872162 57.422219,24.392431 C 58.663681,25.597361 58.284500,27.561998 56.840979,28.419581 C 54.324424,30.521915 51.162508,31.582556 48.351289,33.202467 C 46.967512,34.748198 49.055749,36.176066 49.924784,37.323248 C 51.237665,38.313478 50.861063,40.174675 49.106708,39.099323 C 48.025985,39.064585 45.792364,37.361773 45.282086,38.558839 C 45.927784,39.923582 48.627386,41.378764 47.217962,42.949742 C 44.585503,42.499503 42.291344,40.919817 39.742308,40.197890 C 34.244259,40.895763 28.541175,41.169306 23.129588,39.727210 C 21.510706,40.391698 20.387672,41.972018 18.943836,42.968617 C 18.579445,43.169826 17.919987,44.085566 17.531119,43.517495 z M 49.505979,31.379668 C 50.308750,31.152731 52.683103,28.907380 50.896477,29.141910 C 50.476754,29.256324 47.683557,32.205410 49.505979,31.379668 z M 48.436864,29.452937 C 49.276039,29.342906 52.505783,27.717117 50.144348,27.963016 C 49.511908,28.324089 47.024255,29.050854 47.678842,29.696109 C 47.937712,29.635077 48.184851,29.535850 48.436864,29.452937 z M 47.760844,26.088368 C 49.105481,25.161006 45.705446,25.488396 45.905391,24.041151 C 44.736562,23.035136 45.706911,26.439521 46.901242,26.216824 C 47.191375,26.327524 47.494253,26.189040 47.760844,26.088368 z M 48.366892,24.624878 C 50.165305,22.443612 45.500329,22.154274 47.164308,24.573536 C 47.487151,24.872650 48.015325,24.880341 48.366892,24.624878 z M 56.340768,21.951798 C 56.680097,20.958042 57.752436,18.685346 58.382476,18.751197 C 57.845431,19.630084 57.105407,21.990957 56.340768,21.951798 z M 55.190558,20.955987 C 55.184708,20.290022 55.857420,16.779651 55.775556,19.127237 C 55.857826,19.536441 55.173526,23.061557 55.190558,20.955987 z "
     id="path3020"
     style="fill:url(#linearGradient3588);fill-opacity:1.0000000;stroke:#261933;stroke-width:1.8382722;stroke-linecap:round;stroke-linejoin:round;stroke-miterlimit:4.0000000;stroke-opacity:1.0000000;"
     sodipodi:nodetypes="ccccccccccccccccccccccccccccccccccccccccccccccccc"
     transform="matrix(0.990600,0.000000,0.000000,0.990600,0.690322,0.893205)" />
</svg>
