<?xml version="1.0" encoding="UTF-8" standalone="no"?>
<!DOCTYPE svg PUBLIC "-//W3C//DTD SVG 20010904//EN"
"http://www.w3.org/TR/2001/REC-SVG-20010904/DTD/svg10.dtd">
<!-- Created with Inkscape (http://www.inkscape.org/) -->
<svg
   width="48pt"
   height="48pt"
   id="svg1061"
   sodipodi:version="0.32"
   inkscape:version="0.40"
   sodipodi:docbase="/home/stefan/software/Lila-themes/new-lila-icons/apps"
   sodipodi:docname="xfce4-logo.svg"
   xmlns="http://www.w3.org/2000/svg"
   xmlns:cc="http://web.resource.org/cc/"
   xmlns:inkscape="http://www.inkscape.org/namespaces/inkscape"
   xmlns:sodipodi="http://sodipodi.sourceforge.net/DTD/sodipodi-0.dtd"
   xmlns:rdf="http://www.w3.org/1999/02/22-rdf-syntax-ns#"
   xmlns:dc="http://purl.org/dc/elements/1.1/"
   xmlns:xlink="http://www.w3.org/1999/xlink">
  <defs
     id="defs3">
    <linearGradient
       id="linearGradient1738">
      <stop
         offset="0.0000000"
         style="stop-color:#a673f3;stop-opacity:1.0000000;"
         id="stop1740" />
      <stop
         offset="1.0000000"
         style="stop-color:#4c3f8c;stop-opacity:1.0000000;"
         id="stop1739" />
    </linearGradient>
    <linearGradient
       x1="0.978904"
       y1="0.968750"
       x2="0.008439"
       y2="0.023437"
       id="linearGradient899"
       xlink:href="#linearGradient642" />
    <defs
       id="defs839">
      <linearGradient
         id="linearGradient983">
        <stop
           style="stop-color:#2ad700;stop-opacity:1;"
           offset="0"
           id="stop984" />
        <stop
           style="stop-color:#e5ffe5;stop-opacity:1;"
           offset="1"
           id="stop985" />
      </linearGradient>
      <linearGradient
         id="linearGradient843">
        <stop
           style="stop-color:#ffffff;stop-opacity:1;"
           offset="0"
           id="stop844" />
        <stop
           style="stop-color:#ffffff;stop-opacity:0;"
           offset="1"
           id="stop845" />
      </linearGradient>
      <linearGradient
         id="linearGradient846"
         x1="0.0000000"
         y1="0.50000000"
         x2="1.0000000"
         y2="0.50000000"
         gradientUnits="objectBoundingBox"
         spreadMethod="pad"
         xlink:href="#linearGradient1738" />
      <linearGradient
         id="linearGradient849">
        <stop
           style="stop-color:#ffffff;stop-opacity:1;"
           offset="0"
           id="stop850" />
        <stop
           style="stop-color:#ffffff;stop-opacity:0;"
           offset="1"
           id="stop851" />
      </linearGradient>
      <linearGradient
         x1="0.000000"
         y1="0.000000"
         x2="1.000000"
         y2="0.000000"
         id="linearGradient852"
         xlink:href="#linearGradient923"
         gradientUnits="objectBoundingBox"
         spreadMethod="pad" />
      <linearGradient
         x1="0.015504"
         y1="0.015625"
         x2="1.015504"
         y2="0.984375"
         id="linearGradient855"
         xlink:href="#linearGradient635" />
      <linearGradient
         x1="-0.006803"
         y1="0.023438"
         x2="0.986395"
         y2="0.992188"
         id="linearGradient856"
         xlink:href="#linearGradient642" />
      <linearGradient
         x1="-0.000000"
         y1="0.000000"
         x2="1.000000"
         y2="0.000000"
         id="linearGradient857"
         xlink:href="#linearGradient642" />
      <linearGradient
         x1="0.010309"
         y1="0.023436"
         x2="1.000000"
         y2="0.992188"
         id="linearGradient858"
         xlink:href="#linearGradient642" />
      <linearGradient
         id="linearGradient859"
         xlink:href="#linearGradient1535" />
      <linearGradient
         x1="0.014564"
         y1="-0.000001"
         x2="0.989091"
         y2="1.000000"
         id="linearGradient860"
         xlink:href="#linearGradient1535" />
      <linearGradient
         x1="0.003631"
         y1="0.000003"
         x2="1.003636"
         y2="1.041666"
         id="linearGradient861"
         xlink:href="#linearGradient1535" />
      <linearGradient
         x1="0.003633"
         y1="0.008073"
         x2="0.996364"
         y2="0.975806"
         id="linearGradient862"
         xlink:href="#linearGradient1535" />
    </defs>
    <linearGradient
       x1="0.950420"
       y1="0.945312"
       x2="0.024794"
       y2="0.015625"
       id="linearGradient1044"
       xlink:href="#linearGradient1535" />
    <linearGradient
       x1="0.973546"
       y1="0.953124"
       x2="0.005291"
       y2="-0.015625"
       id="linearGradient1042"
       xlink:href="#linearGradient1535" />
    <linearGradient
       x1="16.539005"
       y1="16.847510"
       x2="26.711875"
       y2="26.670341"
       id="linearGradient1567"
       xlink:href="#linearGradient1535"
       gradientTransform="scale(1.570885,0.636584)"
       gradientUnits="userSpaceOnUse" />
    <linearGradient
       x1="14.578597"
       y1="37.898814"
       x2="18.661955"
       y2="41.991643"
       id="linearGradient1539"
       xlink:href="#linearGradient1535"
       gradientTransform="scale(1.526671,0.655020)"
       gradientUnits="userSpaceOnUse" />
    <linearGradient
       x1="11.082776"
       y1="60.489706"
       x2="19.306320"
       y2="68.618916"
       id="linearGradient1534"
       xlink:href="#linearGradient642"
       gradientTransform="scale(1.473889,0.678477)"
       gradientUnits="userSpaceOnUse" />
    <linearGradient
       x1="9.1640074"
       y1="7.6621731"
       x2="31.414017"
       y2="29.793094"
       id="linearGradient1532"
       xlink:href="#linearGradient1535"
       gradientTransform="scale(1.467927,0.681233)"
       gradientUnits="userSpaceOnUse" />
    <linearGradient
       x1="16.879886"
       y1="12.164606"
       x2="33.519533"
       y2="28.304611"
       id="linearGradient1527"
       xlink:href="#linearGradient1528"
       gradientTransform="scale(1.327778,0.753138)"
       gradientUnits="userSpaceOnUse" />
    <linearGradient
       x1="21.859951"
       y1="23.407687"
       x2="34.605811"
       y2="36.131417"
       id="linearGradient1522"
       xlink:href="#linearGradient1528"
       gradientTransform="scale(0.967689,1.033390)"
       gradientUnits="userSpaceOnUse" />
    <linearGradient
       x1="11.626931"
       y1="47.879241"
       x2="26.721321"
       y2="62.170475"
       id="linearGradient641"
       xlink:href="#linearGradient1528"
       gradientTransform="scale(1.194392,0.837246)"
       gradientUnits="userSpaceOnUse" />
    <linearGradient
       x1="0.87692308"
       y1="0.91406256"
       x2="0.00000000"
       y2="0.00781250"
       id="linearGradient638"
       xlink:href="#linearGradient923" />
    <linearGradient
       id="linearGradient635">
      <stop
         style="stop-color:#ffffff;stop-opacity:1.0000000;"
         offset="0.0000000"
         id="stop636" />
      <stop
         style="stop-color:#d9cce6;stop-opacity:1.0000000;"
         offset="1.0000000"
         id="stop637" />
    </linearGradient>
    <linearGradient
       id="linearGradient642">
      <stop
         style="stop-color:#ffffff;stop-opacity:1;"
         offset="0"
         id="stop643" />
      <stop
         style="stop-color:#ffffff;stop-opacity:0;"
         offset="1"
         id="stop644" />
    </linearGradient>
    <linearGradient
       id="linearGradient1528">
      <stop
         style="stop-color:#d9cce6;stop-opacity:1;"
         offset="0.00000000"
         id="stop1530" />
      <stop
         style="stop-color:#73667f;stop-opacity:1;"
         offset="1.00000000"
         id="stop1529" />
    </linearGradient>
    <linearGradient
       id="linearGradient1535">
      <stop
         style="stop-color:#ffffff;stop-opacity:1;"
         offset="0"
         id="stop1537" />
      <stop
         style="stop-color:#ffffff;stop-opacity:0;"
         offset="1"
         id="stop1536" />
    </linearGradient>
    <linearGradient
       id="linearGradient923">
      <stop
         style="stop-color:#d9cce6;stop-opacity:1;"
         offset="0.00000000"
         id="stop925" />
      <stop
         style="stop-color:#f3e6ff;stop-opacity:1;"
         offset="1.00000000"
         id="stop924" />
    </linearGradient>
    <linearGradient
       inkscape:collect="always"
       xlink:href="#linearGradient1528"
       id="linearGradient4279"
       gradientTransform="matrix(1.295447,0.000000,0.000000,0.682404,0.947436,-1.375387)"
       x1="-0.43160963"
       y1="18.962606"
       x2="43.538681"
       y2="64.070404"
       gradientUnits="userSpaceOnUse" />
    <linearGradient
       inkscape:collect="always"
       xlink:href="#linearGradient635"
       id="linearGradient1737"
       gradientUnits="userSpaceOnUse"
       gradientTransform="matrix(1.295447,0.000000,0.000000,0.682404,-37.92055,0.195486)"
       x1="62.744781"
       y1="29.903538"
       x2="66.546616"
       y2="37.299068" />
    <linearGradient
       inkscape:collect="always"
       xlink:href="#linearGradient635"
       id="linearGradient1742"
       gradientUnits="userSpaceOnUse"
       gradientTransform="matrix(1.295447,0.000000,0.000000,0.682404,-20.89034,-3.111615)"
       x1="51.308346"
       y1="41.828663"
       x2="55.511063"
       y2="49.427254" />
    <linearGradient
       inkscape:collect="always"
       xlink:href="#linearGradient1535"
       id="linearGradient2991"
       gradientTransform="matrix(1.302006,0.000000,0.000000,0.678965,0.947436,-1.375387)"
       x1="13.727962"
       y1="36.868343"
       x2="24.198307"
       y2="47.310738"
       gradientUnits="userSpaceOnUse" />
    <linearGradient
       inkscape:collect="always"
       xlink:href="#linearGradient1535"
       id="linearGradient2997"
       gradientTransform="matrix(0.523934,0.000000,0.000000,1.687269,0.947436,-1.375387)"
       x1="79.668472"
       y1="9.5031128"
       x2="81.436897"
       y2="11.285252"
       gradientUnits="userSpaceOnUse" />
    <linearGradient
       inkscape:collect="always"
       xlink:href="#linearGradient1535"
       id="linearGradient3001"
       gradientTransform="matrix(0.461247,0.000000,0.000000,1.916578,0.947436,-1.375387)"
       x1="80.319077"
       y1="9.1933622"
       x2="82.066483"
       y2="11.008551"
       gradientUnits="userSpaceOnUse" />
  </defs>
  <sodipodi:namedview
     id="base"
     pagecolor="#ffffff"
     bordercolor="#666666"
     borderopacity="1.0"
     inkscape:pageopacity="0.0"
     inkscape:pageshadow="2"
     inkscape:zoom="10.125000"
     inkscape:cx="24.330015"
     inkscape:cy="31.436680"
     inkscape:current-layer="svg1061"
     showgrid="false"
     inkscape:grid-bbox="false"
     gridspacingy="1.0000000pt"
     gridspacingx="1.0000000pt"
     gridoriginy="0.0000000pt"
     gridoriginx="0.0000000pt"
     inkscape:window-width="1053"
     inkscape:window-height="837"
     inkscape:window-x="64"
     inkscape:window-y="0" />
  <metadata
     id="metadata4">
    <rdf:RDF
       id="RDF5">
      <cc:Work
         rdf:about=""
         id="Work6">
        <dc:format
           id="format7">image/svg+xml</dc:format>
        <dc:type
           id="type9"
           rdf:resource="http://purl.org/dc/dcmitype/StillImage" />
      </cc:Work>
    </rdf:RDF>
  </metadata>
  <path
     d="M 19.905002,44.037013 C 19.594486,42.740902 21.348055,40.894965 20.486018,39.998089 C 19.423690,40.689828 16.561427,41.248705 18.207620,39.213411 C 19.708298,38.023457 20.178819,36.411583 19.720129,34.554672 C 19.628850,31.997904 20.286963,29.419993 21.695407,27.289035 C 21.535654,25.483922 19.195636,24.546858 17.963921,23.364154 C 14.725241,20.878231 10.998328,19.218014 7.3141295,17.548429 C 6.1474225,16.867796 3.6365338,15.925657 3.4246836,15.045235 C 6.3143815,16.379373 9.2296395,17.668797 12.287519,18.560095 C 16.265726,20.025098 19.699046,22.671012 22.765332,25.575787 C 24.467389,25.127358 26.422050,24.060232 28.389095,24.739854 C 31.462437,25.158186 34.430929,26.544767 37.603967,25.592850 C 39.341723,24.533212 40.075833,22.374500 39.316413,20.449134 C 38.531093,18.219739 41.528695,16.628187 42.276751,19.192541 C 42.829234,19.923185 43.606775,23.011500 44.432405,21.535359 C 44.130604,19.898041 43.249623,17.796267 44.482835,16.390165 C 46.342113,15.154757 47.391976,17.786704 47.350857,19.300831 C 47.332573,20.693478 47.200806,22.112664 49.075376,22.109969 C 52.146657,22.407416 55.628344,23.127303 57.883326,25.561920 C 59.065260,26.725900 58.704261,28.623769 57.329956,29.452206 C 54.934070,31.483091 51.923767,32.507687 49.247346,34.072545 C 47.929921,35.565743 49.918027,36.945085 50.745392,38.053280 C 51.995320,39.009856 51.636777,40.807800 49.966543,39.768994 C 48.937641,39.735436 46.811121,38.090495 46.325311,39.246879 C 46.940049,40.565240 49.510204,41.970967 48.168362,43.488555 C 45.662129,43.053617 43.477976,41.527618 41.051165,40.830226 C 35.816747,41.504382 30.387126,41.768628 25.235024,40.375542 C 23.693768,41.017447 22.624583,42.544059 21.249979,43.506789 C 20.903060,43.701160 20.275222,44.585778 19.905002,44.037013 z M 56.853730,23.204233 C 57.176789,22.244250 58.197709,20.048792 58.797538,20.112406 C 58.286244,20.961423 57.581705,23.242062 56.853730,23.204233 z M 55.758673,22.242265 C 55.753103,21.598933 56.393558,18.207863 56.315620,20.475665 C 56.393945,20.870962 55.742457,24.276276 55.758673,22.242265 z "
     id="path1124"
     style="opacity:0.30303028;fill:#000000;fill-opacity:1.0000000;stroke:none;stroke-width:1.7629158;stroke-linecap:round;stroke-linejoin:round;stroke-miterlimit:4.0000000;stroke-opacity:1.0000000"
     sodipodi:nodetypes="ccccccccccccccccccccccccccccccccccc" />
  <g
     id="layer1"
     inkscape:label="Layer 1"
     inkscape:groupmode="layer" />
  <path
     d="M 17.743702,41.444420 C 17.433186,40.148309 19.186755,38.302372 18.324718,37.405496 C 17.262390,38.097235 14.400127,38.656112 16.046320,36.620818 C 17.546998,35.430864 18.017519,33.818990 17.558829,31.962079 C 17.467550,29.405311 18.125663,26.827400 19.534107,24.696442 C 19.374354,22.891329 17.034336,21.954265 15.802621,20.771561 C 12.563941,18.285638 8.8370275,16.625421 5.1528287,14.955836 C 3.9861220,14.275203 1.4752332,13.333064 1.2633830,12.452642 C 4.1530811,13.786780 7.0683393,15.076204 10.126219,15.967502 C 14.104426,17.432505 17.537746,20.078419 20.604032,22.983194 C 22.306089,22.534765 24.260750,21.467639 26.227795,22.147261 C 29.301137,22.565593 32.269629,23.952174 35.442667,23.000257 C 37.180423,21.940619 37.914533,19.781907 37.155113,17.856541 C 36.369793,15.627146 39.367395,14.035594 40.115451,16.599948 C 40.667934,17.330592 41.445475,20.418907 42.271105,18.942766 C 41.969304,17.305448 41.088323,15.203674 42.321535,13.797572 C 44.180813,12.562164 45.230676,15.194111 45.189557,16.708238 C 45.171273,18.100885 45.039506,19.520071 46.914076,19.517376 C 49.985357,19.814823 53.467044,20.534710 55.722026,22.969327 C 56.903960,24.133307 56.542961,26.031176 55.168656,26.859613 C 52.772770,28.890498 49.762467,29.915094 47.086046,31.479952 C 45.768621,32.973150 47.756727,34.352492 48.584092,35.460687 C 49.834020,36.417263 49.475477,38.215207 47.805243,37.176401 C 46.776341,37.142843 44.649821,35.497902 44.164011,36.654286 C 44.778749,37.972647 47.348904,39.378374 46.007062,40.895962 C 43.500829,40.461024 41.316676,38.935025 38.889865,38.237633 C 33.655447,38.911789 28.225826,39.176035 23.073724,37.782949 C 21.532468,38.424854 20.463283,39.951466 19.088679,40.914196 C 18.741760,41.108567 18.113922,41.993185 17.743702,41.444420 z M 54.692430,20.611640 C 55.015489,19.651657 56.036409,17.456199 56.636238,17.519813 C 56.124944,18.368830 55.420405,20.649469 54.692430,20.611640 z M 53.597373,19.649672 C 53.591803,19.006340 54.232258,15.615270 54.154320,17.883072 C 54.232645,18.278369 53.581157,21.683683 53.597373,19.649672 z "
     id="path3020"
     style="fill:url(#linearGradient4279);fill-opacity:1.0000000;stroke:#261933;stroke-width:1.7629158;stroke-linecap:round;stroke-linejoin:round;stroke-miterlimit:4.0000000;stroke-opacity:1.0000000"
     sodipodi:nodetypes="ccccccccccccccccccccccccccccccccccc" />
  <path
     d="M 46.470631,24.579013 C 47.750793,23.683168 44.513788,23.999431 44.704147,22.601371 C 43.591364,21.629546 44.515184,24.918232 45.652247,24.703104 C 45.928468,24.810041 46.216823,24.676263 46.470631,24.579013 z M 47.047619,23.165260 C 48.759798,21.058125 44.318508,20.778621 45.902699,23.115663 C 46.210062,23.404612 46.712910,23.412041 47.047619,23.165260 z "
     id="path1113"
     style="fill:url(#linearGradient1737);fill-opacity:1.0000000;stroke:#261933;stroke-width:0.58763862;stroke-linecap:round;stroke-linejoin:round;stroke-miterlimit:4.0000000;stroke-opacity:1.0000000"
     sodipodi:nodetypes="ccccccc" />
  <path
     d="M 48.295055,29.607808 C 49.059333,29.388585 51.319836,27.219542 49.618878,27.446102 C 49.219282,27.556627 46.560019,30.405487 48.295055,29.607808 z M 47.277204,27.746558 C 48.076140,27.640267 51.151019,26.069730 48.902815,26.307272 C 48.300699,26.656074 45.932329,27.358140 46.555529,27.981466 C 46.801986,27.922508 47.037276,27.826653 47.277204,27.746558 z "
     id="path1741"
     style="fill:url(#linearGradient1742);fill-opacity:1.0000000;stroke:#261933;stroke-width:0.58763862;stroke-linecap:round;stroke-linejoin:round;stroke-miterlimit:4.0000000;stroke-opacity:1.0000000"
     sodipodi:nodetypes="ccccccc" />
  <path
     style="fill:url(#linearGradient2991);fill-opacity:1.0000000;fill-rule:evenodd;stroke:none;stroke-width:0.25000000pt;stroke-linecap:butt;stroke-linejoin:miter;stroke-opacity:1.0000000"
     d="M 18.792483,30.356858 C 18.357738,30.015352 19.794362,24.580070 21.440721,23.825341 C 22.871939,23.169238 24.622158,22.789811 28.795883,23.711840 C 34.650608,25.005223 36.049575,23.875978 36.230109,24.114711 C 37.295722,25.523858 26.002697,24.784125 23.314858,26.016293 C 21.493904,26.851061 19.199741,30.676771 18.792483,30.356858 z "
     id="path2987"
     sodipodi:nodetypes="csssss" />
  <path
     style="fill:url(#linearGradient3001);fill-opacity:1.0000000;fill-rule:evenodd;stroke:none;stroke-width:0.25000000pt;stroke-linecap:butt;stroke-linejoin:miter;stroke-opacity:1.0000000"
     d="M 38.307957,18.637331 C 38.246844,18.506425 37.927698,17.493625 38.002391,16.901104 C 38.077085,16.308582 38.735750,16.170788 38.837605,16.219016 C 38.939460,16.267244 38.790072,16.597954 38.491297,17.138803 C 38.194924,17.675300 38.365160,18.759861 38.307957,18.637331 z "
     id="path2992"
     sodipodi:nodetypes="czzzz" />
  <path
     style="fill:url(#linearGradient2997);fill-opacity:1.0000000;fill-rule:evenodd;stroke:none;stroke-width:0.25000000pt;stroke-linecap:butt;stroke-linejoin:miter;stroke-opacity:1.0000000"
     d="M 42.952558,17.665871 C 42.877865,17.610753 42.467049,15.750510 42.667364,15.061531 C 42.870444,14.363041 43.305657,14.396668 43.380351,14.451786 C 43.455044,14.506904 43.224172,14.806610 43.115526,15.309565 C 43.006882,15.812519 43.027252,17.720989 42.952558,17.665871 z "
     id="path2993"
     sodipodi:nodetypes="czzzz" />
</svg>
