<?xml version="1.0" encoding="UTF-8" standalone="no"?>
<!-- Created with Inkscape (http://www.inkscape.org/) -->
<svg
   xmlns:dc="http://purl.org/dc/elements/1.1/"
   xmlns:cc="http://web.resource.org/cc/"
   xmlns:rdf="http://www.w3.org/1999/02/22-rdf-syntax-ns#"
   xmlns:svg="http://www.w3.org/2000/svg"
   xmlns="http://www.w3.org/2000/svg"
   xmlns:xlink="http://www.w3.org/1999/xlink"
   xmlns:sodipodi="http://inkscape.sourceforge.net/DTD/sodipodi-0.dtd"
   xmlns:inkscape="http://www.inkscape.org/namespaces/inkscape"
   id="svg1"
   sodipodi:version="0.32"
   inkscape:version="0.42"
   width="48pt"
   height="48pt"
   sodipodi:docbase="/home/andrew/lila/trunk/lila/gnome/scalable/apps"
   sodipodi:docname="xfce4-appfinder.svg">
  <defs
     id="defs3">
    <linearGradient
       id="linearGradient5050">
      <stop
         style="stop-color:#ffffff;stop-opacity:1;"
         offset="0.00000000"
         id="stop5052" />
      <stop
         style="stop-color:#d9cce6;stop-opacity:1;"
         offset="1.00000000"
         id="stop5054" />
    </linearGradient>
    <linearGradient
       id="linearGradient584">
      <stop
         style="stop-color:#ffffff;stop-opacity:1;"
         offset="0.00000000"
         id="stop585" />
      <stop
         style="stop-color:#ffffff;stop-opacity:0;"
         offset="1.00000000"
         id="stop586" />
    </linearGradient>
    <linearGradient
       id="linearGradient578">
      <stop
         style="stop-color:#d9cce6;stop-opacity:1;"
         offset="0.00000000"
         id="stop579" />
      <stop
         style="stop-color:#73667f;stop-opacity:1;"
         offset="1.00000000"
         id="stop580" />
    </linearGradient>
    <linearGradient
       xlink:href="#linearGradient578"
       id="linearGradient581"
       x1="0.00000000"
       y1="-0.00000000"
       x2="0.99242425"
       y2="1.02343750" />
    <linearGradient
       xlink:href="#linearGradient584"
       id="linearGradient583"
       x1="0.00000000"
       y1="0.00000000"
       x2="0.98148149"
       y2="0.97656250" />
    <linearGradient
       xlink:href="#linearGradient584"
       id="linearGradient599"
       x1="-0.00000000"
       y1="-0.00000000"
       x2="1.00000000"
       y2="0.99218750" />
    <linearGradient
       xlink:href="#linearGradient584"
       id="linearGradient600"
       x1="-0.00000000"
       y1="0.00000000"
       x2="0.98540145"
       y2="0.96610171" />
    <linearGradient
       xlink:href="#linearGradient584"
       id="linearGradient841"
       x1="0.01162791"
       y1="0.03125000"
       x2="0.98255813"
       y2="0.97656250" />
    <linearGradient
       xlink:href="#linearGradient584"
       id="linearGradient842"
       x1="-0.00000000"
       y1="0.00000000"
       x2="0.99206346"
       y2="0.99218750" />
    <linearGradient
       xlink:href="#linearGradient584"
       id="linearGradient845"
       x1="-0.00000000"
       y1="-0.00000000"
       x2="1.00862074"
       y2="1.00781250" />
    <linearGradient
       y2="35.759022"
       x2="55.113964"
       y1="35.759022"
       x1="33.138542"
       id="linearGradient797"
       xlink:href="#linearGradient5050"
       gradientTransform="scale(1.042794,0.958962)"
       gradientUnits="userSpaceOnUse" />
    <linearGradient
       y2="15.086396"
       x2="41.629082"
       y1="15.086396"
       x1="14.187529"
       id="linearGradient869"
       xlink:href="#linearGradient5050"
       gradientTransform="scale(1.000002,0.999998)"
       gradientUnits="userSpaceOnUse" />
    <linearGradient
       y2="443.81111"
       x2="483.37094"
       y1="213.76222"
       x1="262.03605"
       id="linearGradient862"
       xlink:href="#linearGradient584"
       gradientUnits="userSpaceOnUse" />
    <linearGradient
       y2="42.159824"
       x2="36.861077"
       y1="39.585375"
       x1="34.200329"
       id="linearGradient861"
       xlink:href="#linearGradient584"
       gradientTransform="scale(1.067787,0.936516)"
       gradientUnits="userSpaceOnUse" />
    <linearGradient
       y2="31.595740"
       x2="32.191278"
       y1="17.216223"
       x1="17.987703"
       id="linearGradient860"
       xlink:href="#linearGradient584"
       gradientTransform="scale(0.951948,1.050478)"
       gradientUnits="userSpaceOnUse" />
    <linearGradient
       y2="0.96907216"
       x2="1.01459849"
       y1="0.01030928"
       x1="0.01094890"
       id="linearGradient1838"
       xlink:href="#linearGradient584" />
    <linearGradient
       y2="1.00000000"
       x2="0.97945207"
       y1="0.00775194"
       x1="-0.00684932"
       id="linearGradient1836"
       xlink:href="#linearGradient866" />
    <linearGradient
       id="linearGradient1830">
      <stop
         id="stop1832"
         offset="0.00000000"
         style="stop-color:#d9cce6;stop-opacity:1;" />
      <stop
         id="stop1834"
         offset="1.00000000"
         style="stop-color:#73667f;stop-opacity:1;" />
    </linearGradient>
    <linearGradient
       id="linearGradient1824">
      <stop
         id="stop1826"
         offset="0.00000000"
         style="stop-color:#ffffff;stop-opacity:1;" />
      <stop
         id="stop1828"
         offset="1.00000000"
         style="stop-color:#ffffff;stop-opacity:0;" />
    </linearGradient>
    <linearGradient
       id="linearGradient866">
      <stop
         id="stop867"
         offset="0.00000000"
         style="stop-color:#ffffff;stop-opacity:1;" />
      <stop
         id="stop868"
         offset="1.00000000"
         style="stop-color:#d9cce6;stop-opacity:1;" />
    </linearGradient>
    <linearGradient
       inkscape:collect="always"
       xlink:href="#linearGradient578"
       id="linearGradient1857"
       x1="2.9399500"
       y1="0.70206550"
       x2="56.484815"
       y2="55.920208"
       gradientTransform="scale(0.942172,1.061378)"
       gradientUnits="userSpaceOnUse" />
    <linearGradient
       inkscape:collect="always"
       xlink:href="#linearGradient584"
       id="linearGradient1859"
       x1="5.8090828"
       y1="3.6491772"
       x2="45.505079"
       y2="43.146225"
       gradientTransform="scale(0.999606,1.000395)"
       gradientUnits="userSpaceOnUse" />
  </defs>
  <sodipodi:namedview
     id="base"
     pagecolor="#ffffff"
     bordercolor="#666666"
     borderopacity="1.0"
     inkscape:pageopacity="0.0"
     inkscape:pageshadow="2"
     inkscape:zoom="8.7000000"
     inkscape:cx="30.000000"
     inkscape:cy="30.000000"
     inkscape:window-width="1022"
     inkscape:window-height="695"
     inkscape:window-x="0"
     inkscape:window-y="26"
     inkscape:current-layer="g1845" />
  <path
     d="M 59.205498,32.871018 C 59.344386,40.140015 53.011312,35.188862 49.827430,40.578900 C 46.730871,45.959693 55.909936,48.183994 50.974440,53.202901 C 45.901823,58.499583 44.921626,49.489092 39.459742,50.530466 C 33.395011,51.808535 39.159207,59.492763 32.029097,59.492763 C 25.730698,59.354236 30.892228,53.876347 25.014401,50.946770 C 18.994481,47.876704 17.864370,56.157200 13.083756,51.538944 C 7.8148159,46.439480 17.986540,45.748432 14.923943,40.717786 C 11.874508,35.618677 5.4071734,40.833020 5.1299319,33.425672 C 4.9912254,26.295386 12.425782,31.954124 14.785417,26.410974 C 17.067157,20.915658 8.9390623,18.321997 13.638227,14.480330 C 18.971542,10.278021 20.444331,19.212751 25.153103,17.152589 C 29.747355,15.220460 24.898810,6.8039265 32.029097,6.5265083 C 39.713860,6.3878029 34.029686,13.884953 38.905264,16.597933 C 43.704372,19.191234 47.144324,11.271024 51.251858,15.034804 C 55.498970,18.938362 47.911131,20.594319 49.272775,25.440373 C 50.705376,30.677656 58.650847,25.740908 59.205498,32.871018 z M 43.718598,34.232845 C 43.718598,41.863544 40.783864,44.979846 33.152453,44.979846 C 25.521747,44.979846 21.319616,41.682515 21.319616,34.051813 C 21.159388,27.221889 25.779789,22.942746 32.609355,22.942746 C 40.240772,22.942746 43.718598,26.601786 43.718598,34.232845 z "
     style="font-size:12.000000;opacity:0.30267498;fill:#000000;fill-opacity:1.0000000;fill-rule:evenodd;stroke:none;stroke-width:2.1217699;"
     id="path843"
     sodipodi:nodetypes="cccccccccccccccccccccc" />
  <path
     d="M 26.086144,42.915686 C 31.206231,44.044183 37.009503,44.354612 41.139813,39.343551 C 43.868701,36.139995 43.360699,26.867546 40.764802,22.613621 C 43.336567,25.231742 47.438233,36.576294 42.499224,40.980739 C 36.540046,46.406224 29.540045,45.210534 26.086144,42.915686 z "
     style="font-size:12.000000;opacity:0.69993597;fill-rule:evenodd;stroke:#ffffff;stroke-width:0.17361506pt;"
     id="path1580" />
  <path
     d="M 56.481688,30.137244 C 56.617285,37.233949 50.434318,32.400149 47.325903,37.662431 C 44.302740,42.915686 53.264238,45.087266 48.445725,49.987213 C 43.493342,55.158350 42.536377,46.361430 37.203953,47.378122 C 31.282971,48.625897 36.910542,56.127990 29.949432,56.127990 C 23.800320,55.992746 28.839509,50.644696 23.101002,47.784557 C 17.223767,44.787260 16.120443,52.871488 11.453141,48.362696 C 6.3090868,43.384101 16.239717,42.709432 13.249711,37.798026 C 10.272555,32.819778 3.9585110,37.910527 3.6878409,30.678751 C 3.5524220,23.717470 10.810762,29.242083 13.114468,23.830318 C 15.342125,18.465255 7.4066858,15.933069 11.994470,12.182459 C 17.201373,8.0797539 18.639253,16.802710 23.236416,14.791378 C 27.721773,12.905047 22.988150,4.6880042 29.949432,4.4171615 C 37.452048,4.2817438 31.902602,11.601194 36.662618,14.249870 C 41.347975,16.781704 44.706393,9.0492207 48.716568,12.723791 C 52.863013,16.534825 45.455024,18.151531 46.784394,22.882723 C 48.183039,27.995870 55.940183,23.176135 56.481688,30.137244 z M 41.361865,31.466792 C 41.361865,38.115489 37.535327,41.638610 31.046162,41.959064 C 24.237231,41.959064 19.333564,38.098978 19.493791,31.290051 C 19.493791,24.641002 23.066100,20.444295 30.515936,20.444295 C 37.325562,20.284068 41.201638,24.817745 41.361865,31.466792 z "
     style="font-size:12.000000;fill:url(#linearGradient581);fill-rule:evenodd;stroke:#261933;stroke-width:2.1701958;"
     id="path1579"
     sodipodi:nodetypes="cccccccccccccccccccccc" />
  <path
     d="M 5.7788700,33.058321 C 5.5965726,32.799463 4.8578401,29.890015 5.6470919,29.259443 C 7.0986924,28.099694 12.342920,27.462002 12.501428,27.687358 C 12.650392,27.898647 8.1730224,29.288439 6.5698614,30.569200 C 5.9321700,31.078760 5.9042195,33.236104 5.7788700,33.058321 z "
     style="font-size:12.000000;opacity:0.99000001;fill:url(#linearGradient841);fill-rule:evenodd;stroke:none;stroke-width:1.0515400pt;"
     id="path1581" />
  <path
     d="M 11.876761,15.185485 C 11.876761,14.917595 13.724550,12.611639 14.729261,12.564761 C 15.807414,12.514587 18.125006,14.634084 18.125006,14.894159 C 18.125006,15.119509 15.840749,13.968963 14.729261,14.020698 C 13.757885,14.066015 11.876761,15.403025 11.876761,15.185485 z "
     style="font-size:12.000000;opacity:0.99000001;fill:url(#linearGradient600);fill-rule:evenodd;stroke:none;stroke-width:1.1253500pt;"
     id="path1582" />
  <path
     d="M 26.874874,13.063382 C 26.751611,12.751745 26.755428,8.1952068 27.790003,7.0038594 C 28.629084,6.0376883 32.384387,6.3087049 32.495849,6.5906526 C 32.602272,6.8595844 29.383965,7.5733180 28.443667,8.6563302 C 27.510307,9.7310092 26.969496,13.302453 26.874874,13.063382 z "
     style="font-size:12.000000;opacity:0.99000001;fill:url(#linearGradient583);fill-rule:evenodd;stroke:none;stroke-width:1.0736800pt;"
     id="path1583" />
  <path
     d="M 40.871059,16.508954 C 41.574719,15.704944 45.554677,13.189430 45.989062,13.189430 C 46.292374,13.189430 44.193012,15.790015 43.084309,16.508954 C 42.486892,16.896463 40.606467,16.811394 40.871059,16.508954 z "
     style="font-size:12.000000;opacity:0.99000001;fill:url(#linearGradient599);fill-rule:evenodd;stroke:none;stroke-width:1.1833400pt;"
     id="path1584" />
  <path
     d="M 11.752282,45.924961 C 11.959228,45.353244 15.259657,41.925211 15.989887,41.557145 C 16.342669,41.379190 15.636054,43.632545 15.000968,44.287073 C 14.223521,45.088481 11.629704,46.263165 11.752282,45.924961 z "
     style="font-size:12.000000;opacity:0.99000001;fill:url(#linearGradient842);fill-rule:evenodd;stroke:none;stroke-width:1.1111300pt;"
     id="path1585" />
  <path
     style="fill:url(#linearGradient845);fill-opacity:1.0000000;fill-rule:evenodd;stroke:none;stroke-width:1.0000000pt;stroke-linecap:butt;stroke-linejoin:miter;stroke-opacity:1.0000000;"
     d="M 29.582688,44.309302 C 29.234632,43.861801 37.609394,44.333482 40.798599,39.342256 C 44.598756,33.497586 42.863925,27.691666 43.202009,28.126345 C 43.611653,28.653029 44.804509,37.928216 42.400872,40.784301 C 40.264735,43.322534 29.982360,44.823165 29.582688,44.309302 z "
     id="path844"
     sodipodi:nodetypes="cssss" />
  <metadata
     id="metadata26">
    <rdf:RDF>
      <cc:Work
         rdf:about="">
        <dc:format>image/svg+xml</dc:format>
        <dc:type
           rdf:resource="http://purl.org/dc/dcmitype/StillImage" />
      </cc:Work>
    </rdf:RDF>
  </metadata>
  <g
     id="g1845"
     transform="translate(-4.157369,-1.117476)">
    <path
       id="path1566"
       style="font-size:12.000000px;opacity:0.29999998;fill-rule:evenodd;stroke-width:13.490400"
       d="M 41.751660,30.399776 C 41.751660,37.259736 36.184126,42.827270 29.324167,42.827270 C 22.464108,42.827270 16.896572,37.259736 16.896572,30.399776 C 16.896572,23.539817 22.464108,17.972282 29.324167,17.972282 C 36.184126,17.972282 41.751660,23.539817 41.751660,30.399776 z M 38.672266,30.399776 C 38.672266,35.438528 34.484253,39.527935 29.324167,39.527935 C 24.163980,39.527935 19.976066,35.438528 19.976066,30.399776 C 19.976066,25.361023 24.163980,21.271517 29.324167,21.271517 C 34.484253,21.271517 38.672266,25.361023 38.672266,30.399776 z " />
    <path
       sodipodi:nodetypes="cccccccccs"
       id="path1525"
       style="font-size:12.000000px;fill:url(#linearGradient869);fill-rule:evenodd;stroke:#261933;stroke-width:1.8770700;fill-opacity:1.0"
       d="M 40.690622,28.807121 C 40.690622,35.667080 34.768366,41.589337 27.908405,41.589337 C 21.048347,41.589337 15.126090,35.667080 15.126090,28.807121 C 15.126090,21.947162 21.048347,16.024904 27.908405,16.024904 C 34.768366,16.024904 40.690622,21.947162 40.690622,28.807121 z M 36.547065,28.807121 C 36.547065,33.845874 33.068492,37.225837 27.908405,37.225837 C 22.748221,37.225837 19.269749,33.845874 19.269749,28.807121 C 19.269749,23.768368 22.748221,20.388305 27.908405,20.388305 C 33.068492,20.388305 36.547065,23.768368 36.547065,28.807121 z " />
    <path
       sodipodi:nodetypes="ccsccccc"
       id="path1565"
       style="font-size:12.000000px;opacity:0.29999998;fill-rule:evenodd;stroke-width:13.490400"
       d="M 36.487410,40.225791 C 36.234448,39.728313 38.294435,37.456424 38.791693,37.717174 C 40.572628,38.650370 42.180232,41.396543 44.200316,42.803946 C 48.333589,45.683620 54.156444,47.401796 57.251980,50.578848 C 58.246387,51.599362 57.318165,54.832951 56.344272,55.646794 C 55.276477,56.539401 51.527122,57.709229 50.248711,56.701769 C 46.694740,53.901748 44.268674,48.778336 41.094146,44.977436 C 39.681574,43.286233 37.294672,41.813877 36.487410,40.225791 z " />
    <ellipse
       id="path1521"
       style="font-size:12.000000px;fill:url(#linearGradient862);fill-rule:evenodd;stroke-width:1.0000000pt"
       transform="matrix(7.179272e-2,0.000000,0.000000,7.010354e-2,1.088349,5.758071)"
       ry="115.02443"
       rx="115.02444"
       cy="328.78662"
       cx="373.57492"
       sodipodi:cx="373.57492"
       sodipodi:cy="328.78662"
       sodipodi:rx="115.02444"
       sodipodi:ry="115.02443" />
    <path
       sodipodi:nodetypes="cccccccc"
       id="path1531"
       style="font-size:12.000000px;fill:url(#linearGradient797);fill-rule:evenodd;stroke:#261933;stroke-width:1.8770700;fill-opacity:1.0"
       d="M 35.517905,37.510893 C 35.264943,37.013416 37.199471,34.992447 37.696728,35.253197 C 39.477663,36.186392 41.085276,38.932553 43.105351,40.339968 C 47.238635,43.219631 53.061475,44.937819 56.157024,48.114871 C 57.151430,49.135385 55.972282,52.368972 54.998388,53.182816 C 53.930593,54.075423 50.557619,54.994332 49.279207,53.986871 C 45.725235,51.186850 43.299171,46.063438 40.124642,42.262539 C 38.712070,40.571336 36.325167,39.098980 35.517905,37.510893 z " />
    <path
       id="path1533"
       style="font-size:12.000000px;opacity:0.69999999;fill:url(#linearGradient860);fill-rule:evenodd;stroke:none;stroke-width:1.0000000pt"
       d="M 17.648432,33.434251 C 16.763556,31.664500 15.878781,25.824466 19.683674,21.311692 C 24.284943,17.152910 29.063210,17.772193 31.009855,18.037685 C 27.912842,18.214680 24.727333,17.772293 20.568549,21.842679 C 16.675158,25.647470 17.736929,31.310611 17.648432,33.434251 z " />
    <path
       id="path1538"
       style="font-size:12.000000px;opacity:0.69999999;fill:url(#linearGradient861);fill-rule:evenodd;stroke:none;stroke-width:1.0000000pt"
       d="M 36.519002,37.335157 C 36.510007,37.276799 36.691446,36.971622 36.785677,37.044240 C 37.644936,37.706922 39.371022,39.486540 39.379359,39.540950 C 39.387147,39.591630 37.705488,38.031296 36.834163,37.359400 C 36.752000,37.295995 36.526242,37.381888 36.519002,37.335157 z " />
  </g>
</svg>
