<?xml version="1.0" encoding="UTF-8" standalone="no"?>
<!DOCTYPE svg PUBLIC "-//W3C//DTD SVG 20010904//EN"
"http://www.w3.org/TR/2001/REC-SVG-20010904/DTD/svg10.dtd">
<!-- Created with Inkscape (http://www.inkscape.org/) -->
<svg
   version="1.0"
   x="0"
   y="0"
   width="48pt"
   height="48pt"
   id="svg1"
   sodipodi:version="0.32"
   inkscape:version="0.40"
   sodipodi:docname="xfsm-trash-normal.svg"
   sodipodi:docbase="/home/andrew/lila/additions"
   xmlns="http://www.w3.org/2000/svg"
   xmlns:inkscape="http://www.inkscape.org/namespaces/inkscape"
   xmlns:sodipodi="http://sodipodi.sourceforge.net/DTD/sodipodi-0.dtd"
   xmlns:xlink="http://www.w3.org/1999/xlink"
   xmlns:rdf="http://www.w3.org/1999/02/22-rdf-syntax-ns#"
   xmlns:cc="http://web.resource.org/cc/"
   xmlns:dc="http://purl.org/dc/elements/1.1/">
  <metadata
     id="metadata21">
    <rdf:RDF
       id="RDF22">
      <cc:Work
         rdf:about=""
         id="Work23">
        <dc:format
           id="format24">image/svg+xml</dc:format>
        <dc:type
           id="type26"
           rdf:resource="http://purl.org/dc/dcmitype/StillImage" />
      </cc:Work>
    </rdf:RDF>
  </metadata>
  <sodipodi:namedview
     id="base"
     inkscape:zoom="6.9918718"
     inkscape:cx="26.698839"
     inkscape:cy="22.451446"
     inkscape:window-width="530"
     inkscape:window-height="541"
     inkscape:window-x="243"
     inkscape:window-y="293"
     inkscape:current-layer="svg1" />
  <defs
     id="defs3">
    <linearGradient
       id="linearGradient570">
      <stop
         style="stop-color:#ffffff;stop-opacity:1;"
         offset="0"
         id="stop571" />
      <stop
         style="stop-color:#ffffff;stop-opacity:0;"
         offset="1"
         id="stop572" />
    </linearGradient>
    <linearGradient
       id="linearGradient563">
      <stop
         style="stop-color:#d9cce6;stop-opacity:1;"
         offset="0.00000000"
         id="stop564" />
      <stop
         style="stop-color:#73667f;stop-opacity:1;"
         offset="1.00000000"
         id="stop565" />
    </linearGradient>
    <linearGradient
       id="linearGradient566"
       xlink:href="#linearGradient570"
       x1="-0.00000000"
       y1="0.01562500"
       x2="0.93421054"
       y2="0.93750000" />
    <linearGradient
       id="linearGradient569"
       xlink:href="#linearGradient570"
       x1="0.00000000"
       y1="0.00000000"
       x2="0.99635035"
       y2="1.00000000" />
    <linearGradient
       id="linearGradient573"
       xlink:href="#linearGradient570"
       x1="0.00000000"
       y1="-0.00000000"
       x2="0.98387098"
       y2="0.99218750" />
    <linearGradient
       id="linearGradient575"
       xlink:href="#linearGradient563"
       x1="-0.00000000"
       y1="-0.00000000"
       x2="0.98473281"
       y2="0.99218750" />
    <linearGradient
       id="linearGradient578"
       xlink:href="#linearGradient563"
       x1="-0.00000000"
       y1="-0.00000000"
       x2="0.98909092"
       y2="0.95833331" />
    <linearGradient
       inkscape:collect="always"
       xlink:href="#linearGradient563"
       id="linearGradient1084"
       x1="5.6159804"
       y1="18.865595"
       x2="28.305265"
       y2="40.849315"
       gradientTransform="scale(1.861209,0.537285)"
       gradientUnits="userSpaceOnUse" />
    <linearGradient
       inkscape:collect="always"
       xlink:href="#linearGradient563"
       id="linearGradient1085"
       x1="9.7024376"
       y1="14.947204"
       x2="52.574121"
       y2="58.143438"
       gradientTransform="scale(1.004464,0.995556)"
       gradientUnits="userSpaceOnUse" />
    <linearGradient
       inkscape:collect="always"
       xlink:href="#linearGradient570"
       id="linearGradient1086"
       x1="18.129563"
       y1="12.905484"
       x2="39.139240"
       y2="34.092753"
       gradientTransform="scale(0.687210,1.455159)"
       gradientUnits="userSpaceOnUse" />
    <linearGradient
       inkscape:collect="always"
       xlink:href="#linearGradient570"
       id="linearGradient1087"
       x1="33.818797"
       y1="15.268182"
       x2="59.142866"
       y2="40.257867"
       gradientTransform="scale(0.761390,1.313387)"
       gradientUnits="userSpaceOnUse" />
    <linearGradient
       inkscape:collect="always"
       xlink:href="#linearGradient570"
       id="linearGradient1088"
       x1="6.2532473"
       y1="35.444305"
       x2="16.617921"
       y2="45.846945"
       gradientTransform="scale(2.754859,0.362995)"
       gradientUnits="userSpaceOnUse" />
  </defs>
  <g
     id="g1077"
     transform="matrix(0.500000,0.000000,0.000000,0.500000,16.26225,30.16251)">
    <path
       d="M 13.334379,52.005851 C 14.292871,53.279860 22.247218,59.232685 24.628025,59.656068 C 26.732482,60.053577 48.173696,54.062086 49.027814,52.929132 C 49.805989,52.017074 56.723596,17.010156 55.580938,16.260666 C 54.756500,15.624807 30.404612,22.180743 27.974254,22.064321 C 25.624103,21.819831 10.207918,15.797047 9.4304962,16.788217 C 8.7304452,17.799447 12.334017,50.808135 13.334379,52.005851 z "
       style="font-size:12.000000;opacity:0.30267498;fill-rule:evenodd;stroke-width:12.500000"
       id="path1009" />
    <path
       d="M 11.393342,16.237357 C 16.415857,18.135661 22.481656,21.558436 28.132941,21.523515 C 36.074633,21.474514 50.943795,17.985194 52.172475,15.985608 C 53.083441,14.503012 37.250739,10.951088 34.551862,11.076967 C 31.908728,11.076967 11.087733,16.121894 11.393342,16.237357 z "
       style="font-size:12.000000;fill:url(#linearGradient1084);fill-rule:evenodd;stroke:#261933;stroke-width:1.8750000;stroke-linecap:round;stroke-linejoin:round;stroke-opacity:1.0000000"
       id="path1004" />
    <path
       d="M 14.288114,49.968202 C 15.153358,51.183886 22.333761,56.864131 24.482923,57.268137 C 26.382623,57.647436 45.737683,51.930296 46.508689,50.849217 C 47.211159,49.978912 53.455704,16.574901 52.424214,15.859739 C 51.679991,15.252985 29.697476,21.508737 27.503574,21.397645 C 25.382086,21.164349 11.465847,15.417348 10.764076,16.363125 C 10.132138,17.328053 13.385084,48.825327 14.288114,49.968202 z "
       style="font-size:12.000000;fill:url(#linearGradient1085);fill-rule:evenodd;stroke:#261933;stroke-width:1.8750000;stroke-opacity:1.0000000"
       id="path994" />
    <path
       d="M 15.673709,49.844600 C 15.286860,49.332083 11.942754,20.397796 12.527179,18.882657 C 12.908076,17.977147 26.734147,23.316182 27.127141,23.917177 C 27.447335,24.406979 15.708722,19.403210 14.666825,22.155057 C 12.954891,26.550979 15.991708,50.369323 15.673709,49.844600 z "
       style="font-size:12.000000;opacity:0.69993597;fill:url(#linearGradient1086);fill-rule:evenodd;stroke:none;stroke-width:0.099190301pt"
       id="path999" />
    <path
       d="M 25.786428,55.097487 C 25.486477,54.840384 27.059544,26.286396 28.512189,23.916531 C 29.343899,22.480253 46.081918,19.252198 46.384450,19.511478 C 46.669227,19.755585 32.425749,22.005432 30.274208,25.426911 C 27.122828,30.512610 26.073786,55.343780 25.786428,55.097487 z "
       style="font-size:12.000000;opacity:0.70363098;fill:url(#linearGradient1087);fill-rule:evenodd;stroke:none;stroke-width:0.099190301pt"
       id="path1006" />
    <path
       d="M 17.227039,16.619480 C 17.287438,16.347598 28.603501,13.200783 34.314598,12.881590 C 38.155946,12.666838 45.943204,14.752523 45.884283,15.017553 C 45.824471,15.286459 37.917396,14.262216 33.958601,14.483517 C 28.364951,14.796161 17.168807,16.881644 17.227039,16.619480 z "
       style="font-size:12.000000;opacity:0.69993597;fill:url(#linearGradient1088);fill-rule:evenodd;stroke:none;stroke-width:0.099190301pt"
       id="path1010" />
  </g>
</svg>
