<?xml version="1.0" encoding="UTF-8" standalone="no"?>
<!-- Created with Inkscape (http://www.inkscape.org/) -->
<svg
   xmlns:dc="http://purl.org/dc/elements/1.1/"
   xmlns:cc="http://web.resource.org/cc/"
   xmlns:rdf="http://www.w3.org/1999/02/22-rdf-syntax-ns#"
   xmlns:svg="http://www.w3.org/2000/svg"
   xmlns="http://www.w3.org/2000/svg"
   xmlns:xlink="http://www.w3.org/1999/xlink"
   xmlns:sodipodi="http://sodipodi.sourceforge.net/DTD/sodipodi-0.dtd"
   xmlns:inkscape="http://www.inkscape.org/namespaces/inkscape"
   version="1.0"
   x="0"
   y="0"
   width="48pt"
   height="48pt"
   id="svg611"
   sodipodi:version="0.32"
   inkscape:version="0.44.1"
   sodipodi:docname="xine.svg"
   sodipodi:docbase="/home/Mess/.icons/Lila/scalable/apps">
  <metadata
     id="metadata68">
    <rdf:RDF>
      <cc:Work
         rdf:about="">
        <dc:format>image/svg+xml</dc:format>
        <dc:type
           rdf:resource="http://purl.org/dc/dcmitype/StillImage" />
      </cc:Work>
    </rdf:RDF>
  </metadata>
  <sodipodi:namedview
     id="base"
     pagecolor="#ffffff"
     bordercolor="#666666"
     borderopacity="1.0"
     inkscape:pageopacity="0.0"
     inkscape:pageshadow="2"
     inkscape:zoom="6.9465337"
     inkscape:cx="27.785606"
     inkscape:cy="24.897259"
     inkscape:window-width="1280"
     inkscape:window-height="948"
     inkscape:window-x="0"
     inkscape:window-y="30"
     inkscape:current-layer="svg611" />
  <defs
     id="defs613">
    <linearGradient
       id="linearGradient923">
      <stop
         style="stop-color:#d9cce6;stop-opacity:1.0000000;"
         offset="0.0000000"
         id="stop925" />
      <stop
         style="stop-color:#ffffff;stop-opacity:1.0000000;"
         offset="1.0000000"
         id="stop924" />
    </linearGradient>
    <linearGradient
       id="linearGradient1535">
      <stop
         style="stop-color:#ffffff;stop-opacity:1;"
         offset="0"
         id="stop1537" />
      <stop
         style="stop-color:#ffffff;stop-opacity:0;"
         offset="1"
         id="stop1536" />
    </linearGradient>
    <linearGradient
       id="linearGradient1528">
      <stop
         style="stop-color:#d9cce6;stop-opacity:1;"
         offset="0.00000000"
         id="stop1530" />
      <stop
         style="stop-color:#73667f;stop-opacity:1;"
         offset="1.00000000"
         id="stop1529" />
    </linearGradient>
    <linearGradient
       id="linearGradient642">
      <stop
         style="stop-color:#ffffff;stop-opacity:1;"
         offset="0"
         id="stop643" />
      <stop
         style="stop-color:#ffffff;stop-opacity:0;"
         offset="1"
         id="stop644" />
    </linearGradient>
    <linearGradient
       id="linearGradient635">
      <stop
         style="stop-color:#e6cfff;stop-opacity:1;"
         offset="0"
         id="stop636" />
      <stop
         style="stop-color:#ffffff;stop-opacity:1;"
         offset="1"
         id="stop637" />
    </linearGradient>
    <linearGradient
       x1="0.87692308"
       y1="0.91406256"
       x2="0.00000000"
       y2="0.00781250"
       id="linearGradient638"
       xlink:href="#linearGradient923" />
    <linearGradient
       x1="25.564874"
       y1="56.588564"
       x2="35.321654"
       y2="65.826197"
       id="linearGradient641"
       xlink:href="#linearGradient1528"
       gradientTransform="matrix(1.194392,2.272933e-8,3.022534e-8,0.837247,-2.685616e-8,-3.161623e-6)"
       gradientUnits="userSpaceOnUse" />
    <linearGradient
       x1="36.407824"
       y1="35.903865"
       x2="44.646551"
       y2="44.128287"
       id="linearGradient1522"
       xlink:href="#linearGradient1528"
       gradientTransform="matrix(0.967689,4.873079e-7,4.798051e-7,1.033391,-2.685616e-8,-3.161623e-6)"
       gradientUnits="userSpaceOnUse" />
    <linearGradient
       x1="27.147085"
       y1="36.366606"
       x2="37.902695"
       y2="46.799255"
       id="linearGradient1527"
       xlink:href="#linearGradient1528"
       gradientTransform="matrix(1.327778,6.680085e-7,-5.607054e-7,0.753138,-2.685616e-8,-3.161623e-6)"
       gradientUnits="userSpaceOnUse" />
    <linearGradient
       x1="38.244198"
       y1="36.885647"
       x2="32.099403"
       y2="49.369347"
       id="linearGradient1532"
       xlink:href="#linearGradient1535"
       gradientTransform="matrix(1.463053,3.081869e-7,5.1816e-7,0.683502,-2.685616e-8,-3.161623e-6)"
       gradientUnits="userSpaceOnUse" />
    <linearGradient
       x1="6.0703597"
       y1="59.872814"
       x2="10.297398"
       y2="67.530579"
       id="linearGradient1534"
       xlink:href="#linearGradient642"
       gradientTransform="matrix(1.469049,1.66116e-7,4.263111e-7,0.680711,-8.690227e-6,-6.690227e-6)"
       gradientUnits="userSpaceOnUse" />
    <linearGradient
       x1="23.697625"
       y1="56.832282"
       x2="26.384667"
       y2="59.525557"
       id="linearGradient1539"
       xlink:href="#linearGradient1535"
       gradientTransform="matrix(1.515883,1.533309e-6,-1.239453e-6,0.65968,3.092932e-5,7.3534e-6)"
       gradientUnits="userSpaceOnUse" />
    <linearGradient
       x1="24.474177"
       y1="44.444766"
       x2="31.0971"
       y2="50.839802"
       id="linearGradient1567"
       xlink:href="#linearGradient1535"
       gradientTransform="matrix(1.566138,-3.465416e-7,6.400944e-7,0.638514,-2.685616e-8,-3.161623e-6)"
       gradientUnits="userSpaceOnUse" />
    <linearGradient
       x1="0.973546"
       y1="0.953124"
       x2="0.005291"
       y2="-0.015625"
       id="linearGradient1042"
       xlink:href="#linearGradient1535" />
    <linearGradient
       x1="53.762031"
       y1="22.073135"
       x2="35.556331"
       y2="3.7875611"
       id="linearGradient1044"
       xlink:href="#linearGradient1535"
       gradientTransform="scale(0.88031,1.135964)"
       gradientUnits="userSpaceOnUse" />
    <defs
       id="defs839">
      <linearGradient
         id="linearGradient983">
        <stop
           style="stop-color:#2ad700;stop-opacity:1;"
           offset="0"
           id="stop984" />
        <stop
           style="stop-color:#e5ffe5;stop-opacity:1;"
           offset="1"
           id="stop985" />
      </linearGradient>
      <linearGradient
         id="linearGradient843">
        <stop
           style="stop-color:#ffffff;stop-opacity:1;"
           offset="0"
           id="stop844" />
        <stop
           style="stop-color:#ffffff;stop-opacity:0;"
           offset="1"
           id="stop845" />
      </linearGradient>
      <linearGradient
         id="linearGradient846">
        <stop
           style="stop-color:#a673f3;stop-opacity:1;"
           offset="0"
           id="stop847" />
        <stop
           style="stop-color:#4c3f8c;stop-opacity:1;"
           offset="1"
           id="stop848" />
      </linearGradient>
      <linearGradient
         id="linearGradient849">
        <stop
           style="stop-color:#ffffff;stop-opacity:1;"
           offset="0"
           id="stop850" />
        <stop
           style="stop-color:#ffffff;stop-opacity:0;"
           offset="1"
           id="stop851" />
      </linearGradient>
      <linearGradient
         x1="0.000000"
         y1="0.000000"
         x2="1.000000"
         y2="0.000000"
         id="linearGradient852"
         xlink:href="#linearGradient923"
         gradientUnits="objectBoundingBox"
         spreadMethod="pad" />
      <linearGradient
         x1="0.015504"
         y1="0.015625"
         x2="1.015504"
         y2="0.984375"
         id="linearGradient855"
         xlink:href="#linearGradient635" />
      <linearGradient
         x1="-0.006803"
         y1="0.023438"
         x2="0.986395"
         y2="0.992188"
         id="linearGradient856"
         xlink:href="#linearGradient642" />
      <linearGradient
         x1="-0.000000"
         y1="0.000000"
         x2="1.000000"
         y2="0.000000"
         id="linearGradient857"
         xlink:href="#linearGradient642" />
      <linearGradient
         x1="0.010309"
         y1="0.023436"
         x2="1.000000"
         y2="0.992188"
         id="linearGradient858"
         xlink:href="#linearGradient642" />
      <linearGradient
         id="linearGradient859"
         xlink:href="#linearGradient1535" />
      <linearGradient
         x1="0.014564"
         y1="-0.000001"
         x2="0.989091"
         y2="1.000000"
         id="linearGradient860"
         xlink:href="#linearGradient1535" />
      <linearGradient
         x1="0.003631"
         y1="0.000003"
         x2="1.003636"
         y2="1.041666"
         id="linearGradient861"
         xlink:href="#linearGradient1535" />
      <linearGradient
         x1="0.003633"
         y1="0.008073"
         x2="0.996364"
         y2="0.975806"
         id="linearGradient862"
         xlink:href="#linearGradient1535" />
    </defs>
    <linearGradient
       x1="34.141509"
       y1="46.838192"
       x2="15.452149"
       y2="28.633213"
       id="linearGradient899"
       xlink:href="#linearGradient642"
       gradientTransform="scale(0.865842,1.154945)"
       gradientUnits="userSpaceOnUse" />
    <linearGradient
       inkscape:collect="always"
       xlink:href="#linearGradient1535"
       id="linearGradient1933"
       gradientUnits="userSpaceOnUse"
       gradientTransform="matrix(1.463055,9.182808e-7,9.024409e-7,0.683502,1.171728e-5,-2.554887e-5)"
       x1="22.4132"
       y1="38.781216"
       x2="25.113384"
       y2="54.617119" />
  </defs>
  <path
     d="M 35.94447 32.164599 C 35.94447 34.392251 34.136589 36.200132 31.908939 36.200132 C 29.681287 36.200132 27.873309 34.392251 27.873309 32.164599 C 27.873309 29.936949 29.681287 28.128969 31.908939 28.128969 C 34.136589 28.128969 35.94447 29.936949 35.94447 32.164599 z M 57.554448 31.774005 C 57.554448 46.074039 45.948547 57.679846 31.64851 57.679846 C 17.348474 57.679846 5.7426567 46.074039 5.7426567 31.774005 C 5.7426567 17.473969 17.348474 5.8680673 31.64851 5.8680673 C 45.948547 5.8680673 57.554448 17.473969 57.554448 31.774005 z "
     style="font-size:12;opacity:0.302675;fill-rule:evenodd;stroke-width:12.5;"
     id="path782" />
  <path
     d="M 33.735236 29.403006 C 33.735236 31.630656 31.927353 33.438539 29.699701 33.438539 C 27.472052 33.438539 25.664073 31.630656 25.664073 29.403006 C 25.664073 27.175356 27.472052 25.367376 29.699701 25.367376 C 31.927353 25.367376 33.735236 27.175356 33.735236 29.403006 z M 55.345213 29.01241 C 55.345213 43.312449 43.739311 54.918251 29.439275 54.918251 C 15.139237 54.918251 3.533422 43.312449 3.533422 29.01241 C 3.533422 14.712374 15.139237 3.1065219 29.439275 3.1065219 C 43.739311 3.1065219 55.345213 14.712374 55.345213 29.01241 z "
     style="font-size:12;fill:url(#linearGradient638);fill-rule:evenodd;stroke:#261e2e;stroke-width:1.875;stroke-dasharray:none;"
     id="path773" />
  <path
     d="M 9.1311506 42.420963 C 4.3548052 37.125542 1.3223546 15.1461 19.024832 7.01189 C 33.388063 0.46956055 47.441628 10.953941 48.44564 13.911412 C 48.741736 14.745133 36.463295 4.3641214 21.758706 11.958728 C 0.18059292 23.005585 9.7186896 43.090594 9.1311506 42.420963 z "
     style="font-size:12;opacity:0.7;fill:url(#linearGradient1042);fill-rule:evenodd;stroke:none;stroke-width:1pt;stroke-opacity:1;"
     id="path774" />
  <path
     d="M 39.292248 29.586964 C 39.292248 34.662371 34.550057 38.960272 29.661613 39.125621 C 24.218099 39.125621 19.66597 34.570392 19.846826 29.494986 C 20.034175 24.235716 24.218099 19.588122 29.661613 19.588122 C 34.736924 19.588122 39.482893 24.33099 39.292248 29.586964 z M 36.729441 29.533074 C 36.729441 33.485352 33.521815 36.69298 29.569538 36.69298 C 25.617259 36.69298 22.409632 33.485352 22.409632 29.533074 C 22.409632 25.580798 25.617259 22.373169 29.569538 22.373169 C 33.521815 22.373169 36.729441 25.580798 36.729441 29.533074 z "
     style="font-size:12;opacity:0.100892;fill:#3f003f;fill-rule:evenodd;stroke-width:1pt;"
     id="path779" />
  <path
     d="M 31.303162,23.781395 C 31.298453,24.119469 33.340178,25.449391 33.630675,25.272318 C 38.168931,21.573558 47.065408,16.03266 47.177643,12.271204 C 47.25522,9.6132254 33.87807,4.1937367 33.451616,4.8760418 C 31.614007,8.0730957 31.405088,17.758822 31.303162,23.781395 z "
     style="font-size:12px;fill:url(#linearGradient1044);fill-rule:evenodd;stroke-width:1pt"
     id="path780" />
  <path
     d="M 28.47786,33.859966 C 28.446142,33.511469 26.183056,32.361299 25.900669,32.574697 C 21.590205,36.868149 12.955182,43.524803 13.245547,47.408547 C 13.452539,50.152874 27.924119,54.298083 28.292938,53.550174 C 29.854461,50.06244 29.023622,40.070155 28.47786,33.859966 z "
     style="font-size:12px;fill:url(#linearGradient899);fill-rule:evenodd;stroke-width:1pt"
     id="path781" />
  <path
     d="M 7.1888493,36.549963 C 10.080987,34.622287 17.648901,39.904502 22.681851,38.671144 C 27.628797,37.458876 32.41982,29.671057 37.128708,29.213213 C 44.378753,28.508331 54.199415,31.659288 58.558933,35.183028 C 59.737908,36.069768 58.840887,51.970237 57.446525,52.768164 C 53.671966,54.542846 43.707621,47.193157 36.910533,47.748438 C 33.293951,48.043868 30.040427,54.71705 26.205486,55.320239 C 18.870687,56.474141 8.0655897,55.318014 3.4014133,53.01967 C 2.350889,52.585398 6.1473486,37.285111 7.1888493,36.549963 z M 50.008884,47.088798 C 49.55544,47.205676 49.184891,48.503968 49.503639,48.854034 C 49.95634,49.351403 51.642344,49.806687 52.323135,49.63135 C 52.769215,49.516477 53.181205,48.310171 52.883935,47.983677 C 52.409876,47.462757 50.682094,46.915487 50.008884,47.088798 z M 44.72522,45.131106 C 44.271774,45.222276 43.752368,46.529518 44.017644,46.908415 C 44.394393,47.446764 45.970296,48.019785 46.651037,47.883027 C 47.097048,47.793473 47.645099,46.583129 47.397768,46.229682 C 47.003292,45.66586 45.39831,44.99599 44.72522,45.131106 z M 38.406955,43.701839 C 37.966931,43.87808 37.971312,45.115904 38.411352,45.385019 C 39.036492,45.767422 40.941752,45.92116 41.602366,45.656583 C 42.035171,45.483324 42.102026,44.322794 41.691689,44.071682 C 41.037034,43.671197 39.060161,43.440326 38.406955,43.701839 z M 30.756894,47.394434 C 30.671492,47.715479 32.332859,47.855496 33.014987,47.585849 C 33.984172,47.202863 35.582528,45.918507 35.710901,45.436442 C 35.795119,45.120638 34.289396,44.940735 33.653089,45.192226 C 32.638083,45.593366 30.884012,46.917705 30.756894,47.394434 z M 26.030896,51.682371 C 25.945496,52.003416 27.60686,52.143435 28.288991,51.873785 C 29.258174,51.490802 30.85653,50.206445 30.984904,49.724383 C 31.069118,49.408574 29.563396,49.22867 28.92709,49.480166 C 27.912087,49.881302 26.158014,51.205643 26.030896,51.682371 z M 19.830247,52.10575 C 19.410176,52.318454 19.671603,53.484548 20.184157,53.691582 C 20.91217,53.985853 22.921236,53.92898 23.551948,53.609664 C 23.965113,53.400573 23.793789,52.299721 23.315751,52.106518 C 22.55322,51.798415 20.45396,51.790087 19.830247,52.10575 z M 13.848633,51.39997 C 13.403604,51.562603 13.317798,52.819781 13.730339,53.109403 C 14.316375,53.521019 16.176187,53.74785 16.844397,53.503748 C 17.281969,53.343849 17.432308,52.167775 17.047439,51.897585 C 16.433732,51.466533 14.509264,51.15859 13.848633,51.39997 z M 7.7850754,50.003786 C 7.3317931,50.123997 6.9813796,51.420459 7.3071529,51.766445 C 7.7697464,52.258141 9.4696283,52.697281 10.150175,52.516837 C 10.595882,52.398652 10.989487,51.193563 10.685676,50.870727 C 10.201117,50.355879 8.4579536,49.825405 7.7850754,50.003786 z M 53.157254,34.38382 C 52.704504,34.466556 52.138643,35.774858 52.386473,36.162345 C 52.738428,36.713017 54.277227,37.322376 54.957043,37.197968 C 55.402246,37.116546 55.992849,35.906835 55.761609,35.545244 C 55.392934,34.968593 53.829403,34.260853 53.157254,34.38382 z M 47.82104,32.758038 C 47.374757,32.916285 47.260921,34.178987 47.664646,34.474853 C 48.238178,34.895425 50.083124,35.144732 50.753239,34.907033 C 51.192105,34.751374 51.36823,33.57116 50.991541,33.295066 C 50.390864,32.854696 48.48355,32.523004 47.82104,32.758038 z M 41.850569,31.447486 C 41.404291,31.60573 41.290444,32.868434 41.694177,33.164298 C 42.267706,33.584871 44.112652,33.83418 44.782767,33.596478 C 45.221631,33.440821 45.397823,32.260574 45.021133,31.984485 C 44.42044,31.544121 42.513078,31.212451 41.850569,31.447486 z M 34.840417,32.430313 C 34.482323,32.70111 35.223649,33.663776 35.846712,33.739772 C 36.732014,33.847884 38.827884,33.388973 39.365591,32.982329 C 39.717753,32.715971 39.097635,31.791891 38.516316,31.720974 C 37.589172,31.607824 35.372012,32.028186 34.840417,32.430313 z M 28.470229,37.097457 C 28.407745,37.41581 30.10682,37.48859 30.779389,37.197509 C 31.7352,36.783972 33.261255,35.46162 33.355032,34.983614 C 33.416419,34.670457 31.872702,34.552568 31.245152,34.824105 C 30.244322,35.257185 28.562871,36.624804 28.470229,37.097457 z M 22.508751,40.825611 C 22.324143,41.148436 23.767056,41.580275 24.469264,41.413802 C 25.467114,41.17732 27.078354,40.210815 27.35551,39.726156 C 27.537019,39.408631 26.500443,38.852084 25.845321,39.007359 C 24.800385,39.255042 22.78274,40.34635 22.508751,40.825611 z M 17.100432,39.982305 C 16.647149,40.102516 16.29674,41.398975 16.622508,41.744965 C 17.085102,42.236661 18.784983,42.675801 19.465532,42.495354 C 19.911243,42.37717 20.304841,41.172079 20.001032,40.849247 C 19.516473,40.334398 17.773314,39.803922 17.100432,39.982305 z M 11.309057,38.594346 C 10.855769,38.714558 10.505361,40.011019 10.831129,40.357008 C 11.293701,40.848644 12.993576,41.28779 13.67413,41.107336 C 14.119834,40.989155 14.513438,39.784063 14.209626,39.461232 C 13.725099,38.946438 11.981935,38.415965 11.309057,38.594346 z "
     style="font-size:12px;opacity:0.30267502;fill-rule:evenodd;stroke-width:1.25"
     id="path738" />
  <path
     d="M 5.3805956,34.14042 C 8.2727272,32.212745 15.84066,37.494992 20.873612,36.261635 C 25.820553,35.049363 30.611565,27.26152 35.32047,26.803699 C 42.570514,26.09882 52.391195,29.24977 56.750708,32.773511 C 57.929686,33.660247 57.032645,49.560728 55.638283,50.358654 C 51.863723,52.133337 41.899384,44.783645 35.102293,45.338929 C 31.485712,45.634357 28.232185,52.307539 24.397247,52.910725 C 17.062447,54.064628 6.2573495,52.908503 1.5931748,50.610159 C 0.5426492,50.175887 4.3390929,34.875572 5.3805956,34.14042 z M 48.200648,44.679286 C 47.747198,44.796165 47.376649,46.094459 47.695396,46.444527 C 48.148096,46.941891 49.834106,47.397178 50.514892,47.221837 C 50.960978,47.106964 51.372962,45.900661 51.075694,45.574163 C 50.601638,45.053245 48.873856,44.505973 48.200648,44.679286 z M 42.916982,42.721595 C 42.463533,42.812765 41.944128,44.120008 42.209406,44.498902 C 42.586149,45.037254 44.162056,45.610273 44.842797,45.473516 C 45.288804,45.383964 45.836857,44.17362 45.589529,43.820172 C 45.195051,43.25635 43.590068,42.586481 42.916982,42.721595 z M 36.598711,41.29233 C 36.158688,41.468571 36.163068,42.706394 36.603111,42.975503 C 37.228254,43.357909 39.133509,43.511651 39.794125,43.247071 C 40.226929,43.073815 40.293784,41.913285 39.883447,41.662171 C 39.228791,41.261688 37.251919,41.030814 36.598711,41.29233 z M 28.948652,44.984925 C 28.86325,45.305968 30.524615,45.445986 31.206749,45.176336 C 32.175932,44.793353 33.774286,43.508998 33.902659,43.026933 C 33.986874,42.711128 32.481157,42.531224 31.844843,42.782717 C 30.829843,43.183855 29.075771,44.508196 28.948652,44.984925 z M 24.222657,49.272859 C 24.137255,49.593905 25.798622,49.73392 26.480753,49.464275 C 27.449934,49.081291 29.048291,47.796935 29.176664,47.314869 C 29.260876,46.999064 27.755159,46.819161 27.11885,47.070654 C 26.103846,47.471792 24.349776,48.796132 24.222657,49.272859 z M 18.022003,49.69624 C 17.601937,49.90894 17.863362,51.075037 18.375915,51.282074 C 19.103929,51.576342 21.112992,51.519468 21.74371,51.20015 C 22.15687,50.991064 21.985547,49.89021 21.507506,49.697008 C 20.744978,49.388905 18.645718,49.380575 18.022003,49.69624 z M 12.040391,48.990462 C 11.595361,49.153096 11.509554,50.41027 11.922101,50.699894 C 12.508135,51.111509 14.367945,51.338339 15.036155,51.094238 C 15.47373,50.93434 15.62407,49.758263 15.2392,49.488074 C 14.625488,49.057024 12.701023,48.749081 12.040391,48.990462 z M 5.9768343,47.594275 C 5.523549,47.714486 5.1731382,49.010947 5.4989081,49.356936 C 5.9615056,49.84863 7.6613847,50.287772 8.3419387,50.107324 C 8.7876418,49.989139 9.1812411,48.784052 8.877433,48.461217 C 8.3928761,47.946366 6.6497152,47.415893 5.9768343,47.594275 z M 51.34903,31.974302 C 50.896283,32.05704 50.330421,33.365338 50.578253,33.752824 C 50.930204,34.3035 52.469005,34.912858 53.148821,34.788449 C 53.594021,34.707028 54.184626,33.497315 53.953384,33.135727 C 53.584711,32.559073 52.021175,31.851334 51.34903,31.974302 z M 46.012802,30.34853 C 45.566518,30.506773 45.452677,31.769476 45.856409,32.065344 C 46.429935,32.485915 48.274854,32.735235 48.944969,32.497535 C 49.383834,32.341876 49.560007,31.161639 49.183317,30.885549 C 48.582644,30.445177 46.675312,30.113492 46.012802,30.34853 z M 40.042329,29.037976 C 39.596047,29.196219 39.482204,30.458922 39.885934,30.75479 C 40.459466,31.175356 42.30441,31.42467 42.974525,31.18697 C 43.413391,31.031308 43.589581,29.851064 43.212892,29.574974 C 42.6122,29.13461 40.704838,28.80294 40.042329,29.037976 z M 33.032173,30.020803 C 32.674084,30.291596 33.415412,31.254265 34.038469,31.330262 C 34.923775,31.438372 37.019642,30.979465 37.557355,30.572813 C 37.909513,30.306461 37.289397,29.38238 36.70807,29.311463 C 35.780932,29.198314 33.563767,29.618674 33.032173,30.020803 z M 26.661986,34.687946 C 26.599503,35.006301 28.298579,35.079081 28.971148,34.787998 C 29.926956,34.374464 31.453017,33.05211 31.546789,32.574106 C 31.60818,32.260943 30.064462,32.143059 29.43691,32.414595 C 28.436082,32.847676 26.754627,34.215292 26.661986,34.687946 z M 20.700507,38.4161 C 20.515902,38.738927 21.958816,39.170767 22.661025,39.004292 C 23.658876,38.767807 25.27011,37.801308 25.54727,37.316646 C 25.728776,36.999123 24.692204,36.442574 24.037078,36.59785 C 22.992144,36.845531 20.9745,37.936839 20.700507,38.4161 z M 15.292192,37.572792 C 14.838906,37.693005 14.488494,38.989466 14.814266,39.335456 C 15.276862,39.82715 16.976742,40.266291 17.657295,40.085844 C 18.103002,39.967658 18.496601,38.76257 18.192791,38.439736 C 17.708233,37.924886 15.965072,37.394412 15.292192,37.572792 z M 9.5008005,36.184809 C 9.0475165,36.305019 8.6971018,37.601481 9.0228761,37.947467 C 9.4854551,38.439137 11.185336,38.878274 11.865887,38.697826 C 12.311596,38.579644 12.705195,37.374556 12.401385,37.051721 C 11.916839,36.5369 10.173679,36.006428 9.5008005,36.184809 z "
     style="font-size:12px;fill:#261e2e;fill-rule:evenodd;stroke:#261e2e;stroke-width:0.07996694;stroke-dasharray:none;stroke-opacity:1"
     id="path737" />
  <path
     d="M 8.57887,39.818404 C 10.115316,39.210177 17.890369,41.245026 18.456182,42.069343 C 19.055306,42.909474 20.441364,46.877877 18.849375,47.648527 C 17.453328,48.478242 7.5277754,46.551095 6.6421034,45.74404 C 5.6072736,45.041668 7.1389181,40.381613 8.57887,39.818404 z "
     style="font-size:12px;fill:url(#linearGradient641);fill-rule:evenodd;stroke:#3f003f;stroke-width:1.01150632"
     id="path648" />
  <path
     d="M 23.328868,40.874394 C 22.865679,41.950409 23.197009,46.426417 24.152709,46.697647 C 25.32717,46.930798 28.537493,42.46921 34.759955,39.687647 C 36.311065,38.994711 33.919779,34.420908 32.433841,34.404479 C 31.590235,34.428958 23.870168,39.87687 23.328868,40.874394 z "
     style="font-size:12px;fill:url(#linearGradient1522);fill-rule:evenodd;stroke:#3f003f;stroke-width:1.01150632"
     id="path649" />
  <path
     d="M 38.918145,32.890132 C 37.841462,33.456562 38.635558,38.982453 39.468657,39.716647 C 40.464463,40.528517 49.249781,43.761604 50.460962,43.12289 C 52.004971,42.328041 51.708848,36.522606 50.907808,35.535606 C 50.121092,34.524345 40.227029,32.184073 38.918145,32.890132 z "
     style="font-size:12px;fill:url(#linearGradient1527);fill-rule:evenodd;stroke:#3f003f;stroke-width:1.01150632"
     id="path650" />
  <path
     d="M 16.977586,42.414113 C 16.769706,42.161551 11.425482,40.447246 9.4631768,40.891815 C 8.1272175,41.194485 6.8863056,44.41734 7.0827778,44.65604 C 7.2818341,44.897881 9.2208378,42.656982 10.649594,42.33324 C 12.51902,41.909648 17.165235,42.642093 16.977586,42.414113 z "
     style="font-size:12px;opacity:0.69993597;fill:url(#linearGradient1534);fill-rule:evenodd;stroke:white;stroke-width:0.09859683pt"
     id="path656"
     inkscape:transform-center-x="-1.871437" />
  <path
     d="M 25.084448,44.799639 C 25.002941,45.512628 24.110847,41.654697 24.610883,41.048123 C 25.952571,39.420692 31.778899,35.313552 32.193156,35.650373 C 32.608632,35.988181 24.802514,41.383429 25.084448,44.799639 z "
     style="font-size:12px;opacity:0.7;fill:url(#linearGradient1539);fill-rule:evenodd;stroke:white;stroke-width:0.14273037pt"
     id="path657"
     sodipodi:nodetypes="cssc" />
  <path
     d="M 21.111856,40.373542 C 22.055627,37.376206 30.060818,29.531899 35.554957,28.133028 C 38.370882,27.416061 44.694716,28.998167 44.602539,29.419448 C 44.515919,29.815158 38.658115,29.589352 35.882379,30.296074 C 30.348056,31.70517 19.674438,40.620172 21.111856,40.373542 z "
     style="font-size:12px;opacity:0.7;fill:url(#linearGradient1933);fill-rule:evenodd;stroke:white;stroke-width:0.0809204pt"
     id="path655"
     sodipodi:nodetypes="csssc" />
</svg>
