<?xml version="1.0" encoding="UTF-8" standalone="no"?>
<!-- Created with Inkscape (http://www.inkscape.org/) -->
<svg
   xmlns:dc="http://purl.org/dc/elements/1.1/"
   xmlns:cc="http://web.resource.org/cc/"
   xmlns:rdf="http://www.w3.org/1999/02/22-rdf-syntax-ns#"
   xmlns:svg="http://www.w3.org/2000/svg"
   xmlns="http://www.w3.org/2000/svg"
   xmlns:xlink="http://www.w3.org/1999/xlink"
   xmlns:sodipodi="http://inkscape.sourceforge.net/DTD/sodipodi-0.dtd"
   xmlns:inkscape="http://www.inkscape.org/namespaces/inkscape"
   version="1.0"
   x="0"
   y="0"
   width="48pt"
   height="48pt"
   id="svg1418"
   sodipodi:version="0.32"
   inkscape:version="0.42"
   sodipodi:docname="kwrite.svg"
   sodipodi:docbase="/home/jakob/dev/lila/lila-theme/trunk/lila/kde/scalable/apps">
  <metadata
     id="metadata34">
    <rdf:RDF>
      <cc:Work
         rdf:about="">
        <dc:format>image/svg+xml</dc:format>
        <dc:type
           rdf:resource="http://purl.org/dc/dcmitype/StillImage" />
      </cc:Work>
    </rdf:RDF>
  </metadata>
  <sodipodi:namedview
     id="base"
     pagecolor="#ffffff"
     bordercolor="#666666"
     borderopacity="1.0"
     inkscape:pageopacity="0.0"
     inkscape:pageshadow="2"
     inkscape:zoom="4.9119411"
     inkscape:cx="17.457656"
     inkscape:cy="24.037603"
     inkscape:window-width="1400"
     inkscape:window-height="997"
     inkscape:window-x="0"
     inkscape:window-y="0"
     inkscape:current-layer="svg1418" />
  <defs
     id="defs1420">
    <linearGradient
       id="linearGradient621">
      <stop
         style="stop-color:#ffffff;stop-opacity:1;"
         offset="0.00000000"
         id="stop622" />
      <stop
         style="stop-color:#d9cce6;stop-opacity:1;"
         offset="1.00000000"
         id="stop623" />
    </linearGradient>
    <linearGradient
       id="linearGradient1439">
      <stop
         style="stop-color:#ffffff;stop-opacity:1;"
         offset="0"
         id="stop1440" />
      <stop
         style="stop-color:#ffffff;stop-opacity:0;"
         offset="1"
         id="stop1441" />
    </linearGradient>
    <linearGradient
       id="linearGradient1432">
      <stop
         style="stop-color:#7f7f7f;stop-opacity:1;"
         offset="0"
         id="stop1433" />
      <stop
         style="stop-color:#e6e6e6;stop-opacity:1;"
         offset="1"
         id="stop1434" />
    </linearGradient>
    <linearGradient
       id="linearGradient1428">
      <stop
         style="stop-color:#f50000;stop-opacity:1;"
         offset="0.00000000"
         id="stop1429" />
      <stop
         style="stop-color:#a90000;stop-opacity:1;"
         offset="1.00000000"
         id="stop1430" />
    </linearGradient>
    <linearGradient
       id="linearGradient1422">
      <stop
         style="stop-color:#ffc000;stop-opacity:1.0000000;"
         offset="0.0000000"
         id="stop1423" />
      <stop
         style="stop-color:#ffff33;stop-opacity:1.0000000;"
         offset="1.0000000"
         id="stop1424" />
    </linearGradient>
    <linearGradient
       x1="46.900311"
       y1="25.839272"
       x2="35.574115"
       y2="13.769793"
       id="linearGradient1425"
       xlink:href="#linearGradient1422"
       gradientTransform="matrix(0.980436,0.000000,0.000000,1.019954,0.763446,-1.781373)"
       gradientUnits="userSpaceOnUse" />
    <linearGradient
       x1="43.707467"
       y1="4.3865030"
       x2="51.636496"
       y2="12.439423"
       id="linearGradient1427"
       xlink:href="#linearGradient1428"
       gradientTransform="matrix(1.097184,0.000000,0.000000,0.911424,0.763446,-1.781373)"
       gradientUnits="userSpaceOnUse" />
    <linearGradient
       x1="49.752802"
       y1="15.538123"
       x2="40.870128"
       y2="7.2425753"
       id="linearGradient1435"
       xlink:href="#linearGradient1432"
       gradientTransform="matrix(1.095210,0.000000,0.000000,0.913067,0.763446,-1.781373)"
       gradientUnits="userSpaceOnUse" />
    <linearGradient
       x1="26.916558"
       y1="5.2246840"
       x2="55.448879"
       y2="33.534111"
       id="linearGradient1438"
       xlink:href="#linearGradient1439"
       gradientTransform="matrix(0.994299,0.000000,0.000000,1.005734,0.763446,-1.781373)"
       gradientUnits="userSpaceOnUse" />
    <linearGradient
       id="linearGradient1443"
       xlink:href="#linearGradient1439"
       x1="5.9018727"
       y1="8.2937856"
       x2="40.884029"
       y2="44.108850"
       gradientTransform="matrix(0.999604,0.000000,0.000000,1.000396,-1.017928,1.017928)"
       gradientUnits="userSpaceOnUse" />
    <linearGradient
       xlink:href="#linearGradient621"
       id="linearGradient620"
       x1="3.2442242"
       y1="5.2500915"
       x2="51.438328"
       y2="52.651875"
       gradientTransform="matrix(0.942431,0.000000,0.000000,1.061086,-1.017928,1.017928)"
       gradientUnits="userSpaceOnUse" />
  </defs>
  <path
     d="M 2.9051711,48.484767 C 3.6184798,50.615841 33.157250,60.198214 35.096686,58.590196 C 36.832687,57.135717 49.822359,13.843058 48.952610,12.126109 C 48.048537,10.233175 18.079418,5.5182019 16.656912,6.8129161 C 14.904689,8.4170671 2.1560138,46.039637 2.9051711,48.484767 z "
     style="font-size:12.000000;opacity:0.30267498;fill-rule:evenodd;stroke-width:12.500000"
     id="path639" />
  <path
     d="M 3.0067147,46.720956 C 3.6741046,48.714737 31.309858,57.679785 33.124342,56.175359 C 34.748502,54.814584 46.901346,14.310977 46.087633,12.704606 C 45.241800,10.933619 17.203387,6.5224357 15.872524,7.7337398 C 14.233186,9.2345469 2.3058198,44.433350 3.0067147,46.720956 z "
     style="font-size:12.000000;fill:url(#linearGradient620);fill-rule:evenodd;stroke:#261933;stroke-width:1.8750000"
     id="path634" />
  <path
     d="M 4.8869624,44.853354 C 4.5985453,44.122669 16.058347,10.149263 17.129711,9.4486415 C 18.468691,8.5348605 40.114231,12.579998 40.401970,13.308968 C 40.665706,13.977092 23.514027,10.857295 19.698173,14.270477 C 12.379699,20.632826 5.1500210,45.519799 4.8869624,44.853354 z "
     style="font-size:12.000000;opacity:0.69993597;fill:url(#linearGradient1443);fill-rule:evenodd;stroke:none;stroke-width:0.10012100pt"
     id="path640" />
  <path
     d="M 27.235575,36.495245 C 28.078879,37.251309 31.911549,36.375925 33.451651,34.962479 C 42.612213,26.555104 53.808857,15.945572 59.337632,7.0328630 C 60.393901,5.3300704 54.898932,1.8256966 53.206712,3.1159003 C 44.623987,9.6596599 35.942511,20.985697 28.512868,30.534643 C 27.285490,32.112144 26.432619,35.775361 27.235575,36.495245 z "
     style="font-size:12.000000;opacity:0.29999998;fill:#3f3f19;fill-rule:evenodd;stroke-width:12.500000"
     id="path1442" />
  <path
     d="M 25.787967,35.388268 C 26.631273,36.144333 30.463941,35.268949 32.004043,33.855502 C 41.164606,25.448128 52.361249,14.838596 57.890018,5.9258867 C 58.946296,4.2230927 53.451326,0.71872706 51.759104,2.0089294 C 43.176382,8.5526829 34.494904,19.878719 27.065260,29.427666 C 25.837883,31.005168 24.985004,34.668385 25.787967,35.388268 z "
     style="font-size:12.000000;fill:url(#linearGradient1425);fill-rule:evenodd;stroke:#333300;stroke-width:1.8750000;stroke-opacity:1.0000000"
     id="path1421" />
  <path
     d="M 48.544689,5.2872757 C 48.607336,5.9290510 54.017652,9.7484139 54.718117,9.6725349 C 54.952657,9.6613859 57.614553,5.7275928 57.592040,5.4575913 C 57.444311,3.9417279 54.475016,2.1848266 52.610678,2.1579345 C 51.550740,2.1424707 48.524986,5.1067471 48.544689,5.2872757 z "
     style="font-size:12.000000;fill:url(#linearGradient1427);fill-rule:evenodd;stroke-width:1.0000000pt"
     id="path1426" />
  <path
     d="M 45.895456,7.8530087 C 45.961843,8.5331909 51.696242,12.581342 52.438638,12.500933 C 52.687207,12.489136 54.906480,9.7648119 54.882532,9.4786279 C 54.725957,7.8719254 50.544095,5.1094809 48.579288,5.1985936 C 48.175864,5.2108929 45.874595,7.6616916 45.895456,7.8530087 z "
     style="font-size:12.000000;fill:url(#linearGradient1435);fill-rule:evenodd;stroke:#333300;stroke-width:1.1250000;stroke-opacity:1.0000000"
     id="path1431" />
  <ellipse
     cx="152.36185"
     cy="565.56213"
     rx="26.788887"
     ry="26.788879"
     transform="matrix(8.379811e-2,0.000000,0.000000,8.379811e-2,13.27554,-12.08604)"
     style="font-size:12.000000;fill:#333300;fill-rule:evenodd;stroke-width:1.0000000pt;fill-opacity:1.0000000"
     id="path1436"
     sodipodi:cx="152.36185"
     sodipodi:cy="565.56213"
     sodipodi:rx="26.788887"
     sodipodi:ry="26.788879" />
  <path
     d="M 27.065260,32.407964 C 30.758326,25.835435 43.002253,10.844098 52.184964,3.0307211 C 53.191969,2.0734456 56.327912,4.1220405 56.357328,4.5634358 C 56.384654,4.9735442 53.339054,4.6501036 52.355276,5.5852556 C 43.574982,13.931638 30.199549,28.011918 27.065260,32.407964 z "
     style="font-size:12.000000;opacity:0.99000001;fill:url(#linearGradient1438);fill-rule:evenodd;stroke:none;stroke-width:0.10687400pt"
     id="path1437" />
</svg>
