<?xml version="1.0" encoding="UTF-8" standalone="no"?>
<!-- Created with Inkscape (http://www.inkscape.org/) -->
<svg
   xmlns:dc="http://purl.org/dc/elements/1.1/"
   xmlns:cc="http://web.resource.org/cc/"
   xmlns:rdf="http://www.w3.org/1999/02/22-rdf-syntax-ns#"
   xmlns:svg="http://www.w3.org/2000/svg"
   xmlns="http://www.w3.org/2000/svg"
   xmlns:xlink="http://www.w3.org/1999/xlink"
   xmlns:sodipodi="http://inkscape.sourceforge.net/DTD/sodipodi-0.dtd"
   xmlns:inkscape="http://www.inkscape.org/namespaces/inkscape"
   id="svg1"
   sodipodi:version="0.32"
   inkscape:version="0.42"
   width="48pt"
   height="48pt"
   sodipodi:docbase="/home/jakob/dev/lila/lila-theme/trunk/lila/kde/scalable/apps"
   sodipodi:docname="kmix.svg">
  <defs
     id="defs3">
    <linearGradient
       id="linearGradient911">
      <stop
         offset="0.0000000"
         style="stop-color:#d9cce6;stop-opacity:1.0000000;"
         id="stop913" />
      <stop
         offset="1.0000000"
         style="stop-color:#73667f;stop-opacity:1.0000000;"
         id="stop912" />
    </linearGradient>
    <linearGradient
       id="linearGradient563"
       x1="0.0000000"
       y1="0.50000000"
       x2="1.0000000"
       y2="0.50000000"
       gradientUnits="objectBoundingBox"
       spreadMethod="pad"
       xlink:href="#linearGradient911" />
    <linearGradient
       id="linearGradient566"
       xlink:href="#linearGradient578"
       x1="1.7837293"
       y1="19.007681"
       x2="14.738911"
       y2="32.095360"
       gradientTransform="matrix(1.554959,0.000000,0.000000,0.761362,-2.773626,-2.857423)"
       gradientUnits="userSpaceOnUse" />
    <linearGradient
       id="linearGradient570">
      <stop
         style="stop-color:#ffffff;stop-opacity:1;"
         offset="0"
         id="stop571" />
      <stop
         style="stop-color:#ffffff;stop-opacity:0;"
         offset="1"
         id="stop572" />
    </linearGradient>
    <linearGradient
       id="linearGradient569"
       xlink:href="#linearGradient570"
       x1="4.5062934"
       y1="28.419151"
       x2="10.587883"
       y2="34.165891"
       gradientTransform="matrix(1.968455,0.000000,0.000000,0.601429,-2.773625,-2.857423)"
       gradientUnits="userSpaceOnUse" />
    <linearGradient
       id="linearGradient599">
      <stop
         style="stop-color:#ffffff;stop-opacity:1;"
         offset="0.00000000"
         id="stop600" />
      <stop
         style="stop-color:#d9cce6;stop-opacity:1;"
         offset="1.00000000"
         id="stop601" />
    </linearGradient>
    <linearGradient
       id="linearGradient584">
      <stop
         style="stop-color:#ffffff;stop-opacity:1;"
         offset="0.00000000"
         id="stop585" />
      <stop
         style="stop-color:#ffffff;stop-opacity:0;"
         offset="1.00000000"
         id="stop586" />
    </linearGradient>
    <linearGradient
       id="linearGradient578">
      <stop
         style="stop-color:#d9cce6;stop-opacity:1;"
         offset="0.00000000"
         id="stop579" />
      <stop
         style="stop-color:#73667f;stop-opacity:1;"
         offset="1.00000000"
         id="stop580" />
    </linearGradient>
    <linearGradient
       xlink:href="#linearGradient578"
       id="linearGradient581"
       x1="29.246807"
       y1="15.087389"
       x2="63.223397"
       y2="48.973614"
       gradientTransform="matrix(0.951819,0.000000,0.000000,1.243815,-2.773626,-2.857423)"
       gradientUnits="userSpaceOnUse" />
    <linearGradient
       xlink:href="#linearGradient578"
       id="linearGradient583"
       x1="56.852627"
       y1="42.295309"
       x2="37.284757"
       y2="22.054144"
       gradientTransform="matrix(0.946458,0.000000,0.000000,1.250861,-2.773625,-2.857423)"
       gradientUnits="userSpaceOnUse" />
    <linearGradient
       xlink:href="#linearGradient578"
       id="linearGradient860"
       x1="23.034609"
       y1="20.148667"
       x2="46.895220"
       y2="44.667199"
       gradientTransform="matrix(0.906756,0.000000,0.000000,1.305629,-2.773626,-2.857423)"
       gradientUnits="userSpaceOnUse" />
    <linearGradient
       xlink:href="#linearGradient599"
       id="linearGradient861"
       x1="49.991829"
       y1="35.969887"
       x2="43.203650"
       y2="28.948138"
       gradientTransform="matrix(0.953273,0.000000,0.000000,1.241919,-2.773626,-2.857423)"
       gradientUnits="userSpaceOnUse" />
    <linearGradient
       xlink:href="#linearGradient584"
       id="linearGradient862"
       x1="39.190879"
       y1="14.030076"
       x2="57.567912"
       y2="32.739193"
       gradientTransform="matrix(0.781038,0.000000,0.000000,1.515788,-2.773625,-2.857423)"
       gradientUnits="userSpaceOnUse" />
    <radialGradient
       xlink:href="#linearGradient578"
       id="radialGradient595"
       cx="0.33846155"
       cy="0.34375000"
       r="0.66501766"
       fx="0.33076921"
       fy="0.33593750" />
    <linearGradient
       xlink:href="#linearGradient584"
       id="linearGradient652"
       x1="17.116608"
       y1="34.725035"
       x2="24.862058"
       y2="42.191797"
       gradientTransform="matrix(1.381976,0.000000,0.000000,0.856662,-2.773625,-2.857423)"
       gradientUnits="userSpaceOnUse" />
    <linearGradient
       xlink:href="#linearGradient599"
       id="linearGradient654" />
    <linearGradient
       xlink:href="#linearGradient599"
       id="linearGradient661" />
    <linearGradient
       xlink:href="#linearGradient584"
       id="linearGradient616"
       x1="-0.00000000"
       y1="-0.00000000"
       x2="0.99637681"
       y2="0.92500001" />
    <linearGradient
       xlink:href="#linearGradient584"
       id="linearGradient618"
       x1="0.00000000"
       y1="-0.00000000"
       x2="1.00000000"
       y2="1.00781250" />
    <linearGradient
       xlink:href="#linearGradient584"
       id="linearGradient620"
       x1="-0.00000000"
       y1="0.00000000"
       x2="1.00000000"
       y2="0.99218750" />
    <linearGradient
       xlink:href="#linearGradient584"
       id="linearGradient633"
       x1="0.00000000"
       y1="0.00000000"
       x2="1.00000000"
       y2="0.00000000" />
    <linearGradient
       inkscape:collect="always"
       xlink:href="#linearGradient584"
       id="linearGradient2078"
       x1="56.422413"
       y1="23.103288"
       x2="67.372504"
       y2="34.251254"
       gradientTransform="matrix(0.781038,0.000000,0.000000,1.515788,-2.773625,-2.857423)"
       gradientUnits="userSpaceOnUse" />
    <linearGradient
       inkscape:collect="always"
       xlink:href="#linearGradient584"
       id="linearGradient2080"
       x1="53.456003"
       y1="24.163502"
       x2="57.160295"
       y2="27.934733"
       gradientTransform="matrix(0.781038,0.000000,0.000000,1.515788,-2.773625,-2.857423)"
       gradientUnits="userSpaceOnUse" />
    <linearGradient
       inkscape:collect="always"
       xlink:href="#linearGradient578"
       id="linearGradient2085"
       x1="0.72042161"
       y1="-9.7402802"
       x2="58.807354"
       y2="-9.7402802"
       gradientUnits="userSpaceOnUse" />
  </defs>
  <sodipodi:namedview
     id="base"
     pagecolor="#ffffff"
     bordercolor="#666666"
     borderopacity="1.0"
     inkscape:pageopacity="0.0"
     inkscape:pageshadow="2"
     inkscape:zoom="8.0000000"
     inkscape:cx="26.646973"
     inkscape:cy="31.097458"
     inkscape:window-width="895"
     inkscape:window-height="714"
     inkscape:window-x="7"
     inkscape:window-y="26"
     showborder="true"
     showgrid="false"
     inkscape:current-layer="svg1" />
  <g
     id="g650"
     style="font-size:12.000000px;opacity:0.29636899"
     transform="matrix(-0.705128,0.296573,0.335143,0.796832,51.40706,4.089334)">
    <path
       style="fill-rule:evenodd;stroke-width:1.8750000"
       d="M 40.181906,49.683924 C 43.741420,46.987630 55.413093,36.819956 56.782923,33.597578 C 58.501012,29.555960 56.258798,19.433555 53.192815,16.716700 C 50.944448,14.724357 36.640091,12.559718 32.521925,12.563247 C 28.414485,12.566766 34.838722,53.731330 40.181906,49.683924 z "
       id="path643"
       sodipodi:nodetypes="cssss" />
    <path
       style="fill-rule:evenodd;stroke-width:1.8750000"
       d="M 46.995589,33.682468 C 46.995589,44.404983 40.468842,53.107313 32.426956,53.107313 C 24.385071,53.107313 17.858323,44.404983 17.858323,33.682468 C 17.858323,22.959954 24.385071,14.257624 32.426956,14.257624 C 40.468842,14.257624 46.995589,22.959954 46.995589,33.682468 z "
       id="path644"
       transform="matrix(1.373487,0.000000,0.000000,1.373487,-17.61598,-13.82184)" />
  </g>
  <path
     style="font-size:12.000000px;fill:url(#linearGradient860);fill-rule:evenodd;stroke:#261933;stroke-width:1.8750000;stroke-opacity:1.0000000;stroke-miterlimit:4.0000000;stroke-dasharray:none"
     d="M 37.897374,54.387950 C 34.698345,53.262397 23.814207,48.565036 21.933367,46.473922 C 19.574355,43.851173 18.074003,35.589574 19.330808,32.734844 C 20.252458,30.641395 29.241987,25.299112 32.016421,24.236697 C 34.783628,23.177047 42.699433,56.077521 37.897374,54.387950 z "
     id="path637"
     sodipodi:nodetypes="cssss" />
  <path
     style="font-size:12.000000px;fill:url(#linearGradient652);fill-rule:evenodd;stroke-width:1.0000000pt"
     d="M 20.881891,33.539130 C 20.970161,33.258624 27.384581,27.847385 30.220610,26.904572 C 30.962520,26.657931 31.711870,29.665176 31.615706,29.970764 C 31.544910,30.195738 30.355390,28.284943 29.719733,28.496263 C 26.777451,29.474399 20.803202,33.789188 20.881891,33.539130 z "
     id="path642"
     sodipodi:nodetypes="cssss" />
  <path
     style="font-size:12.000000px;fill:url(#linearGradient581);fill-rule:evenodd;stroke:#261933;stroke-width:1.8750000;stroke-miterlimit:4.0000000;stroke-dasharray:none"
     d="M 28.273137,43.084276 C 32.927367,54.150114 42.665247,60.624115 50.009478,57.535172 C 57.353707,54.446229 59.536897,42.958292 54.882667,31.892455 C 50.228436,20.826617 40.490556,14.352616 33.146326,17.441559 C 25.802095,20.530502 23.618907,32.018439 28.273137,43.084276 z "
     id="path635" />
  <path
     style="font-size:12.000000px;fill:url(#linearGradient583);fill-rule:evenodd;stroke-width:0.37500000"
     d="M 33.423361,40.918109 C 36.275954,47.700395 42.244330,51.668330 46.745634,49.775107 C 51.246935,47.881884 52.585018,40.840892 49.732427,34.058605 C 46.879833,27.276318 40.911456,23.308384 36.410154,25.201606 C 31.908851,27.094830 30.570769,34.135822 33.423361,40.918109 z "
     id="path636" />
  <path
     style="font-size:12.000000px;fill:url(#linearGradient861);fill-rule:evenodd;stroke:#261933;stroke-width:0.36298043"
     d="M 38.895489,38.616574 C 39.833843,40.847589 41.797123,42.152832 43.277814,41.530061 C 44.758508,40.907288 45.198666,38.591172 44.260313,36.360159 C 43.321959,34.129139 41.358678,32.823900 39.877984,33.446671 C 38.397294,34.069441 37.957135,36.385556 38.895489,38.616574 z "
     id="path638" />
  <path
     style="font-size:12.000000px;fill:url(#linearGradient862);fill-rule:evenodd;stroke-width:1.0000000pt"
     d="M 32.304754,46.983778 C 31.917801,46.606828 24.560600,33.746471 29.585561,22.968678 C 32.840429,16.161906 42.164621,18.886508 42.552143,19.264011 C 42.904161,19.606928 34.986439,17.867987 31.804183,25.129934 C 27.096341,36.209817 32.657342,47.327246 32.304754,46.983778 z "
     id="path639"
     sodipodi:nodetypes="cssss" />
  <path
     style="font-size:12.000000px;fill:url(#linearGradient2080);fill-rule:evenodd;stroke-width:1.0000000pt"
     d="M 39.878320,39.529139 C 39.800322,39.453157 38.317314,36.860871 39.330209,34.688372 C 39.986296,33.316319 41.865792,33.865521 41.943905,33.941615 C 42.014862,34.010738 40.418872,33.660215 39.777420,35.124020 C 38.828451,37.357414 39.949391,39.598373 39.878320,39.529139 z "
     id="path640"
     sodipodi:nodetypes="cssss" />
  <path
     style="font-size:12.000000px;fill:url(#linearGradient2078);fill-rule:evenodd;stroke-width:1.0000000pt"
     d="M 47.407164,32.166873 C 47.637732,32.391480 52.021576,40.054419 49.027414,46.476447 C 47.087977,50.532310 41.532088,48.908838 41.301180,48.683899 C 41.091428,48.479569 45.809262,49.515729 47.705433,45.188646 C 50.510636,38.586616 47.197072,31.962213 47.407164,32.166873 z "
     id="path641"
     sodipodi:nodetypes="cssss" />
  <metadata
     id="metadata944">
    <rdf:RDF>
      <cc:Work
         rdf:about="">
        <dc:format>image/svg+xml</dc:format>
        <dc:type
           rdf:resource="http://purl.org/dc/dcmitype/StillImage" />
      </cc:Work>
    </rdf:RDF>
  </metadata>
  <g
     id="g804"
     style="opacity:0.29636899"
     transform="matrix(-1.223922e-17,1.109197,-1.088066,-1.247692e-17,50.07139,-3.304437)">
    <rect
       style="font-size:12.000000px;fill-rule:evenodd;stroke-width:1.8750000;stroke-linejoin:round"
       id="rect800"
       width="50.132931"
       height="3.4355054"
       x="5.0896378"
       y="10.576260"
       transform="translate(1.619513,21.95340)" />
    <path
       style="font-size:12.000000px;fill-rule:evenodd;stroke-width:1.8750000"
       d="M 16.866969,41.128024 C 17.564696,42.401376 22.070811,42.398300 22.754132,41.128024 C 24.008358,38.796449 23.334142,33.754771 22.679611,30.322472 C 22.315688,28.414098 20.688330,25.118524 19.698769,25.105998 C 18.725943,25.093684 17.124572,28.368824 16.792447,30.247950 C 16.180639,33.709498 15.577467,38.774685 16.866969,41.128024 z "
       id="path801"
       sodipodi:nodetypes="csssss" />
  </g>
  <rect
     style="font-size:12.000000px;fill:url(#linearGradient2085);fill-opacity:1.0;fill-rule:evenodd;stroke:#261933;stroke-width:1.8750004;stroke-linejoin:round;stroke-miterlimit:4.0000000;stroke-dasharray:none;stroke-opacity:1.0000000"
     id="rect788"
     width="56.211933"
     height="3.7380567"
     x="1.6579218"
     y="-11.609308"
     transform="matrix(-1.091561e-17,1.000000,-1.000000,-1.159174e-17,0.000000,0.000000)" />
  <path
     style="font-size:12.000000px;fill:url(#linearGradient566);fill-rule:evenodd;stroke:#261933;stroke-width:1.8750005;fill-opacity:1.0"
     d="M 2.0579254,13.465066 C 0.67243442,14.224239 0.67578131,19.127190 2.0579254,19.870688 C 4.5948329,21.235369 10.080511,20.501777 13.815079,19.789604 C 15.891517,19.393632 19.477318,17.622959 19.490947,16.546252 C 19.504346,15.487753 15.940778,13.745355 13.896164,13.383982 C 10.129771,12.718294 4.6185135,12.062003 2.0579254,13.465066 z "
     id="path789"
     sodipodi:nodetypes="csssss" />
  <path
     style="fill:url(#linearGradient569);fill-opacity:1.0000000;fill-rule:evenodd;stroke:none;stroke-width:1.0000000pt;stroke-linecap:butt;stroke-linejoin:miter;stroke-opacity:1.0000000"
     d="M 6.1062314,14.367670 C 6.4542568,14.128403 14.223831,13.946150 17.422381,16.314534 C 17.884523,16.639149 16.105325,18.033273 15.475517,17.653004 C 12.793558,15.912000 5.8053018,14.574559 6.1062314,14.367670 z "
     id="path790"
     sodipodi:nodetypes="csss" />
</svg>
