<?xml version="1.0" encoding="UTF-8" standalone="no"?>
<!-- Created with Inkscape (http://www.inkscape.org/) -->
<svg
   xmlns:dc="http://purl.org/dc/elements/1.1/"
   xmlns:cc="http://web.resource.org/cc/"
   xmlns:rdf="http://www.w3.org/1999/02/22-rdf-syntax-ns#"
   xmlns:svg="http://www.w3.org/2000/svg"
   xmlns="http://www.w3.org/2000/svg"
   xmlns:xlink="http://www.w3.org/1999/xlink"
   xmlns:sodipodi="http://inkscape.sourceforge.net/DTD/sodipodi-0.dtd"
   xmlns:inkscape="http://www.inkscape.org/namespaces/inkscape"
   version="1.0"
   x="0"
   y="0"
   width="48pt"
   height="48pt"
   id="svg1"
   sodipodi:version="0.32"
   inkscape:version="0.42"
   sodipodi:docname="locale.svg"
   sodipodi:docbase="/home/jakob/dev/lila/lila-theme/trunk/lila/kde/scalable/apps">
  <metadata
     id="metadata52">
    <rdf:RDF>
      <cc:Work
         rdf:about="">
        <dc:format>image/svg+xml</dc:format>
        <dc:type
           rdf:resource="http://purl.org/dc/dcmitype/StillImage" />
      </cc:Work>
    </rdf:RDF>
  </metadata>
  <sodipodi:namedview
     id="base"
     pagecolor="#ffffff"
     bordercolor="#666666"
     borderopacity="1.0"
     inkscape:pageopacity="0.0"
     inkscape:pageshadow="2"
     inkscape:zoom="5.6568543"
     inkscape:cx="22.048464"
     inkscape:cy="30.508141"
     inkscape:window-width="1018"
     inkscape:window-height="711"
     inkscape:window-x="0"
     inkscape:window-y="30"
     inkscape:current-layer="svg1" />
  <defs
     id="defs3">
    <linearGradient
       id="linearGradient716">
      <stop
         style="stop-color:#ffffff;stop-opacity:1;"
         offset="0.00000000"
         id="stop717" />
      <stop
         style="stop-color:#d9cce6;stop-opacity:1;"
         offset="1.00000000"
         id="stop718" />
    </linearGradient>
    <linearGradient
       id="linearGradient670">
      <stop
         style="stop-color:#ffff00;stop-opacity:1;"
         offset="0.00000000"
         id="stop671" />
      <stop
         style="stop-color:#ff9900;stop-opacity:1;"
         offset="1.00000000"
         id="stop672" />
    </linearGradient>
    <linearGradient
       id="linearGradient637">
      <stop
         style="stop-color:#0000ff;stop-opacity:1;"
         offset="0.00000000"
         id="stop638" />
      <stop
         style="stop-color:#00009a;stop-opacity:1;"
         offset="1.00000000"
         id="stop639" />
    </linearGradient>
    <linearGradient
       id="linearGradient630">
      <stop
         style="stop-color:#ff0000;stop-opacity:1;"
         offset="0.00000000"
         id="stop631" />
      <stop
         style="stop-color:#9a0000;stop-opacity:1;"
         offset="1.00000000"
         id="stop632" />
    </linearGradient>
    <linearGradient
       id="linearGradient570">
      <stop
         style="stop-color:#ffffff;stop-opacity:1;"
         offset="0"
         id="stop571" />
      <stop
         style="stop-color:#ffffff;stop-opacity:0;"
         offset="1"
         id="stop572" />
    </linearGradient>
    <linearGradient
       id="linearGradient563">
      <stop
         style="stop-color:#d9cce6;stop-opacity:1;"
         offset="0.00000000"
         id="stop564" />
      <stop
         style="stop-color:#73667f;stop-opacity:1;"
         offset="1.00000000"
         id="stop565" />
    </linearGradient>
    <linearGradient
       id="linearGradient566"
       xlink:href="#linearGradient630"
       x1="8.7323473"
       y1="4.2440617"
       x2="24.776736"
       y2="41.026382"
       gradientTransform="matrix(1.976851,0.000000,0.000000,0.527555,-0.516965,-1.060660)"
       gradientUnits="userSpaceOnUse" />
    <linearGradient
       id="linearGradient569"
       xlink:href="#linearGradient637"
       x1="0.95131854"
       y1="9.8793442"
       x2="20.686366"
       y2="20.694660"
       gradientTransform="matrix(1.036708,0.000000,0.000000,1.005970,-0.516965,-1.060660)"
       gradientUnits="userSpaceOnUse" />
    <linearGradient
       id="linearGradient573"
       xlink:href="#linearGradient570"
       x1="44.974625"
       y1="-18.310238"
       x2="45.252487"
       y2="25.699633"
       gradientTransform="matrix(0.686109,0.000000,0.000000,1.520017,-0.516965,-1.060660)"
       gradientUnits="userSpaceOnUse" />
    <linearGradient
       id="linearGradient575"
       xlink:href="#linearGradient670"
       x1="40.406354"
       y1="13.638007"
       x2="43.474898"
       y2="38.005864"
       gradientTransform="scale(1.588069,0.629696)"
       gradientUnits="userSpaceOnUse" />
    <linearGradient
       id="linearGradient578"
       xlink:href="#linearGradient716"
       x1="11.679957"
       y1="10.746445"
       x2="44.199531"
       y2="35.632317"
       gradientTransform="matrix(1.116922,0.000000,0.000000,0.933725,-0.516965,-1.060660)"
       gradientUnits="userSpaceOnUse" />
    <linearGradient
       inkscape:collect="always"
       xlink:href="#linearGradient630"
       id="linearGradient1350"
       x1="39.068790"
       y1="-7.0569032"
       x2="58.706313"
       y2="37.962804"
       gradientTransform="scale(1.576485,0.634323)"
       gradientUnits="userSpaceOnUse" />
    <linearGradient
       inkscape:collect="always"
       xlink:href="#linearGradient570"
       id="linearGradient1352"
       x1="115.54298"
       y1="-29.201577"
       x2="115.82084"
       y2="14.808294"
       gradientTransform="scale(0.657887,1.520017)"
       gradientUnits="userSpaceOnUse" />
    <linearGradient
       inkscape:collect="always"
       xlink:href="#linearGradient630"
       id="linearGradient1354"
       x1="7.1729720"
       y1="58.795412"
       x2="22.521366"
       y2="93.982141"
       gradientTransform="matrix(2.066494,0.000000,0.000000,0.504670,-0.516965,-1.060660)"
       gradientUnits="userSpaceOnUse" />
    <linearGradient
       inkscape:collect="always"
       xlink:href="#linearGradient630"
       id="linearGradient1356"
       x1="7.6855226"
       y1="40.061445"
       x2="23.356443"
       y2="75.987577"
       gradientTransform="matrix(2.042116,0.000000,0.000000,0.510695,-0.516965,-1.060660)"
       gradientUnits="userSpaceOnUse" />
    <linearGradient
       inkscape:collect="always"
       xlink:href="#linearGradient630"
       id="linearGradient1358"
       x1="7.8994780"
       y1="23.495819"
       x2="23.247872"
       y2="58.682548"
       gradientTransform="matrix(2.066494,0.000000,0.000000,0.504670,-0.516965,-1.060660)"
       gradientUnits="userSpaceOnUse" />
  </defs>
  <g
     id="g692"
     transform="matrix(1.042897,0.000000,0.000000,1.000000,-34.85967,30.96971)">
    <path
       style="fill:url(#linearGradient575);fill-opacity:1.0000000;fill-rule:evenodd;stroke:none;stroke-width:1.0000000pt;stroke-linecap:butt;stroke-linejoin:miter;stroke-opacity:1.0000000"
       d="M 48.225491,13.034130 C 52.064337,16.812993 59.861991,16.273156 65.500295,12.854184 C 73.417912,8.8953751 80.975638,8.1755920 88.533364,11.774509 C 88.533364,13.334040 87.813581,21.371622 87.813581,22.931153 C 80.675728,19.332236 73.177984,19.692127 65.320348,22.931153 C 59.802008,26.170179 52.844102,26.889962 47.685654,22.931153 C 47.865600,21.551568 48.045545,14.413715 48.225491,13.034130 z "
       id="path654"
       sodipodi:nodetypes="ccccccc" />
    <path
       style="fill:url(#linearGradient1350);fill-opacity:1.0000000;fill-rule:evenodd;stroke:none;stroke-width:1.0000000pt;stroke-linecap:butt;stroke-linejoin:miter;stroke-opacity:1.0000000"
       d="M 49.665058,2.7772162 C 53.503903,6.5560792 60.941666,5.6563502 66.579970,2.2373782 C 75.577263,-1.7214308 80.975639,-1.7214305 89.253148,1.8774865 C 89.253148,3.4370175 88.893256,10.394924 88.893256,11.954455 C 81.755403,8.3555383 74.977443,9.0753211 67.119807,12.314347 C 61.601467,15.553373 53.563886,17.352831 48.405438,13.394022 C 48.585384,12.014437 49.485112,4.1568012 49.665058,2.7772162 z "
       id="path656"
       sodipodi:nodetypes="ccccccc" />
    <path
       style="fill:#000000;fill-opacity:1.0000000;fill-rule:evenodd;stroke:none;stroke-width:1.0000000pt;stroke-linecap:butt;stroke-linejoin:miter;stroke-opacity:1.0000000"
       d="M 50.564788,-7.4796984 C 54.403633,-3.7008354 61.841395,-4.6005644 67.479699,-8.0195364 C 74.677533,-13.417912 82.955043,-12.698128 90.152877,-8.0195364 C 90.152877,-6.4600054 89.433094,0.49790145 89.433094,2.0574325 C 82.295241,-1.1815927 75.157389,-1.5414851 67.659644,2.0574325 C 62.141304,5.2964585 53.743831,7.8157001 48.585383,3.8568911 C 48.765329,2.4773061 50.384842,-6.1001134 50.564788,-7.4796984 z "
       id="path657"
       sodipodi:nodetypes="ccccccc" />
    <path
       style="fill:url(#linearGradient1352);fill-opacity:1.0000000;fill-rule:evenodd;stroke:none;stroke-width:1.0000000pt;stroke-linecap:butt;stroke-linejoin:miter;stroke-opacity:1.0000000"
       d="M 72.338237,-9.6390484 L 71.078616,15.013535 L 80.435801,14.653643 L 82.595151,-11.078615 C 79.176180,-11.678434 75.397317,-12.278254 72.338237,-9.6390484 z "
       id="path659"
       sodipodi:nodetypes="ccccc" />
    <path
       style="fill:none;fill-opacity:1.0000000;fill-rule:evenodd;stroke:#261933;stroke-width:0.97921762pt;stroke-linecap:butt;stroke-linejoin:miter;stroke-opacity:1.0000000"
       d="M 50.204896,-7.2997524 L 47.325762,23.470990 C 52.004355,26.650034 58.122514,26.590052 62.441215,24.370720 C 71.978346,19.572164 80.435801,19.452200 87.813581,22.931153 L 90.332823,-7.1198064 C 83.734808,-13.118001 75.697226,-12.278254 69.459103,-8.9192654 C 63.041034,-4.7805104 55.543290,-4.6005644 50.204896,-7.2997524 z "
       id="path660"
       sodipodi:nodetypes="ccccccc" />
  </g>
  <path
     style="font-size:12.000000px;fill:#000000;fill-opacity:0.40322599;fill-rule:evenodd;stroke:none;stroke-width:1.0000000pt"
     d="M 4.9253217,9.9940658 L 1.9226809,40.764808 C 6.8019723,43.943852 13.182584,43.883870 17.686545,41.664538 C 27.632793,36.865982 36.453049,36.746018 44.147317,40.224971 L 46.774627,10.174011 C 39.893576,4.1758158 31.511202,5.0155632 25.005481,8.3745526 C 18.312094,12.513308 10.492719,12.693254 4.9253217,9.9940658 z "
     id="path715"
     sodipodi:nodetypes="ccccccc" />
  <path
     style="font-size:12.000000px;fill:url(#linearGradient578);fill-rule:evenodd;stroke-width:1.0000000pt"
     d="M 3.4240013,8.1946068 L 0.42136054,38.965349 C 5.3006519,42.144393 11.681264,42.084411 16.185224,39.865079 C 26.131472,35.066523 34.951730,34.946559 42.645997,38.425512 L 45.273307,8.3745526 C 38.392254,2.3763572 30.009882,3.2161046 23.504161,6.5750940 C 16.810774,10.713849 8.9913976,10.893795 3.4240013,8.1946068 z "
     id="path673"
     sodipodi:nodetypes="ccccccc" />
  <path
     style="font-size:12.000000px;fill:url(#linearGradient1354);fill-rule:evenodd;stroke-width:1.0000000pt"
     d="M 1.3596858,34.286757 C 5.3632069,38.065620 13.120029,37.165891 19.000200,33.746919 C 27.257461,29.788110 34.764065,30.148002 42.645997,33.746919 C 42.645997,35.306450 42.645997,36.865981 42.645997,38.425512 C 35.201949,34.826595 27.382572,35.186486 19.187864,38.425512 C 13.432804,41.664538 6.1764218,42.384321 0.79669060,38.425512 C 0.98435569,37.045927 1.1720207,35.666342 1.3596858,34.286757 z "
     id="path629"
     sodipodi:nodetypes="ccccccc" />
  <path
     style="font-size:12.000000px;fill:url(#linearGradient1356);fill-rule:evenodd;stroke-width:1.0000000pt"
     d="M 2.4856761,25.289464 C 6.4891972,29.068327 14.246019,28.168598 20.126190,24.749626 C 28.008122,20.430925 35.890055,21.150709 43.771986,24.749626 C 43.771986,26.309157 43.771986,27.868688 43.771986,29.428219 C 36.327938,25.829302 28.508561,26.189193 20.313854,29.428219 C 14.558794,32.667245 6.9270821,33.746920 1.5473508,29.788111 C 1.7350159,28.408526 2.2980110,26.669049 2.4856761,25.289464 z "
     id="path633"
     sodipodi:nodetypes="ccccccc" />
  <path
     style="font-size:12.000000px;fill:url(#linearGradient1358);fill-rule:evenodd;stroke-width:1.0000000pt"
     d="M 2.8610061,16.472117 C 6.8645273,20.250980 14.621349,19.351251 20.501521,15.932279 C 29.884774,11.973470 35.514724,12.333362 44.147317,15.932279 C 44.147317,17.491810 44.147317,19.051341 44.147317,20.610872 C 36.703270,17.011955 28.883892,17.371846 20.689185,20.610872 C 14.934124,23.849898 7.6777422,24.569681 2.2980110,20.610872 C 2.4856761,19.231287 2.6733411,17.851702 2.8610061,16.472117 z "
     id="path634"
     sodipodi:nodetypes="ccccccc" />
  <path
     style="font-size:12.000000px;fill:url(#linearGradient566);fill-rule:evenodd;stroke-width:1.0000000pt"
     d="M 3.7993314,8.0146610 C 7.8028525,11.793524 15.559675,10.893795 21.439846,7.4748230 C 28.946447,2.0764470 37.579041,2.7962310 45.085642,7.4748230 C 45.085642,9.0343538 45.085642,10.593885 45.085642,12.153416 C 37.641595,7.4748238 29.071557,7.8347148 21.627510,12.153416 C 15.872448,15.392442 8.6160674,16.112225 3.2363362,12.153416 C 3.4240013,10.773831 3.6116663,9.3942458 3.7993314,8.0146610 z "
     id="path635"
     sodipodi:nodetypes="ccccccc" />
  <path
     style="font-size:12.000000px;fill:url(#linearGradient569);fill-opacity:1.0000000;fill-rule:evenodd;stroke-width:1.0000000pt"
     d="M 1.9226809,22.050438 C 6.6768621,24.509698 12.932363,24.449716 17.311214,21.870492 C 17.436325,17.671755 17.561435,13.473019 17.686545,9.2742818 C 11.806373,10.833813 7.8028525,10.233993 3.4240013,8.5544985 C 2.9235612,13.053145 2.4231210,17.551792 1.9226809,22.050438 z "
     id="path636"
     sodipodi:nodetypes="ccccc" />
  <path
     style="font-size:12.000000px;fill:url(#linearGradient573);fill-opacity:1.0000000;fill-rule:evenodd;stroke-width:1.0000000pt"
     d="M 26.506802,5.8553106 L 25.193146,30.507894 L 34.951730,30.148002 L 37.203709,4.4157437 C 33.638075,3.8159242 29.697108,3.2161046 26.506802,5.8553106 z "
     id="path640"
     sodipodi:nodetypes="ccccc" />
  <path
     style="font-size:12.000000px;fill:none;fill-opacity:1.0000000;fill-rule:evenodd;stroke:#261933;stroke-width:0.99999981pt"
     d="M 3.6544498,7.9736360 L 0.65181062,38.744378 C 5.5311002,41.923422 11.911711,41.863440 16.415671,39.644108 C 26.361915,34.845552 35.182171,34.725588 42.876436,38.204541 L 45.503746,8.1535818 C 38.622695,2.1553864 30.240324,2.9951338 23.734605,6.3541232 C 17.041221,10.492878 9.2218449,10.672824 3.6544498,7.9736360 z "
     id="path628"
     sodipodi:nodetypes="ccccccc" />
  <polygon
     sodipodi:type="star"
     style="font-size:12.000000px;fill:#ffffff;fill-rule:evenodd;stroke-width:1.0000000pt"
     id="polygon641"
     sodipodi:sides="5"
     sodipodi:cx="-34.909496"
     sodipodi:cy="23.650936"
     sodipodi:r1="2.5952160"
     sodipodi:r2="1.2976080"
     sodipodi:arg1="0.98279372"
     sodipodi:arg2="1.6111122"
     points="-33.4699,25.8103 -34.9618,24.9475 -36.5183,25.6873 -36.1588,24.0019 -37.3434,22.7501 -35.6293,22.5713 -34.8049,21.0578 -34.1051,22.6327 -32.411,22.9491 -33.6926,24.1013 -33.4699,25.8103 "
     transform="matrix(0.662422,0.000000,0.000000,0.635175,29.75142,-2.555468)"
     inkscape:flatsided="false"
     inkscape:rounded="0.0000000"
     inkscape:randomized="0.0000000"
     d="M -33.469929,25.810286 L -34.961796,24.947490 L -36.518310,25.687321 L -36.158754,24.001853 L -37.343365,22.750141 L -35.629280,22.571261 L -34.804896,21.057829 L -34.105090,22.632743 L -32.410982,22.949103 L -33.692562,24.101334 L -33.469929,25.810286 z " />
  <polygon
     sodipodi:type="star"
     style="font-size:12.000000px;fill:#ffffff;fill-rule:evenodd;stroke-width:1.0000000pt"
     id="polygon642"
     sodipodi:sides="5"
     sodipodi:cx="-34.909496"
     sodipodi:cy="23.650936"
     sodipodi:r1="2.5952160"
     sodipodi:r2="1.2976080"
     sodipodi:arg1="0.98279372"
     sodipodi:arg2="1.6111122"
     points="-33.4699,25.8103 -34.9618,24.9475 -36.5183,25.6873 -36.1588,24.0019 -37.3434,22.7501 -35.6293,22.5713 -34.8049,21.0578 -34.1051,22.6327 -32.411,22.9491 -33.6926,24.1013 -33.4699,25.8103 "
     transform="matrix(0.662422,0.000000,0.000000,0.635175,33.88005,-1.835685)"
     inkscape:flatsided="false"
     inkscape:rounded="0.0000000"
     inkscape:randomized="0.0000000"
     d="M -33.469929,25.810286 L -34.961796,24.947490 L -36.518310,25.687321 L -36.158754,24.001853 L -37.343365,22.750141 L -35.629280,22.571261 L -34.804896,21.057829 L -34.105090,22.632743 L -32.410982,22.949103 L -33.692562,24.101334 L -33.469929,25.810286 z " />
  <polygon
     sodipodi:type="star"
     style="font-size:12.000000px;fill:#ffffff;fill-rule:evenodd;stroke-width:1.0000000pt"
     id="polygon643"
     sodipodi:sides="5"
     sodipodi:cx="-34.909496"
     sodipodi:cy="23.650936"
     sodipodi:r1="2.5952160"
     sodipodi:r2="1.2976080"
     sodipodi:arg1="0.98279372"
     sodipodi:arg2="1.6111122"
     points="-33.4699,25.8103 -34.9618,24.9475 -36.5183,25.6873 -36.1588,24.0019 -37.3434,22.7501 -35.6293,22.5713 -34.8049,21.0578 -34.1051,22.6327 -32.411,22.9491 -33.6926,24.1013 -33.4699,25.8103 "
     transform="matrix(0.662422,0.000000,0.000000,0.635175,38.38401,-2.555468)"
     inkscape:flatsided="false"
     inkscape:rounded="0.0000000"
     inkscape:randomized="0.0000000"
     d="M -33.469929,25.810286 L -34.961796,24.947490 L -36.518310,25.687321 L -36.158754,24.001853 L -37.343365,22.750141 L -35.629280,22.571261 L -34.804896,21.057829 L -34.105090,22.632743 L -32.410982,22.949103 L -33.692562,24.101334 L -33.469929,25.810286 z " />
  <polygon
     sodipodi:type="star"
     style="font-size:12.000000px;fill:#ffffff;fill-rule:evenodd;stroke-width:1.0000000pt"
     id="polygon648"
     sodipodi:sides="5"
     sodipodi:cx="-34.909496"
     sodipodi:cy="23.650936"
     sodipodi:r1="2.5952160"
     sodipodi:r2="1.2976080"
     sodipodi:arg1="0.98279372"
     sodipodi:arg2="1.6111122"
     points="-33.4699,25.8103 -34.9618,24.9475 -36.5183,25.6873 -36.1588,24.0019 -37.3434,22.7501 -35.6293,22.5713 -34.8049,21.0578 -34.1051,22.6327 -32.411,22.9491 -33.6926,24.1013 -33.4699,25.8103 "
     transform="matrix(0.662422,0.000000,0.000000,0.635175,29.37609,1.403341)"
     inkscape:flatsided="false"
     inkscape:rounded="0.0000000"
     inkscape:randomized="0.0000000"
     d="M -33.469929,25.810286 L -34.961796,24.947490 L -36.518310,25.687321 L -36.158754,24.001853 L -37.343365,22.750141 L -35.629280,22.571261 L -34.804896,21.057829 L -34.105090,22.632743 L -32.410982,22.949103 L -33.692562,24.101334 L -33.469929,25.810286 z " />
  <polygon
     sodipodi:type="star"
     style="font-size:12.000000px;fill:#ffffff;fill-rule:evenodd;stroke-width:1.0000000pt"
     id="polygon649"
     sodipodi:sides="5"
     sodipodi:cx="-34.909496"
     sodipodi:cy="23.650936"
     sodipodi:r1="2.5952160"
     sodipodi:r2="1.2976080"
     sodipodi:arg1="0.98279372"
     sodipodi:arg2="1.6111122"
     points="-33.4699,25.8103 -34.9618,24.9475 -36.5183,25.6873 -36.1588,24.0019 -37.3434,22.7501 -35.6293,22.5713 -34.8049,21.0578 -34.1051,22.6327 -32.411,22.9491 -33.6926,24.1013 -33.4699,25.8103 "
     transform="matrix(0.662422,0.000000,0.000000,0.635175,33.88005,2.123124)"
     inkscape:flatsided="false"
     inkscape:rounded="0.0000000"
     inkscape:randomized="0.0000000"
     d="M -33.469929,25.810286 L -34.961796,24.947490 L -36.518310,25.687321 L -36.158754,24.001853 L -37.343365,22.750141 L -35.629280,22.571261 L -34.804896,21.057829 L -34.105090,22.632743 L -32.410982,22.949103 L -33.692562,24.101334 L -33.469929,25.810286 z " />
  <polygon
     sodipodi:type="star"
     style="font-size:12.000000px;fill:#ffffff;fill-rule:evenodd;stroke-width:1.0000000pt"
     id="polygon650"
     sodipodi:sides="5"
     sodipodi:cx="-34.909496"
     sodipodi:cy="23.650936"
     sodipodi:r1="2.5952160"
     sodipodi:r2="1.2976080"
     sodipodi:arg1="0.98279372"
     sodipodi:arg2="1.6111122"
     points="-33.4699,25.8103 -34.9618,24.9475 -36.5183,25.6873 -36.1588,24.0019 -37.3434,22.7501 -35.6293,22.5713 -34.8049,21.0578 -34.1051,22.6327 -32.411,22.9491 -33.6926,24.1013 -33.4699,25.8103 "
     transform="matrix(0.662422,0.000000,0.000000,0.635175,38.38401,1.403341)"
     inkscape:flatsided="false"
     inkscape:rounded="0.0000000"
     inkscape:randomized="0.0000000"
     d="M -33.469929,25.810286 L -34.961796,24.947490 L -36.518310,25.687321 L -36.158754,24.001853 L -37.343365,22.750141 L -35.629280,22.571261 L -34.804896,21.057829 L -34.105090,22.632743 L -32.410982,22.949103 L -33.692562,24.101334 L -33.469929,25.810286 z " />
  <polygon
     sodipodi:type="star"
     style="font-size:12.000000px;fill:#ffffff;fill-rule:evenodd;stroke-width:1.0000000pt"
     id="polygon651"
     sodipodi:sides="5"
     sodipodi:cx="-34.909496"
     sodipodi:cy="23.650936"
     sodipodi:r1="2.5952160"
     sodipodi:r2="1.2976080"
     sodipodi:arg1="0.98279372"
     sodipodi:arg2="1.6111122"
     points="-33.4699,25.8103 -34.9618,24.9475 -36.5183,25.6873 -36.1588,24.0019 -37.3434,22.7501 -35.6293,22.5713 -34.8049,21.0578 -34.1051,22.6327 -32.411,22.9491 -33.6926,24.1013 -33.4699,25.8103 "
     transform="matrix(0.662422,0.000000,0.000000,0.635175,29.00076,5.722042)"
     inkscape:flatsided="false"
     inkscape:rounded="0.0000000"
     inkscape:randomized="0.0000000"
     d="M -33.469929,25.810286 L -34.961796,24.947490 L -36.518310,25.687321 L -36.158754,24.001853 L -37.343365,22.750141 L -35.629280,22.571261 L -34.804896,21.057829 L -34.105090,22.632743 L -32.410982,22.949103 L -33.692562,24.101334 L -33.469929,25.810286 z " />
  <polygon
     sodipodi:type="star"
     style="font-size:12.000000px;fill:#ffffff;fill-rule:evenodd;stroke-width:1.0000000pt"
     id="polygon652"
     sodipodi:sides="5"
     sodipodi:cx="-34.909496"
     sodipodi:cy="23.650936"
     sodipodi:r1="2.5952160"
     sodipodi:r2="1.2976080"
     sodipodi:arg1="0.98279372"
     sodipodi:arg2="1.6111122"
     points="-33.4699,25.8103 -34.9618,24.9475 -36.5183,25.6873 -36.1588,24.0019 -37.3434,22.7501 -35.6293,22.5713 -34.8049,21.0578 -34.1051,22.6327 -32.411,22.9491 -33.6926,24.1013 -33.4699,25.8103 "
     transform="matrix(0.662422,0.000000,0.000000,0.635175,33.50472,6.081933)"
     inkscape:flatsided="false"
     inkscape:rounded="0.0000000"
     inkscape:randomized="0.0000000"
     d="M -33.469929,25.810286 L -34.961796,24.947490 L -36.518310,25.687321 L -36.158754,24.001853 L -37.343365,22.750141 L -35.629280,22.571261 L -34.804896,21.057829 L -34.105090,22.632743 L -32.410982,22.949103 L -33.692562,24.101334 L -33.469929,25.810286 z " />
  <polygon
     sodipodi:type="star"
     style="font-size:12.000000px;fill:#ffffff;fill-rule:evenodd;stroke-width:1.0000000pt"
     id="polygon653"
     sodipodi:sides="5"
     sodipodi:cx="-34.909496"
     sodipodi:cy="23.650936"
     sodipodi:r1="2.5952160"
     sodipodi:r2="1.2976080"
     sodipodi:arg1="0.98279372"
     sodipodi:arg2="1.6111122"
     points="-33.4699,25.8103 -34.9618,24.9475 -36.5183,25.6873 -36.1588,24.0019 -37.3434,22.7501 -35.6293,22.5713 -34.8049,21.0578 -34.1051,22.6327 -32.411,22.9491 -33.6926,24.1013 -33.4699,25.8103 "
     transform="matrix(0.662422,0.000000,0.000000,0.635175,38.00868,5.362150)"
     inkscape:flatsided="false"
     inkscape:rounded="0.0000000"
     inkscape:randomized="0.0000000"
     d="M -33.469929,25.810286 L -34.961796,24.947490 L -36.518310,25.687321 L -36.158754,24.001853 L -37.343365,22.750141 L -35.629280,22.571261 L -34.804896,21.057829 L -34.105090,22.632743 L -32.410982,22.949103 L -33.692562,24.101334 L -33.469929,25.810286 z " />
</svg>
