<?xml version="1.0" encoding="UTF-8" standalone="no"?>
<!-- Created with Inkscape (http://www.inkscape.org/) -->
<svg
   xmlns:dc="http://purl.org/dc/elements/1.1/"
   xmlns:cc="http://web.resource.org/cc/"
   xmlns:rdf="http://www.w3.org/1999/02/22-rdf-syntax-ns#"
   xmlns:svg="http://www.w3.org/2000/svg"
   xmlns="http://www.w3.org/2000/svg"
   xmlns:xlink="http://www.w3.org/1999/xlink"
   xmlns:sodipodi="http://inkscape.sourceforge.net/DTD/sodipodi-0.dtd"
   xmlns:inkscape="http://www.inkscape.org/namespaces/inkscape"
   id="svg634"
   sodipodi:version="0.32"
   width="48pt"
   height="48pt"
   xml:space="preserve"
   sodipodi:docbase="/home/jakob/dev/lila/lila-theme/trunk/lila/kde/scalable/apps"
   sodipodi:docname="looknfeel.svg"
   inkscape:version="0.42"><metadata
   id="metadata61"><rdf:RDF><cc:Work
       rdf:about=""><dc:format>image/svg+xml</dc:format><dc:type
         rdf:resource="http://purl.org/dc/dcmitype/StillImage" /></cc:Work></rdf:RDF></metadata>
  <defs
   id="defs636">
    <linearGradient
   id="linearGradient670">
      <stop
   offset="0.00000000"
   style="stop-color:#ffffff;stop-opacity:1;"
   id="stop671" />
      <stop
   offset="1.00000000"
   style="stop-color:#ffffff;stop-opacity:0;"
   id="stop672" />
    </linearGradient>
    <linearGradient
   id="linearGradient725">
      <stop
   offset="0"
   style="stop-color:#d9cce6;stop-opacity:1;"
   id="stop726" />
      <stop
   offset="1"
   style="stop-color:#73667f;stop-opacity:1;"
   id="stop727" />
    </linearGradient>
    <linearGradient
   id="linearGradient796">
      <stop
   offset="0.0000000"
   style="stop-color:#faebdc;stop-opacity:1.0000000;"
   id="stop797" />
      <stop
   offset="1.0000000"
   style="stop-color:#c7b397;stop-opacity:1.0000000;"
   id="stop798" />
    </linearGradient>
    <linearGradient
   id="linearGradient799">
      <stop
   offset="0.0000000"
   style="stop-color:#ffffff;stop-opacity:1.0000000;"
   id="stop800" />
      <stop
   offset="1.0000000"
   style="stop-color:#d9cce6;stop-opacity:1.0000000;"
   id="stop801" />
    </linearGradient>
    <linearGradient
   xlink:href="#linearGradient725"
   id="linearGradient686"
   x1="0.18808044"
   y1="21.226264"
   x2="43.149744"
   y2="63.372199"
   gradientTransform="matrix(1.094005,0.000000,0.000000,0.916515,-0.223526,-8.050961e-15)"
   gradientUnits="userSpaceOnUse" />
    <linearGradient
   xlink:href="#linearGradient796"
   id="linearGradient795"
   x1="-1.71303893e-9"
   y1="4.26109592e-9"
   x2="0.99999994"
   y2="4.26109592e-9" />
    <linearGradient
   xlink:href="#linearGradient799"
   id="linearGradient812"
   x1="-1.71303893e-9"
   y1="4.26109592e-9"
   x2="0.99999994"
   y2="4.26109592e-9" />
    <linearGradient
   xlink:href="#linearGradient670"
   id="linearGradient669"
   x1="2.9021026"
   y1="26.932000"
   x2="14.442271"
   y2="38.423062"
   gradientTransform="scale(1.221957,0.818359)"
   gradientUnits="userSpaceOnUse" />
    <linearGradient
   xlink:href="#linearGradient670"
   id="linearGradient674"
   x1="37.803532"
   y1="12.715252"
   x2="44.796666"
   y2="19.965096"
   gradientTransform="scale(0.360281,2.775613)"
   gradientUnits="userSpaceOnUse" />
    <linearGradient
   xlink:href="#linearGradient670"
   id="linearGradient676"
   x1="24.303240"
   y1="22.138899"
   x2="29.596537"
   y2="27.502735"
   gradientTransform="scale(0.997513,1.002493)"
   gradientUnits="userSpaceOnUse" />
    <linearGradient
   xlink:href="#linearGradient796"
   id="linearGradient743"
   x1="0.18991043"
   y1="21.228617"
   x2="43.147560"
   y2="63.370617"
   gradientTransform="scale(1.091098,0.916508)"
   gradientUnits="userSpaceOnUse" />
    <linearGradient
   xlink:href="#linearGradient799"
   id="linearGradient767"
   x1="0.18991043"
   y1="21.228617"
   x2="43.147560"
   y2="63.370617"
   gradientTransform="scale(1.091098,0.916508)"
   gradientUnits="userSpaceOnUse" />
  <linearGradient
   inkscape:collect="always"
   xlink:href="#linearGradient670"
   id="linearGradient1357"
   x1="2.9021026"
   y1="26.932000"
   x2="14.442271"
   y2="38.423062"
   gradientTransform="matrix(1.225222,0.000000,0.000000,0.818359,-0.223526,-8.050961e-15)"
   gradientUnits="userSpaceOnUse" /><linearGradient
   inkscape:collect="always"
   xlink:href="#linearGradient670"
   id="linearGradient1359"
   x1="37.803532"
   y1="12.715252"
   x2="44.796666"
   y2="19.965096"
   gradientTransform="matrix(0.361244,0.000000,0.000000,2.775613,-0.223526,-8.050961e-15)"
   gradientUnits="userSpaceOnUse" /><linearGradient
   inkscape:collect="always"
   xlink:href="#linearGradient670"
   id="linearGradient1361"
   x1="24.303240"
   y1="22.138899"
   x2="29.596537"
   y2="27.502735"
   gradientTransform="matrix(1.000178,0.000000,0.000000,1.002493,-0.223526,-8.050961e-15)"
   gradientUnits="userSpaceOnUse" /><linearGradient
   inkscape:collect="always"
   xlink:href="#linearGradient670"
   id="linearGradient1369"
   x1="2.9021026"
   y1="26.932000"
   x2="14.442271"
   y2="38.423062"
   gradientTransform="scale(1.221957,0.818359)"
   gradientUnits="userSpaceOnUse" /><linearGradient
   inkscape:collect="always"
   xlink:href="#linearGradient670"
   id="linearGradient1371"
   x1="37.803532"
   y1="12.715252"
   x2="44.796666"
   y2="19.965096"
   gradientTransform="scale(0.360281,2.775613)"
   gradientUnits="userSpaceOnUse" /><linearGradient
   inkscape:collect="always"
   xlink:href="#linearGradient670"
   id="linearGradient1373"
   x1="24.303240"
   y1="22.138899"
   x2="29.596537"
   y2="27.502735"
   gradientTransform="scale(0.997513,1.002493)"
   gradientUnits="userSpaceOnUse" /></defs>
  <sodipodi:namedview
   id="base"
   inkscape:zoom="11.650952"
   inkscape:cx="24.452588"
   inkscape:cy="30.367868"
   inkscape:window-width="1400"
   inkscape:window-height="997"
   inkscape:window-x="0"
   inkscape:window-y="0"
   inkscape:current-layer="g768" />
  
  
  <g
   id="g768"
   transform="matrix(0.932385,0.000000,0.000000,0.932385,4.170500,-3.607003e-2)">
    <path
   style="font-size:12.000000px;opacity:0.29597899;fill-rule:evenodd;stroke-width:1.8750000;stroke-linejoin:round"
   d="M 2.2155862,33.190641 C 2.3966782,33.134499 5.1959784,31.358806 6.8156459,30.297590 C 7.6438787,29.764846 9.7250216,28.350662 10.642723,27.578289 C 11.411610,27.034297 11.715425,26.685954 13.329428,25.512373 C 15.016613,24.221649 15.709109,23.770304 17.345102,22.696612 C 18.205760,22.191183 19.036902,22.114127 19.320633,22.001001 C 19.749278,22.037820 20.360144,22.650593 21.752166,23.439691 C 22.682801,23.994567 23.661585,24.567406 25.241263,24.679831 C 27.126369,24.567406 28.005123,23.949532 29.360427,23.119962 C 29.643053,22.937083 30.837488,22.184489 31.507497,22.128347 C 32.192224,22.202899 32.520261,22.412941 32.733204,22.560441 C 33.150966,22.626320 36.349799,24.849088 36.515243,25.067042 C 36.808377,25.216368 41.931723,29.229831 42.241207,29.505215 C 42.585118,29.773519 47.095651,32.604272 47.859331,33.039642 C 47.183205,33.812157 46.545816,34.397238 45.121722,35.895113 C 43.034546,38.131645 42.005219,39.344714 41.285316,40.129319 C 40.008255,40.121032 39.272083,39.570194 38.367749,39.095651 C 36.733024,37.715689 35.661117,36.886190 35.266400,36.864657 C 35.192457,37.213294 35.424429,39.414011 35.913770,43.019185 C 36.886133,50.239333 38.078895,58.796091 37.511747,59.480280 C 35.192457,60.169510 32.075204,60.045897 27.207301,59.995375 C 23.262506,59.952622 19.379415,59.494660 17.592623,59.454040 C 16.115902,59.422708 13.492427,60.207009 13.167332,59.430305 C 12.844752,58.819146 13.165729,56.741058 14.484295,43.432860 C 15.158676,37.151979 15.407414,37.047313 15.288538,36.805016 C 14.282844,37.552812 13.347695,37.903660 12.619069,38.500984 L 11.296903,39.584800 C 10.794475,39.996658 9.7128287,40.157324 9.2785143,40.013161 C 7.9860859,39.584404 6.2757557,36.987895 5.7395799,36.359918 C 4.3291503,34.989460 2.4930848,33.443193 2.2155862,33.190641 z "
   id="path691"
   sodipodi:nodetypes="ccccccccccccccccccscsssscssscc"
   transform="matrix(0.984692,0.000000,0.000000,0.984692,12.74787,-18.55200)" />
    <path
   style="font-size:12.000000px;fill:url(#linearGradient767);fill-opacity:1.0;fill-rule:evenodd;stroke:#261933;stroke-width:2.0109708;stroke-linejoin:round;stroke-opacity:1.0000000"
   d="M 1.1427126,31.423521 C 1.3212506,31.368171 4.0810716,29.617521 5.6778966,28.571271 C 6.4944486,28.046041 8.5462406,26.651801 9.4509986,25.890321 C 10.209043,25.354001 10.508573,25.010571 12.099813,23.853541 C 13.763203,22.581021 14.445933,22.136041 16.058853,21.077491 C 16.907373,20.579191 17.726793,20.503221 18.006523,20.391691 C 18.429123,20.427991 19.031373,21.032121 20.403763,21.810091 C 21.321273,22.357141 22.286253,22.921901 23.843653,23.032741 C 25.702173,22.921901 26.568533,22.312741 27.904723,21.494871 C 28.183363,21.314571 29.360953,20.572591 30.021513,20.517241 C 30.696583,20.590741 31.019993,20.797821 31.229933,20.943241 C 31.641803,21.008191 34.795523,23.199611 34.958633,23.414491 C 35.247633,23.561711 40.298723,27.518571 40.603843,27.790071 C 40.942903,28.054591 45.389823,30.845421 46.142733,31.274651 C 45.476143,32.036271 44.847743,32.613101 43.443733,34.089851 C 41.385993,36.294841 40.371183,37.490801 39.661433,38.264341 C 38.402383,38.256171 37.676593,37.713101 36.785013,37.245251 C 35.173343,35.884751 34.116553,35.066951 33.727403,35.045721 C 33.654503,35.389441 33.883203,37.559121 34.365643,41.113451 C 35.324293,48.231771 36.500233,56.667851 35.941083,57.342391 C 33.654503,58.021901 30.581213,57.900031 25.781963,57.850221 C 21.892803,57.808071 18.064476,57.356568 16.302883,57.316521 C 14.846989,57.285631 12.260513,58.058871 11.940003,57.293121 C 11.621973,56.690581 11.938423,54.641801 13.238393,41.521291 C 13.903263,35.328991 14.148493,35.225801 14.031293,34.986921 C 13.039783,35.724171 12.117823,36.070071 11.399473,36.658971 L 10.095953,37.727501 C 9.6006106,38.133551 8.5342196,38.291951 8.1060306,38.149821 C 6.8318296,37.727111 5.1456206,35.167221 4.6170066,34.548101 C 3.2264686,33.196971 1.4162976,31.672511 1.1427126,31.423521 z "
   id="path692"
   sodipodi:nodetypes="ccccccccccccccccccscsssscssscc"
   transform="matrix(0.984692,0.000000,0.000000,0.984692,12.74787,-18.55200)" />
    <path
   style="font-size:12.000000px;fill:none;fill-rule:evenodd;stroke:#261933;stroke-width:1.3406473;stroke-linecap:round;stroke-linejoin:round;stroke-opacity:1.0000000"
   d="M 3.8955267,29.383780 C 4.6285777,29.989180 6.0910847,31.543260 7.9321997,33.495890 C 9.5619947,35.663910 10.817232,37.163160 10.918552,37.199460"
   id="path693"
   sodipodi:nodetypes="ccc"
   transform="matrix(0.984692,0.000000,0.000000,0.984692,12.74787,-18.55200)" />
    <path
   style="font-size:12.000000px;fill:none;fill-rule:evenodd;stroke:#261933;stroke-width:1.3406473;stroke-linecap:round;stroke-linejoin:round;stroke-opacity:1.0000000"
   d="M 36.880956,37.382534 C 37.688156,36.337404 38.031316,35.607514 39.495816,33.675884 C 41.376626,31.680584 41.942846,31.083964 43.456336,29.640284"
   id="path694"
   sodipodi:nodetypes="ccc"
   transform="matrix(0.984692,0.000000,0.000000,0.984692,12.74787,-18.55200)" />
    <path
   style="font-size:12.000000px;fill:none;fill-rule:evenodd;stroke:#261933;stroke-linecap:round;stroke-linejoin:round;stroke-opacity:1.0000000"
   d="M 15.879118,22.208232 C 16.053178,22.619682 16.656678,24.381422 16.826438,24.696652 C 17.017468,25.051472 17.471548,25.980662 17.677028,26.292282 C 17.825408,26.507682 18.177978,26.866702 18.489328,27.174432 C 18.596928,27.325182 19.480878,27.924882 19.803628,28.104732 C 20.237308,28.319982 20.716478,28.525782 21.234198,28.656282 C 21.623808,28.754452 23.648088,28.911432 24.032088,28.911512 C 24.639788,28.911582 25.656378,28.694532 25.996138,28.596362 C 26.369308,28.488582 26.931468,28.241462 27.246578,28.104732 C 27.615328,27.934182 27.839088,27.784102 28.135878,27.592552 C 28.403238,27.419982 28.620298,27.253932 28.870528,27.040852 C 29.157228,26.796812 29.450468,26.334352 29.643828,26.075682 C 29.842388,25.835912 30.529418,24.183802 30.707098,23.672302 C 30.853038,23.307952 31.212698,22.212952 31.248368,21.873352"
   id="path695"
   sodipodi:nodetypes="csssssssssssss"
   transform="matrix(0.984692,0.000000,0.000000,0.984692,12.74787,-18.55200)" />
    <path
   style="font-size:12.000000px;fill:none;fill-rule:evenodd;stroke:#261933;stroke-linecap:round;stroke-linejoin:round;stroke-opacity:1.0000000"
   d="M 18.450766,20.998103 C 18.450766,21.167833 18.577206,22.157603 18.663386,22.534703 C 18.794136,23.022363 19.248166,23.907283 19.475426,24.268253 C 19.714626,24.617753 20.509506,25.310083 20.848006,25.647203 C 21.212756,25.961303 22.070106,26.234983 22.413916,26.376203 C 22.708686,26.497333 23.304806,26.636983 23.651196,26.671633 C 24.025246,26.663453 24.725846,26.599783 25.062426,26.494403 C 25.503046,26.376133 26.016416,26.108533 26.396396,25.844223 C 26.783866,25.560283 27.334516,25.020283 27.653036,24.583483 C 27.873076,24.255133 28.546886,23.008633 28.580996,22.574083 C 28.629096,22.183103 28.700856,21.632903 28.658286,21.155753"
   id="path696"
   sodipodi:nodetypes="cssssssssss"
   transform="matrix(0.984692,0.000000,0.000000,0.984692,12.74787,-18.55200)" />
    <path
   style="font-size:12.000000px;fill:#ffffff;fill-rule:evenodd;stroke:#261933;stroke-width:0.58217448;stroke-linecap:round;stroke-linejoin:round;stroke-opacity:1.0000000"
   d="M 24.908243,22.971471 C 24.086703,23.345641 22.351683,22.802191 22.325453,23.042871 L 22.139213,24.752411 L 24.888893,24.843771 C 24.961993,24.496301 24.997883,23.344891 24.908243,22.971471 z "
   id="path697"
   sodipodi:nodetypes="csccc"
   transform="matrix(0.984692,0.000000,0.000000,0.984692,12.74787,-18.55200)" />
    
    <path
   style="font-size:12.000000px;fill:url(#linearGradient1369);fill-rule:evenodd;stroke-width:1.0000000pt"
   d="M 3.5922330,31.558686 C 2.9977623,31.710466 8.3222564,28.814470 10.582524,27.286841 C 13.014813,25.642949 16.684777,22.295644 17.669903,22.044123 C 18.205812,21.907295 16.426873,25.255850 15.145631,26.121793 C 11.734317,28.427371 4.5187979,31.322116 3.5922330,31.558686 z "
   id="path699"
   sodipodi:nodetypes="cssss"
   transform="matrix(0.984692,0.000000,0.000000,0.984692,12.74787,-18.55200)" />
    <path
   style="font-size:12.000000px;fill:url(#linearGradient1371);fill-rule:evenodd;stroke-width:1.0000000pt"
   d="M 13.625496,55.601218 C 13.515935,54.045451 15.040499,38.470547 15.663956,35.431192 C 15.898798,34.286340 16.454118,40.538054 16.200393,43.048596 C 15.774631,47.261396 13.694747,56.584586 13.625496,55.601218 z "
   id="path700"
   sodipodi:nodetypes="csss"
   transform="matrix(0.984692,0.000000,0.000000,0.984692,12.74787,-18.55200)" />
    <path
   style="font-size:12.000000px;fill:url(#linearGradient1373);fill-rule:evenodd;stroke-width:1.0000000pt"
   d="M 24.244937,27.430706 C 24.170858,27.344280 26.041982,27.711428 28.189846,25.382388 C 28.880364,24.631490 29.407911,22.112563 29.479527,22.196115 C 29.559638,22.289578 29.306815,25.233098 28.493300,25.913433 C 26.451387,27.608645 24.322585,27.521295 24.244937,27.430706 z "
   id="path701"
   sodipodi:nodetypes="cssss"
   transform="matrix(0.984692,0.000000,0.000000,0.984692,12.74787,-18.55200)" />
  </g><g
   id="g744"
   transform="matrix(0.938444,0.000000,0.000000,0.938444,2.075601,1.960420)">
    <path
   style="font-size:12.000000px;opacity:0.29597899;fill-rule:evenodd;stroke-width:1.8750000;stroke-linejoin:round"
   d="M 2.2155862,33.190641 C 2.3966782,33.134499 5.1959784,31.358806 6.8156459,30.297590 C 7.6438787,29.764846 9.7250216,28.350662 10.642723,27.578289 C 11.411610,27.034297 11.715425,26.685954 13.329428,25.512373 C 15.016613,24.221649 15.709109,23.770304 17.345102,22.696612 C 18.205760,22.191183 19.036902,22.114127 19.320633,22.001001 C 19.749278,22.037820 20.360144,22.650593 21.752166,23.439691 C 22.682801,23.994567 23.661585,24.567406 25.241263,24.679831 C 27.126369,24.567406 28.005123,23.949532 29.360427,23.119962 C 29.643053,22.937083 30.837488,22.184489 31.507497,22.128347 C 32.192224,22.202899 32.520261,22.412941 32.733204,22.560441 C 33.150966,22.626320 36.349799,24.849088 36.515243,25.067042 C 36.808377,25.216368 41.931723,29.229831 42.241207,29.505215 C 42.585118,29.773519 47.095651,32.604272 47.859331,33.039642 C 47.183205,33.812157 46.545816,34.397238 45.121722,35.895113 C 43.034546,38.131645 42.005219,39.344714 41.285316,40.129319 C 40.008255,40.121032 39.272083,39.570194 38.367749,39.095651 C 36.733024,37.715689 35.661117,36.886190 35.266400,36.864657 C 35.192457,37.213294 35.424429,39.414011 35.913770,43.019185 C 36.886133,50.239333 38.078895,58.796091 37.511747,59.480280 C 35.192457,60.169510 32.075204,60.045897 27.207301,59.995375 C 23.262506,59.952622 19.379415,59.494660 17.592623,59.454040 C 16.115902,59.422708 13.492427,60.207009 13.167332,59.430305 C 12.844752,58.819146 13.165729,56.741058 14.484295,43.432860 C 15.158676,37.151979 15.407414,37.047313 15.288538,36.805016 C 14.282844,37.552812 13.347695,37.903660 12.619069,38.500984 L 11.296903,39.584800 C 10.794475,39.996658 9.7128287,40.157324 9.2785143,40.013161 C 7.9860859,39.584404 6.2757557,36.987895 5.7395799,36.359918 C 4.3291503,34.989460 2.4930848,33.443193 2.2155862,33.190641 z "
   id="path703"
   sodipodi:nodetypes="ccccccccccccccccccscsssscssscc"
   transform="matrix(0.977038,0.000000,0.000000,0.977038,6.756150,-8.491826)" />
    <path
   style="font-size:12.000000px;fill:url(#linearGradient743);fill-opacity:1.0000000;fill-rule:evenodd;stroke:#333300;stroke-width:2.1330991;stroke-linejoin:round;stroke-miterlimit:4.0000000;stroke-dasharray:none;stroke-opacity:1.0000000"
   d="M 1.1427126,31.423521 C 1.3212506,31.368171 4.0810716,29.617521 5.6778966,28.571271 C 6.4944486,28.046041 8.5462406,26.651801 9.4509986,25.890321 C 10.209043,25.354001 10.508573,25.010571 12.099813,23.853541 C 13.763203,22.581021 14.445933,22.136041 16.058853,21.077491 C 16.907373,20.579191 17.726793,20.503221 18.006523,20.391691 C 18.429123,20.427991 19.031373,21.032121 20.403763,21.810091 C 21.321273,22.357141 22.286253,22.921901 23.843653,23.032741 C 25.702173,22.921901 26.568533,22.312741 27.904723,21.494871 C 28.183363,21.314571 29.360953,20.572591 30.021513,20.517241 C 30.696583,20.590741 31.019993,20.797821 31.229933,20.943241 C 31.641803,21.008191 34.795523,23.199611 34.958633,23.414491 C 35.247633,23.561711 40.298723,27.518571 40.603843,27.790071 C 40.942903,28.054591 45.389823,30.845421 46.142733,31.274651 C 45.476143,32.036271 44.847743,32.613101 43.443733,34.089851 C 41.385993,36.294841 40.371183,37.490801 39.661433,38.264341 C 38.402383,38.256171 37.676593,37.713101 36.785013,37.245251 C 35.173343,35.884751 34.116553,35.066951 33.727403,35.045721 C 33.654503,35.389441 33.883203,37.559121 34.365643,41.113451 C 35.324293,48.231771 36.500233,56.667851 35.941083,57.342391 C 33.654503,58.021901 30.581213,57.900031 25.781963,57.850221 C 21.892803,57.808071 18.064476,57.356568 16.302883,57.316521 C 14.846989,57.285631 12.260513,58.058871 11.940003,57.293121 C 11.621973,56.690581 11.938423,54.641801 13.238393,41.521291 C 13.903263,35.328991 14.148493,35.225801 14.031293,34.986921 C 13.039783,35.724171 12.117823,36.070071 11.399473,36.658971 L 10.095953,37.727501 C 9.6006106,38.133551 8.5342196,38.291951 8.1060306,38.149821 C 6.8318296,37.727111 5.1456206,35.167221 4.6170066,34.548101 C 3.2264686,33.196971 1.4162976,31.672511 1.1427126,31.423521 z "
   id="path704"
   sodipodi:nodetypes="ccccccccccccccccccscsssscssscc"
   transform="matrix(0.977038,0.000000,0.000000,0.977038,6.756150,-8.491826)" />
    <path
   style="font-size:12.000000px;fill:none;fill-rule:evenodd;stroke:#333300;stroke-width:1.3319925;stroke-linecap:round;stroke-linejoin:round;stroke-opacity:1.0000000"
   d="M 3.8955267,29.383780 C 4.6285777,29.989180 6.0910847,31.543260 7.9321997,33.495890 C 9.5619947,35.663910 10.817232,37.163160 10.918552,37.199460"
   id="path705"
   sodipodi:nodetypes="ccc"
   transform="matrix(0.977038,0.000000,0.000000,0.977038,6.756150,-8.491826)" />
    <path
   style="font-size:12.000000px;fill:none;fill-rule:evenodd;stroke:#333300;stroke-width:1.3319925;stroke-linecap:round;stroke-linejoin:round;stroke-opacity:1.0000000"
   d="M 36.880956,37.382534 C 37.688156,36.337404 38.031316,35.607514 39.495816,33.675884 C 41.376626,31.680584 41.942846,31.083964 43.456336,29.640284"
   id="path706"
   sodipodi:nodetypes="ccc"
   transform="matrix(0.977038,0.000000,0.000000,0.977038,6.756150,-8.491826)" />
    <path
   style="font-size:12.000000px;fill:none;fill-rule:evenodd;stroke:#333300;stroke-linecap:round;stroke-linejoin:round;stroke-opacity:1.0000000"
   d="M 15.879118,22.208232 C 16.053178,22.619682 16.656678,24.381422 16.826438,24.696652 C 17.017468,25.051472 17.471548,25.980662 17.677028,26.292282 C 17.825408,26.507682 18.177978,26.866702 18.489328,27.174432 C 18.596928,27.325182 19.480878,27.924882 19.803628,28.104732 C 20.237308,28.319982 20.716478,28.525782 21.234198,28.656282 C 21.623808,28.754452 23.648088,28.911432 24.032088,28.911512 C 24.639788,28.911582 25.656378,28.694532 25.996138,28.596362 C 26.369308,28.488582 26.931468,28.241462 27.246578,28.104732 C 27.615328,27.934182 27.839088,27.784102 28.135878,27.592552 C 28.403238,27.419982 28.620298,27.253932 28.870528,27.040852 C 29.157228,26.796812 29.450468,26.334352 29.643828,26.075682 C 29.842388,25.835912 30.529418,24.183802 30.707098,23.672302 C 30.853038,23.307952 31.212698,22.212952 31.248368,21.873352"
   id="path707"
   sodipodi:nodetypes="csssssssssssss"
   transform="matrix(0.977038,0.000000,0.000000,0.977038,6.756150,-8.491826)" />
    <path
   style="font-size:12.000000px;fill:none;fill-rule:evenodd;stroke:#333300;stroke-linecap:round;stroke-linejoin:round;stroke-opacity:1.0000000"
   d="M 18.450766,20.998103 C 18.450766,21.167833 18.577206,22.157603 18.663386,22.534703 C 18.794136,23.022363 19.248166,23.907283 19.475426,24.268253 C 19.714626,24.617753 20.509506,25.310083 20.848006,25.647203 C 21.212756,25.961303 22.070106,26.234983 22.413916,26.376203 C 22.708686,26.497333 23.304806,26.636983 23.651196,26.671633 C 24.025246,26.663453 24.725846,26.599783 25.062426,26.494403 C 25.503046,26.376133 26.016416,26.108533 26.396396,25.844223 C 26.783866,25.560283 27.334516,25.020283 27.653036,24.583483 C 27.873076,24.255133 28.546886,23.008633 28.580996,22.574083 C 28.629096,22.183103 28.700856,21.632903 28.658286,21.155753"
   id="path708"
   sodipodi:nodetypes="cssssssssss"
   transform="matrix(0.977038,0.000000,0.000000,0.977038,6.756150,-8.491826)" />
    <path
   style="font-size:12.000000px;fill:#ffffff;fill-rule:evenodd;stroke:#333300;stroke-width:0.57841611;stroke-linecap:round;stroke-linejoin:round;stroke-opacity:1.0000000"
   d="M 24.908243,22.971471 C 24.086703,23.345641 22.351683,22.802191 22.325453,23.042871 L 22.139213,24.752411 L 24.888893,24.843771 C 24.961993,24.496301 24.997883,23.344891 24.908243,22.971471 z "
   id="path709"
   sodipodi:nodetypes="csccc"
   transform="matrix(0.977038,0.000000,0.000000,0.977038,6.756150,-8.491826)" />
    
    <path
   style="font-size:12.000000px;fill:url(#linearGradient669);fill-rule:evenodd;stroke-width:1.0000000pt"
   d="M 3.5922330,31.558686 C 2.9977623,31.710466 8.3222564,28.814470 10.582524,27.286841 C 13.014813,25.642949 16.684777,22.295644 17.669903,22.044123 C 18.205812,21.907295 16.426873,25.255850 15.145631,26.121793 C 11.734317,28.427371 4.5187979,31.322116 3.5922330,31.558686 z "
   id="path711"
   sodipodi:nodetypes="cssss"
   transform="matrix(0.977038,0.000000,0.000000,0.977038,6.756150,-8.491826)" />
    <path
   style="font-size:12.000000px;fill:url(#linearGradient674);fill-rule:evenodd;stroke-width:1.0000000pt"
   d="M 13.625496,55.601218 C 13.515935,54.045451 15.040499,38.470547 15.663956,35.431192 C 15.898798,34.286340 16.454118,40.538054 16.200393,43.048596 C 15.774631,47.261396 13.694747,56.584586 13.625496,55.601218 z "
   id="path712"
   sodipodi:nodetypes="csss"
   transform="matrix(0.977038,0.000000,0.000000,0.977038,6.756150,-8.491826)" />
    <path
   style="font-size:12.000000px;fill:url(#linearGradient676);fill-rule:evenodd;stroke-width:1.0000000pt"
   d="M 24.244937,27.430706 C 24.170858,27.344280 26.041982,27.711428 28.189846,25.382388 C 28.880364,24.631490 29.407911,22.112563 29.479527,22.196115 C 29.559638,22.289578 29.306815,25.233098 28.493300,25.913433 C 26.451387,27.608645 24.322585,27.521295 24.244937,27.430706 z "
   id="path713"
   sodipodi:nodetypes="cssss"
   transform="matrix(0.977038,0.000000,0.000000,0.977038,6.756150,-8.491826)" />
  </g><g
   id="g678"
   transform="matrix(0.915192,0.000000,0.000000,0.915192,0.106019,4.929206)">
    <path
   style="font-size:12.000000px;opacity:0.29597899;fill:#000000;fill-opacity:1.0000000;fill-rule:evenodd;stroke:none;stroke-width:1.8750000;stroke-linejoin:round;stroke-dasharray:none"
   d="M 1.9979799,33.190641 C 2.1795558,33.134499 4.9863350,31.358806 6.6103299,30.297590 C 7.4407755,29.764846 9.5274787,28.350662 10.447632,27.578289 C 11.218573,27.034297 11.523200,26.685954 13.141515,25.512373 C 14.833207,24.221649 15.527554,23.770304 17.167918,22.696612 C 18.030875,22.191183 18.864238,22.114127 19.148727,22.001001 C 19.578517,22.037820 20.191015,22.650593 21.586756,23.439691 C 22.519878,23.994567 23.501277,24.567406 25.085175,24.679831 C 26.975318,24.567406 27.856420,23.949532 29.215345,23.119962 C 29.498726,22.937083 30.696352,22.184489 31.368151,22.128347 C 32.054708,22.202899 32.383621,22.412941 32.597133,22.560441 C 33.016011,22.626320 36.223391,24.849088 36.389277,25.067042 C 36.683194,25.216368 41.820228,29.229831 42.130539,29.505215 C 42.475369,29.773519 46.997953,32.604272 47.763673,33.039642 C 47.085741,33.812157 46.446649,34.397238 45.018750,35.895113 C 42.925998,38.131645 41.893921,39.344714 41.172094,40.129319 C 39.891621,40.121032 39.153482,39.570194 38.246732,39.095651 C 36.607640,37.715689 35.532869,36.886190 35.137097,36.864657 C 35.062956,37.213294 35.295548,39.414011 35.786197,43.019185 C 36.761158,50.239333 37.957106,58.796091 37.388443,59.480280 C 35.062956,60.169510 31.937375,60.045897 27.056466,59.995375 C 23.101132,59.952622 19.207666,59.494660 17.416100,59.454040 C 15.935434,59.422708 13.304949,60.207009 12.978986,59.430305 C 12.655544,58.819146 12.977378,56.741058 14.299467,43.432860 C 14.975650,37.151979 15.225053,37.047313 15.105859,36.805016 C 14.097478,37.552812 13.159831,37.903660 12.429258,38.500984 L 11.103559,39.584800 C 10.599789,39.996658 9.5152533,40.157324 9.0797785,40.013161 C 7.7838970,39.584404 6.0689972,36.987895 5.5313889,36.359918 C 4.1171910,34.989460 2.2762199,33.443193 1.9979799,33.190641 z "
   id="path677"
   sodipodi:nodetypes="ccccccccccccccccccscsssscssscc" />
    <path
   style="font-size:12.000000px;fill:url(#linearGradient686);fill-rule:evenodd;stroke:#261933;stroke-width:2.0761669;stroke-linejoin:round;stroke-miterlimit:4.0000000;stroke-dasharray:none;stroke-opacity:1.0000000"
   d="M 0.92224007,31.423521 C 1.1012551,31.368171 3.8684504,29.617521 5.4695421,28.571271 C 6.2882759,28.046041 8.3455503,26.651801 9.2527258,25.890321 C 10.012796,25.354001 10.313126,25.010571 11.908617,23.853541 C 13.576452,22.581021 14.261006,22.136041 15.878236,21.077491 C 16.729023,20.579191 17.550633,20.503221 17.831110,20.391691 C 18.254839,20.427991 18.858698,21.032121 20.234756,21.810091 C 21.154717,22.357141 22.122276,22.921901 23.683837,23.032741 C 25.547323,22.921901 26.415998,22.312741 27.755758,21.494871 C 28.035143,21.314571 29.215879,20.572591 29.878204,20.517241 C 30.555078,20.590741 30.879352,20.797821 31.089853,20.943241 C 31.502824,21.008191 34.664970,23.199611 34.828516,23.414491 C 35.118288,23.561711 40.182875,27.518571 40.488810,27.790071 C 40.828776,28.054591 45.287578,30.845421 46.042500,31.274651 C 45.374129,32.036271 44.744050,32.613101 43.336288,34.089851 C 41.273050,36.294841 40.255528,37.490801 39.543882,38.264341 C 38.281468,38.256171 37.553739,37.713101 36.659776,37.245251 C 35.043800,35.884751 33.984186,35.066951 33.593996,35.045721 C 33.520901,35.389441 33.750213,37.559121 34.233942,41.113451 C 35.195153,48.231771 36.374235,56.667851 35.813591,57.342391 C 33.520901,58.021901 30.439400,57.900031 25.627326,57.850221 C 21.727774,57.808071 17.889218,57.356568 16.122918,57.316521 C 14.663134,57.285631 12.069747,58.058871 11.748380,57.293121 C 11.429501,56.690581 11.746796,54.641801 13.050240,41.521291 C 13.716886,35.328991 13.962771,35.225801 13.845258,34.986921 C 12.851099,35.724171 11.926675,36.070071 11.206406,36.658971 L 9.8994036,37.727501 C 9.4027376,38.133551 8.3334972,38.291951 7.9041641,38.149821 C 6.6265584,37.727111 4.9358439,35.167221 4.4058174,34.548101 C 3.0115639,33.196971 1.1965561,31.672511 0.92224007,31.423521 z "
   id="path552"
   sodipodi:nodetypes="ccccccccccccccccccscsssscssscc" />
    <path
   style="font-size:12.000000px;fill:none;fill-rule:evenodd;stroke:#261933;stroke-width:1.3449254;stroke-linecap:round;stroke-linejoin:round;stroke-dasharray:none;stroke-opacity:1.0000000"
   d="M 3.6824097,29.383780 C 4.4174194,29.989180 5.8838342,31.543260 7.7298687,33.495890 C 9.3640185,35.663910 10.622609,37.163160 10.724200,37.199460"
   id="path553"
   sodipodi:nodetypes="ccc" />
    <path
   style="font-size:12.000000px;fill:none;fill-rule:evenodd;stroke:#261933;stroke-width:1.3449254;stroke-linecap:round;stroke-linejoin:round;stroke-dasharray:none;stroke-opacity:1.0000000"
   d="M 36.755976,37.382534 C 37.565332,36.337404 37.909409,35.607514 39.377822,33.675884 C 41.263658,31.680584 41.831391,31.083964 43.348925,29.640284"
   id="path554"
   sodipodi:nodetypes="ccc" />
    <path
   style="font-size:12.000000px;fill:none;fill-rule:evenodd;stroke:#261933;stroke-width:1.0759404;stroke-linecap:round;stroke-linejoin:round;stroke-dasharray:none;stroke-opacity:1.0000000"
   d="M 15.698021,22.208232 C 15.872546,22.619682 16.477658,24.381422 16.647872,24.696652 C 16.839412,25.051472 17.294706,25.980662 17.500735,26.292282 C 17.649511,26.507682 18.003023,26.866702 18.315205,27.174432 C 18.423093,27.325182 19.309405,27.924882 19.633017,28.104732 C 20.067856,28.319982 20.548306,28.525782 21.067409,28.656282 C 21.458060,28.754452 23.487749,28.911432 23.872775,28.911512 C 24.482099,28.911582 25.501406,28.694532 25.842073,28.596362 C 26.216240,28.488582 26.779903,28.241462 27.095855,28.104732 C 27.465590,27.934182 27.689948,27.784102 27.987531,27.592552 C 28.255605,27.419982 28.473245,27.253932 28.724144,27.040852 C 29.011610,26.796812 29.305633,26.334352 29.499510,26.075682 C 29.698601,25.835912 30.387466,24.183802 30.565621,23.672302 C 30.711951,23.307952 31.072572,22.212952 31.108337,21.873352"
   id="path555"
   sodipodi:nodetypes="csssssssssssss" />
    <path
   style="font-size:12.000000px;fill:none;fill-rule:evenodd;stroke:#261933;stroke-width:1.0759404;stroke-linecap:round;stroke-linejoin:round;stroke-dasharray:none;stroke-opacity:1.0000000"
   d="M 18.276540,20.998103 C 18.276540,21.167833 18.403318,22.157603 18.489728,22.534703 C 18.620828,23.022363 19.076071,23.907283 19.303938,24.268253 C 19.543777,24.617753 20.340781,25.310083 20.680186,25.647203 C 21.045910,25.961303 21.905551,26.234983 22.250280,26.376203 C 22.545837,26.497333 23.143550,26.636983 23.490866,26.671633 C 23.865915,26.663453 24.568387,26.599783 24.905866,26.494403 C 25.347664,26.376133 25.862406,26.108533 26.243401,25.844223 C 26.631906,25.560283 27.184027,25.020283 27.503399,24.583483 C 27.724027,24.255133 28.399637,23.008633 28.433838,22.574083 C 28.482067,22.183103 28.554018,21.632903 28.511335,21.155753"
   id="path556"
   sodipodi:nodetypes="cssssssssss" />
    <path
   style="font-size:12.000000px;fill:#ffffff;fill-rule:evenodd;stroke:#261933;stroke-width:0.58403224;stroke-linecap:round;stroke-linejoin:round;stroke-opacity:1.0000000"
   d="M 24.751271,22.971471 C 23.927536,23.345641 22.187880,22.802191 22.161580,23.042871 L 21.974843,24.752411 L 24.731870,24.843771 C 24.805165,24.496301 24.841151,23.344891 24.751271,22.971471 z "
   id="path557"
   sodipodi:nodetypes="csccc" />
    
    <path
   style="fill:url(#linearGradient1357);fill-opacity:1.0000000;fill-rule:evenodd;stroke:none;stroke-width:1.0000000pt;stroke-linecap:butt;stroke-linejoin:miter;stroke-opacity:1.0000000"
   d="M 3.3783048,31.558686 C 2.7822458,31.710466 8.1209657,28.814470 10.387272,27.286841 C 12.826059,25.642949 16.505828,22.295644 17.493586,22.044123 C 18.030927,21.907295 16.247235,25.255850 14.962570,26.121793 C 11.542142,28.427371 4.3073453,31.322116 3.3783048,31.558686 z "
   id="path668"
   sodipodi:nodetypes="cssss" />
    <path
   style="fill:url(#linearGradient1359);fill-opacity:1.0000000;fill-rule:evenodd;stroke:none;stroke-width:1.0000000pt;stroke-linecap:butt;stroke-linejoin:miter;stroke-opacity:1.0000000"
   d="M 13.438374,55.601218 C 13.328520,54.045451 14.857157,38.470547 15.482280,35.431192 C 15.717749,34.286340 16.274553,40.538054 16.020150,43.048596 C 15.593251,47.261396 13.507810,56.584586 13.438374,55.601218 z "
   id="path673"
   sodipodi:nodetypes="csss" />
    <path
   style="fill:url(#linearGradient1361);fill-opacity:1.0000000;fill-rule:evenodd;stroke:none;stroke-width:1.0000000pt;stroke-linecap:butt;stroke-linejoin:miter;stroke-opacity:1.0000000"
   d="M 24.086187,27.430706 C 24.011910,27.344280 25.888034,27.711428 28.041636,25.382388 C 28.733999,24.631490 29.262956,22.112563 29.334763,22.196115 C 29.415088,22.289578 29.161589,25.233098 28.345901,25.913433 C 26.298532,27.608645 24.164043,27.521295 24.086187,27.430706 z "
   id="path675"
   sodipodi:nodetypes="cssss" />
  </g>
</svg>