<?xml version="1.0" encoding="UTF-8" standalone="no"?>
<!-- Created with Inkscape (http://www.inkscape.org/) -->
<svg
   xmlns:dc="http://purl.org/dc/elements/1.1/"
   xmlns:cc="http://web.resource.org/cc/"
   xmlns:rdf="http://www.w3.org/1999/02/22-rdf-syntax-ns#"
   xmlns:svg="http://www.w3.org/2000/svg"
   xmlns="http://www.w3.org/2000/svg"
   xmlns:xlink="http://www.w3.org/1999/xlink"
   xmlns:sodipodi="http://inkscape.sourceforge.net/DTD/sodipodi-0.dtd"
   xmlns:inkscape="http://www.inkscape.org/namespaces/inkscape"
   version="1.0"
   x="0"
   y="0"
   width="48pt"
   height="48pt"
   id="svg1"
   sodipodi:version="0.32"
   inkscape:version="0.42"
   sodipodi:docname="system-software-update.svg"
   sodipodi:docbase="/home/jakob/dev/lila/lila-theme/branches/tango/scalable/apps">
  <sodipodi:namedview
     id="base"
     pagecolor="#ffffff"
     bordercolor="#666666"
     borderopacity="1.0"
     inkscape:pageopacity="0.0"
     inkscape:pageshadow="2"
     inkscape:zoom="3.4732669"
     inkscape:cx="20.260310"
     inkscape:cy="21.144974"
     inkscape:window-width="845"
     inkscape:window-height="650"
     inkscape:window-x="98"
     inkscape:window-y="81"
     inkscape:current-layer="svg1" />
  <defs
     id="defs3">
    <linearGradient
       id="linearGradient570">
      <stop
         style="stop-color:#ffffff;stop-opacity:1;"
         offset="0"
         id="stop571" />
      <stop
         style="stop-color:#ffffff;stop-opacity:0;"
         offset="1"
         id="stop572" />
    </linearGradient>
    <linearGradient
       id="linearGradient563">
      <stop
         style="stop-color:#ffffff;stop-opacity:1.0000000;"
         offset="0.0000000"
         id="stop564" />
      <stop
         style="stop-color:#d9cce6;stop-opacity:1.0000000;"
         offset="1.0000000"
         id="stop565" />
    </linearGradient>
    <linearGradient
       x1="0.038461540"
       y1="0.070312500"
       x2="0.98461539"
       y2="0.96875000"
       id="linearGradient566"
       xlink:href="#linearGradient1396" />
    <linearGradient
       x1="0.006536"
       y1="0.015625"
       x2="0.849673"
       y2="0.867188"
       id="linearGradient569"
       xlink:href="#linearGradient570" />
    <linearGradient
       x1="0.007280"
       y1="0.021274"
       x2="0.960000"
       y2="0.946808"
       id="linearGradient573"
       xlink:href="#linearGradient570" />
    <linearGradient
       x1="0.980392"
       y1="0.976562"
       x2="0.006536"
       y2="0.007812"
       id="linearGradient575"
       xlink:href="#linearGradient563" />
    <linearGradient
       x1="-0.006622"
       y1="0.007813"
       x2="0.920530"
       y2="0.921875"
       id="linearGradient578"
       xlink:href="#linearGradient570" />
    <linearGradient
       y2="28.378763"
       x2="65.279172"
       y1="14.406930"
       x1="51.039787"
       id="linearGradient746"
       xlink:href="#linearGradient584"
       gradientTransform="scale(0.795275,1.257427)"
       gradientUnits="userSpaceOnUse" />
    <linearGradient
       y2="38.470320"
       x2="38.963023"
       y1="27.668201"
       x1="27.812448"
       id="linearGradient744"
       xlink:href="#linearGradient584"
       gradientTransform="scale(0.964314,1.037007)"
       gradientUnits="userSpaceOnUse" />
    <linearGradient
       y2="28.198610"
       x2="26.792050"
       y1="6.0846706"
       x1="5.0215772"
       id="linearGradient583"
       xlink:href="#linearGradient584"
       gradientTransform="scale(0.911518,1.097071)"
       gradientUnits="userSpaceOnUse" />
    <linearGradient
       y2="49.880884"
       x2="64.830908"
       y1="12.536167"
       x1="28.884377"
       id="linearGradient581"
       xlink:href="#linearGradient570"
       gradientTransform="scale(0.876753,1.140572)"
       gradientUnits="userSpaceOnUse" />
    <linearGradient
       id="linearGradient1345">
      <stop
         id="stop579"
         offset="0.00000000"
         style="stop-color:#d9cce6;stop-opacity:1;" />
      <stop
         id="stop580"
         offset="1.00000000"
         style="stop-color:#73667f;stop-opacity:1;" />
    </linearGradient>
    <linearGradient
       id="linearGradient584">
      <stop
         id="stop585"
         offset="0.00000000"
         style="stop-color:#ffffff;stop-opacity:1;" />
      <stop
         id="stop586"
         offset="1.00000000"
         style="stop-color:#ffffff;stop-opacity:0;" />
    </linearGradient>
    <linearGradient
       y2="0.96875000"
       x2="0.97560978"
       y1="0.02343750"
       x1="0.01219512"
       id="linearGradient1408"
       xlink:href="#linearGradient584" />
    <linearGradient
       y2="0.97656250"
       x2="0.99166667"
       y1="0.00781250"
       x1="-0.00833333"
       id="linearGradient1406"
       xlink:href="#linearGradient584" />
    <linearGradient
       y2="0.97656250"
       x2="0.95370370"
       y1="0.00781250"
       x1="0.00000000"
       id="linearGradient1404"
       xlink:href="#linearGradient584" />
    <linearGradient
       y2="0.98437500"
       x2="0.98000002"
       y1="0.00781250"
       x1="0.04000000"
       id="linearGradient1402"
       xlink:href="#linearGradient578" />
    <linearGradient
       id="linearGradient1396">
      <stop
         id="stop1398"
         offset="0.00000000"
         style="stop-color:#d9cce6;stop-opacity:1;" />
      <stop
         id="stop1400"
         offset="1.00000000"
         style="stop-color:#73667f;stop-opacity:1;" />
    </linearGradient>
    <linearGradient
       id="linearGradient1390">
      <stop
         id="stop1392"
         offset="0.00000000"
         style="stop-color:#ffffff;stop-opacity:1;" />
      <stop
         id="stop1394"
         offset="1.00000000"
         style="stop-color:#ffffff;stop-opacity:0;" />
    </linearGradient>
    <linearGradient
       y2="0.96875000"
       x2="0.97560978"
       y1="0.02343750"
       x1="0.01219512"
       id="linearGradient1515"
       xlink:href="#linearGradient584" />
    <linearGradient
       y2="0.97656250"
       x2="0.99166667"
       y1="0.00781250"
       x1="-0.00833333"
       id="linearGradient1513"
       xlink:href="#linearGradient584" />
    <linearGradient
       y2="0.97656250"
       x2="0.95370370"
       y1="0.00781250"
       x1="0.00000000"
       id="linearGradient1511"
       xlink:href="#linearGradient584" />
    <linearGradient
       y2="0.98437500"
       x2="0.98000002"
       y1="0.00781250"
       x1="0.04000000"
       id="linearGradient1509"
       xlink:href="#linearGradient578" />
    <linearGradient
       id="linearGradient1503">
      <stop
         id="stop1505"
         offset="0.00000000"
         style="stop-color:#d9cce6;stop-opacity:1;" />
      <stop
         id="stop1507"
         offset="1.00000000"
         style="stop-color:#73667f;stop-opacity:1;" />
    </linearGradient>
    <linearGradient
       id="linearGradient1497">
      <stop
         id="stop1499"
         offset="0.00000000"
         style="stop-color:#ffffff;stop-opacity:1;" />
      <stop
         id="stop1501"
         offset="1.00000000"
         style="stop-color:#ffffff;stop-opacity:0;" />
    </linearGradient>
    <linearGradient
       inkscape:collect="always"
       xlink:href="#linearGradient563"
       id="linearGradient1528"
       gradientUnits="userSpaceOnUse"
       gradientTransform="scale(0.876753,1.140572)"
       x1="28.884377"
       y1="12.536167"
       x2="64.830910"
       y2="49.880882" />
    <linearGradient
       inkscape:collect="always"
       xlink:href="#linearGradient563"
       id="linearGradient1530"
       gradientUnits="userSpaceOnUse"
       gradientTransform="scale(0.876753,1.140572)"
       x1="28.884377"
       y1="12.536167"
       x2="64.830910"
       y2="49.880882" />
    <linearGradient
       inkscape:collect="always"
       xlink:href="#linearGradient584"
       id="linearGradient1532"
       gradientUnits="userSpaceOnUse"
       gradientTransform="scale(0.911518,1.097071)"
       x1="5.0215772"
       y1="6.0846706"
       x2="26.792050"
       y2="28.198610" />
    <linearGradient
       inkscape:collect="always"
       xlink:href="#linearGradient584"
       id="linearGradient1534"
       gradientUnits="userSpaceOnUse"
       gradientTransform="scale(0.964314,1.037007)"
       x1="27.812448"
       y1="27.668201"
       x2="38.963023"
       y2="38.470320" />
    <linearGradient
       inkscape:collect="always"
       xlink:href="#linearGradient584"
       id="linearGradient1536"
       gradientUnits="userSpaceOnUse"
       gradientTransform="scale(0.795275,1.257427)"
       x1="51.039787"
       y1="14.406930"
       x2="65.279172"
       y2="28.378763" />
    <linearGradient
       inkscape:collect="always"
       xlink:href="#linearGradient584"
       id="linearGradient1364"
       gradientUnits="userSpaceOnUse"
       gradientTransform="matrix(0.584270,0.000000,0.000000,0.923803,55.57416,15.17936)"
       x1="51.039787"
       y1="14.406930"
       x2="65.279172"
       y2="28.378763" />
    <linearGradient
       inkscape:collect="always"
       xlink:href="#linearGradient584"
       id="linearGradient1367"
       gradientUnits="userSpaceOnUse"
       gradientTransform="matrix(0.708459,0.000000,0.000000,0.761865,55.57416,15.17936)"
       x1="27.812448"
       y1="27.668201"
       x2="38.963023"
       y2="38.470320" />
    <linearGradient
       inkscape:collect="always"
       xlink:href="#linearGradient584"
       id="linearGradient1370"
       gradientUnits="userSpaceOnUse"
       gradientTransform="matrix(0.669671,0.000000,0.000000,0.805993,55.57416,15.17936)"
       x1="5.0215772"
       y1="6.0846706"
       x2="26.792050"
       y2="28.198610" />
    <linearGradient
       inkscape:collect="always"
       xlink:href="#linearGradient563"
       id="linearGradient1375"
       gradientUnits="userSpaceOnUse"
       gradientTransform="matrix(0.644130,0.000000,0.000000,0.837952,55.57416,15.17936)"
       x1="28.884377"
       y1="12.536167"
       x2="64.830910"
       y2="49.880882" />
    <linearGradient
       inkscape:collect="always"
       xlink:href="#linearGradient563"
       id="linearGradient1378"
       gradientUnits="userSpaceOnUse"
       gradientTransform="matrix(0.644130,0.000000,0.000000,0.837952,55.57416,15.17936)"
       x1="28.884377"
       y1="12.536167"
       x2="64.830910"
       y2="49.880882" />
    <linearGradient
       inkscape:collect="always"
       xlink:href="#linearGradient563"
       id="linearGradient2850"
       gradientUnits="userSpaceOnUse"
       gradientTransform="matrix(0.644130,0.000000,0.000000,0.837952,55.57416,15.17936)"
       x1="28.884377"
       y1="12.536167"
       x2="64.830910"
       y2="49.880882" />
    <linearGradient
       inkscape:collect="always"
       xlink:href="#linearGradient563"
       id="linearGradient2852"
       gradientUnits="userSpaceOnUse"
       gradientTransform="matrix(0.644130,0.000000,0.000000,0.837952,55.57416,15.17936)"
       x1="28.884377"
       y1="12.536167"
       x2="64.830910"
       y2="49.880882" />
    <linearGradient
       inkscape:collect="always"
       xlink:href="#linearGradient584"
       id="linearGradient2854"
       gradientUnits="userSpaceOnUse"
       gradientTransform="matrix(0.669671,0.000000,0.000000,0.805993,55.57416,15.17936)"
       x1="5.0215772"
       y1="6.0846706"
       x2="26.792050"
       y2="28.198610" />
    <linearGradient
       inkscape:collect="always"
       xlink:href="#linearGradient584"
       id="linearGradient2856"
       gradientUnits="userSpaceOnUse"
       gradientTransform="matrix(0.708459,0.000000,0.000000,0.761865,55.57416,15.17936)"
       x1="27.812448"
       y1="27.668201"
       x2="38.963023"
       y2="38.470320" />
    <linearGradient
       inkscape:collect="always"
       xlink:href="#linearGradient584"
       id="linearGradient2858"
       gradientUnits="userSpaceOnUse"
       gradientTransform="matrix(0.584270,0.000000,0.000000,0.923803,55.57416,15.17936)"
       x1="51.039787"
       y1="14.406930"
       x2="65.279172"
       y2="28.378763" />
  </defs>
  <ellipse
     cx="286.92639"
     cy="278.06998"
     rx="278.19861"
     ry="278.19858"
     transform="matrix(9.421097e-2,0.000000,0.000000,9.421097e-2,5.371111,6.801767)"
     style="font-size:12.000000;opacity:0.30267498;fill-rule:evenodd;stroke-width:13.253600;"
     id="path1023"
     d="M 565.12500 278.06998 A 278.19861 278.19858 0 1 0 8.7277832,278.06998 A 278.19861 278.19858 0 1 0 565.12500 278.06998 z"
     sodipodi:cx="286.92639"
     sodipodi:cy="278.06998"
     sodipodi:rx="278.19861"
     sodipodi:ry="278.19858" />
  <ellipse
     cx="286.92639"
     cy="278.06998"
     rx="278.19861"
     ry="278.19858"
     transform="matrix(9.421097e-2,0.000000,0.000000,9.421097e-2,3.082544,3.968308)"
     style="font-size:12.000000;fill:url(#linearGradient566);fill-rule:evenodd;stroke:#261933;stroke-width:19.880501;stroke-opacity:1.0000000;fill-opacity:1.0"
     id="path983"
     d="M 565.12500 278.06998 A 278.19861 278.19858 0 1 0 8.7277832,278.06998 A 278.19861 278.19858 0 1 0 565.12500 278.06998 z"
     sodipodi:cx="286.92639"
     sodipodi:cy="278.06998"
     sodipodi:rx="278.19861"
     sodipodi:ry="278.19858" />
  <path
     d="M 11.295376,12.589173 C 12.250138,12.060148 13.299196,13.930215 14.590292,14.109020 C 15.743436,14.268547 18.547286,12.458415 20.053847,13.319478 C 21.052161,13.747113 20.202685,17.505625 19.898715,19.755876 C 19.516033,21.561911 18.294062,24.148798 17.529693,26.388162 C 17.132325,27.369294 14.371030,30.923927 14.258151,31.149682 C 14.145474,31.375237 15.340274,34.387559 14.596683,34.759555 C 13.821626,35.218257 12.864468,30.809252 11.212366,29.570200 C 10.499441,29.142365 8.8555206,29.340750 8.2793066,29.796056 C 7.5928025,30.168349 8.1836106,34.070005 9.1816446,35.210864 C 10.204763,36.745094 11.745485,37.925311 12.678969,39.497402 C 13.888754,41.535183 14.634244,43.859554 15.611879,46.040579 C 15.611879,46.040579 14.805056,48.824654 14.917934,48.824654 C 15.030811,48.824654 16.627176,52.019377 16.627176,52.019377 C 13.349340,49.529689 10.710611,47.100430 8.5049106,44.122772 C 6.9503316,42.023954 5.7104608,39.143784 5.3462077,36.790046 C 5.2216224,35.985121 6.7273247,35.502147 7.0383963,34.646777 C 7.6087559,33.220729 4.6178293,29.681380 4.4969618,28.525137 C 4.3485125,27.280092 5.1016534,22.299010 6.8127522,19.304668 C 8.0378596,16.965713 9.4675636,13.601772 11.295376,12.589173 z "
     style="font-size:12.000000;opacity:0.50445902;fill:#261933;fill-rule:evenodd;stroke:#000000;stroke-width:0.11407400pt;"
     id="path565" />
  <path
     d="M 30.728535,21.109603 C 30.118699,21.985352 29.466008,23.552945 29.825916,24.380745 C 30.218089,25.282466 31.914445,26.280278 32.984680,26.298658 C 34.095571,26.317838 35.229637,25.073393 36.368998,24.493723 C 37.373007,23.982979 38.341552,23.200229 39.414883,23.027118 C 40.673016,22.824240 42.455177,22.760308 43.363189,23.365750 C 44.034457,23.813363 44.301666,25.298448 44.152927,26.185981 C 43.837573,26.862745 42.782320,27.445412 43.137532,27.878141 C 43.448498,28.141754 45.606546,26.551684 45.957769,25.621994 C 46.245853,24.859625 44.878838,23.772807 45.055348,22.801663 C 45.197993,22.160162 47.541943,22.322384 48.326891,22.463331 C 48.974387,22.620861 49.603102,24.226614 50.244805,24.155390 C 50.832665,24.155390 52.300170,22.258455 52.459193,22.267344 C 53.071231,22.368434 53.516147,24.155390 53.516147,24.155390 C 52.463092,25.133127 51.613616,26.475167 50.357480,27.088501 C 48.379730,28.054349 46.045570,28.635916 43.814496,28.893436 C 40.179551,29.312880 35.870041,27.836786 32.759027,29.118991 C 30.304695,30.130689 27.154322,33.462166 27.118562,35.774850 C 27.079104,38.312888 28.725513,42.626298 31.677902,42.887212 C 35.252014,43.280487 38.987049,44.085307 40.274846,45.731820 C 41.280952,47.018317 40.108427,51.866043 40.270452,53.468903 C 40.331390,54.000324 41.878103,53.058846 42.799206,52.583465 C 44.209665,51.855654 45.915813,50.418420 46.408979,48.860712 C 47.344761,45.906032 47.450041,42.241416 47.086041,39.046289 C 46.773179,36.300279 44.046748,31.329588 44.378683,31.036805 C 44.685950,30.765699 47.100024,36.259523 49.003654,37.354232 C 50.108253,37.989241 52.642994,37.053160 53.403365,36.225961 C 53.921704,35.661974 52.472277,33.508615 52.839279,33.180173 C 53.186802,32.869211 55.394800,35.048639 55.546739,34.308446 C 56.757214,28.688059 55.619451,24.537974 53.640707,19.334337 C 52.021472,15.362557 47.431366,9.8950044 42.530298,7.2148983 C 41.840145,6.8341331 38.849299,8.5193184 36.541409,9.9954944 C 35.225742,10.653979 33.858628,12.636821 34.534294,13.112604 C 35.129946,13.582592 36.895626,11.997118 38.145165,11.715624 C 40.385128,11.180206 41.425897,11.470491 43.137532,12.310277 C 43.137532,12.310277 45.563497,14.317793 44.491258,15.807273 C 43.810605,16.708891 41.558251,16.709790 41.558251,16.709790 C 41.069383,16.446776 40.559338,15.820858 40.091646,15.920148 C 39.318592,16.084270 38.666000,17.127537 37.835504,17.499630 C 36.146441,18.255908 34.172388,18.410441 32.533371,19.304668 C 31.606579,19.518535 31.108321,20.532931 30.728535,21.109603 z "
     style="font-size:12.000000;opacity:0.49999997;fill:#261933;fill-rule:evenodd;stroke:#000000;stroke-width:0.11407400pt;"
     id="path566" />
  <path
     d="M 9.7897126,44.278397 C 9.4408926,43.232139 -3.7709049,19.569979 21.341446,7.4434802 C 32.727260,1.8927782 49.548460,12.183016 51.419628,18.341416 C 51.707810,19.273101 40.039706,5.9730305 23.412093,13.328368 C 1.7636042,22.842420 10.094783,45.193706 9.7897126,44.278397 z "
     style="font-size:12.000000;opacity:0.69999999;fill:url(#linearGradient569);fill-rule:evenodd;stroke:none;stroke-width:0.099890900pt;"
     id="path984" />
  <metadata
     id="metadata1683">
    <rdf:RDF>
      <cc:Work
         rdf:about="">
        <dc:format>image/svg+xml</dc:format>
        <dc:type
           rdf:resource="http://purl.org/dc/dcmitype/StillImage" />
      </cc:Work>
    </rdf:RDF>
  </metadata>
  <g
     id="g2839"
     transform="translate(-40.00000,0.000000)">
    <path
       sodipodi:nodetypes="cccccccsc"
       id="path741"
       d="M 89.004013,26.488510 C 92.802965,26.015121 100.23164,31.928137 99.308433,40.272343 C 97.956642,49.235993 85.994545,51.143443 85.792246,51.781175 C 84.656309,53.284621 86.532811,59.529978 85.524598,59.007651 C 82.830358,57.611839 74.796736,48.509823 74.684886,46.562054 C 74.707521,44.628938 83.213593,35.430867 85.792246,34.250280 C 86.916047,33.735768 85.482244,41.502381 85.926069,41.744402 C 86.642047,42.126891 91.230007,42.531232 93.152545,38.131165 C 94.183161,35.638594 93.437980,28.864922 89.004013,26.488510 z "
       style="opacity:0.30267498;fill:#000000;fill-opacity:1.0000000;fill-rule:evenodd;stroke:none;stroke-width:18.750000;stroke-linecap:butt;stroke-linejoin:miter;stroke-dasharray:none;stroke-opacity:1.0000000" />
    <path
       sodipodi:nodetypes="cccccccsc"
       id="path739"
       d="M 68.049252,50.361872 C 63.995595,50.867000 56.068857,44.557540 57.053967,35.653892 C 58.496388,26.089270 71.260491,24.053934 71.476354,23.373445 C 72.688450,21.769198 70.686136,15.105118 71.761945,15.662465 C 74.636823,17.151860 83.209064,26.864127 83.328414,28.942485 C 83.304261,31.005208 74.227893,40.819968 71.476354,42.079707 C 70.277206,42.628715 71.807140,34.341386 71.333559,34.083138 C 70.569575,33.675005 65.674013,33.243556 63.622579,37.938626 C 62.522864,40.598315 63.318007,47.826131 68.049252,50.361872 z "
       style="opacity:0.29636899;fill:#000000;fill-opacity:1.0000000;fill-rule:evenodd;stroke:none;stroke-width:18.750000;stroke-linecap:butt;stroke-linejoin:miter;stroke-dasharray:none;stroke-opacity:1.0000000" />
    <path
       sodipodi:nodetypes="cccccccsc"
       id="path735"
       d="M 67.534373,47.693095 C 63.958522,48.138683 56.966105,42.572920 57.835101,34.718744 C 59.107504,26.281501 70.367105,24.486068 70.557523,23.885789 C 71.626750,22.470635 69.860449,16.592049 70.809452,17.083701 C 73.345469,18.397542 80.907301,26.965026 81.012583,28.798408 C 80.991277,30.617998 72.984740,39.275894 70.557523,40.387149 C 69.499719,40.871444 70.849320,33.560941 70.431559,33.333132 C 69.757627,32.973107 65.439104,32.592512 63.629472,36.734176 C 62.659380,39.080367 63.360799,45.456242 67.534373,47.693095 z "
       style="font-size:12.000000px;fill:url(#linearGradient2850);fill-opacity:1.0000000;fill-rule:evenodd;stroke:#261933;stroke-width:1.3806344" />
    <path
       sodipodi:nodetypes="cccccccsc"
       id="path736"
       d="M 87.362707,26.149001 C 90.938559,25.703412 97.930974,31.269176 97.061979,39.123353 C 95.789576,47.560596 84.529975,49.356026 84.339557,49.956307 C 83.270329,51.371459 85.036630,57.250046 84.087627,56.758394 C 81.551610,55.444553 73.989779,46.877069 73.884497,45.043688 C 73.905804,43.224097 81.912341,34.566202 84.339557,33.454946 C 85.397361,32.970650 84.047760,40.281154 84.465521,40.508962 C 85.139452,40.868989 89.457976,41.249584 91.267609,37.107920 C 92.237700,34.761729 91.536281,28.385854 87.362707,26.149001 z "
       style="font-size:12.000000px;fill:url(#linearGradient2852);fill-opacity:1.0000000;fill-rule:evenodd;stroke:#261933;stroke-width:1.3806344" />
    <path
       sodipodi:nodetypes="csssssc"
       id="path737"
       d="M 65.770868,46.937308 C 63.235121,42.656127 62.035443,39.672103 62.873684,37.112071 C 63.589006,34.927437 69.299817,32.275807 70.683488,32.829275 C 71.819109,33.283523 69.328898,40.543612 70.431558,40.135220 C 72.729942,39.283966 82.495159,29.122232 80.886619,29.050337 C 70.239371,28.454118 62.612587,30.461543 61.236145,34.592779 C 58.871955,41.472263 63.025181,45.427348 65.770868,46.937308 z "
       style="font-size:12.000000px;opacity:0.20178296;fill-rule:evenodd;stroke:none;stroke-width:0.96522999pt" />
    <path
       sodipodi:nodetypes="csssssc"
       id="path738"
       d="M 89.559312,26.657009 C 98.015394,31.193350 97.955426,39.672101 93.842107,44.543980 C 92.336536,46.281094 86.030363,48.777166 84.646693,49.330634 C 83.511072,49.784882 86.001283,57.044971 84.898622,56.636578 C 82.600238,55.785327 72.835022,45.623591 74.443561,45.551697 C 85.090809,44.955478 87.233808,45.126027 90.818957,42.654511 C 93.687005,40.590511 98.351300,35.224217 89.559312,26.657009 z "
       style="font-size:12.000000px;opacity:0.20178296;fill-rule:evenodd;stroke:none;stroke-width:1.2500000;stroke-dasharray:none" />
    <path
       sodipodi:nodetypes="cssssssss"
       id="path742"
       d="M 59.078378,38.335008 C 58.955796,38.181781 58.214822,33.134031 61.928632,29.606108 C 65.364173,26.396948 69.390275,26.783735 71.809117,24.492201 C 72.774950,23.577200 71.711304,20.580671 72.082658,19.986504 C 72.305106,19.630586 74.063686,21.415421 74.220349,21.767911 C 74.301207,21.949843 72.914535,21.265921 72.795222,21.589771 C 72.498872,22.394146 73.767720,24.455782 72.973362,25.152588 C 70.383046,27.424796 66.525647,27.069848 62.641195,30.496813 C 58.561844,34.103139 59.193317,38.478682 59.078378,38.335008 z "
       style="fill:url(#linearGradient2854);fill-opacity:1.0000000;fill-rule:evenodd;stroke:none;stroke-width:1.0000000pt;stroke-linecap:butt;stroke-linejoin:miter;stroke-opacity:1.0000000" />
    <path
       sodipodi:nodetypes="csss"
       id="path743"
       d="M 75.344177,44.669945 C 75.389484,44.284841 80.944346,37.996141 83.028016,36.230319 C 83.421650,35.896731 83.240250,37.861899 82.776087,38.371716 C 80.678971,40.675108 75.305508,44.998640 75.344177,44.669945 z "
       style="fill:url(#linearGradient2856);fill-opacity:1.0000000;fill-rule:evenodd;stroke:none;stroke-width:1.0000000pt;stroke-linecap:butt;stroke-linejoin:miter;stroke-opacity:1.0000000" />
    <path
       sodipodi:nodetypes="cssss"
       id="path745"
       d="M 85.295378,41.772758 C 85.096878,41.752910 90.308945,42.662767 92.475360,36.860141 C 94.101337,32.336570 90.381337,28.148129 90.585891,28.168585 C 90.801218,28.190117 94.837687,33.367626 93.735007,36.986105 C 91.968364,42.581582 85.516760,41.794897 85.295378,41.772758 z "
       style="fill:url(#linearGradient2858);fill-opacity:1.0000000;fill-rule:evenodd;stroke:none;stroke-width:1.0000000pt;stroke-linecap:butt;stroke-linejoin:miter;stroke-opacity:1.0000000" />
  </g>
</svg>
