<?xml version="1.0" encoding="UTF-8" standalone="no"?>
<svg
   xmlns:dc="http://purl.org/dc/elements/1.1/"
   xmlns:cc="http://web.resource.org/cc/"
   xmlns:rdf="http://www.w3.org/1999/02/22-rdf-syntax-ns#"
   xmlns:svg="http://www.w3.org/2000/svg"
   xmlns="http://www.w3.org/2000/svg"
   xmlns:xlink="http://www.w3.org/1999/xlink"
   xmlns:sodipodi="http://sodipodi.sourceforge.net/DTD/sodipodi-0.dtd"
   xmlns:inkscape="http://www.inkscape.org/namespaces/inkscape"
   version="1.0"
   x="0.0000000"
   y="0.0000000"
   width="48"
   height="48"
   viewBox="0 0 252.32 252.32"
   xml:space="preserve"
   id="translucent-fedora-logo-with-radial-gradient"
   sodipodi:version="0.32"
   inkscape:version="0.44"
   sodipodi:docname="gnome-main-menu.svg"
   sodipodi:docbase="/usr/share/icons/Lila/scalable/apps"
   inkscape:export-filename="/home/Mess/pictures/fedora-logo.png"
   inkscape:export-xdpi="90"
   inkscape:export-ydpi="90"><metadata
   id="metadata15"><rdf:RDF><cc:Work
       rdf:about=""><dc:format>image/svg+xml</dc:format><dc:type
         rdf:resource="http://purl.org/dc/dcmitype/StillImage" /></cc:Work></rdf:RDF></metadata><defs
   id="defs13"><linearGradient
     id="linearGradient8164"><stop
       style="stop-color:white;stop-opacity:1;"
       offset="0"
       id="stop8166" /><stop
       style="stop-color:white;stop-opacity:0;"
       offset="1"
       id="stop8168" /></linearGradient><linearGradient
     id="linearGradient5497"><stop
       id="stop5499"
       offset="0"
       style="stop-color:#d9cce6;stop-opacity:1;" /><stop
       id="stop5501"
       offset="1"
       style="stop-color:white;stop-opacity:1;" /></linearGradient><linearGradient
     id="linearGradient4598"><stop
       id="stop4600"
       offset="0"
       style="stop-color:black;stop-opacity:1;" /><stop
       id="stop4602"
       offset="1"
       style="stop-color:black;stop-opacity:1;" /></linearGradient><linearGradient
     id="linearGradient3679"><stop
       id="stop3681"
       offset="0"
       style="stop-color:#73667f;stop-opacity:1;" /><stop
       id="stop3683"
       offset="1"
       style="stop-color:#706675;stop-opacity:1;" /></linearGradient><linearGradient
     id="linearGradient2764"><stop
       style="stop-color:#73667f;stop-opacity:1;"
       offset="0"
       id="stop2766" /><stop
       style="stop-color:#d6c9e6;stop-opacity:1;"
       offset="1"
       id="stop2768" /></linearGradient><radialGradient
     inkscape:collect="always"
     xlink:href="#linearGradient2764"
     id="radialGradient2770"
     cx="126.1585"
     cy="126.155"
     fx="126.1585"
     fy="126.155"
     r="126.1585"
     gradientTransform="matrix(1.057218,0,0,1.071465,-4.493203,-5.280631)"
     gradientUnits="userSpaceOnUse" /><linearGradient
     inkscape:collect="always"
     xlink:href="#linearGradient3679"
     id="linearGradient3677"
     x1="13.526"
     y1="134.3475"
     x2="222.411"
     y2="134.3475"
     gradientUnits="userSpaceOnUse"
     gradientTransform="matrix(1.057218,0,0,1.03891,-4.493203,-1.435047)" /><radialGradient
     inkscape:collect="always"
     xlink:href="#linearGradient2764"
     id="radialGradient3685"
     gradientUnits="userSpaceOnUse"
     gradientTransform="matrix(1.770262,7.400749e-2,-7.351403e-2,1.806277,-102.6173,-134.3368)"
     cx="154.12009"
     cy="160.1093"
     fx="154.12009"
     fy="160.1093"
     r="126.1585" /><linearGradient
     inkscape:collect="always"
     xlink:href="#linearGradient3679"
     id="linearGradient3687"
     gradientUnits="userSpaceOnUse"
     gradientTransform="matrix(1.103648,0,0,1.102656,-4.483916,-1.381611)"
     x1="13.526"
     y1="134.3475"
     x2="222.411"
     y2="134.3475" /><linearGradient
     inkscape:collect="always"
     xlink:href="#linearGradient5497"
     id="linearGradient5495"
     x1="44.881863"
     y1="126.5312"
     x2="181.11292"
     y2="126.5312"
     gradientUnits="userSpaceOnUse"
     gradientTransform="matrix(0.877121,3.619737e-2,-3.927158e-2,0.816937,32.56263,27.95374)" /><linearGradient
     inkscape:collect="always"
     xlink:href="#linearGradient8164"
     id="linearGradient8194"
     x1="32.577557"
     y1="36.291817"
     x2="101.1721"
     y2="91.636856"
     gradientUnits="userSpaceOnUse"
     gradientTransform="matrix(0.680229,0.235532,-0.283719,0.918141,67.98935,-3.407655)" /></defs><sodipodi:namedview
   inkscape:window-height="858"
   inkscape:window-width="1038"
   inkscape:pageshadow="2"
   inkscape:pageopacity="0.0"
   guidetolerance="10.0"
   gridtolerance="10.0"
   objecttolerance="10.0"
   borderopacity="1.0"
   bordercolor="#666666"
   pagecolor="#ffffff"
   id="base"
   inkscape:zoom="13.532927"
   inkscape:cx="23.349533"
   inkscape:cy="24.552863"
   inkscape:window-x="103"
   inkscape:window-y="70"
   inkscape:current-layer="main-group"
   width="48px"
   height="48px" />
     <g
   id="main-group">
         <g
   id="g3689"
   style="opacity:0.3;fill:black;fill-opacity:1;stroke:none;stroke-width:2.10520244;stroke-miterlimit:4;stroke-dasharray:none;stroke-opacity:1"
   transform="matrix(0.76841,3.47092e-2,-3.394599e-2,0.772916,55.77842,45.66756)">

             <radialGradient
   cx="115.8989"
   cy="133.10451"
   r="154.62019"
   fx="115.8989"
   fy="133.10451"
   id="radialGradient3691"
   gradientUnits="userSpaceOnUse"
   style="fill-opacity:1.0;fill:url(#radialGradient2770)">
                 <stop
   style="stop-color:#000000;stop-opacity:0.0;fill-opacity:1.0;fill:url(#radialGradient2770)"
   offset="0.0"
   id="stop3693" />
                 <stop
   style="stop-color:#0068c9;stop-opacity:1.0;fill-opacity:1.0;fill:url(#radialGradient2770)"
   offset="1.0"
   id="stop3695" />
             </radialGradient>

             <path
   d="M 252.317,126.163 C 258.95962,52.499428 197.07617,-7.5243657 126.16,0 C 68.848934,6.0808339 2.3247412,57.447552 0.003,126.072 L 0,126.066 L 0,223.696 L 0.003,223.704 C 0.041,239.514 12.864,252.31 28.688,252.31 C 28.733,252.31 28.776,252.304 28.821,252.304 L 28.83,252.31 L 126.211,252.31 L 126.211,252.31 C 183.03783,251.70842 231.16919,210.63196 247.04201,156.27024 C 249.86452,146.60361 251.66701,136.51691 252.317,126.163 z "
   style="fill:black;fill-opacity:1;stroke:none;stroke-width:2.10520244;stroke-miterlimit:4;stroke-dasharray:none;stroke-opacity:1"
   id="path3697"
   sodipodi:nodetypes="csccccsccccsc" />
         </g><g
   id="radial-gradient-group"
   style="opacity:1;fill:url(#radialGradient2770);fill-opacity:1;stroke:#261933;stroke-width:10.22136001;stroke-miterlimit:4;stroke-dasharray:none;stroke-opacity:1;stroke-linejoin:round"
   transform="matrix(0.76841,3.47092e-2,-3.394599e-2,0.772916,44.14824,29.31247)">

             <radialGradient
   cx="115.8989"
   cy="133.10451"
   r="154.62019"
   fx="115.8989"
   fy="133.10451"
   id="radial-gradient"
   gradientUnits="userSpaceOnUse"
   style="fill-opacity:1.0;fill:url(#radialGradient2770)">
                 <stop
   style="stop-color:#000000;stop-opacity:0.0;fill-opacity:1.0;fill:url(#radialGradient2770)"
   offset="0.0"
   id="translucent-stop-color" />
                 <stop
   style="stop-color:#0068c9;stop-opacity:1.0;fill-opacity:1.0;fill:url(#radialGradient2770)"
   offset="1.0"
   id="opaque-blue-stop-color" />
             </radialGradient>

             <path
   d="M 252.317,126.163 C 258.95962,52.499428 197.07617,-7.5243657 126.16,0 C 68.848934,6.0808339 2.3247412,57.447552 0.003,126.072 L 0,126.066 L 0,223.696 L 0.003,223.704 C 0.041,239.514 12.864,252.31 28.688,252.31 C 28.733,252.31 28.776,252.304 28.821,252.304 L 28.83,252.31 L 126.211,252.31 L 126.211,252.31 C 183.03783,251.70842 231.16919,210.63196 247.04201,156.27024 C 249.86452,146.60361 251.66701,136.51691 252.317,126.163 z "
   style="fill:url(#radialGradient3685);fill-opacity:1;stroke:#261933;stroke-width:10.22136001;stroke-miterlimit:4;stroke-dasharray:none;stroke-opacity:1;stroke-linejoin:round"
   id="speech-bubble"
   sodipodi:nodetypes="csccccsccccsc" />
         </g>
         <g
   id="f-script"
   style="fill:url(#linearGradient3677);fill-opacity:1"
   transform="matrix(0.782991,3.479168e-2,-3.567497e-2,0.799052,42.2582,26.69046)">
             <path
   d="M 163.202,29.904 C 130.498,29.904 103.989,56.414 103.989,89.116 C 103.989,89.127 103.989,89.142 103.989,89.157 L 103.989,120.496 L 72.746,120.496 C 72.741,120.496 72.741,120.496 72.738,120.496 C 40.035,120.496 13.526,146.877 13.526,179.577 C 13.526,212.282 40.036,238.791 72.738,238.791 C 105.437,238.791 131.947,212.282 131.947,179.577 C 131.947,179.565 131.947,179.554 131.947,179.536 L 131.947,148.067 L 163.189,148.067 C 163.196,148.067 163.199,148.067 163.202,148.067 C 195.901,148.067 222.411,121.816 222.411,89.116 C 222.411,56.414 195.901,29.904 163.202,29.904 z M 103.989,179.633 C 103.964,196.864 89.979,210.833 72.738,210.833 C 55.479,210.833 41.358,196.841 41.358,179.582 C 41.358,162.317 55.479,148.066 72.738,148.066 C 72.752,148.066 72.766,148.066 72.779,148.066 L 99.558,148.066 C 99.567,148.066 99.572,148.066 99.578,148.066 C 102.016,148.066 103.993,150.039 103.993,152.473 C 103.993,152.478 103.99,152.478 103.99,152.484 L 103.99,179.633 L 103.989,179.633 z M 163.199,120.496 C 163.189,120.496 163.179,120.496 163.17,120.496 L 136.373,120.496 C 136.367,120.496 136.36,120.496 136.357,120.496 C 133.919,120.496 131.947,118.524 131.947,116.084 L 131.947,116.083 L 131.947,89.065 C 131.976,71.824 145.957,57.86 163.199,57.86 C 180.458,57.86 194.582,71.853 194.582,89.115 C 194.582,106.375 180.458,120.496 163.199,120.496 z "
   style="fill:url(#linearGradient3687);fill-opacity:1"
   id="f-script-path" />
         </g>
         
     <path
   d="M 118.12544,124.01332 C 121.0518,118.83476 119.10327,103.67194 119.10327,103.67194 C 119.10378,103.66127 119.10435,103.64983 119.10478,103.64068 C 120.30335,78.707764 143.26813,59.403425 170.40094,60.523154 C 174.51683,60.693011 177.42085,61.239897 181.18653,62.313559 C 186.67833,63.881675 191.01462,68.251604 190.78304,73.12057 C 190.50259,79.006617 185.64754,83.093489 178.69925,82.806744 C 175.38897,82.670133 174.22059,82.038264 169.37379,81.838245 C 155.06901,81.247909 142.95792,91.415763 142.30195,104.55979 L 141.31172,125.15831 L 141.31169,125.15909 C 141.22225,127.01938 142.78605,128.59042 144.80872,128.67391 C 144.81122,128.674 144.81702,128.67424 144.822,128.67445 L 161.84804,129.3771 C 168.19319,129.63895 171.43565,134.45035 171.15958,140.29686 C 170.87843,146.14544 167.22899,149.64455 160.88633,149.3828 L 140.11508,150.05138 L 138.9861,173.53666 C 138.98544,173.55038 138.98504,173.55876 138.98438,173.57247 C 137.7859,198.50313 114.82036,217.80663 87.691693,216.68708 C 83.574982,216.51719 80.67096,215.97032 76.905307,214.8959 C 71.413479,213.32855 67.075652,208.95627 67.307145,204.08883 C 67.590021,198.2044 72.441808,194.11587 79.393429,194.40274 C 82.700406,194.53922 83.87204,195.17197 88.716356,195.37188 C 103.02115,195.96222 117.32056,186.39251 115.78968,172.65424 C 115.78968,172.65424 116.78491,151.95126 116.78509,151.94745 C 116.87433,150.09095 115.30643,148.51974 113.28372,148.43628 C 113.28125,148.43618 113.27875,148.43606 113.27461,148.4359 L 96.2494,147.7333 C 89.902592,147.47138 84.998216,142.60664 85.27944,136.75653 C 85.560583,130.87357 90.966155,126.45343 97.380179,126.71813 L 108.94608,126.9944 C 108.94608,126.9944 115.10099,129.36559 118.12544,124.01332 z "
   style="fill:url(#linearGradient5495);fill-opacity:1;stroke:#261933;stroke-width:7.885;stroke-miterlimit:4;stroke-dasharray:none;stroke-opacity:1;stroke-linejoin:round"
   id="blue-inifity-connectors"
   sodipodi:nodetypes="ccsscssscccsccccccssscsscsscccccz"
   inkscape:transform-center-x="5.9467189" /><path
   style="fill:url(#linearGradient8194);fill-opacity:1;fill-rule:evenodd;stroke:none;stroke-width:1px;stroke-linecap:butt;stroke-linejoin:miter;stroke-opacity:1"
   d="M 134.78481,41.506426 C 130.9191,41.139281 128.01623,41.059097 124.1838,41.491007 C 120.26448,41.932714 119.44228,42.417431 115.48227,43.850023 C 111.63516,45.24177 111.30059,45.258037 105.01529,48.597435 C 100.60473,50.940785 99.747568,51.292694 95.162739,54.187885 C 88.336126,58.498704 90.143823,57.276437 85.62842,60.394175 C 80.849812,63.69365 81.129974,63.61275 79.137649,65.485615 C 76.462341,68.000515 69.139418,75.439531 66.984081,79.085885 C 63.77213,84.519782 63.584904,84.869836 60.14359,90.299134 C 59.763769,90.898377 59.383953,91.497607 59.004139,92.096814 C 57.249775,94.864659 56.541691,98.043494 56.312547,101.1013 C 56.124414,103.61176 59.557115,108.98489 61.159609,109.70387 C 65.331197,111.57552 68.270264,111.85002 71.7838,110.67115 C 77.569402,108.72994 83.477495,106.19972 89.023303,103.7564 C 94.351376,101.40903 103.13166,97.201538 108.27825,93.723286 C 112.21686,91.061443 117.00116,88.831183 119.689,86.708059 C 127.55336,80.496015 133.50767,75.642074 138.43464,69.235194 C 143.82601,62.224403 144.05125,60.106146 145.08072,55.626634 C 146.57212,49.137076 146.42333,49.519276 144.89223,46.939554 C 143.59749,44.758067 143.95117,44.689238 141.99854,43.367426 C 139.3461,41.571885 138.22008,41.721321 137.04812,41.658072"
   id="path7277"
   sodipodi:nodetypes="csssssssssssssssssssc" /></g>
 </svg>