<?xml version="1.0" encoding="UTF-8" standalone="no"?>
<!DOCTYPE svg PUBLIC "-//W3C//DTD SVG 20010904//EN"
"http://www.w3.org/TR/2001/REC-SVG-20010904/DTD/svg10.dtd">
<!-- Created with Inkscape (http://www.inkscape.org/) -->
<svg
   id="svg1"
   sodipodi:version="0.32"
   inkscape:version="0.38.1"
   width="48pt"
   height="48pt"
   sodipodi:docbase="/home/dan/svg-icons/lila/gnome/scalable/misc"
   sodipodi:docname="ipod.svg"
   xmlns="http://www.w3.org/2000/svg"
   xmlns:inkscape="http://www.inkscape.org/namespaces/inkscape"
   xmlns:sodipodi="http://sodipodi.sourceforge.net/DTD/sodipodi-0.dtd"
   xmlns:xlink="http://www.w3.org/1999/xlink">
  <defs
     id="defs3">
    <linearGradient
       id="linearGradient646">
      <stop
         offset="0.00000000"
         style="stop-color:#000000;stop-opacity:1;"
         id="stop648" />
      <stop
         offset="1.00000000"
         style="stop-color:#ffffff;stop-opacity:1;"
         id="stop647" />
    </linearGradient>
    <linearGradient
       id="linearGradient866">
      <stop
         style="stop-color:#ffffff;stop-opacity:1;"
         offset="0.00000000"
         id="stop867" />
      <stop
         style="stop-color:#d9cce6;stop-opacity:1;"
         offset="1.00000000"
         id="stop868" />
    </linearGradient>
    <linearGradient
       id="linearGradient584">
      <stop
         style="stop-color:#ffffff;stop-opacity:1;"
         offset="0.00000000"
         id="stop585" />
      <stop
         style="stop-color:#ffffff;stop-opacity:0;"
         offset="1.00000000"
         id="stop586" />
    </linearGradient>
    <linearGradient
       xlink:href="#linearGradient866"
       id="linearGradient586"
       x1="-0.00000000"
       y1="0.01562500"
       x2="0.99122804"
       y2="0.98437500" />
    <linearGradient
       xlink:href="#linearGradient646"
       id="linearGradient587"
       x1="0.25570777"
       y1="-0.14049587"
       x2="1.29680359"
       y2="0.95041323" />
    <linearGradient
       xlink:href="#linearGradient866"
       id="linearGradient588"
       x1="0.00411523"
       y1="0.00413223"
       x2="0.99176955"
       y2="0.98347110" />
    <defs
       id="defs565">
      <linearGradient
         id="linearGradient585"
         x1="0.00000000"
         y1="0.00000000"
         x2="1.00000000"
         y2="0.00000000"
         gradientUnits="objectBoundingBox"
         spreadMethod="pad"
         xlink:href="#linearGradient646" />
      <radialGradient
         xlink:href="#linearGradient585"
         id="radialGradient588"
         cx="0.51811594"
         cy="-0.56000000"
         r="1.37298822"
         fx="0.52173913"
         fy="-0.60000002" />
      <linearGradient
         xlink:href="#linearGradient585"
         id="linearGradient615"
         x1="-6.20588064"
         y1="-11.05767345"
         x2="11.83338261"
         y2="27.03951073"
         gradientUnits="userSpaceOnUse"
         gradientTransform="scale(2.375574,0.420951)" />
    </defs>
    <sodipodi:namedview
       id="namedview571"
       pagecolor="#ffffff"
       bordercolor="#666666"
       borderopacity="1.0"
       inkscape:pageopacity="0.0"
       inkscape:pageshadow="2"
       inkscape:zoom="11.3137085"
       inkscape:cx="37.8278795"
       inkscape:cy="20.7337463"
       inkscape:window-width="1271"
       inkscape:window-height="970"
       inkscape:window-x="0"
       inkscape:window-y="0" />
    <linearGradient
       xlink:href="#linearGradient866"
       id="linearGradient644" />
  </defs>
  <sodipodi:namedview
     id="base"
     pagecolor="#ffffff"
     bordercolor="#666666"
     borderopacity="1.0"
     inkscape:pageopacity="0.0"
     inkscape:pageshadow="2"
     inkscape:zoom="6.5168584"
     inkscape:cx="24.750214"
     inkscape:cy="23.164956"
     inkscape:window-width="499"
     inkscape:window-height="525"
     inkscape:window-x="36"
     inkscape:window-y="392"
     showgrid="true" />
  <path
     d="M 6.8609118 48.15563 C 7.7297758 50.909722 10.46468 51.391015 21.609932 55.148509 C 33.48612 59.15243 36.350691 59.966082 38.734212 58.285498 C 41.158095 56.557614 41.673515 53.526916 47.261345 35.167413 C 53.125859 15.898826 54.156774 13.345263 52.453181 10.19385 C 51.009344 7.369903 48.305022 7.2132714 36.000042 5.178999 C 24.071983 3.2070392 22.320339 3.3128974 20.476719 5.0117136 C 18.707165 6.6517793 17.398135 10.102341 12.08609 25.273749 C 5.7416308 43.393773 6.0836883 45.45919 6.8609118 48.15563 z "
     style="font-size:12;fill:#000000;fill-rule:evenodd;stroke:none;stroke-width:1.875;stroke-dasharray:none;fill-opacity:0.29;"
     id="path629"
     sodipodi:nodetypes="cscscscsc" />
  <path
     d="M 6.3262847 45.043128 C 7.152616 47.680041 9.7536405 48.139821 20.353311 51.733451 C 31.648137 55.562761 34.372482 56.340749 36.639324 54.7305 C 38.944555 53.074942 39.434743 50.1726 44.749037 32.589676 C 50.326472 14.13612 51.306922 11.690465 49.686724 8.6734207 C 48.313564 5.9698457 45.741624 5.8209431 34.038997 3.8778999 C 22.69484 1.9943752 21.028943 2.0964453 19.275571 3.7239362 C 17.592641 5.2951392 16.347689 8.5998512 11.29568 23.129812 C 5.2617948 40.48372 5.5871078 42.461384 6.3262847 45.043128 z "
     style="font-size:12;fill:url(#linearGradient586);fill-rule:evenodd;stroke:#261933;stroke-width:1.70398;"
     id="path634"
     sodipodi:nodetypes="cscscscsc" />
  <path
     d="M 17.776098 21.064641 C 18.530024 22.111351 20.27416 22.426131 27.519821 24.362616 C 35.240674 26.426101 37.091283 26.868461 38.450003 26.378484 C 39.830284 25.873351 39.919195 24.796632 41.996804 18.399901 C 44.177286 11.686432 44.624629 10.809682 43.319133 9.5757553 C 42.200933 8.4742697 40.500829 8.279214 32.663628 6.9106966 C 25.066495 5.5840992 23.981227 5.5332092 22.960919 6.0573842 C 21.982332 6.5639577 21.430293 7.7529736 19.279922 13.00347 C 16.71162 19.274419 17.083803 20.043593 17.776098 21.064641 z "
     style="font-size:12;fill:url(#linearGradient586);fill-rule:evenodd;stroke:#261933;stroke-width:1.55865;"
     id="path628"
     sodipodi:nodetypes="cscscscsc" />
  <g
     id="g630"
     transform="matrix(9.324306e-2,2.465116e-2,-3.537054e-2,9.730917e-2,29.73236,-3.793453)"
     style="font-size:12;fill:#261933;fill-opacity:1;">
    <path
       transform="matrix(1.067358,0.000000,0.000000,1.070652,-9.261658,-17.75136)"
       style="font-size:12;fill:#261933;fill-rule:evenodd;stroke:none;stroke-width:0.116931;stroke-linejoin:round;fill-opacity:1;stroke-dasharray:none;"
       d="M 114.37046 184.70178 C 114.37046 192.63678 121.97744 208.6625 133.38008 211.60058 C 126.26609 231.6634 113.43428 248.78006 100.91278 247.89658 C 95.214731 247.49918 86.974519 242.20178 78.651395 242.20178 C 65.225714 243.95305 61.163399 253.85823 46.257722 243.56018 C 36.155153 236.51129 25.951148 218.81417 20.827516 195.50127 C 15.405554 175.32849 28.268328 150.17575 41.177918 145.88452 C 63.534849 138.45293 70.348762 148.25824 79.236953 148.36295 C 89.243556 148.65483 92.651484 142.72638 102.71313 143.11373 C 112.13205 143.47632 122.11383 145.88528 130.0757 155.79738 C 123.8647 160.76864 114.37046 168.83178 114.37046 184.70178 z "
       id="path631"
       sodipodi:nodetypes="ccscscscscc" />
    <path
       transform="matrix(0.698502,0.582519,-0.582519,0.698502,97.07976,-8.513395)"
       style="font-size:12;fill:#261933;fill-rule:evenodd;stroke:none;stroke-width:0.125;stroke-linejoin:round;fill-opacity:1;"
       d="M 82.916984 137.43358 C 71.750474 123.33649 70.528099 101.14962 83.312297 87.949251 C 97.624321 102.33114 96.910996 124.34274 82.916984 137.43358 z "
       id="path632"
       sodipodi:nodetypes="ccc" />
  </g>
  <path
     transform="matrix(0.804973,0.000000,0.000000,0.804973,8.910395,3.584545)"
     style="font-size:12;fill:url(#linearGradient588);fill-rule:evenodd;stroke:#261933;stroke-width:1.875;stroke-linejoin:round;"
     d="M 20.550291 30.113689 C 20.550291 31.72987 19.238608 33.041553 17.622427 33.041553 C 16.006246 33.041553 14.694563 31.72987 14.694563 30.113689 C 14.694563 28.497508 16.006246 27.185825 17.622427 27.185825 C 19.238608 27.185825 20.550291 28.497508 20.550291 30.113689 z "
     id="path660" />
  <path
     transform="matrix(0.804973,0.000000,0.000000,0.804973,15.53763,5.384851)"
     style="font-size:12;fill:url(#linearGradient588);fill-rule:evenodd;stroke:#261933;stroke-width:1.875;stroke-linejoin:round;"
     d="M 20.550291 30.113689 C 20.550291 31.72987 19.238608 33.041553 17.622427 33.041553 C 16.006246 33.041553 14.694563 31.72987 14.694563 30.113689 C 14.694563 28.497508 16.006246 27.185825 17.622427 27.185825 C 19.238608 27.185825 20.550291 28.497508 20.550291 30.113689 z "
     id="path659" />
  <path
     transform="matrix(0.804973,0.000000,0.000000,0.804973,22.22952,7.028824)"
     style="font-size:12;fill:url(#linearGradient588);fill-rule:evenodd;stroke:#261933;stroke-width:1.875;stroke-linejoin:round;"
     d="M 20.550291 30.113689 C 20.550291 31.72987 19.238608 33.041553 17.622427 33.041553 C 16.006246 33.041553 14.694563 31.72987 14.694563 30.113689 C 14.694563 28.497508 16.006246 27.185825 17.622427 27.185825 C 19.238608 27.185825 20.550291 28.497508 20.550291 30.113689 z "
     id="path658" />
  <path
     transform="matrix(0.804973,0.000000,0.000000,0.804973,2.417933,1.649462)"
     style="font-size:12;fill:url(#linearGradient588);fill-rule:evenodd;stroke:#261933;stroke-width:1.875;stroke-linejoin:round;"
     d="M 20.550291 30.113689 C 20.550291 31.72987 19.238608 33.041553 17.622427 33.041553 C 16.006246 33.041553 14.694563 31.72987 14.694563 30.113689 C 14.694563 28.497508 16.006246 27.185825 17.622427 27.185825 C 19.238608 27.185825 20.550291 28.497508 20.550291 30.113689 z "
     id="path661" />
  <path
     d="M 6.7902956 43.02095 C 6.8625917 47.012459 9.0505155 47.436696 19.650186 51.030326 C 30.945012 54.859636 34.404029 55.673097 36.670871 54.062848 C 38.617024 52.296805 38.73947 49.873504 44.053764 32.29058 C 49.631199 13.837024 50.501164 11.477009 48.880966 8.8115275 C 48.640619 8.56889 48.309149 7.7511416 46.524723 7.0728362 C 49.501113 8.74071 49.689091 8.5997333 42.657609 30.188124 C 34.816429 56.134408 35.741295 54.52099 24.184861 50.789947 C 8.1961754 45.078917 6.9943204 45.222414 6.7902956 43.02095 z "
     style="font-size:12;fill:#261933;fill-rule:evenodd;stroke:none;stroke-width:1.7;fill-opacity:1;stroke-dasharray:none;"
     id="path643"
     sodipodi:nodetypes="cscsccccc" />
  <path
     transform="matrix(2.564667,0.603481,-0.593170,2.431582,-5.143115,-43.57719)"
     style="font-size:12;fill:url(#linearGradient588);fill-rule:evenodd;stroke:#261933;stroke-width:0.700959;stroke-linejoin:round;"
     d="M 20.550291 30.113689 C 20.550291 31.72987 19.238608 33.041553 17.622427 33.041553 C 16.006246 33.041553 14.694563 31.72987 14.694563 30.113689 C 14.694563 28.497508 16.006246 27.185825 17.622427 27.185825 C 19.238608 27.185825 20.550291 28.497508 20.550291 30.113689 z "
     id="path656" />
  <path
     transform="matrix(0.905474,0.216939,-0.209423,0.874104,12.53984,10.13603)"
     style="font-size:12;fill:url(#linearGradient588);fill-rule:evenodd;stroke:#261933;stroke-width:1.96758;stroke-linejoin:round;"
     d="M 20.550291 30.113689 C 20.550291 31.72987 19.238608 33.041553 17.622427 33.041553 C 16.006246 33.041553 14.694563 31.72987 14.694563 30.113689 C 14.694563 28.497508 16.006246 27.185825 17.622427 27.185825 C 19.238608 27.185825 20.550291 28.497508 20.550291 30.113689 z "
     id="path657" />
</svg>
