<?xml version="1.0" encoding="UTF-8" standalone="no"?>
<!DOCTYPE svg PUBLIC "-//W3C//DTD SVG 1.0//EN"
"http://www.w3.org/TR/2001/REC-SVG-20010904/DTD/svg10.dtd">
<!-- Created with Sodipodi ("http://www.sodipodi.com/") -->
<svg
   xmlns="http://www.w3.org/2000/svg"
   xmlns:xlink="http://www.w3.org/1999/xlink"
   version="1.0"
   x="0"
   y="0"
   width="600"
   height="600"
   id="svg602"
   xml:space="preserve"><defs
   id="defs604"><linearGradient
   id="linearGradient620"><stop
   style="stop-color:#ffffff;stop-opacity:1;"
   offset="0"
   id="stop621" /><stop
   style="stop-color:#ffffff;stop-opacity:0;"
   offset="1"
   id="stop622" /></linearGradient><linearGradient
   id="linearGradient609"><stop
   style="stop-color:#d9cce6;stop-opacity:1;"
   offset="0"
   id="stop610" /><stop
   style="stop-color:#73667f;stop-opacity:1;"
   offset="1"
   id="stop611" /></linearGradient><linearGradient
   x1="0.46153876"
   y1="1.56250801e-2"
   x2="0.5000003"
   y2="1.14843762"
   id="linearGradient612"
   xlink:href="#linearGradient609" /><linearGradient
   x1="0.10317468"
   y1="4.68750522e-2"
   x2="0.95238101"
   y2="1.07031238"
   id="linearGradient613"
   xlink:href="#linearGradient609" /><linearGradient
   x1="0.51613688"
   y1="2.34293863e-2"
   x2="0.4032259"
   y2="0.91406232"
   id="linearGradient614"
   xlink:href="#linearGradient609" /><linearGradient
   x1="0.90000302"
   y1="2.34378576e-2"
   x2="0.40000015"
   y2="1.1796875"
   id="linearGradient623"
   xlink:href="#linearGradient620" /><linearGradient
   x1="0.51407188"
   y1="7.78959319e-3"
   x2="-1.40847042e-2"
   y2="1.01562464"
   id="linearGradient632"
   xlink:href="#linearGradient620" /><linearGradient
   x1="0.41935879"
   y1="1.56331956e-2"
   x2="0.50000054"
   y2="0.91406268"
   id="linearGradient634"
   xlink:href="#linearGradient620" /><linearGradient
   x1="0.54999495"
   y1="2.35060137e-2"
   x2="0.85000157"
   y2="0.9218756"
   id="linearGradient636"
   xlink:href="#linearGradient620" /><linearGradient
   x1="0.67960513"
   y1="1.56281888e-2"
   x2="0.22815508"
   y2="1.2734375"
   id="linearGradient649"
   xlink:href="#linearGradient620" /><linearGradient
   x1="0.77499408"
   y1="2.35198271e-2"
   x2="6.66667372e-2"
   y2="1.33593774"
   id="linearGradient655"
   xlink:href="#linearGradient620" /><linearGradient
   x1="0.95714986"
   y1="1.5621759e-2"
   x2="0.14285716"
   y2="1.0234375"
   id="linearGradient661"
   xlink:href="#linearGradient620" /><linearGradient
   x1="0.24167508"
   y1="1.72081403e-2"
   x2="0.69166774"
   y2="1.10344684"
   id="linearGradient667"
   xlink:href="#linearGradient620" /></defs><path
   d="M 254.829 92.77074 C 254.829 92.77074 273.6983 319.2021 256.0869 438.707 C 274.9562 444.997 318.9846 436.192 340.3697 427.386 C 350.4333 369.52 345.4016 282.7215 345.4016 282.7215 C 376.8504 341.4259 413.3309 390.0667 454.8433 439.965 C 491.3239 437.449 513.9671 429.902 537.8682 413.548 C 496.7751 367.8428 456.9399 314.5895 425.9104 257.5624 C 473.2932 208.9216 511.8705 160.2808 541.642 111.64 C 510.1932 109.9627 481.2603 105.7696 451.0695 87.73894 C 426.7491 136.799 386.0754 188.375 344.1436 238.6931 C 350.4334 186.6978 345.4016 134.7023 339.1118 86.48094 C 314.7914 94.86734 287.9551 98.22184 254.829 92.77074 z M 244.7654 173.2797 C 236.379 177.4729 227.9927 181.666 219.6063 185.8592 C 200.3177 172.0218 181.0291 158.1842 161.7405 144.3468 C 149.9996 156.0877 138.2588 167.8286 126.5179 179.5694 C 138.6781 198.4387 150.8383 217.308 162.9985 236.1773 C 153.3542 250.0148 147.4837 266.3682 145.3872 285.2374 C 121.4861 290.2692 97.58503 295.301 73.68393 300.3328 C 77.03843 310.8157 77.87713 337.6521 72.42603 350.6509 C 95.90783 355.2634 119.3895 359.8759 142.8713 364.4884 C 146.2258 382.0997 152.0962 398.4531 164.2564 413.548 C 150.4189 432.837 136.5815 452.126 122.744 471.414 C 131.969 484.8317 143.7099 500.7667 157.9667 511.6687 C 178.5132 496.9927 199.0598 482.316 219.6063 467.64 C 233.4437 478.123 249.7972 484.8317 264.8926 487.7677 C 269.5051 512.5067 274.1176 537.2467 278.7301 561.9867 C 290.471 567.4377 317.3072 566.5987 329.0481 563.2447 C 333.2413 538.0857 337.4345 512.9267 341.6277 487.7677 C 361.7549 485.2517 379.3662 478.962 390.6878 468.898 C 410.3957 483.5737 430.1036 498.2507 449.8116 512.9267 C 464.0684 503.7017 472.0353 495.7347 481.2604 485.2517 C 449.3922 460.931 416.2662 429.063 400.7514 400.969 C 364.6902 445.836 304.7263 457.293 254.829 441.223 C 182.396 417.491 141.194 278.109 248.5392 217.308 C 247.2813 202.6319 246.0233 187.9558 244.7654 173.2797 z M 471.1967 287.7533 C 494.6785 296.559 514.3863 300.3328 530.3204 299.0749 C 536.6102 317.9442 534.0942 339.3293 530.3204 351.9088 C 523.6113 352.3282 516.9023 352.7475 510.1932 353.1668 C 492.1625 331.3623 479.1638 309.5578 471.1967 287.7533 z "
   style="font-size:12;fill-opacity:0.3;fill-rule:evenodd;stroke-width:12.5;stroke-linejoin:round;"
   id="path643" /><path
   d="M 239.3 76.82759 C 239.3 76.82759 258.1693 303.259 240.5579 422.7644 C 259.4272 429.0541 303.4556 420.2485 324.8407 411.4428 C 334.9043 353.5769 329.8726 266.7784 329.8726 266.7784 C 361.3214 325.4828 397.8019 374.1236 439.3143 424.0223 C 475.7949 421.5064 498.4381 413.9587 522.3392 397.6053 C 481.2461 351.8997 441.4109 298.6464 410.3814 241.6193 C 457.7642 192.9785 496.3415 144.3377 526.113 95.69689 C 494.6642 94.01959 465.7313 89.82649 435.5405 71.79579 C 411.2201 120.8559 370.5464 172.4319 328.6146 222.75 C 334.9044 170.7547 329.8726 118.7592 323.5828 70.53779 C 299.2624 78.92419 272.4261 82.27869 239.3 76.82759 z "
   style="font-size:12;fill:url(#linearGradient612);fill-rule:evenodd;stroke-width:12.5;stroke-linejoin:round;"
   id="path606" /><path
   d="M 229.2364 157.3366 C 220.85 161.5298 212.4637 165.7229 204.0773 169.9161 C 184.7887 156.0787 165.5001 142.2411 146.2115 128.4037 C 134.4706 140.1446 122.7298 151.8855 110.9889 163.6263 C 123.1491 182.4956 135.3093 201.3649 147.4695 220.2342 C 137.8252 234.0717 131.9547 250.4251 129.8582 269.2943 C 105.9571 274.3261 82.05605 279.3579 58.15495 284.3897 C 61.50945 294.8726 62.34815 321.709 56.89705 334.7078 C 80.37885 339.3203 103.8605 343.9328 127.3423 348.5453 C 130.6968 366.1566 136.5672 382.51 148.7274 397.6054 C 134.8899 416.894 121.0525 436.1826 107.215 455.4712 C 116.44 468.8894 128.1809 484.8235 142.4377 495.7257 C 162.9842 481.0496 183.5308 466.3734 204.0773 451.6973 C 217.9147 462.1803 234.2682 468.8894 249.3636 471.8246 C 253.9761 496.5643 258.5886 521.304 263.2011 546.0437 C 274.942 551.4948 301.7782 550.6561 313.5191 547.3017 C 317.7123 522.1427 321.9055 496.9837 326.0987 471.8246 C 346.2259 469.3087 363.8372 463.0189 375.1588 452.9553 C 394.8667 467.6314 414.5746 482.3075 434.2826 496.9836 C 448.5394 487.7586 456.5063 479.7916 465.7314 469.3087 C 433.8632 444.9884 400.7372 413.1201 385.2224 385.0259 C 349.1612 429.8928 289.1973 441.3497 239.3 425.2803 C 166.867 401.5481 125.665 262.1659 233.0102 201.3649 C 231.7523 186.6888 230.4943 172.0127 229.2364 157.3366 z "
   style="font-size:12;fill:url(#linearGradient613);fill-rule:evenodd;stroke-width:12.5;stroke-linejoin:round;"
   id="path607" /><path
   d="M 455.6677 271.8102 C 479.1495 280.6159 498.8573 284.3897 514.7914 283.1318 C 521.0812 302.0011 518.5652 323.3862 514.7914 335.9657 C 508.0823 336.3851 501.3733 336.8044 494.6642 337.2237 C 476.6335 315.4192 463.6348 293.6147 455.6677 271.8102 z "
   style="font-size:12;fill:url(#linearGradient614);fill-rule:evenodd;stroke-width:12.5;stroke-linejoin:round;"
   id="path608" /><path
   d="M 239.312 76.83651 C 239.312 76.83651 252.187 231.2115 246.437 351.774 C 261.062 292.399 267.8877 168.5371 262.2002 100.9746 C 286.4502 101.2246 306.1245 90.33649 324.4995 78.71151 C 324.2495 75.89901 323.937 73.21148 323.562 70.52399 C 299.2495 78.899 272.437 82.27398 239.312 76.83651 z "
   style="font-size:12;fill:url(#linearGradient623);fill-rule:evenodd;stroke-width:12.5;stroke-linejoin:round;"
   id="path619" /><path
   d="M 493.147 92.02778 C 476.897 88.77777 451.937 81.52401 435.562 71.77399 C 417.312 108.5865 381.6038 158.1147 351.3538 196.1147 C 378.6038 179.7397 425.3745 126.0978 441.812 97.72274 C 454.062 102.0353 480.1471 97.34028 493.147 92.02778 z "
   style="font-size:12;fill:url(#linearGradient632);fill-rule:evenodd;stroke-width:12.5;stroke-linejoin:round;"
   id="path631" /><path
   d="M 239.3 76.82759 C 239.3 76.82759 258.1693 303.259 240.5579 422.7644 C 259.4272 429.0541 303.4556 420.2485 324.8407 411.4428 C 334.9043 353.5769 329.8726 266.7784 329.8726 266.7784 C 361.3214 325.4828 397.8019 374.1236 439.3143 424.0223 C 475.7949 421.5064 498.4381 413.9587 522.3392 397.6053 C 481.2461 351.8997 441.4109 298.6464 410.3814 241.6193 C 457.7642 192.9785 496.3415 144.3377 526.113 95.69689 C 494.6642 94.01959 465.7313 89.82649 435.5405 71.79579 C 411.2201 120.8559 370.5464 172.4319 328.6146 222.75 C 334.9044 170.7547 329.8726 118.7592 323.5828 70.53779 C 299.2624 78.92419 272.4261 82.27869 239.3 76.82759 z "
   style="font-size:12;fill:none;fill-rule:evenodd;stroke:#000000;stroke-width:12.5;stroke-linejoin:round;"
   id="path624" /><path
   d="M 117.1245 271.9615 C 97.43705 276.0865 77.81205 280.2115 58.12455 284.399 C 61.49955 294.899 62.37455 321.7115 56.87455 334.7115 C 59.93705 335.3365 63.06205 335.899 66.12455 336.524 C 71.93705 323.149 75.81957 309.2152 75.19457 295.2153 C 104.007 288.0903 111.312 280.2115 117.1245 271.9615 z "
   style="font-size:12;fill:url(#linearGradient655);fill-rule:evenodd;stroke-width:12.5;stroke-linejoin:round;"
   id="path654" /><path
   d="M 171.562 146.5865 C 163.1245 140.524 154.6245 134.4615 146.187 128.399 C 134.4995 140.149 122.7495 151.899 110.9995 163.649 C 111.562 164.524 114.7762 168.997 115.4012 169.8721 C 129.9725 164.747 139.9403 151.3957 147.5028 144.7083 C 155.8153 149.4582 164.937 148.3365 171.562 146.5865 z "
   style="font-size:12;fill:url(#linearGradient649);fill-rule:evenodd;stroke-width:12.5;stroke-linejoin:round;"
   id="path648" /><path
   d="M 121.062 455.399 C 141.437 432.4615 145.9995 415.899 143.187 405.3365 C 131.187 422.0865 119.187 438.774 107.187 455.4615 C 111.1245 461.149 115.437 467.274 120.3745 473.274 C 122.4995 468.274 123.1245 461.899 121.062 455.399 z "
   style="font-size:12;fill:url(#linearGradient661);fill-rule:evenodd;stroke-width:12.5;stroke-linejoin:round;"
   id="path660" /><path
   d="M 229.2364 157.3366 C 220.85 161.5298 212.4637 165.7229 204.0773 169.9161 C 184.7887 156.0787 165.5001 142.2411 146.2115 128.4037 C 134.4706 140.1446 122.7298 151.8855 110.9889 163.6263 C 123.1491 182.4956 135.3093 201.3649 147.4695 220.2342 C 137.8252 234.0717 131.9547 250.4251 129.8582 269.2943 C 105.9571 274.3261 82.05605 279.3579 58.15495 284.3897 C 61.50945 294.8726 62.34815 321.709 56.89705 334.7078 C 80.37885 339.3203 103.8605 343.9328 127.3423 348.5453 C 130.6968 366.1566 136.5672 382.51 148.7274 397.6054 C 134.8899 416.894 121.0525 436.1826 107.215 455.4712 C 116.44 468.8894 128.1809 484.8235 142.4377 495.7257 C 162.9842 481.0496 183.5308 466.3734 204.0773 451.6973 C 217.9147 462.1803 234.2682 468.8894 249.3636 471.8246 C 253.9761 496.5643 258.5886 521.304 263.2011 546.0437 C 274.942 551.4948 301.7782 550.6561 313.5191 547.3017 C 317.7123 522.1427 321.9055 496.9837 326.0987 471.8246 C 346.2259 469.3087 363.8372 463.0189 375.1588 452.9553 C 394.8667 467.6314 414.5746 482.3075 434.2826 496.9836 C 448.5394 487.7586 456.5063 479.7916 465.7314 469.3087 C 433.8632 444.9884 400.7372 413.1201 385.2224 385.0259 C 349.1612 429.8928 289.1973 441.3497 239.3 425.2803 C 166.867 401.5481 125.665 262.1659 233.0102 201.3649 C 231.7523 186.6888 230.4943 172.0127 229.2364 157.3366 z "
   style="font-size:12;fill:none;fill-rule:evenodd;stroke:#000000;stroke-width:12.5;stroke-linejoin:round;"
   id="path625" /><path
   d="M 455.687 271.8365 C 479.1245 280.5865 498.8745 284.399 514.812 283.149 C 515.4995 285.149 517.8298 291.5684 518.2048 293.6309 C 506.3298 297.8184 493.1778 293.2829 481.2403 292.6132 C 479.1778 296.4882 478.8206 308.1306 476.4456 311.3806 C 470.7581 301.6931 459.187 281.4615 455.687 271.8365 z "
   style="font-size:12;fill:url(#linearGradient667);fill-rule:evenodd;stroke-width:12.5;stroke-linejoin:round;"
   id="path666" /><path
   d="M 455.6677 271.8102 C 479.1495 280.6159 498.8573 284.3897 514.7914 283.1318 C 521.0812 302.0011 518.5652 323.3862 514.7914 335.9657 C 508.0823 336.3851 501.3733 336.8044 494.6642 337.2237 C 476.6335 315.4192 463.6348 293.6147 455.6677 271.8102 z "
   style="font-size:12;fill:none;fill-rule:evenodd;stroke:#000000;stroke-width:12.5;stroke-linejoin:round;"
   id="path626" /></svg>
