<?xml version="1.0" encoding="UTF-8" standalone="no"?>
<!-- Created with Inkscape (http://www.inkscape.org/) -->
<svg
   xmlns:dc="http://purl.org/dc/elements/1.1/"
   xmlns:cc="http://web.resource.org/cc/"
   xmlns:rdf="http://www.w3.org/1999/02/22-rdf-syntax-ns#"
   xmlns:svg="http://www.w3.org/2000/svg"
   xmlns="http://www.w3.org/2000/svg"
   xmlns:xlink="http://www.w3.org/1999/xlink"
   xmlns:sodipodi="http://sodipodi.sourceforge.net/DTD/sodipodi-0.dtd"
   xmlns:inkscape="http://www.inkscape.org/namespaces/inkscape"
   id="svg1"
   sodipodi:version="0.32"
   inkscape:version="0.44.1"
   width="48pt"
   height="48pt"
   sodipodi:docbase="/home/Mess/.icons/Lila/scalable/misc"
   sodipodi:docname="redhat.svg">
  <metadata
     id="metadata50">
    <rdf:RDF>
      <cc:Work
         rdf:about="">
        <dc:format>image/svg+xml</dc:format>
        <dc:type
           rdf:resource="http://purl.org/dc/dcmitype/StillImage" />
      </cc:Work>
    </rdf:RDF>
  </metadata>
  <defs
     id="defs3">
    <linearGradient
       inkscape:collect="always"
       id="linearGradient10878">
      <stop
         style="stop-color:#340000;stop-opacity:1;"
         offset="0"
         id="stop10880" />
      <stop
         style="stop-color:#340000;stop-opacity:0;"
         offset="1"
         id="stop10882" />
    </linearGradient>
    <linearGradient
       inkscape:collect="always"
       id="linearGradient7318">
      <stop
         style="stop-color:#340000;stop-opacity:1;"
         offset="0"
         id="stop7320" />
      <stop
         style="stop-color:#340000;stop-opacity:0;"
         offset="1"
         id="stop7322" />
    </linearGradient>
    <linearGradient
       inkscape:collect="always"
       id="linearGradient6415">
      <stop
         style="stop-color:#340000;stop-opacity:1;"
         offset="0"
         id="stop6417" />
      <stop
         style="stop-color:#340000;stop-opacity:0;"
         offset="1"
         id="stop6419" />
    </linearGradient>
    <linearGradient
       inkscape:collect="always"
       id="linearGradient5518">
      <stop
         style="stop-color:#340000;stop-opacity:1;"
         offset="0"
         id="stop5520" />
      <stop
         style="stop-color:#340000;stop-opacity:0;"
         offset="1"
         id="stop5522" />
    </linearGradient>
    <linearGradient
       inkscape:collect="always"
       id="linearGradient5510">
      <stop
         style="stop-color:#340000;stop-opacity:1;"
         offset="0"
         id="stop5512" />
      <stop
         style="stop-color:#340000;stop-opacity:0;"
         offset="1"
         id="stop5514" />
    </linearGradient>
    <linearGradient
       id="linearGradient887">
      <stop
         offset="0.0000000"
         style="stop-color:#f50000;stop-opacity:1.0000000;"
         id="stop889" />
      <stop
         offset="1.0000000"
         style="stop-color:#a90000;stop-opacity:1.0000000;"
         id="stop888" />
    </linearGradient>
    <linearGradient
       id="linearGradient642">
      <stop
         style="stop-color:#d9cce6;stop-opacity:1;"
         offset="0.00000000"
         id="stop643" />
      <stop
         style="stop-color:#73667f;stop-opacity:1;"
         offset="1.00000000"
         id="stop644" />
    </linearGradient>
    <linearGradient
       id="linearGradient866">
      <stop
         style="stop-color:#ffffff;stop-opacity:1;"
         offset="0.00000000"
         id="stop867" />
      <stop
         style="stop-color:#d9cce6;stop-opacity:1;"
         offset="1.00000000"
         id="stop868" />
    </linearGradient>
    <linearGradient
       id="linearGradient584">
      <stop
         style="stop-color:#ffffff;stop-opacity:1;"
         offset="0.00000000"
         id="stop585" />
      <stop
         style="stop-color:#ffffff;stop-opacity:0;"
         offset="1.00000000"
         id="stop586" />
    </linearGradient>
    <linearGradient
       xlink:href="#linearGradient866"
       id="linearGradient586"
       x1="-0.00000000"
       y1="0.01562500"
       x2="0.99122804"
       y2="0.98437500" />
    <linearGradient
       xlink:href="#linearGradient584"
       id="linearGradient587"
       x1="0.00000000"
       y1="-0.00000000"
       x2="1.00000000"
       y2="1.00000000" />
    <linearGradient
       xlink:href="#linearGradient866"
       id="linearGradient638"
       x1="1.1267549"
       y1="2.6132078"
       x2="52.130516"
       y2="55.508359"
       gradientTransform="matrix(1.085602,0,0,0.921148,-3.995043e-6,-3.712691e-8)"
       gradientUnits="userSpaceOnUse" />
    <radialGradient
       xlink:href="#linearGradient866"
       id="radialGradient639" />
    <linearGradient
       xlink:href="#linearGradient642"
       id="linearGradient640"
       x1="5.9405983"
       y1="3.9837171"
       x2="33.555457"
       y2="32.622627"
       gradientTransform="matrix(1.691971,0,0,0.591027,-3.762263e-6,3.366729e-7)"
       gradientUnits="userSpaceOnUse" />
    <linearGradient
       xlink:href="#linearGradient584"
       id="linearGradient641"
       x1="0.00000000"
       y1="0.00000000"
       x2="0.99270076"
       y2="0.95238096" />
    <linearGradient
       xlink:href="#linearGradient584"
       id="linearGradient645"
       x1="5.8555882"
       y1="11.165552"
       x2="22.610721"
       y2="27.199967"
       gradientTransform="matrix(2.263946,0,0,0.441707,-6.44067e-6,-1.542136e-6)"
       gradientUnits="userSpaceOnUse" />
    <linearGradient
       xlink:href="#linearGradient584"
       id="linearGradient699"
       x1="0.00000000"
       y1="0.00000000"
       x2="0.98701298"
       y2="1.00781250" />
    <linearGradient
       xlink:href="#linearGradient584"
       id="linearGradient700"
       x1="-0.00000000"
       y1="-0.00000000"
       x2="0.96875000"
       y2="0.99218750" />
    <linearGradient
       xlink:href="#linearGradient584"
       id="linearGradient701"
       x1="-0.00000000"
       y1="-0.00000000"
       x2="0.97058821"
       y2="0.97656250" />
    <linearGradient
       xlink:href="#linearGradient584"
       id="linearGradient702"
       x1="-0.00000000"
       y1="0.00000000"
       x2="1.01485145"
       y2="1.02343750" />
    <linearGradient
       xlink:href="#linearGradient584"
       id="linearGradient703"
       x1="0.00000000"
       y1="-0.00000000"
       x2="1.01315784"
       y2="1.00781250" />
    <linearGradient
       xlink:href="#linearGradient642"
       id="linearGradient704"
       x1="0.26760563"
       y1="0.31250000"
       x2="0.65492958"
       y2="0.65625000" />
    <defs
       id="defs858">
      <linearGradient
         id="linearGradient859">
        <stop
           style="stop-color:#ffffff;stop-opacity:1;"
           offset="0.00000000"
           id="stop860" />
        <stop
           style="stop-color:#ffffff;stop-opacity:0;"
           offset="1.00000000"
           id="stop861" />
      </linearGradient>
      <linearGradient
         id="linearGradient578"
         x1="0.0000000"
         y1="0.50000000"
         x2="1.0000000"
         y2="0.50000000"
         gradientUnits="objectBoundingBox"
         spreadMethod="pad"
         xlink:href="#linearGradient887" />
      <linearGradient
         xlink:href="#linearGradient887"
         id="linearGradient581"
         x1="8.0685777"
         y1="8.9695791"
         x2="53.892638"
         y2="53.677356"
         gradientTransform="matrix(0.774315,0,0,0.769749,14.71467,14.86596)"
         gradientUnits="userSpaceOnUse" />
      <linearGradient
         xlink:href="#linearGradient584"
         id="linearGradient583"
         x1="27.306528"
         y1="14.4226"
         x2="42.033803"
         y2="28.76761"
         gradientTransform="matrix(0.915083,0,0,0.651338,14.71467,14.86596)"
         gradientUnits="userSpaceOnUse" />
      <linearGradient
         xlink:href="#linearGradient584"
         id="linearGradient599"
         x1="10.818061"
         y1="12.214143"
         x2="28.093218"
         y2="28.809789"
         gradientTransform="matrix(0.828374,0,0,0.719516,14.71467,14.86596)"
         gradientUnits="userSpaceOnUse" />
      <linearGradient
         xlink:href="#linearGradient584"
         id="linearGradient600"
         x1="12.683742"
         y1="28.761297"
         x2="29.532001"
         y2="45.477929"
         gradientTransform="matrix(0.695235,0,0,0.857305,14.71467,14.86596)"
         gradientUnits="userSpaceOnUse" />
    </defs>
    <sodipodi:namedview
       id="namedview869"
       pagecolor="#ffffff"
       bordercolor="#666666"
       borderopacity="1.0"
       inkscape:pageopacity="0.0"
       inkscape:pageshadow="2"
       inkscape:zoom="3.98973597"
       inkscape:cx="24.6369548"
       inkscape:cy="20.6429740"
       inkscape:window-width="508"
       inkscape:window-height="527"
       inkscape:window-x="183"
       inkscape:window-y="84" />
    <linearGradient
       inkscape:collect="always"
       xlink:href="#linearGradient859"
       id="linearGradient15308"
       x1="-26.25548"
       y1="19.676954"
       x2="-23.283888"
       y2="22.263716"
       gradientUnits="userSpaceOnUse"
       gradientTransform="matrix(1.422963,-0.16684,3.113899,2.327217,39.09308,-6.251731)" />
    <linearGradient
       inkscape:collect="always"
       xlink:href="#linearGradient887"
       id="linearGradient2831"
       x1="-3.8711257"
       y1="23.198376"
       x2="54.597935"
       y2="43.876434"
       gradientUnits="userSpaceOnUse"
       gradientTransform="translate(-2.842138e-6,7.004758e-6)" />
    <linearGradient
       inkscape:collect="always"
       xlink:href="#linearGradient887"
       id="linearGradient3726"
       x1="0.50140506"
       y1="9.8286791"
       x2="46.367695"
       y2="34.517029"
       gradientUnits="userSpaceOnUse"
       gradientTransform="translate(-3.41955e-6,-2.946367e-6)" />
    <linearGradient
       inkscape:collect="always"
       xlink:href="#linearGradient5510"
       id="linearGradient5516"
       x1="26.743668"
       y1="17.886202"
       x2="11.280241"
       y2="7.5525303"
       gradientUnits="userSpaceOnUse"
       gradientTransform="translate(-3.41955e-6,-3.946367e-6)" />
    <linearGradient
       inkscape:collect="always"
       xlink:href="#linearGradient5518"
       id="linearGradient5524"
       x1="31.204098"
       y1="34.661522"
       x2="-4.4815407"
       y2="19.873575"
       gradientUnits="userSpaceOnUse"
       gradientTransform="translate(-3.41955e-6,-2.946367e-6)" />
    <linearGradient
       inkscape:collect="always"
       xlink:href="#linearGradient6415"
       id="linearGradient6421"
       x1="41.454887"
       y1="16.290771"
       x2="30.454512"
       y2="11.219884"
       gradientUnits="userSpaceOnUse"
       gradientTransform="translate(-1.41955e-6,2.053633e-6)" />
    <linearGradient
       inkscape:collect="always"
       xlink:href="#linearGradient7318"
       id="linearGradient7324"
       x1="-16.000164"
       y1="12.553656"
       x2="-10.527014"
       y2="16.438623"
       gradientUnits="userSpaceOnUse"
       gradientTransform="translate(-3.41955e-6,-2.946367e-6)" />
    <linearGradient
       inkscape:collect="always"
       xlink:href="#linearGradient859"
       id="linearGradient9989"
       x1="1.2849098"
       y1="22.359642"
       x2="8.5116777"
       y2="28.940872"
       gradientUnits="userSpaceOnUse"
       gradientTransform="translate(-3.053633e-6,-3.41955e-6)" />
    <linearGradient
       inkscape:collect="always"
       xlink:href="#linearGradient10878"
       id="linearGradient10884"
       x1="19.02743"
       y1="15.844697"
       x2="39.000824"
       y2="36.503349"
       gradientUnits="userSpaceOnUse"
       gradientTransform="translate(-3.41955e-6,-2.946367e-6)" />
    <linearGradient
       inkscape:collect="always"
       xlink:href="#linearGradient584"
       id="linearGradient2834"
       x1="15.098426"
       y1="12.72771"
       x2="21.158144"
       y2="18.399117"
       gradientUnits="userSpaceOnUse" />
  </defs>
  <sodipodi:namedview
     id="base"
     pagecolor="#ffffff"
     bordercolor="#666666"
     borderopacity="1.0"
     inkscape:pageopacity="0.0"
     inkscape:pageshadow="2"
     inkscape:zoom="5.6423387"
     inkscape:cx="15.484614"
     inkscape:cy="23.914075"
     inkscape:window-width="1280"
     inkscape:window-height="948"
     inkscape:window-x="0"
     inkscape:window-y="30"
     inkscape:current-layer="svg1" />
  <path
     style="opacity:0.3;fill:black;fill-opacity:1;fill-rule:evenodd;stroke:none;stroke-width:1.83599997;stroke-linecap:butt;stroke-linejoin:miter;stroke-miterlimit:4;stroke-dasharray:none;stroke-opacity:1"
     d="M 15.614459,28.24452 C 13.037071,27.832575 10.232948,27.356333 7.8151363,28.42186 C -2.4806592,33.121128 12.743217,43.42722 17.268806,46.333685 C 24.162834,50.00601 30.090232,52.395489 37.712532,53.78155 C 45.980353,55.250442 56.536816,53.179053 58.835696,48.283994 C 66.346326,27.670571 15.812774,28.149771 15.596127,28.149771"
     id="path10886"
     sodipodi:nodetypes="cccccs" />
  <path
     style="opacity:0.3;fill:black;fill-opacity:1;fill-rule:evenodd;stroke:none;stroke-width:1.88;stroke-linecap:butt;stroke-linejoin:miter;stroke-miterlimit:4;stroke-dasharray:none;stroke-opacity:1"
     d="M 21.760262,12.205223 C 24.364058,11.20483 26.82138,11.833444 29.119764,13.194527 C 29.910827,13.402774 30.56394,13.524294 31.468542,13.524294 C 33.961729,13.917529 35.450285,11.995684 37.731949,12.040338 C 46.840811,13.303507 48.045635,26.140054 49.006082,33.805031 C 47.074196,42.236912 38.059058,41.494981 23.482699,36.937829 C 19.66211,35.123959 15.045326,33.990789 14.244173,30.507351 C 14.153803,23.687643 18.270267,13.930582 21.760262,12.205223 z "
     id="path10888"
     sodipodi:nodetypes="cccccccc" />
  <path
     style="fill:url(#linearGradient583);fill-rule:evenodd;stroke-width:1pt"
     d="M 75.862527,46.785381 C 78.407144,44.342549 88.759457,37.24905 89.338717,37.293608 C 89.82878,37.331306 83.899432,43.505428 80.578477,45.80708 C 79.745515,46.38438 75.322551,47.303756 75.862527,46.785381 z "
     id="path598"
     sodipodi:nodetypes="csss" />
  <path
     style="fill:url(#linearGradient2831);fill-opacity:1;fill-rule:evenodd;stroke:#340000;stroke-width:2.401443;stroke-linecap:butt;stroke-linejoin:miter;stroke-miterlimit:4;stroke-dasharray:none;stroke-opacity:1"
     d="M 12.924419,23.148687 C 10.34703,22.736742 7.542908,22.2605 5.1250962,23.326027 C -5.1706982,28.025295 10.939334,37.799693 15.464923,40.706158 C 21.472794,44.555714 27.400193,47.299656 35.022493,48.685717 C 43.290314,50.154609 54.024008,48.08322 56.322886,43.188161 C 63.833517,22.574738 13.122734,23.053938 12.906086,23.053938"
     id="path1936"
     sodipodi:nodetypes="cccccs" />
  <path
     style="fill:url(#linearGradient3726);fill-opacity:1;fill-rule:evenodd;stroke:#340000;stroke-width:2.31047177;stroke-linecap:butt;stroke-linejoin:miter;stroke-miterlimit:4;stroke-dasharray:none;stroke-opacity:1"
     d="M 19.708206,9.6573411 C 22.190379,8.7308698 24.532921,9.3130348 26.723948,10.573543 C 27.47806,10.766402 28.100666,10.878942 28.963015,10.878942 C 31.339745,11.24312 32.758771,9.4632858 34.933859,9.5046398 C 43.617247,10.67447 44.765794,22.562487 45.681379,29.661078 C 43.839731,37.469904 30.515004,37.275202 23.884482,34.367872 C 18.214917,31.867359 13.306923,29.83311 12.543193,26.607072 C 12.457044,20.291293 16.381228,11.255208 19.708206,9.6573411 z "
     id="path2833"
     sodipodi:nodetypes="cccccccc" />
  <path
     style="fill:url(#linearGradient5516);fill-opacity:1;fill-rule:evenodd;stroke:none;stroke-width:1px;stroke-linecap:butt;stroke-linejoin:miter;stroke-opacity:1"
     d="M 22.217771,12.662997 C 20.430099,11.330125 20.425988,12.83412 19.801857,12.975323 C 19.689549,15.833273 22.321718,16.585694 24.288554,17.504061 C 25.645214,15.290559 26.922108,14.475529 29.810644,14.536957 C 30.719849,11.543602 24.984859,12.093805 22.217771,12.662997 z "
     id="path4623"
     sodipodi:nodetypes="ccccc" />
  <path
     style="fill:url(#linearGradient5524);fill-opacity:1;fill-rule:evenodd;stroke:none;stroke-width:1px;stroke-linecap:butt;stroke-linejoin:miter;stroke-opacity:1"
     d="M 25.232563,27.279898 C 26.081644,27.553618 28.743727,28.674563 29.267608,29.280624 C 30.131693,30.723081 31.115711,32.543943 31.275308,34.205466 C 29.445845,35.899164 24.142185,33.23347 22.047536,32.405643 C 19.587459,31.303651 17.081121,30.823507 13.723869,28.056397 C 11.604562,26.4192 12.93167,23.004877 13.476988,20.617265 C 17.133432,20.629285 21.566594,25.793837 25.232563,27.279898 z "
     id="path3736"
     sodipodi:nodetypes="ccccccc" />
  <path
     style="fill:url(#linearGradient6421);fill-opacity:1;fill-rule:evenodd;stroke:none;stroke-width:1px;stroke-linecap:butt;stroke-linejoin:miter;stroke-opacity:1"
     d="M 32.066316,12.661645 C 32.475357,12.401499 33.044096,11.933613 33.760564,11.498094 C 34.351214,11.139056 35.375715,11.017146 35.985259,10.992326 C 36.98741,10.951518 37.620833,11.350233 38.109968,12.151344 C 38.686464,13.095533 39.347962,14.106147 38.894142,15.006966 C 38.604164,15.582563 36.927159,16.272882 36.384478,16.602762 C 35.715743,17.009267 35.378327,16.47577 34.475401,16.677589 C 32.665389,17.082157 33.038263,16.946443 34.282247,16.572223 C 35.091575,16.328761 35.540198,15.062454 35.640177,14.36555 C 35.786348,13.346671 35.222207,12.909458 34.580258,12.559277 C 33.885547,12.180316 32.719519,12.264582 32.066316,12.661645 z "
     id="path5526"
     sodipodi:nodetypes="csssssssssc" />
  <path
     style="fill:url(#linearGradient7324);fill-opacity:1;fill-rule:evenodd;stroke:none;stroke-width:1px;stroke-linecap:butt;stroke-linejoin:miter;stroke-opacity:1"
     d="M 44.606111,25.764774 C 44.41426,26.027756 44.160672,28.366803 43.99851,29.200369 C 43.830456,30.064226 44.030554,30.194124 43.23901,31.54282 C 42.164007,33.374497 40.790444,33.922617 40.504808,34.509923 C 39.885571,35.783156 42.228505,33.910741 43.54281,33.572944 C 44.357615,33.363525 44.923032,32.92131 45.365612,32.011309 C 45.687989,31.34846 45.821312,30.77598 45.821312,29.825023 C 45.821312,28.980879 45.517512,27.990908 45.517512,27.014081 C 45.517512,26.001126 45.696262,25.764774 44.606111,25.764774 z "
     id="path6431"
     sodipodi:nodetypes="csssssssc" />
  <path
     style="fill:url(#linearGradient9989);fill-opacity:1;fill-rule:evenodd;stroke:none;stroke-width:1px;stroke-linecap:butt;stroke-linejoin:miter;stroke-opacity:1"
     d="M 10.580427,24.528604 C 10.097879,23.967929 9.9816133,24.041463 7.4855446,23.631982 C 5.164577,24.108607 3.1906314,25.04863 2.9979638,27.761287 C 2.9979638,29.420529 5.5889137,31.092537 6.4274884,32.109679 C 7.4679082,28.683517 9.6400025,27.570421 10.580427,24.528604 z "
     id="path9096"
     sodipodi:nodetypes="ccccc" />
  <path
     style="fill:url(#linearGradient10884);fill-opacity:1;fill-rule:evenodd;stroke:none;stroke-width:1px;stroke-linecap:butt;stroke-linejoin:miter;stroke-opacity:1"
     d="M 30.04742,31.54282 C 29.174193,27.449318 34.915057,29.878724 37.622713,29.825023 C 41.705032,29.697116 40.320628,27.836002 43.520496,27.170245 C 45.134782,30.658132 42.812837,32.544925 40.350361,33.885271 C 38.430279,34.441274 37.27299,34.588632 33.693076,34.197597 C 31.092236,34.510814 31.138983,33.711675 30.04742,31.54282 z "
     id="path9991"
     sodipodi:nodetypes="cccccc" />
  <path
     style="fill:url(#linearGradient2834);fill-opacity:1;fill-rule:evenodd;stroke:none;stroke-width:1px;stroke-linecap:butt;stroke-linejoin:miter;stroke-opacity:1"
     d="M 21.473485,10.837043 C 19.393522,8.8906704 13.805607,19.47833 15.56013,21.013434 C 17.603728,23.326046 23.450857,12.710163 21.473485,10.837043 z "
     id="path1939"
     sodipodi:nodetypes="ccc" />
</svg>
