<?xml version="1.0" encoding="UTF-8" standalone="no"?>
<!DOCTYPE svg PUBLIC "-//W3C//DTD SVG 20010904//EN"
"http://www.w3.org/TR/2001/REC-SVG-20010904/DTD/svg10.dtd">
<!-- Created with Sodipodi ("http://www.sodipodi.com/") -->
<svg
   id="svg1"
   sodipodi:version="0.32"
   inkscape:version="0.38.1"
   width="24.000000pt"
   height="24.000000pt"
   sodipodi:docbase="/home/dan/svg-icons/lila/gnome/scalable/emblems"
   sodipodi:docname="emblem-nowrite.svg"
   xmlns="http://www.w3.org/2000/svg"
   xmlns:inkscape="http://www.inkscape.org/namespaces/inkscape"
   xmlns:sodipodi="http://sodipodi.sourceforge.net/DTD/sodipodi-0.dtd"
   xmlns:xlink="http://www.w3.org/1999/xlink">
  <defs
     id="defs3">
    <linearGradient
       id="linearGradient969">
      <stop
         style="stop-color:#7f7f7f;stop-opacity:1;"
         offset="0.000000"
         id="stop970" />
      <stop
         style="stop-color:#e6e6e6;stop-opacity:1;"
         offset="1.000000"
         id="stop971" />
    </linearGradient>
    <linearGradient
       id="linearGradient964">
      <stop
         style="stop-color:#c7b397;stop-opacity:1.0000000;"
         offset="0.0000000"
         id="stop965" />
      <stop
         style="stop-color:#faebdc;stop-opacity:1.0000000;"
         offset="1.0000000"
         id="stop966" />
    </linearGradient>
    <linearGradient
       id="linearGradient884">
      <stop
         style="stop-color:#80ff80;stop-opacity:1;"
         offset="0.000000"
         id="stop885" />
      <stop
         style="stop-color:#003f00;stop-opacity:1;"
         offset="1.000000"
         id="stop886" />
    </linearGradient>
    <linearGradient
       id="linearGradient866">
      <stop
         style="stop-color:#ffffff;stop-opacity:1;"
         offset="0.00000000"
         id="stop867" />
      <stop
         style="stop-color:#d9cce6;stop-opacity:1;"
         offset="1.00000000"
         id="stop868" />
    </linearGradient>
    <linearGradient
       id="linearGradient584">
      <stop
         style="stop-color:#ffffff;stop-opacity:1;"
         offset="0.00000000"
         id="stop585" />
      <stop
         style="stop-color:#ffffff;stop-opacity:0;"
         offset="1.00000000"
         id="stop586" />
    </linearGradient>
    <linearGradient
       id="linearGradient578">
      <stop
         style="stop-color:#d9cce6;stop-opacity:1;"
         offset="0.00000000"
         id="stop579" />
      <stop
         style="stop-color:#73667f;stop-opacity:1;"
         offset="1.00000000"
         id="stop580" />
    </linearGradient>
    <linearGradient
       xlink:href="#linearGradient584"
       id="linearGradient581"
       x1="-0.00684932"
       y1="0.00775194"
       x2="0.97945207"
       y2="1.00000000" />
    <linearGradient
       xlink:href="#linearGradient584"
       id="linearGradient583"
       x1="0.01094890"
       y1="0.01030928"
       x2="1.01459849"
       y2="0.96907216" />
    <linearGradient
       xlink:href="#linearGradient584"
       id="linearGradient860"
       x1="-0.02500000"
       y1="0.03100775"
       x2="0.97500002"
       y2="0.97674417" />
    <linearGradient
       xlink:href="#linearGradient578"
       id="linearGradient861"
       x1="0.00000000"
       y1="0.02325581"
       x2="0.98611110"
       y2="0.97674417" />
    <linearGradient
       xlink:href="#linearGradient578"
       id="linearGradient862"
       x1="-0.00000000"
       y1="0.00775194"
       x2="1.00000000"
       y2="0.99224806" />
    <linearGradient
       xlink:href="#linearGradient866"
       id="linearGradient869"
       x1="-0.00684932"
       y1="0.00775194"
       x2="0.97945207"
       y2="1.00000000" />
    <linearGradient
       xlink:href="#linearGradient884"
       id="linearGradient883"
       x1="-0.01020493"
       y1="0.01562532"
       x2="0.97959203"
       y2="0.99218762"
       gradientUnits="objectBoundingBox"
       spreadMethod="pad" />
    <linearGradient
       xlink:href="#linearGradient964"
       id="linearGradient963"
       x1="0.96913266"
       y1="0.96875405"
       x2="0.012349006"
       y2="0.015620801"
       gradientUnits="objectBoundingBox"
       spreadMethod="pad" />
    <linearGradient
       xlink:href="#linearGradient584"
       id="linearGradient967"
       x1="-0.00578947"
       y1="0.03114940"
       x2="0.84302366"
       y2="0.84374923"
       gradientUnits="objectBoundingBox"
       spreadMethod="pad" />
    <linearGradient
       xlink:href="#linearGradient969"
       id="linearGradient968"
       x1="0.01561102"
       y1="-0.00001780"
       x2="0.98437500"
       y2="0.99218690"
       gradientUnits="objectBoundingBox"
       spreadMethod="pad" />
    <linearGradient
       xlink:href="#linearGradient584"
       id="linearGradient972"
       x1="-0.00000030"
       y1="0.00000010"
       x2="0.99999970"
       y2="0.00000010"
       gradientUnits="objectBoundingBox"
       spreadMethod="pad" />
    <linearGradient
       xlink:href="#linearGradient884"
       id="linearGradient1815"
       x1="-0.01466661"
       y1="0.05835330"
       x2="1.02921987"
       y2="0.95953709"
       gradientUnits="objectBoundingBox"
       spreadMethod="pad" />
    <linearGradient
       xlink:href="#linearGradient584"
       id="linearGradient1816"
       x1="0.00624930"
       y1="0.02343486"
       x2="1.48749995"
       y2="1.35937512"
       gradientUnits="objectBoundingBox"
       spreadMethod="pad" />
    <linearGradient
       xlink:href="#linearGradient584"
       id="linearGradient1817"
       x1="0.00413379"
       y1="0.01517161"
       x2="0.98347086"
       y2="1.01515150"
       gradientUnits="objectBoundingBox"
       spreadMethod="pad" />
    <linearGradient
       xlink:href="#linearGradient584"
       id="linearGradient1818"
       x1="-0.03225702"
       y1="0.00781346"
       x2="0.96774155"
       y2="0.99999982"
       gradientUnits="objectBoundingBox"
       spreadMethod="pad" />
    <linearGradient
       xlink:href="#linearGradient584"
       id="linearGradient1819"
       x1="-0.00000289"
       y1="0.00782308"
       x2="1.00000000"
       y2="0.99218750"
       gradientUnits="objectBoundingBox"
       spreadMethod="pad" />
  </defs>
  <sodipodi:namedview
     id="base"
     pagecolor="#ffffff"
     bordercolor="#666666"
     borderopacity="1.0"
     inkscape:pageopacity="0.0"
     inkscape:pageshadow="2"
     inkscape:zoom="11.284677"
     inkscape:cx="12.323253"
     inkscape:cy="12.073810"
     inkscape:window-width="640"
     inkscape:window-height="525"
     inkscape:window-x="34"
     inkscape:window-y="246" />
  <path
     d="M 10.211574,13.493190 C 10.148306,8.8923778 11.559000,2.0769386 16.556198,2.1223393 C 21.901018,2.1715967 23.109848,9.6480702 22.978252,13.725256 C 22.912825,15.714705 19.292983,15.316383 19.341683,13.725256 C 19.302539,11.552542 19.877682,6.3767987 16.401444,6.3767987 C 12.939826,6.2994439 13.720870,11.627395 13.693391,13.725256 C 13.753756,14.946046 10.206623,15.123848 10.211574,13.493190 z "
     style="font-size:12;opacity:0.302675;fill-rule:evenodd;stroke-width:12.5;"
     id="path602" />
  <path
     d="M 6.1905806,29.206951 C 6.9414580,29.815572 25.505414,30.140452 26.077618,29.528931 C 26.713462,28.759907 26.535315,14.926166 25.916583,14.235391 C 25.308801,13.564976 6.8638989,13.455775 6.2710968,14.154895 C 5.7046947,14.742982 5.4507736,28.542098 6.1905806,29.206951 z "
     style="font-size:12;opacity:0.296369;fill-rule:evenodd;stroke-width:12.5;"
     id="path600" />
  <path
     d="M 9.1946575,12.538895 C 9.1322955,8.0036924 10.522871,1.2854450 15.448803,1.3301983 C 20.717403,1.3787527 21.908998,8.7486083 21.779276,12.767651 C 21.714781,14.728729 18.146561,14.336089 18.194565,12.767651 C 18.155980,10.625921 18.722926,5.5239872 15.296256,5.5239872 C 11.884003,5.4477361 12.653908,10.699707 12.626821,12.767651 C 12.686325,13.971032 9.1897805,14.146300 9.1946575,12.538895 z "
     style="font-size:12.000000;fill:url(#linearGradient968);fill-rule:evenodd;stroke:#333333;stroke-width:1.0625000;stroke-dasharray:none;"
     id="path593" />
  <path
     d="M 5.8387099,27.712601 C 6.5500098,28.289149 24.135492,28.596904 24.677529,28.017609 C 25.279861,27.289125 25.111109,14.184537 24.524984,13.530171 C 23.949237,12.895092 6.4765439,12.791648 5.9149829,13.453920 C 5.3784392,14.011008 5.1378975,27.082797 5.8387099,27.712601 z "
     style="font-size:12.000000;fill:url(#linearGradient963);fill-rule:evenodd;stroke:#261933;stroke-width:1.0625000;stroke-dasharray:none;"
     id="path583" />
  <path
     d="M 6.9065323,26.950138 C 6.6309401,26.578239 6.2773896,14.981763 6.9828046,14.445195 C 7.9294815,13.743397 23.420487,14.391707 23.686041,14.750147 C 23.928937,15.077976 11.814067,14.100268 8.5082055,16.503890 C 6.2209175,18.166913 7.1394447,27.264454 6.9065323,26.950138 z "
     style="font-size:12;opacity:0.7;fill:url(#linearGradient967);fill-rule:evenodd;stroke-width:0.110046pt;"
     id="path588" />
  <path
     d="M 10.109873,9.4126732 C 10.603404,6.2372248 11.819228,3.9150693 13.542038,2.5501916 C 14.514123,1.7800795 17.163873,1.9731264 18.423385,3.2364373 C 16.782512,2.6593721 14.934299,2.6643002 13.923403,3.4651826 C 12.239398,4.7993130 10.984768,6.9234933 10.109873,9.4126732 z "
     style="font-size:12;opacity:0.7;fill:url(#linearGradient972);fill-rule:evenodd;stroke-width:0.110046pt;"
     id="path598" />
  <path
     d="M 15.583906,16.659869 C 16.487064,16.733093 18.149587,18.352046 18.149587,19.158133 C 18.149587,19.878770 15.821476,20.404853 15.583906,21.240039 C 15.163567,22.718149 16.576352,24.901143 16.175864,26.097854 C 16.050010,26.474126 14.133547,26.354981 14.004836,25.959088 C 13.607206,24.735747 14.805474,22.765472 14.597014,21.240039 C 14.476606,20.359719 12.854180,19.502165 13.018000,18.741777 C 13.183167,17.975441 14.776482,16.594326 15.583906,16.659869 z "
     style="font-size:12;fill:#261933;fill-rule:evenodd;stroke-width:1.28711pt;"
     id="path603" />
</svg>
