<?xml version="1.0" encoding="UTF-8" standalone="no"?>
<!DOCTYPE svg PUBLIC "-//W3C//DTD SVG 20010904//EN"
"http://www.w3.org/TR/2001/REC-SVG-20010904/DTD/svg10.dtd">
<!-- Created with Inkscape (http://www.inkscape.org/) -->
<svg
   version="1.0"
   x="0"
   y="0"
   width="24.000000pt"
   height="24.000000pt"
   id="svg1"
   sodipodi:version="0.32"
   inkscape:version="0.38.1"
   sodipodi:docname="emblem-web.svg"
   sodipodi:docbase="/home/dan/svg-icons/lila/gnome/scalable/emblems"
   xmlns="http://www.w3.org/2000/svg"
   xmlns:inkscape="http://www.inkscape.org/namespaces/inkscape"
   xmlns:sodipodi="http://sodipodi.sourceforge.net/DTD/sodipodi-0.dtd"
   xmlns:xlink="http://www.w3.org/1999/xlink">
  <sodipodi:namedview
     id="base"
     pagecolor="#ffffff"
     bordercolor="#666666"
     borderopacity="1.0"
     inkscape:pageopacity="0.0"
     inkscape:pageshadow="2"
     inkscape:zoom="9.8238822"
     inkscape:cx="14.601713"
     inkscape:cy="10.624755"
     inkscape:window-width="640"
     inkscape:window-height="525"
     inkscape:window-x="69"
     inkscape:window-y="340" />
  <defs
     id="defs3">
    <linearGradient
       id="linearGradient570">
      <stop
         style="stop-color:#ffffff;stop-opacity:1;"
         offset="0"
         id="stop571" />
      <stop
         style="stop-color:#ffffff;stop-opacity:0;"
         offset="1"
         id="stop572" />
    </linearGradient>
    <linearGradient
       id="linearGradient563">
      <stop
         style="stop-color:#d9cce6;stop-opacity:1;"
         offset="0.00000000"
         id="stop564" />
      <stop
         style="stop-color:#73667f;stop-opacity:1;"
         offset="1.00000000"
         id="stop565" />
    </linearGradient>
    <linearGradient
       x1="0.03846154"
       y1="0.07031250"
       x2="0.98461539"
       y2="0.96875000"
       id="linearGradient566"
       xlink:href="#linearGradient563" />
    <linearGradient
       x1="0.006536"
       y1="0.015625"
       x2="0.849673"
       y2="0.867188"
       id="linearGradient569"
       xlink:href="#linearGradient570" />
    <linearGradient
       x1="0.007280"
       y1="0.021274"
       x2="0.960000"
       y2="0.946808"
       id="linearGradient573"
       xlink:href="#linearGradient570" />
    <linearGradient
       x1="0.980392"
       y1="0.976562"
       x2="0.006536"
       y2="0.007812"
       id="linearGradient575"
       xlink:href="#linearGradient563" />
    <linearGradient
       x1="-0.006622"
       y1="0.007813"
       x2="0.920530"
       y2="0.921875"
       id="linearGradient578"
       xlink:href="#linearGradient570" />
  </defs>
  <ellipse
     cx="286.926392"
     cy="278.069977"
     rx="278.198608"
     ry="278.198578"
     transform="matrix(4.895395e-2,0.000000,0.000000,4.895395e-2,2.417398,2.825595)"
     style="font-size:12;opacity:0.302675;fill-rule:evenodd;stroke-width:13.2536;"
     id="path1023" />
  <ellipse
     cx="286.926392"
     cy="278.069977"
     rx="278.198608"
     ry="278.198578"
     transform="matrix(4.895395e-2,0.000000,0.000000,4.895395e-2,1.228211,1.353272)"
     style="font-size:12;fill:url(#linearGradient566);fill-rule:evenodd;stroke:#261933;stroke-width:21.704071;stroke-opacity:1;stroke-dasharray:none;"
     id="path983" />
  <path
     d="M 5.4957678,5.8328497 C 5.9918816,5.5579575 6.5369936,6.5296825 7.2078735,6.6225933 C 7.8070704,6.7054868 9.2640083,5.7649052 10.046848,6.2123312 C 10.565592,6.4345390 10.124188,8.3875387 9.9662383,9.5568152 C 9.7673891,10.495268 9.1324281,11.839468 8.7352466,13.003087 C 8.5287656,13.512904 7.0939405,15.359964 7.0352863,15.477271 C 6.9767371,15.594474 7.5975800,17.159738 7.2111945,17.353034 C 6.8084590,17.591385 6.3111001,15.300376 5.4526341,14.656539 C 5.0821836,14.434227 4.2279692,14.537312 3.9285566,14.773899 C 3.5718350,14.967349 3.8788310,16.994731 4.3974299,17.587543 C 4.9290630,18.384761 5.7296536,18.998026 6.2147110,19.814917 C 6.8433400,20.873789 7.2307120,22.081580 7.7387109,23.214885 C 7.7387109,23.214885 7.3194693,24.661548 7.3781228,24.661548 C 7.4367764,24.661548 8.2662803,26.321592 8.2662803,26.321592 C 6.5630495,25.027898 5.1919119,23.765606 4.0457850,22.218354 C 3.2379940,21.127765 2.5937318,19.631170 2.4044584,18.408119 C 2.3397213,17.989863 3.1221151,17.738900 3.2837542,17.294433 C 3.5801247,16.553429 2.0259781,14.714311 1.9631728,14.113504 C 1.8860356,13.466552 2.2773830,10.878280 3.1665050,9.3223582 C 3.8030957,8.1069891 4.5459993,6.3590169 5.4957678,5.8328497 z "
     style="font-size:12.000000;opacity:0.50445902;fill:#261933;fill-rule:evenodd;stroke:#000000;stroke-width:0.059275186pt;"
     id="path565" />
  <path
     d="M 15.593634,10.260240 C 15.276750,10.715297 14.937599,11.529851 15.124615,11.959992 C 15.328396,12.428545 16.209857,12.947029 16.765973,12.956579 C 17.343215,12.966545 17.932499,12.319906 18.524534,12.018698 C 19.046238,11.753305 19.549514,11.346572 20.107238,11.256620 C 20.760990,11.151200 21.687038,11.117980 22.158859,11.432580 C 22.507663,11.665169 22.646511,12.436849 22.569223,12.898030 C 22.405359,13.249690 21.857027,13.552456 22.041602,13.777311 C 22.203187,13.914290 23.324553,13.088057 23.507056,12.604971 C 23.656750,12.208828 22.946421,11.644095 23.038139,11.139469 C 23.112261,10.806132 24.330225,10.890426 24.738100,10.963665 C 25.074552,11.045521 25.401246,11.879902 25.734687,11.842893 C 26.040152,11.842893 26.802697,10.857207 26.885329,10.861826 C 27.203357,10.914355 27.434543,11.842893 27.434543,11.842893 C 26.887354,12.350946 26.445950,13.048297 25.793236,13.366998 C 24.765556,13.868872 23.552679,14.171067 22.393367,14.304879 C 20.504576,14.522831 18.265266,13.755822 16.648719,14.422082 C 15.373398,14.947781 13.736400,16.678885 13.717819,17.880602 C 13.697315,19.199419 14.552823,21.440755 16.086944,21.576332 C 17.944126,21.780685 19.884927,22.198886 20.554093,23.054448 C 21.076886,23.722938 20.467617,26.241916 20.551809,27.074795 C 20.583474,27.350931 21.387178,26.861721 21.865802,26.614703 C 22.598705,26.236517 23.485255,25.489701 23.741514,24.680284 C 24.227766,23.144972 24.282471,21.240763 24.093329,19.580509 C 23.930759,18.153626 22.514050,15.570754 22.686530,15.418617 C 22.846192,15.277745 24.100594,18.132449 25.089760,18.701281 C 25.663732,19.031245 26.980836,18.544838 27.375940,18.115009 C 27.645279,17.821950 26.892127,16.703021 27.082829,16.532355 C 27.263409,16.370773 28.410730,17.503248 28.489681,17.118629 C 29.118668,14.198161 28.527464,12.041692 27.499268,9.3377751 C 26.657880,7.2739568 24.272767,4.4329046 21.726072,3.0402667 C 21.367454,2.8424132 19.813349,3.7180700 18.614123,4.4851212 C 17.930475,4.8272833 17.220094,5.8576086 17.571184,6.1048352 C 17.880697,6.3490505 18.798181,5.5252058 19.447466,5.3789357 C 20.611398,5.1007216 21.152202,5.2515596 22.041602,5.6879296 C 22.041602,5.6879296 23.302184,6.7310760 22.745027,7.5050403 C 22.391346,7.9735395 21.220976,7.9740071 21.220976,7.9740071 C 20.966950,7.8373396 20.701920,7.5120993 20.458898,7.5636924 C 20.057204,7.6489736 19.718103,8.1910768 19.286561,8.3844237 C 18.408889,8.7774016 17.383130,8.8577001 16.531464,9.3223582 C 16.049884,9.4334876 15.790979,9.9605885 15.593634,10.260240 z "
     style="font-size:12.000000;opacity:0.49999997;fill:#261933;fill-rule:evenodd;stroke:#000000;stroke-width:0.059275186pt;"
     id="path566" />
  <path
     d="M 4.7133944,22.299219 C 4.5321405,21.755562 -2.3329799,9.4602189 10.715911,3.1590425 C 16.632212,0.27478412 25.372852,5.6218022 26.345149,8.8218324 C 26.494895,9.3059557 20.431909,2.3949666 11.791861,6.2169505 C 0.54286434,11.160647 4.8719151,22.774833 4.7133944,22.299219 z "
     style="font-size:12;opacity:0.7;fill:url(#linearGradient569);fill-rule:evenodd;stroke:none;stroke-width:0.0998909pt;"
     id="path984" />
</svg>
