<?xml version="1.0" encoding="UTF-8" standalone="no"?>
<!DOCTYPE svg PUBLIC "-//W3C//DTD SVG 20010904//EN"
"http://www.w3.org/TR/2001/REC-SVG-20010904/DTD/svg10.dtd">
<!-- Created with Inkscape (http://www.inkscape.org/) -->
<svg
   id="svg1"
   sodipodi:version="0.32"
   inkscape:version="0.38.1"
   width="48pt"
   height="48pt"
   sodipodi:docbase="/root/Desktop/mimes"
   sodipodi:docname="gnome-mime-application-x-ipod-firmware.svg"
   xmlns="http://www.w3.org/2000/svg"
   xmlns:inkscape="http://www.inkscape.org/namespaces/inkscape"
   xmlns:sodipodi="http://sodipodi.sourceforge.net/DTD/sodipodi-0.dtd"
   xmlns:xml="http://www.w3.org/XML/1998/namespace"
   xmlns:xlink="http://www.w3.org/1999/xlink">
  <defs
     id="defs3">
    <linearGradient
       id="linearGradient589">
      <stop
         style="stop-color:#d9cce6;stop-opacity:1;"
         offset="0.00000000"
         id="stop590" />
      <stop
         style="stop-color:#73667f;stop-opacity:1;"
         offset="1.00000000"
         id="stop591" />
    </linearGradient>
    <linearGradient
       id="linearGradient866">
      <stop
         style="stop-color:#ffffff;stop-opacity:1;"
         offset="0.00000000"
         id="stop867" />
      <stop
         style="stop-color:#d9cce6;stop-opacity:1;"
         offset="1.00000000"
         id="stop868" />
    </linearGradient>
    <linearGradient
       id="linearGradient584">
      <stop
         style="stop-color:#ffffff;stop-opacity:1;"
         offset="0.00000000"
         id="stop585" />
      <stop
         style="stop-color:#ffffff;stop-opacity:0;"
         offset="1.00000000"
         id="stop586" />
    </linearGradient>
    <linearGradient
       xlink:href="#linearGradient866"
       id="linearGradient586"
       x1="-0.00000000"
       y1="0.01562500"
       x2="0.99122804"
       y2="0.98437500" />
    <linearGradient
       xlink:href="#linearGradient584"
       id="linearGradient587"
       x1="0.00000000"
       y1="-0.00000000"
       x2="1.00000000"
       y2="1.00000000" />
    <linearGradient
       xlink:href="#linearGradient589"
       id="linearGradient588"
       x1="0.00000000"
       y1="0.00000000"
       x2="1.00000000"
       y2="0.00000000" />
    <linearGradient
       xlink:href="#linearGradient589"
       id="linearGradient593" />
    <linearGradient
       xlink:href="#linearGradient584"
       id="linearGradient597"
       x1="0.00000000"
       y1="0.00000000"
       x2="1.00000000"
       y2="0.00000000" />
  </defs>
  <sodipodi:namedview
     id="base"
     pagecolor="#ffffff"
     bordercolor="#666666"
     borderopacity="1.0"
     inkscape:pageopacity="0.0"
     inkscape:pageshadow="2"
     inkscape:zoom="5.6568542"
     inkscape:cx="57.023901"
     inkscape:cy="10.300614"
     inkscape:window-width="1018"
     inkscape:window-height="711"
     inkscape:window-x="84"
     inkscape:window-y="326" />
  <path
     d="M 4.4389304 48.086315 C 5.2483181 50.50443 38.765774 61.377487 40.966438 59.55288 C 42.936267 57.902492 57.675565 8.7785888 56.688667 6.8303779 C 55.662821 4.6824777 21.657054 -0.6675724 20.042945 0.80153134 C 18.054709 2.621752 3.5888672 45.311841 4.4389304 48.086315 z "
     style="font-size:12;opacity:0.302675;fill-rule:evenodd;stroke-width:12.5;"
     id="path639" />
  <path
     d="M 4.5541516 46.08493 C 5.3114351 48.34726 36.66955 58.519843 38.728432 56.812781 C 40.571358 55.268717 54.36111 9.3095333 53.437795 7.4867937 C 52.478034 5.477268 20.663028 0.47192513 19.152904 1.8463842 C 17.292759 3.5493405 3.7588508 43.489198 4.5541516 46.08493 z "
     style="font-size:12;fill:url(#linearGradient586);fill-rule:evenodd;stroke:#261933;stroke-width:1.87726;"
     id="path634" />
  <path
     d="M 6.6876568 43.965773 C 6.360392 43.13667 19.363758 4.5872629 20.579427 3.7922731 C 22.09876 2.7554118 46.659814 7.3454032 46.98631 8.172561 C 47.28557 8.9306762 27.823671 5.3906629 23.493845 9.2635774 C 15.189619 16.482895 6.9861475 44.721984 6.6876568 43.965773 z "
     style="font-size:12;opacity:0.699936;fill:url(#linearGradient587);fill-rule:evenodd;stroke:none;stroke-width:0.100121pt;"
     id="path640" />
  <path
     d="M 41.110251,39.937169 C 40.468516,41.953573 38.439039,42.324985 30.170624,45.149410 C 21.359946,48.159069 19.234608,48.773999 17.463443,47.565029 C 15.662266,46.321835 15.276167,44.113757 11.107187,30.755714 C 6.7317763,16.736241 5.9635973,14.880185 7.2244654,12.567654 C 8.2929021,10.496031 10.300055,10.361792 19.431298,8.7864709 C 28.282838,7.2594027 29.583153,7.3237546 30.953585,8.5500089 C 32.268976,9.7339329 33.244631,12.242590 37.205206,23.275916 C 41.935531,36.453604 41.684031,37.963515 41.110251,39.937169 z "
     style="font-size:12;fill:#000000;fill-rule:evenodd;stroke:none;stroke-width:1.875;stroke-dasharray:none;fill-opacity:0.29;"
     id="path629"
     sodipodi:nodetypes="cscscscsc" />
  <path
     d="M 39.170534,39.078080 C 38.560234,41.008653 36.630107,41.363373 28.766469,44.064187 C 20.387116,46.942128 18.365822,47.529997 16.681347,46.371497 C 14.968324,45.180216 14.601103,43.065630 10.636062,30.272338 C 6.4746886,16.845579 5.7440925,15.067904 6.9432127,12.854054 C 7.9593278,10.870802 9.8682281,10.743180 18.552470,9.2388769 C 26.970702,7.7806530 28.207362,7.8428728 29.510725,9.0177369 C 30.761735,10.152040 31.689659,12.554727 35.456473,23.121821 C 39.955381,35.742670 39.716206,37.188413 39.170534,39.078080 z "
     style="font-size:12.000000;fill:url(#linearGradient586);fill-rule:evenodd;stroke:#261933;stroke-width:1.2541716;"
     id="path902"
     sodipodi:nodetypes="cscscscsc" />
  <path
     d="M 30.643862,21.662356 C 30.085458,22.431826 28.791207,22.674410 23.415226,24.141087 C 17.686670,25.703955 16.313536,26.040435 15.304431,25.692850 C 14.279305,25.334360 14.212059,24.549198 12.662490,19.896018 C 11.036195,15.012430 10.703129,14.375853 11.670726,13.465684 C 12.499451,12.653555 13.761161,12.498672 19.576883,11.442152 C 25.214460,10.417995 26.019962,10.372859 26.777913,10.747897 C 27.504875,11.110396 27.916017,11.974101 29.518265,15.790198 C 31.431915,20.347967 31.156547,20.912070 30.643862,21.662356 z "
     style="font-size:12.000000;fill:url(#linearGradient586);fill-rule:evenodd;stroke:#261933;stroke-width:1.1472088;"
     id="path628"
     sodipodi:nodetypes="cscscscsc" />
  <g
     id="g630"
     transform="matrix(7.468622e-2,-1.826930e-2,2.119198e-2,6.695425e-2,11.64418,7.162485)"
     style="font-size:12;fill:#261933;fill-opacity:1;">
    <path
       transform="matrix(1.067358,0.000000,0.000000,1.070652,-9.261658,-17.75136)"
       style="font-size:12;fill:#261933;fill-rule:evenodd;stroke:none;stroke-width:0.116931;stroke-linejoin:round;fill-opacity:1;stroke-dasharray:none;"
       d="M 114.37046 184.70178 C 114.37046 192.63678 121.97744 208.6625 133.38008 211.60058 C 126.26609 231.6634 113.43428 248.78006 100.91278 247.89658 C 95.214731 247.49918 86.974519 242.20178 78.651395 242.20178 C 65.225714 243.95305 61.163399 253.85823 46.257722 243.56018 C 36.155153 236.51129 25.951148 218.81417 20.827516 195.50127 C 15.405554 175.32849 28.268328 150.17575 41.177918 145.88452 C 63.534849 138.45293 70.348762 148.25824 79.236953 148.36295 C 89.243556 148.65483 92.651484 142.72638 102.71313 143.11373 C 112.13205 143.47632 122.11383 145.88528 130.0757 155.79738 C 123.8647 160.76864 114.37046 168.83178 114.37046 184.70178 z "
       id="path631"
       sodipodi:nodetypes="ccscscscscc" />
    <path
       transform="matrix(0.698502,0.582519,-0.582519,0.698502,97.07976,-8.513395)"
       style="font-size:12;fill:#261933;fill-rule:evenodd;stroke:none;stroke-width:0.125;stroke-linejoin:round;fill-opacity:1;"
       d="M 82.916984 137.43358 C 71.750474 123.33649 70.528099 101.14962 83.312297 87.949251 C 97.624321 102.33114 96.910996 124.34274 82.916984 137.43358 z "
       id="path632"
       sodipodi:nodetypes="ccc" />
  </g>
  <path
     style="font-size:12.000000;fill:url(#linearGradient588);fill-rule:evenodd;stroke:#261933;stroke-width:1.1108943;stroke-linejoin:round;"
     d="M 24.953512,26.652974 C 24.955022,27.602464 25.739988,28.365283 26.705666,28.355698 C 27.671344,28.346114 28.453856,27.567734 28.452349,26.618246 C 28.450838,25.668758 27.665874,24.905936 26.700195,24.915523 C 25.734516,24.925109 24.952003,25.703488 24.953512,26.652974 z "
     id="path660" />
  <path
     style="font-size:12.000000;fill:url(#linearGradient588);fill-rule:evenodd;stroke:#261933;stroke-width:1.1108943;stroke-linejoin:round;"
     d="M 20.036411,28.015712 C 20.037919,28.965197 20.822884,29.728018 21.788563,29.718431 C 22.754242,29.708848 23.536756,28.930469 23.535245,27.980980 C 23.533737,27.031492 22.748770,26.268672 21.783093,26.278256 C 20.817414,26.287843 20.034900,27.066221 20.036411,28.015712 z "
     id="path659" />
  <path
     style="font-size:12.000000;fill:url(#linearGradient588);fill-rule:evenodd;stroke:#261933;stroke-width:1.1108943;stroke-linejoin:round;"
     d="M 15.071137,29.264825 C 15.072646,30.214314 15.857612,30.977135 16.823288,30.967550 C 17.788968,30.957965 18.571482,30.179585 18.569972,29.230095 C 18.568463,28.280609 17.783499,27.517787 16.817819,27.527374 C 15.852140,27.536959 15.069627,28.315337 15.071137,29.264825 z "
     id="path658" />
  <path
     style="font-size:12.000000;fill:url(#linearGradient588);fill-rule:evenodd;stroke:#261933;stroke-width:1.1108943;stroke-linejoin:round;"
     d="M 29.770420,25.192870 C 29.771929,26.142357 30.556894,26.905178 31.522574,26.895592 C 32.488251,26.886008 33.270764,26.107628 33.269256,25.158139 C 33.267745,24.208651 32.482783,23.445832 31.517103,23.455416 C 30.551422,23.465005 29.768910,24.243382 29.770420,25.192870 z "
     id="path661" />
  <path
     d="M 38.823766,37.605663 C 38.774736,40.519296 37.151198,40.845035 29.287563,43.545850 C 20.908207,46.423792 18.341629,47.042961 16.657154,45.884462 C 15.210537,44.609900 15.116837,42.842218 11.151793,30.048927 C 6.9904198,16.622170 6.3419338,14.906181 7.5414641,12.948910 C 7.7195825,12.770057 7.9646734,12.170802 9.2884111,11.662611 C 7.0810628,12.901797 6.9413718,12.800292 12.185674,28.504218 C 18.036054,47.382674 17.347683,46.211977 25.921334,43.403828 C 37.782614,39.117975 38.674880,39.213848 38.823766,37.605663 z "
     style="font-size:12;fill:#261933;fill-rule:evenodd;stroke:none;stroke-width:1.7;fill-opacity:1;stroke-dasharray:none;"
     id="path643"
     sodipodi:nodetypes="cscsccccc" />
  <path
     style="font-size:12.000000;fill:url(#linearGradient588);fill-rule:evenodd;stroke:#261933;stroke-width:1.3248459;stroke-linejoin:round;"
     d="M 21.818213,37.064677 C 22.534366,39.925733 25.611687,41.645252 28.687235,40.902890 C 31.762784,40.160529 33.677655,37.236014 32.961502,34.374960 C 32.245352,31.513903 29.168029,29.794384 26.092481,30.536745 C 23.016935,31.279107 21.102063,34.203620 21.818213,37.064677 z "
     id="path656" />
  <path
     style="font-size:12.000000;fill:url(#linearGradient588);fill-rule:evenodd;stroke:#261933;stroke-width:1.3248459;stroke-linejoin:round;"
     d="M 25.422773,36.202916 C 25.675647,37.231451 26.762135,37.849779 27.847969,37.583111 C 28.933808,37.316443 29.609836,36.265262 29.356965,35.236726 C 29.104093,34.208191 28.017604,33.589861 26.931768,33.856531 C 25.845931,34.123198 25.169902,35.174378 25.422773,36.202916 z "
     id="path657" />
  <rect
     style="fill:#000000;fill-opacity:0.30000001;fill-rule:evenodd;stroke:none;stroke-width:1.0000000pt;stroke-opacity:1.0000000;"
     id="rect937"
     x="18.921923"
     y="39.838369"
     rx="0.92346412"
     width="40.236656"
     height="12.888113" />
  <rect
     style="fill:#d9cce6;fill-opacity:0.80000001;fill-rule:evenodd;stroke:#261933;stroke-width:1.4254594;"
     id="rect862"
     x="17.200329"
     y="38.249528"
     rx="0.91030651"
     width="39.663361"
     height="12.750523" />
  <text
     xml:space="preserve"
     style="fill:black;fill-opacity:1;stroke:none;font-family:helvetica;font-style:normal;font-weight:normal;font-size:12px;stroke-opacity:1;stroke-width:1pt;stroke-linejoin:miter;stroke-linecap:butt;"
     x="32.315414"
     y="43.967276"
     id="text863"><tspan
       id="tspan864"></tspan></text>
  <path
     style="font-size:12.000000;stroke-width:1.0000000pt;font-family:Radio Stars;"
     d="M 50.919131,47.015456 C 50.919131,47.559456 50.651131,47.831456 50.115131,47.831456 L 42.831131,47.831456 L 42.831131,41.015456 L 44.439131,41.015456 C 46.383131,41.015456 47.939131,41.539456 49.107131,42.587456 C 50.315131,43.667456 50.919131,45.143456 50.919131,47.015456 z M 49.311131,46.199456 C 49.295131,45.719456 49.127131,45.231456 48.807131,44.735456 C 48.527131,44.311456 48.171131,43.931456 47.739131,43.595456 C 46.899131,42.963456 45.999131,42.647456 45.039131,42.647456 L 44.439131,42.647456 L 44.439131,46.199456 L 49.311131,46.199456 z M 41.931131,47.015456 C 41.931131,47.559456 41.663131,47.831456 41.127131,47.831456 L 34.647131,47.831456 C 34.111131,47.831456 33.843131,47.559456 33.843131,47.015456 L 33.843131,41.831456 C 33.843131,41.287456 34.111131,41.015456 34.647131,41.015456 L 41.127131,41.015456 C 41.663131,41.015456 41.931131,41.287456 41.931131,41.831456 L 41.931131,47.015456 z M 40.323131,46.199456 L 40.323131,42.647456 L 35.451131,42.647456 L 35.451131,46.199456 L 40.323131,46.199456 z M 33.375131,44.423456 C 33.375131,44.967456 33.107131,45.239456 32.571131,45.239456 L 26.895131,45.239456 L 26.895131,47.015456 C 26.895131,47.271456 26.815131,47.471456 26.655131,47.615456 C 26.503131,47.751456 26.315131,47.819456 26.091131,47.819456 C 25.875131,47.819456 25.687131,47.751456 25.527131,47.615456 C 25.367131,47.471456 25.287131,47.271456 25.287131,47.015456 L 25.287131,41.015456 L 32.571131,41.015456 C 33.107131,41.015456 33.375131,41.287456 33.375131,41.831456 L 33.375131,44.423456 z M 31.767131,43.607456 L 31.767131,42.647456 L 26.895131,42.647456 L 26.895131,43.607456 L 31.767131,43.607456 z M 24.387131,47.015456 C 24.387131,47.271456 24.307131,47.471456 24.147131,47.615456 C 23.987131,47.751456 23.799131,47.819456 23.583131,47.819456 C 23.367131,47.819456 23.179131,47.751456 23.019131,47.615456 C 22.859131,47.471456 22.779131,47.271456 22.779131,47.015456 L 22.779131,41.831456 C 22.779131,41.575456 22.859131,41.379456 23.019131,41.243456 C 23.179131,41.099456 23.367131,41.027456 23.583131,41.027456 C 23.799131,41.027456 23.987131,41.099456 24.147131,41.243456 C 24.307131,41.379456 24.387131,41.575456 24.387131,41.831456 L 24.387131,47.015456 z "
     id="path917" />
</svg>
