<?xml version="1.0" encoding="UTF-8" standalone="no"?>
<!DOCTYPE svg PUBLIC "-//W3C//DTD SVG 20010904//EN"
"http://www.w3.org/TR/2001/REC-SVG-20010904/DTD/svg10.dtd">
<!-- Created with Inkscape (http://www.inkscape.org/) -->
<svg
   id="svg1"
   sodipodi:version="0.32"
   inkscape:version="0.38"
   width="48pt"
   height="48pt"
   sodipodi:docbase="/home/dan/Projects/Lila-icons/scalable/mimetypes"
   sodipodi:docname="gnome-mime-application-x-php.svg"
   xmlns="http://www.w3.org/2000/svg"
   xmlns:inkscape="http://www.inkscape.org/namespaces/inkscape"
   xmlns:sodipodi="http://sodipodi.sourceforge.net/DTD/sodipodi-0.dtd"
   xmlns:xml="http://www.w3.org/XML/1998/namespace"
   xmlns:xlink="http://www.w3.org/1999/xlink">
  <defs
     id="defs3">
    <linearGradient
       id="linearGradient589">
      <stop
         style="stop-color:#d9cce6;stop-opacity:1;"
         offset="0.00000000"
         id="stop590" />
      <stop
         style="stop-color:#73667f;stop-opacity:1;"
         offset="1.00000000"
         id="stop591" />
    </linearGradient>
    <linearGradient
       id="linearGradient866">
      <stop
         style="stop-color:#ffffff;stop-opacity:1;"
         offset="0.00000000"
         id="stop867" />
      <stop
         style="stop-color:#d9cce6;stop-opacity:1;"
         offset="1.00000000"
         id="stop868" />
    </linearGradient>
    <linearGradient
       id="linearGradient584">
      <stop
         style="stop-color:#ffffff;stop-opacity:1;"
         offset="0.00000000"
         id="stop585" />
      <stop
         style="stop-color:#ffffff;stop-opacity:0;"
         offset="1.00000000"
         id="stop586" />
    </linearGradient>
    <linearGradient
       xlink:href="#linearGradient866"
       id="linearGradient586"
       x1="-0.00000000"
       y1="0.01562500"
       x2="0.99122804"
       y2="0.98437500" />
    <linearGradient
       xlink:href="#linearGradient584"
       id="linearGradient587"
       x1="0.00000000"
       y1="-0.00000000"
       x2="1.00000000"
       y2="1.00000000" />
    <linearGradient
       xlink:href="#linearGradient589"
       id="linearGradient588" />
    <linearGradient
       xlink:href="#linearGradient584"
       id="linearGradient593"
       x1="-0.00000000"
       y1="-0.00000000"
       x2="1.00000000"
       y2="-0.00000000" />
    <linearGradient
       xlink:href="#linearGradient584"
       id="linearGradient597"
       x1="0.00000000"
       y1="0.00000000"
       x2="1.00000000"
       y2="0.00000000" />
    <radialGradient
       xlink:href="#linearGradient584"
       id="radialGradient608"
       cx="0.06666667"
       cy="0.08333334"
       r="0.98532331"
       fx="0.06666667"
       fy="0.08333334" />
  </defs>
  <sodipodi:namedview
     id="base"
     pagecolor="#ffffff"
     bordercolor="#666666"
     borderopacity="1.0"
     inkscape:pageopacity="0.0"
     inkscape:pageshadow="2"
     inkscape:zoom="9.8620690"
     inkscape:cx="31.499999"
     inkscape:cy="21.055945"
     inkscape:window-width="1018"
     inkscape:window-height="711"
     inkscape:window-x="0"
     inkscape:window-y="30" />
  <path
     d="M 4.4389304 48.086315 C 5.2483181 50.50443 38.765774 61.377487 40.966438 59.55288 C 42.936267 57.902492 57.675565 8.7785888 56.688667 6.8303779 C 55.662821 4.6824777 21.657054 -0.6675724 20.042945 0.80153134 C 18.054709 2.621752 3.5888672 45.311841 4.4389304 48.086315 z "
     style="font-size:12;opacity:0.302675;fill-rule:evenodd;stroke-width:12.5;"
     id="path639" />
  <path
     d="M 4.5541516 46.08493 C 5.3114351 48.34726 36.66955 58.519843 38.728432 56.812781 C 40.571358 55.268717 54.36111 9.3095333 53.437795 7.4867937 C 52.478034 5.477268 20.663028 0.47192513 19.152904 1.8463842 C 17.292759 3.5493405 3.7588508 43.489198 4.5541516 46.08493 z "
     style="font-size:12;fill:url(#linearGradient586);fill-rule:evenodd;stroke:#261933;stroke-width:1.87726;"
     id="path634" />
  <path
     d="M 6.6876568 43.965773 C 6.360392 43.13667 19.363758 4.5872629 20.579427 3.7922731 C 22.09876 2.7554118 46.659814 7.3454032 46.98631 8.172561 C 47.28557 8.9306762 27.823671 5.3906629 23.493845 9.2635774 C 15.189619 16.482895 6.9861475 44.721984 6.6876568 43.965773 z "
     style="font-size:12;opacity:0.699936;fill:url(#linearGradient587);fill-rule:evenodd;stroke:none;stroke-width:0.100121pt;"
     id="path640" />
  <path
     transform="matrix(0.809490,0.172058,-0.172058,0.809490,-22.19076,-12.67127)"
     style="font-size:12.000000;fill:url(#linearGradient588);fill-opacity:0.75000000;fill-rule:evenodd;stroke:#261933;stroke-width:1.0000000pt;"
     d="M 88.609316,32.875824 C 88.609316,38.273258 80.664971,42.653785 70.876404,42.653785 C 61.087836,42.653785 53.143492,38.273258 53.143492,32.875824 C 53.143492,27.478390 61.087836,23.097863 70.876404,23.097863 C 80.664971,23.097863 88.609316,27.478390 88.609316,32.875824 z "
     id="path854"
     sodipodi:nodetypes="ccccc" />
  <path
     transform="matrix(0.809490,0.172058,-0.172058,0.809490,-22.19076,-12.67127)"
     style="font-size:12.000000;fill:url(#radialGradient608);fill-opacity:0.75000000;fill-rule:evenodd;stroke-width:1.0000000pt;"
     d="M 84.300384,30.942331 C 84.300384,34.174693 78.063702,36.798059 70.379219,36.798059 C 62.694736,36.798059 56.458055,34.174693 56.458055,30.942331 C 56.458055,27.709969 62.694736,25.086603 70.379219,25.086603 C 78.063702,25.086603 84.300384,27.709969 84.300384,30.942331 z "
     id="path853" />
  <path
     transform="matrix(0.809490,0.172058,-0.256015,0.791645,-22.19076,-12.67127)"
     style="font-size:14.000000;font-weight:bold;fill:#ffffff;stroke-width:1.0000000pt;font-family:Arial;"
     d="M 80.279392,28.543922 L 82.070408,28.543922 L 82.070408,29.610329 C 82.302830,29.245745 82.617283,28.949521 83.013767,28.721657 C 83.410252,28.493792 83.850030,28.379860 84.333103,28.379860 C 85.176202,28.379860 85.891697,28.710264 86.479588,29.371071 C 87.067478,30.031878 87.361423,30.952451 87.361423,32.132790 C 87.361423,33.345029 87.065200,34.288389 86.472752,34.962868 C 85.880304,35.632790 85.162530,35.967751 84.319431,35.967751 C 83.918390,35.967751 83.553806,35.887998 83.225681,35.728493 C 82.902114,35.568988 82.560317,35.295550 82.200291,34.908180 L 82.200291,38.565407 L 80.279392,38.565407 L 80.279392,28.543922 z M 82.179783,32.050758 C 82.179783,32.866514 82.341567,33.470355 82.665134,33.862282 C 82.988702,34.249652 83.382908,34.443336 83.847752,34.443336 C 84.294366,34.443336 84.665785,34.265602 84.962009,33.910133 C 85.258233,33.550107 85.406345,32.962217 85.406345,32.146461 C 85.406345,31.385394 85.253676,30.820290 84.948338,30.451149 C 84.642999,30.082008 84.264744,29.897438 83.813572,29.897438 C 83.344171,29.897438 82.954522,30.079730 82.644627,30.444313 C 82.334731,30.804339 82.179783,31.339821 82.179783,32.050758 z M 73.696384,25.782204 L 73.696384,29.466774 C 74.316176,28.742165 75.056736,28.379860 75.918064,28.379860 C 76.360121,28.379860 76.758884,28.461891 77.114353,28.625954 C 77.469822,28.790016 77.736423,28.999652 77.914158,29.254860 C 78.096450,29.510068 78.219496,29.792620 78.283298,30.102516 C 78.351658,30.412412 78.385838,30.893206 78.385838,31.544899 L 78.385838,35.803688 L 76.464939,35.803688 L 76.464939,31.968727 C 76.464939,31.207659 76.428481,30.724586 76.355564,30.519508 C 76.282647,30.314430 76.152765,30.152646 75.965916,30.034157 C 75.783624,29.911110 75.553481,29.849586 75.275486,29.849586 C 74.956476,29.849586 74.671645,29.927060 74.420994,30.082008 C 74.170343,30.236956 73.985772,30.471657 73.867283,30.786110 C 73.753351,31.096006 73.696384,31.556292 73.696384,32.166969 L 73.696384,35.803688 L 71.775486,35.803688 L 71.775486,25.782204 L 73.696384,25.782204 z M 63.175877,28.543922 L 64.966892,28.543922 L 64.966892,29.610329 C 65.199314,29.245745 65.513767,28.949521 65.910252,28.721657 C 66.306736,28.493792 66.746515,28.379860 67.229588,28.379860 C 68.072687,28.379860 68.788181,28.710264 69.376072,29.371071 C 69.963963,30.031878 70.257908,30.952451 70.257908,32.132790 C 70.257908,33.345029 69.961684,34.288389 69.369236,34.962868 C 68.776788,35.632790 68.059015,35.967751 67.215916,35.967751 C 66.814874,35.967751 66.450291,35.887998 66.122166,35.728493 C 65.798598,35.568988 65.456801,35.295550 65.096775,34.908180 L 65.096775,38.565407 L 63.175877,38.565407 L 63.175877,28.543922 z M 65.076267,32.050758 C 65.076267,32.866514 65.238051,33.470355 65.561619,33.862282 C 65.885187,34.249652 66.279392,34.443336 66.744236,34.443336 C 67.190851,34.443336 67.562270,34.265602 67.858494,33.910133 C 68.154718,33.550107 68.302830,32.962217 68.302830,32.146461 C 68.302830,31.385394 68.150160,30.820290 67.844822,30.451149 C 67.539483,30.082008 67.161228,29.897438 66.710056,29.897438 C 66.240655,29.897438 65.851007,30.079730 65.541111,30.444313 C 65.231215,30.804339 65.076267,31.339821 65.076267,32.050758 z "
     id="path852" />
  <path
     transform="matrix(0.809490,0.172058,-0.256015,0.791645,0.000000,0.000000)"
     style="font-size:14.000000;font-weight:bold;fill:#261933;stroke-width:1.0000000pt;font-family:Arial;"
     d="M 49.216576,18.730679 L 51.007591,18.730679 L 51.007591,19.797085 C 51.240013,19.432501 51.554466,19.136278 51.950951,18.908413 C 52.347435,18.680548 52.787214,18.566616 53.270287,18.566616 C 54.113386,18.566616 54.828880,18.897020 55.416771,19.557827 C 56.004662,20.218634 56.298607,21.139207 56.298607,22.319546 C 56.298607,23.531785 56.002383,24.475145 55.409935,25.149624 C 54.817487,25.819546 54.099714,26.154507 53.256615,26.154507 C 52.855573,26.154507 52.490990,26.074754 52.162865,25.915249 C 51.839297,25.755744 51.497500,25.482306 51.137474,25.094936 L 51.137474,28.752163 L 49.216576,28.752163 L 49.216576,18.730679 z M 51.116966,22.237514 C 51.116966,23.053270 51.278750,23.657111 51.602318,24.049038 C 51.925886,24.436408 52.320091,24.630093 52.784935,24.630093 C 53.231550,24.630093 53.602969,24.452358 53.899193,24.096889 C 54.195417,23.736863 54.343529,23.148973 54.343529,22.333218 C 54.343529,21.572150 54.190859,21.007046 53.885521,20.637905 C 53.580182,20.268764 53.201927,20.084194 52.750755,20.084194 C 52.281354,20.084194 51.891706,20.266486 51.581810,20.631069 C 51.271914,20.991095 51.116966,21.526577 51.116966,22.237514 z M 42.633568,15.968960 L 42.633568,19.653530 C 43.253359,18.928921 43.993919,18.566616 44.855247,18.566616 C 45.297305,18.566616 45.696068,18.648647 46.051537,18.812710 C 46.407005,18.976772 46.673607,19.186408 46.851341,19.441616 C 47.033633,19.696824 47.156680,19.979376 47.220482,20.289272 C 47.288841,20.599168 47.323021,21.079962 47.323021,21.731655 L 47.323021,25.990444 L 45.402122,25.990444 L 45.402122,22.155483 C 45.402122,21.394416 45.365664,20.911343 45.292747,20.706264 C 45.219831,20.501186 45.089948,20.339403 44.903099,20.220913 C 44.720807,20.097866 44.490664,20.036343 44.212669,20.036343 C 43.893659,20.036343 43.608828,20.113817 43.358177,20.268764 C 43.107526,20.423712 42.922956,20.658413 42.804466,20.972866 C 42.690534,21.282762 42.633568,21.743048 42.633568,22.353725 L 42.633568,25.990444 L 40.712669,25.990444 L 40.712669,15.968960 L 42.633568,15.968960 z M 32.113060,18.730679 L 33.904076,18.730679 L 33.904076,19.797085 C 34.136497,19.432501 34.450951,19.136278 34.847435,18.908413 C 35.243919,18.680548 35.683698,18.566616 36.166771,18.566616 C 37.009870,18.566616 37.725365,18.897020 38.313255,19.557827 C 38.901146,20.218634 39.195091,21.139207 39.195091,22.319546 C 39.195091,23.531785 38.898867,24.475145 38.306419,25.149624 C 37.713971,25.819546 36.996198,26.154507 36.153099,26.154507 C 35.752057,26.154507 35.387474,26.074754 35.059349,25.915249 C 34.735781,25.755744 34.393984,25.482306 34.033958,25.094936 L 34.033958,28.752163 L 32.113060,28.752163 L 32.113060,18.730679 z M 34.013451,22.237514 C 34.013451,23.053270 34.175234,23.657111 34.498802,24.049038 C 34.822370,24.436408 35.216576,24.630093 35.681419,24.630093 C 36.128034,24.630093 36.499453,24.452358 36.795677,24.096889 C 37.091901,23.736863 37.240013,23.148973 37.240013,22.333218 C 37.240013,21.572150 37.087344,21.007046 36.782005,20.637905 C 36.476667,20.268764 36.098412,20.084194 35.647240,20.084194 C 35.177839,20.084194 34.788190,20.266486 34.478294,20.631069 C 34.168399,20.991095 34.013451,21.526577 34.013451,22.237514 z "
     id="path851" />
</svg>
