<?xml version="1.0" encoding="UTF-8" standalone="no"?>
<!DOCTYPE svg PUBLIC "-//W3C//DTD SVG 20010904//EN"
"http://www.w3.org/TR/2001/REC-SVG-20010904/DTD/svg10.dtd">
<!-- Created with Inkscape (http://www.inkscape.org/) -->
<svg
   id="svg1"
   sodipodi:version="0.32"
   inkscape:version="0.38"
   width="48pt"
   height="48pt"
   sodipodi:docbase="/home/dan/Projects/Lila-icons/scalable/mimetypes"
   sodipodi:docname="gnome-mime-text-x-c++.svg"
   xmlns="http://www.w3.org/2000/svg"
   xmlns:inkscape="http://www.inkscape.org/namespaces/inkscape"
   xmlns:sodipodi="http://sodipodi.sourceforge.net/DTD/sodipodi-0.dtd"
   xmlns:xml="http://www.w3.org/XML/1998/namespace"
   xmlns:xlink="http://www.w3.org/1999/xlink">
  <defs
     id="defs3">
    <linearGradient
       id="linearGradient866">
      <stop
         style="stop-color:#ffffff;stop-opacity:1;"
         offset="0.00000000"
         id="stop867" />
      <stop
         style="stop-color:#d9cce6;stop-opacity:1;"
         offset="1.00000000"
         id="stop868" />
    </linearGradient>
    <linearGradient
       id="linearGradient584">
      <stop
         style="stop-color:#ffffff;stop-opacity:1;"
         offset="0.00000000"
         id="stop585" />
      <stop
         style="stop-color:#ffffff;stop-opacity:0;"
         offset="1.00000000"
         id="stop586" />
    </linearGradient>
    <linearGradient
       xlink:href="#linearGradient866"
       id="linearGradient586"
       x1="-0.00000000"
       y1="0.01562500"
       x2="0.99122804"
       y2="0.98437500" />
    <linearGradient
       xlink:href="#linearGradient584"
       id="linearGradient587"
       x1="0.00000000"
       y1="-0.00000000"
       x2="1.00000000"
       y2="1.00000000" />
    <linearGradient
       xlink:href="#linearGradient866"
       id="linearGradient588" />
  </defs>
  <sodipodi:namedview
     id="base"
     pagecolor="#ffffff"
     bordercolor="#666666"
     borderopacity="1.0"
     inkscape:pageopacity="0.0"
     inkscape:pageshadow="2"
     inkscape:zoom="2.0000000"
     inkscape:cx="31.613129"
     inkscape:cy="23.750000"
     inkscape:window-width="1018"
     inkscape:window-height="711"
     inkscape:window-x="0"
     inkscape:window-y="30" />
  <path
     d="M 4.4389304 48.086315 C 5.2483181 50.50443 38.765774 61.377487 40.966438 59.55288 C 42.936267 57.902492 57.675565 8.7785888 56.688667 6.8303779 C 55.662821 4.6824777 21.657054 -0.6675724 20.042945 0.80153134 C 18.054709 2.621752 3.5888672 45.311841 4.4389304 48.086315 z "
     style="font-size:12;opacity:0.302675;fill-rule:evenodd;stroke-width:12.5;"
     id="path639" />
  <path
     d="M 4.5541516 46.08493 C 5.3114351 48.34726 36.66955 58.519843 38.728432 56.812781 C 40.571358 55.268717 54.36111 9.3095333 53.437795 7.4867937 C 52.478034 5.477268 20.663028 0.47192513 19.152904 1.8463842 C 17.292759 3.5493405 3.7588508 43.489198 4.5541516 46.08493 z "
     style="font-size:12;fill:url(#linearGradient586);fill-rule:evenodd;stroke:#261933;stroke-width:1.87726;"
     id="path634" />
  <path
     d="M 6.6876568 43.965773 C 6.360392 43.13667 19.363758 4.5872629 20.579427 3.7922731 C 22.09876 2.7554118 46.659814 7.3454032 46.98631 8.172561 C 47.28557 8.9306762 27.823671 5.3906629 23.493845 9.2635774 C 15.189619 16.482895 6.9861475 44.721984 6.6876568 43.965773 z "
     style="font-size:12;opacity:0.699936;fill:url(#linearGradient587);fill-rule:evenodd;stroke:none;stroke-width:0.100121pt;"
     id="path640" />
  <path
     style="font-size:12;font-weight:normal;fill:none;stroke:#261933;stroke-width:1.83008;stroke-linecap:round;font-family:helvetica;"
     d="M 28.183855 30.851816 L 30.619406 32.308622 C 31.084635 32.321174 27.845203 35.761349 26.034219 36.506059 C 24.235228 37.244161 22.29383 37.308159 20.210032 36.698054 C 18.053436 36.066635 16.435945 35.107366 15.35756 33.820249 C 14.291166 32.526523 13.667529 30.927334 13.486651 29.022681 C 13.314873 27.12069 13.532445 25.196096 14.139366 23.248896 C 14.8012 21.12552 15.773605 19.391574 17.056584 18.047056 C 18.351552 16.69593 19.858715 15.826852 21.578073 15.439821 C 23.309421 15.046182 25.057752 15.107792 26.823067 15.624649 C 28.82497 16.210777 30.346545 17.22291 31.387786 18.661049 C 32.42903 20.099188 33.714453 24.134157 32.874925 23.87748 L 30.072821 23.740068 C 29.939541 24.161642 30.392581 22.501566 29.062808 19.907916 C 28.391128 18.972602 27.386471 18.309127 26.048834 17.917487 C 24.511009 17.467234 23.106372 17.465779 21.834924 17.913122 C 20.572575 18.363128 19.53414 19.162012 18.719616 20.309775 C 17.907983 21.448263 17.292634 22.689756 16.873569 24.034251 C 16.333121 25.768188 16.106277 27.356156 16.193039 28.798156 C 16.291792 30.233548 16.764684 31.424333 17.611716 32.370514 C 18.45875 33.316693 19.491936 33.968283 20.711277 34.325288 C 22.194506 34.759555 23.586079 34.691416 24.886001 34.120868 C 26.18592 33.550323 28.074913 30.547171 28.183855 30.851816 z "
     id="path589"
     sodipodi:nodetypes="ccccccccccccccccccccccc" />
  <path
     transform="matrix(1.096617,0.357138,-0.353147,1.107259,0.000000,0.000000)"
     style="font-size:12.000000;stroke:#261933;stroke-width:0.71259499;font-family:helvetica;"
     d="M 40.350877,12.379918 L 41.214877,12.379918 L 41.214877,9.9199183 L 43.674877,9.9199183 L 43.674877,9.0559183 L 41.214877,9.0559183 L 41.214877,6.5959183 L 40.350877,6.5959183 L 40.350877,9.0559183 L 37.890877,9.0559183 L 37.890877,9.9199183 L 40.350877,9.9199183 L 40.350877,12.379918 z M 40.350877,24.379918 L 41.214877,24.379918 L 41.214877,21.919918 L 43.674877,21.919918 L 43.674877,21.055918 L 41.214877,21.055918 L 41.214877,18.595918 L 40.350877,18.595918 L 40.350877,21.055918 L 37.890877,21.055918 L 37.890877,21.919918 L 40.350877,21.919918 L 40.350877,24.379918 z "
     id="path843" />
</svg>
