<?xml version="1.0" encoding="UTF-8" standalone="no"?>
<!DOCTYPE svg PUBLIC "-//W3C//DTD SVG 20010904//EN"
"http://www.w3.org/TR/2001/REC-SVG-20010904/DTD/svg10.dtd">
<!-- Created with Inkscape (http://www.inkscape.org/) -->
<svg
   id="svg1"
   sodipodi:version="0.32"
   inkscape:version="0.37"
   width="48pt"
   height="48pt"
   sodipodi:docbase="/home/dan/Projects/Lila-icons/scalable/mimetypes"
   sodipodi:docname="gnome-mime-application-postscript.svg"
   xmlns="http://www.w3.org/2000/svg"
   xmlns:inkscape="http://www.inkscape.org/namespaces/inkscape"
   xmlns:sodipodi="http://sodipodi.sourceforge.net/DTD/sodipodi-0.dtd"
   xmlns:xlink="http://www.w3.org/1999/xlink">
  <defs
     id="defs3">
    <linearGradient
       id="linearGradient703">
      <stop
         style="stop-color:#d9cce6;stop-opacity:1;"
         offset="0.00000000"
         id="stop704" />
      <stop
         style="stop-color:#73667f;stop-opacity:1;"
         offset="1.00000000"
         id="stop705" />
    </linearGradient>
    <linearGradient
       id="linearGradient866">
      <stop
         style="stop-color:#ffffff;stop-opacity:1;"
         offset="0.00000000"
         id="stop867" />
      <stop
         style="stop-color:#d9cce6;stop-opacity:1;"
         offset="1.00000000"
         id="stop868" />
    </linearGradient>
    <linearGradient
       id="linearGradient584">
      <stop
         style="stop-color:#ffffff;stop-opacity:1;"
         offset="0.00000000"
         id="stop585" />
      <stop
         style="stop-color:#ffffff;stop-opacity:0;"
         offset="1.00000000"
         id="stop586" />
    </linearGradient>
    <linearGradient
       xlink:href="#linearGradient866"
       id="linearGradient586"
       x1="-0.00000000"
       y1="0.01562500"
       x2="0.99122804"
       y2="0.98437500" />
    <linearGradient
       xlink:href="#linearGradient584"
       id="linearGradient587"
       x1="0.00000000"
       y1="-0.00000000"
       x2="1.00000000"
       y2="1.00000000" />
    <linearGradient
       xlink:href="#linearGradient584"
       id="linearGradient700"
       x1="0.00000000"
       y1="-0.00000000"
       x2="0.98453611"
       y2="0.99218750" />
    <linearGradient
       xlink:href="#linearGradient584"
       id="linearGradient701"
       x1="0.00367647"
       y1="0.01562500"
       x2="1.01102936"
       y2="1.01562500" />
    <linearGradient
       xlink:href="#linearGradient703"
       id="linearGradient702"
       x1="-0.00000000"
       y1="0.00000000"
       x2="0.97457629"
       y2="0.96093750" />
  </defs>
  <sodipodi:namedview
     id="base"
     pagecolor="#ffffff"
     bordercolor="#666666"
     borderopacity="1.0"
     inkscape:pageopacity="0.0"
     inkscape:pageshadow="2"
     inkscape:zoom="0.99743399"
     inkscape:cx="24.8127848"
     inkscape:cy="32.0514367"
     inkscape:window-width="640"
     inkscape:window-height="516"
     inkscape:window-x="104"
     inkscape:window-y="95" />
  <path
     d="M 4.4389304 48.086315 C 5.2483181 50.50443 38.765774 61.377487 40.966438 59.55288 C 42.936267 57.902492 57.675565 8.7785888 56.688667 6.8303779 C 55.662821 4.6824777 21.657054 -0.6675724 20.042945 0.80153134 C 18.054709 2.621752 3.5888672 45.311841 4.4389304 48.086315 z "
     style="font-size:12;opacity:0.302675;fill-rule:evenodd;stroke-width:12.5;"
     id="path639" />
  <path
     d="M 4.5541516 46.08493 C 5.3114351 48.34726 36.66955 58.519843 38.728432 56.812781 C 40.571358 55.268717 54.36111 9.3095333 53.437795 7.4867937 C 52.478034 5.477268 20.663028 0.47192513 19.152904 1.8463842 C 17.292759 3.5493405 3.7588508 43.489198 4.5541516 46.08493 z "
     style="font-size:12;fill:url(#linearGradient586);fill-rule:evenodd;stroke:#261933;stroke-width:1.87726;"
     id="path634" />
  <path
     d="M 33.767315 15.887285 C 29.841018 15.208592 22.129271 19.538857 20.41732 22.852463 C 19.130365 25.343205 25.577088 30.578497 24.7705 33.300563 C 24.029246 35.802381 16.00999 36.396468 15.773684 38.524448 C 15.526414 40.749648 20.270484 45.859144 23.319552 46.360215 C 27.332556 47.019968 34.890162 44.502873 36.959888 42.007035 C 38.17941 40.536485 32.27849 36.429686 33.186957 34.461386 C 34.600263 31.399259 43.834818 29.805457 43.925066 26.915519 C 44.028159 23.61409 37.676889 16.562983 33.767315 15.887285 z "
     style="font-size:12;opacity:0.3;fill-rule:evenodd;stroke-width:6.25;"
     id="path1006" />
  <path
     d="M 31.826501 15.551595 C 28.127229 14.912256 20.861298 18.992125 19.248337 22.114127 C 18.035798 24.460847 24.109751 29.393312 23.349802 31.957981 C 22.65141 34.315239 15.095957 34.87487 14.873211 36.879908 C 14.640343 38.976439 19.109992 43.790487 21.982753 44.262584 C 25.763815 44.884194 32.884311 42.512537 34.834359 40.161119 C 35.983364 38.775602 30.423662 34.906272 31.279591 33.051786 C 32.611175 30.166616 41.311759 28.665083 41.396788 25.942244 C 41.49403 22.831721 35.509908 16.188325 31.826501 15.551595 z "
     style="font-size:12;fill-rule:evenodd;stroke:#261933;stroke-width:1.875;fill:url(#linearGradient702);stroke-opacity:1;stroke-dasharray:none;"
     id="path999" />
  <path
     d="M 20.607294 23.557353 C 21.026289 21.855923 25.512842 17.831869 29.849886 17.315535 C 30.515308 17.234055 29.654785 19.688133 28.529469 19.596213 C 24.103535 19.244512 20.476671 24.050111 20.607294 23.557353 z "
     style="font-size:12;opacity:0.699936;fill-rule:evenodd;stroke:none;stroke-width:0.143952pt;fill:url(#linearGradient700);"
     id="path1004" />
  <path
     d="M 16.295216 37.601478 C 16.497202 37.085351 22.384087 35.257782 23.857347 34.120363 C 24.327043 33.7961 23.08477 35.91851 22.297073 36.28106 C 20.564027 37.078778 16.137046 38.005651 16.295216 37.601478 z "
     style="font-size:12;opacity:0.7;fill-rule:evenodd;stroke:none;stroke-width:0.143952pt;fill:url(#linearGradient701);"
     id="path1005" />
  <ellipse
     cx="303.921448"
     cy="288.786926"
     rx="11.397049"
     ry="11.397034"
     transform="matrix(0.227500,0.000000,0.000000,0.215178,-38.06433,-46.36403)"
     style="font-size:12;fill:#261933;fill-rule:evenodd;stroke-width:1pt;"
     id="path1000" />
  <path
     d="M 17.943458 15.24314 L 44.680234 14.711014 L 44.730519 16.170276 L 17.994421 16.608245 L 17.943458 15.24314 z "
     style="font-size:12;fill:#261933;fill-rule:evenodd;stroke-width:1pt;"
     id="path1001" />
  <path
     d="M 6.6876568 43.965773 C 6.360392 43.13667 19.363758 4.5872629 20.579427 3.7922731 C 22.09876 2.7554118 46.659814 7.3454032 46.98631 8.172561 C 47.28557 8.9306762 27.823671 5.3906629 23.493845 9.2635774 C 15.189619 16.482895 6.9861475 44.721984 6.6876568 43.965773 z "
     style="font-size:12;opacity:0.699936;fill:url(#linearGradient587);fill-rule:evenodd;stroke:none;stroke-width:0.100121pt;"
     id="path640" />
  <path
     d="M 18.838211 15.83796 C 18.838211 15.084317 17.867454 13.618556 17.381924 13.618556 C 16.896542 13.618556 15.925785 15.084317 15.925785 15.83796 C 15.925785 16.641707 16.896542 18.291456 17.381924 18.291456 C 17.867454 18.291456 18.838211 16.641707 18.838211 15.83796 z "
     style="font-size:12;fill:#261933;fill-rule:evenodd;stroke-width:1pt;"
     id="path1002" />
  <path
     d="M 46.858592 15.365265 C 46.858592 14.575883 45.835483 13.040619 45.323852 13.040619 C 44.812529 13.040619 43.78942 14.575883 43.78942 15.365265 C 43.78942 16.207128 44.812529 17.934922 45.323852 17.934922 C 45.835483 17.934922 46.858592 16.207128 46.858592 15.365265 z "
     style="font-size:12;fill:#261933;fill-rule:evenodd;stroke-width:1pt;"
     id="path1003" />
</svg>
