<?xml version="1.0" encoding="UTF-8" standalone="no"?>
<!DOCTYPE svg PUBLIC "-//W3C//DTD SVG 20010904//EN"
"http://www.w3.org/TR/2001/REC-SVG-20010904/DTD/svg10.dtd">
<!-- Created with Inkscape (http://www.inkscape.org/) -->
<svg
   id="svg1"
   sodipodi:version="0.32"
   inkscape:version="0.38"
   width="48pt"
   height="48pt"
   sodipodi:docbase="/home/dan/Projects/Lila-icons/scalable/mimetypes"
   sodipodi:docname="gnome-mime-text-css.svg"
   xmlns="http://www.w3.org/2000/svg"
   xmlns:inkscape="http://www.inkscape.org/namespaces/inkscape"
   xmlns:sodipodi="http://sodipodi.sourceforge.net/DTD/sodipodi-0.dtd"
   xmlns:xlink="http://www.w3.org/1999/xlink">
  <defs
     id="defs3">
    <linearGradient
       id="linearGradient1108">
      <stop
         style="stop-color:#d9cce6;stop-opacity:1.0000000;"
         offset="0.0000000"
         id="stop1109" />
      <stop
         style="stop-color:#73667f;stop-opacity:1.0000000;"
         offset="1.0000000"
         id="stop1110" />
    </linearGradient>
    <linearGradient
       id="linearGradient866">
      <stop
         style="stop-color:#ffffff;stop-opacity:1;"
         offset="0.00000000"
         id="stop867" />
      <stop
         style="stop-color:#d9cce6;stop-opacity:1;"
         offset="1.00000000"
         id="stop868" />
    </linearGradient>
    <linearGradient
       id="linearGradient584">
      <stop
         style="stop-color:#ffffff;stop-opacity:1;"
         offset="0.00000000"
         id="stop585" />
      <stop
         style="stop-color:#ffffff;stop-opacity:0;"
         offset="1.00000000"
         id="stop586" />
    </linearGradient>
    <linearGradient
       xlink:href="#linearGradient866"
       id="linearGradient586"
       x1="-0.00000000"
       y1="0.01562500"
       x2="0.99122804"
       y2="0.98437500" />
    <linearGradient
       xlink:href="#linearGradient584"
       id="linearGradient587"
       x1="0.00000000"
       y1="-0.00000000"
       x2="1.00000000"
       y2="1.00000000" />
    <linearGradient
       xlink:href="#linearGradient1108"
       id="linearGradient1107"
       x1="0.0066889632"
       y1="0.026666667"
       x2="0.98996657"
       y2="0.99333334" />
    <linearGradient
       xlink:href="#linearGradient1108"
       id="linearGradient1111"
       x1="0.026548672"
       y1="0.0064935065"
       x2="1.0000000"
       y2="1.0000000" />
    <linearGradient
       xlink:href="#linearGradient584"
       id="linearGradient1113"
       x1="0.0097087380"
       y1="0.025974026"
       x2="0.53398061"
       y2="0.61688310" />
    <linearGradient
       xlink:href="#linearGradient584"
       id="linearGradient1115"
       x1="8.4977898e-16"
       y1="-2.9545593e-15"
       x2="0.27424750"
       y2="0.98484850" />
  </defs>
  <sodipodi:namedview
     id="base"
     pagecolor="#ffffff"
     bordercolor="#666666"
     borderopacity="1.0"
     inkscape:pageopacity="0.0"
     inkscape:pageshadow="2"
     inkscape:zoom="5.6423387"
     inkscape:cx="20.193687"
     inkscape:cy="23.723591"
     inkscape:window-width="640"
     inkscape:window-height="516"
     inkscape:window-x="196"
     inkscape:window-y="302" />
  <path
     d="M 4.4389304 48.086315 C 5.2483181 50.50443 38.765774 61.377487 40.966438 59.55288 C 42.936267 57.902492 57.675565 8.7785888 56.688667 6.8303779 C 55.662821 4.6824777 21.657054 -0.6675724 20.042945 0.80153134 C 18.054709 2.621752 3.5888672 45.311841 4.4389304 48.086315 z "
     style="font-size:12;opacity:0.302675;fill-rule:evenodd;stroke-width:12.5;"
     id="path639" />
  <path
     d="M 4.5541516 46.08493 C 5.3114351 48.34726 36.66955 58.519843 38.728432 56.812781 C 40.571358 55.268717 54.36111 9.3095333 53.437795 7.4867937 C 52.478034 5.477268 20.663028 0.47192513 19.152904 1.8463842 C 17.292759 3.5493405 3.7588508 43.489198 4.5541516 46.08493 z "
     style="font-size:12;fill:url(#linearGradient586);fill-rule:evenodd;stroke:#261933;stroke-width:1.87726;"
     id="path634" />
  <path
     style="fill:url(#linearGradient1107);fill-rule:evenodd;stroke:#261933;stroke-opacity:1.0000000;stroke-width:1pt;stroke-linejoin:miter;stroke-linecap:butt;fill-opacity:1;"
     d="M 22.597013,6.3874795 C 23.424804,5.8201925 45.881174,10.331611 46.523262,11.261345 C 47.165350,12.269405 45.370637,18.134631 44.307868,19.015222 C 43.245099,19.817487 20.423977,14.419911 19.938541,13.255199 C 19.453105,12.168813 21.690895,6.9547665 22.597013,6.3874795 z "
     id="path1100"
     sodipodi:nodetypes="czzzz" />
  <path
     style="fill:url(#linearGradient1111);fill-rule:evenodd;stroke:#261933;stroke-opacity:1.0000000;stroke-width:1pt;stroke-linejoin:miter;stroke-linecap:butt;fill-opacity:1;"
     d="M 18.231113,17.323539 C 19.224648,16.449733 23.875887,17.985983 24.212676,19.095854 C 24.471139,20.205725 20.697098,30.863229 19.781889,31.502057 C 18.788354,32.219211 14.358654,30.853052 14.021865,29.508203 C 13.685076,28.241680 17.315904,18.119019 18.231113,17.323539 z "
     id="path1101"
     sodipodi:nodetypes="czzzz" />
  <path
     style="fill:#261933;fill-rule:evenodd;stroke-width:1.0000000pt;fill-opacity:1.0000000;"
     d="M 27.823572,21.074307 C 27.573800,21.023192 27.331570,21.183122 27.280455,21.432895 L 27.025283,22.679785 C 26.974168,22.929559 27.134099,23.171790 27.383871,23.222905 L 42.708980,26.826624 C 42.958753,26.877739 43.200983,26.717809 43.252099,26.468035 L 43.507270,25.221144 C 43.558385,24.971373 43.398454,24.729141 43.148682,24.678026 L 27.823572,21.074307 z "
     id="path1103"
     sodipodi:nodetypes="ccccccccc" />
  <path
     style="fill:#261933;fill-rule:evenodd;stroke-width:1.0000000pt;fill-opacity:1.0000000;"
     d="M 25.973581,26.295309 C 25.724703,26.240002 25.479818,26.395836 25.424510,26.644714 L 25.148407,27.887137 C 25.093100,28.136016 25.248935,28.380902 25.497812,28.436210 L 40.760155,32.297120 C 41.009034,32.352427 41.253919,32.196593 41.309228,31.947714 L 41.585330,30.705290 C 41.640637,30.456414 41.484802,30.211527 41.235925,30.156219 L 25.973581,26.295309 z "
     id="path1104"
     sodipodi:nodetypes="ccccccccc" />
  <path
     style="fill:#261933;fill-rule:evenodd;stroke-width:1.0000000pt;fill-opacity:1.0000000;"
     d="M 24.104277,31.487891 C 23.856823,31.426529 23.608210,31.576342 23.546847,31.823797 L 23.240517,33.059115 C 23.179154,33.306570 23.328969,33.555185 23.576423,33.616548 L 38.740037,37.848636 C 38.987492,37.909998 39.236105,37.760185 39.297469,37.512729 L 39.603798,36.277410 C 39.665161,36.029958 39.515346,35.781342 39.267892,35.719979 L 24.104277,31.487891 z "
     id="path1105"
     sodipodi:nodetypes="ccccccccc" />
  <path
     style="fill:#261933;fill-rule:evenodd;stroke-width:1.0000000pt;fill-opacity:1.0000000;"
     d="M 22.274126,37.015428 C 22.027643,36.950274 21.776759,37.096255 21.711606,37.342739 L 21.386353,38.573210 C 21.321200,38.819695 21.467182,39.070579 21.713665,39.135733 L 36.810542,43.600041 C 37.057026,43.665195 37.307910,43.519214 37.373064,43.272729 L 37.698316,42.042257 C 37.763469,41.795775 37.617487,41.544890 37.371004,41.479736 L 22.274126,37.015428 z "
     id="path1106"
     sodipodi:nodetypes="ccccccccc" />
  <path
     d="M 6.6876568 43.965773 C 6.360392 43.13667 19.363758 4.5872629 20.579427 3.7922731 C 22.09876 2.7554118 46.659814 7.3454032 46.98631 8.172561 C 47.28557 8.9306762 27.823671 5.3906629 23.493845 9.2635774 C 15.189619 16.482895 6.9861475 44.721984 6.6876568 43.965773 z "
     style="font-size:12;opacity:0.699936;fill:url(#linearGradient587);fill-rule:evenodd;stroke:none;stroke-width:0.100121pt;"
     id="path640" />
  <path
     style="fill:url(#linearGradient1113);fill-rule:evenodd;stroke:none;stroke-opacity:1;stroke-width:1pt;stroke-linejoin:miter;stroke-linecap:butt;fill-opacity:1.0000000;"
     d="M 15.116915,29.296214 C 15.064698,29.113453 18.093302,19.022456 19.033214,18.565554 C 20.051452,18.108652 22.583993,19.322705 22.636210,19.505466 C 22.688427,19.688227 20.521408,19.048564 19.346518,19.662118 C 18.249954,20.197346 15.169132,29.478975 15.116915,29.296214 z "
     id="path1112"
     sodipodi:nodetypes="czzzz" />
  <path
     style="fill:url(#linearGradient1115);fill-rule:evenodd;stroke:none;stroke-opacity:1;stroke-width:1pt;stroke-linejoin:miter;stroke-linecap:butt;fill-opacity:1;"
     d="M 21.148016,12.691105 C 21.030527,12.469181 22.414286,8.1612521 23.419470,7.5999159 C 24.346328,7.1169056 44.919953,11.920899 45.037442,12.142823 C 45.154931,12.364747 26.696106,7.9784914 24.124403,8.9314576 C 21.552700,9.9627498 21.265505,12.913029 21.148016,12.691105 z "
     id="path1114"
     sodipodi:nodetypes="czzzz" />
  <path
     style="fill:#261933;fill-rule:evenodd;stroke-width:1.0000000pt;fill-opacity:1.0000000;"
     d="M 20.313439,42.418406 C 20.066956,42.353252 19.816072,42.499233 19.750919,42.745717 L 19.425666,43.976188 C 19.360513,44.222673 19.506495,44.473557 19.752978,44.538711 L 34.849855,49.003019 C 35.096339,49.068173 35.347223,48.922192 35.412377,48.675707 L 35.737629,47.445235 C 35.802782,47.198753 35.656800,46.947868 35.410317,46.882714 L 20.313439,42.418406 z "
     id="path1116"
     sodipodi:nodetypes="ccccccccc" />
</svg>
