<?xml version="1.0" encoding="UTF-8" standalone="no"?>
<!DOCTYPE svg PUBLIC "-//W3C//DTD SVG 20010904//EN"
"http://www.w3.org/TR/2001/REC-SVG-20010904/DTD/svg10.dtd">
<!-- Created with Inkscape (http://www.inkscape.org/) -->
<svg
   version="1.0"
   x="0.0000000"
   y="0.0000000"
   width="60.000000"
   height="60.000000"
   id="svg1"
   sodipodi:version="0.32"
   inkscape:version="0.40"
   sodipodi:docname="gnome-mime-application-x-matlab.svg"
   sodipodi:docbase="/home/scaba"
   xmlns="http://www.w3.org/2000/svg"
   xmlns:cc="http://web.resource.org/cc/"
   xmlns:inkscape="http://www.inkscape.org/namespaces/inkscape"
   xmlns:sodipodi="http://sodipodi.sourceforge.net/DTD/sodipodi-0.dtd"
   xmlns:rdf="http://www.w3.org/1999/02/22-rdf-syntax-ns#"
   xmlns:xml="http://www.w3.org/XML/1998/namespace"
   xmlns:dc="http://purl.org/dc/elements/1.1/"
   xmlns:xlink="http://www.w3.org/1999/xlink">
  <metadata
     id="metadata47">
    <rdf:RDF
       id="RDF48">
      <cc:Work
         rdf:about=""
         id="Work49">
        <dc:format
           id="format50">image/svg+xml</dc:format>
        <dc:type
           id="type52"
           rdf:resource="http://purl.org/dc/dcmitype/StillImage" />
      </cc:Work>
    </rdf:RDF>
  </metadata>
  <sodipodi:namedview
     id="base"
     pagecolor="#ffffff"
     bordercolor="#666666"
     borderopacity="1.0"
     inkscape:pageopacity="0.0"
     inkscape:pageshadow="2"
     inkscape:zoom="4.9119411"
     inkscape:cx="21.515169"
     inkscape:cy="23.133285"
     inkscape:window-width="640"
     inkscape:window-height="538"
     inkscape:window-x="188"
     inkscape:window-y="108"
     inkscape:current-layer="svg1" />
  <defs
     id="defs3">
    <linearGradient
       x1="18.683064"
       y1="20.449495"
       x2="28.324802"
       y2="27.445408"
       id="linearGradient1778"
       xlink:href="#linearGradient578"
       gradientUnits="userSpaceOnUse"
       gradientTransform="matrix(0.569576,0.000000,0.000000,0.566549,10.69717,9.023150)"
       spreadMethod="reflect" />
    <linearGradient
       id="linearGradient578">
      <stop
         style="stop-color:#d9cce6;stop-opacity:1.0000000;"
         offset="0.0000000"
         id="stop579" />
      <stop
         style="stop-color:#73667f;stop-opacity:1.0000000;"
         offset="1.0000000"
         id="stop580" />
    </linearGradient>
    <linearGradient
       x1="124.55768"
       y1="26.392714"
       x2="144.69109"
       y2="26.551777"
       id="linearGradient1774"
       xlink:href="#linearGradient578"
       gradientUnits="userSpaceOnUse"
       gradientTransform="matrix(0.501085,0.000000,0.000000,0.643987,-30.08862,8.205393)"
       spreadMethod="reflect" />
    <linearGradient
       x1="63.210545"
       y1="45.250092"
       x2="81.030518"
       y2="36.660873"
       id="linearGradient1782"
       xlink:href="#linearGradient584"
       gradientUnits="userSpaceOnUse"
       gradientTransform="matrix(0.671744,0.000000,0.000000,0.480380,-30.08862,8.205393)" />
    <linearGradient
       x1="72.493027"
       y1="3.8504148"
       x2="82.074326"
       y2="11.770768"
       id="linearGradient1801"
       xlink:href="#linearGradient584"
       gradientUnits="userSpaceOnUse"
       gradientTransform="matrix(0.278388,0.000000,0.000000,1.159146,10.69717,9.023150)"
       spreadMethod="pad" />
    <linearGradient
       x1="32.070965"
       y1="43.514565"
       x2="33.129238"
       y2="35.911697"
       id="linearGradient1806"
       xlink:href="#linearGradient584"
       gradientUnits="userSpaceOnUse"
       gradientTransform="matrix(0.472105,0.000000,0.000000,0.683519,10.69717,9.023150)" />
    <linearGradient
       id="linearGradient642">
      <stop
         style="stop-color:#d9cce6;stop-opacity:1.0000000;"
         offset="0.0000000"
         id="stop643" />
      <stop
         style="stop-color:#73667f;stop-opacity:1.0000000;"
         offset="1.0000000"
         id="stop644" />
    </linearGradient>
    <linearGradient
       id="linearGradient866">
      <stop
         style="stop-color:#ffffff;stop-opacity:1.0000000;"
         offset="0.0000000"
         id="stop867" />
      <stop
         style="stop-color:#d9cce6;stop-opacity:1.0000000;"
         offset="1.0000000"
         id="stop868" />
    </linearGradient>
    <linearGradient
       id="linearGradient584">
      <stop
         style="stop-color:#ffffff;stop-opacity:1.0000000;"
         offset="0.0000000"
         id="stop585" />
      <stop
         style="stop-color:#ffffff;stop-opacity:0.0000000;"
         offset="1.0000000"
         id="stop586" />
    </linearGradient>
    <linearGradient
       x1="-0.0000000"
       y1="0.015625000"
       x2="0.99122804"
       y2="0.98437500"
       id="linearGradient586"
       xlink:href="#linearGradient866" />
    <linearGradient
       x1="0.0000000"
       y1="-0.0000000"
       x2="1.0000000"
       y2="1.0000000"
       id="linearGradient587"
       xlink:href="#linearGradient584" />
    <linearGradient
       x1="0.0000000"
       y1="-0.0000000"
       x2="0.99253732"
       y2="1.0000000"
       id="linearGradient638"
       xlink:href="#linearGradient584" />
    <radialGradient
       id="radialGradient639"
       xlink:href="#linearGradient866" />
    <linearGradient
       x1="-0.0000000"
       y1="0.0000000"
       x2="1.0000000"
       y2="0.99218750"
       id="linearGradient640"
       xlink:href="#linearGradient584" />
    <linearGradient
       x1="0.0000000"
       y1="0.0000000"
       x2="0.96666664"
       y2="0.98437500"
       id="linearGradient641"
       xlink:href="#linearGradient642" />
    <linearGradient
       x1="0.014925370"
       y1="0.0078125000"
       x2="0.97761196"
       y2="0.97656250"
       id="linearGradient645"
       xlink:href="#linearGradient584" />
    <linearGradient
       inkscape:collect="always"
       xlink:href="#linearGradient578"
       id="linearGradient1107"
       gradientUnits="userSpaceOnUse"
       gradientTransform="matrix(0.569576,0.000000,0.000000,0.566549,-24.73590,9.023150)"
       spreadMethod="reflect"
       x1="18.683064"
       y1="20.449495"
       x2="28.324802"
       y2="27.445408" />
    <linearGradient
       inkscape:collect="always"
       xlink:href="#linearGradient866"
       id="linearGradient1128"
       x1="3.8016835"
       y1="1.4765247"
       x2="57.287640"
       y2="53.749582"
       gradientTransform="scale(0.942172,1.061378)"
       gradientUnits="userSpaceOnUse" />
    <linearGradient
       inkscape:collect="always"
       xlink:href="#linearGradient584"
       id="linearGradient1129"
       x1="6.6842281"
       y1="3.6391857"
       x2="47.008321"
       y2="43.963279"
       gradientTransform="scale(0.999604,1.000396)"
       gradientUnits="userSpaceOnUse" />
    <linearGradient
       inkscape:collect="always"
       xlink:href="#linearGradient578"
       id="linearGradient1130"
       gradientUnits="userSpaceOnUse"
       gradientTransform="matrix(0.569576,0.000000,0.000000,0.566549,10.41015,9.031336)"
       spreadMethod="reflect"
       x1="18.683064"
       y1="20.449495"
       x2="28.324802"
       y2="27.445408" />
    <linearGradient
       inkscape:collect="always"
       xlink:href="#linearGradient578"
       id="linearGradient1131"
       gradientUnits="userSpaceOnUse"
       gradientTransform="matrix(0.501085,0.000000,0.000000,0.643987,-30.08862,8.205393)"
       spreadMethod="reflect"
       x1="124.55768"
       y1="26.392714"
       x2="144.69109"
       y2="26.551777" />
    <linearGradient
       inkscape:collect="always"
       xlink:href="#linearGradient584"
       id="linearGradient1132"
       gradientUnits="userSpaceOnUse"
       gradientTransform="matrix(0.671744,0.000000,0.000000,0.480380,-30.35337,8.165912)"
       x1="63.210545"
       y1="45.250092"
       x2="81.030518"
       y2="36.660873" />
    <linearGradient
       inkscape:collect="always"
       xlink:href="#linearGradient584"
       id="linearGradient1133"
       gradientUnits="userSpaceOnUse"
       gradientTransform="matrix(0.278388,0.000000,0.000000,1.159146,10.72589,9.084111)"
       spreadMethod="pad"
       x1="72.493027"
       y1="3.8504148"
       x2="82.074326"
       y2="11.770768" />
    <linearGradient
       inkscape:collect="always"
       xlink:href="#linearGradient584"
       id="linearGradient1134"
       gradientUnits="userSpaceOnUse"
       gradientTransform="matrix(0.472105,0.000000,0.000000,0.683519,10.74174,8.990355)"
       x1="32.070965"
       y1="43.514565"
       x2="33.129238"
       y2="35.911697" />
  </defs>
  <path
     d="M 4.4389304,48.086315 C 5.2483181,50.504430 38.765774,61.377487 40.966438,59.552880 C 42.936267,57.902492 57.675565,8.7785888 56.688667,6.8303779 C 55.662821,4.6824777 21.657054,-0.66757240 20.042945,0.80153134 C 18.054709,2.6217520 3.5888672,45.311841 4.4389304,48.086315 z "
     style="font-size:12.000000;opacity:0.30267498;fill-rule:evenodd;stroke-width:12.500000;"
     id="path639"
     transform="matrix(1.013400,0.000000,0.000000,1.013400,-1.678315,-0.558075)" />
  <path
     d="M 4.5541516,46.084930 C 5.3114351,48.347260 36.669550,58.519843 38.728432,56.812781 C 40.571358,55.268717 54.361110,9.3095333 53.437795,7.4867937 C 52.478034,5.4772680 20.663028,0.47192513 19.152904,1.8463842 C 17.292759,3.5493405 3.7588508,43.489198 4.5541516,46.084930 z "
     style="font-size:12.000000;fill:url(#linearGradient1128);fill-rule:evenodd;stroke:#261933;stroke-width:1.8772600;"
     id="path634"
     transform="matrix(1.013400,0.000000,0.000000,1.013400,-1.678315,-0.558075)" />
  <path
     d="M 6.6876568,43.965773 C 6.3603920,43.136670 19.363758,4.5872629 20.579427,3.7922731 C 22.098760,2.7554118 46.659814,7.3454032 46.986310,8.1725610 C 47.285570,8.9306762 27.823671,5.3906629 23.493845,9.2635774 C 15.189619,16.482895 6.9861475,44.721984 6.6876568,43.965773 z "
     style="font-size:12.000000;opacity:0.69993597;fill:url(#linearGradient1129);fill-rule:evenodd;stroke:none;stroke-width:0.10012100pt;"
     id="path640"
     transform="matrix(1.013400,0.000000,0.000000,1.013400,-1.678315,-0.558075)" />
  <path
     d="M 34.509538,13.252998 C 34.194901,13.216720 33.618712,13.740688 33.568688,13.803306 C 30.492226,17.654463 28.523432,21.241610 25.314060,21.915917 C 23.485843,22.300036 24.451778,23.671641 22.456006,24.791723 C 19.755965,26.307058 16.096810,27.767955 13.810839,28.519619 C 13.392792,28.657077 17.141462,32.212856 19.597953,33.330380 C 21.549877,34.218361 21.267443,32.319248 22.580270,32.886583 C 23.597200,34.025163 25.585797,36.040682 26.947229,40.431134 C 27.436085,41.505681 29.116799,40.396677 30.053815,39.152998 C 31.771044,37.143219 35.529184,32.790545 37.829141,32.194259 C 40.129092,31.597975 45.502307,37.423740 44.219820,34.803786 C 40.946224,28.116253 37.476733,14.912639 35.468140,13.643539 C 35.179566,13.461208 34.824176,13.289276 34.509538,13.252998 z "
     style="opacity:0.29999998;fill:#000000;fill-opacity:1.0000000;fill-rule:evenodd;stroke:none;stroke-width:1.8750000;stroke-linecap:butt;stroke-linejoin:miter;stroke-miterlimit:4.0000000;stroke-opacity:1.0000000;"
     id="path1790"
     transform="matrix(1.013400,0.000000,0.000000,1.013400,-1.678315,-0.558075)" />
  <path
     d="M 11.508531,27.592833 C 11.090489,27.730291 14.832968,31.291805 17.289457,32.409328 C 19.241381,33.297311 18.956692,31.391023 20.269520,31.958357 C 21.610583,32.537894 25.912676,27.622882 28.482597,22.558817 C 31.052519,17.494751 31.736935,12.281632 31.260309,12.878275 C 28.183842,16.729431 26.225757,20.310189 23.016381,20.984497 C 21.188163,21.368616 22.156407,22.740459 20.160636,23.860542 C 17.460601,25.375875 13.794507,26.841168 11.508531,27.592833 z "
     style="fill:url(#linearGradient1130);fill-opacity:1.0000000;fill-rule:evenodd;stroke:none;stroke-width:0.50000000;stroke-linecap:butt;stroke-linejoin:miter;stroke-miterlimit:4.0000000;stroke-opacity:1.0000000;"
     id="path1105"
     transform="matrix(1.013400,0.000000,0.000000,1.013400,-1.678315,-0.558075)" />
  <path
     d="M 31.774447,12.737928 C 32.043185,12.030428 32.878796,12.346961 33.455945,12.711621 C 35.464533,13.980721 38.922169,27.183649 42.195764,33.871182 C 43.478251,36.491137 38.106957,30.668287 35.807005,31.264570 C 33.507054,31.860854 29.755503,36.205759 28.038274,38.215538 C 27.101258,39.459216 25.418188,40.573597 24.929330,39.499049 C 23.567900,35.108599 20.757085,32.137235 21.182263,31.929000 C 22.783363,29.656321 27.034398,25.216822 31.774447,12.737928 z "
     style="fill:url(#linearGradient1131);fill-opacity:1.0000000;fill-rule:evenodd;stroke:none;stroke-width:1.8750000;stroke-linecap:butt;stroke-linejoin:miter;stroke-miterlimit:4.0000000;stroke-opacity:1.0000000;"
     id="path1758"
     transform="matrix(1.013400,0.000000,0.000000,1.013400,-1.678315,-0.558075)" />
  <path
     d="M 11.906341,27.616063 L 11.906341,27.616063 z "
     style="fill:none;fill-opacity:1.00000000;fill-rule:evenodd;stroke:#000000;stroke-width:0.14201509pt;stroke-linecap:butt;stroke-linejoin:miter;stroke-opacity:1.0000000;"
     id="path1768"
     transform="matrix(1.013400,0.000000,0.000000,1.013400,-1.678315,-0.558075)" />
  <text
     x="32.536949"
     y="45.961128"
     style="font-size:12.000000;font-style:normal;font-weight:normal;fill:#000000;fill-opacity:1.0000000;stroke:none;stroke-width:1.0000000pt;stroke-linecap:butt;stroke-linejoin:miter;stroke-opacity:1.0000000;font-family:helvetica;"
     id="text863"
     xml:space="preserve"
     transform="matrix(1.013400,0.000000,0.000000,1.013400,-1.678315,-0.558075)"><tspan
       id="tspan864"></tspan></text>
  <path
     d="M 19.842333,24.089055 C 20.237872,23.894603 23.408999,26.292335 24.312587,26.781504 C 24.488814,26.876907 21.807805,30.347642 20.498086,31.634027 C 19.188367,32.920411 19.249938,32.022444 18.520645,32.611424 C 18.073675,32.972400 11.318394,28.884815 11.692703,27.648871 C 11.753279,27.448853 18.079108,24.955881 19.842333,24.089055 z "
     style="fill:url(#linearGradient1132);fill-opacity:1.0000000;fill-rule:evenodd;stroke:none;stroke-width:0.25000000pt;stroke-linecap:butt;stroke-linejoin:miter;stroke-opacity:1.0000000;"
     id="path1111"
     transform="matrix(1.013400,0.000000,0.000000,1.013400,-1.678315,-0.558075)" />
  <path
     d="M 32.303299,12.308776 C 31.988662,12.272498 31.412473,12.796467 31.362449,12.859085 C 28.285988,16.710242 26.317198,20.297388 23.107822,20.971696 C 21.279605,21.355815 22.245540,22.727419 20.249769,23.847501 C 17.549727,25.362836 13.890576,26.823733 11.604600,27.575397 C 11.186556,27.712855 14.935223,31.268635 17.391715,32.386158 C 19.343638,33.274139 19.061205,31.375026 20.374032,31.942361 C 21.390962,33.080942 23.379565,35.096461 24.740995,39.486913 C 25.229851,40.561460 26.910561,39.452456 27.847576,38.208777 C 29.564805,36.198997 33.322946,31.846323 35.622903,31.250038 C 37.922854,30.653754 43.296068,36.479518 42.013581,33.859565 C 38.739986,27.172032 35.270495,13.968417 33.261902,12.699318 C 32.973327,12.516987 32.617937,12.345054 32.303299,12.308776 z "
     style="fill:none;fill-opacity:1.0000000;fill-rule:evenodd;stroke:#261933;stroke-width:1.0651132;stroke-linecap:butt;stroke-linejoin:miter;stroke-miterlimit:4.0000000;stroke-opacity:1.0000000;"
     id="path1783"
     transform="matrix(1.013400,0.000000,0.000000,1.013400,-1.678315,-0.558075)" />
  <rect
     width="15.368287"
     height="12.888113"
     rx="0.69551039"
     ry="0.69551039"
     x="43.568752"
     y="39.395287"
     style="fill:#000000;fill-opacity:0.29999998;fill-rule:evenodd;stroke:none;stroke-width:1.0000000pt;stroke-opacity:1.0000000;"
     id="rect937"
     transform="matrix(1.013400,0.000000,0.000000,1.013400,-1.678315,-0.558075)" />
  <rect
     width="15.262965"
     height="12.750523"
     rx="0.69074404"
     ry="0.69074404"
     x="42.616436"
     y="37.806450"
     style="fill:#d9cce6;fill-opacity:0.80000001;fill-rule:evenodd;stroke:#261933;stroke-width:1.2500000;stroke-miterlimit:4.0000000;"
     id="rect862"
     transform="matrix(1.013400,0.000000,0.000000,1.013400,-1.678315,-0.558075)" />
  <text
     x="30.547134"
     y="49.817623"
     transform="matrix(1.013400,0.000000,0.000000,1.013400,14.13634,-2.598234)"
     style="font-size:12.000000;font-style:normal;font-variant:normal;font-weight:normal;font-stretch:normal;fill:#000000;fill-opacity:1.0000000;stroke:none;stroke-width:1.0000000pt;stroke-linecap:butt;stroke-linejoin:miter;stroke-opacity:1.0000000;font-family:Radio Stars;text-anchor:start;writing-mode:lr;"
     id="text3356"
     xml:space="preserve"><tspan
       x="30.547134"
       y="49.817623"
       id="tspan3357">m</tspan></text>
  <path
     d="M 32.316155,13.543884 C 31.518486,14.017500 30.791151,16.076858 30.809858,18.564875 C 30.832993,21.641790 32.090499,23.064767 32.692730,22.707193 C 33.429430,22.269777 33.600289,21.151395 33.571404,17.309627 C 33.558448,15.586463 32.857418,13.222509 32.316155,13.543884 z "
     style="fill:url(#linearGradient1133);fill-opacity:1.0000000;fill-rule:evenodd;stroke:none;stroke-width:0.25000000pt;stroke-linecap:butt;stroke-linejoin:miter;stroke-opacity:1.0000000;"
     id="path1106"
     transform="matrix(1.013400,0.000000,0.000000,1.013400,-1.678315,-0.558075)" />
  <path
     d="M 23.462837,34.801957 C 23.473482,35.336019 25.111563,39.264865 25.399009,39.277776 C 25.746137,39.293367 28.711043,37.306301 28.854095,35.946908 C 28.967423,34.869968 27.792462,33.602089 27.072598,33.469483 C 26.202482,33.309199 23.431532,33.231363 23.462837,34.801957 z "
     style="fill:url(#linearGradient1134);fill-opacity:1.0000000;fill-rule:evenodd;stroke:none;stroke-width:0.25000000pt;stroke-linecap:butt;stroke-linejoin:miter;stroke-opacity:1.0000000;"
     id="path1109"
     transform="matrix(1.013400,0.000000,0.000000,1.013400,-1.678315,-0.558075)" />
</svg>
