<?xml version="1.0" encoding="UTF-8" standalone="no"?>
<!-- Created with Inkscape (http://www.inkscape.org/) -->
<svg
   xmlns:dc="http://purl.org/dc/elements/1.1/"
   xmlns:cc="http://web.resource.org/cc/"
   xmlns:rdf="http://www.w3.org/1999/02/22-rdf-syntax-ns#"
   xmlns:svg="http://www.w3.org/2000/svg"
   xmlns="http://www.w3.org/2000/svg"
   xmlns:xlink="http://www.w3.org/1999/xlink"
   xmlns:sodipodi="http://inkscape.sourceforge.net/DTD/sodipodi-0.dtd"
   xmlns:inkscape="http://www.inkscape.org/namespaces/inkscape"
   version="1.0"
   x="0"
   y="0"
   width="48pt"
   height="48pt"
   id="svg1"
   sodipodi:version="0.32"
   inkscape:version="0.42"
   sodipodi:docname="computer.svg"
   sodipodi:docbase="/home/jakob/dev/lila/lila-theme/branches/tango/scalable/devices">
  <metadata
     id="metadata69">
    <rdf:RDF>
      <cc:Work
         rdf:about="">
        <dc:format>image/svg+xml</dc:format>
        <dc:type
           rdf:resource="http://purl.org/dc/dcmitype/StillImage" />
      </cc:Work>
    </rdf:RDF>
  </metadata>
  <sodipodi:namedview
     id="base"
     pagecolor="#ffffff"
     bordercolor="#666666"
     borderopacity="1.0"
     inkscape:pageopacity="0.0"
     inkscape:pageshadow="2"
     inkscape:zoom="4.9119411"
     inkscape:cx="19.084948"
     inkscape:cy="26.435001"
     inkscape:window-width="1400"
     inkscape:window-height="995"
     inkscape:window-x="0"
     inkscape:window-y="0"
     inkscape:current-layer="svg1" />
  <defs
     id="defs3">
    <linearGradient
       id="linearGradient1152">
      <stop
         offset="0.00000000"
         style="stop-color:#ffffff;stop-opacity:1;"
         id="stop1154" />
      <stop
         offset="1.00000000"
         style="stop-color:#ffffff;stop-opacity:0;"
         id="stop1153" />
    </linearGradient>
    <linearGradient
       id="linearGradient1149">
      <stop
         offset="0.00000000"
         style="stop-color:#ffffff;stop-opacity:1;"
         id="stop1151" />
      <stop
         offset="1.00000000"
         style="stop-color:#ffffff;stop-opacity:0;"
         id="stop1150" />
    </linearGradient>
    <linearGradient
       id="linearGradient1146">
      <stop
         offset="0.00000000"
         style="stop-color:#ffffff;stop-opacity:1;"
         id="stop1148" />
      <stop
         offset="1.00000000"
         style="stop-color:#d9cce6;stop-opacity:1;"
         id="stop1147" />
    </linearGradient>
    <linearGradient
       id="linearGradient778">
      <stop
         style="stop-color:#d9cce6;stop-opacity:1;"
         offset="0.00000000"
         id="stop780" />
      <stop
         style="stop-color:#73667f;stop-opacity:1;"
         offset="1.00000000"
         id="stop779" />
    </linearGradient>
    <linearGradient
       id="linearGradient570">
      <stop
         style="stop-color:#ffffff;stop-opacity:1;"
         offset="0"
         id="stop571" />
      <stop
         style="stop-color:#ffffff;stop-opacity:0;"
         offset="1"
         id="stop572" />
    </linearGradient>
    <linearGradient
       id="linearGradient563">
      <stop
         style="stop-color:#cac5fa;stop-opacity:1;"
         offset="0"
         id="stop564" />
      <stop
         style="stop-color:#9500ed;stop-opacity:1;"
         offset="1"
         id="stop565" />
    </linearGradient>
    <linearGradient
       x1="21.289188"
       y1="8.9193040"
       x2="59.037344"
       y2="47.757563"
       id="linearGradient566"
       xlink:href="#linearGradient778"
       gradientTransform="matrix(1.003523,0.000000,0.000000,1.088749,-1.725784,-2.508956)"
       gradientUnits="userSpaceOnUse" />
    <linearGradient
       x1="7.9412676"
       y1="35.273712"
       x2="15.646982"
       y2="41.944858"
       id="linearGradient569"
       xlink:href="#linearGradient570"
       gradientTransform="matrix(3.250633,0.000000,0.000000,0.336114,-1.725784,-2.508956)"
       gradientUnits="userSpaceOnUse" />
    <linearGradient
       x1="23.200239"
       y1="14.288179"
       x2="45.479135"
       y2="36.741099"
       id="linearGradient573"
       xlink:href="#linearGradient570"
       gradientTransform="matrix(0.989208,0.000000,0.000000,1.104505,-1.725784,-2.508956)"
       gradientUnits="userSpaceOnUse" />
    <linearGradient
       x1="76.798347"
       y1="8.9763966"
       x2="96.918184"
       y2="21.585387"
       id="linearGradient575"
       xlink:href="#linearGradient570"
       gradientTransform="matrix(0.587406,0.000000,0.000000,1.860017,-1.725784,-2.508956)"
       gradientUnits="userSpaceOnUse" />
    <linearGradient
       x1="80.263643"
       y1="474.47276"
       x2="297.66161"
       y2="681.68017"
       id="linearGradient578"
       xlink:href="#linearGradient778"
       gradientTransform="matrix(0.120542,-9.364678e-3,0.000000,8.331605e-2,-1.424019,-0.812632)"
       gradientUnits="userSpaceOnUse" />
    <linearGradient
       x1="96.975700"
       y1="540.22927"
       x2="205.17637"
       y2="646.87374"
       id="linearGradient583"
       xlink:href="#linearGradient570"
       gradientTransform="matrix(0.130258,0.000000,0.000000,7.710116e-2,-1.424019,-2.571597)"
       gradientUnits="userSpaceOnUse" />
    <linearGradient
       id="linearGradient637"
       xlink:href="#linearGradient778"
       x1="69.895419"
       y1="55.579493"
       x2="563.46271"
       y2="542.02808"
       gradientTransform="matrix(7.179307e-2,0.000000,0.000000,7.700833e-2,-4.715146,3.157230)"
       gradientUnits="userSpaceOnUse" />
    <linearGradient
       id="linearGradient640"
       xlink:href="#linearGradient1146"
       x1="0.03378378"
       y1="0.02580645"
       x2="0.98648649"
       y2="0.95483869" />
    <linearGradient
       x1="0.010877"
       y1="0.038449"
       x2="0.989090"
       y2="0.987177"
       id="linearGradient645"
       xlink:href="#linearGradient570" />
    <linearGradient
       x1="0.056578"
       y1="0.023450"
       x2="0.867923"
       y2="0.976563"
       id="linearGradient646"
       xlink:href="#linearGradient570" />
    <linearGradient
       x1="0.000007"
       y1="0.000000"
       x2="0.951807"
       y2="0.984375"
       id="linearGradient647"
       xlink:href="#linearGradient570" />
    <linearGradient
       x1="0.056605"
       y1="0.015625"
       x2="0.943396"
       y2="0.984375"
       id="linearGradient675"
       xlink:href="#linearGradient570" />
    <linearGradient
       x1="0.011765"
       y1="-0.000000"
       x2="1.011765"
       y2="1.015625"
       id="linearGradient676"
       xlink:href="#linearGradient570" />
    <defs
       id="defs613">
      <linearGradient
         id="linearGradient1535"
         x1="0.00000000"
         y1="0.00000000"
         x2="1.00000000"
         y2="0.00000000"
         gradientUnits="objectBoundingBox"
         spreadMethod="pad"
         xlink:href="#linearGradient1149" />
      <linearGradient
         x1="0.000000"
         y1="0.000000"
         x2="1.000000"
         y2="0.000000"
         id="linearGradient1528"
         xlink:href="#linearGradient778"
         gradientUnits="objectBoundingBox"
         spreadMethod="pad" />
      <linearGradient
         id="linearGradient642"
         x1="0.00000000"
         y1="0.00000000"
         x2="1.00000000"
         y2="0.00000000"
         gradientUnits="objectBoundingBox"
         spreadMethod="pad"
         xlink:href="#linearGradient1152" />
      <linearGradient
         id="linearGradient635"
         x1="0.00000000"
         y1="0.00000000"
         x2="1.00000000"
         y2="0.00000000"
         gradientUnits="objectBoundingBox"
         spreadMethod="pad"
         xlink:href="#linearGradient1146" />
      <linearGradient
         x1="0.984000"
         y1="0.960938"
         x2="-0.008000"
         y2="0.007813"
         id="linearGradient638"
         xlink:href="#linearGradient1528" />
      <linearGradient
         x1="139.82272"
         y1="84.971738"
         x2="554.04789"
         y2="507.59236"
         id="linearGradient641"
         xlink:href="#linearGradient1152"
         gradientTransform="matrix(6.834560e-2,0.000000,0.000000,8.089270e-2,-4.715146,3.157230)"
         gradientUnits="userSpaceOnUse" />
      <linearGradient
         x1="316.36566"
         y1="24.850462"
         x2="409.76493"
         y2="149.25992"
         id="linearGradient1522"
         xlink:href="#linearGradient1152"
         gradientTransform="matrix(2.089769e-2,0.000000,0.000000,0.264558,-4.715146,3.157230)"
         gradientUnits="userSpaceOnUse" />
      <linearGradient
         x1="190.12210"
         y1="127.43230"
         x2="501.86795"
         y2="440.04322"
         id="linearGradient1527"
         xlink:href="#linearGradient1149"
         gradientTransform="matrix(6.859796e-2,0.000000,0.000000,8.059513e-2,-4.715146,3.157230)"
         gradientUnits="userSpaceOnUse" />
      <linearGradient
         x1="0.010743"
         y1="0.031251"
         x2="0.967741"
         y2="0.992187"
         id="linearGradient1532"
         xlink:href="#linearGradient635" />
      <linearGradient
         x1="0.007275"
         y1="-0.012819"
         x2="0.996364"
         y2="0.974359"
         id="linearGradient1534"
         xlink:href="#linearGradient635" />
      <linearGradient
         x1="0.017094"
         y1="0.000000"
         x2="0.974359"
         y2="0.984375"
         id="linearGradient1539"
         xlink:href="#linearGradient1535" />
      <linearGradient
         id="linearGradient1567"
         xlink:href="#linearGradient1535" />
    </defs>
  </defs>
  <path
     d="M 21.033432,41.546250 C 22.121848,42.836896 44.634736,51.363671 46.314151,51.539729 C 48.171620,51.717471 58.584125,47.265495 59.282730,46.178538 C 60.309912,44.687431 60.083592,14.786567 59.147794,13.444940 C 58.285266,11.950391 36.917006,9.0586207 35.568576,9.0842622 C 34.141953,9.1084455 21.873558,10.640791 21.194947,11.668388 C 20.664451,12.597908 19.662914,40.274020 21.033432,41.546250 z "
     style="font-size:12.000000px;opacity:0.29636899;fill-rule:evenodd;stroke-width:12.500000"
     id="path707"
     sodipodi:nodetypes="ccccccc" />
  <path
     d="M 20.222891,39.653113 C 21.264928,40.888761 43.146542,49.052200 44.754397,49.220768 C 46.532717,49.390934 56.353618,45.440716 57.022455,44.400082 C 58.005868,42.972513 57.609116,14.033663 56.713191,12.749203 C 55.887416,11.318328 35.893559,7.7767209 34.602585,7.8012726 C 33.236750,7.8244252 21.027218,10.064539 20.377522,11.048351 C 19.869631,11.938265 18.910771,38.435093 20.222891,39.653113 z "
     style="font-size:12.000000px;fill:url(#linearGradient566);fill-rule:evenodd;stroke:#261933;stroke-width:1.8749996;stroke-dasharray:none;stroke-opacity:1.0000000"
     id="path677"
     sodipodi:nodetypes="ccccccc" />
  <path
     d="M 21.305220,38.261530 C 20.948753,37.713145 20.774278,13.552833 22.078281,12.903842 C 23.070413,12.487650 43.435809,16.795231 43.787065,17.335582 C 44.105850,17.826045 27.090551,14.263461 24.435146,16.516302 C 21.877249,18.835284 21.618794,38.743961 21.305220,38.261530 z "
     style="font-size:12.000000px;opacity:0.69999999;fill:url(#linearGradient573);fill-rule:evenodd;stroke:none;stroke-width:0.095874798pt"
     id="path678"
     sodipodi:nodetypes="ccccc" />
  <path
     d="M 45.271417,47.538763 C 44.873462,47.193916 44.698485,18.125353 45.433766,17.145858 C 46.023532,16.308652 55.032090,13.861594 55.449686,14.223479 C 55.805150,14.531641 48.008197,16.004106 47.315609,18.390627 C 44.658098,27.549114 45.646622,47.863864 45.271417,47.538763 z "
     style="font-size:12.000000px;opacity:0.69999999;fill:url(#linearGradient575);fill-rule:evenodd;stroke:none;stroke-width:0.095874798pt"
     id="path679"
     sodipodi:nodetypes="ccccc" />
  <path
     d="M 24.088301,11.666882 C 24.062645,11.538506 30.931203,9.3105157 33.984064,9.3475005 C 39.435276,9.4135416 49.574663,11.846368 49.600619,11.976043 C 49.626173,12.104019 39.194660,10.823472 33.784134,10.757931 C 30.690587,10.720447 24.114154,11.796259 24.088301,11.666882 z "
     style="font-size:12.000000px;opacity:0.69999999;fill:url(#linearGradient569);fill-rule:evenodd;stroke:none;stroke-width:0.095874798pt"
     id="path680" />
  <ellipse
     cx="410.20490"
     cy="422.40900"
     rx="11.720139"
     ry="11.720139"
     transform="matrix(0.145770,0.000000,0.000000,0.145770,-8.275791,-21.43451)"
     style="font-size:12.000000px;fill:#80ff80;fill-rule:evenodd;stroke:#003f00;stroke-width:5.9793267;stroke-linecap:round;stroke-linejoin:round"
     id="path722"
     sodipodi:cx="410.20490"
     sodipodi:cy="422.40900"
     sodipodi:rx="11.720139"
     sodipodi:ry="11.720139" />
  <path
     d="M 22.302061,37.275785 C 17.991283,37.480134 7.7592406,46.080417 9.5095444,49.272136 C 10.076880,50.410729 15.427184,55.036723 21.822405,55.017010 C 27.455549,54.999160 33.766612,49.873355 34.455001,48.089410 C 34.914135,46.654039 26.306368,37.085892 22.302061,37.275785 z "
     style="font-size:12.000000px;opacity:0.29636899;fill-rule:evenodd;stroke-width:12.500000"
     id="path748" />
  <path
     d="M 4.1197830,46.224389 C 4.5829189,46.531701 6.5509311,47.368830 7.5249666,47.160040 C 8.3398682,46.896473 36.468987,37.710366 37.161169,36.631818 C 37.885194,35.454116 36.950567,12.539452 36.095310,11.762068 C 35.172586,10.915245 5.1996715,7.8947023 4.2780500,7.8676045 C 3.4428133,7.7625083 1.4044165,8.4821271 1.0110348,8.9197255 C 0.22806238,9.7816819 3.2567235,45.591085 4.1197830,46.224389 z "
     style="font-size:12.000000px;opacity:0.29999998;fill-rule:evenodd;stroke-width:12.500000"
     id="path839" />
  <path
     d="M 21.614407,37.302768 C 17.446165,37.813592 7.5524891,46.452398 9.2448700,49.241686 C 9.7934470,50.241003 14.966846,54.072374 21.150612,53.573931 C 26.597498,53.134438 32.699890,47.969690 33.365518,46.285477 C 33.809470,44.937469 25.486314,36.828194 21.614407,37.302768 z "
     style="font-size:12.000000px;fill:url(#linearGradient578);fill-rule:evenodd;stroke:#261933;stroke-width:1.8749969;stroke-dasharray:none;stroke-opacity:1.0000000"
     id="path746" />
  <path
     d="M 10.945610,47.229211 C 10.945610,46.962238 14.805088,41.163301 21.150597,38.879804 C 22.381637,38.456496 25.170719,40.312376 25.170719,40.580551 C 25.170719,40.827782 22.408495,40.127680 21.150597,40.425920 C 15.260765,41.940067 10.945610,47.477543 10.945610,47.229211 z "
     style="font-size:12.000000px;opacity:0.69999999;fill:url(#linearGradient583);fill-rule:evenodd;stroke:none;stroke-width:1.0000000pt"
     id="path747" />
  <path
     d="M 3.9909287,44.264821 C 4.4280616,44.554657 6.2844078,45.344307 7.2033609,45.147489 C 7.9722656,44.898772 34.508365,36.232849 35.161276,35.215375 C 35.844300,34.104363 34.962674,12.487292 34.155848,11.753854 C 33.285449,10.955059 5.0096662,8.1056053 4.1403079,8.0800198 C 3.3523682,7.9808748 1.4294372,8.6596911 1.0582869,9.0725173 C 0.31967440,9.8856856 3.1767418,43.667379 3.9909287,44.264821 z "
     style="font-size:12.000000px;fill:url(#linearGradient637);fill-rule:evenodd;stroke:#261933;stroke-width:1.8750001;stroke-dasharray:none;stroke-opacity:1.0000000"
     id="path834" />
  <path
     d="M 6.6723166,43.678232 C 6.4440468,43.449963 3.7011665,10.168234 4.0748002,9.2401055 C 4.3040366,8.9627391 32.921404,12.195225 33.150268,12.424089 C 33.368203,12.642172 6.6309009,9.1523071 5.4993670,10.832149 C 4.2710230,12.571684 6.8908458,43.896761 6.6723166,43.678232 z "
     style="font-size:12.000000px;opacity:0.69999999;fill:url(#linearGradient641);fill-rule:evenodd;stroke:none;stroke-width:1.0329400pt"
     id="path835" />
  <path
     d="M 4.5775885,43.175518 C 4.4928238,43.048297 2.0165804,20.397246 1.8962220,9.7428268 C 1.8890022,9.3644344 3.3087210,9.0966301 3.4044159,9.2401055 C 3.4763171,9.3479945 2.3932255,10.203233 2.3989806,10.496942 C 2.5237185,21.152247 4.6603456,43.299691 4.5775885,43.175518 z "
     style="font-size:12.000000px;opacity:0.69993597;fill:url(#linearGradient1522);fill-rule:evenodd;stroke:none;stroke-width:1.0329400pt"
     id="path836" />
  <path
     d="M 7.2522121,12.500973 C 6.8005800,13.075886 8.1264778,39.804267 8.8142610,40.305122 C 9.5245000,40.765528 31.844003,33.612728 32.400847,32.885537 C 32.926017,32.277759 32.207748,15.230321 31.854190,14.609829 C 31.399137,13.948218 7.7455573,11.951192 7.2522121,12.500973 z "
     style="font-size:12.000000px;fill:#261933;fill-opacity:1.0000000;fill-rule:evenodd;stroke:#261933;stroke-width:0.46250013;stroke-dasharray:none;stroke-opacity:1.0000000"
     id="path837" />
  <path
     d="M 9.1266250,38.821217 C 8.9531550,38.607521 7.3760863,13.939295 7.7990174,13.360144 C 8.3587620,12.700392 29.337569,14.708720 29.511039,14.922193 C 29.676107,15.125108 10.498251,12.983982 8.8142600,14.609753 C 7.6664425,15.719501 9.2915450,39.024058 9.1266250,38.821217 z "
     style="font-size:12.000000px;opacity:0.69993597;fill:url(#linearGradient1527);fill-rule:evenodd;stroke:none;stroke-width:0.96279802pt"
     id="path838" />
</svg>
