<?xml version="1.0" encoding="UTF-8" standalone="no"?>
<!DOCTYPE svg PUBLIC "-//W3C//DTD SVG 20010904//EN"
"http://www.w3.org/TR/2001/REC-SVG-20010904/DTD/svg10.dtd">
<!-- Created with Inkscape (http://www.inkscape.org/) -->
<svg
   id="svg1"
   sodipodi:version="0.32"
   inkscape:version="0.37"
   width="48pt"
   height="48pt"
   sodipodi:docbase="/home/stefan"
   sodipodi:docname="gnome-fs-desktop.svg"
   xmlns="http://www.w3.org/2000/svg"
   xmlns:cc="http://web.resource.org/cc/"
   xmlns:inkscape="http://www.inkscape.org/namespaces/inkscape"
   xmlns:sodipodi="http://sodipodi.sourceforge.net/DTD/sodipodi-0.dtd"
   xmlns:rdf="http://www.w3.org/1999/02/22-rdf-syntax-ns#"
   xmlns:dc="http://purl.org/dc/elements/1.1/"
   xmlns:xlink="http://www.w3.org/1999/xlink">
  <defs
     id="defs3">
    <linearGradient
       id="linearGradient1304">
      <stop
         style="stop-color:#d9cce6;stop-opacity:1;"
         offset="0.00000000"
         id="stop1305" />
      <stop
         style="stop-color:#73667f;stop-opacity:1;"
         offset="1.00000000"
         id="stop1306" />
    </linearGradient>
    <linearGradient
       id="linearGradient1299">
      <stop
         style="stop-color:#c7b397;stop-opacity:1;"
         offset="0.00000000"
         id="stop1300" />
      <stop
         style="stop-color:#faebdc;stop-opacity:1;"
         offset="1.00000000"
         id="stop1301" />
    </linearGradient>
    <linearGradient
       id="linearGradient866">
      <stop
         style="stop-color:#ffffff;stop-opacity:1;"
         offset="0.00000000"
         id="stop867" />
      <stop
         style="stop-color:#d9cce6;stop-opacity:1;"
         offset="1.00000000"
         id="stop868" />
    </linearGradient>
    <linearGradient
       id="linearGradient584">
      <stop
         style="stop-color:#ffffff;stop-opacity:1;"
         offset="0.00000000"
         id="stop585" />
      <stop
         style="stop-color:#ffffff;stop-opacity:0;"
         offset="1.00000000"
         id="stop586" />
    </linearGradient>
    <linearGradient
       xlink:href="#linearGradient866"
       id="linearGradient586"
       x1="-0.00000000"
       y1="0.01562500"
       x2="0.99122804"
       y2="0.98437500" />
    <linearGradient
       xlink:href="#linearGradient584"
       id="linearGradient587"
       x1="0.00000000"
       y1="-0.00000000"
       x2="1.00000000"
       y2="1.00000000" />
    <linearGradient
       xlink:href="#linearGradient1299"
       id="linearGradient1298"
       x1="0.98734176"
       y1="0.98437500"
       x2="-0.00632911"
       y2="0.00781250" />
    <linearGradient
       xlink:href="#linearGradient1304"
       id="linearGradient1303"
       x1="0.00000000"
       y1="0.00000000"
       x2="0.96551722"
       y2="0.99218750" />
    <linearGradient
       xlink:href="#linearGradient584"
       id="linearGradient1323"
       x1="0.00000000"
       y1="0.00000000"
       x2="1.00000000"
       y2="1.03906250" />
    <linearGradient
       xlink:href="#linearGradient584"
       id="linearGradient1325"
       x1="-0.00000000"
       y1="-0.00000000"
       x2="0.93750000"
       y2="0.99218750" />
    <linearGradient
       xlink:href="#linearGradient584"
       id="linearGradient1327"
       x1="0.00877193"
       y1="0.00781250"
       x2="1.00000000"
       y2="0.98437500" />
    <radialGradient
       xlink:href="#linearGradient1304"
       id="radialGradient1329" />
    <linearGradient
       xlink:href="#linearGradient584"
       id="linearGradient1330"
       x1="-0.00000000"
       y1="-0.00000000"
       x2="0.99270076"
       y2="0.95714283" />
  </defs>
  <sodipodi:namedview
     id="base"
     pagecolor="#ffffff"
     bordercolor="#666666"
     borderopacity="1.0"
     inkscape:pageopacity="0.0"
     inkscape:pageshadow="2"
     inkscape:zoom="1"
     inkscape:cx="26.2865295"
     inkscape:cy="8.95156860"
     inkscape:window-width="1022"
     inkscape:window-height="695"
     inkscape:window-x="0"
     inkscape:window-y="26" />
  <g
     id="g632"
     style="opacity:0.300000;"
     transform="translate(62.47410,-33.23090)">
    <path
       style="font-size:12;fill:#000000;fill-rule:evenodd;stroke:none;stroke-width:1.82425;fill-opacity:1;opacity:1.000000;"
       d="M -54.485256 47.213579 C -55.9323 47.977082 -56.219927 85.29427 -54.883367 86.8256 C -53.496589 88.1864 -6.9969087 88.48594 -5.7166887 87.22371 C -4.4002347 85.92917 -4.3084167 48.215442 -5.5176317 47.213579 C -6.7976157 45.988162 -52.863475 46.252852 -54.485256 47.213579 z "
       id="path627" />
    <path
       style="font-size:12;fill:#000000;fill-rule:evenodd;stroke:none;stroke-width:1.82425;fill-opacity:1;"
       d="M -55.472439 46.405297 C -57.611447 48.815066 -57.320466 59.969996 -55.624852 59.969996 C -53.357746 59.969996 -43.614967 49.136638 -43.584278 46.405297 C -43.564163 44.615071 -53.597923 44.293499 -55.472439 46.405297 z "
       id="path628" />
    <path
       style="font-size:12;fill:#000000;fill-rule:evenodd;stroke:none;stroke-width:1.82425;fill-opacity:1;"
       d="M -4.7922577 46.620841 C -2.6532497 49.030609 -2.9442307 60.185539 -4.6398447 60.185539 C -6.9069507 60.185539 -16.64973 49.352181 -16.680419 46.620841 C -16.700534 44.830615 -6.6667737 44.509043 -4.7922577 46.620841 z "
       id="path629" />
    <path
       style="font-size:12;fill:#000000;fill-rule:evenodd;stroke:none;stroke-width:1.82425;fill-opacity:1;"
       d="M -4.7922577 87.60264 C -2.6532497 85.19288 -2.9442307 74.037945 -4.6398447 74.037945 C -6.9069507 74.037945 -16.64973 84.8713 -16.680419 87.60264 C -16.700534 89.39287 -6.6667747 89.71444 -4.7922577 87.60264 z "
       id="path630" />
    <path
       style="font-size:12;fill:#000000;fill-rule:evenodd;stroke:none;stroke-width:1.82425;fill-opacity:1;"
       d="M -55.687983 87.3871 C -57.82699 84.97733 -57.53601 73.822402 -55.840395 73.822402 C -53.573289 73.822402 -43.830511 84.65576 -43.799822 87.3871 C -43.779708 89.17733 -53.813466 89.4989 -55.687983 87.3871 z "
       id="path631" />
  </g>
  <path
     style="font-size:12.000000;fill:url(#linearGradient1298);fill-rule:evenodd;stroke:#333300;stroke-width:1.8242548;stroke-opacity:1.0000000;"
     d="M 5.5519051,10.659588 C 4.1048617,11.423091 3.8172345,48.740283 5.1537943,50.271610 C 6.5405726,51.632411 53.040253,51.931944 54.320473,50.669721 C 55.636927,49.375183 55.728745,11.661451 54.519530,10.659588 C 53.239546,9.4341706 7.1736869,9.6988612 5.5519051,10.659588 z "
     id="path1208"
     sodipodi:nodetypes="cssss" />
  <metadata
     id="metadata48">
    <rdf:RDF
       id="RDF49">
      <cc:Work
         rdf:about=""
         id="Work50">
        <dc:format
           id="format51">image/svg+xml</dc:format>
        <dc:type
           id="type53"
           rdf:resource="http://purl.org/dc/dcmitype/StillImage" />
      </cc:Work>
    </rdf:RDF>
  </metadata>
  <path
     style="fill:url(#linearGradient1303);fill-opacity:1.0000000;fill-rule:evenodd;stroke:#261933;stroke-width:1.8242548;stroke-linecap:butt;stroke-linejoin:miter;stroke-opacity:1.0000000;"
     d="M 4.5647223,9.8513061 C 2.4257149,12.261075 2.7166957,23.416005 4.4123099,23.416005 C 6.6794159,23.416005 16.422195,12.582647 16.452884,9.8513061 C 16.472999,8.0610797 6.4392389,7.7395079 4.5647223,9.8513061 z "
     id="path952"
     sodipodi:nodetypes="csss" />
  <path
     style="fill:url(#linearGradient1323);fill-opacity:1.0000000;fill-rule:evenodd;stroke:none;stroke-width:1.0000000pt;stroke-linecap:butt;stroke-linejoin:miter;stroke-opacity:1.0000000;"
     d="M 4.7171336,20.520170 C 4.4750185,20.278055 4.0995772,12.738479 5.7840201,10.918192 C 7.2494318,9.3346022 13.921772,10.063616 14.166699,10.308543 C 14.379009,10.520853 8.6018049,10.727211 7.1557313,12.289904 C 5.4519503,14.131087 4.9322556,20.735292 4.7171336,20.520170 z "
     id="path953"
     sodipodi:nodetypes="cssss" />
  <path
     style="fill:url(#linearGradient1303);fill-opacity:1.0000000;fill-rule:evenodd;stroke:#261933;stroke-width:1.8242548;stroke-linecap:butt;stroke-linejoin:miter;stroke-opacity:1.0000000;"
     d="M 55.244904,10.066850 C 57.383912,12.476618 57.092931,23.631548 55.397317,23.631548 C 53.130211,23.631548 43.387432,12.798190 43.356743,10.066850 C 43.336628,8.2766234 53.370388,7.9550518 55.244904,10.066850 z "
     id="path954"
     sodipodi:nodetypes="csss" />
  <path
     style="fill:url(#linearGradient1323);fill-opacity:1.0000000;fill-rule:evenodd;stroke:none;stroke-width:1.0000000pt;stroke-linecap:butt;stroke-linejoin:miter;stroke-opacity:1.0000000;"
     d="M 55.092492,20.735713 C 55.334607,20.493598 55.710049,12.954022 54.025606,11.133737 C 52.560195,9.5501462 45.887855,10.279160 45.642928,10.524087 C 45.430618,10.736397 51.207822,10.942755 52.653895,12.505447 C 54.357676,14.346630 54.877371,20.950835 55.092492,20.735713 z "
     id="path955"
     sodipodi:nodetypes="cssss" />
  <path
     style="fill:url(#linearGradient1303);fill-opacity:1.0000000;fill-rule:evenodd;stroke:#261933;stroke-width:1.8242548;stroke-linecap:butt;stroke-linejoin:miter;stroke-opacity:1.0000000;"
     d="M 55.244904,10.066850 C 57.383912,12.476618 57.092931,23.631548 55.397317,23.631548 C 53.130211,23.631548 43.387432,12.798190 43.356743,10.066850 C 43.336628,8.2766234 53.370388,7.9550518 55.244904,10.066850 z "
     id="path956"
     sodipodi:nodetypes="csss" />
  <path
     style="fill:url(#linearGradient1303);fill-opacity:1.0000000;fill-rule:evenodd;stroke:#261933;stroke-width:1.8242548;stroke-linecap:butt;stroke-linejoin:miter;stroke-opacity:1.0000000;"
     d="M 55.244904,51.048653 C 57.383912,48.638884 57.092931,37.483954 55.397317,37.483954 C 53.130211,37.483954 43.387432,48.317312 43.356743,51.048653 C 43.336628,52.838879 53.370387,53.160450 55.244904,51.048653 z "
     id="path958"
     sodipodi:nodetypes="csss" />
  <path
     style="fill:url(#linearGradient1303);fill-opacity:1.0000000;fill-rule:evenodd;stroke:#261933;stroke-width:1.8242548;stroke-linecap:butt;stroke-linejoin:miter;stroke-opacity:1.0000000;"
     d="M 4.3491785,50.833109 C 2.2101713,48.423341 2.5011520,37.268411 4.1967662,37.268411 C 6.4638722,37.268411 16.206651,48.101769 16.237340,50.833109 C 16.257454,52.623336 6.2236952,52.944907 4.3491785,50.833109 z "
     id="path960"
     sodipodi:nodetypes="csss" />
  <path
     style="fill:url(#linearGradient1325);fill-opacity:1.0000000;fill-rule:evenodd;stroke:none;stroke-width:1.0000000pt;stroke-linecap:butt;stroke-linejoin:miter;stroke-opacity:1.0000000;"
     d="M 5.1555974,49.623070 C 4.9360612,49.348649 4.3752931,41.843287 4.5459480,39.411444 C 4.5785093,38.947453 5.7280408,40.312364 5.7652468,40.935568 C 5.9312569,43.716239 5.3424935,49.856690 5.1555974,49.623070 z "
     id="path1324"
     sodipodi:nodetypes="csss" />
  <path
     style="fill:url(#linearGradient1330);fill-opacity:1.0000000;fill-rule:evenodd;stroke:none;stroke-width:1.0000000pt;stroke-linecap:butt;stroke-linejoin:miter;stroke-opacity:1.0000000;"
     d="M 44.887402,10.553215 C 45.317650,10.209017 51.978910,10.211629 53.574905,10.705628 C 54.112682,10.872083 52.169241,12.550022 51.288719,12.534575 C 49.273406,12.499219 44.555589,10.818666 44.887402,10.553215 z "
     id="path1328"
     sodipodi:nodetypes="csss" />
  <path
     style="fill:url(#linearGradient1327);fill-opacity:1.0000000;fill-rule:evenodd;stroke:none;stroke-width:1.0000000pt;stroke-linecap:butt;stroke-linejoin:miter;stroke-opacity:1.0000000;"
     d="M 45.203057,50.448264 C 45.527672,49.680992 52.658774,41.386266 54.652621,39.626988 C 55.249783,39.100080 53.900012,42.531664 52.976086,43.589709 C 50.750158,46.138756 44.968827,51.001898 45.203057,50.448264 z "
     id="path1326"
     sodipodi:nodetypes="csss" />
  <g
     id="g1311"
     transform="matrix(0.808429,0.000000,0.000000,0.808429,8.548453,9.414045)">
    <path
       d="M 6.2874640,40.371727 C 6.7473646,41.745720 25.792255,47.923879 27.042690,46.887122 C 28.161962,45.949358 36.536950,18.036760 35.976187,16.929770 C 35.393294,15.709316 16.070941,12.669374 15.153791,13.504131 C 14.024060,14.538395 5.8044512,38.795248 6.2874640,40.371727 z "
       style="font-size:12.000000;opacity:0.30267498;fill-rule:evenodd;stroke-width:12.500000;"
       id="path1312" />
    <path
       d="M 6.3529336,39.234524 C 6.7832283,40.519998 24.601163,46.300143 25.771037,45.330176 C 26.818202,44.452826 34.653650,18.338447 34.129015,17.302751 C 33.583672,16.160922 15.506128,13.316847 14.648063,14.097825 C 13.591114,15.065459 5.9010372,37.759608 6.3529336,39.234524 z "
       style="font-size:12.000000;fill:url(#linearGradient586);fill-rule:evenodd;stroke:#261933;stroke-width:1.8750000;"
       id="path1313" />
    <path
       d="M 7.5652085,38.030402 C 7.3792541,37.559299 14.767872,15.655215 15.458626,15.203494 C 16.321922,14.614341 30.277712,17.222412 30.463230,17.692410 C 30.633271,18.123177 19.574863,16.111713 17.114621,18.312334 C 12.396093,22.414409 7.7348134,38.460087 7.5652085,38.030402 z "
       style="font-size:12.000000;opacity:0.69993597;fill:url(#linearGradient587);fill-rule:evenodd;stroke:none;stroke-width:0.10012100pt;"
       id="path1314" />
  </g>
  <g
     id="g1315"
     transform="matrix(0.808429,0.000000,0.000000,0.808429,17.05892,4.981580)">
    <path
       d="M 6.2874640,40.371727 C 6.7473646,41.745720 25.792255,47.923879 27.042690,46.887122 C 28.161962,45.949358 36.536950,18.036760 35.976187,16.929770 C 35.393294,15.709316 16.070941,12.669374 15.153791,13.504131 C 14.024060,14.538395 5.8044512,38.795248 6.2874640,40.371727 z "
       style="font-size:12.000000;opacity:0.30267498;fill-rule:evenodd;stroke-width:12.500000;"
       id="path1316" />
    <path
       d="M 6.3529336,39.234524 C 6.7832283,40.519998 24.601163,46.300143 25.771037,45.330176 C 26.818202,44.452826 34.653650,18.338447 34.129015,17.302751 C 33.583672,16.160922 15.506128,13.316847 14.648063,14.097825 C 13.591114,15.065459 5.9010372,37.759608 6.3529336,39.234524 z "
       style="font-size:12.000000;fill:url(#linearGradient586);fill-rule:evenodd;stroke:#261933;stroke-width:1.8750000;"
       id="path1317" />
    <path
       d="M 7.5652085,38.030402 C 7.3792541,37.559299 14.767872,15.655215 15.458626,15.203494 C 16.321922,14.614341 30.277712,17.222412 30.463230,17.692410 C 30.633271,18.123177 19.574863,16.111713 17.114621,18.312334 C 12.396093,22.414409 7.7348134,38.460087 7.5652085,38.030402 z "
       style="font-size:12.000000;opacity:0.69993597;fill:url(#linearGradient587);fill-rule:evenodd;stroke:none;stroke-width:0.10012100pt;"
       id="path1318" />
  </g>
</svg>
