<?xml version="1.0" encoding="UTF-8" standalone="no"?>
<!-- Created with Inkscape (http://www.inkscape.org/) -->
<svg
   xmlns:dc="http://purl.org/dc/elements/1.1/"
   xmlns:cc="http://web.resource.org/cc/"
   xmlns:rdf="http://www.w3.org/1999/02/22-rdf-syntax-ns#"
   xmlns:svg="http://www.w3.org/2000/svg"
   xmlns="http://www.w3.org/2000/svg"
   xmlns:xlink="http://www.w3.org/1999/xlink"
   xmlns:sodipodi="http://sodipodi.sourceforge.net/DTD/sodipodi-0.dtd"
   xmlns:inkscape="http://www.inkscape.org/namespaces/inkscape"
   version="1.0"
   x="0"
   y="0"
   width="48pt"
   height="48pt"
   id="svg1"
   sodipodi:version="0.32"
   inkscape:version="0.44.1"
   sodipodi:docname="drive-optical.svg"
   sodipodi:docbase="/home/Mess/.icons/Lila/scalable/devices">
  <metadata
     id="metadata23">
    <rdf:RDF>
      <cc:Work
         rdf:about="">
        <dc:format>image/svg+xml</dc:format>
        <dc:type
           rdf:resource="http://purl.org/dc/dcmitype/StillImage" />
      </cc:Work>
    </rdf:RDF>
  </metadata>
  <sodipodi:namedview
     id="base"
     inkscape:zoom="6.9918718"
     inkscape:cx="18.403532"
     inkscape:cy="30.241393"
     inkscape:window-width="939"
     inkscape:window-height="760"
     inkscape:window-x="52"
     inkscape:window-y="147"
     inkscape:current-layer="g1921" />
  <defs
     id="defs3">
    <linearGradient
       id="linearGradient570">
      <stop
         style="stop-color:#ffffff;stop-opacity:1;"
         offset="0"
         id="stop571" />
      <stop
         style="stop-color:white;stop-opacity:0.556701;"
         offset="1"
         id="stop572" />
    </linearGradient>
    <linearGradient
       id="linearGradient563">
      <stop
         style="stop-color:#d9cce6;stop-opacity:1;"
         offset="0.00000000"
         id="stop564" />
      <stop
         style="stop-color:#73667f;stop-opacity:1;"
         offset="1.00000000"
         id="stop565" />
    </linearGradient>
    <linearGradient
       x1="0.00980392"
       y1="0.01562500"
       x2="0.98529410"
       y2="0.97656250"
       id="linearGradient566"
       xlink:href="#linearGradient563" />
    <linearGradient
       x1="0.007273"
       y1="-0.030301"
       x2="0.985455"
       y2="1.045454"
       id="linearGradient569"
       xlink:href="#linearGradient570" />
    <linearGradient
       x1="0.007273"
       y1="0.013158"
       x2="0.978182"
       y2="0.973684"
       id="linearGradient573"
       xlink:href="#linearGradient570" />
    <linearGradient
       x1="0.006712"
       y1="0.046874"
       x2="1.020134"
       y2="0.984375"
       id="linearGradient575"
       xlink:href="#linearGradient570" />
    <linearGradient
       id="linearGradient578"
       xlink:href="#linearGradient570" />
    <linearGradient
       id="linearGradient713"
       xlink:href="#linearGradient584" />
    <linearGradient
       y2="56.67247"
       x2="55.475528"
       y1="2.2820689"
       x1="2.3435844"
       id="linearGradient655"
       xlink:href="#linearGradient570"
       gradientUnits="userSpaceOnUse" />
    <linearGradient
       id="linearGradient654"
       xlink:href="#linearGradient584"
       gradientTransform="scale(0.865842,1.154945)"
       x1="15.243068"
       y1="38.676094"
       x2="34.921941"
       y2="38.676094"
       gradientUnits="userSpaceOnUse" />
    <linearGradient
       id="linearGradient583"
       xlink:href="#linearGradient584"
       gradientTransform="scale(0.88031,1.135964)"
       x1="35.460467"
       y1="13.645152"
       x2="55.558683"
       y2="13.645152"
       gradientUnits="userSpaceOnUse" />
    <linearGradient
       y2="45.183026"
       x2="45.667449"
       y1="7.3336703"
       x1="5.4427566"
       id="linearGradient581"
       xlink:href="#linearGradient584"
       gradientTransform="scale(1.07041,0.934221)"
       gradientUnits="userSpaceOnUse" />
    <linearGradient
       id="linearGradient1912">
      <stop
         id="stop579"
         offset="0.00000000"
         style="stop-color:#ffffff;stop-opacity:1;" />
      <stop
         id="stop580"
         offset="1.00000000"
         style="stop-color:#d9cce6;stop-opacity:1;" />
    </linearGradient>
    <linearGradient
       id="linearGradient584">
      <stop
         id="stop585"
         offset="0.00000000"
         style="stop-color:#ffffff;stop-opacity:1;" />
      <stop
         id="stop586"
         offset="1.00000000"
         style="stop-color:#ffffff;stop-opacity:0;" />
    </linearGradient>
  </defs>
  <path
     d="M 2.1976212 45.319455 C 3.1625552 45.90448 31.077707 52.933948 32.851323 52.592022 C 34.645931 52.270782 58.074943 32.660219 58.989057 30.939784 C 59.765015 29.64452 59.907345 22.382856 58.989057 21.684021 C 57.784877 20.932828 31.679645 15.542998 29.977448 16.064343 C 28.220845 16.560526 2.6924369 33.322578 1.7870744 34.576068 C 0.91908407 35.757632 1.4447099 44.734129 2.1976212 45.319455 z "
     style="font-size:12;opacity:0.302675;fill-rule:evenodd;stroke-width:12.5;"
     id="path776" />
  <path
     d="M 2.6932141 42.767704 C 3.6126394 43.325133 30.211247 50.023073 31.901216 49.697178 C 33.611184 49.391277 55.935229 30.705508 56.806233 29.066212 C 57.545594 27.832035 57.681213 20.912745 56.806233 20.246879 C 55.658842 19.531201 30.784795 14.395471 29.162879 14.892326 C 27.48912 15.36511 3.164693 31.336619 2.3020298 32.530903 C 1.474976 33.656739 1.9758121 42.209883 2.6932141 42.767704 z "
     style="font-size:12;fill:url(#linearGradient566);fill-rule:evenodd;stroke:#261933;stroke-width:1.875;stroke-dasharray:none;"
     id="path679" />
  <path
     d="M 3.6059609 41.350333 C 3.346097 40.816686 2.4458833 33.658389 3.3451745 33.633339 C 4.7222744 33.591207 29.721379 39.576678 29.945247 40.036357 C 30.156007 40.46914 12.342011 35.904919 4.8335089 36.533315 C 3.5623132 36.639813 3.780744 41.709238 3.6059609 41.350333 z "
     style="font-size:12;opacity:0.7;fill:url(#linearGradient569);fill-rule:evenodd;stroke:none;stroke-width:0.106691pt;"
     id="path680" />
  <path
     d="M 4.7795034 32.688361 C 4.8237913 32.313926 28.085777 16.612293 29.68449 16.46716 C 31.338928 16.328818 54.632998 21.139427 54.589602 21.506783 C 54.546111 21.874427 35.645303 18.032577 29.608088 19.340249 C 24.112482 20.558797 4.736866 33.048821 4.7795034 32.688361 z "
     style="font-size:12;opacity:0.7;fill:url(#linearGradient573);fill-rule:evenodd;stroke:none;stroke-width:0.106691pt;"
     id="path682" />
  <path
     d="M 31.901216 47.177271 C 31.570269 46.891856 30.674513 41.062294 31.433582 39.602114 C 32.318272 37.993495 54.149731 22.499717 54.459225 22.766689 C 54.75823 23.024626 39.093004 33.773427 33.074622 40.286145 C 31.573765 41.910389 32.17877 47.416963 31.901216 47.177271 z "
     style="font-size:12;opacity:0.7;fill:url(#linearGradient575);fill-rule:evenodd;stroke:none;stroke-width:0.106691pt;"
     id="path683" />
  <ellipse
     cx="410.204895"
     cy="422.408997"
     rx="11.720139"
     ry="11.720139"
     transform="matrix(0.141210,0.000000,0.000000,0.170551,-31.26207,-28.20177)"
     style="font-size:12;fill:#80ff80;fill-rule:evenodd;stroke:#003f00;stroke-width:6.25;stroke-linecap:round;stroke-linejoin:round;"
     id="path722" />
  <path
     style="fill:#261933;fill-rule:evenodd;stroke:none;stroke-opacity:1;stroke-width:1pt;stroke-linejoin:miter;stroke-linecap:butt;fill-opacity:1;"
     d="M 4.6482545 37.168648 C 9.5237862 38.011307 17.335314 39.7412 22.347378 41.280566 C 23.274576 41.532266 23.233312 44.552281 22.347378 44.498588 C 17.333604 43.479607 9.7042077 41.944214 4.6482545 40.207892 C 3.7729292 39.947448 3.8193028 36.99498 4.6482545 37.168648 z "
     id="path594"
     sodipodi:nodetypes="cssss" />
  <g
     id="g1921"
     transform="matrix(0.855213,0,0,0.85675,9.16708,8.286432)">
    <path
       id="path782"
       style="font-size:12px;opacity:0.30267502;fill-rule:evenodd;stroke-width:12.5"
       d="M 36.118897,32.546487 C 36.118897,34.871102 34.232321,36.757678 31.907706,36.757678 C 29.583089,36.757678 27.696413,34.871102 27.696413,32.546487 C 27.696413,30.22187 29.583089,28.335194 31.907706,28.335194 C 34.232321,28.335194 36.118897,30.22187 36.118897,32.546487 z M 58.669514,32.138888 C 58.669514,47.061377 46.55843,59.172358 31.635941,59.172358 C 16.713451,59.172358 4.6024598,47.061377 4.6024598,32.138888 C 4.6024598,17.2164 16.713451,5.1053163 31.635941,5.1053163 C 46.55843,5.1053163 58.669514,17.2164 58.669514,32.138888 z " />
    <path
       id="path773"
       style="font-size:12px;fill:url(#linearGradient655);fill-rule:evenodd;stroke:#261933;stroke-width:1.875;stroke-dasharray:none"
       d="M 34.142707,30.090541 C 34.142707,32.366857 32.295328,34.214238 30.019011,34.214238 C 27.742693,34.214238 25.895215,32.366857 25.895215,30.090541 C 25.895215,27.814224 27.742693,25.966746 30.019011,25.966746 C 32.295328,25.966746 34.142707,27.814224 34.142707,30.090541 z M 56.224788,29.691414 C 56.224788,44.303857 44.365336,56.163209 29.752893,56.163209 C 15.140448,56.163209 3.2810857,44.303857 3.2810857,29.691414 C 3.2810857,15.078969 15.140448,3.2195676 29.752893,3.2195676 C 44.365336,3.2195676 56.224788,15.078969 56.224788,29.691414 z " />
    <path
       id="path774"
       style="font-size:12px;opacity:0.7;fill:url(#linearGradient581);fill-rule:evenodd;stroke:none;stroke-width:0.0778586pt"
       d="M 9.0011055,43.392896 C 4.1204139,37.981788 1.0217144,15.522169 19.11093,7.210253 C 33.787948,0.52499748 48.148535,11.238426 49.174482,14.260508 C 49.477048,15.112445 36.930363,4.5046413 21.90453,12.265166 C -0.14499078,23.553358 9.6014807,44.077157 9.0011055,43.392896 z " />
    <path
       id="path779"
       style="font-size:12px;opacity:0.10089201;fill:#3f003f;fill-rule:evenodd;stroke-width:1pt"
       d="M 39.82112,30.278517 C 39.82112,35.464806 34.97533,39.8566 29.980089,40.025561 C 24.417649,40.025561 19.766075,35.370817 19.950882,30.184529 C 20.142324,24.810364 24.417649,20.061235 29.980089,20.061235 C 35.166277,20.061235 40.01593,24.90772 39.82112,30.278517 z M 37.202325,30.223452 C 37.202325,34.262073 33.924622,37.539775 29.886001,37.539775 C 25.847379,37.539775 22.569677,34.262073 22.569677,30.223452 C 22.569677,26.184831 25.847379,22.907127 29.886001,22.907127 C 33.924622,22.907127 37.202325,26.184831 37.202325,30.223452 z " />
    <path
       id="path780"
       style="font-size:12px;fill:url(#linearGradient583);fill-rule:evenodd;stroke-width:1pt"
       d="M 31.216196,25.235045 C 31.210947,25.612088 33.486473,27.095298 33.810233,26.897813 C 38.868164,22.772731 48.783377,16.593181 48.908464,12.398175 C 48.994925,9.4338322 34.085957,3.3896875 33.610668,4.1506354 C 31.562637,7.7161848 31.329796,18.518304 31.216196,25.235045 z " />
    <path
       id="path781"
       style="font-size:12px;fill:url(#linearGradient654);fill-rule:evenodd;stroke-width:1pt"
       d="M 29.473007,34.718049 C 29.439136,34.342493 27.022281,33.103018 26.720708,33.332986 C 22.117364,37.959801 12.895625,45.133311 13.205717,49.318609 C 13.426772,52.276018 28.881644,56.743083 29.275523,55.937104 C 30.943145,52.178566 30.055853,41.410426 29.473007,34.718049 z " />
  </g>
</svg>
