<?xml version="1.0" encoding="UTF-8" standalone="no"?>
<!-- Created with Inkscape (http://www.inkscape.org/) -->
<svg
   xmlns:dc="http://purl.org/dc/elements/1.1/"
   xmlns:cc="http://web.resource.org/cc/"
   xmlns:rdf="http://www.w3.org/1999/02/22-rdf-syntax-ns#"
   xmlns:svg="http://www.w3.org/2000/svg"
   xmlns="http://www.w3.org/2000/svg"
   xmlns:xlink="http://www.w3.org/1999/xlink"
   xmlns:sodipodi="http://sodipodi.sourceforge.net/DTD/sodipodi-0.dtd"
   xmlns:inkscape="http://www.inkscape.org/namespaces/inkscape"
   id="svg1"
   sodipodi:version="0.32"
   inkscape:version="0.45.1"
   width="48pt"
   height="48pt"
   sodipodi:docbase="/home/alfa/trunk/lila/gnome/scalable/devices"
   sodipodi:docname="radio.svg"
   inkscape:output_extension="org.inkscape.output.svg.inkscape">
  <metadata
     id="metadata46">
    <rdf:RDF>
      <cc:Work
         rdf:about="">
        <dc:format>image/svg+xml</dc:format>
        <dc:type
           rdf:resource="http://purl.org/dc/dcmitype/StillImage" />
      </cc:Work>
    </rdf:RDF>
  </metadata>
  <defs
     id="defs3">
    <linearGradient
       id="linearGradient916">
      <stop
         style="stop-color:#cccccc;stop-opacity:1;"
         offset="0.00000000"
         id="stop917" />
      <stop
         style="stop-color:#7f7f7f;stop-opacity:1;"
         offset="1.00000000"
         id="stop918" />
    </linearGradient>
    <linearGradient
       id="linearGradient866">
      <stop
         style="stop-color:#ffffff;stop-opacity:1;"
         offset="0.00000000"
         id="stop867" />
      <stop
         style="stop-color:#d9cce6;stop-opacity:1;"
         offset="1.00000000"
         id="stop868" />
    </linearGradient>
    <linearGradient
       id="linearGradient584">
      <stop
         style="stop-color:#ffffff;stop-opacity:1;"
         offset="0.00000000"
         id="stop585" />
      <stop
         style="stop-color:#ffffff;stop-opacity:0;"
         offset="1.00000000"
         id="stop586" />
    </linearGradient>
    <linearGradient
       id="linearGradient578">
      <stop
         style="stop-color:#d9cce6;stop-opacity:1;"
         offset="0.00000000"
         id="stop579" />
      <stop
         style="stop-color:#73667f;stop-opacity:1;"
         offset="1.00000000"
         id="stop580" />
    </linearGradient>
    <linearGradient
       xlink:href="#linearGradient584"
       id="linearGradient581"
       x1="81.355855"
       y1="6.4681733"
       x2="101.02472"
       y2="25.975179"
       gradientTransform="matrix(0.5520132,0,0,1.3309232,-3.3344232,20.728437)"
       gradientUnits="userSpaceOnUse" />
    <linearGradient
       xlink:href="#linearGradient866"
       id="linearGradient583"
       x1="395.04731"
       y1="422.40900"
       x2="425.36248"
       y2="422.40900"
       gradientUnits="userSpaceOnUse" />
    <linearGradient
       xlink:href="#linearGradient584"
       id="linearGradient860"
       x1="15.256181"
       y1="18.616387"
       x2="15.121436"
       y2="40.998606"
       gradientTransform="matrix(1.327242,0.000000,0.000000,0.753442,-2.125960e-3,0.000000)"
       gradientUnits="userSpaceOnUse" />
    <linearGradient
       xlink:href="#linearGradient584"
       id="linearGradient861"
       x1="2.8286491"
       y1="8.8733400"
       x2="22.313164"
       y2="27.228558"
       gradientTransform="matrix(2.4976013,0,0,0.2941572,-3.3344232,20.728437)"
       gradientUnits="userSpaceOnUse" />
    <linearGradient
       xlink:href="#linearGradient584"
       id="linearGradient862"
       x1="3.9185719"
       y1="16.547296"
       x2="25.099227"
       y2="37.202075"
       gradientTransform="matrix(1.743908,0,0,0.3116486,-3.1667176,24.479367)"
       gradientUnits="userSpaceOnUse" />
    <linearGradient
       xlink:href="#linearGradient578"
       id="linearGradient869"
       x1="-0.00000000"
       y1="0.00917431"
       x2="0.99275362"
       y2="0.96330273" />
    <linearGradient
       xlink:href="#linearGradient578"
       id="linearGradient915"
       x1="0.00362319"
       y1="-0.00000000"
       x2="1.01086962"
       y2="1.02362204" />
    <linearGradient
       xlink:href="#linearGradient578"
       id="linearGradient1046"
       x1="3.8224552"
       y1="1.5281591"
       x2="54.704043"
       y2="51.666471"
       gradientTransform="matrix(1.0543192,0,0,0.6968349,-3.3344231,20.728439)"
       gradientUnits="userSpaceOnUse" />
    <linearGradient
       xlink:href="#linearGradient578"
       id="linearGradient1047"
       x1="0.00362319"
       y1="0.01626016"
       x2="1.00000000"
       y2="0.97560978" />
    <linearGradient
       xlink:href="#linearGradient584"
       id="linearGradient1106"
       x1="0.01677185"
       y1="0.00454466"
       x2="0.97643667"
       y2="1.00106704" />
    <linearGradient
       xlink:href="#linearGradient866"
       id="linearGradient1107"
       x1="0.01683684"
       y1="0.00517791"
       x2="0.98230928"
       y2="0.98697507" />
    <linearGradient
       xlink:href="#linearGradient584"
       id="linearGradient1113"
       x1="0.02027027"
       y1="0.03100775"
       x2="0.99324322"
       y2="0.98449612" />
    <linearGradient
       inkscape:collect="always"
       xlink:href="#linearGradient578"
       id="linearGradient8996"
       x1="6.0233812"
       y1="31.682474"
       x2="12.314658"
       y2="35.756687"
       gradientUnits="userSpaceOnUse"
       gradientTransform="matrix(0.6317307,4.4173062e-2,-3.7855931e-2,0.2842197,5.5506049,25.725781)" />
    <linearGradient
       inkscape:collect="always"
       xlink:href="#linearGradient578"
       id="linearGradient9000"
       gradientUnits="userSpaceOnUse"
       gradientTransform="matrix(0.552078,-0.1124547,0.2464706,1.4321438,-4.5267014,-4.9315041)"
       x1="-0.84558851"
       y1="23.822216"
       x2="5.0252461"
       y2="35.571644" />
    <linearGradient
       inkscape:collect="always"
       xlink:href="#linearGradient578"
       id="linearGradient3178"
       x1="13.643069"
       y1="24.017412"
       x2="44.643635"
       y2="24.017412"
       gradientUnits="userSpaceOnUse"
       gradientTransform="matrix(1.0522954,0,0,1.0863074,-3.0144542,-5.0897108)" />
    <linearGradient
       inkscape:collect="always"
       xlink:href="#linearGradient584"
       id="linearGradient3195"
       x1="15.494377"
       y1="20.09487"
       x2="18.31044"
       y2="21.726852"
       gradientUnits="userSpaceOnUse"
       gradientTransform="matrix(1.0522954,0,0,1.0863074,-3.0144542,-5.0897108)" />
    <linearGradient
       inkscape:collect="always"
       xlink:href="#linearGradient584"
       id="linearGradient3207"
       x1="33.047665"
       y1="28.887276"
       x2="39.456703"
       y2="25.010435"
       gradientUnits="userSpaceOnUse"
       gradientTransform="matrix(1.0522954,0,0,1.0863074,-3.0144542,-5.0897108)" />
  </defs>
  <sodipodi:namedview
     id="base"
     pagecolor="#ffffff"
     bordercolor="#666666"
     borderopacity="1.0"
     inkscape:pageopacity="0.0"
     inkscape:pageshadow="2"
     inkscape:zoom="11.313708"
     inkscape:cx="25.429744"
     inkscape:cy="30.224523"
     inkscape:window-width="1280"
     inkscape:window-height="954"
     inkscape:window-x="4"
     inkscape:window-y="45"
     inkscape:current-layer="svg1"
     showguides="true"
     inkscape:guide-bbox="true" />
  <path
     style="fill:none;fill-rule:evenodd;stroke:#261933;stroke-width:3.70430684;stroke-linecap:butt;stroke-linejoin:miter;stroke-miterlimit:4;stroke-dasharray:none;stroke-opacity:1"
     d="M 56.729774,2.6014363 C 20.017453,19.914478 25.436751,17.272803 9.6322762,24.899485"
     id="path2201"
     sodipodi:nodetypes="cc"
     inkscape:transform-center-x="-0.8070996"
     inkscape:transform-center-y="-3.5555418" />
  <path
     d="M 5.6154923,51.421418 C 6.6007203,52.035563 45.407864,59.658521 46.810637,59.106003 C 48.38244,58.429534 56.275637,52.770684 56.689641,51.894873 C 56.941787,51.221647 58.08599,31.140159 56.752795,30.491651 C 55.089415,29.746019 14.479554,23.995446 13.147851,24.213017 C 11.612185,24.338022 5.9369355,28.40532 5.2244183,29.434795 C 4.6227244,30.388532 4.5379974,50.778962 5.6154923,51.421418 z "
     style="font-size:12px;fill:#000000;fill-opacity:0.4;fill-rule:evenodd;stroke:none;stroke-width:2.14945292"
     id="path877"
     sodipodi:nodetypes="ccccccc" />
  <path
     d="M 3.2883282,44.865591 C 4.3175363,45.507153 44.171512,56.724543 45.636902,56.147358 C 47.278868,55.440692 53.359802,50.709579 53.792285,49.794677 C 54.055685,49.091399 55.520445,28.824444 54.127744,28.14699 C 52.390109,27.36807 16.660433,23.537193 15.269289,23.764475 C 13.665068,23.895057 2.2533089,32.821756 1.5089848,33.897187 C 0.88043224,34.893498 2.1627353,44.194455 3.2883282,44.865591 z "
     style="font-size:12px;opacity:0.3;fill-rule:evenodd;stroke-width:12.5"
     id="path727"
     sodipodi:nodetypes="ccccccc" />
  <path
     d="M 2.7219782,49.435628 C 3.7072068,50.049773 42.514348,57.672732 43.917121,57.120215 C 45.488924,56.443744 53.382123,50.784895 53.796128,49.909086 C 54.048273,49.235858 55.192476,29.15437 53.859281,28.505862 C 52.195904,27.760229 11.586039,22.009658 10.254336,22.227229 C 8.7186698,22.35223 3.0434208,26.419529 2.3309034,27.449008 C 1.7292092,28.402745 1.6444821,48.79317 2.7219782,49.435628 z "
     style="font-size:12px;fill:url(#linearGradient1046);fill-rule:evenodd;stroke:#261933;stroke-width:1.84217334;stroke-miterlimit:4;stroke-dasharray:none"
     id="path562"
     sodipodi:nodetypes="ccccccc" />
  <path
     d="M 3.7313668,27.762744 C 3.6541196,27.524571 8.3027953,23.577712 10.544528,23.456831 C 16.735476,23.116711 52.142789,28.910584 52.219137,29.146038 C 52.294096,29.377282 23.874245,23.960698 12.147052,24.662064 C 7.7117673,24.927409 4.1335954,28.380658 3.7313668,27.762744 z "
     style="font-size:12px;opacity:0.69993597;fill:url(#linearGradient861);fill-rule:evenodd;stroke:none;stroke-width:0.96353598pt"
     id="path592"
     sodipodi:nodetypes="ccccc" />
  <path
     d="M 43.115328,55.710917 C 42.837503,55.588544 40.963902,37.13585 41.505922,35.953934 C 42.181925,34.27113 52.153455,29.01296 52.426109,29.13305 C 52.688705,29.248675 44.876285,32.858578 43.111866,36.466389 C 41.718048,39.316649 43.372751,55.824261 43.115328,55.710917 z "
     style="font-size:12px;opacity:0.69993597;fill:url(#linearGradient581);fill-rule:evenodd;stroke:none;stroke-width:0.96353598pt"
     id="path594"
     sodipodi:nodetypes="ccccc" />
  <ellipse
     cx="410.2049"
     cy="422.409"
     rx="11.720139"
     ry="11.720139"
     transform="matrix(0.1349829,3.6409693e-2,-2.3843208e-2,0.1005696,-19.691562,-21.586232)"
     style="font-size:12px;fill:#0d9806;fill-opacity:1;fill-rule:evenodd;stroke:#261933;stroke-width:9.5457859;stroke-linecap:round;stroke-linejoin:round;stroke-miterlimit:4;stroke-dasharray:none;stroke-opacity:1"
     id="ellipse866"
     sodipodi:cx="410.2049"
     sodipodi:cy="422.409"
     sodipodi:rx="11.720139"
     sodipodi:ry="11.720139" />
  <ellipse
     cx="410.2049"
     cy="422.409"
     rx="11.720139"
     ry="11.720139"
     transform="matrix(0.6289539,0.2326429,-0.1142885,0.6291688,-176.7963,-316.13833)"
     style="font-size:12px;fill:url(#linearGradient583);fill-rule:evenodd;stroke:#261933;stroke-width:2.7120626;stroke-linecap:round;stroke-linejoin:round;stroke-miterlimit:4;stroke-dasharray:none;stroke-opacity:1"
     id="ellipse870"
     sodipodi:cx="410.2049"
     sodipodi:cy="422.409"
     sodipodi:rx="11.720139"
     sodipodi:ry="11.720139" />
  <path
     sodipodi:type="arc"
     style="fill:#261933;fill-opacity:1;fill-rule:evenodd;stroke:none;stroke-width:1pt"
     id="path875"
     sodipodi:cx="37.012619"
     sodipodi:cy="3.1000011"
     sodipodi:rx="1.9887378"
     sodipodi:ry="1.9887378"
     d="M 39.001357 3.1000011 A 1.9887378 1.9887378 0 1 1  35.023881,3.1000011 A 1.9887378 1.9887378 0 1 1  39.001357 3.1000011 z"
     transform="matrix(1.0205171,0,0,1.148428,18.582768,-0.6184435)" />
  <path
     style="fill:url(#linearGradient9000);fill-opacity:1;fill-rule:evenodd;stroke:#261933;stroke-width:1.6999743;stroke-linecap:butt;stroke-linejoin:miter;stroke-miterlimit:4;stroke-dasharray:none;stroke-opacity:1"
     d="M 21.543359,35.646774 C 23.429084,38.451462 23.272391,48.353498 21.815486,50.066303 C 21.35546,50.830054 9.6197388,49.144286 5.9456199,46.797948 C 3.6551342,45.486267 3.2073531,32.693275 5.1361943,32.480414 C 10.938752,32.504339 20.143505,34.330939 21.543359,35.646774 z "
     id="path8998"
     sodipodi:nodetypes="ccccc" />
  <path
     style="fill:url(#linearGradient3178);fill-opacity:1;fill-rule:evenodd;stroke:#261933;stroke-width:1.61337173;stroke-linecap:butt;stroke-linejoin:miter;stroke-miterlimit:4;stroke-dasharray:none;stroke-opacity:1"
     d="M 11.619998,25.064759 C 11.535906,26.425182 14.460446,27.009714 15.726486,25.930196 C 21.520622,9.6681732 32.391532,14.848944 36.042703,29.588021 C 37.079837,30.491378 39.199646,31.195925 40.513573,31.321516 C 41.609693,31.370741 43.627604,31.112162 43.222495,29.015408 C 40.3063,16.44683 37.949142,12.369089 25.839373,10.802506 C 16.662133,9.5811208 11.587385,17.627157 11.619998,25.064759 z "
     id="path3170"
     sodipodi:nodetypes="ccccccc" />
  <path
     style="fill:url(#linearGradient3195);fill-opacity:1;fill-rule:evenodd;stroke:none;stroke-width:1px;stroke-linecap:butt;stroke-linejoin:miter;stroke-opacity:1"
     d="M 12.704346,24.370439 C 12.004213,19.658182 17.274709,12.512083 19.866167,12.656375"
     id="path3187"
     sodipodi:nodetypes="cc" />
  <path
     style="fill:url(#linearGradient3207);fill-opacity:1;fill-rule:evenodd;stroke:none;stroke-width:1px;stroke-linecap:butt;stroke-linejoin:miter;stroke-opacity:1"
     d="M 31.771531,18.41739 C 33.820196,20.857611 35.806958,24.849379 36.701095,28.40315 C 39.074786,31.340427 37.892786,26.492779 36.701096,23.41027 C 34.383439,18.051463 28.784483,14.096078 31.771531,18.41739 z "
     id="path3199"
     sodipodi:nodetypes="cccc" />
  <path
     d="M 3.4776814,36.424026 C 3.2363714,36.149615 2.9986678,29.788696 3.9886342,29.641161 C 5.1542479,29.443563 40.788648,35.341314 41.010414,35.593574 C 41.217429,35.828931 9.1449,30.673644 5.2749673,31.103877 C 3.7499055,31.266696 3.6651498,36.637165 3.4776814,36.424026 z "
     style="font-size:12px;opacity:0.69993597;fill:url(#linearGradient862);fill-rule:evenodd;stroke:none;stroke-width:0.96353598pt"
     id="path587"
     sodipodi:nodetypes="ccccc" />
</svg>
