<?xml version="1.0" encoding="UTF-8" standalone="no"?>
<!DOCTYPE svg PUBLIC "-//W3C//DTD SVG 20010904//EN"
"http://www.w3.org/TR/2001/REC-SVG-20010904/DTD/svg10.dtd">
<!-- Created with Inkscape (http://www.inkscape.org/) -->
<svg
   version="1.0"
   x="0"
   y="0"
   width="48pt"
   height="48pt"
   id="svg611"
   sodipodi:version="0.32"
   inkscape:version="0.37"
   sodipodi:docname="002_text_document.svg"
   sodipodi:docbase="/home/tom"
   xmlns="http://www.w3.org/2000/svg"
   xmlns:inkscape="http://www.inkscape.org/namespaces/inkscape"
   xmlns:sodipodi="http://sodipodi.sourceforge.net/DTD/sodipodi-0.dtd"
   xmlns:xlink="http://www.w3.org/1999/xlink">
  <sodipodi:namedview
     id="base"
     pagecolor="#ffffff"
     bordercolor="#666666"
     borderopacity="1.0"
     inkscape:pageopacity="0.0"
     inkscape:pageshadow="2"
     inkscape:zoom="5.90243902"
     inkscape:cx="25.4999994"
     inkscape:cy="21.2499982"
     inkscape:window-width="640"
     inkscape:window-height="501"
     inkscape:window-x="93"
     inkscape:window-y="185" />
  <defs
     id="defs613">
    <linearGradient
       id="linearGradient685">
      <stop
         offset="0.00000000"
         style="stop-color:#ffffff;stop-opacity:1;"
         id="stop687" />
      <stop
         offset="1.00000000"
         style="stop-color:#ffffff;stop-opacity:0;"
         id="stop686" />
    </linearGradient>
    <linearGradient
       id="linearGradient664">
      <stop
         style="stop-color:#ffffff;stop-opacity:1;"
         offset="0.00000000"
         id="stop665" />
      <stop
         style="stop-color:#ffffff;stop-opacity:0.443548;"
         offset="1.00000000"
         id="stop666" />
    </linearGradient>
    <linearGradient
       id="linearGradient1272">
      <stop
         style="stop-color:#0000ff;stop-opacity:1;"
         offset="0"
         id="stop1273" />
      <stop
         style="stop-color:#00008d;stop-opacity:1;"
         offset="1"
         id="stop1274" />
    </linearGradient>
    <linearGradient
       id="linearGradient1269">
      <stop
         style="stop-color:#00ff00;stop-opacity:1;"
         offset="0"
         id="stop1270" />
      <stop
         style="stop-color:#008700;stop-opacity:1;"
         offset="1"
         id="stop1271" />
    </linearGradient>
    <linearGradient
       id="linearGradient1256">
      <stop
         style="stop-color:#ffffff;stop-opacity:1;"
         offset="0"
         id="stop1258" />
      <stop
         style="stop-color:#ffffff;stop-opacity:0;"
         offset="1"
         id="stop1257" />
    </linearGradient>
    <linearGradient
       id="linearGradient1253">
      <stop
         style="stop-color:#c7b397;stop-opacity:1;"
         offset="0.00000000"
         id="stop1255" />
      <stop
         style="stop-color:#faebdc;stop-opacity:1;"
         offset="1.00000000"
         id="stop1254" />
    </linearGradient>
    <linearGradient
       id="linearGradient1048">
      <stop
         style="stop-color:#ffffff;stop-opacity:1;"
         offset="0"
         id="stop1049" />
      <stop
         style="stop-color:#7f7f7f;stop-opacity:1;"
         offset="1"
         id="stop1050" />
    </linearGradient>
    <linearGradient
       id="linearGradient1535">
      <stop
         style="stop-color:#ffffff;stop-opacity:1;"
         offset="0"
         id="stop1537" />
      <stop
         style="stop-color:#ffffff;stop-opacity:0;"
         offset="1"
         id="stop1536" />
    </linearGradient>
    <linearGradient
       id="linearGradient1528">
      <stop
         style="stop-color:#d9cce6;stop-opacity:1;"
         offset="0.00000000"
         id="stop1530" />
      <stop
         style="stop-color:#73667f;stop-opacity:1;"
         offset="1.00000000"
         id="stop1529" />
    </linearGradient>
    <linearGradient
       id="linearGradient642">
      <stop
         style="stop-color:#ffffff;stop-opacity:1;"
         offset="0"
         id="stop643" />
      <stop
         style="stop-color:#ffffff;stop-opacity:0;"
         offset="1"
         id="stop644" />
    </linearGradient>
    <linearGradient
       id="linearGradient635">
      <stop
         style="stop-color:#ff0000;stop-opacity:1;"
         offset="0"
         id="stop636" />
      <stop
         style="stop-color:#870000;stop-opacity:1;"
         offset="1"
         id="stop637" />
    </linearGradient>
    <linearGradient
       x1="0.30701753"
       y1="0.32031250"
       x2="0.56140351"
       y2="0.56250000"
       id="linearGradient638"
       xlink:href="#linearGradient1528" />
    <linearGradient
       x1="0.00793651"
       y1="0.01562500"
       x2="0.98412699"
       y2="0.98437500"
       id="linearGradient641"
       xlink:href="#linearGradient1048" />
    <linearGradient
       x1="-0.016529"
       y1="0.007812"
       x2="1.008265"
       y2="1.000000"
       id="linearGradient1522"
       xlink:href="#linearGradient642" />
    <linearGradient
       id="linearGradient1527"
       xlink:href="#linearGradient664" />
    <linearGradient
       id="linearGradient1532"
       xlink:href="#linearGradient1528"
       x1="0.00000000"
       y1="0.00000000"
       x2="1.00000000"
       y2="0.00000000" />
    <linearGradient
       id="linearGradient1534"
       xlink:href="#linearGradient685"
       x1="-0.00000000"
       y1="-0.00000000"
       x2="1.00000000"
       y2="-0.00000000" />
    <linearGradient
       x1="0.020099"
       y1="0.023282"
       x2="0.989950"
       y2="1.023435"
       id="linearGradient1539"
       xlink:href="#linearGradient1256"
       gradientTransform="translate(-3.303398e-8,-1.426085e-6)" />
    <linearGradient
       x1="0.006447"
       y1="0.039037"
       x2="0.980645"
       y2="0.984374"
       id="linearGradient1567"
       xlink:href="#linearGradient1256" />
    <linearGradient
       id="linearGradient1042"
       xlink:href="#linearGradient1528"
       x1="-0.00000000"
       y1="0.00000000"
       x2="1.00000000"
       y2="0.00000000" />
    <linearGradient
       id="linearGradient1044"
       xlink:href="#linearGradient1528"
       x1="1.55924022"
       y1="-0.08478880"
       x2="2.67332411"
       y2="-0.08478880"
       gradientTransform="scale(1.049967,0.952411)" />
    <defs
       id="defs1121">
      <linearGradient
         x1="0.000000"
         y1="0.000000"
         x2="1.000000"
         y2="0.000000"
         id="linearGradient1231"
         xlink:href="#linearGradient1256"
         gradientUnits="objectBoundingBox"
         spreadMethod="pad" />
      <linearGradient
         id="linearGradient1226">
        <stop
           style="stop-color:#e6e6e6;stop-opacity:1;"
           offset="0"
           id="stop1227" />
        <stop
           style="stop-color:#7f7f7f;stop-opacity:1;"
           offset="1"
           id="stop1228" />
      </linearGradient>
      <linearGradient
         id="linearGradient1223">
        <stop
           style="stop-color:#000000;stop-opacity:1;"
           offset="0"
           id="stop1225" />
        <stop
           style="stop-color:#000000;stop-opacity:0;"
           offset="1"
           id="stop1224" />
      </linearGradient>
      <linearGradient
         x1="0.000000"
         y1="0.000000"
         x2="1.000000"
         y2="0.000000"
         id="linearGradient1218"
         xlink:href="#linearGradient1253"
         gradientUnits="objectBoundingBox"
         spreadMethod="pad" />
      <linearGradient
         id="linearGradient1215">
        <stop
           style="stop-color:#7f7366;stop-opacity:1;"
           offset="0"
           id="stop1217" />
        <stop
           style="stop-color:#7f7366;stop-opacity:0;"
           offset="1"
           id="stop1216" />
      </linearGradient>
      <linearGradient
         id="linearGradient1137"
         x1="0.00000000"
         y1="0.00000000"
         x2="1.00000000"
         y2="0.00000000"
         gradientUnits="objectBoundingBox"
         spreadMethod="pad"
         xlink:href="#linearGradient685" />
      <linearGradient
         id="linearGradient1140">
        <stop
           style="stop-color:#e6cfff;stop-opacity:1;"
           offset="0"
           id="stop1141" />
        <stop
           style="stop-color:#ffffff;stop-opacity:1;"
           offset="1"
           id="stop1142" />
      </linearGradient>
      <linearGradient
         x1="0.008696"
         y1="0.000000"
         x2="0.965218"
         y2="0.968750"
         id="linearGradient1143"
         xlink:href="#linearGradient635" />
      <linearGradient
         x1="0.015504"
         y1="0.007812"
         x2="0.697674"
         y2="0.882812"
         id="linearGradient1144"
         xlink:href="#linearGradient642" />
      <linearGradient
         x1="0.030302"
         y1="0.023437"
         x2="0.979798"
         y2="0.976562"
         id="linearGradient1214"
         xlink:href="#linearGradient1218" />
      <linearGradient
         x1="0.977528"
         y1="0.953125"
         x2="0.011236"
         y2="0.039063"
         id="linearGradient1222"
         xlink:href="#linearGradient1226" />
      <linearGradient
         x1="0.003630"
         y1="-0.000003"
         x2="0.960000"
         y2="0.991228"
         id="linearGradient1230"
         xlink:href="#linearGradient1231" />
      <linearGradient
         x1="0.011765"
         y1="0.015625"
         x2="0.705882"
         y2="0.828125"
         id="linearGradient1235"
         xlink:href="#linearGradient1231" />
    </defs>
    <linearGradient
       id="linearGradient1276"
       xlink:href="#linearGradient1528"
       x1="0.61909151"
       y1="0.13105518"
       x2="0.95715344"
       y2="0.13105518"
       gradientTransform="scale(0.823492,1.214341)" />
    <linearGradient
       id="linearGradient1281"
       xlink:href="#linearGradient1528"
       x1="0.57310259"
       y1="-0.04306147"
       x2="0.91164112"
       y2="-0.04306147"
       gradientTransform="scale(0.822333,1.216053)" />
    <radialGradient
       id="radialGradient1285"
       xlink:href="#linearGradient1272" />
    <radialGradient
       id="radialGradient1286"
       xlink:href="#linearGradient1272" />
    <radialGradient
       id="radialGradient1287"
       xlink:href="#linearGradient1272" />
    <linearGradient
       xlink:href="#linearGradient1528"
       id="linearGradient740"
       x1="-0.52517629"
       y1="-2.63445520"
       x2="0.16711450"
       y2="-2.63445520" />
    <linearGradient
       xlink:href="#linearGradient1528"
       id="linearGradient741"
       x1="0.97414994"
       y1="-3.01979208"
       x2="1.74541974"
       y2="-3.01979208"
       gradientTransform="scale(1.049967,0.952411)" />
    <linearGradient
       xlink:href="#linearGradient1528"
       id="linearGradient742"
       x1="0.44181949"
       y1="-0.76102495"
       x2="0.67599970"
       y2="-0.76102495"
       gradientTransform="scale(0.822989,1.215083)" />
    <linearGradient
       xlink:href="#linearGradient1528"
       id="linearGradient743"
       x1="0.39531016"
       y1="-0.93492609"
       x2="0.62967736"
       y2="-0.93492609"
       gradientTransform="scale(0.822333,1.216053)" />
  </defs>
  <path
     d="M 4.43893 48.711315 C 5.248318 51.12943 38.76577 62.002487 40.96644 60.17788 C 42.93627 58.527492 57.67557 9.403589 56.68867 7.455378 C 55.66282 5.307478 21.657054 -0.0425724 20.042945 1.426531 C 18.054709 3.246752 3.588867 45.936841 4.43893 48.711315 z "
     style="font-size:12;opacity:0.302675;fill-rule:evenodd;stroke-width:12.5;"
     id="path639" />
  <path
     d="M 4.554152 46.70993 C 5.311435 48.97226 36.66955 59.144843 38.72843 57.437781 C 40.57136 55.893717 54.36111 9.934533 53.43779 8.111794 C 52.47803 6.102268 20.663028 1.0969251 19.152904 2.471384 C 17.292759 4.17434 3.758851 44.114198 4.554152 46.70993 z "
     style="font-size:12;fill:url(#linearGradient1527);fill-rule:evenodd;stroke:#261933;stroke-width:1.87726;"
     id="path634" />
  <path
     d="M 6.687657 44.590773 C 6.360392 43.76167 19.363758 5.212263 20.579427 4.417273 C 22.09876 3.380412 46.65981 7.970403 46.98631 8.797561 C 47.28557 9.555676 27.823671 6.015663 23.493845 9.888577 C 15.189619 17.107895 6.986148 45.346984 6.687657 44.590773 z "
     style="font-size:12;opacity:0.699936;fill:url(#linearGradient1534);fill-rule:evenodd;stroke:none;stroke-width:0.100121pt;"
     id="path640" />
  <g
     transform="matrix(6.949277e-2,0.000000,0.000000,7.301817e-2,6.366610,4.462350)"
     style="font-size:12;opacity:0.302675;"
     id="g1288">
    <path
       d="M 193.828 467.434 C 178.941 468.948 161.154 486.272 148.606 498.444 C 130.468 516.075 92.7478 564.2 104.676 592.765 C 111.698 552.141 185.106 555.496 205.456 535.914 C 216.415 526.066 227.005 503.459 224.837 490.691 C 223.129 480.633 204.352 466.364 193.828 467.434 z "
       style="fill-rule:evenodd;stroke-width:0.961965pt;"
       id="path1282" />
    <path
       d="M 229.409 417.471 C 221.482 419.905 190.897 456.406 190.623 463.082 C 190.082 475.91 220.297 500.47 232.768 498.042 C 237.828 496.761 268.98 456.842 269.182 451.097 C 269.654 438.55 241.337 414.372 229.409 417.471 z "
       style="fill-rule:evenodd;stroke-width:11.3244;"
       id="path1283" />
    <path
       d="M 221.358 423.625 C 228.067 386.292 264.417 333.237 298.019 298.291 C 375.96 217.232 538.735 66.7744 555.987 75.6109 C 571.994 83.8099 456.882 263.285 391.15 343.699 C 355.597 386.031 313.676 435.685 270.031 454.046 C 254.863 460.427 218.737 438.21 221.358 423.625 z "
       style="fill-rule:evenodd;stroke-width:11.3244;"
       id="path1284" />
  </g>
  <path
     d="M 21.468814 34.258747 C 20.917909 34.436427 18.792445 37.101696 18.773467 37.589135 C 18.735851 38.52585 20.835535 40.319159 21.702196 40.141835 C 22.053866 40.048349 24.218648 37.133501 24.232728 36.71403 C 24.265515 35.7979 22.297655 34.032466 21.468814 34.258747 z "
     style="font-size:12;fill:url(#linearGradient641);fill-rule:evenodd;stroke:#333333;stroke-width:1.31609;"
     id="path1046" />
  <path
     d="M 20.90927 34.708093 C 21.37549 31.982073 23.9016 28.108139 26.236638 25.55644 C 31.652979 19.637687 42.96466 8.651557 44.16354 9.296779 C 45.2759 9.895459 37.27651 23.00038 32.708603 28.872033 C 30.237929 31.963061 27.324709 35.588701 24.291703 36.929377 C 23.237643 37.395304 20.727176 35.773029 20.90927 34.708093 z "
     style="font-size:12;fill:url(#linearGradient638);fill-rule:evenodd;stroke:#261933;stroke-width:1.31609;"
     id="path1045" />
  <path
     d="M 21.954352 34.602886 C 20.92063 36.045694 24.281295 29.686101 27.74134 25.579954 C 32.269729 20.334183 43.68025 10.072589 42.76897 11.163011 C 41.33174 12.771141 25.134147 29.936111 21.954352 34.602886 z "
     style="font-size:12;opacity:0.7;fill:url(#linearGradient1522);fill-rule:evenodd;stroke:none;stroke-width:1.02162pt;"
     id="path1051" />
  <path
     d="M 19.527483 37.741228 C 19.527483 37.590994 20.29837 36.283625 20.740917 36.172057 C 21.076195 36.087434 21.861026 37.00578 21.861026 37.152798 C 21.861026 37.267297 21.085853 36.869625 20.740917 36.956608 C 20.308029 37.065745 19.527483 37.852511 19.527483 37.741228 z "
     style="font-size:12;opacity:0.699936;fill:url(#linearGradient1539);fill-rule:evenodd;stroke:none;stroke-width:1.02162pt;"
     id="path1265" />
  <path
     d="M 13.180386 44.998729 C 13.241244 44.205456 15.706245 40.145767 18.314117 39.01622 C 18.896926 38.777146 20.050976 40.355108 20.087572 40.585391 C 20.113284 40.747348 18.934881 39.915626 18.500769 40.193081 C 16.632424 41.38681 13.188167 45.188554 13.180386 44.998729 z "
     style="font-size:12;opacity:0.7;fill:url(#linearGradient1567);fill-rule:evenodd;stroke:none;stroke-width:1.02162pt;"
     id="path1266" />
  <path
     style="font-size:12;fill:url(#linearGradient1532);fill-rule:evenodd;stroke:#000000;stroke-width:0.829612;"
     d="M 18.996168 37.9069 C 16.848677 38.797079 15.696032 39.815503 14.453081 40.78222 C 13.822829 41.425934 14.436167 42.998991 12.545583 46.610194 C 12.615645 46.680561 12.467481 46.510467 12.603186 46.643178 C 15.412731 44.931189 17.021109 45.929439 18.435272 44.499637 C 19.048447 43.468713 21.153359 40.615396 21.151087 39.605079 C 21.032389 38.870703 19.727535 37.828782 18.996168 37.9069 z "
     id="path660"
     sodipodi:nodetypes="ccccccc" />
  <path
     style="font-size:12;fill:none;fill-opacity:0.75;fill-rule:evenodd;stroke:#000000;stroke-width:0.377278;"
     d="M 12.525937 46.682322 L 17.753074 41.151029 "
     id="path663" />
  <path
     sodipodi:type="arc"
     style="font-size:12;fill:#000000;fill-opacity:1;fill-rule:evenodd;stroke:none;stroke-width:1pt;"
     id="path667"
     sodipodi:cx="12.26562500"
     sodipodi:cy="48.43750000"
     sodipodi:rx="0.15625000"
     sodipodi:ry="0.23437500"
     d="M 12.421875 48.437500 A 0.156250 0.234375 0 1 0 12.109375,48.437500 A 0.15625 0.234375 0 1 0 12.4219 48.4375 L 12.265625 48.437500 z"
     transform="matrix(4.584216,0.000000,0.000000,3.287802,-38.51159,-118.1055)" />
  <path
     d="M 5.6069419 23.63928 C 5.6069419 23.006465 12.5283 15.89094 16.284184 15.259591 C 19.29495 14.753383 23.017944 17.305709 25.90665 18.626293 C 29.21322 16.68508 32.896518 14.464397 35.661055 14.794345 C 39.602665 15.043499 47.128913 22.766225 47.128913 23.484011 C 47.128913 24.110618 39.382995 19.733835 35.661055 19.76103 C 32.265025 19.785516 29.086077 22.398135 25.77481 23.63928 C 22.758865 22.087822 19.461885 19.76103 16.284184 19.76103 C 12.739342 19.76103 5.6069419 24.195814 5.6069419 23.63928 z "
     style="font-size:12;fill:url(#linearGradient743);fill-rule:evenodd;stroke:none;stroke-width:2.03405;fill-opacity:1;opacity:0.296369;"
     id="path852"
     sodipodi:nodetypes="ccccccccc" />
  <path
     d="M 4.0068469 21.772504 C 4.0068469 21.139688 10.928206 14.024163 14.68409 13.392814 C 17.694856 12.886606 21.196312 14.663544 24.085017 15.984128 C 27.391586 14.042914 31.296423 12.59762 34.060959 12.927568 C 38.00257 13.176722 45.528818 20.899447 45.528818 21.617233 C 45.528818 22.243841 37.782901 17.867059 34.060959 17.894253 C 30.66493 17.918739 27.485983 20.531357 24.174715 21.772504 C 21.158772 20.221045 17.861791 17.894253 14.68409 17.894253 C 11.139247 17.894253 4.0068469 22.329037 4.0068469 21.772504 z "
     style="font-size:12;fill:url(#linearGradient742);fill-rule:evenodd;stroke:#261933;stroke-width:1.875;stroke-dasharray:none;fill-opacity:1;"
     id="path674"
     sodipodi:nodetypes="ccccccccc" />
  <path
     d="M 8.9979399 18.028336 C 9.0632359 17.848266 13.243456 15.038608 15.429426 14.6055 C 16.536793 14.385925 18.93812 15.372286 18.878096 15.537398 C 18.813758 15.714209 16.295261 15.385326 15.056533 15.630694 C 13.002116 16.037626 8.9389699 18.189997 8.9979399 18.028336 z "
     style="font-size:12;opacity:0.7;fill-rule:evenodd;stroke:none;stroke-width:0.115296pt;fill:url(#linearGradient741);fill-opacity:1;"
     id="path676"
     sodipodi:nodetypes="ccccc" />
  <path
     d="M 25.175905 17.960874 C 25.241394 17.7809 31.099253 14.758818 33.285127 14.325805 C 34.39259 14.106326 36.793916 15.092783 36.733701 15.257896 C 36.669554 15.43461 34.151153 15.105536 32.912232 15.351094 C 30.857911 15.758124 25.117127 18.122726 25.175905 17.960874 z "
     style="font-size:12;opacity:0.7;fill-rule:evenodd;stroke:none;stroke-width:0.115296pt;fill:url(#linearGradient740);fill-opacity:1;"
     id="path677" />
  <path
     d="M 5.5576569 11.082869 C 5.5576569 10.644777 10.349249 5.7187647 12.949412 5.2816877 C 15.033738 4.9312447 17.611132 6.6981957 19.610955 7.6124237 C 21.900064 6.2685407 24.449975 4.7311817 26.363839 4.9596027 C 29.092579 5.1320887 34.302932 10.47846 34.302932 10.975376 C 34.302932 11.409172 28.940505 8.3791647 26.363839 8.3979917 C 24.012799 8.4149427 21.812044 10.223636 19.519683 11.082869 C 17.431774 10.008809 15.149306 8.3979917 12.949412 8.3979917 C 10.495351 8.3979917 5.5576569 11.468151 5.5576569 11.082869 z "
     style="font-size:12;fill:url(#linearGradient1281);fill-rule:evenodd;stroke:none;stroke-width:2.03405;fill-opacity:1;opacity:0.296369;"
     id="path853"
     sodipodi:nodetypes="ccccccccc" />
  <path
     d="M 4.4499259 9.7905157 C 4.4499259 9.3524227 9.2415179 4.4264119 11.841681 3.9893349 C 13.926007 3.6388919 16.614172 4.6304557 18.613995 5.5446837 C 20.903103 4.2007995 23.342246 3.438829 25.256108 3.6672492 C 27.984849 3.8397362 33.195201 9.1861077 33.195201 9.6830237 C 33.195201 10.116819 27.832774 7.0868137 25.256108 7.1056397 C 22.905069 7.1225907 20.704313 8.9312827 18.411953 9.7905157 C 16.324044 8.7164557 14.041574 7.1056397 11.841681 7.1056397 C 9.3876199 7.1056397 4.4499259 10.1758 4.4499259 9.7905157 z "
     style="font-size:12;fill:url(#linearGradient1276);fill-rule:evenodd;stroke:#261933;stroke-width:1.875;stroke-dasharray:none;fill-opacity:1;"
     id="path854"
     sodipodi:nodetypes="ccccccccc" />
  <path
     d="M 7.9052129 7.1984637 C 7.9504169 7.0738037 10.844344 5.1287027 12.357671 4.8288657 C 13.124291 4.6768557 14.786707 5.3597047 14.745153 5.4740107 C 14.700613 5.5964157 12.957081 5.3687327 12.09952 5.5385987 C 10.677267 5.8203137 7.8643889 7.3103807 7.9052129 7.1984637 z "
     style="font-size:12;opacity:0.7;fill-rule:evenodd;stroke:none;stroke-width:0.115296pt;fill:url(#linearGradient1044);fill-opacity:1;"
     id="path855"
     sodipodi:nodetypes="ccccc" />
  <path
     d="M 19.105067 7.1517607 C 19.150405 7.0271667 23.205747 4.9350067 24.719007 4.6352357 C 25.485692 4.4832922 27.148108 5.1662087 27.106422 5.2805137 C 27.062015 5.4028517 25.31855 5.1750367 24.460857 5.3450347 C 23.038668 5.6268177 19.064377 7.2638087 19.105067 7.1517607 z "
     style="font-size:12;opacity:0.7;fill-rule:evenodd;stroke:none;stroke-width:0.115296pt;fill:url(#linearGradient1042);fill-opacity:1;"
     id="path856" />
</svg>
