<?xml version="1.0" encoding="UTF-8" standalone="no"?>
<!DOCTYPE svg PUBLIC "-//W3C//DTD SVG 20010904//EN"
"http://www.w3.org/TR/2001/REC-SVG-20010904/DTD/svg10.dtd">
<!-- Created with Inkscape (http://www.inkscape.org/) -->
<svg
   id="svg1"
   sodipodi:version="0.32"
   inkscape:version="0.37"
   width="48pt"
   height="48pt"
   sodipodi:docbase="/home/dan/Projects/Lila-icons/scalable/mimetypes"
   sodipodi:docname="gnome-mime-application-x-abiword.svg"
   xmlns="http://www.w3.org/2000/svg"
   xmlns:inkscape="http://www.inkscape.org/namespaces/inkscape"
   xmlns:sodipodi="http://sodipodi.sourceforge.net/DTD/sodipodi-0.dtd"
   xmlns:xlink="http://www.w3.org/1999/xlink">
  <defs
     id="defs3">
    <linearGradient
       id="linearGradient703">
      <stop
         style="stop-color:#d9cce6;stop-opacity:1;"
         offset="0.00000000"
         id="stop704" />
      <stop
         style="stop-color:#73667f;stop-opacity:1;"
         offset="1.00000000"
         id="stop705" />
    </linearGradient>
    <linearGradient
       id="linearGradient866">
      <stop
         style="stop-color:#ffffff;stop-opacity:1;"
         offset="0.00000000"
         id="stop867" />
      <stop
         style="stop-color:#d9cce6;stop-opacity:1;"
         offset="1.00000000"
         id="stop868" />
    </linearGradient>
    <linearGradient
       id="linearGradient584">
      <stop
         style="stop-color:#ffffff;stop-opacity:1;"
         offset="0.00000000"
         id="stop585" />
      <stop
         style="stop-color:#ffffff;stop-opacity:0;"
         offset="1.00000000"
         id="stop586" />
    </linearGradient>
    <linearGradient
       xlink:href="#linearGradient866"
       id="linearGradient586"
       x1="-0.00000000"
       y1="0.01562500"
       x2="0.99122804"
       y2="0.98437500" />
    <linearGradient
       xlink:href="#linearGradient584"
       id="linearGradient587"
       x1="0.00000000"
       y1="-0.00000000"
       x2="1.00000000"
       y2="1.00000000" />
    <linearGradient
       xlink:href="#linearGradient584"
       id="linearGradient700"
       x1="-0.00000000"
       y1="0.00000000"
       x2="1.00000000"
       y2="1.00000000" />
    <linearGradient
       xlink:href="#linearGradient584"
       id="linearGradient701"
       x1="0.00000000"
       y1="0.00000000"
       x2="1.09090912"
       y2="1.00000000" />
    <linearGradient
       xlink:href="#linearGradient584"
       id="linearGradient702"
       x1="0.00467290"
       y1="0.02343750"
       x2="0.99065423"
       y2="0.99218750" />
    <linearGradient
       xlink:href="#linearGradient703"
       id="linearGradient845"
       x1="0.03333334"
       y1="0.02343750"
       x2="0.96666664"
       y2="0.98437500" />
    <radialGradient
       xlink:href="#linearGradient703"
       id="radialGradient846" />
    <linearGradient
       xlink:href="#linearGradient584"
       id="linearGradient847"
       x1="0.00000000"
       y1="-0.00000000"
       x2="0.98540145"
       y2="0.93902439" />
    <linearGradient
       xlink:href="#linearGradient703"
       id="linearGradient848"
       x1="0.01219511"
       y1="0.01562503"
       x2="0.99999994"
       y2="1.00000012" />
    <linearGradient
       xlink:href="#linearGradient584"
       id="linearGradient849"
       x1="0.00000000"
       y1="-0.00000000"
       x2="0.98514849"
       y2="1.02343750" />
    <linearGradient
       xlink:href="#linearGradient703"
       id="linearGradient850"
       x1="-0.00000000"
       y1="0.00000000"
       x2="1.00000000"
       y2="0.95652175" />
    <linearGradient
       xlink:href="#linearGradient584"
       id="linearGradient863"
       x1="-0.00000000"
       y1="-0.00000000"
       x2="0.99635035"
       y2="0.82142860" />
  </defs>
  <sodipodi:namedview
     id="base"
     pagecolor="#ffffff"
     bordercolor="#666666"
     borderopacity="1.0"
     inkscape:pageopacity="0.0"
     inkscape:pageshadow="2"
     inkscape:zoom="3.98973596"
     inkscape:cx="23.7002996"
     inkscape:cy="24.2014061"
     inkscape:window-width="640"
     inkscape:window-height="574"
     inkscape:window-x="134"
     inkscape:window-y="52" />
  <path
     d="M 4.4389304 48.086315 C 5.2483181 50.50443 38.765774 61.377487 40.966438 59.55288 C 42.936267 57.902492 57.675565 8.7785888 56.688667 6.8303779 C 55.662821 4.6824777 21.657054 -0.6675724 20.042945 0.80153134 C 18.054709 2.621752 3.5888672 45.311841 4.4389304 48.086315 z "
     style="font-size:12;opacity:0.302675;fill-rule:evenodd;stroke-width:12.5;"
     id="path639" />
  <path
     d="M 4.5541516 46.08493 C 5.3114351 48.34726 36.66955 58.519843 38.728432 56.812781 C 40.571358 55.268717 54.36111 9.3095333 53.437795 7.4867937 C 52.478034 5.477268 20.663028 0.47192513 19.152904 1.8463842 C 17.292759 3.5493405 3.7588508 43.489198 4.5541516 46.08493 z "
     style="font-size:12;fill:url(#linearGradient586);fill-rule:evenodd;stroke:#261933;stroke-width:1.87726;"
     id="path634" />
  <path
     d="M 6.6876568 43.965773 C 6.360392 43.13667 19.363758 4.5872629 20.579427 3.7922731 C 22.09876 2.7554118 46.659814 7.3454032 46.98631 8.172561 C 47.28557 8.9306762 27.823671 5.3906629 23.493845 9.2635774 C 15.189619 16.482895 6.9861475 44.721984 6.6876568 43.965773 z "
     style="font-size:12;opacity:0.699936;fill:url(#linearGradient587);fill-rule:evenodd;stroke:none;stroke-width:0.100121pt;"
     id="path640" />
  <path
     d="M 38.017739 48.364957 C 38.729444 46.123792 42.024723 12.027943 37.933001 11.288732 C 33.356158 10.461446 15.259873 33.059252 14.008288 41.169106 C 13.383671 45.21722 30.807521 48.539137 32.304022 47.762639 C 33.384651 47.202066 19.475846 43.000958 19.743435 39.653157 C 20.142958 34.650775 31.485529 21.368444 34.305345 22.712573 C 37.576963 24.272504 37.520103 49.931824 38.017739 48.364957 z "
     style="font-size:12;opacity:0.296369;fill-rule:evenodd;stroke-width:2.00021pt;"
     id="path673" />
  <path
     d="M 36.605848 46.011807 C 37.317553 43.770641 40.612831 9.6747882 36.521115 8.9355811 C 31.944267 8.1082958 13.847982 30.706102 12.596398 38.815955 C 11.97178 42.86407 29.395629 46.185981 30.892131 45.409488 C 31.972761 44.848916 20.248301 39.8535 20.515889 36.505694 C 20.915412 31.503312 28.485023 20.802486 31.304839 22.146614 C 34.576456 23.706545 36.108212 47.57867 36.605848 46.011807 z "
     style="font-size:12;fill:url(#linearGradient845);fill-rule:evenodd;stroke:#000000;stroke-width:1.875;stroke-dasharray:none;"
     id="path649"
     sodipodi:nodetypes="ccccccc" />
  <path
     d="M 13.562204 39.259776 C 13.309359 38.838203 25.517499 15.979749 35.858855 10.307409 C 36.623087 9.8813759 37.381746 12.966054 36.524354 13.302396 C 25.494335 17.398079 13.808484 39.670202 13.562204 39.259776 z "
     style="font-size:12;opacity:0.7;fill-rule:evenodd;stroke:none;stroke-width:0.195455pt;fill:url(#linearGradient700);"
     id="path670" />
  <path
     d="M 18.883565 37.391158 C 20.201375 40.275285 26.875794 44.126742 26.88887 44.512685 C 26.900279 44.849546 21.123067 41.486237 18.957157 39.559471 C 18.454669 39.112439 18.654903 36.918677 18.883565 37.391158 z "
     style="font-size:12;opacity:0.699936;fill-rule:evenodd;stroke:none;stroke-width:0.195455pt;fill:url(#linearGradient702);"
     id="path671" />
  <path
     d="M 32.832159 21.102213 C 35.713863 25.113708 36.470584 37.556647 36.757494 37.804736 C 37.016051 38.028307 36.286248 26.880647 34.468428 22.517078 C 34.183392 21.875484 32.505279 20.626862 32.832159 21.102213 z "
     style="font-size:12;opacity:0.699936;fill-rule:evenodd;stroke:none;stroke-width:0.195455pt;fill:url(#linearGradient701);"
     id="path672" />
</svg>
