<?xml version="1.0" encoding="UTF-8" standalone="no"?>
<!-- Created with Inkscape (http://www.inkscape.org/) -->
<svg
   xmlns:dc="http://purl.org/dc/elements/1.1/"
   xmlns:cc="http://web.resource.org/cc/"
   xmlns:rdf="http://www.w3.org/1999/02/22-rdf-syntax-ns#"
   xmlns:svg="http://www.w3.org/2000/svg"
   xmlns="http://www.w3.org/2000/svg"
   xmlns:xlink="http://www.w3.org/1999/xlink"
   xmlns:sodipodi="http://inkscape.sourceforge.net/DTD/sodipodi-0.dtd"
   xmlns:inkscape="http://www.inkscape.org/namespaces/inkscape"
   id="svg1"
   sodipodi:version="0.32"
   inkscape:version="0.42"
   width="48pt"
   height="48pt"
   sodipodi:docbase="/home/jakob/dev/lila/lila-theme/trunk/lila/kde/scalable/mimetypes"
   sodipodi:docname="bittorrent.svg">
  <metadata
     id="metadata30">
    <rdf:RDF>
      <cc:Work
         rdf:about="">
        <dc:format>image/svg+xml</dc:format>
        <dc:type
           rdf:resource="http://purl.org/dc/dcmitype/StillImage" />
      </cc:Work>
    </rdf:RDF>
  </metadata>
  <defs
     id="defs3">
    <linearGradient
       id="linearGradient642">
      <stop
         style="stop-color:#d9cce6;stop-opacity:1;"
         offset="0.00000000"
         id="stop643" />
      <stop
         style="stop-color:#73667f;stop-opacity:1;"
         offset="1.00000000"
         id="stop644" />
    </linearGradient>
    <linearGradient
       id="linearGradient866">
      <stop
         style="stop-color:#ffffff;stop-opacity:1;"
         offset="0.00000000"
         id="stop867" />
      <stop
         style="stop-color:#d9cce6;stop-opacity:1;"
         offset="1.00000000"
         id="stop868" />
    </linearGradient>
    <linearGradient
       id="linearGradient584">
      <stop
         style="stop-color:#ffffff;stop-opacity:1;"
         offset="0.00000000"
         id="stop585" />
      <stop
         style="stop-color:#ffffff;stop-opacity:0;"
         offset="1.00000000"
         id="stop586" />
    </linearGradient>
    <linearGradient
       xlink:href="#linearGradient866"
       id="linearGradient586"
       x1="3.8028923"
       y1="1.4775524"
       x2="57.286605"
       y2="53.748416"
       gradientTransform="matrix(0.942169,0.000000,0.000000,1.061380,-2.968029e-3,0.000000)"
       gradientUnits="userSpaceOnUse" />
    <linearGradient
       xlink:href="#linearGradient584"
       id="linearGradient587"
       x1="6.6842281"
       y1="3.6391857"
       x2="47.008321"
       y2="43.963279"
       gradientTransform="matrix(0.999604,0.000000,0.000000,1.000396,-2.968029e-3,0.000000)"
       gradientUnits="userSpaceOnUse" />
    <linearGradient
       xlink:href="#linearGradient866"
       id="linearGradient638"
       x1="0.93859649"
       y1="0.94531250"
       x2="0.35087720"
       y2="0.28125000" />
    <radialGradient
       xlink:href="#linearGradient866"
       id="radialGradient639" />
    <linearGradient
       xlink:href="#linearGradient584"
       id="linearGradient640"
       x1="-0.00000000"
       y1="0.00000000"
       x2="0.98275864"
       y2="1.00000000" />
    <linearGradient
       xlink:href="#linearGradient642"
       id="linearGradient641"
       x1="0.01515152"
       y1="0.02343750"
       x2="0.98484850"
       y2="0.98437500" />
    <linearGradient
       xlink:href="#linearGradient642"
       id="linearGradient645"
       x1="0.01428571"
       y1="0.01562500"
       x2="1.00000000"
       y2="1.00781250" />
  </defs>
  <sodipodi:namedview
     id="base"
     pagecolor="#ffffff"
     bordercolor="#666666"
     borderopacity="1.0"
     inkscape:pageopacity="0.0"
     inkscape:pageshadow="2"
     inkscape:zoom="6.0833335"
     inkscape:cx="24.689598"
     inkscape:cy="23.999999"
     inkscape:window-width="895"
     inkscape:window-height="623"
     inkscape:window-x="92"
     inkscape:window-y="162"
     showguides="true"
     snaptoguides="true"
     showgrid="false"
     snaptogrid="false"
     inkscape:current-layer="svg1" />
  <path
     d="M 4.4359623,48.086315 C 5.2453500,50.504430 38.762806,61.377487 40.963470,59.552880 C 42.933299,57.902492 57.672597,8.7785888 56.685699,6.8303779 C 55.659853,4.6824777 21.654086,-0.66757240 20.039977,0.80153134 C 18.051741,2.6217520 3.5858991,45.311841 4.4359623,48.086315 z "
     style="font-size:12.000000px;opacity:0.30267498;fill-rule:evenodd;stroke-width:12.500000"
     id="path639" />
  <path
     d="M 4.5511835,46.084930 C 5.3084670,48.347260 36.666582,58.519843 38.725464,56.812781 C 40.568390,55.268717 54.358142,9.3095333 53.434827,7.4867937 C 52.475066,5.4772680 20.660060,0.47192513 19.149936,1.8463842 C 17.289791,3.5493405 3.7558827,43.489198 4.5511835,46.084930 z "
     style="font-size:12.000000px;fill:url(#linearGradient586);fill-rule:evenodd;stroke:#261933;stroke-width:1.8750000;stroke-dasharray:none"
     id="path634" />
  <path
     d="M 6.6846887,43.965773 C 6.3574239,43.136670 19.360790,4.5872629 20.576459,3.7922731 C 22.095792,2.7554118 46.656846,7.3454032 46.983342,8.1725610 C 47.282602,8.9306762 27.820703,5.3906629 23.490877,9.2635774 C 15.186651,16.482895 6.9831794,44.721984 6.6846887,43.965773 z "
     style="font-size:12.000000px;opacity:0.69993597;fill:url(#linearGradient587);fill-rule:evenodd;stroke:none;stroke-width:0.10012100pt"
     id="path640" />
  <text
     xml:space="preserve"
     style="font-size:11.999998px;font-style:normal;font-weight:normal;fill:#000000;fill-opacity:1.0000000;stroke:none;stroke-width:1.0000000pt;stroke-linecap:butt;stroke-linejoin:miter;stroke-opacity:1.0000000;font-family:helvetica"
     x="1.8400364"
     y="35.149174"
     id="text863"
     transform="matrix(0.962418,0.271574,-0.271574,0.962418,0.000000,0.000000)"><tspan
       id="tspan864" /></text>
  <path
     style="font-size:12.000000px;fill:#261933;fill-opacity:0.40000001;stroke-width:1.0000000pt;font-family:Radio Stars"
     d="M 33.879590,16.535577 C 33.830980,16.728521 33.732708,16.864068 33.584775,16.942217 C 33.444391,17.015857 33.289785,17.031410 33.120960,16.988876 C 32.958163,16.947861 32.829382,16.860913 32.734616,16.728030 C 32.641368,16.589118 32.619050,16.423190 32.667660,16.230246 L 33.282881,13.788298 C 33.076078,13.896502 32.885248,13.928577 32.710393,13.884524 C 32.553626,13.845029 32.436168,13.751315 32.358018,13.603381 C 32.285898,13.456967 32.270345,13.302362 32.311359,13.139565 C 32.358451,12.952651 32.472579,12.805068 32.653744,12.696818 L 33.930947,11.941343 C 34.149855,11.810541 34.349752,11.767925 34.530637,11.813496 C 34.681374,11.851473 34.786774,11.942150 34.846836,12.085525 C 34.912926,12.230420 34.918628,12.411398 34.863942,12.628461 L 33.879590,16.535577 z "
     id="path1008" />
  <path
     style="font-size:12.000000px;fill:#261933;fill-opacity:0.60000002;stroke-width:1.0000000pt;font-family:Radio Stars"
     d="M 35.731668,25.038419 C 35.608164,25.506895 35.312175,25.679381 34.843701,25.555878 L 29.263336,24.084739 C 28.801750,23.963052 28.632709,23.667972 28.756212,23.199496 L 29.933123,18.735204 C 30.056626,18.266730 30.349170,18.093336 30.810756,18.215022 L 36.391121,19.686161 C 36.859596,19.809663 37.032082,20.105652 36.908579,20.574128 L 35.731668,25.038419 z M 34.521831,23.967922 L 35.328232,20.909056 L 31.142960,19.805702 L 30.336558,22.864569 L 34.521831,23.967922 z M 27.518855,22.862243 C 27.460736,23.082701 27.346437,23.236773 27.175959,23.324456 C 27.014185,23.407067 26.836848,23.422946 26.643947,23.372091 C 26.457935,23.323053 26.311473,23.221813 26.204562,23.068370 C 26.099467,22.908037 26.075978,22.717641 26.134098,22.497181 L 26.869667,19.707000 C 26.631361,19.828379 26.412312,19.862734 26.212521,19.810063 C 26.033398,19.762841 25.899995,19.653991 25.812311,19.483513 C 25.731516,19.314849 25.715638,19.137513 25.764676,18.951500 C 25.820980,18.737931 25.953598,18.570268 26.162531,18.448513 L 27.635399,17.598954 C 27.887860,17.451834 28.117431,17.405517 28.324112,17.460004 C 28.496345,17.505409 28.615969,17.610628 28.682985,17.775657 C 28.756890,17.942503 28.761150,18.149934 28.695766,18.397952 L 27.518855,22.862243 z "
     id="path1007" />
  <path
     style="font-size:12.000000px;fill:#261933;fill-opacity:0.80000001;stroke-width:1.0000000pt;font-family:Radio Stars"
     d="M 38.964106,34.993749 C 38.817666,35.522845 38.479898,35.714174 37.950802,35.567735 L 31.648337,33.823387 C 31.127021,33.679102 30.939583,33.342410 31.086022,32.813314 L 32.481500,27.771341 C 32.627940,27.242246 32.961817,27.049841 33.483131,27.194126 L 39.785597,28.938473 C 40.314693,29.084913 40.506023,29.422680 40.359584,29.951776 L 38.964106,34.993749 z M 37.608147,33.764018 L 38.564308,30.309332 L 33.837458,29.001072 L 32.881298,32.455757 L 37.608147,33.764018 z M 29.688704,32.414010 C 29.619792,32.662997 29.488145,32.835982 29.293765,32.932966 C 29.109322,33.024323 28.908167,33.039853 28.690304,32.979555 C 28.480221,32.921409 28.315677,32.804665 28.196670,32.629322 C 28.079816,32.446195 28.055847,32.230139 28.124759,31.981153 L 28.996933,28.829919 C 28.725232,28.964143 28.476560,29.000027 28.250916,28.937576 C 28.048614,28.881585 27.898971,28.756398 27.801987,28.562020 C 27.712783,28.369793 27.697255,28.168639 27.755399,27.958556 C 27.822158,27.717350 27.974749,27.529220 28.213173,27.394165 L 29.893814,26.452007 C 30.181910,26.288815 30.442669,26.239523 30.676095,26.304128 C 30.870616,26.357966 31.004697,26.478844 31.078339,26.666764 C 31.159761,26.856837 31.161709,27.091927 31.084182,27.372037 L 29.688704,32.414010 z M 25.705584,31.324158 C 25.559145,31.853254 25.221377,32.044582 24.692281,31.898143 L 18.389816,30.153796 C 17.868499,30.009510 17.681062,29.672819 17.827500,29.143723 L 19.222978,24.101750 C 19.369419,23.572654 19.703294,23.380250 20.224609,23.524536 L 26.527076,25.268882 C 27.056172,25.415322 27.247500,25.753090 27.101062,26.282186 L 25.705584,31.324158 z M 24.349625,30.094427 L 25.305787,26.639742 L 20.578937,25.331481 L 19.622776,28.786167 L 24.349625,30.094427 z "
     id="path1006" />
  <path
     style="font-size:12.000000px;fill:#261933;fill-opacity:1.0000000;stroke-width:1.0000000pt;font-family:Radio Stars"
     d="M 38.915389,45.501212 C 38.832336,45.793654 38.676064,45.996170 38.446572,46.108762 C 38.228813,46.214809 37.991992,46.231498 37.736105,46.158827 C 37.489358,46.088751 37.296657,45.950082 37.158002,45.742815 C 37.021942,45.526409 36.995438,45.271986 37.078490,44.979544 L 38.129614,41.278333 C 37.808844,41.434134 37.515946,41.474399 37.250921,41.399135 C 37.013312,41.331655 36.838212,41.183169 36.725621,40.953676 C 36.622169,40.726779 36.605481,40.489956 36.675556,40.243209 C 36.756012,39.959906 36.937050,39.739734 37.218670,39.582691 L 39.203717,38.487290 C 39.544007,38.297529 39.851234,38.241581 40.125399,38.319442 C 40.353868,38.384327 40.510690,38.527622 40.595865,38.749327 C 40.690178,38.973629 40.690617,39.250278 40.597185,39.579275 L 38.915389,45.501212 z M 34.227186,44.169790 C 34.144136,44.462232 33.987865,44.664748 33.758372,44.777339 C 33.540613,44.883386 33.303791,44.900075 33.047904,44.827405 C 32.801157,44.757329 32.608455,44.618658 32.469802,44.411392 C 32.333742,44.194987 32.307239,43.940563 32.390290,43.648121 L 33.441413,39.946910 C 33.120642,40.102711 32.827745,40.142977 32.562720,40.067712 C 32.325111,40.000232 32.150012,39.851747 32.037421,39.622252 C 31.933969,39.395357 31.917280,39.158534 31.987355,38.911787 C 32.067811,38.628484 32.248849,38.408312 32.530470,38.251269 L 34.515516,37.155866 C 34.855806,36.966107 35.163035,36.910158 35.437198,36.988019 C 35.665668,37.052903 35.822489,37.196198 35.907665,37.417905 C 36.001978,37.642206 36.002417,37.918855 35.908985,38.247853 L 34.227186,44.169790 z M 29.548801,42.855969 C 29.372317,43.477407 28.973356,43.699883 28.351918,43.523398 L 20.949496,41.421151 C 20.337196,41.247262 20.119290,40.849598 20.295774,40.228160 L 21.977571,34.306222 C 22.154055,33.684785 22.548449,33.461010 23.160747,33.634900 L 30.563170,35.737146 C 31.184607,35.913632 31.407084,36.312593 31.230599,36.934031 L 29.548801,42.855969 z M 27.962924,41.398249 L 29.115266,37.340626 L 23.563450,35.763941 L 22.411107,39.821564 L 27.962924,41.398249 z M 18.654684,39.747287 C 18.571634,40.039728 18.415361,40.242245 18.185867,40.354835 C 17.968110,40.460883 17.731287,40.477571 17.475402,40.404901 C 17.228654,40.334826 17.035953,40.196154 16.897299,39.988889 C 16.761240,39.772482 16.734736,39.518059 16.817788,39.225618 L 17.868911,35.524407 C 17.548140,35.680206 17.255242,35.720473 16.990218,35.645208 C 16.752609,35.577728 16.577510,35.429243 16.464919,35.199750 C 16.361467,34.972853 16.344777,34.736030 16.414851,34.489283 C 16.495308,34.205981 16.676346,33.985807 16.957967,33.828766 L 18.943013,32.733363 C 19.283304,32.543604 19.590531,32.487655 19.864695,32.565516 C 20.093165,32.630399 20.249986,32.773695 20.335161,32.995401 C 20.429475,33.219703 20.429915,33.496353 20.336481,33.825349 L 18.654684,39.747287 z M 13.966484,38.415864 C 13.883432,38.708305 13.727161,38.910822 13.497668,39.023411 C 13.279910,39.129461 13.043087,39.146148 12.787201,39.073478 C 12.540453,39.003404 12.347753,38.864732 12.209098,38.657466 C 12.073039,38.441061 12.046536,38.186637 12.129587,37.894196 L 13.180710,34.192985 C 12.859939,34.348783 12.567043,34.389050 12.302018,34.313784 C 12.064408,34.246306 11.889309,34.097819 11.776719,33.868327 C 11.673266,33.641430 11.656577,33.404607 11.726651,33.157860 C 11.807109,32.874558 11.988146,32.654385 12.269766,32.497343 L 14.254812,31.401940 C 14.595103,31.212181 14.902330,31.156232 15.176493,31.234093 C 15.404964,31.298977 15.561787,31.442272 15.646961,31.663979 C 15.741274,31.888281 15.741714,32.164930 15.648281,32.493926 L 13.966484,38.415864 z "
     id="path1005" />
</svg>
