<?xml version="1.0" encoding="UTF-8" standalone="no"?>
<!DOCTYPE svg PUBLIC "-//W3C//DTD SVG 20010904//EN"
"http://www.w3.org/TR/2001/REC-SVG-20010904/DTD/svg10.dtd">
<!-- Created with Sodipodi ("http://www.sodipodi.com/") -->
<svg
   id="svg1"
   sodipodi:version="0.32"
   inkscape:version="0.37"
   width="48pt"
   height="48pt"
   sodipodi:docbase="/home/gyrojoe"
   sodipodi:docname="/home/gyrojoe/file-install.svg"
   xmlns="http://www.w3.org/2000/svg"
   xmlns:inkscape="http://www.inkscape.org/namespaces/inkscape"
   xmlns:sodipodi="http://sodipodi.sourceforge.net/DTD/sodipodi-0.dtd"
   xmlns:xlink="http://www.w3.org/1999/xlink">
  <defs
     id="defs3">
    <linearGradient
       id="linearGradient679">
      <stop
         style="stop-color:#ffffff;stop-opacity:1;"
         offset="0.000000"
         id="stop680" />
      <stop
         style="stop-color:#d9d1e1;stop-opacity:1;"
         offset="1.000000"
         id="stop681" />
    </linearGradient>
    <linearGradient
       id="linearGradient675">
      <stop
         style="stop-color:#d9cce6;stop-opacity:1;"
         offset="0.000000"
         id="stop676" />
      <stop
         style="stop-color:#73667f;stop-opacity:1;"
         offset="1.000000"
         id="stop677" />
    </linearGradient>
    <linearGradient
       id="linearGradient670">
      <stop
         style="stop-color:#cccccc;stop-opacity:1;"
         offset="0.000000"
         id="stop671" />
      <stop
         style="stop-color:#7f7f7f;stop-opacity:1;"
         offset="1.000000"
         id="stop672" />
    </linearGradient>
    <linearGradient
       id="linearGradient866">
      <stop
         style="stop-color:#faf8fd;stop-opacity:1;"
         offset="0.000000"
         id="stop867" />
      <stop
         style="stop-color:#d9cce6;stop-opacity:1;"
         offset="1.000000"
         id="stop868" />
    </linearGradient>
    <linearGradient
       id="linearGradient584">
      <stop
         style="stop-color:#ffffff;stop-opacity:1;"
         offset="0.00000000"
         id="stop585" />
      <stop
         style="stop-color:#ffffff;stop-opacity:0;"
         offset="1.00000000"
         id="stop586" />
    </linearGradient>
    <linearGradient
       xlink:href="#linearGradient866"
       id="linearGradient586"
       x1="-0.00000000"
       y1="0.01562500"
       x2="0.99122804"
       y2="0.98437500" />
    <linearGradient
       xlink:href="#linearGradient584"
       id="linearGradient587"
       x1="0.00000000"
       y1="-0.00000000"
       x2="1.00000000"
       y2="1.00000000" />
    <linearGradient
       xlink:href="#linearGradient866"
       id="linearGradient607"
       x1="0.01538462"
       y1="0.02343754"
       x2="0.96923077"
       y2="0.98437500"
       gradientUnits="objectBoundingBox"
       spreadMethod="pad" />
    <linearGradient
       xlink:href="#linearGradient584"
       id="linearGradient609"
       x1="-0.01351354"
       y1="0.02343817"
       x2="1.00000000"
       y2="0.99218750"
       gradientUnits="objectBoundingBox"
       spreadMethod="pad" />
    <linearGradient
       xlink:href="#linearGradient584"
       id="linearGradient610"
       x1="0.00999962"
       y1="0.53906250"
       x2="0.97999990"
       y2="0.53906250"
       gradientUnits="objectBoundingBox"
       spreadMethod="pad" />
    <linearGradient
       xlink:href="#linearGradient584"
       id="linearGradient611"
       x1="0.02083209"
       y1="0.53125000"
       x2="0.98958343"
       y2="0.55468750"
       gradientUnits="objectBoundingBox"
       spreadMethod="pad" />
    <linearGradient
       xlink:href="#linearGradient584"
       id="linearGradient667"
       x1="0.03246713"
       y1="0.03125072"
       x2="0.96753246"
       y2="0.97656250"
       gradientUnits="objectBoundingBox"
       spreadMethod="pad" />
    <linearGradient
       xlink:href="#linearGradient584"
       id="linearGradient668"
       x1="0.01223368"
       y1="0.01568890"
       x2="1.00000012"
       y2="1.00000095"
       gradientUnits="objectBoundingBox"
       spreadMethod="pad" />
    <linearGradient
       xlink:href="#linearGradient670"
       id="linearGradient669"
       x1="0.01898498"
       y1="0.01562944"
       x2="0.98734170"
       y2="0.98437512"
       gradientUnits="objectBoundingBox"
       spreadMethod="pad" />
    <linearGradient
       xlink:href="#linearGradient584"
       id="linearGradient673"
       x1="0.00780695"
       y1="0.02344192"
       x2="0.97656244"
       y2="0.98437577"
       gradientUnits="objectBoundingBox"
       spreadMethod="pad" />
    <linearGradient
       xlink:href="#linearGradient675"
       id="linearGradient674"
       x1="0.00793687"
       y1="0.00000039"
       x2="0.98412704"
       y2="0.97656238"
       gradientUnits="objectBoundingBox"
       spreadMethod="pad" />
    <linearGradient
       xlink:href="#linearGradient679"
       id="linearGradient678"
       x1="0.01875959"
       y1="0.01564753"
       x2="0.98750019"
       y2="0.99218827"
       gradientUnits="objectBoundingBox"
       spreadMethod="pad" />
    <linearGradient
       xlink:href="#linearGradient679"
       id="linearGradient682" />
  </defs>
  <sodipodi:namedview
     id="base"
     pagecolor="#ffffff"
     bordercolor="#666666"
     borderopacity="1.0"
     inkscape:pageopacity="0.0"
     inkscape:pageshadow="2"
     inkscape:zoom="0.99743399"
     inkscape:cx="29.9169007"
     inkscape:cy="24.2062938"
     inkscape:window-width="640"
     inkscape:window-height="516"
     inkscape:window-x="108"
     inkscape:window-y="345" />
  <path
     d="M 4.4389304 48.086315 C 5.2483181 50.50443 38.765774 61.377487 40.966438 59.55288 C 42.936267 57.902492 57.675565 8.7785888 56.688667 6.8303779 C 55.662821 4.6824777 21.657054 -0.6675724 20.042945 0.80153134 C 18.054709 2.621752 3.5888672 45.311841 4.4389304 48.086315 z "
     style="font-size:12;opacity:0.302675;fill-rule:evenodd;stroke-width:12.5;"
     id="path639" />
  <path
     d="M 4.5541516 46.08493 C 5.3114351 48.34726 36.66955 58.519843 38.728432 56.812781 C 40.571358 55.268717 54.36111 9.3095333 53.437795 7.4867937 C 52.478034 5.477268 20.663028 0.47192513 19.152904 1.8463842 C 17.292759 3.5493405 3.7588508 43.489198 4.5541516 46.08493 z "
     style="font-size:12;fill:url(#linearGradient586);fill-rule:evenodd;stroke:#261933;stroke-width:1.87726;"
     id="path634" />
  <path
     d="M 6.6876568 43.965773 C 6.360392 43.13667 19.363758 4.5872629 20.579427 3.7922731 C 22.09876 2.7554118 46.659814 7.3454032 46.98631 8.172561 C 47.28557 8.9306762 27.823671 5.3906629 23.493845 9.2635774 C 15.189619 16.482895 6.9861475 44.721984 6.6876568 43.965773 z "
     style="font-size:12;opacity:0.699936;fill:url(#linearGradient587);fill-rule:evenodd;stroke:none;stroke-width:0.100121pt;"
     id="path640" />
  <g
     id="g626"
     style="fill:#261933;fill-opacity:1;"
     transform="matrix(1.005217,-4.210047e-2,-3.563547e-3,1.096472,-0.353062,-0.388612)">
    <path
       d="M 17.007036 17.956608 C 26.200556 19.828531 36.291137 22.262589 45.172716 24.8357 C 45.549883 24.944998 45.17088 26.082883 44.783369 26.003928 C 35.60928 24.135963 25.3921 21.574639 16.487909 18.994955 C 16.133354 18.89223 16.63895 17.881616 17.007036 17.956608 z "
       style="font-size:12;fill:#261933;fill-rule:evenodd;stroke-width:1pt;fill-opacity:1;"
       id="path643" />
    <path
       d="M 21.679653 15.230906 C 30.873173 17.10283 37.459271 18.498539 46.340844 21.071651 C 46.718016 21.180948 46.339008 22.318828 45.951503 22.239878 C 36.777408 20.371913 30.064717 18.848937 21.160526 16.269253 C 20.805971 16.166529 21.311573 15.155914 21.679653 15.230906 z "
       style="font-size:12;fill:#261933;fill-rule:evenodd;stroke-width:1pt;fill-opacity:1;"
       id="path644" />
    <path
       d="M 15.579248 21.720657 C 24.772763 23.592581 34.863349 26.026638 43.744928 28.599756 C 44.122095 28.709047 43.743092 29.846933 43.355581 29.767977 C 34.181486 27.900018 23.964312 25.338689 15.060121 22.759005 C 14.705566 22.65628 15.211162 21.645666 15.579248 21.720657 z "
       style="font-size:12;fill:#261933;fill-rule:evenodd;stroke-width:1pt;fill-opacity:1;"
       id="path645" />
    <path
       d="M 12.645102 29.625444 C 21.795715 31.697116 17.373479 30.530047 26.196884 33.295949 C 26.571636 33.413456 26.167893 34.542839 25.782219 34.455382 C 16.650937 32.388153 20.949381 33.42515 12.103463 30.652196 C 11.751224 30.541835 12.278759 29.54243 12.645102 29.625444 z "
       style="font-size:12;fill:#261933;fill-rule:evenodd;stroke-width:1pt;fill-opacity:1;"
       id="path646" />
    <path
       d="M 20.137738 8.3243638 C 23.31927 8.783286 23.882942 8.7358283 26.791289 9.5225477 C 27.17145 9.6210194 26.856902 10.771562 26.466303 10.710199 C 23.434169 10.254272 23.179245 10.123234 19.676014 9.3894807 C 19.195444 9.2664634 19.765594 8.2727897 20.137738 8.3243638 z "
       style="font-size:12;fill:#261933;fill-rule:evenodd;stroke-width:1pt;fill-opacity:1;"
       id="path647" />
    <path
       d="M 14.055594 25.629661 C 23.233169 27.577833 33.303266 30.095477 42.163193 32.742229 C 42.5394 32.854713 42.151019 33.989407 41.764093 33.907264 C 32.605844 31.96315 22.410317 29.317176 13.527866 26.663658 C 13.174182 26.55794 13.688093 25.551577 14.055594 25.629661 z "
       style="font-size:12;fill:#261933;fill-rule:evenodd;stroke-width:1pt;fill-opacity:1;"
       id="path648" />
  </g>
  <g
     id="g696"
     transform="matrix(1.097816,0.000000,0.000000,1.097816,-4.013768,2.182703)">
    <path
       d="M 36.118897 32.546487 C 36.118897 34.871102 34.232321 36.757678 31.907706 36.757678 C 29.583089 36.757678 27.696413 34.871102 27.696413 32.546487 C 27.696413 30.22187 29.583089 28.335194 31.907706 28.335194 C 34.232321 28.335194 36.118897 30.22187 36.118897 32.546487 z M 58.669514 32.138888 C 58.669514 47.061377 46.55843 59.172358 31.635941 59.172358 C 16.713451 59.172358 4.6024598 47.061377 4.6024598 32.138888 C 4.6024598 17.2164 16.713451 5.1053163 31.635941 5.1053163 C 46.55843 5.1053163 58.669514 17.2164 58.669514 32.138888 z "
       style="font-size:12;opacity:0.302675;fill-rule:evenodd;stroke-width:12.5;"
       id="path782"
       transform="matrix(0.382828,0.000000,-3.404227e-2,0.382828,17.46162,5.662355)" />
    <path
       d="M 34.142707 30.090541 C 34.142707 32.366857 32.295328 34.214238 30.019011 34.214238 C 27.742693 34.214238 25.895215 32.366857 25.895215 30.090541 C 25.895215 27.814224 27.742693 25.966746 30.019011 25.966746 C 32.295328 25.966746 34.142707 27.814224 34.142707 30.090541 z M 56.224788 29.691414 C 56.224788 44.303857 44.365336 56.163209 29.752893 56.163209 C 15.140448 56.163209 3.2810857 44.303857 3.2810857 29.691414 C 3.2810857 15.078969 15.140448 3.2195676 29.752893 3.2195676 C 44.365336 3.2195676 56.224788 15.078969 56.224788 29.691414 z "
       style="font-size:12;fill:url(#linearGradient607);fill-rule:evenodd;stroke:#261933;stroke-width:1.875;stroke-dasharray:none;"
       id="path773"
       transform="matrix(0.382828,0.000000,-3.404227e-2,0.382828,17.46162,5.662355)" />
    <path
       d="M 9.0011055 43.392896 C 4.1204139 37.981788 1.0217144 15.522169 19.11093 7.210253 C 33.787948 0.52499748 48.148535 11.238426 49.174482 14.260508 C 49.477048 15.112445 36.930363 4.5046413 21.90453 12.265166 C -0.14499078 23.553358 9.6014807 44.077157 9.0011055 43.392896 z "
       style="font-size:12;opacity:0.7;fill-rule:evenodd;stroke:none;stroke-width:0.0778586pt;fill:url(#linearGradient609);"
       id="path774"
       transform="matrix(0.382828,0.000000,-3.404227e-2,0.382828,17.46162,5.662355)" />
    <path
       d="M 39.82112 30.278517 C 39.82112 35.464806 34.97533 39.8566 29.980089 40.025561 C 24.417649 40.025561 19.766075 35.370817 19.950882 30.184529 C 20.142324 24.810364 24.417649 20.061235 29.980089 20.061235 C 35.166277 20.061235 40.01593 24.90772 39.82112 30.278517 z M 37.202325 30.223452 C 37.202325 34.262073 33.924622 37.539775 29.886001 37.539775 C 25.847379 37.539775 22.569677 34.262073 22.569677 30.223452 C 22.569677 26.184831 25.847379 22.907127 29.886001 22.907127 C 33.924622 22.907127 37.202325 26.184831 37.202325 30.223452 z "
       style="font-size:12;opacity:0.100892;fill:#3f003f;fill-rule:evenodd;stroke-width:1pt;"
       id="path779"
       transform="matrix(0.382828,0.000000,-3.404227e-2,0.382828,17.46162,5.662355)" />
    <path
       d="M 31.216196 25.235045 C 31.210947 25.612088 33.486473 27.095298 33.810233 26.897813 C 38.868164 22.772731 48.783377 16.593181 48.908464 12.398175 C 48.994925 9.4338322 34.085957 3.3896875 33.610668 4.1506354 C 31.562637 7.7161848 31.329796 18.518304 31.216196 25.235045 z "
       style="font-size:12;fill:url(#linearGradient610);fill-rule:evenodd;stroke-width:1pt;"
       id="path780"
       transform="matrix(0.382828,0.000000,-3.404227e-2,0.382828,17.46162,5.662355)" />
    <path
       d="M 29.473007 34.718049 C 29.439136 34.342493 27.022281 33.103018 26.720708 33.332986 C 22.117364 37.959801 12.895625 45.133311 13.205717 49.318609 C 13.426772 52.276018 28.881644 56.743083 29.275523 55.937104 C 30.943145 52.178566 30.055853 41.410426 29.473007 34.718049 z "
       style="font-size:12;fill:url(#linearGradient611);fill-rule:evenodd;stroke-width:1pt;"
       id="path781"
       transform="matrix(0.382828,0.000000,-3.404227e-2,0.382828,17.46162,5.662355)" />
  </g>
  <g
     id="g683"
     transform="matrix(0.996682,8.139205e-2,-8.139205e-2,0.996682,4.096746,-0.820475)">
    <path
       d="M 6.5957754 48.029272 C 7.897839 49.834454 46.730744 59.997026 48.448343 59.06577 C 50.085315 58.04166 60.198879 12.904766 59.054834 11.19328 C 58.162465 9.7950239 16.750181 4.428659 15.482296 5.6034291 C 14.161082 6.9769061 5.5131417 46.329592 6.5957754 48.029272 z "
       style="font-size:12;opacity:0.302675;fill-rule:evenodd;stroke-width:12.5;"
       id="path1382"
       transform="matrix(0.375835,0.000000,0.000000,0.375835,18.43995,23.57099)" />
    <path
       d="M 3.6974536 44.603983 C 4.9995159 46.409163 43.832423 56.571737 45.550021 55.640479 C 47.186992 54.61637 57.300557 9.4794762 56.15651 7.7679903 C 55.264143 6.3697341 13.851859 1.0033693 12.583974 2.178138 C 11.26276 3.5516377 2.6148185 42.904301 3.6974536 44.603983 z "
       style="font-size:12;fill:url(#linearGradient674);fill-rule:evenodd;stroke:#261933;stroke-width:1.875;stroke-dasharray:none;"
       id="path1289"
       transform="matrix(0.375835,0.000000,0.000000,0.375835,18.43995,23.57099)" />
    <path
       d="M 11.007285 46.610677 C 11.676113 41.1163 12.918387 36.195265 14.303891 31.274229 C 23.477029 33.13748 32.363602 35.28751 41.393404 37.724103 C 40.342315 43.122888 39.147889 48.665113 37.666794 53.777226 C 28.302578 52.152796 19.941602 49.525019 11.007285 46.610677 z "
       style="font-size:12;fill:#595161;fill-rule:evenodd;stroke:#261933;stroke-width:1.25;stroke-dasharray:none;"
       id="path1294"
       transform="matrix(0.375835,0.000000,0.000000,0.375835,18.43995,23.57099)" />
    <path
       d="M 19.463853 2.8947939 C 17.648344 9.2969353 15.832835 16.558972 15.020567 23.391108 C 24.050369 25.923293 34.513525 28.168808 43.686768 29.840982 C 45.693356 22.340018 47.413273 14.409048 48.703289 6.7647488 C 39.625638 5.1880827 28.541399 3.3247883 19.463853 2.8947939 z "
       style="font-size:12;fill:url(#linearGradient678);fill-rule:evenodd;stroke:#261933;stroke-width:1.25;stroke-dasharray:none;"
       id="path1295"
       transform="matrix(0.375835,0.000000,0.000000,0.375835,18.43995,23.57099)" />
    <path
       d="M 16.721197 35.501881 C 16.04552 38.13693 15.369841 40.772084 14.694162 43.407133 C 15.707628 43.677363 16.506195 43.947698 17.519658 44.217927 C 18.060222 41.650435 18.959124 38.796166 19.571355 36.228673 C 18.693005 35.890887 17.742882 35.696331 16.721197 35.501881 z M 11.684969 46.259794 C 12.335986 41.171814 13.660252 36.749764 14.741273 32.020123 C 21.633062 33.350927 29.384864 35.122991 36.204985 37.098804 C 35.195631 41.959552 33.690126 47.074591 32.394101 52.078676 C 25.430644 50.616869 18.57676 48.796616 11.684969 46.259794 z "
       style="font-size:12;fill:url(#linearGradient669);fill-rule:evenodd;stroke:none;stroke-width:6.25;stroke-dasharray:none;stroke-opacity:1;"
       id="path1306"
       sodipodi:nodetypes="cccccccccc"
       transform="matrix(0.375835,0.000000,0.000000,0.375835,18.43995,23.57099)" />
    <path
       d="M 5.9907637 43.313966 C 5.582575 42.267936 12.259889 6.4493066 14.590666 4.4712705 C 16.914804 2.4771924 52.320924 8.6171469 52.716676 9.6312432 C 53.085342 10.575992 25.225297 4.0715333 17.31393 9.7744719 C 9.6499217 15.299096 6.3469935 44.22678 5.9907637 43.313966 z "
       style="font-size:12;opacity:0.7;fill:url(#linearGradient667);fill-rule:evenodd;stroke:none;stroke-width:1pt;"
       id="path1310"
       transform="matrix(0.375835,0.000000,0.000000,0.375835,18.43995,23.57099)" />
    <path
       d="M 12.489796 45.022735 C 12.402743 44.823752 14.595032 33.369371 15.356501 32.982892 C 16.49317 32.357804 24.514779 34.505091 24.601306 34.702915 C 24.681933 34.887249 18.231111 33.404677 16.468298 34.72821 C 14.678821 36.089156 12.570001 45.206014 12.489796 45.022735 z "
       style="font-size:12;opacity:0.7;fill:url(#linearGradient673);fill-rule:evenodd;stroke:none;stroke-width:1pt;"
       id="path1315"
       sodipodi:nodetypes="ccccc"
       transform="matrix(0.375835,0.000000,0.000000,0.375835,18.43995,23.57099)" />
    <path
       d="M 15.522239 44.173978 C 15.479661 44.06753 17.299175 45.244249 17.672269 44.818985 C 18.493601 43.88267 19.060617 39.976679 19.105515 40.089028 C 19.156104 40.215607 18.952062 44.826363 18.156552 45.733275 C 17.757639 46.188048 15.575253 44.306351 15.522239 44.173978 z "
       style="font-size:12;opacity:0.990000;fill:url(#linearGradient668);fill-rule:evenodd;stroke:none;stroke-width:1pt;"
       id="path1316"
       transform="matrix(0.375835,0.000000,0.000000,0.375835,18.43995,23.57099)" />
    <path
       d="M 21.328475 9.5736994 C 28.526013 10.698881 36.827861 12.408153 43.688139 14.340753 C 44.131002 14.46554 43.698046 15.817951 43.23779 15.746071 C 36.096745 14.629953 27.800482 12.724859 20.884559 10.776555 C 20.497448 10.667474 20.924819 9.5106721 21.328475 9.5736994 z "
       style="font-size:12;opacity:0.25;fill-rule:evenodd;stroke-width:1pt;fill:#000000;fill-opacity:1;"
       id="path1379"
       transform="matrix(0.375835,0.000000,0.000000,0.375835,18.43995,23.57099)" />
    <path
       d="M 20.517473 13.582025 C 27.71501 14.707101 36.016752 16.416373 42.877134 18.349081 C 43.319893 18.473867 42.887041 19.826277 42.426788 19.754399 C 35.285743 18.638175 26.989373 16.733187 20.073556 14.784882 C 19.686339 14.6758 20.113814 13.518895 20.517473 13.582025 z "
       style="font-size:12;opacity:0.25;fill-rule:evenodd;stroke-width:1pt;"
       id="path1380"
       transform="matrix(0.375835,0.000000,0.000000,0.375835,18.43995,23.57099)" />
    <path
       d="M 19.632694 17.804513 C 26.83023 18.929483 35.13208 20.638756 41.992356 22.571463 C 42.43522 22.696248 42.002157 24.048658 41.542114 23.976781 C 34.401069 22.860556 26.104702 20.955569 19.188777 19.007263 C 18.801665 18.898181 19.229141 17.741276 19.632694 17.804513 z "
       style="font-size:12;opacity:0.25;fill-rule:evenodd;stroke-width:1pt;"
       id="path1381"
       transform="matrix(0.375835,0.000000,0.000000,0.375835,18.43995,23.57099)" />
  </g>
</svg>
