<?xml version="1.0" encoding="UTF-8" standalone="no"?>
<!DOCTYPE svg PUBLIC "-//W3C//DTD SVG 20010904//EN"
"http://www.w3.org/TR/2001/REC-SVG-20010904/DTD/svg10.dtd">
<!-- Created with Inkscape (http://www.inkscape.org/) -->
<svg
   id="svg1"
   sodipodi:version="0.32"
   inkscape:version="0.37"
   width="48pt"
   height="48pt"
   sodipodi:docbase="/home/tom"
   sodipodi:docname="colorscm.svg"
   xmlns="http://www.w3.org/2000/svg"
   xmlns:inkscape="http://www.inkscape.org/namespaces/inkscape"
   xmlns:sodipodi="http://sodipodi.sourceforge.net/DTD/sodipodi-0.dtd"
   xmlns:xlink="http://www.w3.org/1999/xlink">
  <defs
     id="defs3">
    <linearGradient
       id="linearGradient972">
      <stop
         style="stop-color:#ff0000;stop-opacity:1;"
         offset="0.00000000"
         id="stop973" />
      <stop
         style="stop-color:#7f0000;stop-opacity:1;"
         offset="1.00000000"
         id="stop974" />
    </linearGradient>
    <linearGradient
       id="linearGradient968">
      <stop
         style="stop-color:#0000ff;stop-opacity:1;"
         offset="0.00000000"
         id="stop969" />
      <stop
         style="stop-color:#00007f;stop-opacity:1;"
         offset="1.00000000"
         id="stop970" />
    </linearGradient>
    <linearGradient
       id="linearGradient965">
      <stop
         style="stop-color:#00ff00;stop-opacity:1;"
         offset="0.00000000"
         id="stop966" />
      <stop
         style="stop-color:#007f00;stop-opacity:1;"
         offset="1.00000000"
         id="stop967" />
    </linearGradient>
    <linearGradient
       id="linearGradient584">
      <stop
         style="stop-color:#ffffff;stop-opacity:1;"
         offset="0.00000000"
         id="stop585" />
      <stop
         style="stop-color:#ffffff;stop-opacity:0;"
         offset="1.00000000"
         id="stop586" />
    </linearGradient>
    <linearGradient
       id="linearGradient578">
      <stop
         style="stop-color:#faf8fd;stop-opacity:1;"
         offset="0.00000000"
         id="stop579" />
      <stop
         style="stop-color:#d9cce6;stop-opacity:1;"
         offset="1.00000000"
         id="stop580" />
    </linearGradient>
    <linearGradient
       xlink:href="#linearGradient584"
       id="linearGradient581"
       x1="-0.00000000"
       y1="0.00000000"
       x2="0.65384614"
       y2="0.65625000" />
    <linearGradient
       xlink:href="#linearGradient584"
       id="linearGradient583"
       x1="0.00000000"
       y1="0.00000000"
       x2="0.96774191"
       y2="0.99218750" />
    <linearGradient
       xlink:href="#linearGradient584"
       id="linearGradient654"
       x1="-0.05474453"
       y1="-0.26666668"
       x2="0.78467155"
       y2="0.78333336" />
    <linearGradient
       xlink:href="#linearGradient965"
       id="linearGradient655"
       x1="0.00000000"
       y1="-0.00000000"
       x2="1.01315796"
       y2="0.99218756" />
    <linearGradient
       xlink:href="#linearGradient968"
       id="linearGradient713"
       x1="-0.00000000"
       y1="-0.00000000"
       x2="0.97692305"
       y2="0.99218744" />
    <linearGradient
       xlink:href="#linearGradient972"
       id="linearGradient971"
       x1="0.00000000"
       y1="-0.00000000"
       x2="0.97938144"
       y2="0.97656238" />
    <linearGradient
       xlink:href="#linearGradient584"
       id="linearGradient1000"
       x1="0.00000000"
       y1="0.00000000"
       x2="1.00000000"
       y2="0.00000000" />
    <linearGradient
       xlink:href="#linearGradient584"
       id="linearGradient620"
       x1="0.04151364"
       y1="0.03895854"
       x2="0.81580698"
       y2="0.03895854"
       gradientTransform="scale(1.063240,0.940522)" />
    <linearGradient
       xlink:href="#linearGradient584"
       id="linearGradient621"
       x1="0.04095161"
       y1="0.05550290"
       x2="0.76536250"
       y2="0.05550290"
       gradientTransform="scale(1.063240,0.940522)" />
  </defs>
  <sodipodi:namedview
     id="base"
     pagecolor="#ffffff"
     bordercolor="#666666"
     borderopacity="1.0"
     inkscape:pageopacity="0.0"
     inkscape:pageshadow="2"
     inkscape:zoom="5.64233870"
     inkscape:cx="26.8166098"
     inkscape:cy="23.8130291"
     inkscape:window-width="640"
     inkscape:window-height="516"
     inkscape:window-x="63"
     inkscape:window-y="55" />
  <path
     d="M 7.2126241 47.635705 C 7.9699071 49.898035 39.328022 60.070618 41.386904 58.363556 C 43.22983 56.819492 57.019582 10.860309 56.096267 9.03757 C 55.136506 7.028043 23.3215 2.022701 21.811376 3.39716 C 19.951231 5.100116 6.4173231 45.039973 7.2126241 47.635705 z "
     style="font-size:12;fill:url(#linearGradient620);fill-rule:evenodd;stroke:#261933;stroke-width:1.87726;"
     id="path634" />
  <path
     style="font-size:12;fill:#000000;fill-rule:evenodd;stroke-width:1.875;stroke:none;stroke-opacity:1;stroke-dasharray:none;fill-opacity:1;opacity:0.302675;"
     d="M 47.187878 32.861432 C 47.187878 41.605147 40.09153 48.701494 31.347816 48.701494 C 22.604102 48.701494 15.507755 41.605147 15.507755 32.861432 C 15.507755 24.117718 22.604102 17.021369 31.347816 17.021369 C 40.09153 17.021369 47.187878 24.117718 47.187878 32.861432 z "
     id="path999" />
  <path
     style="font-size:12;fill:url(#linearGradient713);fill-rule:evenodd;stroke:#261933;stroke-width:1.09439;"
     d="M 45.377586 32.150245 C 45.377586 40.215875 38.831566 46.761894 30.765937 46.761894 C 22.700307 46.761894 16.154289 40.215875 16.154289 32.150245 C 16.154289 24.084615 22.700307 17.538596 30.765937 17.538596 C 38.831566 17.538596 45.377586 24.084615 45.377586 32.150245 z "
     id="path959" />
  <path
     style="font-size:12;fill:url(#linearGradient971);fill-rule:evenodd;stroke:#261933;stroke-width:1.09439;"
     d="M 45.377586 32.150245 C 45.377586 40.215875 38.831566 46.761894 30.765937 46.761894 C 28.00745 46.761894 25.658337 46.115271 23.288426 44.703615 L 30.765937 32.150245 L 45.377586 32.150245 z "
     id="path960" />
  <path
     style="font-size:12;fill:url(#linearGradient655);fill-rule:evenodd;stroke:#261933;stroke-width:1.09439;"
     d="M 23.273943 44.694978 C 16.349251 40.559398 14.085624 31.582945 18.221204 24.658251 C 19.470558 22.566311 20.963448 21.044005 23.030615 19.754073 L 30.765937 32.150245 L 23.273943 44.694978 z "
     id="path961" />
  <path
     style="fill:url(#linearGradient581);fill-rule:evenodd;stroke:none;stroke-opacity:1;stroke-width:1pt;stroke-linejoin:miter;stroke-linecap:butt;fill-opacity:1;"
     d="M 25.463712 43.824138 C 25.353097 43.571302 30.635089 34.207453 31.589763 33.492142 C 32.583926 32.81575 42.7268 33.242324 42.836095 33.492142 C 42.940145 33.72997 34.490177 33.406671 32.229798 34.955079 C 29.973958 36.440301 25.566441 44.058948 25.463712 43.824138 z "
     id="path962"
     sodipodi:nodetypes="cssss" />
  <path
     style="fill:url(#linearGradient583);fill-rule:evenodd;stroke:none;stroke-opacity:1;stroke-width:1pt;stroke-linejoin:miter;stroke-linecap:butt;fill-opacity:1;"
     d="M 17.417556 34.955079 C 17.24196 34.619851 16.410411 25.797023 22.354969 21.971508 C 22.833518 21.658737 23.666615 23.440422 23.086438 23.800179 C 18.367633 26.669534 17.577216 35.259886 17.417556 34.955079 z "
     id="path963"
     sodipodi:nodetypes="csss" />
  <path
     style="fill:url(#linearGradient654);fill-rule:evenodd;stroke:none;stroke-opacity:1;stroke-width:1pt;stroke-linejoin:miter;stroke-linecap:butt;fill-opacity:1;"
     d="M 25.555145 20.051403 C 30.995417 17.605557 37.450289 20.390733 37.62438 20.691438 C 37.785545 20.969813 32.251583 19.293626 26.743782 21.697207 C 26.174659 21.940156 25.067905 20.27489 25.555145 20.051403 z "
     id="path964"
     sodipodi:nodetypes="csss" />
  <path
     d="M 48.525259 60.049439 C 49.334647 62.467554 82.852103 73.340611 85.052767 71.516004 C 87.022596 69.865616 101.76189 20.741714 100.775 18.793503 C 99.74915 16.645602 65.743383 11.295552 64.129274 12.764656 C 62.141038 14.584876 47.675196 57.274965 48.525259 60.049439 z "
     style="font-size:12;opacity:0.302675;fill-rule:evenodd;stroke-width:12.5;fill:url(#linearGradient621);"
     id="path639" />
  <path
     d="M 8.6815111 45.959627 C 8.3542461 45.130524 21.357612 6.5811166 22.573281 5.7861266 C 24.092614 4.7492656 48.653668 9.3392576 48.980164 10.166416 C 49.279424 10.924531 29.817525 7.3845166 25.487699 11.257432 C 17.183473 18.476749 8.9800011 46.715838 8.6815111 45.959627 z "
     style="font-size:12;opacity:0.699936;fill:url(#linearGradient1000);fill-rule:evenodd;stroke:none;stroke-width:0.100121pt;"
     id="path640" />
</svg>
