<?xml version="1.0" encoding="UTF-8" standalone="no"?>
<!DOCTYPE svg PUBLIC "-//W3C//DTD SVG 20010904//EN"
"http://www.w3.org/TR/2001/REC-SVG-20010904/DTD/svg10.dtd">
<!-- Created with Inkscape (http://www.inkscape.org/) -->
<svg
   version="1.0"
   x="0"
   y="0"
   width="48pt"
   height="48pt"
   id="svg611"
   sodipodi:version="0.32"
   inkscape:version="0.37"
   sodipodi:docname="wordprocessing.svg"
   sodipodi:docbase="/home/tom/Pics/lilasvg/scalable/mimetypes"
   xmlns="http://www.w3.org/2000/svg"
   xmlns:inkscape="http://www.inkscape.org/namespaces/inkscape"
   xmlns:sodipodi="http://sodipodi.sourceforge.net/DTD/sodipodi-0.dtd"
   xmlns:xlink="http://www.w3.org/1999/xlink">
  <sodipodi:namedview
     id="base"
     pagecolor="#ffffff"
     bordercolor="#666666"
     borderopacity="1.0"
     inkscape:pageopacity="0.0"
     inkscape:pageshadow="2"
     inkscape:zoom="2"
     inkscape:cx="19"
     inkscape:cy="18.1994934"
     inkscape:window-width="640"
     inkscape:window-height="501"
     inkscape:window-x="57"
     inkscape:window-y="181" />
  <defs
     id="defs613">
    <linearGradient
       id="linearGradient685">
      <stop
         offset="0.00000000"
         style="stop-color:#ffffff;stop-opacity:1;"
         id="stop687" />
      <stop
         offset="1.00000000"
         style="stop-color:#ffffff;stop-opacity:0;"
         id="stop686" />
    </linearGradient>
    <linearGradient
       id="linearGradient664">
      <stop
         style="stop-color:#ffffff;stop-opacity:1;"
         offset="0.00000000"
         id="stop665" />
      <stop
         style="stop-color:#ffffff;stop-opacity:0.443548;"
         offset="1.00000000"
         id="stop666" />
    </linearGradient>
    <linearGradient
       id="linearGradient1272">
      <stop
         style="stop-color:#0000ff;stop-opacity:1;"
         offset="0"
         id="stop1273" />
      <stop
         style="stop-color:#00008d;stop-opacity:1;"
         offset="1"
         id="stop1274" />
    </linearGradient>
    <linearGradient
       id="linearGradient1269">
      <stop
         style="stop-color:#00ff00;stop-opacity:1;"
         offset="0"
         id="stop1270" />
      <stop
         style="stop-color:#008700;stop-opacity:1;"
         offset="1"
         id="stop1271" />
    </linearGradient>
    <linearGradient
       id="linearGradient1256">
      <stop
         style="stop-color:#ffffff;stop-opacity:1;"
         offset="0"
         id="stop1258" />
      <stop
         style="stop-color:#ffffff;stop-opacity:0;"
         offset="1"
         id="stop1257" />
    </linearGradient>
    <linearGradient
       id="linearGradient1253">
      <stop
         style="stop-color:#c7b397;stop-opacity:1;"
         offset="0.00000000"
         id="stop1255" />
      <stop
         style="stop-color:#faebdc;stop-opacity:1;"
         offset="1.00000000"
         id="stop1254" />
    </linearGradient>
    <linearGradient
       id="linearGradient1048">
      <stop
         style="stop-color:#ffffff;stop-opacity:1;"
         offset="0"
         id="stop1049" />
      <stop
         style="stop-color:#7f7f7f;stop-opacity:1;"
         offset="1"
         id="stop1050" />
    </linearGradient>
    <linearGradient
       id="linearGradient1535">
      <stop
         style="stop-color:#ffffff;stop-opacity:1;"
         offset="0"
         id="stop1537" />
      <stop
         style="stop-color:#ffffff;stop-opacity:0;"
         offset="1"
         id="stop1536" />
    </linearGradient>
    <linearGradient
       id="linearGradient1528">
      <stop
         style="stop-color:#d9cce6;stop-opacity:1;"
         offset="0.00000000"
         id="stop1530" />
      <stop
         style="stop-color:#73667f;stop-opacity:1;"
         offset="1.00000000"
         id="stop1529" />
    </linearGradient>
    <linearGradient
       id="linearGradient642">
      <stop
         style="stop-color:#ffffff;stop-opacity:1;"
         offset="0"
         id="stop643" />
      <stop
         style="stop-color:#ffffff;stop-opacity:0;"
         offset="1"
         id="stop644" />
    </linearGradient>
    <linearGradient
       id="linearGradient635">
      <stop
         style="stop-color:#ff0000;stop-opacity:1;"
         offset="0"
         id="stop636" />
      <stop
         style="stop-color:#870000;stop-opacity:1;"
         offset="1"
         id="stop637" />
    </linearGradient>
    <linearGradient
       x1="0.30701753"
       y1="0.32031250"
       x2="0.56140351"
       y2="0.56250000"
       id="linearGradient638"
       xlink:href="#linearGradient1528" />
    <linearGradient
       x1="0.00793651"
       y1="0.01562500"
       x2="0.98412699"
       y2="0.98437500"
       id="linearGradient641"
       xlink:href="#linearGradient1048" />
    <linearGradient
       x1="-0.016529"
       y1="0.007812"
       x2="1.008265"
       y2="1.000000"
       id="linearGradient1522"
       xlink:href="#linearGradient642" />
    <linearGradient
       id="linearGradient1527"
       xlink:href="#linearGradient664" />
    <linearGradient
       id="linearGradient1532"
       xlink:href="#linearGradient1528"
       x1="0.00000000"
       y1="0.00000000"
       x2="1.00000000"
       y2="0.00000000" />
    <linearGradient
       id="linearGradient1534"
       xlink:href="#linearGradient685"
       x1="-0.00000000"
       y1="-0.00000000"
       x2="1.00000000"
       y2="-0.00000000" />
    <linearGradient
       x1="0.020099"
       y1="0.023282"
       x2="0.989950"
       y2="1.023435"
       id="linearGradient1539"
       xlink:href="#linearGradient1256"
       gradientTransform="translate(-3.303398e-8,-1.426085e-6)" />
    <linearGradient
       x1="0.006447"
       y1="0.039037"
       x2="0.980645"
       y2="0.984374"
       id="linearGradient1567"
       xlink:href="#linearGradient1256" />
    <linearGradient
       x1="0.00781253"
       y1="0.02343748"
       x2="1.00000000"
       y2="0.99218750"
       id="linearGradient1042"
       xlink:href="#linearGradient1269" />
    <linearGradient
       x1="0.00781262"
       y1="0.03124999"
       x2="0.97656244"
       y2="0.96875000"
       id="linearGradient1044"
       xlink:href="#linearGradient1272" />
    <defs
       id="defs1121">
      <linearGradient
         x1="0.000000"
         y1="0.000000"
         x2="1.000000"
         y2="0.000000"
         id="linearGradient1231"
         xlink:href="#linearGradient1256"
         gradientUnits="objectBoundingBox"
         spreadMethod="pad" />
      <linearGradient
         id="linearGradient1226">
        <stop
           style="stop-color:#e6e6e6;stop-opacity:1;"
           offset="0"
           id="stop1227" />
        <stop
           style="stop-color:#7f7f7f;stop-opacity:1;"
           offset="1"
           id="stop1228" />
      </linearGradient>
      <linearGradient
         id="linearGradient1223">
        <stop
           style="stop-color:#000000;stop-opacity:1;"
           offset="0"
           id="stop1225" />
        <stop
           style="stop-color:#000000;stop-opacity:0;"
           offset="1"
           id="stop1224" />
      </linearGradient>
      <linearGradient
         x1="0.000000"
         y1="0.000000"
         x2="1.000000"
         y2="0.000000"
         id="linearGradient1218"
         xlink:href="#linearGradient1253"
         gradientUnits="objectBoundingBox"
         spreadMethod="pad" />
      <linearGradient
         id="linearGradient1215">
        <stop
           style="stop-color:#7f7366;stop-opacity:1;"
           offset="0"
           id="stop1217" />
        <stop
           style="stop-color:#7f7366;stop-opacity:0;"
           offset="1"
           id="stop1216" />
      </linearGradient>
      <linearGradient
         id="linearGradient1137"
         x1="0.00000000"
         y1="0.00000000"
         x2="1.00000000"
         y2="0.00000000"
         gradientUnits="objectBoundingBox"
         spreadMethod="pad"
         xlink:href="#linearGradient685" />
      <linearGradient
         id="linearGradient1140">
        <stop
           style="stop-color:#e6cfff;stop-opacity:1;"
           offset="0"
           id="stop1141" />
        <stop
           style="stop-color:#ffffff;stop-opacity:1;"
           offset="1"
           id="stop1142" />
      </linearGradient>
      <linearGradient
         x1="0.008696"
         y1="0.000000"
         x2="0.965218"
         y2="0.968750"
         id="linearGradient1143"
         xlink:href="#linearGradient635" />
      <linearGradient
         x1="0.015504"
         y1="0.007812"
         x2="0.697674"
         y2="0.882812"
         id="linearGradient1144"
         xlink:href="#linearGradient642" />
      <linearGradient
         x1="0.030302"
         y1="0.023437"
         x2="0.979798"
         y2="0.976562"
         id="linearGradient1214"
         xlink:href="#linearGradient1218" />
      <linearGradient
         x1="0.977528"
         y1="0.953125"
         x2="0.011236"
         y2="0.039063"
         id="linearGradient1222"
         xlink:href="#linearGradient1226" />
      <linearGradient
         x1="0.003630"
         y1="-0.000003"
         x2="0.960000"
         y2="0.991228"
         id="linearGradient1230"
         xlink:href="#linearGradient1231" />
      <linearGradient
         x1="0.011765"
         y1="0.015625"
         x2="0.705882"
         y2="0.828125"
         id="linearGradient1235"
         xlink:href="#linearGradient1231" />
    </defs>
    <linearGradient
       x1="0.005816"
       y1="0.015632"
       x2="0.994152"
       y2="0.976562"
       id="linearGradient1276"
       xlink:href="#linearGradient1256" />
    <linearGradient
       id="linearGradient1281"
       xlink:href="#linearGradient1272" />
    <radialGradient
       id="radialGradient1285"
       xlink:href="#linearGradient1272" />
    <radialGradient
       id="radialGradient1286"
       xlink:href="#linearGradient1272" />
    <radialGradient
       id="radialGradient1287"
       xlink:href="#linearGradient1272" />
  </defs>
  <path
     d="M 4.43893 48.711315 C 5.248318 51.12943 38.76577 62.002487 40.96644 60.17788 C 42.93627 58.527492 57.67557 9.403589 56.68867 7.455378 C 55.66282 5.307478 21.657054 -0.0425724 20.042945 1.426531 C 18.054709 3.246752 3.588867 45.936841 4.43893 48.711315 z "
     style="font-size:12;opacity:0.302675;fill-rule:evenodd;stroke-width:12.5;"
     id="path639" />
  <path
     d="M 4.554152 46.70993 C 5.311435 48.97226 36.66955 59.144843 38.72843 57.437781 C 40.57136 55.893717 54.36111 9.934533 53.43779 8.111794 C 52.47803 6.102268 20.663028 1.0969251 19.152904 2.471384 C 17.292759 4.17434 3.758851 44.114198 4.554152 46.70993 z "
     style="font-size:12;fill:url(#linearGradient1527);fill-rule:evenodd;stroke:#261933;stroke-width:1.87726;"
     id="path634" />
  <path
     d="M 6.687657 44.590773 C 6.360392 43.76167 19.363758 5.212263 20.579427 4.417273 C 22.09876 3.380412 46.65981 7.970403 46.98631 8.797561 C 47.28557 9.555676 27.823671 6.015663 23.493845 9.888577 C 15.189619 17.107895 6.986148 45.346984 6.687657 44.590773 z "
     style="font-size:12;opacity:0.699936;fill:url(#linearGradient1534);fill-rule:evenodd;stroke:none;stroke-width:0.100121pt;"
     id="path640" />
  <path
     d="M 20.769928 5.102667 C 25.344554 5.602385 30.668605 6.4949418 34.97456 7.5408208 C 35.272464 7.6131128 34.896243 8.4916748 34.581623 8.4572838 C 30.024304 7.9595088 24.682274 6.9943648 20.358734 5.9443048 C 20.078316 5.876195 20.472606 5.07021 20.769928 5.102667 z "
     style="font-size:12;fill:#261933;fill-rule:evenodd;stroke-width:1pt;fill-opacity:1;"
     id="path1230" />
  <path
     d="M 19.709956 8.2827788 C 24.284582 8.7824968 29.608633 9.6750538 33.914589 10.720933 C 34.212493 10.793323 33.836271 11.671886 33.521651 11.637486 C 28.964332 11.139711 23.622302 10.174477 19.298762 9.1244168 C 19.018344 9.0563068 19.412634 8.2503218 19.709956 8.2827788 z "
     style="font-size:12;fill:#261933;fill-rule:evenodd;stroke-width:1pt;fill-opacity:1;"
     id="path1231" />
  <path
     d="M 15.718685 18.623545 C 24.809622 20.296632 35.609398 22.511215 44.245511 24.636208 C 44.845993 24.791383 44.575388 25.73203 43.942942 25.631374 C 34.776991 24.065559 24.166198 21.498751 15.384823 19.46606 C 14.817675 19.327897 15.122482 18.520847 15.718685 18.623545 z "
     style="font-size:12;fill:#261933;fill-rule:evenodd;stroke-width:1pt;fill-opacity:1;"
     id="path1232" />
  <path
     d="M 14.30484 21.681422 C 23.395777 23.354411 34.195553 25.568994 42.831666 27.693987 C 43.432139 27.849153 43.161543 28.789809 42.529097 28.689144 C 33.363146 27.123338 22.752354 24.556628 13.970978 22.523839 C 13.403828 22.385676 13.708633 21.578626 14.30484 21.681422 z "
     style="font-size:12;fill:#261933;fill-rule:evenodd;stroke-width:1pt;fill-opacity:1;"
     id="path1233" />
  <path
     d="M 8.1703026 43.102635 C 9.4981608 43.574232 11.07337 44.181372 12.329493 44.740057 C 12.416754 44.780423 12.367414 44.971058 12.274882 44.941498 C 10.934867 44.491009 9.3910981 43.813725 8.1125832 43.272102 C 8.0300809 43.235681 8.0831445 43.073156 8.1703026 43.102635 z "
     style="font-size:12;fill:none;fill-rule:evenodd;stroke:#261933;stroke-width:0.683283;"
     id="path1237" />
  <path
     d="M 18.121358 11.974017 C 22.673627 12.647757 27.959688 13.74271 32.222702 14.951921 C 32.517598 15.035682 32.108141 15.899283 31.795078 15.852841 C 27.260108 15.181715 21.958691 14.013503 17.678388 12.799333 C 17.400782 12.72063 17.825496 11.930198 18.121358 11.974017 z "
     style="font-size:12;fill:#261933;fill-rule:evenodd;stroke-width:1pt;fill-opacity:1;"
     id="path1238" />
  <path
     d="M 16.772132 14.972227 C 21.3244 15.645977 26.610461 16.740921 30.873466 17.95014 C 31.168362 18.033892 30.758914 18.897494 30.445852 18.851052 C 25.910872 18.179935 20.609456 17.011723 16.329152 15.797552 C 16.051555 15.71885 16.47626 14.928409 16.772132 14.972227 z "
     style="font-size:12;fill:#261933;fill-rule:evenodd;stroke-width:1pt;fill-opacity:1;"
     id="path1239" />
  <g
     transform="matrix(6.949277e-2,0.000000,0.000000,6.827370e-2,6.366610,4.774707)"
     style="font-size:12;opacity:0.302675;"
     id="g1288">
    <path
       d="M 193.828 467.434 C 178.941 468.948 161.154 486.272 148.606 498.444 C 130.468 516.075 92.7478 564.2 104.676 592.765 C 111.698 552.141 185.106 555.496 205.456 535.914 C 216.415 526.066 227.005 503.459 224.837 490.691 C 223.129 480.633 204.352 466.364 193.828 467.434 z "
       style="fill-rule:evenodd;stroke-width:0.961965pt;"
       id="path1282" />
    <path
       d="M 229.409 417.471 C 221.482 419.905 190.897 456.406 190.623 463.082 C 190.082 475.91 220.297 500.47 232.768 498.042 C 237.828 496.761 268.98 456.842 269.182 451.097 C 269.654 438.55 241.337 414.372 229.409 417.471 z "
       style="fill-rule:evenodd;stroke-width:11.3244;"
       id="path1283" />
    <path
       d="M 221.358 423.625 C 228.067 386.292 264.417 333.237 298.019 298.291 C 375.96 217.232 538.735 66.7744 555.987 75.6109 C 571.994 83.8099 456.882 263.285 391.15 343.699 C 355.597 386.031 313.676 435.685 270.031 454.046 C 254.863 460.427 218.737 438.21 221.358 423.625 z "
       style="fill-rule:evenodd;stroke-width:11.3244;"
       id="path1284" />
  </g>
  <path
     d="M 21.468814 32.635035 C 20.917909 32.80117 18.792445 35.293259 18.773467 35.749026 C 18.735851 36.624877 20.835535 38.301663 21.702196 38.13586 C 22.053866 38.048449 24.218648 35.322998 24.232728 34.930783 C 24.265515 34.07418 22.297655 32.423457 21.468814 32.635035 z "
     style="font-size:12;fill:url(#linearGradient641);fill-rule:evenodd;stroke:#333333;stroke-width:1.27261;"
     id="path1046" />
  <path
     d="M 20.90927 33.055184 C 21.37549 30.506292 23.9016 26.884073 26.236638 24.498175 C 31.652979 18.964002 42.96466 8.6917131 44.16354 9.2950108 C 45.2759 9.8547906 37.27651 22.108199 32.708603 27.598332 C 30.237929 30.488515 27.324709 33.878574 24.291703 35.132137 C 23.237643 35.56779 20.727176 34.050925 20.90927 33.055184 z "
     style="font-size:12;fill:url(#linearGradient638);fill-rule:evenodd;stroke:#261933;stroke-width:1.27261;"
     id="path1045" />
  <path
     d="M 21.954352 32.956813 C 20.92063 34.305873 24.281295 28.359504 27.74134 24.520161 C 32.269729 19.615242 43.68025 10.020411 42.76897 11.039981 C 41.33174 12.543621 25.134147 28.59327 21.954352 32.956813 z "
     style="font-size:12;opacity:0.7;fill:url(#linearGradient1522);fill-rule:evenodd;stroke:none;stroke-width:1.02162pt;"
     id="path1051" />
  <path
     d="M 19.527483 35.891237 C 19.527483 35.750764 20.29837 34.528344 20.740917 34.424025 C 21.076195 34.344901 21.861026 35.203576 21.861026 35.341041 C 21.861026 35.4481 21.085853 35.076267 20.740917 35.157599 C 20.308029 35.259644 19.527483 35.995289 19.527483 35.891237 z "
     style="font-size:12;opacity:0.699936;fill:url(#linearGradient1539);fill-rule:evenodd;stroke:none;stroke-width:1.02162pt;"
     id="path1265" />
  <path
     d="M 13.180386 42.67717 C 13.241244 41.935441 15.706245 38.139537 18.314117 37.083384 C 18.896926 36.859844 20.050976 38.335276 20.087572 38.550596 C 20.113284 38.702029 18.934881 37.92435 18.500769 38.183777 C 16.632424 39.299941 13.188167 42.854661 13.180386 42.67717 z "
     style="font-size:12;opacity:0.7;fill:url(#linearGradient1567);fill-rule:evenodd;stroke:none;stroke-width:1.02162pt;"
     id="path1266" />
  <path
     style="font-size:12;fill:url(#linearGradient1532);fill-rule:evenodd;stroke:#261933;stroke-width:0.802207;"
     d="M 18.996168 36.046144 C 16.848677 36.878482 15.696032 37.830732 14.453081 38.734635 C 13.822829 39.336523 14.436167 40.807368 12.545583 44.183928 C 12.615645 44.249722 12.467481 44.09068 12.603186 44.214768 C 15.412731 42.614019 17.021109 43.547406 18.435272 42.210507 C 19.048447 41.246569 21.153359 38.578651 21.151087 37.633981 C 21.032389 36.947322 19.727535 35.973102 18.996168 36.046144 z "
     id="path660"
     sodipodi:nodetypes="ccccccc" />
  <path
     style="font-size:12;fill:none;fill-opacity:1.00;fill-rule:evenodd;stroke:#000000;stroke-width:0.364815;"
     d="M 12.525937 44.251369 L 17.753074 39.07948 "
     id="path663" />
  <path
     sodipodi:type="arc"
     style="font-size:12;fill:#000000;fill-opacity:1;fill-rule:evenodd;stroke:none;stroke-width:1pt;"
     id="path667"
     sodipodi:cx="12.26562500"
     sodipodi:cy="48.43750000"
     sodipodi:rx="0.15625000"
     sodipodi:ry="0.23437500"
     d="M 12.421875 48.437500 A 0.156250 0.234375 0 1 0 12.109375,48.437500 A 0.15625 0.234375 0 1 0 12.4219 48.4375 L 12.265625 48.437500 z"
     transform="matrix(4.584216,0.000000,0.000000,3.074172,-38.51159,-109.8291)" />
</svg>
