<?xml version="1.0" encoding="UTF-8" standalone="no"?>
<!DOCTYPE svg PUBLIC "-//W3C//DTD SVG 20010904//EN"
"http://www.w3.org/TR/2001/REC-SVG-20010904/DTD/svg10.dtd">
<!-- Created with Inkscape (http://www.inkscape.org/) -->
<svg
   id="svg1"
   sodipodi:version="0.32"
   inkscape:version="0.37"
   width="48pt"
   height="48pt"
   sodipodi:docbase="/home/tom"
   sodipodi:docname="log.svg"
   xmlns="http://www.w3.org/2000/svg"
   xmlns:inkscape="http://www.inkscape.org/namespaces/inkscape"
   xmlns:sodipodi="http://sodipodi.sourceforge.net/DTD/sodipodi-0.dtd"
   xmlns:xlink="http://www.w3.org/1999/xlink">
  <defs
     id="defs3">
    <linearGradient
       id="linearGradient703">
      <stop
         style="stop-color:#d9cce6;stop-opacity:1;"
         offset="0.00000000"
         id="stop704" />
      <stop
         style="stop-color:#73667f;stop-opacity:1;"
         offset="1.00000000"
         id="stop705" />
    </linearGradient>
    <linearGradient
       id="linearGradient866">
      <stop
         style="stop-color:#ffffff;stop-opacity:1;"
         offset="0.00000000"
         id="stop867" />
      <stop
         style="stop-color:#d9cce6;stop-opacity:1;"
         offset="1.00000000"
         id="stop868" />
    </linearGradient>
    <linearGradient
       id="linearGradient584">
      <stop
         style="stop-color:#ffffff;stop-opacity:1;"
         offset="0.00000000"
         id="stop585" />
      <stop
         style="stop-color:#ffffff;stop-opacity:0;"
         offset="1.00000000"
         id="stop586" />
    </linearGradient>
    <linearGradient
       xlink:href="#linearGradient866"
       id="linearGradient586"
       x1="-0.00000000"
       y1="0.01562500"
       x2="0.99122804"
       y2="0.98437500" />
    <linearGradient
       xlink:href="#linearGradient584"
       id="linearGradient587"
       x1="0.00000000"
       y1="-0.00000000"
       x2="1.00000000"
       y2="1.00000000" />
    <linearGradient
       xlink:href="#linearGradient703"
       id="linearGradient700"
       x1="-0.00000000"
       y1="0.00000000"
       x2="1.00000000"
       y2="0.00000000" />
    <linearGradient
       xlink:href="#linearGradient703"
       id="linearGradient701"
       x1="0.00000000"
       y1="0.00000000"
       x2="1.00000000"
       y2="0.00000000" />
    <linearGradient
       xlink:href="#linearGradient703"
       id="linearGradient702" />
    <linearGradient
       xlink:href="#linearGradient584"
       id="linearGradient845"
       x1="-0.00000000"
       y1="-0.00000000"
       x2="0.99635035"
       y2="0.97727275" />
    <radialGradient
       xlink:href="#linearGradient703"
       id="radialGradient846" />
    <linearGradient
       xlink:href="#linearGradient584"
       id="linearGradient847"
       x1="0.00000000"
       y1="-0.00000000"
       x2="0.98540145"
       y2="0.93902439" />
    <linearGradient
       xlink:href="#linearGradient703"
       id="linearGradient848"
       x1="0.01219511"
       y1="0.01562503"
       x2="0.99999994"
       y2="1.00000012" />
    <linearGradient
       xlink:href="#linearGradient584"
       id="linearGradient849"
       x1="0.00000000"
       y1="-0.00000000"
       x2="0.98514849"
       y2="1.02343750" />
    <linearGradient
       xlink:href="#linearGradient703"
       id="linearGradient850"
       x1="-0.00000000"
       y1="0.00000000"
       x2="1.00000000"
       y2="0.95652175" />
    <linearGradient
       xlink:href="#linearGradient584"
       id="linearGradient863"
       x1="-0.00000000"
       y1="-0.00000000"
       x2="0.99635035"
       y2="0.82142860" />
  </defs>
  <sodipodi:namedview
     id="base"
     pagecolor="#ffffff"
     bordercolor="#666666"
     borderopacity="1.0"
     inkscape:pageopacity="0.0"
     inkscape:pageshadow="2"
     inkscape:zoom="11.2846774"
     inkscape:cx="18.7072558"
     inkscape:cy="28.3825808"
     inkscape:window-width="1018"
     inkscape:window-height="711"
     inkscape:window-x="0"
     inkscape:window-y="30" />
  <path
     d="M 4.4389304 48.086315 C 5.2483181 50.50443 38.765774 61.377487 40.966438 59.55288 C 42.936267 57.902492 57.675565 8.7785888 56.688667 6.8303779 C 55.662821 4.6824777 21.657054 -0.6675724 20.042945 0.80153134 C 18.054709 2.621752 3.5888672 45.311841 4.4389304 48.086315 z "
     style="font-size:12;opacity:0.302675;fill-rule:evenodd;stroke-width:12.5;"
     id="path639" />
  <path
     d="M 4.5541516 46.08493 C 5.3114351 48.34726 36.66955 58.519843 38.728432 56.812781 C 40.571358 55.268717 54.36111 9.3095333 53.437795 7.4867937 C 52.478034 5.477268 20.663028 0.47192513 19.152904 1.8463842 C 17.292759 3.5493405 3.7588508 43.489198 4.5541516 46.08493 z "
     style="font-size:12;fill:url(#linearGradient586);fill-rule:evenodd;stroke:#261933;stroke-width:1.87726;"
     id="path634" />
  <path
     d="M 6.6876568 43.965773 C 6.360392 43.13667 19.363758 4.5872629 20.579427 3.7922731 C 22.09876 2.7554118 46.659814 7.3454032 46.98631 8.172561 C 47.28557 8.9306762 27.823671 5.3906629 23.493845 9.2635774 C 15.189619 16.482895 6.9861475 44.721984 6.6876568 43.965773 z "
     style="font-size:12;opacity:0.699936;fill:url(#linearGradient587);fill-rule:evenodd;stroke:none;stroke-width:0.100121pt;"
     id="path640" />
  <rect
     style="font-size:12;fill:#0000ff;fill-opacity:1.00;fill-rule:evenodd;stroke:#000000;stroke-width:1pt;"
     id="rect607"
     width="0.22153935"
     height="0.00000000"
     x="-15.17544450"
     y="14.25212680" />
  <g
     id="g611"
     transform="matrix(0.952051,0.305941,-0.305941,0.952051,41.43841,8.057438)">
    <rect
       style="font-size:12;fill:url(#linearGradient702);fill-opacity:1.00;fill-rule:evenodd;stroke:#261933;stroke-width:1pt;"
       id="rect604"
       width="6.97848940"
       height="22.1539345"
       x="-8.52926445"
       y="4.72593403"
       ry="1.55077541" />
    <rect
       style="font-size:12;fill:url(#linearGradient700);fill-opacity:1.00;fill-rule:evenodd;stroke:#261933;stroke-width:0.774597pt;"
       id="rect608"
       width="6.97848940"
       height="13.2923613"
       x="0.99692738"
       y="13.6982765"
       ry="1.32923603" />
    <rect
       style="font-size:12;fill:url(#linearGradient701);fill-opacity:1.00;fill-rule:evenodd;stroke:#261933;stroke-width:0.911043pt;"
       id="rect609"
       width="6.97848940"
       height="18.3877659"
       x="-17.8339157"
       y="8.49210262"
       ry="1.32923603" />
    <path
       style="fill:none;fill-rule:evenodd;stroke:#261933;stroke-opacity:1;stroke-width:1pt;stroke-linejoin:miter;stroke-linecap:round;fill-opacity:1.00;"
       d="M -20.04931 2.8428499 L -20.27085 29.427571 L 8.8615736 28.984492 L 8.8615736 28.984492 L 8.8615736 28.984492 "
       id="path610" />
  </g>
  <path
     d="M 18.13188 36.811527 C 27.18931 39.264788 21.571842 37.364783 30.247138 40.56994 C 30.615548 40.70608 30.123294 41.931907 29.74153 41.82845 C 20.703238 39.380376 26.205915 41.135762 17.508528 37.922421 C 17.162208 37.794466 17.769254 36.713256 18.13188 36.811527 z "
     style="font-size:12;fill:#261933;fill-rule:evenodd;stroke-width:1pt;"
     id="path707"
     sodipodi:nodetypes="ccccc" />
  <path
     d="M 13.147689 39.725947 C 16.240861 40.612634 16.812405 40.630514 19.572887 41.838064 C 19.934517 41.991191 19.410198 43.196487 19.031365 43.082201 C 16.086832 42.217091 15.856212 42.044128 12.492011 40.820821 C 12.0346 40.628833 12.785496 39.624509 13.147689 39.725947 z "
     style="font-size:12;fill:#261933;fill-rule:evenodd;stroke-width:1pt;"
     id="path708" />
  <path
     style="fill:#261933;fill-rule:evenodd;stroke:none;stroke-opacity:1;stroke-width:1pt;stroke-linejoin:miter;stroke-linecap:butt;fill-opacity:1;"
     d="M 16.780963 38.140982 C 16.930617 38.210359 15.800237 36.98005 15.949813 36.664381 C 16.111668 36.322798 17.869418 36.240692 17.715251 36.169223 C 17.464651 36.053048 14.893671 35.767675 14.735515 36.101452 C 14.582242 36.424928 16.52585 38.022715 16.780963 38.140982 z "
     id="path717"
     sodipodi:nodetypes="cssss" />
  <path
     style="fill:#261933;fill-rule:evenodd;stroke:none;stroke-opacity:1;stroke-width:1pt;stroke-linejoin:miter;stroke-linecap:butt;fill-opacity:1;"
     d="M 31.040133 40.462464 C 30.884188 40.408703 32.134081 41.517389 32.017459 41.846658 C 31.891264 42.202961 30.151037 42.4638 30.311685 42.519183 C 30.572822 42.60921 33.159499 42.631047 33.28281 42.282888 C 33.402315 41.945474 31.305971 40.554112 31.040133 40.462464 z "
     id="path718"
     sodipodi:nodetypes="cssss" />
  <path
     style="fill:#261933;fill-rule:evenodd;stroke:none;stroke-opacity:1;stroke-width:1pt;stroke-linejoin:miter;stroke-linecap:butt;fill-opacity:1;"
     d="M 11.820384 41.112208 C 11.970038 41.181585 10.839658 39.951275 10.989235 39.635607 C 11.151089 39.294023 12.908839 39.211918 12.754672 39.140449 C 12.504072 39.024274 9.9330924 38.7389 9.7749368 39.072677 C 9.621663 39.396153 11.565271 40.993941 11.820384 41.112208 z "
     id="path719"
     sodipodi:nodetypes="cssss" />
  <path
     style="fill:#261933;fill-rule:evenodd;stroke:none;stroke-opacity:1;stroke-width:1pt;stroke-linejoin:miter;stroke-linecap:butt;fill-opacity:1;"
     d="M 20.242644 41.646445 C 20.0867 41.592683 21.336593 42.701369 21.219971 43.030639 C 21.093776 43.386941 19.353549 43.64778 19.514197 43.703163 C 19.775333 43.79319 22.362011 43.815027 22.485322 43.466869 C 22.604827 43.129454 20.508483 41.738093 20.242644 41.646445 z "
     id="path720"
     sodipodi:nodetypes="cssss" />
</svg>
