<?xml version="1.0" encoding="UTF-8" standalone="no"?>
<!DOCTYPE svg PUBLIC "-//W3C//DTD SVG 20010904//EN"
"http://www.w3.org/TR/2001/REC-SVG-20010904/DTD/svg10.dtd">
<!-- Created with Inkscape (http://www.inkscape.org/) -->
<svg
   id="svg1"
   sodipodi:version="0.32"
   inkscape:version="0.37"
   width="48pt"
   height="48pt"
   sodipodi:docbase="/home/dan/Projects/Lila-icons/scalable/mimetypes"
   sodipodi:docname="gnome-mime-application-x-python-bytecode.svg"
   xmlns="http://www.w3.org/2000/svg"
   xmlns:inkscape="http://www.inkscape.org/namespaces/inkscape"
   xmlns:sodipodi="http://sodipodi.sourceforge.net/DTD/sodipodi-0.dtd"
   xmlns:xlink="http://www.w3.org/1999/xlink">
  <defs
     id="defs3">
    <linearGradient
       id="linearGradient653">
      <stop
         style="stop-color:#d9cce6;stop-opacity:1;"
         offset="0.00000000"
         id="stop654" />
      <stop
         style="stop-color:#73667f;stop-opacity:1;"
         offset="1.00000000"
         id="stop655" />
    </linearGradient>
    <linearGradient
       id="linearGradient708">
      <stop
         style="stop-color:#fdd700;stop-opacity:1;"
         offset="0.00000000"
         id="stop709" />
      <stop
         style="stop-color:#e6ff52;stop-opacity:1;"
         offset="1.00000000"
         id="stop710" />
    </linearGradient>
    <linearGradient
       id="linearGradient642">
      <stop
         style="stop-color:#19cc00;stop-opacity:1;"
         offset="0.00000000"
         id="stop643" />
      <stop
         style="stop-color:#cce6cc;stop-opacity:1;"
         offset="1.00000000"
         id="stop644" />
    </linearGradient>
    <linearGradient
       id="linearGradient866">
      <stop
         style="stop-color:#ffffff;stop-opacity:1;"
         offset="0.00000000"
         id="stop867" />
      <stop
         style="stop-color:#d9cce6;stop-opacity:1;"
         offset="1.00000000"
         id="stop868" />
    </linearGradient>
    <linearGradient
       id="linearGradient584">
      <stop
         style="stop-color:#ffffff;stop-opacity:1;"
         offset="0.00000000"
         id="stop585" />
      <stop
         style="stop-color:#ffffff;stop-opacity:0;"
         offset="1.00000000"
         id="stop586" />
    </linearGradient>
    <linearGradient
       xlink:href="#linearGradient866"
       id="linearGradient586"
       x1="-0.00000000"
       y1="0.01562500"
       x2="0.99122804"
       y2="0.98437500" />
    <linearGradient
       xlink:href="#linearGradient584"
       id="linearGradient587"
       x1="0.00000000"
       y1="-0.00000000"
       x2="1.00000000"
       y2="1.00000000" />
    <linearGradient
       xlink:href="#linearGradient642"
       id="linearGradient638"
       x1="0.96923077"
       y1="0.97656250"
       x2="0.03076923"
       y2="0.00781250" />
    <radialGradient
       xlink:href="#linearGradient866"
       id="radialGradient639" />
    <linearGradient
       xlink:href="#linearGradient584"
       id="linearGradient640"
       x1="-0.00000000"
       y1="0.00000000"
       x2="0.99193549"
       y2="1.00000000" />
    <linearGradient
       xlink:href="#linearGradient584"
       id="linearGradient641"
       x1="0.00000000"
       y1="-0.00000000"
       x2="1.00364959"
       y2="1.03125000" />
    <linearGradient
       xlink:href="#linearGradient708"
       id="linearGradient645"
       x1="0.98235291"
       y1="0.99218750"
       x2="0.00588235"
       y2="0.01562500" />
    <linearGradient
       xlink:href="#linearGradient653"
       id="linearGradient652"
       x1="-0.00000000"
       y1="0.00000000"
       x2="0.98484850"
       y2="1.00781250" />
    <linearGradient
       xlink:href="#linearGradient584"
       id="linearGradient656"
       x1="0.01851852"
       y1="0.00781250"
       x2="1.00000000"
       y2="0.99218750" />
    <linearGradient
       xlink:href="#linearGradient584"
       id="linearGradient657"
       x1="-0.00000000"
       y1="-0.00000000"
       x2="1.00000000"
       y2="1.00781250" />
    <linearGradient
       xlink:href="#linearGradient584"
       id="linearGradient658"
       x1="0.00000000"
       y1="-0.00000000"
       x2="1.00000000"
       y2="1.00000000" />
    <linearGradient
       xlink:href="#linearGradient584"
       id="linearGradient659"
       x1="0.00000000"
       y1="0.00000000"
       x2="1.00000000"
       y2="0.99218750" />
    <linearGradient
       xlink:href="#linearGradient584"
       id="linearGradient660"
       x1="-0.00000000"
       y1="-0.00000000"
       x2="1.00793648"
       y2="1.01562500" />
  </defs>
  <sodipodi:namedview
     id="base"
     pagecolor="#ffffff"
     bordercolor="#666666"
     borderopacity="1.0"
     inkscape:pageopacity="0.0"
     inkscape:pageshadow="2"
     inkscape:zoom="5.64233871"
     inkscape:cx="13.7539963"
     inkscape:cy="19.6446874"
     inkscape:window-width="640"
     inkscape:window-height="516"
     inkscape:window-x="137"
     inkscape:window-y="288" />
  <path
     d="M 4.4389304 48.086315 C 5.2483181 50.50443 38.765774 61.377487 40.966438 59.55288 C 42.936267 57.902492 57.675565 8.7785888 56.688667 6.8303779 C 55.662821 4.6824777 21.657054 -0.6675724 20.042945 0.80153134 C 18.054709 2.621752 3.5888672 45.311841 4.4389304 48.086315 z "
     style="font-size:12;opacity:0.302675;fill-rule:evenodd;stroke-width:12.5;"
     id="path639" />
  <path
     d="M 4.5541516 46.08493 C 5.3114351 48.34726 36.66955 58.519843 38.728432 56.812781 C 40.571358 55.268717 54.36111 9.3095333 53.437795 7.4867937 C 52.478034 5.477268 20.663028 0.47192513 19.152904 1.8463842 C 17.292759 3.5493405 3.7588508 43.489198 4.5541516 46.08493 z "
     style="font-size:12;fill:url(#linearGradient586);fill-rule:evenodd;stroke:#261933;stroke-width:1.87726;"
     id="path634" />
  <path
     d="M 6.6876568 43.965773 C 6.360392 43.13667 19.363758 4.5872629 20.579427 3.7922731 C 22.09876 2.7554118 46.659814 7.3454032 46.98631 8.172561 C 47.28557 8.9306762 27.823671 5.3906629 23.493845 9.2635774 C 15.189619 16.482895 6.9861475 44.721984 6.6876568 43.965773 z "
     style="font-size:12;opacity:0.699936;fill:url(#linearGradient587);fill-rule:evenodd;stroke:none;stroke-width:0.100121pt;"
     id="path640" />
  <g
     id="g669"
     transform="translate(1.993854,0.664618)">
    <path
       d="M 14.671976 20.998129 C 12.913969 21.48501 8.2632145 23.095898 7.6647075 23.924396 C 6.8545405 25.185182 5.7026645 25.440652 4.9464325 25.333905 C 4.2326625 25.144843 5.0486315 24.725792 4.7406175 24.098988 C 4.4127985 23.53486 3.6307845 23.646072 3.8144285 23.069914 C 4.0592395 22.438961 5.0406155 22.310365 6.5929805 22.04074 C 8.4865085 21.718244 14.096732 19.124881 16.410048 19.956509 C 16.721832 20.070448 15.143698 20.867508 14.671976 20.998129 z "
       style="font-size:12;fill:#b33f00;fill-rule:evenodd;stroke:#3f0000;stroke-width:1.25;stroke-dasharray:none;"
       id="path1139" />
    <path
       d="M 30.742557 34.506191 C 32.08665 29.635299 39.769869 29.095949 39.329084 25.046479 C 38.993642 21.964713 30.352725 21.234794 25.357795 21.2626 C 21.620721 21.283315 16.57514 25.730504 13.860466 26.065131 C 13.03373 26.16704 15.459628 21.237622 14.297107 21.408079 C 12.122254 21.705812 9.5559505 16.108533 10.804244 14.713394 C 13.679501 11.499902 21.791475 6.4941558 26.667516 7.5821588 C 33.531235 9.1137888 44.884905 16.563372 46.023669 22.57231 C 47.164959 28.594296 39.461825 31.00467 34.52644 35.961579 C 33.24341 37.24977 36.128635 43.046605 35.282245 42.702475 C 34.435857 42.35823 30.063687 36.696265 30.742557 34.506191 z "
       style="font-size:12;opacity:0.296369;fill-rule:evenodd;stroke-width:12.5;"
       id="path1140" />
    <path
       d="M 28.684411 32.448043 C 30.028505 27.577152 37.711723 27.037802 37.270938 22.988332 C 36.935496 19.906566 28.294579 19.176646 23.299649 19.204453 C 19.562575 19.225168 14.516893 23.672357 11.80229 24.006998 C 10.975534 24.108893 13.401482 19.179475 12.238899 19.349932 C 10.064058 19.647665 7.4977545 14.050385 8.7460465 12.655247 C 11.621254 9.4417548 19.733329 4.4360078 24.60937 5.5240108 C 31.473089 7.0556418 42.826759 14.505225 43.965523 20.514162 C 45.106815 26.536149 37.403679 28.946523 32.468294 33.903446 C 31.185265 35.191622 34.070489 40.988457 33.224101 40.644328 C 32.377711 40.300097 28.005541 34.638118 28.684411 32.448043 z "
       style="font-size:12;fill:url(#linearGradient638);fill-rule:evenodd;stroke:#003300;stroke-width:1.875;stroke-dasharray:none;"
       id="path1084" />
    <path
       d="M 12.307252 22.353183 C 14.677536 21.788954 22.574173 16.426531 22.574173 15.939248 C 22.574173 15.504836 15.064034 18.341726 12.410159 18.584564 C 12.115369 18.560102 11.942179 22.408279 12.307252 22.353183 z "
       style="font-size:12;fill:#003300;fill-rule:evenodd;stroke-width:1pt;fill-opacity:1;"
       id="path1127" />
    <ellipse
       cx="173.465805"
       cy="188.096481"
       rx="25.192123"
       ry="25.192123"
       transform="matrix(0.119161,-3.292377e-2,1.587395e-2,5.745267e-2,-1.589195,5.055588)"
       style="font-size:12;fill:#003300;fill-rule:evenodd;stroke-width:12.5;fill-opacity:1;"
       id="path1128" />
    <path
       d="M 24.539915 18.618792 C 24.124404 17.859042 29.130555 15.909982 31.228938 16.251887 C 33.761535 16.664578 37.603852 18.87821 38.432651 20.882768 C 39.078868 22.445737 38.474303 25.862848 35.472209 26.954396 C 36.735221 26.040569 39.67514 22.991863 36.562546 20.906728 C 34.55313 19.552832 31.017038 19.085862 24.539915 18.618792 z "
       style="font-size:12;fill:url(#linearGradient645);fill-rule:evenodd;stroke:#003300;stroke-width:1;stroke-dasharray:none;"
       id="path1129" />
    <path
       d="M 26.283142 18.73121 C 26.10976 18.86608 26.788023 18.964444 26.938052 18.804007 C 27.774837 17.833762 30.860842 16.777901 30.758329 16.766474 C 30.642572 16.75364 27.556566 17.676052 26.283142 18.73121 z "
       style="font-size:12;fill:#3f3f00;fill-rule:evenodd;stroke-width:1pt;"
       id="path1133" />
    <path
       d="M 28.209556 19.032991 C 28.048002 19.158544 28.679761 19.250147 28.819478 19.10072 C 29.59884 18.197114 32.473146 17.213734 32.377609 17.203024 C 32.269839 17.191095 29.395634 18.050314 28.209556 19.032991 z "
       style="font-size:12;fill:#3f3f00;fill-rule:evenodd;stroke-width:1pt;"
       id="path1134" />
    <path
       d="M 30.206841 19.381772 C 30.069146 19.488936 30.607795 19.566987 30.726888 19.439596 C 31.391402 18.669237 33.842009 17.830632 33.760626 17.821531 C 33.668728 17.811324 31.218121 18.543871 30.206841 19.381772 z "
       style="font-size:12;fill:#3f3f00;fill-rule:evenodd;stroke-width:1pt;"
       id="path1135" />
    <path
       d="M 31.842096 20.047408 C 31.71633 20.145269 32.208474 20.216645 32.317254 20.100179 C 32.924345 19.396329 35.163254 18.630319 35.088947 18.622022 C 35.004935 18.612619 32.766027 19.281887 31.842096 20.047408 z "
       style="font-size:12;fill:#3f3f00;fill-rule:evenodd;stroke-width:1pt;"
       id="path1136" />
    <path
       d="M 33.041315 20.710301 C 32.924447 20.801287 33.381711 20.867609 33.482708 20.759325 C 34.046731 20.105433 36.126816 19.393802 36.057767 19.386122 C 35.979719 19.377322 33.899635 19.999173 33.041315 20.710301 z "
       style="font-size:12;fill:#3f3f00;fill-rule:evenodd;stroke-width:1pt;"
       id="path1137" />
    <path
       d="M 34.898176 20.935037 C 34.828925 20.988927 35.099966 21.028247 35.159817 20.964049 C 35.494147 20.576551 36.727033 20.154672 36.686088 20.150121 C 36.639886 20.144968 35.407 20.513459 34.898176 20.935037 z "
       style="font-size:12;fill:#3f3f00;fill-rule:evenodd;stroke-width:1pt;"
       id="path1138" />
    <ellipse
       cx="85.505646"
       cy="229.027435"
       rx="5.089626"
       ry="5.089622"
       transform="matrix(0.101098,0.000000,0.000000,0.101098,2.512985,-8.659217)"
       style="font-size:12;fill:#003f00;fill-rule:evenodd;stroke-width:1pt;"
       id="path1141" />
    <path
       d="M 10.437047 15.72972 C 10.04864 15.623776 9.1395185 13.820999 9.7166755 13.362829 C 14.001395 9.8585808 20.227292 5.1243828 26.799751 7.2911008 C 27.14985 7.4101938 20.763919 5.5517178 11.980697 13.980331 C 11.428299 14.516853 10.803314 15.829605 10.437047 15.72972 z "
       style="font-size:12;opacity:0.699936;fill-rule:evenodd;stroke:none;stroke-width:0.0704244pt;fill:url(#linearGradient640);"
       id="path1142" />
    <path
       d="M 19.552161 10.871979 C 19.327017 10.472652 19.856264 9.8318938 21.153043 9.2711968 C 22.649592 8.6399428 23.887633 8.8942078 23.918266 8.9801398 C 23.948292 9.0640478 22.735019 9.0987308 21.335019 9.7805298 C 20.114265 10.35831 19.58977 11.039608 19.552161 10.871979 z "
       style="font-size:12;opacity:0.7;fill-rule:evenodd;stroke:none;stroke-width:0.0704244pt;fill:url(#linearGradient641);"
       id="path1143" />
  </g>
  <g
     id="g748"
     transform="translate(0.443079,-0.664618)">
    <path
       d="M 13.497113 50.682028 C 16.245021 51.287683 19.359586 51.454286 21.576288 48.764894 C 23.040859 47.045573 22.768219 42.069129 21.375023 39.786084 C 22.755267 41.191206 24.956596 47.27973 22.305872 49.643558 C 19.107632 52.55537 15.350791 51.913654 13.497113 50.682028 z "
       style="font-size:12;opacity:0.699936;fill-rule:evenodd;stroke:#ffffff;stroke-width:0.093178pt;"
       id="path1580" />
    <path
       d="M 23.33821 46.5416 C 23.33821 50.603691 21.775946 52.26261 17.713474 52.26261 C 13.651379 52.26261 11.414433 50.507323 11.414433 46.445228 C 11.414433 42.382944 13.36227 40.531477 17.424363 40.531477 C 21.486838 40.531477 23.33821 42.479313 23.33821 46.5416 z M 31.582437 45.816651 C 31.656372 49.686196 28.285051 47.050521 26.590157 49.919829 C 24.941749 52.784217 29.828092 53.968292 27.200751 56.640036 C 24.500417 59.459646 23.978624 54.663041 21.071068 55.217403 C 17.842596 55.897763 20.911084 59.988352 17.115471 59.988352 C 13.76261 59.914609 16.510275 56.998532 13.3813 55.439016 C 10.176682 53.80471 9.5750827 58.212713 7.0301927 55.754251 C 4.2253485 53.039623 9.640119 52.671754 8.0097903 49.993763 C 6.3864668 47.279327 2.9436749 50.055107 2.7960888 46.111913 C 2.7222502 42.316206 6.67993 45.328555 7.9360472 42.377739 C 9.1506993 39.452385 4.8238236 38.071689 7.325359 36.026633 C 10.16447 33.789595 10.948489 38.545868 13.455136 37.449171 C 15.90082 36.42063 13.319766 31.94021 17.115471 31.792531 C 21.206344 31.718691 18.180456 35.709693 20.775901 37.153907 C 23.330636 38.534414 25.161845 34.318204 27.348432 36.321799 C 29.609322 38.399801 25.570044 39.281325 26.294896 41.861053 C 27.057519 44.649045 31.287176 42.021039 31.582437 45.816651 z "
       style="font-size:12;fill:#000000;fill-rule:evenodd;stroke:none;stroke-width:1.875;stroke-dasharray:none;fill-opacity:1;opacity:0.302675;"
       id="path747" />
    <path
       d="M 21.695462 44.537506 C 21.695462 48.535766 20.157747 50.168618 16.159112 50.168618 C 12.160847 50.168618 9.959053 48.440913 9.959053 44.442649 C 9.959053 40.444198 11.876281 38.621825 15.874544 38.621825 C 19.873182 38.621825 21.695462 40.539054 21.695462 44.537506 z M 29.810141 43.823949 C 29.882914 47.632689 26.564569 45.03843 24.896309 47.862651 C 23.273803 50.682028 28.083363 51.847497 25.497308 54.477257 C 22.839406 57.252561 22.325812 52.531329 19.463945 53.07698 C 16.286205 53.746649 19.306475 57.772959 15.570505 57.772959 C 12.270331 57.700375 14.97482 54.830121 11.895012 53.29511 C 8.7407514 51.686486 8.1486055 56.025222 5.6437053 53.605392 C 2.8829358 50.933421 8.2126198 50.571333 6.6079097 47.935423 C 5.0100948 45.263641 1.6214021 47.995803 1.4761352 44.114571 C 1.4034568 40.37851 5.2989465 43.343523 6.5353254 40.439075 C 7.7308907 37.55969 3.4720066 36.20069 5.9342334 34.187769 C 8.7287317 31.985883 9.5004305 36.667418 11.967689 35.587954 C 14.374941 34.575575 11.834446 30.165559 15.570505 30.020201 C 19.597095 29.947522 16.618756 33.875809 19.173416 35.29733 C 21.688007 36.656144 23.490441 32.506186 25.642668 34.478297 C 27.86803 36.523646 23.892225 37.391318 24.605687 39.930509 C 25.356327 42.67469 29.519519 40.087981 29.810141 43.823949 z "
       style="font-size:12;fill:url(#linearGradient652);fill-rule:evenodd;stroke:#261933;stroke-width:1.875;stroke-dasharray:none;"
       id="path1579" />
    <path
       d="M 3.0515422 45.504957 C 2.9537048 45.36603 2.5572336 43.804555 2.980818 43.466133 C 3.7598791 42.843705 6.5744121 42.501461 6.6594819 42.622408 C 6.7394299 42.735805 4.3364633 43.481693 3.4760609 44.169067 C 3.1338175 44.442544 3.1188166 45.600372 3.0515422 45.504957 z "
       style="font-size:12;opacity:0.7;fill:url(#linearGradient659);fill-rule:evenodd;stroke-width:1.05154pt;"
       id="path1581" />
    <path
       d="M 5.8710595 36.139344 C 5.8710595 35.99557 6.8627503 34.757983 7.4019717 34.732824 C 7.9806066 34.705896 9.2244389 35.843412 9.2244389 35.982992 C 9.2244389 36.103936 7.9984974 35.486447 7.4019717 35.514212 C 6.8806425 35.538534 5.8710595 36.256096 5.8710595 36.139344 z "
       style="font-size:12;opacity:0.699936;fill:url(#linearGradient658);fill-rule:evenodd;stroke-width:1.12535pt;"
       id="path1582" />
    <path
       d="M 14.147003 34.773844 C 14.080848 34.606592 14.082896 32.161137 14.638144 31.521751 C 15.088473 31.003214 17.103911 31.148668 17.163731 31.299987 C 17.220847 31.444319 15.493609 31.827374 14.98896 32.408618 C 14.488033 32.98539 14.197785 34.902152 14.147003 34.773844 z "
       style="font-size:12;opacity:0.699936;fill:url(#linearGradient656);fill-rule:evenodd;stroke-width:1.07368pt;"
       id="path1583" />
    <path
       d="M 21.771927 36.849638 C 22.149576 36.418133 24.285585 35.068078 24.518715 35.068078 C 24.681499 35.068078 23.554791 36.463791 22.959759 36.849638 C 22.639131 37.057612 21.629923 37.011955 21.771927 36.849638 z "
       style="font-size:12;opacity:0.7;fill:url(#linearGradient657);fill-rule:evenodd;stroke-width:1.18334pt;"
       id="path1584" />
    <path
       d="M 5.9175446 52.410372 C 6.0286109 52.103537 7.7999226 50.263741 8.1918303 50.066204 C 8.3811654 49.970697 8.0019312 51.180052 7.6610864 51.531333 C 7.2438374 51.961442 5.8517585 52.591885 5.9175446 52.410372 z "
       style="font-size:12;opacity:0.7;fill:url(#linearGradient660);fill-rule:evenodd;stroke-width:1.11113pt;"
       id="path1585" />
  </g>
</svg>
