<?xml version="1.0" encoding="UTF-8" standalone="no"?>
<!DOCTYPE svg PUBLIC "-//W3C//DTD SVG 20010904//EN"
"http://www.w3.org/TR/2001/REC-SVG-20010904/DTD/svg10.dtd">
<!-- Created with Inkscape (http://www.inkscape.org/) -->
<svg
   id="svg1"
   sodipodi:version="0.32"
   inkscape:version="0.38"
   width="48pt"
   height="48pt"
   sodipodi:docbase="/home/dan/Projects/Lila-icons/scalable/mimetypes"
   sodipodi:docname="gnome-mime-application-rtf.svg"
   xmlns="http://www.w3.org/2000/svg"
   xmlns:inkscape="http://www.inkscape.org/namespaces/inkscape"
   xmlns:sodipodi="http://sodipodi.sourceforge.net/DTD/sodipodi-0.dtd"
   xmlns:xlink="http://www.w3.org/1999/xlink">
  <defs
     id="defs3">
    <linearGradient
       id="linearGradient642">
      <stop
         style="stop-color:#d9cce6;stop-opacity:1;"
         offset="0.00000000"
         id="stop643" />
      <stop
         style="stop-color:#73667f;stop-opacity:1;"
         offset="1.00000000"
         id="stop644" />
    </linearGradient>
    <linearGradient
       id="linearGradient866">
      <stop
         style="stop-color:#ffffff;stop-opacity:1;"
         offset="0.00000000"
         id="stop867" />
      <stop
         style="stop-color:#d9cce6;stop-opacity:1;"
         offset="1.00000000"
         id="stop868" />
    </linearGradient>
    <linearGradient
       id="linearGradient584">
      <stop
         style="stop-color:#ffffff;stop-opacity:1;"
         offset="0.00000000"
         id="stop585" />
      <stop
         style="stop-color:#ffffff;stop-opacity:0;"
         offset="1.00000000"
         id="stop586" />
    </linearGradient>
    <linearGradient
       xlink:href="#linearGradient866"
       id="linearGradient586"
       x1="-0.00000000"
       y1="0.01562500"
       x2="0.99122804"
       y2="0.98437500" />
    <linearGradient
       xlink:href="#linearGradient584"
       id="linearGradient587"
       x1="0.00000000"
       y1="-0.00000000"
       x2="1.00000000"
       y2="1.00000000" />
    <linearGradient
       xlink:href="#linearGradient584"
       id="linearGradient638"
       x1="-0.00000000"
       y1="0.00000000"
       x2="1.00000000"
       y2="1.01562500" />
    <radialGradient
       xlink:href="#linearGradient866"
       id="radialGradient639" />
    <linearGradient
       xlink:href="#linearGradient584"
       id="linearGradient640"
       x1="-0.00000000"
       y1="0.00000000"
       x2="0.98275864"
       y2="1.00000000" />
    <linearGradient
       xlink:href="#linearGradient642"
       id="linearGradient641"
       x1="0.01515152"
       y1="0.02343750"
       x2="0.98484850"
       y2="0.98437500" />
    <linearGradient
       xlink:href="#linearGradient642"
       id="linearGradient645"
       x1="0.01428571"
       y1="0.01562500"
       x2="1.00000000"
       y2="1.00781250" />
  </defs>
  <sodipodi:namedview
     id="base"
     pagecolor="#ffffff"
     bordercolor="#666666"
     borderopacity="1.0"
     inkscape:pageopacity="0.0"
     inkscape:pageshadow="2"
     inkscape:zoom="5.6423387"
     inkscape:cx="28.253622"
     inkscape:cy="24.091652"
     inkscape:window-width="640"
     inkscape:window-height="516"
     inkscape:window-x="198"
     inkscape:window-y="336"
     showguides="true"
     snaptoguides="true" />
  <path
     d="M 4.4389304 48.086315 C 5.2483181 50.50443 38.765774 61.377487 40.966438 59.55288 C 42.936267 57.902492 57.675565 8.7785888 56.688667 6.8303779 C 55.662821 4.6824777 21.657054 -0.6675724 20.042945 0.80153134 C 18.054709 2.621752 3.5888672 45.311841 4.4389304 48.086315 z "
     style="font-size:12;opacity:0.302675;fill-rule:evenodd;stroke-width:12.5;"
     id="path639" />
  <path
     d="M 4.5541516 46.08493 C 5.3114351 48.34726 36.66955 58.519843 38.728432 56.812781 C 40.571358 55.268717 54.36111 9.3095333 53.437795 7.4867937 C 52.478034 5.477268 20.663028 0.47192513 19.152904 1.8463842 C 17.292759 3.5493405 3.7588508 43.489198 4.5541516 46.08493 z "
     style="font-size:12;fill:url(#linearGradient586);fill-rule:evenodd;stroke:#261933;stroke-width:1.87726;"
     id="path634" />
  <path
     d="M 6.6876568 43.965773 C 6.360392 43.13667 19.363758 4.5872629 20.579427 3.7922731 C 22.09876 2.7554118 46.659814 7.3454032 46.98631 8.172561 C 47.28557 8.9306762 27.823671 5.3906629 23.493845 9.2635774 C 15.189619 16.482895 6.9861475 44.721984 6.6876568 43.965773 z "
     style="font-size:12;opacity:0.699936;fill:url(#linearGradient587);fill-rule:evenodd;stroke:none;stroke-width:0.100121pt;"
     id="path640" />
  <path
     d="M 38.689417 9.3876302 C 37.977302 9.8015552 34.702846 19.043199 35.191291 19.882017 C 35.732599 20.64583 44.458588 22.66715 45.261752 22.108159 C 45.8769 21.712311 48.642022 12.26186 48.335854 11.401661 C 48.070594 10.779906 39.282414 8.9814052 38.689417 9.3876302 z "
     style="font-size:12;fill-rule:evenodd;stroke:#261933;stroke-width:1.25;fill:url(#linearGradient641);stroke-opacity:1;stroke-dasharray:none;"
     id="path1229" />
  <path
     d="M 20.456624 9.1756182 C 25.03125 9.6753362 30.355301 10.567893 34.661256 11.613772 C 34.95916 11.686064 34.582939 12.564626 34.268319 12.530235 C 29.711 12.03246 24.36897 11.067316 20.04543 10.017256 C 19.765012 9.9491462 20.159302 9.1431612 20.456624 9.1756182 z "
     style="font-size:12;fill:#261933;fill-rule:evenodd;stroke-width:1pt;fill-opacity:1;"
     id="path1230" />
  <path
     d="M 19.396652 12.35573 C 23.971278 12.855448 29.295329 13.748005 33.601285 14.793884 C 33.899189 14.866274 33.522967 15.744837 33.208347 15.710437 C 28.651028 15.212662 23.308998 14.247428 18.985458 13.197368 C 18.70504 13.129258 19.09933 12.323273 19.396652 12.35573 z "
     style="font-size:12;fill:#261933;fill-rule:evenodd;stroke-width:1pt;fill-opacity:1;"
     id="path1231" />
  <path
     d="M 16.345293 19.250153 C 25.43623 20.92324 36.236006 23.137823 44.872119 25.262816 C 45.472601 25.417991 45.201996 26.358638 44.56955 26.257982 C 35.403599 24.692167 24.792806 22.125359 16.011431 20.092668 C 15.444283 19.954505 15.74909 19.147455 16.345293 19.250153 z "
     style="font-size:12;fill:#261933;fill-rule:evenodd;stroke-width:1pt;fill-opacity:1;"
     id="path1232" />
  <path
     d="M 14.931448 22.30803 C 24.022385 23.981019 34.822161 26.195602 43.458274 28.320595 C 44.058747 28.475761 43.788151 29.416417 43.155705 29.315752 C 33.989754 27.749946 23.378962 25.183236 14.597586 23.150447 C 14.030436 23.012284 14.335241 22.205234 14.931448 22.30803 z "
     style="font-size:12;fill:#261933;fill-rule:evenodd;stroke-width:1pt;fill-opacity:1;"
     id="path1233" />
  <path
     d="M 14.065026 26.323567 C 15.049304 25.916151 25.108591 28.358872 25.97666 29.09364 C 26.721814 29.843262 23.7031 40.011371 22.791113 40.728446 C 21.963944 41.495277 11.18807 38.194489 10.463804 37.404146 C 9.8443783 36.836899 13.079677 26.870023 14.065026 26.323567 z "
     style="font-size:12;fill-rule:evenodd;stroke:#261933;stroke-width:1.25;fill:url(#linearGradient645);stroke-dasharray:none;stroke-opacity:1;"
     id="path1236" />
  <path
     d="M 9.2186364 41.618479 C 18.177333 43.895728 28.804842 46.827485 37.279557 49.525267 C 37.868283 49.720187 37.535397 50.640724 36.911107 50.497986 C 27.8704 48.322664 17.455011 45.052193 8.8292194 42.436802 C 8.2726002 42.260935 8.6306044 41.476135 9.2186364 41.618479 z "
     style="font-size:12;fill:#261933;fill-rule:evenodd;stroke-width:1pt;fill-opacity:1;"
     id="path1237" />
  <path
     d="M 28.460388 32.182121 C 33.012657 32.855861 38.298718 33.950814 42.561732 35.160025 C 42.856628 35.243786 42.447171 36.107387 42.134108 36.060945 C 37.599138 35.389819 32.297721 34.221607 28.017418 33.007437 C 27.739812 32.928734 28.164526 32.138302 28.460388 32.182121 z "
     style="font-size:12;fill:#261933;fill-rule:evenodd;stroke-width:1pt;fill-opacity:1;"
     id="path1238" />
  <path
     d="M 27.111162 35.180331 C 31.66343 35.854081 36.949491 36.949025 41.212496 38.158244 C 41.507392 38.241996 41.097944 39.105598 40.784882 39.059156 C 36.249902 38.388039 30.948486 37.219827 26.668182 36.005656 C 26.390585 35.926954 26.81529 35.136513 27.111162 35.180331 z "
     style="font-size:12;fill:#261933;fill-rule:evenodd;stroke-width:1pt;fill-opacity:1;"
     id="path1239" />
  <path
     d="M 12.360267 36.371482 C 12.167784 35.959115 13.931716 28.480721 15.058732 27.82641 C 16.27669 27.182208 23.86507 29.671478 24.053481 30.075097 C 24.21487 30.421002 18.135842 28.98326 16.108112 30.075097 C 14.238077 31.082019 12.517578 36.708639 12.360267 36.371482 z "
     style="font-size:12;opacity:0.699936;fill-rule:evenodd;stroke:none;stroke-width:0.0971644pt;fill:url(#linearGradient640);"
     id="path1240" />
  <path
     d="M 37.392945 18.08486 C 37.237484 17.751678 38.6627 11.709191 39.573236 11.180615 C 40.557317 10.660008 46.688616 12.671317 46.840871 12.997497 C 46.971272 13.276948 42.059587 12.115245 40.421186 12.997497 C 38.910276 13.811057 37.520042 18.35721 37.392945 18.08486 z "
     style="font-size:12;opacity:0.699936;fill-rule:evenodd;stroke:none;stroke-width:0.0785075pt;fill:url(#linearGradient638);"
     id="path1241" />
  <rect
     style="fill:#000000;fill-opacity:0.30000001;fill-rule:evenodd;stroke:none;stroke-width:1.0000000pt;stroke-opacity:1.0000000;"
     id="rect937"
     x="28.448114"
     y="37.401434"
     rx="0.70483023"
     width="30.710464"
     height="12.888113" />
  <rect
     style="fill:#d9cce6;fill-opacity:0.80000001;fill-rule:evenodd;stroke:#261933;stroke-width:1.2500000;stroke-dasharray:none;"
     id="rect862"
     x="26.545103"
     y="35.812594"
     rx="0.69999999"
     width="30.500000"
     height="12.750523" />
  <text
     xml:space="preserve"
     style="fill:black;fill-opacity:1;stroke:none;font-family:helvetica;font-style:normal;font-weight:normal;font-size:12px;stroke-opacity:1;stroke-width:1pt;stroke-linejoin:miter;stroke-linecap:butt;"
     x="32.315414"
     y="43.967276"
     id="text863"><tspan
       id="tspan864"></tspan></text>
  <path
     style="font-size:12.000000;stroke-width:1.0000000pt;font-family:Radio Stars;"
     d="M 53.867841,42.929614 L 48.191841,42.929614 L 48.191841,44.705614 C 48.191841,44.961614 48.111841,45.161614 47.951841,45.305614 C 47.791841,45.441614 47.603841,45.509614 47.387841,45.509614 C 47.171841,45.509614 46.983841,45.441614 46.823841,45.305614 C 46.663841,45.161614 46.583841,44.961614 46.583841,44.705614 L 46.583841,39.521614 C 46.583841,38.977614 46.851841,38.705614 47.387841,38.705614 L 53.867841,38.705614 C 54.123841,38.705614 54.323841,38.785614 54.467841,38.945614 C 54.611841,39.105614 54.683841,39.297614 54.683841,39.521614 C 54.683841,39.745614 54.611841,39.937614 54.467841,40.097614 C 54.323841,40.257614 54.123841,40.337614 53.867841,40.337614 L 48.191841,40.337614 L 48.191841,41.297614 L 53.867841,41.297614 C 54.123841,41.297614 54.323841,41.377614 54.467841,41.537614 C 54.611841,41.697614 54.683841,41.889614 54.683841,42.113614 C 54.683841,42.337614 54.611841,42.529614 54.467841,42.689614 C 54.323841,42.849614 54.123841,42.929614 53.867841,42.929614 z M 44.831841,40.337614 L 42.407841,40.337614 L 42.407841,44.705614 C 42.407841,44.961614 42.327841,45.161614 42.167841,45.305614 C 42.007841,45.441614 41.815841,45.509614 41.591841,45.509614 C 41.375841,45.509614 41.187841,45.441614 41.027841,45.305614 C 40.867841,45.161614 40.787841,44.961614 40.787841,44.705614 L 40.787841,40.337614 L 38.351841,40.337614 C 38.095841,40.337614 37.895841,40.257614 37.751841,40.097614 C 37.607841,39.937614 37.535841,39.745614 37.535841,39.521614 C 37.535841,39.297614 37.607841,39.105614 37.751841,38.945614 C 37.895841,38.785614 38.095841,38.705614 38.351841,38.705614 L 44.831841,38.705614 C 45.087841,38.705614 45.287841,38.785614 45.431841,38.945614 C 45.575841,39.105614 45.647841,39.297614 45.647841,39.521614 C 45.647841,39.745614 45.575841,39.937614 45.431841,40.097614 C 45.287841,40.257614 45.087841,40.337614 44.831841,40.337614 z M 36.923841,42.113614 C 36.923841,42.657614 36.655841,42.929614 36.119841,42.929614 L 33.851841,42.929614 C 34.307841,43.113614 35.163841,43.457614 36.419841,43.961614 C 36.763841,44.097614 36.935841,44.337614 36.935841,44.681614 C 36.935841,44.897614 36.859841,45.093614 36.707841,45.269614 C 36.563841,45.437614 36.379841,45.521614 36.155841,45.521614 C 36.043841,45.521614 35.931841,45.497614 35.819841,45.449614 L 30.443841,43.289614 L 30.443841,44.705614 C 30.443841,44.961614 30.363841,45.161614 30.203841,45.305614 C 30.043841,45.441614 29.855841,45.509614 29.639841,45.509614 C 29.423841,45.509614 29.235841,45.441614 29.075841,45.305614 C 28.915841,45.161614 28.835841,44.961614 28.835841,44.705614 L 28.835841,39.521614 C 28.835841,38.977614 29.103841,38.705614 29.639841,38.705614 L 36.119841,38.705614 C 36.655841,38.705614 36.923841,38.977614 36.923841,39.521614 L 36.923841,42.113614 z M 35.315841,41.297614 L 35.315841,40.337614 L 30.443841,40.337614 L 30.443841,41.297614 L 35.315841,41.297614 z "
     id="path962" />
</svg>
