<?xml version="1.0" encoding="UTF-8" standalone="no"?>
<!DOCTYPE svg PUBLIC "-//W3C//DTD SVG 20010904//EN"
"http://www.w3.org/TR/2001/REC-SVG-20010904/DTD/svg10.dtd">
<!-- Created with Inkscape (http://www.inkscape.org/) -->
<svg
   version="1.0"
   x="0"
   y="0"
   width="48pt"
   height="48pt"
   id="svg1418"
   sodipodi:version="0.32"
   inkscape:version="0.37"
   sodipodi:docname="shellscript.svg"
   sodipodi:docbase="/home/tom"
   xmlns="http://www.w3.org/2000/svg"
   xmlns:inkscape="http://www.inkscape.org/namespaces/inkscape"
   xmlns:sodipodi="http://sodipodi.sourceforge.net/DTD/sodipodi-0.dtd"
   xmlns:xlink="http://www.w3.org/1999/xlink">
  <sodipodi:namedview
     id="base"
     pagecolor="#ffffff"
     bordercolor="#666666"
     borderopacity="1.0"
     inkscape:pageopacity="0.0"
     inkscape:pageshadow="2"
     inkscape:zoom="5.65685427"
     inkscape:cx="29.6067732"
     inkscape:cy="35.4323928"
     inkscape:window-width="1018"
     inkscape:window-height="711"
     inkscape:window-x="0"
     inkscape:window-y="30" />
  <defs
     id="defs1420">
    <linearGradient
       id="linearGradient613">
      <stop
         style="stop-color:#d7a600;stop-opacity:0.677419;"
         offset="0.00000000"
         id="stop614" />
      <stop
         style="stop-color:#d7a600;stop-opacity:0.63;"
         offset="1.00000000"
         id="stop615" />
    </linearGradient>
    <linearGradient
       id="linearGradient621">
      <stop
         style="stop-color:#ffffff;stop-opacity:1;"
         offset="0.00000000"
         id="stop622" />
      <stop
         style="stop-color:#d9cce6;stop-opacity:1;"
         offset="1.00000000"
         id="stop623" />
    </linearGradient>
    <linearGradient
       id="linearGradient1439">
      <stop
         style="stop-color:#ffffff;stop-opacity:1;"
         offset="0"
         id="stop1440" />
      <stop
         style="stop-color:#ffffff;stop-opacity:0;"
         offset="1"
         id="stop1441" />
    </linearGradient>
    <linearGradient
       id="linearGradient1432">
      <stop
         style="stop-color:#7f7f7f;stop-opacity:1;"
         offset="0"
         id="stop1433" />
      <stop
         style="stop-color:#e6e6e6;stop-opacity:1;"
         offset="1"
         id="stop1434" />
    </linearGradient>
    <linearGradient
       id="linearGradient1428">
      <stop
         style="stop-color:#f50000;stop-opacity:1;"
         offset="0.00000000"
         id="stop1429" />
      <stop
         style="stop-color:#a90000;stop-opacity:1;"
         offset="1.00000000"
         id="stop1430" />
    </linearGradient>
    <linearGradient
       id="linearGradient1422">
      <stop
         style="stop-color:#d7a600;stop-opacity:1;"
         offset="0.00000000"
         id="stop1423" />
      <stop
         style="stop-color:#ffe4a5;stop-opacity:1;"
         offset="1.00000000"
         id="stop1424" />
    </linearGradient>
    <linearGradient
       id="linearGradient1425"
       xlink:href="#linearGradient1422" />
    <linearGradient
       x1="0.01923077"
       y1="0.00781250"
       x2="0.98076922"
       y2="0.98437500"
       id="linearGradient1427"
       xlink:href="#linearGradient1428" />
    <linearGradient
       x1="0.98101264"
       y1="0.92187500"
       x2="0.01898734"
       y2="0.02343750"
       id="linearGradient1435"
       xlink:href="#linearGradient1432" />
    <linearGradient
       x1="0.015748"
       y1="0.023437"
       x2="0.984252"
       y2="0.984375"
       id="linearGradient1438"
       xlink:href="#linearGradient1439" />
    <linearGradient
       id="linearGradient1443"
       xlink:href="#linearGradient1439"
       x1="0.00000000"
       y1="0.00000000"
       x2="0.98437500"
       y2="1.00781250" />
    <linearGradient
       xlink:href="#linearGradient621"
       id="linearGradient620"
       x1="0.00000000"
       y1="-0.00000000"
       x2="1.00877190"
       y2="0.99218750" />
    <linearGradient
       xlink:href="#linearGradient1422"
       id="linearGradient607"
       x1="-0.00000000"
       y1="0.00000000"
       x2="1.00000000"
       y2="0.00000000" />
    <linearGradient
       xlink:href="#linearGradient613"
       id="linearGradient611"
       x1="0.06224066"
       y1="0.41549295"
       x2="1.58921158"
       y2="0.59154928" />
    <linearGradient
       xlink:href="#linearGradient1422"
       id="linearGradient612"
       x1="-0.00000000"
       y1="0.00000000"
       x2="1.00000000"
       y2="0.00000000" />
    <linearGradient
       xlink:href="#linearGradient613"
       id="linearGradient617" />
    <linearGradient
       xlink:href="#linearGradient613"
       id="linearGradient619" />
    <linearGradient
       xlink:href="#linearGradient613"
       id="linearGradient622" />
    <linearGradient
       xlink:href="#linearGradient613"
       id="linearGradient625" />
    <linearGradient
       xlink:href="#linearGradient613"
       id="linearGradient626" />
    <linearGradient
       xlink:href="#linearGradient1439"
       id="linearGradient629"
       x1="0.39649123"
       y1="1.09821427"
       x2="0.24210526"
       y2="0.28571430" />
  </defs>
  <path
     d="M 3.9230986 47.466839 C 4.6364073 49.597913 34.175178 59.180286 36.114614 57.572268 C 37.850615 56.117789 50.840287 12.82513 49.970538 11.108181 C 49.066465 9.215247 19.097346 4.5002744 17.67484 5.7949886 C 15.922617 7.3991396 3.1739413 45.021709 3.9230986 47.466839 z "
     style="font-size:12;opacity:0.302675;fill-rule:evenodd;stroke-width:12.5;"
     id="path639" />
  <path
     d="M 4.0246422 45.703028 C 4.6920321 47.696809 32.327786 56.661857 34.14227 55.157431 C 35.76643 53.796656 47.919274 13.293049 47.105561 11.686678 C 46.259728 9.9156919 18.221315 5.5045082 16.890452 6.7158123 C 15.251114 8.2166194 3.3237473 43.415422 4.0246422 45.703028 z "
     style="font-size:12;fill:url(#linearGradient620);fill-rule:evenodd;stroke:#261933;stroke-width:1.875;stroke-dasharray:none;"
     id="path634" />
  <path
     d="M 5.9048899 43.835426 C 5.6164728 43.104741 17.076275 9.1313354 18.147639 8.430714 C 19.486619 7.516933 41.132159 11.56207 41.419898 12.29104 C 41.683634 12.959164 24.531955 9.839367 20.716101 13.252549 C 13.397627 19.614898 6.1679485 44.501871 5.9048899 43.835426 z "
     style="font-size:12;opacity:0.699936;fill:url(#linearGradient1443);fill-rule:evenodd;stroke:none;stroke-width:0.100121pt;"
     id="path640" />
  <path
     style="fill:#c6c6ba;fill-rule:evenodd;stroke:none;stroke-opacity:1;stroke-width:1pt;stroke-linejoin:miter;stroke-linecap:butt;fill-opacity:1;"
     d="M 30.901979 6.9979175 C 41.150868 15.729823 41.85386 24.461727 39.337887 33.193632 C 35.267932 44.44151 27.73797 44.727441 24.112009 45.763429 C 18.343338 47.07637 16.694134 46.651419 13.142173 45.625497 C 8.1472281 43.405521 5.0392607 40.075557 3.8182746 34.30362 C 2.5602885 25.867711 5.9911841 20.156175 14.030163 18.985787 C 16.721068 18.6147 16.250139 18.985787 17.360127 18.985787 C 16.879132 13.546846 29.384996 5.5549332 30.901979 6.9979175 z "
     id="path630"
     sodipodi:nodetypes="cccccccc" />
  <path
     style="font-size:12;fill:url(#linearGradient612);fill-opacity:1.00;fill-rule:evenodd;stroke:#3f3f19;stroke-width:0.850203pt;"
     d="M 29.080683 6.6178285 C 39.069356 15.128034 39.754499 23.638239 37.302406 32.148444 C 33.335785 43.110742 25.997006 43.389413 22.463107 44.399098 C 16.840901 45.678704 15.233569 45.264543 11.771791 44.264669 C 6.9036657 42.101057 3.874609 38.85564 2.6846229 33.23025 C 1.4585764 25.008526 4.8023628 19.442003 12.637235 18.30133 C 15.259819 17.939666 14.800847 18.30133 15.882652 18.30133 C 15.41387 13.000482 27.602214 5.2114811 29.080683 6.6178285 z "
     id="path605"
     sodipodi:nodetypes="cccccccc" />
  <path
     style="fill:url(#linearGradient611);fill-rule:evenodd;stroke:none;stroke-opacity:1;stroke-width:1pt;stroke-linejoin:miter;stroke-linecap:butt;fill-opacity:1;"
     d="M 22.806209 26.523054 C 29.657646 26.000181 33.858658 24.720045 37.681039 21.168115 C 38.253494 24.165619 37.825279 27.014374 37.681038 27.902356 C 30.901722 31.868977 26.826921 30.994518 21.616223 29.984833 C 22.012885 28.830906 22.409547 27.676981 22.806209 26.523054 z "
     id="path610"
     sodipodi:nodetypes="ccccc" />
  <path
     sodipodi:type="arc"
     style="font-size:12;fill:url(#linearGradient607);fill-opacity:1.00;fill-rule:evenodd;stroke:#3f3f19;stroke-width:1pt;stroke-opacity:1;"
     id="path606"
     sodipodi:cx="35.94556427"
     sodipodi:cy="21.12789345"
     sodipodi:rx="8.97048664"
     sodipodi:ry="3.62636685"
     d="M 44.916051 21.127893 A 8.970487 3.626367 0 1 0 26.975078,21.127893 A 8.97049 3.62637 0 1 0 44.9161 21.1279 L 35.945564 21.127893 z"
     transform="matrix(0.750970,-0.558408,0.543933,0.663332,-15.40955,19.00387)" />
  <path
     style="fill:url(#linearGradient617);fill-rule:evenodd;stroke:none;stroke-opacity:1;stroke-width:1pt;stroke-linejoin:miter;stroke-linecap:butt;fill-opacity:1.00;"
     d="M 13.67108 24.997814 C 11.628114 22.821919 11.126721 21.626411 7.947859 20.370052 C 6.5006144 21.269832 5.3508659 22.338644 4.7825888 23.319559 C 8.875549 24.152101 9.9124085 24.957598 11.949938 26.871946 C 12.523652 26.247235 13.097366 25.622525 13.67108 24.997814 z "
     id="path616"
     sodipodi:nodetypes="ccccc" />
  <path
     style="fill:url(#linearGradient619);fill-rule:evenodd;stroke:none;stroke-opacity:1;stroke-width:1pt;stroke-linejoin:miter;stroke-linecap:butt;fill-opacity:1.00;"
     d="M 11.395347 29.721393 C 11.918064 30.499095 12.440782 31.276795 12.963499 32.054497 C 8.7881354 32.583589 6.2550988 34.331003 4.4128391 36.810723 C 3.8617174 35.676817 3.5404794 34.536151 3.2868546 33.354916 C 5.4350946 31.149304 7.7745741 29.976377 11.395347 29.721393 z "
     id="path618"
     sodipodi:nodetypes="ccccc" />
  <path
     style="fill:url(#linearGradient622);fill-rule:evenodd;stroke:none;stroke-opacity:1;stroke-width:1pt;stroke-linejoin:miter;stroke-linecap:butt;fill-opacity:1.00;"
     d="M 13.003842 32.463481 C 10.076201 35.305014 10.013577 39.141413 10.138824 42.828362 C 11.94592 43.821111 12.175493 43.85074 13.534241 44.204177 C 13.025426 39.452631 12.831627 36.299161 14.788607 32.862705 C 14.193685 32.72963 13.598764 32.596556 13.003842 32.463481 z "
     id="path620"
     sodipodi:nodetypes="ccccc" />
  <path
     style="fill:url(#linearGradient626);fill-rule:evenodd;stroke:none;stroke-opacity:1;stroke-width:1pt;stroke-linejoin:miter;stroke-linecap:butt;fill-opacity:1.00;"
     d="M 21.038057 30.983907 C 23.39222 34.948227 29.151524 35.084695 35.357021 35.244647 C 34.72302 36.412731 33.830697 37.933072 32.503924 39.195092 C 27.335702 38.146826 21.932642 36.300112 19.676405 32.245926 C 20.130289 31.825253 20.584173 31.40458 21.038057 30.983907 z "
     id="path624"
     sodipodi:nodetypes="ccccc" />
  <path
     style="fill:url(#linearGradient625);fill-rule:evenodd;stroke:none;stroke-opacity:1;stroke-width:1pt;stroke-linejoin:miter;stroke-linecap:butt;fill-opacity:1.00;"
     d="M 18.58044 32.810514 C 19.070794 36.714683 22.884099 39.597307 25.910698 42.984833 C 24.69296 43.427647 23.064257 43.600398 21.79955 44.019728 C 18.696762 40.30579 17.049968 37.061526 16.9531 33.441523 C 17.495547 33.231187 18.037993 33.020851 18.58044 32.810514 z "
     id="path623"
     sodipodi:nodetypes="ccccc" />
  <path
     style="font-size:12;fill:none;fill-opacity:1.00;fill-rule:evenodd;stroke:#3f3f19;stroke-width:0.850203pt;"
     d="M 15.882652 18.517691 C 19.055949 19.347076 21.03926 20.825544 21.399862 22.304012 C 23.347112 26.018212 22.698028 28.866967 21.399862 30.201194 C 18.659287 33.554792 16.784158 33.662972 13.178139 32.148444 C 11.339069 31.210879 10.798166 28.109702 12.853597 26.090332 C 14.043583 25.152767 15.666292 25.080646 16.423555 25.873971 C 17.649602 27.49668 17.577481 29.55211 16.531736 28.794847 C 16.531736 28.794847 16.531736 28.794847 16.531736 28.794847 "
     id="path608"
     sodipodi:nodetypes="cccccccc" />
  <path
     style="fill:url(#linearGradient629);fill-rule:evenodd;stroke:none;stroke-opacity:1;stroke-width:1pt;stroke-linejoin:miter;stroke-linecap:butt;fill-opacity:1.00;"
     d="M 6.3255679 39.0874 C 21.580504 43.316272 29.263325 36.651924 35.285593 33.175835 C 34.55495 36.231251 33.027242 38.622445 29.506872 41.146484 C 26.185768 42.364223 21.735489 44.246181 16.355301 44.401166 C 13.056339 44.002634 8.4289333 41.611439 6.3255679 39.0874 z "
     id="path628"
     sodipodi:nodetypes="ccccc" />
</svg>
