<?xml version="1.0" encoding="UTF-8" standalone="no"?>
<!DOCTYPE svg PUBLIC "-//W3C//DTD SVG 20010904//EN"
"http://www.w3.org/TR/2001/REC-SVG-20010904/DTD/svg10.dtd">
<!-- Created with Inkscape (http://www.inkscape.org/) -->
<svg
   id="svg1"
   sodipodi:version="0.32"
   inkscape:version="0.37"
   width="48pt"
   height="48pt"
   sodipodi:docbase="/home/tom"
   sodipodi:docname="source_c.svg"
   xmlns="http://www.w3.org/2000/svg"
   xmlns:inkscape="http://www.inkscape.org/namespaces/inkscape"
   xmlns:sodipodi="http://sodipodi.sourceforge.net/DTD/sodipodi-0.dtd"
   xmlns:xlink="http://www.w3.org/1999/xlink">
  <defs
     id="defs3">
    <linearGradient
       id="linearGradient866">
      <stop
         style="stop-color:#ffffff;stop-opacity:1;"
         offset="0.00000000"
         id="stop867" />
      <stop
         style="stop-color:#d9cce6;stop-opacity:1;"
         offset="1.00000000"
         id="stop868" />
    </linearGradient>
    <linearGradient
       id="linearGradient584">
      <stop
         style="stop-color:#ffffff;stop-opacity:1;"
         offset="0.00000000"
         id="stop585" />
      <stop
         style="stop-color:#ffffff;stop-opacity:0;"
         offset="1.00000000"
         id="stop586" />
    </linearGradient>
    <linearGradient
       xlink:href="#linearGradient866"
       id="linearGradient586"
       x1="-0.00000000"
       y1="0.01562500"
       x2="0.99122804"
       y2="0.98437500" />
    <linearGradient
       xlink:href="#linearGradient584"
       id="linearGradient587"
       x1="0.00000000"
       y1="-0.00000000"
       x2="1.00000000"
       y2="1.00000000" />
    <linearGradient
       xlink:href="#linearGradient866"
       id="linearGradient588" />
  </defs>
  <sodipodi:namedview
     id="base"
     pagecolor="#ffffff"
     bordercolor="#666666"
     borderopacity="1.0"
     inkscape:pageopacity="0.0"
     inkscape:pageshadow="2"
     inkscape:zoom="2"
     inkscape:cx="28.6678162"
     inkscape:cy="27.2717285"
     inkscape:window-width="1018"
     inkscape:window-height="711"
     inkscape:window-x="0"
     inkscape:window-y="30" />
  <path
     d="M 4.4389304 48.086315 C 5.2483181 50.50443 38.765774 61.377487 40.966438 59.55288 C 42.936267 57.902492 57.675565 8.7785888 56.688667 6.8303779 C 55.662821 4.6824777 21.657054 -0.6675724 20.042945 0.80153134 C 18.054709 2.621752 3.5888672 45.311841 4.4389304 48.086315 z "
     style="font-size:12;opacity:0.302675;fill-rule:evenodd;stroke-width:12.5;"
     id="path639" />
  <path
     d="M 4.5541516 46.08493 C 5.3114351 48.34726 36.66955 58.519843 38.728432 56.812781 C 40.571358 55.268717 54.36111 9.3095333 53.437795 7.4867937 C 52.478034 5.477268 20.663028 0.47192513 19.152904 1.8463842 C 17.292759 3.5493405 3.7588508 43.489198 4.5541516 46.08493 z "
     style="font-size:12;fill:url(#linearGradient586);fill-rule:evenodd;stroke:#261933;stroke-width:1.87726;"
     id="path634" />
  <path
     d="M 6.6876568 43.965773 C 6.360392 43.13667 19.363758 4.5872629 20.579427 3.7922731 C 22.09876 2.7554118 46.659814 7.3454032 46.98631 8.172561 C 47.28557 8.9306762 27.823671 5.3906629 23.493845 9.2635774 C 15.189619 16.482895 6.9861475 44.721984 6.6876568 43.965773 z "
     style="font-size:12;opacity:0.699936;fill:url(#linearGradient587);fill-rule:evenodd;stroke:none;stroke-width:0.100121pt;"
     id="path640" />
  <path
     style="font-size:12;font-weight:normal;fill:none;stroke:#261933;stroke-width:1.83008;stroke-linecap:round;font-family:helvetica;"
     d="M 33.183855 32.101816 L 35.619406 33.558622 C 36.084635 33.571174 32.845203 37.011349 31.034219 37.756059 C 29.235228 38.494161 27.29383 38.558159 25.210032 37.948054 C 23.053436 37.316635 21.435945 36.357366 20.35756 35.070249 C 19.291166 33.776523 18.667529 32.177334 18.486651 30.272681 C 18.314873 28.37069 18.532445 26.446096 19.139366 24.498896 C 19.8012 22.37552 20.773605 20.641574 22.056584 19.297056 C 23.351552 17.94593 24.858715 17.076852 26.578073 16.689821 C 28.309421 16.296182 30.057752 16.357792 31.823067 16.874649 C 33.82497 17.460777 35.346545 18.47291 36.387786 19.911049 C 37.42903 21.349188 38.714453 25.384157 37.874925 25.12748 L 35.072821 24.990068 C 34.939541 25.411642 35.392581 23.751566 34.062808 21.157916 C 33.391128 20.222602 32.386471 19.559127 31.048834 19.167487 C 29.511009 18.717234 28.106372 18.715779 26.834924 19.163122 C 25.572575 19.613128 24.53414 20.412012 23.719616 21.559775 C 22.907983 22.698263 22.292634 23.939756 21.873569 25.284251 C 21.333121 27.018188 21.106277 28.606156 21.193039 30.048156 C 21.291792 31.483548 21.764684 32.674333 22.611716 33.620514 C 23.45875 34.566693 24.491936 35.218283 25.711277 35.575288 C 27.194506 36.009555 28.586079 35.941416 29.886001 35.370868 C 31.18592 34.800323 33.074913 31.797171 33.183855 32.101816 z "
     id="path589"
     sodipodi:nodetypes="ccccccccccccccccccccccc" />
</svg>
