<?xml version="1.0" encoding="UTF-8" standalone="no"?>
<!DOCTYPE svg PUBLIC "-//W3C//DTD SVG 20010904//EN"
"http://www.w3.org/TR/2001/REC-SVG-20010904/DTD/svg10.dtd">
<!-- Created with Inkscape (http://www.inkscape.org/) -->
<svg
   id="svg1"
   sodipodi:version="0.32"
   inkscape:version="0.37"
   width="48pt"
   height="48pt"
   sodipodi:docbase="/home/tom"
   sodipodi:docname="spreadsheet.svg"
   xmlns="http://www.w3.org/2000/svg"
   xmlns:inkscape="http://www.inkscape.org/namespaces/inkscape"
   xmlns:sodipodi="http://sodipodi.sourceforge.net/DTD/sodipodi-0.dtd"
   xmlns:xlink="http://www.w3.org/1999/xlink">
  <defs
     id="defs3">
    <linearGradient
       id="linearGradient703">
      <stop
         style="stop-color:#d9cce6;stop-opacity:1;"
         offset="0.00000000"
         id="stop704" />
      <stop
         style="stop-color:#73667f;stop-opacity:1;"
         offset="1.00000000"
         id="stop705" />
    </linearGradient>
    <linearGradient
       id="linearGradient866">
      <stop
         style="stop-color:#ffffff;stop-opacity:1;"
         offset="0.00000000"
         id="stop867" />
      <stop
         style="stop-color:#d9cce6;stop-opacity:1;"
         offset="1.00000000"
         id="stop868" />
    </linearGradient>
    <linearGradient
       id="linearGradient584">
      <stop
         style="stop-color:#ffffff;stop-opacity:1;"
         offset="0.00000000"
         id="stop585" />
      <stop
         style="stop-color:#ffffff;stop-opacity:0;"
         offset="1.00000000"
         id="stop586" />
    </linearGradient>
    <linearGradient
       xlink:href="#linearGradient866"
       id="linearGradient586"
       x1="-0.00000000"
       y1="0.01562500"
       x2="0.99122804"
       y2="0.98437500" />
    <linearGradient
       xlink:href="#linearGradient584"
       id="linearGradient587"
       x1="0.00000000"
       y1="-0.00000000"
       x2="1.00000000"
       y2="1.00000000" />
    <linearGradient
       xlink:href="#linearGradient584"
       id="linearGradient700"
       x1="0.00000000"
       y1="-0.00000000"
       x2="0.98453611"
       y2="0.99218750" />
    <linearGradient
       xlink:href="#linearGradient584"
       id="linearGradient701"
       x1="0.00367647"
       y1="0.01562500"
       x2="1.01102936"
       y2="1.01562500" />
    <linearGradient
       xlink:href="#linearGradient703"
       id="linearGradient702"
       x1="-0.00000000"
       y1="0.00000000"
       x2="0.97457629"
       y2="0.96093750" />
    <linearGradient
       xlink:href="#linearGradient584"
       id="linearGradient845"
       x1="-0.00000000"
       y1="-0.00000000"
       x2="0.99635035"
       y2="0.97727275" />
    <radialGradient
       xlink:href="#linearGradient703"
       id="radialGradient846" />
    <linearGradient
       xlink:href="#linearGradient584"
       id="linearGradient847"
       x1="0.00000000"
       y1="-0.00000000"
       x2="0.98540145"
       y2="0.93902439" />
    <linearGradient
       xlink:href="#linearGradient703"
       id="linearGradient848"
       x1="0.01219511"
       y1="0.01562503"
       x2="0.99999994"
       y2="1.00000012" />
    <linearGradient
       xlink:href="#linearGradient584"
       id="linearGradient849"
       x1="0.00000000"
       y1="-0.00000000"
       x2="0.98514849"
       y2="1.02343750" />
    <linearGradient
       xlink:href="#linearGradient703"
       id="linearGradient850"
       x1="-0.00000000"
       y1="0.00000000"
       x2="1.00000000"
       y2="0.95652175" />
    <linearGradient
       xlink:href="#linearGradient584"
       id="linearGradient863"
       x1="-0.00000000"
       y1="-0.00000000"
       x2="0.99635035"
       y2="0.82142860" />
  </defs>
  <sodipodi:namedview
     id="base"
     pagecolor="#ffffff"
     bordercolor="#666666"
     borderopacity="1.0"
     inkscape:pageopacity="0.0"
     inkscape:pageshadow="2"
     inkscape:zoom="5.64233871"
     inkscape:cx="28.5317048"
     inkscape:cy="26.5195518"
     inkscape:window-width="640"
     inkscape:window-height="516"
     inkscape:window-x="104"
     inkscape:window-y="95" />
  <path
     d="M 4.4389304 48.086315 C 5.2483181 50.50443 38.765774 61.377487 40.966438 59.55288 C 42.936267 57.902492 57.675565 8.7785888 56.688667 6.8303779 C 55.662821 4.6824777 21.657054 -0.6675724 20.042945 0.80153134 C 18.054709 2.621752 3.5888672 45.311841 4.4389304 48.086315 z "
     style="font-size:12;opacity:0.302675;fill-rule:evenodd;stroke-width:12.5;"
     id="path639" />
  <path
     d="M 4.5541516 46.08493 C 5.3114351 48.34726 36.66955 58.519843 38.728432 56.812781 C 40.571358 55.268717 54.36111 9.3095333 53.437795 7.4867937 C 52.478034 5.477268 20.663028 0.47192513 19.152904 1.8463842 C 17.292759 3.5493405 3.7588508 43.489198 4.5541516 46.08493 z "
     style="font-size:12;fill:url(#linearGradient586);fill-rule:evenodd;stroke:#261933;stroke-width:1.87726;"
     id="path634" />
  <path
     d="M 6.6876568 43.965773 C 6.360392 43.13667 19.363758 4.5872629 20.579427 3.7922731 C 22.09876 2.7554118 46.659814 7.3454032 46.98631 8.172561 C 47.28557 8.9306762 27.823671 5.3906629 23.493845 9.2635774 C 15.189619 16.482895 6.9861475 44.721984 6.6876568 43.965773 z "
     style="font-size:12;opacity:0.699936;fill:url(#linearGradient587);fill-rule:evenodd;stroke:none;stroke-width:0.100121pt;"
     id="path640" />
  <path
     sodipodi:type="arc"
     style="font-size:12;fill:#000000;fill-rule:evenodd;stroke-width:12.5;stroke:none;stroke-opacity:1;stroke-dasharray:none;fill-opacity:1;opacity:0.302675;"
     id="path697"
     d="M 451.954407,413.273621 A 100.773605,79.397400 0 1 1 414.001740,351.191742 L 351.180786,413.273621 z"
     sodipodi:cx="351.180786"
     sodipodi:cy="413.273621"
     sodipodi:rx="100.773605"
     sodipodi:ry="79.397400"
     transform="matrix(0.135220,0.000000,0.000000,0.177648,-17.70082,-41.73833)"
     sodipodi:start="0.000000"
     sodipodi:end="5.385456" />
  <path
     sodipodi:type="arc"
     style="font-size:12;fill:url(#linearGradient848);fill-rule:evenodd;stroke-width:16.4265;stroke:#261933;stroke-opacity:1;stroke-dasharray:none;"
     id="path696"
     d="M 451.954407,413.273621 A 100.773605,79.397400 0 1 1 414.001740,351.191742 L 351.180786,413.273621 z"
     sodipodi:cx="351.180786"
     sodipodi:cy="413.273621"
     sodipodi:rx="100.773605"
     sodipodi:ry="79.397400"
     transform="matrix(0.135220,0.000000,0.000000,0.177648,-18.87558,-44.51625)"
     sodipodi:start="0.000000"
     sodipodi:end="5.385456" />
  <path
     style="font-size:12;opacity:0.7;fill-rule:evenodd;stroke:none;stroke-width:0.135329pt;fill:url(#linearGradient863);"
     d="M 28.297266 31.456574 C 30.454969 31.124542 39.452164 31.205198 40.092541 31.456574 C 40.559695 31.639873 34.381913 32.760442 31.61985 32.760442 C 30.450119 32.760442 27.63081 31.559062 28.297266 31.456574 z "
     id="path699"
     sodipodi:nodetypes="csss" />
  <path
     style="fill:#261933;fill-rule:evenodd;stroke:none;stroke-opacity:1;stroke-width:1pt;stroke-linejoin:miter;stroke-linecap:butt;fill-opacity:1;"
     d="M 28.141355 28.961327 L 20.388324 17.849591 L 19.09615 19.238672 L 26.614222 30.041715 L 28.141355 28.961327 z "
     id="path700"
     sodipodi:nodetypes="ccccc" />
  <path
     style="fill:#261933;fill-rule:evenodd;stroke:none;stroke-opacity:1;stroke-width:1pt;stroke-linejoin:miter;stroke-linecap:butt;fill-opacity:1;"
     d="M 26.746248 28.750125 L 21.850022 41.21167 L 23.49429 41.915768 L 28.326462 29.496819 L 26.746248 28.750125 z "
     id="path701"
     sodipodi:nodetypes="ccccc" />
  <path
     style="font-size:12;opacity:0.699936;fill-rule:evenodd;stroke:none;stroke-width:0.166097pt;fill:url(#linearGradient849);"
     d="M 16.668291 31.458702 C 16.523919 31.07936 16.590857 23.30312 22.150536 19.236399 C 26.656695 16.061765 33.305084 17.989834 33.447259 18.363407 C 33.581939 18.717427 28.807469 16.600296 22.981205 21.41902 C 16.670487 26.420284 16.800776 31.806952 16.668291 31.458702 z "
     id="path698"
     sodipodi:nodetypes="cssss" />
</svg>
