<?xml version="1.0" encoding="UTF-8" standalone="no"?>
<!-- Created with Inkscape (http://www.inkscape.org/) -->
<svg
   xmlns:dc="http://purl.org/dc/elements/1.1/"
   xmlns:cc="http://web.resource.org/cc/"
   xmlns:rdf="http://www.w3.org/1999/02/22-rdf-syntax-ns#"
   xmlns:svg="http://www.w3.org/2000/svg"
   xmlns="http://www.w3.org/2000/svg"
   xmlns:xlink="http://www.w3.org/1999/xlink"
   xmlns:sodipodi="http://inkscape.sourceforge.net/DTD/sodipodi-0.dtd"
   xmlns:inkscape="http://www.inkscape.org/namespaces/inkscape"
   id="svg1"
   sodipodi:version="0.32"
   inkscape:version="0.42.2"
   width="48pt"
   height="48pt"
   sodipodi:docbase="/home/jakob/dev/lila-cvs/lila-theme/trunk/lila/gnome/scalable/mimetypes"
   sodipodi:docname="x-gdesklets-display.svg">
  <defs
     id="defs3">
    <linearGradient
       xlink:href="#linearGradient584"
       id="linearGradient1330"
       x1="20.879978"
       y1="35.648288"
       x2="24.437362"
       y2="39.078249"
       gradientTransform="matrix(1.974233,0.000000,0.000000,0.506526,-1.838044e-3,0.000000)"
       gradientUnits="userSpaceOnUse" />
    <linearGradient
       id="linearGradient1304">
      <stop
         style="stop-color:#d9cce6;stop-opacity:1.0000000;"
         offset="0.0000000"
         id="stop1305" />
      <stop
         style="stop-color:#73667f;stop-opacity:1.0000000;"
         offset="1.0000000"
         id="stop1306" />
    </linearGradient>
    <linearGradient
       xlink:href="#linearGradient1304"
       id="linearGradient587"
       x1="6.1727400"
       y1="28.769975"
       x2="34.325349"
       y2="56.569723"
       gradientTransform="matrix(0.992597,0.000000,0.000000,1.007458,-1.838044e-3,0.000000)"
       gradientUnits="userSpaceOnUse" />
    <linearGradient
       xlink:href="#linearGradient584"
       id="linearGradient624"
       x1="25.298069"
       y1="18.110407"
       x2="29.400928"
       y2="22.202924"
       gradientTransform="matrix(1.092506,0.000000,0.000000,0.915327,-1.838044e-3,0.000000)"
       gradientUnits="userSpaceOnUse" />
    <linearGradient
       xlink:href="#linearGradient584"
       id="linearGradient626"
       x1="38.717565"
       y1="17.411830"
       x2="43.456760"
       y2="22.083458"
       gradientTransform="matrix(1.042175,0.000000,0.000000,0.959531,-1.838044e-3,0.000000)"
       gradientUnits="userSpaceOnUse" />
    <linearGradient
       xlink:href="#linearGradient584"
       id="linearGradient628"
       x1="73.108860"
       y1="10.141510"
       x2="75.899651"
       y2="13.100115"
       gradientTransform="matrix(0.379821,0.000000,0.000000,2.632822,-1.838044e-3,0.000000)"
       gradientUnits="userSpaceOnUse" />
    <linearGradient
       xlink:href="#linearGradient584"
       id="linearGradient630"
       x1="70.899872"
       y1="17.428799"
       x2="73.258930"
       y2="19.719620"
       gradientTransform="matrix(0.570569,0.000000,0.000000,1.752636,-1.838044e-3,0.000000)"
       gradientUnits="userSpaceOnUse" />
    <linearGradient
       xlink:href="#linearGradient584"
       id="linearGradient632"
       x1="24.066486"
       y1="44.287814"
       x2="26.188976"
       y2="46.465446"
       gradientTransform="matrix(1.920659,0.000000,0.000000,0.520655,-1.838044e-3,0.000000)"
       gradientUnits="userSpaceOnUse" />
    <linearGradient
       xlink:href="#linearGradient584"
       id="linearGradient622"
       x1="10.106399"
       y1="31.767257"
       x2="13.205954"
       y2="34.866156"
       gradientTransform="matrix(0.999303,0.000000,0.000000,1.000697,-1.838044e-3,0.000000)"
       gradientUnits="userSpaceOnUse" />
    <linearGradient
       xlink:href="#linearGradient584"
       id="linearGradient635"
       x1="13.447196"
       y1="37.882083"
       x2="17.519109"
       y2="41.983204"
       gradientTransform="matrix(1.233197,0.000000,0.000000,0.810900,-1.838044e-3,0.000000)"
       gradientUnits="userSpaceOnUse" />
    <linearGradient
       xlink:href="#linearGradient584"
       id="linearGradient637"
       x1="17.876485"
       y1="58.096605"
       x2="21.188756"
       y2="61.380977"
       gradientTransform="matrix(1.458661,0.000000,0.000000,0.685560,-1.838044e-3,0.000000)"
       gradientUnits="userSpaceOnUse" />
    <linearGradient
       xlink:href="#linearGradient584"
       id="linearGradient639"
       x1="22.131220"
       y1="61.602040"
       x2="24.672471"
       y2="64.057768"
       gradientTransform="matrix(1.264593,0.000000,0.000000,0.790768,-1.838044e-3,0.000000)"
       gradientUnits="userSpaceOnUse" />
    <linearGradient
       xlink:href="#linearGradient584"
       id="linearGradient641"
       x1="21.392393"
       y1="37.935045"
       x2="24.723016"
       y2="41.321124"
       gradientTransform="matrix(0.789557,0.000000,0.000000,1.266532,-1.838044e-3,0.000000)"
       gradientUnits="userSpaceOnUse" />
    <linearGradient
       xlink:href="#linearGradient584"
       id="linearGradient643"
       x1="7.7289008"
       y1="39.041736"
       x2="12.262292"
       y2="43.522942"
       gradientTransform="matrix(1.011016,0.000000,0.000000,0.989104,-1.838044e-3,0.000000)"
       gradientUnits="userSpaceOnUse" />
    <linearGradient
       id="linearGradient866">
      <stop
         style="stop-color:#ffffff;stop-opacity:1;"
         offset="0.00000000"
         id="stop867" />
      <stop
         style="stop-color:#d9cce6;stop-opacity:1;"
         offset="1.00000000"
         id="stop868" />
    </linearGradient>
    <linearGradient
       id="linearGradient584">
      <stop
         style="stop-color:#ffffff;stop-opacity:1;"
         offset="0.00000000"
         id="stop585" />
      <stop
         style="stop-color:#ffffff;stop-opacity:0;"
         offset="1.00000000"
         id="stop586" />
    </linearGradient>
    <linearGradient
       id="linearGradient578">
      <stop
         style="stop-color:#d9cce6;stop-opacity:1.0000000;"
         offset="0.0000000"
         id="stop579" />
      <stop
         style="stop-color:#73667f;stop-opacity:1.0000000;"
         offset="1.0000000"
         id="stop580" />
    </linearGradient>
    <linearGradient
       xlink:href="#linearGradient866"
       id="linearGradient581"
       x1="5.2216647"
       y1="4.4274231"
       x2="56.814315"
       y2="52.484911"
       gradientTransform="matrix(0.942172,0.000000,0.000000,1.061378,-1.838044e-3,0.000000)"
       gradientUnits="userSpaceOnUse" />
    <linearGradient
       xlink:href="#linearGradient584"
       id="linearGradient583"
       x1="7.0644943"
       y1="3.9936418"
       x2="47.661362"
       y2="42.774876"
       gradientTransform="matrix(0.999606,0.000000,0.000000,1.000395,-1.838044e-3,0.000000)"
       gradientUnits="userSpaceOnUse" />
    <linearGradient
       xlink:href="#linearGradient584"
       id="linearGradient860"
       x1="0.02380952"
       y1="0.04687500"
       x2="1.00793648"
       y2="0.99218750" />
    <linearGradient
       xlink:href="#linearGradient584"
       id="linearGradient861"
       x1="0.04069768"
       y1="0.04687500"
       x2="0.99418604"
       y2="0.96875000" />
    <linearGradient
       xlink:href="#linearGradient584"
       id="linearGradient862"
       x1="0.01824817"
       y1="0.02542373"
       x2="0.98540145"
       y2="0.94915253" />
    <linearGradient
       xlink:href="#linearGradient584"
       id="linearGradient869"
       x1="0.06481481"
       y1="0.04687500"
       x2="0.95370370"
       y2="0.94531250" />
    <radialGradient
       xlink:href="#linearGradient584"
       id="radialGradient975"
       cx="0.50000000"
       cy="0.50000000"
       r="0.50000000"
       fx="0.50000000"
       fy="0.50000000" />
    <linearGradient
       xlink:href="#linearGradient584"
       id="linearGradient983"
       x1="0.00000000"
       y1="0.04687500"
       x2="0.99462366"
       y2="1.00000000" />
    <linearGradient
       xlink:href="#linearGradient578"
       id="linearGradient984"
       x1="0.05303030"
       y1="0.05468750"
       x2="0.96212119"
       y2="0.96875000" />
    <linearGradient
       xlink:href="#linearGradient1304"
       id="linearGradient586"
       x1="17.303659"
       y1="19.050031"
       x2="42.375758"
       y2="44.161466"
       gradientTransform="matrix(1.226939,0.000000,0.000000,0.815036,-1.838044e-3,0.000000)"
       gradientUnits="userSpaceOnUse" />
    <linearGradient
       inkscape:collect="always"
       xlink:href="#linearGradient584"
       id="linearGradient1357"
       x1="21.880667"
       y1="23.917517"
       x2="24.875861"
       y2="26.912077"
       gradientTransform="matrix(1.040302,0.000000,0.000000,0.961259,-1.838044e-3,0.000000)"
       gradientUnits="userSpaceOnUse" />
  </defs>
  <sodipodi:namedview
     id="base"
     pagecolor="#ffffff"
     bordercolor="#666666"
     borderopacity="1.0"
     inkscape:pageopacity="0.0"
     inkscape:pageshadow="2"
     inkscape:zoom="5.6423387"
     inkscape:cx="29.916903"
     inkscape:cy="24.206299"
     inkscape:window-width="1400"
     inkscape:window-height="992"
     inkscape:window-x="0"
     inkscape:window-y="0"
     inkscape:current-layer="svg1" />
  <path
     d="M 4.4370923,48.086315 C 5.2464800,50.504430 38.763936,61.377487 40.964600,59.552880 C 42.934429,57.902492 57.673727,8.7785888 56.686829,6.8303779 C 55.660983,4.6824777 21.655216,-0.66757240 20.041107,0.80153134 C 18.052871,2.6217520 3.5870291,45.311841 4.4370923,48.086315 z "
     style="font-size:12.000000px;opacity:0.30267498;fill-rule:evenodd;stroke-width:12.500000"
     id="path639" />
  <path
     d="M 4.5523135,46.084930 C 5.3095970,48.347260 36.667712,58.519843 38.726594,56.812781 C 40.569520,55.268717 54.359272,9.3095333 53.435957,7.4867937 C 52.476196,5.4772680 20.661190,0.47192513 19.151066,1.8463842 C 17.290921,3.5493405 3.7570127,43.489198 4.5523135,46.084930 z "
     style="font-size:12.000000px;fill:url(#linearGradient581);fill-rule:evenodd;stroke:#261933;stroke-width:1.8772600"
     id="path634" />
  <path
     d="M 6.6858187,43.965773 C 6.3585539,43.136670 19.361920,4.5872629 20.577589,3.7922731 C 22.096922,2.7554118 46.657976,7.3454032 46.984472,8.1725610 C 47.283732,8.9306762 27.821833,5.3906629 23.492007,9.2635774 C 15.187781,16.482895 6.9843094,44.721984 6.6858187,43.965773 z "
     style="font-size:12.000000px;opacity:0.69993597;fill:url(#linearGradient583);fill-rule:evenodd;stroke:#ffffff;stroke-width:0.10012100pt"
     id="path640" />
  <path
     style="fill:url(#linearGradient1330);fill-opacity:1.0000000;fill-rule:evenodd;stroke:none;stroke-width:1.0000000pt;stroke-linecap:butt;stroke-linejoin:miter;stroke-opacity:1.0000000"
     d="M 41.233480,18.253482 C 41.579508,17.972342 46.936829,17.974476 48.220408,18.377972 C 48.652916,18.513932 47.089903,19.884468 46.381743,19.871851 C 44.760927,19.842971 40.966620,18.470302 41.233480,18.253482 z "
     id="path1328"
     sodipodi:nodetypes="csss" />
  <path
     style="font-size:12.000000px;opacity:0.29999998;fill:#000000;fill-opacity:1.0000000;fill-rule:evenodd;stroke:none;stroke-width:1.4375000"
     d="M 28.731892,24.316844 C 28.731892,22.032108 28.731892,19.747371 28.731892,17.462634 C 30.981533,17.462634 33.231175,17.462634 35.480817,17.462634 C 34.355996,18.605003 34.901098,21.443345 35.480817,22.032108 C 36.605638,23.174476 39.980101,23.174476 41.104921,22.032108 C 41.684640,21.443345 42.229742,18.605003 41.104921,17.462634 C 43.354563,17.462634 45.604205,17.462634 47.853847,17.462634 C 47.853847,19.747371 47.853847,22.032108 47.853847,24.316844 C 48.978668,23.174476 51.410011,23.359012 52.353130,24.316844 C 53.477951,25.459212 53.477951,27.743949 52.353130,28.886317 C 51.410011,29.844149 48.978668,30.028685 47.853847,28.886317 C 47.853847,31.551843 47.853847,34.217368 47.853847,36.882895 C 45.604205,36.882895 43.354563,36.882895 41.104921,36.882895 C 42.229742,35.740526 41.938122,32.990381 41.104921,32.313422 C 39.980101,31.171054 36.605638,31.171054 35.480817,32.313422 C 34.543466,33.075000 34.355996,35.740526 35.480817,36.882895 C 33.231175,36.882895 30.981533,36.882895 28.731892,36.882895 C 28.731892,34.217368 28.731892,31.551843 28.731892,28.886317 C 27.607071,30.028685 25.169959,29.647896 24.232608,28.886317 C 23.107787,27.743949 23.107787,25.459212 24.232608,24.316844 C 25.274109,23.470645 27.607071,23.174476 28.731892,24.316844 z "
     id="path644"
     sodipodi:nodetypes="cccsscccssccccccccccc" />
  <path
     style="font-size:12.000000px;fill:url(#linearGradient586);fill-opacity:1.0000000;fill-rule:evenodd;stroke:#261933;stroke-width:1.1335607"
     d="M 27.138382,22.947455 C 27.138382,20.662718 27.138382,18.377983 27.138382,16.093246 C 29.388023,16.093246 31.637665,16.093246 33.887307,16.093246 C 32.762486,17.235614 33.307588,20.073956 33.887307,20.662718 C 35.012128,21.805087 38.386590,21.805087 39.511411,20.662718 C 40.091130,20.073956 40.636232,17.235614 39.511411,16.093246 C 41.761053,16.093246 44.010695,16.093246 46.260337,16.093246 C 46.260337,18.377983 46.260337,20.662718 46.260337,22.947455 C 47.385157,21.805087 49.816501,21.989623 50.759620,22.947455 C 51.884441,24.089823 51.884441,26.374559 50.759620,27.516928 C 49.816501,28.474760 47.385157,28.659296 46.260337,27.516928 C 46.260337,30.182454 46.260337,32.847979 46.260337,35.513506 C 44.010695,35.513506 41.761053,35.513506 39.511411,35.513506 C 40.636232,34.371137 40.344612,31.620992 39.511411,30.944033 C 38.386590,29.801664 35.012128,29.801664 33.887307,30.944033 C 32.949956,31.705611 32.762486,34.371137 33.887307,35.513506 C 31.637665,35.513506 29.388023,35.513506 27.138382,35.513506 C 27.138382,32.847979 27.138382,30.182454 27.138382,27.516928 C 26.013561,28.659296 23.576449,28.278506 22.639098,27.516928 C 21.514277,26.374559 21.514277,24.089823 22.639098,22.947455 C 23.680599,22.101256 26.013561,21.805087 27.138382,22.947455 z "
     id="path619"
     sodipodi:nodetypes="cccsscccssccccccccccc" />
  <path
     style="font-size:12.000000px;opacity:0.29999998;fill:#000000;fill-opacity:1.0000000;fill-rule:evenodd;stroke:none;stroke-width:1.4375000"
     d="M 17.034553,35.780014 C 18.625289,34.164461 20.216024,32.548909 21.806761,30.933356 C 23.397498,32.548909 24.988235,34.164461 26.578972,35.780014 C 24.988235,35.780014 23.397498,38.178483 23.397498,39.011119 C 23.397498,40.626672 25.783604,43.050001 27.374340,43.050001 C 28.194187,43.050001 30.555814,41.434448 30.555814,39.818896 C 32.146551,41.434448 33.737288,43.050001 35.328025,44.665554 C 33.737288,46.281107 32.146551,47.896659 30.555814,49.512212 C 32.146551,49.512212 33.737288,51.388738 33.737288,52.743317 C 33.737288,54.358870 32.146551,55.974423 30.555814,55.974423 C 29.222043,55.974423 27.374340,54.358870 27.374340,52.743317 C 25.518480,54.628129 23.662621,56.512940 21.806761,58.397752 C 20.216024,56.782199 18.625289,55.166646 17.034553,53.551094 C 18.625289,53.551094 20.333857,51.397023 20.216024,50.319988 C 20.216024,48.704435 17.829917,46.281107 16.239182,46.281107 C 15.046128,46.146477 13.057711,47.896659 13.057711,49.512212 C 11.466968,47.896659 9.8762322,46.281107 8.2854972,44.665554 C 10.141354,42.780742 11.997218,40.895932 13.853075,39.011119 C 12.262339,39.011119 10.804165,36.991678 10.671604,35.780014 C 10.671604,34.164461 12.262339,32.548909 13.853075,32.548909 C 15.178689,32.698496 17.034553,34.164461 17.034553,35.780014 z "
     id="path645"
     sodipodi:nodetypes="cccsscccssccccccccccc" />
  <path
     style="font-size:12.000000px;fill:url(#linearGradient587);fill-opacity:1.0000000;fill-rule:evenodd;stroke:#261933;stroke-width:1.1335607"
     d="M 15.441040,34.161645 C 17.031776,32.546092 18.622511,30.930539 20.213251,29.314987 C 21.803988,30.930539 23.394725,32.546092 24.985462,34.161645 C 23.394725,34.161645 21.803988,36.560114 21.803988,37.392750 C 21.803988,39.008303 24.190093,41.431632 25.780830,41.431632 C 26.600677,41.431632 28.962304,39.816079 28.962304,38.200527 C 30.553041,39.816079 32.143778,41.431632 33.734515,43.047185 C 32.143778,44.662737 30.553041,46.278290 28.962304,47.893843 C 30.553041,47.893843 32.143778,49.770369 32.143778,51.124948 C 32.143778,52.740501 30.553041,54.356054 28.962304,54.356054 C 27.628533,54.356054 25.780830,52.740501 25.780830,51.124948 C 23.924970,53.009760 22.069111,54.894571 20.213251,56.779383 C 18.622511,55.163830 17.031776,53.548277 15.441040,51.932725 C 17.031776,51.932725 18.740345,49.778654 18.622511,48.701619 C 18.622511,47.086066 16.236412,44.662737 14.645669,44.662737 C 13.452623,44.528108 11.464198,46.278290 11.464198,47.893843 C 9.8734622,46.278290 8.2827272,44.662737 6.6919842,43.047185 C 8.5478482,41.162373 10.403705,39.277563 12.259569,37.392750 C 10.668826,37.392750 9.2106522,35.373309 9.0780912,34.161645 C 9.0780912,32.546092 10.668826,30.930539 12.259569,30.930539 C 13.585184,31.080127 15.441040,32.546092 15.441040,34.161645 z "
     id="path620"
     sodipodi:nodetypes="cccsscccssccccccccccc" />
  <path
     style="fill:url(#linearGradient1357);fill-opacity:1.0000000;fill-rule:evenodd;stroke:none;stroke-width:1.0000000pt;stroke-linecap:butt;stroke-linejoin:miter;stroke-opacity:1.0000000"
     d="M 22.905525,25.853964 C 22.724502,25.768168 22.621136,24.046350 23.046489,23.634932 C 23.607886,23.091928 25.661355,22.893812 25.865776,22.990696 C 26.013766,23.060835 24.599358,23.656606 24.103722,24.136004 C 23.612607,24.611028 23.076913,25.935193 22.905525,25.853964 z "
     id="path621"
     sodipodi:nodetypes="cssss" />
  <path
     style="fill:url(#linearGradient624);fill-opacity:1.0000000;fill-rule:evenodd;stroke:none;stroke-width:1.0000000pt;stroke-linecap:butt;stroke-linejoin:miter;stroke-opacity:1.0000000"
     d="M 28.050723,20.342174 C 27.803087,20.090675 27.303842,17.415524 27.909758,16.906253 C 28.666498,16.270216 31.898624,16.662443 32.138689,16.906253 C 32.321518,17.091933 29.959745,17.538038 29.178438,18.194724 C 28.597090,18.683345 28.225980,20.520165 28.050723,20.342174 z "
     id="path623"
     sodipodi:nodetypes="cssss" />
  <path
     style="fill:url(#linearGradient626);fill-opacity:1.0000000;fill-rule:evenodd;stroke:none;stroke-width:1.0000000pt;stroke-linecap:butt;stroke-linejoin:miter;stroke-opacity:1.0000000"
     d="M 40.385102,21.201155 C 40.157434,21.008471 41.072854,18.558765 41.019441,17.192579 C 40.985126,16.222873 45.003356,16.913632 45.248371,17.120998 C 45.426248,17.271541 43.058265,17.578366 42.358602,18.123142 C 41.648623,18.675951 40.580326,21.366380 40.385102,21.201155 z "
     id="path625"
     sodipodi:nodetypes="cssss" />
  <path
     style="fill:url(#linearGradient628);fill-opacity:1.0000000;fill-rule:evenodd;stroke:none;stroke-width:1.0000000pt;stroke-linecap:butt;stroke-linejoin:miter;stroke-opacity:1.0000000"
     d="M 28.050723,34.515350 C 27.884693,34.281876 27.644082,28.516920 27.839276,26.712944 C 27.879023,26.345609 28.882751,28.352734 28.896509,28.860396 C 28.953233,30.953536 28.190116,34.711367 28.050723,34.515350 z "
     id="path627"
     sodipodi:nodetypes="csss" />
  <path
     style="fill:url(#linearGradient630);fill-opacity:1.0000000;fill-rule:evenodd;stroke:none;stroke-width:1.0000000pt;stroke-linecap:butt;stroke-linejoin:miter;stroke-opacity:1.0000000"
     d="M 40.455584,30.506774 C 40.883720,31.677060 41.018762,33.517186 40.948960,34.586932 C 40.949105,34.815057 41.853090,34.082058 41.794745,33.513206 C 41.735621,32.936750 40.366803,30.298397 40.455584,30.506774 z "
     id="path629"
     sodipodi:nodetypes="csss" />
  <path
     style="fill:url(#linearGradient632);fill-opacity:1.0000000;fill-rule:evenodd;stroke:none;stroke-width:1.0000000pt;stroke-linecap:butt;stroke-linejoin:miter;stroke-opacity:1.0000000"
     d="M 46.235122,24.136004 C 45.990306,24.050268 47.576539,23.123789 48.279104,23.062278 C 48.939194,23.004487 50.558210,23.654584 50.323087,23.778095 C 49.876883,24.012492 46.671634,24.288874 46.235122,24.136004 z "
     id="path631"
     sodipodi:nodetypes="csss" />
  <path
     style="fill:url(#linearGradient622);fill-opacity:1.0000000;fill-rule:evenodd;stroke:none;stroke-width:1.0000000pt;stroke-linecap:butt;stroke-linejoin:miter;stroke-opacity:1.0000000"
     d="M 10.295261,34.863628 C 9.7618252,33.990433 10.363282,32.698105 10.788632,32.286687 C 11.350033,31.743683 12.487233,31.545567 13.185029,32.071942 C 13.322472,32.161521 11.989088,32.666269 11.493455,33.145667 C 11.002344,33.620691 10.384925,35.032751 10.295261,34.863628 z "
     id="path633"
     sodipodi:nodetypes="cssss" />
  <path
     style="fill:url(#linearGradient635);fill-opacity:1.0000000;fill-rule:evenodd;stroke:none;stroke-width:1.0000000pt;stroke-linecap:butt;stroke-linejoin:miter;stroke-opacity:1.0000000"
     d="M 16.568169,34.004648 C 16.663914,33.685164 18.891920,31.202910 20.092279,30.711889 C 20.583491,30.510954 21.722521,31.663038 21.642887,31.928779 C 21.558063,32.211831 20.238037,32.096825 19.598902,32.358269 C 18.546469,32.788780 16.499452,34.233957 16.568169,34.004648 z "
     id="path949"
     sodipodi:nodetypes="cssss" />
  <path
     style="fill:url(#linearGradient637);fill-opacity:1.0000000;fill-rule:evenodd;stroke:none;stroke-width:1.0000000pt;stroke-linecap:butt;stroke-linejoin:miter;stroke-opacity:1.0000000"
     d="M 26.083263,42.093379 C 25.939147,42.093379 27.498373,41.608463 27.915800,41.234398 C 28.297171,40.892646 28.825965,39.792924 29.184479,39.802764 C 29.695245,39.816785 30.889806,40.960747 30.946532,41.234398 C 30.983783,41.414098 30.158875,41.008434 29.677854,41.091236 C 28.772726,41.247040 26.315052,42.093379 26.083263,42.093379 z "
     id="path636"
     sodipodi:nodetypes="csssss" />
  <path
     style="fill:url(#linearGradient639);fill-opacity:1.0000000;fill-rule:evenodd;stroke:none;stroke-width:1.0000000pt;stroke-linecap:butt;stroke-linejoin:miter;stroke-opacity:1.0000000"
     d="M 27.986281,48.750478 C 27.837235,48.567237 29.323412,48.734924 29.818818,49.036804 C 30.380645,49.379159 31.379373,50.717775 31.157979,50.683183 C 30.768528,50.622333 28.283621,49.116030 27.986281,48.750478 z "
     id="path638"
     sodipodi:nodetypes="csss" />
  <path
     style="fill:url(#linearGradient641);fill-opacity:1.0000000;fill-rule:evenodd;stroke:none;stroke-width:1.0000000pt;stroke-linecap:butt;stroke-linejoin:miter;stroke-opacity:1.0000000"
     d="M 16.850098,52.329562 C 16.717178,52.183315 18.316794,51.156515 18.753115,50.396856 C 19.139084,49.724881 19.198584,47.904404 19.316973,48.034661 C 19.480513,48.214590 19.745830,50.723931 19.316973,51.470582 C 18.923540,52.155565 16.999107,52.493503 16.850098,52.329562 z "
     id="path952"
     sodipodi:nodetypes="cssss" />
  <path
     style="fill:url(#linearGradient643);fill-opacity:1.0000000;fill-rule:evenodd;stroke:none;stroke-width:1.0000000pt;stroke-linecap:butt;stroke-linejoin:miter;stroke-opacity:1.0000000"
     d="M 9.6609162,42.666033 C 9.4038472,42.917618 7.6248462,43.287038 7.8283862,42.952360 C 8.6115972,41.664519 12.260477,38.410980 12.409720,38.585876 C 12.565896,38.768889 10.696025,41.653008 9.6609162,42.666033 z "
     id="path642"
     sodipodi:nodetypes="csss" />
  <metadata
     id="metadata59">
    <rdf:RDF>
      <cc:Work
         rdf:about="">
        <dc:format>image/svg+xml</dc:format>
        <dc:type
           rdf:resource="http://purl.org/dc/dcmitype/StillImage" />
      </cc:Work>
    </rdf:RDF>
  </metadata>
</svg>
