<?xml version="1.0" encoding="UTF-8" standalone="no"?>
<!DOCTYPE svg PUBLIC "-//W3C//DTD SVG 20010904//EN"
"http://www.w3.org/TR/2001/REC-SVG-20010904/DTD/svg10.dtd">
<!-- Created with Inkscape (http://www.inkscape.org/) -->
<svg
   version="1.0"
   x="0"
   y="0"
   width="48pt"
   height="48pt"
   id="svg1418"
   sodipodi:version="0.32"
   inkscape:version="0.37"
   sodipodi:docname="txt.svg"
   sodipodi:docbase="/home/tom/Pics/lilasvg/scalable/mimetypes"
   xmlns="http://www.w3.org/2000/svg"
   xmlns:inkscape="http://www.inkscape.org/namespaces/inkscape"
   xmlns:sodipodi="http://sodipodi.sourceforge.net/DTD/sodipodi-0.dtd"
   xmlns:xlink="http://www.w3.org/1999/xlink">
  <sodipodi:namedview
     id="base"
     pagecolor="#ffffff"
     bordercolor="#666666"
     borderopacity="1.0"
     inkscape:pageopacity="0.0"
     inkscape:pageshadow="2"
     inkscape:zoom="4.91194112"
     inkscape:cx="17.4576556"
     inkscape:cy="24.0376027"
     inkscape:window-width="640"
     inkscape:window-height="501"
     inkscape:window-x="155"
     inkscape:window-y="70" />
  <defs
     id="defs1420">
    <linearGradient
       id="linearGradient621">
      <stop
         style="stop-color:#ffffff;stop-opacity:1;"
         offset="0.00000000"
         id="stop622" />
      <stop
         style="stop-color:#d9cce6;stop-opacity:1;"
         offset="1.00000000"
         id="stop623" />
    </linearGradient>
    <linearGradient
       id="linearGradient1439">
      <stop
         style="stop-color:#ffffff;stop-opacity:1;"
         offset="0"
         id="stop1440" />
      <stop
         style="stop-color:#ffffff;stop-opacity:0;"
         offset="1"
         id="stop1441" />
    </linearGradient>
    <linearGradient
       id="linearGradient1432">
      <stop
         style="stop-color:#7f7f7f;stop-opacity:1;"
         offset="0"
         id="stop1433" />
      <stop
         style="stop-color:#e6e6e6;stop-opacity:1;"
         offset="1"
         id="stop1434" />
    </linearGradient>
    <linearGradient
       id="linearGradient1428">
      <stop
         style="stop-color:#f50000;stop-opacity:1;"
         offset="0.00000000"
         id="stop1429" />
      <stop
         style="stop-color:#a90000;stop-opacity:1;"
         offset="1.00000000"
         id="stop1430" />
    </linearGradient>
    <linearGradient
       id="linearGradient1422">
      <stop
         style="stop-color:#d7a600;stop-opacity:1;"
         offset="0.00000000"
         id="stop1423" />
      <stop
         style="stop-color:#fff300;stop-opacity:1;"
         offset="1.00000000"
         id="stop1424" />
    </linearGradient>
    <linearGradient
       x1="0.64516127"
       y1="0.66406250"
       x2="0.32258064"
       y2="0.32031250"
       id="linearGradient1425"
       xlink:href="#linearGradient1422" />
    <linearGradient
       x1="0.01923077"
       y1="0.00781250"
       x2="0.98076922"
       y2="0.98437500"
       id="linearGradient1427"
       xlink:href="#linearGradient1428" />
    <linearGradient
       x1="0.98101264"
       y1="0.92187500"
       x2="0.01898734"
       y2="0.02343750"
       id="linearGradient1435"
       xlink:href="#linearGradient1432" />
    <linearGradient
       x1="0.015748"
       y1="0.023437"
       x2="0.984252"
       y2="0.984375"
       id="linearGradient1438"
       xlink:href="#linearGradient1439" />
    <linearGradient
       id="linearGradient1443"
       xlink:href="#linearGradient1439"
       x1="0.00000000"
       y1="0.00000000"
       x2="0.98437500"
       y2="1.00781250" />
    <linearGradient
       xlink:href="#linearGradient621"
       id="linearGradient620"
       x1="0.00000000"
       y1="-0.00000000"
       x2="1.00877190"
       y2="0.99218750" />
  </defs>
  <path
     d="M 3.9230986 47.466839 C 4.6364073 49.597913 34.175178 59.180286 36.114614 57.572268 C 37.850615 56.117789 50.840287 12.82513 49.970538 11.108181 C 49.066465 9.215247 19.097346 4.5002744 17.67484 5.7949886 C 15.922617 7.3991396 3.1739413 45.021709 3.9230986 47.466839 z "
     style="font-size:12;opacity:0.302675;fill-rule:evenodd;stroke-width:12.5;"
     id="path639" />
  <path
     d="M 4.0246422 45.703028 C 4.6920321 47.696809 32.327786 56.661857 34.14227 55.157431 C 35.76643 53.796656 47.919274 13.293049 47.105561 11.686678 C 46.259728 9.9156919 18.221315 5.5045082 16.890452 6.7158123 C 15.251114 8.2166194 3.3237473 43.415422 4.0246422 45.703028 z "
     style="font-size:12;fill:url(#linearGradient620);fill-rule:evenodd;stroke:#261933;stroke-width:1.875;stroke-dasharray:none;"
     id="path634" />
  <path
     d="M 5.9048899 43.835426 C 5.6164728 43.104741 17.076275 9.1313354 18.147639 8.430714 C 19.486619 7.516933 41.132159 11.56207 41.419898 12.29104 C 41.683634 12.959164 24.531955 9.839367 20.716101 13.252549 C 13.397627 19.614898 6.1679485 44.501871 5.9048899 43.835426 z "
     style="font-size:12;opacity:0.699936;fill:url(#linearGradient1443);fill-rule:evenodd;stroke:none;stroke-width:0.100121pt;"
     id="path640" />
  <path
     d="M 15.508198 42.573513 C 16.158993 43.168444 19.116745 42.479623 20.305273 41.367412 C 27.374669 34.751826 36.015352 26.40341 40.282023 19.390188 C 41.097167 18.050296 36.856586 15.292779 35.550664 16.308013 C 28.927197 21.457159 22.227522 30.369378 16.493912 37.883241 C 15.546719 39.124544 14.88854 42.007052 15.508198 42.573513 z "
     style="font-size:12;opacity:0.3;fill:#3f3f19;fill-rule:evenodd;stroke-width:12.5;"
     id="path1442" />
  <path
     d="M 14.391049 41.702456 C 15.041846 42.297388 17.999595 41.608567 19.188124 40.496355 C 26.257521 33.88077 34.898203 25.532354 39.164869 18.519132 C 39.980021 17.179239 35.739438 14.421728 34.433515 15.436961 C 27.81005 20.586102 21.110373 29.49832 15.376763 37.012185 C 14.42957 38.253488 13.771386 41.135996 14.391049 41.702456 z "
     style="font-size:12;fill:url(#linearGradient1425);fill-rule:evenodd;stroke:#3f3f19;stroke-width:1.46112;"
     id="path1421" />
  <path
     d="M 31.952884 18.016622 C 32.00123 18.521622 36.176484 21.526997 36.717047 21.46729 C 36.898046 21.458517 38.952287 18.363098 38.934913 18.15064 C 38.820908 16.957839 36.529441 15.575371 35.090692 15.55421 C 34.272716 15.542042 31.937679 17.874568 31.952884 18.016622 z "
     style="font-size:12;fill:url(#linearGradient1427);fill-rule:evenodd;stroke-width:1pt;"
     id="path1426" />
  <path
     d="M 29.908416 20.035543 C 29.959648 20.570764 34.385003 23.756169 34.957926 23.692896 C 35.149752 23.683614 36.862411 21.539901 36.843929 21.314709 C 36.723097 20.050428 33.495867 17.876719 31.979585 17.94684 C 31.668254 17.956518 29.892317 19.885 29.908416 20.035543 z "
     style="font-size:12;fill:url(#linearGradient1435);fill-rule:evenodd;stroke:#3f3f19;stroke-width:0.876671;"
     id="path1431" />
  <ellipse
     cx="152.361847"
     cy="565.562134"
     rx="26.788887"
     ry="26.788879"
     transform="matrix(6.466874e-2,0.000000,0.000000,6.593896e-2,4.734945,4.345925)"
     style="font-size:12;fill:#3f3f19;fill-rule:evenodd;stroke-width:1pt;"
     id="path1436" />
  <path
     d="M 15.376763 39.357318 C 18.226778 34.185534 27.675671 22.389168 34.76216 16.240987 C 35.539287 15.487727 37.959359 17.099723 37.98206 17.447048 C 38.003148 17.769753 35.652795 17.515245 34.893593 18.251096 C 28.117658 24.818688 17.795559 35.898163 15.376763 39.357318 z "
     style="font-size:12;opacity:0.990000;fill:url(#linearGradient1438);fill-rule:evenodd;stroke:none;stroke-width:0.106874pt;"
     id="path1437" />
</svg>
