<?xml version="1.0" encoding="UTF-8" standalone="no"?>
<!DOCTYPE svg PUBLIC "-//W3C//DTD SVG 20010904//EN"
"http://www.w3.org/TR/2001/REC-SVG-20010904/DTD/svg10.dtd">
<!-- Created with Inkscape (http://www.inkscape.org/) -->
<svg
   version="1.0"
   x="0"
   y="0"
   width="16.000000pt"
   height="16.000000pt"
   id="svg1"
   sodipodi:version="0.32"
   inkscape:version="0.39"
   sodipodi:docname="sad.svg"
   sodipodi:docbase="/home/scaba/files/lila/lila-smilies"
   xmlns="http://www.w3.org/2000/svg"
   xmlns:cc="http://web.resource.org/cc/"
   xmlns:inkscape="http://www.inkscape.org/namespaces/inkscape"
   xmlns:sodipodi="http://sodipodi.sourceforge.net/DTD/sodipodi-0.dtd"
   xmlns:rdf="http://www.w3.org/1999/02/22-rdf-syntax-ns#"
   xmlns:dc="http://purl.org/dc/elements/1.1/"
   xmlns:xlink="http://www.w3.org/1999/xlink">
  <sodipodi:namedview
     id="base"
     pagecolor="#ffffff"
     bordercolor="#666666"
     borderopacity="1.0"
     inkscape:pageopacity="0.0"
     inkscape:pageshadow="2"
     inkscape:zoom="33.125000"
     inkscape:cx="8.0000000"
     inkscape:cy="8.0000000"
     inkscape:window-width="1022"
     inkscape:window-height="695"
     inkscape:window-x="0"
     inkscape:window-y="26"
     showguides="true"
     inkscape:guide-bbox="true" />
  <defs
     id="defs3">
    <linearGradient
       id="linearGradient826">
      <stop
         style="stop-color:#d9cce6;stop-opacity:1.0000000;"
         offset="0.0000000"
         id="stop827" />
      <stop
         style="stop-color:#73667f;stop-opacity:1.0000000;"
         offset="1.0000000"
         id="stop828" />
    </linearGradient>
    <radialGradient
       xlink:href="#linearGradient826"
       id="radialGradient830"
       cx="0.50000000"
       cy="0.50000000"
       r="0.50000000"
       fx="0.50000000"
       fy="0.50000000" />
    <linearGradient
       id="linearGradient1018">
      <stop
         offset="0.0000000"
         style="stop-color:#ffffff;stop-opacity:1.0000000;"
         id="stop1020" />
      <stop
         offset="1.0000000"
         style="stop-color:#ffffff;stop-opacity:0.0000000;"
         id="stop1019" />
    </linearGradient>
    <linearGradient
       id="linearGradient834">
      <stop
         style="stop-color:#d9cce6;stop-opacity:1.0000000;"
         offset="0.0000000"
         id="stop835" />
      <stop
         style="stop-color:#ffffff;stop-opacity:1.0000000;"
         offset="1.0000000"
         id="stop836" />
    </linearGradient>
    <linearGradient
       xlink:href="#linearGradient834"
       id="linearGradient829"
       x1="0.53125000"
       y1="0.98067635"
       x2="0.53125000"
       y2="-9.8346187e-05" />
    <linearGradient
       id="linearGradient570">
      <stop
         style="stop-color:#ffffff;stop-opacity:1;"
         offset="0"
         id="stop571" />
      <stop
         style="stop-color:#ffffff;stop-opacity:0;"
         offset="1"
         id="stop572" />
    </linearGradient>
    <linearGradient
       id="linearGradient563">
      <stop
         style="stop-color:#d9cce6;stop-opacity:1;"
         offset="0"
         id="stop564" />
      <stop
         style="stop-color:#73667f;stop-opacity:1;"
         offset="1"
         id="stop565" />
    </linearGradient>
    <linearGradient
       x1="0.00000000"
       y1="0.00000000"
       x2="0.98461539"
       y2="0.99218750"
       id="linearGradient566"
       xlink:href="#linearGradient563" />
    <linearGradient
       x1="0.97692311"
       y1="0.99218750"
       x2="0.01538463"
       y2="0.00781249"
       id="linearGradient569"
       xlink:href="#linearGradient570" />
    <linearGradient
       x1="0.00000000"
       y1="-0.00000000"
       x2="0.99285716"
       y2="0.97656250"
       id="linearGradient573"
       xlink:href="#linearGradient570" />
    <linearGradient
       x1="0.00000000"
       y1="-0.00000000"
       x2="0.97826087"
       y2="0.99218750"
       id="linearGradient575"
       xlink:href="#linearGradient570" />
    <linearGradient
       x1="0.00000000"
       y1="0.00000000"
       x2="1.00000000"
       y2="0.00000000"
       id="linearGradient578"
       xlink:href="#linearGradient563" />
  </defs>
  <metadata
     id="metadata967">
    <rdf:RDF
       id="RDF968">
      <cc:Work
         rdf:about=""
         id="Work969">
        <dc:format
           id="format970">image/svg+xml</dc:format>
        <dc:type
           id="type972"
           rdf:resource="http://purl.org/dc/dcmitype/StillImage" />
      </cc:Work>
    </rdf:RDF>
  </metadata>
  <g
     transform="matrix(0.335767,0.000000,0.000000,0.335767,-0.386698,-0.250748)"
     style="font-size:12.000000;opacity:0.29999998;stroke:#000000;"
     id="g994">
    <ellipse
       cx="47.595680"
       cy="41.555550"
       rx="28.881311"
       ry="28.881311"
       transform="matrix(0.917566,0.000000,0.000000,0.917566,-11.48724,-5.833475)"
       style="fill-rule:evenodd;stroke-width:2.0541799;"
       id="ellipse995"
       d="M 76.476992 41.555550 A 28.881311 28.881311 0 1 0 18.714369,41.555550 A 28.881311 28.881311 0 1 0 76.476992 41.555550 z"
       sodipodi:cx="47.595680"
       sodipodi:cy="41.555550"
       sodipodi:rx="28.881311"
       sodipodi:ry="28.881311" />
    <ellipse
       cx="42.107330"
       cy="34.267742"
       rx="21.773449"
       ry="21.773449"
       transform="matrix(0.934849,0.000000,0.000000,0.934849,-7.035911,0.205833)"
       style="fill-rule:evenodd;stroke-width:1.0000000pt;"
       id="ellipse996"
       d="M 63.880779 34.267742 A 21.773449 21.773449 0 1 0 20.333881,34.267742 A 21.773449 21.773449 0 1 0 63.880779 34.267742 z"
       sodipodi:cx="42.107330"
       sodipodi:cy="34.267742"
       sodipodi:rx="21.773449"
       sodipodi:ry="21.773449" />
  </g>
  <ellipse
     cx="47.595680"
     cy="41.555550"
     rx="28.881311"
     ry="28.881311"
     transform="matrix(0.308089,0.000000,0.000000,0.308089,-4.587159,-2.781808)"
     style="font-size:12.000000;fill:url(#linearGradient566);fill-opacity:0.75000000;fill-rule:evenodd;stroke:#261933;stroke-width:2.0541799;"
     id="ellipse997"
     d="M 76.476992 41.555550 A 28.881311 28.881311 0 1 0 18.714369,41.555550 A 28.881311 28.881311 0 1 0 76.476992 41.555550 z"
     sodipodi:cx="47.595680"
     sodipodi:cy="41.555550"
     sodipodi:rx="28.881311"
     sodipodi:ry="28.881311" />
  <path
     sodipodi:type="arc"
     style="fill:url(#radialGradient830);fill-rule:evenodd;stroke-width:1.8750000;"
     id="path998"
     sodipodi:cx="30.937500"
     sodipodi:cy="30.000000"
     sodipodi:rx="21.250000"
     sodipodi:ry="21.250000"
     d="M 52.187500 30.000000 A 21.250000 21.250000 0 1 0 9.6875000,30.000000 A 21.250000 21.250000 0 1 0 52.187500 30.000000 z"
     transform="matrix(0.405515,0.000000,0.000000,0.405515,-2.470592,-2.156303)" />
  <path
     d="M 17.170176,12.541549 C 16.731095,13.595341 15.955813,14.723515 15.124577,15.501466 C 14.344130,16.231885 13.430244,16.705063 12.397114,17.082155 C 13.543889,17.040830 14.846948,16.657339 15.651474,15.904386 C 16.458632,15.148971 17.108188,13.822630 17.170176,12.541549 z "
     style="font-size:12.000000;fill:url(#linearGradient575);fill-opacity:0.75000000;fill-rule:evenodd;stroke-width:1.0000000pt;"
     id="path999" />
  <path
     sodipodi:type="arc"
     style="fill:#d9cce6;fill-opacity:1.0000000;fill-rule:evenodd;stroke:#261933;stroke-width:1.0000000pt;"
     id="path1000"
     sodipodi:cx="19.687500"
     sodipodi:cy="23.750000"
     sodipodi:rx="2.1875000"
     sodipodi:ry="4.3750000"
     d="M 21.875000 23.750000 A 2.1875000 4.3750000 0 1 0 17.500000,23.750000 A 2.1875000 4.3750000 0 1 0 21.875000 23.750000 z"
     transform="matrix(0.546351,0.000000,0.000000,0.546329,-4.316452,-6.049176)" />
  <path
     d="M 2.4751476,10.661057 C 2.5387445,8.3588595 3.5943631,5.6495625 5.0698897,4.2123606 C 6.5325267,2.7877146 9.2927057,2.1772694 11.862007,2.4189365 C 9.7251607,3.1375782 7.4140487,3.9497259 5.8712067,5.4524945 C 4.4758855,6.8115735 3.1238331,8.7467985 2.4751476,10.661057 z "
     style="font-size:12.000000;fill:url(#linearGradient573);fill-opacity:0.75000000;fill-rule:evenodd;stroke-width:1.0000000pt;"
     id="path1001" />
  <path
     sodipodi:type="arc"
     style="fill:#d9cce6;fill-opacity:1.0000000;fill-rule:evenodd;stroke:#261933;stroke-width:1.0000000pt;"
     id="path1002"
     sodipodi:cx="19.687500"
     sodipodi:cy="23.750000"
     sodipodi:rx="2.1875000"
     sodipodi:ry="4.3750000"
     d="M 21.875000 23.750000 A 2.1875000 4.3750000 0 1 0 17.500000,23.750000 A 2.1875000 4.3750000 0 1 0 21.875000 23.750000 z"
     transform="matrix(0.546351,0.000000,0.000000,0.546329,2.671055,-6.044147)" />
  <path
     style="fill:#d9cce6;fill-rule:evenodd;stroke:#261933;stroke-width:0.42926803pt;stroke-linejoin:round;"
     d="M 14.010254,14.913466 C 15.121399,15.996587 12.214589,11.006369 10.002076,11.006369 C 7.7895607,11.006369 4.6330284,15.679347 5.9938967,14.913466 C 7.4219167,13.521458 12.661517,13.598741 14.010254,14.913466 z "
     id="path1598"
     sodipodi:nodetypes="ccss" />
</svg>
