<?xml version="1.0" encoding="UTF-8" standalone="no"?>
<!DOCTYPE svg PUBLIC "-//W3C//DTD SVG 20010904//EN"
"http://www.w3.org/TR/2001/REC-SVG-20010904/DTD/svg10.dtd">
<!-- Created with Inkscape (http://www.inkscape.org/) -->
<svg
   version="1.0"
   x="0"
   y="0"
   width="16.000000pt"
   height="16.000000pt"
   id="svg1"
   sodipodi:version="0.32"
   inkscape:version="0.39"
   sodipodi:docname="cool.svg"
   sodipodi:docbase="/home/scaba/files/lila/lila-smilies"
   xmlns="http://www.w3.org/2000/svg"
   xmlns:cc="http://web.resource.org/cc/"
   xmlns:inkscape="http://www.inkscape.org/namespaces/inkscape"
   xmlns:sodipodi="http://sodipodi.sourceforge.net/DTD/sodipodi-0.dtd"
   xmlns:rdf="http://www.w3.org/1999/02/22-rdf-syntax-ns#"
   xmlns:dc="http://purl.org/dc/elements/1.1/"
   xmlns:xlink="http://www.w3.org/1999/xlink">
  <sodipodi:namedview
     id="base"
     pagecolor="#ffffff"
     bordercolor="#666666"
     borderopacity="1.0"
     inkscape:pageopacity="0.0"
     inkscape:pageshadow="2"
     inkscape:zoom="33.125000"
     inkscape:cx="8.0000000"
     inkscape:cy="8.0000000"
     inkscape:window-width="1022"
     inkscape:window-height="695"
     inkscape:window-x="0"
     inkscape:window-y="26"
     showguides="true"
     inkscape:guide-bbox="true" />
  <defs
     id="defs3">
    <linearGradient
       id="linearGradient826">
      <stop
         style="stop-color:#d9cce6;stop-opacity:1.0000000;"
         offset="0.0000000"
         id="stop827" />
      <stop
         style="stop-color:#73667f;stop-opacity:1.0000000;"
         offset="1.0000000"
         id="stop828" />
    </linearGradient>
    <radialGradient
       xlink:href="#linearGradient826"
       id="radialGradient830"
       cx="0.50000000"
       cy="0.50000000"
       r="0.50000000"
       fx="0.50000000"
       fy="0.50000000" />
    <linearGradient
       id="linearGradient1018">
      <stop
         offset="0.0000000"
         style="stop-color:#ffffff;stop-opacity:1.0000000;"
         id="stop1020" />
      <stop
         offset="1.0000000"
         style="stop-color:#ffffff;stop-opacity:0.0000000;"
         id="stop1019" />
    </linearGradient>
    <linearGradient
       id="linearGradient834">
      <stop
         style="stop-color:#d9cce6;stop-opacity:1.0000000;"
         offset="0.0000000"
         id="stop835" />
      <stop
         style="stop-color:#ffffff;stop-opacity:1.0000000;"
         offset="1.0000000"
         id="stop836" />
    </linearGradient>
    <linearGradient
       xlink:href="#linearGradient834"
       id="linearGradient829"
       x1="0.53125000"
       y1="0.98067635"
       x2="0.53125000"
       y2="-9.8346187e-05" />
    <linearGradient
       id="linearGradient570">
      <stop
         style="stop-color:#ffffff;stop-opacity:1;"
         offset="0"
         id="stop571" />
      <stop
         style="stop-color:#ffffff;stop-opacity:0;"
         offset="1"
         id="stop572" />
    </linearGradient>
    <linearGradient
       id="linearGradient563">
      <stop
         style="stop-color:#d9cce6;stop-opacity:1;"
         offset="0"
         id="stop564" />
      <stop
         style="stop-color:#73667f;stop-opacity:1;"
         offset="1"
         id="stop565" />
    </linearGradient>
    <linearGradient
       x1="0.00000000"
       y1="0.00000000"
       x2="0.98461539"
       y2="0.99218750"
       id="linearGradient566"
       xlink:href="#linearGradient563" />
    <linearGradient
       x1="0.97692311"
       y1="0.99218750"
       x2="0.01538463"
       y2="0.00781249"
       id="linearGradient569"
       xlink:href="#linearGradient570" />
    <linearGradient
       x1="0.00000000"
       y1="-0.00000000"
       x2="0.99285716"
       y2="0.97656250"
       id="linearGradient573"
       xlink:href="#linearGradient570" />
    <linearGradient
       x1="0.00000000"
       y1="-0.00000000"
       x2="0.97826087"
       y2="0.99218750"
       id="linearGradient575"
       xlink:href="#linearGradient570" />
    <linearGradient
       x1="0.00000000"
       y1="0.00000000"
       x2="1.00000000"
       y2="0.00000000"
       id="linearGradient578"
       xlink:href="#linearGradient563" />
  </defs>
  <g
     transform="matrix(0.336782,0.000000,0.000000,0.336782,-0.443786,-0.283011)"
     style="font-size:12.000000;opacity:0.29999998;stroke:#000000;"
     id="g677">
    <ellipse
       cx="47.595680"
       cy="41.555550"
       rx="28.881311"
       ry="28.881311"
       transform="matrix(0.917566,0.000000,0.000000,0.917566,-11.48724,-5.833475)"
       style="fill-rule:evenodd;stroke-width:2.0541799;"
       id="path675"
       d="M 76.476992 41.555550 A 28.881311 28.881311 0 1 0 18.714369,41.555550 A 28.881311 28.881311 0 1 0 76.476992 41.555550 z"
       sodipodi:cx="47.595680"
       sodipodi:cy="41.555550"
       sodipodi:rx="28.881311"
       sodipodi:ry="28.881311" />
    <ellipse
       cx="42.107330"
       cy="34.267742"
       rx="21.773449"
       ry="21.773449"
       transform="matrix(0.934849,0.000000,0.000000,0.934849,-7.035911,0.205833)"
       style="fill-rule:evenodd;stroke-width:1.0000000pt;"
       id="path676"
       d="M 63.880779 34.267742 A 21.773449 21.773449 0 1 0 20.333881,34.267742 A 21.773449 21.773449 0 1 0 63.880779 34.267742 z"
       sodipodi:cx="42.107330"
       sodipodi:cy="34.267742"
       sodipodi:rx="21.773449"
       sodipodi:ry="21.773449" />
  </g>
  <ellipse
     cx="47.595680"
     cy="41.555550"
     rx="28.881311"
     ry="28.881311"
     transform="matrix(0.309021,0.000000,0.000000,0.309021,-4.656953,-2.821725)"
     style="font-size:12.000000;fill:url(#linearGradient566);fill-opacity:0.75000000;fill-rule:evenodd;stroke:#261933;stroke-width:2.0541799;"
     id="path594"
     d="M 76.476992 41.555550 A 28.881311 28.881311 0 1 0 18.714369,41.555550 A 28.881311 28.881311 0 1 0 76.476992 41.555550 z"
     sodipodi:cx="47.595680"
     sodipodi:cy="41.555550"
     sodipodi:rx="28.881311"
     sodipodi:ry="28.881311" />
  <metadata
     id="metadata967">
    <rdf:RDF
       id="RDF968">
      <cc:Work
         rdf:about=""
         id="Work969">
        <dc:format
           id="format970">image/svg+xml</dc:format>
        <dc:type
           id="type972"
           rdf:resource="http://purl.org/dc/dcmitype/StillImage" />
      </cc:Work>
    </rdf:RDF>
  </metadata>
  <path
     sodipodi:type="arc"
     style="fill:url(#radialGradient830);fill-rule:evenodd;stroke-width:1.8750000;"
     id="path825"
     sodipodi:cx="30.937500"
     sodipodi:cy="30.000000"
     sodipodi:rx="21.250000"
     sodipodi:ry="21.250000"
     d="M 52.187500 30.000000 A 21.250000 21.250000 0 1 0 9.6875000,30.000000 A 21.250000 21.250000 0 1 0 52.187500 30.000000 z"
     transform="matrix(0.406742,0.000000,0.000000,0.406742,-2.533983,-2.194325)" />
  <path
     sodipodi:type="arc"
     style="fill:#261933;fill-rule:evenodd;stroke:#261933;stroke-width:0.50000000;stroke-linejoin:round;"
     id="path839"
     sodipodi:cx="19.687500"
     sodipodi:cy="23.750000"
     sodipodi:rx="2.1875000"
     sodipodi:ry="4.3750000"
     d="M 21.875000 23.750000 A 2.1875000 4.3750000 0 1 0 17.500000,23.750000 A 2.1875000 4.3750000 0 1 0 21.875000 23.750000 z"
     transform="matrix(1.061506,0.000000,0.000000,0.417826,-7.245770,-3.093178)" />
  <path
     style="fill:#261933;stroke:#261933;stroke-width:0.42109862;stroke-linejoin:round;stroke-dashoffset:0.0000000;"
     id="path847"
     d="M 8.4090879,6.5998221 C 9.1764929,6.5706051 9.3374919,6.2839291 10.047260,6.2839291 C 10.754148,6.2839291 11.020988,6.6157321 11.746304,6.6462181 L 11.752330,7.1597231 C 11.135232,7.2118051 10.708526,6.7972351 10.037921,6.7972351 C 9.3585429,6.7972351 9.0950189,7.0956901 8.4090879,7.1784031 L 8.4090879,6.5998221 z "
     sodipodi:nodetypes="ccccccc" />
  <path
     style="fill:#d9cce6;fill-rule:evenodd;stroke:#261933;stroke-width:0.52637327;stroke-linejoin:round;"
     d="M 10.073563,16.025947 C 6.6247949,16.025947 3.5863755,11.298864 4.8387703,11.298864 C 6.0911659,11.298864 7.0738529,11.869643 9.9772999,11.869643 C 12.761329,11.869643 14.251804,11.298864 15.255135,11.298864 C 16.258465,11.298864 13.576627,16.025947 10.073563,16.025947 z "
     id="path1543"
     sodipodi:nodetypes="czzzz" />
  <path
     style="fill:#261933;stroke:#261933;stroke-width:0.42109862;stroke-linejoin:round;"
     id="path1592"
     d="M 15.653048,6.9065151 C 16.110335,6.4778301 16.476672,6.1063941 16.702365,5.9015661 C 17.205774,5.4544081 17.629790,5.1508411 18.320950,5.1140261 C 18.640600,5.1202441 18.923449,5.1922081 19.204555,5.3438541 L 18.682843,5.7763821 C 18.582108,5.7200601 18.481705,5.6764981 18.365607,5.6674041 C 17.924291,5.6621191 17.441628,5.9419021 17.133053,6.2181831 C 16.997096,6.3443591 16.400631,6.8017871 15.967521,7.2299541 L 15.653048,6.9065151 z "
     sodipodi:nodetypes="ccccccccc" />
  <path
     d="M 17.166195,12.547981 C 16.725787,13.604962 15.948159,14.736548 15.114409,15.516852 C 14.331600,16.249480 13.414952,16.724089 12.378697,17.102322 C 13.528940,17.060872 14.835941,16.676222 15.642900,15.920992 C 16.452498,15.163290 17.104019,13.832937 17.166195,12.547981 z "
     style="font-size:12.000000;fill:url(#linearGradient575);fill-opacity:0.75000000;fill-rule:evenodd;stroke-width:1.0000000pt;"
     id="path596" />
  <path
     sodipodi:type="arc"
     style="fill:#261933;fill-rule:evenodd;stroke:#261933;stroke-width:0.50000000;stroke-linejoin:round;"
     id="path1172"
     sodipodi:cx="19.687500"
     sodipodi:cy="23.750000"
     sodipodi:rx="2.1875000"
     sodipodi:ry="4.3750000"
     d="M 21.875000 23.750000 A 2.1875000 4.3750000 0 1 0 17.500000,23.750000 A 2.1875000 4.3750000 0 1 0 21.875000 23.750000 z"
     transform="matrix(-1.061506,0.000000,0.000000,0.417826,27.33871,-3.135466)" />
  <path
     style="fill:#261933;stroke:#261933;stroke-width:0.42109862;stroke-linejoin:round;"
     id="path1173"
     d="M 4.4398881,6.8642251 C 3.9826009,6.4355401 3.6162653,6.0641051 3.3905710,5.8592761 C 2.8871631,5.4121181 2.4631462,5.1085511 1.7719864,5.0717361 C 1.4523361,5.0779541 1.1694867,5.1499181 0.88838253,5.3015641 L 1.4100925,5.7340931 C 1.5108283,5.6777711 1.6112306,5.6342081 1.7273291,5.6251141 C 2.1686449,5.6198291 2.6513083,5.8996121 2.9598837,6.1758931 C 3.0958402,6.3020691 3.6923059,6.7594971 4.1254163,7.1876651 L 4.4398881,6.8642251 z "
     sodipodi:nodetypes="ccccccccc" />
  <path
     d="M 2.4267182,10.661802 C 2.4905071,8.3526411 3.5493189,5.6351481 5.0293089,4.1935994 C 6.4963699,2.7646441 9.2648969,2.1523526 11.841971,2.3947505 C 9.6986619,3.1155659 7.3805589,3.9301701 5.8330489,5.4374841 C 4.4335080,6.8006751 3.0773658,8.7417541 2.4267182,10.661802 z "
     style="font-size:12.000000;fill:url(#linearGradient573);fill-opacity:0.75000000;fill-rule:evenodd;stroke-width:1.0000000pt;"
     id="path593" />
</svg>
