<?xml version="1.0" encoding="UTF-8" standalone="no"?>
<!DOCTYPE svg PUBLIC "-//W3C//DTD SVG 20010904//EN"
"http://www.w3.org/TR/2001/REC-SVG-20010904/DTD/svg10.dtd">
<!-- Created with Inkscape (http://www.inkscape.org/) -->
<svg
   version="1.0"
   x="0"
   y="0"
   width="16.000000pt"
   height="16.000000pt"
   id="svg1"
   sodipodi:version="0.32"
   inkscape:version="0.39"
   sodipodi:docname="wink.svg"
   sodipodi:docbase="/home/scaba/files/lila/lila-smilies"
   xmlns="http://www.w3.org/2000/svg"
   xmlns:cc="http://web.resource.org/cc/"
   xmlns:inkscape="http://www.inkscape.org/namespaces/inkscape"
   xmlns:sodipodi="http://sodipodi.sourceforge.net/DTD/sodipodi-0.dtd"
   xmlns:rdf="http://www.w3.org/1999/02/22-rdf-syntax-ns#"
   xmlns:dc="http://purl.org/dc/elements/1.1/"
   xmlns:xlink="http://www.w3.org/1999/xlink">
  <sodipodi:namedview
     id="base"
     pagecolor="#ffffff"
     bordercolor="#666666"
     borderopacity="1.0"
     inkscape:pageopacity="0.0"
     inkscape:pageshadow="2"
     inkscape:zoom="33.125000"
     inkscape:cx="8.0000000"
     inkscape:cy="8.0000000"
     inkscape:window-width="1022"
     inkscape:window-height="695"
     inkscape:window-x="0"
     inkscape:window-y="26"
     showguides="true"
     inkscape:guide-bbox="true" />
  <defs
     id="defs3">
    <linearGradient
       id="linearGradient826">
      <stop
         style="stop-color:#d9cce6;stop-opacity:1.0000000;"
         offset="0.0000000"
         id="stop827" />
      <stop
         style="stop-color:#73667f;stop-opacity:1.0000000;"
         offset="1.0000000"
         id="stop828" />
    </linearGradient>
    <radialGradient
       xlink:href="#linearGradient826"
       id="radialGradient830"
       cx="0.50000000"
       cy="0.50000000"
       r="0.50000000"
       fx="0.50000000"
       fy="0.50000000" />
    <linearGradient
       id="linearGradient1018">
      <stop
         offset="0.0000000"
         style="stop-color:#ffffff;stop-opacity:1.0000000;"
         id="stop1020" />
      <stop
         offset="1.0000000"
         style="stop-color:#ffffff;stop-opacity:0.0000000;"
         id="stop1019" />
    </linearGradient>
    <linearGradient
       id="linearGradient834">
      <stop
         style="stop-color:#d9cce6;stop-opacity:1.0000000;"
         offset="0.0000000"
         id="stop835" />
      <stop
         style="stop-color:#ffffff;stop-opacity:1.0000000;"
         offset="1.0000000"
         id="stop836" />
    </linearGradient>
    <linearGradient
       xlink:href="#linearGradient834"
       id="linearGradient829"
       x1="0.53125000"
       y1="0.98067635"
       x2="0.53125000"
       y2="-9.8346187e-05" />
    <linearGradient
       id="linearGradient570">
      <stop
         style="stop-color:#ffffff;stop-opacity:1;"
         offset="0"
         id="stop571" />
      <stop
         style="stop-color:#ffffff;stop-opacity:0;"
         offset="1"
         id="stop572" />
    </linearGradient>
    <linearGradient
       id="linearGradient563">
      <stop
         style="stop-color:#d9cce6;stop-opacity:1;"
         offset="0"
         id="stop564" />
      <stop
         style="stop-color:#73667f;stop-opacity:1;"
         offset="1"
         id="stop565" />
    </linearGradient>
    <linearGradient
       x1="0.00000000"
       y1="0.00000000"
       x2="0.98461539"
       y2="0.99218750"
       id="linearGradient566"
       xlink:href="#linearGradient563" />
    <linearGradient
       x1="0.97692311"
       y1="0.99218750"
       x2="0.01538463"
       y2="0.00781249"
       id="linearGradient569"
       xlink:href="#linearGradient570" />
    <linearGradient
       x1="0.00000000"
       y1="-0.00000000"
       x2="0.99285716"
       y2="0.97656250"
       id="linearGradient573"
       xlink:href="#linearGradient570" />
    <linearGradient
       x1="0.00000000"
       y1="-0.00000000"
       x2="0.97826087"
       y2="0.99218750"
       id="linearGradient575"
       xlink:href="#linearGradient570" />
    <linearGradient
       x1="0.00000000"
       y1="0.00000000"
       x2="1.00000000"
       y2="0.00000000"
       id="linearGradient578"
       xlink:href="#linearGradient563" />
  </defs>
  <metadata
     id="metadata967">
    <rdf:RDF
       id="RDF968">
      <cc:Work
         rdf:about=""
         id="Work969">
        <dc:format
           id="format970">image/svg+xml</dc:format>
        <dc:type
           id="type972"
           rdf:resource="http://purl.org/dc/dcmitype/StillImage" />
      </cc:Work>
    </rdf:RDF>
  </metadata>
  <g
     transform="matrix(0.335276,0.000000,0.000000,0.335276,-0.354211,-0.199754)"
     style="font-size:12.000000;opacity:0.29999998;stroke:#000000;"
     id="g677">
    <ellipse
       cx="47.595680"
       cy="41.555550"
       rx="28.881311"
       ry="28.881311"
       transform="matrix(0.917566,0.000000,0.000000,0.917566,-11.48724,-5.833475)"
       style="fill-rule:evenodd;stroke-width:2.0541799;"
       id="path675"
       d="M 76.476992 41.555550 A 28.881311 28.881311 0 1 0 18.714369,41.555550 A 28.881311 28.881311 0 1 0 76.476992 41.555550 z"
       sodipodi:cx="47.595680"
       sodipodi:cy="41.555550"
       sodipodi:rx="28.881311"
       sodipodi:ry="28.881311" />
    <ellipse
       cx="42.107330"
       cy="34.267742"
       rx="21.773449"
       ry="21.773449"
       transform="matrix(0.934849,0.000000,0.000000,0.934849,-7.035911,0.205833)"
       style="fill-rule:evenodd;stroke-width:1.0000000pt;"
       id="path676"
       d="M 63.880779 34.267742 A 21.773449 21.773449 0 1 0 20.333881,34.267742 A 21.773449 21.773449 0 1 0 63.880779 34.267742 z"
       sodipodi:cx="42.107330"
       sodipodi:cy="34.267742"
       sodipodi:rx="21.773449"
       sodipodi:ry="21.773449" />
  </g>
  <ellipse
     cx="47.595680"
     cy="41.555550"
     rx="28.881311"
     ry="28.881311"
     transform="matrix(0.307638,0.000000,0.000000,0.307638,-4.548529,-2.727113)"
     style="font-size:12.000000;fill:url(#linearGradient566);fill-opacity:0.75000000;fill-rule:evenodd;stroke:#261933;stroke-width:2.0541799;"
     id="path594"
     d="M 76.476992 41.555550 A 28.881311 28.881311 0 1 0 18.714369,41.555550 A 28.881311 28.881311 0 1 0 76.476992 41.555550 z"
     sodipodi:cx="47.595680"
     sodipodi:cy="41.555550"
     sodipodi:rx="28.881311"
     sodipodi:ry="28.881311" />
  <path
     sodipodi:type="arc"
     style="fill:url(#radialGradient830);fill-rule:evenodd;stroke-width:1.8750000;"
     id="path825"
     sodipodi:cx="30.937500"
     sodipodi:cy="30.000000"
     sodipodi:rx="21.250000"
     sodipodi:ry="21.250000"
     d="M 52.187500 30.000000 A 21.250000 21.250000 0 1 0 9.6875000,30.000000 A 21.250000 21.250000 0 1 0 52.187500 30.000000 z"
     transform="matrix(0.404921,0.000000,0.000000,0.404921,-2.435055,-2.102523)" />
  <path
     d="M 17.176987,12.573830 C 16.738549,13.626081 15.964401,14.752606 15.134381,15.529418 C 14.355075,16.258769 13.442526,16.731255 12.410908,17.107795 C 13.556004,17.066531 14.857158,16.683601 15.660507,15.931750 C 16.466485,15.177439 17.115090,13.853037 17.176987,12.573830 z "
     style="font-size:12.000000;fill:url(#linearGradient575);fill-opacity:0.75000000;fill-rule:evenodd;stroke-width:1.0000000pt;"
     id="path596" />
  <path
     sodipodi:type="arc"
     style="fill:#d9cce6;fill-opacity:1.0000000;fill-rule:evenodd;stroke:#261933;stroke-width:1.0000000pt;"
     id="path1839"
     sodipodi:cx="19.687500"
     sodipodi:cy="23.750000"
     sodipodi:rx="2.1875000"
     sodipodi:ry="4.3750000"
     d="M 21.875000 23.750000 A 2.1875000 4.3750000 0 1 0 17.500000,23.750000 A 2.1875000 4.3750000 0 1 0 21.875000 23.750000 z"
     transform="matrix(0.545551,0.000000,0.000000,0.545530,-4.278218,-5.989699)" />
  <path
     d="M 2.5034513,10.696089 C 2.5669545,8.3972603 3.6210297,5.6919243 5.0943987,4.2568254 C 6.5548967,2.8342630 9.3110377,2.2247107 11.876582,2.4660243 C 9.7428607,3.1836149 7.4351297,3.9945747 5.8945437,5.4951453 C 4.5012636,6.8522363 3.1511885,8.7846303 2.5034513,10.696089 z "
     style="font-size:12.000000;fill:url(#linearGradient573);fill-opacity:0.75000000;fill-rule:evenodd;stroke-width:1.0000000pt;"
     id="path593" />
  <path
     style="fill:#d9cce6;fill-rule:evenodd;stroke:#261933;stroke-width:0.65457767;stroke-linejoin:round;"
     d="M 10.079953,15.903576 C 7.3656327,15.903576 4.9742747,12.183171 5.9599597,12.183171 C 6.9456447,12.183171 7.7190587,12.632399 10.004190,12.632399 C 12.195331,12.632399 13.368396,12.183171 14.158057,12.183171 C 14.947717,12.183171 12.837003,15.903576 10.079953,15.903576 z "
     id="path844"
     sodipodi:nodetypes="czzzz" />
  <path
     style="fill:#d9cce6;fill-rule:evenodd;stroke:#261933;stroke-width:0.55695415;stroke-linejoin:round;"
     d="M 15.504319,5.7178633 C 15.733344,6.0669043 14.355034,6.5453753 13.226460,7.2385383 C 12.061624,7.9539743 11.614311,8.4751913 11.448563,8.2445903 C 11.275445,8.0037383 12.173872,7.7695853 13.318988,7.0752443 C 14.668639,6.2568833 15.311030,5.4232873 15.504319,5.7178633 z "
     id="path1359"
     sodipodi:nodetypes="cszss" />
</svg>
