<?xml version="1.0" encoding="UTF-8" standalone="no"?>
<!-- Created with Inkscape (http://www.inkscape.org/) -->
<svg
   xmlns:dc="http://purl.org/dc/elements/1.1/"
   xmlns:cc="http://web.resource.org/cc/"
   xmlns:rdf="http://www.w3.org/1999/02/22-rdf-syntax-ns#"
   xmlns:svg="http://www.w3.org/2000/svg"
   xmlns="http://www.w3.org/2000/svg"
   xmlns:xlink="http://www.w3.org/1999/xlink"
   xmlns:sodipodi="http://inkscape.sourceforge.net/DTD/sodipodi-0.dtd"
   xmlns:inkscape="http://www.inkscape.org/namespaces/inkscape"
   version="1.0"
   x="0"
   y="0"
   width="16.000000pt"
   height="16.000000pt"
   id="svg1"
   sodipodi:version="0.32"
   inkscape:version="0.42"
   sodipodi:docname="face-smile-big.svg"
   sodipodi:docbase="/home/jakob/dev/lila/lila-theme/branches/tango/scalable/emotes">
  <sodipodi:namedview
     id="base"
     pagecolor="#ffffff"
     bordercolor="#666666"
     borderopacity="1.0"
     inkscape:pageopacity="0.0"
     inkscape:pageshadow="2"
     inkscape:zoom="33.125000"
     inkscape:cx="8.0000000"
     inkscape:cy="8.0000000"
     inkscape:window-width="1022"
     inkscape:window-height="695"
     inkscape:window-x="0"
     inkscape:window-y="26"
     showguides="true"
     inkscape:guide-bbox="true"
     inkscape:current-layer="svg1" />
  <defs
     id="defs3">
    <linearGradient
       id="linearGradient826">
      <stop
         style="stop-color:#d9cce6;stop-opacity:1.0000000;"
         offset="0.0000000"
         id="stop827" />
      <stop
         style="stop-color:#73667f;stop-opacity:1.0000000;"
         offset="1.0000000"
         id="stop828" />
    </linearGradient>
    <radialGradient
       xlink:href="#linearGradient826"
       id="radialGradient830"
       cx="0.50000000"
       cy="0.50000000"
       r="0.50000000"
       fx="0.50000000"
       fy="0.50000000" />
    <linearGradient
       id="linearGradient1018">
      <stop
         offset="0.0000000"
         style="stop-color:#ffffff;stop-opacity:1.0000000;"
         id="stop1020" />
      <stop
         offset="1.0000000"
         style="stop-color:#ffffff;stop-opacity:0.0000000;"
         id="stop1019" />
    </linearGradient>
    <linearGradient
       id="linearGradient834">
      <stop
         style="stop-color:#d9cce6;stop-opacity:1.0000000;"
         offset="0.0000000"
         id="stop835" />
      <stop
         style="stop-color:#ffffff;stop-opacity:1.0000000;"
         offset="1.0000000"
         id="stop836" />
    </linearGradient>
    <linearGradient
       xlink:href="#linearGradient834"
       id="linearGradient829"
       x1="0.53125000"
       y1="0.98067635"
       x2="0.53125000"
       y2="-9.8346187e-05" />
    <linearGradient
       id="linearGradient570">
      <stop
         style="stop-color:#ffffff;stop-opacity:1;"
         offset="0"
         id="stop571" />
      <stop
         style="stop-color:#ffffff;stop-opacity:0;"
         offset="1"
         id="stop572" />
    </linearGradient>
    <linearGradient
       id="linearGradient563">
      <stop
         style="stop-color:#d9cce6;stop-opacity:1;"
         offset="0"
         id="stop564" />
      <stop
         style="stop-color:#73667f;stop-opacity:1;"
         offset="1"
         id="stop565" />
    </linearGradient>
    <linearGradient
       x1="0.00000000"
       y1="0.00000000"
       x2="0.98461539"
       y2="0.99218750"
       id="linearGradient566"
       xlink:href="#linearGradient563" />
    <linearGradient
       x1="0.97692311"
       y1="0.99218750"
       x2="0.01538463"
       y2="0.00781249"
       id="linearGradient569"
       xlink:href="#linearGradient570" />
    <linearGradient
       x1="0.00000000"
       y1="-0.00000000"
       x2="0.99285716"
       y2="0.97656250"
       id="linearGradient573"
       xlink:href="#linearGradient570" />
    <linearGradient
       x1="0.00000000"
       y1="-0.00000000"
       x2="0.97826087"
       y2="0.99218750"
       id="linearGradient575"
       xlink:href="#linearGradient570" />
    <linearGradient
       x1="0.00000000"
       y1="0.00000000"
       x2="1.00000000"
       y2="0.00000000"
       id="linearGradient578"
       xlink:href="#linearGradient563" />
  </defs>
  <metadata
     id="metadata967">
    <rdf:RDF>
      <cc:Work
         rdf:about="">
        <dc:format>image/svg+xml</dc:format>
        <dc:type
           rdf:resource="http://purl.org/dc/dcmitype/StillImage" />
      </cc:Work>
    </rdf:RDF>
  </metadata>
  <g
     transform="matrix(0.335276,0.000000,0.000000,0.335276,-0.373079,-0.218621)"
     style="font-size:12.000000;opacity:0.29999998;stroke:#000000;"
     id="g677">
    <ellipse
       cx="47.595680"
       cy="41.555550"
       rx="28.881311"
       ry="28.881311"
       transform="matrix(0.917566,0.000000,0.000000,0.917566,-11.48724,-5.833475)"
       style="fill-rule:evenodd;stroke-width:2.0541799;"
       id="path675"
       d="M 76.476992 41.555550 A 28.881311 28.881311 0 1 0 18.714369,41.555550 A 28.881311 28.881311 0 1 0 76.476992 41.555550 z"
       sodipodi:cx="47.595680"
       sodipodi:cy="41.555550"
       sodipodi:rx="28.881311"
       sodipodi:ry="28.881311" />
    <ellipse
       cx="42.107330"
       cy="34.267742"
       rx="21.773449"
       ry="21.773449"
       transform="matrix(0.934849,0.000000,0.000000,0.934849,-7.035911,0.205833)"
       style="fill-rule:evenodd;stroke-width:1.0000000pt;"
       id="path676"
       d="M 63.880779 34.267742 A 21.773449 21.773449 0 1 0 20.333881,34.267742 A 21.773449 21.773449 0 1 0 63.880779 34.267742 z"
       sodipodi:cx="42.107330"
       sodipodi:cy="34.267742"
       sodipodi:rx="21.773449"
       sodipodi:ry="21.773449" />
  </g>
  <ellipse
     cx="47.595680"
     cy="41.555550"
     rx="28.881311"
     ry="28.881311"
     transform="matrix(0.307638,0.000000,0.000000,0.307638,-4.567397,-2.745980)"
     style="font-size:12.000000;fill:url(#linearGradient566);fill-opacity:0.75000000;fill-rule:evenodd;stroke:#261933;stroke-width:2.0541799;"
     id="path594"
     d="M 76.476992 41.555550 A 28.881311 28.881311 0 1 0 18.714369,41.555550 A 28.881311 28.881311 0 1 0 76.476992 41.555550 z"
     sodipodi:cx="47.595680"
     sodipodi:cy="41.555550"
     sodipodi:rx="28.881311"
     sodipodi:ry="28.881311" />
  <path
     sodipodi:type="arc"
     style="fill:url(#radialGradient830);fill-rule:evenodd;stroke-width:1.8750000;"
     id="path825"
     sodipodi:cx="30.937500"
     sodipodi:cy="30.000000"
     sodipodi:rx="21.250000"
     sodipodi:ry="21.250000"
     d="M 52.187500 30.000000 A 21.250000 21.250000 0 1 0 9.6875000,30.000000 A 21.250000 21.250000 0 1 0 52.187500 30.000000 z"
     transform="matrix(0.404921,0.000000,0.000000,0.404921,-2.453923,-2.121390)" />
  <path
     d="M 17.158119,12.554963 C 16.719681,13.607214 15.945533,14.733739 15.115513,15.510551 C 14.336207,16.239902 13.423658,16.712388 12.392040,17.088928 C 13.537136,17.047664 14.838290,16.664734 15.641639,15.912883 C 16.447617,15.158572 17.096222,13.834170 17.158119,12.554963 z "
     style="font-size:12.000000;fill:url(#linearGradient575);fill-opacity:0.75000000;fill-rule:evenodd;stroke-width:1.0000000pt;"
     id="path596" />
  <path
     sodipodi:type="arc"
     style="fill:#d9cce6;fill-opacity:1.0000000;fill-rule:evenodd;stroke:#261933;stroke-width:1.0000000pt;"
     id="path1839"
     sodipodi:cx="19.687500"
     sodipodi:cy="23.750000"
     sodipodi:rx="2.1875000"
     sodipodi:ry="4.3750000"
     d="M 21.875000 23.750000 A 2.1875000 4.3750000 0 1 0 17.500000,23.750000 A 2.1875000 4.3750000 0 1 0 21.875000 23.750000 z"
     transform="matrix(0.545551,0.000000,0.000000,0.545530,-4.297086,-6.008566)" />
  <path
     d="M 2.4845834,10.677222 C 2.5480866,8.3783923 3.6021618,5.6730563 5.0755308,4.2379574 C 6.5360288,2.8153950 9.2921698,2.2058427 11.857714,2.4471563 C 9.7239928,3.1647469 7.4162618,3.9757067 5.8756758,5.4762773 C 4.4823957,6.8333683 3.1323206,8.7657623 2.4845834,10.677222 z "
     style="font-size:12.000000;fill:url(#linearGradient573);fill-opacity:0.75000000;fill-rule:evenodd;stroke-width:1.0000000pt;"
     id="path593" />
  <path
     sodipodi:type="arc"
     style="fill:#d9cce6;fill-opacity:1.0000000;fill-rule:evenodd;stroke:#261933;stroke-width:1.0000000pt;"
     id="path1840"
     sodipodi:cx="19.687500"
     sodipodi:cy="23.750000"
     sodipodi:rx="2.1875000"
     sodipodi:ry="4.3750000"
     d="M 21.875000 23.750000 A 2.1875000 4.3750000 0 1 0 17.500000,23.750000 A 2.1875000 4.3750000 0 1 0 21.875000 23.750000 z"
     transform="matrix(0.545551,0.000000,0.000000,0.545530,2.680201,-6.003552)" />
  <path
     style="fill:#d9cce6;fill-rule:evenodd;stroke:#261933;stroke-width:0.65457737;stroke-linejoin:round"
     d="M 10.077748,16.499821 C 6.4658798,16.499821 3.2837679,11.549185 4.5953908,11.549185 C 5.9070138,11.549185 6.9361735,12.146959 9.9769322,12.146959 C 12.892621,12.146959 14.453586,11.549185 15.504365,11.549185 C 16.555143,11.549185 13.746476,16.499821 10.077748,16.499821 z "
     id="path844"
     sodipodi:nodetypes="czzzz" />
</svg>
