<?xml version="1.0" encoding="UTF-8" standalone="no"?>
<!-- Created with Inkscape (http://www.inkscape.org/) -->
<svg
   xmlns:dc="http://purl.org/dc/elements/1.1/"
   xmlns:cc="http://web.resource.org/cc/"
   xmlns:rdf="http://www.w3.org/1999/02/22-rdf-syntax-ns#"
   xmlns:svg="http://www.w3.org/2000/svg"
   xmlns="http://www.w3.org/2000/svg"
   xmlns:xlink="http://www.w3.org/1999/xlink"
   xmlns:sodipodi="http://inkscape.sourceforge.net/DTD/sodipodi-0.dtd"
   xmlns:inkscape="http://www.inkscape.org/namespaces/inkscape"
   version="1.0"
   x="0"
   y="0"
   width="16.000000pt"
   height="16.000000pt"
   id="svg1"
   sodipodi:version="0.32"
   inkscape:version="0.42"
   sodipodi:docname="face-plain.svg"
   sodipodi:docbase="/home/stefan/Desktop/lila-gaim-smilies">
  <sodipodi:namedview
     id="base"
     pagecolor="#ffffff"
     bordercolor="#666666"
     borderopacity="1.0"
     inkscape:pageopacity="0.0"
     inkscape:pageshadow="2"
     inkscape:zoom="33.125000"
     inkscape:cx="8.0000000"
     inkscape:cy="14.021217"
     inkscape:window-width="1022"
     inkscape:window-height="695"
     inkscape:window-x="0"
     inkscape:window-y="26"
     showguides="true"
     inkscape:guide-bbox="true"
     inkscape:current-layer="svg1" />
  <defs
     id="defs3">
    <linearGradient
       id="linearGradient826">
      <stop
         style="stop-color:#d9cce6;stop-opacity:1.0000000;"
         offset="0.0000000"
         id="stop827" />
      <stop
         style="stop-color:#73667f;stop-opacity:1.0000000;"
         offset="1.0000000"
         id="stop828" />
    </linearGradient>
    <radialGradient
       xlink:href="#linearGradient826"
       id="radialGradient830"
       cx="0.50000000"
       cy="0.50000000"
       r="0.50000000"
       fx="0.50000000"
       fy="0.50000000" />
    <linearGradient
       id="linearGradient1018">
      <stop
         offset="0.0000000"
         style="stop-color:#ffffff;stop-opacity:1.0000000;"
         id="stop1020" />
      <stop
         offset="1.0000000"
         style="stop-color:#ffffff;stop-opacity:0.0000000;"
         id="stop1019" />
    </linearGradient>
    <linearGradient
       id="linearGradient834">
      <stop
         style="stop-color:#d9cce6;stop-opacity:1.0000000;"
         offset="0.0000000"
         id="stop835" />
      <stop
         style="stop-color:#ffffff;stop-opacity:1.0000000;"
         offset="1.0000000"
         id="stop836" />
    </linearGradient>
    <linearGradient
       xlink:href="#linearGradient834"
       id="linearGradient829"
       x1="0.53125000"
       y1="0.98067635"
       x2="0.53125000"
       y2="-9.8346187e-05" />
    <linearGradient
       id="linearGradient570">
      <stop
         style="stop-color:#ffffff;stop-opacity:1;"
         offset="0"
         id="stop571" />
      <stop
         style="stop-color:#ffffff;stop-opacity:0;"
         offset="1"
         id="stop572" />
    </linearGradient>
    <linearGradient
       id="linearGradient563">
      <stop
         style="stop-color:#d9cce6;stop-opacity:1;"
         offset="0"
         id="stop564" />
      <stop
         style="stop-color:#73667f;stop-opacity:1;"
         offset="1"
         id="stop565" />
    </linearGradient>
    <linearGradient
       x1="0.00000000"
       y1="0.00000000"
       x2="0.98461539"
       y2="0.99218750"
       id="linearGradient566"
       xlink:href="#linearGradient563" />
    <linearGradient
       x1="0.97692311"
       y1="0.99218750"
       x2="0.01538463"
       y2="0.00781249"
       id="linearGradient569"
       xlink:href="#linearGradient570" />
    <linearGradient
       x1="0.00000000"
       y1="-0.00000000"
       x2="0.99285716"
       y2="0.97656250"
       id="linearGradient573"
       xlink:href="#linearGradient570" />
    <linearGradient
       x1="0.00000000"
       y1="-0.00000000"
       x2="0.97826087"
       y2="0.99218750"
       id="linearGradient575"
       xlink:href="#linearGradient570" />
    <linearGradient
       x1="0.00000000"
       y1="0.00000000"
       x2="1.00000000"
       y2="0.00000000"
       id="linearGradient578"
       xlink:href="#linearGradient563" />
  </defs>
  <metadata
     id="metadata967">
    <rdf:RDF>
      <cc:Work
         rdf:about="">
        <dc:format>image/svg+xml</dc:format>
        <dc:type
           rdf:resource="http://purl.org/dc/dcmitype/StillImage" />
      </cc:Work>
    </rdf:RDF>
  </metadata>
  <g
     transform="matrix(0.335449,0.000000,0.000000,0.335449,-0.380320,-0.207261)"
     style="font-size:12.000000;opacity:0.29999998;stroke:#000000;"
     id="g1329">
    <ellipse
       cx="47.595680"
       cy="41.555550"
       rx="28.881311"
       ry="28.881311"
       transform="matrix(0.917566,0.000000,0.000000,0.917566,-11.48724,-5.833475)"
       style="fill-rule:evenodd;stroke-width:2.0541799;"
       id="ellipse1330"
       d="M 76.476992 41.555550 A 28.881311 28.881311 0 1 0 18.714369,41.555550 A 28.881311 28.881311 0 1 0 76.476992 41.555550 z"
       sodipodi:cx="47.595680"
       sodipodi:cy="41.555550"
       sodipodi:rx="28.881311"
       sodipodi:ry="28.881311" />
    <ellipse
       cx="42.107330"
       cy="34.267742"
       rx="21.773449"
       ry="21.773449"
       transform="matrix(0.934849,0.000000,0.000000,0.934849,-7.035911,0.205833)"
       style="fill-rule:evenodd;stroke-width:1.0000000pt;"
       id="ellipse1331"
       d="M 63.880779 34.267742 A 21.773449 21.773449 0 1 0 20.333881,34.267742 A 21.773449 21.773449 0 1 0 63.880779 34.267742 z"
       sodipodi:cx="42.107330"
       sodipodi:cy="34.267742"
       sodipodi:rx="21.773449"
       sodipodi:ry="21.773449" />
  </g>
  <ellipse
     cx="47.595680"
     cy="41.555550"
     rx="28.881311"
     ry="28.881311"
     transform="matrix(0.307797,0.000000,0.000000,0.307797,-4.576811,-2.735924)"
     style="font-size:12.000000;fill:url(#linearGradient566);fill-opacity:0.75000000;fill-rule:evenodd;stroke:#261933;stroke-width:2.0541799;"
     id="ellipse1332"
     d="M 76.476992 41.555550 A 28.881311 28.881311 0 1 0 18.714369,41.555550 A 28.881311 28.881311 0 1 0 76.476992 41.555550 z"
     sodipodi:cx="47.595680"
     sodipodi:cy="41.555550"
     sodipodi:rx="28.881311"
     sodipodi:ry="28.881311" />
  <path
     sodipodi:type="arc"
     style="fill:url(#radialGradient830);fill-rule:evenodd;stroke-width:1.8750000;"
     id="path1333"
     sodipodi:cx="30.937500"
     sodipodi:cy="30.000000"
     sodipodi:rx="21.250000"
     sodipodi:ry="21.250000"
     d="M 52.187500 30.000000 A 21.250000 21.250000 0 1 0 9.6875000,30.000000 A 21.250000 21.250000 0 1 0 52.187500 30.000000 z"
     transform="matrix(0.405131,0.000000,0.000000,0.405131,-2.462244,-2.111008)" />
  <path
     d="M 17.159938,12.572932 C 16.721273,13.625728 15.946725,14.752835 15.116276,15.530049 C 14.336567,16.259776 13.423547,16.732507 12.391394,17.109242 C 13.537084,17.067955 14.838910,16.684829 15.642674,15.932588 C 16.449068,15.177886 17.098009,13.852801 17.159938,12.572932 z "
     style="font-size:12.000000;fill:url(#linearGradient575);fill-opacity:0.75000000;fill-rule:evenodd;stroke-width:1.0000000pt;"
     id="path1334" />
  <path
     sodipodi:type="arc"
     style="fill:#d9cce6;fill-opacity:1.0000000;fill-rule:evenodd;stroke:#261933;stroke-width:1.0000000pt;"
     id="path1335"
     sodipodi:cx="19.687500"
     sodipodi:cy="23.750000"
     sodipodi:rx="2.1875000"
     sodipodi:ry="4.3750000"
     d="M 21.875000 23.750000 A 2.1875000 4.3750000 0 1 0 17.500000,23.750000 A 2.1875000 4.3750000 0 1 0 21.875000 23.750000 z"
     transform="matrix(0.545834,0.000000,0.000000,0.545812,-4.306361,-6.000196)" />
  <path
     d="M 2.4788176,10.694220 C 2.5423539,8.3942022 3.5969739,5.6874672 5.0711037,4.2516270 C 6.5323567,2.8283289 9.2899227,2.2184610 11.856794,2.4598996 C 9.7219697,3.1778617 7.4130447,3.9892404 5.8716627,5.4905872 C 4.4776623,6.8483802 3.1268895,8.7817742 2.4788176,10.694220 z "
     style="font-size:12.000000;fill:url(#linearGradient573);fill-opacity:0.75000000;fill-rule:evenodd;stroke-width:1.0000000pt;"
     id="path1336" />
  <path
     sodipodi:type="arc"
     style="fill:#d9cce6;fill-opacity:1.0000000;fill-rule:evenodd;stroke:#261933;stroke-width:1.0000000pt;"
     id="path1337"
     sodipodi:cx="19.687500"
     sodipodi:cy="23.750000"
     sodipodi:rx="2.1875000"
     sodipodi:ry="4.3750000"
     d="M 21.875000 23.750000 A 2.1875000 4.3750000 0 1 0 17.500000,23.750000 A 2.1875000 4.3750000 0 1 0 21.875000 23.750000 z"
     transform="matrix(0.545834,0.000000,0.000000,0.545812,2.674537,-5.995177)" />
  <path
     style="fill:#d9cce6;fill-rule:evenodd;stroke:#261933;stroke-width:0.55695415;stroke-linejoin:round"
     d="M 14.415060,13.689976 C 14.446046,14.106295 11.461896,13.624990 10.138755,13.683764 C 8.7731011,13.744425 6.2248149,13.967961 6.1917181,13.685910 C 6.1571483,13.391317 8.9606956,13.637622 10.298873,13.585842 C 11.876069,13.524814 14.388910,13.338619 14.415060,13.689976 z "
     id="path844"
     sodipodi:nodetypes="cszss" />
</svg>
