<?xml version="1.0" encoding="UTF-8" standalone="no"?>
<!DOCTYPE svg PUBLIC "-//W3C//DTD SVG 20010904//EN"
"http://www.w3.org/TR/2001/REC-SVG-20010904/DTD/svg10.dtd">
<!-- Created with Inkscape (http://www.inkscape.org/) -->
<svg
   id="svg1"
   sodipodi:version="0.32"
   inkscape:version="0.40"
   width="48.000000pt"
   height="48.000000pt"
   sodipodi:docbase="/home/andrew/lila"
   sodipodi:docname="balsa_gpg_sign.svg"
   xmlns="http://www.w3.org/2000/svg"
   xmlns:cc="http://web.resource.org/cc/"
   xmlns:inkscape="http://www.inkscape.org/namespaces/inkscape"
   xmlns:sodipodi="http://sodipodi.sourceforge.net/DTD/sodipodi-0.dtd"
   xmlns:rdf="http://www.w3.org/1999/02/22-rdf-syntax-ns#"
   xmlns:dc="http://purl.org/dc/elements/1.1/"
   xmlns:xlink="http://www.w3.org/1999/xlink">
  <metadata
     id="metadata1160">
    <rdf:RDF
       id="RDF1161">
      <cc:Work
         rdf:about=""
         id="Work1162">
        <dc:format
           id="format1163">image/svg+xml</dc:format>
        <dc:type
           id="type1165"
           rdf:resource="http://purl.org/dc/dcmitype/StillImage" />
      </cc:Work>
    </rdf:RDF>
  </metadata>
  <defs
     id="defs3">
    <linearGradient
       id="linearGradient599">
      <stop
         style="stop-color:#ffffff;stop-opacity:1;"
         offset="0.00000000"
         id="stop600" />
      <stop
         style="stop-color:#d9cce6;stop-opacity:1;"
         offset="1.00000000"
         id="stop601" />
    </linearGradient>
    <linearGradient
       id="linearGradient584">
      <stop
         style="stop-color:#ffffff;stop-opacity:1;"
         offset="0.00000000"
         id="stop585" />
      <stop
         style="stop-color:#ffffff;stop-opacity:0;"
         offset="1.00000000"
         id="stop586" />
    </linearGradient>
    <linearGradient
       id="linearGradient578">
      <stop
         style="stop-color:#d9cce6;stop-opacity:1;"
         offset="0.00000000"
         id="stop579" />
      <stop
         style="stop-color:#73667f;stop-opacity:1;"
         offset="1.00000000"
         id="stop580" />
    </linearGradient>
    <linearGradient
       xlink:href="#linearGradient599"
       id="linearGradient581"
       x1="2.2234921"
       y1="7.5111278"
       x2="52.829201"
       y2="57.885843"
       gradientTransform="scale(1.072902,0.932051)"
       gradientUnits="userSpaceOnUse" />
    <linearGradient
       xlink:href="#linearGradient599"
       id="linearGradient583"
       x1="2.9987399"
       y1="16.939650"
       x2="23.909333"
       y2="38.051305"
       gradientTransform="scale(1.819933,0.549471)"
       gradientUnits="userSpaceOnUse" />
    <linearGradient
       xlink:href="#linearGradient599"
       id="linearGradient860"
       x1="0.00000000"
       y1="0.00000000"
       x2="0.98905110"
       y2="0.97457629" />
    <linearGradient
       xlink:href="#linearGradient584"
       id="linearGradient861"
       x1="-0.36956522"
       y1="-0.37500000"
       x2="0.81159419"
       y2="0.76562500" />
    <linearGradient
       xlink:href="#linearGradient584"
       id="linearGradient862"
       x1="-0.08500000"
       y1="-0.13281250"
       x2="0.99500000"
       y2="0.96875000" />
    <radialGradient
       xlink:href="#linearGradient578"
       id="radialGradient595"
       cx="0.33846155"
       cy="0.34375000"
       r="0.66501766"
       fx="0.33076921"
       fy="0.33593750" />
    <linearGradient
       inkscape:collect="always"
       xlink:href="#linearGradient599"
       id="linearGradient1188"
       x1="0.91550749"
       y1="4.1149543"
       x2="25.931114"
       y2="29.016375"
       gradientTransform="scale(1.092626,0.915226)"
       gradientUnits="userSpaceOnUse" />
    <linearGradient
       inkscape:collect="always"
       xlink:href="#linearGradient599"
       id="linearGradient1189"
       x1="0.72228011"
       y1="18.032919"
       x2="17.643449"
       y2="34.706446"
       gradientTransform="scale(1.303241,0.767318)"
       gradientUnits="userSpaceOnUse" />
    <linearGradient
       inkscape:collect="always"
       xlink:href="#linearGradient599"
       id="linearGradient1190"
       x1="5.0333643"
       y1="4.5306602"
       x2="23.086508"
       y2="22.757391"
       gradientTransform="scale(1.203773,0.830721)"
       gradientUnits="userSpaceOnUse" />
    <linearGradient
       inkscape:collect="always"
       xlink:href="#linearGradient584"
       id="linearGradient1191"
       x1="0.71294369"
       y1="5.4813294"
       x2="19.078900"
       y2="24.213967"
       gradientTransform="scale(1.393138,0.717804)"
       gradientUnits="userSpaceOnUse" />
    <linearGradient
       id="linearGradient601"
       xlink:href="#linearGradient595" />
    <linearGradient
       x1="0.000001"
       y1="0.023434"
       x2="0.952381"
       y2="0.976562"
       id="linearGradient1979"
       xlink:href="#linearGradient590" />
    <linearGradient
       x1="43.755898"
       y1="28.504656"
       x2="19.488687"
       y2="4.2374452"
       id="linearGradient594"
       xlink:href="#linearGradient595"
       gradientTransform="scale(0.993716,1.006323)"
       gradientUnits="userSpaceOnUse" />
    <linearGradient
       x1="13.442945"
       y1="32.582558"
       x2="35.737531"
       y2="56.913275"
       id="linearGradient589"
       xlink:href="#linearGradient590"
       gradientTransform="scale(1.155184,0.865663)"
       gradientUnits="userSpaceOnUse" />
    <linearGradient
       x1="11.181052"
       y1="28.877595"
       x2="43.706957"
       y2="61.685843"
       id="linearGradient587"
       xlink:href="#linearGradient584"
       gradientTransform="scale(1.124302,0.889440)"
       gradientUnits="userSpaceOnUse" />
    <linearGradient
       id="linearGradient1973">
      <stop
         style="stop-color:#d9cce6;stop-opacity:1;"
         offset="0.00000000"
         id="stop1974" />
      <stop
         style="stop-color:#73667f;stop-opacity:1;"
         offset="1.00000000"
         id="stop1975" />
    </linearGradient>
    <linearGradient
       id="linearGradient590">
      <stop
         style="stop-color:#ffffff;stop-opacity:1;"
         offset="0"
         id="stop591" />
      <stop
         style="stop-color:#ffffff;stop-opacity:0;"
         offset="1"
         id="stop592" />
    </linearGradient>
    <linearGradient
       id="linearGradient595">
      <stop
         style="stop-color:#7f7f7f;stop-opacity:1;"
         offset="0"
         id="stop596" />
      <stop
         style="stop-color:#e6e6e6;stop-opacity:1;"
         offset="1"
         id="stop597" />
    </linearGradient>
    <linearGradient
       inkscape:collect="always"
       xlink:href="#linearGradient595"
       id="linearGradient2089"
       gradientUnits="userSpaceOnUse"
       gradientTransform="scale(0.993716,1.006323)"
       x1="43.755898"
       y1="28.504656"
       x2="19.488688"
       y2="4.2374454" />
    <linearGradient
       inkscape:collect="always"
       xlink:href="#linearGradient1973"
       id="linearGradient2090"
       gradientUnits="userSpaceOnUse"
       gradientTransform="scale(1.124302,0.889440)"
       x1="11.181052"
       y1="28.877596"
       x2="43.706959"
       y2="61.685844" />
    <linearGradient
       inkscape:collect="always"
       xlink:href="#linearGradient590"
       id="linearGradient2091"
       gradientUnits="userSpaceOnUse"
       gradientTransform="scale(1.155184,0.865663)"
       x1="13.442945"
       y1="32.582558"
       x2="35.737531"
       y2="56.913275" />
    <linearGradient
       inkscape:collect="always"
       xlink:href="#linearGradient599"
       id="linearGradient2092"
       gradientUnits="userSpaceOnUse"
       gradientTransform="scale(1.065729,0.938325)"
       x1="20.248574"
       y1="13.878727"
       x2="34.380355"
       y2="13.878727" />
    <linearGradient
       xlink:href="#linearGradient584"
       id="linearGradient1245"
       x1="0.00000000"
       y1="0.00000000"
       x2="0.97692305"
       y2="0.99218750" />
    <linearGradient
       xlink:href="#linearGradient584"
       id="linearGradient713"
       x1="-0.00000000"
       y1="-0.00000000"
       x2="0.95454544"
       y2="0.99218750" />
    <linearGradient
       xlink:href="#linearGradient584"
       id="linearGradient655"
       x1="29.467693"
       y1="39.397287"
       x2="33.084072"
       y2="42.909183"
       gradientTransform="scale(0.911255,1.097388)"
       gradientUnits="userSpaceOnUse" />
    <linearGradient
       xlink:href="#linearGradient584"
       id="linearGradient654"
       x1="18.111135"
       y1="14.811389"
       x2="28.302667"
       y2="25.307295"
       gradientTransform="scale(1.166732,0.857095)"
       gradientUnits="userSpaceOnUse" />
    <linearGradient
       xlink:href="#linearGradient584"
       id="linearGradient2387"
       x1="0.00000000"
       y1="0.00000000"
       x2="1.00364959"
       y2="0.95238096" />
    <linearGradient
       xlink:href="#linearGradient578"
       id="linearGradient2386"
       x1="0.00000000"
       y1="0.00000000"
       x2="0.98666668"
       y2="1.00781250" />
    <linearGradient
       id="linearGradient2383">
      <stop
         style="stop-color:#faf8fd;stop-opacity:1;"
         offset="0.00000000"
         id="stop2384" />
      <stop
         style="stop-color:#d9cce6;stop-opacity:1;"
         offset="1.00000000"
         id="stop2385" />
    </linearGradient>
    <linearGradient
       id="linearGradient2380">
      <stop
         style="stop-color:#ffffff;stop-opacity:1;"
         offset="0.00000000"
         id="stop2381" />
      <stop
         style="stop-color:#ffffff;stop-opacity:0;"
         offset="1.00000000"
         id="stop2382" />
    </linearGradient>
    <linearGradient
       inkscape:collect="always"
       xlink:href="#linearGradient584"
       id="linearGradient2409"
       gradientUnits="userSpaceOnUse"
       gradientTransform="matrix(1.412790,0.000000,0.000000,1.701366,-17.13267,-18.34745)"
       x1="29.467693"
       y1="39.397287"
       x2="33.084072"
       y2="42.909183" />
    <linearGradient
       inkscape:collect="always"
       xlink:href="#linearGradient584"
       id="linearGradient2410"
       gradientUnits="userSpaceOnUse"
       gradientTransform="matrix(1.808876,0.000000,0.000000,1.328821,-17.13267,-18.34745)"
       x1="18.111135"
       y1="14.811389"
       x2="28.302667"
       y2="25.307295" />
    <linearGradient
       inkscape:collect="always"
       xlink:href="#linearGradient584"
       id="linearGradient2416"
       gradientUnits="userSpaceOnUse"
       gradientTransform="matrix(1.412790,0.000000,0.000000,1.701366,-17.13267,-18.34745)"
       x1="29.467693"
       y1="39.397287"
       x2="33.084072"
       y2="42.909183" />
    <linearGradient
       inkscape:collect="always"
       xlink:href="#linearGradient584"
       id="linearGradient2417"
       gradientUnits="userSpaceOnUse"
       gradientTransform="matrix(1.808876,0.000000,0.000000,1.328821,-17.13267,-18.34745)"
       x1="18.111135"
       y1="14.811389"
       x2="28.302667"
       y2="25.307295" />
    <linearGradient
       xlink:href="#linearGradient621"
       id="linearGradient620"
       x1="3.2442242"
       y1="5.2500915"
       x2="51.438328"
       y2="52.651875"
       gradientTransform="scale(0.942431,1.061086)"
       gradientUnits="userSpaceOnUse" />
    <linearGradient
       id="linearGradient1443"
       xlink:href="#linearGradient1439"
       x1="5.9018727"
       y1="8.2937856"
       x2="40.884029"
       y2="44.108850"
       gradientTransform="scale(0.999604,1.000396)"
       gradientUnits="userSpaceOnUse" />
    <linearGradient
       x1="26.916558"
       y1="5.2246840"
       x2="55.448879"
       y2="33.534111"
       id="linearGradient1438"
       xlink:href="#linearGradient1439"
       gradientTransform="scale(0.994299,1.005734)"
       gradientUnits="userSpaceOnUse" />
    <linearGradient
       x1="49.752802"
       y1="15.538123"
       x2="40.870128"
       y2="7.2425753"
       id="linearGradient1435"
       xlink:href="#linearGradient1432"
       gradientTransform="scale(1.095210,0.913067)"
       gradientUnits="userSpaceOnUse" />
    <linearGradient
       x1="43.707467"
       y1="4.3865030"
       x2="51.636496"
       y2="12.439423"
       id="linearGradient1427"
       xlink:href="#linearGradient1428"
       gradientTransform="scale(1.097184,0.911424)"
       gradientUnits="userSpaceOnUse" />
    <linearGradient
       x1="46.900311"
       y1="25.839272"
       x2="35.574115"
       y2="13.769793"
       id="linearGradient1425"
       xlink:href="#linearGradient1422"
       gradientTransform="scale(0.980436,1.019954)"
       gradientUnits="userSpaceOnUse" />
    <linearGradient
       id="linearGradient1422">
      <stop
         style="stop-color:#d7a600;stop-opacity:1;"
         offset="0.00000000"
         id="stop1423" />
      <stop
         style="stop-color:#fff300;stop-opacity:1;"
         offset="1.00000000"
         id="stop1424" />
    </linearGradient>
    <linearGradient
       id="linearGradient1428">
      <stop
         style="stop-color:#f50000;stop-opacity:1;"
         offset="0.00000000"
         id="stop1429" />
      <stop
         style="stop-color:#a90000;stop-opacity:1;"
         offset="1.00000000"
         id="stop1430" />
    </linearGradient>
    <linearGradient
       id="linearGradient1432">
      <stop
         style="stop-color:#7f7f7f;stop-opacity:1;"
         offset="0"
         id="stop1433" />
      <stop
         style="stop-color:#e6e6e6;stop-opacity:1;"
         offset="1"
         id="stop1434" />
    </linearGradient>
    <linearGradient
       id="linearGradient1439">
      <stop
         style="stop-color:#ffffff;stop-opacity:1;"
         offset="0"
         id="stop1440" />
      <stop
         style="stop-color:#ffffff;stop-opacity:0;"
         offset="1"
         id="stop1441" />
    </linearGradient>
    <linearGradient
       id="linearGradient621">
      <stop
         style="stop-color:#ffffff;stop-opacity:1;"
         offset="0.00000000"
         id="stop622" />
      <stop
         style="stop-color:#d9cce6;stop-opacity:1;"
         offset="1.00000000"
         id="stop623" />
    </linearGradient>
    <linearGradient
       inkscape:collect="always"
       xlink:href="#linearGradient1422"
       id="linearGradient2536"
       gradientUnits="userSpaceOnUse"
       gradientTransform="scale(0.980436,1.019954)"
       x1="46.900311"
       y1="25.839272"
       x2="35.574116"
       y2="13.769793" />
    <linearGradient
       inkscape:collect="always"
       xlink:href="#linearGradient1428"
       id="linearGradient2537"
       gradientUnits="userSpaceOnUse"
       gradientTransform="scale(1.097184,0.911424)"
       x1="43.707466"
       y1="4.3865032"
       x2="51.636497"
       y2="12.439423" />
    <linearGradient
       inkscape:collect="always"
       xlink:href="#linearGradient1432"
       id="linearGradient2538"
       gradientUnits="userSpaceOnUse"
       gradientTransform="scale(1.095210,0.913067)"
       x1="49.752804"
       y1="15.538123"
       x2="40.870129"
       y2="7.2425752" />
  </defs>
  <sodipodi:namedview
     id="base"
     pagecolor="#ffffff"
     bordercolor="#666666"
     borderopacity="1.0"
     inkscape:pageopacity="0.0"
     inkscape:pageshadow="2"
     inkscape:zoom="11.354167"
     inkscape:cx="24.123305"
     inkscape:cy="23.574604"
     inkscape:window-width="640"
     inkscape:window-height="757"
     inkscape:window-x="64"
     inkscape:window-y="0"
     showguides="true"
     inkscape:guide-bbox="true"
     inkscape:current-layer="svg1">
    <sodipodi:guide
       orientation="horizontal"
       position="54.605505"
       id="guide1181" />
  </sodipodi:namedview>
  <path
     style="font-size:12.000000;fill:#000000;fill-opacity:0.29999998;fill-rule:evenodd;stroke:none;stroke-width:1.4514248"
     d="M 2.0463304,38.017282 C 3.2962754,40.459219 43.727561,54.609890 46.497381,53.109149 C 49.294487,51.772691 59.673353,24.794113 57.807566,21.994025 C 55.978204,18.977744 16.478918,5.8640083 13.218885,6.6125147 C 10.115404,7.2133504 0.70889204,35.716360 2.0463304,38.017282 z "
     id="path1435"
     sodipodi:nodetypes="cssss" />
  <path
     style="font-size:12.000000;fill:url(#linearGradient1188);fill-rule:evenodd;stroke:#261933;stroke-width:0.93248185;stroke-miterlimit:4.0000000;stroke-dasharray:none;"
     d="M 1.5928059,19.186357 C 2.1848241,20.342945 21.334508,27.045202 22.646391,26.334398 C 23.971201,25.701404 28.886998,12.923398 28.003296,11.597177 C 27.136845,10.168560 8.4285886,3.9574319 6.8845223,4.3119513 C 5.4146041,4.5965278 0.95934761,18.096559 1.5928059,19.186357 z "
     id="path596"
     sodipodi:nodetypes="cssss"
     transform="matrix(2.010763,0.000000,0.000000,2.010763,-0.473689,-2.549703)" />
  <path
     style="font-size:12.000000;fill:url(#linearGradient1189);fill-rule:evenodd;stroke:#261933;stroke-width:0.93248185;stroke-miterlimit:4.0000000;stroke-dasharray:none;"
     d="M 1.4916193,19.150359 C 0.95459984,18.145131 11.912091,13.321529 15.544779,14.574488 C 18.917954,15.737938 23.743434,25.863708 22.509207,26.399586 C 21.371607,26.973763 1.5551732,20.051530 1.4916193,19.150359 z "
     id="path597"
     sodipodi:nodetypes="csss"
     transform="matrix(2.010763,0.000000,0.000000,2.010763,-0.473689,-2.549703)" />
  <path
     style="font-size:12.000000;fill:url(#linearGradient1190);fill-rule:evenodd;stroke:#261933;stroke-width:0.93248185;stroke-miterlimit:4.0000000;stroke-dasharray:none;"
     d="M 6.7473378,4.3771391 C 5.6898254,5.0346975 10.191179,17.286613 13.700110,18.477953 C 17.209041,19.669293 28.294585,12.684290 27.800923,11.525181 C 27.389314,10.347314 7.8583621,3.4700121 6.7473378,4.3771391 z "
     id="path598"
     sodipodi:nodetypes="csss"
     transform="matrix(2.010763,0.000000,0.000000,2.010763,-0.473689,-2.549703)" />
  <path
     style="fill:url(#linearGradient1191);fill-rule:evenodd;stroke-width:1.0000000pt;"
     d="M 3.0142647,17.754172 C 2.8238069,17.384598 6.4143912,6.2685315 7.5724036,5.5826101 C 8.5980888,5.0710043 26.509191,12.022513 26.696639,12.386245 C 26.868862,12.720434 10.640594,6.9404988 8.6514163,7.6763759 C 6.7286882,8.4007261 3.1834775,18.082520 3.0142647,17.754172 z "
     id="path603"
     sodipodi:nodetypes="cssss"
     transform="matrix(2.010763,0.000000,0.000000,2.010763,-0.473689,-2.549703)" />
  <g
     id="g2081"
     transform="translate(20.06866,16.31091)"
     style="opacity:1.0000000;">
    <path
       d="M 21.763724,27.047083 C 21.649109,18.710047 24.204701,6.3599310 33.257556,6.4422007 C 42.940157,6.5314589 45.130056,20.079421 44.891660,27.467605 C 44.773132,31.072644 38.215478,30.350853 38.303701,27.467605 C 38.232790,23.530476 39.274710,14.151618 32.977207,14.151618 C 26.706188,14.011445 28.121115,23.666115 28.071336,27.467605 C 28.180691,29.679772 21.754753,30.001965 21.763724,27.047083 z "
       style="font-size:12.000000;opacity:0.30267498;fill-rule:evenodd;stroke-width:12.500000;"
       id="path602"
       transform="matrix(0.500000,0.000000,0.000000,0.500000,14.31723,15.33995)" />
    <path
       d="M 14.479347,55.521662 C 15.839626,56.624533 49.469830,57.213241 50.506427,56.105115 C 51.658313,54.711584 51.335586,29.643749 50.214699,28.392010 C 49.113648,27.177165 15.699121,26.979284 14.625209,28.246146 C 13.599123,29.311805 13.139123,54.316896 14.479347,55.521662 z "
       style="font-size:12.000000;opacity:0.29636899;fill-rule:evenodd;stroke-width:12.500000;"
       id="path600"
       transform="matrix(0.500000,0.000000,0.000000,0.500000,14.31723,15.33995)" />
    <path
       d="M 19.921490,25.317825 C 19.808517,17.099678 22.327666,4.9256819 31.251414,5.0067783 C 40.795937,5.0947629 42.954615,18.449525 42.719611,25.732350 C 42.602773,29.285979 36.138635,28.574482 36.225600,25.732350 C 36.155699,21.851366 37.182771,12.606256 30.975063,12.606256 C 24.793472,12.468083 26.188222,21.985071 26.139152,25.732350 C 26.246948,27.912971 19.912656,28.230570 19.921490,25.317825 z "
       style="font-size:12.000000;fill:url(#linearGradient2089);fill-opacity:1.0000000;fill-rule:evenodd;stroke:#333333;stroke-width:2.5000000;stroke-miterlimit:4.0000000;"
       id="path593"
       transform="matrix(0.500000,0.000000,0.000000,0.500000,14.31723,15.33995)" />
    <path
       d="M 13.841903,52.813781 C 15.130484,53.858532 46.988098,54.416209 47.970047,53.366481 C 49.061222,52.046411 48.755513,28.299860 47.693698,27.114096 C 46.650682,25.963283 14.997394,25.775834 13.980078,26.975922 C 13.008083,27.985411 12.572321,51.672526 13.841903,52.813781 z "
       style="font-size:12.000000;fill:url(#linearGradient2090);fill-opacity:1.0000000;fill-rule:evenodd;stroke:#261933;stroke-width:2.5000000;stroke-miterlimit:4.0000000;"
       id="path583"
       transform="matrix(0.500000,0.000000,0.000000,0.500000,14.31723,15.33995)" />
    <path
       d="M 15.776355,51.432138 C 15.277096,50.758229 14.636609,29.744496 15.914529,28.772193 C 17.629515,27.500479 45.692806,28.675267 46.173880,29.324790 C 46.613907,29.918841 24.666778,28.147157 18.677923,32.502709 C 14.534305,35.516240 16.198296,52.001705 15.776355,51.432138 z "
       style="font-size:12.000000;opacity:0.69999999;fill:url(#linearGradient2091);fill-rule:evenodd;stroke:none;stroke-width:0.11004601pt;"
       id="path588"
       transform="matrix(0.500000,0.000000,0.000000,0.500000,14.31723,15.33995)" />
    <path
       d="M 21.579483,19.652864 C 22.473556,13.898699 24.676127,9.6907693 27.797145,7.2175029 C 29.558162,5.8219987 34.358411,6.1718150 36.640125,8.4610345 C 33.667544,7.4153465 30.319346,7.4242768 28.488020,8.8755390 C 25.437301,11.293089 23.164431,15.142272 21.579483,19.652864 z "
       style="font-size:12.000000;opacity:0.69999999;fill:url(#linearGradient2092);fill-rule:evenodd;stroke:none;stroke-width:0.11004601pt;"
       id="path1987"
       transform="matrix(0.500000,0.000000,0.000000,0.500000,14.31723,15.33995)" />
    <path
       d="M 31.496165,32.785356 C 33.132315,32.918045 36.144118,35.851715 36.144118,37.312409 C 36.144118,38.618260 31.926544,39.571565 31.496165,41.084987 C 30.734684,43.763440 33.294067,47.719198 32.568548,49.887732 C 32.340554,50.569566 28.868715,50.353668 28.635544,49.636277 C 27.915203,47.419488 30.085968,43.849194 29.708326,41.084987 C 29.490196,39.489778 26.551031,37.935822 26.847805,36.557938 C 27.147019,35.169277 30.033447,32.666588 31.496165,32.785356 z "
       style="font-size:12.000000;fill:#261933;fill-opacity:1.0000000;fill-rule:evenodd;stroke-width:1.2871100pt;"
       id="path1988"
       transform="matrix(0.500000,0.000000,0.000000,0.500000,14.31723,15.33995)" />
  </g>
  <path
     d="M 26.472129,38.276618 C 27.315433,39.032682 31.148103,38.157298 32.688205,36.743852 C 41.848767,28.336477 53.045411,17.726945 58.574186,8.8142361 C 59.630455,7.1114435 54.135486,3.6070697 52.443266,4.8972734 C 43.860541,11.441033 35.179065,22.767070 27.749422,32.316016 C 26.522044,33.893517 25.669173,37.556734 26.472129,38.276618 z "
     style="font-size:12.000000;opacity:0.29999998;fill:#3f3f19;fill-rule:evenodd;stroke-width:12.500000;"
     id="path1442"
     transform="translate(-0.728565,0.368359)" />
  <path
     d="M 25.024521,37.169641 C 25.867827,37.925706 29.700495,37.050322 31.240597,35.636875 C 40.401160,27.229501 51.597803,16.619969 57.126572,7.7072598 C 58.182850,6.0044658 52.687880,2.5001002 50.995658,3.7903025 C 42.412936,10.334056 33.731458,21.660092 26.301814,31.209039 C 25.074437,32.786541 24.221558,36.449758 25.024521,37.169641 z "
     style="font-size:12.000000;fill:url(#linearGradient2536);fill-rule:evenodd;stroke:#3f3f19;stroke-width:1.8750000;fill-opacity:1.0;"
     id="path1421"
     transform="translate(-0.728565,0.368359)" />
  <path
     d="M 47.781243,7.0686488 C 47.843890,7.7104241 53.254206,11.529787 53.954671,11.453908 C 54.189211,11.442759 56.851107,7.5089659 56.828594,7.2389644 C 56.680865,5.7231010 53.711570,3.9661997 51.847232,3.9393076 C 50.787294,3.9238438 47.761540,6.8881202 47.781243,7.0686488 z "
     style="font-size:12.000000;fill:url(#linearGradient2537);fill-rule:evenodd;stroke-width:1.0000000pt;fill-opacity:1.0;"
     id="path1426"
     transform="translate(-0.728565,0.368359)" />
  <path
     d="M 45.132010,9.6343818 C 45.198397,10.314564 50.932796,14.362715 51.675192,14.282306 C 51.923761,14.270509 54.143034,11.546185 54.119086,11.260001 C 53.962511,9.6532985 49.780649,6.8908540 47.815842,6.9799667 C 47.412418,6.9922660 45.111149,9.4430647 45.132010,9.6343818 z "
     style="font-size:12.000000;fill:url(#linearGradient2538);fill-rule:evenodd;stroke:#3f3f19;stroke-width:1.1250000;fill-opacity:1.0;"
     id="path1431"
     transform="translate(-0.728565,0.368359)" />
  <ellipse
     cx="152.36185"
     cy="565.56213"
     rx="26.788887"
     ry="26.788879"
     transform="matrix(8.379811e-2,0.000000,0.000000,8.379811e-2,11.78353,-9.936311)"
     style="font-size:12.000000;fill:#3f3f19;fill-rule:evenodd;stroke-width:1.0000000pt;"
     id="path1436"
     sodipodi:cx="152.36185"
     sodipodi:cy="565.56213"
     sodipodi:rx="26.788887"
     sodipodi:ry="26.788879" />
  <path
     d="M 26.301814,34.189337 C 29.994880,27.616808 42.238807,12.625471 51.421518,4.8120942 C 52.428523,3.8548187 55.564466,5.9034136 55.593882,6.3448089 C 55.621208,6.7549173 52.575608,6.4314767 51.591830,7.3666287 C 42.811536,15.713011 29.436103,29.793291 26.301814,34.189337 z "
     style="font-size:12.000000;opacity:0.99000001;fill:url(#linearGradient1438);fill-rule:evenodd;stroke:none;stroke-width:0.10687400pt;"
     id="path1437"
     transform="translate(-0.728565,0.368359)" />
</svg>
