<?xml version="1.0" encoding="UTF-8" standalone="no"?>
<!DOCTYPE svg PUBLIC "-//W3C//DTD SVG 20010904//EN"
"http://www.w3.org/TR/2001/REC-SVG-20010904/DTD/svg10.dtd">
<!-- Created with Inkscape (http://www.inkscape.org/) -->
<svg
   id="svg1"
   sodipodi:version="0.32"
   inkscape:version="0.40"
   width="48pt"
   height="48pt"
   sodipodi:docbase="/home/andrew/lila"
   sodipodi:docname="balsa_postpone.svg"
   xmlns="http://www.w3.org/2000/svg"
   xmlns:inkscape="http://www.inkscape.org/namespaces/inkscape"
   xmlns:sodipodi="http://sodipodi.sourceforge.net/DTD/sodipodi-0.dtd"
   xmlns:xlink="http://www.w3.org/1999/xlink"
   xmlns:rdf="http://www.w3.org/1999/02/22-rdf-syntax-ns#"
   xmlns:cc="http://web.resource.org/cc/"
   xmlns:dc="http://purl.org/dc/elements/1.1/">
  <metadata
     id="metadata3799">
    <rdf:RDF
       id="RDF3800">
      <cc:Work
         rdf:about=""
         id="Work3801">
        <dc:format
           id="format3802">image/svg+xml</dc:format>
        <dc:type
           id="type3804"
           rdf:resource="http://purl.org/dc/dcmitype/StillImage" />
      </cc:Work>
    </rdf:RDF>
  </metadata>
  <defs
     id="defs3">
    <linearGradient
       id="linearGradient916">
      <stop
         style="stop-color:#cccccc;stop-opacity:1;"
         offset="0.00000000"
         id="stop917" />
      <stop
         style="stop-color:#7f7f7f;stop-opacity:1;"
         offset="1.00000000"
         id="stop918" />
    </linearGradient>
    <linearGradient
       id="linearGradient866">
      <stop
         style="stop-color:#ffffff;stop-opacity:1;"
         offset="0.00000000"
         id="stop867" />
      <stop
         style="stop-color:#d9d1e1;stop-opacity:1;"
         offset="1.00000000"
         id="stop868" />
    </linearGradient>
    <linearGradient
       id="linearGradient584">
      <stop
         style="stop-color:#ffffff;stop-opacity:1;"
         offset="0.00000000"
         id="stop585" />
      <stop
         style="stop-color:#ffffff;stop-opacity:0;"
         offset="1.00000000"
         id="stop586" />
    </linearGradient>
    <linearGradient
       id="linearGradient578">
      <stop
         style="stop-color:#d9cce6;stop-opacity:1;"
         offset="0.00000000"
         id="stop579" />
      <stop
         style="stop-color:#73667f;stop-opacity:1;"
         offset="1.00000000"
         id="stop580" />
    </linearGradient>
    <linearGradient
       xlink:href="#linearGradient584"
       id="linearGradient581"
       x1="0.00649351"
       y1="0.00000000"
       x2="0.96753246"
       y2="0.97674417" />
    <linearGradient
       xlink:href="#linearGradient584"
       id="linearGradient583"
       x1="-0.03076923"
       y1="0.02325581"
       x2="0.97692305"
       y2="1.03100777" />
    <linearGradient
       xlink:href="#linearGradient584"
       id="linearGradient860"
       x1="-0.01219512"
       y1="0.00775194"
       x2="0.98780489"
       y2="0.99224806" />
    <linearGradient
       xlink:href="#linearGradient578"
       id="linearGradient861"
       x1="0.01562500"
       y1="0.01550388"
       x2="0.98437500"
       y2="0.97674417" />
    <linearGradient
       xlink:href="#linearGradient866"
       id="linearGradient862"
       x1="0.00617284"
       y1="0.01550388"
       x2="1.00000000"
       y2="0.96899223" />
    <linearGradient
       xlink:href="#linearGradient916"
       id="linearGradient869"
       x1="0.00641026"
       y1="0.01550388"
       x2="0.97435898"
       y2="0.95348835" />
    <linearGradient
       xlink:href="#linearGradient578"
       id="linearGradient915"
       x1="0.97727275"
       y1="0.98449612"
       x2="-0.01136364"
       y2="0.01550388" />
    <linearGradient
       xlink:href="#linearGradient584"
       id="linearGradient600"
       x1="12.683742"
       y1="28.761297"
       x2="29.532001"
       y2="45.477929"
       gradientTransform="scale(0.900530,1.110457)"
       gradientUnits="userSpaceOnUse" />
    <linearGradient
       xlink:href="#linearGradient584"
       id="linearGradient599"
       x1="10.818061"
       y1="12.214143"
       x2="28.093218"
       y2="28.809789"
       gradientTransform="scale(1.072983,0.931981)"
       gradientUnits="userSpaceOnUse" />
    <linearGradient
       xlink:href="#linearGradient584"
       id="linearGradient3891"
       x1="-0.01086957"
       y1="0.00000000"
       x2="0.98369563"
       y2="0.96875000" />
    <linearGradient
       xlink:href="#linearGradient578"
       id="linearGradient3890"
       x1="0.01538462"
       y1="0.03125000"
       x2="0.99230766"
       y2="0.98437500" />
    <linearGradient
       id="linearGradient3887">
      <stop
         style="stop-color:#f50000;stop-opacity:1;"
         offset="0.00000000"
         id="stop3888" />
      <stop
         style="stop-color:#a90000;stop-opacity:1;"
         offset="1.00000000"
         id="stop3889" />
    </linearGradient>
    <linearGradient
       id="linearGradient3884">
      <stop
         style="stop-color:#ffffff;stop-opacity:1;"
         offset="0.00000000"
         id="stop3885" />
      <stop
         style="stop-color:#ffffff;stop-opacity:0;"
         offset="1.00000000"
         id="stop3886" />
    </linearGradient>
    <linearGradient
       inkscape:collect="always"
       xlink:href="#linearGradient584"
       id="linearGradient3900"
       x1="7.9238937"
       y1="7.7818984"
       x2="52.470367"
       y2="53.056347"
       gradientTransform="scale(1.002997,0.997012)"
       gradientUnits="userSpaceOnUse" />
    <linearGradient
       inkscape:collect="always"
       xlink:href="#linearGradient584"
       id="linearGradient3901"
       x1="27.011859"
       y1="14.766966"
       x2="41.933516"
       y2="29.689507"
       gradientTransform="scale(1.185296,0.843671)"
       gradientUnits="userSpaceOnUse" />
    <linearGradient
       inkscape:collect="always"
       xlink:href="#linearGradient584"
       id="linearGradient4534"
       gradientUnits="userSpaceOnUse"
       gradientTransform="scale(1.002997,0.997012)"
       x1="7.9238937"
       y1="7.7818984"
       x2="52.470367"
       y2="53.056347" />
    <linearGradient
       inkscape:collect="always"
       xlink:href="#linearGradient584"
       id="linearGradient4535"
       gradientUnits="userSpaceOnUse"
       gradientTransform="scale(0.900530,1.110457)"
       x1="12.683742"
       y1="28.761297"
       x2="29.532001"
       y2="45.477929" />
    <linearGradient
       inkscape:collect="always"
       xlink:href="#linearGradient584"
       id="linearGradient4536"
       gradientUnits="userSpaceOnUse"
       gradientTransform="scale(1.072983,0.931981)"
       x1="10.818061"
       y1="12.214143"
       x2="28.093218"
       y2="28.809789" />
    <linearGradient
       inkscape:collect="always"
       xlink:href="#linearGradient584"
       id="linearGradient4537"
       gradientUnits="userSpaceOnUse"
       gradientTransform="scale(1.185296,0.843671)"
       x1="27.011859"
       y1="14.766966"
       x2="41.933516"
       y2="29.689507" />
    <linearGradient
       inkscape:collect="always"
       xlink:href="#linearGradient3887"
       id="linearGradient4543"
       gradientUnits="userSpaceOnUse"
       gradientTransform="scale(1.002997,0.997012)"
       x1="7.9238939"
       y1="7.7818985"
       x2="52.470367"
       y2="53.056347" />
  </defs>
  <sodipodi:namedview
     id="base"
     pagecolor="#ffffff"
     bordercolor="#666666"
     borderopacity="1.0"
     inkscape:pageopacity="0.0"
     inkscape:pageshadow="2"
     inkscape:zoom="7.9794719"
     inkscape:cx="26.457020"
     inkscape:cy="23.768498"
     inkscape:window-width="640"
     inkscape:window-height="545"
     inkscape:window-x="64"
     inkscape:window-y="0"
     inkscape:current-layer="svg1" />
  <path
     d="M 6.5957754 48.029272 C 7.897839 49.834454 46.730744 59.997026 48.448343 59.06577 C 50.085315 58.04166 60.198879 12.904766 59.054834 11.19328 C 58.162465 9.7950239 16.750181 4.428659 15.482296 5.6034291 C 14.161082 6.9769061 5.5131417 46.329592 6.5957754 48.029272 z "
     style="font-size:12;opacity:0.302675;fill-rule:evenodd;stroke-width:12.5;"
     id="path1382" />
  <path
     style="opacity:0.29999998;fill:#000000;fill-opacity:1.0000000;fill-rule:evenodd;stroke:none;stroke-width:18.750000;stroke-linecap:butt;stroke-linejoin:miter;stroke-opacity:1.0000000;"
     d="M 6.9343421,57.521581 C 8.6697699,59.269489 30.340458,42.753724 33.163015,42.585814 C 35.496203,42.585814 55.852471,59.147552 57.388115,57.521581 C 58.948921,55.868962 42.450042,35.015780 42.452338,32.750056 C 42.454776,30.538321 59.141756,9.1884812 57.570255,7.4320985 C 56.045307,5.7277530 35.305967,22.370314 33.163015,22.367873 C 30.792285,22.179666 8.9251706,5.4728096 7.2986293,7.2499548 C 5.6465865,9.0549664 23.321268,30.419816 23.327264,33.114342 C 23.150472,35.518854 5.2704576,55.662281 6.9343421,57.521581 z "
     id="path601"
     sodipodi:nodetypes="cssssssss"
     transform="matrix(0.750000,0.000000,0.000000,0.750000,16.74400,16.76166)" />
  <path
     d="M 3.6974536 44.603983 C 4.9995159 46.409163 43.832423 56.571737 45.550021 55.640479 C 47.186992 54.61637 57.300557 9.4794762 56.15651 7.7679903 C 55.264143 6.3697341 13.851859 1.0033693 12.583974 2.178138 C 11.26276 3.5516377 2.6148185 42.904301 3.6974536 44.603983 z "
     style="font-size:12;fill:url(#linearGradient861);fill-rule:evenodd;stroke:#261933;stroke-width:1.875;stroke-dasharray:none;"
     id="path1289" />
  <path
     d="M 11.007285 46.610677 C 11.676113 41.1163 12.918387 36.195265 14.303891 31.274229 C 23.477029 33.13748 32.363602 35.28751 41.393404 37.724103 C 40.342315 43.122888 39.147889 48.665113 37.666794 53.777226 C 28.302578 52.152796 19.941602 49.525019 11.007285 46.610677 z "
     style="font-size:12;fill:#595161;fill-rule:evenodd;stroke:#261933;stroke-width:1.25;stroke-dasharray:none;"
     id="path1294" />
  <path
     d="M 19.463853 2.8947939 C 17.648344 9.2969353 15.832835 16.558972 15.020567 23.391108 C 24.050369 25.923293 34.513525 28.168808 43.686768 29.840982 C 45.693356 22.340018 47.413273 14.409048 48.703289 6.7647488 C 39.625638 5.1880827 28.541399 3.3247883 19.463853 2.8947939 z "
     style="font-size:12;fill:url(#linearGradient862);fill-rule:evenodd;stroke:#261933;stroke-width:1.25;stroke-dasharray:none;"
     id="path1295" />
  <path
     d="M 16.721197 35.501881 C 16.04552 38.13693 15.369841 40.772084 14.694162 43.407133 C 15.707628 43.677363 16.506195 43.947698 17.519658 44.217927 C 18.060222 41.650435 18.959124 38.796166 19.571355 36.228673 C 18.693005 35.890887 17.742882 35.696331 16.721197 35.501881 z M 11.684969 46.259794 C 12.335986 41.171814 13.660252 36.749764 14.741273 32.020123 C 21.633062 33.350927 29.384864 35.122991 36.204985 37.098804 C 35.195631 41.959552 33.690126 47.074591 32.394101 52.078676 C 25.430644 50.616869 18.57676 48.796616 11.684969 46.259794 z "
     style="font-size:12;fill:url(#linearGradient869);fill-rule:evenodd;stroke:none;stroke-width:6.25;stroke-dasharray:none;stroke-opacity:1;"
     id="path1306"
     sodipodi:nodetypes="cccccccccc" />
  <path
     d="M 5.9907637 43.313966 C 5.582575 42.267936 12.259889 6.4493066 14.590666 4.4712705 C 16.914804 2.4771924 52.320924 8.6171469 52.716676 9.6312432 C 53.085342 10.575992 25.225297 4.0715333 17.31393 9.7744719 C 9.6499217 15.299096 6.3469935 44.22678 5.9907637 43.313966 z "
     style="font-size:12;opacity:0.7;fill:url(#linearGradient581);fill-rule:evenodd;stroke:none;stroke-width:1pt;"
     id="path1310" />
  <path
     d="M 12.489796 45.022735 C 12.402743 44.823752 14.595032 33.369371 15.356501 32.982892 C 16.49317 32.357804 24.514779 34.505091 24.601306 34.702915 C 24.681933 34.887249 18.231111 33.404677 16.468298 34.72821 C 14.678821 36.089156 12.570001 45.206014 12.489796 45.022735 z "
     style="font-size:12;opacity:0.7;fill:url(#linearGradient583);fill-rule:evenodd;stroke:none;stroke-width:1pt;"
     id="path1315"
     sodipodi:nodetypes="ccccc" />
  <path
     d="M 15.522239 44.173978 C 15.479661 44.06753 17.299175 45.244249 17.672269 44.818985 C 18.493601 43.88267 19.060617 39.976679 19.105515 40.089028 C 19.156104 40.215607 18.952062 44.826363 18.156552 45.733275 C 17.757639 46.188048 15.575253 44.306351 15.522239 44.173978 z "
     style="font-size:12;opacity:0.990000;fill:url(#linearGradient860);fill-rule:evenodd;stroke:none;stroke-width:1pt;"
     id="path1316" />
  <path
     d="M 21.328475 9.5736994 C 28.526013 10.698881 36.827861 12.408153 43.688139 14.340753 C 44.131002 14.46554 43.698046 15.817951 43.23779 15.746071 C 36.096745 14.629953 27.800482 12.724859 20.884559 10.776555 C 20.497448 10.667474 20.924819 9.5106721 21.328475 9.5736994 z "
     style="font-size:12;opacity:0.25;fill-rule:evenodd;stroke-width:1pt;"
     id="path1379" />
  <path
     d="M 20.517473 13.582025 C 27.71501 14.707101 36.016752 16.416373 42.877134 18.349081 C 43.319893 18.473867 42.887041 19.826277 42.426788 19.754399 C 35.285743 18.638175 26.989373 16.733187 20.073556 14.784882 C 19.686339 14.6758 20.113814 13.518895 20.517473 13.582025 z "
     style="font-size:12;opacity:0.25;fill-rule:evenodd;stroke-width:1pt;"
     id="path1380" />
  <path
     d="M 19.632694 17.804513 C 26.83023 18.929483 35.13208 20.638756 41.992356 22.571463 C 42.43522 22.696248 42.002157 24.048658 41.542114 23.976781 C 34.401069 22.860556 26.104702 20.955569 19.188777 19.007263 C 18.801665 18.898181 19.229141 17.741276 19.632694 17.804513 z "
     style="font-size:12;opacity:0.25;fill-rule:evenodd;stroke-width:1pt;"
     id="path1381" />
  <path
     style="font-size:12.000000;fill:url(#linearGradient4543);fill-rule:evenodd;stroke:#330000;stroke-width:1.6666667;stroke-miterlimit:4.0000000;stroke-dasharray:none;fill-opacity:1.0;"
     d="M 8.6789349,52.921631 C 10.201644,54.455286 29.216052,39.963940 31.692638,39.816608 C 33.739832,39.816610 51.600940,54.348291 52.948352,52.921631 C 54.317837,51.471577 39.841309,33.174476 39.843326,31.186470 C 39.845462,29.245838 54.487041,10.512949 53.108167,8.9718535 C 51.770142,7.4764170 33.572918,22.079021 31.692638,22.076881 C 29.612497,21.911742 10.425738,7.2527237 8.9985705,8.8120369 C 7.5490258,10.395798 23.057238,29.141858 23.062500,31.506106 C 22.907378,33.615884 7.2190010,51.290239 8.6789349,52.921631 z "
     id="path589"
     sodipodi:nodetypes="cssssssss"
     transform="matrix(0.750000,0.000000,0.000000,0.750000,16.74400,16.76166)" />
  <path
     style="font-size:12.000000;fill:url(#linearGradient4535);fill-rule:evenodd;stroke:none;stroke-width:1.0000000pt;"
     d="M 11.425068,50.323641 C 11.667991,49.575931 22.742805,35.368244 26.375023,31.706693 C 27.073600,31.002476 25.959680,36.622014 25.056727,37.705778 C 21.185667,42.351995 11.224771,50.940143 11.425068,50.323641 z "
     id="path596"
     sodipodi:nodetypes="csss"
     transform="matrix(0.750000,0.000000,0.000000,0.750000,16.74400,16.76166)" />
  <path
     style="opacity:0.75038201;fill:url(#linearGradient4536);fill-opacity:1.0000000;fill-rule:evenodd;stroke:none;stroke-width:1.0000000pt;stroke-linecap:butt;stroke-linejoin:miter;stroke-opacity:1.0000000;"
     d="M 19.863314,23.039014 C 18.904982,22.113726 10.930725,11.494995 11.549574,11.207671 C 12.266137,10.874983 24.231025,19.334637 25.148082,20.220071 C 25.614127,20.670048 15.529076,14.447013 15.219429,14.574634 C 15.041851,14.657082 20.288086,23.449137 19.863314,23.039014 z "
     id="path597"
     sodipodi:nodetypes="cssss"
     transform="matrix(0.750000,0.000000,0.000000,0.750000,16.74400,16.76166)" />
  <path
     style="fill:url(#linearGradient4537);fill-opacity:1.0000000;fill-rule:evenodd;stroke:none;stroke-width:1.0000000pt;stroke-linecap:butt;stroke-linejoin:miter;stroke-opacity:1.0000000;"
     d="M 32.616090,24.462783 C 35.912102,21.298612 49.321330,12.110487 50.071639,12.168203 C 50.706412,12.217033 43.026197,20.214299 38.724604,23.195602 C 37.645678,23.943372 31.916665,25.134229 32.616090,24.462783 z "
     id="path598"
     sodipodi:nodetypes="csss"
     transform="matrix(0.750000,0.000000,0.000000,0.750000,16.74400,16.76166)" />
</svg>
