<?xml version="1.0" encoding="UTF-8" standalone="no"?>
<!DOCTYPE svg PUBLIC "-//W3C//DTD SVG 20010904//EN"
"http://www.w3.org/TR/2001/REC-SVG-20010904/DTD/svg10.dtd">
<!-- Created with Inkscape (http://www.inkscape.org/) -->
<svg
   version="1.0"
   x="0"
   y="0"
   width="48pt"
   height="48pt"
   id="svg1"
   sodipodi:version="0.32"
   inkscape:version="0.40"
   sodipodi:docname="info_lock_bad.svg"
   sodipodi:docbase="/home/andrew/lila"
   xmlns="http://www.w3.org/2000/svg"
   xmlns:inkscape="http://www.inkscape.org/namespaces/inkscape"
   xmlns:sodipodi="http://sodipodi.sourceforge.net/DTD/sodipodi-0.dtd"
   xmlns:xlink="http://www.w3.org/1999/xlink"
   xmlns:rdf="http://www.w3.org/1999/02/22-rdf-syntax-ns#"
   xmlns:cc="http://web.resource.org/cc/"
   xmlns:dc="http://purl.org/dc/elements/1.1/">
  <metadata
     id="metadata25">
    <rdf:RDF
       id="RDF26">
      <cc:Work
         rdf:about=""
         id="Work27">
        <dc:format
           id="format28">image/svg+xml</dc:format>
        <dc:type
           id="type30"
           rdf:resource="http://purl.org/dc/dcmitype/StillImage" />
      </cc:Work>
    </rdf:RDF>
  </metadata>
  <sodipodi:namedview
     id="base"
     inkscape:zoom="11.333333"
     inkscape:cx="24.000000"
     inkscape:cy="24.000000"
     inkscape:window-width="639"
     inkscape:window-height="775"
     inkscape:window-x="64"
     inkscape:window-y="0"
     inkscape:current-layer="svg1" />
  <defs
     id="defs3">
    <linearGradient
       id="linearGradient595">
      <stop
         style="stop-color:#7f7f7f;stop-opacity:1;"
         offset="0"
         id="stop596" />
      <stop
         style="stop-color:#e6e6e6;stop-opacity:1;"
         offset="1"
         id="stop597" />
    </linearGradient>
    <linearGradient
       id="linearGradient590">
      <stop
         style="stop-color:#ffffff;stop-opacity:1;"
         offset="0"
         id="stop591" />
      <stop
         style="stop-color:#ffffff;stop-opacity:0;"
         offset="1"
         id="stop592" />
    </linearGradient>
    <linearGradient
       id="linearGradient584">
      <stop
         style="stop-color:#d9cce6;stop-opacity:1;"
         offset="0.00000000"
         id="stop585" />
      <stop
         style="stop-color:#73667f;stop-opacity:1;"
         offset="1.00000000"
         id="stop586" />
    </linearGradient>
    <linearGradient
       x1="0.01204819"
       y1="0.01562500"
       x2="0.98795182"
       y2="1.00000000"
       id="linearGradient587"
       xlink:href="#linearGradient584" />
    <linearGradient
       x1="0.011696"
       y1="0.000001"
       x2="0.842105"
       y2="0.906250"
       id="linearGradient589"
       xlink:href="#linearGradient590" />
    <linearGradient
       x1="0.99218750"
       y1="0.98437500"
       x2="0.01562500"
       y2="0.00781250"
       id="linearGradient594"
       xlink:href="#linearGradient595" />
    <linearGradient
       x1="0.000001"
       y1="0.023434"
       x2="0.952381"
       y2="0.976562"
       id="linearGradient599"
       xlink:href="#linearGradient590" />
    <linearGradient
       id="linearGradient601"
       xlink:href="#linearGradient595" />
    <linearGradient
       xlink:href="#linearGradient590"
       id="linearGradient600"
       x1="12.683742"
       y1="28.761297"
       x2="29.532001"
       y2="45.477928"
       gradientTransform="scale(0.900530,1.110457)"
       gradientUnits="userSpaceOnUse" />
    <linearGradient
       xlink:href="#linearGradient584"
       id="linearGradient1154"
       x1="0.00675676"
       y1="0.01562500"
       x2="1.36486483"
       y2="1.32031250" />
    <linearGradient
       xlink:href="#linearGradient590"
       id="linearGradient583"
       x1="27.306528"
       y1="14.422600"
       x2="42.033802"
       y2="28.767611"
       gradientTransform="scale(1.185296,0.843671)"
       gradientUnits="userSpaceOnUse" />
    <linearGradient
       xlink:href="#linearGradient578"
       id="linearGradient581"
       x1="8.3360181"
       y1="9.2304113"
       x2="53.618758"
       y2="53.410054"
       gradientTransform="scale(1.002997,0.997012)"
       gradientUnits="userSpaceOnUse" />
    <linearGradient
       id="linearGradient578">
      <stop
         style="stop-color:#f50000;stop-opacity:1;"
         offset="0.00000000"
         id="stop579" />
      <stop
         style="stop-color:#a90000;stop-opacity:1;"
         offset="1.00000000"
         id="stop580" />
    </linearGradient>
    <linearGradient
       id="linearGradient1146">
      <stop
         style="stop-color:#ffffff;stop-opacity:1;"
         offset="0.00000000"
         id="stop1147" />
      <stop
         style="stop-color:#ffffff;stop-opacity:0;"
         offset="1.00000000"
         id="stop1148" />
    </linearGradient>
    <linearGradient
       inkscape:collect="always"
       xlink:href="#linearGradient590"
       id="linearGradient1162"
       x1="10.732128"
       y1="12.313473"
       x2="22.846417"
       y2="24.437277"
       gradientTransform="scale(1.072983,0.931981)"
       gradientUnits="userSpaceOnUse" />
    <linearGradient
       inkscape:collect="always"
       xlink:href="#linearGradient578"
       id="linearGradient1809"
       gradientTransform="scale(1.003010,0.996999)"
       x1="7.7264376"
       y1="8.4778576"
       x2="53.578911"
       y2="53.734970"
       gradientUnits="userSpaceOnUse" />
  </defs>
  <path
     d="M 21.763724 27.047083 C 21.649109 18.710047 24.204701 6.359931 33.257556 6.4422007 C 42.940157 6.5314589 45.130056 20.079421 44.89166 27.467605 C 44.773132 31.072644 38.215478 30.350853 38.303701 27.467605 C 38.23279 23.530476 39.27471 14.151618 32.977207 14.151618 C 26.706188 14.011445 28.121115 23.666115 28.071336 27.467605 C 28.180691 29.679772 21.754753 30.001965 21.763724 27.047083 z "
     style="font-size:12;opacity:0.302675;fill-rule:evenodd;stroke-width:12.5;"
     id="path602" />
  <path
     d="M 14.479347 55.521662 C 15.839626 56.624533 49.46983 57.213241 50.506427 56.105115 C 51.658313 54.711584 51.335586 29.643749 50.214699 28.39201 C 49.113648 27.177165 15.699121 26.979284 14.625209 28.246146 C 13.599123 29.311805 13.139123 54.316896 14.479347 55.521662 z "
     style="font-size:12;opacity:0.296369;fill-rule:evenodd;stroke-width:12.5;"
     id="path600" />
  <path
     d="M 19.92149 25.317825 C 19.808517 17.099678 22.327666 4.9256819 31.251414 5.0067783 C 40.795937 5.0947629 42.954615 18.449525 42.719611 25.73235 C 42.602773 29.285979 36.138635 28.574482 36.2256 25.73235 C 36.155699 21.851366 37.182771 12.606256 30.975063 12.606256 C 24.793472 12.468083 26.188222 21.985071 26.139152 25.73235 C 26.246948 27.912971 19.912656 28.23057 19.92149 25.317825 z "
     style="font-size:12;fill:url(#linearGradient594);fill-rule:evenodd;stroke:#333333;stroke-width:1.875;stroke-dasharray:none;"
     id="path593" />
  <path
     d="M 13.841903 52.813781 C 15.130484 53.858532 46.988098 54.416209 47.970047 53.366481 C 49.061222 52.046411 48.755513 28.29986 47.693698 27.114096 C 46.650682 25.963283 14.997394 25.775834 13.980078 26.975922 C 13.008083 27.985411 12.572321 51.672526 13.841903 52.813781 z "
     style="font-size:12;fill:url(#linearGradient587);fill-rule:evenodd;stroke:#261933;stroke-width:1.875;stroke-dasharray:none;"
     id="path583" />
  <path
     d="M 15.776355 51.432138 C 15.277096 50.758229 14.636609 29.744496 15.914529 28.772193 C 17.629515 27.500479 45.692806 28.675267 46.17388 29.32479 C 46.613907 29.918841 24.666778 28.147157 18.677923 32.502709 C 14.534305 35.51624 16.198296 52.001705 15.776355 51.432138 z "
     style="font-size:12;opacity:0.7;fill:url(#linearGradient589);fill-rule:evenodd;stroke:none;stroke-width:0.110046pt;"
     id="path588" />
  <path
     d="M 21.579483 19.652864 C 22.473556 13.898699 24.676127 9.6907693 27.797145 7.2175029 C 29.558162 5.8219987 34.358411 6.171815 36.640125 8.4610345 C 33.667544 7.4153465 30.319346 7.4242768 28.48802 8.875539 C 25.437301 11.293089 23.164431 15.142272 21.579483 19.652864 z "
     style="font-size:12;opacity:0.7;fill:url(#linearGradient599);fill-rule:evenodd;stroke:none;stroke-width:0.110046pt;"
     id="path598" />
  <path
     d="M 31.496165 32.785356 C 33.132315 32.918045 36.144118 35.851715 36.144118 37.312409 C 36.144118 38.61826 31.926544 39.571565 31.496165 41.084987 C 30.734684 43.76344 33.294067 47.719198 32.568548 49.887732 C 32.340554 50.569566 28.868715 50.353668 28.635544 49.636277 C 27.915203 47.419488 30.085968 43.849194 29.708326 41.084987 C 29.490196 39.489778 26.551031 37.935822 26.847805 36.557938 C 27.147019 35.169277 30.033447 32.666588 31.496165 32.785356 z "
     style="font-size:12;fill:#261933;fill-rule:evenodd;stroke-width:1.28711pt;fill-opacity:1;"
     id="path603" />
  <path
     style="opacity:0.29999998;fill:#000000;fill-opacity:1.0000000;fill-rule:evenodd;stroke:none;stroke-width:18.750000;stroke-linecap:butt;stroke-linejoin:miter;stroke-opacity:1.0000000;"
     d="M 6.9343421,57.521581 C 8.6697699,59.269489 30.340458,42.753724 33.163015,42.585814 C 35.496203,42.585814 55.852471,59.147552 57.388115,57.521581 C 58.948921,55.868962 42.450042,35.015780 42.452338,32.750056 C 42.454776,30.538321 59.141756,9.1884812 57.570255,7.4320985 C 56.045307,5.7277530 35.305967,22.370314 33.163015,22.367873 C 30.792285,22.179666 8.9251706,5.4728096 7.2986293,7.2499548 C 5.6465865,9.0549664 23.321268,30.419816 23.327264,33.114342 C 23.150472,35.518854 5.2704576,55.662281 6.9343421,57.521581 z "
     id="path601"
     sodipodi:nodetypes="cssssssss"
     transform="matrix(0.750000,0.000000,0.000000,0.750000,16.74400,16.76166)" />
  <path
     style="font-size:12.000000;fill:url(#linearGradient1809);fill-rule:evenodd;stroke:#330000;stroke-width:1.6666667;stroke-miterlimit:4.0000000;stroke-dasharray:none;fill-opacity:1.0;"
     d="M 8.6789349,52.921631 C 10.201644,54.455286 29.216052,39.963940 31.692638,39.816608 C 33.739832,39.816610 51.600940,54.348291 52.948352,52.921631 C 54.317837,51.471577 39.841309,33.174476 39.843326,31.186470 C 39.845462,29.245838 54.487041,10.512949 53.108167,8.9718535 C 51.770142,7.4764170 33.572918,22.079021 31.692638,22.076881 C 29.612497,21.911742 10.425738,7.2527237 8.9985705,8.8120369 C 7.5490258,10.395798 23.057238,29.141858 23.062500,31.506106 C 22.907378,33.615884 7.2190010,51.290239 8.6789349,52.921631 z "
     id="path589"
     sodipodi:nodetypes="cssssssss"
     transform="matrix(0.750000,0.000000,0.000000,0.750000,16.74400,16.76166)" />
  <path
     style="font-size:12.000000;fill:url(#linearGradient600);fill-rule:evenodd;stroke:none;stroke-width:1.0000000pt;fill-opacity:1.0;"
     d="M 11.425068,50.323641 C 11.667991,49.575931 22.742805,35.368244 26.375023,31.706693 C 27.073600,31.002476 25.959680,36.622014 25.056727,37.705778 C 21.185667,42.351995 11.224771,50.940143 11.425068,50.323641 z "
     id="path596"
     sodipodi:nodetypes="csss"
     transform="matrix(0.750000,0.000000,0.000000,0.750000,16.74400,16.76166)" />
  <path
     style="opacity:0.75038201;fill:url(#linearGradient1162);fill-opacity:1.0000000;fill-rule:evenodd;stroke:none;stroke-width:1.0000000pt;stroke-linecap:butt;stroke-linejoin:miter;stroke-opacity:1.0000000;"
     d="M 19.863314,23.039014 C 18.904982,22.113726 10.930725,11.494995 11.549574,11.207671 C 12.266137,10.874983 24.231025,19.334637 25.148082,20.220071 C 25.614127,20.670048 15.529076,14.447013 15.219429,14.574634 C 15.041851,14.657082 20.288086,23.449137 19.863314,23.039014 z "
     id="path597"
     sodipodi:nodetypes="cssss"
     transform="matrix(0.750000,0.000000,0.000000,0.750000,16.74400,16.76166)" />
  <path
     style="fill:url(#linearGradient583);fill-opacity:1.0;fill-rule:evenodd;stroke:none;stroke-width:1.0000000pt;stroke-linecap:butt;stroke-linejoin:miter;stroke-opacity:1.0000000;"
     d="M 32.616090,24.462783 C 35.912102,21.298612 49.321330,12.110487 50.071639,12.168203 C 50.706412,12.217033 43.026197,20.214299 38.724604,23.195602 C 37.645678,23.943372 31.916665,25.134229 32.616090,24.462783 z "
     id="path1161"
     sodipodi:nodetypes="csss"
     transform="matrix(0.750000,0.000000,0.000000,0.750000,16.74400,16.76166)" />
</svg>
