<?xml version="1.0" encoding="UTF-8" standalone="no"?>
<!DOCTYPE svg PUBLIC "-//W3C//DTD SVG 20010904//EN"
"http://www.w3.org/TR/2001/REC-SVG-20010904/DTD/svg10.dtd">
<!-- Created with Inkscape (http://www.inkscape.org/) -->
<svg
   id="svg1"
   sodipodi:version="0.32"
   inkscape:version="0.40"
   width="48pt"
   height="48pt"
   sodipodi:docbase="/home/andrew/lila"
   sodipodi:docname="balsa_previous.svg"
   xmlns="http://www.w3.org/2000/svg"
   xmlns:cc="http://web.resource.org/cc/"
   xmlns:inkscape="http://www.inkscape.org/namespaces/inkscape"
   xmlns:sodipodi="http://sodipodi.sourceforge.net/DTD/sodipodi-0.dtd"
   xmlns:rdf="http://www.w3.org/1999/02/22-rdf-syntax-ns#"
   xmlns:dc="http://purl.org/dc/elements/1.1/"
   xmlns:xlink="http://www.w3.org/1999/xlink">
  <metadata
     id="metadata1860">
    <rdf:RDF
       id="RDF1861">
      <cc:Work
         rdf:about=""
         id="Work1862">
        <dc:format
           id="format1863">image/svg+xml</dc:format>
        <dc:type
           id="type1865"
           rdf:resource="http://purl.org/dc/dcmitype/StillImage" />
      </cc:Work>
    </rdf:RDF>
  </metadata>
  <defs
     id="defs3">
    <linearGradient
       inkscape:collect="always"
       id="linearGradient2697">
      <stop
         style="stop-color:#000000;stop-opacity:1;"
         offset="0"
         id="stop2698" />
      <stop
         style="stop-color:#000000;stop-opacity:0;"
         offset="1"
         id="stop2699" />
    </linearGradient>
    <linearGradient
       id="linearGradient866">
      <stop
         style="stop-color:#ffffff;stop-opacity:1;"
         offset="0.00000000"
         id="stop867" />
      <stop
         style="stop-color:#d9cce6;stop-opacity:1;"
         offset="1.00000000"
         id="stop868" />
    </linearGradient>
    <linearGradient
       id="linearGradient584">
      <stop
         style="stop-color:#ffffff;stop-opacity:1;"
         offset="0.00000000"
         id="stop585" />
      <stop
         style="stop-color:#ffffff;stop-opacity:0;"
         offset="1.00000000"
         id="stop586" />
    </linearGradient>
    <linearGradient
       xlink:href="#linearGradient866"
       id="linearGradient586"
       x1="-0.00000000"
       y1="0.01562500"
       x2="0.99122804"
       y2="0.98437500" />
    <linearGradient
       xlink:href="#linearGradient584"
       id="linearGradient587"
       x1="0.00000000"
       y1="-0.00000000"
       x2="1.00000000"
       y2="1.00000000" />
    <linearGradient
       xlink:href="#linearGradient584"
       id="linearGradient614"
       x1="0.01052632"
       y1="0.02857143"
       x2="0.97894734"
       y2="0.95714283" />
    <linearGradient
       xlink:href="#linearGradient584"
       id="linearGradient612"
       x1="11.361263"
       y1="51.326314"
       x2="18.463146"
       y2="57.996108"
       gradientTransform="scale(2.819833,0.354631)"
       gradientUnits="userSpaceOnUse" />
    <linearGradient
       xlink:href="#linearGradient584"
       id="linearGradient583"
       x1="9.0543469"
       y1="7.9058657"
       x2="38.185177"
       y2="36.802136"
       gradientTransform="scale(0.896216,1.115802)"
       gradientUnits="userSpaceOnUse" />
    <linearGradient
       xlink:href="#linearGradient2697"
       id="linearGradient581"
       x1="4.9496508"
       y1="5.4596281"
       x2="55.299973"
       y2="54.677448"
       gradientTransform="scale(0.992813,1.007239)"
       gradientUnits="userSpaceOnUse" />
    <linearGradient
       id="linearGradient578">
      <stop
         style="stop-color:#d9cce6;stop-opacity:1.0000000;"
         offset="0.0000000"
         id="stop579" />
      <stop
         style="stop-color:#73667f;stop-opacity:1;"
         offset="1.00000000"
         id="stop580" />
    </linearGradient>
    <linearGradient
       id="linearGradient1929">
      <stop
         style="stop-color:#ffffff;stop-opacity:1;"
         offset="0.00000000"
         id="stop1930" />
      <stop
         style="stop-color:#ffffff;stop-opacity:0;"
         offset="1.00000000"
         id="stop1931" />
    </linearGradient>
    <linearGradient
       xlink:href="#linearGradient584"
       id="linearGradient1170"
       x1="0.01052632"
       y1="0.02857143"
       x2="0.97894734"
       y2="0.95714283" />
    <linearGradient
       xlink:href="#linearGradient584"
       id="linearGradient1169"
       x1="0.00342466"
       y1="-0.50000000"
       x2="0.74657536"
       y2="0.63157892" />
    <linearGradient
       xlink:href="#linearGradient584"
       id="linearGradient1168"
       x1="0.01538462"
       y1="0.01428571"
       x2="0.96923077"
       y2="0.98571426" />
    <linearGradient
       xlink:href="#linearGradient578"
       id="linearGradient1167"
       x1="0.00694444"
       y1="0.02142857"
       x2="0.98611110"
       y2="0.97857141" />
    <linearGradient
       id="linearGradient1164">
      <stop
         style="stop-color:#d9cce6;stop-opacity:1;"
         offset="0.00000000"
         id="stop1165" />
      <stop
         style="stop-color:#73667f;stop-opacity:1;"
         offset="1.00000000"
         id="stop1166" />
    </linearGradient>
    <linearGradient
       id="linearGradient1161">
      <stop
         style="stop-color:#ffffff;stop-opacity:1;"
         offset="0.00000000"
         id="stop1162" />
      <stop
         style="stop-color:#ffffff;stop-opacity:0;"
         offset="1.00000000"
         id="stop1163" />
    </linearGradient>
    <linearGradient
       inkscape:collect="always"
       xlink:href="#linearGradient584"
       id="linearGradient1838"
       gradientUnits="userSpaceOnUse"
       gradientTransform="scale(0.896216,1.115802)"
       x1="9.0543469"
       y1="7.9058657"
       x2="38.185177"
       y2="36.802136" />
    <linearGradient
       inkscape:collect="always"
       xlink:href="#linearGradient584"
       id="linearGradient1839"
       gradientUnits="userSpaceOnUse"
       gradientTransform="scale(2.819833,0.354631)"
       x1="11.361263"
       y1="51.326314"
       x2="18.463146"
       y2="57.996108" />
    <linearGradient
       inkscape:collect="always"
       xlink:href="#linearGradient1164"
       id="linearGradient2470"
       gradientTransform="scale(0.992813,1.007239)"
       x1="4.3155885"
       y1="4.6690845"
       x2="55.160568"
       y2="55.192444"
       gradientUnits="userSpaceOnUse" />
  </defs>
  <sodipodi:namedview
     id="base"
     pagecolor="#ffffff"
     bordercolor="#666666"
     borderopacity="1.0"
     inkscape:pageopacity="0.0"
     inkscape:pageshadow="2"
     inkscape:zoom="10.562500"
     inkscape:cx="24.000000"
     inkscape:cy="24.000000"
     inkscape:window-width="640"
     inkscape:window-height="693"
     inkscape:window-x="64"
     inkscape:window-y="0"
     inkscape:current-layer="svg1" />
  <path
     d="M 4.4389304 48.086315 C 5.2483181 50.50443 38.765774 61.377487 40.966438 59.55288 C 42.936267 57.902492 57.675565 8.7785888 56.688667 6.8303779 C 55.662821 4.6824777 21.657054 -0.6675724 20.042945 0.80153134 C 18.054709 2.621752 3.5888672 45.311841 4.4389304 48.086315 z "
     style="font-size:12;opacity:0.302675;fill-rule:evenodd;stroke-width:12.5;"
     id="path639" />
  <path
     d="M 4.5541516 46.08493 C 5.3114351 48.34726 36.66955 58.519843 38.728432 56.812781 C 40.571358 55.268717 54.36111 9.3095333 53.437795 7.4867937 C 52.478034 5.477268 20.663028 0.47192513 19.152904 1.8463842 C 17.292759 3.5493405 3.7588508 43.489198 4.5541516 46.08493 z "
     style="font-size:12;fill:url(#linearGradient586);fill-rule:evenodd;stroke:#261933;stroke-width:1.87726;"
     id="path634" />
  <path
     d="M 6.6876568 43.965773 C 6.360392 43.13667 19.363758 4.5872629 20.579427 3.7922731 C 22.09876 2.7554118 46.659814 7.3454032 46.98631 8.172561 C 47.28557 8.9306762 27.823671 5.3906629 23.493845 9.2635774 C 15.189619 16.482895 6.9861475 44.721984 6.6876568 43.965773 z "
     style="font-size:12;opacity:0.699936;fill:url(#linearGradient587);fill-rule:evenodd;stroke:none;stroke-width:0.100121pt;"
     id="path640" />
  <g
     id="g626"
     style="fill:#261933;fill-opacity:1;"
     transform="matrix(1.005217,-4.210047e-2,-3.563547e-3,1.096472,-0.353062,-0.388612)">
    <path
       d="M 17.007036 17.956608 C 26.200556 19.828531 36.291137 22.262589 45.172716 24.8357 C 45.549883 24.944998 45.17088 26.082883 44.783369 26.003928 C 35.60928 24.135963 25.3921 21.574639 16.487909 18.994955 C 16.133354 18.89223 16.63895 17.881616 17.007036 17.956608 z "
       style="font-size:12;fill:#261933;fill-rule:evenodd;stroke-width:1pt;fill-opacity:1;"
       id="path643" />
    <path
       d="M 21.679653 15.230906 C 30.873173 17.10283 37.459271 18.498539 46.340844 21.071651 C 46.718016 21.180948 46.339008 22.318828 45.951503 22.239878 C 36.777408 20.371913 30.064717 18.848937 21.160526 16.269253 C 20.805971 16.166529 21.311573 15.155914 21.679653 15.230906 z "
       style="font-size:12;fill:#261933;fill-rule:evenodd;stroke-width:1pt;fill-opacity:1;"
       id="path644" />
    <path
       d="M 15.579248 21.720657 C 24.772763 23.592581 34.863349 26.026638 43.744928 28.599756 C 44.122095 28.709047 43.743092 29.846933 43.355581 29.767977 C 34.181486 27.900018 23.964312 25.338689 15.060121 22.759005 C 14.705566 22.65628 15.211162 21.645666 15.579248 21.720657 z "
       style="font-size:12;fill:#261933;fill-rule:evenodd;stroke-width:1pt;fill-opacity:1;"
       id="path645" />
    <path
       d="M 12.645102 29.625444 C 21.795715 31.697116 17.373479 30.530047 26.196884 33.295949 C 26.571636 33.413456 26.167893 34.542839 25.782219 34.455382 C 16.650937 32.388153 20.949381 33.42515 12.103463 30.652196 C 11.751224 30.541835 12.278759 29.54243 12.645102 29.625444 z "
       style="font-size:12;fill:#261933;fill-rule:evenodd;stroke-width:1pt;fill-opacity:1;"
       id="path646" />
    <path
       d="M 20.137738 8.3243638 C 23.31927 8.783286 23.882942 8.7358283 26.791289 9.5225477 C 27.17145 9.6210194 26.856902 10.771562 26.466303 10.710199 C 23.434169 10.254272 23.179245 10.123234 19.676014 9.3894807 C 19.195444 9.2664634 19.765594 8.2727897 20.137738 8.3243638 z "
       style="font-size:12;fill:#261933;fill-rule:evenodd;stroke-width:1pt;fill-opacity:1;"
       id="path647" />
    <path
       d="M 14.055594 25.629661 C 23.233169 27.577833 33.303266 30.095477 42.163193 32.742229 C 42.5394 32.854713 42.151019 33.989407 41.764093 33.907264 C 32.605844 31.96315 22.410317 29.317176 13.527866 26.663658 C 13.174182 26.55794 13.688093 25.551577 14.055594 25.629661 z "
       style="font-size:12;fill:#261933;fill-rule:evenodd;stroke-width:1pt;fill-opacity:1;"
       id="path648" />
  </g>
  <path
     style="font-size:12.000000;opacity:0.30267498;fill:#000000;fill-opacity:1.0000000;fill-rule:evenodd;stroke:none;stroke-width:14.847900;"
     d="M 57.185183,45.841285 C 58.932784,44.748530 58.282973,18.278041 57.185183,16.815820 C 55.879627,15.150061 34.629893,17.901619 32.892128,16.815820 C 31.383584,15.980480 34.366964,2.7983284 32.892128,3.2495668 C 31.521008,3.7190068 3.3694150,24.566651 3.2356728,30.382071 C 3.2959543,35.856851 30.964064,58.665060 32.892128,59.092042 C 34.591299,59.429314 31.863439,46.192919 33.207623,45.210297 C 34.900126,43.908246 55.300519,47.159240 57.185183,45.841285 z "
     id="path617"
     sodipodi:nodetypes="csssssss"
     transform="matrix(0.750000,0.000000,0.000000,0.750000,-2.426755,6.623767)" />
  <path
     style="font-size:12.000000;fill:url(#linearGradient2470);fill-rule:evenodd;stroke:#261933;stroke-width:1.6666667;fill-opacity:1.0;stroke-miterlimit:4.0000000;stroke-dasharray:none;"
     d="M 53.524172,43.118367 C 55.088862,42.139984 54.507066,18.440007 53.524172,17.130827 C 52.355262,15.639415 33.329613,18.102984 31.773729,17.130827 C 30.423077,16.382920 33.094203,4.5804642 31.773729,4.9844741 C 30.546117,5.4047817 5.3409860,23.716278 5.2212425,29.277179 C 5.2753264,34.356029 30.047466,54.599953 31.773729,54.982247 C 33.295059,55.284216 30.852709,43.433198 32.056204,42.553422 C 33.571564,41.387649 51.836767,44.298380 53.524172,43.118367 z "
     id="path589"
     sodipodi:nodetypes="csssssss"
     transform="matrix(0.750000,0.000000,0.000000,0.750000,-2.426755,6.623767)" />
  <path
     style="opacity:0.20178296;fill:#261e2e;fill-opacity:1.0000000;fill-rule:evenodd;stroke:none;stroke-width:1.0000000pt;stroke-linecap:butt;stroke-linejoin:miter;stroke-opacity:1.0000000;"
     d="M 54.293035,29.836689 C 52.305858,29.613049 6.9098832,28.361409 5.4609799,29.711479 C 4.2634320,30.702128 25.454190,51.414391 31.504744,54.377928 C 33.634603,55.421124 29.064829,43.515081 31.629954,42.232520 C 36.243560,39.925716 47.751846,44.836815 53.040932,42.733360 C 54.164865,42.339591 55.603268,29.998238 54.293035,29.836689 z "
     id="path1174"
     sodipodi:nodetypes="csssss"
     transform="matrix(0.750000,0.000000,0.000000,0.750000,-2.426755,6.623767)" />
  <path
     style="fill:url(#linearGradient1838);fill-opacity:1.0000000;fill-rule:evenodd;stroke:none;stroke-width:1.0000000pt;stroke-linecap:butt;stroke-linejoin:miter;stroke-opacity:1.0000000;"
     d="M 6.8824850,29.036988 C 12.801610,19.570525 30.694647,7.2268616 30.964582,7.2568547 C 31.225869,7.2858862 15.924185,21.202746 9.7156730,28.859913 C 8.8412165,29.938408 9.9585423,33.490829 9.7156730,33.463844 C 9.4273208,33.431805 6.0699156,30.376605 6.8824850,29.036988 z "
     id="path665"
     sodipodi:nodetypes="cssss"
     transform="matrix(0.750000,0.000000,0.000000,0.750000,-2.426755,6.623767)" />
  <path
     style="fill:url(#linearGradient1839);fill-opacity:1.0000000;fill-rule:evenodd;stroke:none;stroke-width:1.0000000pt;stroke-linecap:butt;stroke-linejoin:miter;stroke-opacity:1.0000000;"
     d="M 32.204101,18.766681 C 36.670941,18.795242 51.675519,17.877935 52.390565,18.235457 C 52.974062,18.527207 41.421852,20.574442 36.099734,20.714497 C 34.693029,20.751515 31.240665,18.913290 32.204101,18.766681 z "
     id="path666"
     sodipodi:nodetypes="csss"
     transform="matrix(0.750000,0.000000,0.000000,0.750000,-2.426755,6.623767)" />
</svg>
