<?xml version="1.0" encoding="UTF-8" standalone="no"?>
<!DOCTYPE svg PUBLIC "-//W3C//DTD SVG 20010904//EN"
"http://www.w3.org/TR/2001/REC-SVG-20010904/DTD/svg10.dtd">
<!-- Created with Inkscape (http://www.inkscape.org/) -->
<svg
   width="48pt"
   height="48pt"
   id="svg1061"
   sodipodi:version="0.32"
   inkscape:version="0.40"
   sodipodi:docbase="/home/andrew/lila/balsa"
   sodipodi:docname="balsa_menu_next_unread.svg"
   xmlns="http://www.w3.org/2000/svg"
   xmlns:cc="http://web.resource.org/cc/"
   xmlns:inkscape="http://www.inkscape.org/namespaces/inkscape"
   xmlns:sodipodi="http://sodipodi.sourceforge.net/DTD/sodipodi-0.dtd"
   xmlns:rdf="http://www.w3.org/1999/02/22-rdf-syntax-ns#"
   xmlns:dc="http://purl.org/dc/elements/1.1/"
   xmlns:xlink="http://www.w3.org/1999/xlink">
  <defs
     id="defs3">
    <linearGradient
       id="linearGradient1829">
      <stop
         style="stop-color:#d9cce6;stop-opacity:1;"
         offset="0.00000000"
         id="stop1830" />
      <stop
         style="stop-color:#73667f;stop-opacity:1;"
         offset="1.00000000"
         id="stop1831" />
    </linearGradient>
    <linearGradient
       xlink:href="#linearGradient584"
       id="linearGradient614"
       x1="0.01052632"
       y1="0.02857143"
       x2="0.97894734"
       y2="0.95714283" />
    <linearGradient
       xlink:href="#linearGradient584"
       id="linearGradient612"
       x1="0.00000000"
       y1="0.01923077"
       x2="0.98287672"
       y2="0.94230771" />
    <linearGradient
       xlink:href="#linearGradient584"
       id="linearGradient583"
       x1="9.0543469"
       y1="7.9058657"
       x2="38.185177"
       y2="36.802136"
       gradientTransform="scale(0.896216,1.115802)"
       gradientUnits="userSpaceOnUse" />
    <linearGradient
       xlink:href="#linearGradient1829"
       id="linearGradient581"
       x1="4.9496508"
       y1="5.4596281"
       x2="55.299973"
       y2="54.677448"
       gradientTransform="scale(0.992813,1.007239)"
       gradientUnits="userSpaceOnUse" />
    <linearGradient
       id="linearGradient578">
      <stop
         style="stop-color:#d9cce6;stop-opacity:1;"
         offset="0.00000000"
         id="stop579" />
      <stop
         style="stop-color:#73667f;stop-opacity:1;"
         offset="1.00000000"
         id="stop580" />
    </linearGradient>
    <linearGradient
       id="linearGradient584">
      <stop
         style="stop-color:#ffffff;stop-opacity:1;"
         offset="0.00000000"
         id="stop585" />
      <stop
         style="stop-color:#ffffff;stop-opacity:0;"
         offset="1.00000000"
         id="stop586" />
    </linearGradient>
    <linearGradient
       xlink:href="#linearGradient584"
       id="linearGradient1204"
       x1="0.01052632"
       y1="0.02857143"
       x2="0.97894734"
       y2="0.95714283" />
    <linearGradient
       xlink:href="#linearGradient584"
       id="linearGradient1203"
       x1="0.00000000"
       y1="0.01923077"
       x2="0.98287672"
       y2="0.94230771" />
    <linearGradient
       xlink:href="#linearGradient584"
       id="linearGradient1202"
       x1="0.01754386"
       y1="0.01428571"
       x2="0.98245615"
       y2="0.97142857" />
    <linearGradient
       xlink:href="#linearGradient578"
       id="linearGradient1201"
       x1="0.00694444"
       y1="0.02142857"
       x2="0.98611110"
       y2="0.97857141" />
    <linearGradient
       id="linearGradient1198">
      <stop
         style="stop-color:#d9cce6;stop-opacity:1;"
         offset="0.00000000"
         id="stop1199" />
      <stop
         style="stop-color:#73667f;stop-opacity:1;"
         offset="1.00000000"
         id="stop1200" />
    </linearGradient>
    <linearGradient
       id="linearGradient1195">
      <stop
         style="stop-color:#ffffff;stop-opacity:1;"
         offset="0.00000000"
         id="stop1196" />
      <stop
         style="stop-color:#ffffff;stop-opacity:0;"
         offset="1.00000000"
         id="stop1197" />
    </linearGradient>
    <linearGradient
       xlink:href="#linearGradient584"
       id="linearGradient1245"
       x1="0.00000000"
       y1="0.00000000"
       x2="0.97692305"
       y2="0.99218750" />
    <linearGradient
       xlink:href="#linearGradient584"
       id="linearGradient713"
       x1="-0.00000000"
       y1="-0.00000000"
       x2="0.95454544"
       y2="0.99218750" />
    <linearGradient
       xlink:href="#linearGradient584"
       id="linearGradient655"
       x1="28.991954"
       y1="39.173233"
       x2="33.223748"
       y2="43.375994"
       gradientTransform="scale(0.911255,1.097388)"
       gradientUnits="userSpaceOnUse" />
    <linearGradient
       xlink:href="#linearGradient584"
       id="linearGradient654"
       x1="39.940152"
       y1="5.4585462"
       x2="53.456474"
       y2="17.034595"
       gradientTransform="scale(0.565867,1.767200)"
       gradientUnits="userSpaceOnUse" />
    <linearGradient
       xlink:href="#linearGradient584"
       id="linearGradient1658"
       x1="-0.00000000"
       y1="-0.00000000"
       x2="1.00833333"
       y2="0.99218750" />
    <linearGradient
       xlink:href="#linearGradient578"
       id="linearGradient1657"
       x1="0.00000000"
       y1="0.00000000"
       x2="0.98666668"
       y2="1.00781250" />
    <linearGradient
       id="linearGradient1654">
      <stop
         style="stop-color:#faf8fd;stop-opacity:1;"
         offset="0.00000000"
         id="stop1655" />
      <stop
         style="stop-color:#d9cce6;stop-opacity:1;"
         offset="1.00000000"
         id="stop1656" />
    </linearGradient>
    <linearGradient
       id="linearGradient1651">
      <stop
         style="stop-color:#ffffff;stop-opacity:1;"
         offset="0.00000000"
         id="stop1652" />
      <stop
         style="stop-color:#ffffff;stop-opacity:0;"
         offset="1.00000000"
         id="stop1653" />
    </linearGradient>
    <linearGradient
       inkscape:collect="always"
       xlink:href="#linearGradient1654"
       id="linearGradient2320"
       gradientUnits="userSpaceOnUse"
       x1="26.359781"
       y1="43.180546"
       x2="32.526901"
       y2="49.307617" />
    <linearGradient
       inkscape:collect="always"
       xlink:href="#linearGradient1654"
       id="linearGradient2321"
       gradientUnits="userSpaceOnUse"
       gradientTransform="scale(0.597922,1.672459)"
       x1="40.557289"
       y1="7.8196306"
       x2="56.346104"
       y2="23.792465" />
    <linearGradient
       inkscape:collect="always"
       xlink:href="#linearGradient584"
       id="linearGradient2322"
       gradientUnits="userSpaceOnUse"
       gradientTransform="scale(0.565867,1.767200)"
       x1="39.940152"
       y1="5.4585462"
       x2="53.456474"
       y2="17.034595" />
    <linearGradient
       inkscape:collect="always"
       xlink:href="#linearGradient584"
       id="linearGradient2323"
       gradientUnits="userSpaceOnUse"
       gradientTransform="scale(0.911255,1.097388)"
       x1="28.991954"
       y1="39.173233"
       x2="33.223748"
       y2="43.375994" />
    <linearGradient
       inkscape:collect="always"
       xlink:href="#linearGradient1654"
       id="linearGradient2963"
       gradientUnits="userSpaceOnUse"
       gradientTransform="scale(0.597922,1.672459)"
       x1="40.557289"
       y1="7.8196306"
       x2="56.346104"
       y2="23.792465" />
    <linearGradient
       inkscape:collect="always"
       xlink:href="#linearGradient584"
       id="linearGradient2964"
       gradientUnits="userSpaceOnUse"
       gradientTransform="scale(0.565867,1.767200)"
       x1="39.940152"
       y1="5.4585462"
       x2="53.456474"
       y2="17.034595" />
    <linearGradient
       inkscape:collect="always"
       xlink:href="#linearGradient1654"
       id="linearGradient2965"
       gradientUnits="userSpaceOnUse"
       x1="26.359781"
       y1="43.180546"
       x2="32.526901"
       y2="49.307617" />
    <linearGradient
       inkscape:collect="always"
       xlink:href="#linearGradient584"
       id="linearGradient2966"
       gradientUnits="userSpaceOnUse"
       gradientTransform="scale(0.911255,1.097388)"
       x1="28.991954"
       y1="39.173233"
       x2="33.223748"
       y2="43.375994" />
    <linearGradient
       inkscape:collect="always"
       xlink:href="#linearGradient1654"
       id="linearGradient2974"
       gradientUnits="userSpaceOnUse"
       gradientTransform="scale(0.597922,1.672459)"
       x1="40.557289"
       y1="7.8196306"
       x2="56.346104"
       y2="23.792465" />
    <linearGradient
       inkscape:collect="always"
       xlink:href="#linearGradient584"
       id="linearGradient2975"
       gradientUnits="userSpaceOnUse"
       gradientTransform="scale(0.565867,1.767200)"
       x1="39.940152"
       y1="5.4585462"
       x2="53.456474"
       y2="17.034595" />
    <linearGradient
       inkscape:collect="always"
       xlink:href="#linearGradient1654"
       id="linearGradient2976"
       gradientUnits="userSpaceOnUse"
       x1="26.359781"
       y1="43.180546"
       x2="32.526901"
       y2="49.307617" />
    <linearGradient
       inkscape:collect="always"
       xlink:href="#linearGradient584"
       id="linearGradient2977"
       gradientUnits="userSpaceOnUse"
       gradientTransform="scale(0.911255,1.097388)"
       x1="28.991954"
       y1="39.173233"
       x2="33.223748"
       y2="43.375994" />
    <linearGradient
       xlink:href="#linearGradient584"
       id="linearGradient1188"
       x1="0.01052632"
       y1="0.02857143"
       x2="0.97894734"
       y2="0.95714283" />
    <linearGradient
       xlink:href="#linearGradient584"
       id="linearGradient1187"
       x1="0.00000000"
       y1="0.01923077"
       x2="0.98287672"
       y2="0.94230771" />
    <linearGradient
       xlink:href="#linearGradient584"
       id="linearGradient1186"
       x1="0.01754386"
       y1="0.01428571"
       x2="0.98245615"
       y2="0.97142857" />
    <linearGradient
       xlink:href="#linearGradient578"
       id="linearGradient1185"
       x1="0.00694444"
       y1="0.02142857"
       x2="0.98611110"
       y2="0.97857141" />
    <linearGradient
       id="linearGradient1182">
      <stop
         style="stop-color:#d9cce6;stop-opacity:1;"
         offset="0.00000000"
         id="stop1183" />
      <stop
         style="stop-color:#73667f;stop-opacity:1;"
         offset="1.00000000"
         id="stop1184" />
    </linearGradient>
    <linearGradient
       id="linearGradient1179">
      <stop
         style="stop-color:#ffffff;stop-opacity:1;"
         offset="0.00000000"
         id="stop1180" />
      <stop
         style="stop-color:#ffffff;stop-opacity:0;"
         offset="1.00000000"
         id="stop1181" />
    </linearGradient>
    <linearGradient
       inkscape:collect="always"
       xlink:href="#linearGradient584"
       id="linearGradient1194"
       gradientUnits="userSpaceOnUse"
       gradientTransform="scale(0.896216,1.115802)"
       x1="9.0543469"
       y1="7.9058657"
       x2="38.185177"
       y2="36.802136" />
    <linearGradient
       inkscape:collect="always"
       xlink:href="#linearGradient578"
       id="linearGradient1206"
       gradientUnits="userSpaceOnUse"
       gradientTransform="scale(0.992813,1.007239)"
       x1="4.9496509"
       y1="5.4596280"
       x2="55.299973"
       y2="54.677450" />
    <linearGradient
       inkscape:collect="always"
       xlink:href="#linearGradient584"
       id="linearGradient1207"
       gradientUnits="userSpaceOnUse"
       gradientTransform="scale(0.896216,1.115802)"
       x1="9.0543469"
       y1="7.9058657"
       x2="38.185177"
       y2="36.802136" />
  </defs>
  <sodipodi:namedview
     id="base"
     pagecolor="#ffffff"
     bordercolor="#666666"
     borderopacity="1.0"
     inkscape:pageopacity="0.0"
     inkscape:pageshadow="2"
     inkscape:zoom="10.875000"
     inkscape:cx="24.000000"
     inkscape:cy="24.000000"
     inkscape:current-layer="g1195"
     showgrid="true"
     inkscape:grid-bbox="true"
     gridspacingy="1.0000000pt"
     gridspacingx="1.0000000pt"
     gridoriginy="0.0000000pt"
     gridoriginx="0.0000000pt"
     inkscape:window-width="640"
     inkscape:window-height="708"
     inkscape:window-x="64"
     inkscape:window-y="0" />
  <metadata
     id="metadata4">
    <rdf:RDF
       id="RDF5">
      <cc:Work
         rdf:about=""
         id="Work6">
        <dc:format
           id="format7">image/svg+xml</dc:format>
        <dc:type
           id="type9"
           rdf:resource="http://purl.org/dc/dcmitype/StillImage" />
      </cc:Work>
    </rdf:RDF>
  </metadata>
  <g
     id="layer1"
     inkscape:label="Layer 1"
     inkscape:groupmode="layer" />
  <g
     id="g1189"
     transform="matrix(0.750000,0.000000,0.000000,0.750000,12.43037,15.75170)">
    <path
       style="font-size:12.000000;opacity:0.30267498;fill:#000000;fill-opacity:1.0000000;fill-rule:evenodd;stroke:none;stroke-width:14.847900"
       d="M 4.5734139,45.764412 C 2.8289470,44.673617 3.4775910,18.250601 4.5734139,16.791002 C 5.8766288,15.128231 27.088254,17.874854 28.822901,16.791002 C 30.328737,15.957161 27.350712,2.7986490 28.822901,3.2490781 C 30.191562,3.7176770 58.292664,24.527934 58.426174,30.332923 C 58.365993,35.797884 30.747508,58.565190 28.822901,58.991406 C 27.126776,59.328072 29.849746,46.115416 28.507972,45.134556 C 26.818504,43.834839 6.4546969,47.080002 4.5734139,45.764412 z "
       id="path617"
       sodipodi:nodetypes="csssssss" />
    <path
       style="font-size:12.000000;fill:url(#linearGradient1206);fill-rule:evenodd;stroke:#261933;stroke-width:2.4932933"
       d="M 6.4602909,43.399891 C 4.8984078,42.423264 5.4791619,18.765789 6.4602909,17.458957 C 7.6271059,15.970220 26.618633,18.429370 28.171725,17.458957 C 29.519956,16.712391 26.853622,4.9311019 28.171725,5.3343869 C 29.397137,5.7539410 54.557064,24.032597 54.676593,29.583525 C 54.622605,34.653269 29.894897,54.860886 28.171725,55.242494 C 26.653125,55.543922 29.091095,43.714157 27.889759,42.835959 C 26.377119,41.672276 8.1446710,44.577787 6.4602909,43.399891 z "
       id="path589"
       sodipodi:nodetypes="csssssss" />
    <path
       style="fill:url(#linearGradient1207);fill-opacity:1.0000000;fill-rule:evenodd;stroke:none;stroke-width:1.0000000pt;stroke-linecap:butt;stroke-linejoin:miter;stroke-opacity:1.0000000"
       d="M 7.9425519,42.015688 C 7.4962579,41.435506 7.4524099,20.789629 8.4424949,19.268264 C 9.6536712,17.657144 25.525900,21.627766 30.190034,19.268264 C 32.608432,18.044839 29.560949,9.0826719 29.690089,8.5194809 C 29.853354,7.4914390 34.375659,11.193696 34.689524,11.769112 C 34.875603,12.110259 31.460882,10.461330 31.189919,11.269169 C 31.073470,12.361604 34.354335,20.065522 32.189806,21.268037 C 27.605099,23.815097 14.708793,18.481744 10.942213,22.517897 C 8.5542719,25.094632 8.3294979,42.518717 7.9425519,42.015688 z "
       id="path618"
       sodipodi:nodetypes="cssssssss" />
    <path
       style="opacity:0.20178296;fill:#261e2e;fill-opacity:1.0000000;fill-rule:evenodd;stroke:none;stroke-width:1.0000000pt;stroke-linecap:butt;stroke-linejoin:miter;stroke-opacity:1.0000000"
       d="M 5.6928069,30.142034 C 7.6764188,29.918792 52.990985,28.669398 54.437284,30.017047 C 55.632684,31.005920 34.479933,51.681035 28.440231,54.639258 C 26.314191,55.680584 30.875768,43.795893 28.315246,42.515632 C 23.709913,40.212964 12.222265,45.115258 6.9426659,43.015575 C 5.8207479,42.622510 4.3849239,30.303291 5.6928069,30.142034 z "
       id="path644"
       sodipodi:nodetypes="csssss" />
  </g>
  <g
     id="g1195"
     transform="matrix(0.750000,0.000000,0.000000,0.750000,1.128930,-2.428332)">
    <path
       style="font-size:12.000000;opacity:0.30267498;fill:#000000;fill-opacity:1.0000000;fill-rule:evenodd;stroke:none;stroke-width:14.847900"
       d="M 4.5734139,45.764412 C 2.8289470,44.673617 3.4775910,18.250601 4.5734139,16.791002 C 5.8766288,15.128231 27.088254,17.874854 28.822901,16.791002 C 30.328737,15.957161 27.350712,2.7986490 28.822901,3.2490781 C 30.191562,3.7176770 58.292664,24.527934 58.426174,30.332923 C 58.365993,35.797884 30.747508,58.565190 28.822901,58.991406 C 27.126776,59.328072 29.849746,46.115416 28.507972,45.134556 C 26.818504,43.834839 6.4546969,47.080002 4.5734139,45.764412 z "
       id="path1196"
       sodipodi:nodetypes="csssssss" />
    <path
       style="font-size:12.000000;fill:url(#linearGradient581);fill-rule:evenodd;stroke:#261933;stroke-width:2.4932933;fill-opacity:1.0;"
       d="M 6.4602909,43.399891 C 4.8984078,42.423264 5.4791619,18.765789 6.4602909,17.458957 C 7.6271059,15.970220 26.618633,18.429370 28.171725,17.458957 C 29.519956,16.712391 26.853622,4.9311019 28.171725,5.3343869 C 29.397137,5.7539410 54.557064,24.032597 54.676593,29.583525 C 54.622605,34.653269 29.894897,54.860886 28.171725,55.242494 C 26.653125,55.543922 29.091095,43.714157 27.889759,42.835959 C 26.377119,41.672276 8.1446710,44.577787 6.4602909,43.399891 z "
       id="path1197"
       sodipodi:nodetypes="csssssss" />
    <path
       style="fill:url(#linearGradient1194);fill-opacity:1.0000000;fill-rule:evenodd;stroke:none;stroke-width:1.0000000pt;stroke-linecap:butt;stroke-linejoin:miter;stroke-opacity:1.0000000"
       d="M 7.9425519,42.015688 C 7.4962579,41.435506 7.4524099,20.789629 8.4424949,19.268264 C 9.6536712,17.657144 25.525900,21.627766 30.190034,19.268264 C 32.608432,18.044839 29.560949,9.0826719 29.690089,8.5194809 C 29.853354,7.4914390 34.375659,11.193696 34.689524,11.769112 C 34.875603,12.110259 31.460882,10.461330 31.189919,11.269169 C 31.073470,12.361604 34.354335,20.065522 32.189806,21.268037 C 27.605099,23.815097 14.708793,18.481744 10.942213,22.517897 C 8.5542719,25.094632 8.3294979,42.518717 7.9425519,42.015688 z "
       id="path1198"
       sodipodi:nodetypes="cssssssss" />
    <path
       style="opacity:0.20178296;fill:#261e2e;fill-opacity:1.0000000;fill-rule:evenodd;stroke:none;stroke-width:1.0000000pt;stroke-linecap:butt;stroke-linejoin:miter;stroke-opacity:1.0000000"
       d="M 5.6928069,30.142034 C 7.6764188,29.918792 52.990985,28.669398 54.437284,30.017047 C 55.632684,31.005920 34.479933,51.681035 28.440231,54.639258 C 26.314191,55.680584 30.875768,43.795893 28.315246,42.515632 C 23.709913,40.212964 12.222265,45.115258 6.9426659,43.015575 C 5.8207479,42.622510 4.3849239,30.303291 5.6928069,30.142034 z "
       id="path1199"
       sodipodi:nodetypes="csssss" />
  </g>
</svg>
