<?xml version="1.0" encoding="UTF-8" standalone="no"?>
<!DOCTYPE svg PUBLIC "-//W3C//DTD SVG 20010904//EN"
"http://www.w3.org/TR/2001/REC-SVG-20010904/DTD/svg10.dtd">
<!-- Created with Inkscape (http://www.inkscape.org/) -->
<svg
   width="48pt"
   height="48pt"
   id="svg1706"
   sodipodi:version="0.32"
   inkscape:version="0.40"
   sodipodi:docbase="/home/andrew/lila"
   sodipodi:docname="menu_attachment.svg"
   xmlns="http://www.w3.org/2000/svg"
   xmlns:cc="http://web.resource.org/cc/"
   xmlns:inkscape="http://www.inkscape.org/namespaces/inkscape"
   xmlns:sodipodi="http://sodipodi.sourceforge.net/DTD/sodipodi-0.dtd"
   xmlns:rdf="http://www.w3.org/1999/02/22-rdf-syntax-ns#"
   xmlns:dc="http://purl.org/dc/elements/1.1/"
   xmlns:xlink="http://www.w3.org/1999/xlink">
  <defs
     id="defs3">
    <linearGradient
       xlink:href="#linearGradient584"
       id="linearGradient587"
       x1="6.6842281"
       y1="3.6391857"
       x2="47.008321"
       y2="43.963279"
       gradientTransform="scale(0.999604,1.000396)"
       gradientUnits="userSpaceOnUse" />
    <linearGradient
       xlink:href="#linearGradient866"
       id="linearGradient586"
       x1="3.8016835"
       y1="1.4765247"
       x2="57.287640"
       y2="53.749582"
       gradientTransform="scale(0.942172,1.061378)"
       gradientUnits="userSpaceOnUse" />
    <linearGradient
       id="linearGradient584">
      <stop
         style="stop-color:#ffffff;stop-opacity:1;"
         offset="0.00000000"
         id="stop585" />
      <stop
         style="stop-color:#ffffff;stop-opacity:0;"
         offset="1.00000000"
         id="stop586" />
    </linearGradient>
    <linearGradient
       id="linearGradient866">
      <stop
         style="stop-color:#ffffff;stop-opacity:1;"
         offset="0.00000000"
         id="stop867" />
      <stop
         style="stop-color:#d9cce6;stop-opacity:1;"
         offset="1.00000000"
         id="stop868" />
    </linearGradient>
    <linearGradient
       inkscape:collect="always"
       xlink:href="#linearGradient866"
       id="linearGradient2936"
       gradientUnits="userSpaceOnUse"
       gradientTransform="scale(0.942172,1.061378)"
       x1="3.8016834"
       y1="1.4765247"
       x2="57.287640"
       y2="53.749580" />
  </defs>
  <sodipodi:namedview
     id="base"
     pagecolor="#ffffff"
     bordercolor="#666666"
     borderopacity="1.0"
     inkscape:pageopacity="0.0"
     inkscape:pageshadow="2"
     inkscape:zoom="10.437500"
     inkscape:cx="24.000000"
     inkscape:cy="24.189026"
     inkscape:current-layer="svg1706"
     showgrid="true"
     inkscape:grid-bbox="true"
     gridspacingy="1.0000000pt"
     gridspacingx="1.0000000pt"
     gridoriginy="0.0000000pt"
     gridoriginx="0.0000000pt"
     inkscape:window-width="640"
     inkscape:window-height="687"
     inkscape:window-x="64"
     inkscape:window-y="0" />
  <metadata
     id="metadata4">
    <rdf:RDF
       id="RDF5">
      <cc:Work
         rdf:about=""
         id="Work6">
        <dc:format
           id="format7">image/svg+xml</dc:format>
        <dc:type
           id="type9"
           rdf:resource="http://purl.org/dc/dcmitype/StillImage" />
      </cc:Work>
    </rdf:RDF>
  </metadata>
  <g
     id="layer1"
     inkscape:label="Layer 1"
     inkscape:groupmode="layer" />
  <path
     style="fill:none;fill-opacity:1.0000000;fill-rule:nonzero;stroke:#000000;stroke-width:2.7149386;stroke-linecap:butt;stroke-linejoin:miter;stroke-miterlimit:4.0000000;stroke-dashoffset:12.500000;stroke-opacity:1.0000000"
     d="M 22.688898,12.047380 C 22.773846,22.970419 22.520788,33.892950 22.605737,44.815988 C 22.599204,43.398369 22.570137,40.840461 22.577473,40.123823 C 22.718895,42.616051 22.268599,45.200164 23.022519,47.617263 C 24.752903,52.057578 30.976625,53.401482 34.645624,50.554985 C 36.690921,49.127566 37.826543,46.579775 37.463621,44.105840 C 37.369014,33.042302 37.592750,21.976229 37.400063,10.914189 C 37.049613,6.3879578 32.885675,2.8182075 28.443088,2.6325303 C 24.268065,2.3239988 19.912003,4.8885313 18.662785,8.9848509 C 17.561856,12.385384 18.201006,15.999521 18.037478,19.502387 C 18.012424,27.959262 17.873821,36.415950 17.940380,44.872971 C 17.933065,43.484348 17.905888,40.814584 17.909372,40.216000 C 18.063725,43.028155 17.571789,45.921970 18.324784,48.669876 C 20.202953,54.665039 27.262437,58.350258 33.261205,56.474207 C 38.458499,55.158563 42.747614,50.069337 42.253753,44.574908 C 42.171261,33.740717 42.304807,22.906163 42.222983,12.071972"
     id="path1699" />
  <path
     style="fill:none;fill-opacity:1.0000000;fill-rule:nonzero;stroke:#000000;stroke-width:2.7149386;stroke-linecap:butt;stroke-linejoin:miter;stroke-miterlimit:4.0000000;stroke-dashoffset:12.500000;stroke-opacity:1.0000000;opacity:0.30000000;"
     d="M 23.938898,13.297380 C 24.023846,24.220419 23.770788,35.142950 23.855737,46.065988 C 23.849204,44.648369 23.820137,42.090461 23.827473,41.373823 C 23.968895,43.866051 23.518599,46.450164 24.272519,48.867263 C 26.002903,53.307578 32.226625,54.651482 35.895624,51.804985 C 37.940921,50.377566 39.076543,47.829775 38.713621,45.355840 C 38.619014,34.292302 38.842750,23.226229 38.650063,12.164189 C 38.299613,7.6379578 34.135675,4.0682075 29.693088,3.8825303 C 25.518065,3.5739988 21.162003,6.1385313 19.912785,10.234851 C 18.811856,13.635384 19.451006,17.249521 19.287478,20.752387 C 19.262424,29.209262 19.123821,37.665950 19.190380,46.122971 C 19.183065,44.734348 19.155888,42.064584 19.159372,41.466000 C 19.313725,44.278155 18.821789,47.171970 19.574784,49.919876 C 21.452953,55.915039 28.512437,59.600258 34.511205,57.724207 C 39.708499,56.408563 43.997614,51.319337 43.503753,45.824908 C 43.421261,34.990717 43.554807,24.156163 43.472983,13.321972"
     id="path1071" />
</svg>
