<?xml version="1.0" encoding="UTF-8" standalone="no"?>
<!DOCTYPE svg PUBLIC "-//W3C//DTD SVG 20010904//EN"
"http://www.w3.org/TR/2001/REC-SVG-20010904/DTD/svg10.dtd">
<!-- Created with Inkscape (http://www.inkscape.org/) -->
<svg
   id="svg1"
   sodipodi:version="0.32"
   inkscape:version="0.37"
   width="48pt"
   height="48pt"
   sodipodi:docbase="/usr/share/themes/Lila/gtk-2.0"
   sodipodi:docname="stock_delete.svg"
   xmlns="http://www.w3.org/2000/svg"
   xmlns:inkscape="http://www.inkscape.org/namespaces/inkscape"
   xmlns:sodipodi="http://sodipodi.sourceforge.net/DTD/sodipodi-0.dtd"
   xmlns:xlink="http://www.w3.org/1999/xlink">
  <defs
     id="defs3">
    <linearGradient
       id="linearGradient837">
      <stop
         style="stop-color:#f50000;stop-opacity:1;"
         offset="0.00000000"
         id="stop838" />
      <stop
         style="stop-color:#a90000;stop-opacity:1;"
         offset="1.00000000"
         id="stop839" />
    </linearGradient>
    <linearGradient
       id="linearGradient584">
      <stop
         style="stop-color:#ffffff;stop-opacity:1;"
         offset="0.00000000"
         id="stop585" />
      <stop
         style="stop-color:#ffffff;stop-opacity:0;"
         offset="1.00000000"
         id="stop586" />
    </linearGradient>
    <linearGradient
       id="linearGradient578">
      <stop
         style="stop-color:#faf8fd;stop-opacity:1;"
         offset="0.00000000"
         id="stop579" />
      <stop
         style="stop-color:#d9cce6;stop-opacity:1;"
         offset="1.00000000"
         id="stop580" />
    </linearGradient>
    <linearGradient
       xlink:href="#linearGradient578"
       id="linearGradient581"
       x1="0.01724138"
       y1="0.02325581"
       x2="0.97413790"
       y2="0.98449612" />
    <linearGradient
       xlink:href="#linearGradient584"
       id="linearGradient583"
       x1="0.01538462"
       y1="0.02325581"
       x2="0.97692305"
       y2="0.93798447" />
    <linearGradient
       xlink:href="#linearGradient584"
       id="linearGradient654"
       x1="0.00675676"
       y1="0.02343750"
       x2="0.97972971"
       y2="0.99218750" />
    <linearGradient
       xlink:href="#linearGradient584"
       id="linearGradient655"
       x1="-0.00961538"
       y1="0.00781250"
       x2="0.94230771"
       y2="0.97656250" />
    <linearGradient
       xlink:href="#linearGradient837"
       id="linearGradient840"
       x1="0.01724138"
       y1="0.02325581"
       x2="0.97413790"
       y2="0.98449612" />
  </defs>
  <sodipodi:namedview
     id="base"
     pagecolor="#ffffff"
     bordercolor="#666666"
     borderopacity="1.0"
     inkscape:pageopacity="0.0"
     inkscape:pageshadow="2"
     inkscape:zoom="5.64233871"
     inkscape:cx="28.4781048"
     inkscape:cy="23.3443349"
     inkscape:window-width="640"
     inkscape:window-height="516"
     inkscape:window-x="167"
     inkscape:window-y="73" />
  <path
     d="M 5.3418423 48.147327 C 6.1551606 50.577186 39.835397 61.503049 42.046744 59.66958 C 44.026138 58.011177 58.837013 8.6487038 57.845331 6.6910313 C 56.814503 4.5326995 22.643587 -0.84333367 21.021637 0.63290421 C 19.023747 2.4619645 4.4876492 45.359379 5.3418423 48.147327 z "
     style="font-size:12;opacity:0.302675;fill-rule:evenodd;stroke-width:12.5;"
     id="path639" />
  <path
     d="M 5.4576222 46.136223 C 6.2185838 48.409541 37.728991 58.631524 39.797875 56.916173 C 41.649751 55.364611 55.506467 9.182227 54.57867 7.3506336 C 53.614249 5.3313491 21.644731 0.30169831 20.127274 1.6828326 C 18.258095 3.3940581 4.6584591 43.527883 5.4576222 46.136223 z "
     style="font-size:12;fill:url(#linearGradient581);fill-rule:evenodd;stroke:#261933;stroke-width:1.875;stroke-dasharray:none;"
     id="path634" />
  <path
     d="M 7.6014895 44.006772 C 7.272635 43.173645 20.339153 4.4370216 21.560724 3.638172 C 23.087437 2.5962736 47.76777 7.208557 48.095848 8.0397322 C 48.396564 8.8015292 28.840151 5.2443238 24.489297 9.1360481 C 16.144742 16.390423 7.9014291 44.766659 7.6014895 44.006772 z "
     style="font-size:12;opacity:0.699936;fill:url(#linearGradient583);fill-rule:evenodd;stroke:#ffffff;stroke-width:0.100607pt;"
     id="path640" />
  <path
     style="fill:#000000;fill-rule:evenodd;stroke:none;stroke-opacity:1;stroke-width:18.75;stroke-linejoin:miter;stroke-linecap:butt;fill-opacity:1;stroke-dasharray:none;opacity:0.300000;"
     d="M 11.988055 38.886305 C 12.667308 40.131305 27.300697 34.474923 28.88849 34.834901 C 30.178722 35.209221 38.778518 47.63355 39.888567 46.980769 C 41.01682 46.31729 35.238621 32.138686 35.60339 30.886128 C 35.959574 29.663448 48.612553 20.534307 48.025313 19.310924 C 47.455463 18.123782 33.31676 23.999701 32.132121 23.654549 C 30.851318 23.170128 21.43932 10.423162 20.254743 11.144958 C 19.051594 11.878072 25.397913 26.528262 24.968938 28.019277 C 24.48541 29.320588 11.366233 37.591185 11.988055 38.886305 z "
     id="path601"
     sodipodi:nodetypes="cssssssss" />
  <path
     style="font-size:12;fill:url(#linearGradient840);fill-rule:evenodd;stroke:#330000;stroke-width:1.875;stroke-dasharray:none;"
     d="M 13.690784 36.622464 C 14.286778 37.714857 27.126485 32.751805 28.519653 33.06766 C 29.651734 33.396097 37.197416 44.297517 38.171404 43.724753 C 39.161356 43.142597 34.091423 30.701932 34.411476 29.602903 C 34.724003 28.530094 45.826052 20.519957 45.310797 19.446532 C 44.810794 18.404901 32.405134 23.560579 31.365697 23.257733 C 30.24189 22.832692 21.983565 11.648181 20.944188 12.281504 C 19.888513 12.924756 25.456934 25.779204 25.080539 27.087457 C 24.656281 28.22926 13.145184 35.486092 13.690784 36.622464 z "
     id="path589"
     sodipodi:nodetypes="cssssssss" />
  <path
     style="font-size:12;fill:url(#linearGradient655);fill-rule:evenodd;stroke:none;stroke-width:1pt;"
     d="M 16.606869 35.269749 C 16.861159 34.895249 25.264827 28.815284 27.860848 27.373204 C 28.360134 27.095854 26.842586 30.024702 26.169388 30.479149 C 23.283315 32.427425 16.397198 35.578537 16.606869 35.269749 z "
     id="path596"
     sodipodi:nodetypes="csss" />
  <path
     style="fill:url(#linearGradient654);fill-rule:evenodd;stroke:none;stroke-opacity:1;stroke-width:1pt;stroke-linejoin:miter;stroke-linecap:butt;fill-opacity:1;opacity:0.750382;"
     d="M 25.472204 23.407582 C 25.090701 22.742159 22.384601 15.590753 22.772915 15.531149 C 23.222543 15.462135 28.481818 22.05982 28.846888 22.696584 C 29.032416 23.020187 24.453848 17.960921 24.262144 17.981818 C 24.150715 17.998921 25.641301 23.702527 25.472204 23.407582 z "
     id="path597"
     sodipodi:nodetypes="cssss" />
  <path
     style="fill:url(#linearGradient583);fill-rule:evenodd;stroke:none;stroke-opacity:1;stroke-width:1pt;stroke-linejoin:miter;stroke-linecap:butt;fill-opacity:1;"
     d="M 30.512889 25.438502 C 32.843195 24.217532 41.732473 21.287861 42.138119 21.440151 C 42.481315 21.568994 36.951194 24.759255 34.094142 25.717771 C 33.37754 25.958184 30.018391 25.697596 30.512889 25.438502 z "
     id="path598"
     sodipodi:nodetypes="csss" />
</svg>
