<?xml version="1.0" encoding="UTF-8" standalone="no"?>
<!DOCTYPE svg PUBLIC "-//W3C//DTD SVG 20010904//EN"
"http://www.w3.org/TR/2001/REC-SVG-20010904/DTD/svg10.dtd">
<!-- Created with Inkscape (http://www.inkscape.org/) -->
<svg
   id="svg1"
   sodipodi:version="0.32"
   inkscape:version="0.39"
   width="48pt"
   height="48pt"
   sodipodi:docbase="/home/scaba/files/pre-release/lila-gnome/Lila/scalable/stock"
   sodipodi:docname="gtk-color-picker.svg"
   xmlns="http://www.w3.org/2000/svg"
   xmlns:inkscape="http://www.inkscape.org/namespaces/inkscape"
   xmlns:sodipodi="http://sodipodi.sourceforge.net/DTD/sodipodi-0.dtd"
   xmlns:xlink="http://www.w3.org/1999/xlink"
   xmlns:rdf="http://www.w3.org/1999/02/22-rdf-syntax-ns#"
   xmlns:cc="http://web.resource.org/cc/"
   xmlns:dc="http://purl.org/dc/elements/1.1/">
  <defs
     id="defs3">
    <linearGradient
       id="linearGradient584">
      <stop
         style="stop-color:#ffffff;stop-opacity:1;"
         offset="0.00000000"
         id="stop585" />
      <stop
         style="stop-color:#ffffff;stop-opacity:0;"
         offset="1.00000000"
         id="stop586" />
    </linearGradient>
    <linearGradient
       id="linearGradient578">
      <stop
         style="stop-color:#faf8fd;stop-opacity:1;"
         offset="0.00000000"
         id="stop579" />
      <stop
         style="stop-color:#d9cce6;stop-opacity:1;"
         offset="1.00000000"
         id="stop580" />
    </linearGradient>
    <linearGradient
       xlink:href="#linearGradient578"
       id="linearGradient581"
       x1="0.33606556"
       y1="0.35156250"
       x2="0.59016395"
       y2="0.58593750" />
    <linearGradient
       xlink:href="#linearGradient584"
       id="linearGradient583"
       x1="-0.00000000"
       y1="-0.00000000"
       x2="0.98245615"
       y2="1.01562500" />
    <linearGradient
       xlink:href="#linearGradient584"
       id="linearGradient654"
       x1="0.00000000"
       y1="-0.00000000"
       x2="0.99009901"
       y2="1.00000000" />
    <linearGradient
       xlink:href="#linearGradient584"
       id="linearGradient655"
       x1="-0.06250000"
       y1="0.00775194"
       x2="0.93750000"
       y2="0.98449612" />
  </defs>
  <sodipodi:namedview
     id="base"
     pagecolor="#ffffff"
     bordercolor="#666666"
     borderopacity="1.0"
     inkscape:pageopacity="0.0"
     inkscape:pageshadow="2"
     inkscape:zoom="7.9794719"
     inkscape:cx="17.204088"
     inkscape:cy="28.078236"
     inkscape:window-width="764"
     inkscape:window-height="571"
     inkscape:window-x="163"
     inkscape:window-y="26" />
  <metadata
     id="metadata21">
    <rdf:RDF
       id="RDF22">
      <cc:Work
         rdf:about=""
         id="Work23">
        <dc:format
           id="format24">image/svg+xml</dc:format>
        <dc:type
           id="type26"
           rdf:resource="http://purl.org/dc/dcmitype/StillImage" />
      </cc:Work>
    </rdf:RDF>
  </metadata>
  <path
     style="font-size:12.000000;fill:url(#linearGradient581);fill-rule:evenodd;stroke:#261933;stroke-width:1.8498487;"
     d="M 33.479181,16.684958 C 30.404071,19.765079 10.435966,41.762165 9.4326661,43.225994 C 8.5335551,44.537810 6.3416660,46.852321 4.6419629,50.600426 C 3.5442538,53.021042 2.3332114,57.319642 2.9488443,57.699134 C 3.6348812,58.122025 8.5521741,56.053672 10.885488,54.595426 C 13.583382,52.909329 16.396485,50.049205 17.092341,49.285102 C 17.464823,48.876088 32.940492,31.764854 40.999580,22.284960 C 42.597671,20.405128 35.276155,14.885056 33.479181,16.684958 z "
     id="path925"
     sodipodi:nodetypes="csssssss" />
  <path
     style="fill:url(#linearGradient583);fill-opacity:1.0000000;fill-rule:evenodd;stroke:none;stroke-width:1.0000000pt;stroke-linecap:butt;stroke-linejoin:miter;stroke-opacity:1.0000000;"
     d="M 6.8236749,49.937128 C 6.5135100,49.601117 21.778121,29.689848 32.015430,20.881608 C 32.655092,20.322804 34.550987,22.364231 33.870038,22.890766 C 22.516278,31.395852 7.1317127,50.270836 6.8236749,49.937128 z "
     id="path896"
     sodipodi:nodetypes="csss" />
  <path
     style="font-size:12.000000;fill:#261933;fill-rule:evenodd;stroke:#261933;stroke-width:2.0052164;"
     d="M 31.880152,14.675328 C 33.060775,17.137788 40.373570,22.986071 43.183357,23.623632 C 44.402465,23.900257 42.597436,18.642096 43.966836,17.417888 C 46.698013,14.976288 54.025130,15.193717 55.485090,12.626209 C 56.610176,10.647614 53.979614,5.3011514 51.721976,3.7795750 C 49.316948,2.1586626 43.763169,1.6779051 41.497094,3.1987439 C 39.210492,4.7333571 40.041097,10.586454 38.063946,12.945930 C 36.835449,14.411981 31.354304,13.578553 31.880152,14.675328 z "
     id="path889"
     sodipodi:nodetypes="csssssss" />
  <path
     style="fill:url(#linearGradient654);fill-opacity:1.0000000;fill-rule:evenodd;stroke:none;stroke-width:1.0000000pt;stroke-linecap:butt;stroke-linejoin:miter;stroke-opacity:1.0000000;"
     d="M 32.883838,14.499023 C 32.751921,14.292003 37.256433,14.832806 38.237323,13.614567 C 40.018762,11.402072 38.985099,5.8161194 41.170824,4.2068212 C 43.590690,2.4251296 51.752782,3.1751403 52.054100,3.4415980 C 52.315590,3.6728374 44.962795,3.8334591 42.859245,5.6999126 C 40.640313,7.6687436 41.135818,13.139928 39.086657,14.947452 C 37.810682,16.072964 33.035032,14.736298 32.883838,14.499023 z "
     id="path897"
     sodipodi:nodetypes="cssssss" />
</svg>
