<?xml version="1.0" encoding="UTF-8" standalone="no"?>
<!DOCTYPE svg PUBLIC "-//W3C//DTD SVG 20010904//EN"
"http://www.w3.org/TR/2001/REC-SVG-20010904/DTD/svg10.dtd">
<!-- Created with Inkscape (http://www.inkscape.org/) -->
<svg
   id="svg1"
   sodipodi:version="0.32"
   inkscape:version="0.37"
   width="48pt"
   height="48pt"
   sodipodi:docbase="/usr/share/themes/Lila/gtk-2.0"
   sodipodi:docname="stock_execute.svg"
   xmlns="http://www.w3.org/2000/svg"
   xmlns:inkscape="http://www.inkscape.org/namespaces/inkscape"
   xmlns:sodipodi="http://sodipodi.sourceforge.net/DTD/sodipodi-0.dtd"
   xmlns:xlink="http://www.w3.org/1999/xlink">
  <defs
     id="defs3">
    <linearGradient
       id="linearGradient584">
      <stop
         style="stop-color:#ffffff;stop-opacity:1;"
         offset="0.00000000"
         id="stop585" />
      <stop
         style="stop-color:#ffffff;stop-opacity:0;"
         offset="1.00000000"
         id="stop586" />
    </linearGradient>
    <linearGradient
       id="linearGradient578">
      <stop
         style="stop-color:#d9cce6;stop-opacity:1;"
         offset="0.00000000"
         id="stop579" />
      <stop
         style="stop-color:#73667f;stop-opacity:1;"
         offset="1.00000000"
         id="stop580" />
    </linearGradient>
    <linearGradient
       xlink:href="#linearGradient578"
       id="linearGradient581"
       x1="0.00000000"
       y1="-0.00000000"
       x2="0.99242425"
       y2="1.02343750" />
    <linearGradient
       xlink:href="#linearGradient584"
       id="linearGradient583"
       x1="0.00000000"
       y1="0.00000000"
       x2="0.98148149"
       y2="0.97656250" />
    <linearGradient
       xlink:href="#linearGradient584"
       id="linearGradient599"
       x1="-0.00000000"
       y1="-0.00000000"
       x2="1.00000000"
       y2="0.99218750" />
    <linearGradient
       xlink:href="#linearGradient584"
       id="linearGradient600"
       x1="-0.00000000"
       y1="0.00000000"
       x2="0.98540145"
       y2="0.96610171" />
    <linearGradient
       xlink:href="#linearGradient584"
       id="linearGradient841"
       x1="0.01162791"
       y1="0.03125000"
       x2="0.98255813"
       y2="0.97656250" />
    <linearGradient
       xlink:href="#linearGradient584"
       id="linearGradient842"
       x1="-0.00000000"
       y1="0.00000000"
       x2="0.99206346"
       y2="0.99218750" />
    <linearGradient
       xlink:href="#linearGradient584"
       id="linearGradient845"
       x1="-0.00000000"
       y1="-0.00000000"
       x2="1.00862074"
       y2="1.00781250" />
  </defs>
  <sodipodi:namedview
     id="base"
     pagecolor="#ffffff"
     bordercolor="#666666"
     borderopacity="1.0"
     inkscape:pageopacity="0.0"
     inkscape:pageshadow="2"
     inkscape:zoom="7.97947194"
     inkscape:cx="24.5116026"
     inkscape:cy="23.5252785"
     inkscape:window-width="508"
     inkscape:window-height="527"
     inkscape:window-x="188"
     inkscape:window-y="51" />
  <path
     d="M 57.942418 32.211842 C 58.078207 39.318638 51.886449 34.477965 48.773613 39.74773 C 45.746151 45.008455 54.720393 47.183123 49.895028 52.090038 C 44.935602 57.268529 43.977277 48.459099 38.63727 49.477236 C 32.707868 50.726786 38.343441 58.239547 31.372433 58.239547 C 25.214577 58.104111 30.260932 52.748456 24.514264 49.88425 C 18.628673 46.88269 17.523779 54.978414 12.84984 50.46321 C 7.6984716 45.477536 17.643223 44.801908 14.648965 39.883517 C 11.667575 34.89819 5.3445534 39.996179 5.0734983 32.754119 C 4.9378869 25.782939 12.206548 31.315408 14.51353 25.895948 C 16.744355 20.523255 8.7976314 17.987469 13.391939 14.231525 C 18.606246 10.122987 20.046171 18.858347 24.649871 16.844155 C 29.141606 14.95514 24.401252 6.7264137 31.372433 6.4551858 C 38.885718 6.3195755 33.328381 13.649434 38.095165 16.301876 C 42.787185 18.83731 46.150378 11.093832 50.166256 14.773627 C 54.318598 18.59008 46.900074 20.209086 48.231334 24.947005 C 49.631968 30.067423 57.400143 25.240834 57.942418 32.211842 z M 42.801094 33.543281 C 42.801094 41.003708 39.931846 44.050473 32.470723 44.050473 C 25.010289 44.050473 20.901924 40.826719 20.901924 33.366289 C 20.745272 26.688768 25.262573 22.50511 31.939743 22.50511 C 39.400872 22.50511 42.801094 26.082502 42.801094 33.543281 z "
     style="font-size:12;fill:#000000;fill-rule:evenodd;stroke:none;stroke-width:2.12177;fill-opacity:1;opacity:0.302675;"
     id="path843"
     sodipodi:nodetypes="cccccccccccccccccccccc" />
  <path
     d="M 25.562092 42.032372 C 30.567929 43.135688 36.241706 43.43919 40.279852 38.539946 C 42.947847 35.407875 42.451181 26.342332 39.913209 22.183329 C 42.427587 24.743029 46.437729 35.834438 41.608929 40.140602 C 35.782725 45.445022 28.938922 44.276013 25.562092 42.032372 z "
     style="font-size:12;opacity:0.699936;fill-rule:evenodd;stroke:#ffffff;stroke-width:0.169741pt;"
     id="path1580" />
  <path
     d="M 55.279387 29.53907 C 55.411958 36.477418 49.366959 31.75148 46.327905 36.896339 C 43.372201 42.032372 52.133732 44.155496 47.422739 48.946105 C 42.580864 54.001853 41.645253 45.401228 36.431817 46.395233 C 30.642956 47.615165 36.144953 54.949856 29.339174 54.949856 C 23.327274 54.81763 28.254018 49.588917 22.64356 46.792599 C 16.897471 43.862184 15.818766 51.76602 11.255611 47.357837 C 6.2263414 42.490335 15.935379 41.830721 13.012092 37.028908 C 10.101368 32.161745 3.9282166 37.138899 3.6635862 30.068493 C 3.5311891 23.262547 10.627566 28.663883 12.879867 23.372877 C 15.057816 18.12753 7.2994485 15.651848 11.784861 11.984929 C 16.875576 7.9737722 18.281371 16.502084 22.775953 14.535633 C 27.161223 12.691393 22.533227 4.6577063 29.339174 4.3929072 C 36.674376 4.2605112 31.248761 11.416635 35.902561 14.006208 C 40.483369 16.481546 43.766847 8.9216062 47.687539 12.514182 C 51.74146 16.240176 44.498773 17.820807 45.798479 22.446427 C 47.165915 27.445478 54.749965 22.733291 55.279387 29.53907 z M 40.496949 30.83895 C 40.496949 37.339287 36.755797 40.783793 30.411432 41.097097 C 23.754436 41.097097 18.960189 37.323145 19.116841 30.666153 C 19.116841 24.165471 22.609437 20.06241 29.893037 20.06241 C 36.550712 19.905758 40.340297 24.33827 40.496949 30.83895 z "
     style="font-size:12;fill:url(#linearGradient581);fill-rule:evenodd;stroke:#261933;stroke-width:2.12177;"
     id="path1579"
     sodipodi:nodetypes="cccccccccccccccccccccc" />
  <path
     d="M 5.7079559 32.394966 C 5.5297263 32.141884 4.807478 29.297357 5.5791183 28.680856 C 6.9983277 27.546986 12.125535 26.923523 12.280506 27.143851 C 12.426146 27.350425 8.048685 28.709205 6.4812971 29.961387 C 5.8578352 30.459577 5.8305084 32.568781 5.7079559 32.394966 z "
     style="font-size:12;opacity:0.990000;fill:url(#linearGradient841);fill-rule:evenodd;stroke:none;stroke-width:1.05154pt;"
     id="path1581" />
  <path
     d="M 11.669778 14.920945 C 11.669778 14.659033 13.476335 12.404532 14.458627 12.3587 C 15.512722 12.309646 17.778599 14.381848 17.778599 14.63612 C 17.778599 14.856442 15.545313 13.731569 14.458627 13.78215 C 13.508927 13.826455 11.669778 15.133631 11.669778 14.920945 z "
     style="font-size:12;opacity:0.990000;fill:url(#linearGradient600);fill-rule:evenodd;stroke:none;stroke-width:1.12535pt;"
     id="path1582" />
  <path
     d="M 26.333222 12.846195 C 26.212709 12.541512 26.216441 8.0866489 27.227931 6.9218853 C 28.048288 5.9772734 31.719795 6.2422425 31.82877 6.5178988 C 31.932818 6.7808296 28.786325 7.4786369 27.867009 8.5374827 C 26.954476 9.5881812 26.425733 13.079932 26.333222 12.846195 z "
     style="font-size:12;opacity:0.990000;fill:url(#linearGradient583);fill-rule:evenodd;stroke:none;stroke-width:1.07368pt;"
     id="path1583" />
  <path
     d="M 40.017095 16.214882 C 40.705053 15.428813 44.596202 12.969431 45.020894 12.969431 C 45.317438 12.969431 43.264922 15.511986 42.180958 16.214882 C 41.596872 16.593745 39.758407 16.510574 40.017095 16.214882 z "
     style="font-size:12;opacity:0.990000;fill:url(#linearGradient599);fill-rule:evenodd;stroke:none;stroke-width:1.18334pt;"
     id="path1584" />
  <path
     d="M 11.548077 44.974498 C 11.750405 44.415539 14.977188 41.063999 15.691123 40.704146 C 16.036033 40.530162 15.345186 42.733235 14.724271 43.373158 C 13.964172 44.156684 11.428234 45.305156 11.548077 44.974498 z "
     style="font-size:12;opacity:0.990000;fill:url(#linearGradient842);fill-rule:evenodd;stroke:none;stroke-width:1.11113pt;"
     id="path1585" />
  <path
     style="fill:url(#linearGradient845);fill-rule:evenodd;stroke:none;stroke-opacity:1;stroke-width:1pt;stroke-linejoin:miter;stroke-linecap:butt;fill-opacity:1;"
     d="M 28.980614 43.394891 C 28.640324 42.957376 36.828211 43.418532 39.946252 38.53868 C 43.661612 32.824429 41.965492 27.148062 42.296032 27.573042 C 42.696535 28.087974 43.862774 37.156193 41.512772 39.948547 C 39.424301 42.430142 29.371367 43.897288 28.980614 43.394891 z "
     id="path844"
     sodipodi:nodetypes="cssss" />
</svg>
