<?xml version="1.0" encoding="UTF-8" standalone="no"?>
<!-- Created with Inkscape (http://www.inkscape.org/) -->
<svg
   xmlns:dc="http://purl.org/dc/elements/1.1/"
   xmlns:cc="http://web.resource.org/cc/"
   xmlns:rdf="http://www.w3.org/1999/02/22-rdf-syntax-ns#"
   xmlns:svg="http://www.w3.org/2000/svg"
   xmlns="http://www.w3.org/2000/svg"
   xmlns:xlink="http://www.w3.org/1999/xlink"
   xmlns:sodipodi="http://inkscape.sourceforge.net/DTD/sodipodi-0.dtd"
   xmlns:inkscape="http://www.inkscape.org/namespaces/inkscape"
   sodipodi:docname="stock_shuffle.svg"
   sodipodi:docbase="/home/andrew/lila/trunk/lila/gnome/scalable/stock"
   height="48pt"
   width="48pt"
   inkscape:version="0.41"
   sodipodi:version="0.32"
   id="svg1">
  <metadata
     id="metadata24">
    <rdf:RDF
       id="RDF26">
      <cc:Work
         id="Work28"
         rdf:about="">
        <dc:format
           id="format30">image/svg+xml</dc:format>
        <dc:type
           rdf:resource="http://purl.org/dc/dcmitype/StillImage"
           id="type32" />
      </cc:Work>
    </rdf:RDF>
  </metadata>
  <defs
     id="defs3">
    <linearGradient
       id="linearGradient584">
      <stop
         id="stop585"
         offset="0.00000000"
         style="stop-color:#ffffff;stop-opacity:1;" />
      <stop
         id="stop586"
         offset="1.00000000"
         style="stop-color:#ffffff;stop-opacity:0;" />
    </linearGradient>
    <linearGradient
       id="linearGradient578">
      <stop
         id="stop579"
         offset="0.00000000"
         style="stop-color:#d9cce6;stop-opacity:1;" />
      <stop
         id="stop580"
         offset="1.00000000"
         style="stop-color:#73667f;stop-opacity:1;" />
    </linearGradient>
    <linearGradient
       y2="0.98437500"
       x2="0.98000002"
       y1="0.00781250"
       x1="0.04000000"
       id="linearGradient581"
       xlink:href="#linearGradient578" />
    <linearGradient
       y2="0.97656250"
       x2="0.95370370"
       y1="0.00781250"
       x1="0.00000000"
       id="linearGradient583"
       xlink:href="#linearGradient584" />
    <linearGradient
       y2="0.97656250"
       x2="0.99166667"
       y1="0.00781250"
       x1="-0.00833333"
       id="linearGradient744"
       xlink:href="#linearGradient584" />
    <linearGradient
       y2="0.96875000"
       x2="0.97560978"
       y1="0.02343750"
       x1="0.01219512"
       id="linearGradient746"
       xlink:href="#linearGradient584" />
    <linearGradient
       y2="0.95714283"
       x2="0.97894734"
       y1="0.02857143"
       x1="0.01052632"
       id="linearGradient614"
       xlink:href="#linearGradient584" />
    <linearGradient
       y2="0.94230771"
       x2="0.98287672"
       y1="0.01923077"
       x1="0.00000000"
       id="linearGradient612"
       xlink:href="#linearGradient584" />
    <linearGradient
       y2="0.97142857"
       x2="0.98245615"
       y1="0.01428571"
       x1="0.01754386"
       id="linearGradient1523"
       xlink:href="#linearGradient584" />
    <linearGradient
       y2="0.97857141"
       x2="0.98611110"
       y1="0.02142857"
       x1="0.00694444"
       id="linearGradient1521"
       xlink:href="#linearGradient578" />
    <linearGradient
       id="linearGradient1515">
      <stop
         id="stop1517"
         offset="0.00000000"
         style="stop-color:#d9cce6;stop-opacity:1;" />
      <stop
         id="stop1519"
         offset="1.00000000"
         style="stop-color:#73667f;stop-opacity:1;" />
    </linearGradient>
    <linearGradient
       id="linearGradient1509">
      <stop
         id="stop1511"
         offset="0.00000000"
         style="stop-color:#ffffff;stop-opacity:1;" />
      <stop
         id="stop1513"
         offset="1.00000000"
         style="stop-color:#ffffff;stop-opacity:0;" />
    </linearGradient>
    <linearGradient
       gradientUnits="userSpaceOnUse"
       gradientTransform="scale(0.992813,1.007239)"
       y2="54.975880"
       x2="54.985731"
       y1="4.7594678"
       x1="6.6494208"
       id="linearGradient1533"
       xlink:href="#linearGradient578"
       inkscape:collect="always" />
    <linearGradient
       gradientUnits="userSpaceOnUse"
       gradientTransform="scale(0.896216,1.115802)"
       y2="36.957130"
       x2="37.317137"
       y1="7.7104387"
       x1="8.5246955"
       id="linearGradient1535"
       xlink:href="#linearGradient584"
       inkscape:collect="always" />
    <linearGradient
       y2="43.540390"
       x2="58.889771"
       y1="7.5128894"
       x1="0.19178884"
       gradientTransform="matrix(0.992814,0.000000,0.000000,-1.007238,-22.42303,88.44699)"
       gradientUnits="userSpaceOnUse"
       id="linearGradient6194"
       xlink:href="#linearGradient578"
       inkscape:collect="always" />
    <linearGradient
       y2="74.468262"
       x2="39.657124"
       y1="37.995064"
       x1="-14.691263"
       gradientTransform="scale(0.896217,1.115802)"
       gradientUnits="userSpaceOnUse"
       id="linearGradient6196"
       xlink:href="#linearGradient584"
       inkscape:collect="always" />
    <linearGradient
       y2="43.540390"
       x2="58.889771"
       y1="7.5128894"
       x1="0.19178884"
       gradientTransform="scale(0.992814,1.007238)"
       gradientUnits="userSpaceOnUse"
       id="linearGradient6198"
       xlink:href="#linearGradient578"
       inkscape:collect="always" />
    <linearGradient
       y2="30.299767"
       x2="40.018829"
       y1="1.0307844"
       x1="26.856337"
       gradientTransform="scale(0.896217,1.115802)"
       gradientUnits="userSpaceOnUse"
       id="linearGradient6200"
       xlink:href="#linearGradient584"
       inkscape:collect="always" />
    <linearGradient
       y2="-80.277672"
       x2="35.957333"
       y1="-39.964832"
       x1="-14.607336"
       gradientTransform="scale(0.992814,-1.007238)"
       gradientUnits="userSpaceOnUse"
       id="linearGradient8578"
       xlink:href="#linearGradient578"
       inkscape:collect="always" />
    <linearGradient
       y2="74.468262"
       x2="39.657124"
       y1="37.995064"
       x1="-14.691263"
       gradientTransform="scale(0.896217,1.115802)"
       gradientUnits="userSpaceOnUse"
       id="linearGradient8580"
       xlink:href="#linearGradient584"
       inkscape:collect="always" />
    <linearGradient
       y2="43.540390"
       x2="58.889771"
       y1="7.5128894"
       x1="0.19178884"
       gradientTransform="scale(0.992814,1.007238)"
       gradientUnits="userSpaceOnUse"
       id="linearGradient8582"
       xlink:href="#linearGradient578"
       inkscape:collect="always" />
    <linearGradient
       y2="30.299767"
       x2="40.018829"
       y1="1.0307844"
       x1="26.856337"
       gradientTransform="scale(0.896217,1.115802)"
       gradientUnits="userSpaceOnUse"
       id="linearGradient8584"
       xlink:href="#linearGradient584"
       inkscape:collect="always" />
  </defs>
  <sodipodi:namedview
     inkscape:current-layer="g5417"
     inkscape:window-y="68"
     inkscape:window-x="195"
     inkscape:window-height="826"
     inkscape:window-width="874"
     inkscape:cy="30.000000"
     inkscape:cx="29.999998"
     inkscape:zoom="10.783333"
     inkscape:pageshadow="2"
     inkscape:pageopacity="0.0"
     borderopacity="1.0"
     bordercolor="#666666"
     pagecolor="#ffffff"
     id="base" />
  <g
     transform="matrix(0.962273,0.000000,0.000000,0.962356,0.618697,0.660785)"
     id="g8565">
    <path
       d="M 30.588501,37.776196 C 37.785300,37.954050 38.509877,38.100275 39.225265,37.549923 C 39.793425,37.134588 38.640412,31.539819 39.358618,31.682376 C 40.173575,31.862854 51.868297,41.419845 51.893830,43.817530 C 51.837300,46.442785 39.938164,55.087492 39.358618,55.285916 C 38.735234,55.476646 39.996251,49.904803 39.358618,49.551722 C 38.624099,49.092775 36.312806,49.285067 32.474625,49.114278 C 3.9599610,48.138120 1.9479740,14.714617 2.0763790,14.971426 C 2.2047840,15.228235 4.7426660,36.991613 30.588501,37.776196 z M 38.803690,24.171254 C 46.000489,23.993400 46.725065,23.847175 47.440453,24.397526 C 48.008613,24.812861 46.855600,30.407630 47.573807,30.265074 C 48.388764,30.084595 60.083485,20.527605 60.109018,18.129920 C 60.052488,15.504665 48.153352,6.8599579 47.573807,6.6615339 C 46.950423,6.4708039 48.211439,12.042647 47.573807,12.395728 C 46.839288,12.854675 44.527995,12.662383 40.689814,12.833172 C 12.175151,13.809330 1.8966850,42.767034 2.0250890,42.510225 C 2.1534940,42.253416 12.957856,24.955837 38.803690,24.171254 z "
       style="font-size:12.000000;opacity:0.29999998;fill:#000000;fill-opacity:1.0000000;fill-rule:evenodd;stroke:#000000;stroke-width:1.9432005;stroke-opacity:1.0000000"
       id="path6993" />
    <g
       transform="matrix(1.024600,0.000000,0.000000,1.024600,-0.640281,3.561135)"
       id="g6184">
      <g
         transform="translate(14.83771,-30.69552)"
         id="g5417">
        <path
           sodipodi:nodetypes="ccccccccc"
           d="M 14.600434,63.138753 C 21.624442,63.312337 22.331622,63.455051 23.029834,62.917913 C 23.584353,62.512550 22.459023,57.052108 23.159986,57.191242 C 23.955376,57.367387 35.369315,66.694920 35.394235,69.035038 C 35.339062,71.597263 23.725617,80.034416 23.159986,80.228076 C 22.551569,80.414226 23.782309,74.976160 23.159986,74.631556 C 22.443102,74.183628 20.187302,74.371303 16.441273,74.204615 C -11.388772,73.251894 -13.352452,40.630868 -13.227130,40.881511 C -13.101808,41.132154 -10.624859,62.373007 14.600434,63.138753 z "
           style="stroke-width:1.8965454;stroke:#261933;fill-rule:evenodd;fill-opacity:1.0;fill:url(#linearGradient8578);font-size:12.000000"
           id="path5400" />
        <path
           sodipodi:nodetypes="ccccccc"
           d="M -13.255035,41.357556 C -13.081984,41.097979 -9.6789460,74.902259 13.305812,74.330496 C 17.745403,74.362696 21.471422,73.398171 23.597175,74.461048 C 24.779073,75.051997 22.673518,80.537792 23.654866,80.057132 C 26.442702,78.691661 36.113758,69.704752 35.561980,69.248303 C 34.894390,68.626248 21.871568,68.751692 15.866100,68.667741 C -10.136832,67.676757 -13.255035,41.357556 -13.255035,41.357556 z "
           style="opacity:0.20178296;fill:#261e2e;fill-opacity:1.0000000;fill-rule:evenodd;stroke:none;stroke-width:1.0000000pt;stroke-linecap:butt;stroke-linejoin:miter;stroke-opacity:1.0000000"
           id="path5404" />
        <path
           sodipodi:nodetypes="cssssssss"
           id="path5406"
           d="M -8.4132903,54.129594 C -8.6055959,53.879597 -2.2826573,64.406095 17.007972,64.688403 C 20.163582,64.734807 21.839766,65.190465 23.992660,64.101355 C 25.108956,63.536640 24.159751,60.172357 24.219360,59.912396 C 24.294720,59.437868 26.382149,61.146774 26.527024,61.412378 C 26.612915,61.569846 25.036731,60.808725 24.911659,61.181611 C 24.857908,61.685863 25.725311,63.913448 24.822989,64.746213 C 23.486517,65.979660 20.757008,65.559814 18.137380,65.496179 C -3.3492933,64.976489 -8.2209853,54.379591 -8.4132903,54.129594 z "
           style="fill:url(#linearGradient8580);fill-opacity:1.0000000;fill-rule:evenodd;stroke:none;stroke-width:1.0000000pt;stroke-linecap:butt;stroke-linejoin:miter;stroke-opacity:1.0000000" />
      </g>
      <g
         transform="translate(0.432627,-6.143308)"
         id="g5390">
        <path
           sodipodi:nodetypes="ccccccccc"
           d="M 37.023464,25.308245 C 44.047472,25.134661 44.754652,24.991947 45.452864,25.529085 C 46.007383,25.934448 44.882053,31.394890 45.583016,31.255756 C 46.378406,31.079611 57.792345,21.752078 57.817265,19.411960 C 57.762092,16.849735 46.148647,8.4125819 45.583016,8.2189220 C 44.974599,8.0327717 46.205339,13.470838 45.583016,13.815442 C 44.866132,14.263370 42.610332,14.075695 38.864303,14.242383 C 11.034259,15.195104 1.0025726,43.457552 1.1278942,43.206909 C 1.2532158,42.956266 11.798172,26.073991 37.023464,25.308245 z "
           style="font-size:12.000000;fill:url(#linearGradient8582);fill-opacity:1.0000000;fill-rule:evenodd;stroke:#261933;stroke-width:1.8965454"
           id="path589" />
        <path
           sodipodi:nodetypes="cssssssss"
           id="path618"
           d="M 10.114841,30.644827 C 9.9225354,30.394830 20.140374,15.882688 39.431003,15.515846 C 42.586378,15.455552 44.448268,15.739701 46.601162,14.650591 C 47.717458,14.085876 46.582782,10.999800 46.642391,10.739839 C 46.717751,10.265311 48.805180,11.974217 48.950055,12.239821 C 49.035946,12.397289 47.459762,11.636168 47.334690,12.009054 C 47.280939,12.513306 48.195223,14.648406 47.524227,15.573656 C 46.335352,17.213020 41.596603,15.295824 33.697969,16.787301 C 18.676030,19.623852 10.307146,30.894824 10.114841,30.644827 z "
           style="fill:url(#linearGradient8584);fill-opacity:1.0000000;fill-rule:evenodd;stroke:none;stroke-width:1.0000000pt;stroke-linecap:butt;stroke-linejoin:miter;stroke-opacity:1.0000000" />
        <path
           sodipodi:nodetypes="ccccccc"
           d="M 1.6439839,42.002702 C 1.6439839,42.002702 12.373142,25.822438 35.357900,25.250675 C 38.220984,26.581175 43.523510,24.318350 45.649263,25.381227 C 46.831161,25.972176 44.725606,31.457971 45.706954,30.977311 C 48.494790,29.611840 58.258582,20.068517 57.706804,19.612068 C 57.039214,18.990013 39.843285,19.393664 38.845545,19.587920 C 13.584499,20.544386 1.4709330,42.262279 1.4709330,42.262279"
           style="opacity:0.20178296;fill:#261e2e;fill-opacity:1.0000000;fill-rule:evenodd;stroke:none;stroke-width:1.0000000pt;stroke-linecap:butt;stroke-linejoin:miter;stroke-opacity:1.0000000"
           id="path644" />
      </g>
    </g>
    <g
       transform="matrix(1.024600,0.000000,0.000000,1.024600,0.609719,4.811135)"
       id="g6989" />
  </g>
</svg>
