<?xml version="1.0" encoding="UTF-8" standalone="no"?>
<!DOCTYPE svg PUBLIC "-//W3C//DTD SVG 20010904//EN"
"http://www.w3.org/TR/2001/REC-SVG-20010904/DTD/svg10.dtd">
<!-- Created with Inkscape (http://www.inkscape.org/) -->
<svg
   sodipodi:docname="stock_shuffle2.svg"
   sodipodi:docbase="/home/stefan/Desktop"
   height="48pt"
   width="48pt"
   inkscape:version="0.40"
   sodipodi:version="0.32"
   id="svg1"
   xmlns="http://www.w3.org/2000/svg"
   xmlns:cc="http://web.resource.org/cc/"
   xmlns:inkscape="http://www.inkscape.org/namespaces/inkscape"
   xmlns:sodipodi="http://sodipodi.sourceforge.net/DTD/sodipodi-0.dtd"
   xmlns:rdf="http://www.w3.org/1999/02/22-rdf-syntax-ns#"
   xmlns:dc="http://purl.org/dc/elements/1.1/"
   xmlns:xlink="http://www.w3.org/1999/xlink">
  <metadata
     id="metadata24">
    <rdf:RDF
       id="RDF26">
      <cc:Work
         id="Work28"
         rdf:about="">
        <dc:format
           id="format30">image/svg+xml</dc:format>
        <dc:type
           rdf:resource="http://purl.org/dc/dcmitype/StillImage"
           id="type32" />
      </cc:Work>
    </rdf:RDF>
  </metadata>
  <defs
     id="defs3">
    <linearGradient
       y2="31.094440"
       x2="64.217979"
       y1="10.100427"
       x1="22.283611"
       gradientTransform="scale(0.896217,1.115802)"
       gradientUnits="userSpaceOnUse"
       id="linearGradient8584"
       xlink:href="#linearGradient584"
       inkscape:collect="always" />
    <linearGradient
       id="linearGradient584">
      <stop
         id="stop585"
         offset="0.00000000"
         style="stop-color:#ffffff;stop-opacity:1;" />
      <stop
         id="stop586"
         offset="1.00000000"
         style="stop-color:#ffffff;stop-opacity:0;" />
    </linearGradient>
    <linearGradient
       id="linearGradient578">
      <stop
         id="stop579"
         offset="0.00000000"
         style="stop-color:#d9cce6;stop-opacity:1;" />
      <stop
         id="stop580"
         offset="1.00000000"
         style="stop-color:#73667f;stop-opacity:1;" />
    </linearGradient>
    <linearGradient
       y2="0.98437500"
       x2="0.98000002"
       y1="0.00781250"
       x1="0.04000000"
       id="linearGradient581"
       xlink:href="#linearGradient578" />
    <linearGradient
       y2="0.97656250"
       x2="0.95370370"
       y1="0.00781250"
       x1="0.00000000"
       id="linearGradient583"
       xlink:href="#linearGradient584" />
    <linearGradient
       y2="0.97656250"
       x2="0.99166667"
       y1="0.00781250"
       x1="-0.00833333"
       id="linearGradient744"
       xlink:href="#linearGradient584" />
    <linearGradient
       y2="0.96875000"
       x2="0.97560978"
       y1="0.02343750"
       x1="0.01219512"
       id="linearGradient746"
       xlink:href="#linearGradient584" />
    <linearGradient
       y2="0.95714283"
       x2="0.97894734"
       y1="0.02857143"
       x1="0.01052632"
       id="linearGradient614"
       xlink:href="#linearGradient584" />
    <linearGradient
       y2="0.94230771"
       x2="0.98287672"
       y1="0.01923077"
       x1="0.00000000"
       id="linearGradient612"
       xlink:href="#linearGradient584" />
    <linearGradient
       y2="0.97142857"
       x2="0.98245615"
       y1="0.01428571"
       x1="0.01754386"
       id="linearGradient1523"
       xlink:href="#linearGradient584" />
    <linearGradient
       y2="0.97857141"
       x2="0.98611110"
       y1="0.02142857"
       x1="0.00694444"
       id="linearGradient1521"
       xlink:href="#linearGradient578" />
    <linearGradient
       id="linearGradient1515">
      <stop
         id="stop1517"
         offset="0.00000000"
         style="stop-color:#d9cce6;stop-opacity:1;" />
      <stop
         id="stop1519"
         offset="1.00000000"
         style="stop-color:#73667f;stop-opacity:1;" />
    </linearGradient>
    <linearGradient
       id="linearGradient1509">
      <stop
         id="stop1511"
         offset="0.00000000"
         style="stop-color:#ffffff;stop-opacity:1;" />
      <stop
         id="stop1513"
         offset="1.00000000"
         style="stop-color:#ffffff;stop-opacity:0;" />
    </linearGradient>
    <linearGradient
       gradientUnits="userSpaceOnUse"
       gradientTransform="scale(0.992813,1.007239)"
       y2="54.975880"
       x2="54.985731"
       y1="4.7594678"
       x1="6.6494208"
       id="linearGradient1533"
       xlink:href="#linearGradient578"
       inkscape:collect="always" />
    <linearGradient
       gradientUnits="userSpaceOnUse"
       gradientTransform="scale(0.896216,1.115802)"
       y2="36.957130"
       x2="37.317137"
       y1="7.7104387"
       x1="8.5246955"
       id="linearGradient1535"
       xlink:href="#linearGradient584"
       inkscape:collect="always" />
    <linearGradient
       y2="43.540390"
       x2="58.889771"
       y1="7.5128894"
       x1="0.19178884"
       gradientTransform="matrix(0.992814,0.000000,0.000000,-1.007238,-22.42303,88.44699)"
       gradientUnits="userSpaceOnUse"
       id="linearGradient6194"
       xlink:href="#linearGradient578"
       inkscape:collect="always" />
    <linearGradient
       y2="74.468262"
       x2="39.657124"
       y1="37.995064"
       x1="-14.691263"
       gradientTransform="scale(0.896217,1.115802)"
       gradientUnits="userSpaceOnUse"
       id="linearGradient6196"
       xlink:href="#linearGradient584"
       inkscape:collect="always" />
    <linearGradient
       y2="43.540390"
       x2="58.889771"
       y1="7.5128894"
       x1="0.19178884"
       gradientTransform="scale(0.992814,1.007238)"
       gradientUnits="userSpaceOnUse"
       id="linearGradient6198"
       xlink:href="#linearGradient578"
       inkscape:collect="always" />
    <linearGradient
       y2="30.299767"
       x2="40.018829"
       y1="1.0307844"
       x1="26.856337"
       gradientTransform="scale(0.896217,1.115802)"
       gradientUnits="userSpaceOnUse"
       id="linearGradient6200"
       xlink:href="#linearGradient584"
       inkscape:collect="always" />
    <linearGradient
       y2="43.540390"
       x2="58.889771"
       y1="7.5128894"
       x1="0.19178884"
       gradientTransform="scale(0.992814,1.007238)"
       gradientUnits="userSpaceOnUse"
       id="linearGradient8582"
       xlink:href="#linearGradient578"
       inkscape:collect="always" />
    <linearGradient
       inkscape:collect="always"
       xlink:href="#linearGradient578"
       id="linearGradient1139"
       gradientUnits="userSpaceOnUse"
       gradientTransform="scale(0.992814,-1.007238)"
       x1="-14.607336"
       y1="-39.964832"
       x2="35.957333"
       y2="-80.277672" />
    <linearGradient
       inkscape:collect="always"
       xlink:href="#linearGradient584"
       id="linearGradient1140"
       gradientUnits="userSpaceOnUse"
       gradientTransform="scale(0.896217,1.115802)"
       x1="-14.691263"
       y1="37.995064"
       x2="39.657124"
       y2="74.468262" />
    <linearGradient
       inkscape:collect="always"
       xlink:href="#linearGradient578"
       id="linearGradient1144"
       gradientUnits="userSpaceOnUse"
       gradientTransform="matrix(0.978860,0.000000,0.000000,-0.993167,-3.092206,64.42894)"
       x1="0.19178884"
       y1="7.5128894"
       x2="58.889771"
       y2="43.540390" />
    <linearGradient
       inkscape:collect="always"
       xlink:href="#linearGradient584"
       id="linearGradient1214"
       gradientUnits="userSpaceOnUse"
       gradientTransform="scale(0.896217,1.115802)"
       x1="14.541964"
       y1="16.087606"
       x2="63.378372"
       y2="51.575024" />
  </defs>
  <sodipodi:namedview
     inkscape:current-layer="svg1"
     inkscape:window-y="25"
     inkscape:window-x="0"
     inkscape:window-height="951"
     inkscape:window-width="1280"
     inkscape:cy="10.026097"
     inkscape:cx="40.909577"
     inkscape:zoom="10.783333"
     inkscape:pageshadow="2"
     inkscape:pageopacity="0.0"
     borderopacity="1.0"
     bordercolor="#666666"
     pagecolor="#ffffff"
     id="base" />
  <path
     style="font-size:12.000000;opacity:0.29999998;fill:#000000;fill-opacity:1.0000000;fill-rule:evenodd;stroke:none;stroke-width:1.8699701"
     d="M 45.993587,8.5055206 C 45.393722,8.3219696 46.607163,13.696981 45.993587,14.036771 C 45.286779,14.478443 43.061965,14.278661 39.368587,14.443021 C 30.268897,15.013638 25.974589,20.986867 22.837337,27.318021 C 21.124171,24.699245 19.322153,22.340514 17.243587,21.130521 C 11.063545,17.532939 2.9928686,16.035341 2.9310866,15.911771 C 2.9088186,15.867231 5.9810286,18.739276 7.1185866,19.755521 C 7.0151766,19.716871 6.3373366,19.380521 6.3373366,19.380521 C 6.3500686,19.361424 6.8897216,19.655301 7.2435866,19.849271 C 9.2784866,21.669200 10.356124,22.589272 14.556087,26.568021 C 16.589751,28.494571 17.839186,31.769019 19.056087,35.286771 C 17.953967,37.584794 16.824528,39.655869 15.399837,41.005521 C 8.7300676,47.323987 3.0255566,51.129092 3.0873366,51.005521 C 3.1491156,50.881947 11.938545,50.040603 18.118587,46.443021 C 19.437226,45.675403 20.739535,44.374326 22.056087,42.911771 C 22.274903,43.366185 22.501699,43.816200 22.743587,44.255521 C 24.231420,48.870985 26.531998,52.217877 32.899837,52.349271 C 35.634423,52.293489 41.755529,52.751353 42.462337,53.193021 C 43.075913,53.532811 41.862471,58.876569 42.462337,58.693021 C 42.556333,58.660836 43.949936,57.557872 44.556087,57.130521 C 45.270780,56.637724 45.962272,56.185006 46.899837,55.411771 C 49.704352,53.258419 52.555970,50.895390 53.931087,48.943021 C 53.985958,48.884665 53.972971,48.905344 54.024837,48.849271 C 54.049260,48.813357 54.033256,48.790682 54.056087,48.755521 C 54.759812,47.984684 54.336386,47.225066 54.212337,47.193021 C 53.309877,44.449206 43.213112,36.140550 42.462337,35.974271 C 41.771226,35.837081 42.884062,41.230823 42.337337,41.630521 C 41.648938,42.160156 40.900560,42.693835 34.024837,41.849271 C 31.823730,41.268881 29.858961,38.524409 27.899837,35.380521 C 31.284628,30.654027 34.560317,26.139198 37.556087,25.349271 C 44.431812,24.504704 45.180188,25.038387 45.868587,25.568021 C 46.415312,25.967723 45.302476,31.361461 45.993587,31.224271 C 46.777798,31.050587 58.031517,21.844197 58.056087,19.536771 C 58.054964,19.535403 58.057338,19.506776 58.056087,19.505521 C 57.938510,16.953976 46.549710,8.6959416 45.993587,8.5055206 z "
     id="path1959"
     sodipodi:nodetypes="ccccccccccccccccccccccccccccccccccc" />
  <g
     transform="matrix(0.985945,0.000000,0.000000,0.986030,1.205413,5.290810)"
     id="g6989" />
  <g
     id="g1997">
    <path
       sodipodi:nodetypes="cccccccscsc"
       d="M 33.410893,39.474254 C 40.286617,40.318819 41.033419,39.786134 41.721818,39.256499 C 42.268543,38.856799 41.159030,33.472640 41.850141,33.609830 C 42.634352,33.783514 53.887868,42.980742 53.912437,45.288168 C 53.858040,47.814599 42.407822,56.133885 41.850141,56.324839 C 41.250275,56.508389 42.463717,51.146293 41.850141,50.806503 C 41.143333,50.364832 38.919238,50.549885 35.225859,50.385526 C 18.492502,49.336222 20.404310,30.310662 13.937623,24.184579 C 7.2678563,17.866113 2.2470826,13.421538 2.3088626,13.545109 C 2.3706427,13.668679 10.456053,15.154015 16.636095,18.751597 C 23.402848,22.690718 27.582937,37.937533 33.410893,39.474254 z "
       style="font-size:12.000000;fill:url(#linearGradient1144);fill-opacity:1.0000000;fill-rule:evenodd;stroke:#261933;stroke-width:1.8699701"
       id="path1143" />
    <path
       sodipodi:nodetypes="cssssssssss"
       id="path1213"
       d="M 12.669373,18.323856 C 12.573220,18.198858 17.612448,19.811645 20.913935,25.432239 C 24.215422,31.052833 28.213481,40.333475 35.424484,40.822388 C 38.573206,41.035874 40.256278,41.324450 42.409172,40.235340 C 43.525468,39.670625 42.576263,36.306341 42.635872,36.046380 C 42.711232,35.571852 44.798661,37.280759 44.943536,37.546363 C 45.029427,37.703831 43.453243,36.942710 43.328171,37.315596 C 43.274420,37.819848 44.141823,40.047433 43.239501,40.880198 C 41.903029,42.113645 39.170588,41.769460 36.553892,41.630164 C 27.317510,41.138480 24.060608,31.664974 20.799351,25.934608 C 17.538094,20.204241 12.765526,18.448854 12.669373,18.323856 z "
       style="fill:url(#linearGradient1214);fill-opacity:1.0;fill-rule:evenodd;stroke:none;stroke-width:1.0000000pt;stroke-linecap:butt;stroke-linejoin:miter;stroke-opacity:1.0000000;" />
    <path
       sodipodi:nodetypes="cscccccsc"
       d="M 5.7192546,16.988453 C 5.8057801,16.858665 14.814177,21.767252 18.559662,30.114404 C 22.305148,38.461557 20.787722,50.247275 32.280101,49.961393 C 36.719692,49.993593 40.445711,49.029068 42.571464,50.091945 C 43.753362,50.682894 41.647807,56.168689 42.629155,55.688029 C 45.416991,54.322558 55.088047,45.335649 54.536269,44.879200 C 53.868679,44.257145 40.845857,44.382589 34.840389,44.298638 C 21.838923,43.803146 22.673014,33.498011 18.643097,26.794338 C 14.613180,20.090665 5.7192546,16.988453 5.7192546,16.988453 z "
       style="opacity:0.20178296;fill:#261e2e;fill-opacity:1.0000000;fill-rule:evenodd;stroke:none;stroke-width:1.0000000pt;stroke-linecap:butt;stroke-linejoin:miter;stroke-opacity:1.0000000"
       id="path1836" />
  </g>
  <g
     id="g1993">
    <path
       sodipodi:nodetypes="cccccccscsc"
       d="M 37.023464,25.308245 C 43.997204,24.451715 44.754652,24.991947 45.452864,25.529085 C 46.007383,25.934448 44.882053,31.394890 45.583016,31.255756 C 46.378406,31.079611 57.792345,21.752078 57.817265,19.411960 C 57.762092,16.849735 46.148647,8.4125819 45.583016,8.2189220 C 44.974599,8.0327717 46.205339,13.470838 45.583016,13.815442 C 44.866132,14.263370 42.610332,14.075695 38.864303,14.242383 C 21.892406,15.306554 21.127309,34.954353 14.568437,41.167230 C 7.8035898,47.575215 2.0058103,51.444007 2.0684711,51.318685 C 2.1311319,51.193364 11.037236,50.325738 17.305377,46.677186 C 24.168592,42.682255 31.112428,26.866738 37.023464,25.308245 z "
       style="font-size:12.000000;fill:url(#linearGradient8582);fill-opacity:1.0000000;fill-rule:evenodd;stroke:#261933;stroke-width:1.8965454;"
       id="path589"
       transform="matrix(0.985945,0.000000,0.000000,0.986030,0.429118,-1.969621)" />
    <path
       sodipodi:nodetypes="cssssssssss"
       id="path618"
       d="M 18.453801,36.225270 C 18.357649,36.100272 20.236418,31.922051 22.975695,26.188317 C 25.714972,20.454583 28.495081,14.148947 38.960071,13.145850 C 42.101623,12.844724 44.141271,13.287737 46.294165,12.198627 C 47.410461,11.633912 46.275785,8.5478359 46.335394,8.2878749 C 46.410754,7.8133469 48.498183,9.5222529 48.643058,9.7878569 C 48.728949,9.9453249 47.152765,9.1842039 47.027693,9.5570899 C 46.973942,10.061342 47.888226,12.196442 47.217230,13.121692 C 46.028355,14.761056 41.791215,13.962328 33.882777,15.400915 C 28.339029,16.409353 24.940582,23.659249 23.165647,27.118007 C 20.836124,31.657471 18.549954,36.350269 18.453801,36.225270 z "
       style="fill:url(#linearGradient8584);fill-opacity:1.0;fill-rule:evenodd;stroke:none;stroke-width:1.0000000pt;stroke-linecap:butt;stroke-linejoin:miter;stroke-opacity:1.0000000;" />
    <path
       sodipodi:nodetypes="cscccccsc"
       d="M 11.060392,45.822152 C 16.880089,43.854931 20.341081,42.904146 23.478433,37.291707 C 26.615785,31.679268 29.757367,28.454384 35.102179,22.758644 C 37.391490,21.302247 43.267789,21.826319 45.393542,22.889196 C 46.575440,23.480145 44.469885,28.965940 45.451233,28.485280 C 48.239069,27.119809 58.002861,17.576486 57.451083,17.120037 C 56.783493,16.497982 42.456429,16.737698 38.835727,17.505727 C 29.156036,20.361019 26.738631,28.181252 22.970641,35.226186 C 19.202651,42.271121 10.969309,45.507956 10.969309,45.507956"
       style="opacity:0.20178296;fill:#261e2e;fill-opacity:1.0000000;fill-rule:evenodd;stroke:none;stroke-width:1.0000000pt;stroke-linecap:butt;stroke-linejoin:miter;stroke-opacity:1.0000000"
       id="path644" />
  </g>
</svg>
