<?xml version="1.0" encoding="UTF-8" standalone="no"?>
<!DOCTYPE svg PUBLIC "-//W3C//DTD SVG 20010904//EN"
"http://www.w3.org/TR/2001/REC-SVG-20010904/DTD/svg10.dtd">
<!-- Created with Inkscape (http://www.inkscape.org/) -->
<svg
   version="1.0"
   x="0"
   y="0"
   width="48pt"
   height="48pt"
   id="svg611"
   sodipodi:version="0.32"
   inkscape:version="0.40"
   sodipodi:docname="terminal-closewindow.svg"
   sodipodi:docbase="/home/scaba"
   xmlns="http://www.w3.org/2000/svg"
   xmlns:cc="http://web.resource.org/cc/"
   xmlns:inkscape="http://www.inkscape.org/namespaces/inkscape"
   xmlns:sodipodi="http://sodipodi.sourceforge.net/DTD/sodipodi-0.dtd"
   xmlns:rdf="http://www.w3.org/1999/02/22-rdf-syntax-ns#"
   xmlns:dc="http://purl.org/dc/elements/1.1/"
   xmlns:xlink="http://www.w3.org/1999/xlink">
  <metadata
     id="metadata1146">
    <rdf:RDF
       id="RDF1147">
      <cc:Work
         rdf:about=""
         id="Work1148">
        <dc:format
           id="format1149">image/svg+xml</dc:format>
        <dc:type
           id="type1151"
           rdf:resource="http://purl.org/dc/dcmitype/StillImage" />
      </cc:Work>
    </rdf:RDF>
  </metadata>
  <sodipodi:namedview
     id="base"
     pagecolor="#ffffff"
     bordercolor="#666666"
     borderopacity="1.0"
     inkscape:pageopacity="0.0"
     inkscape:pageshadow="2"
     inkscape:zoom="7.7339804"
     inkscape:cx="23.999999"
     inkscape:cy="24.000001"
     inkscape:window-width="782"
     inkscape:window-height="651"
     inkscape:window-x="53"
     inkscape:window-y="48"
     showgrid="false"
     gridspacingx="1.0000000pt"
     gridspacingy="1.0000000pt"
     gridtolerance="1.0000000px"
     gridempspacing="5"
     gridoriginy="0.0000000pt"
     gridoriginx="0.0000000pt"
     inkscape:grid-bbox="false"
     inkscape:grid-points="true"
     inkscape:current-layer="svg611" />
  <defs
     id="defs613">
    <linearGradient
       id="linearGradient1535">
      <stop
         style="stop-color:#ffffff;stop-opacity:1;"
         offset="0"
         id="stop1537" />
      <stop
         style="stop-color:#ffffff;stop-opacity:0;"
         offset="1"
         id="stop1536" />
    </linearGradient>
    <linearGradient
       id="linearGradient1528">
      <stop
         style="stop-color:#d9cce6;stop-opacity:1;"
         offset="0.00000000"
         id="stop1530" />
      <stop
         style="stop-color:#73667f;stop-opacity:1;"
         offset="1.00000000"
         id="stop1529" />
    </linearGradient>
    <linearGradient
       id="linearGradient642">
      <stop
         style="stop-color:#ffffff;stop-opacity:1;"
         offset="0"
         id="stop643" />
      <stop
         style="stop-color:#ffffff;stop-opacity:0;"
         offset="1"
         id="stop644" />
    </linearGradient>
    <linearGradient
       id="linearGradient635">
      <stop
         style="stop-color:#ffffff;stop-opacity:1;"
         offset="0.00000000"
         id="stop636" />
      <stop
         style="stop-color:#d9cce6;stop-opacity:1;"
         offset="1.00000000"
         id="stop637" />
    </linearGradient>
    <linearGradient
       x1="0.00833333"
       y1="0.00000000"
       x2="0.94166666"
       y2="0.95312500"
       id="linearGradient638"
       xlink:href="#linearGradient1528" />
    <linearGradient
       x1="0.027523"
       y1="0.023438"
       x2="1.000000"
       y2="1.015625"
       id="linearGradient641"
       xlink:href="#linearGradient642" />
    <linearGradient
       x1="-0.000009"
       y1="0.015624"
       x2="0.727272"
       y2="0.984375"
       id="linearGradient1522"
       xlink:href="#linearGradient642" />
    <linearGradient
       x1="0.027523"
       y1="0.007813"
       x2="1.009174"
       y2="0.992188"
       id="linearGradient1527"
       xlink:href="#linearGradient1535" />
    <linearGradient
       x1="0.010743"
       y1="0.031251"
       x2="0.967741"
       y2="0.992187"
       id="linearGradient1532"
       xlink:href="#linearGradient635" />
    <linearGradient
       x1="0.007275"
       y1="-0.012819"
       x2="0.996364"
       y2="0.974359"
       id="linearGradient1534"
       xlink:href="#linearGradient635" />
    <linearGradient
       x1="0.017094"
       y1="0.000000"
       x2="0.974359"
       y2="0.984375"
       id="linearGradient1539"
       xlink:href="#linearGradient1535" />
    <linearGradient
       id="linearGradient1567"
       xlink:href="#linearGradient1535" />
    <linearGradient
       xlink:href="#linearGradient890"
       id="linearGradient1075"
       x1="0.0091743115"
       y1="0.0078125000"
       x2="0.98165137"
       y2="1.0000000" />
    <linearGradient
       xlink:href="#linearGradient890"
       id="linearGradient1073"
       x1="-0.034482758"
       y1="2.2898350e-16"
       x2="0.96551722"
       y2="1.0000000" />
    <linearGradient
       xlink:href="#linearGradient878"
       id="linearGradient1071"
       x1="-14.057675"
       y1="-1.7973610"
       x2="7.8545947"
       y2="5.7146859" />
    <linearGradient
       xlink:href="#linearGradient878"
       id="linearGradient1070"
       x1="-19.584591"
       y1="-2.8024988"
       x2="2.9885283"
       y2="4.9361024"
       gradientTransform="scale(0.604924,1.653101)" />
    <linearGradient
       xlink:href="#linearGradient878"
       id="linearGradient1069"
       x1="-9.0701656"
       y1="-2.8384054"
       x2="13.502941"
       y2="4.9001923"
       gradientTransform="scale(0.604924,1.653101)" />
    <linearGradient
       xlink:href="#linearGradient878"
       id="linearGradient1068"
       x1="-6.5309486"
       y1="-4.6239085"
       x2="15.322609"
       y2="2.8680108"
       gradientTransform="scale(0.364216,2.745626)" />
    <linearGradient
       xlink:href="#linearGradient878"
       id="linearGradient1067"
       x1="-19.987103"
       y1="-4.4941115"
       x2="1.8664598"
       y2="2.9978089"
       gradientTransform="scale(0.364216,2.745626)" />
    <linearGradient
       xlink:href="#linearGradient878"
       id="linearGradient1066"
       x1="-19.733883"
       y1="-6.3766117"
       x2="2.8392367"
       y2="1.3619896"
       gradientTransform="scale(0.604924,1.653101)" />
    <linearGradient
       xlink:href="#linearGradient878"
       id="linearGradient894"
       x1="-8.9208746"
       y1="-6.4125171"
       x2="13.652234"
       y2="1.3260813"
       gradientTransform="scale(0.604924,1.653101)" />
    <linearGradient
       xlink:href="#linearGradient878"
       id="linearGradient888"
       x1="-14.019908"
       y1="-6.6963916"
       x2="7.8923621"
       y2="0.81565529" />
    <linearGradient
       xlink:href="#linearGradient841"
       id="linearGradient884"
       x1="-1.5012646"
       y1="-0.92384611"
       x2="19.454680"
       y2="19.838613"
       gradientTransform="scale(1.024259,0.976316)"
       gradientUnits="userSpaceOnUse" />
    <sodipodi:namedview
       id="namedview854"
       pagecolor="#ffffff"
       bordercolor="#666666"
       borderopacity="1.0"
       inkscape:pageopacity="0.0"
       inkscape:pageshadow="2"
       inkscape:zoom="7.97947193"
       inkscape:cx="29.4003546"
       inkscape:cy="24.0932681"
       inkscape:window-width="640"
       inkscape:window-height="516"
       inkscape:window-x="99"
       inkscape:window-y="57" />
    <defs
       id="defs845">
      <linearGradient
         id="linearGradient584"
         x1="0.0000000"
         y1="0.50000000"
         x2="1.0000000"
         y2="0.50000000"
         gradientUnits="objectBoundingBox"
         spreadMethod="pad"
         xlink:href="#linearGradient890" />
      <linearGradient
         id="linearGradient578"
         x1="0.0000000"
         y1="0.50000000"
         x2="1.0000000"
         y2="0.50000000"
         gradientUnits="objectBoundingBox"
         spreadMethod="pad"
         xlink:href="#linearGradient878" />
      <linearGradient
         xlink:href="#linearGradient578"
         id="linearGradient581"
         x1="0.00877193"
         y1="0.02857143"
         x2="0.99122804"
         y2="0.97142857" />
      <linearGradient
         xlink:href="#linearGradient584"
         id="linearGradient583"
         x1="0.01298701"
         y1="0.00714286"
         x2="0.97402596"
         y2="0.99285716" />
    </defs>
    <radialGradient
       xlink:href="#linearGradient841"
       id="radialGradient836"
       cx="0.29999998"
       cy="0.25581393"
       r="0.78461540"
       fx="0.29999998"
       fy="0.25968978" />
    <radialGradient
       xlink:href="#linearGradient826"
       id="radialGradient830"
       cx="9.3719852"
       cy="7.7757500"
       r="22.002142"
       fx="9.3719852"
       fy="7.8844364"
       spreadMethod="pad"
       gradientUnits="userSpaceOnUse" />
    <linearGradient
       xlink:href="#linearGradient832"
       id="linearGradient829"
       x1="-2.5675036"
       y1="-1.0361387"
       x2="14.965480"
       y2="17.652119"
       gradientTransform="scale(1.078023,0.927624)"
       gradientUnits="userSpaceOnUse" />
    <linearGradient
       id="linearGradient826">
      <stop
         style="stop-color:#d9cce6;stop-opacity:1.0000000;"
         offset="0.0000000"
         id="stop827" />
      <stop
         style="stop-color:#73667f;stop-opacity:1.0000000;"
         offset="1.0000000"
         id="stop828" />
    </linearGradient>
    <linearGradient
       id="linearGradient832">
      <stop
         style="stop-color:#ffffff;stop-opacity:1.0000000;"
         offset="0.0000000"
         id="stop833" />
      <stop
         style="stop-color:#ffffff;stop-opacity:0.0000000;"
         offset="1.0000000"
         id="stop834" />
    </linearGradient>
    <linearGradient
       id="linearGradient841">
      <stop
         style="stop-color:#ffffff;stop-opacity:1.0000000;"
         offset="0.0000000"
         id="stop842" />
      <stop
         style="stop-color:#d9cce6;stop-opacity:1.0000000;"
         offset="1.0000000"
         id="stop843" />
    </linearGradient>
    <linearGradient
       id="linearGradient878">
      <stop
         offset="0.0000000"
         style="stop-color:#d9cce6;stop-opacity:1.0000000;"
         id="stop880" />
      <stop
         offset="1.0000000"
         style="stop-color:#73667f;stop-opacity:1.0000000;"
         id="stop879" />
    </linearGradient>
    <linearGradient
       id="linearGradient890">
      <stop
         offset="0.0000000"
         style="stop-color:#ffffff;stop-opacity:1.0000000;"
         id="stop892" />
      <stop
         offset="1.0000000"
         style="stop-color:#ffffff;stop-opacity:0.0000000;"
         id="stop891" />
    </linearGradient>
    <linearGradient
       inkscape:collect="always"
       xlink:href="#linearGradient841"
       id="linearGradient3455"
       gradientUnits="userSpaceOnUse"
       gradientTransform="scale(1.024259,0.976316)"
       x1="-1.5012646"
       y1="-0.92384611"
       x2="19.454680"
       y2="19.838613" />
    <linearGradient
       xlink:href="#linearGradient584"
       id="linearGradient600"
       x1="12.683742"
       y1="28.761297"
       x2="29.532001"
       y2="45.477929"
       gradientTransform="scale(0.900530,1.110457)"
       gradientUnits="userSpaceOnUse" />
    <linearGradient
       xlink:href="#linearGradient584"
       id="linearGradient599"
       x1="10.818061"
       y1="12.214143"
       x2="28.093218"
       y2="28.809789"
       gradientTransform="scale(1.072983,0.931981)"
       gradientUnits="userSpaceOnUse" />
    <linearGradient
       xlink:href="#linearGradient584"
       id="linearGradient3730"
       x1="-0.01086957"
       y1="0.00000000"
       x2="0.98369563"
       y2="0.96875000" />
    <linearGradient
       xlink:href="#linearGradient578"
       id="linearGradient3729"
       x1="0.01538462"
       y1="0.03125000"
       x2="0.99230766"
       y2="0.98437500" />
    <linearGradient
       id="linearGradient3726">
      <stop
         style="stop-color:#f50000;stop-opacity:1;"
         offset="0.00000000"
         id="stop579" />
      <stop
         style="stop-color:#a90000;stop-opacity:1;"
         offset="1.00000000"
         id="stop580" />
    </linearGradient>
    <linearGradient
       id="linearGradient3723">
      <stop
         style="stop-color:#ffffff;stop-opacity:1;"
         offset="0.00000000"
         id="stop585" />
      <stop
         style="stop-color:#ffffff;stop-opacity:0;"
         offset="1.00000000"
         id="stop586" />
    </linearGradient>
    <linearGradient
       inkscape:collect="always"
       xlink:href="#linearGradient878"
       id="linearGradient3739"
       x1="8.0295040"
       y1="9.1062532"
       x2="53.568715"
       y2="52.809956"
       gradientTransform="scale(1.002997,0.997012)"
       gradientUnits="userSpaceOnUse" />
    <linearGradient
       inkscape:collect="always"
       xlink:href="#linearGradient1528"
       id="linearGradient1158"
       x1="6.2175967"
       y1="3.8180369"
       x2="53.684010"
       y2="52.290992"
       gradientTransform="scale(0.965084,1.036180)"
       gradientUnits="userSpaceOnUse" />
    <linearGradient
       inkscape:collect="always"
       xlink:href="#linearGradient642"
       id="linearGradient1159"
       x1="12.919350"
       y1="6.9662588"
       x2="55.101160"
       y2="50.003002"
       gradientTransform="scale(0.919180,1.087926)"
       gradientUnits="userSpaceOnUse" />
    <linearGradient
       inkscape:collect="always"
       xlink:href="#linearGradient642"
       id="linearGradient1160"
       x1="27.901974"
       y1="2.0148730"
       x2="37.413106"
       y2="14.683867"
       gradientTransform="scale(0.281053,3.558044)"
       gradientUnits="userSpaceOnUse" />
    <linearGradient
       inkscape:collect="always"
       xlink:href="#linearGradient1535"
       id="linearGradient1161"
       x1="18.046341"
       y1="11.283921"
       x2="49.792368"
       y2="43.118041"
       gradientTransform="scale(0.922573,1.083925)"
       gradientUnits="userSpaceOnUse" />
    <linearGradient
       inkscape:collect="always"
       xlink:href="#linearGradient635"
       id="linearGradient1162"
       x1="22.116129"
       y1="13.728830"
       x2="29.908534"
       y2="21.553301"
       gradientTransform="scale(0.850848,1.175298)"
       gradientUnits="userSpaceOnUse" />
    <linearGradient
       inkscape:collect="always"
       xlink:href="#linearGradient635"
       id="linearGradient1163"
       x1="14.195411"
       y1="42.035515"
       x2="17.751057"
       y2="45.584292"
       gradientTransform="scale(1.884374,0.530680)"
       gradientUnits="userSpaceOnUse" />
    <linearGradient
       inkscape:collect="always"
       xlink:href="#linearGradient3726"
       id="linearGradient1164"
       gradientUnits="userSpaceOnUse"
       gradientTransform="scale(1.002997,0.997012)"
       x1="8.0295038"
       y1="9.1062536"
       x2="53.568714"
       y2="52.809956" />
    <linearGradient
       inkscape:collect="always"
       xlink:href="#linearGradient890"
       id="linearGradient1165"
       gradientUnits="userSpaceOnUse"
       gradientTransform="scale(0.900530,1.110457)"
       x1="12.683742"
       y1="28.761297"
       x2="29.532001"
       y2="45.477928" />
    <linearGradient
       inkscape:collect="always"
       xlink:href="#linearGradient3723"
       id="linearGradient1166"
       gradientUnits="userSpaceOnUse"
       gradientTransform="scale(1.072983,0.931981)"
       x1="10.818061"
       y1="12.214143"
       x2="28.093218"
       y2="28.809790" />
    <linearGradient
       inkscape:collect="always"
       xlink:href="#linearGradient890"
       id="linearGradient1167"
       gradientUnits="userSpaceOnUse"
       gradientTransform="scale(1.185296,0.843671)"
       x1="27.659791"
       y1="14.528370"
       x2="41.890617"
       y2="29.124583" />
  </defs>
  <path
     d="M 11.323296,57.160451 C 11.951521,57.577304 14.621051,58.712840 15.942291,58.429631 C 17.047672,58.072110 55.203686,45.611520 56.142616,44.148515 C 57.124721,42.551005 55.856932,11.468189 54.696814,10.413698 C 53.445181,9.2650180 12.788123,5.1677725 11.537980,5.1310154 C 10.405014,4.9884573 7.6400123,5.9645902 7.1064044,6.5581759 C 6.0443342,7.7273842 10.152592,56.301396 11.323296,57.160451 z "
     style="font-size:12.000000;opacity:0.29999998;fill-rule:evenodd;stroke-width:12.500000;"
     id="path839"
     transform="matrix(1.100500,0.000000,0.000000,1.100500,-3.603420,-4.352444)" />
  <path
     d="M 10.710824,54.464037 C 11.309499,54.860979 13.851862,55.942451 15.110416,55.672891 C 16.163471,55.332261 52.506055,43.463828 53.400251,42.070343 C 54.335686,40.548752 53.128257,10.943036 52.023269,9.9385553 C 50.831206,8.8445630 12.106038,4.9420868 10.915404,4.9070460 C 9.8362807,4.7712615 7.2027255,5.7009364 6.6944162,6.2663239 C 5.6828474,7.3800001 9.5957511,53.645804 10.710824,54.464037 z "
     style="font-size:12.000000;fill:url(#linearGradient1158);fill-rule:evenodd;stroke:#261933;stroke-width:1.8750000;"
     id="path834"
     transform="matrix(1.100500,0.000000,0.000000,1.100500,-3.603420,-4.352444)" />
  <path
     d="M 14.383126,53.660677 C 14.070498,53.348051 10.313979,7.7669659 10.825691,6.4958449 C 11.139641,6.1159772 50.332629,10.543036 50.646074,10.856477 C 50.944548,11.155154 14.326404,6.3756002 12.776710,8.6762330 C 11.094427,11.058617 14.682413,53.959959 14.383126,53.660677 z "
     style="font-size:12.000000;opacity:0.69999999;fill:url(#linearGradient1159);fill-rule:evenodd;stroke:none;stroke-width:0.10518800pt;"
     id="path835"
     transform="matrix(1.100500,0.000000,0.000000,1.100500,-3.603420,-4.352444)" />
  <path
     d="M 11.514286,52.972175 C 11.398196,52.797942 8.0068500,21.776137 7.8420129,7.1843481 C 7.8321255,6.6661201 9.7765052,6.2993477 9.9075644,6.4958449 C 10.006036,6.6436043 8.5226851,7.8148987 8.5305678,8.2171495 C 8.7014020,22.810149 11.627626,53.142245 11.514286,52.972175 z "
     style="font-size:12.000000;opacity:0.69993597;fill:url(#linearGradient1160);fill-rule:evenodd;stroke:none;stroke-width:0.10518800pt;"
     id="path836"
     transform="matrix(1.100500,0.000000,0.000000,1.100500,-3.603420,-4.352444)" />
  <path
     d="M 15.177322,10.961774 C 14.558788,11.749148 16.374674,48.355066 17.316630,49.041019 C 18.289339,49.671571 48.857076,39.875433 49.619702,38.879506 C 50.338948,38.047123 49.355237,14.699760 48.871027,13.849962 C 48.247804,12.943851 15.852983,10.208820 15.177322,10.961774 z "
     style="font-size:12.000000;fill:#261933;fill-rule:evenodd;stroke:#261933;stroke-width:0.61334801;"
     id="path837"
     transform="matrix(1.100500,0.000000,0.000000,1.100500,-3.603420,-4.352444)" />
  <path
     d="M 17.744431,47.008737 C 17.506854,46.716067 15.346975,12.931632 15.926202,12.138455 C 16.692801,11.234891 45.424386,13.985400 45.661957,14.277763 C 45.888033,14.555666 19.622945,11.623281 17.316630,13.849860 C 15.744634,15.369718 17.970295,47.286535 17.744431,47.008737 z "
     style="font-size:12.000000;opacity:0.69993597;fill:url(#linearGradient1161);fill-rule:evenodd;stroke:none;stroke-width:0.098044699pt;"
     id="path838"
     transform="matrix(1.100500,0.000000,0.000000,1.100500,-3.603420,-4.352444)" />
  <path
     d="M 19.020093,15.836725 C 18.618158,16.056480 18.662862,17.570534 19.093719,18.107704 C 20.016326,19.258824 22.957468,19.782959 23.075391,20.739477 C 23.177122,21.561982 20.495960,22.423082 19.753189,23.444672 C 19.407670,23.919722 19.410623,25.582148 19.816122,25.391110 C 21.383333,24.652411 25.704720,21.704548 25.670911,20.655464 C 25.649323,19.986931 19.400643,15.793853 19.020093,15.836725 z "
     style="font-size:12.000000;fill:url(#linearGradient1162);fill-rule:evenodd;stroke-width:1.0000000pt;"
     id="path840"
     transform="matrix(1.100500,0.000000,0.000000,1.100500,-3.603420,-4.352444)" />
  <path
     d="M 26.891584,22.791106 C 26.526411,22.896606 26.728753,24.119113 27.121115,24.168196 C 28.870810,24.386831 31.643725,24.077258 33.318165,23.594367 C 33.632828,23.503429 33.428450,22.489375 33.088532,22.446912 C 31.286291,22.221555 28.515515,22.322676 26.891584,22.791106 z "
     style="font-size:12.000000;fill:url(#linearGradient1163);fill-rule:evenodd;stroke-width:1.0000000pt;"
     id="path841"
     transform="matrix(1.100500,0.000000,0.000000,1.100500,-3.603420,-4.352444)" />
  <path
     style="opacity:0.29999998;fill:#000000;fill-opacity:1.0000000;fill-rule:evenodd;stroke:none;stroke-width:18.750000;stroke-linecap:butt;stroke-linejoin:miter;stroke-opacity:1.0000000;"
     d="M 6.9343421,57.521581 C 8.6697699,59.269489 30.340458,42.753724 33.163015,42.585814 C 35.496203,42.585814 55.852471,59.147552 57.388115,57.521581 C 58.948921,55.868962 42.450042,35.015780 42.452338,32.750056 C 42.454776,30.538321 59.141756,9.1884812 57.570255,7.4320985 C 56.045307,5.7277530 35.305967,22.370314 33.163015,22.367873 C 30.792285,22.179666 8.9251706,5.4728096 7.2986293,7.2499548 C 5.6465865,9.0549664 23.321268,30.419816 23.327264,33.114342 C 23.150472,35.518854 5.2704576,55.662281 6.9343421,57.521581 z "
     id="path601"
     sodipodi:nodetypes="cssssssss"
     transform="matrix(1.100500,0.000000,0.000000,1.100500,-6.079384,-6.976445)" />
  <path
     style="font-size:12.000000;fill:url(#linearGradient1164);fill-opacity:1.0000000;fill-rule:evenodd;stroke:#330000;stroke-width:1.8745600;"
     d="M 8.6789349,52.921631 C 10.201644,54.455286 29.216052,39.963940 31.692638,39.816608 C 33.739832,39.816610 51.600940,54.348291 52.948352,52.921631 C 54.317837,51.471577 39.841309,33.174476 39.843326,31.186470 C 39.845462,29.245838 54.487041,10.512949 53.108167,8.9718535 C 51.770142,7.4764170 33.572918,22.079021 31.692638,22.076881 C 29.612497,21.911742 10.425738,7.2527237 8.9985705,8.8120369 C 7.5490258,10.395798 23.057238,29.141858 23.062500,31.506106 C 22.907378,33.615884 7.2190010,51.290239 8.6789349,52.921631 z "
     id="path589"
     sodipodi:nodetypes="cssssssss"
     transform="matrix(1.100500,0.000000,0.000000,1.100500,-6.079384,-6.976445)" />
  <path
     style="font-size:12.000000;fill:url(#linearGradient1165);fill-opacity:1.0000000;fill-rule:evenodd;stroke:none;stroke-width:1.0000000pt;"
     d="M 11.425068,50.323641 C 11.667991,49.575931 22.742805,35.368244 26.375023,31.706693 C 27.073600,31.002476 25.959680,36.622014 25.056727,37.705778 C 21.185667,42.351995 11.224771,50.940143 11.425068,50.323641 z "
     id="path596"
     sodipodi:nodetypes="csss"
     transform="matrix(1.100500,0.000000,0.000000,1.100500,-6.079384,-6.976445)" />
  <path
     style="opacity:0.75038201;fill:url(#linearGradient1166);fill-opacity:1.0000000;fill-rule:evenodd;stroke:none;stroke-width:1.0000000pt;stroke-linecap:butt;stroke-linejoin:miter;stroke-opacity:1.0000000;"
     d="M 19.863314,23.039014 C 18.904982,22.113726 10.930725,11.494995 11.549574,11.207671 C 12.266137,10.874983 24.231025,19.334637 25.148082,20.220071 C 25.614127,20.670048 15.529076,14.447013 15.219429,14.574634 C 15.041851,14.657082 20.288086,23.449137 19.863314,23.039014 z "
     id="path597"
     sodipodi:nodetypes="cssss"
     transform="matrix(1.100500,0.000000,0.000000,1.100500,-6.079384,-6.976445)" />
  <path
     style="fill:url(#linearGradient1167);fill-opacity:1.0000000;fill-rule:evenodd;stroke:none;stroke-width:1.0000000pt;stroke-linecap:butt;stroke-linejoin:miter;stroke-opacity:1.0000000;"
     d="M 32.616090,24.462783 C 35.912102,21.298612 49.321330,12.110487 50.071639,12.168203 C 50.706412,12.217033 43.026197,20.214299 38.724604,23.195602 C 37.645678,23.943372 31.916665,25.134229 32.616090,24.462783 z "
     id="path598"
     sodipodi:nodetypes="csss"
     transform="matrix(1.100500,0.000000,0.000000,1.100500,-6.079384,-6.976445)" />
</svg>
