<?xml version="1.0" encoding="UTF-8" standalone="no"?>
<!DOCTYPE svg PUBLIC "-//W3C//DTD SVG 20010904//EN"
"http://www.w3.org/TR/2001/REC-SVG-20010904/DTD/svg10.dtd">
<!-- Created with Inkscape (http://www.inkscape.org/) -->
<svg
   version="1.0"
   x="0"
   y="0"
   width="48pt"
   height="48pt"
   id="svg611"
   sodipodi:version="0.32"
   inkscape:version="0.40"
   sodipodi:docname="terminal-appearance.svg"
   sodipodi:docbase="/home/scaba"
   xmlns="http://www.w3.org/2000/svg"
   xmlns:cc="http://web.resource.org/cc/"
   xmlns:inkscape="http://www.inkscape.org/namespaces/inkscape"
   xmlns:sodipodi="http://sodipodi.sourceforge.net/DTD/sodipodi-0.dtd"
   xmlns:rdf="http://www.w3.org/1999/02/22-rdf-syntax-ns#"
   xmlns:dc="http://purl.org/dc/elements/1.1/"
   xmlns:xlink="http://www.w3.org/1999/xlink">
  <metadata
     id="metadata1146">
    <rdf:RDF
       id="RDF1147">
      <cc:Work
         rdf:about=""
         id="Work1148">
        <dc:format
           id="format1149">image/svg+xml</dc:format>
        <dc:type
           id="type1151"
           rdf:resource="http://purl.org/dc/dcmitype/StillImage" />
      </cc:Work>
    </rdf:RDF>
  </metadata>
  <sodipodi:namedview
     id="base"
     pagecolor="#ffffff"
     bordercolor="#666666"
     borderopacity="1.0"
     inkscape:pageopacity="0.0"
     inkscape:pageshadow="2"
     inkscape:zoom="7.7339804"
     inkscape:cx="23.999999"
     inkscape:cy="24.000001"
     inkscape:window-width="756"
     inkscape:window-height="652"
     inkscape:window-x="63"
     inkscape:window-y="40"
     showgrid="false"
     gridspacingx="1.0000000pt"
     gridspacingy="1.0000000pt"
     gridtolerance="1.0000000px"
     gridempspacing="5"
     gridoriginy="0.0000000pt"
     gridoriginx="0.0000000pt"
     inkscape:grid-bbox="false"
     inkscape:grid-points="true"
     inkscape:current-layer="svg611" />
  <defs
     id="defs613">
    <linearGradient
       id="linearGradient1535">
      <stop
         style="stop-color:#ffffff;stop-opacity:1;"
         offset="0"
         id="stop1537" />
      <stop
         style="stop-color:#ffffff;stop-opacity:0;"
         offset="1"
         id="stop1536" />
    </linearGradient>
    <linearGradient
       id="linearGradient1528">
      <stop
         style="stop-color:#d9cce6;stop-opacity:1;"
         offset="0.00000000"
         id="stop1530" />
      <stop
         style="stop-color:#73667f;stop-opacity:1;"
         offset="1.00000000"
         id="stop1529" />
    </linearGradient>
    <linearGradient
       id="linearGradient642">
      <stop
         style="stop-color:#ffffff;stop-opacity:1;"
         offset="0"
         id="stop643" />
      <stop
         style="stop-color:#ffffff;stop-opacity:0;"
         offset="1"
         id="stop644" />
    </linearGradient>
    <linearGradient
       id="linearGradient635">
      <stop
         style="stop-color:#ffffff;stop-opacity:1;"
         offset="0.00000000"
         id="stop636" />
      <stop
         style="stop-color:#d9cce6;stop-opacity:1;"
         offset="1.00000000"
         id="stop637" />
    </linearGradient>
    <linearGradient
       x1="0.00833333"
       y1="0.00000000"
       x2="0.94166666"
       y2="0.95312500"
       id="linearGradient638"
       xlink:href="#linearGradient1528" />
    <linearGradient
       x1="0.027523"
       y1="0.023438"
       x2="1.000000"
       y2="1.015625"
       id="linearGradient641"
       xlink:href="#linearGradient642" />
    <linearGradient
       x1="-0.000009"
       y1="0.015624"
       x2="0.727272"
       y2="0.984375"
       id="linearGradient1522"
       xlink:href="#linearGradient642" />
    <linearGradient
       x1="0.027523"
       y1="0.007813"
       x2="1.009174"
       y2="0.992188"
       id="linearGradient1527"
       xlink:href="#linearGradient1535" />
    <linearGradient
       x1="0.010743"
       y1="0.031251"
       x2="0.967741"
       y2="0.992187"
       id="linearGradient1532"
       xlink:href="#linearGradient635" />
    <linearGradient
       x1="0.007275"
       y1="-0.012819"
       x2="0.996364"
       y2="0.974359"
       id="linearGradient1534"
       xlink:href="#linearGradient635" />
    <linearGradient
       x1="0.017094"
       y1="0.000000"
       x2="0.974359"
       y2="0.984375"
       id="linearGradient1539"
       xlink:href="#linearGradient1535" />
    <linearGradient
       id="linearGradient1567"
       xlink:href="#linearGradient1535" />
    <linearGradient
       xlink:href="#linearGradient584"
       id="linearGradient1245"
       x1="18.042764"
       y1="17.274921"
       x2="24.542165"
       y2="23.875875"
       gradientTransform="scale(1.002496,0.997510)"
       gradientUnits="userSpaceOnUse" />
    <linearGradient
       xlink:href="#linearGradient584"
       id="linearGradient713"
       x1="15.824415"
       y1="8.1526922"
       x2="28.914284"
       y2="21.758754"
       gradientTransform="scale(0.712102,1.404293)"
       gradientUnits="userSpaceOnUse" />
    <linearGradient
       xlink:href="#linearGradient584"
       id="linearGradient655"
       x1="26.002853"
       y1="56.987411"
       x2="28.661095"
       y2="59.568852"
       gradientTransform="scale(1.452020,0.688696)"
       gradientUnits="userSpaceOnUse" />
    <linearGradient
       xlink:href="#linearGradient584"
       id="linearGradient654"
       x1="36.644284"
       y1="21.477933"
       x2="52.872085"
       y2="38.190386"
       gradientTransform="scale(0.791797,1.262949)"
       gradientUnits="userSpaceOnUse" />
    <linearGradient
       xlink:href="#linearGradient584"
       id="linearGradient583"
       x1="6.5600808"
       y1="8.0187415"
       x2="49.514063"
       y2="50.276710"
       gradientTransform="scale(1.023983,0.976578)"
       gradientUnits="userSpaceOnUse" />
    <linearGradient
       xlink:href="#linearGradient578"
       id="linearGradient581"
       x1="3.3262202"
       y1="4.3624692"
       x2="55.837559"
       y2="56.463563"
       gradientTransform="scale(1.013076,0.987093)"
       gradientUnits="userSpaceOnUse" />
    <linearGradient
       id="linearGradient578">
      <stop
         style="stop-color:#ffffff;stop-opacity:1;"
         offset="0.00000000"
         id="stop579" />
      <stop
         style="stop-color:#d9cce6;stop-opacity:1;"
         offset="1.00000000"
         id="stop580" />
    </linearGradient>
    <linearGradient
       id="linearGradient584">
      <stop
         style="stop-color:#ffffff;stop-opacity:1;"
         offset="0.00000000"
         id="stop585" />
      <stop
         style="stop-color:#ffffff;stop-opacity:0;"
         offset="1.00000000"
         id="stop586" />
    </linearGradient>
    <linearGradient
       inkscape:collect="always"
       xlink:href="#linearGradient1528"
       id="linearGradient1128"
       x1="6.2175967"
       y1="3.8180369"
       x2="53.684010"
       y2="52.290992"
       gradientTransform="scale(0.965084,1.036180)"
       gradientUnits="userSpaceOnUse" />
    <linearGradient
       inkscape:collect="always"
       xlink:href="#linearGradient642"
       id="linearGradient1129"
       x1="12.919350"
       y1="6.9662588"
       x2="55.101160"
       y2="50.003002"
       gradientTransform="scale(0.919180,1.087926)"
       gradientUnits="userSpaceOnUse" />
    <linearGradient
       inkscape:collect="always"
       xlink:href="#linearGradient642"
       id="linearGradient1130"
       x1="27.901974"
       y1="2.0148730"
       x2="37.413106"
       y2="14.683867"
       gradientTransform="scale(0.281053,3.558044)"
       gradientUnits="userSpaceOnUse" />
    <linearGradient
       inkscape:collect="always"
       xlink:href="#linearGradient1535"
       id="linearGradient1131"
       x1="18.046341"
       y1="11.283921"
       x2="49.792368"
       y2="43.118041"
       gradientTransform="scale(0.922573,1.083925)"
       gradientUnits="userSpaceOnUse" />
    <linearGradient
       inkscape:collect="always"
       xlink:href="#linearGradient635"
       id="linearGradient1132"
       x1="22.116129"
       y1="13.728830"
       x2="29.908534"
       y2="21.553301"
       gradientTransform="scale(0.850848,1.175298)"
       gradientUnits="userSpaceOnUse" />
    <linearGradient
       inkscape:collect="always"
       xlink:href="#linearGradient635"
       id="linearGradient1133"
       x1="14.195411"
       y1="42.035515"
       x2="17.751057"
       y2="45.584292"
       gradientTransform="scale(1.884374,0.530680)"
       gradientUnits="userSpaceOnUse" />
    <linearGradient
       inkscape:collect="always"
       xlink:href="#linearGradient578"
       id="linearGradient1134"
       gradientUnits="userSpaceOnUse"
       gradientTransform="scale(1.013076,0.987093)"
       x1="3.3262215"
       y1="5.3723006"
       x2="55.513435"
       y2="56.537174" />
    <linearGradient
       inkscape:collect="always"
       xlink:href="#linearGradient584"
       id="linearGradient1135"
       gradientUnits="userSpaceOnUse"
       gradientTransform="scale(1.023983,0.976578)"
       x1="6.5600808"
       y1="8.0187415"
       x2="49.514063"
       y2="50.276710" />
    <linearGradient
       inkscape:collect="always"
       xlink:href="#linearGradient584"
       id="linearGradient1136"
       gradientUnits="userSpaceOnUse"
       gradientTransform="scale(0.791797,1.262949)"
       x1="36.644284"
       y1="21.477933"
       x2="52.872085"
       y2="38.190386" />
    <linearGradient
       inkscape:collect="always"
       xlink:href="#linearGradient584"
       id="linearGradient1137"
       gradientUnits="userSpaceOnUse"
       gradientTransform="scale(1.452020,0.688696)"
       x1="26.002853"
       y1="56.987411"
       x2="28.661095"
       y2="59.568852" />
    <linearGradient
       inkscape:collect="always"
       xlink:href="#linearGradient584"
       id="linearGradient1138"
       gradientUnits="userSpaceOnUse"
       gradientTransform="scale(0.712102,1.404293)"
       x1="15.824415"
       y1="8.1526922"
       x2="28.914284"
       y2="21.758754" />
    <linearGradient
       inkscape:collect="always"
       xlink:href="#linearGradient584"
       id="linearGradient1139"
       gradientUnits="userSpaceOnUse"
       gradientTransform="scale(1.002496,0.997510)"
       x1="18.042764"
       y1="17.274921"
       x2="24.542165"
       y2="23.875875" />
  </defs>
  <path
     d="M 11.323296,57.160451 C 11.951521,57.577304 14.621051,58.712840 15.942291,58.429631 C 17.047672,58.072110 55.203686,45.611520 56.142616,44.148515 C 57.124721,42.551005 55.856932,11.468189 54.696814,10.413698 C 53.445181,9.2650180 12.788123,5.1677725 11.537980,5.1310154 C 10.405014,4.9884573 7.6400123,5.9645902 7.1064044,6.5581759 C 6.0443342,7.7273842 10.152592,56.301396 11.323296,57.160451 z "
     style="font-size:12.000000;opacity:0.29999998;fill-rule:evenodd;stroke-width:12.500000;"
     id="path839"
     transform="matrix(1.070600,0.000000,0.000000,1.070600,-5.111127,-4.235739)" />
  <path
     d="M 10.710824,54.464037 C 11.309499,54.860979 13.851862,55.942451 15.110416,55.672891 C 16.163471,55.332261 52.506055,43.463828 53.400251,42.070343 C 54.335686,40.548752 53.128257,10.943036 52.023269,9.9385553 C 50.831206,8.8445630 12.106038,4.9420868 10.915404,4.9070460 C 9.8362807,4.7712615 7.2027255,5.7009364 6.6944162,6.2663239 C 5.6828474,7.3800001 9.5957511,53.645804 10.710824,54.464037 z "
     style="font-size:12.000000;fill:url(#linearGradient1128);fill-rule:evenodd;stroke:#261933;stroke-width:1.8750000;"
     id="path834"
     transform="matrix(1.070600,0.000000,0.000000,1.070600,-5.111127,-4.235739)" />
  <path
     d="M 14.383126,53.660677 C 14.070498,53.348051 10.313979,7.7669659 10.825691,6.4958449 C 11.139641,6.1159772 50.332629,10.543036 50.646074,10.856477 C 50.944548,11.155154 14.326404,6.3756002 12.776710,8.6762330 C 11.094427,11.058617 14.682413,53.959959 14.383126,53.660677 z "
     style="font-size:12.000000;opacity:0.69999999;fill:url(#linearGradient1129);fill-rule:evenodd;stroke:none;stroke-width:0.10518800pt;"
     id="path835"
     transform="matrix(1.070600,0.000000,0.000000,1.070600,-5.111127,-4.235739)" />
  <path
     d="M 11.514286,52.972175 C 11.398196,52.797942 8.0068500,21.776137 7.8420129,7.1843481 C 7.8321255,6.6661201 9.7765052,6.2993477 9.9075644,6.4958449 C 10.006036,6.6436043 8.5226851,7.8148987 8.5305678,8.2171495 C 8.7014020,22.810149 11.627626,53.142245 11.514286,52.972175 z "
     style="font-size:12.000000;opacity:0.69993597;fill:url(#linearGradient1130);fill-rule:evenodd;stroke:none;stroke-width:0.10518800pt;"
     id="path836"
     transform="matrix(1.070600,0.000000,0.000000,1.070600,-5.111127,-4.235739)" />
  <path
     d="M 15.177322,10.961774 C 14.558788,11.749148 16.374674,48.355066 17.316630,49.041019 C 18.289339,49.671571 48.857076,39.875433 49.619702,38.879506 C 50.338948,38.047123 49.355237,14.699760 48.871027,13.849962 C 48.247804,12.943851 15.852983,10.208820 15.177322,10.961774 z "
     style="font-size:12.000000;fill:#261933;fill-rule:evenodd;stroke:#261933;stroke-width:0.61334801;"
     id="path837"
     transform="matrix(1.070600,0.000000,0.000000,1.070600,-5.111127,-4.235739)" />
  <path
     d="M 17.744431,47.008737 C 17.506854,46.716067 15.346975,12.931632 15.926202,12.138455 C 16.692801,11.234891 45.424386,13.985400 45.661957,14.277763 C 45.888033,14.555666 19.622945,11.623281 17.316630,13.849860 C 15.744634,15.369718 17.970295,47.286535 17.744431,47.008737 z "
     style="font-size:12.000000;opacity:0.69993597;fill:url(#linearGradient1131);fill-rule:evenodd;stroke:none;stroke-width:0.098044699pt;"
     id="path838"
     transform="matrix(1.070600,0.000000,0.000000,1.070600,-5.111127,-4.235739)" />
  <path
     d="M 19.020093,15.836725 C 18.618158,16.056480 18.662862,17.570534 19.093719,18.107704 C 20.016326,19.258824 22.957468,19.782959 23.075391,20.739477 C 23.177122,21.561982 20.495960,22.423082 19.753189,23.444672 C 19.407670,23.919722 19.410623,25.582148 19.816122,25.391110 C 21.383333,24.652411 25.704720,21.704548 25.670911,20.655464 C 25.649323,19.986931 19.400643,15.793853 19.020093,15.836725 z "
     style="font-size:12.000000;fill:url(#linearGradient1132);fill-rule:evenodd;stroke-width:1.0000000pt;"
     id="path840"
     transform="matrix(1.070600,0.000000,0.000000,1.070600,-5.111127,-4.235739)" />
  <path
     d="M 26.891584,22.791106 C 26.526411,22.896606 26.728753,24.119113 27.121115,24.168196 C 28.870810,24.386831 31.643725,24.077258 33.318165,23.594367 C 33.632828,23.503429 33.428450,22.489375 33.088532,22.446912 C 31.286291,22.221555 28.515515,22.322676 26.891584,22.791106 z "
     style="font-size:12.000000;fill:url(#linearGradient1133);fill-rule:evenodd;stroke-width:1.0000000pt;"
     id="path841"
     transform="matrix(1.070600,0.000000,0.000000,1.070600,-5.111127,-4.235739)" />
  <path
     style="opacity:0.29636899;fill:#000000;fill-opacity:1.0000000;fill-rule:evenodd;stroke:none;stroke-width:1.8750000;stroke-linecap:butt;stroke-linejoin:miter;stroke-opacity:1.0000000;"
     d="M 7.1868452,7.9441926 C 9.4287800,6.0057716 56.506175,6.0085340 58.453988,7.9441926 C 60.421504,9.7244595 59.741231,55.956242 57.929069,57.811551 C 56.402537,59.378594 9.0868708,59.833611 7.1868452,57.986524 C 5.1450720,55.826666 4.7553959,10.070304 7.1868452,7.9441926 z "
     id="path712"
     sodipodi:nodetypes="cssss"
     transform="matrix(0.535300,0.000000,0.000000,0.535300,27.19733,28.31579)" />
  <path
     style="font-size:12.000000;fill:url(#linearGradient1134);fill-opacity:1.0000000;fill-rule:evenodd;stroke:#261933;stroke-width:3.7500000;stroke-miterlimit:4.0000000;"
     d="M 5.9004566,6.6209014 C 8.0258180,4.7832713 52.655346,4.7858901 54.501879,6.6209013 C 56.367090,8.3085990 55.722189,52.136483 54.004254,53.895323 C 52.557096,55.380884 7.7016870,55.812241 5.9004566,54.061197 C 3.9648487,52.013644 3.5954344,8.6364611 5.9004566,6.6209014 z "
     id="path684"
     sodipodi:nodetypes="cssss"
     transform="matrix(0.535300,0.000000,0.000000,0.535300,27.19733,28.31579)" />
  <path
     style="fill:#261933;fill-opacity:1.0000000;fill-rule:evenodd;stroke:none;stroke-width:1.0000000pt;stroke-linecap:butt;stroke-linejoin:miter;stroke-opacity:1.0000000;"
     d="M 10.102039,34.557887 C 9.3901642,33.647760 16.804553,11.036712 20.284907,10.797865 C 23.593132,10.570828 31.162819,31.637074 30.131105,34.843574 C 29.782144,36.451299 26.286767,26.666610 23.479530,24.974012 C 21.761047,23.937869 17.212720,25.654842 16.890617,24.300678 C 16.602803,22.922350 22.252937,23.256095 22.880539,21.779389 C 23.384367,20.593908 21.186125,16.086233 20.284907,16.987451 C 16.926623,20.345731 11.112039,35.465621 10.102039,34.557887 z "
     id="path663"
     sodipodi:nodetypes="csssssss"
     transform="matrix(0.535300,0.000000,0.000000,0.535300,27.19733,28.31579)" />
  <path
     style="fill:url(#linearGradient1135);fill-opacity:1.0000000;fill-rule:evenodd;stroke:none;stroke-width:1.0000000pt;stroke-linecap:butt;stroke-linejoin:miter;stroke-opacity:1.0000000;"
     d="M 7.3933331,50.080193 C 6.6679984,49.354858 6.2074668,11.534699 7.7250834,8.9431540 C 9.0470550,6.8515750 50.294511,8.2191651 51.018500,8.9431540 C 51.676804,9.6014583 15.538383,9.7065422 11.871962,13.090032 C 7.7474953,16.730348 8.0502912,50.737151 7.3933331,50.080193 z "
     id="path691"
     sodipodi:nodetypes="cssss"
     transform="matrix(0.535300,0.000000,0.000000,0.535300,27.19733,28.31579)" />
  <path
     style="fill:#261933;fill-opacity:1.0000000;fill-rule:evenodd;stroke:none;stroke-width:1.0000000pt;stroke-linecap:butt;stroke-linejoin:miter;stroke-opacity:1.0000000;"
     d="M 35.441094,26.276227 L 27.944998,49.722330 L 35.333027,49.832271 L 36.870220,43.323770 L 40.853474,43.323770 L 41.621646,49.612390 L 49.559379,49.832271 L 43.049004,26.276227 L 35.441094,26.276227 z M 39.422828,31.318225 L 40.523086,40.025261 L 37.530713,40.025261 L 39.422828,31.318225 z "
     id="path690"
     sodipodi:nodetypes="ccccccccccccc"
     transform="matrix(0.535300,0.000000,0.000000,0.535300,27.19733,28.31579)" />
  <path
     style="fill:url(#linearGradient1136);fill-opacity:1.0000000;fill-rule:evenodd;stroke:none;stroke-width:1.0000000pt;stroke-linecap:butt;stroke-linejoin:miter;stroke-opacity:1.0000000;"
     d="M 29.014846,48.398724 L 36.179388,27.125544 L 42.351917,27.125544 C 40.404632,27.786888 37.572621,27.402956 36.950955,28.448229 C 34.297668,32.984584 31.843922,41.748559 29.014846,48.398724 z "
     id="path692"
     sodipodi:nodetypes="cccsc"
     transform="matrix(0.535300,0.000000,0.000000,0.535300,27.19733,28.31579)" />
  <path
     style="fill:url(#linearGradient1137);fill-opacity:1.0000000;fill-rule:evenodd;stroke:none;stroke-width:1.0000000pt;stroke-linecap:butt;stroke-linejoin:miter;stroke-opacity:1.0000000;"
     d="M 37.759510,40.683063 C 37.659689,40.599880 40.210509,40.808737 40.955998,40.462616 C 41.239262,40.331100 40.760366,39.178981 40.845773,39.250154 C 40.980814,39.362688 41.958956,40.855127 41.617340,41.013734 C 40.930201,41.332764 37.880137,40.783586 37.759510,40.683063 z "
     id="path693"
     sodipodi:nodetypes="cssss"
     transform="matrix(0.535300,0.000000,0.000000,0.535300,27.19733,28.31579)" />
  <path
     style="fill:url(#linearGradient1138);fill-opacity:1.0000000;fill-rule:evenodd;stroke:none;stroke-width:1.0000000pt;stroke-linecap:butt;stroke-linejoin:miter;stroke-opacity:1.0000000;"
     d="M 11.278942,30.706081 C 11.021128,30.680300 15.632900,16.972108 19.424844,11.672867 C 19.709008,11.261379 21.313049,11.478057 20.991364,11.829519 C 15.722120,17.500924 11.543301,30.732517 11.278942,30.706081 z "
     id="path1243"
     sodipodi:nodetypes="csss"
     transform="matrix(0.535300,0.000000,0.000000,0.535300,27.19733,28.31579)" />
  <path
     style="fill:url(#linearGradient1139);fill-opacity:1.0000000;fill-rule:evenodd;stroke:none;stroke-width:1.0000000pt;stroke-linecap:butt;stroke-linejoin:miter;stroke-opacity:1.0000000;"
     d="M 18.093303,23.813395 C 17.902494,23.706065 22.733596,23.242491 23.419470,22.090223 C 24.039029,21.049364 21.821376,17.128135 22.009602,17.234012 C 22.239114,17.363113 25.300369,21.740648 24.672685,22.795157 C 23.994936,23.933776 18.320233,23.941043 18.093303,23.813395 z "
     id="path1244"
     sodipodi:nodetypes="cssss"
     transform="matrix(0.535300,0.000000,0.000000,0.535300,27.19733,28.31579)" />
</svg>
