<?xml version="1.0" encoding="UTF-8" standalone="no"?>
<!DOCTYPE svg PUBLIC "-//W3C//DTD SVG 20010904//EN"
"http://www.w3.org/TR/2001/REC-SVG-20010904/DTD/svg10.dtd">
<!-- Created with Inkscape (http://www.inkscape.org/) -->
<svg
   version="1.0"
   x="0"
   y="0"
   width="48pt"
   height="48pt"
   id="svg611"
   sodipodi:version="0.32"
   inkscape:version="0.40"
   sodipodi:docname="terminal-newtab.svg"
   sodipodi:docbase="/home/scaba"
   xmlns="http://www.w3.org/2000/svg"
   xmlns:cc="http://web.resource.org/cc/"
   xmlns:inkscape="http://www.inkscape.org/namespaces/inkscape"
   xmlns:sodipodi="http://sodipodi.sourceforge.net/DTD/sodipodi-0.dtd"
   xmlns:rdf="http://www.w3.org/1999/02/22-rdf-syntax-ns#"
   xmlns:dc="http://purl.org/dc/elements/1.1/"
   xmlns:xlink="http://www.w3.org/1999/xlink">
  <metadata
     id="metadata1146">
    <rdf:RDF
       id="RDF1147">
      <cc:Work
         rdf:about=""
         id="Work1148">
        <dc:format
           id="format1149">image/svg+xml</dc:format>
        <dc:type
           id="type1151"
           rdf:resource="http://purl.org/dc/dcmitype/StillImage" />
      </cc:Work>
    </rdf:RDF>
  </metadata>
  <sodipodi:namedview
     id="base"
     pagecolor="#ffffff"
     bordercolor="#666666"
     borderopacity="1.0"
     inkscape:pageopacity="0.0"
     inkscape:pageshadow="2"
     inkscape:zoom="7.7339804"
     inkscape:cx="23.999999"
     inkscape:cy="24.000001"
     inkscape:window-width="850"
     inkscape:window-height="625"
     inkscape:window-x="63"
     inkscape:window-y="43"
     showgrid="false"
     gridspacingx="1.0000000pt"
     gridspacingy="1.0000000pt"
     gridtolerance="1.0000000px"
     gridempspacing="5"
     gridoriginy="0.0000000pt"
     gridoriginx="0.0000000pt"
     inkscape:grid-bbox="false"
     inkscape:grid-points="true"
     inkscape:current-layer="svg611" />
  <defs
     id="defs613">
    <linearGradient
       id="linearGradient1535">
      <stop
         style="stop-color:#ffffff;stop-opacity:1;"
         offset="0"
         id="stop1537" />
      <stop
         style="stop-color:#ffffff;stop-opacity:0;"
         offset="1"
         id="stop1536" />
    </linearGradient>
    <linearGradient
       id="linearGradient1528">
      <stop
         style="stop-color:#d9cce6;stop-opacity:1;"
         offset="0.00000000"
         id="stop1530" />
      <stop
         style="stop-color:#73667f;stop-opacity:1;"
         offset="1.00000000"
         id="stop1529" />
    </linearGradient>
    <linearGradient
       id="linearGradient642">
      <stop
         style="stop-color:#ffffff;stop-opacity:1;"
         offset="0"
         id="stop643" />
      <stop
         style="stop-color:#ffffff;stop-opacity:0;"
         offset="1"
         id="stop644" />
    </linearGradient>
    <linearGradient
       id="linearGradient635">
      <stop
         style="stop-color:#ffffff;stop-opacity:1;"
         offset="0.00000000"
         id="stop636" />
      <stop
         style="stop-color:#d9cce6;stop-opacity:1;"
         offset="1.00000000"
         id="stop637" />
    </linearGradient>
    <linearGradient
       x1="0.00833333"
       y1="0.00000000"
       x2="0.94166666"
       y2="0.95312500"
       id="linearGradient638"
       xlink:href="#linearGradient1528" />
    <linearGradient
       x1="0.027523"
       y1="0.023438"
       x2="1.000000"
       y2="1.015625"
       id="linearGradient641"
       xlink:href="#linearGradient642" />
    <linearGradient
       x1="-0.000009"
       y1="0.015624"
       x2="0.727272"
       y2="0.984375"
       id="linearGradient1522"
       xlink:href="#linearGradient642" />
    <linearGradient
       x1="0.027523"
       y1="0.007813"
       x2="1.009174"
       y2="0.992188"
       id="linearGradient1527"
       xlink:href="#linearGradient1535" />
    <linearGradient
       x1="0.010743"
       y1="0.031251"
       x2="0.967741"
       y2="0.992187"
       id="linearGradient1532"
       xlink:href="#linearGradient635" />
    <linearGradient
       x1="0.007275"
       y1="-0.012819"
       x2="0.996364"
       y2="0.974359"
       id="linearGradient1534"
       xlink:href="#linearGradient635" />
    <linearGradient
       x1="0.017094"
       y1="0.000000"
       x2="0.974359"
       y2="0.984375"
       id="linearGradient1539"
       xlink:href="#linearGradient1535" />
    <linearGradient
       id="linearGradient1567"
       xlink:href="#linearGradient1535" />
    <linearGradient
       xlink:href="#linearGradient584"
       id="linearGradient713" />
    <linearGradient
       xlink:href="#linearGradient584"
       id="linearGradient655"
       x1="-0.00000000"
       y1="-0.00000000"
       x2="0.98148149"
       y2="0.95312500" />
    <linearGradient
       xlink:href="#linearGradient584"
       id="linearGradient654"
       x1="-0.00000000"
       y1="-0.00000000"
       x2="0.96341461"
       y2="0.99218750" />
    <linearGradient
       xlink:href="#linearGradient584"
       id="linearGradient583"
       x1="-0.00000000"
       y1="0.00000000"
       x2="0.99264705"
       y2="0.97656250" />
    <linearGradient
       xlink:href="#linearGradient578"
       id="linearGradient581"
       x1="4.8158233"
       y1="6.4374010"
       x2="51.772936"
       y2="54.472321"
       gradientTransform="scale(1.021150,0.979288)"
       gradientUnits="userSpaceOnUse" />
    <linearGradient
       id="linearGradient578">
      <stop
         style="stop-color:#faf8fd;stop-opacity:1;"
         offset="0.00000000"
         id="stop579" />
      <stop
         style="stop-color:#d9cce6;stop-opacity:1;"
         offset="1.00000000"
         id="stop580" />
    </linearGradient>
    <linearGradient
       id="linearGradient584">
      <stop
         style="stop-color:#ffffff;stop-opacity:1;"
         offset="0.00000000"
         id="stop585" />
      <stop
         style="stop-color:#ffffff;stop-opacity:0;"
         offset="1.00000000"
         id="stop586" />
    </linearGradient>
    <linearGradient
       inkscape:collect="always"
       xlink:href="#linearGradient578"
       id="linearGradient3166"
       x1="17.201659"
       y1="11.128061"
       x2="36.248893"
       y2="30.612487"
       gradientTransform="scale(1.283523,0.779106)"
       gradientUnits="userSpaceOnUse" />
    <linearGradient
       inkscape:collect="always"
       xlink:href="#linearGradient578"
       id="linearGradient3173"
       gradientTransform="scale(1.021150,0.979288)"
       x1="4.8158226"
       y1="6.7477431"
       x2="52.343353"
       y2="54.229877"
       gradientUnits="userSpaceOnUse" />
    <linearGradient
       inkscape:collect="always"
       xlink:href="#linearGradient578"
       id="linearGradient3177"
       gradientTransform="scale(1.283523,0.779106)"
       x1="17.201664"
       y1="11.379825"
       x2="36.611172"
       y2="30.640013"
       gradientUnits="userSpaceOnUse" />
    <linearGradient
       inkscape:collect="always"
       xlink:href="#linearGradient1528"
       id="linearGradient1117"
       x1="6.2175967"
       y1="3.8180369"
       x2="53.684010"
       y2="52.290992"
       gradientTransform="scale(0.965084,1.036180)"
       gradientUnits="userSpaceOnUse" />
    <linearGradient
       inkscape:collect="always"
       xlink:href="#linearGradient642"
       id="linearGradient1118"
       x1="12.919350"
       y1="6.9662588"
       x2="55.101160"
       y2="50.003002"
       gradientTransform="scale(0.919180,1.087926)"
       gradientUnits="userSpaceOnUse" />
    <linearGradient
       inkscape:collect="always"
       xlink:href="#linearGradient642"
       id="linearGradient1119"
       x1="27.901974"
       y1="2.0148730"
       x2="37.413106"
       y2="14.683867"
       gradientTransform="scale(0.281053,3.558044)"
       gradientUnits="userSpaceOnUse" />
    <linearGradient
       inkscape:collect="always"
       xlink:href="#linearGradient1535"
       id="linearGradient1120"
       x1="18.046341"
       y1="11.283921"
       x2="49.792368"
       y2="43.118041"
       gradientTransform="scale(0.922573,1.083925)"
       gradientUnits="userSpaceOnUse" />
    <linearGradient
       inkscape:collect="always"
       xlink:href="#linearGradient635"
       id="linearGradient1121"
       x1="22.116129"
       y1="13.728830"
       x2="29.908534"
       y2="21.553301"
       gradientTransform="scale(0.850848,1.175298)"
       gradientUnits="userSpaceOnUse" />
    <linearGradient
       inkscape:collect="always"
       xlink:href="#linearGradient635"
       id="linearGradient1122"
       x1="14.195411"
       y1="42.035515"
       x2="17.751057"
       y2="45.584292"
       gradientTransform="scale(1.884374,0.530680)"
       gradientUnits="userSpaceOnUse" />
    <linearGradient
       inkscape:collect="always"
       xlink:href="#linearGradient578"
       id="linearGradient1123"
       gradientUnits="userSpaceOnUse"
       gradientTransform="scale(1.283523,0.779106)"
       x1="17.201664"
       y1="11.379825"
       x2="36.611172"
       y2="30.640013" />
    <linearGradient
       inkscape:collect="always"
       xlink:href="#linearGradient578"
       id="linearGradient1124"
       gradientUnits="userSpaceOnUse"
       gradientTransform="scale(1.021150,0.979288)"
       x1="4.8158226"
       y1="6.7477431"
       x2="52.343353"
       y2="54.229877" />
  </defs>
  <path
     d="M 11.323296,57.160451 C 11.951521,57.577304 14.621051,58.712840 15.942291,58.429631 C 17.047672,58.072110 55.203686,45.611520 56.142616,44.148515 C 57.124721,42.551005 55.856932,11.468189 54.696814,10.413698 C 53.445181,9.2650180 12.788123,5.1677725 11.537980,5.1310154 C 10.405014,4.9884573 7.6400123,5.9645902 7.1064044,6.5581759 C 6.0443342,7.7273842 10.152592,56.301396 11.323296,57.160451 z "
     style="font-size:12.000000;opacity:0.29999998;fill-rule:evenodd;stroke-width:12.500000;"
     id="path839"
     transform="matrix(1.070600,0.000000,0.000000,1.070600,-5.111127,-4.235741)" />
  <path
     d="M 10.710824,54.464037 C 11.309499,54.860979 13.851862,55.942451 15.110416,55.672891 C 16.163471,55.332261 52.506055,43.463828 53.400251,42.070343 C 54.335686,40.548752 53.128257,10.943036 52.023269,9.9385553 C 50.831206,8.8445630 12.106038,4.9420868 10.915404,4.9070460 C 9.8362807,4.7712615 7.2027255,5.7009364 6.6944162,6.2663239 C 5.6828474,7.3800001 9.5957511,53.645804 10.710824,54.464037 z "
     style="font-size:12.000000;fill:url(#linearGradient1117);fill-rule:evenodd;stroke:#261933;stroke-width:1.8750000;"
     id="path834"
     transform="matrix(1.070600,0.000000,0.000000,1.070600,-5.111127,-4.235741)" />
  <path
     d="M 14.383126,53.660677 C 14.070498,53.348051 10.313979,7.7669659 10.825691,6.4958449 C 11.139641,6.1159772 50.332629,10.543036 50.646074,10.856477 C 50.944548,11.155154 14.326404,6.3756002 12.776710,8.6762330 C 11.094427,11.058617 14.682413,53.959959 14.383126,53.660677 z "
     style="font-size:12.000000;opacity:0.69999999;fill:url(#linearGradient1118);fill-rule:evenodd;stroke:none;stroke-width:0.10518800pt;"
     id="path835"
     transform="matrix(1.070600,0.000000,0.000000,1.070600,-5.111127,-4.235741)" />
  <path
     d="M 11.514286,52.972175 C 11.398196,52.797942 8.0068500,21.776137 7.8420129,7.1843481 C 7.8321255,6.6661201 9.7765052,6.2993477 9.9075644,6.4958449 C 10.006036,6.6436043 8.5226851,7.8148987 8.5305678,8.2171495 C 8.7014020,22.810149 11.627626,53.142245 11.514286,52.972175 z "
     style="font-size:12.000000;opacity:0.69993597;fill:url(#linearGradient1119);fill-rule:evenodd;stroke:none;stroke-width:0.10518800pt;"
     id="path836"
     transform="matrix(1.070600,0.000000,0.000000,1.070600,-5.111127,-4.235741)" />
  <path
     d="M 15.177322,10.961774 C 14.558788,11.749148 16.374674,48.355066 17.316630,49.041019 C 18.289339,49.671571 48.857076,39.875433 49.619702,38.879506 C 50.338948,38.047123 49.355237,14.699760 48.871027,13.849962 C 48.247804,12.943851 15.852983,10.208820 15.177322,10.961774 z "
     style="font-size:12.000000;fill:#261933;fill-rule:evenodd;stroke:#261933;stroke-width:0.61334801;"
     id="path837"
     transform="matrix(1.070600,0.000000,0.000000,1.070600,-5.111127,-4.235741)" />
  <path
     d="M 17.744431,47.008737 C 17.506854,46.716067 15.346975,12.931632 15.926202,12.138455 C 16.692801,11.234891 45.424386,13.985400 45.661957,14.277763 C 45.888033,14.555666 19.622945,11.623281 17.316630,13.849860 C 15.744634,15.369718 17.970295,47.286535 17.744431,47.008737 z "
     style="font-size:12.000000;opacity:0.69993597;fill:url(#linearGradient1120);fill-rule:evenodd;stroke:none;stroke-width:0.098044699pt;"
     id="path838"
     transform="matrix(1.070600,0.000000,0.000000,1.070600,-5.111127,-4.235741)" />
  <path
     d="M 19.020093,15.836725 C 18.618158,16.056480 18.662862,17.570534 19.093719,18.107704 C 20.016326,19.258824 22.957468,19.782959 23.075391,20.739477 C 23.177122,21.561982 20.495960,22.423082 19.753189,23.444672 C 19.407670,23.919722 19.410623,25.582148 19.816122,25.391110 C 21.383333,24.652411 25.704720,21.704548 25.670911,20.655464 C 25.649323,19.986931 19.400643,15.793853 19.020093,15.836725 z "
     style="font-size:12.000000;fill:url(#linearGradient1121);fill-rule:evenodd;stroke-width:1.0000000pt;"
     id="path840"
     transform="matrix(1.070600,0.000000,0.000000,1.070600,-5.111127,-4.235741)" />
  <path
     d="M 26.891584,22.791106 C 26.526411,22.896606 26.728753,24.119113 27.121115,24.168196 C 28.870810,24.386831 31.643725,24.077258 33.318165,23.594367 C 33.632828,23.503429 33.428450,22.489375 33.088532,22.446912 C 31.286291,22.221555 28.515515,22.322676 26.891584,22.791106 z "
     style="font-size:12.000000;fill:url(#linearGradient1122);fill-rule:evenodd;stroke-width:1.0000000pt;"
     id="path841"
     transform="matrix(1.070600,0.000000,0.000000,1.070600,-5.111127,-4.235741)" />
  <path
     style="font-size:12.000000;opacity:0.30499998;fill:#000000;fill-opacity:1.0000000;fill-rule:evenodd;stroke:none;stroke-width:1.8750000;stroke-opacity:1.0000000;"
     d="M 8.4872147,55.311429 C 6.6147395,53.710913 7.4240065,12.111261 8.2287077,9.8142327 C 9.0552805,7.6845553 25.975366,8.4396716 27.616717,9.5844494 C 29.271701,10.596983 30.121922,19.936562 31.982610,20.661136 C 33.708461,21.422683 53.994458,18.906240 55.564175,21.535976 C 56.947410,23.623517 57.218588,53.909960 55.793958,55.222838 C 54.200680,56.673111 10.050468,56.672451 8.4872147,55.311429 z "
     id="path615"
     sodipodi:nodetypes="cssssss"
     transform="matrix(0.535300,0.000000,0.000000,0.535300,28.75177,29.85130)" />
  <path
     style="font-size:12.000000;fill:url(#linearGradient1123);fill-opacity:1.0000000;fill-rule:evenodd;stroke:#261933;stroke-width:1.8750000;stroke-opacity:1.0000000;"
     d="M 24.931862,22.316046 C 23.126571,20.772956 22.797674,11.397222 23.131856,10.352922 C 23.610671,9.0810995 40.813443,9.7375702 41.824238,10.131383 C 42.955490,10.445485 44.461097,21.441306 46.255025,22.139883 C 47.918953,22.874106 26.439028,23.628236 24.931862,22.316046 z "
     id="path614"
     sodipodi:nodetypes="cssss"
     transform="matrix(0.535300,0.000000,0.000000,0.535300,28.75177,29.85130)" />
  <path
     style="font-size:12.000000;fill:url(#linearGradient1124);fill-opacity:1.0000000;fill-rule:evenodd;stroke:#261933;stroke-width:1.8750000;stroke-opacity:1.0000000;"
     d="M 6.8954119,51.803044 C 5.0901200,50.259954 6.0611363,10.210730 6.6461802,7.9382550 C 6.9731407,6.8249007 24.365444,7.2759012 25.338562,7.7167157 C 26.117777,8.2973080 27.753882,17.697402 29.547810,18.395979 C 31.211738,19.130202 50.769888,16.704047 52.283285,19.239430 C 53.616891,21.252072 53.878339,50.451859 52.504824,51.717632 C 50.968711,53.115870 8.4025771,53.115234 6.8954119,51.803044 z "
     id="path613"
     sodipodi:nodetypes="cssssss"
     transform="matrix(0.535300,0.000000,0.000000,0.535300,28.75177,29.85130)" />
</svg>
