<?xml version="1.0" encoding="UTF-8" standalone="no"?>
<!-- Created with Inkscape (http://www.inkscape.org/) -->
<svg
   xmlns:dc="http://purl.org/dc/elements/1.1/"
   xmlns:cc="http://web.resource.org/cc/"
   xmlns:rdf="http://www.w3.org/1999/02/22-rdf-syntax-ns#"
   xmlns:svg="http://www.w3.org/2000/svg"
   xmlns="http://www.w3.org/2000/svg"
   xmlns:xlink="http://www.w3.org/1999/xlink"
   xmlns:sodipodi="http://sodipodi.sourceforge.net/DTD/sodipodi-0.dtd"
   xmlns:inkscape="http://www.inkscape.org/namespaces/inkscape"
   version="1.0"
   x="0"
   y="0"
   width="48pt"
   height="48pt"
   id="svg1418"
   sodipodi:version="0.32"
   inkscape:version="0.44.1"
   sodipodi:docname="tomboy.svg"
   sodipodi:docbase="/home/Mess/trunk/lila/gnome/scalable/stock">
  <metadata
     id="metadata35">
    <rdf:RDF>
      <cc:Work
         rdf:about="">
        <dc:format>image/svg+xml</dc:format>
        <dc:type
           rdf:resource="http://purl.org/dc/dcmitype/StillImage" />
      </cc:Work>
    </rdf:RDF>
  </metadata>
  <sodipodi:namedview
     id="base"
     pagecolor="#ffffff"
     bordercolor="#666666"
     borderopacity="1.0"
     inkscape:pageopacity="0.0"
     inkscape:pageshadow="2"
     inkscape:zoom="4.9119411"
     inkscape:cx="17.457656"
     inkscape:cy="23.93581"
     inkscape:window-width="913"
     inkscape:window-height="668"
     inkscape:window-x="72"
     inkscape:window-y="237"
     inkscape:current-layer="svg1418" />
  <defs
     id="defs1420">
    <linearGradient
       id="linearGradient621">
      <stop
         style="stop-color:#ffffff;stop-opacity:1;"
         offset="0.00000000"
         id="stop622" />
      <stop
         style="stop-color:#d9cce6;stop-opacity:1;"
         offset="1.00000000"
         id="stop623" />
    </linearGradient>
    <linearGradient
       id="linearGradient1439">
      <stop
         style="stop-color:#ffffff;stop-opacity:1;"
         offset="0"
         id="stop1440" />
      <stop
         style="stop-color:#ffffff;stop-opacity:0;"
         offset="1"
         id="stop1441" />
    </linearGradient>
    <linearGradient
       id="linearGradient1432">
      <stop
         style="stop-color:#7f7f7f;stop-opacity:1;"
         offset="0"
         id="stop1433" />
      <stop
         style="stop-color:#e6e6e6;stop-opacity:1;"
         offset="1"
         id="stop1434" />
    </linearGradient>
    <linearGradient
       id="linearGradient1428">
      <stop
         style="stop-color:#f50000;stop-opacity:1;"
         offset="0.00000000"
         id="stop1429" />
      <stop
         style="stop-color:#a90000;stop-opacity:1;"
         offset="1.00000000"
         id="stop1430" />
    </linearGradient>
    <linearGradient
       id="linearGradient1422">
      <stop
         style="stop-color:#d7a600;stop-opacity:1;"
         offset="0.00000000"
         id="stop1423" />
      <stop
         style="stop-color:#fff300;stop-opacity:1;"
         offset="1.00000000"
         id="stop1424" />
    </linearGradient>
    <linearGradient
       x1="46.692665"
       y1="24.841257"
       x2="41.80352"
       y2="20.078848"
       id="linearGradient1425"
       xlink:href="#linearGradient621"
       gradientTransform="matrix(0.980436,0,0,1.019954,1.83227,-2.239441)"
       gradientUnits="userSpaceOnUse" />
    <linearGradient
       x1="43.707467"
       y1="4.386503"
       x2="51.636496"
       y2="12.439423"
       id="linearGradient1427"
       xlink:href="#linearGradient1428"
       gradientTransform="matrix(1.097184,0,0,0.911424,1.83227,-2.239441)"
       gradientUnits="userSpaceOnUse" />
    <linearGradient
       x1="49.752802"
       y1="15.538123"
       x2="40.870128"
       y2="7.2425753"
       id="linearGradient1435"
       xlink:href="#linearGradient1432"
       gradientTransform="matrix(1.09521,0,0,0.913067,1.83227,-2.239441)"
       gradientUnits="userSpaceOnUse" />
    <linearGradient
       x1="26.916558"
       y1="5.224684"
       x2="55.448879"
       y2="33.534111"
       id="linearGradient1438"
       xlink:href="#linearGradient1439"
       gradientTransform="matrix(0.994299,0,0,1.005734,1.83227,-2.239441)"
       gradientUnits="userSpaceOnUse" />
    <linearGradient
       id="linearGradient1443"
       xlink:href="#linearGradient1439"
       x1="5.9018727"
       y1="8.2937856"
       x2="40.884029"
       y2="44.10885"
       gradientTransform="matrix(0.999604,0,0,1.000396,-2.035855,1.221513)"
       gradientUnits="userSpaceOnUse" />
    <linearGradient
       xlink:href="#linearGradient1422"
       id="linearGradient620"
       x1="3.2442243"
       y1="5.2500916"
       x2="51.438328"
       y2="52.651875"
       gradientTransform="matrix(0.942431,0,0,1.061086,-2.035855,1.221513)"
       gradientUnits="userSpaceOnUse" />
  </defs>
  <path
     d="M 1.8872436,48.688352 C 2.6005523,50.819426 32.139323,60.401799 34.078759,58.793781 C 35.81476,57.339302 48.804432,14.046643 47.934683,12.329694 C 47.03061,10.43676 17.061491,5.7217874 15.638985,7.0165016 C 13.886762,8.6206526 1.1380863,46.243222 1.8872436,48.688352 z "
     style="font-size:12px;opacity:0.30267502;fill-rule:evenodd;stroke-width:12.5"
     id="path639" />
  <path
     d="M 1.9887872,46.924541 C 2.6561771,48.918322 30.291931,57.88337 32.106415,56.378944 C 33.730575,55.018169 45.883419,14.514562 45.069706,12.908191 C 44.223873,11.137205 16.18546,6.7260212 14.854597,7.9373253 C 13.215259,9.4381324 1.2878923,44.636935 1.9887872,46.924541 z "
     style="font-size:12px;fill:url(#linearGradient620);fill-rule:evenodd;stroke:#261933;stroke-width:1.875;stroke-dasharray:none;fill-opacity:1.0"
     id="path634" />
  <path
     d="M 3.8690349,45.056939 C 3.5806178,44.326254 15.04042,10.352848 16.111784,9.652227 C 17.450764,8.738446 39.096304,12.783583 39.384043,13.512553 C 39.647779,14.180677 22.4961,11.06088 18.680246,14.474062 C 11.361772,20.836411 4.1320935,45.723384 3.8690349,45.056939 z "
     style="font-size:12px;opacity:0.69993597;fill:url(#linearGradient1443);fill-rule:evenodd;stroke:none;stroke-width:0.100121pt"
     id="path640" />
  <path
     d="M 28.304399,36.037177 C 29.147703,36.793241 32.980373,35.917857 34.520475,34.504411 C 43.681037,26.097036 54.877681,15.487504 60.406456,6.5747956 C 61.462725,4.872003 55.967756,1.3676292 54.275536,2.6578329 C 45.692811,9.2015925 37.011335,20.527629 29.581692,30.076575 C 28.354314,31.654076 27.501443,35.317293 28.304399,36.037177 z "
     style="font-size:12px;opacity:0.3;fill:#3f3f19;fill-rule:evenodd;stroke-width:12.5"
     id="path1442" />
  <path
     d="M 26.856791,34.9302 C 27.700097,35.686265 31.532765,34.810881 33.072867,33.397434 C 42.23343,24.99006 53.430073,14.380528 58.958842,5.4678193 C 60.01512,3.7650253 54.52015,0.26065968 52.827928,1.550862 C 44.245206,8.0946155 35.563728,19.420651 28.134084,28.969598 C 26.906707,30.5471 26.053828,34.210317 26.856791,34.9302 z "
     style="font-size:12px;fill:url(#linearGradient1425);fill-rule:evenodd;stroke:#3f3f19;stroke-width:1.875;stroke-dasharray:none;fill-opacity:1.0"
     id="path1421" />
  <path
     d="M 49.613513,4.8292083 C 49.67616,5.4709836 55.086476,9.2903465 55.786941,9.2144675 C 56.021481,9.2033185 58.683377,5.2695254 58.660864,4.9995239 C 58.513135,3.4836605 55.54384,1.7267592 53.679502,1.6998671 C 52.619564,1.6844033 49.59381,4.6486797 49.613513,4.8292083 z "
     style="font-size:12px;fill:url(#linearGradient1427);fill-rule:evenodd;stroke-width:1pt"
     id="path1426" />
  <path
     d="M 46.96428,7.3949413 C 47.030667,8.0751235 52.765066,12.123274 53.507462,12.042865 C 53.756031,12.031068 55.975304,9.3067445 55.951356,9.0205605 C 55.794781,7.413858 51.612919,4.6514135 49.648112,4.7405262 C 49.244688,4.7528255 46.943419,7.2036242 46.96428,7.3949413 z "
     style="font-size:12px;fill:url(#linearGradient1435);fill-rule:evenodd;stroke:#3f3f19;stroke-width:1.125;stroke-dasharray:none"
     id="path1431" />
  <ellipse
     cx="152.36185"
     cy="565.56213"
     rx="26.788887"
     ry="26.788879"
     transform="matrix(8.379811e-2,0,0,8.379811e-2,12.3085,-11.3226)"
     style="font-size:12px;fill:#3f3f19;fill-rule:evenodd;stroke-width:1pt"
     id="path1436"
     sodipodi:cx="152.36185"
     sodipodi:cy="565.56213"
     sodipodi:rx="26.788887"
     sodipodi:ry="26.788879" />
  <path
     d="M 28.134084,31.949896 C 31.82715,25.377367 44.071077,10.38603 53.253788,2.5726537 C 54.260793,1.6153782 57.396736,3.6639731 57.426152,4.1053684 C 57.453478,4.5154768 54.407878,4.1920362 53.4241,5.1271882 C 44.643806,13.47357 31.268373,27.55385 28.134084,31.949896 z "
     style="font-size:12px;opacity:0.98999999;fill:url(#linearGradient1438);fill-rule:evenodd;stroke:none;stroke-width:0.106874pt"
     id="path1437" />
</svg>
