<?xml version="1.0" encoding="UTF-8" standalone="no"?>
<!DOCTYPE svg PUBLIC "-//W3C//DTD SVG 20010904//EN"
"http://www.w3.org/TR/2001/REC-SVG-20010904/DTD/svg10.dtd">
<!-- Created with Inkscape (http://www.inkscape.org/) -->
<svg
   id="svg1"
   sodipodi:version="0.32"
   inkscape:version="0.37"
   width="48pt"
   height="48pt"
   sodipodi:docbase="/home/d99ma/Desktop"
   sodipodi:docname="volume2-max.svg"
   xmlns="http://www.w3.org/2000/svg"
   xmlns:inkscape="http://www.inkscape.org/namespaces/inkscape"
   xmlns:sodipodi="http://sodipodi.sourceforge.net/DTD/sodipodi-0.dtd"
   xmlns:xlink="http://www.w3.org/1999/xlink">
  <defs
     id="defs3">
    <linearGradient
       id="linearGradient758">
      <stop
         style="stop-color:#d9cce6;stop-opacity:1;"
         offset="0.00000000"
         id="stop759" />
      <stop
         style="stop-color:#73667f;stop-opacity:1;"
         offset="1.00000000"
         id="stop760" />
    </linearGradient>
    <linearGradient
       id="linearGradient745">
      <stop
         style="stop-color:#d9cce6;stop-opacity:1;"
         offset="0.00000000"
         id="stop746" />
      <stop
         style="stop-color:#73667f;stop-opacity:1;"
         offset="1.00000000"
         id="stop747" />
    </linearGradient>
    <linearGradient
       id="linearGradient742">
      <stop
         offset="0.00000000"
         style="stop-color:#d9cce6;stop-opacity:1;"
         id="stop744" />
      <stop
         offset="1.00000000"
         style="stop-color:#73667f;stop-opacity:1;"
         id="stop743" />
    </linearGradient>
    <linearGradient
       id="linearGradient711">
      <stop
         offset="0.00000000"
         style="stop-color:#ffffff;stop-opacity:1;"
         id="stop713" />
      <stop
         offset="1.00000000"
         style="stop-color:#ffffff;stop-opacity:0;"
         id="stop712" />
    </linearGradient>
    <linearGradient
       id="linearGradient599">
      <stop
         style="stop-color:#ffffff;stop-opacity:1;"
         offset="0.00000000"
         id="stop600" />
      <stop
         style="stop-color:#d9cce6;stop-opacity:1;"
         offset="1.00000000"
         id="stop601" />
    </linearGradient>
    <linearGradient
       id="linearGradient584">
      <stop
         style="stop-color:#ffffff;stop-opacity:1;"
         offset="0.00000000"
         id="stop585" />
      <stop
         style="stop-color:#ffffff;stop-opacity:0;"
         offset="1.00000000"
         id="stop586" />
    </linearGradient>
    <linearGradient
       id="linearGradient578">
      <stop
         style="stop-color:#d9cce6;stop-opacity:1;"
         offset="0.00000000"
         id="stop579" />
      <stop
         style="stop-color:#73667f;stop-opacity:1;"
         offset="1.00000000"
         id="stop580" />
    </linearGradient>
    <linearGradient
       xlink:href="#linearGradient578"
       id="linearGradient581"
       x1="-0.00000000"
       y1="0.00000000"
       x2="0.97916669"
       y2="0.97656250" />
    <linearGradient
       xlink:href="#linearGradient578"
       id="linearGradient583"
       x1="0.98979592"
       y1="0.99218750"
       x2="0.03061225"
       y2="-0.00000000" />
    <linearGradient
       xlink:href="#linearGradient578"
       id="linearGradient860"
       x1="-0.00000000"
       y1="-0.00000000"
       x2="0.98076922"
       y2="1.00781250" />
    <linearGradient
       xlink:href="#linearGradient599"
       id="linearGradient861"
       x1="0.98979592"
       y1="0.99218750"
       x2="0.03061225"
       y2="0.00000000" />
    <linearGradient
       xlink:href="#linearGradient584"
       id="linearGradient862"
       x1="-0.00000000"
       y1="0.00000000"
       x2="0.97457629"
       y2="0.99218750" />
    <radialGradient
       xlink:href="#linearGradient578"
       id="radialGradient595"
       cx="0.33846155"
       cy="0.34375000"
       r="0.66501766"
       fx="0.33076921"
       fy="0.33593750" />
    <linearGradient
       xlink:href="#linearGradient584"
       id="linearGradient652"
       x1="-0.00000000"
       y1="-0.00000000"
       x2="0.99637681"
       y2="0.96052629" />
    <linearGradient
       xlink:href="#linearGradient584"
       id="linearGradient654"
       x1="0.01098901"
       y1="0.01562500"
       x2="0.97802198"
       y2="0.98437500" />
    <linearGradient
       xlink:href="#linearGradient758"
       id="linearGradient661"
       x1="0.00000000"
       y1="0.03125000"
       x2="0.96629214"
       y2="0.95312500" />
    <linearGradient
       xlink:href="#linearGradient578"
       id="linearGradient616"
       x1="0.02439024"
       y1="0.03125000"
       x2="0.96747965"
       y2="0.96875000" />
    <linearGradient
       xlink:href="#linearGradient584"
       id="linearGradient618"
       x1="0.00000000"
       y1="-0.00000000"
       x2="1.00000000"
       y2="1.00781250" />
    <linearGradient
       xlink:href="#linearGradient584"
       id="linearGradient620"
       x1="-0.00000000"
       y1="0.00000000"
       x2="1.00000000"
       y2="0.99218750" />
    <linearGradient
       xlink:href="#linearGradient584"
       id="linearGradient633"
       x1="0.00000000"
       y1="0.00000000"
       x2="1.00000000"
       y2="0.00000000" />
  </defs>
  <sodipodi:namedview
     id="base"
     pagecolor="#ffffff"
     bordercolor="#666666"
     borderopacity="1.0"
     inkscape:pageopacity="0.0"
     inkscape:pageshadow="2"
     inkscape:zoom="11.3137085"
     inkscape:cx="36.6827174"
     inkscape:cy="29.9461762"
     inkscape:window-width="1056"
     inkscape:window-height="1025"
     inkscape:window-x="542"
     inkscape:window-y="83"
     showborder="true"
     showgrid="true"
     gridspacingx="1pt"
     gridspacingy="1pt"
     snaptogrid="false" />
  <g
     id="g608"
     transform="matrix(0.853056,0.000000,0.000000,0.960284,-1.659143,0.310332)">
    <g
       id="g650"
       style="font-size:12;opacity:0.296369;"
       transform="matrix(-0.707838,0.000000,0.000000,0.859444,44.27294,3.258012)">
      <path
         style="font-size:12;fill-rule:evenodd;stroke-width:1.875;"
         d="M 40.181906 49.683924 C 43.74142 46.98763 55.413093 36.819956 56.782923 33.597578 C 58.501012 29.55596 56.258798 19.433555 53.192815 16.7167 C 50.944448 14.724357 36.640091 12.559718 32.521925 12.563247 C 28.414485 12.566766 34.838722 53.73133 40.181906 49.683924 z "
         id="path643"
         sodipodi:nodetypes="cssss" />
      <path
         style="font-size:12;fill-rule:evenodd;stroke-width:1.875;"
         d="M 46.995589 33.682468 C 46.995589 44.404983 40.468842 53.107313 32.426956 53.107313 C 24.385071 53.107313 17.858323 44.404983 17.858323 33.682468 C 17.858323 22.959954 24.385071 14.257624 32.426956 14.257624 C 40.468842 14.257624 46.995589 22.959954 46.995589 33.682468 z "
         id="path644"
         transform="matrix(1.373487,0.000000,0.000000,1.373487,-17.61598,-13.82184)" />
    </g>
    <path
       style="font-size:12;fill:url(#linearGradient860);fill-rule:evenodd;stroke:#000000;stroke-width:1.5775;"
       d="M 14.705224 46.274403 C 12.380387 43.63944 4.78187 33.74901 3.927782 30.675638 C 2.8565551 26.820909 4.5406572 17.338384 6.6367871 14.857958 C 8.1739345 13.038995 17.75814 11.374089 20.505749 11.485517 C 23.246201 11.596653 18.195038 50.229745 14.705224 46.274403 z "
       id="path637"
       sodipodi:nodetypes="cssss"
       transform="matrix(1.000000,0.000000,0.000000,0.859444,0.000000,4.376755)" />
    <path
       style="font-size:12;fill:url(#linearGradient652);fill-rule:evenodd;stroke-width:1pt;"
       d="M 7.6712562 16.411257 C 7.8471773 16.151733 15.259667 13.258374 18.01691 13.524963 C 18.738206 13.594703 18.298525 17.137511 18.106873 17.420241 C 17.965777 17.628388 17.636664 15.057348 17.018666 14.997597 C 14.158125 14.721021 7.5144291 16.642611 7.6712562 16.411257 z "
       id="path642"
       sodipodi:nodetypes="cssss"
       transform="matrix(1.000000,0.000000,0.000000,0.859444,0.000000,4.376755)" />
    <path
       style="font-size:12;fill:url(#linearGradient581);fill-rule:evenodd;stroke:#261933;stroke-width:1.5775;"
       d="M 10.551353 29.904494 C 10.551353 43.79177 16.534795 55.062602 23.907252 55.062602 C 31.279707 55.062602 37.26315 43.79177 37.26315 29.904494 C 37.26315 16.017218 31.279707 4.7463862 23.907252 4.7463862 C 16.534795 4.7463862 10.551353 16.017218 10.551353 29.904494 z "
       id="path635"
       transform="matrix(1.000000,0.000000,0.000000,0.859444,0.000000,4.376755)" />
    <path
       style="font-size:12;fill:url(#linearGradient583);fill-rule:evenodd;stroke-width:0.375;"
       d="M 15.721378 29.904494 C 15.721378 38.416051 19.388649 45.32398 23.907252 45.32398 C 28.425854 45.32398 32.093126 38.416051 32.093126 29.904494 C 32.093126 21.392937 28.425854 14.485008 23.907252 14.485008 C 19.388649 14.485008 15.721378 21.392937 15.721378 29.904494 z "
       id="path636"
       transform="matrix(1.000000,0.000000,0.000000,0.859444,0.000000,4.376755)" />
    <path
       style="font-size:12;fill:url(#linearGradient861);fill-rule:evenodd;stroke:#261933;stroke-width:0.408619;"
       d="M 21.21453 29.904494 C 21.21453 32.704347 22.420868 34.976692 23.90725 34.976692 C 25.393634 34.976692 26.599973 32.704347 26.599973 29.904494 C 26.599973 27.104638 25.393634 24.832294 23.90725 24.832294 C 22.420868 24.832294 21.21453 27.104638 21.21453 29.904494 z "
       id="path638"
       transform="matrix(1.000000,0.000000,0.000000,0.859444,0.000000,4.376755)" />
    <path
       style="font-size:12;fill:url(#linearGradient862);fill-rule:evenodd;stroke-width:1pt;"
       d="M 12.591206 35.870837 C 12.396382 35.295337 10.734648 18.282231 18.887236 9.043169 C 24.105413 3.2446628 31.08109 10.331848 31.276201 10.908194 C 31.453436 11.431735 25.323811 6.0263903 20.004275 12.34283 C 12.013802 22.046248 12.768728 36.395224 12.591206 35.870837 z "
       id="path639"
       sodipodi:nodetypes="cssss"
       transform="matrix(1.000000,0.000000,0.000000,0.859444,0.000000,4.376755)" />
    <path
       style="font-size:12;fill:url(#linearGradient862);fill-rule:evenodd;stroke-width:1pt;"
       d="M 21.725464 31.318402 C 21.686193 31.202397 21.351233 27.773034 22.994567 25.9107 C 24.046403 24.741884 25.452503 26.170461 25.491832 26.286636 C 25.527558 26.392167 24.291998 25.302602 23.21973 26.575819 C 21.609075 28.531754 21.761246 31.424103 21.725464 31.318402 z "
       id="path640"
       sodipodi:nodetypes="cssss"
       transform="matrix(1.000000,0.000000,0.000000,0.859444,0.000000,4.376755)" />
    <path
       style="font-size:12;fill:url(#linearGradient862);fill-rule:evenodd;stroke-width:1pt;"
       d="M 30.788437 26.844407 C 30.904524 27.187322 31.894681 37.324707 27.0369 42.829871 C 23.927611 46.284953 19.771103 42.062002 19.654844 41.718581 C 19.549238 41.406625 23.20162 44.62744 26.371305 40.863744 C 31.132488 35.08189 30.682659 26.531946 30.788437 26.844407 z "
       id="path641"
       sodipodi:nodetypes="cssss"
       transform="matrix(1.000000,0.000000,0.000000,0.859444,0.000000,4.376755)" />
  </g>
  <path
     style="fill:black;fill-rule:nonzero;stroke:none;fill-opacity:0.75;stroke-opacity:1;stroke-width:1pt;stroke-linejoin:miter;stroke-linecap:butt;"
     id="path683"
     d="M -9.7854876 -2.0239531 C -9.7871958 -2.0241548 -9.7889041 -2.0243565 -9.7906123 -2.0245582 L -9.7906123 -3.3664568 C -9.7889041 -3.3666585 -9.7871958 -3.3668602 -9.7854876 -3.3670619 L -9.7854876 -2.0239531 z " />
  <g
     id="g1633"
     transform="matrix(0.734790,0.000000,0.000000,0.734790,4.396499,8.702772)">
    <path
       style="font-size:12;fill:#000000;fill-opacity:0.300813;fill-rule:evenodd;stroke:none;stroke-width:1.25;"
       d="M 45.99185 10.086833 C 46.676683 8.6570905 48.636546 11.844777 53.023883 10.147464 C 54.606931 9.5058405 52.077463 13.620649 51.659039 14.043051 C 50.085783 15.431596 47.857179 13.180877 47.803456 14.732728 C 47.69601 17.83643 47.502732 24.969043 47.502732 25.382354 C 47.502732 26.208977 47.07784 28.155732 46.391185 28.697828 C 45.704529 29.239924 44.75611 29.575365 43.709055 29.575365 C 42.662001 29.575365 41.713581 29.239924 41.026926 28.697828 C 40.34027 28.155732 39.915378 27.40698 39.915378 26.580357 C 39.915378 25.753735 40.34027 25.004983 41.026926 24.462887 C 41.713581 23.92079 44.066097 23.835547 45.18527 23.820832 C 45.663698 23.814036 45.307017 11.516588 45.99185 10.086833 z "
       id="path1627"
       sodipodi:nodetypes="cssscscscssc" />
    <path
       style="font-size:12;fill:url(#linearGradient661);fill-opacity:0.75;fill-rule:evenodd;stroke:#261934;stroke-width:1.25;"
       d="M 42.415926 9.973457 C 43.100759 8.543715 45.060622 11.731387 49.447959 10.034088 C 51.031007 9.3924646 48.501539 13.507259 48.083115 13.929661 C 46.509859 15.318206 44.281255 13.067487 44.227532 14.619338 C 44.120086 17.72304 43.926808 24.855653 43.926808 25.268964 C 43.926808 26.095587 43.501916 28.042342 42.815261 28.584438 C 42.128605 29.126534 41.180186 29.461975 40.133131 29.461975 C 39.086077 29.461975 38.137657 29.126534 37.451002 28.584438 C 36.764346 28.042342 36.339454 27.29359 36.339454 26.466967 C 36.339454 25.640345 36.764346 24.891593 37.451002 24.349497 C 38.137657 23.8074 40.490173 23.722157 41.609346 23.707442 C 42.087774 23.700646 41.731093 11.403199 42.415926 9.973457 z "
       id="path749"
       sodipodi:nodetypes="cssscscscssc"
       transform="translate(2.019812,-1.442722)" />
    <path
       style="font-size:12;fill:url(#linearGradient654);fill-rule:evenodd;stroke-width:1pt;"
       d="M 38.552286 24.958555 C 37.394882 25.396431 37.329379 26.001503 37.28793 26.938411 C 37.728713 26.578184 37.549261 25.733013 39.084936 25.441059 C 41.690452 24.917349 42.585779 25.650732 42.728786 24.64239 C 43.218285 20.604504 42.982149 15.588471 43.394445 11.913529 C 43.491979 11.190107 43.829789 11.530885 45.075258 11.680838 C 45.910213 11.775072 48.965679 11.429384 48.635634 11.231357 C 46.387128 11.578906 44.388402 11.100547 43.07828 10.382848 C 42.678396 14.201477 42.720143 21.360274 42.529119 24.076718 C 42.441707 25.357823 40.589516 24.219282 38.552286 24.958555 z "
       id="path762"
       sodipodi:nodetypes="ccssssccss"
       transform="translate(2.019812,-1.442722)" />
  </g>
  <g
     id="g1637"
     transform="translate(2.978577,-4.721535)">
    <path
       style="font-size:12;fill:#000000;fill-opacity:0.300813;fill-rule:evenodd;stroke:none;stroke-width:1.25;"
       d="M 42.603029 36.526934 C 41.901578 36.499775 41.399237 36.606999 41.228029 36.964434 C 40.543196 38.394176 40.925209 50.676388 40.446779 50.683184 C 39.327606 50.697899 36.977184 50.797336 36.290529 51.339434 C 35.603873 51.88153 35.165529 52.637812 35.165529 53.464434 C 35.165529 54.291057 35.603873 55.016089 36.290529 55.558184 C 36.977184 56.10028 37.899723 56.433185 38.946779 56.433184 C 39.993834 56.433184 40.947623 56.100281 41.634279 55.558184 C 42.320934 55.016088 42.75928 53.072305 42.759279 52.245684 C 42.759279 51.832373 42.933084 44.693136 43.040529 41.589434 C 43.094252 40.037583 47.91263 42.305239 51.367791 41.151934 C 51.191372 45.257428 51.414957 50.678309 51.071779 50.683184 C 49.952606 50.697899 47.602182 50.797336 46.915529 51.339434 C 46.228873 51.88153 45.790529 52.637812 45.790529 53.464434 C 45.790529 54.291057 46.228871 55.016089 46.915529 55.558184 C 47.602184 56.10028 48.555973 56.433185 49.603029 56.433184 C 50.650084 56.433184 51.572623 56.100281 52.259279 55.558184 C 52.945934 55.016088 53.38428 53.072305 53.384279 52.245684 C 53.384279 51.832373 53.393238 44.816409 53.768915 41.733706 C 54.054679 39.316671 55.410601 35.56621 52.112665 36.774592 C 49.101404 37.877934 44.707381 36.608412 42.603029 36.526934 z "
       id="path1632"
       sodipodi:nodetypes="ccccccccccccccccccssc" />
    <path
       style="font-size:12;fill:url(#linearGradient616);fill-opacity:0.75;fill-rule:evenodd;stroke:#261934;stroke-width:1.25;"
       d="M 36.71875 36.125 C 36.017299 36.097841 35.514958 36.205065 35.34375 36.5625 C 34.658917 37.992242 35.04093 50.274454 34.5625 50.28125 C 33.443327 50.295965 31.092905 50.395402 30.40625 50.9375 C 29.719594 51.479596 29.28125 52.235878 29.28125 53.0625 C 29.28125 53.889123 29.719594 54.614155 30.40625 55.15625 C 31.092905 55.698346 32.015444 56.031251 33.0625 56.03125 C 34.109555 56.03125 35.063344 55.698347 35.75 55.15625 C 36.436655 54.614154 36.875001 52.670371 36.875 51.84375 C 36.875 51.430439 37.048805 44.291202 37.15625 41.1875 C 37.209973 39.635649 42.028351 41.903305 45.483512 40.75 C 45.307093 44.855494 45.530678 50.276375 45.1875 50.28125 C 44.068327 50.295965 41.717903 50.395402 41.03125 50.9375 C 40.344594 51.479596 39.90625 52.235878 39.90625 53.0625 C 39.90625 53.889123 40.344592 54.614155 41.03125 55.15625 C 41.717905 55.698346 42.671694 56.031251 43.71875 56.03125 C 44.765805 56.03125 45.688344 55.698347 46.375 55.15625 C 47.061655 54.614154 47.500001 52.670371 47.5 51.84375 C 47.5 51.430439 47.508959 44.414475 47.884636 41.331772 C 48.1704 38.914737 49.526322 35.164276 46.228386 36.372658 C 43.217125 37.476 38.823102 36.206478 36.71875 36.125 z "
       id="path1615"
       sodipodi:nodetypes="ccccccccccccccccccssc"
       transform="translate(4.328167,-1.154178)" />
    <path
       style="font-size:12;fill-opacity:0.75;stroke-width:1pt;"
       id="path682"
       d="M 34.340968 41.503501 C 34.33926 41.503299 34.337552 41.503098 34.335844 41.502896 L 34.335844 40.160997 C 34.337552 40.160796 34.33926 40.160594 34.340968 40.160392 L 34.340968 41.503501 z "
       transform="translate(4.328167,-1.154178)" />
    <path
       style="font-size:12;fill:url(#linearGradient654);fill-rule:evenodd;stroke-width:1pt;"
       d="M 31.495146 51.54045 C 30.337742 51.978326 30.272239 52.583398 30.23079 53.520306 C 30.671573 53.160079 30.492121 52.314908 32.027796 52.022954 C 34.633312 51.499244 35.528639 52.232627 35.671646 51.224285 C 36.161145 47.186399 35.925009 42.170366 36.337305 38.495424 C 36.434839 37.772002 36.475173 37.889484 37.729574 37.902052 C 39.935115 37.852014 46.453114 38.155551 46.555886 37.380435 C 41.999024 38.088665 37.18699 36.888945 36.02114 36.964743 C 35.621256 40.783372 35.663003 47.942169 35.471979 50.658613 C 35.384567 51.939718 33.532376 50.801177 31.495146 51.54045 z "
       id="path1610"
       sodipodi:nodetypes="ccssssccss"
       transform="translate(4.328167,-1.154178)" />
    <path
       style="font-size:12;fill:url(#linearGradient654);fill-rule:evenodd;stroke-width:1pt;"
       d="M 42.125067 51.54045 C 40.967663 51.978326 40.90216 52.583398 40.860711 53.520306 C 41.301494 53.160079 41.122042 52.314908 42.657717 52.022954 C 45.263233 51.499244 46.432928 52.242636 46.445839 51.224285 C 46.502522 46.681446 46.563163 42.914703 46.606546 41.380869 C 46.550472 40.812999 46.734868 40.423614 46.434653 40.355141 C 46.179041 41.865414 46.292924 47.942169 46.1019 50.658613 C 46.014488 51.939718 44.162297 50.801177 42.125067 51.54045 z "
       id="path1616"
       sodipodi:nodetypes="ccssscss"
       transform="translate(4.328167,-1.154178)" />
  </g>
  <g
     id="g1643"
     transform="matrix(0.784384,0.000000,0.000000,0.784384,17.33763,-18.40708)">
    <path
       style="font-size:12;fill:#000000;fill-opacity:0.300813;fill-rule:evenodd;stroke:none;stroke-width:1.25;"
       d="M 42.603029 36.526934 C 41.901578 36.499775 41.399237 36.606999 41.228029 36.964434 C 40.543196 38.394176 40.925209 50.676388 40.446779 50.683184 C 39.327606 50.697899 36.977184 50.797336 36.290529 51.339434 C 35.603873 51.88153 35.165529 52.637812 35.165529 53.464434 C 35.165529 54.291057 35.603873 55.016089 36.290529 55.558184 C 36.977184 56.10028 37.899723 56.433185 38.946779 56.433184 C 39.993834 56.433184 40.947623 56.100281 41.634279 55.558184 C 42.320934 55.016088 42.75928 53.072305 42.759279 52.245684 C 42.759279 51.832373 42.933084 44.693136 43.040529 41.589434 C 43.094252 40.037583 47.91263 42.305239 51.367791 41.151934 C 51.191372 45.257428 51.414957 50.678309 51.071779 50.683184 C 49.952606 50.697899 47.602182 50.797336 46.915529 51.339434 C 46.228873 51.88153 45.790529 52.637812 45.790529 53.464434 C 45.790529 54.291057 46.228871 55.016089 46.915529 55.558184 C 47.602184 56.10028 48.555973 56.433185 49.603029 56.433184 C 50.650084 56.433184 51.572623 56.100281 52.259279 55.558184 C 52.945934 55.016088 53.38428 53.072305 53.384279 52.245684 C 53.384279 51.832373 53.393238 44.816409 53.768915 41.733706 C 54.054679 39.316671 55.410601 35.56621 52.112665 36.774592 C 49.101404 37.877934 44.707381 36.608412 42.603029 36.526934 z "
       id="path1644"
       sodipodi:nodetypes="ccccccccccccccccccssc" />
    <path
       style="font-size:12;fill:url(#linearGradient616);fill-opacity:0.75;fill-rule:evenodd;stroke:#261934;stroke-width:1.25;"
       d="M 36.71875 36.125 C 36.017299 36.097841 35.514958 36.205065 35.34375 36.5625 C 34.658917 37.992242 35.04093 50.274454 34.5625 50.28125 C 33.443327 50.295965 31.092905 50.395402 30.40625 50.9375 C 29.719594 51.479596 29.28125 52.235878 29.28125 53.0625 C 29.28125 53.889123 29.719594 54.614155 30.40625 55.15625 C 31.092905 55.698346 32.015444 56.031251 33.0625 56.03125 C 34.109555 56.03125 35.063344 55.698347 35.75 55.15625 C 36.436655 54.614154 36.875001 52.670371 36.875 51.84375 C 36.875 51.430439 37.048805 44.291202 37.15625 41.1875 C 37.209973 39.635649 42.028351 41.903305 45.483512 40.75 C 45.307093 44.855494 45.530678 50.276375 45.1875 50.28125 C 44.068327 50.295965 41.717903 50.395402 41.03125 50.9375 C 40.344594 51.479596 39.90625 52.235878 39.90625 53.0625 C 39.90625 53.889123 40.344592 54.614155 41.03125 55.15625 C 41.717905 55.698346 42.671694 56.031251 43.71875 56.03125 C 44.765805 56.03125 45.688344 55.698347 46.375 55.15625 C 47.061655 54.614154 47.500001 52.670371 47.5 51.84375 C 47.5 51.430439 47.508959 44.414475 47.884636 41.331772 C 48.1704 38.914737 49.526322 35.164276 46.228386 36.372658 C 43.217125 37.476 38.823102 36.206478 36.71875 36.125 z "
       id="path1645"
       sodipodi:nodetypes="ccccccccccccccccccssc"
       transform="translate(4.328167,-1.154178)" />
    <path
       style="font-size:12;fill-opacity:0.75;stroke-width:1pt;"
       id="path1646"
       d="M 34.340968 41.503501 C 34.33926 41.503299 34.337552 41.503098 34.335844 41.502896 L 34.335844 40.160997 C 34.337552 40.160796 34.33926 40.160594 34.340968 40.160392 L 34.340968 41.503501 z "
       transform="translate(4.328167,-1.154178)" />
    <path
       style="font-size:12;fill:url(#linearGradient654);fill-rule:evenodd;stroke-width:1pt;"
       d="M 31.495146 51.54045 C 30.337742 51.978326 30.272239 52.583398 30.23079 53.520306 C 30.671573 53.160079 30.492121 52.314908 32.027796 52.022954 C 34.633312 51.499244 35.528639 52.232627 35.671646 51.224285 C 36.161145 47.186399 35.925009 42.170366 36.337305 38.495424 C 36.434839 37.772002 36.475173 37.889484 37.729574 37.902052 C 39.935115 37.852014 46.453114 38.155551 46.555886 37.380435 C 41.999024 38.088665 37.18699 36.888945 36.02114 36.964743 C 35.621256 40.783372 35.663003 47.942169 35.471979 50.658613 C 35.384567 51.939718 33.532376 50.801177 31.495146 51.54045 z "
       id="path1647"
       sodipodi:nodetypes="ccssssccss"
       transform="translate(4.328167,-1.154178)" />
    <path
       style="font-size:12;fill:url(#linearGradient654);fill-rule:evenodd;stroke-width:1pt;"
       d="M 42.125067 51.54045 C 40.967663 51.978326 40.90216 52.583398 40.860711 53.520306 C 41.301494 53.160079 41.122042 52.314908 42.657717 52.022954 C 45.263233 51.499244 46.432928 52.242636 46.445839 51.224285 C 46.502522 46.681446 46.563163 42.914703 46.606546 41.380869 C 46.550472 40.812999 46.734868 40.423614 46.434653 40.355141 C 46.179041 41.865414 46.292924 47.942169 46.1019 50.658613 C 46.014488 51.939718 44.162297 50.801177 42.125067 51.54045 z "
       id="path1648"
       sodipodi:nodetypes="ccssscss"
       transform="translate(4.328167,-1.154178)" />
  </g>
</svg>
