<?xml version="1.0" encoding="UTF-8" standalone="no"?>
<!DOCTYPE svg PUBLIC "-//W3C//DTD SVG 20010904//EN"
"http://www.w3.org/TR/2001/REC-SVG-20010904/DTD/svg10.dtd">
<!-- Created with Inkscape (http://www.inkscape.org/) -->
<svg
   width="48pt"
   height="48pt"
   id="svg2735"
   sodipodi:version="0.32"
   inkscape:version="0.40"
   sodipodi:docbase="/home/scaba"
   sodipodi:docname="stock_weather-few-clouds.svg"
   xmlns="http://www.w3.org/2000/svg"
   xmlns:cc="http://web.resource.org/cc/"
   xmlns:inkscape="http://www.inkscape.org/namespaces/inkscape"
   xmlns:sodipodi="http://sodipodi.sourceforge.net/DTD/sodipodi-0.dtd"
   xmlns:rdf="http://www.w3.org/1999/02/22-rdf-syntax-ns#"
   xmlns:dc="http://purl.org/dc/elements/1.1/"
   xmlns:xlink="http://www.w3.org/1999/xlink">
  <defs
     id="defs3">
    <radialGradient
       inkscape:collect="always"
       xlink:href="#linearGradient3573"
       id="radialGradient9297"
       gradientUnits="userSpaceOnUse"
       cx="31.721321"
       cy="25.189392"
       fx="31.721321"
       fy="25.189392"
       r="41.131844" />
    <linearGradient
       inkscape:collect="always"
       xlink:href="#linearGradient3573"
       id="linearGradient9296"
       gradientUnits="userSpaceOnUse"
       gradientTransform="matrix(0.950303,0.692963,-0.879718,1.206410,18.27280,-8.414028)"
       x1="14.096885"
       y1="1.8433709"
       x2="22.512959"
       y2="1.8433709" />
    <linearGradient
       inkscape:collect="always"
       xlink:href="#linearGradient3573"
       id="linearGradient9295"
       gradientUnits="userSpaceOnUse"
       gradientTransform="matrix(1.168581,0.133007,-0.168852,1.483514,2.636284,1.450208)"
       x1="14.096885"
       y1="1.8433709"
       x2="22.512959"
       y2="1.8433709" />
    <linearGradient
       inkscape:collect="always"
       xlink:href="#linearGradient3573"
       id="linearGradient9294"
       gradientUnits="userSpaceOnUse"
       gradientTransform="matrix(1.105201,-0.402248,0.510655,1.403052,-7.104596,16.72321)"
       x1="14.096885"
       y1="1.8433709"
       x2="22.512959"
       y2="1.8433709" />
    <linearGradient
       inkscape:collect="always"
       xlink:href="#linearGradient3573"
       id="linearGradient9293"
       gradientUnits="userSpaceOnUse"
       gradientTransform="matrix(0.782184,-0.878329,1.115038,0.992981,-8.138277,35.06776)"
       x1="14.096885"
       y1="1.8433709"
       x2="22.512959"
       y2="1.8433709" />
    <linearGradient
       inkscape:collect="always"
       xlink:href="#linearGradient3573"
       id="linearGradient9292"
       gradientUnits="userSpaceOnUse"
       gradientTransform="matrix(0.334123,-1.127668,1.431574,0.424168,-1.646963,51.07911)"
       x1="14.096885"
       y1="1.8433709"
       x2="22.512959"
       y2="1.8433709" />
    <linearGradient
       inkscape:collect="always"
       xlink:href="#linearGradient3573"
       id="linearGradient9291"
       gradientUnits="userSpaceOnUse"
       gradientTransform="matrix(-0.235439,-1.152320,1.462870,-0.298891,12.57449,62.64906)"
       x1="14.096885"
       y1="1.8433709"
       x2="22.512959"
       y2="1.8433709" />
    <linearGradient
       inkscape:collect="always"
       xlink:href="#linearGradient3573"
       id="linearGradient9290"
       gradientUnits="userSpaceOnUse"
       gradientTransform="matrix(-0.732727,-0.919990,1.167928,-0.930197,30.22310,66.76437)"
       x1="14.096885"
       y1="1.8433709"
       x2="22.512959"
       y2="1.8433709" />
    <linearGradient
       inkscape:collect="always"
       xlink:href="#linearGradient3573"
       id="linearGradient9289"
       gradientUnits="userSpaceOnUse"
       gradientTransform="matrix(0.508136,1.060693,-1.346551,0.645078,36.84955,-9.371157)"
       x1="14.096885"
       y1="1.8433709"
       x2="22.512959"
       y2="1.8433709" />
    <linearGradient
       inkscape:collect="always"
       xlink:href="#linearGradient3573"
       id="linearGradient9288"
       gradientUnits="userSpaceOnUse"
       gradientTransform="matrix(-1.093733,-0.432461,0.549009,-1.388494,48.68786,61.04800)"
       x1="14.096885"
       y1="1.8433709"
       x2="22.512959"
       y2="1.8433709" />
    <linearGradient
       inkscape:collect="always"
       xlink:href="#linearGradient3573"
       id="linearGradient9287"
       gradientUnits="userSpaceOnUse"
       gradientTransform="matrix(-1.166907,0.146967,-0.186575,-1.481389,62.11548,47.49826)"
       x1="14.096885"
       y1="1.8433709"
       x2="22.512959"
       y2="1.8433709" />
    <linearGradient
       inkscape:collect="always"
       xlink:href="#linearGradient3573"
       id="linearGradient9286"
       gradientUnits="userSpaceOnUse"
       gradientTransform="matrix(-0.951002,0.692003,-0.878497,-1.207298,67.36817,29.23960)"
       x1="14.096885"
       y1="1.8433709"
       x2="22.512959"
       y2="1.8433709" />
    <linearGradient
       inkscape:collect="always"
       xlink:href="#linearGradient3573"
       id="linearGradient9285"
       gradientUnits="userSpaceOnUse"
       gradientTransform="matrix(-0.541354,1.044131,-1.325524,-0.687247,64.01358,11.53734)"
       x1="14.096885"
       y1="1.8433709"
       x2="22.512959"
       y2="1.8433709" />
    <linearGradient
       id="linearGradient3573">
      <stop
         offset="0.0000000"
         style="stop-color:#fff300;stop-opacity:1.0000000;"
         id="stop3574" />
      <stop
         offset="1.0000000"
         style="stop-color:#d7a600;stop-opacity:1.0000000;"
         id="stop3575" />
    </linearGradient>
    <linearGradient
       inkscape:collect="always"
       xlink:href="#linearGradient3573"
       id="linearGradient9284"
       gradientUnits="userSpaceOnUse"
       gradientTransform="matrix(5.139415e-2,1.175002,-1.491665,6.524472e-2,51.88463,-2.536118)"
       x1="14.096885"
       y1="1.8433709"
       x2="22.512959"
       y2="1.8433709" />
    <linearGradient
       id="linearGradient3532">
      <stop
         offset="0.0000000"
         style="stop-color:#ffffff;stop-opacity:1.0000000;"
         id="stop3534" />
      <stop
         offset="1.0000000"
         style="stop-color:#d9cce6;stop-opacity:1.0000000;"
         id="stop3533" />
    </linearGradient>
    <linearGradient
       id="linearGradient3431">
      <stop
         offset="0.0000000"
         style="stop-color:#d9cce6;stop-opacity:1.0000000;"
         id="stop3433" />
      <stop
         offset="1.0000000"
         style="stop-color:#73667f;stop-opacity:1.0000000;"
         id="stop3432" />
    </linearGradient>
    <linearGradient
       id="linearGradient3399">
      <stop
         offset="0.0000000"
         style="stop-color:#ffffff;stop-opacity:1.0000000;"
         id="stop3401" />
      <stop
         offset="1.0000000"
         style="stop-color:#ffffff;stop-opacity:0.0000000;"
         id="stop3400" />
    </linearGradient>
    <linearGradient
       inkscape:collect="always"
       xlink:href="#linearGradient3392"
       id="linearGradient3402"
       gradientUnits="userSpaceOnUse"
       gradientTransform="matrix(1.283481,0.000000,0.000000,1.050593,-5.401330,-5.419502)"
       x1="9.9828625"
       y1="11.063726"
       x2="38.205387"
       y2="46.586163" />
    <linearGradient
       inkscape:collect="always"
       xlink:href="#linearGradient3397"
       id="linearGradient3403"
       gradientUnits="userSpaceOnUse"
       gradientTransform="matrix(1.304875,0.000000,0.000000,1.033369,-5.401330,-5.419502)"
       x1="13.032163"
       y1="16.689814"
       x2="36.678867"
       y2="38.833889" />
    <linearGradient
       inkscape:collect="always"
       xlink:href="#linearGradient3392"
       id="linearGradient3405"
       gradientUnits="userSpaceOnUse"
       gradientTransform="matrix(1.203424,0.000000,0.000000,0.988781,-2.458488,-4.156636)"
       x1="20.508265"
       y1="28.434414"
       x2="37.985611"
       y2="28.434414" />
    <linearGradient
       inkscape:collect="always"
       xlink:href="#linearGradient3399"
       id="linearGradient3406"
       gradientUnits="userSpaceOnUse"
       gradientTransform="scale(1.764892,0.566607)"
       x1="-5.3388405"
       y1="37.674553"
       x2="33.237923"
       y2="1.1146827" />
    <linearGradient
       inkscape:collect="always"
       xlink:href="#linearGradient3399"
       id="linearGradient3407"
       gradientUnits="userSpaceOnUse"
       gradientTransform="scale(0.580160,1.723663)"
       x1="31.079140"
       y1="10.680266"
       x2="57.341888"
       y2="15.124421" />
    <defs
       id="defs3369">
      <linearGradient
         id="linearGradient3414"
         x1="0.0000000"
         y1="0.50000000"
         x2="1.0000000"
         y2="0.50000000"
         gradientUnits="objectBoundingBox"
         spreadMethod="pad"
         xlink:href="#linearGradient3399" />
      <linearGradient
         id="linearGradient3397"
         x1="0.0000000"
         y1="0.50000000"
         x2="1.0000000"
         y2="0.50000000"
         gradientUnits="objectBoundingBox"
         spreadMethod="pad"
         xlink:href="#linearGradient3532" />
      <linearGradient
         id="linearGradient3392"
         x1="0.0000000"
         y1="0.50000000"
         x2="1.0000000"
         y2="0.50000000"
         gradientUnits="objectBoundingBox"
         spreadMethod="pad"
         xlink:href="#linearGradient3431" />
      <linearGradient
         inkscape:collect="always"
         xlink:href="#linearGradient3392"
         id="linearGradient3395"
         gradientTransform="scale(1.105293,0.904737)"
         x1="9.9828625"
         y1="11.063726"
         x2="38.205387"
         y2="46.586163"
         gradientUnits="userSpaceOnUse" />
    </defs>
    <sodipodi:namedview
       id="namedview3385"
       pagecolor="#ffffff"
       bordercolor="#666666"
       borderopacity="1.0"
       inkscape:pageopacity="0.0"
       inkscape:pageshadow="2"
       inkscape:zoom="3.9375000"
       inkscape:cx="22.500000"
       inkscape:cy="12.000000"
       inkscape:current-layer="svg2735"
       showgrid="false"
       inkscape:grid-bbox="false"
       gridspacingy="1.0000000pt"
       gridspacingx="1.0000000pt"
       gridoriginy="0.0000000pt"
       gridoriginx="0.0000000pt"
       inkscape:window-width="640"
       inkscape:window-height="542"
       inkscape:window-x="179"
       inkscape:window-y="334" />
    <metadata
       id="metadata3386">
      <rdf:RDF
         id="RDF3387">
        <cc:Work
           rdf:about=""
           id="Work3388">
          <dc:format
             id="format3389">image/svg+xml</dc:format>
          <dc:type
             id="type3391"
             rdf:resource="http://purl.org/dc/dcmitype/StillImage" />
        </cc:Work>
      </rdf:RDF>
    </metadata>
    <radialGradient
       inkscape:collect="always"
       xlink:href="#linearGradient3431"
       id="radialGradient3454"
       gradientTransform="scale(1.352554,0.739342)"
       cx="22.129173"
       cy="62.178513"
       fx="22.129175"
       fy="62.178513"
       r="15.501630"
       gradientUnits="userSpaceOnUse" />
    <linearGradient
       inkscape:collect="always"
       xlink:href="#linearGradient3399"
       id="linearGradient3459"
       gradientTransform="scale(1.452904,0.688277)"
       x1="12.880094"
       y1="53.321636"
       x2="31.940351"
       y2="66.989014"
       gradientUnits="userSpaceOnUse" />
    <radialGradient
       inkscape:collect="always"
       xlink:href="#linearGradient3431"
       id="radialGradient3466"
       gradientUnits="userSpaceOnUse"
       gradientTransform="scale(1.352554,0.739342)"
       cx="22.129173"
       cy="62.178513"
       fx="22.129175"
       fy="62.178513"
       r="15.501630" />
    <linearGradient
       inkscape:collect="always"
       xlink:href="#linearGradient3399"
       id="linearGradient3467"
       gradientUnits="userSpaceOnUse"
       gradientTransform="scale(1.452904,0.688277)"
       x1="12.880094"
       y1="53.321636"
       x2="31.940351"
       y2="66.989014" />
    <radialGradient
       inkscape:collect="always"
       xlink:href="#linearGradient3431"
       id="radialGradient3468"
       gradientUnits="userSpaceOnUse"
       gradientTransform="scale(1.352554,0.739342)"
       cx="22.129173"
       cy="62.178513"
       fx="22.129175"
       fy="62.178513"
       r="15.501630" />
    <linearGradient
       inkscape:collect="always"
       xlink:href="#linearGradient3399"
       id="linearGradient3469"
       gradientUnits="userSpaceOnUse"
       gradientTransform="scale(1.452904,0.688277)"
       x1="12.880094"
       y1="53.321636"
       x2="31.940351"
       y2="66.989014" />
    <radialGradient
       inkscape:collect="always"
       xlink:href="#linearGradient3431"
       id="radialGradient3495"
       gradientUnits="userSpaceOnUse"
       gradientTransform="scale(1.352554,0.739342)"
       cx="22.129173"
       cy="62.178513"
       fx="22.129175"
       fy="62.178513"
       r="15.501630" />
    <linearGradient
       inkscape:collect="always"
       xlink:href="#linearGradient3399"
       id="linearGradient3496"
       gradientUnits="userSpaceOnUse"
       gradientTransform="scale(1.452904,0.688277)"
       x1="12.880094"
       y1="53.321636"
       x2="31.940351"
       y2="66.989014" />
    <radialGradient
       inkscape:collect="always"
       xlink:href="#linearGradient3431"
       id="radialGradient3497"
       gradientUnits="userSpaceOnUse"
       gradientTransform="scale(1.352554,0.739342)"
       cx="22.129173"
       cy="62.178513"
       fx="22.129175"
       fy="62.178513"
       r="15.501630" />
    <linearGradient
       inkscape:collect="always"
       xlink:href="#linearGradient3399"
       id="linearGradient3498"
       gradientUnits="userSpaceOnUse"
       gradientTransform="scale(1.452904,0.688277)"
       x1="12.880094"
       y1="53.321636"
       x2="31.940351"
       y2="66.989014" />
    <linearGradient
       inkscape:collect="always"
       xlink:href="#linearGradient3399"
       id="linearGradient2904"
       gradientUnits="userSpaceOnUse"
       gradientTransform="matrix(1.967626,0.000000,0.000000,0.932114,-22.81042,-48.73860)"
       x1="12.880094"
       y1="53.321636"
       x2="31.940351"
       y2="66.989014" />
    <radialGradient
       inkscape:collect="always"
       xlink:href="#linearGradient3431"
       id="radialGradient2905"
       gradientUnits="userSpaceOnUse"
       gradientTransform="matrix(1.831725,0.000000,0.000000,1.001269,-22.81042,-48.73860)"
       cx="22.129173"
       cy="62.178513"
       fx="22.129175"
       fy="62.178513"
       r="15.501630" />
    <linearGradient
       inkscape:collect="always"
       xlink:href="#linearGradient3532"
       id="linearGradient3538"
       gradientTransform="matrix(1.155878,0.000000,0.000000,0.985124,-5.118876,-3.997278)"
       x1="13.381295"
       y1="43.355396"
       x2="45.857246"
       y2="43.355396"
       gradientUnits="userSpaceOnUse" />
    <radialGradient
       inkscape:collect="always"
       xlink:href="#linearGradient3532"
       id="radialGradient2977"
       gradientUnits="userSpaceOnUse"
       gradientTransform="matrix(1.904628,0.000000,0.000000,1.041120,-24.49908,-28.66164)"
       cx="22.129173"
       cy="62.178513"
       fx="22.129175"
       fy="62.178513"
       r="15.501630" />
    <linearGradient
       inkscape:collect="always"
       xlink:href="#linearGradient3532"
       id="linearGradient2978"
       gradientUnits="userSpaceOnUse"
       gradientTransform="matrix(1.201882,0.000000,0.000000,1.024332,-9.112516,-5.427457)"
       x1="13.381295"
       y1="43.355396"
       x2="45.857246"
       y2="43.355396" />
    <linearGradient
       inkscape:collect="always"
       xlink:href="#linearGradient3399"
       id="linearGradient2979"
       gradientUnits="userSpaceOnUse"
       gradientTransform="matrix(2.045938,0.000000,0.000000,0.969212,-24.49908,-28.66164)"
       x1="12.880094"
       y1="53.321636"
       x2="31.940351"
       y2="66.989014" />
    <linearGradient
       inkscape:collect="always"
       xlink:href="#linearGradient3573"
       id="linearGradient11338"
       gradientUnits="userSpaceOnUse"
       gradientTransform="matrix(5.139415e-2,1.175002,-1.491665,6.524472e-2,51.88463,-2.536118)"
       x1="14.096885"
       y1="1.8433709"
       x2="22.512959"
       y2="1.8433709" />
    <linearGradient
       inkscape:collect="always"
       xlink:href="#linearGradient3573"
       id="linearGradient11339"
       gradientUnits="userSpaceOnUse"
       gradientTransform="matrix(-0.541354,1.044131,-1.325524,-0.687247,64.01358,11.53734)"
       x1="14.096885"
       y1="1.8433709"
       x2="22.512959"
       y2="1.8433709" />
    <linearGradient
       inkscape:collect="always"
       xlink:href="#linearGradient3573"
       id="linearGradient11340"
       gradientUnits="userSpaceOnUse"
       gradientTransform="matrix(-0.951002,0.692003,-0.878497,-1.207298,67.36817,29.23960)"
       x1="14.096885"
       y1="1.8433709"
       x2="22.512959"
       y2="1.8433709" />
    <linearGradient
       inkscape:collect="always"
       xlink:href="#linearGradient3573"
       id="linearGradient11341"
       gradientUnits="userSpaceOnUse"
       gradientTransform="matrix(-1.166907,0.146967,-0.186575,-1.481389,62.11548,47.49826)"
       x1="14.096885"
       y1="1.8433709"
       x2="22.512959"
       y2="1.8433709" />
    <linearGradient
       inkscape:collect="always"
       xlink:href="#linearGradient3573"
       id="linearGradient11342"
       gradientUnits="userSpaceOnUse"
       gradientTransform="matrix(-1.093733,-0.432461,0.549009,-1.388494,48.68786,61.04800)"
       x1="14.096885"
       y1="1.8433709"
       x2="22.512959"
       y2="1.8433709" />
    <linearGradient
       inkscape:collect="always"
       xlink:href="#linearGradient3573"
       id="linearGradient11343"
       gradientUnits="userSpaceOnUse"
       gradientTransform="matrix(0.508136,1.060693,-1.346551,0.645078,36.84955,-9.371157)"
       x1="14.096885"
       y1="1.8433709"
       x2="22.512959"
       y2="1.8433709" />
    <linearGradient
       inkscape:collect="always"
       xlink:href="#linearGradient3573"
       id="linearGradient11344"
       gradientUnits="userSpaceOnUse"
       gradientTransform="matrix(-0.732727,-0.919990,1.167928,-0.930197,30.22310,66.76437)"
       x1="14.096885"
       y1="1.8433709"
       x2="22.512959"
       y2="1.8433709" />
    <linearGradient
       inkscape:collect="always"
       xlink:href="#linearGradient3573"
       id="linearGradient11345"
       gradientUnits="userSpaceOnUse"
       gradientTransform="matrix(-0.235439,-1.152320,1.462870,-0.298891,12.57449,62.64906)"
       x1="14.096885"
       y1="1.8433709"
       x2="22.512959"
       y2="1.8433709" />
    <linearGradient
       inkscape:collect="always"
       xlink:href="#linearGradient3573"
       id="linearGradient11346"
       gradientUnits="userSpaceOnUse"
       gradientTransform="matrix(0.334123,-1.127668,1.431574,0.424168,-1.646963,51.07911)"
       x1="14.096885"
       y1="1.8433709"
       x2="22.512959"
       y2="1.8433709" />
    <linearGradient
       inkscape:collect="always"
       xlink:href="#linearGradient3573"
       id="linearGradient11347"
       gradientUnits="userSpaceOnUse"
       gradientTransform="matrix(0.782184,-0.878329,1.115038,0.992981,-8.138277,35.06776)"
       x1="14.096885"
       y1="1.8433709"
       x2="22.512959"
       y2="1.8433709" />
    <linearGradient
       inkscape:collect="always"
       xlink:href="#linearGradient3573"
       id="linearGradient11348"
       gradientUnits="userSpaceOnUse"
       gradientTransform="matrix(1.105201,-0.402248,0.510655,1.403052,-7.104596,16.72321)"
       x1="14.096885"
       y1="1.8433709"
       x2="22.512959"
       y2="1.8433709" />
    <linearGradient
       inkscape:collect="always"
       xlink:href="#linearGradient3573"
       id="linearGradient11349"
       gradientUnits="userSpaceOnUse"
       gradientTransform="matrix(1.168581,0.133007,-0.168852,1.483514,2.636284,1.450208)"
       x1="14.096885"
       y1="1.8433709"
       x2="22.512959"
       y2="1.8433709" />
    <linearGradient
       inkscape:collect="always"
       xlink:href="#linearGradient3573"
       id="linearGradient11350"
       gradientUnits="userSpaceOnUse"
       gradientTransform="matrix(0.950303,0.692963,-0.879718,1.206410,18.27280,-8.414028)"
       x1="14.096885"
       y1="1.8433709"
       x2="22.512959"
       y2="1.8433709" />
    <radialGradient
       inkscape:collect="always"
       xlink:href="#linearGradient3573"
       id="radialGradient11351"
       gradientUnits="userSpaceOnUse"
       cx="31.721321"
       cy="25.189392"
       fx="31.721321"
       fy="25.189392"
       r="41.131844" />
    <radialGradient
       inkscape:collect="always"
       xlink:href="#linearGradient3532"
       id="radialGradient11352"
       gradientUnits="userSpaceOnUse"
       gradientTransform="matrix(1.904628,0.000000,0.000000,1.041120,-24.49908,-28.66164)"
       cx="22.129173"
       cy="62.178513"
       fx="22.129175"
       fy="62.178513"
       r="15.501630" />
    <linearGradient
       inkscape:collect="always"
       xlink:href="#linearGradient3399"
       id="linearGradient11353"
       gradientUnits="userSpaceOnUse"
       gradientTransform="matrix(2.045938,0.000000,0.000000,0.969212,-24.49908,-28.66164)"
       x1="12.880094"
       y1="53.321636"
       x2="31.940351"
       y2="66.989014" />
  </defs>
  <sodipodi:namedview
     id="base"
     pagecolor="#ffffff"
     bordercolor="#666666"
     borderopacity="1.0"
     inkscape:pageopacity="0.0"
     inkscape:pageshadow="2"
     inkscape:zoom="9.5543401"
     inkscape:cx="26.134386"
     inkscape:cy="23.460570"
     inkscape:current-layer="layer1"
     showgrid="false"
     inkscape:grid-bbox="false"
     gridspacingy="1.0000000pt"
     gridspacingx="1.0000000pt"
     gridoriginy="0.0000000pt"
     gridoriginx="0.0000000pt"
     inkscape:window-width="1022"
     inkscape:window-height="695"
     inkscape:window-x="0"
     inkscape:window-y="26"
     showguides="true"
     inkscape:guide-bbox="true" />
  <metadata
     id="metadata4">
    <rdf:RDF
       id="RDF5">
      <cc:Work
         rdf:about=""
         id="Work6">
        <dc:format
           id="format7">image/svg+xml</dc:format>
        <dc:type
           id="type9"
           rdf:resource="http://purl.org/dc/dcmitype/StillImage" />
      </cc:Work>
    </rdf:RDF>
  </metadata>
  <g
     id="layer1"
     inkscape:label="Layer 1"
     inkscape:groupmode="layer">
    <path
       style="opacity:0.29999998;fill:#000000;fill-opacity:1.0000000;fill-rule:evenodd;stroke:#333300;stroke-width:3.4694470e-17;stroke-linecap:butt;stroke-linejoin:miter;stroke-miterlimit:4.0000000;stroke-opacity:1.0000000;"
       d="M 26.400436,2.0632268 C 25.751132,1.7023578 24.883453,2.0461558 23.650436,3.5944768 C 19.968329,8.2181598 20.271094,12.510853 21.150436,13.719477 C 21.129865,13.728715 21.141844,13.708475 21.119186,13.719477 C 18.883586,14.805055 13.801855,2.6326748 12.150436,10.375727 C 10.961238,15.951558 12.942019,19.534434 14.275436,20.406977 C 11.913691,21.111250 3.2362470,14.471310 5.3066860,21.563227 C 6.8934680,26.998462 10.297615,29.180295 11.900436,29.344477 C 10.039867,30.972906 -0.60879795,28.659199 4.2754360,34.188227 C 8.1509000,38.575309 12.388840,39.066146 13.775436,38.438227 C 12.539772,40.729315 2.5993190,43.626993 9.3691860,46.156977 C 14.858716,48.208481 18.821713,46.644990 19.744186,45.438227 C 20.553131,47.651240 11.821950,55.547676 19.369186,54.688227 C 26.032456,53.929438 28.772471,49.849627 28.244186,48.813227 C 30.637019,49.484587 26.370636,61.947524 32.744186,57.250727 C 38.002942,53.375442 38.467511,48.646320 37.587936,47.813227 C 37.649444,47.827642 37.644020,47.882269 37.806686,47.844477 C 40.227443,47.282061 42.478196,60.246768 45.806686,53.063227 C 48.427106,47.407849 46.820646,43.180531 45.650436,42.531977 C 45.693136,42.501562 45.688126,42.551101 45.744186,42.500727 C 47.592726,40.839624 55.796846,51.117361 55.244186,43.219477 C 54.836706,37.396272 51.794016,34.452916 50.306686,34.094477 C 51.852796,32.327271 62.826246,37.191482 58.931686,30.594477 C 56.196056,25.960581 52.658766,24.619624 50.931686,24.688227 C 52.632726,22.647402 62.702646,21.348436 56.462936,17.813227 C 51.458756,14.978029 47.405456,15.822716 46.212936,16.844477 C 47.339616,14.238807 55.534926,9.2850818 48.587936,8.5007268 C 42.687526,7.8345348 39.151220,10.430617 38.619186,11.813227 C 37.606424,9.5986667 43.451556,0.20314974 36.556686,2.9694768 C 31.501695,4.9976128 29.645242,8.3671658 29.494186,10.063227 C 28.309108,8.4485318 28.061669,2.9865038 26.400436,2.0632268 z M 29.869186,11.094477 C 29.969940,11.098080 30.053347,11.153804 30.181686,11.094477 C 30.181686,11.094477 31.077353,11.293839 31.306686,11.344477 C 30.361854,11.354125 29.463202,11.449662 28.556686,11.594477 C 29.006007,11.422790 29.565049,11.235869 29.869186,11.094477 z M 38.056686,12.563227 C 38.497156,12.606515 38.864452,12.613454 38.994186,12.563227 C 39.046679,12.576068 39.055680,12.621850 39.119186,12.625727 C 39.119186,12.625727 39.949208,13.305243 40.212936,13.531977 C 39.516507,13.163917 38.801535,12.842584 38.056686,12.563227 z M 22.712936,13.594477 C 21.977668,13.988736 21.260432,14.390305 20.587936,14.875727 C 20.946109,14.466606 21.261099,14.081907 21.369186,13.875727 C 21.619005,14.064647 21.886232,14.107552 22.119186,13.781977 C 22.119186,13.781977 22.642781,13.615973 22.712936,13.594477 z M 45.650436,17.875727 C 46.045276,18.118230 46.210556,18.115446 46.181686,17.938227 C 46.191786,17.959003 46.724196,18.987148 46.931686,19.406977 C 46.554216,18.860993 46.082266,18.377608 45.650436,17.875727 z M 15.962936,19.594477 C 15.513937,20.260997 15.168506,20.995922 14.806686,21.719477 C 14.896258,21.342067 15.018324,20.882521 15.056686,20.625727 C 15.179905,20.549045 15.302467,20.409879 15.337936,20.188227 C 15.337936,20.188227 15.863739,19.688879 15.962936,19.594477 z M 48.931686,23.250727 C 49.285756,23.893193 49.627306,24.517000 49.900436,24.938227 C 49.812696,25.094039 49.811376,25.303028 49.962936,25.531977 C 49.962936,25.531977 49.913956,26.389598 49.900436,26.594477 C 49.684256,25.431421 49.352276,24.327777 48.931686,23.250727 z M 12.994186,27.938227 C 12.929831,28.509271 12.818445,29.071626 12.806686,29.656977 C 12.777397,29.537064 12.741378,29.350427 12.712936,29.250727 C 12.814467,29.121604 12.827978,28.928535 12.744186,28.688227 C 12.744186,28.688227 12.957983,28.048856 12.994186,27.938227 z M 13.869186,36.125727 C 14.069142,36.704869 14.240570,37.292589 14.494186,37.844477 C 14.286476,37.627689 14.158857,37.479304 14.056686,37.438227 C 14.054711,37.421937 13.908783,36.439079 13.869186,36.125727 z M 19.337936,44.156977 C 19.630800,44.409692 19.904697,44.672498 20.212936,44.906977 C 20.089967,44.863347 20.057710,44.870307 19.962936,44.844477 C 19.928477,44.674330 19.811862,44.550145 19.556686,44.469477 C 19.556686,44.469477 19.354086,44.180019 19.337936,44.156977 z M 26.962936,48.156977 C 27.409187,48.269214 27.848397,48.389934 28.306686,48.469477 C 28.168333,48.508394 27.973173,48.552252 27.931686,48.594477 C 27.845231,48.576105 27.798415,48.512559 27.681686,48.531977 C 27.681686,48.531977 27.070165,48.213739 26.962936,48.156977 z "
       id="path5875"
       transform="matrix(0.714930,0.000000,0.000000,0.714930,0.782619,1.419875)" />
    <path
       style="fill:url(#linearGradient11338);fill-opacity:1.0000000;fill-rule:evenodd;stroke:#333300;stroke-width:1.2331064;stroke-linecap:butt;stroke-linejoin:miter;stroke-miterlimit:4.0000000;stroke-opacity:1.0000000;"
       d="M 44.006898,16.259864 C 42.186198,15.348671 47.437400,12.284913 54.325837,16.187668 C 61.214272,20.090422 48.102371,21.269234 48.465666,23.727769 C 48.828962,26.186303 44.006898,16.259864 44.006898,16.259864 z "
       id="path1337"
       sodipodi:nodetypes="cccc"
       transform="matrix(0.714930,0.000000,0.000000,0.714930,0.782619,1.419875)" />
    <path
       style="fill:url(#linearGradient11339);fill-opacity:1.0000000;fill-rule:evenodd;stroke:#333300;stroke-width:1.2331064;stroke-linecap:butt;stroke-linejoin:miter;stroke-miterlimit:4.0000000;stroke-opacity:1.0000000;"
       d="M 47.812676,23.901707 C 46.688834,22.204003 52.768334,22.166764 56.793229,28.984557 C 60.818124,35.802345 48.864801,30.286040 47.953786,32.598275 C 47.042773,34.910510 47.812676,23.901707 47.812676,23.901707 z "
       id="path1351"
       sodipodi:nodetypes="cccc"
       transform="matrix(0.714930,0.000000,0.000000,0.714930,0.782619,1.419875)" />
    <path
       style="fill:url(#linearGradient11340);fill-opacity:1.0000000;fill-rule:evenodd;stroke:#333300;stroke-width:1.2331064;stroke-linecap:butt;stroke-linejoin:miter;stroke-miterlimit:4.0000000;stroke-opacity:1.0000000;"
       d="M 47.348958,33.057619 C 47.102566,31.036602 52.557467,33.720963 53.110123,41.618851 C 53.662780,49.516737 45.436170,39.238875 43.587627,40.899978 C 41.739084,42.561083 47.348958,33.057619 47.348958,33.057619 z "
       id="path1349"
       sodipodi:nodetypes="cccc"
       transform="matrix(0.714930,0.000000,0.000000,0.714930,0.782619,1.419875)" />
    <path
       style="fill:url(#linearGradient11341);fill-opacity:1.0000000;fill-rule:evenodd;stroke:#333300;stroke-width:1.2331064;stroke-linecap:butt;stroke-linejoin:miter;stroke-miterlimit:4.0000000;stroke-opacity:1.0000000;"
       d="M 42.740109,41.178293 C 43.499915,39.289402 46.981371,44.273498 43.652884,51.457036 C 40.324398,58.640574 38.081109,45.668327 35.660352,46.230743 C 33.239595,46.793160 42.740109,41.178293 42.740109,41.178293 z "
       id="path1345"
       sodipodi:nodetypes="cccc"
       transform="matrix(0.714930,0.000000,0.000000,0.714930,0.782619,1.419875)" />
    <path
       style="fill:url(#linearGradient11342);fill-opacity:1.0000000;fill-rule:evenodd;stroke:#333300;stroke-width:1.2331064;stroke-linecap:butt;stroke-linejoin:miter;stroke-miterlimit:4.0000000;stroke-opacity:1.0000000;"
       d="M 34.741326,46.187181 C 36.316052,44.896656 36.970818,50.940912 30.597269,55.637711 C 24.223722,60.334510 28.496937,47.882555 26.104104,47.211195 C 23.711270,46.539835 34.741326,46.187181 34.741326,46.187181 z "
       id="path1343"
       sodipodi:nodetypes="cccc"
       transform="matrix(0.714930,0.000000,0.000000,0.714930,0.782619,1.419875)" />
    <path
       style="fill:url(#linearGradient11343);fill-opacity:1.0000000;fill-rule:evenodd;stroke:#333300;stroke-width:1.2331064;stroke-linecap:butt;stroke-linejoin:miter;stroke-miterlimit:4.0000000;stroke-opacity:1.0000000;"
       d="M 36.975175,11.008540 C 34.942978,10.884471 38.571743,6.0065844 46.438959,6.8948406 C 54.306170,7.7830957 42.707256,14.010193 44.005728,16.129238 C 45.304198,18.248282 36.975175,11.008540 36.975175,11.008540 z "
       id="path1339"
       sodipodi:nodetypes="cccc"
       transform="matrix(0.714930,0.000000,0.000000,0.714930,0.782619,1.419875)" />
    <path
       style="fill:url(#linearGradient11344);fill-opacity:1.0000000;fill-rule:evenodd;stroke:#333300;stroke-width:1.2331064;stroke-linecap:butt;stroke-linejoin:miter;stroke-miterlimit:4.0000000;stroke-opacity:1.0000000;"
       d="M 25.537583,46.930202 C 27.545964,46.596104 25.101503,52.162641 17.235143,53.058433 C 9.3687853,53.954225 19.278950,45.288190 17.538985,43.513675 C 15.799021,41.739164 25.537583,46.930202 25.537583,46.930202 z "
       id="path1359"
       sodipodi:nodetypes="cccc"
       transform="matrix(0.714930,0.000000,0.000000,0.714930,0.782619,1.419875)" />
    <path
       style="fill:url(#linearGradient11345);fill-opacity:1.0000000;fill-rule:evenodd;stroke:#333300;stroke-width:1.2331064;stroke-linecap:butt;stroke-linejoin:miter;stroke-miterlimit:4.0000000;stroke-opacity:1.0000000;"
       d="M 17.400027,42.848531 C 19.341315,43.462224 14.636936,47.313272 7.2206964,44.541733 C -0.19554319,41.770195 12.568098,38.545142 11.822893,36.174267 C 11.077687,33.803393 17.400027,42.848531 17.400027,42.848531 z "
       id="path1357"
       sodipodi:nodetypes="cccc"
       transform="matrix(0.714930,0.000000,0.000000,0.714930,0.782619,1.419875)" />
    <path
       style="fill:url(#linearGradient11346);fill-opacity:1.0000000;fill-rule:evenodd;stroke:#333300;stroke-width:1.2331064;stroke-linecap:butt;stroke-linejoin:miter;stroke-miterlimit:4.0000000;stroke-opacity:1.0000000;"
       d="M 11.923305,35.873997 C 13.347931,37.328527 7.3851766,38.514827 2.1435575,32.581237 C -3.0980610,26.647649 9.6827825,29.803844 10.140078,27.361047 C 10.597370,24.918250 11.923305,35.873997 11.923305,35.873997 z "
       id="path1355"
       sodipodi:nodetypes="cccc"
       transform="matrix(0.714930,0.000000,0.000000,0.714930,0.782619,1.419875)" />
    <path
       style="fill:url(#linearGradient11347);fill-opacity:1.0000000;fill-rule:evenodd;stroke:#333300;stroke-width:1.2331064;stroke-linecap:butt;stroke-linejoin:miter;stroke-miterlimit:4.0000000;stroke-opacity:1.0000000;"
       d="M 10.611966,27.081784 C 11.282303,29.004247 5.3814795,27.540686 3.1627246,19.940740 C 0.94397017,12.340796 11.167195,20.635204 12.620425,18.619142 C 14.073653,16.603081 10.611966,27.081784 10.611966,27.081784 z "
       id="path1353"
       sodipodi:nodetypes="cccc"
       transform="matrix(0.714930,0.000000,0.000000,0.714930,0.782619,1.419875)" />
    <path
       style="fill:url(#linearGradient11348);fill-opacity:1.0000000;fill-rule:evenodd;stroke:#333300;stroke-width:1.2331064;stroke-linecap:butt;stroke-linejoin:miter;stroke-miterlimit:4.0000000;stroke-opacity:1.0000000;"
       d="M 13.190161,18.586079 C 12.868458,20.596483 8.3677926,16.509213 10.019210,8.7661603 C 11.670627,1.0231091 16.736627,13.174123 18.972227,12.088545 C 21.207822,11.002966 13.190161,18.586079 13.190161,18.586079 z "
       id="path1347"
       sodipodi:nodetypes="cccc"
       transform="matrix(0.714930,0.000000,0.000000,0.714930,0.782619,1.419875)" />
    <path
       style="fill:url(#linearGradient11349);fill-opacity:1.0000000;fill-rule:evenodd;stroke:#333300;stroke-width:1.2331064;stroke-linecap:butt;stroke-linejoin:miter;stroke-miterlimit:4.0000000;stroke-opacity:1.0000000;"
       d="M 19.968891,12.170679 C 18.784156,13.826463 16.579380,8.1607156 21.511450,1.9674343 C 26.443519,-4.2258470 25.557141,8.9090630 28.042240,8.9347500 C 30.527339,8.9604359 19.968891,12.170679 19.968891,12.170679 z "
       id="path9830"
       sodipodi:nodetypes="cccc"
       transform="matrix(0.714930,0.000000,0.000000,0.714930,0.782619,1.419875)" />
    <path
       style="fill:url(#linearGradient11350);fill-opacity:1.0000000;fill-rule:evenodd;stroke:#333300;stroke-width:1.2331064;stroke-linecap:butt;stroke-linejoin:miter;stroke-miterlimit:4.0000000;stroke-opacity:1.0000000;"
       d="M 28.046156,9.4697434 C 26.198081,10.324047 27.080249,4.3087738 34.428103,1.3607074 C 41.775956,-1.5873594 34.516168,9.3947643 36.664124,10.644828 C 38.812082,11.894893 28.046156,9.4697434 28.046156,9.4697434 z "
       id="path1341"
       sodipodi:nodetypes="cccc"
       transform="matrix(0.714930,0.000000,0.000000,0.714930,0.782619,1.419875)" />
    <path
       sodipodi:type="arc"
       style="fill:url(#radialGradient11351);fill-opacity:1.0000000;stroke:#333300;stroke-width:1.2950845;stroke-linecap:round;stroke-linejoin:round;stroke-miterlimit:4.0000000;stroke-opacity:1.0000000;"
       id="path9832"
       sodipodi:cx="23.412090"
       sodipodi:cy="23.626602"
       sodipodi:rx="19.675497"
       sodipodi:ry="19.675497"
       d="M 43.087587 23.626602 A 19.675497 19.675497 0 1 1  3.7365932,23.626602 A 19.675497 19.675497 0 1 1  43.087587 23.626602 z"
       transform="matrix(0.680716,0.000000,0.000000,0.680716,5.840012,5.657943)" />
    <path
       style="opacity:0.29999998;fill:#000000;fill-opacity:1.0000000;fill-rule:evenodd;stroke:none;stroke-width:2.1263406;stroke-linecap:butt;stroke-linejoin:round;stroke-miterlimit:4.0000000;stroke-opacity:1.0000000;"
       d="M 27.443987,56.532508 C 33.493446,59.120278 39.476759,59.298506 44.467179,55.733923 C 48.569897,55.913300 52.394935,56.176050 55.692175,53.949333 C 58.187386,52.701727 61.175727,49.207387 59.994291,44.928996 C 57.947324,39.759458 51.596349,38.089226 44.467179,38.623913 C 45.001866,35.504901 42.595772,31.583857 38.050924,30.068908 C 31.991129,28.019271 26.733367,29.445106 23.079666,34.346411 C 19.871540,36.128704 14.792005,34.435525 10.247160,36.485161 C 1.2088435,40.029846 1.2373956,51.441490 9.7159180,56.456025 C 15.263992,59.297359 23.076220,55.111269 27.443987,56.532508 z "
       id="path3482"
       sodipodi:nodetypes="cccccccccc"
       transform="translate(-0.261661,0.354488)" />
    <path
       style="opacity:0.29999998;fill:#000000;fill-opacity:1.0000000;fill-rule:evenodd;stroke:none;stroke-width:0.25000000pt;stroke-linecap:butt;stroke-linejoin:miter;stroke-opacity:1.0000000;"
       d="M 6.6388720,47.284613 C 10.290257,41.905447 18.348107,38.497080 23.869210,38.903471 C 33.910775,33.342810 34.451298,32.252035 44.149259,36.466281 C 41.350990,32.659952 39.515599,31.020097 33.587975,31.185640 C 30.172846,31.862615 30.007431,31.095273 24.786905,36.466281 C 12.661074,38.075884 7.0006988,37.266871 6.6388720,47.284613 z "
       id="path3483"
       sodipodi:nodetypes="cccccc"
       transform="translate(-0.261661,0.354488)" />
    <path
       style="fill:url(#radialGradient11352);fill-opacity:1.0000000;fill-rule:evenodd;stroke:#261933;stroke-width:1.9496250;stroke-linecap:butt;stroke-linejoin:round;stroke-miterlimit:4.0000000;stroke-opacity:1.0000000;"
       d="M 25.270263,53.012080 C 31.319723,55.599851 37.303035,55.778079 42.293455,52.213495 C 46.396173,52.392872 50.221213,52.655622 53.518452,50.428905 C 56.013662,49.181300 59.002004,45.686959 57.820567,41.408568 C 55.773600,36.239030 49.422625,34.568798 42.293455,35.103485 C 42.828142,31.984473 40.422048,28.063430 35.877201,26.548480 C 29.817405,24.498843 24.559643,25.924678 20.905942,30.825983 C 17.697816,32.608276 12.618282,30.915097 8.0734365,32.964733 C -0.96488031,36.509418 -0.93632824,47.921062 7.5421941,52.935597 C 13.090269,55.776931 20.902496,51.590841 25.270263,53.012080 z "
       id="path2746"
       sodipodi:nodetypes="cccccccccc"
       transform="translate(-0.261661,0.354488)" />
    <path
       style="fill:url(#linearGradient11353);fill-opacity:1.0000000;fill-rule:evenodd;stroke:none;stroke-width:0.25000000pt;stroke-linecap:butt;stroke-linejoin:miter;stroke-opacity:1.0000000;"
       d="M 3.1184442,43.764185 C 6.7698291,38.385019 14.827679,34.976652 20.348783,35.383043 C 30.390347,29.822382 30.930870,28.731607 40.628831,32.945854 C 37.830563,29.139524 35.995172,27.499669 30.067547,27.665212 C 26.652419,28.342187 26.487003,27.574845 21.266478,32.945854 C 9.1406457,34.555457 3.4802710,33.746443 3.1184442,43.764185 z "
       id="path3455"
       sodipodi:nodetypes="cccccc"
       transform="translate(-0.261661,0.354488)" />
  </g>
</svg>
