<?xml version="1.0" encoding="UTF-8" standalone="no"?>
<!DOCTYPE svg PUBLIC "-//W3C//DTD SVG 20010904//EN"
"http://www.w3.org/TR/2001/REC-SVG-20010904/DTD/svg10.dtd">
<!-- Created with Inkscape (http://www.inkscape.org/) -->
<svg
   id="svg1"
   sodipodi:version="0.32"
   inkscape:version="0.37"
   width="48pt"
   height="48pt"
   sodipodi:docbase="/home/tom"
   sodipodi:docname="folder_red_open.svg"
   xmlns="http://www.w3.org/2000/svg"
   xmlns:inkscape="http://www.inkscape.org/namespaces/inkscape"
   xmlns:sodipodi="http://sodipodi.sourceforge.net/DTD/sodipodi-0.dtd"
   xmlns:xlink="http://www.w3.org/1999/xlink">
  <defs
     id="defs3">
    <linearGradient
       id="linearGradient591">
      <stop
         style="stop-color:#f50000;stop-opacity:1;"
         offset="0.00000000"
         id="stop592" />
      <stop
         style="stop-color:#000000;stop-opacity:1;"
         offset="1.00000000"
         id="stop593" />
    </linearGradient>
    <linearGradient
       id="linearGradient584">
      <stop
         style="stop-color:#ffffff;stop-opacity:1;"
         offset="0.00000000"
         id="stop585" />
      <stop
         style="stop-color:#ffffff;stop-opacity:0;"
         offset="1.00000000"
         id="stop586" />
    </linearGradient>
    <linearGradient
       id="linearGradient578">
      <stop
         style="stop-color:#d9cce6;stop-opacity:1;"
         offset="0.00000000"
         id="stop579" />
      <stop
         style="stop-color:#73667f;stop-opacity:1;"
         offset="1.00000000"
         id="stop580" />
    </linearGradient>
    <linearGradient
       xlink:href="#linearGradient584"
       id="linearGradient581"
       x1="-0.00684932"
       y1="0.00775194"
       x2="0.97945207"
       y2="1.00000000" />
    <linearGradient
       xlink:href="#linearGradient584"
       id="linearGradient583"
       x1="0.01094890"
       y1="0.01030928"
       x2="1.01459849"
       y2="0.96907216" />
    <linearGradient
       xlink:href="#linearGradient584"
       id="linearGradient860"
       x1="-0.02500000"
       y1="0.03100775"
       x2="0.97500002"
       y2="0.97674417" />
    <linearGradient
       xlink:href="#linearGradient591"
       id="linearGradient861"
       x1="0.02139037"
       y1="0.04225352"
       x2="1.29411769"
       y2="1.31690145" />
    <linearGradient
       xlink:href="#linearGradient591"
       id="linearGradient862"
       x1="0.00000000"
       y1="0.00775194"
       x2="1.00000000"
       y2="0.99224806" />
  </defs>
  <sodipodi:namedview
     id="base"
     pagecolor="#ffffff"
     bordercolor="#666666"
     borderopacity="1.0"
     inkscape:pageopacity="0.0"
     inkscape:pageshadow="2"
     inkscape:zoom="7.97947193"
     inkscape:cx="25.5142346"
     inkscape:cy="23.6060866"
     inkscape:window-width="1018"
     inkscape:window-height="711"
     inkscape:window-x="0"
     inkscape:window-y="30" />
  <path
     d="M 9.406914 57.440346 C 0.95375397 53.826505 -0.29905603 23.042786 1.446287 10.067866 C 2.006397 5.9034905 14.051774 4.5869188 17.889727 5.1088695 C 19.489486 5.3264862 19.461367 12.576724 21.282759 12.547423 C 30.293074 12.402704 42.384175 1.8970684 48.818766 5.5003896 C 54.346969 8.5961735 58.368871 31.423169 53.777764 37.47368 C 45.231623 48.736485 18.354025 61.265301 9.406914 57.440346 z "
     style="font-size:12;opacity:0.302675;fill-rule:evenodd;stroke-width:18.75;stroke-linecap:round;stroke-linejoin:round;"
     id="path618" />
  <path
     d="M 10.274168 53.894987 C 2.61326 50.619865 1.477862 22.72143 3.05965 10.96262 C 3.567316 7.1885628 14.483677 5.9953911 17.961908 6.4684156 C 19.411723 6.6656386 19.386241 13.23633 21.036918 13.209779 C 29.202721 13.078616 40.160548 3.5576414 45.992035 6.8232411 C 51.0021 9.6288681 54.647034 30.316339 50.486241 35.79975 C 42.741111 46.00692 18.382688 57.36144 10.274168 53.894987 z "
     style="font-size:12;fill:url(#linearGradient862);fill-rule:evenodd;stroke:#261933;stroke-width:1.875;stroke-linecap:round;stroke-linejoin:round;stroke-dasharray:none;"
     id="path619" />
  <path
     d="M 10.392372 51.411424 C 5.569681 47.538429 3.113688 21.120004 5.306828 11.908787 C 6.070441 8.7015485 16.782762 8.1376135 17.133946 9.3069145 C 14.155084 9.4345365 9.678438 12.25847 8.973178 15.220416 C 6.721632 24.676933 9.729403 48.83011 10.392372 51.411424 z "
     style="font-size:12;opacity:0.7;fill:url(#linearGradient860);fill-rule:evenodd;stroke:none;stroke-width:1pt;"
     id="path620" />
  <path
     d="M 22.929142 15.338726 C 33.798209 13.374559 41.861544 6.8905908 44.099709 8.7155745 C 44.705397 9.2368915 36.246014 13.984739 31.089911 15.693663 C 29.346832 16.271295 22.409323 15.431665 22.929142 15.338726 z "
     style="font-size:12;opacity:0.699936;fill:url(#linearGradient583);fill-rule:evenodd;stroke:none;stroke-width:1pt;"
     id="path621" />
  <path
     d="M 10.911977 54.125293 C 8.839235 53.793488 12.343756 34.533799 17.640547 29.386474 C 26.170593 21.097012 47.894922 15.991126 56.946818 18.179817 C 61.498839 19.28059 54.430116 31.137346 50.21825 36.228345 C 41.248256 47.189068 19.447056 55.389771 10.911977 54.125293 z "
     style="font-size:12;fill:url(#linearGradient861);fill-rule:evenodd;stroke:#261933;stroke-width:1.875;stroke-linecap:round;stroke-linejoin:round;stroke-dasharray:none;"
     id="path622"
     sodipodi:nodetypes="ccccc" />
  <path
     d="M 13.281861 50.821116 C 11.651301 44.111286 17.142069 34.204216 19.274019 31.607585 C 29.362868 23.715134 52.258293 19.39662 54.216363 20.322762 C 38.735957 22.629342 31.629172 26.664919 22.013742 33.307527 C 17.992567 37.920148 13.51958 44.650599 13.281861 50.821116 z "
     style="font-size:12;opacity:0.7;fill:url(#linearGradient581);fill-rule:evenodd;stroke:none;stroke-width:1.25;"
     id="path623"
     sodipodi:nodetypes="ccccc" />
</svg>
