<?xml version="1.0" encoding="UTF-8" standalone="no"?>
<!DOCTYPE svg PUBLIC "-//W3C//DTD SVG 20010904//EN"
"http://www.w3.org/TR/2001/REC-SVG-20010904/DTD/svg10.dtd">
<!-- Created with Inkscape (http://www.inkscape.org/) -->
<svg
   id="svg1"
   sodipodi:version="0.32"
   inkscape:version="0.37"
   width="48pt"
   height="48pt"
   sodipodi:docbase="/home/tom"
   sodipodi:docname="folder_favourite.svg"
   xmlns="http://www.w3.org/2000/svg"
   xmlns:inkscape="http://www.inkscape.org/namespaces/inkscape"
   xmlns:sodipodi="http://sodipodi.sourceforge.net/DTD/sodipodi-0.dtd"
   xmlns:xlink="http://www.w3.org/1999/xlink">
  <defs
     id="defs3">
    <linearGradient
       id="linearGradient866">
      <stop
         style="stop-color:#ffffff;stop-opacity:1;"
         offset="0.00000000"
         id="stop867" />
      <stop
         style="stop-color:#d9cce6;stop-opacity:1;"
         offset="1.00000000"
         id="stop868" />
    </linearGradient>
    <linearGradient
       id="linearGradient584">
      <stop
         style="stop-color:#ffffff;stop-opacity:1;"
         offset="0.00000000"
         id="stop585" />
      <stop
         style="stop-color:#ffffff;stop-opacity:0;"
         offset="1.00000000"
         id="stop586" />
    </linearGradient>
    <linearGradient
       id="linearGradient578">
      <stop
         style="stop-color:#d9cce6;stop-opacity:1;"
         offset="0.00000000"
         id="stop579" />
      <stop
         style="stop-color:#73667f;stop-opacity:1;"
         offset="1.00000000"
         id="stop580" />
    </linearGradient>
    <linearGradient
       xlink:href="#linearGradient584"
       id="linearGradient581"
       x1="-0.00684932"
       y1="0.00775194"
       x2="0.97945207"
       y2="1.00000000" />
    <linearGradient
       xlink:href="#linearGradient584"
       id="linearGradient583"
       x1="0.01094890"
       y1="0.01030928"
       x2="1.01459849"
       y2="0.96907216" />
    <linearGradient
       xlink:href="#linearGradient584"
       id="linearGradient860"
       x1="-0.02500000"
       y1="0.03100775"
       x2="0.97500002"
       y2="0.97674417" />
    <linearGradient
       xlink:href="#linearGradient578"
       id="linearGradient861"
       x1="0.00000000"
       y1="0.02325581"
       x2="0.98611110"
       y2="0.97674417" />
    <linearGradient
       xlink:href="#linearGradient578"
       id="linearGradient862"
       x1="-0.00000000"
       y1="0.00775194"
       x2="1.00000000"
       y2="0.99224806" />
    <linearGradient
       xlink:href="#linearGradient578"
       id="linearGradient869"
       x1="-0.00684932"
       y1="0.00775194"
       x2="0.97945207"
       y2="1.00000000" />
  </defs>
  <sodipodi:namedview
     id="base"
     pagecolor="#ffffff"
     bordercolor="#666666"
     borderopacity="1.0"
     inkscape:pageopacity="0.0"
     inkscape:pageshadow="2"
     inkscape:zoom="5.64233871"
     inkscape:cx="30.8991131"
     inkscape:cy="23.4072540"
     inkscape:window-width="640"
     inkscape:window-height="516"
     inkscape:window-x="204"
     inkscape:window-y="142" />
  <path
     d="M 9.8768697 57.910302 C 1.4237103 54.296461 0.17089942 23.512742 1.9162424 10.537822 C 2.4763527 6.3734464 14.52173 5.0568747 18.359683 5.5788254 C 19.959442 5.7964421 19.931323 13.04668 21.752715 13.017379 C 30.76303 12.87266 42.854131 2.3670243 49.288722 5.9703455 C 54.816925 9.0661294 58.838827 31.893125 54.24772 37.943636 C 45.701579 49.206441 18.823981 61.735257 9.8768697 57.910302 z "
     style="font-size:12;opacity:0.302675;fill-rule:evenodd;stroke-width:18.75;stroke-linecap:round;stroke-linejoin:round;"
     id="path574" />
  <path
     d="M 10.744124 54.364943 C 3.0832161 51.089821 1.9478176 23.191386 3.5296061 11.432576 C 4.0372719 7.6585187 14.953633 6.465347 18.431864 6.9383715 C 19.881679 7.1355945 19.856197 13.706286 21.506874 13.679735 C 29.672677 13.548572 40.630504 4.0275973 46.461991 7.293197 C 51.472056 10.098824 55.11699 30.786295 50.956197 36.269706 C 43.211067 46.476876 18.852644 57.831396 10.744124 54.364943 z "
     style="font-size:12;fill:url(#linearGradient862);fill-rule:evenodd;stroke:#261933;stroke-width:1.875;stroke-linecap:round;stroke-linejoin:round;stroke-dasharray:none;"
     id="path562" />
  <path
     d="M 10.862328 51.88138 C 6.039637 48.008385 3.5836441 21.58996 5.7767836 12.378743 C 6.5403971 9.1715044 17.252718 8.6075694 17.603902 9.7768704 C 14.62504 9.9044924 10.148394 12.728426 9.4431338 15.690372 C 7.1915879 25.146889 10.199359 49.300066 10.862328 51.88138 z "
     style="font-size:12;opacity:0.7;fill:url(#linearGradient860);fill-rule:evenodd;stroke:none;stroke-width:1pt;"
     id="path567" />
  <path
     d="M 23.399098 15.808682 C 34.268165 13.844515 42.3315 7.3605467 44.569665 9.1855304 C 45.175353 9.7068474 36.71597 14.454695 31.559867 16.163619 C 29.816788 16.741251 22.879279 15.901621 23.399098 15.808682 z "
     style="font-size:12;opacity:0.699936;fill:url(#linearGradient583);fill-rule:evenodd;stroke:none;stroke-width:1pt;"
     id="path568" />
  <path
     d="M 27.632485 14.548558 C 25.196551 9.513859 20.877204 6.406742 15.212563 6.053317 C 7.9325262 6.438393 5.2264912 13.524118 6.1079082 21.344159 C 9.5138812 35.962918 16.596992 40.760181 27.536615 48.586504 C 39.677208 40.679993 46.795368 36.169701 49.96733 21.562543 C 49.81685 13.785765 48.590124 6.559725 39.829754 6.217913 C 32.53529 6.241104 29.456083 9.476934 27.632485 14.548558 z "
     style="font-size:12;fill-opacity:0.25;fill-rule:evenodd;stroke-width:1.875;stroke-opacity:0.25;"
     id="path623" />
  <path
     d="M 26.134995 11.901323 C 23.699061 6.866623 19.379714 3.759507 13.715073 3.406082 C 6.4350362 3.791158 3.7290012 10.876882 4.6104182 18.696924 C 8.0163922 33.315683 15.099503 38.112946 26.039126 45.939269 C 38.179718 38.032758 45.297878 33.522466 48.46984 18.915308 C 49.408438 11.13853 47.092634 3.91249 38.332264 3.570678 C 31.0378 3.593869 27.958593 6.829699 26.134995 11.901323 z "
     style="font-size:12;fill:url(#linearGradient869);fill-rule:evenodd;stroke:#261933;stroke-width:1.56229;"
     id="path618" />
  <path
     d="M 14.657204 4.909046 C 12.14324 5.057307 8.6780102 6.244049 7.2421492 10.091902 C 5.5072272 14.473734 5.8016742 18.595946 7.1742242 22.263821 C 7.1832382 18.366922 8.5964572 13.594758 10.702765 10.38493 C 12.741095 8.43648 14.842189 7.163707 21.473982 8.453607 C 18.593374 5.461193 16.690973 5.209894 14.657204 4.909046 z "
     style="font-size:12;fill:url(#linearGradient583);fill-opacity:1.00;fill-rule:evenodd;stroke-width:1pt;"
     id="path619" />
  <path
     d="M 26.252997 12.588999 C 26.252997 22.655269 26.098034 35.795641 26.098034 45.861911 C 33.123462 40.844075 35.77867 40.44449 41.548489 33.682648 C 44.239078 30.959554 47.367222 23.78458 48.353772 19.501061 C 47.875445 16.472001 48.455567 10.314885 44.210415 5.450031 C 38.02206 3.491851 31.849608 0.96722503 26.252997 12.588999 z "
     style="font-size:12;fill:#261e2e;fill-opacity:0.1;fill-rule:evenodd;stroke-width:1pt;"
     id="path622" />
  <path
     d="M 45.106402 24.753541 C 41.412412 33.070558 39.939036 33.456615 37.48761 36.317394 C 33.959949 39.438243 31.867854 40.988919 27.802075 43.375451 C 31.539004 40.254601 32.969735 38.796314 35.594671 36.318293 C 39.185201 32.175458 40.978343 31.371099 45.106402 24.753541 z "
     style="font-size:12;fill:url(#linearGradient612);fill-opacity:1.00;fill-rule:evenodd;stroke-width:1pt;"
     id="path620" />
  <path
     d="M 37.589347 5.074327 C 35.075384 5.222588 29.026249 7.070456 27.751883 12.571124 C 32.315225 8.523601 33.70877 8.140469 36.380306 7.244582 C 39.145358 6.783666 40.600478 6.833144 45.213595 8.370966 C 42.332987 5.378552 39.946105 4.961971 37.589347 5.074327 z "
     style="font-size:12;fill:url(#linearGradient583);fill-opacity:1.00;fill-rule:evenodd;stroke-width:1pt;"
     id="path591" />
  <path
     d="M 11.381933 54.595249 C 9.3091908 54.263444 12.813712 35.003755 18.110503 29.85643 C 26.640549 21.566968 48.364878 16.461082 57.416774 18.649773 C 61.968795 19.750546 54.900072 31.607302 50.688206 36.698301 C 41.718212 47.659024 19.917012 55.859727 11.381933 54.595249 z "
     style="font-size:12;fill:url(#linearGradient861);fill-rule:evenodd;stroke:#261933;stroke-width:1.875;stroke-linecap:round;stroke-linejoin:round;stroke-dasharray:none;"
     id="path576"
     sodipodi:nodetypes="ccccc" />
  <path
     d="M 13.751817 51.291072 C 12.121257 44.581242 17.612025 34.674172 19.743975 32.077541 C 29.832824 24.18509 52.728249 19.866576 54.686319 20.792718 C 39.205913 23.099298 32.099128 27.134875 22.483698 33.777483 C 18.462523 38.390104 13.989536 45.120555 13.751817 51.291072 z "
     style="font-size:12;opacity:0.7;fill:url(#linearGradient581);fill-rule:evenodd;stroke:none;stroke-width:1.25;"
     id="path577"
     sodipodi:nodetypes="ccccc" />
</svg>
