<?xml version="1.0" encoding="UTF-8" standalone="no"?>
<!DOCTYPE svg PUBLIC "-//W3C//DTD SVG 20010904//EN"
"http://www.w3.org/TR/2001/REC-SVG-20010904/DTD/svg10.dtd">
<!-- Created with Inkscape (http://www.inkscape.org/) -->
<svg
   id="svg1"
   sodipodi:version="0.32"
   inkscape:version="0.37"
   width="48pt"
   height="48pt"
   sodipodi:docbase="/home/tom"
   sodipodi:docname="folder_video.svg"
   xmlns="http://www.w3.org/2000/svg"
   xmlns:inkscape="http://www.inkscape.org/namespaces/inkscape"
   xmlns:sodipodi="http://sodipodi.sourceforge.net/DTD/sodipodi-0.dtd"
   xmlns:xlink="http://www.w3.org/1999/xlink">
  <defs
     id="defs3">
    <linearGradient
       id="linearGradient642">
      <stop
         style="stop-color:#d9cce6;stop-opacity:1;"
         offset="0.00000000"
         id="stop643" />
      <stop
         style="stop-color:#73667f;stop-opacity:1;"
         offset="1.00000000"
         id="stop644" />
    </linearGradient>
    <linearGradient
       id="linearGradient866">
      <stop
         style="stop-color:#ffffff;stop-opacity:1;"
         offset="0.00000000"
         id="stop867" />
      <stop
         style="stop-color:#d9cce6;stop-opacity:1;"
         offset="1.00000000"
         id="stop868" />
    </linearGradient>
    <linearGradient
       id="linearGradient584">
      <stop
         style="stop-color:#ffffff;stop-opacity:1;"
         offset="0.00000000"
         id="stop585" />
      <stop
         style="stop-color:#ffffff;stop-opacity:0;"
         offset="1.00000000"
         id="stop586" />
    </linearGradient>
    <linearGradient
       xlink:href="#linearGradient642"
       id="linearGradient586"
       x1="-0.00000000"
       y1="0.00000000"
       x2="1.00000000"
       y2="0.00000000" />
    <linearGradient
       xlink:href="#linearGradient584"
       id="linearGradient587"
       x1="0.00000000"
       y1="0.00000000"
       x2="1.00000000"
       y2="0.00000000" />
    <linearGradient
       xlink:href="#linearGradient642"
       id="linearGradient638" />
    <radialGradient
       xlink:href="#linearGradient642"
       id="radialGradient639" />
    <linearGradient
       xlink:href="#linearGradient584"
       id="linearGradient640" />
    <linearGradient
       xlink:href="#linearGradient584"
       id="linearGradient641" />
    <linearGradient
       xlink:href="#linearGradient584"
       id="linearGradient645"
       x1="0.01492537"
       y1="0.00781250"
       x2="0.97761196"
       y2="0.97656250" />
    <linearGradient
       xlink:href="#linearGradient584"
       id="linearGradient822"
       x1="-0.00000000"
       y1="-0.00000000"
       x2="0.99270076"
       y2="1.00000000" />
    <linearGradient
       xlink:href="#linearGradient584"
       id="linearGradient823"
       x1="-0.00000000"
       y1="-0.00000000"
       x2="0.98540145"
       y2="1.00000000" />
    <linearGradient
       xlink:href="#linearGradient584"
       id="linearGradient824"
       x1="0.00000000"
       y1="-0.00000000"
       x2="0.98905110"
       y2="0.96551722" />
    <linearGradient
       xlink:href="#linearGradient584"
       id="linearGradient825"
       x1="0.00000000"
       y1="0.01587302"
       x2="0.99635035"
       y2="0.99206346" />
    <linearGradient
       xlink:href="#linearGradient642"
       id="linearGradient826"
       x1="-0.00423729"
       y1="0.00781250"
       x2="0.98728812"
       y2="0.97656250" />
    <linearGradient
       xlink:href="#linearGradient642"
       id="linearGradient827"
       x1="-0.00000000"
       y1="0.00000000"
       x2="0.96666664"
       y2="0.97656250" />
    <linearGradient
       xlink:href="#linearGradient642"
       id="linearGradient828"
       x1="-0.00000000"
       y1="-0.00000000"
       x2="0.99583334"
       y2="1.02343750" />
  </defs>
  <sodipodi:namedview
     id="base"
     pagecolor="#ffffff"
     bordercolor="#666666"
     borderopacity="1.0"
     inkscape:pageopacity="0.0"
     inkscape:pageshadow="2"
     inkscape:zoom="2"
     inkscape:cx="24.6882172"
     inkscape:cy="28.5163116"
     inkscape:window-width="1018"
     inkscape:window-height="711"
     inkscape:window-x="0"
     inkscape:window-y="30" />
  <path
     d="M 10.346826 57.596998 C 1.893666 53.983157 0.64085502 23.199438 2.386198 10.224518 C 2.946309 6.0601427 14.991686 4.7435707 18.829639 5.2655217 C 20.429398 5.4831377 20.401279 12.733376 22.222671 12.704075 C 31.232986 12.559356 43.324087 2.0537197 49.758678 5.6570417 C 55.286881 8.7528257 59.308778 31.579821 54.717681 37.630332 C 46.171535 48.893137 19.293937 61.421953 10.346826 57.596998 z "
     style="font-size:12;opacity:0.302675;fill-rule:evenodd;stroke-width:18.75;stroke-linecap:round;stroke-linejoin:round;"
     id="path574" />
  <path
     d="M 11.21408 54.051639 C 3.553172 50.776517 2.417773 22.878082 3.999562 11.119272 C 4.507228 7.3452147 15.423589 6.1520427 18.90182 6.6250677 C 20.351635 6.8222907 20.326153 13.392982 21.97683 13.366431 C 30.142633 13.235268 41.10046 3.7142927 46.931947 6.9798927 C 51.942012 9.7855197 55.586951 30.472991 51.426153 35.956402 C 43.681023 46.163572 19.3226 57.518092 11.21408 54.051639 z "
     style="font-size:12;fill:url(#linearGradient638);fill-rule:evenodd;stroke:#261933;stroke-width:1.875;stroke-linecap:round;stroke-linejoin:round;stroke-dasharray:none;"
     id="path562" />
  <path
     d="M 11.332284 51.568076 C 6.509593 47.695081 4.0536 21.276656 6.246739 12.065439 C 7.010353 8.8582007 17.722674 8.2942657 18.073858 9.4635667 C 15.094996 9.5911887 10.61835 12.415122 9.91309 15.377068 C 7.661544 24.833585 10.669315 48.986762 11.332284 51.568076 z "
     style="font-size:12;opacity:0.7;fill:url(#linearGradient587);fill-rule:evenodd;stroke:none;stroke-width:1pt;"
     id="path567" />
  <path
     d="M 24.090504 14.08551 C 34.959571 12.121343 43.022905 5.637375 45.26107 7.462359 C 45.866758 7.983676 37.407376 12.731523 32.251273 14.440447 C 30.508194 15.018079 23.570685 14.178449 24.090504 14.08551 z "
     style="font-size:12;opacity:0.699936;fill:url(#linearGradient640);fill-rule:evenodd;stroke:none;stroke-width:1pt;"
     id="path568" />
  <path
     d="M 34.684597 31.179477 C 35.300478 29.05387 27.512217 26.312003 26.653095 23.19231 C 25.808643 20.12593 31.011136 15.349908 29.573692 12.621198 C 27.360491 8.4199469 20.625198 3.8504079 15.700993 2.4022889 C 14.429575 1.9925819 0.30901926 6.8311639 0.13174226 7.8200659 C 0.0025962564 10.391804 10.616462 13.894069 12.787479 17.80401 C 13.942651 19.884398 9.1493633 23.505878 10.110374 25.791054 C 11.948215 30.1618 17.255307 35.82047 21.184031 37.771711 C 21.993 38.233969 34.425519 31.956128 34.684597 31.179477 z M 8.2302213 10.381433 C 8.3023833 10.664075 7.2664923 11.22354 6.8223233 11.142903 C 6.1913233 11.02843 5.1129953 10.220537 5.0045273 9.7962239 C 4.9334423 9.5182009 5.8692803 8.9609449 6.2835353 9.0361439 C 6.9443843 9.1559949 8.1228943 9.9618649 8.2302213 10.381433 z M 12.092794 12.768242 C 12.188357 13.043864 11.202935 13.68808 10.753578 13.644883 C 10.115181 13.583598 8.9730353 12.868738 8.8294693 12.454988 C 8.7353623 12.183919 9.6213013 11.550329 10.040425 11.590554 C 10.70899 11.654684 11.950744 12.359172 12.092794 12.768242 z M 15.881747 15.871428 C 15.894588 16.162862 14.766104 16.498503 14.347862 16.328692 C 13.753611 16.087474 12.863437 15.075993 12.844146 14.638464 C 12.831434 14.351836 13.861509 13.997916 14.251666 14.15622 C 14.873998 14.40882 15.862584 15.438831 15.881747 15.871428 z M 15.532825 21.109835 C 15.274214 21.244738 14.492568 20.364365 14.46942 19.913555 C 14.436407 19.273069 14.976142 18.038524 15.364403 17.835886 C 15.61871 17.70307 16.375376 18.48649 16.397008 18.907006 C 16.431537 19.577785 15.916723 20.909348 15.532825 21.109835 z M 13.490576 24.894047 C 13.231966 25.028948 12.450316 24.148577 12.427171 23.697765 C 12.394158 23.057281 12.933892 21.822736 13.322152 21.620098 C 13.576462 21.487283 14.333128 22.270702 14.354756 22.691219 C 14.389288 23.361995 13.874473 24.69356 13.490576 24.894047 z M 15.546801 28.438178 C 15.518593 28.728538 14.354188 28.902461 13.963902 28.6756 C 13.409367 28.353431 12.670031 27.227034 12.712342 26.791087 C 12.739981 26.505533 13.809519 26.299607 14.173623 26.511161 C 14.75434 26.848638 15.588542 28.007099 15.546801 28.438178 z M 18.544622 31.552812 C 18.571819 31.843297 17.461232 32.234091 17.03515 32.085085 C 16.429704 31.873467 15.490893 30.907079 15.449972 30.470941 C 15.423222 30.185326 16.434572 29.781001 16.832069 29.920013 C 17.466102 30.141622 18.504208 31.121608 18.544622 31.552812 z M 22.203165 34.524198 C 22.272227 34.807661 21.230074 35.355492 20.786854 35.269856 C 20.157122 35.148364 19.088025 34.328389 18.984302 33.902815 C 18.916376 33.624094 19.858349 33.077337 20.271848 33.157152 C 20.931305 33.284466 22.100582 34.103428 22.203165 34.524198 z M 18.555499 5.1707459 C 18.658465 5.4436789 17.69037 6.1138709 17.240064 6.0826659 C 16.600212 6.0384559 15.439601 5.3540359 15.285156 4.9441709 C 15.183965 4.6757689 16.052572 4.0188239 16.472773 4.0479279 C 17.142856 4.0942879 18.402762 4.7655139 18.555499 5.1707459 z M 22.136633 7.6772589 C 22.168317 7.9672389 21.06374 8.3750409 20.635446 8.2326149 C 20.026772 8.0303569 19.073353 7.0783269 19.025855 6.6428839 C 18.994737 6.3577119 19.999702 5.9379979 20.399351 6.0708749 C 21.036735 6.2827349 22.089704 7.2467499 22.136633 7.6772589 z M 25.680574 10.620562 C 25.712259 10.91054 24.607683 11.318347 24.179388 11.175917 C 23.570714 10.97366 22.617295 10.02163 22.569798 9.5861869 C 22.53868 9.3010159 23.543647 8.8812559 23.943293 9.0141349 C 24.580677 9.2260059 25.633646 10.190053 25.680574 10.620562 z M 27.546306 14.76508 C 27.440812 15.037037 26.272613 14.890054 25.958094 14.566301 C 25.511078 14.10632 25.103526 12.822126 25.261952 12.413754 C 25.365741 12.146289 26.451089 12.236793 26.744547 12.538851 C 27.212624 13.02059 27.703026 14.361322 27.546306 14.76508 z M 25.806305 19.561973 C 25.541119 19.683468 24.80583 18.763882 24.805957 18.312503 C 24.80602 17.671069 25.40881 16.466124 25.807001 16.283723 C 26.067887 16.164254 26.783064 16.985619 26.783 17.406768 C 26.782874 18.078431 26.200069 19.381662 25.806305 19.561973 z M 24.760102 23.876431 C 24.538936 24.066672 23.577671 23.386788 23.452701 22.953053 C 23.275044 22.336729 23.520372 21.18187 23.85241 20.896257 C 24.069972 20.709176 24.984752 21.130327 25.101375 21.534968 C 25.287378 22.180386 25.088472 23.594043 24.760102 23.876431 z M 27.657363 26.636515 C 27.726428 26.919978 26.684275 27.467806 26.241052 27.382175 C 25.61132 27.260681 24.542224 26.440707 24.438502 26.015131 C 24.370576 25.736409 25.31255 25.189654 25.726047 25.269469 C 26.385505 25.396783 27.554781 26.215743 27.657363 26.636515 z M 31.201244 29.459651 C 31.270308 29.743117 30.228154 30.290945 29.784932 30.205312 C 29.155263 30.083816 28.086164 29.263846 27.982445 28.838266 C 27.914519 28.559547 28.856493 28.01279 29.269989 28.092607 C 29.929384 28.219919 31.098661 29.038881 31.201244 29.459651 z "
     style="font-size:12;opacity:0.302675;fill-rule:evenodd;stroke-width:1.25;"
     id="path738" />
  <path
     d="M 35.914433 30.285062 C 36.530315 28.159458 28.742018 25.417591 27.882896 22.297896 C 27.038448 19.231518 32.240969 14.455495 30.803495 11.726782 C 28.590294 7.5255329 21.854999 2.9559809 16.930795 1.5078649 C 15.659378 1.0981549 1.5388203 5.9367519 1.3615443 6.9256539 C 1.2323983 9.4973919 11.846263 12.999653 14.017279 16.909597 C 15.172453 18.989984 10.379167 22.611465 11.340177 24.896639 C 13.178018 29.267386 18.485109 34.926056 22.413833 36.877296 C 23.222802 37.339555 35.655353 31.061715 35.914433 30.285062 z M 9.4600243 9.4870179 C 9.5321863 9.7696629 8.4962933 10.329128 8.0521243 10.248492 C 7.4211273 10.134018 6.3427953 9.3261229 6.2343323 8.9018109 C 6.1632443 8.6237849 7.0990823 8.0665339 7.5133403 8.1417309 C 8.1741863 8.2615799 9.3526983 9.0674499 9.4600243 9.4870179 z M 13.322596 11.873828 C 13.418158 12.149451 12.432736 12.793666 11.98338 12.750468 C 11.344983 12.689186 10.202838 11.974324 10.059271 11.560575 C 9.9651633 11.289507 10.851102 10.655917 11.270227 10.69614 C 11.938792 10.760271 13.180546 11.464759 13.322596 11.873828 z M 17.111549 14.977017 C 17.124388 15.26845 15.995907 15.604091 15.577668 15.434277 C 14.983414 15.193059 14.093239 14.181582 14.073948 13.74405 C 14.061236 13.457424 15.09131 13.103504 15.481469 13.261808 C 16.103801 13.514408 17.092388 14.544418 17.111549 14.977017 z M 16.762626 20.215423 C 16.504016 20.350324 15.722371 19.469953 15.699223 19.019139 C 15.666209 18.378656 16.205943 17.144112 16.594204 16.941474 C 16.848513 16.808659 17.605178 17.592076 17.626809 18.012595 C 17.661339 18.683371 17.146524 20.014936 16.762626 20.215423 z M 14.720378 23.999633 C 14.461767 24.134535 13.680122 23.254162 13.656972 22.80335 C 13.623959 22.162867 14.163693 20.928322 14.551956 20.725683 C 14.806264 20.59287 15.562928 21.376287 15.584559 21.796805 C 15.619091 22.467583 15.104275 23.799146 14.720378 23.999633 z M 16.776604 27.543766 C 16.748398 27.834123 15.58399 28.008048 15.193703 27.781188 C 14.639169 27.459018 13.899836 26.332622 13.942145 25.896672 C 13.969783 25.611121 15.039322 25.405194 15.403425 25.61675 C 15.984143 25.954225 16.818346 27.112686 16.776604 27.543766 z M 19.774422 30.6584 C 19.80162 30.948886 18.691035 31.339679 18.264951 31.190671 C 17.659507 30.979054 16.720695 30.012667 16.679774 29.576529 C 16.653022 29.290912 17.664375 28.886586 18.061871 29.025599 C 18.695904 29.247211 19.734009 30.227195 19.774422 30.6584 z M 23.432967 33.629785 C 23.502031 33.913249 22.459878 34.461079 22.016656 34.375445 C 21.386924 34.25395 20.317827 33.433977 20.214104 33.008399 C 20.14618 32.72968 21.088153 32.182926 21.50165 32.26274 C 22.161108 32.390052 23.330384 33.209013 23.432967 33.629785 z M 19.785301 4.2763209 C 19.888265 4.5492539 18.920173 5.2194449 18.469867 5.1882389 C 17.830014 5.1440309 16.669402 4.4596099 16.514958 4.0497449 C 16.413767 3.7813449 17.282376 3.1243979 17.702575 3.1535039 C 18.372659 3.1998629 19.632566 3.8710909 19.785301 4.2763209 z M 23.366433 6.7828449 C 23.39812 7.0728249 22.293542 7.4806289 21.865246 7.3381999 C 21.256574 7.1359449 20.303154 6.1839329 20.255658 5.7484899 C 20.224539 5.4633179 21.229506 5.0435719 21.629152 5.1764499 C 22.266536 5.3883079 23.319505 6.3523349 23.366433 6.7828449 z M 26.910376 9.7261489 C 26.942063 10.016128 25.837485 10.423933 25.409189 10.281505 C 24.80052 10.079246 23.847097 9.1272179 23.799599 8.6917749 C 23.768484 8.4066019 24.773449 7.9868439 25.173094 8.1197219 C 25.81048 8.3315919 26.863448 9.2956399 26.910376 9.7261489 z M 28.776108 13.870669 C 28.670616 14.142622 27.502414 13.995638 27.187896 13.671889 C 26.74088 13.211906 26.333327 11.927713 26.491757 11.519338 C 26.595542 11.251876 27.680891 11.342378 27.97435 11.64444 C 28.442426 12.126176 28.932831 13.466911 28.776108 13.870669 z M 27.036107 18.667561 C 26.770921 18.789055 26.03563 17.869469 26.035759 17.418089 C 26.035821 16.776658 26.638611 15.571709 27.036801 15.389312 C 27.297691 15.269839 28.012865 16.091206 28.012802 16.512355 C 28.012675 17.184018 27.429873 18.487249 27.036107 18.667561 z M 25.989907 22.982018 C 25.768737 23.17226 24.807472 22.492375 24.682502 22.058639 C 24.504846 21.442314 24.750173 20.287459 25.082211 20.001844 C 25.299772 19.814765 26.214552 20.235913 26.331177 20.640557 C 26.517181 21.285973 26.318276 22.699629 25.989907 22.982018 z M 28.887168 25.742101 C 28.956231 26.025566 27.914077 26.573396 27.470853 26.487762 C 26.841122 26.366268 25.772026 25.546294 25.668303 25.120717 C 25.600378 24.841995 26.542351 24.295241 26.95585 24.375056 C 27.615307 24.502369 28.784584 25.32133 28.887168 25.742101 z M 32.431077 28.565239 C 32.500141 28.848702 31.457988 29.396534 31.014766 29.310898 C 30.385064 29.189406 29.315969 28.369431 29.212247 27.943854 C 29.144321 27.665133 30.086294 27.118379 30.499792 27.198193 C 31.159219 27.325508 32.328494 28.144469 32.431077 28.565239 z "
     style="font-size:12;fill:#261e2e;fill-rule:evenodd;stroke:#261e2e;stroke-width:0.0625;stroke-dasharray:none;stroke-opacity:1;"
     id="path737" />
  <path
     d="M 29.486539 30.067374 C 29.435187 29.051719 24.521352 25.308429 23.5482 25.220706 C 22.547535 25.118884 18.389418 25.436312 18.31479 26.527037 C 18.109241 27.525553 23.771835 32.487325 24.855226 32.756621 C 25.902059 33.136979 29.54087 31.01738 29.486539 30.067374 z "
     style="font-size:12;fill:url(#linearGradient828);fill-rule:evenodd;stroke:#261933;stroke-width:0.7875;stroke-opacity:1;stroke-dasharray:none;"
     id="path648" />
  <path
     d="M 22.717222 22.200117 C 21.920144 22.750098 17.715287 23.789344 17.092069 23.334989 C 16.417372 22.749275 19.214515 19.755694 19.296292 15.555456 C 19.316276 14.508558 24.421299 14.581606 25.021369 15.398733 C 25.33127 15.871871 23.412096 21.628383 22.717222 22.200117 z "
     style="font-size:12;fill:url(#linearGradient827);fill-rule:evenodd;stroke:#261933;stroke-width:0.7875;stroke-dasharray:none;stroke-opacity:1;"
     id="path649" />
  <path
     d="M 23.846527 11.399806 C 23.754885 12.149831 18.412124 13.219937 17.415759 12.959811 C 16.284618 12.630935 9.8822493 8.6562949 9.9867303 7.8121619 C 10.10228 6.7413569 15.503416 5.3195619 16.717279 5.4929169 C 17.947587 5.6517259 23.973839 10.483258 23.846527 11.399806 z "
     style="font-size:12;fill:url(#linearGradient826);fill-rule:evenodd;stroke:#261933;stroke-width:0.790566;stroke-opacity:1;"
     id="path650" />
  <path
     d="M 28.036329 29.474577 C 28.036329 29.316653 25.448148 26.739792 23.916095 26.126948 C 22.873056 25.709719 20.310932 26.23516 20.310932 26.384418 C 20.310932 26.535638 22.800578 26.582059 23.916095 27.028255 C 25.375669 27.612071 28.036329 29.617131 28.036329 29.474577 z "
     style="font-size:12;opacity:0.699936;fill:url(#linearGradient825);fill-rule:evenodd;stroke:none;stroke-width:0.0632452pt;"
     id="path656" />
  <path
     d="M 23.83704 17.208052 C 24.056627 17.47912 24.420855 15.919875 24.094576 15.791678 C 23.219135 15.447749 20.274756 15.555962 20.231877 15.791678 C 20.188871 16.028086 22.769587 15.920506 23.83704 17.208052 z "
     style="font-size:12;opacity:0.7;fill:url(#linearGradient824);fill-rule:evenodd;stroke:none;stroke-width:0.0632452pt;"
     id="path657" />
  <path
     d="M 21.850131 10.562313 C 21.827298 10.333744 18.522865 7.0133109 16.571122 6.4420799 C 15.003526 5.9832769 11.270735 7.2582579 11.29211 7.4721549 C 11.313613 7.6874409 15.012506 7.2358079 16.699887 7.7296879 C 18.531847 8.2658799 21.870181 10.762927 21.850131 10.562313 z "
     style="font-size:12;opacity:0.699936;fill:url(#linearGradient823);fill-rule:evenodd;stroke:none;stroke-width:0.0632452pt;"
     id="path658" />
  <path
     d="M 29.989657 12.753822 C 30.033485 10.817191 22.496495 4.6992329 17.75779 2.9683279 C 15.329048 2.0811819 8.5315213 4.6341039 8.4872503 4.8996769 C 8.4456983 5.1491369 15.106173 3.6389299 17.500255 4.5134079 C 22.273621 6.2569689 30.001674 13.009268 29.989657 12.753822 z "
     style="font-size:12;opacity:0.7;fill:url(#linearGradient822);fill-rule:evenodd;stroke:none;stroke-width:0.0632452pt;"
     id="path655" />
  <path
     d="M 34.684597 31.179477 C 35.300478 29.05387 27.512217 26.312003 26.653095 23.19231 C 25.808643 20.12593 31.011136 15.349908 29.573692 12.621198 C 27.360491 8.4199469 20.625198 3.8504079 15.700993 2.4022889 C 14.429575 1.9925819 0.30901926 6.8311639 0.13174226 7.8200659 C 0.0025962564 10.391804 10.616462 13.894069 12.787479 17.80401 C 13.942651 19.884398 9.1493633 23.505878 10.110374 25.791054 C 11.948215 30.1618 17.255307 35.82047 21.184031 37.771711 C 21.993 38.233969 34.425519 31.956128 34.684597 31.179477 z M 8.2302213 10.381433 C 8.3023833 10.664075 7.2664923 11.22354 6.8223233 11.142903 C 6.1913233 11.02843 5.1129953 10.220537 5.0045273 9.7962239 C 4.9334423 9.5182009 5.8692803 8.9609449 6.2835353 9.0361439 C 6.9443843 9.1559949 8.1228943 9.9618649 8.2302213 10.381433 z M 12.092794 12.768242 C 12.188357 13.043864 11.202935 13.68808 10.753578 13.644883 C 10.115181 13.583598 8.9730353 12.868738 8.8294693 12.454988 C 8.7353623 12.183919 9.6213013 11.550329 10.040425 11.590554 C 10.70899 11.654684 11.950744 12.359172 12.092794 12.768242 z M 15.881747 15.871428 C 15.894588 16.162862 14.766104 16.498503 14.347862 16.328692 C 13.753611 16.087474 12.863437 15.075993 12.844146 14.638464 C 12.831434 14.351836 13.861509 13.997916 14.251666 14.15622 C 14.873998 14.40882 15.862584 15.438831 15.881747 15.871428 z M 15.532825 21.109835 C 15.274214 21.244738 14.492568 20.364365 14.46942 19.913555 C 14.436407 19.273069 14.976142 18.038524 15.364403 17.835886 C 15.61871 17.70307 16.375376 18.48649 16.397008 18.907006 C 16.431537 19.577785 15.916723 20.909348 15.532825 21.109835 z M 13.490576 24.894047 C 13.231966 25.028948 12.450316 24.148577 12.427171 23.697765 C 12.394158 23.057281 12.933892 21.822736 13.322152 21.620098 C 13.576462 21.487283 14.333128 22.270702 14.354756 22.691219 C 14.389288 23.361995 13.874473 24.69356 13.490576 24.894047 z M 15.546801 28.438178 C 15.518593 28.728538 14.354188 28.902461 13.963902 28.6756 C 13.409367 28.353431 12.670031 27.227034 12.712342 26.791087 C 12.739981 26.505533 13.809519 26.299607 14.173623 26.511161 C 14.75434 26.848638 15.588542 28.007099 15.546801 28.438178 z M 18.544622 31.552812 C 18.571819 31.843297 17.461232 32.234091 17.03515 32.085085 C 16.429704 31.873467 15.490893 30.907079 15.449972 30.470941 C 15.423222 30.185326 16.434572 29.781001 16.832069 29.920013 C 17.466102 30.141622 18.504208 31.121608 18.544622 31.552812 z M 22.203165 34.524198 C 22.272227 34.807661 21.230074 35.355492 20.786854 35.269856 C 20.157122 35.148364 19.088025 34.328389 18.984302 33.902815 C 18.916376 33.624094 19.858349 33.077337 20.271848 33.157152 C 20.931305 33.284466 22.100582 34.103428 22.203165 34.524198 z M 18.555499 5.1707459 C 18.658465 5.4436789 17.69037 6.1138709 17.240064 6.0826659 C 16.600212 6.0384559 15.439601 5.3540359 15.285156 4.9441709 C 15.183965 4.6757689 16.052572 4.0188239 16.472773 4.0479279 C 17.142856 4.0942879 18.402762 4.7655139 18.555499 5.1707459 z M 22.136633 7.6772589 C 22.168317 7.9672389 21.06374 8.3750409 20.635446 8.2326149 C 20.026772 8.0303569 19.073353 7.0783269 19.025855 6.6428839 C 18.994737 6.3577119 19.999702 5.9379979 20.399351 6.0708749 C 21.036735 6.2827349 22.089704 7.2467499 22.136633 7.6772589 z M 25.680574 10.620562 C 25.712259 10.91054 24.607683 11.318347 24.179388 11.175917 C 23.570714 10.97366 22.617295 10.02163 22.569798 9.5861869 C 22.53868 9.3010159 23.543647 8.8812559 23.943293 9.0141349 C 24.580677 9.2260059 25.633646 10.190053 25.680574 10.620562 z M 27.546306 14.76508 C 27.440812 15.037037 26.272613 14.890054 25.958094 14.566301 C 25.511078 14.10632 25.103526 12.822126 25.261952 12.413754 C 25.365741 12.146289 26.451089 12.236793 26.744547 12.538851 C 27.212624 13.02059 27.703026 14.361322 27.546306 14.76508 z M 25.806305 19.561973 C 25.541119 19.683468 24.80583 18.763882 24.805957 18.312503 C 24.80602 17.671069 25.40881 16.466124 25.807001 16.283723 C 26.067887 16.164254 26.783064 16.985619 26.783 17.406768 C 26.782874 18.078431 26.200069 19.381662 25.806305 19.561973 z M 24.760102 23.876431 C 24.538936 24.066672 23.577671 23.386788 23.452701 22.953053 C 23.275044 22.336729 23.520372 21.18187 23.85241 20.896257 C 24.069972 20.709176 24.984752 21.130327 25.101375 21.534968 C 25.287378 22.180386 25.088472 23.594043 24.760102 23.876431 z M 27.657363 26.636515 C 27.726428 26.919978 26.684275 27.467806 26.241052 27.382175 C 25.61132 27.260681 24.542224 26.440707 24.438502 26.015131 C 24.370576 25.736409 25.31255 25.189654 25.726047 25.269469 C 26.385505 25.396783 27.554781 26.215743 27.657363 26.636515 z M 31.201244 29.459651 C 31.270308 29.743117 30.228154 30.290945 29.784932 30.205312 C 29.155263 30.083816 28.086164 29.263846 27.982445 28.838266 C 27.914519 28.559547 28.856493 28.01279 29.269989 28.092607 C 29.929384 28.219919 31.098661 29.038881 31.201244 29.459651 z "
     style="font-size:12;opacity:0.302675;fill-rule:evenodd;stroke-width:1.25;"
     id="path966" />
  <path
     d="M 35.914433 30.285062 C 36.530315 28.159458 28.742018 25.417591 27.882896 22.297896 C 27.038448 19.231518 32.240969 14.455495 30.803495 11.726782 C 28.590294 7.5255329 21.854999 2.9559809 16.930795 1.5078649 C 15.659378 1.0981549 1.5388203 5.9367519 1.3615443 6.9256539 C 1.2323983 9.4973919 11.846263 12.999653 14.017279 16.909597 C 15.172453 18.989984 10.379167 22.611465 11.340177 24.896639 C 13.178018 29.267386 18.485109 34.926056 22.413833 36.877296 C 23.222802 37.339555 35.655353 31.061715 35.914433 30.285062 z M 9.4600243 9.4870179 C 9.5321863 9.7696629 8.4962933 10.329128 8.0521243 10.248492 C 7.4211273 10.134018 6.3427953 9.3261229 6.2343323 8.9018109 C 6.1632443 8.6237849 7.0990823 8.0665339 7.5133403 8.1417309 C 8.1741863 8.2615799 9.3526983 9.0674499 9.4600243 9.4870179 z M 13.322596 11.873828 C 13.418158 12.149451 12.432736 12.793666 11.98338 12.750468 C 11.344983 12.689186 10.202838 11.974324 10.059271 11.560575 C 9.9651633 11.289507 10.851102 10.655917 11.270227 10.69614 C 11.938792 10.760271 13.180546 11.464759 13.322596 11.873828 z M 17.111549 14.977017 C 17.124388 15.26845 15.995907 15.604091 15.577668 15.434277 C 14.983414 15.193059 14.093239 14.181582 14.073948 13.74405 C 14.061236 13.457424 15.09131 13.103504 15.481469 13.261808 C 16.103801 13.514408 17.092388 14.544418 17.111549 14.977017 z M 16.762626 20.215423 C 16.504016 20.350324 15.722371 19.469953 15.699223 19.019139 C 15.666209 18.378656 16.205943 17.144112 16.594204 16.941474 C 16.848513 16.808659 17.605178 17.592076 17.626809 18.012595 C 17.661339 18.683371 17.146524 20.014936 16.762626 20.215423 z M 14.720378 23.999633 C 14.461767 24.134535 13.680122 23.254162 13.656972 22.80335 C 13.623959 22.162867 14.163693 20.928322 14.551956 20.725683 C 14.806264 20.59287 15.562928 21.376287 15.584559 21.796805 C 15.619091 22.467583 15.104275 23.799146 14.720378 23.999633 z M 16.776604 27.543766 C 16.748398 27.834123 15.58399 28.008048 15.193703 27.781188 C 14.639169 27.459018 13.899836 26.332622 13.942145 25.896672 C 13.969783 25.611121 15.039322 25.405194 15.403425 25.61675 C 15.984143 25.954225 16.818346 27.112686 16.776604 27.543766 z M 19.774422 30.6584 C 19.80162 30.948886 18.691035 31.339679 18.264951 31.190671 C 17.659507 30.979054 16.720695 30.012667 16.679774 29.576529 C 16.653022 29.290912 17.664375 28.886586 18.061871 29.025599 C 18.695904 29.247211 19.734009 30.227195 19.774422 30.6584 z M 23.432967 33.629785 C 23.502031 33.913249 22.459878 34.461079 22.016656 34.375445 C 21.386924 34.25395 20.317827 33.433977 20.214104 33.008399 C 20.14618 32.72968 21.088153 32.182926 21.50165 32.26274 C 22.161108 32.390052 23.330384 33.209013 23.432967 33.629785 z M 19.785301 4.2763209 C 19.888265 4.5492539 18.920173 5.2194449 18.469867 5.1882389 C 17.830014 5.1440309 16.669402 4.4596099 16.514958 4.0497449 C 16.413767 3.7813449 17.282376 3.1243979 17.702575 3.1535039 C 18.372659 3.1998629 19.632566 3.8710909 19.785301 4.2763209 z M 23.366433 6.7828449 C 23.39812 7.0728249 22.293542 7.4806289 21.865246 7.3381999 C 21.256574 7.1359449 20.303154 6.1839329 20.255658 5.7484899 C 20.224539 5.4633179 21.229506 5.0435719 21.629152 5.1764499 C 22.266536 5.3883079 23.319505 6.3523349 23.366433 6.7828449 z M 26.910376 9.7261489 C 26.942063 10.016128 25.837485 10.423933 25.409189 10.281505 C 24.80052 10.079246 23.847097 9.1272179 23.799599 8.6917749 C 23.768484 8.4066019 24.773449 7.9868439 25.173094 8.1197219 C 25.81048 8.3315919 26.863448 9.2956399 26.910376 9.7261489 z M 28.776108 13.870669 C 28.670616 14.142622 27.502414 13.995638 27.187896 13.671889 C 26.74088 13.211906 26.333327 11.927713 26.491757 11.519338 C 26.595542 11.251876 27.680891 11.342378 27.97435 11.64444 C 28.442426 12.126176 28.932831 13.466911 28.776108 13.870669 z M 27.036107 18.667561 C 26.770921 18.789055 26.03563 17.869469 26.035759 17.418089 C 26.035821 16.776658 26.638611 15.571709 27.036801 15.389312 C 27.297691 15.269839 28.012865 16.091206 28.012802 16.512355 C 28.012675 17.184018 27.429873 18.487249 27.036107 18.667561 z M 25.989907 22.982018 C 25.768737 23.17226 24.807472 22.492375 24.682502 22.058639 C 24.504846 21.442314 24.750173 20.287459 25.082211 20.001844 C 25.299772 19.814765 26.214552 20.235913 26.331177 20.640557 C 26.517181 21.285973 26.318276 22.699629 25.989907 22.982018 z M 28.887168 25.742101 C 28.956231 26.025566 27.914077 26.573396 27.470853 26.487762 C 26.841122 26.366268 25.772026 25.546294 25.668303 25.120717 C 25.600378 24.841995 26.542351 24.295241 26.95585 24.375056 C 27.615307 24.502369 28.784584 25.32133 28.887168 25.742101 z M 32.431077 28.565239 C 32.500141 28.848702 31.457988 29.396534 31.014766 29.310898 C 30.385064 29.189406 29.315969 28.369431 29.212247 27.943854 C 29.144321 27.665133 30.086294 27.118379 30.499792 27.198193 C 31.159219 27.325508 32.328494 28.144469 32.431077 28.565239 z "
     style="font-size:12;fill:#261e2e;fill-rule:evenodd;stroke:#261e2e;stroke-width:0.0625;stroke-dasharray:none;stroke-opacity:1;"
     id="path967" />
  <path
     d="M 29.486539 30.067374 C 29.435187 29.051719 24.521352 25.308429 23.5482 25.220706 C 22.547535 25.118884 18.389418 25.436312 18.31479 26.527037 C 18.109241 27.525553 23.771835 32.487325 24.855226 32.756621 C 25.902059 33.136979 29.54087 31.01738 29.486539 30.067374 z "
     style="font-size:12;fill:url(#linearGradient828);fill-rule:evenodd;stroke:#261933;stroke-width:0.7875;stroke-opacity:1;stroke-dasharray:none;"
     id="path968" />
  <path
     d="M 22.717222 22.200117 C 21.920144 22.750098 17.715287 23.789344 17.092069 23.334989 C 16.417372 22.749275 19.214515 19.755694 19.296292 15.555456 C 19.316276 14.508558 24.421299 14.581606 25.021369 15.398733 C 25.33127 15.871871 23.412096 21.628383 22.717222 22.200117 z "
     style="font-size:12;fill:url(#linearGradient827);fill-rule:evenodd;stroke:#261933;stroke-width:0.7875;stroke-dasharray:none;stroke-opacity:1;"
     id="path969" />
  <path
     d="M 23.846527 11.399806 C 23.754885 12.149831 18.412124 13.219937 17.415759 12.959811 C 16.284618 12.630935 9.8822493 8.6562949 9.9867303 7.8121619 C 10.10228 6.7413569 15.503416 5.3195619 16.717279 5.4929169 C 17.947587 5.6517259 23.973839 10.483258 23.846527 11.399806 z "
     style="font-size:12;fill:url(#linearGradient826);fill-rule:evenodd;stroke:#261933;stroke-width:0.790566;stroke-opacity:1;"
     id="path970" />
  <path
     d="M 28.036329 29.474577 C 28.036329 29.316653 25.448148 26.739792 23.916095 26.126948 C 22.873056 25.709719 20.310932 26.23516 20.310932 26.384418 C 20.310932 26.535638 22.800578 26.582059 23.916095 27.028255 C 25.375669 27.612071 28.036329 29.617131 28.036329 29.474577 z "
     style="font-size:12;opacity:0.699936;fill:url(#linearGradient825);fill-rule:evenodd;stroke:none;stroke-width:0.0632452pt;"
     id="path971" />
  <path
     d="M 23.83704 17.208052 C 24.056627 17.47912 24.420855 15.919875 24.094576 15.791678 C 23.219135 15.447749 20.274756 15.555962 20.231877 15.791678 C 20.188871 16.028086 22.769587 15.920506 23.83704 17.208052 z "
     style="font-size:12;opacity:0.7;fill:url(#linearGradient824);fill-rule:evenodd;stroke:none;stroke-width:0.0632452pt;"
     id="path972" />
  <path
     d="M 21.850131 10.562313 C 21.827298 10.333744 18.522865 7.0133109 16.571122 6.4420799 C 15.003526 5.9832769 11.270735 7.2582579 11.29211 7.4721549 C 11.313613 7.6874409 15.012506 7.2358079 16.699887 7.7296879 C 18.531847 8.2658799 21.870181 10.762927 21.850131 10.562313 z "
     style="font-size:12;opacity:0.699936;fill:url(#linearGradient823);fill-rule:evenodd;stroke:none;stroke-width:0.0632452pt;"
     id="path973" />
  <path
     d="M 29.989657 12.753822 C 30.033485 10.817191 22.496495 4.6992329 17.75779 2.9683279 C 15.329048 2.0811819 8.5315213 4.6341039 8.4872503 4.8996769 C 8.4456983 5.1491369 15.106173 3.6389299 17.500255 4.5134079 C 22.273621 6.2569689 30.001674 13.009268 29.989657 12.753822 z "
     style="font-size:12;opacity:0.7;fill:url(#linearGradient822);fill-rule:evenodd;stroke:none;stroke-width:0.0632452pt;"
     id="path974" />
  <path
     d="M 34.684597 31.179477 C 35.300478 29.05387 27.512217 26.312003 26.653095 23.19231 C 25.808643 20.12593 31.011136 15.349908 29.573692 12.621198 C 27.360491 8.4199469 20.625198 3.8504079 15.700993 2.4022889 C 14.429575 1.9925819 0.30901926 6.8311639 0.13174226 7.8200659 C 0.0025962564 10.391804 10.616462 13.894069 12.787479 17.80401 C 13.942651 19.884398 9.1493633 23.505878 10.110374 25.791054 C 11.948215 30.1618 17.255307 35.82047 21.184031 37.771711 C 21.993 38.233969 34.425519 31.956128 34.684597 31.179477 z M 8.2302213 10.381433 C 8.3023833 10.664075 7.2664923 11.22354 6.8223233 11.142903 C 6.1913233 11.02843 5.1129953 10.220537 5.0045273 9.7962239 C 4.9334423 9.5182009 5.8692803 8.9609449 6.2835353 9.0361439 C 6.9443843 9.1559949 8.1228943 9.9618649 8.2302213 10.381433 z M 12.092794 12.768242 C 12.188357 13.043864 11.202935 13.68808 10.753578 13.644883 C 10.115181 13.583598 8.9730353 12.868738 8.8294693 12.454988 C 8.7353623 12.183919 9.6213013 11.550329 10.040425 11.590554 C 10.70899 11.654684 11.950744 12.359172 12.092794 12.768242 z M 15.881747 15.871428 C 15.894588 16.162862 14.766104 16.498503 14.347862 16.328692 C 13.753611 16.087474 12.863437 15.075993 12.844146 14.638464 C 12.831434 14.351836 13.861509 13.997916 14.251666 14.15622 C 14.873998 14.40882 15.862584 15.438831 15.881747 15.871428 z M 15.532825 21.109835 C 15.274214 21.244738 14.492568 20.364365 14.46942 19.913555 C 14.436407 19.273069 14.976142 18.038524 15.364403 17.835886 C 15.61871 17.70307 16.375376 18.48649 16.397008 18.907006 C 16.431537 19.577785 15.916723 20.909348 15.532825 21.109835 z M 13.490576 24.894047 C 13.231966 25.028948 12.450316 24.148577 12.427171 23.697765 C 12.394158 23.057281 12.933892 21.822736 13.322152 21.620098 C 13.576462 21.487283 14.333128 22.270702 14.354756 22.691219 C 14.389288 23.361995 13.874473 24.69356 13.490576 24.894047 z M 15.546801 28.438178 C 15.518593 28.728538 14.354188 28.902461 13.963902 28.6756 C 13.409367 28.353431 12.670031 27.227034 12.712342 26.791087 C 12.739981 26.505533 13.809519 26.299607 14.173623 26.511161 C 14.75434 26.848638 15.588542 28.007099 15.546801 28.438178 z M 18.544622 31.552812 C 18.571819 31.843297 17.461232 32.234091 17.03515 32.085085 C 16.429704 31.873467 15.490893 30.907079 15.449972 30.470941 C 15.423222 30.185326 16.434572 29.781001 16.832069 29.920013 C 17.466102 30.141622 18.504208 31.121608 18.544622 31.552812 z M 22.203165 34.524198 C 22.272227 34.807661 21.230074 35.355492 20.786854 35.269856 C 20.157122 35.148364 19.088025 34.328389 18.984302 33.902815 C 18.916376 33.624094 19.858349 33.077337 20.271848 33.157152 C 20.931305 33.284466 22.100582 34.103428 22.203165 34.524198 z M 18.555499 5.1707459 C 18.658465 5.4436789 17.69037 6.1138709 17.240064 6.0826659 C 16.600212 6.0384559 15.439601 5.3540359 15.285156 4.9441709 C 15.183965 4.6757689 16.052572 4.0188239 16.472773 4.0479279 C 17.142856 4.0942879 18.402762 4.7655139 18.555499 5.1707459 z M 22.136633 7.6772589 C 22.168317 7.9672389 21.06374 8.3750409 20.635446 8.2326149 C 20.026772 8.0303569 19.073353 7.0783269 19.025855 6.6428839 C 18.994737 6.3577119 19.999702 5.9379979 20.399351 6.0708749 C 21.036735 6.2827349 22.089704 7.2467499 22.136633 7.6772589 z M 25.680574 10.620562 C 25.712259 10.91054 24.607683 11.318347 24.179388 11.175917 C 23.570714 10.97366 22.617295 10.02163 22.569798 9.5861869 C 22.53868 9.3010159 23.543647 8.8812559 23.943293 9.0141349 C 24.580677 9.2260059 25.633646 10.190053 25.680574 10.620562 z M 27.546306 14.76508 C 27.440812 15.037037 26.272613 14.890054 25.958094 14.566301 C 25.511078 14.10632 25.103526 12.822126 25.261952 12.413754 C 25.365741 12.146289 26.451089 12.236793 26.744547 12.538851 C 27.212624 13.02059 27.703026 14.361322 27.546306 14.76508 z M 25.806305 19.561973 C 25.541119 19.683468 24.80583 18.763882 24.805957 18.312503 C 24.80602 17.671069 25.40881 16.466124 25.807001 16.283723 C 26.067887 16.164254 26.783064 16.985619 26.783 17.406768 C 26.782874 18.078431 26.200069 19.381662 25.806305 19.561973 z M 24.760102 23.876431 C 24.538936 24.066672 23.577671 23.386788 23.452701 22.953053 C 23.275044 22.336729 23.520372 21.18187 23.85241 20.896257 C 24.069972 20.709176 24.984752 21.130327 25.101375 21.534968 C 25.287378 22.180386 25.088472 23.594043 24.760102 23.876431 z M 27.657363 26.636515 C 27.726428 26.919978 26.684275 27.467806 26.241052 27.382175 C 25.61132 27.260681 24.542224 26.440707 24.438502 26.015131 C 24.370576 25.736409 25.31255 25.189654 25.726047 25.269469 C 26.385505 25.396783 27.554781 26.215743 27.657363 26.636515 z M 31.201244 29.459651 C 31.270308 29.743117 30.228154 30.290945 29.784932 30.205312 C 29.155263 30.083816 28.086164 29.263846 27.982445 28.838266 C 27.914519 28.559547 28.856493 28.01279 29.269989 28.092607 C 29.929384 28.219919 31.098661 29.038881 31.201244 29.459651 z "
     style="font-size:12;opacity:0.302675;fill-rule:evenodd;stroke-width:1.25;"
     id="path975" />
  <path
     d="M 35.914433 30.285062 C 36.530315 28.159458 28.742018 25.417591 27.882896 22.297896 C 27.038448 19.231518 32.240969 14.455495 30.803495 11.726782 C 28.590294 7.5255329 21.854999 2.9559809 16.930795 1.5078649 C 15.659378 1.0981549 1.5388203 5.9367519 1.3615443 6.9256539 C 1.2323983 9.4973919 11.846263 12.999653 14.017279 16.909597 C 15.172453 18.989984 10.379167 22.611465 11.340177 24.896639 C 13.178018 29.267386 18.485109 34.926056 22.413833 36.877296 C 23.222802 37.339555 35.655353 31.061715 35.914433 30.285062 z M 9.4600243 9.4870179 C 9.5321863 9.7696629 8.4962933 10.329128 8.0521243 10.248492 C 7.4211273 10.134018 6.3427953 9.3261229 6.2343323 8.9018109 C 6.1632443 8.6237849 7.0990823 8.0665339 7.5133403 8.1417309 C 8.1741863 8.2615799 9.3526983 9.0674499 9.4600243 9.4870179 z M 13.322596 11.873828 C 13.418158 12.149451 12.432736 12.793666 11.98338 12.750468 C 11.344983 12.689186 10.202838 11.974324 10.059271 11.560575 C 9.9651633 11.289507 10.851102 10.655917 11.270227 10.69614 C 11.938792 10.760271 13.180546 11.464759 13.322596 11.873828 z M 17.111549 14.977017 C 17.124388 15.26845 15.995907 15.604091 15.577668 15.434277 C 14.983414 15.193059 14.093239 14.181582 14.073948 13.74405 C 14.061236 13.457424 15.09131 13.103504 15.481469 13.261808 C 16.103801 13.514408 17.092388 14.544418 17.111549 14.977017 z M 16.762626 20.215423 C 16.504016 20.350324 15.722371 19.469953 15.699223 19.019139 C 15.666209 18.378656 16.205943 17.144112 16.594204 16.941474 C 16.848513 16.808659 17.605178 17.592076 17.626809 18.012595 C 17.661339 18.683371 17.146524 20.014936 16.762626 20.215423 z M 14.720378 23.999633 C 14.461767 24.134535 13.680122 23.254162 13.656972 22.80335 C 13.623959 22.162867 14.163693 20.928322 14.551956 20.725683 C 14.806264 20.59287 15.562928 21.376287 15.584559 21.796805 C 15.619091 22.467583 15.104275 23.799146 14.720378 23.999633 z M 16.776604 27.543766 C 16.748398 27.834123 15.58399 28.008048 15.193703 27.781188 C 14.639169 27.459018 13.899836 26.332622 13.942145 25.896672 C 13.969783 25.611121 15.039322 25.405194 15.403425 25.61675 C 15.984143 25.954225 16.818346 27.112686 16.776604 27.543766 z M 19.774422 30.6584 C 19.80162 30.948886 18.691035 31.339679 18.264951 31.190671 C 17.659507 30.979054 16.720695 30.012667 16.679774 29.576529 C 16.653022 29.290912 17.664375 28.886586 18.061871 29.025599 C 18.695904 29.247211 19.734009 30.227195 19.774422 30.6584 z M 23.432967 33.629785 C 23.502031 33.913249 22.459878 34.461079 22.016656 34.375445 C 21.386924 34.25395 20.317827 33.433977 20.214104 33.008399 C 20.14618 32.72968 21.088153 32.182926 21.50165 32.26274 C 22.161108 32.390052 23.330384 33.209013 23.432967 33.629785 z M 19.785301 4.2763209 C 19.888265 4.5492539 18.920173 5.2194449 18.469867 5.1882389 C 17.830014 5.1440309 16.669402 4.4596099 16.514958 4.0497449 C 16.413767 3.7813449 17.282376 3.1243979 17.702575 3.1535039 C 18.372659 3.1998629 19.632566 3.8710909 19.785301 4.2763209 z M 23.366433 6.7828449 C 23.39812 7.0728249 22.293542 7.4806289 21.865246 7.3381999 C 21.256574 7.1359449 20.303154 6.1839329 20.255658 5.7484899 C 20.224539 5.4633179 21.229506 5.0435719 21.629152 5.1764499 C 22.266536 5.3883079 23.319505 6.3523349 23.366433 6.7828449 z M 26.910376 9.7261489 C 26.942063 10.016128 25.837485 10.423933 25.409189 10.281505 C 24.80052 10.079246 23.847097 9.1272179 23.799599 8.6917749 C 23.768484 8.4066019 24.773449 7.9868439 25.173094 8.1197219 C 25.81048 8.3315919 26.863448 9.2956399 26.910376 9.7261489 z M 28.776108 13.870669 C 28.670616 14.142622 27.502414 13.995638 27.187896 13.671889 C 26.74088 13.211906 26.333327 11.927713 26.491757 11.519338 C 26.595542 11.251876 27.680891 11.342378 27.97435 11.64444 C 28.442426 12.126176 28.932831 13.466911 28.776108 13.870669 z M 27.036107 18.667561 C 26.770921 18.789055 26.03563 17.869469 26.035759 17.418089 C 26.035821 16.776658 26.638611 15.571709 27.036801 15.389312 C 27.297691 15.269839 28.012865 16.091206 28.012802 16.512355 C 28.012675 17.184018 27.429873 18.487249 27.036107 18.667561 z M 25.989907 22.982018 C 25.768737 23.17226 24.807472 22.492375 24.682502 22.058639 C 24.504846 21.442314 24.750173 20.287459 25.082211 20.001844 C 25.299772 19.814765 26.214552 20.235913 26.331177 20.640557 C 26.517181 21.285973 26.318276 22.699629 25.989907 22.982018 z M 28.887168 25.742101 C 28.956231 26.025566 27.914077 26.573396 27.470853 26.487762 C 26.841122 26.366268 25.772026 25.546294 25.668303 25.120717 C 25.600378 24.841995 26.542351 24.295241 26.95585 24.375056 C 27.615307 24.502369 28.784584 25.32133 28.887168 25.742101 z M 32.431077 28.565239 C 32.500141 28.848702 31.457988 29.396534 31.014766 29.310898 C 30.385064 29.189406 29.315969 28.369431 29.212247 27.943854 C 29.144321 27.665133 30.086294 27.118379 30.499792 27.198193 C 31.159219 27.325508 32.328494 28.144469 32.431077 28.565239 z "
     style="font-size:12;fill:#261e2e;fill-rule:evenodd;stroke:#261e2e;stroke-width:0.0625;stroke-dasharray:none;stroke-opacity:1;"
     id="path976" />
  <path
     d="M 29.486539 30.067374 C 29.435187 29.051719 24.521352 25.308429 23.5482 25.220706 C 22.547535 25.118884 18.389418 25.436312 18.31479 26.527037 C 18.109241 27.525553 23.771835 32.487325 24.855226 32.756621 C 25.902059 33.136979 29.54087 31.01738 29.486539 30.067374 z "
     style="font-size:12;fill:url(#linearGradient828);fill-rule:evenodd;stroke:#261933;stroke-width:0.7875;stroke-opacity:1;stroke-dasharray:none;"
     id="path977" />
  <path
     d="M 22.717222 22.200117 C 21.920144 22.750098 17.715287 23.789344 17.092069 23.334989 C 16.417372 22.749275 19.214515 19.755694 19.296292 15.555456 C 19.316276 14.508558 24.421299 14.581606 25.021369 15.398733 C 25.33127 15.871871 23.412096 21.628383 22.717222 22.200117 z "
     style="font-size:12;fill:url(#linearGradient827);fill-rule:evenodd;stroke:#261933;stroke-width:0.7875;stroke-dasharray:none;stroke-opacity:1;"
     id="path978" />
  <path
     d="M 23.846527 11.399806 C 23.754885 12.149831 18.412124 13.219937 17.415759 12.959811 C 16.284618 12.630935 9.8822493 8.6562949 9.9867303 7.8121619 C 10.10228 6.7413569 15.503416 5.3195619 16.717279 5.4929169 C 17.947587 5.6517259 23.973839 10.483258 23.846527 11.399806 z "
     style="font-size:12;fill:url(#linearGradient826);fill-rule:evenodd;stroke:#261933;stroke-width:0.790566;stroke-opacity:1;"
     id="path979" />
  <path
     d="M 28.036329 29.474577 C 28.036329 29.316653 25.448148 26.739792 23.916095 26.126948 C 22.873056 25.709719 20.310932 26.23516 20.310932 26.384418 C 20.310932 26.535638 22.800578 26.582059 23.916095 27.028255 C 25.375669 27.612071 28.036329 29.617131 28.036329 29.474577 z "
     style="font-size:12;opacity:0.699936;fill:url(#linearGradient825);fill-rule:evenodd;stroke:none;stroke-width:0.0632452pt;"
     id="path980" />
  <path
     d="M 23.83704 17.208052 C 24.056627 17.47912 24.420855 15.919875 24.094576 15.791678 C 23.219135 15.447749 20.274756 15.555962 20.231877 15.791678 C 20.188871 16.028086 22.769587 15.920506 23.83704 17.208052 z "
     style="font-size:12;opacity:0.7;fill:url(#linearGradient824);fill-rule:evenodd;stroke:none;stroke-width:0.0632452pt;"
     id="path981" />
  <path
     d="M 21.850131 10.562313 C 21.827298 10.333744 18.522865 7.0133109 16.571122 6.4420799 C 15.003526 5.9832769 11.270735 7.2582579 11.29211 7.4721549 C 11.313613 7.6874409 15.012506 7.2358079 16.699887 7.7296879 C 18.531847 8.2658799 21.870181 10.762927 21.850131 10.562313 z "
     style="font-size:12;opacity:0.699936;fill:url(#linearGradient823);fill-rule:evenodd;stroke:none;stroke-width:0.0632452pt;"
     id="path982" />
  <path
     d="M 29.989657 12.753822 C 30.033485 10.817191 22.496495 4.6992329 17.75779 2.9683279 C 15.329048 2.0811819 8.5315213 4.6341039 8.4872503 4.8996769 C 8.4456983 5.1491369 15.106173 3.6389299 17.500255 4.5134079 C 22.273621 6.2569689 30.001674 13.009268 29.989657 12.753822 z "
     style="font-size:12;opacity:0.7;fill:url(#linearGradient822);fill-rule:evenodd;stroke:none;stroke-width:0.0632452pt;"
     id="path983" />
  <path
     d="M 34.684597 31.179477 C 35.300478 29.05387 27.512217 26.312003 26.653095 23.19231 C 25.808643 20.12593 31.011136 15.349908 29.573692 12.621198 C 27.360491 8.4199469 20.625198 3.8504079 15.700993 2.4022889 C 14.429575 1.9925819 0.30901926 6.8311639 0.13174226 7.8200659 C 0.0025962564 10.391804 10.616462 13.894069 12.787479 17.80401 C 13.942651 19.884398 9.1493633 23.505878 10.110374 25.791054 C 11.948215 30.1618 17.255307 35.82047 21.184031 37.771711 C 21.993 38.233969 34.425519 31.956128 34.684597 31.179477 z M 8.2302213 10.381433 C 8.3023833 10.664075 7.2664923 11.22354 6.8223233 11.142903 C 6.1913233 11.02843 5.1129953 10.220537 5.0045273 9.7962239 C 4.9334423 9.5182009 5.8692803 8.9609449 6.2835353 9.0361439 C 6.9443843 9.1559949 8.1228943 9.9618649 8.2302213 10.381433 z M 12.092794 12.768242 C 12.188357 13.043864 11.202935 13.68808 10.753578 13.644883 C 10.115181 13.583598 8.9730353 12.868738 8.8294693 12.454988 C 8.7353623 12.183919 9.6213013 11.550329 10.040425 11.590554 C 10.70899 11.654684 11.950744 12.359172 12.092794 12.768242 z M 15.881747 15.871428 C 15.894588 16.162862 14.766104 16.498503 14.347862 16.328692 C 13.753611 16.087474 12.863437 15.075993 12.844146 14.638464 C 12.831434 14.351836 13.861509 13.997916 14.251666 14.15622 C 14.873998 14.40882 15.862584 15.438831 15.881747 15.871428 z M 15.532825 21.109835 C 15.274214 21.244738 14.492568 20.364365 14.46942 19.913555 C 14.436407 19.273069 14.976142 18.038524 15.364403 17.835886 C 15.61871 17.70307 16.375376 18.48649 16.397008 18.907006 C 16.431537 19.577785 15.916723 20.909348 15.532825 21.109835 z M 13.490576 24.894047 C 13.231966 25.028948 12.450316 24.148577 12.427171 23.697765 C 12.394158 23.057281 12.933892 21.822736 13.322152 21.620098 C 13.576462 21.487283 14.333128 22.270702 14.354756 22.691219 C 14.389288 23.361995 13.874473 24.69356 13.490576 24.894047 z M 15.546801 28.438178 C 15.518593 28.728538 14.354188 28.902461 13.963902 28.6756 C 13.409367 28.353431 12.670031 27.227034 12.712342 26.791087 C 12.739981 26.505533 13.809519 26.299607 14.173623 26.511161 C 14.75434 26.848638 15.588542 28.007099 15.546801 28.438178 z M 18.544622 31.552812 C 18.571819 31.843297 17.461232 32.234091 17.03515 32.085085 C 16.429704 31.873467 15.490893 30.907079 15.449972 30.470941 C 15.423222 30.185326 16.434572 29.781001 16.832069 29.920013 C 17.466102 30.141622 18.504208 31.121608 18.544622 31.552812 z M 22.203165 34.524198 C 22.272227 34.807661 21.230074 35.355492 20.786854 35.269856 C 20.157122 35.148364 19.088025 34.328389 18.984302 33.902815 C 18.916376 33.624094 19.858349 33.077337 20.271848 33.157152 C 20.931305 33.284466 22.100582 34.103428 22.203165 34.524198 z M 18.555499 5.1707459 C 18.658465 5.4436789 17.69037 6.1138709 17.240064 6.0826659 C 16.600212 6.0384559 15.439601 5.3540359 15.285156 4.9441709 C 15.183965 4.6757689 16.052572 4.0188239 16.472773 4.0479279 C 17.142856 4.0942879 18.402762 4.7655139 18.555499 5.1707459 z M 22.136633 7.6772589 C 22.168317 7.9672389 21.06374 8.3750409 20.635446 8.2326149 C 20.026772 8.0303569 19.073353 7.0783269 19.025855 6.6428839 C 18.994737 6.3577119 19.999702 5.9379979 20.399351 6.0708749 C 21.036735 6.2827349 22.089704 7.2467499 22.136633 7.6772589 z M 25.680574 10.620562 C 25.712259 10.91054 24.607683 11.318347 24.179388 11.175917 C 23.570714 10.97366 22.617295 10.02163 22.569798 9.5861869 C 22.53868 9.3010159 23.543647 8.8812559 23.943293 9.0141349 C 24.580677 9.2260059 25.633646 10.190053 25.680574 10.620562 z M 27.546306 14.76508 C 27.440812 15.037037 26.272613 14.890054 25.958094 14.566301 C 25.511078 14.10632 25.103526 12.822126 25.261952 12.413754 C 25.365741 12.146289 26.451089 12.236793 26.744547 12.538851 C 27.212624 13.02059 27.703026 14.361322 27.546306 14.76508 z M 25.806305 19.561973 C 25.541119 19.683468 24.80583 18.763882 24.805957 18.312503 C 24.80602 17.671069 25.40881 16.466124 25.807001 16.283723 C 26.067887 16.164254 26.783064 16.985619 26.783 17.406768 C 26.782874 18.078431 26.200069 19.381662 25.806305 19.561973 z M 24.760102 23.876431 C 24.538936 24.066672 23.577671 23.386788 23.452701 22.953053 C 23.275044 22.336729 23.520372 21.18187 23.85241 20.896257 C 24.069972 20.709176 24.984752 21.130327 25.101375 21.534968 C 25.287378 22.180386 25.088472 23.594043 24.760102 23.876431 z M 27.657363 26.636515 C 27.726428 26.919978 26.684275 27.467806 26.241052 27.382175 C 25.61132 27.260681 24.542224 26.440707 24.438502 26.015131 C 24.370576 25.736409 25.31255 25.189654 25.726047 25.269469 C 26.385505 25.396783 27.554781 26.215743 27.657363 26.636515 z M 31.201244 29.459651 C 31.270308 29.743117 30.228154 30.290945 29.784932 30.205312 C 29.155263 30.083816 28.086164 29.263846 27.982445 28.838266 C 27.914519 28.559547 28.856493 28.01279 29.269989 28.092607 C 29.929384 28.219919 31.098661 29.038881 31.201244 29.459651 z "
     style="font-size:12;opacity:0.302675;fill-rule:evenodd;stroke-width:1.25;"
     id="path984" />
  <path
     d="M 35.914433 30.285062 C 36.530315 28.159458 28.742018 25.417591 27.882896 22.297896 C 27.038448 19.231518 32.240969 14.455495 30.803495 11.726782 C 28.590294 7.5255329 21.854999 2.9559809 16.930795 1.5078649 C 15.659378 1.0981549 1.5388203 5.9367519 1.3615443 6.9256539 C 1.2323983 9.4973919 11.846263 12.999653 14.017279 16.909597 C 15.172453 18.989984 10.379167 22.611465 11.340177 24.896639 C 13.178018 29.267386 18.485109 34.926056 22.413833 36.877296 C 23.222802 37.339555 35.655353 31.061715 35.914433 30.285062 z M 9.4600243 9.4870179 C 9.5321863 9.7696629 8.4962933 10.329128 8.0521243 10.248492 C 7.4211273 10.134018 6.3427953 9.3261229 6.2343323 8.9018109 C 6.1632443 8.6237849 7.0990823 8.0665339 7.5133403 8.1417309 C 8.1741863 8.2615799 9.3526983 9.0674499 9.4600243 9.4870179 z M 13.322596 11.873828 C 13.418158 12.149451 12.432736 12.793666 11.98338 12.750468 C 11.344983 12.689186 10.202838 11.974324 10.059271 11.560575 C 9.9651633 11.289507 10.851102 10.655917 11.270227 10.69614 C 11.938792 10.760271 13.180546 11.464759 13.322596 11.873828 z M 17.111549 14.977017 C 17.124388 15.26845 15.995907 15.604091 15.577668 15.434277 C 14.983414 15.193059 14.093239 14.181582 14.073948 13.74405 C 14.061236 13.457424 15.09131 13.103504 15.481469 13.261808 C 16.103801 13.514408 17.092388 14.544418 17.111549 14.977017 z M 16.762626 20.215423 C 16.504016 20.350324 15.722371 19.469953 15.699223 19.019139 C 15.666209 18.378656 16.205943 17.144112 16.594204 16.941474 C 16.848513 16.808659 17.605178 17.592076 17.626809 18.012595 C 17.661339 18.683371 17.146524 20.014936 16.762626 20.215423 z M 14.720378 23.999633 C 14.461767 24.134535 13.680122 23.254162 13.656972 22.80335 C 13.623959 22.162867 14.163693 20.928322 14.551956 20.725683 C 14.806264 20.59287 15.562928 21.376287 15.584559 21.796805 C 15.619091 22.467583 15.104275 23.799146 14.720378 23.999633 z M 16.776604 27.543766 C 16.748398 27.834123 15.58399 28.008048 15.193703 27.781188 C 14.639169 27.459018 13.899836 26.332622 13.942145 25.896672 C 13.969783 25.611121 15.039322 25.405194 15.403425 25.61675 C 15.984143 25.954225 16.818346 27.112686 16.776604 27.543766 z M 19.774422 30.6584 C 19.80162 30.948886 18.691035 31.339679 18.264951 31.190671 C 17.659507 30.979054 16.720695 30.012667 16.679774 29.576529 C 16.653022 29.290912 17.664375 28.886586 18.061871 29.025599 C 18.695904 29.247211 19.734009 30.227195 19.774422 30.6584 z M 23.432967 33.629785 C 23.502031 33.913249 22.459878 34.461079 22.016656 34.375445 C 21.386924 34.25395 20.317827 33.433977 20.214104 33.008399 C 20.14618 32.72968 21.088153 32.182926 21.50165 32.26274 C 22.161108 32.390052 23.330384 33.209013 23.432967 33.629785 z M 19.785301 4.2763209 C 19.888265 4.5492539 18.920173 5.2194449 18.469867 5.1882389 C 17.830014 5.1440309 16.669402 4.4596099 16.514958 4.0497449 C 16.413767 3.7813449 17.282376 3.1243979 17.702575 3.1535039 C 18.372659 3.1998629 19.632566 3.8710909 19.785301 4.2763209 z M 23.366433 6.7828449 C 23.39812 7.0728249 22.293542 7.4806289 21.865246 7.3381999 C 21.256574 7.1359449 20.303154 6.1839329 20.255658 5.7484899 C 20.224539 5.4633179 21.229506 5.0435719 21.629152 5.1764499 C 22.266536 5.3883079 23.319505 6.3523349 23.366433 6.7828449 z M 26.910376 9.7261489 C 26.942063 10.016128 25.837485 10.423933 25.409189 10.281505 C 24.80052 10.079246 23.847097 9.1272179 23.799599 8.6917749 C 23.768484 8.4066019 24.773449 7.9868439 25.173094 8.1197219 C 25.81048 8.3315919 26.863448 9.2956399 26.910376 9.7261489 z M 28.776108 13.870669 C 28.670616 14.142622 27.502414 13.995638 27.187896 13.671889 C 26.74088 13.211906 26.333327 11.927713 26.491757 11.519338 C 26.595542 11.251876 27.680891 11.342378 27.97435 11.64444 C 28.442426 12.126176 28.932831 13.466911 28.776108 13.870669 z M 27.036107 18.667561 C 26.770921 18.789055 26.03563 17.869469 26.035759 17.418089 C 26.035821 16.776658 26.638611 15.571709 27.036801 15.389312 C 27.297691 15.269839 28.012865 16.091206 28.012802 16.512355 C 28.012675 17.184018 27.429873 18.487249 27.036107 18.667561 z M 25.989907 22.982018 C 25.768737 23.17226 24.807472 22.492375 24.682502 22.058639 C 24.504846 21.442314 24.750173 20.287459 25.082211 20.001844 C 25.299772 19.814765 26.214552 20.235913 26.331177 20.640557 C 26.517181 21.285973 26.318276 22.699629 25.989907 22.982018 z M 28.887168 25.742101 C 28.956231 26.025566 27.914077 26.573396 27.470853 26.487762 C 26.841122 26.366268 25.772026 25.546294 25.668303 25.120717 C 25.600378 24.841995 26.542351 24.295241 26.95585 24.375056 C 27.615307 24.502369 28.784584 25.32133 28.887168 25.742101 z M 32.431077 28.565239 C 32.500141 28.848702 31.457988 29.396534 31.014766 29.310898 C 30.385064 29.189406 29.315969 28.369431 29.212247 27.943854 C 29.144321 27.665133 30.086294 27.118379 30.499792 27.198193 C 31.159219 27.325508 32.328494 28.144469 32.431077 28.565239 z "
     style="font-size:12;fill:#261e2e;fill-rule:evenodd;stroke:#261e2e;stroke-width:0.0625;stroke-dasharray:none;stroke-opacity:1;"
     id="path985" />
  <path
     d="M 29.486539 30.067374 C 29.435187 29.051719 24.521352 25.308429 23.5482 25.220706 C 22.547535 25.118884 18.389418 25.436312 18.31479 26.527037 C 18.109241 27.525553 23.771835 32.487325 24.855226 32.756621 C 25.902059 33.136979 29.54087 31.01738 29.486539 30.067374 z "
     style="font-size:12;fill:url(#linearGradient828);fill-rule:evenodd;stroke:#261933;stroke-width:0.7875;stroke-opacity:1;stroke-dasharray:none;"
     id="path986" />
  <path
     d="M 22.717222 22.200117 C 21.920144 22.750098 17.715287 23.789344 17.092069 23.334989 C 16.417372 22.749275 19.214515 19.755694 19.296292 15.555456 C 19.316276 14.508558 24.421299 14.581606 25.021369 15.398733 C 25.33127 15.871871 23.412096 21.628383 22.717222 22.200117 z "
     style="font-size:12;fill:url(#linearGradient827);fill-rule:evenodd;stroke:#261933;stroke-width:0.7875;stroke-dasharray:none;stroke-opacity:1;"
     id="path987" />
  <path
     d="M 23.846527 11.399806 C 23.754885 12.149831 18.412124 13.219937 17.415759 12.959811 C 16.284618 12.630935 9.8822493 8.6562949 9.9867303 7.8121619 C 10.10228 6.7413569 15.503416 5.3195619 16.717279 5.4929169 C 17.947587 5.6517259 23.973839 10.483258 23.846527 11.399806 z "
     style="font-size:12;fill:url(#linearGradient826);fill-rule:evenodd;stroke:#261933;stroke-width:0.790566;stroke-opacity:1;"
     id="path988" />
  <path
     d="M 28.036329 29.474577 C 28.036329 29.316653 25.448148 26.739792 23.916095 26.126948 C 22.873056 25.709719 20.310932 26.23516 20.310932 26.384418 C 20.310932 26.535638 22.800578 26.582059 23.916095 27.028255 C 25.375669 27.612071 28.036329 29.617131 28.036329 29.474577 z "
     style="font-size:12;opacity:0.699936;fill:url(#linearGradient825);fill-rule:evenodd;stroke:none;stroke-width:0.0632452pt;"
     id="path989" />
  <path
     d="M 23.83704 17.208052 C 24.056627 17.47912 24.420855 15.919875 24.094576 15.791678 C 23.219135 15.447749 20.274756 15.555962 20.231877 15.791678 C 20.188871 16.028086 22.769587 15.920506 23.83704 17.208052 z "
     style="font-size:12;opacity:0.7;fill:url(#linearGradient824);fill-rule:evenodd;stroke:none;stroke-width:0.0632452pt;"
     id="path990" />
  <path
     d="M 21.850131 10.562313 C 21.827298 10.333744 18.522865 7.0133109 16.571122 6.4420799 C 15.003526 5.9832769 11.270735 7.2582579 11.29211 7.4721549 C 11.313613 7.6874409 15.012506 7.2358079 16.699887 7.7296879 C 18.531847 8.2658799 21.870181 10.762927 21.850131 10.562313 z "
     style="font-size:12;opacity:0.699936;fill:url(#linearGradient823);fill-rule:evenodd;stroke:none;stroke-width:0.0632452pt;"
     id="path991" />
  <path
     d="M 29.989657 12.753822 C 30.033485 10.817191 22.496495 4.6992329 17.75779 2.9683279 C 15.329048 2.0811819 8.5315213 4.6341039 8.4872503 4.8996769 C 8.4456983 5.1491369 15.106173 3.6389299 17.500255 4.5134079 C 22.273621 6.2569689 30.001674 13.009268 29.989657 12.753822 z "
     style="font-size:12;opacity:0.7;fill:url(#linearGradient822);fill-rule:evenodd;stroke:none;stroke-width:0.0632452pt;"
     id="path992" />
  <path
     d="M 34.684597 31.179477 C 35.300478 29.05387 27.512217 26.312003 26.653095 23.19231 C 25.808643 20.12593 31.011136 15.349908 29.573692 12.621198 C 27.360491 8.4199469 20.625198 3.8504079 15.700993 2.4022889 C 14.429575 1.9925819 0.30901926 6.8311639 0.13174226 7.8200659 C 0.0025962564 10.391804 10.616462 13.894069 12.787479 17.80401 C 13.942651 19.884398 9.1493633 23.505878 10.110374 25.791054 C 11.948215 30.1618 17.255307 35.82047 21.184031 37.771711 C 21.993 38.233969 34.425519 31.956128 34.684597 31.179477 z M 8.2302213 10.381433 C 8.3023833 10.664075 7.2664923 11.22354 6.8223233 11.142903 C 6.1913233 11.02843 5.1129953 10.220537 5.0045273 9.7962239 C 4.9334423 9.5182009 5.8692803 8.9609449 6.2835353 9.0361439 C 6.9443843 9.1559949 8.1228943 9.9618649 8.2302213 10.381433 z M 12.092794 12.768242 C 12.188357 13.043864 11.202935 13.68808 10.753578 13.644883 C 10.115181 13.583598 8.9730353 12.868738 8.8294693 12.454988 C 8.7353623 12.183919 9.6213013 11.550329 10.040425 11.590554 C 10.70899 11.654684 11.950744 12.359172 12.092794 12.768242 z M 15.881747 15.871428 C 15.894588 16.162862 14.766104 16.498503 14.347862 16.328692 C 13.753611 16.087474 12.863437 15.075993 12.844146 14.638464 C 12.831434 14.351836 13.861509 13.997916 14.251666 14.15622 C 14.873998 14.40882 15.862584 15.438831 15.881747 15.871428 z M 15.532825 21.109835 C 15.274214 21.244738 14.492568 20.364365 14.46942 19.913555 C 14.436407 19.273069 14.976142 18.038524 15.364403 17.835886 C 15.61871 17.70307 16.375376 18.48649 16.397008 18.907006 C 16.431537 19.577785 15.916723 20.909348 15.532825 21.109835 z M 13.490576 24.894047 C 13.231966 25.028948 12.450316 24.148577 12.427171 23.697765 C 12.394158 23.057281 12.933892 21.822736 13.322152 21.620098 C 13.576462 21.487283 14.333128 22.270702 14.354756 22.691219 C 14.389288 23.361995 13.874473 24.69356 13.490576 24.894047 z M 15.546801 28.438178 C 15.518593 28.728538 14.354188 28.902461 13.963902 28.6756 C 13.409367 28.353431 12.670031 27.227034 12.712342 26.791087 C 12.739981 26.505533 13.809519 26.299607 14.173623 26.511161 C 14.75434 26.848638 15.588542 28.007099 15.546801 28.438178 z M 18.544622 31.552812 C 18.571819 31.843297 17.461232 32.234091 17.03515 32.085085 C 16.429704 31.873467 15.490893 30.907079 15.449972 30.470941 C 15.423222 30.185326 16.434572 29.781001 16.832069 29.920013 C 17.466102 30.141622 18.504208 31.121608 18.544622 31.552812 z M 22.203165 34.524198 C 22.272227 34.807661 21.230074 35.355492 20.786854 35.269856 C 20.157122 35.148364 19.088025 34.328389 18.984302 33.902815 C 18.916376 33.624094 19.858349 33.077337 20.271848 33.157152 C 20.931305 33.284466 22.100582 34.103428 22.203165 34.524198 z M 18.555499 5.1707459 C 18.658465 5.4436789 17.69037 6.1138709 17.240064 6.0826659 C 16.600212 6.0384559 15.439601 5.3540359 15.285156 4.9441709 C 15.183965 4.6757689 16.052572 4.0188239 16.472773 4.0479279 C 17.142856 4.0942879 18.402762 4.7655139 18.555499 5.1707459 z M 22.136633 7.6772589 C 22.168317 7.9672389 21.06374 8.3750409 20.635446 8.2326149 C 20.026772 8.0303569 19.073353 7.0783269 19.025855 6.6428839 C 18.994737 6.3577119 19.999702 5.9379979 20.399351 6.0708749 C 21.036735 6.2827349 22.089704 7.2467499 22.136633 7.6772589 z M 25.680574 10.620562 C 25.712259 10.91054 24.607683 11.318347 24.179388 11.175917 C 23.570714 10.97366 22.617295 10.02163 22.569798 9.5861869 C 22.53868 9.3010159 23.543647 8.8812559 23.943293 9.0141349 C 24.580677 9.2260059 25.633646 10.190053 25.680574 10.620562 z M 27.546306 14.76508 C 27.440812 15.037037 26.272613 14.890054 25.958094 14.566301 C 25.511078 14.10632 25.103526 12.822126 25.261952 12.413754 C 25.365741 12.146289 26.451089 12.236793 26.744547 12.538851 C 27.212624 13.02059 27.703026 14.361322 27.546306 14.76508 z M 25.806305 19.561973 C 25.541119 19.683468 24.80583 18.763882 24.805957 18.312503 C 24.80602 17.671069 25.40881 16.466124 25.807001 16.283723 C 26.067887 16.164254 26.783064 16.985619 26.783 17.406768 C 26.782874 18.078431 26.200069 19.381662 25.806305 19.561973 z M 24.760102 23.876431 C 24.538936 24.066672 23.577671 23.386788 23.452701 22.953053 C 23.275044 22.336729 23.520372 21.18187 23.85241 20.896257 C 24.069972 20.709176 24.984752 21.130327 25.101375 21.534968 C 25.287378 22.180386 25.088472 23.594043 24.760102 23.876431 z M 27.657363 26.636515 C 27.726428 26.919978 26.684275 27.467806 26.241052 27.382175 C 25.61132 27.260681 24.542224 26.440707 24.438502 26.015131 C 24.370576 25.736409 25.31255 25.189654 25.726047 25.269469 C 26.385505 25.396783 27.554781 26.215743 27.657363 26.636515 z M 31.201244 29.459651 C 31.270308 29.743117 30.228154 30.290945 29.784932 30.205312 C 29.155263 30.083816 28.086164 29.263846 27.982445 28.838266 C 27.914519 28.559547 28.856493 28.01279 29.269989 28.092607 C 29.929384 28.219919 31.098661 29.038881 31.201244 29.459651 z "
     style="font-size:12;opacity:0.302675;fill-rule:evenodd;stroke-width:1.25;"
     id="path993" />
  <path
     d="M 35.914433 30.285062 C 36.530315 28.159458 28.742018 25.417591 27.882896 22.297896 C 27.038448 19.231518 32.240969 14.455495 30.803495 11.726782 C 28.590294 7.5255329 21.854999 2.9559809 16.930795 1.5078649 C 15.659378 1.0981549 1.5388203 5.9367519 1.3615443 6.9256539 C 1.2323983 9.4973919 11.846263 12.999653 14.017279 16.909597 C 15.172453 18.989984 10.379167 22.611465 11.340177 24.896639 C 13.178018 29.267386 18.485109 34.926056 22.413833 36.877296 C 23.222802 37.339555 35.655353 31.061715 35.914433 30.285062 z M 9.4600243 9.4870179 C 9.5321863 9.7696629 8.4962933 10.329128 8.0521243 10.248492 C 7.4211273 10.134018 6.3427953 9.3261229 6.2343323 8.9018109 C 6.1632443 8.6237849 7.0990823 8.0665339 7.5133403 8.1417309 C 8.1741863 8.2615799 9.3526983 9.0674499 9.4600243 9.4870179 z M 13.322596 11.873828 C 13.418158 12.149451 12.432736 12.793666 11.98338 12.750468 C 11.344983 12.689186 10.202838 11.974324 10.059271 11.560575 C 9.9651633 11.289507 10.851102 10.655917 11.270227 10.69614 C 11.938792 10.760271 13.180546 11.464759 13.322596 11.873828 z M 17.111549 14.977017 C 17.124388 15.26845 15.995907 15.604091 15.577668 15.434277 C 14.983414 15.193059 14.093239 14.181582 14.073948 13.74405 C 14.061236 13.457424 15.09131 13.103504 15.481469 13.261808 C 16.103801 13.514408 17.092388 14.544418 17.111549 14.977017 z M 16.762626 20.215423 C 16.504016 20.350324 15.722371 19.469953 15.699223 19.019139 C 15.666209 18.378656 16.205943 17.144112 16.594204 16.941474 C 16.848513 16.808659 17.605178 17.592076 17.626809 18.012595 C 17.661339 18.683371 17.146524 20.014936 16.762626 20.215423 z M 14.720378 23.999633 C 14.461767 24.134535 13.680122 23.254162 13.656972 22.80335 C 13.623959 22.162867 14.163693 20.928322 14.551956 20.725683 C 14.806264 20.59287 15.562928 21.376287 15.584559 21.796805 C 15.619091 22.467583 15.104275 23.799146 14.720378 23.999633 z M 16.776604 27.543766 C 16.748398 27.834123 15.58399 28.008048 15.193703 27.781188 C 14.639169 27.459018 13.899836 26.332622 13.942145 25.896672 C 13.969783 25.611121 15.039322 25.405194 15.403425 25.61675 C 15.984143 25.954225 16.818346 27.112686 16.776604 27.543766 z M 19.774422 30.6584 C 19.80162 30.948886 18.691035 31.339679 18.264951 31.190671 C 17.659507 30.979054 16.720695 30.012667 16.679774 29.576529 C 16.653022 29.290912 17.664375 28.886586 18.061871 29.025599 C 18.695904 29.247211 19.734009 30.227195 19.774422 30.6584 z M 23.432967 33.629785 C 23.502031 33.913249 22.459878 34.461079 22.016656 34.375445 C 21.386924 34.25395 20.317827 33.433977 20.214104 33.008399 C 20.14618 32.72968 21.088153 32.182926 21.50165 32.26274 C 22.161108 32.390052 23.330384 33.209013 23.432967 33.629785 z M 19.785301 4.2763209 C 19.888265 4.5492539 18.920173 5.2194449 18.469867 5.1882389 C 17.830014 5.1440309 16.669402 4.4596099 16.514958 4.0497449 C 16.413767 3.7813449 17.282376 3.1243979 17.702575 3.1535039 C 18.372659 3.1998629 19.632566 3.8710909 19.785301 4.2763209 z M 23.366433 6.7828449 C 23.39812 7.0728249 22.293542 7.4806289 21.865246 7.3381999 C 21.256574 7.1359449 20.303154 6.1839329 20.255658 5.7484899 C 20.224539 5.4633179 21.229506 5.0435719 21.629152 5.1764499 C 22.266536 5.3883079 23.319505 6.3523349 23.366433 6.7828449 z M 26.910376 9.7261489 C 26.942063 10.016128 25.837485 10.423933 25.409189 10.281505 C 24.80052 10.079246 23.847097 9.1272179 23.799599 8.6917749 C 23.768484 8.4066019 24.773449 7.9868439 25.173094 8.1197219 C 25.81048 8.3315919 26.863448 9.2956399 26.910376 9.7261489 z M 28.776108 13.870669 C 28.670616 14.142622 27.502414 13.995638 27.187896 13.671889 C 26.74088 13.211906 26.333327 11.927713 26.491757 11.519338 C 26.595542 11.251876 27.680891 11.342378 27.97435 11.64444 C 28.442426 12.126176 28.932831 13.466911 28.776108 13.870669 z M 27.036107 18.667561 C 26.770921 18.789055 26.03563 17.869469 26.035759 17.418089 C 26.035821 16.776658 26.638611 15.571709 27.036801 15.389312 C 27.297691 15.269839 28.012865 16.091206 28.012802 16.512355 C 28.012675 17.184018 27.429873 18.487249 27.036107 18.667561 z M 25.989907 22.982018 C 25.768737 23.17226 24.807472 22.492375 24.682502 22.058639 C 24.504846 21.442314 24.750173 20.287459 25.082211 20.001844 C 25.299772 19.814765 26.214552 20.235913 26.331177 20.640557 C 26.517181 21.285973 26.318276 22.699629 25.989907 22.982018 z M 28.887168 25.742101 C 28.956231 26.025566 27.914077 26.573396 27.470853 26.487762 C 26.841122 26.366268 25.772026 25.546294 25.668303 25.120717 C 25.600378 24.841995 26.542351 24.295241 26.95585 24.375056 C 27.615307 24.502369 28.784584 25.32133 28.887168 25.742101 z M 32.431077 28.565239 C 32.500141 28.848702 31.457988 29.396534 31.014766 29.310898 C 30.385064 29.189406 29.315969 28.369431 29.212247 27.943854 C 29.144321 27.665133 30.086294 27.118379 30.499792 27.198193 C 31.159219 27.325508 32.328494 28.144469 32.431077 28.565239 z "
     style="font-size:12;opacity:0.302675;fill-rule:evenodd;stroke-width:1.25;"
     id="path994" />
  <path
     d="M 29.486539 30.067374 C 29.435187 29.051719 24.521352 25.308429 23.5482 25.220706 C 22.547535 25.118884 18.389418 25.436312 18.31479 26.527037 C 18.109241 27.525553 23.771835 32.487325 24.855226 32.756621 C 25.902059 33.136979 29.54087 31.01738 29.486539 30.067374 z "
     style="font-size:12;opacity:0.302675;fill-rule:evenodd;stroke-width:1.25;"
     id="path995" />
  <path
     d="M 22.717222 22.200117 C 21.920144 22.750098 17.715287 23.789344 17.092069 23.334989 C 16.417372 22.749275 19.214515 19.755694 19.296292 15.555456 C 19.316276 14.508558 24.421299 14.581606 25.021369 15.398733 C 25.33127 15.871871 23.412096 21.628383 22.717222 22.200117 z "
     style="font-size:12;opacity:0.302675;fill-rule:evenodd;stroke-width:1.25;"
     id="path996" />
  <path
     d="M 23.846527 11.399806 C 23.754885 12.149831 18.412124 13.219937 17.415759 12.959811 C 16.284618 12.630935 9.8822493 8.6562949 9.9867303 7.8121619 C 10.10228 6.7413569 15.503416 5.3195619 16.717279 5.4929169 C 17.947587 5.6517259 23.973839 10.483258 23.846527 11.399806 z "
     style="font-size:12;opacity:0.302675;fill-rule:evenodd;stroke-width:1.25;"
     id="path997" />
  <path
     d="M 28.036329 29.474577 C 28.036329 29.316653 25.448148 26.739792 23.916095 26.126948 C 22.873056 25.709719 20.310932 26.23516 20.310932 26.384418 C 20.310932 26.535638 22.800578 26.582059 23.916095 27.028255 C 25.375669 27.612071 28.036329 29.617131 28.036329 29.474577 z "
     style="font-size:12;opacity:0.302675;fill-rule:evenodd;stroke-width:1.25;"
     id="path998" />
  <path
     d="M 23.83704 17.208052 C 24.056627 17.47912 24.420855 15.919875 24.094576 15.791678 C 23.219135 15.447749 20.274756 15.555962 20.231877 15.791678 C 20.188871 16.028086 22.769587 15.920506 23.83704 17.208052 z "
     style="font-size:12;opacity:0.302675;fill-rule:evenodd;stroke-width:1.25;"
     id="path999" />
  <path
     d="M 21.850131 10.562313 C 21.827298 10.333744 18.522865 7.0133109 16.571122 6.4420799 C 15.003526 5.9832769 11.270735 7.2582579 11.29211 7.4721549 C 11.313613 7.6874409 15.012506 7.2358079 16.699887 7.7296879 C 18.531847 8.2658799 21.870181 10.762927 21.850131 10.562313 z "
     style="font-size:12;opacity:0.302675;fill-rule:evenodd;stroke-width:1.25;"
     id="path1000" />
  <path
     d="M 29.989657 12.753822 C 30.033485 10.817191 22.496495 4.6992329 17.75779 2.9683279 C 15.329048 2.0811819 8.5315213 4.6341039 8.4872503 4.8996769 C 8.4456983 5.1491369 15.106173 3.6389299 17.500255 4.5134079 C 22.273621 6.2569689 30.001674 13.009268 29.989657 12.753822 z "
     style="font-size:12;opacity:0.302675;fill-rule:evenodd;stroke-width:1.25;"
     id="path1001" />
  <path
     d="M 34.684597 31.179477 C 35.300478 29.05387 27.512217 26.312003 26.653095 23.19231 C 25.808643 20.12593 31.011136 15.349908 29.573692 12.621198 C 27.360491 8.4199469 20.625198 3.8504079 15.700993 2.4022889 C 14.429575 1.9925819 0.30901926 6.8311639 0.13174226 7.8200659 C 0.0025962564 10.391804 10.616462 13.894069 12.787479 17.80401 C 13.942651 19.884398 9.1493633 23.505878 10.110374 25.791054 C 11.948215 30.1618 17.255307 35.82047 21.184031 37.771711 C 21.993 38.233969 34.425519 31.956128 34.684597 31.179477 z M 8.2302213 10.381433 C 8.3023833 10.664075 7.2664923 11.22354 6.8223233 11.142903 C 6.1913233 11.02843 5.1129953 10.220537 5.0045273 9.7962239 C 4.9334423 9.5182009 5.8692803 8.9609449 6.2835353 9.0361439 C 6.9443843 9.1559949 8.1228943 9.9618649 8.2302213 10.381433 z M 12.092794 12.768242 C 12.188357 13.043864 11.202935 13.68808 10.753578 13.644883 C 10.115181 13.583598 8.9730353 12.868738 8.8294693 12.454988 C 8.7353623 12.183919 9.6213013 11.550329 10.040425 11.590554 C 10.70899 11.654684 11.950744 12.359172 12.092794 12.768242 z M 15.881747 15.871428 C 15.894588 16.162862 14.766104 16.498503 14.347862 16.328692 C 13.753611 16.087474 12.863437 15.075993 12.844146 14.638464 C 12.831434 14.351836 13.861509 13.997916 14.251666 14.15622 C 14.873998 14.40882 15.862584 15.438831 15.881747 15.871428 z M 15.532825 21.109835 C 15.274214 21.244738 14.492568 20.364365 14.46942 19.913555 C 14.436407 19.273069 14.976142 18.038524 15.364403 17.835886 C 15.61871 17.70307 16.375376 18.48649 16.397008 18.907006 C 16.431537 19.577785 15.916723 20.909348 15.532825 21.109835 z M 13.490576 24.894047 C 13.231966 25.028948 12.450316 24.148577 12.427171 23.697765 C 12.394158 23.057281 12.933892 21.822736 13.322152 21.620098 C 13.576462 21.487283 14.333128 22.270702 14.354756 22.691219 C 14.389288 23.361995 13.874473 24.69356 13.490576 24.894047 z M 15.546801 28.438178 C 15.518593 28.728538 14.354188 28.902461 13.963902 28.6756 C 13.409367 28.353431 12.670031 27.227034 12.712342 26.791087 C 12.739981 26.505533 13.809519 26.299607 14.173623 26.511161 C 14.75434 26.848638 15.588542 28.007099 15.546801 28.438178 z M 18.544622 31.552812 C 18.571819 31.843297 17.461232 32.234091 17.03515 32.085085 C 16.429704 31.873467 15.490893 30.907079 15.449972 30.470941 C 15.423222 30.185326 16.434572 29.781001 16.832069 29.920013 C 17.466102 30.141622 18.504208 31.121608 18.544622 31.552812 z M 22.203165 34.524198 C 22.272227 34.807661 21.230074 35.355492 20.786854 35.269856 C 20.157122 35.148364 19.088025 34.328389 18.984302 33.902815 C 18.916376 33.624094 19.858349 33.077337 20.271848 33.157152 C 20.931305 33.284466 22.100582 34.103428 22.203165 34.524198 z M 18.555499 5.1707459 C 18.658465 5.4436789 17.69037 6.1138709 17.240064 6.0826659 C 16.600212 6.0384559 15.439601 5.3540359 15.285156 4.9441709 C 15.183965 4.6757689 16.052572 4.0188239 16.472773 4.0479279 C 17.142856 4.0942879 18.402762 4.7655139 18.555499 5.1707459 z M 22.136633 7.6772589 C 22.168317 7.9672389 21.06374 8.3750409 20.635446 8.2326149 C 20.026772 8.0303569 19.073353 7.0783269 19.025855 6.6428839 C 18.994737 6.3577119 19.999702 5.9379979 20.399351 6.0708749 C 21.036735 6.2827349 22.089704 7.2467499 22.136633 7.6772589 z M 25.680574 10.620562 C 25.712259 10.91054 24.607683 11.318347 24.179388 11.175917 C 23.570714 10.97366 22.617295 10.02163 22.569798 9.5861869 C 22.53868 9.3010159 23.543647 8.8812559 23.943293 9.0141349 C 24.580677 9.2260059 25.633646 10.190053 25.680574 10.620562 z M 27.546306 14.76508 C 27.440812 15.037037 26.272613 14.890054 25.958094 14.566301 C 25.511078 14.10632 25.103526 12.822126 25.261952 12.413754 C 25.365741 12.146289 26.451089 12.236793 26.744547 12.538851 C 27.212624 13.02059 27.703026 14.361322 27.546306 14.76508 z M 25.806305 19.561973 C 25.541119 19.683468 24.80583 18.763882 24.805957 18.312503 C 24.80602 17.671069 25.40881 16.466124 25.807001 16.283723 C 26.067887 16.164254 26.783064 16.985619 26.783 17.406768 C 26.782874 18.078431 26.200069 19.381662 25.806305 19.561973 z M 24.760102 23.876431 C 24.538936 24.066672 23.577671 23.386788 23.452701 22.953053 C 23.275044 22.336729 23.520372 21.18187 23.85241 20.896257 C 24.069972 20.709176 24.984752 21.130327 25.101375 21.534968 C 25.287378 22.180386 25.088472 23.594043 24.760102 23.876431 z M 27.657363 26.636515 C 27.726428 26.919978 26.684275 27.467806 26.241052 27.382175 C 25.61132 27.260681 24.542224 26.440707 24.438502 26.015131 C 24.370576 25.736409 25.31255 25.189654 25.726047 25.269469 C 26.385505 25.396783 27.554781 26.215743 27.657363 26.636515 z M 31.201244 29.459651 C 31.270308 29.743117 30.228154 30.290945 29.784932 30.205312 C 29.155263 30.083816 28.086164 29.263846 27.982445 28.838266 C 27.914519 28.559547 28.856493 28.01279 29.269989 28.092607 C 29.929384 28.219919 31.098661 29.038881 31.201244 29.459651 z "
     style="font-size:12;opacity:0.302675;fill-rule:evenodd;stroke-width:1.25;"
     id="path1002" />
  <path
     d="M 35.914433 30.285062 C 36.530315 28.159458 28.742018 25.417591 27.882896 22.297896 C 27.038448 19.231518 32.240969 14.455495 30.803495 11.726782 C 28.590294 7.5255329 21.854999 2.9559809 16.930795 1.5078649 C 15.659378 1.0981549 1.5388203 5.9367519 1.3615443 6.9256539 C 1.2323983 9.4973919 11.846263 12.999653 14.017279 16.909597 C 15.172453 18.989984 10.379167 22.611465 11.340177 24.896639 C 13.178018 29.267386 18.485109 34.926056 22.413833 36.877296 C 23.222802 37.339555 35.655353 31.061715 35.914433 30.285062 z M 9.4600243 9.4870179 C 9.5321863 9.7696629 8.4962933 10.329128 8.0521243 10.248492 C 7.4211273 10.134018 6.3427953 9.3261229 6.2343323 8.9018109 C 6.1632443 8.6237849 7.0990823 8.0665339 7.5133403 8.1417309 C 8.1741863 8.2615799 9.3526983 9.0674499 9.4600243 9.4870179 z M 13.322596 11.873828 C 13.418158 12.149451 12.432736 12.793666 11.98338 12.750468 C 11.344983 12.689186 10.202838 11.974324 10.059271 11.560575 C 9.9651633 11.289507 10.851102 10.655917 11.270227 10.69614 C 11.938792 10.760271 13.180546 11.464759 13.322596 11.873828 z M 17.111549 14.977017 C 17.124388 15.26845 15.995907 15.604091 15.577668 15.434277 C 14.983414 15.193059 14.093239 14.181582 14.073948 13.74405 C 14.061236 13.457424 15.09131 13.103504 15.481469 13.261808 C 16.103801 13.514408 17.092388 14.544418 17.111549 14.977017 z M 16.762626 20.215423 C 16.504016 20.350324 15.722371 19.469953 15.699223 19.019139 C 15.666209 18.378656 16.205943 17.144112 16.594204 16.941474 C 16.848513 16.808659 17.605178 17.592076 17.626809 18.012595 C 17.661339 18.683371 17.146524 20.014936 16.762626 20.215423 z M 14.720378 23.999633 C 14.461767 24.134535 13.680122 23.254162 13.656972 22.80335 C 13.623959 22.162867 14.163693 20.928322 14.551956 20.725683 C 14.806264 20.59287 15.562928 21.376287 15.584559 21.796805 C 15.619091 22.467583 15.104275 23.799146 14.720378 23.999633 z M 16.776604 27.543766 C 16.748398 27.834123 15.58399 28.008048 15.193703 27.781188 C 14.639169 27.459018 13.899836 26.332622 13.942145 25.896672 C 13.969783 25.611121 15.039322 25.405194 15.403425 25.61675 C 15.984143 25.954225 16.818346 27.112686 16.776604 27.543766 z M 19.774422 30.6584 C 19.80162 30.948886 18.691035 31.339679 18.264951 31.190671 C 17.659507 30.979054 16.720695 30.012667 16.679774 29.576529 C 16.653022 29.290912 17.664375 28.886586 18.061871 29.025599 C 18.695904 29.247211 19.734009 30.227195 19.774422 30.6584 z M 23.432967 33.629785 C 23.502031 33.913249 22.459878 34.461079 22.016656 34.375445 C 21.386924 34.25395 20.317827 33.433977 20.214104 33.008399 C 20.14618 32.72968 21.088153 32.182926 21.50165 32.26274 C 22.161108 32.390052 23.330384 33.209013 23.432967 33.629785 z M 19.785301 4.2763209 C 19.888265 4.5492539 18.920173 5.2194449 18.469867 5.1882389 C 17.830014 5.1440309 16.669402 4.4596099 16.514958 4.0497449 C 16.413767 3.7813449 17.282376 3.1243979 17.702575 3.1535039 C 18.372659 3.1998629 19.632566 3.8710909 19.785301 4.2763209 z M 23.366433 6.7828449 C 23.39812 7.0728249 22.293542 7.4806289 21.865246 7.3381999 C 21.256574 7.1359449 20.303154 6.1839329 20.255658 5.7484899 C 20.224539 5.4633179 21.229506 5.0435719 21.629152 5.1764499 C 22.266536 5.3883079 23.319505 6.3523349 23.366433 6.7828449 z M 26.910376 9.7261489 C 26.942063 10.016128 25.837485 10.423933 25.409189 10.281505 C 24.80052 10.079246 23.847097 9.1272179 23.799599 8.6917749 C 23.768484 8.4066019 24.773449 7.9868439 25.173094 8.1197219 C 25.81048 8.3315919 26.863448 9.2956399 26.910376 9.7261489 z M 28.776108 13.870669 C 28.670616 14.142622 27.502414 13.995638 27.187896 13.671889 C 26.74088 13.211906 26.333327 11.927713 26.491757 11.519338 C 26.595542 11.251876 27.680891 11.342378 27.97435 11.64444 C 28.442426 12.126176 28.932831 13.466911 28.776108 13.870669 z M 27.036107 18.667561 C 26.770921 18.789055 26.03563 17.869469 26.035759 17.418089 C 26.035821 16.776658 26.638611 15.571709 27.036801 15.389312 C 27.297691 15.269839 28.012865 16.091206 28.012802 16.512355 C 28.012675 17.184018 27.429873 18.487249 27.036107 18.667561 z M 25.989907 22.982018 C 25.768737 23.17226 24.807472 22.492375 24.682502 22.058639 C 24.504846 21.442314 24.750173 20.287459 25.082211 20.001844 C 25.299772 19.814765 26.214552 20.235913 26.331177 20.640557 C 26.517181 21.285973 26.318276 22.699629 25.989907 22.982018 z M 28.887168 25.742101 C 28.956231 26.025566 27.914077 26.573396 27.470853 26.487762 C 26.841122 26.366268 25.772026 25.546294 25.668303 25.120717 C 25.600378 24.841995 26.542351 24.295241 26.95585 24.375056 C 27.615307 24.502369 28.784584 25.32133 28.887168 25.742101 z M 32.431077 28.565239 C 32.500141 28.848702 31.457988 29.396534 31.014766 29.310898 C 30.385064 29.189406 29.315969 28.369431 29.212247 27.943854 C 29.144321 27.665133 30.086294 27.118379 30.499792 27.198193 C 31.159219 27.325508 32.328494 28.144469 32.431077 28.565239 z "
     style="font-size:12;fill:#261e2e;fill-rule:evenodd;stroke:#261e2e;stroke-width:0.0625;stroke-dasharray:none;stroke-opacity:1;"
     id="path1003" />
  <path
     d="M 29.486539 30.067374 C 29.435187 29.051719 24.521352 25.308429 23.5482 25.220706 C 22.547535 25.118884 18.389418 25.436312 18.31479 26.527037 C 18.109241 27.525553 23.771835 32.487325 24.855226 32.756621 C 25.902059 33.136979 29.54087 31.01738 29.486539 30.067374 z "
     style="font-size:12;fill:url(#linearGradient828);fill-rule:evenodd;stroke:#261933;stroke-width:0.7875;stroke-opacity:1;stroke-dasharray:none;"
     id="path1004" />
  <path
     d="M 22.717222 22.200117 C 21.920144 22.750098 17.715287 23.789344 17.092069 23.334989 C 16.417372 22.749275 19.214515 19.755694 19.296292 15.555456 C 19.316276 14.508558 24.421299 14.581606 25.021369 15.398733 C 25.33127 15.871871 23.412096 21.628383 22.717222 22.200117 z "
     style="font-size:12;fill:url(#linearGradient827);fill-rule:evenodd;stroke:#261933;stroke-width:0.7875;stroke-dasharray:none;stroke-opacity:1;"
     id="path1005" />
  <path
     d="M 23.846527 11.399806 C 23.754885 12.149831 18.412124 13.219937 17.415759 12.959811 C 16.284618 12.630935 9.8822493 8.6562949 9.9867303 7.8121619 C 10.10228 6.7413569 15.503416 5.3195619 16.717279 5.4929169 C 17.947587 5.6517259 23.973839 10.483258 23.846527 11.399806 z "
     style="font-size:12;fill:url(#linearGradient826);fill-rule:evenodd;stroke:#261933;stroke-width:0.790566;stroke-opacity:1;"
     id="path1006" />
  <path
     d="M 28.036329 29.474577 C 28.036329 29.316653 25.448148 26.739792 23.916095 26.126948 C 22.873056 25.709719 20.310932 26.23516 20.310932 26.384418 C 20.310932 26.535638 22.800578 26.582059 23.916095 27.028255 C 25.375669 27.612071 28.036329 29.617131 28.036329 29.474577 z "
     style="font-size:12;opacity:0.699936;fill:url(#linearGradient825);fill-rule:evenodd;stroke:none;stroke-width:0.0632452pt;"
     id="path1007" />
  <path
     d="M 23.83704 17.208052 C 24.056627 17.47912 24.420855 15.919875 24.094576 15.791678 C 23.219135 15.447749 20.274756 15.555962 20.231877 15.791678 C 20.188871 16.028086 22.769587 15.920506 23.83704 17.208052 z "
     style="font-size:12;opacity:0.7;fill:url(#linearGradient824);fill-rule:evenodd;stroke:none;stroke-width:0.0632452pt;"
     id="path1008" />
  <path
     d="M 21.850131 10.562313 C 21.827298 10.333744 18.522865 7.0133109 16.571122 6.4420799 C 15.003526 5.9832769 11.270735 7.2582579 11.29211 7.4721549 C 11.313613 7.6874409 15.012506 7.2358079 16.699887 7.7296879 C 18.531847 8.2658799 21.870181 10.762927 21.850131 10.562313 z "
     style="font-size:12;opacity:0.699936;fill:url(#linearGradient823);fill-rule:evenodd;stroke:none;stroke-width:0.0632452pt;"
     id="path1009" />
  <path
     d="M 29.989657 12.753822 C 30.033485 10.817191 22.496495 4.6992329 17.75779 2.9683279 C 15.329048 2.0811819 8.5315213 4.6341039 8.4872503 4.8996769 C 8.4456983 5.1491369 15.106173 3.6389299 17.500255 4.5134079 C 22.273621 6.2569689 30.001674 13.009268 29.989657 12.753822 z "
     style="font-size:12;opacity:0.7;fill:url(#linearGradient822);fill-rule:evenodd;stroke:none;stroke-width:0.0632452pt;"
     id="path1010" />
  <path
     d="M 11.851889 54.281945 C 9.779147 53.95014 13.283668 34.690451 18.580459 29.543126 C 27.110505 21.253664 48.834834 16.147778 57.886728 18.336469 C 62.438748 19.437242 55.370031 31.293998 51.158162 36.384997 C 42.188168 47.34572 20.386968 55.546423 11.851889 54.281945 z "
     style="font-size:12;fill:url(#linearGradient586);fill-rule:evenodd;stroke:#261933;stroke-width:1.875;stroke-linecap:round;stroke-linejoin:round;stroke-dasharray:none;"
     id="path576"
     sodipodi:nodetypes="ccccc" />
  <path
     d="M 14.221773 50.977768 C 12.591213 44.267938 18.081981 34.360868 20.213931 31.764237 C 30.30278 23.871786 53.198205 19.553272 55.156271 20.479414 C 39.675869 22.785994 32.569084 26.821571 22.953654 33.464179 C 18.932479 38.0768 14.459492 44.807251 14.221773 50.977768 z "
     style="font-size:12;opacity:0.7;fill:url(#linearGradient641);fill-rule:evenodd;stroke:none;stroke-width:1.25;"
     id="path577"
     sodipodi:nodetypes="ccccc" />
</svg>
