<?xml version="1.0" encoding="UTF-8" standalone="no"?>
<!DOCTYPE svg PUBLIC "-//W3C//DTD SVG 20010904//EN"
"http://www.w3.org/TR/2001/REC-SVG-20010904/DTD/svg10.dtd">
<!-- Created with Inkscape (http://www.inkscape.org/) -->
<svg
   id="svg1"
   sodipodi:version="0.32"
   inkscape:version="0.37"
   width="48pt"
   height="48pt"
   sodipodi:docbase="/home/tom"
   sodipodi:docname="folder_sound.svg"
   xmlns="http://www.w3.org/2000/svg"
   xmlns:inkscape="http://www.inkscape.org/namespaces/inkscape"
   xmlns:sodipodi="http://sodipodi.sourceforge.net/DTD/sodipodi-0.dtd"
   xmlns:xlink="http://www.w3.org/1999/xlink">
  <defs
     id="defs3">
    <linearGradient
       id="linearGradient866">
      <stop
         style="stop-color:#ffffff;stop-opacity:1;"
         offset="0.00000000"
         id="stop867" />
      <stop
         style="stop-color:#d9cce6;stop-opacity:1;"
         offset="1.00000000"
         id="stop868" />
    </linearGradient>
    <linearGradient
       id="linearGradient584">
      <stop
         style="stop-color:#ffffff;stop-opacity:1;"
         offset="0.00000000"
         id="stop585" />
      <stop
         style="stop-color:#ffffff;stop-opacity:0;"
         offset="1.00000000"
         id="stop586" />
    </linearGradient>
    <linearGradient
       id="linearGradient578">
      <stop
         style="stop-color:#d9cce6;stop-opacity:1;"
         offset="0.00000000"
         id="stop579" />
      <stop
         style="stop-color:#73667f;stop-opacity:1;"
         offset="1.00000000"
         id="stop580" />
    </linearGradient>
    <linearGradient
       xlink:href="#linearGradient584"
       id="linearGradient581"
       x1="-0.00684932"
       y1="0.00775194"
       x2="0.97945207"
       y2="1.00000000" />
    <linearGradient
       xlink:href="#linearGradient584"
       id="linearGradient583"
       x1="0.01094890"
       y1="0.01030928"
       x2="1.01459849"
       y2="0.96907216" />
    <linearGradient
       xlink:href="#linearGradient584"
       id="linearGradient860"
       x1="-0.02500000"
       y1="0.03100775"
       x2="0.97500002"
       y2="0.97674417" />
    <linearGradient
       xlink:href="#linearGradient578"
       id="linearGradient861"
       x1="0.00000000"
       y1="0.02325581"
       x2="0.98611110"
       y2="0.97674417" />
    <linearGradient
       xlink:href="#linearGradient578"
       id="linearGradient862"
       x1="-0.00000000"
       y1="0.00775194"
       x2="1.00000000"
       y2="0.99224806" />
    <linearGradient
       xlink:href="#linearGradient866"
       id="linearGradient869"
       x1="-0.00000000"
       y1="-0.00000000"
       x2="1.00000000"
       y2="-0.00000000" />
    <linearGradient
       xlink:href="#linearGradient866"
       id="linearGradient625" />
    <linearGradient
       xlink:href="#linearGradient866"
       id="linearGradient626" />
  </defs>
  <sodipodi:namedview
     id="base"
     pagecolor="#ffffff"
     bordercolor="#666666"
     borderopacity="1.0"
     inkscape:pageopacity="0.0"
     inkscape:pageshadow="2"
     inkscape:zoom="2"
     inkscape:cx="30.8991165"
     inkscape:cy="23.4072571"
     inkscape:window-width="640"
     inkscape:window-height="516"
     inkscape:window-x="76"
     inkscape:window-y="135" />
  <path
     d="M 9.8768697 57.910302 C 1.4237103 54.296461 0.17089942 23.512742 1.9162424 10.537822 C 2.4763527 6.3734464 14.52173 5.0568747 18.359683 5.5788254 C 19.959442 5.7964421 19.931323 13.04668 21.752715 13.017379 C 30.76303 12.87266 42.854131 2.3670243 49.288722 5.9703455 C 54.816925 9.0661294 58.838827 31.893125 54.24772 37.943636 C 45.701579 49.206441 18.823981 61.735257 9.8768697 57.910302 z "
     style="font-size:12;opacity:0.302675;fill-rule:evenodd;stroke-width:18.75;stroke-linecap:round;stroke-linejoin:round;"
     id="path574" />
  <path
     d="M 10.744124 54.364943 C 3.0832161 51.089821 1.9478176 23.191386 3.5296061 11.432576 C 4.0372719 7.6585187 14.953633 6.465347 18.431864 6.9383715 C 19.881679 7.1355945 19.856197 13.706286 21.506874 13.679735 C 29.672677 13.548572 40.630504 4.0275973 46.461991 7.293197 C 51.472056 10.098824 55.11699 30.786295 50.956197 36.269706 C 43.211067 46.476876 18.852644 57.831396 10.744124 54.364943 z "
     style="font-size:12;fill:url(#linearGradient862);fill-rule:evenodd;stroke:#261933;stroke-width:1.875;stroke-linecap:round;stroke-linejoin:round;stroke-dasharray:none;"
     id="path562" />
  <path
     d="M 10.862328 51.88138 C 6.039637 48.008385 3.5836441 21.58996 5.7767836 12.378743 C 6.5403971 9.1715044 17.252718 8.6075694 17.603902 9.7768704 C 14.62504 9.9044924 10.148394 12.728426 9.4431338 15.690372 C 7.1915879 25.146889 10.199359 49.300066 10.862328 51.88138 z "
     style="font-size:12;opacity:0.7;fill:url(#linearGradient860);fill-rule:evenodd;stroke:none;stroke-width:1pt;"
     id="path567" />
  <path
     d="M 18.399098 14.558682 C 29.268165 12.594515 37.3315 6.1105467 39.569665 7.9355304 C 40.175353 8.4568474 31.71597 13.204695 26.559867 14.913619 C 24.816788 15.491251 17.879279 14.651621 18.399098 14.558682 z "
     style="font-size:12;opacity:0.699936;fill:url(#linearGradient583);fill-rule:evenodd;stroke:none;stroke-width:1pt;"
     id="path568" />
  <path
     style="font-size:12;fill:#000000;fill-rule:evenodd;stroke:none;stroke-width:1.875;stroke-dasharray:none;fill-opacity:1;opacity:0.302675;"
     d="M 36.781126 16.914361 C 37.143506 13.42285 35.423374 12.323139 33.36319 12.101376 C 28.633882 11.659783 23.328437 10.440359 23.123779 13.328464 C 22.351545 17.253664 21.845644 19.791555 21.071008 26.226269 C 20.702539 28.93985 22.098927 36.827979 15.994725 37.374229 C 9.758504 37.932724 6.443628 33.602448 8.198874 29.443114 C 10.668383 23.744262 16.906712 27.372641 17.545529 25.24155 C 19.431366 18.767193 19.168022 11.317472 20.692547 4.7102215 C 20.752334 4.4511035 21.555105 4.1896365 22.022373 4.1269035 C 23.245758 3.8390485 38.087583 5.0190245 39.038079 5.6175315 C 39.505345 5.5548005 40.156999 6.0992675 40.343824 6.2740995 C 41.914126 7.7436155 40.968339 13.918875 40.679359 15.221861 C 39.907125 19.14706 39.3684 21.667955 38.593761 28.102669 C 38.225293 30.81625 39.654508 38.721375 33.550306 39.267625 C 27.314084 39.82612 23.999205 35.495845 25.754452 31.33651 C 28.223965 25.637658 34.429465 29.24904 35.068283 27.117951 C 36.0112 23.880772 36.418747 20.405872 36.781126 16.914361 z "
     id="path702"
     sodipodi:nodetypes="csccccccccccccccc" />
  <path
     style="font-size:12;fill:url(#linearGradient869);fill-rule:evenodd;stroke:#261933;stroke-width:1.79475;"
     d="M 34.417269 14.403273 C 34.779648 10.911761 33.059516 9.812051 30.999333 9.590289 C 26.270025 9.148696 20.964579 7.9292705 20.759921 10.817377 C 19.987688 14.742576 19.481786 17.280468 18.70715 23.71518 C 18.338681 26.428762 19.735069 34.316892 13.630867 34.863142 C 7.394645 35.421637 4.0797689 31.091361 5.835016 26.932027 C 8.304526 21.233175 14.542854 24.861554 15.181671 22.730462 C 17.067507 16.256105 16.804164 8.806385 18.328689 2.1991345 C 18.388477 1.9400165 19.191247 1.6785495 19.658514 1.6158165 C 20.881901 1.3279615 35.723724 2.5079375 36.674221 3.1064435 C 37.141488 3.0437115 37.793142 3.5881795 37.979965 3.7630115 C 39.550268 5.2325285 38.604482 11.407787 38.315501 12.710773 C 37.543266 16.635971 37.004542 19.156867 36.229904 25.591582 C 35.861435 28.305163 37.290649 36.210287 31.186447 36.756537 C 24.950225 37.315031 21.635347 32.984758 23.390594 28.825423 C 25.860106 23.126571 32.065607 26.737953 32.704426 24.606863 C 33.647342 21.369684 34.054888 17.894784 34.417269 14.403273 z "
     id="path701"
     sodipodi:nodetypes="csccccccccccccccc" />
  <path
     style="fill:url(#linearGradient625);fill-rule:evenodd;stroke:none;stroke-opacity:1;stroke-width:1pt;stroke-linejoin:miter;stroke-linecap:butt;fill-opacity:1;"
     d="M 6.742601 30.648185 C 6.560537 30.437819 6.455647 28.235096 8.631508 26.134218 C 11.224725 23.717986 15.244871 26.274221 15.934899 24.176474 C 17.945494 18.359915 18.243829 9.603543 19.552969 3.1318705 C 19.592999 2.9339815 30.098702 3.1030285 36.025267 4.3473045 C 28.140325 3.5744325 21.594745 3.9352025 20.724812 4.4808645 C 19.371766 5.3041375 18.377274 18.858311 16.484428 24.618723 C 15.779587 26.716778 12.942485 24.718276 9.429459 27.046576 C 6.616783 28.866157 6.902971 30.833484 6.742601 30.648185 z "
     id="path698"
     sodipodi:nodetypes="cssscssss" />
  <path
     style="fill:url(#linearGradient626);fill-rule:evenodd;stroke:none;stroke-opacity:1;stroke-width:1pt;stroke-linejoin:miter;stroke-linecap:butt;fill-opacity:1;"
     d="M 24.285231 32.388954 C 24.103164 32.178584 23.998277 29.97586 26.174137 27.874983 C 28.767354 25.458752 32.787501 28.014984 33.477528 25.917238 C 35.488122 20.10068 34.650046 18.257749 35.959183 11.786078 C 36.039244 11.390297 37.066628 12.396636 36.867042 12.786884 C 35.002489 16.245668 35.919905 20.599075 34.027057 26.359489 C 33.322215 28.457542 30.485114 26.459041 26.972087 28.78734 C 24.159411 30.606922 24.4456 32.574248 24.285231 32.388954 z "
     id="path700"
     sodipodi:nodetypes="csssssss" />
  <path
     d="M 11.381933 54.595249 C 9.3091908 54.263444 12.813712 35.003755 18.110503 29.85643 C 26.640549 21.566968 48.364878 16.461082 57.416774 18.649773 C 61.968795 19.750546 54.900072 31.607302 50.688206 36.698301 C 41.718212 47.659024 19.917012 55.859727 11.381933 54.595249 z "
     style="font-size:12;fill:url(#linearGradient861);fill-rule:evenodd;stroke:#261933;stroke-width:1.875;stroke-linecap:round;stroke-linejoin:round;stroke-dasharray:none;"
     id="path576"
     sodipodi:nodetypes="ccccc" />
  <path
     d="M 13.751817 51.291072 C 12.121257 44.581242 17.612025 34.674172 19.743975 32.077541 C 29.832824 24.18509 52.728249 19.866576 54.686319 20.792718 C 39.205913 23.099298 32.099128 27.134875 22.483698 33.777483 C 18.462523 38.390104 13.989536 45.120555 13.751817 51.291072 z "
     style="font-size:12;opacity:0.7;fill:url(#linearGradient581);fill-rule:evenodd;stroke:none;stroke-width:1.25;"
     id="path577"
     sodipodi:nodetypes="ccccc" />
</svg>
