<?xml version="1.0" encoding="UTF-8" standalone="no"?>
<!DOCTYPE svg PUBLIC "-//W3C//DTD SVG 20010904//EN"
"http://www.w3.org/TR/2001/REC-SVG-20010904/DTD/svg10.dtd">
<!-- Created with Inkscape (http://www.inkscape.org/) -->
<svg
   id="svg1"
   sodipodi:version="0.32"
   inkscape:version="0.37"
   width="48pt"
   height="48pt"
   sodipodi:docbase="/home/tom/Pics/lilasvg/scalable/filesystems"
   sodipodi:docname="folder_sent_mail.svg"
   xmlns="http://www.w3.org/2000/svg"
   xmlns:inkscape="http://www.inkscape.org/namespaces/inkscape"
   xmlns:sodipodi="http://sodipodi.sourceforge.net/DTD/sodipodi-0.dtd"
   xmlns:xlink="http://www.w3.org/1999/xlink">
  <defs
     id="defs3">
    <linearGradient
       id="linearGradient866">
      <stop
         style="stop-color:#ffffff;stop-opacity:1;"
         offset="0.00000000"
         id="stop867" />
      <stop
         style="stop-color:#d9cce6;stop-opacity:1;"
         offset="1.00000000"
         id="stop868" />
    </linearGradient>
    <linearGradient
       id="linearGradient584">
      <stop
         style="stop-color:#ffffff;stop-opacity:1;"
         offset="0.00000000"
         id="stop585" />
      <stop
         style="stop-color:#ffffff;stop-opacity:0;"
         offset="1.00000000"
         id="stop586" />
    </linearGradient>
    <linearGradient
       id="linearGradient578">
      <stop
         style="stop-color:#d9cce6;stop-opacity:1;"
         offset="0.00000000"
         id="stop579" />
      <stop
         style="stop-color:#73667f;stop-opacity:1;"
         offset="1.00000000"
         id="stop580" />
    </linearGradient>
    <linearGradient
       xlink:href="#linearGradient584"
       id="linearGradient581"
       x1="-0.00684932"
       y1="0.00775194"
       x2="0.97945207"
       y2="1.00000000" />
    <linearGradient
       xlink:href="#linearGradient584"
       id="linearGradient583"
       x1="0.01094890"
       y1="0.01030928"
       x2="1.01459849"
       y2="0.96907216" />
    <linearGradient
       xlink:href="#linearGradient584"
       id="linearGradient860"
       x1="-0.02500000"
       y1="0.03100775"
       x2="0.97500002"
       y2="0.97674417" />
    <linearGradient
       xlink:href="#linearGradient578"
       id="linearGradient861"
       x1="0.00000000"
       y1="0.02325581"
       x2="0.98611110"
       y2="0.97674417" />
    <linearGradient
       xlink:href="#linearGradient578"
       id="linearGradient862"
       x1="-0.00000000"
       y1="0.00775194"
       x2="1.00000000"
       y2="0.99224806" />
    <linearGradient
       xlink:href="#linearGradient866"
       id="linearGradient869"
       x1="-0.00684932"
       y1="0.00775194"
       x2="0.97945207"
       y2="1.00000000" />
  </defs>
  <sodipodi:namedview
     id="base"
     pagecolor="#ffffff"
     bordercolor="#666666"
     borderopacity="1.0"
     inkscape:pageopacity="0.0"
     inkscape:pageshadow="2"
     inkscape:zoom="3.93750000"
     inkscape:cx="43.0000000"
     inkscape:cy="4"
     inkscape:window-width="640"
     inkscape:window-height="516"
     inkscape:window-x="204"
     inkscape:window-y="142" />
  <path
     d="M 9.8768697 57.910302 C 1.4237103 54.296461 0.17089942 23.512742 1.9162424 10.537822 C 2.4763527 6.3734464 14.52173 5.0568747 18.359683 5.5788254 C 19.959442 5.7964421 19.931323 13.04668 21.752715 13.017379 C 30.76303 12.87266 42.854131 2.3670243 49.288722 5.9703455 C 54.816925 9.0661294 58.838827 31.893125 54.24772 37.943636 C 45.701579 49.206441 18.823981 61.735257 9.8768697 57.910302 z "
     style="font-size:12;opacity:0.302675;fill-rule:evenodd;stroke-width:18.75;stroke-linecap:round;stroke-linejoin:round;"
     id="path574" />
  <path
     d="M 10.744124 54.364943 C 3.0832161 51.089821 1.9478176 23.191386 3.5296061 11.432576 C 4.0372719 7.6585187 14.953633 6.465347 18.431864 6.9383715 C 19.881679 7.1355945 19.856197 13.706286 21.506874 13.679735 C 29.672677 13.548572 40.630504 4.0275973 46.461991 7.293197 C 51.472056 10.098824 55.11699 30.786295 50.956197 36.269706 C 43.211067 46.476876 18.852644 57.831396 10.744124 54.364943 z "
     style="font-size:12;fill:url(#linearGradient862);fill-rule:evenodd;stroke:#261933;stroke-width:1.875;stroke-linecap:round;stroke-linejoin:round;stroke-dasharray:none;"
     id="path562" />
  <path
     style="font-size:12;fill:url(#linearGradient581);fill-rule:evenodd;stroke:#261933;stroke-width:1.875;"
     d="M -32.510926 50.442911 C -31.289577 51.594259 -5.0803113 51.459852 -3.7913862 50.026685 C -2.4530372 48.682625 -2.0028341 31.001903 -3.6526445 29.770391 C -5.3257956 28.406784 -30.785139 28.94781 -32.510926 30.047875 C -34.176752 31.030706 -33.753792 49.390797 -32.510926 50.442911 z "
     id="path596"
     sodipodi:nodetypes="cssss"
     transform="matrix(1.377827,2.402172e-2,-2.614466e-2,1.265948,56.06824,-25.33861)" />
  <path
     style="font-size:12;fill:url(#linearGradient860);fill-rule:evenodd;stroke:#261933;stroke-width:1.875;"
     d="M -32.649668 50.442911 C -33.738539 49.45197 -22.490714 38.836565 -17.526818 38.788604 C -12.917534 38.74407 -2.6599755 48.978789 -3.930128 50.165427 C -5.066091 51.35684 -32.182111 51.512214 -32.649668 50.442911 z "
     id="path597"
     sodipodi:nodetypes="csss"
     transform="matrix(1.377827,2.402172e-2,-2.614466e-2,1.265948,56.06824,-25.33861)" />
  <path
     style="font-size:12;fill:url(#linearGradient583);fill-rule:evenodd;stroke:#261933;stroke-width:1.875;"
     d="M -32.649668 30.186616 C -33.652052 31.444835 -22.868375 44.407645 -18.081785 44.338274 C -13.295195 44.268903 -2.8273979 30.967397 -3.930128 29.770391 C -4.9411143 28.515028 -31.690217 28.601475 -32.649668 30.186616 z "
     id="path598"
     sodipodi:nodetypes="csss"
     transform="matrix(1.377827,2.402172e-2,-2.614466e-2,1.265948,56.06824,-25.33861)" />
  <path
     d="M 11.381933 54.595249 C 9.3091908 54.263444 12.813712 35.003755 18.110503 29.85643 C 26.640549 21.566968 48.364878 16.461082 57.416774 18.649773 C 61.968795 19.750546 54.900072 31.607302 50.688206 36.698301 C 41.718212 47.659024 19.917012 55.859727 11.381933 54.595249 z "
     style="font-size:12;fill:url(#linearGradient861);fill-rule:evenodd;stroke:#261933;stroke-width:1.875;stroke-linecap:round;stroke-linejoin:round;stroke-dasharray:none;"
     id="path576"
     sodipodi:nodetypes="ccccc" />
  <path
     d="M 13.751817 51.291072 C 12.121257 44.581242 17.612025 34.674172 19.743975 32.077541 C 29.832824 24.18509 52.728249 19.866576 54.686319 20.792718 C 39.205913 23.099298 32.099128 27.134875 22.483698 33.777483 C 18.462523 38.390104 13.989536 45.120555 13.751817 51.291072 z "
     style="font-size:12;opacity:0.7;fill:url(#linearGradient581);fill-rule:evenodd;stroke:none;stroke-width:1.25;"
     id="path577"
     sodipodi:nodetypes="ccccc" />
  <path
     style="fill:#000000;fill-rule:evenodd;stroke:none;stroke-opacity:1;stroke-width:12.5;stroke-linejoin:miter;stroke-linecap:butt;fill-opacity:1;stroke-dasharray:none;opacity:0.302675;"
     d="M 5.8755095 25.999729 C 6.5938472 30.756671 21.960135 60.530204 28.674136 57.588697 C 39.346556 52.912955 55.675639 10.694139 55.032982 6.4383965 C 54.576495 3.4154341 38.177319 31.612474 26.345812 36.796029 C 20.790892 39.229722 5.4947045 23.477968 5.8755095 25.999729 z "
     id="path587"
     sodipodi:nodetypes="cssss" />
  <rect
     style="font-size:12;fill:#0000ff;fill-rule:evenodd;stroke-width:1pt;"
     id="rect575"
     width="0.00000000"
     height="0.00000000"
     x="46.75472105"
     y="50.75303259" />
  <path
     style="font-size:12;fill:url(#linearGradient869);fill-rule:evenodd;stroke:#261933;stroke-width:1.92091;"
     d="M 8.0632251 27.894282 C 8.6770411 31.959062 22.561864 57.528175 28.298939 55.014676 C 37.418454 51.019282 53.182165 12.004109 52.633027 8.3676013 C 52.242957 5.7844974 36.872005 34.096161 26.762051 38.52548 C 22.0154 40.605055 7.737831 25.739452 8.0632251 27.894282 z "
     id="path650"
     sodipodi:nodetypes="cssss" />
  <path
     style="fill:url(#linearGradient583);fill-rule:evenodd;stroke:none;stroke-opacity:1;stroke-width:1pt;stroke-linejoin:miter;stroke-linecap:butt;fill-opacity:1;"
     d="M 12.930044 35.271031 C 12.263544 34.501205 10.896938 31.882396 11.649302 32.233547 C 15.080692 33.835064 21.356167 42.384449 25.481309 41.129036 C 35.045742 38.51319 43.443227 22.345194 48.278505 16.829164 C 49.299789 15.618275 46.817034 21.908523 45.973174 23.338058 C 45.792431 23.644229 45.786941 22.330567 45.46088 22.687167 C 39.041708 29.707315 35.724748 41.791868 25.737457 45.468299 C 22.278814 46.697867 18.363707 38.590605 14.466934 35.487994 C 14.094568 35.191516 13.202756 35.58602 12.930044 35.271031 z "
     id="path582"
     sodipodi:nodetypes="cssssssss" />
</svg>
