<?xml version="1.0" encoding="UTF-8" standalone="no"?>
<!-- Created with Sodipodi ("http://www.sodipodi.com/") -->
<svg
   xmlns:dc="http://purl.org/dc/elements/1.1/"
   xmlns:cc="http://web.resource.org/cc/"
   xmlns:rdf="http://www.w3.org/1999/02/22-rdf-syntax-ns#"
   xmlns:svg="http://www.w3.org/2000/svg"
   xmlns="http://www.w3.org/2000/svg"
   xmlns:xlink="http://www.w3.org/1999/xlink"
   xmlns:sodipodi="http://inkscape.sourceforge.net/DTD/sodipodi-0.dtd"
   xmlns:inkscape="http://www.inkscape.org/namespaces/inkscape"
   id="svg1"
   sodipodi:version="0.32"
   inkscape:version="0.42.2"
   width="24.000000pt"
   height="24.000000pt"
   sodipodi:docbase="/home/jakob/dev/lila-cvs/andere-icons"
   sodipodi:docname="link.svg">
  <defs
     id="defs3">
    <linearGradient
       id="linearGradient969">
      <stop
         style="stop-color:#7f7f7f;stop-opacity:1;"
         offset="0.000000"
         id="stop970" />
      <stop
         style="stop-color:#e6e6e6;stop-opacity:1;"
         offset="1.000000"
         id="stop971" />
    </linearGradient>
    <linearGradient
       id="linearGradient964">
      <stop
         style="stop-color:#ffff32;stop-opacity:1;"
         offset="0.000000"
         id="stop965" />
      <stop
         style="stop-color:#ffc500;stop-opacity:1;"
         offset="1.000000"
         id="stop966" />
    </linearGradient>
    <linearGradient
       id="linearGradient884">
      <stop
         style="stop-color:#7fff7f;stop-opacity:1.0000000;"
         offset="0.0000000"
         id="stop885" />
      <stop
         style="stop-color:#3fbf3f;stop-opacity:1.0000000;"
         offset="1.0000000"
         id="stop886" />
    </linearGradient>
    <linearGradient
       id="linearGradient866">
      <stop
         style="stop-color:#ffffff;stop-opacity:1;"
         offset="0.00000000"
         id="stop867" />
      <stop
         style="stop-color:#d9cce6;stop-opacity:1;"
         offset="1.00000000"
         id="stop868" />
    </linearGradient>
    <linearGradient
       id="linearGradient584">
      <stop
         style="stop-color:#ffffff;stop-opacity:1;"
         offset="0.00000000"
         id="stop585" />
      <stop
         style="stop-color:#ffffff;stop-opacity:0;"
         offset="1.00000000"
         id="stop586" />
    </linearGradient>
    <linearGradient
       id="linearGradient578">
      <stop
         style="stop-color:#d9cce6;stop-opacity:1;"
         offset="0.00000000"
         id="stop579" />
      <stop
         style="stop-color:#73667f;stop-opacity:1;"
         offset="1.00000000"
         id="stop580" />
    </linearGradient>
    <linearGradient
       xlink:href="#linearGradient584"
       id="linearGradient581"
       x1="-0.00684932"
       y1="0.00775194"
       x2="0.97945207"
       y2="1.00000000" />
    <linearGradient
       xlink:href="#linearGradient584"
       id="linearGradient583"
       x1="7.2795280"
       y1="3.8095862"
       x2="21.600651"
       y2="17.490219"
       gradientTransform="matrix(0.384429,0.000000,0.000000,0.462517,0.800814,16.98024)"
       gradientUnits="userSpaceOnUse" />
    <linearGradient
       xlink:href="#linearGradient584"
       id="linearGradient860"
       x1="-0.02500000"
       y1="0.03100775"
       x2="0.97500002"
       y2="0.97674417" />
    <linearGradient
       xlink:href="#linearGradient578"
       id="linearGradient861"
       x1="0.00000000"
       y1="0.02325581"
       x2="0.98611110"
       y2="0.97674417" />
    <linearGradient
       xlink:href="#linearGradient578"
       id="linearGradient862"
       x1="-0.00000000"
       y1="0.00775194"
       x2="1.00000000"
       y2="0.99224806" />
    <linearGradient
       xlink:href="#linearGradient866"
       id="linearGradient869"
       x1="-0.00684932"
       y1="0.00775194"
       x2="0.97945207"
       y2="1.00000000" />
    <linearGradient
       xlink:href="#linearGradient866"
       id="linearGradient883"
       x1="1.6180284"
       y1="-4.4861374"
       x2="24.456966"
       y2="20.234110"
       gradientUnits="userSpaceOnUse"
       spreadMethod="pad"
       gradientTransform="matrix(0.369534,0.000000,0.000000,0.481160,0.800813,16.98026)" />
    <linearGradient
       xlink:href="#linearGradient964"
       id="linearGradient963"
       x1="-0.00001396"
       y1="0.03123664"
       x2="0.98192781"
       y2="0.99218798"
       gradientUnits="objectBoundingBox"
       spreadMethod="pad" />
    <linearGradient
       xlink:href="#linearGradient584"
       id="linearGradient967"
       x1="-0.00578947"
       y1="0.03114940"
       x2="0.84302366"
       y2="0.84374923"
       gradientUnits="objectBoundingBox"
       spreadMethod="pad" />
    <linearGradient
       xlink:href="#linearGradient969"
       id="linearGradient968"
       x1="0.01561102"
       y1="-0.00001780"
       x2="0.98437500"
       y2="0.99218690"
       gradientUnits="objectBoundingBox"
       spreadMethod="pad" />
    <linearGradient
       xlink:href="#linearGradient584"
       id="linearGradient972"
       x1="-0.00000030"
       y1="0.00000010"
       x2="0.99999970"
       y2="0.00000010"
       gradientUnits="objectBoundingBox"
       spreadMethod="pad" />
    <linearGradient
       xlink:href="#linearGradient884"
       id="linearGradient1815"
       x1="-0.01466661"
       y1="0.05835330"
       x2="1.02921987"
       y2="0.95953709"
       gradientUnits="objectBoundingBox"
       spreadMethod="pad" />
    <linearGradient
       xlink:href="#linearGradient584"
       id="linearGradient1816"
       x1="0.00624930"
       y1="0.02343486"
       x2="1.48749995"
       y2="1.35937512"
       gradientUnits="objectBoundingBox"
       spreadMethod="pad" />
    <linearGradient
       xlink:href="#linearGradient584"
       id="linearGradient1817"
       x1="0.00413379"
       y1="0.01517161"
       x2="0.98347086"
       y2="1.01515150"
       gradientUnits="objectBoundingBox"
       spreadMethod="pad" />
    <linearGradient
       xlink:href="#linearGradient584"
       id="linearGradient1818"
       x1="-0.03225702"
       y1="0.00781346"
       x2="0.96774155"
       y2="0.99999982"
       gradientUnits="objectBoundingBox"
       spreadMethod="pad" />
    <linearGradient
       xlink:href="#linearGradient584"
       id="linearGradient1819"
       x1="-0.00000289"
       y1="0.00782308"
       x2="1.00000000"
       y2="0.99218750"
       gradientUnits="objectBoundingBox"
       spreadMethod="pad" />
  </defs>
  <sodipodi:namedview
     id="base"
     pagecolor="#ffffff"
     bordercolor="#666666"
     borderopacity="1.0"
     inkscape:pageopacity="0.0"
     inkscape:pageshadow="2"
     inkscape:zoom="15.958943"
     inkscape:cx="13.834041"
     inkscape:cy="11.289269"
     inkscape:window-width="1022"
     inkscape:window-height="695"
     inkscape:window-x="0"
     inkscape:window-y="26"
     inkscape:current-layer="svg1" />
  <path
     style="font-size:12.000000;opacity:0.29636899;fill-rule:evenodd;stroke-width:18.750000"
     d="M 7.3535309,29.361724 C 5.9752190,29.533412 2.7605378,27.801236 3.0954917,24.774952 C 3.5859382,21.524011 7.6924084,20.878925 7.7658041,20.647630 C 8.1779395,20.102359 7.4971183,17.837289 7.8629111,18.026728 C 8.8404189,18.532962 11.755125,21.834088 11.795707,22.540505 C 11.787493,23.241610 8.7013749,26.577570 7.7658041,27.005746 C 7.3580744,27.192351 7.8782776,24.375551 7.7172526,24.287775 C 7.4574867,24.149053 5.7929120,24.002406 5.0953885,25.598224 C 4.7214672,26.502233 5.7448271,28.499847 7.3535309,29.361724 z "
     id="path739"
     sodipodi:nodetypes="cccccccsc" />
  <path
     style="font-size:12.000000;fill:url(#linearGradient883);fill-rule:evenodd;stroke:#261933;stroke-width:0.44802353;fill-opacity:1.0"
     d="M 6.6242746,28.629419 C 5.3411308,28.789253 2.8320033,26.792790 3.1438288,23.975463 C 3.6004131,20.948989 7.6407590,20.304959 7.7090875,20.089637 C 8.0927652,19.582015 7.4589530,17.473341 7.7994899,17.649698 C 8.7095029,18.120980 11.422957,21.194172 11.460736,21.851815 C 11.453092,22.504507 8.5800609,25.610133 7.7090875,26.008745 C 7.3295106,26.182462 7.8137952,23.560155 7.6638871,23.478439 C 7.4220555,23.349296 5.8724173,23.212774 5.2230550,24.698407 C 4.8749520,25.539995 5.1266459,27.827049 6.6242746,28.629419 z "
     id="path735"
     sodipodi:nodetypes="cccccccsc" />
  <path
     style="font-size:12.000000;opacity:0.20178296;fill-rule:evenodd;stroke-width:0.96522999pt"
     d="M 5.9914658,28.358314 C 5.0815492,26.822636 4.6510626,25.752254 4.9518532,24.833959 C 5.2085367,24.050322 7.2577792,23.099172 7.7542870,23.297702 C 8.1617904,23.460643 7.2682128,26.064867 7.6638871,25.918376 C 8.4886285,25.613028 11.992738,21.967969 11.415535,21.942181 C 7.5949253,21.728316 4.8581621,22.448388 4.3642445,23.930279 C 3.5158916,26.397979 5.0062144,27.816686 5.9914658,28.358314 z "
     id="path737"
     sodipodi:nodetypes="csssssc" />
  <path
     style="font-size:12.000000;fill:url(#linearGradient583);fill-rule:evenodd;stroke-width:1.0000000pt"
     d="M 3.5899624,25.272633 C 3.5459763,25.217669 3.2800876,23.407020 4.6127348,22.141539 C 5.8455295,20.990400 7.2902392,21.129143 8.1582036,20.307159 C 8.5047804,19.978944 8.1231060,18.904076 8.2563602,18.690946 C 8.3361837,18.563277 8.9672249,19.203503 9.0234409,19.329945 C 9.0524549,19.395204 8.5548692,19.149878 8.5120546,19.266046 C 8.4057143,19.554579 8.8610229,20.294095 8.5759759,20.544042 C 7.6464794,21.359093 6.2623082,21.231772 4.8684268,22.461038 C 3.4046113,23.754642 3.6312074,25.324169 3.5899624,25.272633 z "
     id="path742"
     sodipodi:nodetypes="cssssssss" />
  <rect
     style="font-size:12.000000;fill:#808080;fill-rule:evenodd;stroke-width:1.0000000pt;"
     id="rect630"
     width="0.0000000"
     height="4.5257583"
     x="62.140923"
     y="-58.160851" />
  <metadata
     id="metadata43">
    <rdf:RDF>
      <cc:Work
         rdf:about="">
        <dc:format>image/svg+xml</dc:format>
        <dc:type
           rdf:resource="http://purl.org/dc/dcmitype/StillImage" />
      </cc:Work>
    </rdf:RDF>
  </metadata>
</svg>
