<?xml version="1.0" encoding="UTF-8" standalone="no"?>
<!DOCTYPE svg PUBLIC "-//W3C//DTD SVG 20010904//EN"
"http://www.w3.org/TR/2001/REC-SVG-20010904/DTD/svg10.dtd">
<!-- Created with Inkscape (http://www.inkscape.org/) -->
<svg
   id="svg1"
   sodipodi:version="0.32"
   inkscape:version="0.40"
   width="48pt"
   height="48pt"
   sodipodi:docbase="/home/jakob/dev/lila-cvs/lila/kde/scalable/filesystems"
   sodipodi:docname="locked.svg"
   xmlns="http://www.w3.org/2000/svg"
   xmlns:cc="http://web.resource.org/cc/"
   xmlns:inkscape="http://www.inkscape.org/namespaces/inkscape"
   xmlns:sodipodi="http://sodipodi.sourceforge.net/DTD/sodipodi-0.dtd"
   xmlns:rdf="http://www.w3.org/1999/02/22-rdf-syntax-ns#"
   xmlns:dc="http://purl.org/dc/elements/1.1/"
   xmlns:xlink="http://www.w3.org/1999/xlink">
  <metadata
     id="metadata32">
    <rdf:RDF
       id="RDF33">
      <cc:Work
         rdf:about=""
         id="Work34">
        <dc:format
           id="format35">image/svg+xml</dc:format>
        <dc:type
           id="type37"
           rdf:resource="http://purl.org/dc/dcmitype/StillImage" />
      </cc:Work>
    </rdf:RDF>
  </metadata>
  <defs
     id="defs3">
    <linearGradient
       id="linearGradient584">
      <stop
         style="stop-color:#ffffff;stop-opacity:1;"
         offset="0.00000000"
         id="stop585" />
      <stop
         style="stop-color:#ffffff;stop-opacity:0;"
         offset="1.00000000"
         id="stop586" />
    </linearGradient>
    <linearGradient
       id="linearGradient578">
      <stop
         style="stop-color:#d9cce6;stop-opacity:1;"
         offset="0.00000000"
         id="stop579" />
      <stop
         style="stop-color:#73667f;stop-opacity:1;"
         offset="1.00000000"
         id="stop580" />
    </linearGradient>
    <linearGradient
       xlink:href="#linearGradient584"
       id="linearGradient581"
       x1="-0.00684932"
       y1="0.00775194"
       x2="0.97945207"
       y2="1.00000000" />
    <linearGradient
       xlink:href="#linearGradient584"
       id="linearGradient583"
       x1="0.01094890"
       y1="0.01030928"
       x2="1.01459849"
       y2="0.96907216" />
    <linearGradient
       xlink:href="#linearGradient584"
       id="linearGradient860"
       x1="-0.02500000"
       y1="0.03100775"
       x2="0.97500002"
       y2="0.97674417" />
    <linearGradient
       xlink:href="#linearGradient578"
       id="linearGradient861"
       x1="0.00000000"
       y1="0.02325581"
       x2="0.98611110"
       y2="0.97674417" />
    <linearGradient
       xlink:href="#linearGradient578"
       id="linearGradient862"
       x1="-0.00000000"
       y1="0.00775194"
       x2="1.00000000"
       y2="0.99224806" />
    <linearGradient
       xlink:href="#linearGradient578"
       id="linearGradient622"
       x1="24.688918"
       y1="36.489620"
       x2="48.473387"
       y2="36.489620"
       gradientTransform="matrix(1.104534,0.000000,0.000000,0.905359,2.036470,-0.469955)"
       gradientUnits="userSpaceOnUse" />
    <linearGradient
       xlink:href="#linearGradient584"
       id="linearGradient623"
       gradientTransform="matrix(1.133666,0.000000,0.000000,0.882094,2.036470,-0.469955)"
       x1="25.947961"
       y1="49.478367"
       x2="45.109406"
       y2="49.478367"
       gradientUnits="userSpaceOnUse" />
    <linearGradient
       xlink:href="#linearGradient578"
       id="linearGradient624"
       x1="32.844141"
       y1="17.239451"
       x2="50.579904"
       y2="17.239451"
       gradientTransform="matrix(0.976590,0.000000,0.000000,1.023971,2.036470,-0.469955)"
       gradientUnits="userSpaceOnUse" />
    <linearGradient
       xlink:href="#linearGradient584"
       id="linearGradient625"
       gradientTransform="matrix(1.045877,0.000000,0.000000,0.956136,2.036470,-0.469955)"
       x1="32.420819"
       y1="25.259754"
       x2="42.506792"
       y2="25.259754"
       gradientUnits="userSpaceOnUse" />
  </defs>
  <sodipodi:namedview
     id="base"
     pagecolor="#ffffff"
     bordercolor="#666666"
     borderopacity="1.0"
     inkscape:pageopacity="0.0"
     inkscape:pageshadow="2"
     inkscape:zoom="7.9794719"
     inkscape:cx="25.514235"
     inkscape:cy="23.606087"
     inkscape:window-width="1018"
     inkscape:window-height="711"
     inkscape:window-x="282"
     inkscape:window-y="171"
     inkscape:current-layer="svg1" />
  <path
     d="M 36.073697,33.881065 C 35.993419,27.817909 37.783391,18.836219 44.124137,18.896050 C 50.905965,18.960964 52.439801,28.813794 52.272825,34.186892 C 52.189806,36.808677 47.596734,36.283750 47.658527,34.186892 C 47.608860,31.323593 48.338635,24.502767 43.927776,24.502767 C 39.535467,24.400825 40.526502,31.422237 40.491636,34.186892 C 40.568230,35.795703 36.067413,36.030020 36.073697,33.881065 z "
     style="font-size:12.000000;opacity:0.30267498;fill-rule:evenodd;stroke-width:12.500000"
     id="path602" />
  <path
     d="M 30.971618,54.589361 C 31.924376,55.391430 55.479441,55.819571 56.205483,55.013681 C 57.012283,54.000227 56.786239,35.769505 56.001159,34.859171 C 55.229961,33.975668 31.825965,33.831758 31.073782,34.753090 C 30.355097,35.528097 30.032907,53.713188 30.971618,54.589361 z "
     style="font-size:12.000000;opacity:0.29636899;fill-rule:evenodd;stroke-width:12.500000"
     id="path600" />
  <path
     d="M 34.783371,32.623453 C 34.704243,26.646759 36.468690,17.793153 42.719007,17.852131 C 49.404123,17.916119 50.916091,27.628443 50.751491,32.924918 C 50.669656,35.509315 46.142084,34.991875 46.202996,32.924918 C 46.154036,30.102451 46.873412,23.378893 42.525447,23.378893 C 38.195774,23.278406 39.172677,30.199689 39.138307,32.924918 C 39.213809,34.510787 34.777183,34.741763 34.783371,32.623453 z "
     style="font-size:12.000000;fill:url(#linearGradient624);fill-rule:evenodd;stroke:#261933;stroke-width:1.3382000;stroke-opacity:1.0000000"
     id="path593" />
  <path
     d="M 30.525143,52.620040 C 31.427683,53.379841 53.741199,53.785414 54.428970,53.021994 C 55.193245,52.061966 54.979122,34.792154 54.235411,33.929801 C 53.504868,33.092866 31.334465,32.956542 30.621923,33.829313 C 29.941124,34.563469 29.635911,51.790056 30.525143,52.620040 z "
     style="font-size:12.000000;fill:url(#linearGradient622);fill-rule:evenodd;stroke:#261933;stroke-width:1.3382000"
     id="path583" />
  <path
     d="M 31.880060,51.615232 C 31.530373,51.125128 31.081767,35.842774 31.976839,35.135661 C 33.178039,34.210800 52.833958,35.065171 53.170909,35.537540 C 53.479110,35.969567 38.107036,34.681100 33.912359,37.848700 C 31.010111,40.040307 32.175594,52.029453 31.880060,51.615232 z "
     style="font-size:12.000000;opacity:0.69999999;fill:url(#linearGradient623);fill-rule:evenodd;stroke:none;stroke-width:0.11004601pt"
     id="path588" />
  <path
     d="M 35.944652,28.503578 C 36.570873,24.318830 38.113584,21.258590 40.299589,19.459893 C 41.533030,18.445005 44.895191,18.699411 46.493335,20.364258 C 44.411298,19.603776 42.066173,19.610270 40.783487,20.665709 C 38.646721,22.423885 37.054772,25.223225 35.944652,28.503578 z "
     style="font-size:12.000000;opacity:0.69999999;fill:url(#linearGradient625);fill-rule:evenodd;stroke:none;stroke-width:0.11004601pt"
     id="path598" />
  <path
     d="M 42.890434,38.054256 C 44.036416,38.150755 46.145925,40.284283 46.145925,41.346581 C 46.145925,42.296268 43.191877,42.989564 42.890434,44.090209 C 42.357082,46.038129 44.149709,48.914976 43.641546,50.492054 C 43.481856,50.987922 41.050131,50.830909 40.886815,50.309182 C 40.382278,48.697010 41.902712,46.100494 41.638207,44.090209 C 41.485425,42.930084 39.426793,41.799961 39.634658,40.797887 C 39.844232,39.787976 41.865926,37.967881 42.890434,38.054256 z "
     style="font-size:12.000000;fill:#261933;fill-opacity:1.0000000;fill-rule:evenodd;stroke-width:1.2871100pt"
     id="path603" />
</svg>
