<?xml version="1.0" encoding="UTF-8" standalone="no"?>
<!-- Created with Inkscape (http://www.inkscape.org/) -->
<svg
   xmlns:dc="http://purl.org/dc/elements/1.1/"
   xmlns:cc="http://web.resource.org/cc/"
   xmlns:rdf="http://www.w3.org/1999/02/22-rdf-syntax-ns#"
   xmlns:svg="http://www.w3.org/2000/svg"
   xmlns="http://www.w3.org/2000/svg"
   xmlns:xlink="http://www.w3.org/1999/xlink"
   xmlns:sodipodi="http://inkscape.sourceforge.net/DTD/sodipodi-0.dtd"
   xmlns:inkscape="http://www.inkscape.org/namespaces/inkscape"
   version="1.0"
   x="0"
   y="0"
   width="48pt"
   height="48pt"
   id="svg1"
   sodipodi:version="0.32"
   inkscape:version="0.42"
   sodipodi:docname="network_local.svg"
   sodipodi:docbase="/home/jakob/dev/lila/lila-theme/trunk/lila/kde/scalable/filesystems">
  <metadata
     id="metadata51">
    <rdf:RDF>
      <cc:Work
         rdf:about="">
        <dc:format>image/svg+xml</dc:format>
        <dc:type
           rdf:resource="http://purl.org/dc/dcmitype/StillImage" />
      </cc:Work>
    </rdf:RDF>
  </metadata>
  <sodipodi:namedview
     id="base"
     inkscape:zoom="6.9918718"
     inkscape:cx="26.698840"
     inkscape:cy="22.451446"
     inkscape:window-width="1018"
     inkscape:window-height="713"
     inkscape:window-x="351"
     inkscape:window-y="269"
     inkscape:current-layer="svg1" />
  <defs
     id="defs3">
    <linearGradient
       id="linearGradient894">
      <stop
         offset="0.0000000"
         style="stop-color:#d9cce6;stop-opacity:1.0000000;"
         id="stop895" />
      <stop
         offset="1.0000000"
         style="stop-color:#ffffff;stop-opacity:1.0000000;"
         id="stop896" />
    </linearGradient>
    <linearGradient
       id="linearGradient891">
      <stop
         offset="0.0000000"
         style="stop-color:#d9cce6;stop-opacity:1.0000000;"
         id="stop893" />
      <stop
         offset="1.0000000"
         style="stop-color:#73667f;stop-opacity:1.0000000;"
         id="stop892" />
    </linearGradient>
    <linearGradient
       id="linearGradient888">
      <stop
         style="stop-color:#ffffff;stop-opacity:1.0000000;"
         offset="0.0000000"
         id="stop889" />
      <stop
         style="stop-color:#ffffff;stop-opacity:0.0000000;"
         offset="1.0000000"
         id="stop890" />
    </linearGradient>
    <linearGradient
       id="linearGradient885">
      <stop
         offset="0.0000000"
         style="stop-color:#ffffff;stop-opacity:1.0000000;"
         id="stop887" />
      <stop
         offset="1.0000000"
         style="stop-color:#ffffff;stop-opacity:0.0000000;"
         id="stop886" />
    </linearGradient>
    <linearGradient
       id="linearGradient570">
      <stop
         style="stop-color:#ffffff;stop-opacity:1;"
         offset="0"
         id="stop571" />
      <stop
         style="stop-color:#ffffff;stop-opacity:0;"
         offset="1"
         id="stop572" />
    </linearGradient>
    <linearGradient
       id="linearGradient563">
      <stop
         style="stop-color:#d9cce6;stop-opacity:1;"
         offset="0.00000000"
         id="stop564" />
      <stop
         style="stop-color:#73667f;stop-opacity:1;"
         offset="1.00000000"
         id="stop565" />
    </linearGradient>
    <linearGradient
       x1="1.2576572"
       y1="23.456641"
       x2="46.051252"
       y2="67.581990"
       id="linearGradient566"
       xlink:href="#linearGradient563"
       gradientTransform="matrix(1.250344,0.000000,0.000000,0.799780,3.844601e-4,0.000000)"
       gradientUnits="userSpaceOnUse" />
    <linearGradient
       x1="31.749298"
       y1="28.535337"
       x2="44.317188"
       y2="42.356869"
       id="linearGradient569"
       xlink:href="#linearGradient891"
       gradientTransform="scale(0.988391,1.011745)"
       gradientUnits="userSpaceOnUse" />
    <linearGradient
       x1="6.8826790"
       y1="5.8746011"
       x2="24.458990"
       y2="23.262949"
       id="linearGradient573"
       xlink:href="#linearGradient570"
       gradientTransform="scale(0.948286,1.054534)"
       gradientUnits="userSpaceOnUse" />
    <linearGradient
       x1="32.357644"
       y1="30.601260"
       x2="52.599243"
       y2="49.326451"
       id="linearGradient575"
       xlink:href="#linearGradient570"
       gradientTransform="scale(0.899908,1.111225)"
       gradientUnits="userSpaceOnUse" />
    <linearGradient
       id="linearGradient578"
       xlink:href="#linearGradient891"
       x1="44.318283"
       y1="7.5181632"
       x2="53.547634"
       y2="16.609831"
       gradientTransform="scale(0.881616,1.134281)"
       gradientUnits="userSpaceOnUse" />
    <defs
       id="defs848">
      <linearGradient
         id="linearGradient849"
         x1="0.0000000"
         y1="0.50000000"
         x2="1.0000000"
         y2="0.50000000"
         gradientUnits="objectBoundingBox"
         spreadMethod="pad"
         xlink:href="#linearGradient885" />
      <linearGradient
         id="linearGradient852"
         x1="0.0000000"
         y1="0.50000000"
         x2="1.0000000"
         y2="0.50000000"
         gradientUnits="objectBoundingBox"
         spreadMethod="pad"
         xlink:href="#linearGradient891" />
      <linearGradient
         x1="-0.00000000"
         y1="0.00000000"
         x2="0.98412699"
         y2="1.00000000"
         id="linearGradient855"
         xlink:href="#linearGradient563" />
      <linearGradient
         x1="-0.00000000"
         y1="0.00000000"
         x2="0.97727275"
         y2="0.98437500"
         id="linearGradient856"
         xlink:href="#linearGradient570" />
      <linearGradient
         x1="0.01282051"
         y1="0.99218750"
         x2="0.98717946"
         y2="0.00000000"
         id="linearGradient857"
         xlink:href="#linearGradient570" />
      <linearGradient
         x1="-0.00000000"
         y1="0.00000000"
         x2="0.99253732"
         y2="0.98437500"
         id="linearGradient858"
         xlink:href="#linearGradient570" />
      <linearGradient
         id="linearGradient859"
         xlink:href="#linearGradient570" />
    </defs>
    <linearGradient
       inkscape:collect="always"
       xlink:href="#linearGradient570"
       id="linearGradient1367"
       x1="32.094519"
       y1="27.534711"
       x2="56.282903"
       y2="49.911011"
       gradientTransform="matrix(0.977333,0.000000,0.000000,1.023192,3.844601e-4,0.000000)"
       gradientUnits="userSpaceOnUse" />
    <linearGradient
       inkscape:collect="always"
       xlink:href="#linearGradient570"
       id="linearGradient1369"
       x1="2.9774263"
       y1="36.687416"
       x2="30.584531"
       y2="63.999287"
       gradientTransform="matrix(1.751766,0.000000,0.000000,0.570852,3.844601e-4,0.000000)"
       gradientUnits="userSpaceOnUse" />
    <linearGradient
       inkscape:collect="always"
       xlink:href="#linearGradient570"
       id="linearGradient1371"
       x1="1.7264779"
       y1="70.356738"
       x2="15.861026"
       y2="85.901198"
       gradientTransform="matrix(1.868010,0.000000,0.000000,0.535329,3.844601e-4,0.000000)"
       gradientUnits="userSpaceOnUse" />
    <linearGradient
       y2="0.99082571"
       x2="0.99130434"
       y1="0.00917431"
       x1="-0.00000000"
       id="linearGradient601"
       xlink:href="#linearGradient570" />
    <linearGradient
       y2="0.99586779"
       x2="0.98630136"
       y1="0.00413223"
       x1="-0.00913242"
       xlink:href="#linearGradient563"
       id="linearGradient1468" />
    <linearGradient
       xlink:href="#linearGradient570"
       id="linearGradient1466"
       y2="0.98437500"
       x2="0.99253732"
       y1="0.00000000"
       x1="-0.00000000" />
    <linearGradient
       xlink:href="#linearGradient570"
       id="linearGradient1464"
       y2="0.00000000"
       x2="0.98717946"
       y1="0.99218750"
       x1="0.01282051" />
    <linearGradient
       xlink:href="#linearGradient570"
       id="linearGradient1462"
       y2="0.98437500"
       x2="0.97727275"
       y1="0.00000000"
       x1="-0.00000000" />
    <linearGradient
       xlink:href="#linearGradient563"
       id="linearGradient1460"
       y2="1.00000000"
       x2="0.98412699"
       y1="0.00000000"
       x1="-0.00000000" />
    <linearGradient
       id="linearGradient1454">
      <stop
         id="stop1456"
         offset="0"
         style="stop-color:#d9cce6;stop-opacity:1;" />
      <stop
         id="stop1458"
         offset="1"
         style="stop-color:#73667f;stop-opacity:1;" />
    </linearGradient>
    <linearGradient
       id="linearGradient1448">
      <stop
         id="stop1450"
         offset="0"
         style="stop-color:#ffffff;stop-opacity:1;" />
      <stop
         id="stop1452"
         offset="1"
         style="stop-color:#ffffff;stop-opacity:0;" />
    </linearGradient>
    <linearGradient
       inkscape:collect="always"
       xlink:href="#linearGradient894"
       id="linearGradient1499"
       gradientUnits="userSpaceOnUse"
       gradientTransform="matrix(0.556284,0.000000,0.000000,0.715711,12.17942,0.265877)"
       x1="44.318283"
       y1="7.5181634"
       x2="53.547636"
       y2="16.609830" />
    <linearGradient
       inkscape:collect="always"
       xlink:href="#linearGradient570"
       id="linearGradient1502"
       gradientUnits="userSpaceOnUse"
       gradientTransform="matrix(0.735092,0.000000,0.000000,0.541617,12.63823,0.717252)"
       x1="8.0579570"
       y1="33.187917"
       x2="34.806444"
       y2="57.932529" />
    <linearGradient
       inkscape:collect="always"
       xlink:href="#linearGradient570"
       id="linearGradient1505"
       gradientUnits="userSpaceOnUse"
       gradientTransform="matrix(0.603247,0.000000,0.000000,0.676117,11.74551,0.265877)"
       x1="30.303006"
       y1="31.127982"
       x2="51.501546"
       y2="50.738424" />
    <linearGradient
       inkscape:collect="always"
       xlink:href="#linearGradient570"
       id="linearGradient1508"
       gradientUnits="userSpaceOnUse"
       gradientTransform="matrix(0.596298,0.000000,0.000000,0.619299,12.32988,1.256439)"
       x1="6.4185399"
       y1="5.1699900"
       x2="24.533549"
       y2="23.091275" />
    <linearGradient
       inkscape:collect="always"
       xlink:href="#linearGradient570"
       id="linearGradient1512"
       gradientUnits="userSpaceOnUse"
       gradientTransform="matrix(0.623657,0.000000,0.000000,0.638393,12.17942,0.265877)"
       x1="33.086062"
       y1="28.535337"
       x2="45.653954"
       y2="42.356868" />
    <linearGradient
       inkscape:collect="always"
       xlink:href="#linearGradient570"
       id="linearGradient1515"
       gradientUnits="userSpaceOnUse"
       gradientTransform="matrix(0.532043,0.000000,0.000000,0.748320,12.17942,0.265877)"
       x1="17.048897"
       y1="32.112513"
       x2="32.102706"
       y2="48.667930" />
    <linearGradient
       inkscape:collect="always"
       xlink:href="#linearGradient563"
       id="linearGradient1518"
       gradientUnits="userSpaceOnUse"
       gradientTransform="matrix(0.788945,0.000000,0.000000,0.504647,12.17966,0.265877)"
       x1="1.2576572"
       y1="23.456641"
       x2="46.051252"
       y2="67.581990" />
    <linearGradient
       y2="57.932529"
       x2="34.078052"
       y1="31.950714"
       x1="7.8807990"
       gradientTransform="matrix(0.294715,1.120533e-2,-1.110883e-2,0.339270,16.34726,31.02829)"
       gradientUnits="userSpaceOnUse"
       id="linearGradient2079"
       xlink:href="#linearGradient570"
       inkscape:collect="always" />
    <linearGradient
       y2="57.932529"
       x2="34.078052"
       y1="31.950714"
       x1="7.8807990"
       gradientTransform="matrix(0.317777,0.000000,0.000000,0.286255,31.14783,22.63259)"
       gradientUnits="userSpaceOnUse"
       id="linearGradient2075"
       xlink:href="#linearGradient570"
       inkscape:collect="always" />
    <linearGradient
       gradientUnits="userSpaceOnUse"
       gradientTransform="scale(1.384303,0.722385)"
       y2="33.559269"
       x2="33.294834"
       y1="6.3466382"
       x1="9.4389467"
       id="linearGradient2071"
       xlink:href="#linearGradient563"
       inkscape:collect="always" />
    <linearGradient
       gradientUnits="userSpaceOnUse"
       gradientTransform="matrix(0.843198,0.000000,0.000000,1.185961,1.321245,0.849372)"
       y2="47.727947"
       x2="31.976786"
       y1="32.578831"
       x1="16.936970"
       id="linearGradient2065"
       xlink:href="#linearGradient563"
       inkscape:collect="always" />
    <linearGradient
       y2="57.932529"
       x2="34.078052"
       y1="31.950714"
       x1="7.8807990"
       gradientTransform="matrix(0.185060,0.000000,0.000000,0.250771,39.32751,2.408939)"
       gradientUnits="userSpaceOnUse"
       id="linearGradient1331"
       xlink:href="#linearGradient570"
       inkscape:collect="always" />
    <linearGradient
       gradientUnits="userSpaceOnUse"
       gradientTransform="matrix(1.132859,0.000000,0.000000,0.834693,1.101535,1.381574)"
       y2="57.932529"
       x2="34.078052"
       y1="31.950714"
       x1="7.8807990"
       id="linearGradient1327"
       xlink:href="#linearGradient570"
       inkscape:collect="always" />
    <linearGradient
       y2="0.99082571"
       x2="0.99130434"
       y1="0.00917431"
       x1="-0.00000000"
       id="linearGradient1513"
       xlink:href="#linearGradient570" />
    <linearGradient
       y2="0.99586779"
       x2="0.98630136"
       y1="0.0041322298"
       x1="-0.0091324197"
       xlink:href="#linearGradient563"
       id="linearGradient1511" />
    <linearGradient
       gradientUnits="userSpaceOnUse"
       gradientTransform="matrix(0.879371,0.000000,0.000000,1.085865,2.119519,0.660622)"
       xlink:href="#linearGradient570"
       id="linearGradient1509"
       y2="49.870069"
       x2="50.853336"
       y1="29.749454"
       x1="30.565883" />
    <linearGradient
       gradientUnits="userSpaceOnUse"
       gradientTransform="matrix(0.932323,0.000000,0.000000,1.021750,0.000000,0.981056)"
       xlink:href="#linearGradient570"
       id="linearGradient1506"
       y2="4.8582692"
       x2="25.044985"
       y1="23.091298"
       x1="7.1395836" />
    <linearGradient
       gradientUnits="userSpaceOnUse"
       gradientTransform="matrix(0.988391,0.000000,0.000000,1.011745,-1.321245,0.000000)"
       xlink:href="#linearGradient563"
       id="linearGradient1503"
       y2="41.572112"
       x2="45.548827"
       y1="28.924651"
       x1="32.992617" />
    <linearGradient
       gradientUnits="userSpaceOnUse"
       gradientTransform="scale(1.136482,0.879908)"
       xlink:href="#linearGradient2059"
       id="linearGradient1501"
       y2="21.382988"
       x2="7.8202596"
       y1="54.841057"
       x1="30.344252" />
    <linearGradient
       id="linearGradient1495">
      <stop
         id="stop1497"
         offset="0"
         style="stop-color:#d9cce6;stop-opacity:1;" />
      <stop
         id="stop1499"
         offset="1"
         style="stop-color:#73667f;stop-opacity:1;" />
    </linearGradient>
    <linearGradient
       id="linearGradient1489">
      <stop
         id="stop1491"
         offset="0"
         style="stop-color:#ffffff;stop-opacity:1;" />
      <stop
         id="stop1493"
         offset="1"
         style="stop-color:#ffffff;stop-opacity:0;" />
    </linearGradient>
    <linearGradient
       id="linearGradient2059">
      <stop
         style="stop-color:#ffffff;stop-opacity:1.0000000;"
         offset="0.0000000"
         id="stop2061" />
      <stop
         style="stop-color:#d9cce6;stop-opacity:1.0000000;"
         offset="1.0000000"
         id="stop2063" />
    </linearGradient>
    <linearGradient
       inkscape:collect="always"
       xlink:href="#linearGradient2059"
       id="linearGradient1545"
       gradientUnits="userSpaceOnUse"
       gradientTransform="matrix(1.250344,0.000000,0.000000,0.799780,3.844601e-4,-4.309704e-17)"
       x1="1.2576572"
       y1="23.456640"
       x2="46.051250"
       y2="67.581993" />
  </defs>
  <path
     d="M 2.2720583,49.584741 C 3.2369923,50.169766 31.152144,57.199234 32.925760,56.857308 C 34.720368,56.536068 58.149380,36.925505 59.063494,35.205070 C 59.839452,33.909806 59.981782,26.648142 59.063494,25.949307 C 57.859314,25.198114 31.754082,19.808284 30.051885,20.329629 C 28.295282,20.825812 2.7668740,37.587864 1.8615115,38.841354 C 0.99352123,40.022918 1.5191470,48.999415 2.2720583,49.584741 z "
     style="font-size:12.000000px;opacity:0.30267498;fill-rule:evenodd;stroke-width:12.500000"
     id="path776" />
  <path
     d="M 2.7676512,47.032990 C 3.6870765,47.590419 30.285684,54.288359 31.975653,53.962464 C 33.685621,53.656563 56.009666,34.970794 56.880670,33.331498 C 57.620031,32.097321 57.755650,25.178031 56.880670,24.512165 C 55.733279,23.796487 30.859232,18.660757 29.237316,19.157612 C 27.563557,19.630396 3.2391301,35.601905 2.3764669,36.796189 C 1.5494131,37.922025 2.0502492,46.475169 2.7676512,47.032990 z "
     style="font-size:12.000000px;fill:url(#linearGradient566);fill-rule:evenodd;stroke:#261933;stroke-width:1.8750000;stroke-dasharray:none"
     id="path679" />
  <path
     d="M 3.6803980,45.615619 C 3.4205341,45.081972 2.5203204,37.923675 3.4196116,37.898625 C 4.7967115,37.856493 29.795816,43.841964 30.019684,44.301643 C 30.230444,44.734426 12.416448,40.170205 4.9079460,40.798601 C 3.6367503,40.905099 3.8551811,45.974524 3.6803980,45.615619 z "
     style="font-size:12.000000px;opacity:0.69999999;fill:url(#linearGradient1371);fill-rule:evenodd;stroke:none;stroke-width:0.10669100pt"
     id="path680" />
  <path
     d="M 4.8539405,36.953647 C 4.8982284,36.579212 28.160214,20.877579 29.758927,20.732446 C 31.413365,20.594104 54.707435,25.404713 54.664039,25.772069 C 54.620548,26.139713 35.719740,22.297863 29.682525,23.605535 C 24.186919,24.824083 4.8113031,37.314107 4.8539405,36.953647 z "
     style="font-size:12.000000px;opacity:0.69999999;fill:url(#linearGradient1369);fill-rule:evenodd;stroke:none;stroke-width:0.10669100pt"
     id="path682" />
  <path
     d="M 31.975653,51.442557 C 31.644706,51.157142 30.748950,45.327580 31.508019,43.867400 C 32.392709,42.258781 54.224168,26.765003 54.533662,27.031975 C 54.832667,27.289912 39.167441,38.038713 33.149059,44.551431 C 31.648202,46.175675 32.253207,51.682249 31.975653,51.442557 z "
     style="font-size:12.000000px;opacity:0.69999999;fill:url(#linearGradient1367);fill-rule:evenodd;stroke:none;stroke-width:0.10669100pt"
     id="path683" />
  <ellipse
     cx="410.20490"
     cy="422.40900"
     rx="11.720139"
     ry="11.720139"
     transform="matrix(0.141210,0.000000,0.000000,0.170551,-31.18764,-23.93649)"
     style="font-size:12.000000px;fill:#80ff80;fill-rule:evenodd;stroke:#003f00;stroke-width:6.2500000;stroke-linecap:round;stroke-linejoin:round"
     id="path722"
     sodipodi:cx="410.20490"
     sodipodi:cy="422.40900"
     sodipodi:rx="11.720139"
     sodipodi:ry="11.720139" />
  <g
     id="g1521"
     transform="matrix(0.638827,0.000000,0.000000,0.638827,11.72255,-3.202178e-2)">
    <path
       sodipodi:nodetypes="csszzsss"
       id="path1523"
       style="font-size:12.000000px;opacity:0.29999998;fill:#000000;fill-opacity:1.0000000;fill-rule:evenodd;stroke:none;stroke-width:1.8750000;stroke-dasharray:none"
       d="M 32.709415,4.6143602 C 26.515415,4.8467181 7.5058318,22.426859 8.6165628,26.709521 C 9.3230596,29.514505 11.526155,27.809570 11.873937,29.540002 C 13.604370,38.149955 10.138019,54.017098 14.106470,57.641692 C 18.246653,61.266286 47.859111,59.205487 50.797162,57.126493 C 53.563479,55.047499 51.370126,38.049086 53.029694,29.368269 C 53.346964,27.708701 56.793996,28.364962 57.261585,26.964003 C 58.659828,23.155908 39.017626,4.3841018 32.709415,4.6143602 z " />
    <path
       sodipodi:nodetypes="czzss"
       id="path1525"
       style="font-size:12.000000px;fill:url(#linearGradient1545);fill-opacity:1.0000000;fill-rule:evenodd;stroke:#261933;stroke-width:2.9350691;stroke-dasharray:none"
       d="M 8.0567089,25.919971 C 9.7871414,34.529924 6.3207912,50.963315 10.289241,54.587909 C 14.429424,58.212503 44.041882,57.001076 46.979933,54.922082 C 49.746250,52.843088 47.552897,33.957182 49.212465,25.276365 C 49.529735,23.616797 7.7089261,24.189539 8.0567089,25.919971 z " />
    <path
       d="M 28.892186,1.5605777 C 22.698186,1.7929356 2.5561079,20.411197 3.6668389,24.693859 C 4.3733357,27.498843 52.599269,27.481796 54.010604,23.910220 C 55.501455,20.137418 35.200397,1.3303193 28.892186,1.5605777 z "
       style="font-size:12.000000px;fill:url(#linearGradient2071);fill-opacity:1.0000000;fill-rule:evenodd;stroke:#261933;stroke-width:2.9350691;stroke-dasharray:none"
       id="path2067"
       sodipodi:nodetypes="csss" />
    <path
       sodipodi:nodetypes="cssss"
       id="path1528"
       d="M 17.191763,41.638752 C 16.307663,43.170059 16.191485,54.871134 17.191763,55.871413 C 18.128250,56.807899 25.230735,57.513960 26.873282,55.871413 C 27.891995,54.106950 28.048231,42.813702 26.873282,41.638752 C 25.230735,39.996204 18.198564,39.894922 17.191763,41.638752 z "
       style="font-size:12.000000px;fill:url(#linearGradient2065);fill-opacity:1.0000000;fill-rule:evenodd;stroke:#261933;stroke-width:2.7612660" />
    <path
       sodipodi:nodetypes="cssss"
       id="path1530"
       d="M 32.727225,30.750255 C 31.824061,31.653419 31.766542,39.802083 32.727225,40.762766 C 33.825840,41.861381 41.481694,41.689817 42.408745,40.762766 C 43.571211,39.600299 43.482489,31.824000 42.408745,30.750255 C 41.450915,29.792426 33.724262,29.719133 32.727225,30.750255 z "
       style="font-size:12.000000px;fill:url(#linearGradient569);fill-opacity:1.0000000;fill-rule:evenodd;stroke:#261933;stroke-width:2.3159964" />
    <path
       sodipodi:nodetypes="cssss"
       id="path1532"
       style="font-size:12.000000px;fill:url(#linearGradient573);fill-opacity:1.0000000;fill-rule:evenodd;stroke-width:1.0000000pt"
       d="M 23.441340,5.9538254 C 20.453384,6.7415175 3.6437085,22.494588 6.7931307,23.734602 C 8.6152799,24.452032 19.305978,25.222933 21.608621,24.992353 C 22.904130,24.862624 14.920248,22.533886 14.648009,19.911942 C 14.163492,15.536693 24.845429,5.5836761 23.441340,5.9538254 z " />
    <path
       sodipodi:nodetypes="cssss"
       id="path1534"
       style="font-size:12.000000px;fill:url(#linearGradient575);fill-opacity:1.0000000;fill-rule:evenodd;stroke-width:1.0000000pt"
       d="M 46.248319,32.972280 C 46.614004,33.493112 47.904874,50.936354 45.785395,53.074783 C 43.585429,55.294417 29.606639,55.323852 29.009716,55.026915 C 28.553117,54.799781 41.875889,53.413021 44.052111,51.217342 C 46.195333,49.054958 45.955551,32.555301 46.248319,32.972280 z " />
    <path
       sodipodi:nodetypes="csssss"
       id="path1536"
       style="font-size:12.000000px;fill:url(#linearGradient1327);fill-opacity:1.0000000;fill-rule:evenodd;stroke-width:1.0000000pt"
       d="M 10.212321,50.199410 C 9.7761205,49.133678 9.8407687,44.118374 9.9717673,39.312698 C 10.102766,34.507022 9.7946845,30.428081 11.129316,29.183757 C 12.608571,27.804595 33.964051,27.969727 40.298765,28.224765 C 41.693330,28.280911 15.714930,29.837606 13.623743,31.597715 C 11.305040,33.549320 10.402965,50.665195 10.212321,50.199410 z " />
    <path
       sodipodi:nodetypes="cssssc"
       id="path1538"
       d="M 39.614920,10.630510 C 39.703990,12.882680 39.538790,16.130520 39.869400,17.439490 C 40.211430,18.920850 45.973840,18.633400 46.315700,17.628770 C 46.654720,16.759710 46.735600,12.500960 46.697430,10.757760 C 46.481830,8.4857990 39.653590,8.3486840 39.614920,10.630510 L 39.614920,10.630510 L 39.614920,10.630510 z "
       style="font-size:12.000000px;fill:url(#linearGradient578);fill-opacity:1.0000000;fill-rule:evenodd;stroke:#261933;stroke-width:1.5653702pt;stroke-opacity:1.0000000" />
    <path
       sodipodi:nodetypes="cssssss"
       id="path1540"
       d="M 43.389160,8.0856969 C 42.896545,7.6154731 43.509913,3.5324853 44.661570,2.8688184 C 46.012318,2.0904213 49.008005,4.2038276 50.896376,3.7595049 C 52.613164,3.3555546 54.966059,-0.016660753 55.477049,0.32399959 C 55.983986,0.66195761 55.196877,4.9840033 53.950158,5.7953600 C 52.524817,6.7229628 49.484804,5.1019527 47.460870,5.5408781 C 45.964471,5.8653984 43.829645,8.5061597 43.389160,8.0856969 z "
       style="fill:#6f6f6f;fill-opacity:1.0000000;fill-rule:evenodd;stroke:none;stroke-width:1.0000000pt;stroke-linecap:butt;stroke-linejoin:miter;stroke-opacity:1.0000000" />
    <path
       sodipodi:nodetypes="cssss"
       id="path1329"
       style="font-size:12.000000px;fill:url(#linearGradient1331);fill-opacity:1.0000000;fill-rule:evenodd;stroke-width:1.0000000pt"
       d="M 40.933772,16.981127 C 40.720954,16.613757 40.724330,11.324600 40.894820,10.926830 C 41.183653,10.252951 43.610490,10.090219 45.235146,10.662308 C 45.450613,10.738180 41.879846,10.509833 41.467456,11.392535 C 41.171995,12.024956 41.005634,17.105177 40.933772,16.981127 z " />
    <path
       sodipodi:nodetypes="cssss"
       id="path2073"
       style="font-size:12.000000px;fill:url(#linearGradient2075);fill-opacity:1.0000000;fill-rule:evenodd;stroke-width:1.0000000pt"
       d="M 33.906033,39.266730 C 33.540592,38.847378 33.546389,32.809810 33.839146,32.355756 C 34.335117,31.586523 38.502371,31.400765 41.292156,32.053804 C 41.662146,32.140412 35.530588,31.879754 34.822451,32.887357 C 34.315099,33.609265 34.029431,39.408333 33.906033,39.266730 z " />
    <path
       sodipodi:nodetypes="cssss"
       id="path2077"
       style="font-size:12.000000px;fill:url(#linearGradient2079);fill-opacity:1.0000000;fill-rule:evenodd;stroke-width:1.0000000pt"
       d="M 18.259759,50.840350 C 17.937112,50.330449 18.176790,43.174921 18.465923,42.647099 C 18.955752,41.752892 22.827791,41.679675 25.389774,42.552030 C 25.729552,42.667724 20.053087,42.142584 19.357238,43.311826 C 18.858690,44.149542 18.368706,51.012530 18.259759,50.840350 z " />
  </g>
</svg>
