<?xml version="1.0" encoding="UTF-8" standalone="no"?>
<!DOCTYPE svg PUBLIC "-//W3C//DTD SVG 1.0//EN"
"http://www.w3.org/TR/2001/REC-SVG-20010904/DTD/svg10.dtd">
<!-- Created with Inkscape (http://www.inkscape.org/) -->
<svg
   xmlns="http://www.w3.org/2000/svg"
   xmlns:xlink="http://www.w3.org/1999/xlink"
   version="1.0"
   x="0.0000000"
   y="0.0000000"
   width="60.000000"
   height="60.000000"
   id="svg1">
  <defs
     id="defs3">
    <linearGradient
       id="linearGradient584">
      <stop
         style="stop-color:#ffffff;stop-opacity:1.0000000;"
         offset="0.0000000"
         id="stop585" />
      <stop
         style="stop-color:#ffffff;stop-opacity:0.0000000;"
         offset="1.0000000"
         id="stop586" />
    </linearGradient>
    <linearGradient
       id="linearGradient578">
      <stop
         style="stop-color:#d9cce6;stop-opacity:1.0000000;"
         offset="0.0000000"
         id="stop579" />
      <stop
         style="stop-color:#73667f;stop-opacity:1.0000000;"
         offset="1.0000000"
         id="stop580" />
    </linearGradient>
    <linearGradient
       x1="-0.0068493201"
       y1="0.0077519398"
       x2="0.97945207"
       y2="1.0000000"
       id="linearGradient581"
       xlink:href="#linearGradient584" />
    <linearGradient
       x1="0.010948900"
       y1="0.010309280"
       x2="1.0145985"
       y2="0.96907216"
       id="linearGradient583"
       xlink:href="#linearGradient584" />
    <linearGradient
       x1="-0.025000000"
       y1="0.031007750"
       x2="0.97500002"
       y2="0.97674417"
       id="linearGradient860"
       xlink:href="#linearGradient584" />
    <linearGradient
       x1="0.0000000"
       y1="0.023255810"
       x2="0.98611110"
       y2="0.97674417"
       id="linearGradient861"
       xlink:href="#linearGradient578" />
    <linearGradient
       x1="-0.0000000"
       y1="0.0077519398"
       x2="1.0000000"
       y2="0.99224806"
       id="linearGradient862"
       xlink:href="#linearGradient578" />
  </defs>
  <path
     d="M 11.267699,56.622671 C 2.7670491,52.988532 1.5072003,22.031864 3.2623489,8.9840518 C 3.8256059,4.7962807 15.938655,3.4723120 19.798169,3.9971948 C 21.406915,4.2160343 21.378639,11.507009 23.210262,11.477541 C 32.271200,11.332006 44.430229,0.76734911 50.900965,4.3909154 C 56.460229,7.5040954 60.504727,30.459332 55.887824,36.543835 C 47.293672,47.869915 20.265076,60.469119 11.267699,56.622671 z "
     style="font-size:12.000000;opacity:0.30267498;fill-rule:evenodd;stroke-width:18.750000;stroke-linecap:round;stroke-linejoin:round;"
     id="path574" />
  <path
     d="M 12.139826,53.057395 C 4.4358786,49.763875 3.2941018,21.708704 4.8847766,9.8838331 C 5.3952944,6.0885706 16.372984,4.8886949 19.870756,5.3643818 C 21.328716,5.5627101 21.303091,12.170315 22.963041,12.143616 C 31.174718,12.011721 42.194107,2.4372512 48.058362,5.7212004 C 53.096567,8.5425896 56.761979,29.346283 52.577815,34.860499 C 44.789173,45.125018 20.293899,56.543325 12.139826,53.057395 z "
     style="font-size:12.000000;fill:url(#linearGradient862);fill-rule:evenodd;stroke:#261933;stroke-width:1.8750000;stroke-linecap:round;stroke-linejoin:round;"
     id="path562" />
  <path
     d="M 12.258693,50.559882 C 7.4089087,46.665130 4.9391180,20.098282 7.1445784,10.835314 C 7.9124818,7.6100593 18.684985,7.0429585 19.038143,8.2188230 C 16.042544,8.3471655 11.540750,11.186964 10.831526,14.165551 C 8.5673316,23.675193 11.592000,47.964062 12.258693,50.559882 z "
     style="font-size:12.000000;opacity:0.69999999;fill:url(#linearGradient860);fill-rule:evenodd;stroke-width:1.0000000pt;"
     id="path567" />
  <path
     d="M 24.865895,14.284529 C 35.796025,12.309317 43.904665,5.7889249 46.155401,7.6241632 C 46.764487,8.1484053 38.257583,12.922933 33.072508,14.641453 C 31.319639,15.222337 24.343156,14.377984 24.865895,14.284529 z "
     style="font-size:12.000000;opacity:0.69993597;fill:url(#linearGradient583);fill-rule:evenodd;stroke-width:1.0000000pt;"
     id="path568" />
  <g
     transform="matrix(0.455943,0.000000,0.000000,0.455943,-1.243611,13.01170)"
     id="g728">
    <defs
       id="defs730">
      <linearGradient
         id="linearGradient570">
        <stop
           style="stop-color:#ffffff;stop-opacity:1.0000000;"
           offset="0.0000000"
           id="stop571" />
        <stop
           style="stop-color:#ffffff;stop-opacity:0.0000000;"
           offset="1.0000000"
           id="stop572" />
      </linearGradient>
      <linearGradient
         id="linearGradient563">
        <stop
           style="stop-color:#d9cce6;stop-opacity:1.0000000;"
           offset="0.0000000"
           id="stop564" />
        <stop
           style="stop-color:#73667f;stop-opacity:1.0000000;"
           offset="1.0000000"
           id="stop565" />
      </linearGradient>
      <linearGradient
         x1="0.038461540"
         y1="0.070312500"
         x2="0.98461539"
         y2="0.96875000"
         id="linearGradient566"
         xlink:href="#linearGradient563" />
      <linearGradient
         x1="0.0065359999"
         y1="0.015625000"
         x2="0.84967297"
         y2="0.86718798"
         id="linearGradient569"
         xlink:href="#linearGradient570" />
      <linearGradient
         x1="0.0072800000"
         y1="0.021274000"
         x2="0.95999998"
         y2="0.94680798"
         id="linearGradient573"
         xlink:href="#linearGradient570" />
      <linearGradient
         x1="0.98039198"
         y1="0.97656202"
         x2="0.0065359999"
         y2="0.0078119999"
         id="linearGradient575"
         xlink:href="#linearGradient563" />
      <linearGradient
         x1="-0.0066220001"
         y1="0.0078130001"
         x2="0.92053002"
         y2="0.92187500"
         id="linearGradient741"
         xlink:href="#linearGradient570" />
    </defs>
    <ellipse
       cx="286.92639"
       cy="278.06998"
       rx="278.19861"
       ry="278.19858"
       d="M 565.12500 278.06998 A 278.19861 278.19858 0 1 0 8.7277832,278.06998 A 278.19861 278.19858 0 1 0 565.12500 278.06998 z"
       transform="matrix(9.421097e-2,0.000000,0.000000,9.421097e-2,6.090894,6.621821)"
       style="opacity:0.30267498;fill-rule:evenodd;stroke-width:13.253600;"
       id="path1023" />
    <ellipse
       cx="286.92639"
       cy="278.06998"
       rx="278.19861"
       ry="278.19858"
       d="M 565.12500 278.06998 A 278.19861 278.19858 0 1 0 8.7277832,278.06998 A 278.19861 278.19858 0 1 0 565.12500 278.06998 z"
       transform="matrix(9.421097e-2,0.000000,0.000000,9.421097e-2,3.802327,3.788362)"
       style="fill:url(#linearGradient566);fill-rule:evenodd;stroke:#261933;stroke-width:19.880501;"
       id="path983" />
    <path
       d="M 12.015159,12.409227 C 12.969921,11.880202 14.018979,13.750269 15.310075,13.929074 C 16.463219,14.088601 19.267069,12.278469 20.773630,13.139532 C 21.771944,13.567167 20.922468,17.325679 20.618498,19.575930 C 20.235816,21.381965 19.013845,23.968852 18.249476,26.208216 C 17.852108,27.189348 15.090813,30.743981 14.977934,30.969736 C 14.865257,31.195291 16.060057,34.207613 15.316466,34.579609 C 14.541409,35.038311 13.584251,30.629306 11.932149,29.390254 C 11.219224,28.962419 9.5753040,29.160804 8.9990900,29.616110 C 8.3125859,29.988403 8.9033940,33.890059 9.9014280,35.030918 C 10.924546,36.565148 12.465268,37.745365 13.398752,39.317456 C 14.608537,41.355237 15.354027,43.679608 16.331662,45.860633 C 16.331662,45.860633 15.524839,48.644708 15.637717,48.644708 C 15.750594,48.644708 17.346959,51.839431 17.346959,51.839431 C 14.069123,49.349743 11.430394,46.920484 9.2246940,43.942826 C 7.6701150,41.844008 6.4302442,38.963838 6.0659911,36.610100 C 5.9414058,35.805175 7.4471081,35.322201 7.7581797,34.466831 C 8.3285393,33.040783 5.3376127,29.501434 5.2167452,28.345191 C 5.0682959,27.100146 5.8214368,22.119064 7.5325356,19.124722 C 8.7576430,16.785767 10.187347,13.421826 12.015159,12.409227 z "
       style="opacity:0.50445902;fill:#261933;fill-rule:evenodd;stroke:#000000;stroke-width:0.11407400pt;"
       id="path565" />
    <path
       d="M 31.448318,20.929657 C 30.838482,21.805406 30.185791,23.372999 30.545699,24.200799 C 30.937872,25.102520 32.634228,26.100332 33.704463,26.118712 C 34.815354,26.137892 35.949420,24.893447 37.088781,24.313777 C 38.092790,23.803033 39.061335,23.020283 40.134666,22.847172 C 41.392799,22.644294 43.174960,22.580362 44.082972,23.185804 C 44.754240,23.633417 45.021449,25.118502 44.872710,26.006035 C 44.557356,26.682799 43.502103,27.265466 43.857315,27.698195 C 44.168281,27.961808 46.326329,26.371738 46.677552,25.442048 C 46.965636,24.679679 45.598621,23.592861 45.775131,22.621717 C 45.917776,21.980216 48.261726,22.142438 49.046674,22.283385 C 49.694170,22.440915 50.322885,24.046668 50.964588,23.975444 C 51.552448,23.975444 53.019953,22.078509 53.178976,22.087398 C 53.791014,22.188488 54.235930,23.975444 54.235930,23.975444 C 53.182875,24.953181 52.333399,26.295221 51.077263,26.908555 C 49.099513,27.874403 46.765353,28.455970 44.534279,28.713490 C 40.899334,29.132934 36.589824,27.656840 33.478810,28.939045 C 31.024478,29.950743 27.874105,33.282220 27.838345,35.594904 C 27.798887,38.132942 29.445296,42.446352 32.397685,42.707266 C 35.971797,43.100541 39.706832,43.905361 40.994629,45.551874 C 42.000735,46.838371 40.828210,51.686097 40.990235,53.288957 C 41.051173,53.820378 42.597886,52.878900 43.518989,52.403519 C 44.929448,51.675708 46.635596,50.238474 47.128762,48.680766 C 48.064544,45.726086 48.169824,42.061470 47.805824,38.866343 C 47.492962,36.120333 44.766531,31.149642 45.098466,30.856859 C 45.405733,30.585753 47.819807,36.079577 49.723437,37.174286 C 50.828036,37.809295 53.362777,36.873214 54.123148,36.046015 C 54.641487,35.482028 53.192060,33.328669 53.559062,33.000227 C 53.906585,32.689265 56.114583,34.868693 56.266522,34.128500 C 57.476997,28.508113 56.339234,24.358028 54.360490,19.154391 C 52.741255,15.182611 48.151149,9.7150585 43.250081,7.0349524 C 42.559928,6.6541872 39.569082,8.3393725 37.261192,9.8155485 C 35.945525,10.474033 34.578411,12.456875 35.254077,12.932658 C 35.849729,13.402646 37.615409,11.817172 38.864948,11.535678 C 41.104911,11.000260 42.145680,11.290545 43.857315,12.130331 C 43.857315,12.130331 46.283280,14.137847 45.211041,15.627327 C 44.530388,16.528945 42.278034,16.529844 42.278034,16.529844 C 41.789166,16.266830 41.279121,15.640912 40.811429,15.740202 C 40.038375,15.904324 39.385783,16.947591 38.555287,17.319684 C 36.866224,18.075962 34.892171,18.230495 33.253154,19.124722 C 32.326362,19.338589 31.828104,20.352985 31.448318,20.929657 z "
       style="opacity:0.49999997;fill:#261933;fill-rule:evenodd;stroke:#000000;stroke-width:0.11407400pt;"
       id="path566" />
    <path
       d="M 10.509496,44.098451 C 10.160676,43.052193 -3.0511215,19.390033 22.061229,7.2635343 C 33.447043,1.7128323 50.268243,12.003070 52.139411,18.161470 C 52.427593,19.093155 40.759489,5.7930846 24.131876,13.148422 C 2.4833876,22.662474 10.814566,45.013760 10.509496,44.098451 z "
       style="opacity:0.69999999;fill:url(#linearGradient569);fill-rule:evenodd;stroke-width:0.099890900pt;"
       id="path984" />
  </g>
  <path
     d="M 12.781217,53.288995 C 10.696831,52.955325 9.6412329,30.343407 14.967781,25.167164 C 23.545752,16.831130 45.392125,11.696557 54.494881,13.897547 C 59.072474,15.004506 56.543842,30.171901 52.308313,35.291506 C 43.287927,46.313802 21.364248,54.560575 12.781217,53.288995 z "
     style="font-size:12.000000;fill:url(#linearGradient861);fill-rule:evenodd;stroke:#261933;stroke-width:1.8750000;stroke-linecap:round;stroke-linejoin:round;"
     id="path576" />
  <path
     d="M 14.401113,49.584604 C 11.616441,44.363682 14.275678,29.630321 16.419605,27.019102 C 25.801832,16.983232 50.734136,15.502838 52.703206,16.434182 C 37.135833,18.753718 29.798296,20.903717 20.701323,29.873544 C 16.657556,34.512083 13.876868,42.425293 14.401113,49.584604 z "
     style="font-size:12.000000;opacity:0.69999999;fill:url(#linearGradient581);fill-rule:evenodd;stroke-width:1.2500000;"
     id="path577" />
  <rect
     width="30.710464"
     height="12.888113"
     rx="0.70483023"
     x="24.310274"
     y="33.912468"
     style="fill-opacity:0.29999998;fill-rule:evenodd;stroke-width:1.0000000pt;"
     id="rect937" />
  <rect
     width="30.500000"
     height="12.750523"
     rx="0.69999999"
     x="22.877218"
     y="32.166977"
     style="fill:#d9cce6;fill-opacity:0.80000001;fill-rule:evenodd;stroke:#261933;stroke-width:1.2500000;"
     id="rect862" />
  <text
     x="26.160879"
     y="42.924934"
     style="font-size:12.000000;font-weight:bold;stroke-width:1.0000000pt;font-family:Arial;"
     id="text810"
     xml:space="preserve"><tspan
       x="26.160879"
       y="42.924934"
       id="tspan618">SSH</tspan></text>
</svg>
