<?xml version="1.0" encoding="UTF-8" standalone="no"?>
<!DOCTYPE svg PUBLIC "-//W3C//DTD SVG 20010904//EN"
"http://www.w3.org/TR/2001/REC-SVG-20010904/DTD/svg10.dtd">
<!-- Created with Inkscape (http://www.inkscape.org/) -->
<svg
   id="svg1"
   sodipodi:version="0.32"
   inkscape:version="0.37"
   width="48pt"
   height="48pt"
   sodipodi:docbase="/home/tom"
   sodipodi:docname="cdaudio_mount.svg"
   xmlns="http://www.w3.org/2000/svg"
   xmlns:inkscape="http://www.inkscape.org/namespaces/inkscape"
   xmlns:sodipodi="http://sodipodi.sourceforge.net/DTD/sodipodi-0.dtd"
   xmlns:xlink="http://www.w3.org/1999/xlink">
  <defs
     id="defs3">
    <linearGradient
       id="linearGradient916">
      <stop
         style="stop-color:#cccccc;stop-opacity:1;"
         offset="0.00000000"
         id="stop917" />
      <stop
         style="stop-color:#7f7f7f;stop-opacity:1;"
         offset="1.00000000"
         id="stop918" />
    </linearGradient>
    <linearGradient
       id="linearGradient866">
      <stop
         style="stop-color:#ffffff;stop-opacity:1;"
         offset="0.00000000"
         id="stop867" />
      <stop
         style="stop-color:#d9d1e1;stop-opacity:1;"
         offset="1.00000000"
         id="stop868" />
    </linearGradient>
    <linearGradient
       id="linearGradient584">
      <stop
         style="stop-color:#ffffff;stop-opacity:1;"
         offset="0.00000000"
         id="stop585" />
      <stop
         style="stop-color:#ffffff;stop-opacity:0;"
         offset="1.00000000"
         id="stop586" />
    </linearGradient>
    <linearGradient
       id="linearGradient578">
      <stop
         style="stop-color:#d9cce6;stop-opacity:1;"
         offset="0.00000000"
         id="stop579" />
      <stop
         style="stop-color:#73667f;stop-opacity:1;"
         offset="1.00000000"
         id="stop580" />
    </linearGradient>
    <linearGradient
       xlink:href="#linearGradient584"
       id="linearGradient581"
       y2="0.97674417"
       x2="0.96753246"
       y1="0.00000000"
       x1="0.00649351" />
    <linearGradient
       xlink:href="#linearGradient584"
       id="linearGradient583"
       y2="1.03100777"
       x2="0.97692305"
       y1="0.02325581"
       x1="-0.03076923" />
    <linearGradient
       xlink:href="#linearGradient866"
       id="linearGradient860"
       x1="-0.00000000"
       y1="-0.00000000"
       x2="1.00000000"
       y2="-0.00000000" />
    <linearGradient
       xlink:href="#linearGradient866"
       id="linearGradient861"
       x1="0.00000000"
       y1="0.00000000"
       x2="1.00000000"
       y2="0.00000000" />
    <linearGradient
       xlink:href="#linearGradient578"
       id="linearGradient862"
       x1="0.00000000"
       y1="0.00000000"
       x2="1.00000000"
       y2="0.00000000" />
    <linearGradient
       xlink:href="#linearGradient584"
       id="linearGradient869"
       x1="-0.00000000"
       y1="-0.00000000"
       x2="1.00000000"
       y2="-0.00000000" />
    <linearGradient
       xlink:href="#linearGradient584"
       id="linearGradient915"
       x1="-0.00000000"
       y1="-0.00000000"
       x2="1.00000000"
       y2="-0.00000000" />
  </defs>
  <sodipodi:namedview
     id="base"
     pagecolor="#ffffff"
     bordercolor="#666666"
     borderopacity="1.0"
     inkscape:pageopacity="0.0"
     inkscape:pageshadow="2"
     inkscape:zoom="7.97947193"
     inkscape:cx="26.4570186"
     inkscape:cy="23.7684983"
     inkscape:window-width="1018"
     inkscape:window-height="711"
     inkscape:window-x="0"
     inkscape:window-y="30" />
  <path
     d="M 36.118897 32.546487 C 36.118897 34.871102 34.232321 36.757678 31.907706 36.757678 C 29.583089 36.757678 27.696413 34.871102 27.696413 32.546487 C 27.696413 30.22187 29.583089 28.335194 31.907706 28.335194 C 34.232321 28.335194 36.118897 30.22187 36.118897 32.546487 z M 58.669514 32.138888 C 58.669514 47.061377 46.55843 59.172358 31.635941 59.172358 C 16.713451 59.172358 4.6024598 47.061377 4.6024598 32.138888 C 4.6024598 17.2164 16.713451 5.1053163 31.635941 5.1053163 C 46.55843 5.1053163 58.669514 17.2164 58.669514 32.138888 z "
     style="font-size:12;opacity:0.302675;fill-rule:evenodd;stroke-width:12.5;"
     id="path782" />
  <path
     d="M 34.142707 30.090541 C 34.142707 32.366857 32.295328 34.214238 30.019011 34.214238 C 27.742693 34.214238 25.895215 32.366857 25.895215 30.090541 C 25.895215 27.814224 27.742693 25.966746 30.019011 25.966746 C 32.295328 25.966746 34.142707 27.814224 34.142707 30.090541 z M 56.224788 29.691414 C 56.224788 44.303857 44.365336 56.163209 29.752893 56.163209 C 15.140448 56.163209 3.2810857 44.303857 3.2810857 29.691414 C 3.2810857 15.078969 15.140448 3.2195676 29.752893 3.2195676 C 44.365336 3.2195676 56.224788 15.078969 56.224788 29.691414 z "
     style="font-size:12;fill:url(#linearGradient860);fill-rule:evenodd;stroke:#261933;stroke-width:1.875;stroke-dasharray:none;"
     id="path773" />
  <path
     d="M 9.0011055 43.392896 C 4.1204139 37.981788 1.0217144 15.522169 19.11093 7.210253 C 33.787948 0.52499748 48.148535 11.238426 49.174482 14.260508 C 49.477048 15.112445 36.930363 4.5046413 21.90453 12.265166 C -0.14499078 23.553358 9.6014807 44.077157 9.0011055 43.392896 z "
     style="font-size:12;opacity:0.7;fill-rule:evenodd;stroke:none;stroke-width:0.0778586pt;fill:url(#linearGradient581);"
     id="path774" />
  <path
     d="M 39.82112 30.278517 C 39.82112 35.464806 34.97533 39.8566 29.980089 40.025561 C 24.417649 40.025561 19.766075 35.370817 19.950882 30.184529 C 20.142324 24.810364 24.417649 20.061235 29.980089 20.061235 C 35.166277 20.061235 40.01593 24.90772 39.82112 30.278517 z M 37.202325 30.223452 C 37.202325 34.262073 33.924622 37.539775 29.886001 37.539775 C 25.847379 37.539775 22.569677 34.262073 22.569677 30.223452 C 22.569677 26.184831 25.847379 22.907127 29.886001 22.907127 C 33.924622 22.907127 37.202325 26.184831 37.202325 30.223452 z "
     style="font-size:12;opacity:0.100892;fill:#3f003f;fill-rule:evenodd;stroke-width:1pt;"
     id="path779" />
  <path
     d="M 31.216196 25.235045 C 31.210947 25.612088 33.486473 27.095298 33.810233 26.897813 C 38.868164 22.772731 48.783377 16.593181 48.908464 12.398175 C 48.994925 9.4338322 34.085957 3.3896875 33.610668 4.1506354 C 31.562637 7.7161848 31.329796 18.518304 31.216196 25.235045 z "
     style="font-size:12;fill:url(#linearGradient583);fill-rule:evenodd;stroke-width:1pt;"
     id="path780" />
  <path
     d="M 29.473007 34.718049 C 29.439136 34.342493 27.022281 33.103018 26.720708 33.332986 C 22.117364 37.959801 12.895625 45.133311 13.205717 49.318609 C 13.426772 52.276018 28.881644 56.743083 29.275523 55.937104 C 30.943145 52.178566 30.055853 41.410426 29.473007 34.718049 z "
     style="font-size:12;fill:url(#linearGradient861);fill-rule:evenodd;stroke-width:1pt;"
     id="path781" />
  <path
     style="font-size:12;fill:#000000;fill-rule:evenodd;stroke:none;stroke-width:1.875;stroke-dasharray:none;fill-opacity:1;opacity:0.302675;"
     d="M 55.277307 17.400149 C 55.568044 14.523424 54.187982 13.617351 52.535097 13.434636 C 48.740772 13.0708 44.484213 12.066092 44.320016 14.445658 C 43.700453 17.679707 43.294568 19.770725 42.673078 25.072412 C 42.377455 27.308185 43.497777 33.807369 38.600376 34.257435 C 33.597056 34.71759 30.937531 31.149791 32.345765 27.722834 C 34.327052 23.027438 39.332063 26.016931 39.844586 24.261083 C 41.357593 18.926733 41.146312 12.788763 42.369439 7.3449195 C 42.417406 7.1314277 43.061469 6.9159997 43.436358 6.8643127 C 44.41788 6.6271437 56.325477 7.5993485 57.08806 8.0924705 C 57.462948 8.0407845 57.98577 8.4893815 58.135659 8.6334295 C 59.395513 9.8441925 58.636708 14.932109 58.404859 16.005665 C 57.785296 19.239713 57.353077 21.316728 56.731584 26.618415 C 56.435962 28.854188 57.582621 35.367375 52.68522 35.817441 C 47.681898 36.277596 45.02237 32.709798 46.430605 29.28284 C 48.411895 24.587444 53.390569 27.562933 53.903093 25.807087 C 54.659595 23.139911 54.98657 20.276873 55.277307 17.400149 z "
     id="path702"
     sodipodi:nodetypes="csccccccccccccccc" />
  <path
     style="font-size:12;fill-rule:evenodd;stroke:#261933;stroke-width:1.4592;fill:url(#linearGradient862);"
     d="M 53.380784 15.331214 C 53.671521 12.45449 52.291459 11.548417 50.638574 11.365703 C 46.844249 11.001866 42.58769 9.9971575 42.423493 12.376725 C 41.80393 15.610772 41.398045 17.701791 40.776555 23.003477 C 40.480932 25.23925 41.601254 31.738435 36.703853 32.188501 C 31.700532 32.648656 29.041007 29.080857 30.449241 25.6539 C 32.430529 20.958504 37.43554 23.947997 37.948063 22.192148 C 39.461069 16.857799 39.249789 10.719829 40.472915 5.2759857 C 40.520883 5.0624937 41.164946 4.8470657 41.539834 4.7953787 C 42.521357 4.5582097 54.428953 5.5304147 55.191537 6.0235357 C 55.566425 5.9718497 56.089247 6.4204477 56.239135 6.5644947 C 57.498989 7.7752585 56.740185 12.863175 56.508336 13.93673 C 55.888772 17.170778 55.456553 19.247793 54.835061 24.549481 C 54.539439 26.785254 55.686097 33.298441 50.788696 33.748507 C 45.785374 34.208661 43.125847 30.640864 44.534082 27.213906 C 46.515371 22.51851 51.494046 25.493999 52.00657 23.738152 C 52.763072 21.070977 53.090046 18.207938 53.380784 15.331214 z "
     id="path701"
     sodipodi:nodetypes="csccccccccccccccc" />
  <path
     style="fill:url(#linearGradient869);fill-rule:evenodd;stroke:none;stroke-opacity:1;stroke-width:1pt;stroke-linejoin:miter;stroke-linecap:butt;fill-opacity:1;"
     d="M 31.177397 28.715716 C 31.031327 28.542391 30.947174 26.727524 32.692867 24.99657 C 34.773405 23.005789 37.998768 25.111921 38.552378 23.383546 C 40.165478 18.591169 40.404832 11.376623 41.455155 6.0444857 C 41.487271 5.8814407 49.915998 6.0207217 54.670881 7.0459057 C 48.344791 6.4091207 43.093272 6.7063667 42.395325 7.1559477 C 41.309776 7.8342585 40.511895 19.001807 38.993265 23.747924 C 38.427771 25.476552 36.151564 23.829947 33.333063 25.748279 C 31.076453 27.247468 31.306062 28.868387 31.177397 28.715716 z "
     id="path698"
     sodipodi:nodetypes="cssscssss" />
  <path
     style="fill:url(#linearGradient915);fill-rule:evenodd;stroke:none;stroke-opacity:1;stroke-width:1pt;stroke-linejoin:miter;stroke-linecap:butt;fill-opacity:1;"
     d="M 45.251849 30.149969 C 45.105777 29.976641 45.021626 28.161774 46.767318 26.43082 C 48.847856 24.44004 52.073221 26.54617 52.62683 24.817796 C 54.23993 20.025419 53.567541 18.506992 54.617862 13.174856 C 54.682095 12.848765 55.506365 13.677906 55.346237 13.999439 C 53.850306 16.849199 54.586349 20.436057 53.067717 25.182175 C 52.502222 26.910802 50.226016 25.264198 47.407514 27.182529 C 45.150904 28.681718 45.380513 30.302637 45.251849 30.149969 z "
     id="path700"
     sodipodi:nodetypes="csssssss" />
  <path
     sodipodi:type="arc"
     style="font-size:12;fill:#20ff00;fill-opacity:1;fill-rule:evenodd;stroke:#000000;stroke-width:1pt;"
     id="path604"
     sodipodi:cx="47.23056793"
     sodipodi:cy="45.35304260"
     sodipodi:rx="10.57400799"
     sodipodi:ry="10.41735649"
     d="M 57.804576 45.353043 A 10.574008 10.417356 0 1 0 36.656560,45.353043 A 10.574 10.4174 0 1 0 57.8046 45.353 L 47.230568 45.353043 z" />
</svg>
