<?xml version="1.0" encoding="UTF-8" standalone="no"?>
<!DOCTYPE svg PUBLIC "-//W3C//DTD SVG 20010904//EN"
"http://www.w3.org/TR/2001/REC-SVG-20010904/DTD/svg10.dtd">
<!-- Created with Inkscape (http://www.inkscape.org/) -->
<svg
   id="svg1"
   sodipodi:version="0.32"
   inkscape:version="0.37"
   width="48pt"
   height="48pt"
   sodipodi:docbase="/home/tom"
   sodipodi:docname="dvd_umount.svg"
   xmlns="http://www.w3.org/2000/svg"
   xmlns:inkscape="http://www.inkscape.org/namespaces/inkscape"
   xmlns:sodipodi="http://sodipodi.sourceforge.net/DTD/sodipodi-0.dtd"
   xmlns:xlink="http://www.w3.org/1999/xlink">
  <defs
     id="defs3">
    <linearGradient
       id="linearGradient916">
      <stop
         style="stop-color:#cccccc;stop-opacity:1;"
         offset="0.00000000"
         id="stop917" />
      <stop
         style="stop-color:#7f7f7f;stop-opacity:1;"
         offset="1.00000000"
         id="stop918" />
    </linearGradient>
    <linearGradient
       id="linearGradient866">
      <stop
         style="stop-color:#ffffff;stop-opacity:1;"
         offset="0.00000000"
         id="stop867" />
      <stop
         style="stop-color:#d9d1e1;stop-opacity:1;"
         offset="1.00000000"
         id="stop868" />
    </linearGradient>
    <linearGradient
       id="linearGradient584">
      <stop
         style="stop-color:#ffffff;stop-opacity:1;"
         offset="0.00000000"
         id="stop585" />
      <stop
         style="stop-color:#ffffff;stop-opacity:0;"
         offset="1.00000000"
         id="stop586" />
    </linearGradient>
    <linearGradient
       id="linearGradient578">
      <stop
         style="stop-color:#d9cce6;stop-opacity:1;"
         offset="0.00000000"
         id="stop579" />
      <stop
         style="stop-color:#73667f;stop-opacity:1;"
         offset="1.00000000"
         id="stop580" />
    </linearGradient>
    <linearGradient
       xlink:href="#linearGradient584"
       id="linearGradient581"
       y2="0.97674417"
       x2="0.96753246"
       y1="0.00000000"
       x1="0.00649351" />
    <linearGradient
       xlink:href="#linearGradient584"
       id="linearGradient583"
       y2="1.03100777"
       x2="0.97692305"
       y1="0.02325581"
       x1="-0.03076923" />
    <linearGradient
       xlink:href="#linearGradient866"
       id="linearGradient860"
       x1="-0.00000000"
       y1="-0.00000000"
       x2="1.00000000"
       y2="-0.00000000" />
    <linearGradient
       xlink:href="#linearGradient866"
       id="linearGradient861"
       x1="0.00000000"
       y1="0.00000000"
       x2="1.00000000"
       y2="0.00000000" />
    <linearGradient
       xlink:href="#linearGradient578"
       id="linearGradient862"
       x1="-0.00000000"
       y1="-0.00000000"
       x2="1.00000000"
       y2="-0.00000000" />
    <linearGradient
       xlink:href="#linearGradient578"
       id="linearGradient869"
       x1="-0.43697071"
       y1="1.51184726"
       x2="0.66505122"
       y2="1.51184726"
       gradientTransform="scale(1.257222,0.795405)" />
    <linearGradient
       xlink:href="#linearGradient584"
       id="linearGradient915"
       x1="-0.94216436"
       y1="3.42244887"
       x2="0.43683815"
       y2="3.42244887"
       gradientTransform="scale(0.767718,1.302562)" />
    <linearGradient
       xlink:href="#linearGradient578"
       id="linearGradient776"
       x1="0.00000000"
       y1="-0.00000000"
       x2="1.00000000"
       y2="-0.00000000" />
    <linearGradient
       xlink:href="#linearGradient584"
       id="linearGradient777"
       x1="0.00000000"
       y1="-0.00000000"
       x2="1.00000000"
       y2="-0.00000000" />
    <linearGradient
       xlink:href="#linearGradient584"
       id="linearGradient778"
       x1="-0.25546739"
       y1="-6.53396273"
       x2="2.55651665"
       y2="-6.53396273"
       gradientTransform="scale(0.989831,1.010273)" />
    <linearGradient
       xlink:href="#linearGradient584"
       id="linearGradient779"
       x1="-1.52214241"
       y1="-7.27673817"
       x2="4.15504980"
       y2="-7.27673817"
       gradientTransform="scale(0.948489,1.054309)" />
  </defs>
  <sodipodi:namedview
     id="base"
     pagecolor="#ffffff"
     bordercolor="#666666"
     borderopacity="1.0"
     inkscape:pageopacity="0.0"
     inkscape:pageshadow="2"
     inkscape:zoom="7.97947193"
     inkscape:cx="26.4570186"
     inkscape:cy="23.7684983"
     inkscape:window-width="1018"
     inkscape:window-height="711"
     inkscape:window-x="0"
     inkscape:window-y="30" />
  <path
     d="M 36.118897 32.546487 C 36.118897 34.871102 34.232321 36.757678 31.907706 36.757678 C 29.583089 36.757678 27.696413 34.871102 27.696413 32.546487 C 27.696413 30.22187 29.583089 28.335194 31.907706 28.335194 C 34.232321 28.335194 36.118897 30.22187 36.118897 32.546487 z M 58.669514 32.138888 C 58.669514 47.061377 46.55843 59.172358 31.635941 59.172358 C 16.713451 59.172358 4.6024598 47.061377 4.6024598 32.138888 C 4.6024598 17.2164 16.713451 5.1053163 31.635941 5.1053163 C 46.55843 5.1053163 58.669514 17.2164 58.669514 32.138888 z "
     style="font-size:12;opacity:0.302675;fill-rule:evenodd;stroke-width:12.5;"
     id="path782" />
  <path
     d="M 34.142707 30.090541 C 34.142707 32.366857 32.295328 34.214238 30.019011 34.214238 C 27.742693 34.214238 25.895215 32.366857 25.895215 30.090541 C 25.895215 27.814224 27.742693 25.966746 30.019011 25.966746 C 32.295328 25.966746 34.142707 27.814224 34.142707 30.090541 z M 56.224788 29.691414 C 56.224788 44.303857 44.365336 56.163209 29.752893 56.163209 C 15.140448 56.163209 3.2810857 44.303857 3.2810857 29.691414 C 3.2810857 15.078969 15.140448 3.2195676 29.752893 3.2195676 C 44.365336 3.2195676 56.224788 15.078969 56.224788 29.691414 z "
     style="font-size:12;fill:url(#linearGradient860);fill-rule:evenodd;stroke:#261933;stroke-width:1.875;stroke-dasharray:none;"
     id="path773" />
  <path
     d="M 9.0011055 43.392896 C 4.1204139 37.981788 1.0217144 15.522169 19.11093 7.210253 C 33.787948 0.52499748 48.148535 11.238426 49.174482 14.260508 C 49.477048 15.112445 36.930363 4.5046413 21.90453 12.265166 C -0.14499078 23.553358 9.6014807 44.077157 9.0011055 43.392896 z "
     style="font-size:12;opacity:0.7;fill-rule:evenodd;stroke:none;stroke-width:0.0778586pt;fill:url(#linearGradient581);"
     id="path774" />
  <path
     d="M 39.82112 30.278517 C 39.82112 35.464806 34.97533 39.8566 29.980089 40.025561 C 24.417649 40.025561 19.766075 35.370817 19.950882 30.184529 C 20.142324 24.810364 24.417649 20.061235 29.980089 20.061235 C 35.166277 20.061235 40.01593 24.90772 39.82112 30.278517 z M 37.202325 30.223452 C 37.202325 34.262073 33.924622 37.539775 29.886001 37.539775 C 25.847379 37.539775 22.569677 34.262073 22.569677 30.223452 C 22.569677 26.184831 25.847379 22.907127 29.886001 22.907127 C 33.924622 22.907127 37.202325 26.184831 37.202325 30.223452 z "
     style="font-size:12;opacity:0.100892;fill:#3f003f;fill-rule:evenodd;stroke-width:1pt;"
     id="path779" />
  <path
     d="M 31.216196 25.235045 C 31.210947 25.612088 33.486473 27.095298 33.810233 26.897813 C 38.868164 22.772731 48.783377 16.593181 48.908464 12.398175 C 48.994925 9.4338322 34.085957 3.3896875 33.610668 4.1506354 C 31.562637 7.7161848 31.329796 18.518304 31.216196 25.235045 z "
     style="font-size:12;fill:url(#linearGradient583);fill-rule:evenodd;stroke-width:1pt;"
     id="path780" />
  <path
     d="M 29.473007 34.718049 C 29.439136 34.342493 27.022281 33.103018 26.720708 33.332986 C 22.117364 37.959801 12.895625 45.133311 13.205717 49.318609 C 13.426772 52.276018 28.881644 56.743083 29.275523 55.937104 C 30.943145 52.178566 30.055853 41.410426 29.473007 34.718049 z "
     style="font-size:12;fill:url(#linearGradient861);fill-rule:evenodd;stroke-width:1pt;"
     id="path781" />
  <path
     d="M 28.519775 36.678311 C 27.96854 34.775816 34.939315 32.321746 35.70826 29.529508 C 36.464075 26.784987 31.807656 22.510274 33.09422 20.06798 C 35.075115 16.307709 41.103446 12.217806 45.510787 10.921687 C 46.648752 10.554984 59.28716 14.88569 59.44583 15.770793 C 59.56142 18.072592 50.061626 21.207246 48.118487 24.706784 C 47.084567 26.568807 51.374733 29.810163 50.514593 31.855478 C 48.869659 35.767453 44.11962 40.832168 40.60327 42.578599 C 39.879214 42.992337 28.75166 37.373442 28.519775 36.678311 z M 52.197398 18.06331 C 52.132811 18.316284 53.05997 18.817026 53.457518 18.744853 C 54.022286 18.642395 54.987428 17.919302 55.084511 17.539526 C 55.148135 17.290686 54.310526 16.791921 53.939753 16.859227 C 53.348269 16.966498 52.29346 17.687781 52.197398 18.06331 z M 48.740256 20.19959 C 48.654723 20.446282 49.536712 21.022878 49.938902 20.984215 C 50.510291 20.929363 51.532553 20.289537 51.661049 19.919216 C 51.745279 19.6766 50.952331 19.109514 50.5772 19.145517 C 49.97881 19.202915 48.867395 19.833457 48.740256 20.19959 z M 45.349006 22.977054 C 45.337513 23.237898 46.347546 23.538308 46.721888 23.386321 C 47.253764 23.170423 48.050502 22.265111 48.067768 21.873506 C 48.079146 21.616964 47.157192 21.300193 46.807987 21.44188 C 46.250977 21.667967 45.366158 22.589864 45.349006 22.977054 z M 45.661304 27.665617 C 45.89277 27.78636 46.592371 26.998395 46.613089 26.594904 C 46.642637 26.021645 46.159555 24.916683 45.812048 24.735315 C 45.584434 24.616439 44.90719 25.317629 44.887829 25.694006 C 44.856924 26.294377 45.317701 27.486174 45.661304 27.665617 z M 47.48919 31.052624 C 47.720655 31.173365 48.42026 30.385401 48.440976 29.981908 C 48.470524 29.408652 47.987442 28.30369 47.639936 28.122321 C 47.412319 28.003447 46.735076 28.704635 46.715718 29.081013 C 46.68481 29.681382 47.145588 30.873181 47.48919 31.052624 z M 45.648795 34.224749 C 45.674042 34.484632 46.716226 34.6403 47.065546 34.437251 C 47.561875 34.148898 48.223608 33.140732 48.185738 32.750543 C 48.161 32.494962 47.203725 32.310651 46.877838 32.5 C 46.358076 32.802054 45.611435 33.838918 45.648795 34.224749 z M 42.965637 37.01246 C 42.941294 37.272454 43.93531 37.622229 44.316669 37.488863 C 44.858565 37.299457 45.698834 36.434505 45.73546 36.044146 C 45.759402 35.78851 44.854208 35.426625 44.498433 35.551045 C 43.930951 35.749393 43.001809 36.626516 42.965637 37.01246 z M 39.691108 39.671957 C 39.629295 39.925667 40.56206 40.415996 40.958758 40.339348 C 41.522391 40.230609 42.479271 39.496701 42.572107 39.115797 C 42.632903 38.866332 41.789804 38.376965 41.419707 38.448402 C 40.829469 38.562352 39.782924 39.295353 39.691108 39.671957 z M 42.955901 13.399556 C 42.863743 13.643841 43.730223 14.243687 44.133263 14.215758 C 44.705954 14.176188 45.744743 13.563607 45.882976 13.196763 C 45.973546 12.956534 45.196111 12.368544 44.820016 12.394593 C 44.220268 12.436087 43.092607 13.036859 42.955901 13.399556 z M 39.750657 15.642976 C 39.722299 15.902519 40.710935 16.267516 41.094274 16.14004 C 41.639059 15.959011 42.492403 15.10691 42.534916 14.717173 C 42.562768 14.461934 41.663288 14.086274 41.305587 14.205204 C 40.735105 14.394827 39.79266 15.257655 39.750657 15.642976 z M 36.578702 18.277339 C 36.550342 18.536879 37.538978 18.901881 37.922317 18.774401 C 38.467103 18.593374 39.320447 17.741273 39.362959 17.351536 C 39.39081 17.096297 38.491329 16.720597 38.133631 16.839528 C 37.563149 17.029161 36.620704 17.892018 36.578702 18.277339 z M 34.908804 21.986832 C 35.003225 22.230244 36.048805 22.098688 36.330311 21.808918 C 36.730407 21.397218 37.09518 20.247818 36.953383 19.88231 C 36.860489 19.642919 35.889063 19.723924 35.626407 19.994277 C 35.207461 20.425451 34.768534 21.625454 34.908804 21.986832 z M 36.466168 26.280225 C 36.703519 26.388967 37.361629 25.565905 37.361515 25.161904 C 37.361459 24.587797 36.82194 23.509328 36.465545 23.346073 C 36.232042 23.239144 35.591933 23.974295 35.59199 24.351238 C 35.592103 24.952401 36.113735 26.11884 36.466168 26.280225 z M 37.402557 30.141821 C 37.600509 30.312093 38.460876 29.703573 38.572729 29.315364 C 38.731738 28.763732 38.512161 27.730091 38.214975 27.474457 C 38.020249 27.307013 37.201487 27.683958 37.097106 28.046127 C 36.930626 28.623799 37.108654 29.889073 37.402557 30.141821 z M 34.809404 32.612196 C 34.747588 32.865906 35.680353 33.356231 36.077054 33.279589 C 36.640686 33.170847 37.597566 32.436941 37.690401 32.056035 C 37.751197 31.806568 36.908096 31.317203 36.538002 31.38864 C 35.947763 31.502591 34.901219 32.23559 34.809404 32.612196 z M 31.637502 35.139005 C 31.575687 35.392717 32.508453 35.883043 32.905153 35.806398 C 33.468729 35.697655 34.425612 34.963752 34.518444 34.582843 C 34.57924 34.333379 33.736139 33.844012 33.366045 33.915451 C 32.775863 34.0294 31.729318 34.7624 31.637502 35.139005 z "
     style="font-size:12;opacity:0.302675;fill-rule:evenodd;stroke-width:1.25;"
     id="path738" />
  <path
     d="M 27.419028 35.877777 C 26.867791 33.975285 33.838598 31.521215 34.607544 28.728975 C 35.363355 25.984456 30.706911 21.709742 31.993502 19.267446 C 33.974397 15.507176 40.00273 11.417261 44.41007 10.121145 C 45.548034 9.7544402 58.186444 14.085159 58.345112 14.970262 C 58.460703 17.272061 48.96091 20.406711 47.017772 23.906252 C 45.98385 25.768274 50.274014 29.009631 49.413875 31.054944 C 47.768941 34.966921 43.018903 40.031635 39.502553 41.778065 C 38.778496 42.191804 27.650914 36.57291 27.419028 35.877777 z M 51.09668 17.262776 C 51.032092 17.515753 51.959254 18.016495 52.356801 17.944323 C 52.921567 17.841864 53.886713 17.118769 53.983791 16.738994 C 54.047417 16.490151 53.209808 15.991391 52.839033 16.058695 C 52.247551 16.165964 51.192741 16.887247 51.09668 17.262776 z M 47.639538 19.399057 C 47.554007 19.64575 48.435995 20.222345 48.838185 20.183682 C 49.409573 20.128832 50.431835 19.489005 50.560332 19.118684 C 50.644562 18.876069 49.851615 18.308983 49.476483 18.344984 C 48.878093 18.402383 47.766678 19.032925 47.639538 19.399057 z M 44.248289 22.176523 C 44.236798 22.437367 45.246829 22.737777 45.621168 22.585788 C 46.153046 22.369889 46.949785 21.46458 46.967051 21.072973 C 46.978429 20.816433 46.056476 20.499662 45.707269 20.641349 C 45.15026 20.867435 44.265438 21.789332 44.248289 22.176523 z M 44.560587 26.865086 C 44.792053 26.985828 45.491653 26.197864 45.512372 25.794369 C 45.54192 25.221113 45.058839 24.116152 44.711331 23.934784 C 44.483715 23.815909 43.806473 24.517096 43.787113 24.893476 C 43.756207 25.493844 44.216985 26.685643 44.560587 26.865086 z M 46.388473 30.252091 C 46.619939 30.372833 47.31954 29.584868 47.34026 29.181375 C 47.369808 28.608119 46.886726 27.503157 46.539217 27.321787 C 46.311602 27.202915 45.63436 27.904102 45.615 28.28048 C 45.584093 28.880851 46.044871 30.072648 46.388473 30.252091 z M 44.548077 33.424218 C 44.573322 33.684098 45.615509 33.839768 45.96483 33.63672 C 46.461158 33.348366 47.122888 32.340201 47.08502 31.95001 C 47.060283 31.694431 46.103007 31.510119 45.777121 31.699469 C 45.257358 32.001522 44.510716 33.038386 44.548077 33.424218 z M 41.864921 36.211928 C 41.840578 36.471924 42.834592 36.821698 43.215952 36.68833 C 43.757847 36.498925 44.598117 35.633974 44.634743 35.243615 C 44.658687 34.987977 43.75349 34.626091 43.397716 34.750512 C 42.830234 34.948863 41.901092 35.825984 41.864921 36.211928 z M 38.590391 38.871425 C 38.528576 39.125136 39.461341 39.615464 39.858041 39.538818 C 40.421674 39.430076 41.378554 38.69617 41.47139 38.315263 C 41.532184 38.065799 40.689085 37.576434 40.31899 37.647871 C 39.728751 37.76182 38.682207 38.494819 38.590391 38.871425 z M 41.855184 12.599013 C 41.763028 12.843298 42.629505 13.443144 43.032545 13.415213 C 43.605237 13.375645 44.644026 12.763064 44.782259 12.39622 C 44.872829 12.155992 44.095393 11.568001 43.719299 11.594052 C 43.11955 11.635545 41.991888 12.236318 41.855184 12.599013 z M 38.649941 14.842443 C 38.62158 15.101986 39.610218 15.466985 39.993558 15.339506 C 40.538342 15.15848 41.391687 14.306395 41.434198 13.916658 C 41.46205 13.661419 40.562568 13.285731 40.204871 13.404661 C 39.634389 13.594282 38.691944 14.457121 38.649941 14.842443 z M 35.477984 17.476807 C 35.449623 17.736348 36.438261 18.101349 36.821601 17.97387 C 37.366382 17.792841 38.21973 16.940742 38.262242 16.551005 C 38.290091 16.295764 37.390611 15.920066 37.032915 16.038996 C 36.462431 16.228628 35.519987 17.091486 35.477984 17.476807 z M 33.808087 21.186302 C 33.902506 21.42971 34.948089 21.298154 35.229594 21.008387 C 35.629689 20.596685 35.994464 19.447286 35.852663 19.081776 C 35.759772 18.842388 34.788346 18.92339 34.525689 19.193746 C 34.106744 19.624918 33.667814 20.824924 33.808087 21.186302 z M 35.365451 25.479694 C 35.602802 25.588435 36.260914 24.765373 36.260798 24.361371 C 36.260743 23.787267 35.721224 22.708794 35.364829 22.545542 C 35.131323 22.43861 34.491217 23.173763 34.491273 23.550706 C 34.491387 24.151869 35.013016 25.318308 35.365451 25.479694 z M 36.301837 29.341289 C 36.499793 29.511562 37.360159 28.903041 37.472012 28.514831 C 37.631021 27.963198 37.411444 26.929561 37.114258 26.673925 C 36.919533 26.506483 36.100772 26.883426 35.996388 27.245597 C 35.829908 27.823267 36.007935 29.088541 36.301837 29.341289 z M 33.708684 31.811663 C 33.64687 32.065374 34.579636 32.555702 34.976337 32.479057 C 35.539969 32.370315 36.496849 31.636409 36.589685 31.255502 C 36.65048 31.006036 35.80738 30.516671 35.437283 30.588108 C 34.847046 30.702058 33.8005 31.435058 33.708684 31.811663 z M 30.536757 34.338474 C 30.474942 34.592183 31.407707 35.082513 31.804407 35.005865 C 32.368013 34.897126 33.324892 34.163218 33.417727 33.782312 C 33.478523 33.532846 32.635423 33.043482 32.265327 33.114918 C 31.675116 33.22887 30.628573 33.961869 30.536757 34.338474 z "
     style="font-size:12;fill:#261e2e;fill-rule:evenodd;stroke:#261e2e;stroke-width:0.0559398;"
     id="path737" />
  <path
     d="M 33.172225 35.682939 C 33.218187 34.773891 37.616247 31.423511 38.487253 31.344996 C 39.382885 31.253861 43.10455 31.537971 43.171345 32.514209 C 43.355318 33.407917 38.287092 37.848882 37.317418 38.089912 C 36.380465 38.430346 33.123597 36.533229 33.172225 35.682939 z "
     style="font-size:12;fill:url(#linearGradient862);fill-rule:evenodd;stroke:#261933;stroke-width:0.704841;"
     id="path648" />
  <path
     d="M 39.231009 28.641459 C 39.944422 29.133712 43.707922 30.063875 44.265724 29.657211 C 44.869602 29.132975 42.366058 26.453612 42.292865 22.694247 C 42.274979 21.757236 37.705798 21.822616 37.168714 22.553975 C 36.891341 22.97745 38.609071 28.129737 39.231009 28.641459 z "
     style="font-size:12;fill:url(#linearGradient869);fill-rule:evenodd;stroke:#261933;stroke-width:0.704841;"
     id="path649" />
  <path
     d="M 38.22024 18.97479 C 38.302263 19.64609 43.084227 20.603873 43.97601 20.371051 C 44.988422 20.076695 50.718773 16.519249 50.625259 15.763719 C 50.521838 14.80531 45.687626 13.532752 44.601175 13.687911 C 43.500005 13.830051 38.106291 18.154447 38.22024 18.97479 z "
     style="font-size:12;fill:url(#linearGradient776);fill-rule:evenodd;stroke:#261933;stroke-width:0.707585;"
     id="path650" />
  <path
     d="M 34.470216 35.152364 C 34.470216 35.011016 36.786731 32.704633 38.157974 32.156115 C 39.091532 31.78268 41.384725 32.252969 41.384725 32.38656 C 41.384725 32.521907 39.156402 32.563456 38.157974 32.962817 C 36.851603 33.485354 34.470216 35.279955 34.470216 35.152364 z "
     style="font-size:12;opacity:0.699936;fill:url(#linearGradient778);fill-rule:evenodd;stroke:none;stroke-width:0.0632452pt;"
     id="path656" />
  <path
     d="M 38.228731 24.17338 C 38.032193 24.415996 37.706196 23.020415 37.998227 22.905675 C 38.781779 22.597846 41.417104 22.6947 41.455482 22.905675 C 41.493974 23.117268 39.18414 23.02098 38.228731 24.17338 z "
     style="font-size:12;opacity:0.7;fill:url(#linearGradient779);fill-rule:evenodd;stroke:none;stroke-width:0.0632452pt;"
     id="path657" />
  <path
     d="M 40.007087 18.225204 C 40.027523 18.020626 42.98511 15.048719 44.73199 14.537446 C 46.135045 14.126801 49.476028 15.267955 49.456897 15.459401 C 49.437651 15.652089 46.127008 15.247861 44.616741 15.689902 C 42.977071 16.169813 39.989141 18.40476 40.007087 18.225204 z "
     style="font-size:12;opacity:0.699936;fill:url(#linearGradient915);fill-rule:evenodd;stroke:none;stroke-width:0.0632452pt;"
     id="path658" />
  <path
     d="M 32.721916 20.186684 C 32.682689 18.453329 39.428567 12.977535 43.66988 11.428312 C 45.843692 10.634285 51.927724 12.919242 51.967348 13.15694 C 52.004538 13.380215 46.043173 12.028525 43.900383 12.811215 C 39.628048 14.371765 32.711161 20.415317 32.721916 20.186684 z "
     style="font-size:12;opacity:0.7;fill:url(#linearGradient777);fill-rule:evenodd;stroke:none;stroke-width:0.0632452pt;"
     id="path655" />
</svg>
