<?xml version="1.0" encoding="UTF-8" standalone="no"?>
<!-- Created with Inkscape (http://www.inkscape.org/) -->
<svg
   xmlns:dc="http://purl.org/dc/elements/1.1/"
   xmlns:cc="http://web.resource.org/cc/"
   xmlns:rdf="http://www.w3.org/1999/02/22-rdf-syntax-ns#"
   xmlns:svg="http://www.w3.org/2000/svg"
   xmlns="http://www.w3.org/2000/svg"
   xmlns:xlink="http://www.w3.org/1999/xlink"
   xmlns:sodipodi="http://inkscape.sourceforge.net/DTD/sodipodi-0.dtd"
   xmlns:inkscape="http://www.inkscape.org/namespaces/inkscape"
   id="svg1"
   sodipodi:version="0.32"
   inkscape:version="0.42.2"
   width="48pt"
   height="48pt"
   sodipodi:docbase="/home/jakob/dev/lila-cvs/lila-theme/trunk/lila/kde/scalable/devices"
   sodipodi:docname="ksim_cpu.svg">
  <metadata
     id="metadata56">
    <rdf:RDF>
      <cc:Work
         rdf:about="">
        <dc:format>image/svg+xml</dc:format>
        <dc:type
           rdf:resource="http://purl.org/dc/dcmitype/StillImage" />
      </cc:Work>
    </rdf:RDF>
  </metadata>
  <defs
     id="defs3">
    <linearGradient
       inkscape:collect="always"
       id="linearGradient5020">
      <stop
         style="stop-color:#261933;stop-opacity:1;"
         offset="0"
         id="stop5022" />
      <stop
         style="stop-color:#261933;stop-opacity:0;"
         offset="1"
         id="stop5024" />
    </linearGradient>
    <linearGradient
       id="linearGradient5006">
      <stop
         id="stop5008"
         offset="0.0000000"
         style="stop-color:#ffffff;stop-opacity:1.0000000;" />
      <stop
         id="stop5010"
         offset="1.00000000"
         style="stop-color:#73667f;stop-opacity:1;" />
    </linearGradient>
    <linearGradient
       id="linearGradient703">
      <stop
         style="stop-color:#d9cce6;stop-opacity:1;"
         offset="0.00000000"
         id="stop704" />
      <stop
         style="stop-color:#73667f;stop-opacity:1;"
         offset="1.00000000"
         id="stop705" />
    </linearGradient>
    <linearGradient
       id="linearGradient866">
      <stop
         style="stop-color:#ffffff;stop-opacity:1;"
         offset="0.00000000"
         id="stop867" />
      <stop
         style="stop-color:#d9cce6;stop-opacity:1;"
         offset="1.00000000"
         id="stop868" />
    </linearGradient>
    <linearGradient
       id="linearGradient584">
      <stop
         style="stop-color:#ffffff;stop-opacity:1;"
         offset="0.00000000"
         id="stop585" />
      <stop
         style="stop-color:#ffffff;stop-opacity:0;"
         offset="1.00000000"
         id="stop586" />
    </linearGradient>
    <linearGradient
       xlink:href="#linearGradient866"
       id="linearGradient586"
       x1="-0.00000000"
       y1="0.01562500"
       x2="0.99122804"
       y2="0.98437500" />
    <linearGradient
       xlink:href="#linearGradient584"
       id="linearGradient587"
       x1="0.00000000"
       y1="-0.00000000"
       x2="1.00000000"
       y2="1.00000000" />
    <linearGradient
       xlink:href="#linearGradient584"
       id="linearGradient700"
       x1="17.319941"
       y1="21.971689"
       x2="32.660784"
       y2="37.499615"
       gradientTransform="matrix(2.169231,0.000000,0.000000,1.680821,-24.69175,-23.02714)"
       gradientUnits="userSpaceOnUse" />
    <linearGradient
       xlink:href="#linearGradient703"
       id="linearGradient701"
       x1="16.655615"
       y1="17.166332"
       x2="39.315977"
       y2="39.816203"
       gradientTransform="matrix(1.956150,0.000000,0.000000,1.863908,-24.69174,-23.02713)"
       gradientUnits="userSpaceOnUse" />
    <linearGradient
       xlink:href="#linearGradient703"
       id="linearGradient702"
       x1="-0.00000000"
       y1="0.00000000"
       x2="0.97457629"
       y2="0.96093750" />
    <linearGradient
       xlink:href="#linearGradient584"
       id="linearGradient845"
       x1="-0.00000000"
       y1="-0.00000000"
       x2="0.99635035"
       y2="0.97727275" />
    <radialGradient
       xlink:href="#linearGradient703"
       id="radialGradient846" />
    <linearGradient
       xlink:href="#linearGradient584"
       id="linearGradient847"
       x1="0.00000000"
       y1="-0.00000000"
       x2="0.98540145"
       y2="0.93902439" />
    <linearGradient
       xlink:href="#linearGradient703"
       id="linearGradient848"
       x1="0.01219511"
       y1="0.01562503"
       x2="0.99999994"
       y2="1.00000012" />
    <linearGradient
       xlink:href="#linearGradient584"
       id="linearGradient849"
       x1="0.00000000"
       y1="-0.00000000"
       x2="0.98514849"
       y2="1.02343750" />
    <linearGradient
       xlink:href="#linearGradient703"
       id="linearGradient850"
       x1="-0.00000000"
       y1="0.00000000"
       x2="1.00000000"
       y2="0.95652175" />
    <linearGradient
       xlink:href="#linearGradient584"
       id="linearGradient863"
       x1="-0.00000000"
       y1="-0.00000000"
       x2="0.99635035"
       y2="0.82142860" />
    <linearGradient
       inkscape:collect="always"
       xlink:href="#linearGradient5006"
       id="linearGradient5004"
       x1="7.9598303"
       y1="35.325157"
       x2="30.302633"
       y2="41.089951"
       gradientUnits="userSpaceOnUse"
       gradientTransform="matrix(0.872883,0.000000,1.591219e-2,0.921951,5.082484,0.650767)" />
    <linearGradient
       inkscape:collect="always"
       xlink:href="#linearGradient703"
       id="linearGradient5018"
       x1="43.257744"
       y1="23.782064"
       x2="19.571966"
       y2="29.546856"
       gradientUnits="userSpaceOnUse"
       gradientTransform="matrix(0.921951,0.000000,0.000000,0.921951,3.496867,1.238527)" />
    <linearGradient
       inkscape:collect="always"
       xlink:href="#linearGradient5020"
       id="linearGradient5026"
       x1="51.957832"
       y1="31.211920"
       x2="22.463024"
       y2="24.444555"
       gradientUnits="userSpaceOnUse"
       gradientTransform="matrix(0.921951,0.000000,0.000000,0.921951,-1.240288,-3.241693e-2)" />
    <linearGradient
       inkscape:collect="always"
       xlink:href="#linearGradient584"
       id="linearGradient5034"
       x1="16.646681"
       y1="43.303345"
       x2="36.867054"
       y2="28.515398"
       gradientUnits="userSpaceOnUse"
       gradientTransform="matrix(0.921951,0.000000,0.000000,0.921951,5.047707,-1.100982)" />
    <linearGradient
       inkscape:collect="always"
       xlink:href="#linearGradient5020"
       id="linearGradient5038"
       gradientUnits="userSpaceOnUse"
       gradientTransform="matrix(0.544050,-0.812269,-0.744314,-0.593721,52.83751,74.29475)"
       x1="4.1778398"
       y1="39.390896"
       x2="32.724327"
       y2="37.582226" />
    <linearGradient
       inkscape:collect="always"
       xlink:href="#linearGradient584"
       id="linearGradient5046"
       gradientUnits="userSpaceOnUse"
       gradientTransform="matrix(0.459452,-0.538579,-0.779232,-0.480244,52.48288,51.76684)"
       x1="14.140282"
       y1="26.392221"
       x2="22.469917"
       y2="44.868130" />
    <linearGradient
       inkscape:collect="always"
       xlink:href="#linearGradient5020"
       id="linearGradient5776"
       gradientUnits="userSpaceOnUse"
       gradientTransform="matrix(0.812910,0.386203,0.581368,-0.571598,-8.831965,44.47593)"
       x1="4.1778398"
       y1="39.390896"
       x2="32.724327"
       y2="37.582226" />
    <linearGradient
       inkscape:collect="always"
       xlink:href="#linearGradient5006"
       id="linearGradient5780"
       gradientUnits="userSpaceOnUse"
       gradientTransform="matrix(-0.749643,-0.349518,-0.485972,0.612506,68.31930,3.878897)"
       x1="38.743256"
       y1="39.895081"
       x2="11.469328"
       y2="35.299164" />
  </defs>
  <sodipodi:namedview
     id="base"
     pagecolor="#ffffff"
     bordercolor="#666666"
     borderopacity="1.0"
     inkscape:pageopacity="0.0"
     inkscape:pageshadow="2"
     inkscape:zoom="13.666667"
     inkscape:cx="30.000000"
     inkscape:cy="29.078013"
     inkscape:window-width="1400"
     inkscape:window-height="992"
     inkscape:window-x="0"
     inkscape:window-y="0"
     inkscape:current-layer="svg1" />
  <g
     id="g1389"
     transform="matrix(-0.335793,-1.977269,3.287491,0.337171,-33.05328,83.41781)">
    <path
       d="M 36.909513,19.187029 C 37.092159,18.164964 38.876625,15.603016 39.002514,15.682696 C 39.137023,15.767783 38.868785,18.543757 38.473603,19.445891 C 38.379988,19.659619 36.863484,19.445410 36.909513,19.187029 z "
       style="font-size:12.000000px;fill:#261933;fill-opacity:1.0000000;fill-rule:evenodd;stroke-width:1.0000000pt"
       id="path1391"
       sodipodi:nodetypes="cccc" />
    <path
       d="M 33.223405,17.840543 C 33.405867,16.818477 34.877212,14.334949 35.003195,14.414535 C 35.137520,14.499625 35.026026,17.432250 34.630751,18.334475 C 34.537136,18.548112 33.177377,18.098926 33.223405,17.840543 z "
       style="font-size:12.000000px;fill:#261933;fill-opacity:1.0000000;fill-rule:evenodd;stroke-width:1.0000000pt"
       id="path1393"
       sodipodi:nodetypes="cccc" />
    <path
       d="M 28.989428,17.017010 C 29.171983,15.994945 30.721560,13.432998 30.847451,13.512676 C 30.981868,13.597763 30.713723,16.295411 30.318540,17.197545 C 30.224923,17.411275 28.943401,17.275390 28.989428,17.017010 z "
       style="font-size:12.000000px;fill:#261933;fill-opacity:1.0000000;fill-rule:evenodd;stroke-width:1.0000000pt"
       id="path1395"
       sodipodi:nodetypes="cccc" />
    <path
       d="M 25.036320,16.397668 C 25.218692,15.375696 26.455149,12.735422 26.581039,12.815011 C 26.715364,12.900097 26.682289,15.911049 26.287013,16.813184 C 26.193399,17.026910 24.990200,16.656050 25.036320,16.397668 z "
       style="font-size:12.000000px;fill:#261933;fill-opacity:1.0000000;fill-rule:evenodd;stroke-width:1.0000000pt"
       id="path1397"
       sodipodi:nodetypes="cccc" />
  </g>
  <g
     id="g1369"
     transform="matrix(0.311575,1.977269,-3.050393,-0.337171,90.67369,-23.15078)">
    <path
       d="M 36.909513,19.187029 C 37.092159,18.164964 38.876625,15.603016 39.002514,15.682696 C 39.137023,15.767783 38.868785,18.543757 38.473603,19.445891 C 38.379988,19.659619 36.863484,19.445410 36.909513,19.187029 z "
       style="font-size:12.000000px;fill:#261933;fill-opacity:1.0000000;fill-rule:evenodd;stroke-width:1.0000000pt"
       id="path1371"
       sodipodi:nodetypes="cccc" />
    <path
       d="M 33.223405,17.840543 C 33.405867,16.818477 34.877212,14.334949 35.003195,14.414535 C 35.137520,14.499625 35.026026,17.432250 34.630751,18.334475 C 34.537136,18.548112 33.177377,18.098926 33.223405,17.840543 z "
       style="font-size:12.000000px;fill:#261933;fill-opacity:1.0000000;fill-rule:evenodd;stroke-width:1.0000000pt"
       id="path1373"
       sodipodi:nodetypes="cccc" />
    <path
       d="M 28.989428,17.017010 C 29.171983,15.994945 30.721560,13.432998 30.847451,13.512676 C 30.981868,13.597763 30.713723,16.295411 30.318540,17.197545 C 30.224923,17.411275 28.943401,17.275390 28.989428,17.017010 z "
       style="font-size:12.000000px;fill:#261933;fill-opacity:1.0000000;fill-rule:evenodd;stroke-width:1.0000000pt"
       id="path1375"
       sodipodi:nodetypes="cccc" />
    <path
       d="M 25.036320,16.397668 C 25.218692,15.375696 26.455149,12.735422 26.581039,12.815011 C 26.715364,12.900097 26.682289,15.911049 26.287013,16.813184 C 26.193399,17.026910 24.990200,16.656050 25.036320,16.397668 z "
       style="font-size:12.000000px;fill:#261933;fill-opacity:1.0000000;fill-rule:evenodd;stroke-width:1.0000000pt"
       id="path1377"
       sodipodi:nodetypes="cccc" />
  </g>
  <g
     id="g1028"
     transform="matrix(-1.935601,0.000000,0.174216,-2.519230,82.53028,92.27952)">
    <path
       d="M 36.909513,19.187029 C 37.092159,18.164964 38.876625,15.603016 39.002514,15.682696 C 39.137023,15.767783 38.868785,18.543757 38.473603,19.445891 C 38.379988,19.659619 36.863484,19.445410 36.909513,19.187029 z "
       style="font-size:12.000000px;fill:#261933;fill-opacity:1.0000000;fill-rule:evenodd;stroke-width:1.0000000pt"
       id="path1029"
       sodipodi:nodetypes="cccc" />
    <path
       d="M 33.223405,17.840543 C 33.405867,16.818477 34.877212,14.334949 35.003195,14.414535 C 35.137520,14.499625 35.026026,17.432250 34.630751,18.334475 C 34.537136,18.548112 33.177377,18.098926 33.223405,17.840543 z "
       style="font-size:12.000000px;fill:#261933;fill-opacity:1.0000000;fill-rule:evenodd;stroke-width:1.0000000pt"
       id="path1030"
       sodipodi:nodetypes="cccc" />
    <path
       d="M 28.989428,17.017010 C 29.171983,15.994945 30.721560,13.432998 30.847451,13.512676 C 30.981868,13.597763 30.713723,16.295411 30.318540,17.197545 C 30.224923,17.411275 28.943401,17.275390 28.989428,17.017010 z "
       style="font-size:12.000000px;fill:#261933;fill-opacity:1.0000000;fill-rule:evenodd;stroke-width:1.0000000pt"
       id="path1031"
       sodipodi:nodetypes="cccc" />
    <path
       d="M 25.036320,16.397668 C 25.218692,15.375696 26.455149,12.735422 26.581039,12.815011 C 26.715364,12.900097 26.682289,15.911049 26.287013,16.813184 C 26.193399,17.026910 24.990200,16.656050 25.036320,16.397668 z "
       style="font-size:12.000000px;fill:#261933;fill-opacity:1.0000000;fill-rule:evenodd;stroke-width:1.0000000pt"
       id="path1032"
       sodipodi:nodetypes="cccc" />
  </g>
  <g
     id="g1023"
     transform="matrix(1.970464,-0.327314,-0.275274,2.780603,-21.82774,-26.59365)">
    <path
       d="M 36.909513,19.187029 C 37.092159,18.164964 38.876625,15.603016 39.002514,15.682696 C 39.137023,15.767783 38.868785,18.543757 38.473603,19.445891 C 38.379988,19.659619 36.863484,19.445410 36.909513,19.187029 z "
       style="font-size:12.000000px;fill:#261933;fill-opacity:1.0000000;fill-rule:evenodd;stroke-width:1.0000000pt"
       id="path1019"
       sodipodi:nodetypes="cccc" />
    <path
       d="M 33.223405,17.840543 C 33.405867,16.818477 34.877212,14.334949 35.003195,14.414535 C 35.137520,14.499625 35.026026,17.432250 34.630751,18.334475 C 34.537136,18.548112 33.177377,18.098926 33.223405,17.840543 z "
       style="font-size:12.000000px;fill:#261933;fill-opacity:1.0000000;fill-rule:evenodd;stroke-width:1.0000000pt"
       id="path1020"
       sodipodi:nodetypes="cccc" />
    <path
       d="M 28.989428,17.017010 C 29.171983,15.994945 30.721560,13.432998 30.847451,13.512676 C 30.981868,13.597763 30.713723,16.295411 30.318540,17.197545 C 30.224923,17.411275 28.943401,17.275390 28.989428,17.017010 z "
       style="font-size:12.000000px;fill:#261933;fill-opacity:1.0000000;fill-rule:evenodd;stroke-width:1.0000000pt"
       id="path1021"
       sodipodi:nodetypes="cccc" />
    <path
       d="M 25.036320,16.397668 C 25.218692,15.375696 26.455149,12.735422 26.581039,12.815011 C 26.715364,12.900097 26.682289,15.911049 26.287013,16.813184 C 26.193399,17.026910 24.990200,16.656050 25.036320,16.397668 z "
       style="font-size:12.000000px;fill:#261933;fill-opacity:1.0000000;fill-rule:evenodd;stroke-width:1.0000000pt"
       id="path1022"
       sodipodi:nodetypes="cccc" />
  </g>
  <path
     d="M 20.613726,10.266112 C 18.311357,11.702465 8.0391820,39.891057 9.1145189,42.299974 C 9.9385080,44.419454 37.962106,51.415873 40.053183,50.240063 C 41.975654,49.284410 52.636261,18.650451 51.278712,16.563477 C 50.118662,14.546278 22.820876,9.1517026 20.613726,10.266112 z "
     style="font-size:12.000000px;fill:url(#linearGradient701);fill-rule:evenodd;stroke:#261933;stroke-width:1.4999995;stroke-miterlimit:4.0000000;stroke-dasharray:none"
     id="path1009" />
  <path
     d="M 29.967363,19.714931 C 28.684072,20.515524 22.958578,36.227254 23.557947,37.569934 C 24.017221,38.751288 39.636987,42.650944 40.802509,41.995572 C 41.874055,41.462911 47.816053,24.388187 47.059384,23.224951 C 46.412797,22.100606 31.197582,19.093783 29.967363,19.714931 z "
     style="font-size:12.000000px;fill:none;fill-opacity:1.0000000;fill-rule:evenodd;stroke:url(#linearGradient5034);stroke-width:0.49999985;stroke-miterlimit:4.0000000;stroke-dasharray:none;stroke-opacity:1.0000000"
     id="path2810" />
  <text
     xml:space="preserve"
     style="font-size:11.063416px;font-style:normal;font-weight:normal;fill:#000000;fill-opacity:1.0000000;stroke:none;stroke-width:1.0000000pt;stroke-linecap:butt;stroke-linejoin:miter;stroke-opacity:1.0000000;font-family:helvetica"
     x="32.338943"
     y="44.713913"
     id="text863"><tspan
       id="tspan864" /></text>
  <path
     d="M 41.540166,17.985716 C 42.321799,18.603266 40.983721,25.363737 39.936331,25.641655 C 39.073135,25.904932 24.136004,22.889889 23.397584,22.352685 C 22.690929,21.881847 24.385222,14.612067 25.496099,14.436669 C 26.497172,14.243790 40.732691,17.441986 41.540166,17.985716 z "
     style="font-size:12.000000px;fill:none;fill-opacity:1.0000000;fill-rule:evenodd;stroke:url(#linearGradient5780);stroke-width:0.50000018;stroke-miterlimit:4.0000000;stroke-dasharray:none;stroke-opacity:1.0000000"
     id="path5778" />
  <path
     d="M 25.989521,16.304054 C 24.706230,17.104648 18.980736,32.816377 19.580105,34.159057 C 20.039378,35.340412 35.659145,39.240067 36.824666,38.584695 C 37.896213,38.052035 43.838210,20.977310 43.081542,19.814075 C 42.434955,18.689730 27.219740,15.682906 25.989521,16.304054 z "
     style="font-size:12.000000px;fill:none;fill-opacity:1.0000000;fill-rule:evenodd;stroke:url(#linearGradient5018);stroke-width:0.49999985;stroke-miterlimit:4.0000000;stroke-dasharray:none;stroke-opacity:1.0000000"
     id="path4992" />
  <path
     d="M 22.257266,18.031704 C 21.144689,18.409512 18.260924,26.810472 19.074688,27.583582 C 19.724377,28.260350 35.604125,31.209323 36.626893,30.905876 C 37.579168,30.665547 40.440238,21.521598 39.504032,20.839776 C 38.681693,20.185050 23.348906,17.750469 22.257266,18.031704 z "
     style="font-size:12.000000px;fill:none;fill-opacity:1.0000000;fill-rule:evenodd;stroke:url(#linearGradient5026);stroke-width:0.49999994;stroke-miterlimit:4.0000000;stroke-dasharray:none;stroke-opacity:1.0000000"
     id="path4994" />
  <path
     d="M 18.834903,29.869367 C 17.758873,30.147481 14.477105,38.261061 15.194465,39.102992 C 15.763231,39.834475 30.567541,44.173821 31.553799,43.961850 C 32.469278,43.806527 35.778935,34.950856 34.939857,34.189046 C 34.206540,33.464279 19.884743,29.685602 18.834903,29.869367 z "
     style="font-size:12.000000px;fill:none;fill-opacity:1.0000000;fill-rule:evenodd;stroke:url(#linearGradient5004);stroke-width:0.50000030;stroke-miterlimit:4.0000000;stroke-dasharray:none;stroke-opacity:1.0000000"
     id="path4996" />
  <path
     d="M 37.505871,43.150295 C 36.607684,43.976971 27.924651,41.936148 27.682998,40.739937 C 27.439085,39.751350 33.116373,23.250308 33.904496,22.465639 C 34.602163,21.711264 43.909671,24.192107 44.009913,25.451279 C 44.145770,26.588769 38.310552,42.288750 37.505871,43.150295 z "
     style="font-size:12.000000px;fill:none;fill-opacity:1.0000000;fill-rule:evenodd;stroke:url(#linearGradient5038);stroke-width:0.50000012;stroke-miterlimit:4.0000000;stroke-dasharray:none;stroke-opacity:1.0000000"
     id="path5036" />
  <path
     d="M 21.930720,32.222329 C 21.099525,31.571694 23.029126,25.027419 24.214573,24.816397 C 25.193767,24.608950 41.647477,28.435581 42.435712,29.004984 C 43.192842,29.507518 40.833193,36.529886 39.583623,36.636769 C 38.455314,36.767196 22.795502,32.802163 21.930720,32.222329 z "
     style="font-size:12.000000px;fill:none;fill-opacity:1.0000000;fill-rule:evenodd;stroke:url(#linearGradient5776);stroke-width:0.49999994;stroke-miterlimit:4.0000000;stroke-dasharray:none;stroke-opacity:1.0000000"
     id="path5774" />
  <path
     d="M 12.884222,39.983063 C 12.640098,39.152837 21.339819,15.374433 23.014553,13.972554 C 24.177885,13.272517 46.323422,18.093638 46.560818,18.900880 C 46.779663,19.645079 29.015755,15.277241 24.383597,18.627201 C 20.525516,21.615325 13.096336,40.704444 12.884222,39.983063 z "
     style="font-size:12.000000px;opacity:0.69993597;fill:url(#linearGradient700);fill-rule:evenodd;stroke:none;stroke-width:0.075106603pt"
     id="path1010" />
  <path
     d="M 34.760641,28.372605 C 33.956672,28.894619 25.297983,26.779537 24.956325,25.907323 C 24.630809,25.183147 28.716204,13.834576 29.416414,13.334203 C 30.030978,12.848597 39.338305,15.325122 39.547447,16.231558 C 39.780613,17.053835 35.470225,27.818609 34.760641,28.372605 z "
     style="font-size:12.000000px;fill:none;fill-opacity:1.0000000;fill-rule:evenodd;stroke:url(#linearGradient5046);stroke-width:0.49999994;stroke-miterlimit:4.0000000;stroke-dasharray:none;stroke-opacity:1.0000000"
     id="path5044" />
</svg>
