<?xml version="1.0" encoding="UTF-8" standalone="no"?>
<!DOCTYPE svg PUBLIC "-//W3C//DTD SVG 20010904//EN"
"http://www.w3.org/TR/2001/REC-SVG-20010904/DTD/svg10.dtd">
<!-- Created with Inkscape (http://www.inkscape.org/) -->
<svg
   id="svg1"
   sodipodi:version="0.32"
   inkscape:version="0.38.1"
   width="48pt"
   height="48pt"
   sodipodi:docbase="/home/tom"
   sodipodi:docname="tv.svg"
   xmlns="http://www.w3.org/2000/svg"
   xmlns:inkscape="http://www.inkscape.org/namespaces/inkscape"
   xmlns:sodipodi="http://sodipodi.sourceforge.net/DTD/sodipodi-0.dtd"
   xmlns:xlink="http://www.w3.org/1999/xlink">
  <defs
     id="defs3">
    <linearGradient
       id="linearGradient916">
      <stop
         style="stop-color:#cccccc;stop-opacity:1;"
         offset="0.00000000"
         id="stop917" />
      <stop
         style="stop-color:#7f7f7f;stop-opacity:1;"
         offset="1.00000000"
         id="stop918" />
    </linearGradient>
    <linearGradient
       id="linearGradient866">
      <stop
         style="stop-color:#ffffff;stop-opacity:1;"
         offset="0.00000000"
         id="stop867" />
      <stop
         style="stop-color:#d9cce6;stop-opacity:1;"
         offset="1.00000000"
         id="stop868" />
    </linearGradient>
    <linearGradient
       id="linearGradient584">
      <stop
         style="stop-color:#ffffff;stop-opacity:1;"
         offset="0.00000000"
         id="stop585" />
      <stop
         style="stop-color:#ffffff;stop-opacity:0;"
         offset="1.00000000"
         id="stop586" />
    </linearGradient>
    <linearGradient
       id="linearGradient578">
      <stop
         style="stop-color:#d9cce6;stop-opacity:1;"
         offset="0.00000000"
         id="stop579" />
      <stop
         style="stop-color:#73667f;stop-opacity:1;"
         offset="1.00000000"
         id="stop580" />
    </linearGradient>
    <linearGradient
       xlink:href="#linearGradient584"
       id="linearGradient581"
       x1="0.01515152"
       y1="0.00775194"
       x2="1.00000000"
       y2="0.98449612" />
    <linearGradient
       xlink:href="#linearGradient866"
       id="linearGradient583"
       x1="7.6154361e-16"
       y1="0.50000000"
       x2="1.0000000"
       y2="0.50000000" />
    <linearGradient
       xlink:href="#linearGradient584"
       id="linearGradient860"
       x1="0.44863012"
       y1="-0.14970060"
       x2="0.44178084"
       y2="0.98802394" />
    <linearGradient
       xlink:href="#linearGradient584"
       id="linearGradient861"
       x1="-0.00000000"
       y1="-0.01818182"
       x2="1.00362325"
       y2="0.92727274" />
    <linearGradient
       xlink:href="#linearGradient584"
       id="linearGradient862"
       x1="0.00362319"
       y1="-0.00000000"
       x2="0.98913044"
       y2="0.96103895" />
    <linearGradient
       xlink:href="#linearGradient578"
       id="linearGradient869"
       x1="-0.00000000"
       y1="0.00917431"
       x2="0.99275362"
       y2="0.96330273" />
    <linearGradient
       xlink:href="#linearGradient578"
       id="linearGradient915"
       x1="0.00362319"
       y1="-0.00000000"
       x2="1.01086962"
       y2="1.02362204" />
    <linearGradient
       xlink:href="#linearGradient578"
       id="linearGradient1046"
       x1="-0.00000000"
       y1="0.00775194"
       x2="0.97549021"
       y2="0.96899223" />
    <linearGradient
       xlink:href="#linearGradient578"
       id="linearGradient1047"
       x1="0.00362319"
       y1="0.01626016"
       x2="1.00000000"
       y2="0.97560978" />
    <linearGradient
       xlink:href="#linearGradient584"
       id="linearGradient1106"
       x1="0.01677185"
       y1="0.00454466"
       x2="0.97643667"
       y2="1.00106704" />
    <linearGradient
       xlink:href="#linearGradient866"
       id="linearGradient1107"
       x1="0.01683684"
       y1="0.00517791"
       x2="0.98230928"
       y2="0.98697507" />
    <linearGradient
       xlink:href="#linearGradient584"
       id="linearGradient1113"
       x1="0.02027027"
       y1="0.03100775"
       x2="0.99324322"
       y2="0.98449612" />
  </defs>
  <sodipodi:namedview
     id="base"
     pagecolor="#ffffff"
     bordercolor="#666666"
     borderopacity="1.0"
     inkscape:pageopacity="0.0"
     inkscape:pageshadow="2"
     inkscape:zoom="5.6568542"
     inkscape:cx="25.429744"
     inkscape:cy="19.574512"
     inkscape:window-width="1018"
     inkscape:window-height="713"
     inkscape:window-x="0"
     inkscape:window-y="28" />
  <path
     d="M 8.0439183,46.482325 C 8.9294123,47.412404 43.808117,58.956832 45.068889,58.120080 C 46.481578,57.095615 53.575752,48.525690 53.947846,47.199341 C 54.174468,46.179787 55.202843,15.767808 54.004608,14.785690 C 52.509610,13.656481 16.010674,4.9476503 14.813779,5.2771463 C 13.433567,5.4664553 8.3328213,11.626087 7.6924323,13.185157 C 7.1516473,14.629524 7.0754973,45.509369 8.0439183,46.482325 z "
     style="font-size:12.000000;fill:#000000;fill-rule:evenodd;stroke:none;stroke-width:2.1494529;fill-opacity:0.40000001;"
     id="path877"
     sodipodi:nodetypes="ccccccc" />
  <path
     d="M 5.9523320,36.553994 C 6.8773531,37.525591 42.696921,54.513528 44.013974,53.639426 C 45.489722,52.569228 50.955083,45.404298 51.343787,44.018744 C 51.580525,42.953679 52.897009,12.260824 51.645286,11.234866 C 50.083553,10.055249 17.970782,4.2536559 16.720462,4.5978603 C 15.278638,4.7956186 5.0220871,18.314468 4.3531111,19.943130 C 3.7881866,21.451972 4.9406824,35.537607 5.9523320,36.553994 z "
     style="font-size:12;opacity:0.3;fill-rule:evenodd;stroke-width:12.5;"
     id="path727"
     sodipodi:nodetypes="ccccccc" />
  <path
     d="M 5.4433134,43.474989 C 6.3288072,44.405068 41.207512,55.949496 42.468284,55.112744 C 43.880973,54.088279 50.975147,45.518354 51.347241,44.192005 C 51.573863,43.172451 52.602238,12.760472 51.404003,11.778354 C 49.909005,10.649145 13.410069,1.9403156 12.213174,2.2698116 C 10.832962,2.4591200 5.7322164,8.6187511 5.0918270,10.177821 C 4.5510421,11.622188 4.4748921,42.502033 5.4433134,43.474989 z "
     style="font-size:12.000000;fill:url(#linearGradient1046);fill-rule:evenodd;stroke:#261933;stroke-width:2.1494529;"
     id="path562"
     sodipodi:nodetypes="ccccccc" />
  <path
     d="M 6.5487100,24.287219 C 6.3321002,23.724738 5.5342973,10.883005 6.4229307,10.580592 C 7.4692329,10.175557 39.456103,22.264706 39.655168,22.781784 C 39.840992,23.264213 11.051404,12.696962 7.5775952,13.578849 C 6.2086384,13.912593 6.7169887,24.724113 6.5487100,24.287219 z "
     style="font-size:12;opacity:0.699936;fill:url(#linearGradient862);fill-rule:evenodd;stroke:none;stroke-width:0.963536pt;"
     id="path587"
     sodipodi:nodetypes="ccccc" />
  <path
     d="M 6.3505218,10.652951 C 6.2810944,10.292257 10.459185,4.3150251 12.473989,4.1319560 C 18.038228,3.6168689 49.861270,12.391277 49.929891,12.747854 C 49.997259,13.098059 24.454342,4.8950278 13.914290,5.9571954 C 9.9279868,6.3590432 6.7120333,11.588741 6.3505218,10.652951 z "
     style="font-size:12;opacity:0.699936;fill:url(#linearGradient861);fill-rule:evenodd;stroke:none;stroke-width:0.963536pt;"
     id="path592"
     sodipodi:nodetypes="ccccc" />
  <path
     d="M 41.747658,52.978464 C 41.497956,52.793139 39.814019,24.847852 40.301170,23.057925 C 40.908741,20.509439 49.870857,12.546316 50.115909,12.728186 C 50.351923,12.903292 43.330351,18.370231 41.744544,23.834004 C 40.491824,28.150515 41.979020,53.150116 41.747658,52.978464 z "
     style="font-size:12;opacity:0.699936;fill:url(#linearGradient581);fill-rule:evenodd;stroke:none;stroke-width:0.963536pt;"
     id="path594"
     sodipodi:nodetypes="ccccc" />
  <path
     d="M 35.397974,50.615100 L 7.9920497,41.776043 L 7.7910261,14.437239 L 35.046385,22.230727 L 35.397974,50.615100 z "
     style="font-size:12.000000;opacity:0.99000001;fill:#1e262e;fill-rule:evenodd;stroke:#000000;stroke-width:0.70228308;stroke-linecap:round;stroke-linejoin:round;"
     id="path596"
     sodipodi:nodetypes="ccccc" />
  <ellipse
     cx="410.204895"
     cy="422.408997"
     rx="11.720139"
     ry="11.720139"
     transform="matrix(8.914273e-2,0.000000,0.000000,9.172177e-2,1.149420,-13.79269)"
     style="font-size:12;fill:url(#linearGradient583);fill-rule:evenodd;stroke:#261933;stroke-width:6.87489;stroke-linecap:round;stroke-linejoin:round;stroke-dasharray:none;stroke-opacity:1.0000000;"
     id="path722" />
  <ellipse
     cx="410.204895"
     cy="422.408997"
     rx="11.720139"
     ry="11.720139"
     transform="matrix(8.914273e-2,0.000000,0.000000,9.172177e-2,1.239865,-10.08007)"
     style="font-size:12;fill:url(#linearGradient583);fill-rule:evenodd;stroke:#261933;stroke-width:6.87489;stroke-linecap:round;stroke-linejoin:round;stroke-dasharray:none;stroke-opacity:1.0000000;"
     id="ellipse866" />
  <ellipse
     cx="410.204895"
     cy="422.408997"
     rx="11.720139"
     ry="11.720139"
     transform="matrix(8.914273e-2,0.000000,0.000000,9.172177e-2,1.342067,-5.927045)"
     style="font-size:12;fill:url(#linearGradient583);fill-rule:evenodd;stroke:#261933;stroke-width:6.87489;stroke-linecap:round;stroke-linejoin:round;stroke-dasharray:none;stroke-opacity:1.0000000;"
     id="ellipse867" />
  <ellipse
     cx="410.204895"
     cy="422.408997"
     rx="11.720139"
     ry="11.720139"
     transform="matrix(8.914273e-2,0.000000,0.000000,9.172177e-2,1.432512,-2.214427)"
     style="font-size:12;fill:url(#linearGradient583);fill-rule:evenodd;stroke:#261933;stroke-width:6.87489;stroke-linecap:round;stroke-linejoin:round;stroke-dasharray:none;stroke-opacity:1.0000000;"
     id="ellipse868" />
  <ellipse
     cx="410.204895"
     cy="422.408997"
     rx="11.720139"
     ry="11.720139"
     transform="matrix(8.914273e-2,0.000000,0.000000,9.172177e-2,1.874784,10.75895)"
     style="font-size:12;fill:url(#linearGradient583);fill-rule:evenodd;stroke:#261933;stroke-width:6.87489;stroke-linecap:round;stroke-linejoin:round;stroke-dasharray:none;stroke-opacity:1.0000000;"
     id="ellipse870" />
  <path
     style="fill:url(#linearGradient860);fill-rule:evenodd;stroke:none;stroke-opacity:1;stroke-width:1pt;stroke-linejoin:miter;stroke-linecap:butt;fill-opacity:0.75;"
     d="M 9.3536845,16.245284 C 17.511183,18.505795 25.668681,20.766307 33.826180,23.026819 C 34.809011,24.304499 34.907295,25.582180 34.121030,26.859860 C 25.177266,34.771651 16.528352,30.889468 9.0588351,20.520599 C 8.2725702,19.095494 8.3708533,17.080690 9.3536845,16.245284 z "
     id="path871"
     sodipodi:nodetypes="ccccc" />
  <path
     sodipodi:type="arc"
     style="fill:#261933;fill-opacity:1.0000000;fill-rule:evenodd;stroke:none;stroke-width:1.0000000pt;"
     id="path872"
     sodipodi:cx="27.289902"
     sodipodi:cy="10.281554"
     sodipodi:rx="5.6347570"
     sodipodi:ry="2.2097087"
     d="M 32.924659 10.281554 A 5.6347570 2.2097087 0 1 0 21.655145,10.281554 A 5.6347570 2.2097087 0 1 0 32.924659 10.281554 z"
     transform="matrix(0.916467,8.406513e-2,-0.213894,1.117315,4.748290,-1.883525)" />
  <path
     style="fill:none;fill-opacity:1.00000000;fill-rule:evenodd;stroke:#261933;stroke-width:0.94109688pt;"
     d="M 34.733882,1.5921032 L 27.247503,11.781898 L 24.336133,1.3841482"
     id="path874" />
  <path
     sodipodi:type="arc"
     style="fill:#261933;fill-opacity:1.0000000;fill-rule:evenodd;stroke:none;stroke-width:1.0000000pt;"
     id="path875"
     sodipodi:cx="37.012619"
     sodipodi:cy="3.1000011"
     sodipodi:rx="1.9887378"
     sodipodi:ry="1.9887378"
     d="M 39.001357 3.1000011 A 1.9887378 1.9887378 0 1 0 35.023881,3.1000011 A 1.9887378 1.9887378 0 1 0 39.001357 3.1000011 z"
     transform="matrix(0.941097,0.000000,0.000000,0.941097,-0.826420,-0.181546)" />
  <path
     sodipodi:type="arc"
     style="fill:#261933;fill-opacity:1.0000000;fill-rule:evenodd;stroke:none;stroke-width:1.0000000pt;"
     id="path876"
     sodipodi:cx="37.012619"
     sodipodi:cy="3.1000011"
     sodipodi:rx="1.9887378"
     sodipodi:ry="1.9887378"
     d="M 39.001357 3.1000011 A 1.9887378 1.9887378 0 1 0 35.023881,3.1000011 A 1.9887378 1.9887378 0 1 0 39.001357 3.1000011 z"
     transform="matrix(0.941097,0.000000,0.000000,0.941097,-10.08042,-0.597456)" />
</svg>
