<?xml version="1.0" encoding="UTF-8" standalone="no"?>
<!-- Created with Inkscape (http://www.inkscape.org/) -->
<svg
   xmlns:dc="http://purl.org/dc/elements/1.1/"
   xmlns:cc="http://web.resource.org/cc/"
   xmlns:rdf="http://www.w3.org/1999/02/22-rdf-syntax-ns#"
   xmlns:svg="http://www.w3.org/2000/svg"
   xmlns="http://www.w3.org/2000/svg"
   xmlns:xlink="http://www.w3.org/1999/xlink"
   xmlns:sodipodi="http://inkscape.sourceforge.net/DTD/sodipodi-0.dtd"
   xmlns:inkscape="http://www.inkscape.org/namespaces/inkscape"
   version="1.0"
   x="0.0000000"
   y="0.0000000"
   width="60.000000"
   height="60.000000"
   id="svg1"
   sodipodi:version="0.32"
   inkscape:version="0.42"
   sodipodi:docname="folder-remote.svg"
   sodipodi:docbase="/home/jakob/dev/lila/lila-theme/branches/tango/scalable/places">
  <metadata
     id="metadata44">
    <rdf:RDF>
      <cc:Work
         rdf:about="">
        <dc:format>image/svg+xml</dc:format>
        <dc:type
           rdf:resource="http://purl.org/dc/dcmitype/StillImage" />
      </cc:Work>
    </rdf:RDF>
  </metadata>
  <sodipodi:namedview
     id="base"
     pagecolor="#ffffff"
     bordercolor="#666666"
     borderopacity="1.0"
     inkscape:pageopacity="0.0"
     inkscape:pageshadow="2"
     inkscape:zoom="7.9794719"
     inkscape:cx="23.360145"
     inkscape:cy="32.971335"
     inkscape:window-width="1400"
     inkscape:window-height="995"
     inkscape:window-x="0"
     inkscape:window-y="0"
     inkscape:current-layer="svg1" />
  <defs
     id="defs3">
    <linearGradient
       id="linearGradient1231">
      <stop
         offset="0.0000000"
         style="stop-color:#ffffff;stop-opacity:1.0000000;"
         id="stop1233" />
      <stop
         offset="1.0000000"
         style="stop-color:#ffffff;stop-opacity:0.0000000;"
         id="stop1232" />
    </linearGradient>
    <linearGradient
       id="linearGradient1228">
      <stop
         offset="0.0000000"
         style="stop-color:#d9cce6;stop-opacity:1.0000000;"
         id="stop1230" />
      <stop
         offset="1.0000000"
         style="stop-color:#73667f;stop-opacity:1.0000000;"
         id="stop1229" />
    </linearGradient>
    <linearGradient
       id="linearGradient584">
      <stop
         style="stop-color:#ffffff;stop-opacity:1.0000000;"
         offset="0.0000000"
         id="stop585" />
      <stop
         style="stop-color:#ffffff;stop-opacity:0.0000000;"
         offset="1.0000000"
         id="stop586" />
    </linearGradient>
    <linearGradient
       id="linearGradient578">
      <stop
         style="stop-color:#d9cce6;stop-opacity:1.0000000;"
         offset="0.0000000"
         id="stop579" />
      <stop
         style="stop-color:#73667f;stop-opacity:1.0000000;"
         offset="1.0000000"
         id="stop580" />
    </linearGradient>
    <linearGradient
       x1="13.042126"
       y1="18.410731"
       x2="48.859784"
       y2="54.444343"
       id="linearGradient581"
       xlink:href="#linearGradient584"
       gradientTransform="matrix(1.087700,0.000000,0.000000,0.919371,-1.250493,-0.468769)"
       gradientUnits="userSpaceOnUse" />
    <linearGradient
       x1="15.646674"
       y1="13.207054"
       x2="28.381754"
       y2="25.372577"
       id="linearGradient583"
       xlink:href="#linearGradient584"
       gradientTransform="matrix(1.682464,0.000000,0.000000,0.594366,-1.250493,-0.468769)"
       gradientUnits="userSpaceOnUse" />
    <linearGradient
       x1="13.352819"
       y1="5.1457035"
       x2="36.702113"
       y2="27.227981"
       id="linearGradient860"
       xlink:href="#linearGradient584"
       gradientTransform="matrix(0.544211,0.000000,0.000000,1.837523,-1.250493,-0.468769)"
       gradientUnits="userSpaceOnUse" />
    <linearGradient
       x1="10.677123"
       y1="14.828039"
       x2="54.778222"
       y2="57.470176"
       id="linearGradient861"
       xlink:href="#linearGradient578"
       gradientTransform="matrix(1.067200,0.000000,0.000000,0.937032,-1.250493,-0.468769)"
       gradientUnits="userSpaceOnUse" />
    <linearGradient
       x1="4.5142559"
       y1="5.0317176"
       x2="55.782572"
       y2="55.505176"
       id="linearGradient862"
       xlink:href="#linearGradient578"
       gradientTransform="matrix(1.014478,0.000000,0.000000,0.985729,-1.250493,-0.468769)"
       gradientUnits="userSpaceOnUse" />
    <defs
       id="defs730">
      <linearGradient
         id="linearGradient570"
         x1="0.0000000"
         y1="0.50000000"
         x2="1.0000000"
         y2="0.50000000"
         gradientUnits="objectBoundingBox"
         spreadMethod="pad"
         xlink:href="#linearGradient1231" />
      <linearGradient
         id="linearGradient563"
         x1="0.0000000"
         y1="0.50000000"
         x2="1.0000000"
         y2="0.50000000"
         gradientUnits="objectBoundingBox"
         spreadMethod="pad"
         xlink:href="#linearGradient1228" />
      <linearGradient
         x1="2.4898266"
         y1="14.650996"
         x2="26.607342"
         y2="37.552219"
         id="linearGradient566"
         xlink:href="#linearGradient1228"
         gradientUnits="userSpaceOnUse" />
      <linearGradient
         x1="3.4583249"
         y1="16.468391"
         x2="19.523123"
         y2="32.693735"
         id="linearGradient569"
         xlink:href="#linearGradient1231"
         gradientTransform="scale(1.086809,0.920125)"
         gradientUnits="userSpaceOnUse" />
      <linearGradient
         x1="0.0072800000"
         y1="0.021274000"
         x2="0.95999998"
         y2="0.94680798"
         id="linearGradient573"
         xlink:href="#linearGradient570" />
      <linearGradient
         x1="0.98039198"
         y1="0.97656202"
         x2="0.0065359999"
         y2="0.0078119999"
         id="linearGradient575"
         xlink:href="#linearGradient563" />
      <linearGradient
         x1="-0.0066220001"
         y1="0.0078130001"
         x2="0.92053002"
         y2="0.92187500"
         id="linearGradient741"
         xlink:href="#linearGradient570" />
    </defs>
  </defs>
  <path
     d="M 11.270422,56.623857 C 2.7697718,52.989718 1.5099228,22.033051 3.2650708,8.9852390 C 3.8283278,4.7974680 15.941378,3.4734990 19.800892,3.9983820 C 21.409638,4.2172210 21.381362,11.508196 23.212985,11.478728 C 32.273923,11.333193 44.432952,0.76853606 50.903688,4.3921020 C 56.462952,7.5052820 60.507450,30.460519 55.890547,36.545022 C 47.296395,47.871102 20.267799,60.470305 11.270422,56.623857 z "
     style="opacity:0.30267498;fill-rule:evenodd;stroke-width:18.750000;stroke-linecap:round;stroke-linejoin:round"
     id="path897" />
  <path
     d="M 12.142547,53.058582 C 4.4385984,49.765062 3.2968214,21.709892 4.8874964,9.8850215 C 5.3980144,6.0897583 16.375705,4.8898823 19.873477,5.3655693 C 21.331437,5.5638983 21.305812,12.171503 22.965762,12.144804 C 31.177439,12.012909 42.196828,2.4384393 48.061083,5.7223883 C 53.099287,8.5437773 56.764699,29.347471 52.580535,34.861687 C 44.791894,45.126206 20.296620,56.544512 12.142547,53.058582 z "
     style="fill:url(#linearGradient862);fill-rule:evenodd;stroke:#261933;stroke-width:1.8750000;stroke-linecap:round;stroke-linejoin:round"
     id="path894" />
  <path
     d="M 12.261416,50.561069 C 7.4116307,46.666317 4.9418407,20.099469 7.1473007,10.836501 C 7.9152037,7.6112471 18.687708,7.0441461 19.040866,8.2200101 C 16.045267,8.3483531 11.543473,11.188151 10.834249,14.166738 C 8.5700537,23.676380 11.594723,47.965249 12.261416,50.561069 z "
     style="opacity:0.69999999;fill:url(#linearGradient860);fill-rule:evenodd;stroke-width:1.0000000pt"
     id="path895" />
  <path
     d="M 24.868620,14.285717 C 35.798749,12.310505 43.907388,5.7901146 46.158124,7.6253526 C 46.767210,8.1495946 38.260306,12.924121 33.075233,14.642641 C 31.322364,15.223525 24.345881,14.379172 24.868620,14.285717 z "
     style="opacity:0.69993597;fill:url(#linearGradient583);fill-rule:evenodd;stroke-width:1.0000000pt"
     id="path896" />
  <path
     d="M 12.783939,53.290182 C 10.699553,52.956512 9.6439547,30.344594 14.970503,25.168351 C 23.548474,16.832317 45.394847,11.697744 54.497603,13.898734 C 59.075196,15.005693 56.546564,30.173088 52.311035,35.292693 C 43.290649,46.314989 21.366970,54.561762 12.783939,53.290182 z "
     style="fill:url(#linearGradient861);fill-rule:evenodd;stroke:#261933;stroke-width:1.8750000;stroke-linecap:round;stroke-linejoin:round"
     id="path871" />
  <path
     d="M 14.403837,49.585795 C 11.619165,44.364873 14.278402,29.631512 16.422329,27.020293 C 25.804556,16.984423 50.736860,15.504029 52.705930,16.435373 C 37.138557,18.754909 29.801020,20.904908 20.704047,29.874735 C 16.660280,34.513274 13.879592,42.426484 14.403837,49.585795 z "
     style="opacity:0.69999999;fill:url(#linearGradient581);fill-rule:evenodd;stroke-width:1.2500000"
     id="path577" />
  <g
     id="g1234"
     transform="matrix(1.314207,0.000000,0.000000,1.314207,24.14743,8.948803)">
    <ellipse
       cx="286.92639"
       cy="278.06998"
       rx="278.19861"
       ry="278.19858"
       d="M 565.12500 278.06998 A 278.19861 278.19858 0 1 0 8.7277832,278.06998 A 278.19861 278.19858 0 1 0 565.12500 278.06998 z"
       transform="matrix(4.295483e-2,-1.052055e-17,1.052055e-17,4.295483e-2,2.973051,14.95119)"
       style="opacity:0.30267498;fill-rule:evenodd;stroke-width:13.253600"
       id="path1023"
       sodipodi:cx="286.92639"
       sodipodi:cy="278.06998"
       sodipodi:rx="278.19861"
       sodipodi:ry="278.19858" />
    <path
       d="M 26.204443,25.603754 C 26.204443,32.200138 20.850855,37.553726 14.254469,37.553726 C 7.6580837,37.553726 2.3044953,32.200138 2.3044953,25.603754 C 2.3044953,19.007368 7.6580837,13.653781 14.254469,13.653781 C 20.850855,13.653781 26.204443,19.007368 26.204443,25.603754 z "
       style="fill:url(#linearGradient566);fill-rule:evenodd;stroke:#261933;stroke-width:1.4267154"
       id="path878" />
    <path
       d="M 5.6741785,17.589925 C 6.1094956,17.348720 6.5878062,18.201364 7.1764724,18.282889 C 7.7022404,18.355624 8.9806361,17.530307 9.6675421,17.922902 C 10.122716,18.117880 9.7354037,19.831547 9.5968107,20.857533 C 9.4223295,21.680982 8.8651804,22.860455 8.5166717,23.881477 C 8.3354946,24.328818 7.0765014,25.949528 7.0250351,26.052459 C 6.9736608,26.155299 7.5184215,27.528747 7.1793864,27.698355 C 6.8260045,27.907497 6.3895950,25.897242 5.6363307,25.332305 C 5.3112775,25.137237 4.5617437,25.227689 4.2990230,25.435283 C 3.9860162,25.605027 4.2553911,27.383960 4.7104377,27.904127 C 5.1769212,28.603648 5.8794026,29.141760 6.3050181,29.858544 C 6.8566111,30.787656 7.1965120,31.847436 7.6422579,32.841859 C 7.6422579,32.841859 7.2743926,34.111239 7.3258585,34.111239 C 7.3773240,34.111239 8.1051754,35.567851 8.1051754,35.567851 C 6.6106690,34.432695 5.4075590,33.325091 4.4018855,31.967449 C 3.6930861,31.010507 3.1277757,29.697314 2.9616971,28.624144 C 2.9048933,28.257144 3.5914077,28.036935 3.7332386,27.646935 C 3.9932901,26.996739 2.6295980,25.382997 2.5744893,24.855816 C 2.5068049,24.288147 2.8501943,22.017057 3.6303578,20.651808 C 4.1889369,19.585378 4.8408004,18.051612 5.6741785,17.589925 z "
       style="opacity:0.50445902;fill:#261933;fill-rule:evenodd;stroke:#000000;stroke-width:0.039576131pt"
       id="path876" />
    <path
       d="M 14.534591,21.474755 C 14.256541,21.874047 13.958951,22.588780 14.123049,22.966210 C 14.301857,23.377343 15.075299,23.832289 15.563265,23.840669 C 16.069768,23.849414 16.586837,23.282018 17.106321,23.017721 C 17.564092,22.784851 18.005693,22.427962 18.495071,22.349033 C 19.068708,22.256532 19.881272,22.227383 20.295273,22.503430 C 20.601333,22.707516 20.723165,23.384630 20.655349,23.789294 C 20.511565,24.097860 20.030430,24.363523 20.192387,24.560823 C 20.334169,24.681015 21.318116,23.956034 21.478254,23.532149 C 21.609604,23.184552 20.986323,22.689025 21.066801,22.246238 C 21.131839,21.953750 22.200547,22.027714 22.558439,22.091978 C 22.853660,22.163803 23.140318,22.895935 23.432898,22.863461 C 23.700929,22.863461 24.370027,21.998566 24.442533,22.002619 C 24.721587,22.048711 24.924444,22.863461 24.924444,22.863461 C 24.444310,23.309253 24.056998,23.921147 23.484271,24.200792 C 22.582530,24.641164 21.518286,24.906325 20.501044,25.023740 C 18.843716,25.214982 16.878825,24.541967 15.460380,25.126580 C 14.341344,25.587856 12.904954,27.106820 12.888649,28.161272 C 12.870659,29.318473 13.621327,31.285142 14.967449,31.404104 C 16.597040,31.583415 18.300003,31.950367 18.887165,32.701083 C 19.345892,33.287652 18.811287,35.497939 18.885162,36.228752 C 18.912946,36.471049 19.618159,36.041789 20.038129,35.825042 C 20.681218,35.493202 21.459124,34.837905 21.683980,34.127679 C 22.110643,32.780514 22.158645,31.109658 21.992682,29.652862 C 21.850034,28.400838 20.606937,26.134486 20.758281,26.000994 C 20.898377,25.877385 21.999057,28.382255 22.867004,28.881380 C 23.370638,29.170908 24.526336,28.744109 24.873021,28.366953 C 25.109354,28.109807 24.448498,27.127998 24.615830,26.978247 C 24.774281,26.836466 25.781002,27.830161 25.850278,27.492676 C 26.402185,24.930099 25.883430,23.037897 24.981236,20.665335 C 24.242957,18.854430 22.150130,16.361538 19.915523,15.139562 C 19.600852,14.965955 18.237197,15.734303 17.184931,16.407355 C 16.585061,16.707587 15.961735,17.611650 16.269801,17.828580 C 16.541384,18.042867 17.346433,17.319982 17.916152,17.191636 C 18.937447,16.947516 19.411979,17.079870 20.192387,17.462764 C 20.192387,17.462764 21.298488,18.378077 20.809609,19.057195 C 20.499270,19.468282 19.472325,19.468691 19.472325,19.468691 C 19.249429,19.348772 19.016877,19.063389 18.803636,19.108660 C 18.451168,19.183490 18.153623,19.659160 17.774964,19.828814 C 17.004848,20.173633 16.104792,20.244091 15.357494,20.651808 C 14.934929,20.749319 14.707752,21.211826 14.534591,21.474755 z "
       style="opacity:0.49999997;fill:#261933;fill-rule:evenodd;stroke:#000000;stroke-width:0.039576131pt"
       id="path875" />
    <path
       d="M 5.3475738,32.398297 C 5.1885317,31.921263 -0.83529491,21.132667 10.614506,15.603674 C 15.805788,13.072871 23.475296,17.764632 24.328442,20.572512 C 24.459837,20.997307 19.139846,14.933233 11.558603,18.286848 C 1.6881258,22.624713 5.4866683,32.815625 5.3475738,32.398297 z "
       style="opacity:0.69999999;fill:url(#linearGradient569);fill-rule:evenodd;stroke-width:0.099890900pt"
       id="path877" />
  </g>
</svg>
