<?xml version="1.0" encoding="UTF-8" standalone="no"?>
<!-- Created with Inkscape (http://www.inkscape.org/) -->
<svg
   xmlns:dc="http://purl.org/dc/elements/1.1/"
   xmlns:cc="http://web.resource.org/cc/"
   xmlns:rdf="http://www.w3.org/1999/02/22-rdf-syntax-ns#"
   xmlns:svg="http://www.w3.org/2000/svg"
   xmlns="http://www.w3.org/2000/svg"
   xmlns:xlink="http://www.w3.org/1999/xlink"
   xmlns:sodipodi="http://inkscape.sourceforge.net/DTD/sodipodi-0.dtd"
   xmlns:inkscape="http://www.inkscape.org/namespaces/inkscape"
   version="1.0"
   x="0"
   y="0"
   width="60"
   height="60"
   id="svg1"
   sodipodi:version="0.32"
   inkscape:version="0.42.2"
   sodipodi:docname="kfm_home.svg"
   sodipodi:docbase="/home/jakob/dev/lila/lila-theme/trunk/lila/kde/scalable/apps">
  <metadata
     id="metadata27">
    <rdf:RDF>
      <cc:Work
         rdf:about="">
        <dc:format>image/svg+xml</dc:format>
        <dc:type
           rdf:resource="http://purl.org/dc/dcmitype/StillImage" />
      </cc:Work>
    </rdf:RDF>
  </metadata>
  <sodipodi:namedview
     id="base"
     pagecolor="#ffffff"
     bordercolor="#666666"
     borderopacity="1.0"
     inkscape:pageopacity="0.0"
     inkscape:pageshadow="2"
     inkscape:zoom="10.596067"
     inkscape:cx="30.736213"
     inkscape:cy="30.234092"
     inkscape:window-width="1269"
     inkscape:window-height="970"
     inkscape:window-x="0"
     inkscape:window-y="0"
     showguides="true"
     inkscape:guide-bbox="true"
     inkscape:current-layer="svg1" />
  <defs
     id="defs3">
    <linearGradient
       id="linearGradient2059">
      <stop
         id="stop2061"
         offset="0"
         style="stop-color:#d9cce6;stop-opacity:1;" />
      <stop
         id="stop2063"
         offset="1.0000000"
         style="stop-color:#ffffff;stop-opacity:1.0000000;" />
    </linearGradient>
    <linearGradient
       id="linearGradient570">
      <stop
         style="stop-color:#ffffff;stop-opacity:1;"
         offset="0"
         id="stop571" />
      <stop
         style="stop-color:#ffffff;stop-opacity:0;"
         offset="1"
         id="stop572" />
    </linearGradient>
    <linearGradient
       id="linearGradient563">
      <stop
         style="stop-color:#d9cce6;stop-opacity:1;"
         offset="0"
         id="stop564" />
      <stop
         style="stop-color:#73667f;stop-opacity:1;"
         offset="1"
         id="stop565" />
    </linearGradient>
    <linearGradient
       x1="30.344252"
       y1="54.841057"
       x2="7.8202596"
       y2="21.382988"
       id="linearGradient566"
       xlink:href="#linearGradient2059"
       gradientTransform="scale(1.136482,0.879908)"
       gradientUnits="userSpaceOnUse" />
    <linearGradient
       x1="32.992617"
       y1="28.924651"
       x2="45.548827"
       y2="41.572112"
       id="linearGradient569"
       xlink:href="#linearGradient563"
       gradientTransform="matrix(0.988391,0.000000,0.000000,1.011745,-1.321245,0.000000)"
       gradientUnits="userSpaceOnUse" />
    <linearGradient
       x1="7.1395836"
       y1="23.091298"
       x2="25.044985"
       y2="4.8582692"
       id="linearGradient573"
       xlink:href="#linearGradient570"
       gradientTransform="matrix(0.932323,0.000000,0.000000,1.021750,0.000000,0.981056)"
       gradientUnits="userSpaceOnUse" />
    <linearGradient
       x1="30.565883"
       y1="29.749454"
       x2="50.853336"
       y2="49.870069"
       id="linearGradient575"
       xlink:href="#linearGradient570"
       gradientTransform="matrix(0.879371,0.000000,0.000000,1.085865,2.119519,0.660622)"
       gradientUnits="userSpaceOnUse" />
    <linearGradient
       id="linearGradient578"
       xlink:href="#linearGradient563"
       x1="-0.0091324197"
       y1="0.0041322298"
       x2="0.98630136"
       y2="0.99586779" />
    <linearGradient
       xlink:href="#linearGradient570"
       id="linearGradient601"
       x1="-0.00000000"
       y1="0.00917431"
       x2="0.99130434"
       y2="0.99082571" />
    <linearGradient
       inkscape:collect="always"
       xlink:href="#linearGradient570"
       id="linearGradient1327"
       x1="7.8807990"
       y1="31.950714"
       x2="34.078052"
       y2="57.932529"
       gradientTransform="matrix(1.132859,0.000000,0.000000,0.834693,1.101535,1.381574)"
       gradientUnits="userSpaceOnUse" />
    <linearGradient
       inkscape:collect="always"
       xlink:href="#linearGradient570"
       id="linearGradient1331"
       gradientUnits="userSpaceOnUse"
       gradientTransform="matrix(0.185060,0.000000,0.000000,0.250771,39.32751,2.408939)"
       x1="7.8807990"
       y1="31.950714"
       x2="34.078052"
       y2="57.932529" />
    <linearGradient
       inkscape:collect="always"
       xlink:href="#linearGradient563"
       id="linearGradient2065"
       x1="16.936970"
       y1="32.578831"
       x2="31.976786"
       y2="47.727947"
       gradientTransform="matrix(0.843198,0.000000,0.000000,1.185961,1.321245,0.849372)"
       gradientUnits="userSpaceOnUse" />
    <linearGradient
       inkscape:collect="always"
       xlink:href="#linearGradient563"
       id="linearGradient2071"
       x1="9.4389467"
       y1="6.3466382"
       x2="33.294834"
       y2="33.559269"
       gradientTransform="scale(1.384303,0.722385)"
       gradientUnits="userSpaceOnUse" />
    <linearGradient
       inkscape:collect="always"
       xlink:href="#linearGradient570"
       id="linearGradient2075"
       gradientUnits="userSpaceOnUse"
       gradientTransform="matrix(0.317777,0.000000,0.000000,0.286255,31.14783,22.63259)"
       x1="7.8807990"
       y1="31.950714"
       x2="34.078052"
       y2="57.932529" />
    <linearGradient
       inkscape:collect="always"
       xlink:href="#linearGradient570"
       id="linearGradient2079"
       gradientUnits="userSpaceOnUse"
       gradientTransform="matrix(0.294715,1.120533e-2,-1.110883e-2,0.339270,16.34726,31.02829)"
       x1="7.8807990"
       y1="31.950714"
       x2="34.078052"
       y2="57.932529" />
  </defs>
  <path
     d="M 32.709415 4.6143602 C 26.515415 4.8467181 7.5058318 22.426859 8.6165628 26.709521 C 9.3230596 29.514505 11.526155 27.80957 11.873937 29.540002 C 13.60437 38.149955 10.138019 54.017098 14.10647 57.641692 C 18.246653 61.266286 47.859111 59.205487 50.797162 57.126493 C 53.563479 55.047499 51.370126 38.049086 53.029694 29.368269 C 53.346964 27.708701 56.793996 28.364962 57.261585 26.964003 C 58.659828 23.155908 39.017626 4.3841018 32.709415 4.6143602 z "
     style="font-size:12;fill:#000000;fill-opacity:1;fill-rule:evenodd;stroke:none;stroke-width:1.875;stroke-dasharray:none;opacity:0.300000;"
     id="path614"
     sodipodi:nodetypes="csszzsss" />
  <path
     d="M 8.0567089,25.919971 C 9.7871414,34.529924 6.3207912,50.963315 10.289241,54.587909 C 14.429424,58.212503 44.041882,57.001076 46.979933,54.922082 C 49.746250,52.843088 47.552897,33.957182 49.212465,25.276365 C 49.529735,23.616797 7.7089261,24.189539 8.0567089,25.919971 z "
     style="font-size:12;fill:url(#linearGradient566);fill-opacity:1.0;fill-rule:evenodd;stroke:#261933;stroke-width:1.875;stroke-dasharray:none"
     id="path1006"
     sodipodi:nodetypes="czzss" />
  <path
     sodipodi:nodetypes="csss"
     id="path2067"
     style="font-size:12;fill:url(#linearGradient2071);fill-opacity:1.0;fill-rule:evenodd;stroke:#261933;stroke-width:1.875;stroke-dasharray:none"
     d="M 28.892186,1.5605777 C 22.698186,1.7929356 2.5561079,20.411197 3.6668389,24.693859 C 4.3733357,27.498843 52.599269,27.481796 54.010604,23.910220 C 55.501455,20.137418 35.200397,1.3303193 28.892186,1.5605777 z " />
  <path
     style="font-size:12.000000px;fill:url(#linearGradient2065);fill-opacity:1.0000000;fill-rule:evenodd;stroke:#261933;stroke-width:1.7639700"
     d="M 17.191763,41.638752 C 16.307663,43.170059 16.191485,54.871134 17.191763,55.871413 C 18.128250,56.807899 25.230735,57.513960 26.873282,55.871413 C 27.891995,54.106950 28.048231,42.813702 26.873282,41.638752 C 25.230735,39.996204 18.198564,39.894922 17.191763,41.638752 z "
     id="path612"
     sodipodi:nodetypes="cssss" />
  <path
     style="font-size:12.000000px;fill:url(#linearGradient569);fill-opacity:1.0000000;fill-rule:evenodd;stroke:#261933;stroke-width:1.4795200"
     d="M 32.727225,30.750255 C 31.824061,31.653419 31.766542,39.802083 32.727225,40.762766 C 33.825840,41.861381 41.481694,41.689817 42.408745,40.762766 C 43.571211,39.600299 43.482489,31.824000 42.408745,30.750255 C 41.450915,29.792426 33.724262,29.719133 32.727225,30.750255 z "
     id="path611"
     sodipodi:nodetypes="cssss" />
  <path
     d="M 23.441340,5.9538254 C 20.453384,6.7415175 3.6437085,22.494588 6.7931307,23.734602 C 8.6152799,24.452032 19.305978,25.222933 21.608621,24.992353 C 22.904130,24.862624 14.920248,22.533886 14.648009,19.911942 C 14.163492,15.536693 24.845429,5.5836761 23.441340,5.9538254 z "
     style="font-size:12.000000px;fill:url(#linearGradient573);fill-opacity:1.0000000;fill-rule:evenodd;stroke-width:1.0000000pt"
     id="path1032"
     sodipodi:nodetypes="cssss" />
  <path
     d="M 46.248319,32.972280 C 46.614004,33.493112 47.904874,50.936354 45.785395,53.074783 C 43.585429,55.294417 29.606639,55.323852 29.009716,55.026915 C 28.553117,54.799781 41.875889,53.413021 44.052111,51.217342 C 46.195333,49.054958 45.955551,32.555301 46.248319,32.972280 z "
     style="font-size:12.000000px;fill:url(#linearGradient575);fill-opacity:1.0000000;fill-rule:evenodd;stroke-width:1.0000000pt"
     id="path1033"
     sodipodi:nodetypes="cssss" />
  <path
     d="M 10.212321,50.199410 C 9.7761205,49.133678 9.8407687,44.118374 9.9717673,39.312698 C 10.102766,34.507022 9.7946845,30.428081 11.129316,29.183757 C 12.608571,27.804595 33.964051,27.969727 40.298765,28.224765 C 41.693330,28.280911 15.714930,29.837606 13.623743,31.597715 C 11.305040,33.549320 10.402965,50.665195 10.212321,50.199410 z "
     style="font-size:12.000000px;fill:url(#linearGradient1327);fill-opacity:1.0000000;fill-rule:evenodd;stroke-width:1.0000000pt"
     id="path1034"
     sodipodi:nodetypes="csssss" />
  <path
     style="font-size:12;fill:url(#linearGradient578);fill-opacity:1.0;fill-rule:evenodd;stroke:#261933;stroke-width:1pt;stroke-opacity:1"
     d="M 39.61492 10.63051 C 39.70399 12.88268 39.53879 16.13052 39.8694 17.43949 C 40.21143 18.92085 45.97384 18.6334 46.3157 17.62877 C 46.65472 16.75971 46.7356 12.50096 46.69743 10.75776 C 46.48183 8.485799 39.65359 8.348684 39.61492 10.63051 L 39.61492 10.63051 L 39.61492 10.63051 z "
     id="path599"
     sodipodi:nodetypes="cssssc" />
  <path
     style="fill:#6f6f6f;fill-rule:evenodd;stroke:none;stroke-opacity:1;stroke-width:1pt;stroke-linejoin:miter;stroke-linecap:butt;fill-opacity:1;"
     d="M 43.38916 8.0856969 C 42.896545 7.6154731 43.509913 3.5324853 44.66157 2.8688184 C 46.012318 2.0904213 49.008005 4.2038276 50.896376 3.7595049 C 52.613164 3.3555546 54.966059 -0.016660753 55.477049 0.32399959 C 55.983986 0.66195761 55.196877 4.9840033 53.950158 5.79536 C 52.524817 6.7229628 49.484804 5.1019527 47.46087 5.5408781 C 45.964471 5.8653984 43.829645 8.5061597 43.38916 8.0856969 z "
     id="path600"
     sodipodi:nodetypes="cssssss" />
  <path
     d="M 40.933772,16.981127 C 40.720954,16.613757 40.724330,11.324600 40.894820,10.926830 C 41.183653,10.252951 43.610490,10.090219 45.235146,10.662308 C 45.450613,10.738180 41.879846,10.509833 41.467456,11.392535 C 41.171995,12.024956 41.005634,17.105177 40.933772,16.981127 z "
     style="font-size:12.000000px;fill:url(#linearGradient1331);fill-opacity:1.0000000;fill-rule:evenodd;stroke-width:1.0000000pt"
     id="path1329"
     sodipodi:nodetypes="cssss" />
  <path
     d="M 33.906033,39.266730 C 33.540592,38.847378 33.546389,32.809810 33.839146,32.355756 C 34.335117,31.586523 38.502371,31.400765 41.292156,32.053804 C 41.662146,32.140412 35.530588,31.879754 34.822451,32.887357 C 34.315099,33.609265 34.029431,39.408333 33.906033,39.266730 z "
     style="font-size:12.000000px;fill:url(#linearGradient2075);fill-opacity:1.0000000;fill-rule:evenodd;stroke-width:1.0000000pt"
     id="path2073"
     sodipodi:nodetypes="cssss" />
  <path
     d="M 18.259759,50.840350 C 17.937112,50.330449 18.176790,43.174921 18.465923,42.647099 C 18.955752,41.752892 22.827791,41.679675 25.389774,42.552030 C 25.729552,42.667724 20.053087,42.142584 19.357238,43.311826 C 18.858690,44.149542 18.368706,51.012530 18.259759,50.840350 z "
     style="font-size:12.000000px;fill:url(#linearGradient2079);fill-opacity:1.0000000;fill-rule:evenodd;stroke-width:1.0000000pt"
     id="path2077"
     sodipodi:nodetypes="cssss" />
</svg>
