<?xml version="1.0" encoding="UTF-8" standalone="no"?>
<!DOCTYPE svg PUBLIC "-//W3C//DTD SVG 20010904//EN"
"http://www.w3.org/TR/2001/REC-SVG-20010904/DTD/svg10.dtd">
<!-- Created with Inkscape (http://www.inkscape.org/) -->
<svg
   id="svg1"
   sodipodi:version="0.32"
   inkscape:version="0.37"
   width="48pt"
   height="48pt"
   sodipodi:docbase="/home/tom/Pics/lilasvg/scalable/apps"
   sodipodi:docname="acroread.svg"
   xmlns="http://www.w3.org/2000/svg"
   xmlns:inkscape="http://www.inkscape.org/namespaces/inkscape"
   xmlns:sodipodi="http://sodipodi.sourceforge.net/DTD/sodipodi-0.dtd"
   xmlns:xlink="http://www.w3.org/1999/xlink">
  <defs
     id="defs3">
    <linearGradient
       id="linearGradient866">
      <stop
         style="stop-color:#ffffff;stop-opacity:1;"
         offset="0.00000000"
         id="stop867" />
      <stop
         style="stop-color:#d9cce6;stop-opacity:1;"
         offset="1.00000000"
         id="stop868" />
    </linearGradient>
    <linearGradient
       id="linearGradient584">
      <stop
         style="stop-color:#ffffff;stop-opacity:1;"
         offset="0.00000000"
         id="stop585" />
      <stop
         style="stop-color:#ffffff;stop-opacity:0;"
         offset="1.00000000"
         id="stop586" />
    </linearGradient>
    <linearGradient
       xlink:href="#linearGradient866"
       id="linearGradient586"
       x1="-0.00000000"
       y1="0.01562500"
       x2="0.99122804"
       y2="0.98437500" />
    <linearGradient
       xlink:href="#linearGradient584"
       id="linearGradient587"
       x1="0.00000000"
       y1="-0.00000000"
       x2="1.00000000"
       y2="1.00000000" />
    <linearGradient
       xlink:href="#linearGradient866"
       id="linearGradient593" />
  </defs>
  <sodipodi:namedview
     id="base"
     pagecolor="#ffffff"
     bordercolor="#666666"
     borderopacity="1.0"
     inkscape:pageopacity="0.0"
     inkscape:pageshadow="2"
     inkscape:zoom="11.3137085"
     inkscape:cx="29.9658361"
     inkscape:cy="23.4583667"
     inkscape:window-width="1018"
     inkscape:window-height="714"
     inkscape:window-x="0"
     inkscape:window-y="28" />
  <path
     d="M 10.776328 55.879334 C 12.173809 58.012274 48.017113 59.566157 49.681678 57.24208 C 51.167277 55.145177 52.272303 10.517312 50.822591 8.8839627 C 49.284449 7.0673846 14.814754 6.1178578 13.627109 7.9490082 C 12.166879 10.214844 9.2489217 53.412079 10.776328 55.879334 z "
     style="font-size:12;opacity:0.302675;fill-rule:evenodd;stroke-width:12.5;"
     id="path639"
     sodipodi:nodetypes="ccccc" />
  <path
     d="M 10.379016 53.914401 C 11.686504 55.909918 45.92625 56.893296 47.48357 54.718944 C 48.873462 52.757129 50.085568 9.2216936 48.729245 7.693532 C 47.290193 5.9939842 11.933329 6.3677504 10.822194 8.0809322 C 9.4560394 10.200796 8.9500092 51.606097 10.379016 53.914401 z "
     style="font-size:12;fill:url(#linearGradient586);fill-rule:evenodd;stroke:#261933;stroke-width:1.87726;"
     id="path634"
     sodipodi:nodetypes="ccccc" />
  <path
     d="M 11.903754 51.32252 C 11.376483 50.603842 14.153528 10.015268 15.127181 8.9373708 C 16.333038 7.5483565 45.6735 8.3958525 46.199532 9.1128453 C 46.681674 9.7699867 22.539774 8.6417835 19.336662 13.488115 C 13.140349 22.581213 12.384668 51.978015 11.903754 51.32252 z "
     style="font-size:12;opacity:0.699936;fill:url(#linearGradient587);fill-rule:evenodd;stroke:none;stroke-width:0.100121pt;"
     id="path640"
     sodipodi:nodetypes="ccccc" />
  <path
     style="font-size:12;fill:none;fill-opacity:1.00;fill-rule:evenodd;stroke:#ff1933;stroke-width:2.01087;stroke-opacity:1;"
     d="M 36.476258 34.938618 C 30.976823 37.14526 25.477387 39.351901 19.977952 41.558542 C 18.293266 42.14563 17.073321 43.218584 15.969561 44.777404 C 14.807709 46.498179 14.807709 49.06922 18.409452 47.388933 C 20.636335 46.579157 21.585182 44.554715 22.998769 42.408808 C 26.832882 36.335483 28.575661 29.047494 29.505143 21.273638 C 29.756878 19.269441 30.124798 17.265244 30.027976 15.261047 C 30.260347 13.681982 27.4719 11.374119 26.890974 15.625446 C 26.63924 17.447444 26.50369 19.147975 27.181437 20.727039 C 29.67942 25.403499 32.177403 30.079959 34.675386 34.756419 C 35.914696 36.598661 38.083487 37.590637 40.136092 37.732347 C 42.537252 38.420658 44.357492 36.193772 41.414132 35.060085 C 39.535802 34.290797 38.586957 34.371775 36.476258 34.938618 z "
     id="path592"
     sodipodi:nodetypes="ccccccccccccc" />
</svg>
