<?xml version="1.0" encoding="UTF-8" standalone="no"?>
<!DOCTYPE svg PUBLIC "-//W3C//DTD SVG 20010904//EN"
"http://www.w3.org/TR/2001/REC-SVG-20010904/DTD/svg10.dtd">
<!-- Created with Inkscape (http://www.inkscape.org/) -->
<svg
   version="1.0"
   x="0"
   y="0"
   width="48pt"
   height="48pt"
   id="svg1"
   sodipodi:version="0.32"
   inkscape:version="0.37"
   sodipodi:docname="artscontrol.svg"
   sodipodi:docbase="/home/tom"
   xmlns="http://www.w3.org/2000/svg"
   xmlns:inkscape="http://www.inkscape.org/namespaces/inkscape"
   xmlns:sodipodi="http://sodipodi.sourceforge.net/DTD/sodipodi-0.dtd"
   xmlns:xlink="http://www.w3.org/1999/xlink">
  <sodipodi:namedview
     id="base"
     pagecolor="#ffffff"
     bordercolor="#666666"
     borderopacity="1.0"
     inkscape:pageopacity="0.0"
     inkscape:pageshadow="2"
     inkscape:zoom="4.91194110"
     inkscape:cx="25.8149003"
     inkscape:cy="21.8599437"
     inkscape:window-width="1018"
     inkscape:window-height="714"
     inkscape:window-x="0"
     inkscape:window-y="28"
     showgrid="false"
     vertgrid="false"
     snaptogrid="false"
     horizgrid="false"
     snaptoguides="false" />
  <defs
     id="defs3">
    <linearGradient
       id="linearGradient652">
      <stop
         style="stop-color:#d9cce6;stop-opacity:1;"
         offset="0.00000000"
         id="stop653" />
      <stop
         style="stop-color:#ffffff;stop-opacity:1;"
         offset="1.00000000"
         id="stop654" />
    </linearGradient>
    <linearGradient
       id="linearGradient570">
      <stop
         style="stop-color:#ffffff;stop-opacity:1;"
         offset="0"
         id="stop571" />
      <stop
         style="stop-color:#ffffff;stop-opacity:0;"
         offset="1"
         id="stop572" />
    </linearGradient>
    <linearGradient
       id="linearGradient563">
      <stop
         style="stop-color:#d9cce6;stop-opacity:1;"
         offset="0.00000000"
         id="stop564" />
      <stop
         style="stop-color:#73667f;stop-opacity:1;"
         offset="1.00000000"
         id="stop565" />
    </linearGradient>
    <linearGradient
       x1="0.76404494"
       y1="0.67346936"
       x2="0.29213482"
       y2="0.25510204"
       id="linearGradient566"
       xlink:href="#linearGradient563" />
    <linearGradient
       x1="0.009905"
       y1="0.007809"
       x2="0.985224"
       y2="1.015625"
       id="linearGradient569"
       xlink:href="#linearGradient570" />
    <linearGradient
       x1="0.015742"
       y1="0.015626"
       x2="0.976382"
       y2="0.999995"
       id="linearGradient573"
       xlink:href="#linearGradient570"
       gradientTransform="scale(0.999995,1.000005)" />
    <linearGradient
       x1="0.006623"
       y1="0.007813"
       x2="0.973510"
       y2="0.984375"
       id="linearGradient575"
       xlink:href="#linearGradient570" />
    <linearGradient
       x1="0.000005"
       y1="0.023436"
       x2="1.000000"
       y2="1.007812"
       id="linearGradient578"
       xlink:href="#linearGradient570" />
    <linearGradient
       x1="0.012999"
       y1="0.015680"
       x2="1.012987"
       y2="1.000001"
       id="linearGradient583"
       xlink:href="#linearGradient570" />
    <linearGradient
       id="linearGradient637"
       xlink:href="#linearGradient563" />
    <linearGradient
       id="linearGradient640"
       xlink:href="#linearGradient570"
       x1="0.00000000"
       y1="-0.00000000"
       x2="1.00000000"
       y2="-0.00000000" />
    <linearGradient
       id="linearGradient645"
       xlink:href="#linearGradient570"
       x1="0.00000000"
       y1="0.00000000"
       x2="1.00000000"
       y2="0.00000000" />
    <linearGradient
       id="linearGradient646"
       xlink:href="#linearGradient652"
       x1="0.00000000"
       y1="0.00000000"
       x2="1.00000000"
       y2="0.00000000" />
    <linearGradient
       id="linearGradient647"
       xlink:href="#linearGradient563"
       x1="1.13402057"
       y1="1.03906250"
       x2="0.07216495"
       y2="0.18750000" />
    <linearGradient
       id="linearGradient675"
       xlink:href="#linearGradient563"
       x1="0.00000000"
       y1="-0.00000000"
       x2="1.00000000"
       y2="-0.00000000" />
    <linearGradient
       id="linearGradient676"
       xlink:href="#linearGradient570" />
    <linearGradient
       xlink:href="#linearGradient570"
       id="linearGradient684"
       x1="-0.00000000"
       y1="0.00000000"
       x2="1.00000000"
       y2="0.00000000" />
    <linearGradient
       xlink:href="#linearGradient563"
       id="linearGradient685"
       x1="0.06603774"
       y1="0.07812500"
       x2="0.94339621"
       y2="0.95312500" />
    <radialGradient
       xlink:href="#linearGradient563"
       id="radialGradient651"
       cx="0.50000000"
       cy="0.50000000"
       r="0.50000000"
       fx="0.50000000"
       fy="0.50000000" />
  </defs>
  <g
     id="g655"
     transform="translate(73.54526,-4.580674)">
    <g
       id="g650"
       style="font-size:12;opacity:0.296369;"
       transform="matrix(-0.834809,0.351116,0.396780,0.943380,-25.54774,-6.383000)">
      <path
         style="font-size:12;fill-rule:evenodd;stroke-width:1.875;"
         d="M 40.181906 49.683924 C 43.74142 46.98763 55.413093 36.819956 56.782923 33.597578 C 58.501012 29.55596 56.258798 19.433555 53.192815 16.7167 C 50.944448 14.724357 36.640091 12.559718 32.521925 12.563247 C 28.414485 12.566766 34.838722 53.73133 40.181906 49.683924 z "
         id="path643"
         sodipodi:nodetypes="cssss" />
      <path
         style="font-size:12;fill-rule:evenodd;stroke-width:1.875;"
         d="M 46.995589 33.682468 C 46.995589 44.404983 40.468842 53.107313 32.426956 53.107313 C 24.385071 53.107313 17.858323 44.404983 17.858323 33.682468 C 17.858323 22.959954 24.385071 14.257624 32.426956 14.257624 C 40.468842 14.257624 46.995589 22.959954 46.995589 33.682468 z "
         id="path644"
         transform="matrix(1.373487,0.000000,0.000000,1.373487,-17.61598,-13.82184)" />
    </g>
    <path
       style="font-size:12;fill:url(#linearGradient675);fill-rule:evenodd;stroke:#000000;stroke-width:1.80513;"
       d="M -41.542031 53.166137 C -45.329398 51.83358 -58.215262 46.272317 -60.44201 43.796622 C -63.234874 40.691519 -65.011159 30.910511 -63.523211 27.530762 C -62.43206 25.052301 -51.789247 18.727508 -48.504561 17.469702 C -45.228432 16.21517 -35.856814 55.166439 -41.542031 53.166137 z "
       id="path637"
       sodipodi:nodetypes="cssss" />
    <path
       style="font-size:12;fill:url(#linearGradient676);fill-rule:evenodd;stroke-width:1pt;"
       d="M -61.686861 28.482974 C -61.582357 28.150881 -53.988247 21.744448 -50.630635 20.628239 C -49.752281 20.336238 -48.865115 23.896553 -48.978964 24.258342 C -49.062781 24.524692 -50.471069 22.262478 -51.22363 22.512663 C -54.707034 23.67069 -61.780023 28.779022 -61.686861 28.482974 z "
       id="path642"
       sodipodi:nodetypes="cssss" />
    <path
       style="font-size:12;fill:url(#linearGradient637);fill-rule:evenodd;stroke:#261933;stroke-width:1.80513;"
       d="M -52.936281 39.78358 C -47.426082 52.884559 -35.897288 60.549208 -27.202363 56.89217 C -18.507441 53.235134 -15.922737 39.634426 -21.432937 26.533447 C -26.943136 13.432469 -38.471931 5.7678207 -47.166853 9.4248569 C -55.861778 13.081894 -58.446481 26.682602 -52.936281 39.78358 z "
       id="path645" />
    <path
       style="font-size:12;fill:url(#linearGradient647);fill-rule:evenodd;stroke-width:0.375;"
       d="M -46.83886 37.219039 C -43.46164 45.248672 -36.395606 49.946359 -31.066457 47.704949 C -25.737311 45.463539 -24.153137 37.127622 -27.530356 29.097988 C -30.907576 21.068355 -37.973612 16.370668 -43.302759 18.612078 C -48.631907 20.853488 -50.216079 29.189406 -46.83886 37.219039 z "
       id="path646" />
    <path
       style="font-size:12;fill:url(#linearGradient646);fill-rule:evenodd;stroke:#261933;stroke-width:0.467582;"
       d="M -40.360349 34.494213 C -39.249422 37.135538 -36.92507 38.680831 -35.172062 37.943525 C -33.419051 37.206218 -32.897942 34.46414 -34.008869 31.822815 C -35.119797 29.181486 -37.44415 27.636196 -39.197161 28.373502 C -40.950169 29.110808 -41.471278 31.852884 -40.360349 34.494213 z "
       id="path638" />
    <path
       style="font-size:12;fill:url(#linearGradient640);fill-rule:evenodd;stroke-width:1pt;"
       d="M -48.163192 44.400259 C -48.621311 43.953985 -57.331593 28.728448 -51.382478 15.968487 C -47.529001 7.9098653 -36.489974 11.135556 -36.031182 11.582486 C -35.614423 11.988469 -44.988312 9.9297168 -48.755824 18.527225 C -54.329497 31.644835 -47.74576 44.806897 -48.163192 44.400259 z "
       id="path639"
       sodipodi:nodetypes="cssss" />
    <path
       style="font-size:12;fill:url(#linearGradient684);fill-rule:evenodd;stroke-width:1pt;"
       d="M -39.196754 35.574621 C -39.289097 35.484665 -41.044847 32.415625 -39.84567 29.843577 C -39.06892 28.219186 -36.843762 28.869394 -36.751283 28.959483 C -36.667275 29.041317 -38.556788 28.62633 -39.316211 30.359346 C -40.439708 33.003488 -39.112612 35.656588 -39.196754 35.574621 z "
       id="path640"
       sodipodi:nodetypes="cssss" />
    <path
       style="font-size:12;fill:url(#linearGradient645);fill-rule:evenodd;stroke-width:1pt;"
       d="M -30.283263 26.858343 C -30.01029 27.124258 -24.820203 36.196506 -28.365029 43.799624 C -30.661152 48.601412 -37.238837 46.679361 -37.512212 46.413054 C -37.76054 46.171145 -32.175039 47.397869 -29.930139 42.274982 C -26.609024 34.458756 -30.531993 26.616043 -30.283263 26.858343 z "
       id="path641"
       sodipodi:nodetypes="cssss" />
  </g>
  <path
     d="M 6.819221 46.305515 C 7.5164387 48.061503 11.286141 45.8724 11.328575 50.58961 C 11.3746 55.914482 7.3828857 53.168196 6.6392382 54.80544 C 6.1864258 55.933736 10.475997 58.081548 12.096326 57.796139 C 13.742038 57.506361 14.474336 53.44901 16.437156 53.080001 C 22.944405 51.85691 30.930907 51.891702 37.506443 53.020165 C 39.647199 53.387634 40.772791 57.41194 42.586185 57.567721 C 44.345905 57.718769 48.638147 55.066824 48.22557 53.940571 C 47.61446 52.1824 42.494148 54.815092 42.5228 50.236396 C 42.552142 45.626664 47.620418 47.522494 48.294938 46.182126 C 48.81469 45.072046 44.236314 42.62259 42.405691 42.823952 C 40.600195 43.022536 39.48932 47.00712 37.386584 47.381965 C 30.862931 48.54477 23.005919 48.53095 16.526467 47.436852 C 14.647155 47.119513 13.896407 43.332606 12.310128 43.147722 C 10.660692 42.955491 6.4100603 45.128418 6.819221 46.305515 z "
     style="font-size:12;opacity:0.302675;fill-rule:evenodd;stroke-width:12.5;"
     id="path636" />
  <path
     d="M 6.8016196 44.54409 C 7.4988322 46.300074 11.268516 44.110955 11.310952 48.828164 C 11.356977 54.153037 7.3652629 51.406753 6.6216126 53.043997 C 6.1688015 54.172292 10.458373 56.320106 12.078702 56.034694 C 13.724415 55.744916 14.456714 51.687565 16.419532 51.318559 C 22.92678 50.095466 30.913281 50.130258 37.488823 51.258723 C 39.629572 51.626186 40.755162 55.650494 42.568562 55.806279 C 44.328278 55.957322 48.62052 53.305377 48.207949 52.179128 C 47.596829 50.420952 42.476521 53.053645 42.505173 48.474949 C 42.534517 43.865218 47.602798 45.761052 48.277285 44.420708 C 48.797048 43.310627 44.218651 40.861192 42.388068 41.062508 C 40.582573 41.261093 39.471697 45.245676 37.368959 45.62052 C 30.845308 46.783327 22.988297 46.769507 16.508844 45.67541 C 14.629531 45.35807 13.878782 41.571162 12.292524 41.386292 C 10.64309 41.194066 6.3924597 43.366993 6.8016196 44.54409 z "
     style="font-size:12;fill:url(#linearGradient566);fill-rule:evenodd;stroke:#261933;stroke-width:1.4225;"
     id="path630" />
  <path
     d="M 8.0440717 44.103557 C 8.1483809 43.909645 10.895181 42.224028 11.97195 42.510568 C 13.032249 42.792692 14.553415 45.627032 14.455234 45.809615 C 14.365057 45.977244 12.536487 43.861779 11.406822 43.56116 C 10.3994 43.293101 7.9600063 44.259845 8.0440717 44.103557 z "
     style="font-size:12;opacity:0.699936;fill:url(#linearGradient578);fill-rule:evenodd;stroke:#ffffff;stroke-width:0.0758667pt;"
     id="path631" />
  <path
     d="M 8.1590535 53.260654 C 8.1246772 53.179279 9.9687999 53.326706 10.660919 52.973342 C 11.23028 52.682636 11.910213 51.249388 11.943478 51.328224 C 11.981921 51.419142 11.46446 53.182181 10.876042 53.482601 C 10.202929 53.826312 8.1963853 53.349032 8.1590535 53.260654 z "
     style="font-size:12;opacity:0.699936;fill:url(#linearGradient583);fill-rule:evenodd;stroke:#ffffff;stroke-width:0.0758667pt;"
     id="path632" />
  <path
     d="M 16.482646 46.859528 C 16.512702 46.719639 23.669719 47.695803 27.268639 47.696362 C 30.726056 47.696812 37.681354 46.724955 37.651773 46.862646 C 37.621493 47.00385 30.6022 48.533364 27.088934 48.532846 C 23.545805 48.53231 16.452784 46.998485 16.482646 46.859528 z "
     style="font-size:12;opacity:0.7;fill:url(#linearGradient575);fill-rule:evenodd;stroke:#ffffff;stroke-width:0.0758667pt;"
     id="path633" />
  <path
     d="M 40.298525 44.506169 C 40.280171 44.26674 41.588523 42.296227 42.468902 42.192193 C 43.779497 42.037266 46.854408 43.506515 46.871494 43.729235 C 46.887207 43.934447 43.959324 43.311533 42.567366 43.47605 C 41.76835 43.570495 40.312972 44.694674 40.298525 44.506169 z "
     style="font-size:12;opacity:0.7;fill:url(#linearGradient573);fill-rule:evenodd;stroke:#ffffff;stroke-width:0.0758667pt;"
     id="path634" />
  <path
     d="M 42.207333 51.031202 C 42.28136 50.923762 43.035762 52.034995 43.588025 52.197898 C 44.557094 52.483676 46.844806 52.27044 46.771317 52.377133 C 46.686398 52.500382 44.086431 53.174855 43.112692 52.887732 C 42.565109 52.726283 42.122952 51.153705 42.207333 51.031202 z "
     style="font-size:12;opacity:0.699936;fill:url(#linearGradient569);fill-rule:evenodd;stroke:#ffffff;stroke-width:0.0758667pt;"
     id="path635" />
</svg>
