<?xml version="1.0" encoding="UTF-8" standalone="no"?>
<!DOCTYPE svg PUBLIC "-//W3C//DTD SVG 20010904//EN"
"http://www.w3.org/TR/2001/REC-SVG-20010904/DTD/svg10.dtd">
<!-- Created with Inkscape (http://www.inkscape.org/) -->
<svg
   id="svg1"
   sodipodi:version="0.32"
   inkscape:version="0.37"
   width="48pt"
   height="48pt"
   sodipodi:docbase="/home/tom"
   sodipodi:docname="artsbuilder.svg"
   xmlns="http://www.w3.org/2000/svg"
   xmlns:inkscape="http://www.inkscape.org/namespaces/inkscape"
   xmlns:sodipodi="http://sodipodi.sourceforge.net/DTD/sodipodi-0.dtd"
   xmlns:xlink="http://www.w3.org/1999/xlink">
  <defs
     id="defs3">
    <linearGradient
       id="linearGradient599">
      <stop
         style="stop-color:#ffffff;stop-opacity:1;"
         offset="0.00000000"
         id="stop600" />
      <stop
         style="stop-color:#d9cce6;stop-opacity:1;"
         offset="1.00000000"
         id="stop601" />
    </linearGradient>
    <linearGradient
       id="linearGradient584">
      <stop
         style="stop-color:#ffffff;stop-opacity:1;"
         offset="0.00000000"
         id="stop585" />
      <stop
         style="stop-color:#ffffff;stop-opacity:0;"
         offset="1.00000000"
         id="stop586" />
    </linearGradient>
    <linearGradient
       id="linearGradient578">
      <stop
         style="stop-color:#d9cce6;stop-opacity:1;"
         offset="0.00000000"
         id="stop579" />
      <stop
         style="stop-color:#73667f;stop-opacity:1;"
         offset="1.00000000"
         id="stop580" />
    </linearGradient>
    <linearGradient
       xlink:href="#linearGradient578"
       id="linearGradient581"
       x1="-0.00000000"
       y1="0.00000000"
       x2="0.97916669"
       y2="0.97656250" />
    <linearGradient
       xlink:href="#linearGradient578"
       id="linearGradient583"
       x1="0.98979592"
       y1="0.99218750"
       x2="0.03061225"
       y2="-0.00000000" />
    <linearGradient
       xlink:href="#linearGradient578"
       id="linearGradient860"
       x1="-0.00000000"
       y1="-0.00000000"
       x2="0.98076922"
       y2="1.00781250" />
    <linearGradient
       xlink:href="#linearGradient599"
       id="linearGradient861"
       x1="0.98979592"
       y1="0.99218750"
       x2="0.03061225"
       y2="0.00000000" />
    <linearGradient
       xlink:href="#linearGradient584"
       id="linearGradient862"
       x1="-0.00000000"
       y1="0.00000000"
       x2="0.97457629"
       y2="0.99218750" />
    <radialGradient
       xlink:href="#linearGradient578"
       id="radialGradient595"
       cx="0.33846155"
       cy="0.34375000"
       r="0.66501766"
       fx="0.33076921"
       fy="0.33593750" />
    <linearGradient
       xlink:href="#linearGradient584"
       id="linearGradient652"
       x1="-0.00000000"
       y1="-0.00000000"
       x2="0.99637681"
       y2="0.96052629" />
    <linearGradient
       xlink:href="#linearGradient599"
       id="linearGradient654" />
    <linearGradient
       xlink:href="#linearGradient599"
       id="linearGradient661" />
    <linearGradient
       xlink:href="#linearGradient584"
       id="linearGradient616"
       x1="-0.00000000"
       y1="-0.00000000"
       x2="0.99637681"
       y2="0.92500001" />
    <linearGradient
       xlink:href="#linearGradient584"
       id="linearGradient618"
       x1="0.00000000"
       y1="-0.00000000"
       x2="1.00000000"
       y2="1.00781250" />
    <linearGradient
       xlink:href="#linearGradient584"
       id="linearGradient620"
       x1="-0.00000000"
       y1="0.00000000"
       x2="1.00000000"
       y2="0.99218750" />
    <linearGradient
       xlink:href="#linearGradient584"
       id="linearGradient633"
       x1="0.00000000"
       y1="0.00000000"
       x2="1.00000000"
       y2="0.00000000" />
  </defs>
  <sodipodi:namedview
     id="base"
     pagecolor="#ffffff"
     bordercolor="#666666"
     borderopacity="1.0"
     inkscape:pageopacity="0.0"
     inkscape:pageshadow="2"
     inkscape:zoom="7.99999999"
     inkscape:cx="27.7502289"
     inkscape:cy="25.3287888"
     inkscape:window-width="788"
     inkscape:window-height="714"
     inkscape:window-x="199"
     inkscape:window-y="28"
     showborder="true"
     showgrid="false" />
  <g
     id="g650"
     style="font-size:12;opacity:0.296369;"
     transform="matrix(-0.834809,0.351116,0.396780,0.943380,43.92581,-10.45471)">
    <path
       style="font-size:12;fill-rule:evenodd;stroke-width:1.875;"
       d="M 40.181906 49.683924 C 43.74142 46.98763 55.413093 36.819956 56.782923 33.597578 C 58.501012 29.55596 56.258798 19.433555 53.192815 16.7167 C 50.944448 14.724357 36.640091 12.559718 32.521925 12.563247 C 28.414485 12.566766 34.838722 53.73133 40.181906 49.683924 z "
       id="path643"
       sodipodi:nodetypes="cssss" />
    <path
       style="font-size:12;fill-rule:evenodd;stroke-width:1.875;"
       d="M 46.995589 33.682468 C 46.995589 44.404983 40.468842 53.107313 32.426956 53.107313 C 24.385071 53.107313 17.858323 44.404983 17.858323 33.682468 C 17.858323 22.959954 24.385071 14.257624 32.426956 14.257624 C 40.468842 14.257624 46.995589 22.959954 46.995589 33.682468 z "
       id="path644"
       transform="matrix(1.373487,0.000000,0.000000,1.373487,-17.61598,-13.82184)" />
  </g>
  <path
     style="font-size:12;fill:url(#linearGradient860);fill-rule:evenodd;stroke:#000000;stroke-width:1.80513;"
     d="M 27.931522 49.094427 C 24.144155 47.76187 11.258291 42.200607 9.0315431 39.724912 C 6.2386789 36.619809 4.4623938 26.838801 5.9503419 23.459052 C 7.041493 20.980591 17.684306 14.655798 20.968992 13.397992 C 24.245121 12.14346 33.616739 51.094729 27.931522 49.094427 z "
     id="path637"
     sodipodi:nodetypes="cssss" />
  <path
     style="font-size:12;fill:url(#linearGradient652);fill-rule:evenodd;stroke-width:1pt;"
     d="M 7.786692 24.411264 C 7.8911959 24.079171 15.485306 17.672738 18.842918 16.556529 C 19.721272 16.264528 20.608438 19.824843 20.494589 20.186632 C 20.410772 20.452982 19.002484 18.190768 18.249923 18.440953 C 14.766519 19.59898 7.6935302 24.707312 7.786692 24.411264 z "
     id="path642"
     sodipodi:nodetypes="cssss" />
  <path
     style="font-size:12;fill:url(#linearGradient581);fill-rule:evenodd;stroke:#261933;stroke-width:1.80513;"
     d="M 16.537272 35.71187 C 22.047471 48.812849 33.576265 56.477498 42.27119 52.82046 C 50.966112 49.163424 53.550816 35.562716 48.040616 22.461737 C 42.530417 9.3607586 31.001622 1.6961106 22.3067 5.3531468 C 13.611775 9.0101843 11.027072 22.610892 16.537272 35.71187 z "
     id="path635" />
  <path
     style="font-size:12;fill:url(#linearGradient583);fill-rule:evenodd;stroke-width:0.375;"
     d="M 22.634693 33.147329 C 26.011913 41.176962 33.077947 45.874649 38.407096 43.633239 C 43.736242 41.391829 45.320416 33.055912 41.943197 25.026278 C 38.565977 16.996645 31.499941 12.298958 26.170794 14.540368 C 20.841646 16.781778 19.257474 25.117696 22.634693 33.147329 z "
     id="path636" />
  <path
     style="font-size:12;fill:url(#linearGradient861);fill-rule:evenodd;stroke:#261933;stroke-width:0.467582;"
     d="M 29.113204 30.422503 C 30.224131 33.063828 32.548483 34.609121 34.301491 33.871815 C 36.054502 33.134508 36.575611 30.39243 35.464684 27.751105 C 34.353756 25.109776 32.029403 23.564486 30.276392 24.301792 C 28.523384 25.039098 28.002275 27.781174 29.113204 30.422503 z "
     id="path638" />
  <path
     style="font-size:12;fill:url(#linearGradient862);fill-rule:evenodd;stroke-width:1pt;"
     d="M 21.310361 40.328549 C 20.852242 39.882275 12.14196 24.656738 18.091075 11.896777 C 21.944552 3.8381552 32.983579 7.063846 33.442371 7.510776 C 33.85913 7.916759 24.485241 5.8580067 20.717729 14.455515 C 15.144056 27.573125 21.727793 40.735187 21.310361 40.328549 z "
     id="path639"
     sodipodi:nodetypes="cssss" />
  <path
     style="font-size:12;fill:url(#linearGradient862);fill-rule:evenodd;stroke-width:1pt;"
     d="M 30.276799 31.502911 C 30.184456 31.412955 28.428706 28.343915 29.627883 25.771867 C 30.404633 24.147476 32.629791 24.797684 32.72227 24.887773 C 32.806278 24.969607 30.916765 24.55462 30.157342 26.287636 C 29.033845 28.931778 30.360941 31.584878 30.276799 31.502911 z "
     id="path640"
     sodipodi:nodetypes="cssss" />
  <path
     style="font-size:12;fill:url(#linearGradient862);fill-rule:evenodd;stroke-width:1pt;"
     d="M 39.19029 22.786633 C 39.463263 23.052548 44.65335 32.124796 41.108524 39.727914 C 38.812401 44.529702 32.234716 42.607651 31.961341 42.341344 C 31.713013 42.099435 37.298514 43.326159 39.543414 38.203272 C 42.864529 30.387046 38.94156 22.544333 39.19029 22.786633 z "
     id="path641"
     sodipodi:nodetypes="cssss" />
</svg>
