<?xml version="1.0" encoding="UTF-8" standalone="no"?>
<!-- Created with Inkscape (http://www.inkscape.org/) -->
<svg
   xmlns:dc="http://purl.org/dc/elements/1.1/"
   xmlns:cc="http://web.resource.org/cc/"
   xmlns:rdf="http://www.w3.org/1999/02/22-rdf-syntax-ns#"
   xmlns:svg="http://www.w3.org/2000/svg"
   xmlns="http://www.w3.org/2000/svg"
   xmlns:xlink="http://www.w3.org/1999/xlink"
   xmlns:sodipodi="http://inkscape.sourceforge.net/DTD/sodipodi-0.dtd"
   xmlns:inkscape="http://www.inkscape.org/namespaces/inkscape"
   version="1.0"
   x="0"
   y="0"
   width="48pt"
   height="48pt"
   id="svg1"
   sodipodi:version="0.32"
   inkscape:version="0.42"
   sodipodi:docname="browser.svg"
   sodipodi:docbase="/home/jakob/dev/lila/lila-theme/trunk/lila/kde/scalable/apps">
  <metadata
     id="metadata21">
    <rdf:RDF>
      <cc:Work
         rdf:about="">
        <dc:format>image/svg+xml</dc:format>
        <dc:type
           rdf:resource="http://purl.org/dc/dcmitype/StillImage" />
      </cc:Work>
    </rdf:RDF>
  </metadata>
  <sodipodi:namedview
     id="base"
     pagecolor="#ffffff"
     bordercolor="#666666"
     borderopacity="1.0"
     inkscape:pageopacity="0.0"
     inkscape:pageshadow="2"
     inkscape:zoom="6.9465337"
     inkscape:cx="31.296453"
     inkscape:cy="22.294062"
     inkscape:window-width="895"
     inkscape:window-height="514"
     inkscape:window-x="69"
     inkscape:window-y="340"
     inkscape:current-layer="svg1" />
  <defs
     id="defs3">
    <linearGradient
       id="linearGradient570">
      <stop
         style="stop-color:#ffffff;stop-opacity:1;"
         offset="0"
         id="stop571" />
      <stop
         style="stop-color:#ffffff;stop-opacity:0;"
         offset="1"
         id="stop572" />
    </linearGradient>
    <linearGradient
       id="linearGradient563">
      <stop
         style="stop-color:#d9cce6;stop-opacity:1;"
         offset="0.00000000"
         id="stop564" />
      <stop
         style="stop-color:#73667f;stop-opacity:1;"
         offset="1.00000000"
         id="stop565" />
    </linearGradient>
    <linearGradient
       x1="20.952060"
       y1="30.450673"
       x2="566.19941"
       y2="548.20016"
       id="linearGradient566"
       xlink:href="#linearGradient563"
       gradientUnits="userSpaceOnUse" />
    <linearGradient
       x1="6.4632646"
       y1="6.8197672"
       x2="41.697490"
       y2="42.406110"
       id="linearGradient569"
       xlink:href="#linearGradient570"
       gradientTransform="matrix(1.086809,0.000000,0.000000,0.920125,1.900710e-3,0.000000)"
       gradientUnits="userSpaceOnUse" />
    <linearGradient
       x1="0.007280"
       y1="0.021274"
       x2="0.960000"
       y2="0.946808"
       id="linearGradient573"
       xlink:href="#linearGradient570" />
    <linearGradient
       x1="0.980392"
       y1="0.976562"
       x2="0.006536"
       y2="0.007812"
       id="linearGradient575"
       xlink:href="#linearGradient563" />
    <linearGradient
       x1="-0.006622"
       y1="0.007813"
       x2="0.920530"
       y2="0.921875"
       id="linearGradient578"
       xlink:href="#linearGradient570" />
  </defs>
  <ellipse
     cx="286.92639"
     cy="278.06998"
     rx="278.19861"
     ry="278.19858"
     transform="matrix(9.421097e-2,0.000000,0.000000,9.421097e-2,6.092795,6.621821)"
     style="font-size:12.000000px;opacity:0.30267498;fill-rule:evenodd;stroke-width:13.253600"
     id="path1023"
     sodipodi:cx="286.92639"
     sodipodi:cy="278.06998"
     sodipodi:rx="278.19861"
     sodipodi:ry="278.19858" />
  <ellipse
     cx="286.92639"
     cy="278.06998"
     rx="278.19861"
     ry="278.19858"
     transform="matrix(9.421097e-2,0.000000,0.000000,9.421097e-2,3.804228,3.788362)"
     style="font-size:12.000000px;fill:url(#linearGradient566);fill-rule:evenodd;stroke:#261933;stroke-width:19.880501;stroke-dasharray:none;stroke-opacity:1.0000000"
     id="path983"
     sodipodi:cx="286.92639"
     sodipodi:cy="278.06998"
     sodipodi:rx="278.19861"
     sodipodi:ry="278.19858" />
  <path
     d="M 12.017060,12.409227 C 12.971822,11.880202 14.020880,13.750269 15.311976,13.929074 C 16.465120,14.088601 19.268970,12.278469 20.775531,13.139532 C 21.773845,13.567167 20.924369,17.325679 20.620399,19.575930 C 20.237717,21.381965 19.015746,23.968852 18.251377,26.208216 C 17.854009,27.189348 15.092714,30.743981 14.979835,30.969736 C 14.867158,31.195291 16.061958,34.207613 15.318367,34.579609 C 14.543310,35.038311 13.586152,30.629306 11.934050,29.390254 C 11.221125,28.962419 9.5772047,29.160804 9.0009907,29.616110 C 8.3144863,29.988403 8.9052944,33.890059 9.9033287,35.030918 C 10.926447,36.565148 12.467169,37.745365 13.400653,39.317456 C 14.610438,41.355237 15.355928,43.679608 16.333563,45.860633 C 16.333563,45.860633 15.526740,48.644708 15.639618,48.644708 C 15.752495,48.644708 17.348860,51.839431 17.348860,51.839431 C 14.071024,49.349743 11.432295,46.920484 9.2265947,43.942826 C 7.6720154,41.844008 6.4321446,38.963838 6.0678915,36.610100 C 5.9433062,35.805175 7.4490085,35.322201 7.7600801,34.466831 C 8.3304397,33.040783 5.3395131,29.501434 5.2186456,28.345191 C 5.0701963,27.100146 5.8233372,22.119064 7.5344360,19.124722 C 8.7595434,16.785767 10.189248,13.421826 12.017060,12.409227 z "
     style="font-size:12.000000px;opacity:0.50445902;fill:#261933;fill-rule:evenodd;stroke:#000000;stroke-width:0.11407400pt"
     id="path565" />
  <path
     d="M 31.450219,20.929657 C 30.840383,21.805406 30.187692,23.372999 30.547600,24.200799 C 30.939773,25.102520 32.636129,26.100332 33.706364,26.118712 C 34.817255,26.137892 35.951321,24.893447 37.090682,24.313777 C 38.094691,23.803033 39.063236,23.020283 40.136567,22.847172 C 41.394700,22.644294 43.176861,22.580362 44.084873,23.185804 C 44.756141,23.633417 45.023350,25.118502 44.874611,26.006035 C 44.559257,26.682799 43.504004,27.265466 43.859216,27.698195 C 44.170182,27.961808 46.328230,26.371738 46.679453,25.442048 C 46.967537,24.679679 45.600522,23.592861 45.777032,22.621717 C 45.919677,21.980216 48.263627,22.142438 49.048575,22.283385 C 49.696071,22.440915 50.324786,24.046668 50.966489,23.975444 C 51.554349,23.975444 53.021854,22.078509 53.180877,22.087398 C 53.792915,22.188488 54.237831,23.975444 54.237831,23.975444 C 53.184776,24.953181 52.335300,26.295221 51.079164,26.908555 C 49.101414,27.874403 46.767254,28.455970 44.536180,28.713490 C 40.901235,29.132934 36.591725,27.656840 33.480711,28.939045 C 31.026379,29.950743 27.876006,33.282220 27.840246,35.594904 C 27.800788,38.132942 29.447197,42.446352 32.399586,42.707266 C 35.973698,43.100541 39.708733,43.905361 40.996530,45.551874 C 42.002636,46.838371 40.830111,51.686097 40.992136,53.288957 C 41.053074,53.820378 42.599787,52.878900 43.520890,52.403519 C 44.931349,51.675708 46.637497,50.238474 47.130663,48.680766 C 48.066445,45.726086 48.171725,42.061470 47.807725,38.866343 C 47.494863,36.120333 44.768432,31.149642 45.100367,30.856859 C 45.407634,30.585753 47.821708,36.079577 49.725338,37.174286 C 50.829937,37.809295 53.364678,36.873214 54.125049,36.046015 C 54.643388,35.482028 53.193961,33.328669 53.560963,33.000227 C 53.908486,32.689265 56.116484,34.868693 56.268423,34.128500 C 57.478898,28.508113 56.341135,24.358028 54.362391,19.154391 C 52.743156,15.182611 48.153050,9.7150585 43.251982,7.0349524 C 42.561829,6.6541872 39.570983,8.3393725 37.263093,9.8155485 C 35.947426,10.474033 34.580312,12.456875 35.255978,12.932658 C 35.851630,13.402646 37.617310,11.817172 38.866849,11.535678 C 41.106812,11.000260 42.147581,11.290545 43.859216,12.130331 C 43.859216,12.130331 46.285181,14.137847 45.212942,15.627327 C 44.532289,16.528945 42.279935,16.529844 42.279935,16.529844 C 41.791067,16.266830 41.281022,15.640912 40.813330,15.740202 C 40.040276,15.904324 39.387684,16.947591 38.557188,17.319684 C 36.868125,18.075962 34.894072,18.230495 33.255055,19.124722 C 32.328263,19.338589 31.830005,20.352985 31.450219,20.929657 z "
     style="font-size:12.000000px;opacity:0.49999997;fill:#261933;fill-rule:evenodd;stroke:#000000;stroke-width:0.11407400pt"
     id="path566" />
  <path
     d="M 10.511397,44.098451 C 10.162577,43.052193 -3.0492211,19.390033 22.063130,7.2635343 C 33.448944,1.7128323 50.270144,12.003070 52.141312,18.161470 C 52.429494,19.093155 40.761390,5.7930846 24.133777,13.148422 C 2.4852880,22.662474 10.816467,45.013760 10.511397,44.098451 z "
     style="font-size:12.000000px;opacity:0.69999999;fill:url(#linearGradient569);fill-rule:evenodd;stroke:none;stroke-width:0.099890900pt"
     id="path984" />
</svg>
