<?xml version="1.0" encoding="UTF-8" standalone="no"?>
<!DOCTYPE svg PUBLIC "-//W3C//DTD SVG 20010904//EN"
"http://www.w3.org/TR/2001/REC-SVG-20010904/DTD/svg10.dtd">
<!-- Created with Inkscape (http://www.inkscape.org/) -->
<svg
   version="1.0"
   x="0"
   y="0"
   width="48pt"
   height="48pt"
   id="svg1"
   sodipodi:version="0.32"
   inkscape:version="0.38.1"
   sodipodi:docname="digikam.svg"
   sodipodi:docbase="/home/tom/Pics/lilasvg/scalable/apps"
   xmlns="http://www.w3.org/2000/svg"
   xmlns:inkscape="http://www.inkscape.org/namespaces/inkscape"
   xmlns:sodipodi="http://sodipodi.sourceforge.net/DTD/sodipodi-0.dtd"
   xmlns:xlink="http://www.w3.org/1999/xlink">
  <sodipodi:namedview
     id="base"
     pagecolor="#ffffff"
     bordercolor="#666666"
     borderopacity="1.0"
     inkscape:pageopacity="0.0"
     inkscape:pageshadow="2"
     inkscape:zoom="9.0891029"
     inkscape:cx="23.278007"
     inkscape:cy="22.427003"
     inkscape:window-width="1018"
     inkscape:window-height="711"
     inkscape:window-x="0"
     inkscape:window-y="30" />
  <defs
     id="defs3">
    <linearGradient
       id="linearGradient856">
      <stop
         style="stop-color:#ffffff;stop-opacity:1.0000000;"
         offset="0.0000000"
         id="stop857" />
      <stop
         style="stop-color:#0000ff;stop-opacity:1.0000000;"
         offset="0.50000000"
         id="stop859" />
      <stop
         style="stop-color:#ffffff;stop-opacity:1.0000000;"
         offset="1.0000000"
         id="stop858" />
    </linearGradient>
    <linearGradient
       id="linearGradient1816">
      <stop
         style="stop-color:#ffffff;stop-opacity:1;"
         offset="0"
         id="stop1817" />
      <stop
         style="stop-color:#ffffff;stop-opacity:0;"
         offset="1"
         id="stop1818" />
    </linearGradient>
    <linearGradient
       id="linearGradient1809">
      <stop
         style="stop-color:#d9cce6;stop-opacity:1.0000000;"
         offset="0.0000000"
         id="stop1810" />
      <stop
         style="stop-color:#ffffff;stop-opacity:1.0000000;"
         offset="1.0000000"
         id="stop1811" />
    </linearGradient>
    <linearGradient
       id="linearGradient570">
      <stop
         style="stop-color:#ffffff;stop-opacity:1;"
         offset="0"
         id="stop571" />
      <stop
         style="stop-color:#ffffff;stop-opacity:0;"
         offset="1"
         id="stop572" />
    </linearGradient>
    <linearGradient
       id="linearGradient563">
      <stop
         style="stop-color:#d9cce6;stop-opacity:1;"
         offset="0.00000000"
         id="stop564" />
      <stop
         style="stop-color:#73667f;stop-opacity:1;"
         offset="1.00000000"
         id="stop565" />
    </linearGradient>
    <linearGradient
       id="linearGradient566"
       xlink:href="#linearGradient563"
       x1="0.61956519"
       y1="0.94656491"
       x2="0.31521741"
       y2="-0.33587787" />
    <linearGradient
       id="linearGradient569"
       xlink:href="#linearGradient570"
       x1="0.63253021"
       y1="0.083969481"
       x2="0.60843378"
       y2="0.87022918" />
    <linearGradient
       id="linearGradient573"
       xlink:href="#linearGradient1809"
       x1="0.94761902"
       y1="0.85496181"
       x2="0.31904763"
       y2="-0.51908398" />
    <linearGradient
       x1="0.980392"
       y1="0.976562"
       x2="0.006536"
       y2="0.007812"
       id="linearGradient575"
       xlink:href="#linearGradient563" />
    <linearGradient
       x1="-0.006622"
       y1="0.007813"
       x2="0.920530"
       y2="0.921875"
       id="linearGradient578"
       xlink:href="#linearGradient570" />
    <radialGradient
       xlink:href="#linearGradient1809"
       id="radialGradient1812"
       cx="0.92424244"
       cy="0.86259544"
       r="1.8670716"
       fx="0.92424244"
       fy="0.86259544" />
    <radialGradient
       xlink:href="#linearGradient856"
       id="radialGradient1813" />
  </defs>
  <path
     style="fill:#000000;fill-opacity:0.40000001;fill-rule:evenodd;stroke:none;stroke-width:2.0000000;"
     d="M 7.5170268,13.957613 C 3.2657028,13.957613 2.9367488,16.938217 2.9367488,21.189541 L 2.9367488,42.081023 C 2.9367488,46.332347 6.3592948,49.754893 10.610619,49.754893 L 50.726568,49.754893 C 54.977892,49.754893 58.400438,46.332347 58.400438,42.081023 L 58.400438,18.095949 C 58.400438,13.844625 54.977892,10.422080 50.726568,10.422080 C 45.513716,10.422080 35.613364,10.109580 35.088011,10.422080 C 34.039485,10.892998 36.115959,14.410791 34.911183,14.178584 L 16.656394,13.967091 L 16.682855,10.552475 L 7.5686908,10.497232 L 7.5170268,13.957613 z "
     id="path853"
     sodipodi:nodetypes="cccccccccccccc" />
  <path
     style="fill:url(#linearGradient566);fill-opacity:0.75000000;fill-rule:evenodd;stroke:#261933;stroke-width:2.0000000;"
     d="M 5.8272948,10.398993 C 1.5759710,10.398993 1.2470174,13.379597 1.2470174,17.630921 L 1.2470174,38.522403 C 1.2470174,42.773727 4.6695632,46.196273 8.9208870,46.196273 L 49.036836,46.196273 C 53.288160,46.196273 56.710706,42.773727 56.710706,38.522403 L 56.710706,14.537329 C 56.710706,10.286005 53.288160,6.8634594 49.036836,6.8634594 C 43.823984,6.8634594 33.923632,6.5509594 33.398279,6.8634594 C 32.349753,7.3343777 34.426227,10.852171 33.221451,10.619964 L 14.966662,10.408471 L 14.993123,6.9938541 L 5.8789587,6.9386111 L 5.8272948,10.398993 z "
     id="path851"
     sodipodi:nodetypes="cccccccccccccc" />
  <path
     sodipodi:type="arc"
     style="fill:url(#radialGradient1812);fill-opacity:0.75000000;fill-rule:evenodd;stroke:#261933;stroke-width:1.0000000pt;stroke-opacity:1.0000000;"
     id="path852"
     sodipodi:cx="34.882812"
     sodipodi:cy="26.210938"
     sodipodi:rx="15.820312"
     sodipodi:ry="15.820312"
     d="M 50.703124 26.210938 A 15.820312 15.820312 0 1 0 19.062501,26.210938 A 15.820312 15.820312 0 1 0 50.703124 26.210937 z"
     transform="matrix(0.952255,0.000000,0.000000,0.952255,3.730022,3.207583)" />
  <path
     sodipodi:type="arc"
     style="fill:#000000;fill-opacity:1.0000000;fill-rule:evenodd;stroke:#261933;stroke-width:2.2298732;stroke-opacity:1.0000000;stroke-dasharray:none;"
     id="path854"
     sodipodi:cx="34.882812"
     sodipodi:cy="26.210938"
     sodipodi:rx="15.820312"
     sodipodi:ry="15.820312"
     d="M 50.703124 26.210938 A 15.820312 15.820312 0 1 0 19.062501,26.210938 A 15.820312 15.820312 0 1 0 50.703124 26.210937 z"
     transform="matrix(0.557299,0.000000,0.000000,0.557299,18.11766,13.57654)" />
  <path
     sodipodi:type="arc"
     style="fill:url(#linearGradient569);fill-opacity:0.75000000;fill-rule:evenodd;stroke:none;stroke-width:1.0000000pt;"
     id="path860"
     sodipodi:cx="35.189610"
     sodipodi:cy="26.357185"
     sodipodi:rx="5.4690289"
     sodipodi:ry="4.3641748"
     d="M 40.658638 26.357185 A 5.4690289 4.3641748 0 1 0 29.720581,26.357185 A 5.4690289 4.3641748 0 1 0 40.658638 26.357185 z"
     transform="matrix(1.251679,0.000000,0.000000,1.251679,-6.562536,-6.872927)" />
  <rect
     style="fill:url(#linearGradient573);fill-opacity:0.75000000;fill-rule:evenodd;stroke:#261933;stroke-width:1.0000000pt;stroke-opacity:1.0000000;"
     id="rect862"
     width="11.711456"
     height="6.8500972"
     ry="1.3364605"
     x="6.3293476"
     y="15.039381" />
</svg>
