<?xml version="1.0" encoding="UTF-8" standalone="no"?>
<!DOCTYPE svg PUBLIC "-//W3C//DTD SVG 20010904//EN"
"http://www.w3.org/TR/2001/REC-SVG-20010904/DTD/svg10.dtd">
<!-- Created with Inkscape (http://www.inkscape.org/) -->
<svg
   id="svg1"
   sodipodi:version="0.32"
   inkscape:version="0.38.1"
   width="48px"
   height="48px"
   sodipodi:docname="cervisia.svg"
   sodipodi:docbase="/home/tom"
   xmlns="http://www.w3.org/2000/svg"
   xmlns:inkscape="http://www.inkscape.org/namespaces/inkscape"
   xmlns:sodipodi="http://sodipodi.sourceforge.net/DTD/sodipodi-0.dtd"
   xmlns:xlink="http://www.w3.org/1999/xlink">
  <defs
     id="defs3">
    <linearGradient
       id="linearGradient563">
      <stop
         style="stop-color:#d9cce6;stop-opacity:1;"
         offset="0.00000000"
         id="stop564" />
      <stop
         style="stop-color:#73667f;stop-opacity:1;"
         offset="1.00000000"
         id="stop565" />
    </linearGradient>
    <linearGradient
       x1="0.03846154"
       y1="0.07031250"
       x2="0.98461539"
       y2="0.96875000"
       id="linearGradient566"
       xlink:href="#linearGradient563" />
    <linearGradient
       id="linearGradient570">
      <stop
         style="stop-color:#ffffff;stop-opacity:1;"
         offset="0"
         id="stop571" />
      <stop
         style="stop-color:#ffffff;stop-opacity:0;"
         offset="1"
         id="stop572" />
    </linearGradient>
    <linearGradient
       x1="0.006536"
       y1="0.015625"
       x2="0.849673"
       y2="0.867188"
       id="linearGradient569"
       xlink:href="#linearGradient570" />
    <linearGradient
       id="linearGradient635">
      <stop
         style="stop-color:#413250;stop-opacity:1;"
         offset="0.00000000"
         id="stop636" />
      <stop
         style="stop-color:#634486;stop-opacity:1;"
         offset="1.00000000"
         id="stop637" />
    </linearGradient>
    <linearGradient
       id="linearGradient625">
      <stop
         style="stop-color:#857894;stop-opacity:1.0000000;"
         offset="0.0000000"
         id="stop626" />
      <stop
         style="stop-color:#d9cce6;stop-opacity:1;"
         offset="1.00000000"
         id="stop627" />
    </linearGradient>
    <linearGradient
       id="linearGradient617">
      <stop
         style="stop-color:#7600f2;stop-opacity:1;"
         offset="0.00000000"
         id="stop618" />
      <stop
         style="stop-color:#560083;stop-opacity:1;"
         offset="1.00000000"
         id="stop619" />
    </linearGradient>
    <linearGradient
       id="Orange-Dark">
      <stop
         style="stop-color:#ff6800;stop-opacity:1;"
         offset="0.00000000"
         id="stop612" />
      <stop
         style="stop-color:#8f2300;stop-opacity:1;"
         offset="1.00000000"
         id="stop613" />
    </linearGradient>
    <linearGradient
       xlink:href="#linearGradient625"
       id="linearGradient614"
       x1="0.00000000"
       y1="-0.00000000"
       x2="1.91358316"
       y2="0.03307139" />
    <radialGradient
       xlink:href="#Orange-Dark"
       id="radialGradient615"
       cx="0.50000000"
       cy="0.50000000"
       r="0.50000000"
       fx="0.50000000"
       fy="0.50000000" />
    <radialGradient
       xlink:href="#linearGradient617"
       id="radialGradient616"
       cx="0.50000000"
       cy="0.50000000"
       r="0.50000000"
       fx="0.50000000"
       fy="0.50000000" />
    <linearGradient
       xlink:href="#linearGradient625"
       id="linearGradient620"
       x1="-0.93294173"
       y1="0.02090688"
       x2="0.88510054"
       y2="0.05232710"
       gradientTransform="scale(1.113126,0.898371)" />
    <linearGradient
       xlink:href="#linearGradient625"
       id="linearGradient621"
       x1="-0.64224279"
       y1="-0.71622401"
       x2="0.81129146"
       y2="-0.69110340"
       gradientTransform="scale(1.360939,0.734787)" />
    <linearGradient
       xlink:href="#linearGradient625"
       id="linearGradient622"
       x1="-0.03549617"
       y1="-0.88926274"
       x2="1.58743989"
       y2="-0.86121440"
       gradientTransform="scale(1.446772,0.691194)" />
    <linearGradient
       xlink:href="#linearGradient625"
       id="linearGradient623"
       x1="-0.14325394"
       y1="-0.77067214"
       x2="1.25236392"
       y2="-0.74655247"
       gradientTransform="scale(2.065265,0.484199)" />
    <linearGradient
       xlink:href="#linearGradient625"
       id="linearGradient624"
       x1="-0.57529187"
       y1="-0.66386384"
       x2="0.69571543"
       y2="-0.64189780"
       gradientTransform="scale(1.918861,0.521142)" />
    <linearGradient
       xlink:href="#linearGradient635"
       id="linearGradient633"
       x1="0.00000000"
       y1="-0.00000000"
       x2="1.00000000"
       y2="-0.00000000" />
    <linearGradient
       xlink:href="#linearGradient635"
       id="linearGradient634"
       x1="-1.08570838"
       y1="-0.00000000"
       x2="0.01065831"
       y2="-0.00000000"
       gradientTransform="scale(1.096367,0.912104)" />
    <linearGradient
       xlink:href="#linearGradient635"
       id="linearGradient638" />
    <linearGradient
       xlink:href="#linearGradient635"
       id="linearGradient639" />
    <linearGradient
       xlink:href="#linearGradient635"
       id="linearGradient640" />
    <linearGradient
       xlink:href="#linearGradient635"
       id="linearGradient641" />
    <linearGradient
       xlink:href="#linearGradient635"
       id="linearGradient642" />
    <linearGradient
       xlink:href="#linearGradient635"
       id="linearGradient643" />
  </defs>
  <sodipodi:namedview
     id="base"
     pagecolor="#ffffff"
     bordercolor="#666666"
     borderopacity="1.0"
     inkscape:pageopacity="0.0"
     inkscape:pageshadow="2"
     inkscape:zoom="8.0000000"
     inkscape:cx="1.1732483"
     inkscape:cy="26.546917"
     inkscape:window-width="1018"
     inkscape:window-height="713"
     inkscape:window-x="0"
     inkscape:window-y="28" />
  <path
     style="font-size:12;fill:#000000;fill-rule:evenodd;stroke:none;stroke-width:0.139445;stroke-linecap:round;stroke-linejoin:round;stroke-dashoffset:0;fill-opacity:0.30000001;"
     d="M 26.174487,12.695387 L 26.174487,12.781179 L 26.031500,12.866971 L 18.910765,13.867877 L 3.1822329,21.560561 L 7.7006112,21.388977 L 8.0151819,21.245990 L 8.0151819,21.646353 L 7.8721952,21.560561 L 4.4691129,27.994962 L 8.0151819,30.139763 L 8.0151819,37.460681 L 8.0151819,38.175615 L 23.114572,46.611829 L 23.114572,46.697621 L 23.200364,46.640426 L 23.286156,46.697621 L 23.286156,46.611829 L 41.588450,37.803849 L 41.588450,28.452519 L 45.105922,26.736678 L 41.702839,21.331782 L 47.679681,22.847440 L 32.666082,14.468421 L 26.603447,12.924165 L 26.374668,12.809776 L 26.374668,12.695387 L 26.260279,12.752581 L 26.174487,12.695387 z "
     id="path670" />
  <path
     style="font-size:12.000000;fill:url(#linearGradient633);fill-rule:evenodd;stroke:#261933;stroke-width:0.14999999;stroke-linecap:round;"
     d="M 25.483878,11.614267 L 25.483878,27.858113 L 7.1368709,36.386135 L 7.1368709,20.142285 L 25.483878,11.614267 z "
     id="Top Left Side"
     sodipodi:nodetypes="ccccc" />
  <ellipse
     cx="286.926392"
     cy="278.069977"
     rx="278.198608"
     ry="278.198578"
     transform="matrix(5.326349e-2,0.000000,0.000000,5.326349e-2,9.627393,5.723474)"
     style="font-size:12;opacity:0.302675;fill-rule:evenodd;stroke-width:13.2536;"
     id="path1023" />
  <path
     style="font-size:12.000000;fill:url(#linearGradient614);fill-rule:evenodd;stroke:#261933;stroke-width:0.77499998;stroke-linecap:round;stroke-linejoin:round;stroke-dashoffset:0.0000000;"
     d="M 18.029924,12.775043 L 25.412252,11.717349 L 6.8143287,20.299777 L 2.3131172,20.465218 L 18.029924,12.775043 z "
     id="Top Left Flap"
     sodipodi:nodetypes="ccccc" />
  <path
     style="font-size:12.000000;fill:url(#linearGradient620);fill-rule:evenodd;stroke:#261933;stroke-width:0.77499998;stroke-linecap:round;stroke-linejoin:round;stroke-dashoffset:0.0000000;"
     d="M 31.777779,13.390923 L 25.722237,11.832795 L 40.698648,20.230900 L 46.809825,21.756079 L 31.777779,13.390923 z "
     id="Top Right Flap"
     sodipodi:nodetypes="ccccc" />
  <path
     style="font-size:12.000000;fill:url(#linearGradient634);fill-rule:evenodd;stroke:#261933;stroke-width:0.14999999;stroke-linecap:round;"
     d="M 25.305517,11.614267 L 25.305517,27.858113 L 40.568994,36.386135 L 40.568994,20.142285 L 25.305517,11.614267 z "
     id="Top Right Side"
     sodipodi:nodetypes="ccccc" />
  <ellipse
     cx="286.926392"
     cy="278.069977"
     rx="278.198608"
     ry="278.198578"
     transform="matrix(5.326349e-2,0.000000,0.000000,5.326349e-2,8.333520,4.121538)"
     style="font-size:12;fill:url(#linearGradient566);fill-rule:evenodd;stroke:#261933;stroke-width:19.8805;stroke-opacity:1;stroke-dasharray:none;"
     id="path983" />
  <path
     style="font-size:12.000000;fill:url(#linearGradient623);fill-rule:evenodd;stroke:#261933;stroke-width:0.77499998;stroke-linecap:round;stroke-linejoin:round;stroke-dashoffset:0.0000000;"
     d="M 7.1368720,20.852559 L 7.1368720,37.096409 L 22.400347,45.624430 L 22.400347,29.380580 L 7.1368720,20.852559 z "
     id="Bottom left Side"
     sodipodi:nodetypes="ccccc" />
  <path
     d="M 12.976760,8.9954643 C 13.516548,8.6963730 14.109648,9.7536413 14.839587,9.8547311 C 15.491533,9.9449221 17.076730,8.9215388 17.928485,9.4083529 C 18.492896,9.6501225 18.012633,11.775050 17.840779,13.047261 C 17.624424,14.068328 16.933566,15.530861 16.501419,16.796917 C 16.276761,17.351613 14.715624,19.361275 14.651806,19.488909 C 14.588103,19.616430 15.263600,21.319489 14.843201,21.529801 C 14.405010,21.789135 13.863868,19.296442 12.929829,18.595927 C 12.526766,18.354044 11.597354,18.466204 11.271582,18.723618 C 10.883458,18.934099 11.217479,21.139955 11.781732,21.784956 C 12.360167,22.652355 13.231235,23.319607 13.758994,24.208410 C 14.442962,25.360498 14.864436,26.674614 15.417156,27.907688 C 15.417156,27.907688 14.961007,29.481704 15.024824,29.481704 C 15.088641,29.481704 15.991168,31.287886 15.991168,31.287886 C 14.137997,29.880305 12.646155,28.506889 11.399131,26.823428 C 10.520228,25.636832 9.8192495,24.008487 9.6133139,22.677768 C 9.5428778,22.222692 10.394148,21.949636 10.570017,21.466041 C 10.892477,20.659805 9.2015149,18.658784 9.1331807,18.005086 C 9.0492528,17.301182 9.4750516,14.485057 10.442445,12.792164 C 11.135077,11.469803 11.943381,9.5679519 12.976760,8.9954643 z "
     style="font-size:12.000000;opacity:0.50445902;fill:#261933;fill-rule:evenodd;stroke:#000000;stroke-width:0.064493346pt;"
     id="path565" />
  <path
     d="M 23.963570,13.812610 C 23.618790,14.307726 23.249782,15.193987 23.453262,15.661995 C 23.674982,16.171796 24.634041,16.735924 25.239113,16.746315 C 25.867171,16.757158 26.508332,16.053594 27.152485,15.725869 C 27.720116,15.437113 28.267697,14.994574 28.874519,14.896703 C 29.585822,14.782004 30.593392,14.745858 31.106749,15.088154 C 31.486261,15.341218 31.637330,16.180832 31.553239,16.682611 C 31.374949,17.065229 30.778347,17.394648 30.979171,17.639298 C 31.154981,17.788335 32.375063,16.889366 32.573632,16.363753 C 32.736504,15.932737 31.963643,15.318289 32.063435,14.769239 C 32.144082,14.406558 33.469267,14.498272 33.913049,14.577958 C 34.279119,14.667020 34.634573,15.574856 34.997368,15.534588 C 35.329723,15.534588 36.159398,14.462129 36.249304,14.467155 C 36.595328,14.524307 36.846867,15.534588 36.846867,15.534588 C 36.251508,16.087365 35.771244,16.846107 35.061070,17.192863 C 33.942922,17.738919 32.623272,18.067716 31.361903,18.213309 C 29.306835,18.450448 26.870392,17.615917 25.111537,18.340830 C 23.723946,18.912807 21.942838,20.796305 21.922621,22.103814 C 21.900313,23.538729 22.831134,25.977376 24.500308,26.124887 C 26.520983,26.347230 28.632637,26.802247 29.360711,27.733126 C 29.929527,28.460465 29.266624,31.201196 29.358227,32.107395 C 29.392679,32.407842 30.267135,31.875564 30.787893,31.606801 C 31.585316,31.195322 32.549911,30.382761 32.828729,29.502089 C 33.357787,27.831619 33.417309,25.759777 33.211516,23.953368 C 33.034636,22.400871 31.493209,19.590621 31.680874,19.425093 C 31.854591,19.271819 33.219422,22.377830 34.295666,22.996739 C 34.920167,23.355750 36.353218,22.826524 36.783105,22.358855 C 37.076155,22.039997 36.256701,20.822565 36.464191,20.636876 C 36.660668,20.461069 37.908990,21.693239 37.994891,21.274761 C 38.679250,18.097196 38.036000,15.750887 36.917289,12.808938 C 36.001832,10.563436 33.406750,7.4722783 30.635863,5.9570426 C 30.245675,5.7417718 28.554758,6.6945154 27.249960,7.5290922 C 26.506130,7.9013753 25.733212,9.0224028 26.115209,9.2913940 C 26.451969,9.5571082 27.450222,8.6607376 28.156666,8.5015913 C 29.423061,8.1988858 30.011474,8.3630022 30.979171,8.8377874 C 30.979171,8.8377874 32.350725,9.9727640 31.744520,10.814863 C 31.359703,11.324605 30.086303,11.325114 30.086303,11.325114 C 29.809914,11.176415 29.521553,10.822543 29.257137,10.878679 C 28.820080,10.971467 28.451128,11.561293 27.981595,11.771661 C 27.026659,12.199233 25.910601,12.286601 24.983959,12.792164 C 24.459984,12.913077 24.178287,13.486580 23.963570,13.812610 z "
     style="font-size:12.000000;opacity:0.49999997;fill:#261933;fill-rule:evenodd;stroke:#000000;stroke-width:0.064493346pt;"
     id="path566" />
  <path
     d="M 12.125512,26.911413 C 11.928302,26.319896 4.4588256,12.942162 18.656447,6.0862751 C 25.093577,2.9481077 34.603680,8.7658381 35.661571,12.247576 C 35.824498,12.774318 29.227771,5.2549359 19.827117,9.4133793 C 7.5878385,14.792281 12.297987,27.428896 12.125512,26.911413 z "
     style="font-size:12;opacity:0.7;fill:url(#linearGradient569);fill-rule:evenodd;stroke:none;stroke-width:0.0998909pt;"
     id="path984" />
  <path
     style="font-size:12.000000;fill:url(#linearGradient624);fill-rule:evenodd;stroke:#261933;stroke-width:0.77500000;stroke-linecap:round;stroke-dashoffset:0.0000000;stroke-dasharray:none;stroke-linejoin:round;"
     d="M 40.699281,20.134848 L 40.699281,36.706857 L 22.226085,45.624429 L 22.226085,29.052421 L 40.699281,20.134848 z "
     id="Bottom Right Side"
     sodipodi:nodetypes="ccccc" />
  <path
     style="font-size:12.000000;fill:url(#linearGradient622);fill-rule:evenodd;stroke:#261933;stroke-width:0.77500000;stroke-linecap:round;stroke-dashoffset:0.0000000;stroke-dasharray:none;stroke-linejoin:round;"
     d="M 18.003845,35.427167 L 22.163779,29.014511 L 6.8363058,20.178532 L 3.4270338,26.591192 L 18.003845,35.427167 z "
     id="Bottom Left Flap"
     sodipodi:nodetypes="ccccc" />
  <path
     style="font-size:12.000000;fill:url(#linearGradient621);fill-rule:evenodd;stroke:#261933;stroke-width:0.77500000;stroke-linecap:round;stroke-linejoin:round;stroke-dashoffset:0.0000000;stroke-dasharray:none;"
     d="M 40.719304,20.038525 L 44.227004,25.653781 L 25.371088,34.922204 L 22.204436,28.965900 L 40.719304,20.038525 z "
     id="Botton Right Flap"
     sodipodi:nodetypes="ccccc" />
</svg>
