<?xml version="1.0" encoding="UTF-8" standalone="no"?>
<!DOCTYPE svg PUBLIC "-//W3C//DTD SVG 20010904//EN"
"http://www.w3.org/TR/2001/REC-SVG-20010904/DTD/svg10.dtd">
<!-- Created with Inkscape (http://www.inkscape.org/) -->
<svg
   id="svg1"
   sodipodi:version="0.32"
   inkscape:version="0.37"
   width="29pt"
   height="29pt"
   sodipodi:docname="calen.svg"
   sodipodi:docbase="/home/jakob/dev/lila/svg-icons/lila"
   xmlns="http://www.w3.org/2000/svg"
   xmlns:cc="http://web.resource.org/cc/"
   xmlns:inkscape="http://www.inkscape.org/namespaces/inkscape"
   xmlns:sodipodi="http://sodipodi.sourceforge.net/DTD/sodipodi-0.dtd"
   xmlns:rdf="http://www.w3.org/1999/02/22-rdf-syntax-ns#"
   xmlns:dc="http://purl.org/dc/elements/1.1/"
   xmlns:xlink="http://www.w3.org/1999/xlink">
  <defs
     id="defs3">
    <linearGradient
       id="linearGradient1663">
      <stop
         offset="0.0000000"
         style="stop-color:#7f7f7f;stop-opacity:1.0000000;"
         id="stop1665" />
      <stop
         offset="1.0000000"
         style="stop-color:#e6e6e6;stop-opacity:1.0000000;"
         id="stop1664" />
    </linearGradient>
    <linearGradient
       id="linearGradient1660">
      <stop
         offset="0.0000000"
         style="stop-color:#ffffff;stop-opacity:1.0000000;"
         id="stop1662" />
      <stop
         offset="1.0000000"
         style="stop-color:#ffffff;stop-opacity:0.0000000;"
         id="stop1661" />
    </linearGradient>
    <linearGradient
       id="linearGradient694">
      <stop
         offset="0.00000000"
         style="stop-color:#d9cce6;stop-opacity:1;"
         id="stop696" />
      <stop
         offset="1.00000000"
         style="stop-color:#73667f;stop-opacity:1;"
         id="stop695" />
    </linearGradient>
    <linearGradient
       id="linearGradient866">
      <stop
         style="stop-color:#ffffff;stop-opacity:1;"
         offset="0.00000000"
         id="stop867" />
      <stop
         style="stop-color:#d9cce6;stop-opacity:1;"
         offset="1.00000000"
         id="stop868" />
    </linearGradient>
    <linearGradient
       id="linearGradient584">
      <stop
         style="stop-color:#ffffff;stop-opacity:1;"
         offset="0.00000000"
         id="stop585" />
      <stop
         style="stop-color:#ffffff;stop-opacity:0;"
         offset="1.00000000"
         id="stop586" />
    </linearGradient>
    <linearGradient
       xlink:href="#linearGradient866"
       id="linearGradient586"
       x1="-0.00000000"
       y1="0.01562500"
       x2="0.99122804"
       y2="0.98437500" />
    <linearGradient
       xlink:href="#linearGradient584"
       id="linearGradient587"
       x1="9.1344033e-18"
       y1="-3.9311138e-16"
       x2="1.0000000"
       y2="1.0000000" />
    <defs
       id="defs651">
      <linearGradient
         id="linearGradient652">
        <stop
           style="stop-color:#ffffff;stop-opacity:1;"
           offset="0.00000000"
           id="stop653" />
        <stop
           style="stop-color:#ffffff;stop-opacity:0;"
           offset="1.00000000"
           id="stop654" />
      </linearGradient>
      <linearGradient
         id="linearGradient578"
         x1="0.00000000"
         y1="0.00000000"
         x2="1.00000000"
         y2="0.00000000"
         gradientUnits="objectBoundingBox"
         spreadMethod="pad"
         xlink:href="#linearGradient694" />
      <linearGradient
         xlink:href="#linearGradient578"
         id="linearGradient581"
         x1="0.00757576"
         y1="0.03100775"
         x2="0.99242425"
         y2="0.99224806" />
      <linearGradient
         xlink:href="#linearGradient584"
         id="linearGradient583"
         x1="-0.01470588"
         y1="0.00775194"
         x2="0.97058821"
         y2="0.96124029" />
      <linearGradient
         xlink:href="#linearGradient584"
         id="linearGradient654"
         x1="0.00729927"
         y1="0.04081633"
         x2="0.98175180"
         y2="0.91836733" />
      <linearGradient
         xlink:href="#linearGradient584"
         id="linearGradient655"
         x1="-0.06250000"
         y1="0.00775194"
         x2="0.93750000"
         y2="0.98449612" />
    </defs>
    <sodipodi:namedview
       id="namedview662"
       pagecolor="#ffffff"
       bordercolor="#666666"
       borderopacity="1.0"
       inkscape:pageopacity="0.0"
       inkscape:pageshadow="2"
       inkscape:zoom="5.64233875"
       inkscape:cx="26.3898759"
       inkscape:cy="25.2380417"
       inkscape:window-width="640"
       inkscape:window-height="516"
       inkscape:window-x="131"
       inkscape:window-y="62" />
    <linearGradient
       xlink:href="#linearGradient694"
       id="linearGradient624"
       x1="0.00000000"
       y1="0.00826446"
       x2="1.00000000"
       y2="0.99586779" />
    <defs
       id="defs709">
      <linearGradient
         id="linearGradient710">
        <stop
           style="stop-color:#ffffff;stop-opacity:1;"
           offset="0.00000000"
           id="stop711" />
        <stop
           style="stop-color:#ffffff;stop-opacity:0;"
           offset="1.00000000"
           id="stop712" />
      </linearGradient>
      <linearGradient
         id="linearGradient713">
        <stop
           style="stop-color:#faf8fd;stop-opacity:1;"
           offset="0.00000000"
           id="stop714" />
        <stop
           style="stop-color:#d9cce6;stop-opacity:1;"
           offset="1.00000000"
           id="stop715" />
      </linearGradient>
      <linearGradient
         xlink:href="#linearGradient578"
         id="linearGradient716"
         x1="0.00000000"
         y1="0.00000000"
         x2="0.98666668"
         y2="1.00781250" />
      <linearGradient
         xlink:href="#linearGradient584"
         id="linearGradient717"
         x1="-0.00000000"
         y1="-0.00000000"
         x2="1.00833333"
         y2="0.99218750" />
      <linearGradient
         xlink:href="#linearGradient584"
         id="linearGradient718"
         x1="-0.45238096"
         y1="-0.23437500"
         x2="0.98888886"
         y2="1.00000000" />
      <linearGradient
         xlink:href="#linearGradient584"
         id="linearGradient719"
         x1="-0.13888890"
         y1="-0.14062500"
         x2="1.00961542"
         y2="1.00000000" />
      <linearGradient
         xlink:href="#linearGradient584"
         id="linearGradient720"
         x1="-0.00000000"
         y1="-0.00000000"
         x2="0.95454544"
         y2="0.99218750" />
      <linearGradient
         xlink:href="#linearGradient584"
         id="linearGradient1245"
         x1="0.00000000"
         y1="0.00000000"
         x2="0.97692305"
         y2="0.99218750" />
    </defs>
    <sodipodi:namedview
       id="namedview722"
       pagecolor="#ffffff"
       bordercolor="#666666"
       borderopacity="1.0"
       inkscape:pageopacity="0.0"
       inkscape:pageshadow="2"
       inkscape:zoom="5.64233870"
       inkscape:cx="29.1187138"
       inkscape:cy="23.1411472"
       inkscape:window-width="632"
       inkscape:window-height="516"
       inkscape:window-x="236"
       inkscape:window-y="67" />
    <linearGradient
       xlink:href="#linearGradient694"
       id="linearGradient693"
       x1="0.00000000"
       y1="0.00413223"
       x2="0.98843932"
       y2="0.98347110" />
    <linearGradient
       xlink:href="#linearGradient694"
       id="linearGradient697"
       x1="0.00729927"
       y1="0.00826446"
       x2="0.99270076"
       y2="0.99586779" />
    <sodipodi:namedview
       id="namedview700"
       pagecolor="#ffffff"
       bordercolor="#666666"
       borderopacity="1.0"
       inkscape:pageopacity="0.0"
       inkscape:pageshadow="2"
       inkscape:zoom="0.61399264"
       inkscape:cx="276.025421"
       inkscape:cy="250.151262"
       inkscape:window-width="640"
       inkscape:window-height="503"
       inkscape:window-x="98"
       inkscape:window-y="322" />
    <defs
       id="defs701">
      <linearGradient
         id="linearGradient702">
        <stop
           style="stop-color:#ffffff;stop-opacity:1;"
           offset="0"
           id="stop703" />
        <stop
           style="stop-color:#ffffff;stop-opacity:0;"
           offset="1"
           id="stop704" />
      </linearGradient>
      <linearGradient
         id="linearGradient646">
        <stop
           style="stop-color:#d9cce6;stop-opacity:1;"
           offset="0.00000000"
           id="stop647" />
        <stop
           style="stop-color:#73667f;stop-opacity:1;"
           offset="1.00000000"
           id="stop648" />
      </linearGradient>
      <defs
         id="defs588" />
      <linearGradient
         x1="0.03278688"
         y1="0.05468750"
         x2="0.96721309"
         y2="0.96093750"
         id="linearGradient649"
         xlink:href="#linearGradient646" />
      <linearGradient
         x1="-0.012345"
         y1="0.015622"
         x2="0.962963"
         y2="0.976562"
         id="linearGradient651"
         xlink:href="#linearGradient652" />
      <linearGradient
         x1="0.006135"
         y1="0.015626"
         x2="0.975460"
         y2="1.000000"
         id="linearGradient656"
         xlink:href="#linearGradient652" />
      <linearGradient
         x1="0.015757"
         y1="0.039054"
         x2="0.992126"
         y2="0.976562"
         id="linearGradient658"
         xlink:href="#linearGradient652" />
      <linearGradient
         x1="0.07142857"
         y1="0.06250001"
         x2="0.98214287"
         y2="0.95312500"
         id="linearGradient663"
         xlink:href="#linearGradient646" />
      <linearGradient
         x1="0.03571417"
         y1="0.10156250"
         x2="0.98214293"
         y2="0.97656244"
         id="linearGradient664"
         xlink:href="#linearGradient646" />
      <linearGradient
         x1="0.08928561"
         y1="0.08593744"
         x2="0.98214304"
         y2="0.96093750"
         id="linearGradient665"
         xlink:href="#linearGradient646" />
      <linearGradient
         x1="0.04464274"
         y1="0.09374994"
         x2="1.00892878"
         y2="0.99218732"
         id="linearGradient666"
         xlink:href="#linearGradient646" />
      <linearGradient
         x1="0.009712"
         y1="0.007812"
         x2="0.990291"
         y2="0.968750"
         id="linearGradient668"
         xlink:href="#linearGradient652" />
      <linearGradient
         id="linearGradient675"
         xlink:href="#linearGradient652" />
    </defs>
    <defs
       id="defs872">
      <linearGradient
         id="linearGradient873">
        <stop
           style="stop-color:#ffffff;stop-opacity:1;"
           offset="0.00000000"
           id="stop874" />
        <stop
           style="stop-color:#d9cce6;stop-opacity:1;"
           offset="1.00000000"
           id="stop875" />
      </linearGradient>
      <linearGradient
         id="linearGradient876">
        <stop
           style="stop-color:#ffffff;stop-opacity:1;"
           offset="0.00000000"
           id="stop877" />
        <stop
           style="stop-color:#ffffff;stop-opacity:0;"
           offset="1.00000000"
           id="stop878" />
      </linearGradient>
      <linearGradient
         id="linearGradient879">
        <stop
           style="stop-color:#d9cce6;stop-opacity:1;"
           offset="0.00000000"
           id="stop579" />
        <stop
           style="stop-color:#73667f;stop-opacity:1;"
           offset="1.00000000"
           id="stop580" />
      </linearGradient>
      <linearGradient
         xlink:href="#linearGradient584"
         id="linearGradient882"
         x1="-0.00684932"
         y1="0.00775194"
         x2="0.97945207"
         y2="1.00000000" />
      <linearGradient
         xlink:href="#linearGradient584"
         id="linearGradient883"
         x1="0.01094890"
         y1="0.01030928"
         x2="1.01459849"
         y2="0.96907216" />
      <linearGradient
         xlink:href="#linearGradient584"
         id="linearGradient860"
         x1="-0.02500000"
         y1="0.03100775"
         x2="0.97500002"
         y2="0.97674417" />
      <linearGradient
         xlink:href="#linearGradient578"
         id="linearGradient861"
         x1="0.00000000"
         y1="0.02325581"
         x2="0.98611110"
         y2="0.97674417" />
      <linearGradient
         xlink:href="#linearGradient578"
         id="linearGradient862"
         x1="-0.00000000"
         y1="0.00775194"
         x2="1.00000000"
         y2="0.99224806" />
      <linearGradient
         xlink:href="#linearGradient866"
         id="linearGradient869"
         x1="-0.00684932"
         y1="0.00775194"
         x2="0.97945207"
         y2="1.00000000" />
    </defs>
    <sodipodi:namedview
       id="namedview888"
       pagecolor="#ffffff"
       bordercolor="#666666"
       borderopacity="1.0"
       inkscape:pageopacity="0.0"
       inkscape:pageshadow="2"
       inkscape:zoom="5.64233871"
       inkscape:cx="30.8991131"
       inkscape:cy="23.4072540"
       inkscape:window-width="640"
       inkscape:window-height="516"
       inkscape:window-x="121"
       inkscape:window-y="328" />
    <sodipodi:namedview
       id="namedview993"
       inkscape:zoom="4.94399999"
       inkscape:cx="24.4443710"
       inkscape:cy="24.9155162"
       inkscape:window-width="400"
       inkscape:window-height="500"
       inkscape:window-x="342"
       inkscape:window-y="300" />
    <defs
       id="defs994">
      <linearGradient
         id="linearGradient595"
         x1="0.0000000"
         y1="0.50000000"
         x2="1.0000000"
         y2="0.50000000"
         gradientUnits="objectBoundingBox"
         spreadMethod="pad"
         xlink:href="#linearGradient1663" />
      <linearGradient
         id="linearGradient590"
         x1="0.0000000"
         y1="0.50000000"
         x2="1.0000000"
         y2="0.50000000"
         gradientUnits="objectBoundingBox"
         spreadMethod="pad"
         xlink:href="#linearGradient1660" />
      <linearGradient
         id="linearGradient1001">
        <stop
           style="stop-color:#d9cce6;stop-opacity:1;"
           offset="0.00000000"
           id="stop1002" />
        <stop
           style="stop-color:#73667f;stop-opacity:1;"
           offset="1.00000000"
           id="stop1003" />
      </linearGradient>
      <linearGradient
         x1="0.012048190"
         y1="0.015625000"
         x2="0.98795182"
         y2="1.0000000"
         id="linearGradient1004"
         xlink:href="#linearGradient584" />
      <linearGradient
         x1="0.011696000"
         y1="1.0000000e-06"
         x2="0.84210497"
         y2="0.90625000"
         id="linearGradient589"
         xlink:href="#linearGradient590" />
      <linearGradient
         x1="0.99218750"
         y1="0.98437500"
         x2="0.015625000"
         y2="0.0078125000"
         id="linearGradient594"
         xlink:href="#linearGradient595" />
      <linearGradient
         x1="1.0000000e-06"
         y1="0.023434000"
         x2="0.95238101"
         y2="0.97656202"
         id="linearGradient599"
         xlink:href="#linearGradient590" />
      <linearGradient
         id="linearGradient601"
         xlink:href="#linearGradient595" />
    </defs>
    <defs
       id="defs2428">
      <linearGradient
         id="linearGradient849">
        <stop
           offset="0.00000000"
           style="stop-color:#d9cce6;stop-opacity:1;"
           id="stop851" />
        <stop
           offset="1.00000000"
           style="stop-color:#73667f;stop-opacity:1;"
           id="stop850" />
      </linearGradient>
      <linearGradient
         id="linearGradient2432">
        <stop
           style="stop-color:#ffffff;stop-opacity:1;"
           offset="0.00000000"
           id="stop2433" />
        <stop
           style="stop-color:#d9cce6;stop-opacity:1;"
           offset="1.00000000"
           id="stop2434" />
      </linearGradient>
      <linearGradient
         id="linearGradient2435">
        <stop
           style="stop-color:#ffffff;stop-opacity:1;"
           offset="0.00000000"
           id="stop2436" />
        <stop
           style="stop-color:#ffffff;stop-opacity:0;"
           offset="1.00000000"
           id="stop2437" />
      </linearGradient>
      <linearGradient
         xlink:href="#linearGradient866"
         id="linearGradient2438"
         x1="-0.00000000"
         y1="0.01562500"
         x2="0.99122804"
         y2="0.98437500" />
      <linearGradient
         xlink:href="#linearGradient584"
         id="linearGradient2439"
         x1="0.00000000"
         y1="-0.00000000"
         x2="1.00000000"
         y2="1.00000000" />
      <defs
         id="defs2440">
        <linearGradient
           id="linearGradient2441">
          <stop
             style="stop-color:#ffffff;stop-opacity:1;"
             offset="0.00000000"
             id="stop2442" />
          <stop
             style="stop-color:#ffffff;stop-opacity:0;"
             offset="1.00000000"
             id="stop2443" />
        </linearGradient>
        <linearGradient
           id="linearGradient2444"
           x1="0.00000000"
           y1="0.00000000"
           x2="1.00000000"
           y2="0.00000000"
           gradientUnits="objectBoundingBox"
           spreadMethod="pad"
           xlink:href="#linearGradient849" />
        <linearGradient
           xlink:href="#linearGradient578"
           id="linearGradient2445"
           x1="0.00757576"
           y1="0.03100775"
           x2="0.99242425"
           y2="0.99224806" />
        <linearGradient
           xlink:href="#linearGradient584"
           id="linearGradient2446"
           x1="-0.01470588"
           y1="0.00775194"
           x2="0.97058821"
           y2="0.96124029" />
        <linearGradient
           xlink:href="#linearGradient584"
           id="linearGradient2447"
           x1="0.00729927"
           y1="0.04081633"
           x2="0.98175180"
           y2="0.91836733" />
        <linearGradient
           xlink:href="#linearGradient584"
           id="linearGradient2448"
           x1="-0.06250000"
           y1="0.00775194"
           x2="0.93750000"
           y2="0.98449612" />
      </defs>
      <sodipodi:namedview
         id="namedview2449"
         pagecolor="#ffffff"
         bordercolor="#666666"
         borderopacity="1.0"
         inkscape:pageopacity="0.0"
         inkscape:pageshadow="2"
         inkscape:zoom="5.64233875"
         inkscape:cx="26.3898759"
         inkscape:cy="25.2380417"
         inkscape:window-width="640"
         inkscape:window-height="516"
         inkscape:window-x="131"
         inkscape:window-y="62" />
      <linearGradient
         xlink:href="#linearGradient849"
         id="linearGradient2450" />
      <defs
         id="defs1014">
        <linearGradient
           id="linearGradient1015">
          <stop
             style="stop-color:#ffffff;stop-opacity:1;"
             offset="0.00000000"
             id="stop1016" />
          <stop
             style="stop-color:#ffffff;stop-opacity:0;"
             offset="1.00000000"
             id="stop1017" />
        </linearGradient>
        <linearGradient
           id="linearGradient1018">
          <stop
             style="stop-color:#d9cce6;stop-opacity:1;"
             offset="0.00000000"
             id="stop2456" />
          <stop
             style="stop-color:#73667f;stop-opacity:1;"
             offset="1.00000000"
             id="stop2457" />
        </linearGradient>
        <linearGradient
           xlink:href="#linearGradient578"
           id="linearGradient1021"
           x1="0.00694444"
           y1="0.02142857"
           x2="0.98611110"
           y2="0.97857141" />
        <linearGradient
           xlink:href="#linearGradient584"
           id="linearGradient1022"
           x1="0.01538462"
           y1="0.01428571"
           x2="0.96923077"
           y2="0.98571426" />
        <linearGradient
           xlink:href="#linearGradient584"
           id="linearGradient612"
           x1="0.00342466"
           y1="-0.50000000"
           x2="0.74657536"
           y2="0.63157892" />
        <linearGradient
           xlink:href="#linearGradient584"
           id="linearGradient614"
           x1="0.01052632"
           y1="0.02857143"
           x2="0.97894734"
           y2="0.95714283" />
      </defs>
      <sodipodi:namedview
         id="namedview1025"
         pagecolor="#ffffff"
         bordercolor="#666666"
         borderopacity="1.0"
         inkscape:pageopacity="0.0"
         inkscape:pageshadow="2"
         inkscape:zoom="5.64233871"
         inkscape:cx="24.9004784"
         inkscape:cy="23.6627219"
         inkscape:window-width="640"
         inkscape:window-height="516"
         inkscape:window-x="179"
         inkscape:window-y="79" />
    </defs>
    <sodipodi:namedview
       id="namedview2463"
       pagecolor="#ffffff"
       bordercolor="#666666"
       borderopacity="1.0"
       inkscape:pageopacity="0.0"
       inkscape:pageshadow="2"
       inkscape:zoom="7.99999999"
       inkscape:cx="43.6730404"
       inkscape:cy="17.5032654"
       inkscape:window-width="951"
       inkscape:window-height="565"
       inkscape:window-x="108"
       inkscape:window-y="345">
      <sodipodi:guide
         orientation="vertical"
         position="83.7500001"
         id="guide630" />
    </sodipodi:namedview>
  </defs>
  <sodipodi:namedview
     id="base"
     pagecolor="#ffffff"
     bordercolor="#666666"
     borderopacity="1.0"
     inkscape:pageopacity="0.0"
     inkscape:pageshadow="2"
     inkscape:zoom="8"
     inkscape:cx="14.6142750"
     inkscape:cy="14.3860855"
     inkscape:window-width="641"
     inkscape:window-height="586"
     inkscape:window-x="628"
     inkscape:window-y="382" />
  <metadata
     id="metadata88">
    <rdf:RDF
       id="RDF89">
      <cc:Work
         rdf:about=""
         id="Work90">
        <dc:format
           id="format91">image/svg+xml</dc:format>
        <dc:type
           id="type93"
           rdf:resource="http://purl.org/dc/dcmitype/StillImage" />
      </cc:Work>
    </rdf:RDF>
  </metadata>
  <path
     d="M 3.6991111,28.715643 C 4.1733602,30.132502 23.812420,36.503409 25.101867,35.434308 C 26.256059,34.467287 34.892333,5.6838596 34.314076,4.5423341 C 33.712995,3.2838035 13.787817,0.14902047 12.842054,1.0098202 C 11.677076,2.0763517 3.2010291,27.089981 3.6991111,28.715643 z "
     style="font-size:12.000000;opacity:0.30267498;fill-rule:evenodd;stroke-width:12.500000;"
     id="path639" />
  <path
     d="M 3.7666228,27.542961 C 4.2103418,28.868540 22.584168,34.829015 23.790540,33.828787 C 24.870375,32.924066 32.950277,5.9949586 32.409274,4.9269513 C 31.846917,3.7494992 13.205382,0.81669228 12.320547,1.6220363 C 11.230623,2.6198584 3.3006283,26.022030 3.7666228,27.542961 z "
     style="font-size:12.000000;fill:url(#linearGradient586);fill-rule:evenodd;stroke:#261933;stroke-width:1.0999527;"
     id="path634" />
  <path
     d="M 5.0167195,26.301273 C 4.8249637,25.815472 12.444095,3.2280138 13.156397,2.7622012 C 14.046628,2.1546677 28.437816,4.8441055 28.629122,5.3287665 C 28.804469,5.7729729 17.401055,3.6987542 14.864058,5.9680315 C 9.9983183,10.198085 5.1916149,26.744363 5.0167195,26.301273 z "
     style="font-size:12.000000;opacity:0.69993597;fill:url(#linearGradient587);fill-rule:evenodd;stroke:none;stroke-width:0.10012100pt;"
     id="path640" />
  <path
     style="font-size:12.000000;font-weight:normal;fill:#261933;stroke-width:1.0000000pt;font-family:Radio Stars;"
     d="M 25.744711,18.037785 C 25.505401,18.741776 25.042474,19.010135 24.355931,18.842863 L 17.207811,17.101256 L 16.785497,18.343594 L 23.933619,20.085201 C 24.256696,20.163918 24.473910,20.328943 24.585256,20.580277 C 24.696604,20.831611 24.703006,21.102219 24.604467,21.392097 C 24.505927,21.681976 24.330598,21.908304 24.078481,22.071083 C 23.826364,22.233860 23.538766,22.275891 23.215686,22.197174 L 14.023082,19.957439 L 15.522292,15.547140 C 15.761603,14.843149 16.219481,14.573559 16.895928,14.738372 L 24.059193,16.483669 L 24.481505,15.241331 L 17.318240,13.496035 C 16.995160,13.417318 16.777947,13.252293 16.666602,13.000958 C 16.565352,12.752084 16.563996,12.482706 16.662535,12.192828 C 16.761076,11.902949 16.931356,11.675391 17.173377,11.510153 C 17.425494,11.347375 17.713093,11.305344 18.036172,11.384061 L 26.214107,13.376576 C 26.900649,13.543849 27.124265,13.979482 26.884955,14.683474 L 25.744711,18.037785 z M 12.570008,18.443141 C 12.457391,18.774431 12.268448,19.008653 12.003176,19.145806 C 11.751520,19.275065 11.484345,19.305256 11.201651,19.236379 C 10.929053,19.169962 10.721706,19.024155 10.579610,18.798960 C 10.441032,18.563412 10.428051,18.279992 10.540668,17.948701 L 11.965974,13.755812 C 11.595297,13.945755 11.263565,14.005058 10.970775,13.933722 C 10.708273,13.869764 10.521348,13.712118 10.410002,13.460784 C 10.308752,13.211909 10.305637,12.947709 10.400658,12.668183 C 10.509754,12.347246 10.727689,12.092062 11.054461,11.902632 L 13.357007,10.580312 C 13.751857,10.351417 14.100724,10.273868 14.403611,10.347666 C 14.656017,10.409163 14.822747,10.561888 14.903805,10.805844 C 14.994960,11.052258 14.977190,11.361816 14.850495,11.734518 L 12.570008,18.443141 z "
     id="path636" />
  <path
     style="font-size:12.000000;fill:#261933;fill-opacity:1.0000000;fill-rule:evenodd;stroke:none;stroke-width:1.0000000pt;"
     d="M 12.495075,1.6111187 C 12.078536,1.6111187 10.541429,4.8916002 10.858067,4.9736215 C 16.605991,6.4183115 25.280758,7.8723131 31.519761,8.7343156 C 31.971671,8.7935477 33.002366,4.9923752 32.271901,4.7966477 C 26.891410,2.8143616 18.510261,1.6111187 12.495075,1.6111187 z "
     id="path635"
     sodipodi:nodetypes="cssss" />
  <path
     style="font-size:8.0000000;font-style:normal;font-variant:normal;font-weight:normal;font-stretch:normal;fill:#261933;fill-opacity:1.0000000;stroke:none;stroke-width:1.0000000pt;stroke-linecap:butt;stroke-linejoin:miter;stroke-opacity:1.0000000;font-family:Radio Stars;text-anchor:start;writing-mode:lr;"
     d="M 23.629039,27.502872 L 21.302418,28.370643 L 20.885305,29.759523 C 20.838197,29.916373 20.749815,30.023470 20.620161,30.080816 C 20.490499,30.138161 20.356614,30.144065 20.218502,30.098532 C 20.075272,30.051310 19.970537,29.969515 19.904295,29.853145 C 19.825743,29.721595 19.810020,29.577396 19.857128,29.420546 L 20.274240,28.031665 L 18.841108,25.924347 C 18.736423,25.767503 18.706875,25.613185 18.752462,25.461392 C 18.795008,25.319725 18.885947,25.213470 19.025280,25.142629 C 19.161016,25.065049 19.300497,25.049868 19.443727,25.097085 C 19.556262,25.134191 19.651527,25.210083 19.729522,25.324763 C 20.169273,25.975767 20.610822,26.630140 21.054173,27.287883 L 23.228395,26.478300 C 23.349894,26.429391 23.469471,26.424330 23.587129,26.463115 C 23.725237,26.508653 23.828731,26.603940 23.897613,26.748980 C 23.971599,26.895711 23.988082,27.037380 23.947059,27.173989 C 23.899949,27.330841 23.793943,27.440469 23.629039,27.502872 M 16.489410,27.617948 L 14.456074,26.947581 L 13.568719,27.655948 C 13.412672,27.782441 13.245131,27.816176 13.066096,27.757150 C 12.927982,27.711615 12.817092,27.622230 12.733428,27.488995 C 12.656397,27.352386 12.639154,27.213246 12.681703,27.071575 C 12.710572,26.975441 12.769376,26.891956 12.858112,26.821119 L 15.549579,24.513871 C 15.897326,24.217036 16.181179,24.104875 16.401141,24.177390 C 16.554598,24.227986 16.675236,24.331708 16.763058,24.488552 C 16.818509,24.584687 16.876953,24.745751 16.938387,24.971745 L 17.876232,28.475533 C 17.905143,28.585158 17.905166,28.688037 17.876300,28.784173 C 17.833748,28.925842 17.744328,29.027036 17.608041,29.087756 C 17.471743,29.148472 17.331982,29.155221 17.188758,29.108001 C 17.014833,29.050661 16.897715,28.925858 16.837404,28.733595 L 16.489410,27.617948 M 15.256746,26.218977 L 16.231213,26.540248 L 15.972632,25.604218 L 15.256746,26.218977 M 12.118461,26.869198 C 12.069831,27.031107 11.980689,27.140734 11.851037,27.198080 C 11.722892,27.250364 11.589767,27.253740 11.451658,27.208207 C 11.313541,27.162671 11.206247,27.080033 11.129778,26.960290 C 11.054818,26.835486 11.041654,26.692129 11.090284,26.530221 L 11.539306,25.035087 L 9.8879752,26.434108 C 9.6977882,26.599393 9.5208517,26.655052 9.3571646,26.601087 C 9.1985873,26.548805 9.0839516,26.397019 9.0132571,26.145725 L 8.4240822,24.008034 L 7.9750590,25.503168 C 7.9264324,25.665077 7.8372910,25.774704 7.7076343,25.832050 C 7.5846101,25.886022 7.4514845,25.889396 7.3082567,25.842176 C 7.1701427,25.796641 7.0628489,25.714003 6.9863754,25.594259 C 6.9114206,25.469456 6.8982558,25.326099 6.9468814,25.164190 L 7.9315415,21.885521 C 7.9862435,21.703376 8.0755880,21.574353 8.1995754,21.498453 C 8.3235593,21.422561 8.4494935,21.405693 8.5773784,21.447850 C 8.7717579,21.511939 8.9035374,21.672160 8.9727174,21.928510 L 9.8221430,25.052826 L 12.233729,23.003626 C 12.435656,22.836657 12.631256,22.784371 12.820529,22.846766 C 12.948405,22.888931 13.039872,22.977473 13.094928,23.112393 C 13.155087,23.249004 13.157818,23.408383 13.103121,23.590529 L 12.118461,26.869198"
     id="text3203" />
</svg>
