<?xml version="1.0" encoding="UTF-8" standalone="no"?>
<!DOCTYPE svg PUBLIC "-//W3C//DTD SVG 20010904//EN"
"http://www.w3.org/TR/2001/REC-SVG-20010904/DTD/svg10.dtd">
<!-- Created with Inkscape (http://www.inkscape.org/) -->
<svg
   version="1.0"
   x="0.0000000"
   y="0.0000000"
   width="60.000000"
   height="60.000000"
   id="svg867"
   xmlns="http://www.w3.org/2000/svg"
   xmlns:xlink="http://www.w3.org/1999/xlink"
   xmlns:sodipodi="http://sodipodi.sourceforge.net/DTD/sodipodi-0.dtd"
   xmlns:inkscape="http://www.inkscape.org/namespaces/inkscape"
   sodipodi:version="0.32"
   inkscape:version="0.38"
   sodipodi:docname="gnome-emacs.svg"
   sodipodi:docbase="/home/bkeil/Desktop">
  <sodipodi:namedview
     id="base"
     pagecolor="#ffffff"
     bordercolor="#666666"
     borderopacity="1.0"
     inkscape:pageopacity="0.0"
     inkscape:pageshadow="2"
     inkscape:zoom="7.8958333"
     inkscape:cx="24.000000"
     inkscape:cy="24.000000"
     inkscape:window-width="640"
     inkscape:window-height="501"
     inkscape:window-x="7"
     inkscape:window-y="87" />
  <defs
     id="defs869">
    <linearGradient
       id="linearGradient902">
      <stop
         style="stop-color:#5c4033;stop-opacity:1.0000000;"
         offset="0.0000000"
         id="stop903" />
      <stop
         style="stop-color:#cd7f32;stop-opacity:1.0000000;"
         offset="1.0000000"
         id="stop904" />
    </linearGradient>
    <linearGradient
       id="linearGradient897">
      <stop
         style="stop-color:#ffffff;stop-opacity:1.0000000;"
         offset="0.0000000"
         id="stop898" />
      <stop
         style="stop-color:#ffffff;stop-opacity:0.0000000;"
         offset="1.0000000"
         id="stop899" />
    </linearGradient>
    <linearGradient
       id="linearGradient850">
      <stop
         style="stop-color:#73667f;stop-opacity:1.0000000;"
         offset="0.0000000"
         id="stop851" />
      <stop
         style="stop-color:#d9cce6;stop-opacity:1.0000000;"
         offset="1.0000000"
         id="stop852" />
    </linearGradient>
    <linearGradient
       id="linearGradient895">
      <stop
         style="stop-color:#0000ff;stop-opacity:1.0000000;"
         offset="0.0000000"
         id="stop896" />
      <stop
         style="stop-color:#0000cc;stop-opacity:1.0000000;"
         offset="1.0000000"
         id="stop897" />
    </linearGradient>
    <linearGradient
       id="linearGradient873">
      <stop
         style="stop-color:#ffffff;stop-opacity:1.0000000;"
         offset="0.0000000"
         id="stop874" />
      <stop
         style="stop-color:#d9cce6;stop-opacity:1.0000000;"
         offset="1.0000000"
         id="stop875" />
    </linearGradient>
    <linearGradient
       x1="0.10144927"
       y1="0.90625000"
       x2="0.89855075"
       y2="0.30468750"
       id="linearGradient876"
       xlink:href="#linearGradient902" />
    <linearGradient
       x1="0.36000001"
       y1="0.46093750"
       x2="1.2800000"
       y2="1.0468750"
       id="linearGradient878"
       xlink:href="#linearGradient850" />
    <linearGradient
       x1="0.28571430"
       y1="0.35156250"
       x2="0.48571429"
       y2="0.57031250"
       id="linearGradient894"
       xlink:href="#linearGradient895" />
    <linearGradient
       x1="-0.26966292"
       y1="0.015625000"
       x2="0.82584268"
       y2="0.77343750"
       id="linearGradient847"
       xlink:href="#linearGradient897" />
    <linearGradient
       x1="0.083333336"
       y1="0.11718750"
       x2="0.85000002"
       y2="0.81250000"
       id="linearGradient848"
       xlink:href="#linearGradient850" />
    <linearGradient
       x1="0.55769229"
       y1="0.64062500"
       x2="0.51923078"
       y2="0.13281250"
       id="linearGradient849"
       xlink:href="#linearGradient897" />
    <linearGradient
       x1="-1.8041124e-16"
       y1="0.50000000"
       x2="1.0000000"
       y2="0.50000000"
       id="linearGradient896"
       xlink:href="#linearGradient850" />
    <linearGradient
       x1="0.90277779"
       y1="0.89843750"
       x2="0.076388888"
       y2="0.18750000"
       id="linearGradient905"
       xlink:href="#linearGradient902" />
    <linearGradient
       x1="0.044281919"
       y1="0.070287913"
       x2="0.62431163"
       y2="0.50781220"
       id="linearGradient911"
       xlink:href="#linearGradient897" />
    <linearGradient
       x1="-0.34782609"
       y1="0.0078125000"
       x2="0.95652175"
       y2="0.82031250"
       id="linearGradient913"
       xlink:href="#linearGradient897" />
    <linearGradient
       x1="0.0058823531"
       y1="0.0078125000"
       x2="1.0000000"
       y2="0.96875000"
       id="linearGradient915"
       xlink:href="#linearGradient897" />
    <linearGradient
       x1="-0.059829060"
       y1="0.054687500"
       x2="0.61965811"
       y2="0.66406250"
       id="linearGradient919"
       xlink:href="#linearGradient897" />
    <linearGradient
       x1="-0.064705886"
       y1="0.015625000"
       x2="0.69411767"
       y2="0.75000000"
       id="linearGradient920"
       xlink:href="#linearGradient897" />
    <linearGradient
       x1="0.013888889"
       y1="-0.26744187"
       x2="0.92361110"
       y2="0.76744187"
       id="linearGradient921"
       xlink:href="#linearGradient897" />
    <defs
       id="defs882">
      <linearGradient
         id="linearGradient883">
        <stop
           style="stop-color:#5c4033;stop-opacity:1.0000000;"
           offset="0.0000000"
           id="stop884" />
        <stop
           style="stop-color:#cd7f32;stop-opacity:1.0000000;"
           offset="1.0000000"
           id="stop885" />
      </linearGradient>
      <linearGradient
         id="linearGradient886">
        <stop
           style="stop-color:#ffffff;stop-opacity:1.0000000;"
           offset="0.0000000"
           id="stop887" />
        <stop
           style="stop-color:#ffffff;stop-opacity:0.0000000;"
           offset="1.0000000"
           id="stop888" />
      </linearGradient>
      <linearGradient
         id="linearGradient889">
        <stop
           style="stop-color:#73667f;stop-opacity:1.0000000;"
           offset="0.0000000"
           id="stop890" />
        <stop
           style="stop-color:#d9cce6;stop-opacity:1.0000000;"
           offset="1.0000000"
           id="stop891" />
      </linearGradient>
      <linearGradient
         id="linearGradient892">
        <stop
           style="stop-color:#0000ff;stop-opacity:1.0000000;"
           offset="0.0000000"
           id="stop893" />
        <stop
           style="stop-color:#0000cc;stop-opacity:1.0000000;"
           offset="1.0000000"
           id="stop894" />
      </linearGradient>
      <linearGradient
         id="linearGradient898">
        <stop
           style="stop-color:#ffffff;stop-opacity:1.0000000;"
           offset="0.0000000"
           id="stop900" />
        <stop
           style="stop-color:#d9cce6;stop-opacity:1.0000000;"
           offset="1.0000000"
           id="stop901" />
      </linearGradient>
      <linearGradient
         x1="0.10144927"
         y1="0.90625000"
         x2="0.89855075"
         y2="0.30468750"
         id="linearGradient903"
         xlink:href="#linearGradient902" />
      <linearGradient
         x1="0.36000001"
         y1="0.46093750"
         x2="1.2800000"
         y2="1.0468750"
         id="linearGradient904"
         xlink:href="#linearGradient850" />
      <linearGradient
         x1="0.28571430"
         y1="0.35156250"
         x2="0.48571429"
         y2="0.57031250"
         id="linearGradient906"
         xlink:href="#linearGradient895" />
      <linearGradient
         x1="-0.26966292"
         y1="0.015625000"
         x2="0.82584268"
         y2="0.77343750"
         id="linearGradient907"
         xlink:href="#linearGradient897" />
      <linearGradient
         x1="0.083333336"
         y1="0.11718750"
         x2="0.85000002"
         y2="0.81250000"
         id="linearGradient908"
         xlink:href="#linearGradient850" />
      <linearGradient
         x1="0.55769229"
         y1="0.64062500"
         x2="0.51923078"
         y2="0.13281250"
         id="linearGradient909"
         xlink:href="#linearGradient897" />
      <linearGradient
         x1="-1.8041124e-16"
         y1="0.50000000"
         x2="1.0000000"
         y2="0.50000000"
         id="linearGradient910"
         xlink:href="#linearGradient850" />
      <linearGradient
         x1="0.90277779"
         y1="0.89843750"
         x2="0.076388888"
         y2="0.18750000"
         id="linearGradient912"
         xlink:href="#linearGradient902" />
      <linearGradient
         x1="0.044281919"
         y1="0.070287913"
         x2="0.62431163"
         y2="0.50781220"
         id="linearGradient914"
         xlink:href="#linearGradient897" />
      <linearGradient
         x1="-0.34782609"
         y1="0.0078125000"
         x2="0.95652175"
         y2="0.82031250"
         id="linearGradient916"
         xlink:href="#linearGradient897" />
      <linearGradient
         x1="0.0058823531"
         y1="0.0078125000"
         x2="1.0000000"
         y2="0.96875000"
         id="linearGradient917"
         xlink:href="#linearGradient897" />
      <linearGradient
         x1="-0.059829060"
         y1="0.054687500"
         x2="0.61965811"
         y2="0.66406250"
         id="linearGradient918"
         xlink:href="#linearGradient897" />
      <linearGradient
         x1="-0.064705886"
         y1="0.015625000"
         x2="0.69411767"
         y2="0.75000000"
         id="linearGradient922"
         xlink:href="#linearGradient897" />
      <linearGradient
         x1="0.013888889"
         y1="-0.26744187"
         x2="0.92361110"
         y2="0.76744187"
         id="linearGradient923"
         xlink:href="#linearGradient897" />
    </defs>
  </defs>
  <path
     d="M 16.153583,29.151152 C 17.177082,27.308854 17.323957,23.134818 19.940531,21.474906 C 22.197339,19.984942 25.467428,19.700841 28.230877,18.813808 C 25.910945,20.007890 22.437738,21.607780 20.349931,23.214855 C 18.661305,24.453921 17.620599,27.615903 16.153583,29.151152 z "
     style="fill:url(#linearGradient847);fill-rule:evenodd;stroke-width:1.0000000pt;"
     id="path909" />
  <path
     d="M 24.648629,29.151152 C 23.795712,31.368735 22.271919,33.546619 22.089880,35.803899 C 21.930753,37.777084 23.932179,43.207212 24.853329,45.117745 C 24.239229,43.070745 22.848106,37.721792 23.011029,35.701550 C 23.189273,33.491327 24.102762,31.334618 24.648629,29.151152 z "
     style="fill:url(#linearGradient913);fill-rule:evenodd;stroke-width:1.0000000pt;"
     id="path912" />
  <path
     d="M 7.0444367,11.342260 C 7.8291197,9.9093613 8.4602777,8.5105787 10.421985,6.5318130 C 12.486043,4.5530473 14.754800,4.5530472 16.870032,3.8707142 C 15.130084,4.7918637 13.100143,5.6788967 11.650184,6.7365128 C 10.200226,7.7941290 8.2044028,10.148178 7.0444367,11.342260 z "
     style="fill:url(#linearGradient920);fill-rule:evenodd;stroke-width:1.0000000pt;"
     id="path914" />
  <path
     d="M 20.452280,16.920334 C 21.134613,15.385085 22.686921,13.986302 24.546279,12.519286 C 26.405637,10.949919 28.674394,11.256970 30.584926,11.802836 C 28.435578,11.905186 27.531485,11.973420 25.058028,13.133387 C 22.993970,14.293353 22.021647,15.623901 20.452280,16.920334 z "
     style="fill:url(#linearGradient919);fill-rule:evenodd;stroke-width:1.0000000pt;"
     id="path916" />
  <path
     d="M 35.674648,14.374446 C 35.904890,13.169377 35.954587,12.761993 36.828273,12.379649 C 37.709417,11.989848 40.649337,12.996920 42.662220,14.156885 C 40.329788,13.383371 37.848836,13.219345 37.447019,13.277130 C 37.045203,13.327459 36.419053,13.515946 35.674648,14.374446 z "
     style="fill:url(#linearGradient921);fill-rule:evenodd;stroke-width:1.0000000pt;"
     id="path917" />
  <path
     d="M 45.779247,6.6489314 C 46.964467,5.5523711 49.095534,4.7700657 50.772996,4.3409236 C 52.461158,3.9117816 53.480856,4.3453911 55.718864,5.8081918 C 53.505318,5.2336486 52.167617,5.3246883 51.601522,5.3504824 C 51.024728,5.3762764 49.167568,5.0315065 45.779247,6.6489314 z "
     style="fill:url(#linearGradient919);fill-rule:evenodd;stroke-width:1.0000000pt;"
     id="path922" />
  <path
     d="M 16.741112,2.8286638 C 15.597662,2.9199828 14.458637,3.1509513 13.449975,3.5053462 C 11.572345,4.1650538 9.6934623,5.5685570 8.4056153,7.1040665 C 6.9564673,8.8318967 5.8556943,11.103525 5.2375113,13.286484 C 4.7328253,15.068658 4.7885003,17.126615 5.0222033,18.976768 C 5.2095753,20.460133 5.7353573,22.026649 6.4986013,23.313687 C 7.5249313,25.044360 8.8215953,26.913729 10.404904,28.050464 C 11.408608,28.771072 12.827951,28.893712 14.126658,29.096246 C 13.971549,29.920345 13.867389,32.029142 13.665283,32.448900 C 13.437200,32.922611 13.743687,33.632025 13.357700,34.263639 C 12.971713,34.895255 11.625915,35.771673 11.327652,36.262928 C 11.029390,36.754183 10.969519,36.676465 10.251113,37.923876 C 11.427678,37.669608 11.105874,37.927549 12.404192,37.524018 C 12.803709,37.399844 14.833595,36.565373 16.679596,35.832312 C 16.725964,36.464246 16.748799,36.997161 16.802629,37.677810 C 16.792821,38.574286 16.761691,39.483685 16.802629,40.261506 C 16.854952,41.255636 17.013872,42.196231 17.202487,43.152786 C 17.216393,43.334696 17.652125,44.819900 17.756136,45.152075 C 18.129668,46.204523 18.517380,47.244511 18.955709,48.258662 C 20.934067,50.499093 22.416008,53.171930 25.691776,55.271553 C 28.110670,56.617257 29.617741,56.043739 31.166752,56.378852 C 31.265547,56.395191 31.286048,56.394072 31.382060,56.409610 C 32.573114,57.660517 33.777766,58.868610 34.396372,59.300889 C 35.852594,60.213221 38.782254,59.801685 39.133149,59.731506 C 39.484046,59.661326 38.258046,59.476338 37.872059,59.300889 C 37.486073,59.125441 37.019270,59.019077 36.826278,58.685724 C 36.633284,58.352372 36.720790,57.529682 36.703244,57.301600 C 36.687534,57.097368 36.842466,56.312862 37.164619,55.702169 C 37.172006,55.688167 37.187749,55.685245 37.195377,55.671411 C 37.197637,55.662329 37.193187,55.649738 37.195377,55.640653 C 37.221327,55.595193 37.197433,55.560672 37.226135,55.517619 C 37.647211,54.886006 38.742611,54.449304 39.040875,54.133496 C 39.339137,53.817689 40.509048,52.853764 40.824856,52.257240 C 41.140663,51.660716 40.969764,51.056790 40.917130,50.565534 C 40.864496,50.074279 40.499727,49.707974 40.517273,49.304444 C 40.534817,48.900913 39.737019,48.249876 37.441443,48.258662 C 37.704616,47.960400 41.524510,47.678368 42.085946,47.520463 C 42.647380,47.362560 43.971742,47.546232 44.392818,47.212880 C 44.813894,46.879528 44.590580,46.047521 44.608126,45.521174 C 44.625670,44.994830 44.305311,44.448307 44.515851,44.044776 C 44.726389,43.641245 45.518319,43.459712 45.869216,43.091269 C 46.220112,42.722827 46.747772,42.286343 46.607415,41.830179 C 46.467056,41.374014 45.196644,40.757314 45.038742,40.353781 C 44.880838,39.950250 45.285466,39.821351 45.653908,39.400274 C 46.022349,38.979198 46.884898,38.305313 47.253339,37.831601 C 47.621781,37.357891 47.833416,37.324939 47.868505,36.570511 C 47.903595,35.816084 47.665971,33.906658 47.437888,33.310132 C 47.209806,32.713607 46.988849,32.954246 46.515140,32.971791 C 46.041430,32.989335 45.046746,33.507676 44.608126,33.402407 C 44.169504,33.297138 43.975197,32.602252 43.869927,32.356625 C 43.764657,32.110998 43.979745,32.329540 43.962201,31.926009 C 43.944657,31.522478 43.592391,30.658158 43.531585,30.080511 C 43.470781,29.502866 42.960643,29.770101 43.070211,27.189232 C 43.853890,29.251204 44.169756,29.507969 44.915708,30.142028 C 45.573343,30.701018 46.429059,31.133643 47.253339,31.403118 C 48.253721,31.730166 49.332554,31.843019 50.390685,31.926009 C 51.122127,31.983377 52.009684,32.085716 52.605282,31.833734 C 52.922016,31.699731 53.182310,31.017823 53.497272,30.142028 C 52.775358,30.419015 52.102231,30.695948 51.867083,30.357336 C 51.224987,29.432719 51.104371,28.017414 50.513718,26.973924 C 50.392598,26.759945 52.004812,26.450356 52.912865,26.235725 C 53.839634,26.016671 54.792039,25.549163 55.558078,24.974635 C 56.476344,24.285935 57.399125,23.433885 57.987983,22.452455 C 58.767622,21.153055 59.363630,19.639925 59.648931,18.146294 C 59.960154,16.516945 59.850016,14.780010 59.771964,13.101934 C 59.709655,11.762297 59.728971,10.326324 59.249073,9.1033555 C 58.641192,7.5542392 57.744716,5.8155178 56.511585,4.7664362 C 55.393707,3.8154063 53.627578,3.1492383 52.174666,3.0747301 C 50.890581,3.0088796 49.592198,3.9299550 48.299121,4.3665784 C 46.890292,4.8422867 45.457828,5.6597075 44.085235,5.8122182 C 43.562987,5.8702456 43.176606,5.7321033 42.608837,4.9817443 C 42.500130,5.4456155 42.405533,5.8174750 42.516562,6.1505594 C 42.616072,6.4490891 42.927959,6.7214290 43.224002,6.8887584 C 43.735020,7.1775946 44.328385,7.4361562 44.915708,7.5039243 C 46.153048,7.6466941 47.474252,7.3224837 48.698978,7.5039243 C 49.369097,7.6032010 50.040107,7.9828024 50.605993,8.3651565 C 51.338427,8.8600444 52.063155,9.4574605 52.605282,10.149137 C 53.080757,10.755778 53.483074,11.492387 53.651064,12.240702 C 53.869061,13.211782 53.835916,14.276084 53.774097,15.285773 C 53.730645,15.995478 53.649354,16.781058 53.343481,17.408095 C 52.947559,18.219734 52.308178,19.014909 51.651775,19.622692 C 51.360759,19.892151 50.903271,20.079277 50.513718,20.053308 C 49.850582,20.009099 49.028491,19.843219 48.514429,19.407384 C 47.414366,18.474722 46.631892,17.063089 45.653908,15.931697 C 44.842318,14.992798 44.089446,13.963804 43.131728,13.194209 C 42.124424,12.384769 40.961011,12.098310 39.779074,11.625536 C 39.206526,11.396517 38.498481,11.064680 37.872059,11.102645 C 37.340523,11.134859 36.786602,11.200834 36.303387,11.410228 C 35.733911,11.657001 35.072141,12.001192 34.703955,12.456010 C 34.475617,12.738076 34.398708,13.283064 34.488647,13.624825 C 34.530417,13.783546 34.656236,14.241420 34.888505,14.793640 C 34.744633,14.775830 34.601761,14.749934 34.457889,14.732123 C 34.456921,14.711809 34.490683,14.690557 34.488647,14.670607 C 34.390378,13.707592 33.559087,12.462241 32.704666,11.840844 C 31.629155,11.058653 30.069236,10.683912 28.706088,10.456720 C 27.753317,10.297925 26.607028,10.257018 25.753292,10.672028 C 24.080572,11.485157 22.491774,12.795490 21.139548,14.147716 C 19.649511,15.637753 18.746671,17.769003 17.233245,19.192076 C 16.395664,19.979652 15.070370,20.760749 14.065141,20.760749 C 13.315887,20.760748 12.383445,19.909344 11.973576,19.192076 C 11.400933,18.189951 11.143102,16.819711 11.143102,15.624114 C 11.143102,14.328344 11.367118,12.848774 11.973576,11.717811 C 12.665435,10.427587 13.840401,9.2638197 15.018648,8.3651565 C 15.910692,7.6847842 17.109670,7.3400608 18.186752,6.9810333 C 18.583436,6.8488052 19.028042,6.8570754 19.447842,6.8887584 C 20.887794,6.9974342 22.318193,7.3898947 23.754003,7.4116494 C 24.634111,7.4249844 25.721924,7.4067601 26.399216,6.9810333 C 26.950063,6.6347871 27.421605,5.4088880 27.444998,5.1047774 C 27.033853,5.5567850 26.828870,5.5211279 26.491491,5.6276684 C 26.162166,5.7316658 25.765368,5.8509511 25.445709,5.7199433 C 23.624898,4.9737090 21.995021,3.3326863 20.093766,2.9824552 C 19.044282,2.7891292 17.884563,2.7373447 16.741112,2.8286638 z "
     style="fill-opacity:0.29999998;fill-rule:evenodd;stroke-width:1.8750000;"
     id="path880" />
  <path
     d="M 29.844021,34.211439 C 25.216638,33.916812 18.821490,32.270365 14.194107,31.975738 C 14.339546,34.729504 14.811274,39.996800 15.012252,42.739501 C 15.590909,44.250409 16.073583,45.818044 16.711484,47.293937 C 18.721469,49.570185 20.227440,52.277872 23.555575,54.411060 C 26.013137,55.778277 27.542346,55.188124 29.116119,55.528594 C 33.198027,56.203702 34.930248,56.213855 35.251300,54.800693 C 35.794521,52.617588 34.350087,50.329288 34.939342,45.441939"
     style="fill:url(#linearGradient878);fill-rule:evenodd;stroke-width:1.0000000pt;"
     id="path907"
     transform="matrix(0.984265,0.000000,0.000000,0.984265,-1.096300,0.318982)" />
  <path
     d="M 22.343750,11.968750 C 22.343750,11.968750 21.562732,15.165838 21.062500,17.125000 C 13.495841,19.338229 13.466619,25.148295 13.468750,25.593750 C 13.470979,26.059437 11.973039,27.152184 11.875000,27.375000 C 11.678921,27.820633 11.575479,30.737467 11.343750,31.218750 C 11.112021,31.700034 11.423407,32.420789 11.031250,33.062500 C 10.639093,33.704213 9.2717803,34.594641 8.9687500,35.093750 C 8.6657196,35.592858 8.6048916,35.513898 7.8750000,36.781250 C 9.0703749,36.522917 8.7434270,36.784982 10.062500,36.375000 C 10.722037,36.170009 16.269385,34.012645 17.125000,33.593750 C 17.714512,33.305134 20.432320,28.781770 20.818403,28.549068 C 20.839746,28.819777 18.123435,33.747155 18.187500,33.906250 C 18.217158,37.290124 18.977130,40.824256 20.875542,43.738681 C 22.978959,46.757090 23.230893,48.401235 25.031250,50.593750 C 26.724654,52.893215 30.926748,57.466132 32.406250,58.500000 C 33.885751,59.426916 36.862245,59.008801 37.218750,58.937500 C 37.575256,58.866199 36.329657,58.678253 35.937500,58.500000 C 35.545343,58.321747 35.071078,58.213682 34.875000,57.875000 C 34.678921,57.536319 34.767826,56.700478 34.750000,56.468750 C 34.732175,56.237021 34.853444,55.297963 35.281250,54.656250 C 35.709057,54.014539 36.821968,53.570856 37.125000,53.250000 C 37.428030,52.929144 38.616644,51.949810 38.937500,51.343750 C 39.258356,50.737689 39.084725,50.124109 39.031250,49.625000 C 38.977774,49.125891 38.607174,48.753731 38.625000,48.343750 C 38.642825,47.933768 37.832273,47.272323 35.500000,47.281250 C 35.767380,46.978220 39.648339,46.691679 40.218750,46.531250 C 40.789160,46.370822 42.134693,46.557431 42.562500,46.218750 C 42.990308,45.880069 42.763424,45.034761 42.781250,44.500000 C 42.799075,43.965241 42.473595,43.409982 42.687500,43.000000 C 42.901404,42.590018 43.705994,42.405583 44.062500,42.031250 C 44.419006,41.656918 44.955101,41.213456 44.812500,40.750000 C 44.669898,40.286542 43.379177,39.659984 43.218750,39.250000 C 43.058322,38.840018 43.469419,38.709058 43.843750,38.281250 C 44.218081,37.853442 45.094419,37.168785 45.468750,36.687500 C 45.843082,36.206217 46.058100,36.172738 46.093750,35.406250 C 46.129401,34.639762 45.887979,32.699812 45.656250,32.093750 C 45.424521,31.487689 45.200032,31.732175 44.718750,31.750000 C 44.237467,31.767825 43.226882,32.294452 42.781250,32.187500 C 42.335617,32.080548 42.138203,31.374554 42.031250,31.125000 C 41.924298,30.875446 42.142824,31.097482 42.125000,30.687500 C 42.107175,30.277518 41.747765,29.410806 41.685987,28.823925 C 41.624210,28.237045 41.118855,28.485702 41.230175,25.863575 C 42.026382,27.958510 42.335873,28.230805 43.093750,28.875000 C 43.761898,29.442926 44.631293,29.882467 45.468750,30.156250 C 46.485125,30.488526 47.581204,30.603183 48.656250,30.687500 C 49.399385,30.745785 50.301131,30.849760 50.906250,30.593750 C 51.228048,30.457605 51.492503,29.764796 51.812500,28.875000 C 51.079045,29.156415 50.395157,29.437775 50.156250,29.093750 C 49.503890,28.154352 49.381346,26.716422 48.781250,25.656250 C 48.311829,24.826939 47.430410,24.259019 46.937500,23.437500 C 46.040038,21.941730 45.660232,20.024646 44.593750,18.718750 C 43.913351,17.885608 42.750668,17.363083 41.718750,17.000000 C 41.305374,16.854553 40.827169,16.873228 40.375000,16.843750 C 40.021949,15.996001 39.505605,15.051709 38.500000,13.968750 C 33.114583,13.302083 27.729167,12.635417 22.343750,11.968750 z "
     style="fill:url(#linearGradient848);fill-rule:evenodd;stroke:#261933;stroke-width:1.8750000;"
     id="path894"
     transform="matrix(0.984265,0.000000,0.000000,0.984265,-1.096300,0.318982)" />
  <path
     d="M 40.962565,24.705883 C 40.962833,24.115032 40.436031,23.635923 39.786095,23.635923 C 39.136158,23.635923 38.609356,24.115032 38.609624,24.705883 C 38.609356,25.296734 39.136158,25.775843 39.786094,25.775843 C 40.436031,25.775843 40.962833,25.296734 40.962565,24.705883 z "
     transform="matrix(1.100032,0.000000,0.000000,1.100032,-5.807495,-2.541152)"
     style="fill:url(#linearGradient894);fill-rule:evenodd;stroke:#000000;stroke-width:0.37500000;"
     id="path898" />
  <path
     d="M 40.748663,3.3155080 C 41.325511,4.0778623 41.715393,4.2300781 42.245989,4.1711230 C 43.640527,4.0161743 45.092714,3.1571098 46.524064,2.6737968 C 47.837812,2.2301935 49.176671,1.3234711 50.481283,1.3903743 C 51.957420,1.4660736 53.730562,2.1353710 54.866310,3.1016043 C 56.119154,4.1674566 57.029460,5.9127503 57.647059,7.4866310 C 58.134630,8.7291496 58.118513,10.189750 58.181818,11.550802 C 58.261116,13.255704 58.391065,15.029096 58.074866,16.684492 C 57.785005,18.202001 57.155739,19.749347 56.363636,21.069519 C 55.765365,22.066638 54.836689,22.936655 53.903743,23.636364 C 53.125459,24.220077 52.171532,24.697230 51.229947,24.919786 C 50.210748,25.160688 48.710171,25.624548 48.021390,25.026738 C 46.820688,23.984619 46.556587,21.550489 45.561497,20.000000 C 45.023611,19.161898 44.215045,18.460757 43.422460,17.860963 C 42.895972,17.462540 42.247071,17.174504 41.604278,17.005348 C 40.214985,16.639744 38.383882,16.871614 37.326203,16.256684 C 36.850905,15.980348 35.361398,16.177640 34.117647,15.080213 C 32.937156,14.038603 32.600247,12.415698 32.513369,12.085561 C 32.421994,11.738337 32.495284,11.195666 32.727273,10.909091 C 33.101344,10.447003 33.752972,10.090290 34.331551,9.8395722 C 34.822491,9.6268314 35.395795,9.5514459 35.935829,9.5187166 C 36.572265,9.4801447 37.279263,9.8207959 37.860963,10.053476 C 39.061794,10.533808 40.260016,10.835374 41.283422,11.657754 C 42.256450,12.439652 43.025703,13.484595 43.850267,14.438503 C 44.843885,15.587982 45.620319,17.020342 46.737968,17.967914 C 47.260248,18.410717 48.096316,18.564710 48.770053,18.609626 C 49.165835,18.636011 49.650856,18.455585 49.946524,18.181818 C 50.613423,17.564319 51.255503,16.760443 51.657754,15.935829 C 51.968516,15.298768 52.041415,14.517842 52.085561,13.796791 C 52.148367,12.770961 52.200092,11.681791 51.978610,10.695187 C 51.807936,9.9349102 51.392167,9.1724883 50.909091,8.5561497 C 50.358299,7.8534153 49.621148,7.2407672 48.877005,6.7379679 C 48.302075,6.3495016 47.632703,5.9832167 46.951872,5.8823529 C 45.707569,5.6980117 44.358724,6.0274051 43.101604,5.8823529 C 42.504891,5.8135014 41.909561,5.5340953 41.390374,5.2406417 C 41.089597,5.0706372 40.742812,4.7952807 40.641711,4.4919786 C 40.528908,4.1535695 40.638219,3.7867947 40.748663,3.3155080 z "
     style="fill:url(#linearGradient876);fill-rule:evenodd;stroke:#333300;stroke-width:1.8750000;"
     id="path901"
     transform="matrix(0.984265,0.000000,0.000000,0.984265,-1.096300,0.318982)" />
  <path
     d="M 25.347594,3.4224599 C 24.929875,3.8816932 24.727799,3.8489756 24.385027,3.9572193 C 24.050437,4.0628793 23.640277,4.1972732 23.315508,4.0641711 C 21.465589,3.3060076 19.792611,1.6392524 17.860963,1.2834225 C 15.728440,0.89058928 13.172569,1.0980612 11.122995,1.8181818 C 9.2153496,2.4884356 7.2977393,3.8944891 5.9893048,5.4545455 C 4.5169905,7.2099971 3.4088140,9.5468503 2.7807487,11.764706 C 2.2679941,13.575371 2.3294054,15.660377 2.5668449,17.540107 C 2.7572128,19.047187 3.2887262,20.617521 4.0641711,21.925134 C 5.1069081,23.683475 6.4127699,25.583061 8.0213904,26.737968 C 9.1935185,27.579496 10.951108,27.629704 12.406417,27.914439 C 12.591036,27.950560 12.883722,27.872898 12.941176,27.700535 C 13.311529,26.589475 13.281997,25.222444 13.689840,24.064171 C 14.173263,22.691249 14.630438,21.107627 15.614973,20.106952 C 16.805126,18.897288 18.583689,18.081735 20.213904,17.433155 C 21.899197,16.762662 23.769049,16.338412 25.561497,16.149733 C 26.478496,16.053207 27.440139,16.679665 28.342246,16.577540 C 29.329622,16.465761 30.486577,16.117965 31.229947,15.508021 C 31.876952,14.977145 32.591784,13.923550 32.513369,13.155080 C 32.413531,12.176670 31.563267,10.898711 30.695187,10.267380 C 29.602482,9.4726855 28.015955,9.1078286 26.631016,8.8770053 C 25.663014,8.7156716 24.503748,8.6692641 23.636364,9.0909091 C 21.936903,9.9170360 20.304324,11.246478 18.930481,12.620321 C 17.416624,14.134178 16.510882,16.308189 14.973262,17.754011 C 14.122291,18.554178 12.786005,19.358289 11.764706,19.358289 C 11.003474,19.358289 10.042089,18.482746 9.6256684,17.754011 C 9.0438709,16.735866 8.7700535,15.332357 8.7700535,14.117647 C 8.7700535,12.801163 9.0095146,11.309471 9.6256684,10.160428 C 10.328588,8.8495784 11.530190,7.6509973 12.727273,6.7379679 C 13.633577,6.0467192 14.841528,5.7123606 15.935829,5.3475936 C 16.338854,5.2132519 16.792740,5.2084522 17.219251,5.2406417 C 18.682223,5.3510547 20.145515,5.7532986 21.604278,5.7754011 C 22.498456,5.7889493 23.589955,5.7801261 24.278075,5.3475936 C 24.837727,4.9958124 25.323827,3.7314320 25.347594,3.4224599 z "
     style="fill:url(#linearGradient905);fill-rule:evenodd;stroke:#333300;stroke-width:1.8750000;"
     id="path900"
     transform="matrix(0.984265,0.000000,0.000000,0.984265,-1.096300,0.318982)" />
  <path
     d="M 38.823529,19.358289 C 38.502674,19.964350 38.074867,20.516935 37.860963,21.176471 C 37.647059,21.836008 37.361854,22.549020 37.540107,23.315508 C 37.718360,24.081996 38.395722,24.919786 38.930481,25.775401 C 39.465240,26.631016 40.285205,27.522282 40.748663,28.449198 C 41.212121,29.376114 41.390374,30.374331 41.711230,31.336898"
     style="fill:none;fill-rule:evenodd;stroke:#261933;stroke-width:0.37500000;"
     id="path892"
     transform="matrix(0.984265,0.000000,0.000000,0.984265,-1.096300,0.318982)" />
  <path
     d="M 20.534759,51.443850 C 19.286987,50.017825 17.700535,48.556149 16.791444,47.165775 C 15.882353,45.775401 15.454546,44.438502 15.080214,43.101604 C 14.705883,41.764706 14.616756,40.499109 14.545455,39.144385 C 14.474154,37.789661 14.509804,36.042780 14.545454,34.652406"
     style="fill:none;fill-rule:evenodd;stroke:#000000;stroke-width:1.8750000;"
     id="path889"
     transform="matrix(0.984265,0.000000,0.000000,0.984265,-1.096300,0.318982)" />
  <path
     d="M 28.021390,36.042781 C 28.377896,36.221034 28.859995,36.265127 29.090909,36.577540 C 30.072116,37.905056 30.624928,39.646220 31.657754,40.962567 C 32.443110,41.963511 33.497621,42.874516 34.545455,43.529412 C 34.923646,43.765782 35.499218,43.756432 35.935829,43.636364 C 36.925242,43.364275 37.812330,42.495141 38.823529,42.352941 C 40.093970,42.174285 41.461676,42.566845 42.780749,42.673797"
     style="fill:none;fill-rule:evenodd;stroke:#261933;stroke-width:1.8750000;"
     id="path891"
     transform="matrix(0.984265,0.000000,0.000000,0.984265,-1.096300,0.318982)" />
  <path
     d="M 40.962565,24.705883 C 40.962833,24.115032 40.436031,23.635923 39.786095,23.635923 C 39.136158,23.635923 38.609356,24.115032 38.609624,24.705883 C 38.609356,25.296734 39.136158,25.775843 39.786094,25.775843 C 40.436031,25.775843 40.962833,25.296734 40.962565,24.705883 z "
     transform="matrix(1.100032,0.000000,0.000000,1.100032,-16.07123,-2.500904)"
     style="fill:url(#linearGradient894);fill-rule:evenodd;stroke:#000000;stroke-width:0.37500000;"
     id="path893" />
  <path
     d="M 40.327184,34.367379 C 38.890873,33.299353 37.500123,32.151216 36.018252,31.163302 C 35.621870,30.899047 35.196521,30.710862 34.741689,30.591169 C 34.496779,30.526719 33.902532,30.517220 33.653011,30.571464 C 33.055477,30.701363 32.573677,30.801232 32.151262,31.163302 C 31.800279,31.464145 31.534157,32.035003 31.372227,32.520792 C 31.276357,32.808401 31.318738,33.233826 31.377863,33.483496 C 31.479699,33.999512 31.687033,34.534398 31.930291,35.030292"
     style="fill:none;fill-rule:evenodd;stroke:#261933;stroke-width:0.37500000;"
     id="path899"
     transform="matrix(0.984265,0.000000,0.000000,0.984265,-1.096300,0.318982)" />
  <path
     d="M 37.954938,33.535530 C 37.954938,32.530506 36.418584,31.715773 34.523395,31.715773 C 32.628207,31.715773 31.091853,32.530506 31.091853,33.535530 C 31.091853,34.540554 32.628207,35.355287 34.523395,35.355287 C 36.418584,35.355287 37.954938,34.540554 37.954938,33.535530 L 37.954938,33.535530 z "
     transform="matrix(0.852399,0.492132,-0.492132,0.852399,21.34263,-11.22539)"
     style="fill:url(#linearGradient896);fill-rule:evenodd;stroke:#261933;stroke-width:0.37500000;"
     id="path915" />
  <path
     style="stroke-width:1.0000000pt;"
     id="path927"
     transform="matrix(0.984265,0.000000,0.000000,0.984265,-1.096300,0.318982)" />
  <path
     d="M 33.930577,58.055932 C 32.793182,57.779934 32.803662,57.781361 32.085321,57.019811 C 28.492093,53.535705 24.787771,49.169074 23.804371,46.940300 C 23.190523,45.201551 32.562581,47.355936 37.143295,48.354457 C 37.982496,48.571053 37.935536,49.679190 38.166740,50.339677 C 38.124077,51.078732 37.398621,51.841694 36.539805,52.525000 C 35.779030,53.165114 34.422609,53.777633 34.081627,54.937309 C 33.668221,56.375567 33.778127,56.565879 33.930577,58.055932 z "
     style="fill:url(#linearGradient849);fill-rule:evenodd;stroke-width:1.0000000pt;"
     id="path936"
     transform="matrix(0.984265,0.000000,0.000000,0.984265,-1.096300,0.318982)"
     sodipodi:nodetypes="cccccccc" />
  <path
     d="M 13.726170,27.868284 C 14.766031,25.996534 14.915254,21.755772 17.573657,20.069324 C 19.866543,18.555541 23.188908,18.266898 25.996534,17.365685 C 23.639515,18.578856 20.110785,20.204322 17.989602,21.837088 C 16.273981,23.095962 15.216638,26.308492 13.726170,27.868284 z "
     style="fill:url(#linearGradient847);fill-rule:evenodd;stroke-width:1.0000000pt;"
     id="path937"
     transform="matrix(0.984265,0.000000,0.000000,0.984265,-1.096300,0.318982)" />
  <path
     d="M 31.645850,33.335000 C 31.620620,32.832870 31.723890,31.790060 32.375630,31.251130 C 32.942920,30.785100 34.691970,30.657040 35.170260,31.052000 C 34.363050,30.934470 33.352490,31.334250 33.021720,31.584380 C 32.590650,31.897520 31.879020,32.708760 31.645850,33.335000 z "
     style="fill:url(#linearGradient911);fill-rule:evenodd;stroke-width:1.0000000pt;"
     id="path910"
     transform="matrix(0.984265,0.000000,0.000000,0.984265,-1.096300,0.318982)" />
  <path
     d="M 22.357019,27.868284 C 21.490468,30.121317 19.942315,32.334017 19.757366,34.627383 C 19.595695,36.632111 21.629116,42.149046 22.564992,44.090121 C 21.941075,42.010398 20.527713,36.575935 20.693241,34.523397 C 20.874334,32.277841 21.802426,30.086655 22.357019,27.868284 z "
     style="fill:url(#linearGradient913);fill-rule:evenodd;stroke-width:1.0000000pt;"
     id="path939"
     transform="matrix(0.984265,0.000000,0.000000,0.984265,-1.096300,0.318982)" />
  <path
     d="M 4.4714038,9.7746967 C 5.2686308,8.3188908 5.9098786,6.8977470 7.9029463,4.8873484 C 10.000000,2.8769498 12.305026,2.8769497 14.454073,2.1837088 C 12.686309,3.1195840 10.623917,4.0207972 9.1507799,5.0953206 C 7.6776429,6.1698440 5.6499133,8.5615251 4.4714038,9.7746967 z "
     style="fill:url(#linearGradient920);fill-rule:evenodd;stroke-width:1.0000000pt;"
     id="path940"
     transform="matrix(0.984265,0.000000,0.000000,0.984265,-1.096300,0.318982)" />
  <path
     d="M 18.093587,15.441942 C 18.786828,13.882150 20.363951,12.461006 22.253033,10.970538 C 24.142115,9.3760835 26.447141,9.6880425 28.388215,10.242635 C 26.204507,10.346621 25.285961,10.415946 22.772963,11.594456 C 20.675909,12.772965 19.688042,14.124784 18.093587,15.441942 z "
     style="fill:url(#linearGradient919);fill-rule:evenodd;stroke-width:1.0000000pt;"
     id="path941"
     transform="matrix(0.984265,0.000000,0.000000,0.984265,-1.096300,0.318982)" />
  <path
     d="M 33.559302,12.855355 C 33.793225,11.631021 33.843716,11.217125 34.731369,10.828669 C 35.626599,10.432636 38.613518,11.455807 40.658579,12.634316 C 38.288860,11.848436 35.768247,11.681788 35.360007,11.740497 C 34.951767,11.791630 34.315607,11.983131 33.559302,12.855355 z "
     style="fill:url(#linearGradient921);fill-rule:evenodd;stroke-width:1.0000000pt;"
     id="path942"
     transform="matrix(0.984265,0.000000,0.000000,0.984265,-1.096300,0.318982)" />
  <path
     d="M 43.825435,5.0063391 C 45.029602,3.8922490 47.194737,3.0974375 48.899015,2.6614351 C 50.614164,2.2254327 51.650163,2.6659740 53.923949,4.1521593 C 51.675016,3.5684313 50.315931,3.6609264 49.740786,3.6871328 C 49.154771,3.7133392 47.267922,3.3630577 43.825435,5.0063391 z "
     style="fill:url(#linearGradient919);fill-rule:evenodd;stroke-width:1.0000000pt;"
     id="path943"
     transform="matrix(0.984265,0.000000,0.000000,0.984265,-1.096300,0.318982)" />
</svg>
