<?xml version="1.0" encoding="UTF-8" standalone="no"?>
<!DOCTYPE svg PUBLIC "-//W3C//DTD SVG 20010904//EN"
"http://www.w3.org/TR/2001/REC-SVG-20010904/DTD/svg10.dtd">
<!-- Created with Sodipodi ("http://www.sodipodi.com/") -->
<svg
   version="1.0"
   x="0"
   y="0"
   width="48pt"
   height="48pt"
   id="svg1"
   sodipodi:version="0.32"
   inkscape:version="0.38"
   sodipodi:docname="epiphany.svg"
   sodipodi:docbase="/home/tom"
   xmlns="http://www.w3.org/2000/svg"
   xmlns:inkscape="http://www.inkscape.org/namespaces/inkscape"
   xmlns:sodipodi="http://sodipodi.sourceforge.net/DTD/sodipodi-0.dtd"
   xmlns:xlink="http://www.w3.org/1999/xlink">
  <sodipodi:namedview
     id="base"
     pagecolor="#ffffff"
     bordercolor="#666666"
     borderopacity="1.0"
     inkscape:pageopacity="0.0"
     inkscape:pageshadow="2"
     inkscape:zoom="2.0000000"
     inkscape:cx="31.296486"
     inkscape:cy="30.579132"
     inkscape:window-width="640"
     inkscape:window-height="503"
     inkscape:window-x="136"
     inkscape:window-y="208" />
  <defs
     id="defs3">
    <linearGradient
       id="linearGradient650">
      <stop
         style="stop-color:#3f3f7f;stop-opacity:1;"
         offset="0"
         id="stop651" />
      <stop
         style="stop-color:#ffffff;stop-opacity:1;"
         offset="1"
         id="stop652" />
    </linearGradient>
    <linearGradient
       id="linearGradient711">
      <stop
         style="stop-color:#003300;stop-opacity:0.6;"
         offset="0"
         id="stop712" />
      <stop
         style="stop-color:#003300;stop-opacity:1;"
         offset="1"
         id="stop713" />
    </linearGradient>
    <linearGradient
       id="linearGradient707">
      <stop
         style="stop-color:#3f7f3f;stop-opacity:1;"
         offset="0"
         id="stop708" />
      <stop
         style="stop-color:#7fff7f;stop-opacity:1;"
         offset="1"
         id="stop709" />
    </linearGradient>
    <linearGradient
       id="linearGradient570">
      <stop
         style="stop-color:#ffffff;stop-opacity:1;"
         offset="0"
         id="stop571" />
      <stop
         style="stop-color:#ffffff;stop-opacity:0;"
         offset="1"
         id="stop572" />
    </linearGradient>
    <linearGradient
       id="linearGradient563">
      <stop
         style="stop-color:#d9cce6;stop-opacity:1;"
         offset="0.00000000"
         id="stop564" />
      <stop
         style="stop-color:#73667f;stop-opacity:1;"
         offset="1.00000000"
         id="stop565" />
    </linearGradient>
    <linearGradient
       x1="0.03846154"
       y1="0.07031250"
       x2="0.98461539"
       y2="0.96875000"
       id="linearGradient566"
       xlink:href="#linearGradient563" />
    <linearGradient
       x1="0.006536"
       y1="0.015625"
       x2="0.849673"
       y2="0.867188"
       id="linearGradient569"
       xlink:href="#linearGradient570" />
    <linearGradient
       id="linearGradient573"
       xlink:href="#linearGradient563"
       x1="1.96644123e-9"
       y1="-1.26793864e-9"
       x2="1"
       y2="-1.26793864e-9" />
    <linearGradient
       id="linearGradient575"
       xlink:href="#linearGradient570"
       x1="7.29962951e-3"
       y1="3.28290298e-7"
       x2="0.89781022"
       y2="0.875" />
    <linearGradient
       id="linearGradient578"
       xlink:href="#linearGradient570"
       x1="1.73982717e-2"
       y1="2.40747395e-5"
       x2="0.88695693"
       y2="0.82812494" />
    <linearGradient
       xlink:href="#linearGradient707"
       id="linearGradient706"
       x1="-2.05214734e-10"
       y1="1.22491656e-7"
       x2="1"
       y2="1.22491656e-7" />
    <linearGradient
       xlink:href="#linearGradient711"
       id="linearGradient710"
       x1="0.13931887"
       y1="0.21904872"
       x2="0.75851387"
       y2="0.38095272" />
    <linearGradient
       xlink:href="#linearGradient650"
       id="linearGradient653"
       x1="0.69767362"
       y1="0.796875"
       x2="0.35658774"
       y2="0.6328125" />
  </defs>
  <path
     style="fill-opacity:0.29800001;fill-rule:evenodd;stroke:#000000;stroke-width:1.6699365;stroke-opacity:0.29999998;"
     d="M 42.813326,27.272690 C 41.361595,25.919934 38.556787,25.016503 36.455749,25.038947 C 30.737298,25.349502 23.792126,27.437546 19.616777,31.568345 C 15.444626,35.786667 16.362209,41.284989 16.695733,43.252530 C 17.191922,46.624582 19.430546,50.513432 22.022350,52.874803 C 24.691941,55.440021 26.899597,56.781011 30.785482,57.342288 C 39.254536,58.425360 42.364661,57.171598 44.703409,52.187501 C 45.686935,50.087558 46.029971,47.169587 45.734370,45.142622 C 45.629044,44.420364 44.910375,43.704437 43.500628,43.939832 C 41.961089,44.225048 39.069756,44.826403 38.861321,46.345404 C 37.837031,53.142073 34.949163,51.558403 34.015994,50.136775 C 33.381828,49.065415 30.796891,47.276142 32.710344,45.348341 C 35.647927,42.247995 38.201327,40.678913 41.438715,36.894962 C 42.611536,35.524127 43.776038,33.764334 44.016108,32.083826 C 44.234233,30.556907 43.881711,28.268239 42.813326,27.272690 z "
     id="path691"
     sodipodi:nodetypes="cssssssssssssss" />
  <path
     style="fill:url(#linearGradient573);fill-rule:evenodd;stroke:#261933;stroke-width:1.6699365;"
     d="M 41.978358,26.437722 C 40.526626,25.084966 37.721819,24.181535 35.620781,24.203979 C 29.902330,24.514534 22.957158,26.602578 18.781809,30.733377 C 14.609657,34.951699 15.527241,40.450021 15.860765,42.417562 C 16.356954,45.789614 18.595577,49.678464 21.187381,52.039834 C 23.856973,54.605053 26.064629,55.946043 29.950513,56.507320 C 38.419567,57.590391 41.529693,56.336630 43.868441,51.352533 C 44.851967,49.252590 45.195003,46.334619 44.899402,44.307654 C 44.794076,43.585396 44.075406,42.869469 42.665659,43.104863 C 41.126120,43.390080 38.234788,43.991435 38.026353,45.510436 C 37.002063,52.307104 34.114195,50.723434 33.181026,49.301806 C 32.546859,48.230446 29.961922,46.441174 31.875376,44.513373 C 34.812959,41.413026 37.366358,39.843945 40.603746,36.059994 C 41.776567,34.689158 42.941070,32.929366 43.181140,31.248858 C 43.399265,29.721939 43.046743,27.433271 41.978358,26.437722 z "
     id="path727"
     sodipodi:nodetypes="cssssssssssssss" />
  <path
     style="opacity:0.7;fill:url(#linearGradient578);fill-rule:evenodd;stroke:none;stroke-opacity:1;stroke-width:0.125;stroke-linejoin:miter;stroke-linecap:butt;fill-opacity:1;stroke-dasharray:none;"
     d="M 38.372489,49.729898 C 38.662781,47.782832 38.963851,46.321580 39.602782,45.523493 C 40.399961,44.198623 42.375589,44.260887 43.522136,44.377524 C 43.893236,44.414165 41.345724,45.184331 40.241811,46.309253 C 39.167218,47.404304 37.995778,51.641739 38.372489,49.729898 z "
     id="path693"
     sodipodi:nodetypes="cssss" />
  <ellipse
     cx="286.926392"
     cy="278.069977"
     rx="278.198608"
     ry="278.198578"
     transform="matrix(3.810553e-2,0.000000,0.000000,3.810553e-2,35.76369,2.987320)"
     style="font-size:12;opacity:0.302675;fill-rule:evenodd;stroke-width:56.776;stroke:#000000;stroke-opacity:1;stroke-dasharray:none;"
     id="path1023" />
  <ellipse
     cx="286.926392"
     cy="278.069977"
     rx="278.198608"
     ry="278.198578"
     transform="matrix(3.810553e-2,0.000000,0.000000,3.810553e-2,34.83803,1.841261)"
     style="font-size:12;fill:url(#linearGradient653);fill-rule:evenodd;stroke:#261933;stroke-width:56.776;stroke-opacity:1;stroke-dasharray:none;"
     id="path983" />
  <path
     d="M 38.566963,5.9922918 C 38.911044,5.7990897 39.289094,6.4820241 39.754365,6.5473095 C 40.169904,6.6055793 41.180327,5.9445336 41.723240,6.2589832 C 42.083002,6.4151580 41.776883,7.7877308 41.667336,8.6094975 C 41.529438,9.2690548 41.089068,10.213754 40.813619,11.031562 C 40.670413,11.389847 39.675337,12.687973 39.634663,12.770416 C 39.594059,12.852778 40.024622,13.952844 39.756649,14.088711 C 39.477358,14.256205 39.132423,12.646099 38.537055,12.193602 C 38.280149,12.037369 37.687734,12.109809 37.480086,12.276091 C 37.232687,12.412039 37.445609,13.836881 37.805266,14.253517 C 38.173959,14.813808 38.729173,15.244797 39.065569,15.818911 C 39.501543,16.563104 39.770196,17.411940 40.122503,18.208437 C 40.122503,18.208437 39.831742,19.225148 39.872428,19.225148 C 39.913090,19.225148 40.488380,20.391827 40.488380,20.391827 C 39.307152,19.482609 38.356234,18.595476 37.561387,17.508068 C 37.001165,16.741594 36.554345,15.689771 36.423093,14.830227 C 36.378208,14.536258 36.920799,14.359903 37.032896,14.047518 C 37.238445,13.526736 36.160614,12.234206 36.117055,11.811963 C 36.063551,11.357273 36.334962,9.5382385 36.951595,8.4447265 C 37.393073,7.5905594 37.908294,6.3620690 38.566963,5.9922918 z "
     style="font-size:12.000000;opacity:0.50445902;fill:#261933;fill-rule:evenodd;stroke:#261933;stroke-width:0.14423236;"
     id="path565" />
  <path
     d="M 45.907432,9.1097415 C 45.679776,9.4344720 45.436150,10.015751 45.570494,10.322712 C 45.716884,10.657078 46.350122,11.027085 46.749622,11.033893 C 47.164308,11.041012 47.587647,10.579550 48.012948,10.364609 C 48.387744,10.175215 48.749283,9.8849731 49.149937,9.8207724 C 49.619592,9.7455408 50.284861,9.7218406 50.623796,9.9463353 C 50.874379,10.112318 50.974130,10.663009 50.918595,10.992112 C 50.800890,11.243076 50.406963,11.459113 50.539564,11.619580 C 50.655642,11.717347 51.461220,11.127725 51.592333,10.782986 C 51.699862,10.500291 51.189579,10.097283 51.255453,9.7371638 C 51.308703,9.4993073 52.183675,9.5594465 52.476685,9.6117278 C 52.718396,9.6701246 52.953091,10.265550 53.192632,10.239162 C 53.412061,10.239162 53.959867,9.5357462 54.019222,9.5390462 C 54.247697,9.5765236 54.413772,10.239162 54.413772,10.239162 C 54.020687,10.601692 53.703584,11.099340 53.234690,11.326777 C 52.496416,11.684923 51.625091,11.900568 50.792271,11.996073 C 49.435379,12.151601 47.826704,11.604245 46.665391,12.079704 C 45.749215,12.454859 44.573214,13.690203 44.559864,14.547762 C 44.545141,15.488896 45.159732,17.088352 46.261817,17.185103 C 47.595989,17.330928 48.990243,17.629373 49.470964,18.239915 C 49.846533,18.716966 49.408829,20.514551 49.469325,21.108915 C 49.492068,21.305971 50.069436,20.956860 50.413274,20.780573 C 50.939780,20.510686 51.576664,19.977764 51.760762,19.400143 C 52.110070,18.304519 52.149370,16.945643 52.013492,15.760860 C 51.896710,14.742603 50.878972,12.899417 51.002873,12.790862 C 51.117567,12.690315 52.018719,14.727487 52.729323,15.133427 C 53.141654,15.368883 54.087842,15.021779 54.371679,14.715037 C 54.565170,14.505912 54.024114,13.707430 54.161112,13.585640 C 54.290852,13.470324 55.115053,14.278486 55.171777,14.004006 C 55.623628,11.919918 55.198915,10.381017 54.460273,8.4514420 C 53.855835,6.9786681 52.142401,4.9512342 50.312889,3.9574387 C 50.055267,3.8162410 48.938816,4.4411248 48.077310,4.9885039 C 47.586182,5.2326719 47.075865,5.9679339 47.328075,6.1443704 C 47.550424,6.3186377 48.209542,5.7307236 48.675978,5.6263570 C 49.512134,5.4278125 49.900626,5.5354445 50.539564,5.8468479 C 50.539564,5.8468479 51.445147,6.5912600 51.044897,7.1435776 C 50.790817,7.4779082 49.950035,7.4782313 49.950035,7.4782313 C 49.767540,7.3807071 49.577142,7.1486199 49.402563,7.1854396 C 49.114006,7.2462941 48.870392,7.6331368 48.560385,7.7711268 C 47.929870,8.0515606 47.192981,8.1088613 46.581159,8.4404457 C 46.235198,8.5197619 46.049196,8.8958969 45.907432,9.1097415 z "
     style="font-size:12.000000;opacity:0.49999997;fill:#261933;fill-rule:evenodd;stroke:#003300;stroke-width:0.14423236;"
     id="path566" />
  <path
     style="opacity:0.7;fill:url(#linearGradient575);fill-rule:evenodd;stroke:none;stroke-opacity:1;stroke-width:.1pt;stroke-linejoin:miter;stroke-linecap:butt;fill-opacity:1;"
     d="M 19.247734,46.106884 C 16.935669,40.749202 15.967605,35.907410 19.885356,31.553169 C 22.175832,28.905629 30.836408,24.809351 36.152096,25.897482 C 37.302099,26.137017 28.084308,26.042637 20.958026,33.208544 C 16.253569,38.062101 19.859759,47.583651 19.247734,46.106884 z "
     id="path692"
     sodipodi:nodetypes="cssss" />
  <path
     d="M 37.550887,18.145494 C 37.409804,17.722305 32.066019,8.1516694 42.223219,3.2468578 C 46.828443,1.0017715 53.632114,5.1638673 54.388953,7.6547486 C 54.505515,8.0315873 49.786106,2.6521128 43.060736,5.6271301 C 34.304562,9.4752725 37.674280,18.515710 37.550887,18.145494 z "
     style="font-size:12;opacity:0.7;fill:url(#linearGradient569);fill-rule:evenodd;stroke:none;stroke-width:0.0998909pt;"
     id="path984" />
  <g
     id="g714"
     transform="translate(-3.708211,6.551622)">
    <ellipse
       cx="17pt"
       cy="10.75pt"
       rx="2.25pt"
       ry="3.75pt"
       style="fill:#000000;fill-rule:evenodd;stroke:#000000;stroke-width:1.5pt;stroke-opacity:0.3;stroke-dasharray:none;fill-opacity:0.3;"
       id="ellipse686" />
    <ellipse
       cx="16.25pt"
       cy="10pt"
       rx="2.25pt"
       ry="3.75pt"
       style="fill:url(#linearGradient566);fill-rule:evenodd;stroke:#261933;stroke-width:1.5pt;stroke-opacity:1;stroke-dasharray:none;"
       id="ellipse725" />
    <path
       d="M 18.7946 14.24513 C 18.76747 14.09615 17.73961 10.72711 19.69333 9.000532 C 20.57914 8.210222 21.88783 9.675344 22.0334 10.55218 C 22.05581 10.68483 21.14804 8.791168 19.85444 9.838426 C 18.17019 11.19302 18.81834 14.37543 18.7946 14.24513 z "
       style="font-size:12;opacity:0.7;fill:url(#linearGradient569);fill-rule:evenodd;stroke:none;stroke-width:0.0998909pt;"
       id="path701" />
  </g>
  <g
     id="g717"
     transform="translate(-2.492686,5.661534)">
    <ellipse
       cx="24pt"
       cy="8pt"
       rx="3pt"
       ry="4.25pt"
       style="opacity:0.3;fill:#000000;fill-rule:evenodd;stroke:#000000;stroke-width:1.875;stroke-opacity:1;stroke-dasharray:none;fill-opacity:1;"
       id="ellipse724" />
    <ellipse
       cx="23.25pt"
       cy="7.25pt"
       rx="3pt"
       ry="4.25pt"
       style="fill:url(#linearGradient566);fill-rule:evenodd;stroke:#261933;stroke-width:1.5pt;stroke-opacity:1;stroke-dasharray:none;"
       id="ellipse685" />
    <path
       d="M 26.66559 11.9001 C 26.62586 11.70223 25.12075 7.227433 27.98161 4.934174 C 29.27872 3.884477 31.19506 5.830468 31.40822 6.995089 C 31.44103 7.171276 30.11177 4.656096 28.21753 6.047074 C 25.75125 7.846261 26.70035 12.07317 26.66559 11.9001 z "
       style="font-size:12;opacity:0.7;fill:url(#linearGradient569);fill-rule:evenodd;stroke:none;stroke-width:0.0998909pt;"
       id="path703" />
  </g>
  <g
     id="g720"
     transform="translate(-3.724900,7.422241)">
    <ellipse
       cx="10.5pt"
       cy="15pt"
       rx="2pt"
       ry="3pt"
       style="fill:#000000;fill-rule:evenodd;stroke:#000000;stroke-width:1.5pt;stroke-opacity:0.3;stroke-dasharray:none;fill-opacity:0.3;"
       id="ellipse690"
       transform="translate(0.9375,0.9375)" />
    <ellipse
       cx="10.5pt"
       cy="15pt"
       rx="2pt"
       ry="3pt"
       style="fill:url(#linearGradient566);fill-rule:evenodd;stroke:#261933;stroke-width:1.5pt;stroke-opacity:1;stroke-dasharray:none;"
       id="ellipse726" />
    <path
       d="M 11.80244 20.72997 C 11.77891 20.59907 10.8874 17.63867 12.58194 16.12152 C 13.35024 15.42707 14.48531 16.71448 14.61157 17.48496 C 14.63101 17.60152 13.84367 15.93755 12.72167 16.85778 C 11.26086 18.04808 11.82303 20.84447 11.80244 20.72997 z "
       style="font-size:12;opacity:0.7;fill:url(#linearGradient569);fill-rule:evenodd;stroke:none;stroke-width:0.0998909pt;"
       id="path700" />
  </g>
</svg>
