<?xml version="1.0" encoding="UTF-8" standalone="no"?>
<!DOCTYPE svg PUBLIC "-//W3C//DTD SVG 20010904//EN"
"http://www.w3.org/TR/2001/REC-SVG-20010904/DTD/svg10.dtd">
<!-- Created with Inkscape (http://www.inkscape.org/) -->
<svg
   version="1.0"
   x="0"
   y="0"
   width="48pt"
   height="48pt"
   id="svg1"
   sodipodi:version="0.32"
   inkscape:version="0.37"
   sodipodi:docname="firefox.svg"
   sodipodi:docbase="/home/tom/Pics/lilasvg/scalable/apps"
   xmlns="http://www.w3.org/2000/svg"
   xmlns:inkscape="http://www.inkscape.org/namespaces/inkscape"
   xmlns:sodipodi="http://sodipodi.sourceforge.net/DTD/sodipodi-0.dtd"
   xmlns:xlink="http://www.w3.org/1999/xlink">
  <sodipodi:namedview
     id="base"
     pagecolor="#ffffff"
     bordercolor="#666666"
     borderopacity="1.0"
     inkscape:pageopacity="0.0"
     inkscape:pageshadow="2"
     inkscape:zoom="15.7793103"
     inkscape:cx="28.7500000"
     inkscape:cy="11.3750000"
     inkscape:window-width="1018"
     inkscape:window-height="711"
     inkscape:window-x="0"
     inkscape:window-y="30" />
  <defs
     id="defs3">
    <linearGradient
       id="linearGradient600">
      <stop
         style="stop-color:#d9cce6;stop-opacity:1;"
         offset="0.00000000"
         id="stop601" />
      <stop
         style="stop-color:#ffffff;stop-opacity:1;"
         offset="1.00000000"
         id="stop602" />
    </linearGradient>
    <linearGradient
       id="linearGradient570">
      <stop
         style="stop-color:#ffffff;stop-opacity:1;"
         offset="0"
         id="stop571" />
      <stop
         style="stop-color:#ffffff;stop-opacity:0;"
         offset="1"
         id="stop572" />
    </linearGradient>
    <linearGradient
       id="linearGradient563">
      <stop
         style="stop-color:#d9cce6;stop-opacity:1;"
         offset="0.00000000"
         id="stop564" />
      <stop
         style="stop-color:#73667f;stop-opacity:1;"
         offset="1.00000000"
         id="stop565" />
    </linearGradient>
    <linearGradient
       x1="0.03846154"
       y1="0.07031250"
       x2="0.98461539"
       y2="0.96875000"
       id="linearGradient566"
       xlink:href="#linearGradient563" />
    <linearGradient
       x1="0.006536"
       y1="0.015625"
       x2="0.849673"
       y2="0.867188"
       id="linearGradient569"
       xlink:href="#linearGradient570" />
    <linearGradient
       id="linearGradient573"
       xlink:href="#linearGradient600"
       x1="0.37543860"
       y1="-0.47058824"
       x2="0.69824558"
       y2="1.41176474" />
    <linearGradient
       id="linearGradient575"
       xlink:href="#linearGradient600"
       x1="0.79512191"
       y1="0.23239438"
       x2="-0.32195115"
       y2="1.35211265" />
    <linearGradient
       id="linearGradient578"
       xlink:href="#linearGradient563"
       x1="-0.00000000"
       y1="-0.00000000"
       x2="1.00000000"
       y2="-0.00000000" />
    <linearGradient
       xlink:href="#linearGradient563"
       id="linearGradient603"
       x1="-0.00000000"
       y1="0.00000000"
       x2="1.00000000"
       y2="0.00000000" />
    <linearGradient
       xlink:href="#linearGradient600"
       id="linearGradient604" />
    <linearGradient
       xlink:href="#linearGradient600"
       id="linearGradient605" />
    <linearGradient
       xlink:href="#linearGradient570"
       id="linearGradient608"
       x1="0.36140350"
       y1="0.00757576"
       x2="0.69473684"
       y2="1.38636363" />
    <linearGradient
       xlink:href="#linearGradient600"
       id="linearGradient612"
       x1="0.91228080"
       y1="0.16176464"
       x2="-1.12631643"
       y2="1.61029375" />
    <linearGradient
       xlink:href="#linearGradient570"
       id="linearGradient614"
       x1="-0.09917355"
       y1="0.04929578"
       x2="1.08264458"
       y2="0.69014084" />
  </defs>
  <g
     id="g637"
     transform="matrix(1.266542,0.000000,0.000000,1.266542,-3.732643,-1.006527)">
    <ellipse
       cx="286.926392"
       cy="278.069977"
       rx="278.198608"
       ry="278.198578"
       transform="matrix(7.268482e-2,0.000000,0.000000,7.268482e-2,5.755858,5.971639)"
       style="font-size:12;opacity:0.302675;fill-rule:evenodd;stroke-width:13.2536;"
       id="path1023" />
    <ellipse
       cx="286.926392"
       cy="278.069977"
       rx="278.198608"
       ry="278.198578"
       transform="matrix(7.268482e-2,0.000000,0.000000,7.268482e-2,3.990203,3.785593)"
       style="font-size:12;fill:url(#linearGradient566);fill-rule:evenodd;stroke:#261933;stroke-width:19.8805;stroke-opacity:1;stroke-dasharray:none;"
       id="path983" />
    <path
       d="M 10.326495 10.436688 C 11.063104 10.028539 11.872465 11.471317 12.86856 11.609267 C 13.758223 11.732344 15.921425 10.335807 17.083754 11.000126 C 17.853964 11.330052 17.198584 14.229786 16.964068 15.96588 C 16.668824 17.359256 15.72606 19.355069 15.136341 21.082763 C 14.829767 21.839718 12.699397 24.582157 12.612309 24.756329 C 12.525378 24.930348 13.447179 27.254388 12.87349 27.541387 C 12.275525 27.895281 11.537067 24.493684 10.262452 23.537741 C 9.712422 23.207662 8.4441193 23.360718 7.9995637 23.711992 C 7.469918 23.99922 7.9257331 27.009392 8.6957276 27.889577 C 9.4850747 29.073253 10.673759 29.983803 11.393952 31.196689 C 12.327315 32.76886 12.902469 34.562139 13.656726 36.244824 C 13.656726 36.244824 13.034252 38.392769 13.121339 38.392769 C 13.208425 38.392769 14.440039 40.857534 14.440039 40.857534 C 11.911151 38.936712 9.8753421 37.062511 8.1736197 34.765214 C 6.9742445 33.145953 6.0176702 30.923869 5.7366449 29.107934 C 5.6405259 28.486925 6.8021922 28.114305 7.0421874 27.454378 C 7.4822263 26.354166 5.1746927 23.623518 5.0814421 22.731463 C 4.9669118 21.770897 5.5479685 17.927936 6.8681004 15.617768 C 7.8132846 13.813238 8.9163173 11.217919 10.326495 10.436688 z "
       style="font-size:12;opacity:0.504459;fill:#261933;fill-rule:evenodd;stroke:#000000;stroke-width:0.0880094pt;"
       id="path565" />
    <path
       d="M 25.319396 17.010295 C 24.8489 17.685946 24.345342 18.895361 24.623015 19.534018 C 24.925581 20.229706 26.234339 20.999529 27.060037 21.01371 C 27.917102 21.028507 28.792047 20.068404 29.671076 19.621182 C 30.445681 19.227137 31.192924 18.623237 32.021011 18.48968 C 32.991675 18.333157 34.366632 18.283833 35.067174 18.750938 C 35.585064 19.096277 35.791219 20.242037 35.676465 20.926778 C 35.433166 21.448909 34.619027 21.898443 34.893077 22.232299 C 35.13299 22.435679 36.797949 21.208922 37.068921 20.491656 C 37.291181 19.90348 36.236514 19.064987 36.372693 18.315739 C 36.482745 17.820814 38.291129 17.94597 38.896726 18.054712 C 39.396276 18.176248 39.881337 19.415105 40.376418 19.360154 C 40.829958 19.360154 41.962155 17.896648 42.084843 17.903506 C 42.557037 17.981498 42.900295 19.360154 42.900295 19.360154 C 42.087851 20.11449 41.432471 21.149888 40.463348 21.623083 C 38.937491 22.368245 37.136661 22.816931 35.415362 23.01561 C 32.610961 23.339216 29.286126 22.200393 26.885943 23.189628 C 24.992398 23.970165 22.56185 26.540437 22.534261 28.324699 C 22.503819 30.282824 23.774042 33.610668 26.051843 33.811966 C 28.809311 34.115382 31.690932 34.73631 32.684482 36.006613 C 33.460704 36.99916 32.556088 40.739235 32.681092 41.97586 C 32.728107 42.385857 33.921413 41.659496 34.632054 41.292734 C 35.720239 40.73122 37.036552 39.622378 37.417035 38.420588 C 38.139001 36.14102 38.220226 33.313727 37.939396 30.848651 C 37.698019 28.730073 35.594547 24.895129 35.850639 24.669244 C 36.087699 24.460082 37.950184 28.698629 39.418856 29.54321 C 40.271066 30.033126 42.226648 29.310929 42.813282 28.672736 C 43.213187 28.237614 42.094937 26.576273 42.378084 26.322876 C 42.646202 26.082965 44.349697 27.764419 44.46692 27.193351 C 45.400815 22.85716 44.523018 19.655322 42.996394 15.640658 C 41.747136 12.576385 38.205818 8.3581065 34.424589 6.2903745 C 33.892128 5.9966098 31.584657 7.2967493 29.804094 8.4356357 C 28.789042 8.9436639 27.734298 10.473449 28.255582 10.840521 C 28.715134 11.203122 30.077376 9.9799107 31.041409 9.7627349 C 32.769566 9.3496539 33.572531 9.5736121 34.893077 10.221516 C 34.893077 10.221516 36.764736 11.770338 35.937491 12.919488 C 35.41236 13.615097 33.674644 13.61579 33.674644 13.61579 C 33.297476 13.412872 32.903971 12.929969 32.543141 13.006573 C 31.946721 13.133194 31.443239 13.938087 30.802502 14.225161 C 29.499371 14.808638 27.976367 14.927862 26.711847 15.617768 C 25.996817 15.782769 25.612405 16.565387 25.319396 17.010295 z "
       style="font-size:12;opacity:0.5;fill:#261933;fill-rule:evenodd;stroke:#000000;stroke-width:0.0880094pt;"
       id="path566" />
    <path
       d="M 9.1648589 34.885281 C 8.8957403 34.078081 -1.2973101 15.822458 18.077151 6.466728 C 26.861435 2.1842989 39.83918 10.123333 41.282807 14.874608 C 41.505143 15.593414 32.503069 5.3322595 19.674678 11.006985 C 2.9726259 18.347183 9.4002238 35.591452 9.1648589 34.885281 z "
       style="font-size:12;opacity:0.7;fill:url(#linearGradient569);fill-rule:evenodd;stroke:none;stroke-width:0.0998909pt;"
       id="path984" />
  </g>
  <path
     style="font-size:12;fill:url(#linearGradient575);fill-opacity:1.00;fill-rule:evenodd;stroke:#261933;stroke-width:1pt;stroke-opacity:1;"
     d="M 107.06779 23.830882 C 99.270134 32.828175 105.14836 37.506768 110.6667 42.18536 C 101.12957 47.343808 85.474282 48.183555 77.736612 44.704602 C 86.793887 38.466479 86.134085 32.588247 80.075908 23.830882 C 90.512769 28.149583 96.990821 26.350124 107.06779 23.830882 z "
     id="path591"
     sodipodi:nodetypes="ccccc"
     transform="matrix(1.217441,0.000000,0.000000,1.217441,-75.31353,1.584840)" />
  <path
     style="font-size:12;fill:url(#linearGradient578);fill-opacity:1.00;fill-rule:evenodd;stroke:#261933;stroke-width:0.924599pt;stroke-opacity:1;"
     d="M 84.163114 39.541496 C 86.024687 39.628756 87.886256 39.716018 89.747825 39.803279 C 90.562258 37.534492 91.202173 35.265704 90.620434 31.949784 C 89.864167 29.564648 88.060774 29.971866 86.780944 31.60074 C 84.8612 34.073137 84.337636 36.545533 84.163114 39.541496 z "
     id="path598"
     sodipodi:nodetypes="ccccc"
     transform="matrix(1.217441,0.000000,0.000000,1.217441,-75.31353,1.584840)" />
  <path
     style="font-size:12;fill:#ffffff;fill-opacity:1;fill-rule:evenodd;stroke:#261933;stroke-width:1.22242pt;"
     d="M 26.83139 49.667123 C 29.203977 49.792409 31.576561 49.917698 33.949148 50.042985 C 34.303266 48.95716 34.232443 47.871336 34.586559 46.785511 C 32.178563 45.532636 30.407975 45.031487 27.787508 45.783212 C 27.681272 46.994325 26.937625 48.456011 26.83139 49.667123 z "
     id="path599"
     sodipodi:nodetypes="ccccc" />
  <path
     style="font-size:12;fill:url(#linearGradient573);fill-opacity:1.00;fill-rule:evenodd;stroke:#261933;stroke-width:1pt;stroke-opacity:1;"
     d="M 90.692714 46.684006 C 93.451884 47.643718 95.851162 47.523754 98.970224 46.324115 C 101.84936 45.004512 102.92903 40.805775 98.970224 40.205955 C 87.633635 39.726099 76.297045 39.246244 64.960456 38.766388 C 63.101015 40.685811 73.477893 49.443176 90.692714 46.684006 z "
     id="path593"
     sodipodi:nodetypes="ccccc"
     transform="matrix(1.217441,0.000000,0.000000,1.217441,-75.31353,1.584840)" />
  <path
     style="font-size:12;fill:none;fill-opacity:1.00;fill-rule:evenodd;stroke:#261933;stroke-width:1pt;stroke-opacity:1;"
     d="M 90.152877 46.684006 C 91.952336 46.444078 94.831469 45.484367 96.630928 43.804872 C 96.630928 43.804872 96.630928 43.804872 96.630928 43.804872 C 96.630928 43.804872 96.630928 43.804872 96.630928 43.804872 "
     id="path594"
     sodipodi:nodetypes="cccc"
     transform="matrix(1.217441,0.000000,0.000000,1.217441,-75.31353,1.584840)" />
  <path
     style="font-size:12;fill:none;fill-opacity:1.00;fill-rule:evenodd;stroke:#261933;stroke-width:0.75;stroke-linecap:round;stroke-opacity:1;"
     d="M 94.896275 43.31883 C 96.595065 42.611001 97.019762 43.979471 97.019762 44.876054 "
     id="path595"
     sodipodi:nodetypes="cc"
     transform="matrix(1.217441,0.000000,0.000000,1.217441,-75.31353,1.584840)" />
  <path
     style="font-size:12;fill:url(#linearGradient603);fill-opacity:1.00;fill-rule:evenodd;stroke:#261933;stroke-width:1pt;stroke-opacity:1;"
     d="M 89.469586 39.708901 C 91.48297 39.803278 93.49635 39.897656 95.50973 39.992033 C 96.39058 37.538226 97.08268 35.084418 96.4535 31.498085 C 95.63556 28.918441 93.6851 29.358868 92.3009 31.120576 C 90.2246 33.794597 89.65834 36.468617 89.469586 39.708901 z "
     id="path596"
     sodipodi:nodetypes="ccccc"
     transform="matrix(1.217441,0.000000,0.000000,1.217441,-75.31353,1.584840)" />
  <path
     style="font-size:12;fill:#ffffff;fill-opacity:1;fill-rule:evenodd;stroke:#261933;stroke-width:1.31451pt;stroke-opacity:1;"
     d="M 33.265716 49.870929 C 35.831787 50.004879 38.397857 50.138831 40.963928 50.272782 C 41.346924 49.111874 41.270325 47.950965 41.653319 46.790057 C 39.04895 45.450548 37.133971 44.914744 34.299804 45.718451 C 34.184906 47.01331 33.380614 48.57607 33.265716 49.870929 z "
     id="path597"
     sodipodi:nodetypes="ccccc" />
  <path
     style="font-size:12;fill-rule:evenodd;stroke-width:1pt;"
     d="M 64.837136 38.953884 C 68.926815 39.111179 73.016493 39.268475 77.106172 39.42577 C 77.82973 41.816659 77.420763 44.018793 75.879269 46.032174 C 67.857207 44.427762 63.798987 39.42577 64.837136 38.953884 z "
     id="path606"
     sodipodi:nodetypes="cccc"
     transform="matrix(1.217441,0.000000,0.000000,1.217441,-75.31353,1.584840)" />
  <path
     sodipodi:type="arc"
     style="font-size:12;fill:url(#linearGradient608);fill-opacity:1.00;fill-rule:evenodd;stroke-width:1pt;"
     id="path607"
     sodipodi:cx="69.74475098"
     sodipodi:cy="40.93580627"
     sodipodi:rx="3.49195647"
     sodipodi:ry="1.60441244"
     d="M 73.236707 40.935806 A 3.491956 1.604412 0 1 0 66.252795,40.935806 A 3.49196 1.60441 0 1 0 73.2367 40.9358 L 69.744751 40.935806 z"
     transform="matrix(1.212558,0.108931,-5.766919e-2,0.641943,-73.76121,16.16721)" />
  <path
     sodipodi:type="arc"
     style="font-size:12;fill-rule:evenodd;stroke-width:1pt;"
     id="path609"
     sodipodi:cx="71.63229370"
     sodipodi:cy="34.61253357"
     sodipodi:rx="0.56626320"
     sodipodi:ry="0.47188601"
     d="M 72.198557 34.612534 A 0.566263 0.471886 0 1 0 71.066031,34.612534 A 0.566263 0.471886 0 1 0 72.1986 34.6125 L 71.632294 34.612534 z"
     transform="matrix(2.231975,0.000000,0.000000,2.678369,-120.0666,-44.84522)" />
  <path
     sodipodi:type="arc"
     style="font-size:12;fill-rule:evenodd;stroke-width:1pt;"
     id="path610"
     sodipodi:cx="71.63229370"
     sodipodi:cy="34.61253357"
     sodipodi:rx="0.56626320"
     sodipodi:ry="0.47188601"
     d="M 72.198557 34.612534 A 0.566263 0.471886 0 1 0 71.066031,34.612534 A 0.566263 0.471886 0 1 0 72.1986 34.6125 L 71.632294 34.612534 z"
     transform="matrix(2.231975,0.000000,0.000000,2.678369,-127.6499,-45.30481)" />
  <path
     style="font-size:12;fill:url(#linearGradient612);fill-opacity:1.00;fill-rule:evenodd;stroke:#261933;stroke-width:1.2393pt;"
     d="M 44.245965 33.957171 C 42.658485 30.548509 38.927903 29.208025 35.197321 28.556932 C 34.959199 29.55272 36.149811 30.548509 36.626056 30.854906 C 33.689214 31.161302 30.752371 32.157091 29.244262 33.842271 C 29.799881 34.838059 31.30799 34.914659 32.339854 35.450853 "
     id="path611"
     sodipodi:nodetypes="ccccc" />
  <path
     style="font-size:12;fill:url(#linearGradient614);fill-opacity:1.00;fill-rule:evenodd;stroke-width:1pt;"
     d="M 91.200054 35.06165 C 91.494075 33.778648 92.483056 31.854145 94.006621 30.571143 C 94.434288 30.410768 94.701581 30.410768 94.968873 30.731518 C 93.284933 31.800686 92.456327 33.618273 91.200054 35.06165 z "
     id="path613"
     sodipodi:nodetypes="cccc"
     transform="matrix(1.217441,0.000000,0.000000,1.217441,-75.31353,1.584840)" />
  <path
     style="font-size:12;fill:url(#linearGradient614);fill-opacity:1.00;fill-rule:evenodd;stroke-width:1pt;"
     d="M 85.533462 35.756609 C 85.827483 34.473607 86.816464 32.549104 88.340029 31.266102 C 88.767696 31.105727 89.034989 31.105727 89.302281 31.426477 C 87.618341 32.495645 86.789735 34.313232 85.533462 35.756609 z "
     id="path615"
     sodipodi:nodetypes="cccc"
     transform="matrix(1.217441,0.000000,0.000000,1.217441,-75.31353,1.584840)" />
</svg>
