<?xml version="1.0" encoding="UTF-8" standalone="no"?>
<!DOCTYPE svg PUBLIC "-//W3C//DTD SVG 20010904//EN"
"http://www.w3.org/TR/2001/REC-SVG-20010904/DTD/svg10.dtd">
<!-- Created with Inkscape (http://www.inkscape.org/) -->
<svg
   id="svg1"
   sodipodi:version="0.32"
   inkscape:version="0.38"
   width="48pt"
   height="48pt"
   sodipodi:docbase="/home/tom"
   sodipodi:docname="frozenbubble.svg"
   xmlns="http://www.w3.org/2000/svg"
   xmlns:inkscape="http://www.inkscape.org/namespaces/inkscape"
   xmlns:sodipodi="http://sodipodi.sourceforge.net/DTD/sodipodi-0.dtd"
   xmlns:xlink="http://www.w3.org/1999/xlink">
  <defs
     id="defs3">
    <linearGradient
       xlink:href="#linearGradient584"
       id="linearGradient612"
       x1="0.00342466"
       y1="-0.50000000"
       x2="0.74657536"
       y2="0.63157892" />
    <linearGradient
       id="linearGradient863">
      <stop
         style="stop-color:#ff0000;stop-opacity:1.0000000;"
         offset="0.0000000"
         id="stop864" />
      <stop
         style="stop-color:#990000;stop-opacity:1.0000000;"
         offset="1.0000000"
         id="stop865" />
    </linearGradient>
    <linearGradient
       id="linearGradient599">
      <stop
         style="stop-color:#ffffff;stop-opacity:1.0000000;"
         offset="0.0000000"
         id="stop600" />
      <stop
         style="stop-color:#d9cce6;stop-opacity:1.0000000;"
         offset="1.0000000"
         id="stop601" />
    </linearGradient>
    <linearGradient
       id="linearGradient584">
      <stop
         style="stop-color:#ffffff;stop-opacity:1;"
         offset="0.00000000"
         id="stop585" />
      <stop
         style="stop-color:#ffffff;stop-opacity:0;"
         offset="1.00000000"
         id="stop586" />
    </linearGradient>
    <linearGradient
       id="linearGradient578">
      <stop
         style="stop-color:#d9cce6;stop-opacity:1;"
         offset="0.00000000"
         id="stop579" />
      <stop
         style="stop-color:#73667f;stop-opacity:1;"
         offset="1.00000000"
         id="stop580" />
    </linearGradient>
    <linearGradient
       xlink:href="#linearGradient599"
       id="linearGradient581" />
    <linearGradient
       xlink:href="#linearGradient584"
       id="linearGradient583"
       x1="-2.6752689e-17"
       y1="0.50000000"
       x2="1.0000000"
       y2="0.50000000" />
    <linearGradient
       xlink:href="#linearGradient599"
       id="linearGradient860"
       x1="0.00000000"
       y1="0.00000000"
       x2="0.98905110"
       y2="0.97457629" />
    <linearGradient
       xlink:href="#linearGradient584"
       id="linearGradient861"
       x1="-0.00000000"
       y1="0.00000000"
       x2="1.00000000"
       y2="0.00000000" />
    <linearGradient
       xlink:href="#linearGradient584"
       id="linearGradient862"
       x1="-0.08500000"
       y1="-0.13281250"
       x2="0.99500000"
       y2="0.96875000" />
    <radialGradient
       xlink:href="#linearGradient863"
       id="radialGradient595"
       cx="0.50000000"
       cy="0.50000000"
       r="1.0000656"
       fx="0.50000000"
       fy="0.50000000" />
    <radialGradient
       xlink:href="#linearGradient584"
       id="radialGradient670"
       cx="0.56218737"
       cy="0.50242949"
       r="0.76313883"
       fx="0.56218737"
       fy="0.50242949" />
    <linearGradient
       xlink:href="#linearGradient584"
       id="linearGradient733"
       x1="-0.00000000"
       y1="-0.00000000"
       x2="1.00000000"
       y2="-0.00000000" />
  </defs>
  <sodipodi:namedview
     id="base"
     pagecolor="#ffffff"
     bordercolor="#666666"
     borderopacity="1.0"
     inkscape:pageopacity="0.0"
     inkscape:pageshadow="2"
     inkscape:zoom="10.153846"
     inkscape:cx="31.750000"
     inkscape:cy="19.673725"
     inkscape:window-width="1018"
     inkscape:window-height="711"
     inkscape:window-x="0"
     inkscape:window-y="30" />
  <path
     style="font-size:12;fill:#000000;fill-rule:evenodd;stroke:none;stroke-width:14.8479;fill-opacity:1;opacity:0.302675;"
     d="M 24.772658,34.648650 C 26.116065,34.810362 36.772855,21.657427 36.820855,20.509145 C 36.847554,19.179200 24.885821,12.080534 24.451721,10.861464 C 24.030368,9.8554371 31.021182,4.6186771 30.082944,4.2527811 C 29.189959,3.9369421 6.2025407,2.9126441 3.7205173,5.6924611 C 1.4786813,8.3833931 6.0987977,30.482256 6.9032607,31.455963 C 7.6284187,32.295066 11.733794,24.763736 12.826080,24.818885 C 14.228309,24.856759 23.265986,34.542210 24.772658,34.648650 z "
     id="path617"
     sodipodi:nodetypes="csssssss" />
  <path
     style="font-size:12.000000;fill:url(#linearGradient581);fill-rule:evenodd;stroke:#261933;stroke-width:1.2037321;"
     d="M 24.038863,31.868279 C 25.241663,32.013066 34.783070,20.236773 34.826045,19.208674 C 34.849949,18.017927 24.140182,11.662238 23.751516,10.570759 C 23.374262,9.6700291 29.633390,4.9813691 28.793353,4.6537681 C 27.993831,4.3709871 7.5593747,3.2813761 5.1901272,5.9427671 C 3.1094820,8.4383631 7.3194867,28.137959 8.0397507,29.009754 C 8.6890117,29.761033 12.364701,23.017962 13.342664,23.067341 C 14.598130,23.101250 22.689886,31.772982 24.038863,31.868279 z "
     id="path589"
     sodipodi:nodetypes="csssssss" />
  <path
     style="fill:#261e2e;fill-rule:evenodd;stroke:none;stroke-opacity:1;stroke-width:1pt;stroke-linejoin:miter;stroke-linecap:butt;fill-opacity:1;opacity:0.201783;"
     d="M 29.943439,25.703569 C 29.024472,24.805443 6.4300477,6.1672791 5.1319187,6.2495401 C 4.1109625,6.2565351 6.3030557,24.761978 8.1536397,28.608541 C 8.8050657,29.962572 11.420388,22.347817 13.258836,22.741736 C 16.565448,23.450231 20.386494,30.413001 23.952628,31.488814 C 24.688343,31.743349 30.543503,26.302609 29.943439,25.703569 z "
     id="path644"
     sodipodi:nodetypes="csssss" />
  <path
     style="fill:url(#linearGradient583);fill-rule:evenodd;stroke:none;stroke-opacity:1;stroke-width:1pt;stroke-linejoin:miter;stroke-linecap:butt;fill-opacity:1;"
     d="M 6.1356717,6.4855011 C 13.078912,4.2247001 27.313129,5.3175851 27.438121,5.4393971 C 27.559107,5.5573061 13.991293,6.2599151 7.6517297,7.5244051 C 6.7588157,7.7025051 5.8531397,9.8767691 5.7406817,9.7671701 C 5.6071627,9.6370471 5.1658789,6.8153811 6.1356717,6.4855011 z "
     id="path665"
     sodipodi:nodetypes="cssss" />
  <path
     style="fill:url(#linearGradient612);fill-rule:evenodd;stroke:none;stroke-opacity:1;stroke-width:1pt;stroke-linejoin:miter;stroke-linecap:butt;fill-opacity:1;"
     d="M 23.291619,11.538569 C 25.554114,13.326432 33.574661,18.838452 33.790332,19.296586 C 33.966325,19.670439 27.234575,16.079917 24.466612,14.034533 C 23.735004,13.493911 22.740217,11.227372 23.291619,11.538569 z "
     id="path666"
     sodipodi:nodetypes="csss" />
  <ellipse
     cx="42.10733032"
     cy="34.26774216"
     rx="21.77344894"
     ry="21.77344894"
     transform="matrix(0.889871,0.000000,0.000000,0.880172,2.170059,9.649100)"
     style="font-size:12;fill:#000000;fill-opacity:0.40000001;fill-rule:evenodd;stroke-width:1pt;stroke:none;stroke-opacity:1;"
     id="ellipse859" />
  <ellipse
     cx="42.10733032"
     cy="34.26774216"
     rx="21.77344894"
     ry="21.77344894"
     transform="matrix(0.889871,0.000000,0.000000,0.880172,0.584913,7.883003)"
     style="font-size:12;fill:url(#radialGradient595);fill-opacity:0.75;fill-rule:evenodd;stroke-width:1pt;stroke:#660000;stroke-opacity:1.0000000;"
     id="path623" />
  <path
     sodipodi:type="arc"
     style="fill:url(#radialGradient670);fill-opacity:0.75000000;fill-rule:evenodd;stroke:none;stroke-width:1.0000000pt;"
     id="path867"
     sodipodi:cx="27.391098"
     sodipodi:cy="20.544508"
     sodipodi:rx="10.894886"
     sodipodi:ry="6.4630680"
     d="M 38.285984 20.544508 A 10.894886 6.4630680 0 1 0 16.496212,20.544508 A 10.894886 6.4630680 0 1 0 38.285984 20.544508 z"
     transform="matrix(0.862740,-0.505647,0.505647,0.862740,-2.812290,25.04137)" />
  <path
     style="fill:url(#linearGradient581);fill-rule:evenodd;stroke:none;stroke-opacity:1;stroke-width:1pt;stroke-linejoin:miter;stroke-linecap:butt;fill-opacity:0.75;"
     d="M 20.312500,30.085227 C 29.832702,14.696969 47.724116,15.681818 55.520833,30.085227 C 54.207701,28.813132 51.417298,28.279672 49.365530,28.484849 C 47.847222,28.731061 47.067550,34.147728 45.549242,34.393940 C 43.497474,32.424243 42.184343,29.962122 39.393939,28.484849 C 37.260101,29.469698 35.126262,36.609849 32.992424,38.825758 C 31.474116,38.497475 29.955808,38.169192 28.437500,37.840909 C 27.904040,34.927399 28.355429,29.059344 26.837121,29.100379 C 25.482954,30.331440 24.128788,31.562500 22.774621,32.793561 C 20.969066,33.244950 21.133207,30.988005 20.312500,30.085227 z "
     id="path866"
     sodipodi:nodetypes="cccccccccc" />
</svg>
