<?xml version="1.0" encoding="UTF-8" standalone="no"?>
<!DOCTYPE svg PUBLIC "-//W3C//DTD SVG 20010904//EN"
"http://www.w3.org/TR/2001/REC-SVG-20010904/DTD/svg10.dtd">
<!-- Created with Inkscape (http://www.inkscape.org/) -->
<svg
   id="svg1"
   sodipodi:version="0.32"
   inkscape:version="0.40"
   width="48pt"
   height="48pt"
   sodipodi:docbase="/home/jakob/dev/lila-cvs/lila-kde/scalable/apps"
   sodipodi:docname="fsview.svg"
   xmlns="http://www.w3.org/2000/svg"
   xmlns:cc="http://web.resource.org/cc/"
   xmlns:inkscape="http://www.inkscape.org/namespaces/inkscape"
   xmlns:sodipodi="http://sodipodi.sourceforge.net/DTD/sodipodi-0.dtd"
   xmlns:rdf="http://www.w3.org/1999/02/22-rdf-syntax-ns#"
   xmlns:dc="http://purl.org/dc/elements/1.1/"
   xmlns:xlink="http://www.w3.org/1999/xlink">
  <metadata
     id="metadata28">
    <rdf:RDF
       id="RDF29">
      <cc:Work
         rdf:about=""
         id="Work30">
        <dc:format
           id="format31">image/svg+xml</dc:format>
        <dc:type
           id="type33"
           rdf:resource="http://purl.org/dc/dcmitype/StillImage" />
      </cc:Work>
    </rdf:RDF>
  </metadata>
  <defs
     id="defs3">
    <linearGradient
       id="linearGradient1715">
      <stop
         style="stop-color:#fff300;stop-opacity:1.0000000;"
         offset="0.0000000"
         id="stop1716" />
      <stop
         style="stop-color:#d7a600;stop-opacity:1.0000000;"
         offset="1.0000000"
         id="stop1717" />
    </linearGradient>
    <linearGradient
       id="linearGradient1712">
      <stop
         style="stop-color:#7fff7f;stop-opacity:1.0000000;"
         offset="0.0000000"
         id="stop1713" />
      <stop
         style="stop-color:#3fbf3f;stop-opacity:1.0000000;"
         offset="1.0000000"
         id="stop1714" />
    </linearGradient>
    <linearGradient
       id="linearGradient1709">
      <stop
         style="stop-color:#f50000;stop-opacity:1.0000000;"
         offset="0.0000000"
         id="stop1710" />
      <stop
         style="stop-color:#a90000;stop-opacity:1.0000000;"
         offset="1.0000000"
         id="stop1711" />
    </linearGradient>
    <linearGradient
       id="linearGradient584">
      <stop
         style="stop-color:#ffffff;stop-opacity:1;"
         offset="0.00000000"
         id="stop585" />
      <stop
         style="stop-color:#ffffff;stop-opacity:0;"
         offset="1.00000000"
         id="stop586" />
    </linearGradient>
    <linearGradient
       id="linearGradient578">
      <stop
         style="stop-color:#d9cce6;stop-opacity:1;"
         offset="0.00000000"
         id="stop579" />
      <stop
         style="stop-color:#73667f;stop-opacity:1;"
         offset="1.00000000"
         id="stop580" />
    </linearGradient>
    <linearGradient
       xlink:href="#linearGradient584"
       id="linearGradient581"
       x1="12.195200"
       y1="34.690324"
       x2="81.265222"
       y2="7.4917665"
       gradientTransform="matrix(1.058571,0.000000,0.000000,0.975344,-0.407867,1.307024)"
       gradientUnits="userSpaceOnUse" />
    <linearGradient
       xlink:href="#linearGradient584"
       id="linearGradient583"
       x1="1.2731385"
       y1="18.599604"
       x2="12.713946"
       y2="18.599604"
       gradientTransform="matrix(3.886965,0.000000,0.000000,0.265624,-0.407867,1.307024)"
       gradientUnits="userSpaceOnUse" />
    <linearGradient
       xlink:href="#linearGradient578"
       id="linearGradient654"
       x1="0.62902899"
       y1="2.0319597"
       x2="27.307993"
       y2="2.0319597"
       gradientTransform="matrix(2.088378,0.000000,0.000000,0.494389,-0.407867,1.307024)"
       gradientUnits="userSpaceOnUse" />
    <linearGradient
       xlink:href="#linearGradient1709"
       id="linearGradient655"
       x1="13.570267"
       y1="13.338431"
       x2="22.839582"
       y2="13.338431"
       gradientTransform="matrix(2.178844,7.386936e-2,0.000000,1.462891,-22.83480,-5.461209)"
       gradientUnits="userSpaceOnUse" />
    <linearGradient
       xlink:href="#linearGradient584"
       id="linearGradient653"
       x1="0.00000000"
       y1="-0.00000000"
       x2="0.97945207"
       y2="0.97656250" />
    <linearGradient
       inkscape:collect="always"
       xlink:href="#linearGradient1715"
       id="linearGradient1085"
       x1="37.468796"
       y1="29.338570"
       x2="46.738113"
       y2="29.338570"
       gradientTransform="matrix(2.213936,7.505910e-2,0.000000,1.486452,-75.07398,-28.53619)"
       gradientUnits="userSpaceOnUse" />
    <linearGradient
       inkscape:collect="always"
       xlink:href="#linearGradient1712"
       id="linearGradient1086"
       x1="13.936061"
       y1="28.533531"
       x2="23.205378"
       y2="28.533531"
       gradientTransform="matrix(2.213936,6.159556e-3,0.000000,1.486452,-2.438417,-23.27156)"
       gradientUnits="userSpaceOnUse" />
    <linearGradient
       inkscape:collect="always"
       xlink:href="#linearGradient1709"
       id="linearGradient1087"
       x1="37.103001"
       y1="14.143469"
       x2="46.372318"
       y2="14.143469"
       gradientTransform="matrix(2.213936,6.159556e-3,0.000000,1.486452,-53.24752,12.47477)"
       gradientUnits="userSpaceOnUse" />
    <linearGradient
       inkscape:collect="always"
       xlink:href="#linearGradient578"
       id="linearGradient1736"
       gradientUnits="userSpaceOnUse"
       gradientTransform="matrix(2.213936,7.505910e-2,0.000000,1.486452,-21.66021,11.53862)"
       x1="13.570267"
       y1="13.338431"
       x2="22.839582"
       y2="13.338431" />
    <linearGradient
       inkscape:collect="always"
       xlink:href="#linearGradient584"
       id="linearGradient2360"
       x1="2.5433240"
       y1="69.279167"
       x2="4.6235847"
       y2="69.937325"
       gradientTransform="scale(3.825350,0.261414)"
       gradientUnits="userSpaceOnUse" />
    <linearGradient
       inkscape:collect="always"
       xlink:href="#linearGradient584"
       id="linearGradient2983"
       gradientUnits="userSpaceOnUse"
       gradientTransform="matrix(3.886960,0.000000,0.000000,0.265624,1.069812,16.74988)"
       x1="2.5433240"
       y1="69.279167"
       x2="4.6235847"
       y2="69.937325" />
    <linearGradient
       inkscape:collect="always"
       xlink:href="#linearGradient584"
       id="linearGradient2985"
       gradientUnits="userSpaceOnUse"
       gradientTransform="matrix(3.886960,-0.163520,0.000000,0.265624,21.25009,3.714767)"
       x1="2.5433240"
       y1="69.279167"
       x2="4.6235847"
       y2="69.937325" />
    <linearGradient
       inkscape:collect="always"
       xlink:href="#linearGradient584"
       id="linearGradient2989"
       gradientUnits="userSpaceOnUse"
       gradientTransform="matrix(3.886960,-0.163520,0.000000,0.265624,21.62597,18.18980)"
       x1="2.5433240"
       y1="69.279167"
       x2="4.6235847"
       y2="69.937325" />
    <linearGradient
       inkscape:collect="always"
       xlink:href="#linearGradient584"
       id="linearGradient2990"
       gradientUnits="userSpaceOnUse"
       gradientTransform="matrix(3.886960,0.000000,0.000000,0.265624,0.628469,2.219670)"
       x1="2.5433240"
       y1="69.279167"
       x2="4.6235847"
       y2="69.937325" />
  </defs>
  <sodipodi:namedview
     id="base"
     pagecolor="#ffffff"
     bordercolor="#666666"
     borderopacity="1.0"
     inkscape:pageopacity="0.0"
     inkscape:pageshadow="2"
     inkscape:zoom="16.895833"
     inkscape:cx="24.000000"
     inkscape:cy="24.000000"
     inkscape:window-width="1400"
     inkscape:window-height="992"
     inkscape:window-x="0"
     inkscape:window-y="0"
     inkscape:current-layer="svg1" />
  <path
     style="font-size:12.000000;opacity:0.30267498;fill-rule:evenodd;stroke-width:1.2500000"
     d="M 3.5525916,53.681338 C 1.9624538,51.914527 2.1519994,8.8416465 4.5781422,6.9565724 C 6.3978563,5.5374822 56.588970,5.7668068 58.173052,7.7848429 C 59.991596,10.273671 60.887682,56.920805 58.774644,58.412232 C 56.744142,59.961533 5.3365978,55.797888 3.5525916,53.681338 z "
     id="path737"
     sodipodi:nodetypes="cssss" />
  <path
     style="font-size:12.000000;fill:url(#linearGradient581);fill-rule:evenodd;stroke:#000000;stroke-width:3.1072614"
     d="M 2.5279755,49.094688 C 1.0208248,47.420083 1.2004775,6.5950262 3.5000080,4.8083265 C 5.2247557,3.4632935 52.796570,3.6806496 54.297985,5.5933740 C 56.021623,7.9523169 56.870948,52.165098 54.868179,53.578692 C 52.943642,55.047144 4.2188828,51.100783 2.5279755,49.094688 z "
     id="path738"
     sodipodi:nodetypes="cssss" />
  <path
     style="font-size:12.000000;fill:url(#linearGradient654);fill-rule:evenodd;stroke:#000000;stroke-width:3.1072614"
     d="M 2.8057183,11.804705 C 1.9305074,11.504942 2.9215597,5.4414786 3.5000080,4.8083265 C 4.8733979,3.0623040 52.514180,3.9853787 54.297985,5.5933740 C 55.105667,6.3892231 55.455947,12.223561 54.455726,13.154512 C 52.924025,15.077324 5.0091323,13.057271 2.8057183,11.804705 z "
     id="path739"
     sodipodi:nodetypes="cssss" />
  <path
     style="font-size:12.000000;fill-rule:evenodd;stroke-width:1.0000000pt"
     d="M 46.940787,7.2947135 C 46.594484,7.7054219 48.170917,9.1909210 48.236144,9.5052620 C 48.298834,9.7887924 46.659644,11.054080 47.011139,11.397191 C 47.319294,11.764815 48.923155,10.069817 49.216673,10.123791 C 49.433885,10.149892 50.580996,11.869160 50.945308,11.571371 C 51.291632,11.246287 50.002745,9.6047466 49.953195,9.2914311 C 49.956774,9.0039107 51.810685,7.8662485 51.530648,7.4979254 C 51.164026,7.1182395 49.289118,8.7271570 48.949062,8.6258577 C 48.656304,8.5104184 47.291475,6.9301128 46.940787,7.2947135 z "
     id="path740"
     sodipodi:nodetypes="cssssssss" />
  <path
     style="font-size:12.000000;fill:url(#linearGradient583);fill-rule:evenodd;stroke-width:1.0000000pt"
     d="M 4.6450384,9.2730297 C 4.4873955,9.0429518 4.3889714,6.4852891 5.2715673,6.4436359 C 19.177387,5.7873792 48.867686,6.9711723 49.010288,7.1793021 C 49.150521,7.3839713 20.187442,7.0181473 6.1200726,7.6820258 C 5.3990227,7.7160526 4.7702310,9.4557497 4.6450384,9.2730297 z "
     id="path741"
     sodipodi:nodetypes="cssss" />
  <path
     style="font-size:12.000000;fill:url(#linearGradient1085);fill-opacity:1.0000000;fill-rule:evenodd;stroke:#333300;stroke-width:0.97500002;stroke-miterlimit:4.0000000;stroke-opacity:1.0000000"
     d="M 9.7161179,18.840647 C 8.4048007,19.587439 9.2451949,29.256148 10.294249,30.289378 C 10.687642,30.853151 24.952546,32.073963 26.526126,31.232854 C 27.116220,30.496009 27.812277,20.749520 26.435399,19.739577 C 24.402858,19.085828 10.175080,18.408977 9.7161179,18.840647 z "
     id="path648"
     sodipodi:nodetypes="ccccc" />
  <path
     style="font-size:12.000000;fill:url(#linearGradient1087);fill-opacity:1.0000000;fill-rule:evenodd;stroke:#330000;stroke-width:0.97500002;stroke-miterlimit:4.0000000;stroke-opacity:1.0000000"
     d="M 30.732746,34.623855 C 29.421430,35.411458 30.261823,45.054011 31.310875,46.054593 C 31.704270,46.606124 45.969176,47.678930 47.542755,46.788850 C 48.132849,46.033643 48.828907,35.969560 47.452026,35.002466 C 45.419487,34.411972 31.191708,34.177902 30.732746,34.623855 z "
     id="path639"
     sodipodi:nodetypes="ccccc" />
  <path
     style="font-size:12.000000;fill:url(#linearGradient1086);fill-opacity:1.0000000;fill-rule:evenodd;stroke:#003300;stroke-width:0.97500002;stroke-miterlimit:4.0000000;stroke-opacity:1.0000000"
     d="M 30.251758,20.124938 C 28.940440,20.912542 29.780835,30.555094 30.829887,31.555679 C 31.223281,32.107208 45.488187,32.884084 47.061768,31.994005 C 47.651858,31.238795 48.347917,21.248696 46.971039,20.281602 C 44.938497,19.691108 30.710720,19.678986 30.251758,20.124938 z "
     id="path647"
     sodipodi:nodetypes="ccccc" />
  <path
     style="font-size:12.000000;fill:url(#linearGradient1736);fill-opacity:1.0000000;fill-rule:evenodd;stroke:#261933;stroke-width:0.97500002;stroke-miterlimit:4.0000000;stroke-opacity:1.0000000"
     d="M 10.220099,33.338247 C 8.9087809,34.085041 9.7491749,43.441250 10.798229,44.474479 C 11.191623,45.038252 25.456528,46.571564 27.030108,45.730455 C 27.620199,44.993609 28.316258,35.247122 26.939379,34.237178 C 24.906838,33.583430 10.679059,32.906578 10.220099,33.338247 z "
     id="path1735"
     sodipodi:nodetypes="ccccc" />
  <path
     style="font-size:12.000000;fill:url(#linearGradient2990);fill-opacity:1.0000000;fill-rule:evenodd;stroke-width:1.0000000pt"
     d="M 10.221266,22.970319 C 9.9649559,22.860353 9.8139429,19.851747 10.697446,19.840228 C 14.905783,19.785365 21.437975,20.188026 24.291281,20.500719 C 24.982147,20.576431 12.232299,20.414738 11.245254,20.853095 C 10.585536,21.146082 10.647155,23.153040 10.221266,22.970319 z "
     id="path2359"
     sodipodi:nodetypes="cssss" />
  <path
     style="font-size:12.000000;fill:url(#linearGradient2983);fill-opacity:1.0000000;fill-rule:evenodd;stroke-width:1.0000000pt"
     d="M 10.662612,37.500524 C 10.406301,37.390558 10.255288,34.381951 11.138790,34.370433 C 15.347128,34.315569 21.879320,34.718231 24.732626,35.030924 C 25.423493,35.106636 12.673644,34.944943 11.686599,35.383299 C 11.026881,35.676286 11.088500,37.683244 10.662612,37.500524 z "
     id="path2982"
     sodipodi:nodetypes="cssss" />
  <path
     style="font-size:12.000000;fill:url(#linearGradient2985);fill-opacity:1.0000000;fill-rule:evenodd;stroke-width:1.0000000pt"
     d="M 30.842886,24.061858 C 30.586575,23.962675 30.435563,20.960421 31.319066,20.911735 C 35.527403,20.679831 42.059595,20.807692 44.912901,21.000350 C 45.603768,21.046998 32.853920,21.421676 31.866875,21.901555 C 31.207156,22.222296 31.268776,24.226662 30.842886,24.061858 z "
     id="path2984"
     sodipodi:nodetypes="cssss" />
  <path
     style="font-size:12.000000;fill:url(#linearGradient2989);fill-opacity:1.0000000;fill-rule:evenodd;stroke-width:1.0000000pt"
     d="M 31.218758,38.536890 C 30.962447,38.437707 30.811434,35.435453 31.694937,35.386767 C 35.903275,35.154864 42.435467,35.282724 45.288773,35.475382 C 45.979639,35.522030 33.229791,35.896708 32.242746,36.376587 C 31.583028,36.697328 31.644647,38.701694 31.218758,38.536890 z "
     id="path2988"
     sodipodi:nodetypes="cssss" />
</svg>
