<?xml version="1.0" encoding="UTF-8" standalone="no"?>
<!DOCTYPE svg PUBLIC "-//W3C//DTD SVG 20010904//EN"
"http://www.w3.org/TR/2001/REC-SVG-20010904/DTD/svg10.dtd">
<!-- Created with Inkscape (http://www.inkscape.org/) -->
<svg
   id="svg1"
   sodipodi:version="0.32"
   inkscape:version="0.40"
   width="48pt"
   height="48pt"
   sodipodi:docbase="/home/jakob/dev/lila-cvs/lila-theme/trunk/lila/kde/scalable/apps"
   sodipodi:docname="go.svg"
   xmlns="http://www.w3.org/2000/svg"
   xmlns:cc="http://web.resource.org/cc/"
   xmlns:inkscape="http://www.inkscape.org/namespaces/inkscape"
   xmlns:sodipodi="http://sodipodi.sourceforge.net/DTD/sodipodi-0.dtd"
   xmlns:rdf="http://www.w3.org/1999/02/22-rdf-syntax-ns#"
   xmlns:dc="http://purl.org/dc/elements/1.1/"
   xmlns:xlink="http://www.w3.org/1999/xlink">
  <metadata
     id="metadata33">
    <rdf:RDF
       id="RDF34">
      <cc:Work
         rdf:about=""
         id="Work35">
        <dc:format
           id="format36">image/svg+xml</dc:format>
        <dc:type
           id="type38"
           rdf:resource="http://purl.org/dc/dcmitype/StillImage" />
      </cc:Work>
    </rdf:RDF>
  </metadata>
  <defs
     id="defs3">
    <linearGradient
       id="linearGradient866">
      <stop
         style="stop-color:#ffffff;stop-opacity:1;"
         offset="0.00000000"
         id="stop867" />
      <stop
         style="stop-color:#d9cce6;stop-opacity:1;"
         offset="1.00000000"
         id="stop868" />
    </linearGradient>
    <linearGradient
       id="linearGradient584">
      <stop
         style="stop-color:#ffffff;stop-opacity:1;"
         offset="0.00000000"
         id="stop585" />
      <stop
         style="stop-color:#ffffff;stop-opacity:0;"
         offset="1.00000000"
         id="stop586" />
    </linearGradient>
    <linearGradient
       id="linearGradient578">
      <stop
         style="stop-color:#d9cce6;stop-opacity:1;"
         offset="0.00000000"
         id="stop579" />
      <stop
         style="stop-color:#73667f;stop-opacity:1;"
         offset="1.00000000"
         id="stop580" />
    </linearGradient>
    <linearGradient
       xlink:href="#linearGradient866"
       id="linearGradient581" />
    <linearGradient
       xlink:href="#linearGradient584"
       id="linearGradient583"
       gradientTransform="matrix(0.447986,0.000000,0.000000,2.425451,-3.504913,-3.389837)"
       x1="68.502748"
       y1="8.8208730"
       x2="80.675817"
       y2="8.8208730"
       gradientUnits="userSpaceOnUse" />
    <linearGradient
       xlink:href="#linearGradient584"
       id="linearGradient860"
       x1="-0.64000666"
       y1="42.728043"
       x2="1.5689627"
       y2="47.538193"
       gradientTransform="matrix(0.947574,-0.243539,0.254426,0.989935,0.000000,0.000000)"
       gradientUnits="userSpaceOnUse" />
    <linearGradient
       xlink:href="#linearGradient584"
       id="linearGradient861"
       gradientTransform="matrix(1.080801,0.000000,0.000000,1.005337,-3.504913,-3.389837)"
       x1="37.735262"
       y1="13.219221"
       x2="50.719053"
       y2="13.219221"
       gradientUnits="userSpaceOnUse" />
    <linearGradient
       xlink:href="#linearGradient866"
       id="linearGradient862"
       x1="30.355578"
       y1="3.3330496"
       x2="63.676762"
       y2="3.3330496"
       gradientTransform="matrix(0.919375,0.000000,0.000000,1.181854,-3.504910,-3.389836)"
       gradientUnits="userSpaceOnUse" />
    <linearGradient
       xlink:href="#linearGradient584"
       id="linearGradient869"
       x1="0.06481481"
       y1="0.04687500"
       x2="0.95370370"
       y2="0.94531250" />
    <radialGradient
       xlink:href="#linearGradient578"
       id="radialGradient975"
       cx="30.182658"
       cy="39.161179"
       r="12.979715"
       fx="30.182658"
       fy="39.161179"
       gradientTransform="scale(1.007104,0.992946)"
       gradientUnits="userSpaceOnUse" />
    <linearGradient
       xlink:href="#linearGradient584"
       id="linearGradient983"
       x1="0.00000000"
       y1="0.04687500"
       x2="0.99462366"
       y2="1.00000000" />
    <linearGradient
       xlink:href="#linearGradient578"
       id="linearGradient984"
       x1="0.05303030"
       y1="0.05468750"
       x2="0.96212119"
       y2="0.96875000" />
    <radialGradient
       xlink:href="#linearGradient584"
       id="radialGradient628"
       cx="18.818999"
       cy="26.934125"
       r="12.816736"
       fx="18.818999"
       fy="26.934125"
       gradientTransform="scale(1.258018,0.794901)"
       gradientUnits="userSpaceOnUse" />
    <radialGradient
       xlink:href="#linearGradient866"
       id="radialGradient635"
       cx="28.230732"
       cy="36.478013"
       r="26.584902"
       fx="28.230732"
       fy="36.478013"
       gradientTransform="matrix(1.064447,0.000000,0.000000,0.939455,-1.751898,-0.961776)"
       gradientUnits="userSpaceOnUse" />
    <radialGradient
       inkscape:collect="always"
       xlink:href="#linearGradient866"
       id="radialGradient2333"
       gradientUnits="userSpaceOnUse"
       gradientTransform="matrix(1.064447,0.000000,0.000000,0.939455,-1.973846,-0.961776)"
       cx="28.230732"
       cy="36.478013"
       fx="28.230732"
       fy="36.478013"
       r="26.584902" />
    <linearGradient
       inkscape:collect="always"
       xlink:href="#linearGradient584"
       id="linearGradient3582"
       gradientUnits="userSpaceOnUse"
       gradientTransform="matrix(-0.906058,2.396299e-2,-2.138643e-2,-1.107999,0.775441,-1.531412)"
       x1="-10.681993"
       y1="-12.120326"
       x2="-15.330283"
       y2="-16.190065" />
    <linearGradient
       inkscape:collect="always"
       xlink:href="#linearGradient584"
       id="linearGradient4205"
       gradientUnits="userSpaceOnUse"
       gradientTransform="matrix(0.877801,0.432057,-0.451373,0.917042,0.295931,-0.591861)"
       x1="18.188015"
       y1="21.326696"
       x2="20.195284"
       y2="22.919275" />
  </defs>
  <sodipodi:namedview
     id="base"
     pagecolor="#ffffff"
     bordercolor="#666666"
     borderopacity="1.0"
     inkscape:pageopacity="0.0"
     inkscape:pageshadow="2"
     inkscape:zoom="5.9735792"
     inkscape:cx="24.000001"
     inkscape:cy="24.000001"
     inkscape:window-width="1400"
     inkscape:window-height="992"
     inkscape:window-x="0"
     inkscape:window-y="0"
     inkscape:current-layer="svg1" />
  <path
     style="opacity:0.29999998;fill:#000000;fill-opacity:1.0000000;fill-rule:evenodd;stroke:#000000;stroke-width:2.8750000;stroke-linecap:butt;stroke-linejoin:miter;stroke-opacity:1.0000000"
     d="M 22.549619,15.142800 C 18.762209,14.212559 14.557672,8.9817948 11.187389,12.352077 C 7.7046076,15.834858 13.692607,18.963642 12.357728,23.945479 C 11.001401,29.007361 2.9375000,26.377988 2.9375000,31.986806 C 2.9375000,37.669584 10.760652,35.048949 12.483082,38.963614 C 14.193730,42.851501 7.1357877,47.020218 10.859623,50.744053 C 14.657415,54.541845 19.331637,47.280583 23.141481,49.480197 C 26.951325,51.679811 24.891746,58.100000 29.626095,58.100000 C 34.360572,58.100000 32.973711,51.125464 36.602902,49.030150 C 40.264369,46.916201 44.467891,55.617121 48.363807,51.721205 C 52.185794,47.899218 45.101895,44.721254 46.270764,40.358975 C 47.421575,36.064090 56.436970,36.848425 56.436970,31.388794 C 56.436970,26.227228 47.799018,29.063192 47.068114,25.508342 C 44.642842,21.521595 42.815584,17.933523 37.400252,15.342137 C 32.450041,13.481655 27.499830,14.013222 22.549619,15.142800 z "
     id="path2334"
     sodipodi:nodetypes="czzzzzzzzzzzccc" />
  <path
     style="fill:url(#radialGradient2333);fill-opacity:1.0000000;fill-rule:evenodd;stroke:#261933;stroke-width:2.8750000;stroke-linecap:butt;stroke-linejoin:miter;stroke-opacity:1.0000000"
     d="M 21.567498,13.814330 C 17.771699,13.900926 13.057672,7.1354459 9.6873891,10.505728 C 6.2046076,13.988509 12.340572,18.596948 10.857728,22.690992 C 9.3511705,26.850506 1.4375000,25.123501 1.4375000,30.732319 C 1.4375000,36.415097 9.2606517,33.794462 10.983082,37.709127 C 12.693730,41.597014 5.6357877,45.765731 9.3596231,49.489566 C 13.157415,53.287358 17.831637,46.026096 21.641481,48.225710 C 25.451325,50.425324 23.391746,56.845513 28.126095,56.845513 C 32.860572,56.845513 31.473711,49.870977 35.102902,47.775663 C 38.764369,45.661714 42.967891,54.362634 46.863807,50.466718 C 50.685794,46.644731 43.601895,43.466767 44.770764,39.104488 C 45.921575,34.809603 54.936970,35.593938 54.936970,30.134307 C 54.936970,24.972741 46.299018,27.808705 45.568114,24.253855 C 43.142842,20.267108 41.315584,16.679036 35.900252,14.087650 C 30.950041,12.227168 26.509320,13.701589 21.567498,13.814330 z "
     id="path634"
     sodipodi:nodetypes="czzzzzzzzzzzccs" />
  <path
     d="M 10.200638,47.047937 C 10.256853,46.419340 12.626939,42.127734 13.252433,41.571590 C 13.554580,41.302772 13.440651,43.752650 12.983263,44.573315 C 12.423388,45.578097 10.167230,47.419829 10.200638,47.047937 z "
     style="font-size:12.000000;opacity:0.69999999;fill:url(#linearGradient860);fill-rule:evenodd;stroke:none;stroke-width:1.1111300pt;fill-opacity:1.0;"
     id="path1585" />
  <path
     sodipodi:type="arc"
     style="font-size:12.000000;fill:url(#radialGradient975);fill-opacity:1.0000000;fill-rule:evenodd;stroke:#261933;stroke-width:1.0000000pt;stroke-opacity:1.0000000"
     id="path626"
     sodipodi:cx="30.299278"
     sodipodi:cy="31.993101"
     sodipodi:rx="13.554940"
     sodipodi:ry="13.355603"
     d="M 43.854218 31.993101 A 13.554940 13.355603 0 1 1  16.744338,31.993101 A 13.554940 13.355603 0 1 1  43.854218 31.993101 z"
     transform="translate(-1.973846,-0.961776)" />
  <path
     sodipodi:type="arc"
     style="font-size:12.000000;fill:url(#radialGradient628);fill-opacity:1.0000000;fill-rule:evenodd;stroke:none;stroke-width:1.0000000pt"
     id="path627"
     sodipodi:cx="27.907230"
     sodipodi:cy="25.365133"
     sodipodi:rx="9.0698500"
     sodipodi:ry="5.7309489"
     d="M 36.977080 25.365133 A 9.0698500 5.7309489 0 1 1  18.837380,25.365133 A 9.0698500 5.7309489 0 1 1  36.977080 25.365133 z"
     transform="translate(0.418202,3.491141e-2)" />
  <path
     d="M 26.278286,3.0275400 C 26.278286,3.0275400 28.145731,26.797959 26.402780,39.343448 C 28.270225,40.003728 32.627591,39.079331 34.744017,38.154927 C 35.739990,32.080251 35.242015,22.968281 35.242015,22.968281 C 38.354413,29.130977 41.964794,34.237212 46.073158,39.475503 C 49.683547,39.211386 51.924481,38.419037 54.289909,36.702284 C 50.223038,31.904181 46.280652,26.313735 43.209747,20.327117 C 47.899094,15.220882 51.716986,10.114645 54.663390,5.0084093 C 51.550991,4.8323313 48.687582,4.3921448 45.699676,2.4993070 C 43.292755,7.6495667 39.267386,13.063933 35.117515,18.346248 C 35.739998,12.887864 35.242015,7.4294522 34.619530,2.3672458 C 32.212602,3.2476401 29.556687,3.5997885 26.278286,3.0275400 z "
     style="font-size:12.000000;fill:#000000;fill-opacity:0.29999998;fill-rule:evenodd;stroke:#000000;stroke-width:1.8750000;stroke-linejoin:round;stroke-opacity:0.29999998;stroke-miterlimit:4.0000000;stroke-dasharray:none;"
     id="path729" />
  <path
     d="M 25.528074,2.3001772 C 25.528074,2.3001772 27.395519,26.070594 25.652568,38.616084 C 27.520013,39.276366 31.877379,38.351968 33.993805,37.427564 C 34.989777,31.352887 34.491802,22.240918 34.491802,22.240918 C 37.604202,28.403613 41.214583,33.509850 45.322945,38.748139 C 48.933335,38.484023 51.174268,37.691674 53.539697,35.974919 C 49.472824,31.176817 45.530441,25.586372 42.459535,19.599754 C 47.148883,14.493518 50.966774,9.3872817 53.913178,4.2810466 C 50.800780,4.1049686 47.937370,3.6647821 44.949464,1.7719442 C 42.542544,6.9222034 38.517173,12.336571 34.367301,17.618885 C 34.989785,12.160501 34.491802,6.7020893 33.869318,1.6398830 C 31.462389,2.5202773 28.806475,2.8724258 25.528074,2.3001772 z "
     style="font-size:12.000000;fill:url(#linearGradient862);fill-rule:evenodd;stroke:#261933;stroke-width:1.8750000;stroke-linejoin:round;stroke-miterlimit:4.0000000;stroke-opacity:1.0000000;stroke-dasharray:none;"
     id="path606" />
  <path
     d="M 27.183379,3.9048457 C 27.183379,3.9048457 28.007585,20.110890 27.639494,32.767359 C 28.575726,26.534261 29.012681,13.531432 28.648589,6.4388249 C 30.200979,6.4650721 31.460451,5.3220565 32.636747,4.1016819 C 32.620746,3.8064310 32.600737,3.5242971 32.576735,3.2421695 C 31.020341,4.1213603 29.303911,4.4756611 27.183379,3.9048457 z "
     style="font-size:12.000000;fill:url(#linearGradient583);fill-rule:evenodd;stroke-width:12.500000;stroke-linejoin:round"
     id="path619" />
  <path
     d="M 51.312270,5.4996013 C 49.704051,5.1584239 47.233825,4.3969320 45.613242,3.3733936 C 43.807088,7.2379095 40.273140,12.437304 37.279381,16.426481 C 39.976237,14.707466 44.605010,9.0762227 46.231781,6.0974533 C 47.444130,6.5501764 50.025704,6.0573004 51.312270,5.4996013 z "
     style="font-size:12.000000;fill:url(#linearGradient861);fill-rule:evenodd;stroke-width:12.500000;stroke-linejoin:round"
     id="path631" />
  <path
     d="M 14.704780,12.705003 C 12.804616,12.070843 10.713050,12.657270 11.300478,15.424865 C 11.890124,18.202913 9.6069263,13.293008 10.962674,11.811680 C 12.061266,10.611330 16.640410,13.350997 14.704780,12.705003 z "
     style="font-size:12.000000;opacity:0.69999999;fill:url(#linearGradient3582);fill-opacity:1.0000000;fill-rule:evenodd;stroke:none;stroke-width:1.1111300pt"
     id="path3581"
     sodipodi:nodetypes="czsz" />
  <path
     d="M 3.8582533,28.919329 C 4.3101674,28.478797 8.9031833,26.764331 9.7400325,26.749420 C 10.144387,26.742088 8.4629299,28.527469 7.5814648,28.852606 C 6.5023396,29.250772 3.5907770,29.179859 3.8582533,28.919329 z "
     style="font-size:12.000000;opacity:0.69999999;fill:url(#linearGradient4205);fill-opacity:1.0000000;fill-rule:evenodd;stroke:none;stroke-width:1.1111300pt"
     id="path4204" />
</svg>
