<?xml version="1.0" encoding="UTF-8" standalone="no"?>
<!DOCTYPE svg PUBLIC "-//W3C//DTD SVG 20010904//EN"
"http://www.w3.org/TR/2001/REC-SVG-20010904/DTD/svg10.dtd">
<!-- Created with Inkscape (http://www.inkscape.org/) -->
<svg
   version="1.0"
   x="0.0000000"
   y="0.0000000"
   width="60.000000"
   height="60.000000"
   id="svg1"
   sodipodi:version="0.32"
   inkscape:version="0.38"
   sodipodi:docname="gripicon.svg"
   xmlns="http://www.w3.org/2000/svg"
   xmlns:inkscape="http://www.inkscape.org/namespaces/inkscape"
   xmlns:sodipodi="http://sodipodi.sourceforge.net/DTD/sodipodi-0.dtd"
   xmlns:xlink="http://www.w3.org/1999/xlink"
   sodipodi:docbase="/home/adam/Worked Pics">
  <sodipodi:namedview
     id="base"
     pagecolor="#ffffff"
     bordercolor="#666666"
     borderopacity="1.0"
     inkscape:pageopacity="0.0"
     inkscape:pageshadow="2"
     inkscape:zoom="4.0000000"
     inkscape:cx="12.882896"
     inkscape:cy="35.949944"
     inkscape:window-width="640"
     inkscape:window-height="501"
     inkscape:window-x="0"
     inkscape:window-y="25" />
  <defs
     id="defs3">
    <linearGradient
       id="linearGradient932">
      <stop
         style="stop-color:#d9cce6;stop-opacity:1.0000000;"
         offset="0.0000000"
         id="stop933" />
      <stop
         style="stop-color:#ffffff;stop-opacity:1.0000000;"
         offset="1.0000000"
         id="stop934" />
    </linearGradient>
    <linearGradient
       id="linearGradient928">
      <stop
         style="stop-color:#d9cce6;stop-opacity:1.0000000;"
         offset="0.0000000"
         id="stop929" />
      <stop
         style="stop-color:#73667f;stop-opacity:0.0000000;"
         offset="1.0000000"
         id="stop930" />
    </linearGradient>
    <linearGradient
       id="linearGradient925">
      <stop
         style="stop-color:#f50000;stop-opacity:1.0000000;"
         offset="0.0000000"
         id="stop926" />
      <stop
         style="stop-color:#a80000;stop-opacity:1.0000000;"
         offset="1.0000000"
         id="stop927" />
    </linearGradient>
    <linearGradient
       id="linearGradient846">
      <stop
         style="stop-color:#ffffff;stop-opacity:1.0000000;"
         offset="0.0000000"
         id="stop847" />
      <stop
         style="stop-color:#ffffff;stop-opacity:0.0000000;"
         offset="1.0000000"
         id="stop848" />
    </linearGradient>
    <linearGradient
       id="linearGradient839">
      <stop
         style="stop-color:#d9cce6;stop-opacity:1.0000000;"
         offset="0.0000000"
         id="stop840" />
      <stop
         style="stop-color:#73667f;stop-opacity:1.0000000;"
         offset="1.0000000"
         id="stop841" />
    </linearGradient>
    <linearGradient
       id="linearGradient835">
      <stop
         style="stop-color:#d9cce6;stop-opacity:0.50000000;"
         offset="0.0000000"
         id="stop836" />
      <stop
         style="stop-color:#ffffff;stop-opacity:0.25000000;"
         offset="1.0000000"
         id="stop837" />
    </linearGradient>
    <linearGradient
       id="linearGradient838"
       xlink:href="#linearGradient835"
       x1="0.0042372881"
       y1="0.97129184"
       x2="0.99576271"
       y2="3.5607220e-17" />
    <radialGradient
       cx="0.50000000"
       cy="0.50000000"
       r="0.78039759"
       fx="0.50000000"
       fy="0.50000000"
       id="radialGradient839"
       xlink:href="#linearGradient839" />
    <radialGradient
       cx="0.53252035"
       cy="0.49152541"
       r="0.86183023"
       fx="0.53252035"
       fy="0.49152541"
       id="radialGradient909"
       xlink:href="#linearGradient928"
       gradientUnits="objectBoundingBox"
       spreadMethod="pad" />
    <radialGradient
       xlink:href="#linearGradient835"
       id="radialGradient842"
       cx="0.50000000"
       cy="0.50000000"
       r="0.50000000"
       fx="0.50000000"
       fy="0.50000000" />
    <linearGradient
       xlink:href="#linearGradient835"
       id="linearGradient843"
       x1="0.0089670466"
       y1="0.0050817700"
       x2="0.92808932"
       y2="1.0519264"
       gradientTransform="scale(1.062090,0.941540)" />
    <linearGradient
       xlink:href="#linearGradient846"
       id="linearGradient845"
       x1="0.34016395"
       y1="0.019138755"
       x2="0.54098362"
       y2="0.55023921" />
    <linearGradient
       xlink:href="#linearGradient928"
       id="linearGradient931"
       y2="0.24152543"
       x2="0.78947371"
       y1="1.0084746"
       x1="-0.0075187972" />
  </defs>
  <path
     d="M 24.944941,11.154161 C 14.531053,13.944554 8.3438690,24.661072 11.134262,35.074959 C 13.924654,45.488847 24.641172,51.676031 35.055059,48.885639 C 45.468947,46.095246 51.656132,35.378728 48.865739,24.964841 L 35.101296,28.653012 C 35.693317,31.401742 34.086335,34.166055 31.340457,34.901811 C 28.507878,35.660798 25.592986,33.977884 24.833999,31.145307 C 24.075011,28.312728 25.757927,25.397836 28.590504,24.638849 C 29.539146,24.384663 30.424444,24.381004 31.372456,24.637533 L 36.481912,11.589248 C 32.592859,10.217820 28.928205,10.086849 24.944941,11.154161 z "
     style="fill:url(#linearGradient843);fill-opacity:1.0000000;fill-rule:evenodd;stroke:url(#radialGradient839);stroke-width:1.8750000;stroke-dasharray:none;stroke-dashoffset:0.0000000;stroke-linejoin:bevel;"
     id="path828" />
  <path
     d="M 38.465356,17.761088 L 42.035033,21.829618 L 55.950434,18.433564 C 60.353215,17.359070 44.990708,2.5914081 43.321146,6.4726919 L 38.465356,17.761088 z "
     style="fill:url(#linearGradient838);fill-opacity:1.0000000;fill-rule:evenodd;stroke:url(#linearGradient931);stroke-width:1.8750000;stroke-dasharray:3.7500000,3.7500000;stroke-dashoffset:0.0000000;stroke-linecap:round;stroke-linejoin:bevel;"
     id="path834" />
  <path
     style="font-size:20.000000;fill:#d9cce6;stroke-width:1.8750000;stroke-dashoffset:0.0000000;font-family:Radio Stars;stroke:#000000;stroke-opacity:1.0000000;stroke-linecap:round;stroke-linejoin:round;"
     d="M 54.543385,48.281617 C 54.543385,49.188283 54.096719,49.641617 53.203385,49.641617 L 43.743385,49.641617 L 43.743385,52.601617 C 43.743385,53.028283 43.610052,53.361617 43.343385,53.601617 C 43.090052,53.828283 42.776719,53.941617 42.403385,53.941617 C 42.043385,53.941617 41.730052,53.828283 41.463385,53.601617 C 41.196719,53.361617 41.063385,53.028283 41.063385,52.601617 L 41.063385,42.601617 L 53.203385,42.601617 C 54.096719,42.601617 54.543385,43.054950 54.543385,43.961617 L 54.543385,48.281617 z M 51.863385,46.921617 L 51.863385,45.321617 L 43.743385,45.321617 L 43.743385,46.921617 L 51.863385,46.921617 z M 39.563385,52.601617 C 39.563385,53.028283 39.430052,53.361617 39.163385,53.601617 C 38.896719,53.828283 38.583385,53.941617 38.223385,53.941617 C 37.863385,53.941617 37.550052,53.828283 37.283385,53.601617 C 37.016719,53.361617 36.883385,53.028283 36.883385,52.601617 L 36.883385,43.961617 C 36.883385,43.534950 37.016719,43.208283 37.283385,42.981617 C 37.550052,42.741617 37.863385,42.621617 38.223385,42.621617 C 38.583385,42.621617 38.896719,42.741617 39.163385,42.981617 C 39.430052,43.208283 39.563385,43.534950 39.563385,43.961617 L 39.563385,52.601617 z M 35.463385,48.281617 C 35.463385,49.188283 35.016719,49.641617 34.123385,49.641617 L 30.323385,49.641617 C 31.096719,49.948283 32.530052,50.521617 34.623385,51.361617 C 35.183385,51.588283 35.463385,51.988283 35.463385,52.561617 C 35.463385,52.921617 35.336719,53.248283 35.083385,53.541617 C 34.843385,53.821617 34.543385,53.961617 34.183385,53.961617 C 33.996719,53.961617 33.810052,53.921617 33.623385,53.841617 L 24.663385,50.241617 L 24.663385,52.601617 C 24.663385,53.028283 24.530052,53.361617 24.263385,53.601617 C 23.996719,53.828283 23.683385,53.941617 23.323385,53.941617 C 22.950052,53.941617 22.643385,53.828283 22.403385,53.601617 C 22.123385,53.361617 21.983385,53.028283 21.983385,52.601617 L 21.983385,43.961617 C 21.983385,43.054950 22.430052,42.601617 23.323385,42.601617 L 34.123385,42.601617 C 35.016719,42.601617 35.463385,43.054950 35.463385,43.961617 L 35.463385,48.281617 z M 32.783385,46.921617 L 32.783385,45.321617 L 24.663385,45.321617 L 24.663385,46.921617 L 32.783385,46.921617 z M 20.703385,52.601617 C 20.703385,53.508283 20.256719,53.961617 19.363385,53.961617 L 8.5633854,53.961617 C 7.6567187,53.961617 7.2033854,53.508283 7.2033854,52.601617 L 7.2033854,43.961617 C 7.2033854,43.054950 7.6567187,42.601617 8.5633854,42.601617 L 19.363385,42.601617 C 19.790052,42.601617 20.116719,42.734950 20.343385,43.001617 C 20.583385,43.268283 20.703385,43.588283 20.703385,43.961617 C 20.703385,44.334950 20.583385,44.654950 20.343385,44.921617 C 20.116719,45.188283 19.790052,45.321617 19.363385,45.321617 L 9.9033854,45.321617 L 9.9033854,51.241617 L 18.003385,51.241617 L 18.003385,49.641617 L 13.943385,49.641617 C 13.516719,49.641617 13.183385,49.508283 12.943385,49.241617 C 12.716719,48.974950 12.603385,48.654950 12.603385,48.281617 C 12.603385,47.908283 12.716719,47.588283 12.943385,47.321617 C 13.183385,47.054950 13.516719,46.921617 13.943385,46.921617 L 20.703385,46.921617 L 20.703385,52.601617 z "
     id="path856" />
  <path
     style="fill:url(#linearGradient845);fill-rule:evenodd;stroke:none;stroke-opacity:1;stroke-width:1pt;stroke-linejoin:miter;stroke-linecap:butt;fill-opacity:1.0000000;"
     d="M 14.609867,28.751685 C 14.609867,28.751685 26.570361,16.038483 30.138131,21.075362 L 33.526458,12.502208 C 31.963958,12.502208 14.530620,11.204331 14.609867,28.751685 z "
     id="path844"
     sodipodi:nodetypes="cccc" />
</svg>
