<?xml version="1.0" encoding="UTF-8" standalone="no"?>
<!DOCTYPE svg PUBLIC "-//W3C//DTD SVG 20010904//EN"
"http://www.w3.org/TR/2001/REC-SVG-20010904/DTD/svg10.dtd">
<!-- Created with Inkscape (http://www.inkscape.org/) -->
<svg
   version="1.0"
   x="0"
   y="0"
   width="48pt"
   height="48pt"
   id="svg611"
   sodipodi:version="0.32"
   inkscape:version="0.37"
   sodipodi:docname="help_index.svg"
   sodipodi:docbase="/home/tom/Pics/lilasvg/scalable/apps"
   xmlns="http://www.w3.org/2000/svg"
   xmlns:inkscape="http://www.inkscape.org/namespaces/inkscape"
   xmlns:sodipodi="http://sodipodi.sourceforge.net/DTD/sodipodi-0.dtd"
   xmlns:xlink="http://www.w3.org/1999/xlink">
  <sodipodi:namedview
     id="base"
     pagecolor="#ffffff"
     bordercolor="#666666"
     borderopacity="1.0"
     inkscape:pageopacity="0.0"
     inkscape:pageshadow="2"
     inkscape:zoom="0.50000000"
     inkscape:cx="32.5246582"
     inkscape:cy="21.8121338"
     inkscape:window-width="1018"
     inkscape:window-height="711"
     inkscape:window-x="0"
     inkscape:window-y="30" />
  <defs
     id="defs613">
    <linearGradient
       id="linearGradient649">
      <stop
         style="stop-color:#d9cce6;stop-opacity:1;"
         offset="0.00000000"
         id="stop650" />
      <stop
         style="stop-color:#73667f;stop-opacity:1;"
         offset="1.00000000"
         id="stop651" />
    </linearGradient>
    <linearGradient
       id="linearGradient881">
      <stop
         style="stop-color:#f50000;stop-opacity:1;"
         offset="0.00000000"
         id="stop882" />
      <stop
         style="stop-color:#a80000;stop-opacity:1;"
         offset="1.00000000"
         id="stop883" />
    </linearGradient>
    <linearGradient
       id="linearGradient1535">
      <stop
         style="stop-color:#ffffff;stop-opacity:1;"
         offset="0"
         id="stop1537" />
      <stop
         style="stop-color:#ffffff;stop-opacity:0;"
         offset="1"
         id="stop1536" />
    </linearGradient>
    <linearGradient
       id="linearGradient1528">
      <stop
         style="stop-color:#a673f3;stop-opacity:1;"
         offset="0"
         id="stop1530" />
      <stop
         style="stop-color:#4c3f8c;stop-opacity:1;"
         offset="1"
         id="stop1529" />
    </linearGradient>
    <linearGradient
       id="linearGradient642">
      <stop
         style="stop-color:#ffffff;stop-opacity:1;"
         offset="0"
         id="stop643" />
      <stop
         style="stop-color:#ffffff;stop-opacity:0;"
         offset="1"
         id="stop644" />
    </linearGradient>
    <linearGradient
       id="linearGradient635">
      <stop
         style="stop-color:#ffffff;stop-opacity:1;"
         offset="0.00000000"
         id="stop636" />
      <stop
         style="stop-color:#d9cce6;stop-opacity:1;"
         offset="1.00000000"
         id="stop637" />
    </linearGradient>
    <linearGradient
       x1="0.000000"
       y1="0.039063"
       x2="0.994475"
       y2="0.976562"
       id="linearGradient638"
       xlink:href="#linearGradient642" />
    <linearGradient
       x1="-0.020404"
       y1="0.023441"
       x2="1.000000"
       y2="1.015625"
       id="linearGradient641"
       xlink:href="#linearGradient642" />
    <linearGradient
       x1="-0.007752"
       y1="0.007813"
       x2="0.984496"
       y2="0.984375"
       id="linearGradient1522"
       xlink:href="#linearGradient635" />
    <linearGradient
       x1="0.023622"
       y1="0.023437"
       x2="1.000000"
       y2="0.992187"
       id="linearGradient1527"
       xlink:href="#linearGradient881" />
    <linearGradient
       x1="0.012903"
       y1="0.023437"
       x2="0.993548"
       y2="1.000000"
       id="linearGradient1532"
       xlink:href="#linearGradient642" />
    <linearGradient
       x1="0.003746"
       y1="0.023425"
       x2="0.996255"
       y2="0.992187"
       id="linearGradient1534"
       xlink:href="#linearGradient1535" />
    <linearGradient
       x1="0.024767"
       y1="0.031250"
       x2="0.983470"
       y2="1.000000"
       id="linearGradient1539"
       xlink:href="#linearGradient1535" />
    <linearGradient
       x1="0.010912"
       y1="0.009552"
       x2="1.003636"
       y2="0.980767"
       id="linearGradient1567"
       xlink:href="#linearGradient1535" />
    <linearGradient
       xlink:href="#linearGradient649"
       id="linearGradient648"
       x1="-0.48251748"
       y1="-0.35211268"
       x2="0.98601401"
       y2="0.75352114" />
    <linearGradient
       xlink:href="#linearGradient642"
       id="linearGradient653"
       x1="-0.00000000"
       y1="0.00000000"
       x2="1.00000000"
       y2="0.00000000" />
    <linearGradient
       xlink:href="#linearGradient635"
       id="linearGradient654"
       x1="0.00000000"
       y1="-0.00000000"
       x2="1.00000000"
       y2="-0.00000000" />
    <linearGradient
       xlink:href="#linearGradient649"
       id="linearGradient655" />
  </defs>
  <path
     d="M 219.104 545.928 C 214.472 566.877 109.158 597.329 84.0561 572.828 C 58.3103 547.665 84.0684 423.372 102.879 415.552 C 119.488 408.647 223.625 525.489 219.104 545.928 z "
     style="font-size:12;fill:none;fill-rule:evenodd;stroke:#000000;stroke-width:12.5;stroke-opacity:0.395161;"
     id="path930"
     transform="matrix(0.100944,0.000000,0.000000,0.100944,-1.297033,-1.733585)" />
  <path
     d="M 423.169 101.445 C 427.801 80.4962 533.116 50.0438 558.217 74.5451 C 583.963 99.7084 558.205 224.001 539.395 231.821 C 522.785 238.726 418.648 121.884 423.169 101.445 z "
     style="font-size:12;fill:none;fill-rule:evenodd;stroke:#000000;stroke-width:12.5;stroke-opacity:0.395161;"
     id="path931"
     transform="matrix(0.100944,0.000000,0.000000,0.100944,-1.297033,-1.733585)" />
  <path
     d="M 219.104 101.445 C 214.472 80.4962 109.158 50.0438 84.0561 74.5451 C 58.3103 99.7084 84.0684 224.001 102.879 231.821 C 119.488 238.726 223.625 121.884 219.104 101.445 z "
     style="font-size:12;fill:none;fill-rule:evenodd;stroke:#000000;stroke-width:12.5;stroke-opacity:0.395161;"
     id="path932"
     transform="matrix(0.100944,0.000000,0.000000,0.100944,-1.297033,-1.733585)" />
  <path
     d="M 19.887384 52.190599 C 19.423288 54.289551 8.8715118 57.340638 6.3564875 54.885803 C 3.7769281 52.364637 6.3577194 39.911302 8.2423674 39.127785 C 9.9065188 38.435952 20.340358 50.142749 19.887384 52.190599 z "
     style="font-size:12;fill:none;fill-rule:evenodd;stroke:#261933;stroke-width:1.87863;"
     id="path928" />
  <path
     d="M 40.333346 7.6563706 C 40.797442 5.5574193 51.349309 2.5062901 53.864267 4.9611583 C 56.443843 7.482355 53.863061 19.935642 51.978429 20.719154 C 50.31421 21.410989 39.880378 9.7041933 40.333346 7.6563706 z "
     style="font-size:12;fill:none;fill-rule:evenodd;stroke:#261933;stroke-width:1.87863;"
     id="path926" />
  <path
     d="M 19.887384 7.6563706 C 19.423288 5.5574193 8.8715118 2.5062901 6.3564875 4.9611583 C 3.7769281 7.482355 6.3577194 19.935642 8.2423674 20.719154 C 9.9065188 21.410989 20.340358 9.7041933 19.887384 7.6563706 z "
     style="font-size:12;fill:none;fill-rule:evenodd;stroke:#261933;stroke-width:1.87863;"
     id="path922" />
  <path
     d="M 44.063735 33.189379 C 44.063735 40.044415 38.500195 45.607946 31.645167 45.607946 C 24.790036 45.607946 19.226598 40.044415 19.226598 33.189379 C 19.226598 26.334447 24.790036 20.770809 31.645167 20.770809 C 38.500195 20.770809 44.063735 26.334447 44.063735 33.189379 z M 55.942364 33.009431 C 55.942364 46.520808 44.976597 57.486475 31.46502 57.486475 C 17.953841 57.486475 6.9878229 46.520808 6.9878229 33.009431 C 6.9878229 19.497953 17.953841 8.5321869 31.46502 8.5321869 C 44.976597 8.5321869 55.942364 19.497953 55.942364 33.009431 z "
     style="font-size:12;opacity:0.302675;fill-rule:evenodd;stroke-width:12.5;"
     id="path879" />
  <path
     d="M 42.547418 30.094249 C 42.547418 36.949282 36.983887 42.512817 30.128852 42.512817 C 23.273721 42.512817 17.710282 36.949282 17.710282 30.094249 C 17.710282 23.239319 23.273721 17.675679 30.128852 17.675679 C 36.983887 17.675679 42.547418 23.239319 42.547418 30.094249 z M 54.426048 29.914301 C 54.426048 43.425678 43.460287 54.391346 29.948704 54.391346 C 16.437526 54.391346 5.4715094 43.425678 5.4715094 29.914301 C 5.4715094 16.402822 16.437526 5.4371367 29.948704 5.4371367 C 43.460287 5.4371367 54.426048 16.402822 54.426048 29.914301 z "
     style="font-size:12;fill:url(#linearGradient1522);fill-rule:evenodd;stroke:#261933;stroke-width:1.87632;"
     id="path876" />
  <path
     d="M 29.132929 43.988666 C 28.813113 43.636886 36.836498 45.233373 40.759573 40.725071 C 44.954671 36.142423 44.319642 30.383108 44.635151 30.730176 C 44.999555 31.13095 44.543575 39.929436 41.983433 42.152923 C 38.186705 45.47704 29.493024 44.38473 29.132929 43.988666 z "
     style="font-size:12;opacity:0.7;fill:url(#linearGradient641);fill-rule:evenodd;stroke:#ffffff;stroke-width:0.100193pt;"
     id="path878" />
  <path
     d="M 19.105575 24.056095 C 16.27451 23.953498 8.9996689 20.12671 8.8881838 17.879573 C 11.538169 13.638487 13.211799 11.722991 17.353193 9.1085443 C 19.561956 9.1885982 23.640628 16.235099 23.784705 19.137 C 21.210238 20.992482 20.49726 21.743631 19.105575 24.056095 z "
     style="font-size:12;fill:url(#linearGradient1527);fill-rule:evenodd;stroke:#330000;stroke-width:1.87863;"
     id="path880" />
  <path
     d="M 7.3073122 33.177902 C 6.441912 30.137533 8.0233344 16.730155 18.73005 10.128511 C 27.099004 4.8902114 41.535066 8.9525422 43.003299 11.556267 C 43.401969 12.207825 32.974745 6.1921541 20.157806 14.615973 C 8.4958367 22.484661 7.4739334 33.89238 7.3073122 33.177902 z "
     style="font-size:12;opacity:0.7;fill:url(#linearGradient638);fill-rule:evenodd;stroke:none;stroke-width:1.25;"
     id="path877" />
  <path
     d="M 41.002241 24.056095 C 43.833306 23.953498 51.108147 20.12671 51.219665 17.879573 C 48.569645 13.638487 46.896014 11.722991 42.754622 9.1085443 C 40.545859 9.1885982 36.467182 16.235099 36.323206 19.137 C 38.897581 20.992482 39.610553 21.743631 41.002241 24.056095 z "
     style="font-size:12;fill:url(#linearGradient1527);fill-rule:evenodd;stroke:#330000;stroke-width:1.87863;"
     id="path915" />
  <path
     d="M 19.105575 35.82962 C 16.27451 35.932218 8.9996689 39.759003 8.8881838 42.006142 C 11.538169 46.24723 13.211799 48.162722 17.353193 50.777172 C 19.561956 50.697114 23.640628 43.650618 23.784705 40.748717 C 21.210238 38.893232 20.49726 38.142083 19.105575 35.82962 z "
     style="font-size:12;fill:url(#linearGradient1527);fill-rule:evenodd;stroke:#330000;stroke-width:1.87863;"
     id="path916" />
  <path
     d="M 41.002241 35.82962 C 43.833306 35.932218 51.108147 39.759003 51.219665 42.006142 C 48.569645 46.24723 46.896014 48.162722 42.754622 50.777172 C 40.545859 50.697114 36.467182 43.650618 36.323206 40.748717 C 38.897581 38.893232 39.610553 38.142083 41.002241 35.82962 z "
     style="font-size:12;fill:url(#linearGradient1527);fill-rule:evenodd;stroke:#330000;stroke-width:1.87863;"
     id="path917" />
  <path
     d="M 10.367007 18.083466 C 10.064023 17.763649 15.057963 12.094607 17.404292 10.638297 C 18.015671 10.258864 19.934375 12.6088 19.240035 12.576036 C 15.637982 12.410817 10.675904 18.409496 10.367007 18.083466 z "
     style="font-size:12;opacity:0.699936;fill:url(#linearGradient1532);fill-rule:evenodd;stroke:none;stroke-width:1pt;"
     id="path918" />
  <path
     d="M 10.163014 42.050827 C 9.8857794 41.708368 15.630668 38.013936 18.118169 37.359372 C 18.860401 37.164097 20.49676 39.660112 19.852016 39.501104 C 16.140452 38.483842 10.463796 42.422348 10.163014 42.050827 z "
     style="font-size:12;opacity:0.7;fill:url(#linearGradient1534);fill-rule:evenodd;stroke:none;stroke-width:1pt;"
     id="path919" />
  <path
     d="M 37.700063 18.593351 C 37.31252 18.290066 40.839022 12.186985 42.697512 10.638297 C 43.286748 10.147248 45.785469 12.42224 45.043241 12.474039 C 40.815478 12.659898 38.094429 18.901947 37.700063 18.593351 z "
     style="font-size:12;opacity:0.699936;fill:url(#linearGradient1539);fill-rule:evenodd;stroke:none;stroke-width:1pt;"
     id="path920" />
  <path
     d="M 37.904063 41.948831 C 37.904063 41.711472 40.556879 38.173243 42.187524 37.971355 C 44.12657 37.731291 48.612831 40.39563 48.612831 40.622975 C 48.612831 40.837587 44.206625 39.047229 42.187524 39.297213 C 40.637036 39.489186 37.904063 42.153429 37.904063 41.948831 z "
     style="font-size:12;opacity:0.7;fill:url(#linearGradient1567);fill-rule:evenodd;stroke:none;stroke-width:1pt;"
     id="path921" />
  <path
     d="M 53.291154 38.663216 C 53.291154 47.334627 46.253449 54.37233 37.58204 54.37233 C 28.910504 54.37233 21.872797 47.334627 21.872797 38.663216 C 21.872797 29.991808 28.910504 22.954103 37.58204 22.954103 C 46.253449 22.954103 53.291154 29.991808 53.291154 38.663216 z M 49.398608 38.663216 C 49.398608 45.032508 44.104702 50.20177 37.58204 50.20177 C 31.059246 50.20177 25.765467 45.032508 25.765467 38.663216 C 25.765467 32.293925 31.059246 27.124538 37.58204 27.124538 C 44.104702 27.124538 49.398608 32.293925 49.398608 38.663216 z "
     style="font-size:12;opacity:0.3;fill-rule:evenodd;stroke-width:13.4904;"
     id="path1566" />
  <path
     d="M 51.949938 36.650004 C 51.949938 45.321413 44.463841 52.807507 35.792429 52.807507 C 27.120895 52.807507 19.6348 45.321413 19.6348 36.650004 C 19.6348 27.978595 27.120895 20.492497 35.792429 20.492497 C 44.463841 20.492497 51.949938 27.978595 51.949938 36.650004 z M 46.712223 36.650004 C 46.712223 43.019296 42.315095 47.291775 35.792429 47.291775 C 29.269639 47.291775 24.872639 43.019296 24.872639 36.650004 C 24.872639 30.280711 29.269639 26.008104 35.792429 26.008104 C 42.315095 26.008104 46.712223 30.280711 46.712223 36.650004 z "
     style="font-size:12;fill:url(#linearGradient648);fill-rule:evenodd;stroke:#261933;stroke-width:1.31357;"
     id="path1525"
     sodipodi:nodetypes="cccccccccs" />
  <path
     d="M 45.712919 48.954562 C 45.557995 48.649884 46.81962 47.258478 47.124164 47.418173 C 48.214886 47.989704 49.199458 49.671582 50.436646 50.533537 C 52.968044 52.297177 56.534217 53.349463 58.430063 55.295231 C 59.039081 55.920239 58.470598 57.900632 57.874147 58.399066 C 57.220178 58.945737 54.923905 59.662191 54.14095 59.045179 C 51.964341 57.330322 50.478513 54.192518 48.534289 51.864679 C 47.669172 50.828912 46.207324 49.927176 45.712919 48.954562 z "
     style="font-size:12;opacity:0.3;fill-rule:evenodd;stroke-width:13.4904;"
     id="path1565"
     sodipodi:nodetypes="ccsccccc" />
  <ellipse
     cx="373.574921"
     cy="328.786621"
     rx="115.024445"
     ry="115.024429"
     transform="matrix(9.075020e-2,0.000000,0.000000,8.861557e-2,1.890232,7.514593)"
     style="font-size:12;fill-rule:evenodd;stroke-width:1pt;fill:url(#linearGradient654);fill-opacity:1;"
     id="path1521" />
  <path
     d="M 45.119153 47.291837 C 44.964229 46.98716 46.149022 45.74943 46.453559 45.909124 C 47.544281 46.480655 48.52886 48.162524 49.766041 49.024488 C 52.297447 50.788121 55.863613 51.840415 57.759459 53.786183 C 58.368478 54.41119 57.646324 56.391582 57.049863 56.890016 C 56.395897 57.436688 54.330138 57.999467 53.547183 57.382455 C 51.370574 55.667598 49.884746 52.529795 47.940523 50.201956 C 47.075397 49.166188 45.613557 48.264452 45.119153 47.291837 z "
     style="font-size:12;fill:url(#linearGradient655);fill-rule:evenodd;stroke:#261933;stroke-width:1.31357;"
     id="path1531"
     sodipodi:nodetypes="cccccccc" />
  <path
     d="M 22.823194 42.49898 C 21.704657 40.261905 20.586247 32.879744 25.395865 27.175321 C 31.212151 21.918366 37.252173 22.701178 39.712851 23.036776 C 35.798038 23.260508 31.771359 22.701304 26.514401 27.846522 C 21.592916 32.656011 22.93506 39.814568 22.823194 42.49898 z "
     style="font-size:12;opacity:0.7;fill-rule:evenodd;stroke:none;stroke-width:1pt;fill:url(#linearGradient653);"
     id="path1533" />
  <path
     d="M 45.732268 47.184209 C 45.726761 47.148467 45.837878 46.961564 45.895592 47.006038 C 46.421845 47.411894 47.478973 48.501811 47.484081 48.535133 C 47.488845 48.566173 46.458926 47.610556 45.925289 47.199057 C 45.874967 47.160225 45.736702 47.212829 45.732268 47.184209 z "
     style="font-size:12;opacity:0.7;fill-rule:evenodd;stroke:none;stroke-width:1pt;fill:url(#linearGradient653);"
     id="path1538" />
</svg>
