<?xml version="1.0" encoding="UTF-8" standalone="no"?>
<!DOCTYPE svg PUBLIC "-//W3C//DTD SVG 20010904//EN"
"http://www.w3.org/TR/2001/REC-SVG-20010904/DTD/svg10.dtd">
<!-- Created with Inkscape (http://www.inkscape.org/) -->
<svg
   version="1.0"
   x="0"
   y="0"
   width="48pt"
   height="48pt"
   id="svg611"
   sodipodi:version="0.32"
   inkscape:version="0.37"
   sodipodi:docname="icons.svg"
   sodipodi:docbase="/home/tom"
   xmlns="http://www.w3.org/2000/svg"
   xmlns:inkscape="http://www.inkscape.org/namespaces/inkscape"
   xmlns:sodipodi="http://sodipodi.sourceforge.net/DTD/sodipodi-0.dtd"
   xmlns:xlink="http://www.w3.org/1999/xlink">
  <sodipodi:namedview
     id="base"
     pagecolor="#ffffff"
     bordercolor="#666666"
     borderopacity="1.0"
     inkscape:pageopacity="0.0"
     inkscape:pageshadow="2"
     inkscape:zoom="2"
     inkscape:cx="26.8849335"
     inkscape:cy="24.4028625"
     inkscape:window-width="1018"
     inkscape:window-height="711"
     inkscape:window-x="0"
     inkscape:window-y="30" />
  <defs
     id="defs613">
    <linearGradient
       id="linearGradient1535">
      <stop
         style="stop-color:#ffffff;stop-opacity:1;"
         offset="0"
         id="stop1537" />
      <stop
         style="stop-color:#ffffff;stop-opacity:0;"
         offset="1"
         id="stop1536" />
    </linearGradient>
    <linearGradient
       id="linearGradient1528">
      <stop
         style="stop-color:#d9cce6;stop-opacity:1;"
         offset="0.00000000"
         id="stop1530" />
      <stop
         style="stop-color:#73667f;stop-opacity:1;"
         offset="1.00000000"
         id="stop1529" />
    </linearGradient>
    <linearGradient
       id="linearGradient642">
      <stop
         style="stop-color:#ffffff;stop-opacity:1;"
         offset="0"
         id="stop643" />
      <stop
         style="stop-color:#ffffff;stop-opacity:0;"
         offset="1"
         id="stop644" />
    </linearGradient>
    <linearGradient
       id="linearGradient635">
      <stop
         style="stop-color:#ffffff;stop-opacity:1;"
         offset="0.00000000"
         id="stop636" />
      <stop
         style="stop-color:#d9cce6;stop-opacity:1;"
         offset="1.00000000"
         id="stop637" />
    </linearGradient>
    <linearGradient
       x1="0.00833333"
       y1="0.00000000"
       x2="0.94166666"
       y2="0.95312500"
       id="linearGradient638"
       xlink:href="#linearGradient1528" />
    <linearGradient
       x1="0.027523"
       y1="0.023438"
       x2="1.000000"
       y2="1.015625"
       id="linearGradient641"
       xlink:href="#linearGradient642" />
    <linearGradient
       x1="-0.000009"
       y1="0.015624"
       x2="0.727272"
       y2="0.984375"
       id="linearGradient1522"
       xlink:href="#linearGradient642" />
    <linearGradient
       x1="0.027523"
       y1="0.007813"
       x2="1.009174"
       y2="0.992188"
       id="linearGradient1527"
       xlink:href="#linearGradient1535" />
    <linearGradient
       id="linearGradient1532"
       xlink:href="#linearGradient635"
       x1="0.09782609"
       y1="0.17968750"
       x2="0.64130437"
       y2="0.60937500" />
    <linearGradient
       id="linearGradient1534"
       xlink:href="#linearGradient1528"
       x1="0.06521739"
       y1="0.01562500"
       x2="0.32608697"
       y2="0.26562500" />
    <linearGradient
       id="linearGradient1539"
       xlink:href="#linearGradient1528"
       x1="0.00000000"
       y1="-0.00000000"
       x2="1.00000000"
       y2="-0.00000000" />
    <linearGradient
       id="linearGradient1567"
       xlink:href="#linearGradient635"
       x1="0.66521740"
       y1="0.21093750"
       x2="0.32608697"
       y2="0.73437500" />
  </defs>
  <path
     d="M 11.323296 57.160451 C 11.951521 57.577304 14.621051 58.71284 15.942291 58.429631 C 17.047672 58.07211 55.203686 45.61152 56.142616 44.148515 C 57.124721 42.551005 55.856932 11.468189 54.696814 10.413698 C 53.445181 9.265018 12.788123 5.1677725 11.53798 5.1310154 C 10.405014 4.9884573 7.6400123 5.9645902 7.1064044 6.5581759 C 6.0443342 7.7273842 10.152592 56.301396 11.323296 57.160451 z "
     style="font-size:12;opacity:0.3;fill-rule:evenodd;stroke-width:12.5;"
     id="path839" />
  <path
     d="M 10.710824 54.464037 C 11.309499 54.860979 13.851862 55.942451 15.110416 55.672891 C 16.163471 55.332261 52.506055 43.463828 53.400251 42.070343 C 54.335686 40.548752 53.128257 10.943036 52.023269 9.9385553 C 50.831206 8.844563 12.106038 4.9420868 10.915404 4.907046 C 9.8362807 4.7712615 7.2027255 5.7009364 6.6944162 6.2663239 C 5.6828474 7.3800001 9.5957511 53.645804 10.710824 54.464037 z "
     style="font-size:12;fill:url(#linearGradient638);fill-rule:evenodd;stroke:#261933;stroke-width:1.875;stroke-dasharray:none;"
     id="path834" />
  <path
     d="M 14.383126 53.660677 C 14.070498 53.348051 10.313979 7.7669659 10.825691 6.4958449 C 11.139641 6.1159772 50.332629 10.543036 50.646074 10.856477 C 50.944548 11.155154 14.326404 6.3756002 12.77671 8.676233 C 11.094427 11.058617 14.682413 53.959959 14.383126 53.660677 z "
     style="font-size:12;opacity:0.7;fill:url(#linearGradient641);fill-rule:evenodd;stroke:none;stroke-width:0.105188pt;"
     id="path835" />
  <path
     d="M 11.514286 52.972175 C 11.398196 52.797942 8.00685 21.776137 7.8420129 7.1843481 C 7.8321255 6.6661201 9.7765052 6.2993477 9.9075644 6.4958449 C 10.006036 6.6436043 8.5226851 7.8148987 8.5305678 8.2171495 C 8.701402 22.810149 11.627626 53.142245 11.514286 52.972175 z "
     style="font-size:12;opacity:0.699936;fill:url(#linearGradient1522);fill-rule:evenodd;stroke:none;stroke-width:0.105188pt;"
     id="path836" />
  <path
     d="M 15.177322 10.961774 C 14.558788 11.749148 16.374674 48.355066 17.31663 49.041019 C 18.289339 49.671571 48.857076 39.875433 49.619702 38.879506 C 50.338948 38.047123 49.355237 14.69976 48.871027 13.849962 C 48.247804 12.943851 15.852983 10.20882 15.177322 10.961774 z "
     style="font-size:12;fill:#261933;fill-rule:evenodd;stroke:#261933;stroke-width:0.613348;fill-opacity:0.524194;"
     id="path837" />
  <path
     d="M 17.744431 47.008737 C 17.506854 46.716067 15.346975 12.931632 15.926202 12.138455 C 16.692801 11.234891 45.424386 13.9854 45.661957 14.277763 C 45.888033 14.555666 19.622945 11.623281 17.31663 13.84986 C 15.744634 15.369718 17.970295 47.286535 17.744431 47.008737 z "
     style="font-size:12;opacity:0.699936;fill:url(#linearGradient1527);fill-rule:evenodd;stroke:none;stroke-width:0.0980447pt;"
     id="path838" />
  <path
     style="fill:url(#linearGradient1532);fill-rule:evenodd;stroke:#261933;stroke-opacity:1;stroke-width:0.75;stroke-linejoin:miter;stroke-linecap:butt;fill-opacity:1.00;stroke-dasharray:none;"
     d="M 18.956321 16.978998 C 18.546011 17.450854 18.874259 23.708082 19.202507 24.303031 C 19.3256 24.631279 23.880041 25.08262 24.372413 24.549217 C 24.557053 24.097876 24.618599 17.861165 24.187774 17.286731 C 23.551793 16.937967 19.09993 16.712297 18.956321 16.978998 z "
     id="path608"
     sodipodi:nodetypes="ccccc" />
  <path
     style="fill:url(#linearGradient1532);fill-rule:evenodd;stroke:#261933;stroke-opacity:1;stroke-width:0.75;stroke-linejoin:miter;stroke-linecap:butt;fill-opacity:1.00;stroke-dasharray:none;"
     d="M 19.398263 26.701716 C 18.987953 27.173572 19.159951 34.21205 19.488199 34.806999 C 19.611292 35.135247 24.321983 35.117838 24.814355 34.584435 C 24.998995 34.133094 25.060541 27.583883 24.629716 27.009449 C 23.993735 26.660685 19.541872 26.435015 19.398263 26.701716 z "
     id="path609"
     sodipodi:nodetypes="ccccc" />
  <path
     style="fill:url(#linearGradient1534);fill-rule:evenodd;stroke:#261933;stroke-opacity:1;stroke-width:0.75;stroke-linejoin:miter;stroke-linecap:butt;fill-opacity:1.00;stroke-dasharray:none;"
     d="M 19.840204 37.777068 C 19.429894 38.248924 19.914392 44.662402 20.24264 45.257351 C 20.365733 45.585599 24.607674 44.47444 25.100046 43.941037 C 25.284686 43.489696 25.502482 38.190485 25.071657 37.616051 C 24.435676 37.267287 19.983813 37.510367 19.840204 37.777068 z "
     id="path610"
     sodipodi:nodetypes="ccccc" />
  <g
     transform="matrix(3.991926e-2,5.395338e-3,-6.384164e-3,4.723543e-2,23.46501,13.27539)"
     style="font-size:12;opacity:0.302675;"
     id="g1288">
    <path
       d="M 193.828 467.434 C 178.941 468.948 161.154 486.272 148.606 498.444 C 130.468 516.075 92.7478 564.2 104.676 592.765 C 111.698 552.141 185.106 555.496 205.456 535.914 C 216.415 526.066 227.005 503.459 224.837 490.691 C 223.129 480.633 204.352 466.364 193.828 467.434 z "
       style="fill-rule:evenodd;stroke-width:0.961965pt;"
       id="path1282" />
    <path
       d="M 229.409 417.471 C 221.482 419.905 190.897 456.406 190.623 463.082 C 190.082 475.91 220.297 500.47 232.768 498.042 C 237.828 496.761 268.98 456.842 269.182 451.097 C 269.654 438.55 241.337 414.372 229.409 417.471 z "
       style="fill-rule:evenodd;stroke-width:11.3244;"
       id="path1283" />
    <path
       d="M 221.358 423.625 C 228.067 386.292 264.417 333.237 298.019 298.291 C 375.96 217.232 538.735 66.7744 555.987 75.6109 C 571.994 83.8099 456.882 263.285 391.15 343.699 C 355.597 386.031 313.676 435.685 270.031 454.046 C 254.863 460.427 218.737 438.21 221.358 423.625 z "
       style="fill-rule:evenodd;stroke-width:11.3244;"
       id="path1284" />
  </g>
  <path
     d="M 27.79576 35.891203 C 27.191816 35.88241 26.37116 36.60476 25.792563 37.111997 C 24.95592 37.84697 23.142951 39.916618 23.436742 41.33026 C 23.976417 39.449288 26.885367 40.003799 27.822727 39.188653 C 28.323072 38.782609 28.890181 37.771898 28.88515 37.157059 C 28.881174 36.672776 28.222714 35.897451 27.79576 35.891203 z "
     style="font-size:12;fill-rule:evenodd;stroke:#000000;stroke-width:0.510324;"
     id="path1047" />
  <path
     d="M 29.535108 33.723187 C 29.203112 33.795357 27.749134 35.3545 27.695615 35.668351 C 27.592107 36.27139 28.641451 37.594499 29.154797 37.547074 C 29.364983 37.513902 30.863368 35.796358 30.908132 35.526096 C 31.007065 34.935998 30.03101 33.641157 29.535108 33.723187 z "
     style="font-size:12;fill:url(#linearGradient641);fill-rule:evenodd;stroke:#333333;stroke-width:0.809572;"
     id="path1046" />
  <path
     d="M 29.174397 33.970427 C 29.680554 32.243163 31.470354 29.93324 33.034789 28.463837 C 36.66363 25.055517 44.122033 18.82682 44.754299 19.337292 C 45.340935 19.81094 39.599991 27.667446 36.462639 31.111169 C 34.773134 32.918933 32.782672 35.038179 30.923181 35.669983 C 30.276952 35.889554 28.976685 34.645197 29.174397 33.970427 z "
     style="font-size:12;fill:url(#linearGradient638);fill-rule:evenodd;stroke:#261933;stroke-width:0.809572;"
     id="path1045" />
  <path
     d="M 29.78393 33.983508 C 29.063972 34.836602 31.5505 30.983502 33.897091 28.595872 C 36.957019 25.553964 44.408848 19.801642 43.790037 20.436285 C 42.823837 21.364999 32.018552 31.211448 29.78393 33.983508 z "
     style="font-size:12;opacity:0.7;fill:url(#linearGradient1522);fill-rule:evenodd;stroke:none;stroke-width:1.02162pt;"
     id="path1051" />
  <path
     d="M 28.115452 35.825281 C 28.128587 35.728094 28.68572 34.942208 28.949691 34.904394 C 29.149686 34.875682 29.520228 35.530693 29.507374 35.625799 C 29.497363 35.699868 29.086844 35.382431 28.881095 35.41192 C 28.622886 35.448911 28.105722 35.89727 28.115452 35.825281 z "
     style="font-size:12;opacity:0.699936;fill:url(#linearGradient1539);fill-rule:evenodd;stroke:none;stroke-width:1.02162pt;"
     id="path1265" />
  <path
     d="M 23.834899 40.027374 C 23.939217 39.518931 25.710154 37.0841 27.306973 36.555868 C 27.662663 36.44646 28.187627 37.556842 28.188515 37.708653 C 28.189126 37.815419 27.584926 37.185888 27.311297 37.33167 C 26.133679 37.958837 23.822771 40.150776 23.834899 40.027374 z "
     style="font-size:12;opacity:0.7;fill:url(#linearGradient1567);fill-rule:evenodd;stroke:none;stroke-width:1.02162pt;"
     id="path1266" />
</svg>
