<?xml version="1.0" encoding="UTF-8" standalone="no"?>
<!DOCTYPE svg PUBLIC "-//W3C//DTD SVG 20010904//EN"
"http://www.w3.org/TR/2001/REC-SVG-20010904/DTD/svg10.dtd">
<!-- Created with Inkscape (http://www.inkscape.org/) -->
<svg
   id="svg1"
   sodipodi:version="0.32"
   inkscape:version="0.37"
   width="48pt"
   height="48pt"
   sodipodi:docbase="/home/tom"
   sodipodi:docname="input_devices_settings.svg"
   xmlns="http://www.w3.org/2000/svg"
   xmlns:inkscape="http://www.inkscape.org/namespaces/inkscape"
   xmlns:sodipodi="http://sodipodi.sourceforge.net/DTD/sodipodi-0.dtd"
   xmlns:xlink="http://www.w3.org/1999/xlink">
  <defs
     id="defs3">
    <linearGradient
       id="linearGradient916">
      <stop
         style="stop-color:#cccccc;stop-opacity:1;"
         offset="0.00000000"
         id="stop917" />
      <stop
         style="stop-color:#7f7f7f;stop-opacity:1;"
         offset="1.00000000"
         id="stop918" />
    </linearGradient>
    <linearGradient
       id="linearGradient866">
      <stop
         style="stop-color:#ffffff;stop-opacity:1;"
         offset="0.00000000"
         id="stop867" />
      <stop
         style="stop-color:#d9cce6;stop-opacity:1;"
         offset="1.00000000"
         id="stop868" />
    </linearGradient>
    <linearGradient
       id="linearGradient584">
      <stop
         style="stop-color:#ffffff;stop-opacity:1;"
         offset="0.00000000"
         id="stop585" />
      <stop
         style="stop-color:#ffffff;stop-opacity:0;"
         offset="1.00000000"
         id="stop586" />
    </linearGradient>
    <linearGradient
       id="linearGradient578">
      <stop
         style="stop-color:#d9cce6;stop-opacity:1;"
         offset="0.00000000"
         id="stop579" />
      <stop
         style="stop-color:#73667f;stop-opacity:1;"
         offset="1.00000000"
         id="stop580" />
    </linearGradient>
    <linearGradient
       xlink:href="#linearGradient584"
       id="linearGradient581"
       x1="0.01515152"
       y1="0.00775194"
       x2="1.00000000"
       y2="0.98449612" />
    <linearGradient
       xlink:href="#linearGradient584"
       id="linearGradient583"
       x1="-0.00000000"
       y1="-0.00000000"
       x2="0.94444442"
       y2="0.96899223" />
    <linearGradient
       xlink:href="#linearGradient584"
       id="linearGradient860"
       x1="0.00724638"
       y1="0.02739726"
       x2="0.99637681"
       y2="0.95890409" />
    <linearGradient
       xlink:href="#linearGradient584"
       id="linearGradient861"
       x1="-0.00000000"
       y1="-0.01818182"
       x2="1.00362325"
       y2="0.92727274" />
    <linearGradient
       xlink:href="#linearGradient584"
       id="linearGradient862"
       x1="0.00362319"
       y1="-0.00000000"
       x2="0.98913044"
       y2="0.96103895" />
    <linearGradient
       xlink:href="#linearGradient578"
       id="linearGradient869"
       x1="-0.00000000"
       y1="0.00917431"
       x2="0.99275362"
       y2="0.96330273" />
    <linearGradient
       xlink:href="#linearGradient578"
       id="linearGradient915"
       x1="0.00362319"
       y1="-0.00000000"
       x2="1.01086962"
       y2="1.02362204" />
    <linearGradient
       xlink:href="#linearGradient578"
       id="linearGradient1046"
       x1="-0.00000000"
       y1="0.00775194"
       x2="0.97549021"
       y2="0.96899223" />
    <linearGradient
       xlink:href="#linearGradient578"
       id="linearGradient1047"
       x1="0.00362319"
       y1="0.01626016"
       x2="1.00000000"
       y2="0.97560978" />
    <linearGradient
       xlink:href="#linearGradient584"
       id="linearGradient1106"
       x1="0.01677185"
       y1="0.00454466"
       x2="0.97643667"
       y2="1.00106704" />
    <linearGradient
       xlink:href="#linearGradient866"
       id="linearGradient1107"
       x1="0.01683684"
       y1="0.00517791"
       x2="0.98230928"
       y2="0.98697507" />
    <linearGradient
       xlink:href="#linearGradient866"
       id="linearGradient1113"
       x1="0.30833334"
       y1="0.25000000"
       x2="0.69166666"
       y2="0.50000000" />
  </defs>
  <sodipodi:namedview
     id="base"
     pagecolor="#ffffff"
     bordercolor="#666666"
     borderopacity="1.0"
     inkscape:pageopacity="0.0"
     inkscape:pageshadow="2"
     inkscape:zoom="0.50000000"
     inkscape:cx="32.2733154"
     inkscape:cy="27.7365112"
     inkscape:window-width="1018"
     inkscape:window-height="711"
     inkscape:window-x="0"
     inkscape:window-y="30" />
  <path
     d="M 6.0981794 44.744861 C 7.0810974 45.440633 45.142608 57.605899 46.542095 56.979944 C 48.11021 56.213562 58.930511 45.170606 59.343544 44.178394 C 59.595099 43.415688 59.427462 28.826247 58.097393 28.091547 C 56.437912 27.246809 18.868863 21.614202 17.540285 21.860691 C 16.008218 22.002308 5.1097105 31.683318 4.3988634 32.849622 C 3.7985803 33.930122 5.0232107 44.017014 6.0981794 44.744861 z "
     style="font-size:12;opacity:0.3;fill-rule:evenodd;stroke-width:12.5;"
     id="path727" />
  <path
     d="M 6.1839093 42.944424 C 7.124826 43.610464 43.559977 55.25589 44.899661 54.656682 C 46.40077 53.92305 56.758703 43.351976 57.154086 42.402162 C 57.394892 41.672047 57.234418 27.706035 55.961186 27.002729 C 54.372616 26.194089 18.40895 20.802172 17.137142 21.038128 C 15.670543 21.173694 5.2376789 30.441018 4.5572076 31.557486 C 3.982575 32.591815 5.1548746 42.247678 6.1839093 42.944424 z "
     style="font-size:12;fill:url(#linearGradient1046);fill-rule:evenodd;stroke:#261933;stroke-width:1.875;stroke-dasharray:none;"
     id="path562" />
  <path
     d="M 6.8885365 42.294831 C 6.6583691 41.892032 4.87072 32.695913 5.8149729 32.479351 C 6.926763 32.189301 40.915688 40.846485 41.127212 41.216771 C 41.324667 41.562244 10.733142 33.994909 7.0419077 34.626439 C 5.5872681 34.865437 7.0673478 42.607696 6.8885365 42.294831 z "
     style="font-size:12;opacity:0.699936;fill:url(#linearGradient862);fill-rule:evenodd;stroke:none;stroke-width:0.963536pt;"
     id="path587" />
  <path
     d="M 6.8345957 31.475443 C 6.7608229 31.217146 15.430023 22.713875 17.570933 22.582777 C 23.483437 22.213917 53.068677 28.075085 53.141593 28.330435 C 53.213178 28.581221 29.204571 23.340367 18.004819 24.100998 C 13.769013 24.388766 6.9054303 31.723283 6.8345957 31.475443 z "
     style="font-size:12;opacity:0.699936;fill:url(#linearGradient861);fill-rule:evenodd;stroke:none;stroke-width:0.963536pt;"
     id="path592" />
  <path
     d="M 45.230495 51.650282 C 44.965164 51.517569 43.332482 41.429436 43.850123 40.147648 C 44.495722 38.322646 54.018776 30.508707 54.279166 30.638947 C 54.529952 30.764342 47.068901 37.001879 45.383838 40.914552 C 44.05271 44.005657 45.476338 51.773204 45.230495 51.650282 z "
     style="font-size:12;opacity:0.699936;fill:url(#linearGradient581);fill-rule:evenodd;stroke:none;stroke-width:0.963536pt;"
     id="path594" />
  <path
     d="M 16.692038 30.36582 C 15.844421 29.982986 15.612648 24.732718 16.214517 23.680612 C 16.824277 22.495602 21.559756 18.96253 22.422203 18.746347 C 23.491518 18.319116 44.225541 21.334262 45.024579 22.248142 C 45.890925 23.262032 46.198562 29.873183 44.865342 30.047441 C 43.671015 30.224361 21.979952 25.513409 21.148876 25.909078 C 20.320366 26.37928 17.489175 30.72584 16.692038 30.36582 z "
     style="font-size:12;fill:url(#linearGradient869);fill-rule:evenodd;stroke:#261933;stroke-width:1.875;stroke-dasharray:none;"
     id="path660" />
  <path
     d="M 20.521758 26.840008 C 20.897179 27.928647 36.077275 32.701334 37.063559 31.868376 C 37.94632 31.115037 44.400971 8.8716361 43.947337 7.9959006 C 43.475294 7.0301685 28.097293 4.7535422 27.374423 5.4235618 C 26.484047 6.2536679 20.126527 25.590612 20.521758 26.840008 z "
     style="font-size:12;fill:url(#linearGradient1107);fill-rule:evenodd;stroke:#261933;stroke-width:1.875;stroke-dasharray:none;"
     id="path634" />
  <path
     d="M 21.542254 25.807817 C 21.380663 25.409069 27.488196 6.745573 28.071479 6.3565346 C 28.800273 5.8494226 40.675202 7.9573309 40.836411 8.3551448 C 40.984175 8.7197527 31.575043 7.0963093 29.502129 8.9845975 C 25.525555 12.505488 21.689636 26.17151 21.542254 25.807817 z "
     style="font-size:12;opacity:0.699936;fill:url(#linearGradient1106);fill-rule:evenodd;stroke:none;stroke-width:1pt;"
     id="path640" />
  <path
     d="M 16.214517 30.524963 C 17.199982 30.942973 37.188299 35.849476 38.498513 35.777605 C 39.785056 35.863261 45.041311 31.047261 45.502007 30.36582 C 45.980384 29.49282 46.01632 21.986612 45.342864 21.77062 C 44.129619 21.489697 38.292313 26.785691 36.906806 27.182406 C 35.469583 27.55155 17.844917 23.087108 16.214517 23.362328 C 14.770544 23.584404 14.940143 30.143554 16.214517 30.524963 z "
     style="font-size:12;fill:url(#linearGradient915);fill-rule:evenodd;stroke:#261933;stroke-width:1.875;stroke-dasharray:none;"
     id="path655" />
  <path
     d="M 9.309278 42.202747 L 31.659706 48.456189 L 23.497101 55.368223 L 1.6777925 48.563687 L 9.309278 42.202747 z "
     style="font-size:12;opacity:0.296369;fill-rule:evenodd;stroke-width:12.5;stroke-linecap:round;stroke-linejoin:round;"
     id="path725" />
  <path
     d="M 9.4375793 40.860854 L 31.160033 46.938585 L 23.226785 53.656402 L 2.0205258 47.043064 L 9.4375793 40.860854 z "
     style="font-size:12;fill:url(#linearGradient1047);fill-rule:evenodd;stroke:#261933;stroke-width:1.875;stroke-linecap:round;stroke-linejoin:round;stroke-dasharray:none;"
     id="path718" />
  <path
     d="M 16.803742 29.630857 C 16.674451 29.372369 16.112604 24.887108 16.691278 24.566066 C 17.402094 24.284287 35.709817 28.500129 35.824943 28.730477 C 35.934841 28.950367 22.755224 25.91098 17.36654 25.916683 C 16.300267 25.940546 16.89957 29.822512 16.803742 29.630857 z "
     style="font-size:12;opacity:0.699936;fill:url(#linearGradient860);fill-rule:evenodd;stroke:none;stroke-width:1pt;"
     id="path719" />
  <ellipse
     cx="410.204895"
     cy="422.408997"
     rx="11.720139"
     ry="11.720139"
     transform="matrix(0.138281,0.000000,0.000000,0.138281,-17.18670,-13.31816)"
     style="font-size:12;fill:#80ff80;fill-rule:evenodd;stroke:#003f00;stroke-width:6.87489;stroke-linecap:round;stroke-linejoin:round;stroke-dasharray:none;"
     id="path722" />
  <path
     d="M 38.188499 33.907828 C 37.984772 33.744788 37.559632 29.225681 37.850822 28.617918 C 38.188119 27.791595 44.29998 24.075331 44.491349 24.228483 C 44.675113 24.375456 40.30298 27.48082 38.976321 29.518297 C 38.202094 30.707301 38.359906 34.044914 38.188499 33.907828 z "
     style="font-size:12;opacity:0.699936;fill:url(#linearGradient583);fill-rule:evenodd;stroke:none;stroke-width:1pt;"
     id="path723" />
  <path
     d="M 43.941447 50.903988 C 44.871048 48.905259 40.159967 47.377488 44.058926 43.594315 C 48.46158 39.325421 49.229372 44.965246 51.163344 44.3093 C 52.450432 43.805561 50.955773 38.382952 49.477148 37.20565 C 47.975449 36.009821 44.033187 38.597648 42.222634 37.189978 C 36.220399 32.522983 30.133792 25.575237 26.039116 18.981461 C 24.706109 16.834709 27.198163 12.663311 25.939404 10.96832 C 24.717801 9.3236062 19.220843 7.7106559 18.598119 8.9626121 C 17.600765 10.888469 23.715764 13.234209 19.87781 16.84578 C 16.013463 20.481406 13.712503 14.584192 12.078896 15.064261 C 10.755728 15.495534 12.22014 21.407946 13.789747 22.834215 C 15.337797 24.24092 19.509306 22.038908 21.431866 23.563179 C 27.396416 28.292269 33.401344 35.111159 37.451087 41.594382 C 38.625674 43.474793 36.044441 47.13286 37.105034 48.654166 C 38.207866 50.236032 43.273733 52.193366 43.941447 50.903988 z "
     style="font-size:12;opacity:0.302675;fill-rule:evenodd;stroke-width:12.5;"
     id="path636" />
  <path
     d="M 42.486902 52.318163 C 43.416505 50.319441 38.705425 48.7917 42.604384 45.008524 C 47.00704 40.739631 47.774832 46.379451 49.708801 45.723509 C 50.995892 45.219769 49.501233 39.797163 48.022606 38.619858 C 46.520906 37.42403 42.578647 40.011858 40.768088 38.60419 C 34.765855 33.937191 28.679251 26.989446 24.584575 20.395673 C 23.251568 18.24892 25.743626 14.077519 24.484862 12.382527 C 23.263258 10.737814 17.766301 9.1248652 17.143577 10.376819 C 16.146221 12.302677 22.261222 14.648418 18.423269 18.259988 C 14.558921 21.895614 12.257964 15.998399 10.624398 16.47847 C 9.3012223 16.909743 10.765668 22.822151 12.335206 24.248423 C 13.883255 25.655128 18.054764 23.453118 19.977325 24.977388 C 25.941875 29.706477 31.946802 36.525367 35.996544 43.008591 C 37.171132 44.889002 34.589902 48.54707 35.65049 50.06835 C 36.753323 51.650206 41.819189 53.60754 42.486902 52.318163 z "
     style="font-size:12;fill:url(#linearGradient1113);fill-rule:evenodd;stroke:#261933;stroke-width:2.21417;"
     id="path630" />
  <path
     d="M 37.197268 42.024203 C 37.057662 42.109262 32.390797 35.132607 29.635415 32.013786 C 26.9883 29.017657 20.852362 23.762907 20.98977 23.679182 C 21.130641 23.593275 27.780348 28.460585 30.470173 31.505161 C 33.182851 34.575622 37.335946 41.93972 37.197268 42.024203 z "
     style="font-size:12;opacity:0.7;fill:url(#linearGradient862);fill-rule:evenodd;stroke-width:1pt;"
     id="path633" />
</svg>
