<?xml version="1.0" encoding="UTF-8" standalone="no"?>
<!DOCTYPE svg PUBLIC "-//W3C//DTD SVG 20010904//EN"
"http://www.w3.org/TR/2001/REC-SVG-20010904/DTD/svg10.dtd">
<!-- Created with Inkscape (http://www.inkscape.org/) -->
<svg
   version="1.0"
   x="0"
   y="0"
   width="48pt"
   height="48pt"
   id="svg611"
   sodipodi:version="0.32"
   inkscape:version="0.37"
   sodipodi:docname="k3b.svg"
   sodipodi:docbase="/home/tom"
   xmlns="http://www.w3.org/2000/svg"
   xmlns:inkscape="http://www.inkscape.org/namespaces/inkscape"
   xmlns:sodipodi="http://sodipodi.sourceforge.net/DTD/sodipodi-0.dtd"
   xmlns:xlink="http://www.w3.org/1999/xlink">
  <sodipodi:namedview
     id="base"
     pagecolor="#ffffff"
     bordercolor="#666666"
     borderopacity="1.0"
     inkscape:pageopacity="0.0"
     inkscape:pageshadow="2"
     inkscape:zoom="1"
     inkscape:cx="12.9146729"
     inkscape:cy="30.8355713"
     inkscape:window-width="1018"
     inkscape:window-height="711"
     inkscape:window-x="0"
     inkscape:window-y="30" />
  <defs
     id="defs613">
    <linearGradient
       id="linearGradient725">
      <stop
         offset="0.00000000"
         style="stop-color:#ff0000;stop-opacity:1;"
         id="stop726" />
      <stop
         offset="1.00000000"
         style="stop-color:#d90000;stop-opacity:1;"
         id="stop727" />
    </linearGradient>
    <linearGradient
       id="linearGradient647">
      <stop
         offset="0.00000000"
         style="stop-color:#feff9f;stop-opacity:1;"
         id="stop648" />
      <stop
         offset="1.00000000"
         style="stop-color:#ff4545;stop-opacity:1;"
         id="stop649" />
    </linearGradient>
    <linearGradient
       id="linearGradient643">
      <stop
         offset="0.00000000"
         style="stop-color:#2ad700;stop-opacity:1;"
         id="stop646" />
      <stop
         offset="1.00000000"
         style="stop-color:#e5ffe5;stop-opacity:1;"
         id="stop645" />
    </linearGradient>
    <linearGradient
       id="linearGradient923">
      <stop
         style="stop-color:#d9cce6;stop-opacity:1;"
         offset="0.00000000"
         id="stop925" />
      <stop
         style="stop-color:#f3e6ff;stop-opacity:1;"
         offset="1.00000000"
         id="stop924" />
    </linearGradient>
    <linearGradient
       id="linearGradient1535">
      <stop
         style="stop-color:#ffffff;stop-opacity:1;"
         offset="0"
         id="stop1537" />
      <stop
         style="stop-color:#ffffff;stop-opacity:0;"
         offset="1"
         id="stop1536" />
    </linearGradient>
    <linearGradient
       id="linearGradient1528">
      <stop
         style="stop-color:#d9cce6;stop-opacity:1;"
         offset="0.00000000"
         id="stop1530" />
      <stop
         style="stop-color:#73667f;stop-opacity:1;"
         offset="1.00000000"
         id="stop1529" />
    </linearGradient>
    <linearGradient
       id="linearGradient642">
      <stop
         style="stop-color:#ffffff;stop-opacity:1;"
         offset="0"
         id="stop643" />
      <stop
         style="stop-color:#ffffff;stop-opacity:0;"
         offset="1"
         id="stop644" />
    </linearGradient>
    <linearGradient
       id="linearGradient635">
      <stop
         style="stop-color:#e6cfff;stop-opacity:1;"
         offset="0"
         id="stop636" />
      <stop
         style="stop-color:#ffffff;stop-opacity:1;"
         offset="1"
         id="stop637" />
    </linearGradient>
    <linearGradient
       x1="0.87692308"
       y1="0.91406256"
       x2="0.00000000"
       y2="0.00781250"
       id="linearGradient638"
       xlink:href="#linearGradient923" />
    <linearGradient
       id="linearGradient641"
       xlink:href="#linearGradient647"
       x1="0.40000001"
       y1="0.18750000"
       x2="0.40000001"
       y2="0.98437500" />
    <linearGradient
       id="linearGradient1522"
       xlink:href="#linearGradient725"
       x1="0.00000000"
       y1="0.00000000"
       x2="1.00000000"
       y2="0.00000000" />
    <linearGradient
       id="linearGradient1527"
       xlink:href="#linearGradient1528"
       x1="-0.00000000"
       y1="0.00000000"
       x2="1.00000000"
       y2="0.00000000" />
    <linearGradient
       x1="0.003637"
       y1="0.007812"
       x2="0.985455"
       y2="0.984375"
       id="linearGradient1532"
       xlink:href="#linearGradient1535" />
    <linearGradient
       x1="0.003639"
       y1="0.023751"
       x2="1.007273"
       y2="1.015872"
       id="linearGradient1534"
       xlink:href="#linearGradient642" />
    <linearGradient
       x1="0.010934"
       y1="0.000020"
       x2="1.000000"
       y2="0.991380"
       id="linearGradient1539"
       xlink:href="#linearGradient1535" />
    <linearGradient
       x1="0.007274"
       y1="0.026786"
       x2="0.978182"
       y2="0.964286"
       id="linearGradient1567"
       xlink:href="#linearGradient1535" />
    <linearGradient
       x1="0.973546"
       y1="0.953124"
       x2="0.005291"
       y2="-0.015625"
       id="linearGradient1042"
       xlink:href="#linearGradient1535" />
    <linearGradient
       x1="0.950420"
       y1="0.945312"
       x2="0.024794"
       y2="0.015625"
       id="linearGradient1044"
       xlink:href="#linearGradient1535" />
    <defs
       id="defs839">
      <linearGradient
         id="linearGradient983"
         x1="0.00000000"
         y1="0.00000000"
         x2="1.00000000"
         y2="0.00000000"
         gradientUnits="objectBoundingBox"
         spreadMethod="pad"
         xlink:href="#linearGradient643" />
      <linearGradient
         id="linearGradient843">
        <stop
           style="stop-color:#ffffff;stop-opacity:1;"
           offset="0"
           id="stop844" />
        <stop
           style="stop-color:#ffffff;stop-opacity:0;"
           offset="1"
           id="stop845" />
      </linearGradient>
      <linearGradient
         id="linearGradient846">
        <stop
           style="stop-color:#a673f3;stop-opacity:1;"
           offset="0"
           id="stop847" />
        <stop
           style="stop-color:#4c3f8c;stop-opacity:1;"
           offset="1"
           id="stop848" />
      </linearGradient>
      <linearGradient
         id="linearGradient849">
        <stop
           style="stop-color:#ffffff;stop-opacity:1;"
           offset="0"
           id="stop850" />
        <stop
           style="stop-color:#ffffff;stop-opacity:0;"
           offset="1"
           id="stop851" />
      </linearGradient>
      <linearGradient
         x1="0.000000"
         y1="0.000000"
         x2="1.000000"
         y2="0.000000"
         id="linearGradient852"
         xlink:href="#linearGradient923"
         gradientUnits="objectBoundingBox"
         spreadMethod="pad" />
      <linearGradient
         x1="0.015504"
         y1="0.015625"
         x2="1.015504"
         y2="0.984375"
         id="linearGradient855"
         xlink:href="#linearGradient635" />
      <linearGradient
         x1="-0.006803"
         y1="0.023438"
         x2="0.986395"
         y2="0.992188"
         id="linearGradient856"
         xlink:href="#linearGradient642" />
      <linearGradient
         x1="-0.000000"
         y1="0.000000"
         x2="1.000000"
         y2="0.000000"
         id="linearGradient857"
         xlink:href="#linearGradient642" />
      <linearGradient
         x1="0.010309"
         y1="0.023436"
         x2="1.000000"
         y2="0.992188"
         id="linearGradient858"
         xlink:href="#linearGradient642" />
      <linearGradient
         id="linearGradient859"
         xlink:href="#linearGradient1535" />
      <linearGradient
         x1="0.014564"
         y1="-0.000001"
         x2="0.989091"
         y2="1.000000"
         id="linearGradient860"
         xlink:href="#linearGradient1535" />
      <linearGradient
         x1="0.003631"
         y1="0.000003"
         x2="1.003636"
         y2="1.041666"
         id="linearGradient861"
         xlink:href="#linearGradient1535" />
      <linearGradient
         x1="0.003633"
         y1="0.008073"
         x2="0.996364"
         y2="0.975806"
         id="linearGradient862"
         xlink:href="#linearGradient1535" />
    </defs>
    <linearGradient
       x1="0.978904"
       y1="0.968750"
       x2="0.008439"
       y2="0.023437"
       id="linearGradient899"
       xlink:href="#linearGradient642" />
    <radialGradient
       xlink:href="#linearGradient647"
       id="radialGradient634"
       cx="0.50000000"
       cy="0.50000000"
       r="0.50000000"
       fx="0.50000000"
       fy="0.50000000" />
  </defs>
  <path
     d="M 35.94447 32.164599 C 35.94447 34.392251 34.136589 36.200132 31.908939 36.200132 C 29.681287 36.200132 27.873309 34.392251 27.873309 32.164599 C 27.873309 29.936949 29.681287 28.128969 31.908939 28.128969 C 34.136589 28.128969 35.94447 29.936949 35.94447 32.164599 z M 57.554448 31.774005 C 57.554448 46.074039 45.948547 57.679846 31.64851 57.679846 C 17.348474 57.679846 5.7426567 46.074039 5.7426567 31.774005 C 5.7426567 17.473969 17.348474 5.8680673 31.64851 5.8680673 C 45.948547 5.8680673 57.554448 17.473969 57.554448 31.774005 z "
     style="font-size:12;opacity:0.302675;fill-rule:evenodd;stroke-width:12.5;"
     id="path782" />
  <path
     d="M 33.735236 29.403006 C 33.735236 31.630656 31.927353 33.438539 29.699701 33.438539 C 27.472052 33.438539 25.664073 31.630656 25.664073 29.403006 C 25.664073 27.175356 27.472052 25.367376 29.699701 25.367376 C 31.927353 25.367376 33.735236 27.175356 33.735236 29.403006 z M 55.345213 29.01241 C 55.345213 43.312449 43.739311 54.918251 29.439275 54.918251 C 15.139237 54.918251 3.533422 43.312449 3.533422 29.01241 C 3.533422 14.712374 15.139237 3.1065219 29.439275 3.1065219 C 43.739311 3.1065219 55.345213 14.712374 55.345213 29.01241 z "
     style="font-size:12;fill:url(#linearGradient638);fill-rule:evenodd;stroke:#261e2e;stroke-width:1.875;stroke-dasharray:none;"
     id="path773" />
  <path
     d="M 9.1311506 42.420963 C 4.3548052 37.125542 1.3223546 15.1461 19.024832 7.01189 C 33.388063 0.46956055 47.441628 10.953941 48.44564 13.911412 C 48.741736 14.745133 36.463295 4.3641214 21.758706 11.958728 C 0.18059292 23.005585 9.7186896 43.090594 9.1311506 42.420963 z "
     style="font-size:12;opacity:0.7;fill:url(#linearGradient1042);fill-rule:evenodd;stroke:none;stroke-width:1pt;stroke-opacity:1;"
     id="path774"
     sodipodi:nodetypes="ccccc" />
  <path
     d="M 39.292248 29.586964 C 39.292248 34.662371 34.550057 38.960272 29.661613 39.125621 C 24.218099 39.125621 19.66597 34.570392 19.846826 29.494986 C 20.034175 24.235716 24.218099 19.588122 29.661613 19.588122 C 34.736924 19.588122 39.482893 24.33099 39.292248 29.586964 z M 36.729441 29.533074 C 36.729441 33.485352 33.521815 36.69298 29.569538 36.69298 C 25.617259 36.69298 22.409632 33.485352 22.409632 29.533074 C 22.409632 25.580798 25.617259 22.373169 29.569538 22.373169 C 33.521815 22.373169 36.729441 25.580798 36.729441 29.533074 z "
     style="font-size:12;opacity:0.100892;fill:#3f003f;fill-rule:evenodd;stroke-width:1pt;"
     id="path779" />
  <path
     d="M 30.871293 24.651318 C 30.866157 25.020299 33.093031 26.471799 33.40987 26.278538 C 38.359666 22.241647 48.062897 16.194213 48.185309 12.088894 C 48.269921 9.1879292 33.6797 3.273004 33.214573 4.0176837 C 31.210326 7.5070045 30.982462 18.078177 30.871293 24.651318 z "
     style="font-size:12;fill:url(#linearGradient1044);fill-rule:evenodd;stroke-width:1pt;"
     id="path780" />
  <path
     d="M 29.165374 33.931579 C 29.132225 33.564052 26.767042 32.351077 26.471916 32.576127 C 21.966989 37.104025 12.942405 44.124169 13.245869 48.219987 C 13.462199 51.114169 28.586652 55.485729 28.97211 54.69698 C 30.60408 51.018797 29.735758 40.480878 29.165374 33.931579 z "
     style="font-size:12;fill:url(#linearGradient899);fill-rule:evenodd;stroke-width:1pt;"
     id="path781" />
  <path
     style="font-size:12;opacity:0.99;fill-opacity:0.3;fill-rule:evenodd;stroke:none;stroke-width:1pt;fill:#000000;"
     d="M 35.627463 50.584171 C 36.196977 53.381228 36.733529 55.429327 38.426764 57.2007 C 41.059721 58.907246 46.166044 60.036158 48.351557 57.709663 C 50.613877 55.826787 50.493858 55.193333 51.150858 52.874508 C 51.935921 50.103696 51.953823 46.296541 51.150857 43.458678 C 50.238619 38.181349 49.0122 36.011781 48.606039 31.49803 C 48.050687 28.154401 48.468524 25.453656 48.606038 22.336683 C 48.723006 19.6854 49.332268 17.323895 49.878449 14.702226 C 50.180541 13.252185 55.319519 -2.9539755 49.878448 8.0856967 C 49.477648 8.9388017 46.885372 13.632077 44.534329 17.756008 C 41.43924 23.631442 40.06799 26.099914 39.699174 27.171838 C 37.383512 33.647573 37.408837 33.788367 36.899873 35.56974 C 36.680959 37.102135 34.456842 44.580409 35.627463 50.584171 z "
     id="path635" />
  <path
     style="fill:url(#linearGradient641);fill-rule:evenodd;stroke:black;stroke-opacity:1;stroke-width:1pt;stroke-linejoin:miter;stroke-linecap:butt;fill-opacity:1;"
     d="M 33.846089 49.820726 C 34.415603 52.617783 34.952155 54.665882 36.64539 56.437255 C 39.278347 58.143801 43.935857 58.74882 46.570183 56.946218 C 48.578021 55.317824 48.827385 53.884125 49.369484 52.111063 C 49.901404 49.538953 50.172449 45.533096 49.369483 42.695233 C 48.353196 37.43695 47.230826 35.248336 46.824665 30.734585 C 46.269313 27.390956 46.68715 24.690211 46.824664 21.573238 C 46.941632 18.921955 47.550894 16.56045 48.097075 13.938781 C 48.399167 12.48874 53.538145 -3.7174211 48.097074 7.3222511 C 47.696274 8.1753561 45.103998 12.868632 42.752955 16.992563 C 39.657866 22.867997 38.286616 25.336469 37.9178 26.408393 C 35.602138 32.884128 35.627463 33.024922 35.118499 34.806295 C 34.899585 36.33869 32.675468 43.816964 33.846089 49.820726 z "
     id="path633"
     sodipodi:nodetypes="cssssssssssss" />
  <path
     transform="scale(3.972709,3.101851)"
     style="font-size:12;font-weight:normal;fill:url(#linearGradient1522);stroke:#261933;stroke-width:0.330841;font-family:Crackling;"
     d="M 6.7685964 6.8036342 C 6.7925964 6.8396342 6.9365964 6.8396342 6.8645964 6.9236342 L 6.8405964 6.9356342 C 6.8045964 6.8996342 6.7325964 6.8396342 6.7685964 6.8036342 z M 2.6765964 6.8996342 C 2.7125964 6.9356342 2.8085964 6.8996342 2.8085964 6.9836342 L 2.7125964 7.1756342 C 2.7005964 7.1156342 2.6045964 6.9956342 2.6765964 6.8996342 z M 7.5245964 11.255634 C 7.2725964 11.255634 7.0085964 11.435634 6.9245964 11.651634 C 7.0205964 11.627634 7.0925964 11.459634 7.2005964 11.531634 C 7.1765964 11.663634 6.9605964 11.759634 7.0445964 11.927634 C 7.2965964 11.831634 7.4645964 11.519634 7.5245964 11.255634 z M 6.5765964 11.207634 C 6.9245964 10.979634 6.8285964 10.475634 6.8405964 10.127634 C 6.6005964 10.307634 6.5525964 10.607634 6.4085964 10.835634 L 6.6005964 10.715634 C 6.6005964 10.823634 6.5405964 10.895634 6.5045964 10.979634 L 6.6125964 10.979634 L 6.5765964 11.063634 C 6.5525964 11.111634 6.4685964 11.207634 6.5765964 11.207634 z M 6.5165964 9.7916342 C 6.5525964 9.8036342 6.6005964 9.7676342 6.6125964 9.8156342 C 6.5405964 10.031634 6.4325964 10.175634 6.2285964 10.283634 C 6.2285964 10.079634 6.3245964 9.8756342 6.5165964 9.7916342 z M 7.0085964 8.1356342 C 6.9125964 8.1716342 6.7925964 8.1956342 6.6965964 8.2556342 C 6.5645964 8.3756342 6.5765964 8.5796342 6.5525964 8.6996342 L 6.6965964 8.6996342 C 6.8405964 8.5196342 7.0085964 8.3396342 7.0085964 8.1356342 z M 3.3485964 7.1636342 C 3.3365964 7.1516342 3.3245964 7.1276342 3.3005964 7.1396342 L 3.3245964 7.2116342 C 3.3365964 7.1996342 3.3725964 7.1756342 3.3485964 7.1636342 z M 7.4525964 7.0196342 C 7.2965964 7.1516342 7.1645964 7.3796342 7.0805964 7.6076342 L 7.2365964 7.4996342 C 7.3445964 7.3556342 7.5005964 7.1996342 7.4525964 7.0196342 z M 3.3845964 6.9356342 C 3.3245964 6.9356342 3.3245964 6.9956342 3.3245964 7.0436342 C 3.3485964 7.0196342 3.3965964 6.9836342 3.3845964 6.9356342 z M 4.3565964 7.4516342 C 4.6565964 7.2236342 4.7285964 6.7316342 4.6445964 6.3476342 C 4.5125964 6.4316342 4.4285964 6.5756342 4.3565964 6.7196342 C 4.4405964 6.8996342 4.5245964 7.2956342 4.3565964 7.4516342 z M 6.0605964 6.6236342 C 6.0485964 6.4796342 6.0245964 6.2036342 5.8445964 6.1676342 C 5.1845964 7.2956342 4.7765964 8.6036342 4.0565964 9.7196342 L 3.9605964 8.7956342 C 4.3325964 8.5316342 3.7925964 8.5076342 3.8165964 8.2556342 C 4.0925964 8.0876342 3.7805964 7.7996342 4.0925964 7.6196342 C 4.2485964 7.4276342 4.0085964 7.2596342 4.0325964 7.0436342 C 3.9725964 7.0316342 3.9125964 7.0556342 3.8765964 7.0196342 C 3.8765964 6.7196342 3.6365964 6.4916342 3.6245964 6.2276342 C 3.4085964 6.6356342 3.6485964 7.0556342 3.4085964 7.4516342 C 3.2765964 7.3916342 3.2165964 7.6676342 3.1085964 7.4996342 C 3.2405964 7.0796342 2.8805964 6.9716342 2.8685964 6.5756342 L 2.5685964 6.8036342 C 2.5085964 6.6716342 2.5205964 6.4916342 2.4365964 6.3836342 C 2.3645964 6.3596342 2.2805964 6.3956342 2.2565964 6.4436342 C 2.3285964 9.0236342 2.3525964 11.111634 2.2325964 13.607634 C 2.3645964 13.799634 2.6165964 13.991634 2.8925964 14.027634 C 3.3005964 14.099634 3.6365964 14.507634 4.0925964 14.339634 C 4.3805964 13.463634 4.2005964 12.395634 4.3325964 11.447634 C 4.7645964 12.059634 5.1485964 12.803634 5.6645964 13.331634 C 5.9765964 13.571634 6.3245964 14.171634 6.8285964 14.159634 C 7.1525964 13.931634 7.5245964 13.619634 7.5605964 13.211634 C 7.5125964 12.935634 7.3325964 12.659634 7.0805964 12.527634 C 6.9725964 12.659634 6.8405964 12.563634 6.7445964 12.659634 C 6.6605964 12.575634 6.8285964 12.491634 6.6965964 12.419634 L 6.6005964 12.623634 C 6.5045964 12.419634 6.5765964 12.167634 6.6125964 11.963634 C 6.5165964 11.831634 6.5045964 11.579634 6.2765964 11.555634 C 6.1685964 11.651634 6.3005964 11.903634 6.0965964 11.927634 C 6.0005964 11.711634 5.9645964 11.567634 5.9165964 11.351634 C 6.1205964 10.979634 5.7845964 10.655634 5.6165964 10.343634 C 5.7485964 10.019634 6.0725964 9.7436342 6.1085964 9.3596342 C 5.9645964 9.0596342 6.3365964 8.7596342 6.4565964 8.5196342 C 6.2765964 8.2556342 6.7805964 8.1956342 6.7445964 7.9316342 C 6.5765964 7.3916342 7.4525964 7.2476342 7.2845964 6.6956342 C 7.0685964 6.6596342 6.9125964 6.4556342 6.6965964 6.4916342 C 5.8925964 6.5276342 6.6125964 7.3916342 6.0965964 7.5716342 C 6.0605964 7.4276342 6.1325964 7.2236342 6.0365964 7.1156342 C 5.9645964 6.9476342 5.9405964 6.7436342 6.0605964 6.6236342 z M 4.2845964 6.3836342 C 4.3325964 6.2516342 4.2965964 6.0596342 4.2005964 5.9516342 C 4.1045964 6.0956342 4.1045964 6.3356342 4.2845964 6.3836342 z M 7.2845964 6.0716342 C 7.2725964 5.7596342 7.3205964 5.4236342 7.1645964 5.1836342 C 6.8405964 5.3876342 7.1525964 5.6636342 7.0805964 5.9516342 C 7.1405964 6.0356342 7.1885964 6.0836342 7.2845964 6.0716342 z M 2.5565964 5.7716342 C 2.4365964 5.5316342 2.3765964 5.2916342 2.3045964 5.0396342 L 2.1965964 5.6516342 C 2.2085964 5.7476342 2.3045964 5.8796342 2.4365964 5.8556342 C 2.4845964 5.8796342 2.6045964 5.8556342 2.5565964 5.7716342 z M 4.1885964 5.0636342 C 4.1525964 5.0276342 4.1165964 5.0276342 4.0925964 5.0156342 L 4.0925964 5.1116342 C 4.1165964 5.1356342 4.1525964 5.0876342 4.1885964 5.0636342 z M 3.7445964 5.5796342 L 3.7925964 5.4716342 L 3.7210911 5.4527191 L 3.7445964 5.5796342 z M 6.6485964 4.9436342 C 6.3725964 5.0156342 6.4685964 5.3756342 6.3485964 5.5796342 L 6.1325964 5.0876342 C 5.6525964 5.0396342 6.1325964 5.6156342 5.9165964 5.8556342 C 6.0725964 5.9276342 6.1565964 5.7596342 6.2525964 5.9396342 L 6.3725964 5.6996342 C 6.4685964 5.7596342 6.3845964 5.9396342 6.5165964 5.9396342 C 6.5165964 5.7596342 6.4565964 5.5436342 6.5525964 5.3996342 C 6.7325964 5.5316342 6.6005964 5.8556342 6.7685964 5.9516342 C 6.8765964 5.6156342 6.6845964 5.2916342 6.6485964 4.9436342 z M 2.9645964 3.9356342 L 3.0485964 3.9356342 C 3.1085964 4.1396342 3.0845964 4.4036342 3.1805964 4.6076342 L 3.1445964 4.6556342 C 3.3485964 4.8116342 3.4325964 5.1116342 3.4805964 5.3756342 C 3.3965964 5.3156342 3.4205964 5.0876342 3.2885964 5.1116342 L 3.2405964 5.2196342 C 3.2045964 5.1716342 3.1925964 5.1236342 3.1445964 5.1116342 C 3.0725964 5.0876342 3.0245964 5.1356342 3.0125964 5.1836342 L 3.0485964 5.3036342 C 2.9165964 5.4596342 2.9165964 5.7716342 2.6165964 5.6156342 C 2.7125964 5.3876342 2.7005964 5.1116342 2.9165964 4.9076342 C 2.9285964 4.5356342 2.8445964 4.2956342 2.9645964 3.9356342 z "
     id="path724"
     sodipodi:nodetypes="ccccccccccccccccccccccccccccccccccccccccccccccccccccccccccccccccccccccccccccccccccccccccccccccccccccccccccccccccccccccccccccccc" />
</svg>
