<?xml version="1.0" encoding="UTF-8" standalone="no"?>
<!DOCTYPE svg PUBLIC "-//W3C//DTD SVG 20010904//EN"
"http://www.w3.org/TR/2001/REC-SVG-20010904/DTD/svg10.dtd">
<!-- Created with Inkscape (http://www.inkscape.org/) -->
<svg
   version="1.0"
   x="0"
   y="0"
   width="48pt"
   height="48pt"
   id="svg611"
   sodipodi:version="0.32"
   inkscape:version="0.37"
   sodipodi:docname="burning.svg"
   xmlns="http://www.w3.org/2000/svg"
   xmlns:inkscape="http://www.inkscape.org/namespaces/inkscape"
   xmlns:sodipodi="http://sodipodi.sourceforge.net/DTD/sodipodi-0.dtd"
   xmlns:xlink="http://www.w3.org/1999/xlink"
   sodipodi:docbase="/home/morten">
  <sodipodi:namedview
     id="base"
     pagecolor="#ffffff"
     bordercolor="#666666"
     borderopacity="1.0"
     inkscape:pageopacity="0.0"
     inkscape:pageshadow="2"
     inkscape:zoom="9.82388221"
     inkscape:cx="27.9333943"
     inkscape:cy="25.4835705"
     inkscape:window-width="578"
     inkscape:window-height="713"
     inkscape:window-x="0"
     inkscape:window-y="207" />
  <defs
     id="defs613">
    <linearGradient
       id="linearGradient647">
      <stop
         offset="0.00000000"
         style="stop-color:#feff9f;stop-opacity:1;"
         id="stop648" />
      <stop
         offset="1.00000000"
         style="stop-color:#ff4545;stop-opacity:1;"
         id="stop649" />
    </linearGradient>
    <linearGradient
       id="linearGradient643">
      <stop
         offset="0.00000000"
         style="stop-color:#2ad700;stop-opacity:1;"
         id="stop646" />
      <stop
         offset="1.00000000"
         style="stop-color:#e5ffe5;stop-opacity:1;"
         id="stop645" />
    </linearGradient>
    <linearGradient
       id="linearGradient923">
      <stop
         style="stop-color:#d9cce6;stop-opacity:1;"
         offset="0.00000000"
         id="stop925" />
      <stop
         style="stop-color:#f3e6ff;stop-opacity:1;"
         offset="1.00000000"
         id="stop924" />
    </linearGradient>
    <linearGradient
       id="linearGradient1535">
      <stop
         style="stop-color:#ffffff;stop-opacity:1;"
         offset="0"
         id="stop1537" />
      <stop
         style="stop-color:#ffffff;stop-opacity:0;"
         offset="1"
         id="stop1536" />
    </linearGradient>
    <linearGradient
       id="linearGradient1528">
      <stop
         style="stop-color:#d9cce6;stop-opacity:1;"
         offset="0.00000000"
         id="stop1530" />
      <stop
         style="stop-color:#73667f;stop-opacity:1;"
         offset="1.00000000"
         id="stop1529" />
    </linearGradient>
    <linearGradient
       id="linearGradient642">
      <stop
         style="stop-color:#ffffff;stop-opacity:1;"
         offset="0"
         id="stop643" />
      <stop
         style="stop-color:#ffffff;stop-opacity:0;"
         offset="1"
         id="stop644" />
    </linearGradient>
    <linearGradient
       id="linearGradient635">
      <stop
         style="stop-color:#e6cfff;stop-opacity:1;"
         offset="0"
         id="stop636" />
      <stop
         style="stop-color:#ffffff;stop-opacity:1;"
         offset="1"
         id="stop637" />
    </linearGradient>
    <linearGradient
       x1="0.87692308"
       y1="0.91406256"
       x2="0.00000000"
       y2="0.00781250"
       id="linearGradient638"
       xlink:href="#linearGradient923" />
    <linearGradient
       id="linearGradient641"
       xlink:href="#linearGradient647"
       x1="0.40000001"
       y1="0.18750000"
       x2="0.40000001"
       y2="0.98437500" />
    <linearGradient
       id="linearGradient1522"
       xlink:href="#linearGradient647"
       x1="0.00000000"
       y1="-0.00000000"
       x2="1.00000000"
       y2="-0.00000000" />
    <linearGradient
       x1="0.00847454"
       y1="0.03906249"
       x2="0.98305082"
       y2="0.98437500"
       id="linearGradient1527"
       xlink:href="#linearGradient1528" />
    <linearGradient
       x1="0.003637"
       y1="0.007812"
       x2="0.985455"
       y2="0.984375"
       id="linearGradient1532"
       xlink:href="#linearGradient1535" />
    <linearGradient
       x1="0.003639"
       y1="0.023751"
       x2="1.007273"
       y2="1.015872"
       id="linearGradient1534"
       xlink:href="#linearGradient642" />
    <linearGradient
       x1="0.010934"
       y1="0.000020"
       x2="1.000000"
       y2="0.991380"
       id="linearGradient1539"
       xlink:href="#linearGradient1535" />
    <linearGradient
       x1="0.007274"
       y1="0.026786"
       x2="0.978182"
       y2="0.964286"
       id="linearGradient1567"
       xlink:href="#linearGradient1535" />
    <linearGradient
       x1="0.973546"
       y1="0.953124"
       x2="0.005291"
       y2="-0.015625"
       id="linearGradient1042"
       xlink:href="#linearGradient1535" />
    <linearGradient
       x1="0.950420"
       y1="0.945312"
       x2="0.024794"
       y2="0.015625"
       id="linearGradient1044"
       xlink:href="#linearGradient1535" />
    <defs
       id="defs839">
      <linearGradient
         id="linearGradient983"
         x1="0.00000000"
         y1="0.00000000"
         x2="1.00000000"
         y2="0.00000000"
         gradientUnits="objectBoundingBox"
         spreadMethod="pad"
         xlink:href="#linearGradient643" />
      <linearGradient
         id="linearGradient843">
        <stop
           style="stop-color:#ffffff;stop-opacity:1;"
           offset="0"
           id="stop844" />
        <stop
           style="stop-color:#ffffff;stop-opacity:0;"
           offset="1"
           id="stop845" />
      </linearGradient>
      <linearGradient
         id="linearGradient846">
        <stop
           style="stop-color:#a673f3;stop-opacity:1;"
           offset="0"
           id="stop847" />
        <stop
           style="stop-color:#4c3f8c;stop-opacity:1;"
           offset="1"
           id="stop848" />
      </linearGradient>
      <linearGradient
         id="linearGradient849">
        <stop
           style="stop-color:#ffffff;stop-opacity:1;"
           offset="0"
           id="stop850" />
        <stop
           style="stop-color:#ffffff;stop-opacity:0;"
           offset="1"
           id="stop851" />
      </linearGradient>
      <linearGradient
         x1="0.000000"
         y1="0.000000"
         x2="1.000000"
         y2="0.000000"
         id="linearGradient852"
         xlink:href="#linearGradient923"
         gradientUnits="objectBoundingBox"
         spreadMethod="pad" />
      <linearGradient
         x1="0.015504"
         y1="0.015625"
         x2="1.015504"
         y2="0.984375"
         id="linearGradient855"
         xlink:href="#linearGradient635" />
      <linearGradient
         x1="-0.006803"
         y1="0.023438"
         x2="0.986395"
         y2="0.992188"
         id="linearGradient856"
         xlink:href="#linearGradient642" />
      <linearGradient
         x1="-0.000000"
         y1="0.000000"
         x2="1.000000"
         y2="0.000000"
         id="linearGradient857"
         xlink:href="#linearGradient642" />
      <linearGradient
         x1="0.010309"
         y1="0.023436"
         x2="1.000000"
         y2="0.992188"
         id="linearGradient858"
         xlink:href="#linearGradient642" />
      <linearGradient
         id="linearGradient859"
         xlink:href="#linearGradient1535" />
      <linearGradient
         x1="0.014564"
         y1="-0.000001"
         x2="0.989091"
         y2="1.000000"
         id="linearGradient860"
         xlink:href="#linearGradient1535" />
      <linearGradient
         x1="0.003631"
         y1="0.000003"
         x2="1.003636"
         y2="1.041666"
         id="linearGradient861"
         xlink:href="#linearGradient1535" />
      <linearGradient
         x1="0.003633"
         y1="0.008073"
         x2="0.996364"
         y2="0.975806"
         id="linearGradient862"
         xlink:href="#linearGradient1535" />
    </defs>
    <linearGradient
       x1="0.978904"
       y1="0.968750"
       x2="0.008439"
       y2="0.023437"
       id="linearGradient899"
       xlink:href="#linearGradient642" />
    <radialGradient
       xlink:href="#linearGradient647"
       id="radialGradient634"
       cx="0.50000000"
       cy="0.50000000"
       r="0.50000000"
       fx="0.50000000"
       fy="0.50000000" />
  </defs>
  <path
     d="M 35.94447 32.164599 C 35.94447 34.392251 34.136589 36.200132 31.908939 36.200132 C 29.681287 36.200132 27.873309 34.392251 27.873309 32.164599 C 27.873309 29.936949 29.681287 28.128969 31.908939 28.128969 C 34.136589 28.128969 35.94447 29.936949 35.94447 32.164599 z M 57.554448 31.774005 C 57.554448 46.074039 45.948547 57.679846 31.64851 57.679846 C 17.348474 57.679846 5.7426567 46.074039 5.7426567 31.774005 C 5.7426567 17.473969 17.348474 5.8680673 31.64851 5.8680673 C 45.948547 5.8680673 57.554448 17.473969 57.554448 31.774005 z "
     style="font-size:12;opacity:0.302675;fill-rule:evenodd;stroke-width:12.5;"
     id="path782" />
  <path
     d="M 33.735236 29.403006 C 33.735236 31.630656 31.927353 33.438539 29.699701 33.438539 C 27.472052 33.438539 25.664073 31.630656 25.664073 29.403006 C 25.664073 27.175356 27.472052 25.367376 29.699701 25.367376 C 31.927353 25.367376 33.735236 27.175356 33.735236 29.403006 z M 55.345213 29.01241 C 55.345213 43.312449 43.739311 54.918251 29.439275 54.918251 C 15.139237 54.918251 3.533422 43.312449 3.533422 29.01241 C 3.533422 14.712374 15.139237 3.1065219 29.439275 3.1065219 C 43.739311 3.1065219 55.345213 14.712374 55.345213 29.01241 z "
     style="font-size:12;fill:url(#linearGradient638);fill-rule:evenodd;stroke:#261e2e;stroke-width:1.875;stroke-dasharray:none;"
     id="path773" />
  <path
     d="M 9.1311506 42.420963 C 4.3548052 37.125542 1.3223546 15.1461 19.024832 7.01189 C 33.388063 0.46956055 47.441628 10.953941 48.44564 13.911412 C 48.741736 14.745133 36.463295 4.3641214 21.758706 11.958728 C 0.18059292 23.005585 9.7186896 43.090594 9.1311506 42.420963 z "
     style="font-size:12;opacity:0.7;fill:url(#linearGradient1042);fill-rule:evenodd;stroke:none;stroke-width:1pt;stroke-opacity:1;"
     id="path774"
     sodipodi:nodetypes="ccccc" />
  <path
     d="M 39.292248 29.586964 C 39.292248 34.662371 34.550057 38.960272 29.661613 39.125621 C 24.218099 39.125621 19.66597 34.570392 19.846826 29.494986 C 20.034175 24.235716 24.218099 19.588122 29.661613 19.588122 C 34.736924 19.588122 39.482893 24.33099 39.292248 29.586964 z M 36.729441 29.533074 C 36.729441 33.485352 33.521815 36.69298 29.569538 36.69298 C 25.617259 36.69298 22.409632 33.485352 22.409632 29.533074 C 22.409632 25.580798 25.617259 22.373169 29.569538 22.373169 C 33.521815 22.373169 36.729441 25.580798 36.729441 29.533074 z "
     style="font-size:12;opacity:0.100892;fill:#3f003f;fill-rule:evenodd;stroke-width:1pt;"
     id="path779" />
  <path
     d="M 30.871293 24.651318 C 30.866157 25.020299 33.093031 26.471799 33.40987 26.278538 C 38.359666 22.241647 48.062897 16.194213 48.185309 12.088894 C 48.269921 9.1879292 33.6797 3.273004 33.214573 4.0176837 C 31.210326 7.5070045 30.982462 18.078177 30.871293 24.651318 z "
     style="font-size:12;fill:url(#linearGradient1044);fill-rule:evenodd;stroke-width:1pt;"
     id="path780" />
  <path
     d="M 29.165374 33.931579 C 29.132225 33.564052 26.767042 32.351077 26.471916 32.576127 C 21.966989 37.104025 12.942405 44.124169 13.245869 48.219987 C 13.462199 51.114169 28.586652 55.485729 28.97211 54.69698 C 30.60408 51.018797 29.735758 40.480878 29.165374 33.931579 z "
     style="font-size:12;fill:url(#linearGradient899);fill-rule:evenodd;stroke-width:1pt;"
     id="path781" />
  <path
     style="font-size:12;opacity:0.99;fill-opacity:0.3;fill-rule:evenodd;stroke:none;stroke-width:1pt;fill:#000000;"
     d="M 35.627463 50.584171 C 36.196977 53.381228 36.733529 55.429327 38.426764 57.2007 C 41.059721 58.907246 46.166044 60.036158 48.351557 57.709663 C 50.613877 55.826787 50.493858 55.193333 51.150858 52.874508 C 51.935921 50.103696 51.953823 46.296541 51.150857 43.458678 C 50.238619 38.181349 49.0122 36.011781 48.606039 31.49803 C 48.050687 28.154401 48.468524 25.453656 48.606038 22.336683 C 48.723006 19.6854 49.332268 17.323895 49.878449 14.702226 C 50.180541 13.252185 55.319519 -2.9539755 49.878448 8.0856967 C 49.477648 8.9388017 46.885372 13.632077 44.534329 17.756008 C 41.43924 23.631442 40.06799 26.099914 39.699174 27.171838 C 37.383512 33.647573 37.408837 33.788367 36.899873 35.56974 C 36.680959 37.102135 34.456842 44.580409 35.627463 50.584171 z "
     id="path635" />
  <path
     style="fill:url(#linearGradient641);fill-rule:evenodd;stroke:black;stroke-opacity:1;stroke-width:1pt;stroke-linejoin:miter;stroke-linecap:butt;fill-opacity:1;"
     d="M 33.846089 49.820726 C 34.415603 52.617783 34.952155 54.665882 36.64539 56.437255 C 39.278347 58.143801 43.935857 58.74882 46.570183 56.946218 C 48.578021 55.317824 48.827385 53.884125 49.369484 52.111063 C 49.901404 49.538953 50.172449 45.533096 49.369483 42.695233 C 48.353196 37.43695 47.230826 35.248336 46.824665 30.734585 C 46.269313 27.390956 46.68715 24.690211 46.824664 21.573238 C 46.941632 18.921955 47.550894 16.56045 48.097075 13.938781 C 48.399167 12.48874 53.538145 -3.7174211 48.097074 7.3222511 C 47.696274 8.1753561 45.103998 12.868632 42.752955 16.992563 C 39.657866 22.867997 38.286616 25.336469 37.9178 26.408393 C 35.602138 32.884128 35.627463 33.024922 35.118499 34.806295 C 34.899585 36.33869 32.675468 43.816964 33.846089 49.820726 z "
     id="path633"
     sodipodi:nodetypes="cssssssssssss" />
</svg>
