<?xml version="1.0" encoding="UTF-8" standalone="no"?>
<!DOCTYPE svg PUBLIC "-//W3C//DTD SVG 20010904//EN"
"http://www.w3.org/TR/2001/REC-SVG-20010904/DTD/svg10.dtd">
<!-- Created with Inkscape (http://www.inkscape.org/) -->
<svg
   id="svg1"
   sodipodi:version="0.32"
   inkscape:version="0.37"
   width="48pt"
   height="48pt"
   sodipodi:docbase="/home/tom"
   sodipodi:docname="kaffeine-pause.svg"
   xmlns="http://www.w3.org/2000/svg"
   xmlns:inkscape="http://www.inkscape.org/namespaces/inkscape"
   xmlns:sodipodi="http://sodipodi.sourceforge.net/DTD/sodipodi-0.dtd"
   xmlns:xlink="http://www.w3.org/1999/xlink">
  <defs
     id="defs3">
    <linearGradient
       id="linearGradient642">
      <stop
         style="stop-color:#d9cce6;stop-opacity:1;"
         offset="0.00000000"
         id="stop643" />
      <stop
         style="stop-color:#73667f;stop-opacity:1;"
         offset="1.00000000"
         id="stop644" />
    </linearGradient>
    <linearGradient
       id="linearGradient866">
      <stop
         style="stop-color:#ffffff;stop-opacity:1;"
         offset="0.00000000"
         id="stop867" />
      <stop
         style="stop-color:#d9cce6;stop-opacity:1;"
         offset="1.00000000"
         id="stop868" />
    </linearGradient>
    <linearGradient
       id="linearGradient584">
      <stop
         style="stop-color:#ffffff;stop-opacity:1;"
         offset="0.00000000"
         id="stop585" />
      <stop
         style="stop-color:#ffffff;stop-opacity:0;"
         offset="1.00000000"
         id="stop586" />
    </linearGradient>
    <linearGradient
       xlink:href="#linearGradient642"
       id="linearGradient586"
       x1="-0.00000000"
       y1="-0.00000000"
       x2="1.00000000"
       y2="-0.00000000" />
    <linearGradient
       xlink:href="#linearGradient866"
       id="linearGradient587"
       x1="-0.00000000"
       y1="-0.00000000"
       x2="1.00000000"
       y2="-0.00000000" />
    <linearGradient
       xlink:href="#linearGradient866"
       id="linearGradient638"
       x1="-0.00000000"
       y1="-0.00000000"
       x2="1.00000000"
       y2="-0.00000000" />
    <radialGradient
       xlink:href="#linearGradient642"
       id="radialGradient639" />
    <linearGradient
       xlink:href="#linearGradient866"
       id="linearGradient640"
       x1="-0.00000000"
       y1="-0.00000000"
       x2="1.00000000"
       y2="-0.00000000" />
    <linearGradient
       xlink:href="#linearGradient642"
       id="linearGradient641"
       x1="0.00000000"
       y1="0.00000000"
       x2="1.00000000"
       y2="0.00000000" />
    <linearGradient
       xlink:href="#linearGradient584"
       id="linearGradient645"
       x1="0.01492537"
       y1="0.00781250"
       x2="0.97761196"
       y2="0.97656250" />
    <linearGradient
       xlink:href="#linearGradient584"
       id="linearGradient822"
       x1="-0.00000000"
       y1="-0.00000000"
       x2="0.99270076"
       y2="1.00000000" />
    <linearGradient
       xlink:href="#linearGradient584"
       id="linearGradient823"
       x1="-0.00000000"
       y1="-0.00000000"
       x2="0.98540145"
       y2="1.00000000" />
    <linearGradient
       xlink:href="#linearGradient584"
       id="linearGradient824"
       x1="0.00000000"
       y1="-0.00000000"
       x2="0.98905110"
       y2="0.96551722" />
    <linearGradient
       xlink:href="#linearGradient584"
       id="linearGradient825"
       x1="0.00000000"
       y1="0.01587302"
       x2="0.99635035"
       y2="0.99206346" />
    <linearGradient
       xlink:href="#linearGradient642"
       id="linearGradient826"
       x1="-0.00423729"
       y1="0.00781250"
       x2="0.98728812"
       y2="0.97656250" />
    <linearGradient
       xlink:href="#linearGradient642"
       id="linearGradient827"
       x1="-0.00000000"
       y1="0.00000000"
       x2="0.96666664"
       y2="0.97656250" />
    <linearGradient
       xlink:href="#linearGradient642"
       id="linearGradient828"
       x1="-0.00000000"
       y1="-0.00000000"
       x2="0.99583334"
       y2="1.02343750" />
  </defs>
  <sodipodi:namedview
     id="base"
     pagecolor="#ffffff"
     bordercolor="#666666"
     borderopacity="1.0"
     inkscape:pageopacity="0.0"
     inkscape:pageshadow="2"
     inkscape:zoom="6.98058572"
     inkscape:cx="23.3945524"
     inkscape:cy="18.0776122"
     inkscape:window-width="1018"
     inkscape:window-height="714"
     inkscape:window-x="0"
     inkscape:window-y="28" />
  <g
     transform="matrix(-0.607092,0.000000,0.000000,0.614198,60.91891,22.71075)"
     style="font-size:12;opacity:0.3;stroke:#000000;"
     id="g663">
    <ellipse
       cx="47.59568024"
       cy="41.55554962"
       rx="28.88131142"
       ry="28.88131142"
       transform="matrix(0.917566,0.000000,0.000000,0.917566,-11.48724,-5.833475)"
       style="fill-rule:evenodd;stroke-width:2.05418;"
       id="ellipse664" />
    <ellipse
       cx="42.10733032"
       cy="34.26774216"
       rx="21.77344894"
       ry="21.77344894"
       transform="matrix(0.934849,0.000000,0.000000,0.934849,-7.035911,0.205833)"
       style="fill-rule:evenodd;stroke-width:1pt;"
       id="ellipse665" />
  </g>
  <path
     d="M 2.6851445 42.966991 C 1.8321817 40.023137 12.618514 36.225796 13.808353 31.905185 C 14.977874 27.65841 7.7726949 21.043871 9.7634792 17.264751 C 12.828646 11.446239 22.156673 5.1176681 28.976438 3.1120994 C 30.737285 2.5446767 50.293513 9.2458584 50.539032 10.615436 C 50.717893 14.177157 36.018246 19.02761 33.011502 24.442673 C 31.411649 27.323901 38.050101 32.33946 36.719152 35.504309 C 34.173838 41.557562 26.823795 49.394523 21.382719 52.096889 C 20.262339 52.737092 3.0439539 44.042612 2.6851445 42.966991 z M 39.323065 14.162794 C 39.223124 14.554238 40.657779 15.329068 41.272929 15.21739 C 42.146831 15.058851 43.640259 13.939961 43.790481 13.35231 C 43.88893 12.967263 42.592844 12.195493 42.019122 12.29964 C 41.103881 12.465627 39.471707 13.581714 39.323065 14.162794 z M 33.973604 17.468399 C 33.841254 17.850121 35.206012 18.742326 35.828348 18.682501 C 36.712494 18.597624 38.294306 17.607581 38.493138 17.034559 C 38.623471 16.659142 37.396492 15.781653 36.816027 15.837363 C 35.8901 15.92618 34.170336 16.901858 33.973604 17.468399 z M 28.726103 21.766148 C 28.708319 22.169769 30.27121 22.634614 30.850454 22.399435 C 31.67346 22.065361 32.906304 20.664513 32.933021 20.058558 C 32.950627 19.661593 31.524027 19.171433 30.98368 19.390675 C 30.121783 19.740513 28.752643 21.167024 28.726103 21.766148 z M 29.209342 29.021067 C 29.567505 29.2079 30.650043 27.98863 30.682102 27.364282 C 30.727823 26.477242 29.980319 24.767462 29.442598 24.486819 C 29.090396 24.302876 28.042453 25.387872 28.012494 25.970264 C 27.964673 26.899258 28.677664 28.743403 29.209342 29.021067 z M 32.03775 34.262001 C 32.395911 34.448832 33.478455 33.229564 33.51051 32.605214 C 33.556231 31.718177 32.808728 30.008397 32.271008 29.727754 C 31.918802 29.543812 30.870859 30.628806 30.840906 31.2112 C 30.793081 32.14019 31.506072 33.984337 32.03775 34.262001 z M 29.189986 39.170436 C 29.229053 39.57257 30.841692 39.813444 31.382218 39.499253 C 32.15022 39.053066 33.174161 37.493066 33.115563 36.889302 C 33.077284 36.493825 31.59603 36.208628 31.091765 36.501619 C 30.287503 36.969007 29.132177 38.573415 29.189986 39.170436 z M 25.038162 43.484041 C 25.000495 43.886347 26.5386 44.427576 27.128701 44.221211 C 27.967212 43.928131 29.267416 42.589734 29.324089 41.985706 C 29.361136 41.590144 27.96047 41.030176 27.409957 41.2227 C 26.531855 41.529617 25.094133 42.886846 25.038162 43.484041 z M 19.971272 47.599254 C 19.875625 47.991835 21.318952 48.750553 21.932788 48.631951 C 22.804934 48.463691 24.285577 47.328069 24.429228 46.738671 C 24.523302 46.352657 23.218719 45.595428 22.646044 45.705967 C 21.732731 45.88229 20.113344 47.01651 19.971272 47.599254 z M 25.023098 6.9462668 C 24.880495 7.3242646 26.221256 8.2524453 26.844906 8.209228 C 27.731067 8.1479995 29.338452 7.2001138 29.552351 6.6324723 C 29.692495 6.2607497 28.48952 5.3509154 27.907564 5.3912229 C 26.979534 5.455429 25.23463 6.3850418 25.023098 6.9462668 z M 20.063415 10.417655 C 20.019535 10.819263 21.549316 11.384047 22.14248 11.186794 C 22.985462 10.906678 24.305897 9.5881662 24.371679 8.9851005 C 24.414776 8.5901523 23.022952 8.0088705 22.469459 8.1928981 C 21.586716 8.4863131 20.128409 9.8214232 20.063415 10.417655 z M 15.155243 14.493975 C 15.111361 14.895579 16.641141 15.460371 17.234307 15.263112 C 18.077288 14.982997 19.397724 13.664486 19.463504 13.06142 C 19.506601 12.666474 18.114775 12.085128 17.561286 12.269158 C 16.678543 12.562589 15.220236 13.897743 15.155243 14.493975 z M 12.571302 20.233914 C 12.717406 20.610561 14.3353 20.406997 14.770893 19.958616 C 15.389986 19.321567 15.954424 17.543025 15.735013 16.977452 C 15.59127 16.607027 14.08812 16.73237 13.681697 17.150704 C 13.033434 17.817888 12.354253 19.674731 12.571302 20.233914 z M 14.981112 26.877359 C 15.348381 27.045623 16.366718 25.772045 16.366542 25.146909 C 16.366455 24.258556 15.531622 22.589771 14.980149 22.337155 C 14.618835 22.171697 13.628353 23.309244 13.628441 23.892513 C 13.628616 24.822731 14.43577 26.627638 14.981112 26.877359 z M 16.430049 32.852657 C 16.736352 33.11613 18.067653 32.174527 18.24073 31.573827 C 18.486776 30.72025 18.147009 29.120831 17.687154 28.725272 C 17.385842 28.466175 16.11892 29.049447 15.957403 29.609853 C 15.699799 30.503723 15.975273 32.461564 16.430049 32.852657 z M 12.417494 36.675228 C 12.321843 37.067809 13.76517 37.826522 14.379011 37.707928 C 15.251156 37.539665 16.731798 36.404044 16.875448 35.814644 C 16.969522 35.428628 15.664937 34.671401 15.092266 34.781941 C 14.178951 34.958264 12.559565 36.092481 12.417494 36.675228 z M 7.5094053 40.585123 C 7.4137553 40.977708 8.8570838 41.736421 9.4709229 41.617824 C 10.342981 41.449558 11.823627 40.313943 11.967273 39.724537 C 12.061347 39.338526 10.756762 38.581296 10.184092 38.691839 C 9.2708645 38.868159 7.6514774 40.002378 7.5094053 40.585123 z "
     style="font-size:12;opacity:0.302675;fill-rule:evenodd;stroke-width:1.25;"
     id="path738" />
  <path
     d="M 0.98188631 41.728274 C 0.12892212 38.784424 10.915304 34.987082 12.105143 30.666469 C 13.274659 26.419696 6.0694408 19.805156 8.0602667 16.026032 C 11.125434 10.207523 20.453463 3.8789337 27.273227 1.8733692 C 29.034073 1.3059424 48.590303 8.0071448 48.835821 9.3767221 C 49.014682 12.938444 34.315037 17.788891 31.308294 23.203958 C 29.708438 26.085184 36.346887 31.100745 35.015939 34.265591 C 32.470626 40.318846 25.120584 48.155806 19.679508 50.858171 C 18.559128 51.498375 1.3406985 42.803897 0.98188631 41.728274 z M 37.619852 12.924077 C 37.519912 13.315525 38.954569 14.090354 39.56972 13.978678 C 40.443617 13.820137 41.93705 12.701245 42.087266 12.113596 C 42.185719 11.728544 40.889633 10.956781 40.315907 11.060925 C 39.40067 11.226909 37.768493 12.342997 37.619852 12.924077 z M 32.270393 16.229682 C 32.138045 16.611406 33.502802 17.50361 34.125137 17.443783 C 35.009283 17.35891 36.591094 16.368864 36.789927 15.795844 C 36.920261 15.420429 35.693282 14.54294 35.112816 14.598647 C 34.186889 14.687465 32.467125 15.663143 32.270393 16.229682 z M 27.022892 20.527436 C 27.005111 20.931055 28.567998 21.395901 29.147237 21.160717 C 29.970247 20.826643 31.203093 19.4258 31.22981 18.819842 C 31.247415 18.42288 29.820817 17.932719 29.280467 18.151962 C 28.41857 18.5018 27.049429 19.928309 27.022892 20.527436 z M 27.506132 27.782353 C 27.864294 27.969184 28.946831 26.749916 28.97889 26.125563 C 29.024612 25.238527 28.277109 23.528749 27.739388 23.248106 C 27.387183 23.064164 26.339242 24.149155 26.309284 24.731552 C 26.261462 25.660542 26.974454 27.504689 27.506132 27.782353 z M 30.334538 33.023285 C 30.692701 33.210117 31.775238 31.990847 31.8073 31.366496 C 31.853021 30.479461 31.105518 28.769681 30.567794 28.489036 C 30.215591 28.305097 29.167651 29.390089 29.137693 29.972484 C 29.089868 30.901476 29.802861 32.745621 30.334538 33.023285 z M 27.486774 37.931723 C 27.525837 38.333852 29.138481 38.574729 29.679008 38.26054 C 30.447009 37.814351 31.470946 36.254352 31.41235 35.650584 C 31.374073 35.255111 29.892818 34.969913 29.388554 35.262907 C 28.58429 35.730292 27.428963 37.3347 27.486774 37.931723 z M 23.334953 42.245327 C 23.297285 42.647635 24.835387 43.188863 25.425491 42.982494 C 26.263999 42.689416 27.564205 41.351021 27.620878 40.746993 C 27.657928 40.351428 26.257257 39.791458 25.706746 39.983984 C 24.828644 40.290904 23.390923 41.648131 23.334953 42.245327 z M 18.268061 46.360539 C 18.172411 46.753122 19.615738 47.511838 20.229577 47.393239 C 21.101723 47.224975 22.582366 46.089355 22.726017 45.499952 C 22.820088 45.113941 21.515505 44.356715 20.942833 44.467254 C 20.029519 44.643574 18.410133 45.777792 18.268061 46.360539 z M 23.319886 5.7075352 C 23.177287 6.085533 24.518043 7.0137123 25.141693 6.9704937 C 26.027856 6.9092679 27.635243 5.9613808 27.84914 5.3937393 C 27.989284 5.0220194 26.786306 4.1121824 26.204352 4.1524927 C 25.276321 4.2166974 23.531416 5.1463129 23.319886 5.7075352 z M 18.360207 9.1789391 C 18.316322 9.5805462 19.846104 10.145333 20.439272 9.9480766 C 21.282251 9.6679641 22.602687 8.3494775 22.668467 7.7464118 C 22.711565 7.3514636 21.319738 6.7701375 20.76625 6.9541665 C 19.883506 7.2475787 18.4252 8.5827054 18.360207 9.1789391 z M 13.452032 13.25526 C 13.408147 13.656866 14.93793 14.221654 15.531097 14.024399 C 16.374072 13.744281 17.694512 12.425772 17.760295 11.822707 C 17.803387 11.427757 16.411564 10.846414 15.858076 11.030443 C 14.97533 11.323872 13.517025 12.659028 13.452032 13.25526 z M 10.868091 18.995202 C 11.014192 19.371843 12.63209 19.168278 13.067681 18.719902 C 13.686775 18.08285 14.251215 16.30431 14.031797 15.738732 C 13.888061 15.368312 12.384909 15.493652 11.978484 15.911992 C 11.330223 16.579171 10.651038 18.436019 10.868091 18.995202 z M 13.277901 25.638646 C 13.64517 25.806908 14.663509 24.53333 14.663331 23.908192 C 14.663245 23.019844 13.828412 21.351053 13.27694 21.098443 C 12.915621 20.932979 11.925143 22.070529 11.92523 22.653799 C 11.925406 23.584016 12.732556 25.388923 13.277901 25.638646 z M 14.726833 31.613942 C 15.033142 31.877417 16.364444 30.935812 16.53752 30.33511 C 16.783565 29.481533 16.4438 27.882119 15.983945 27.486557 C 15.682634 27.227463 14.415712 27.810731 14.254192 28.371141 C 13.996587 29.265008 14.27206 31.222848 14.726833 31.613942 z M 10.714279 35.436511 C 10.61863 35.829096 12.061959 36.587811 12.675801 36.469213 C 13.547945 36.30095 15.028587 35.165329 15.172238 34.575927 C 15.26631 34.189912 13.961727 33.432686 13.389053 33.543226 C 12.475739 33.719548 10.856352 34.853766 10.714279 35.436511 z M 5.8061512 39.346409 C 5.7105012 39.73899 7.1538283 40.497709 7.7676675 40.379108 C 8.6397717 40.210848 10.120412 39.075225 10.264062 38.485824 C 10.358135 38.09981 9.0535524 37.342584 8.4808794 37.453122 C 7.5676077 37.629447 5.9482233 38.763665 5.8061512 39.346409 z "
     style="font-size:12;fill:#261e2e;fill-rule:evenodd;stroke:#261e2e;stroke-width:0.0865592;"
     id="path737" />
  <path
     d="M 9.8841816 41.426787 C 9.9553014 40.020158 16.760705 34.835899 18.108469 34.714407 C 19.494338 34.573389 25.253111 35.01301 25.356467 36.523607 C 25.641141 37.906499 17.798746 44.778292 16.298307 45.151253 C 14.848498 45.678029 9.808936 42.742495 9.8841816 41.426787 z "
     style="font-size:12;fill:url(#linearGradient828);fill-rule:evenodd;stroke:#261933;stroke-width:1.09065;"
     id="path648" />
  <path
     d="M 19.25933 30.53105 C 20.363241 31.292745 26.186747 32.732046 27.049871 32.102788 C 27.984291 31.291605 24.110395 27.145652 23.997138 21.328544 C 23.969461 19.878645 16.899273 19.979813 16.068208 21.111491 C 15.639011 21.766762 18.296966 29.739228 19.25933 30.53105 z "
     style="font-size:12;fill:url(#linearGradient827);fill-rule:evenodd;stroke:#261933;stroke-width:1.09065;"
     id="path649" />
  <path
     d="M 17.695302 15.573187 C 17.822221 16.611932 25.221664 18.093973 26.601577 17.733712 C 28.168148 17.278236 37.035093 11.773569 36.890392 10.604489 C 36.730361 9.1214804 29.250072 7.1523691 27.568936 7.3924567 C 25.865024 7.6123988 17.518981 14.303816 17.695302 15.573187 z "
     style="font-size:12;fill:url(#linearGradient826);fill-rule:evenodd;stroke:#261933;stroke-width:1.09489;"
     id="path650" />
  <path
     d="M 11.892646 40.605794 C 11.892646 40.387078 15.477141 36.818261 17.598954 35.969504 C 19.043508 35.391664 22.591915 36.119372 22.591915 36.326087 C 22.591915 36.535518 19.143886 36.599809 17.598954 37.217767 C 15.577521 38.026322 11.892646 40.803224 11.892646 40.605794 z "
     style="font-size:12;opacity:0.699936;fill:url(#linearGradient825);fill-rule:evenodd;stroke:none;stroke-width:0.0632452pt;"
     id="path656" />
  <path
     d="M 17.708441 23.617302 C 17.404324 23.992717 16.899888 21.833245 17.351767 21.655699 C 18.564207 21.179375 22.642017 21.329244 22.701402 21.655699 C 22.760963 21.983111 19.186807 21.834119 17.708441 23.617302 z "
     style="font-size:12;opacity:0.7;fill:url(#linearGradient824);fill-rule:evenodd;stroke:none;stroke-width:0.0632452pt;"
     id="path657" />
  <path
     d="M 20.460205 14.413303 C 20.491828 14.096747 25.068294 9.4981224 27.771355 8.7069975 C 29.942393 8.0715795 35.112113 9.8373611 35.082509 10.133597 C 35.052729 10.431757 29.929957 9.8062691 27.593023 10.490267 C 25.055854 11.232865 20.432437 14.691143 20.460205 14.413303 z "
     style="font-size:12;opacity:0.699936;fill:url(#linearGradient823);fill-rule:evenodd;stroke:none;stroke-width:0.0632452pt;"
     id="path658" />
  <path
     d="M 9.1873896 17.448428 C 9.1266901 14.766296 19.565025 6.2932461 26.127883 3.8960336 C 29.491562 2.6673831 38.90578 6.2030458 38.967093 6.5708505 C 39.02464 6.9163394 29.800233 4.8247822 26.484555 6.0358882 C 19.873694 8.4506285 9.1707467 17.802207 9.1873896 17.448428 z "
     style="font-size:12;opacity:0.7;fill:url(#linearGradient822);fill-rule:evenodd;stroke:none;stroke-width:0.0632452pt;"
     id="path655" />
  <g
     transform="matrix(0.603324,0.000000,0.000000,0.610386,22.87008,22.93486)"
     style="font-size:12;opacity:0.3;stroke:#000000;"
     id="g677">
    <ellipse
       cx="47.59568024"
       cy="41.55554962"
       rx="28.88131142"
       ry="28.88131142"
       transform="matrix(0.917566,0.000000,0.000000,0.917566,-11.48724,-5.833475)"
       style="fill-rule:evenodd;stroke-width:2.05418;"
       id="path675" />
    <ellipse
       cx="42.10733032"
       cy="34.26774216"
       rx="21.77344894"
       ry="21.77344894"
       transform="matrix(0.934849,0.000000,0.000000,0.934849,-7.035911,0.205833)"
       style="fill-rule:evenodd;stroke-width:1pt;"
       id="path676" />
  </g>
  <ellipse
     cx="47.59568024"
     cy="41.55554962"
     rx="28.88131142"
     ry="28.88131142"
     transform="matrix(-0.557046,0.000000,0.000000,0.563566,68.51365,18.08084)"
     style="font-size:12;fill:url(#linearGradient641);fill-opacity:0.75;fill-rule:evenodd;stroke:#261933;stroke-width:2.04345;stroke-dasharray:none;"
     id="ellipse666" />
  <rect
     style="font-size:12;fill:url(#linearGradient638);fill-opacity:0.75;fill-rule:evenodd;stroke:#261933;stroke-width:0.614198pt;"
     id="rect596"
     width="4.61447382"
     height="22.52948952"
     x="-39.80085991"
     y="30.72211792"
     ry="1.62863767"
     transform="scale(-1.000000,1.000000)" />
  <rect
     style="font-size:12;fill:url(#linearGradient640);fill-opacity:0.75;fill-rule:evenodd;stroke:#261933;stroke-width:0.614198pt;"
     id="rect597"
     width="4.61447382"
     height="22.52948952"
     x="-49.01383064"
     y="30.72211792"
     ry="1.62863767"
     transform="scale(-1.000000,1.000000)" />
</svg>
