<?xml version="1.0" encoding="UTF-8" standalone="no"?>
<!DOCTYPE svg PUBLIC "-//W3C//DTD SVG 20010904//EN"
"http://www.w3.org/TR/2001/REC-SVG-20010904/DTD/svg10.dtd">
<!-- Created with Inkscape (http://www.inkscape.org/) -->
<svg
   id="svg1"
   sodipodi:version="0.32"
   inkscape:version="0.37"
   width="48pt"
   height="48pt"
   sodipodi:docbase="/home/tom"
   sodipodi:docname="kaffeine.svg"
   xmlns="http://www.w3.org/2000/svg"
   xmlns:inkscape="http://www.inkscape.org/namespaces/inkscape"
   xmlns:sodipodi="http://sodipodi.sourceforge.net/DTD/sodipodi-0.dtd"
   xmlns:xlink="http://www.w3.org/1999/xlink">
  <defs
     id="defs3">
    <linearGradient
       id="linearGradient589">
      <stop
         style="stop-color:#d9cce6;stop-opacity:1;"
         offset="0.00000000"
         id="stop590" />
      <stop
         style="stop-color:#73667f;stop-opacity:1;"
         offset="1.00000000"
         id="stop591" />
    </linearGradient>
    <linearGradient
       id="linearGradient866">
      <stop
         style="stop-color:#ffffff;stop-opacity:1;"
         offset="0.00000000"
         id="stop867" />
      <stop
         style="stop-color:#d9cce6;stop-opacity:1;"
         offset="1.00000000"
         id="stop868" />
    </linearGradient>
    <linearGradient
       id="linearGradient584">
      <stop
         style="stop-color:#ffffff;stop-opacity:1;"
         offset="0.00000000"
         id="stop585" />
      <stop
         style="stop-color:#ffffff;stop-opacity:0;"
         offset="1.00000000"
         id="stop586" />
    </linearGradient>
    <linearGradient
       xlink:href="#linearGradient584"
       id="linearGradient586"
       x1="-0.00000000"
       y1="-0.00000000"
       x2="1.00000000"
       y2="-0.00000000" />
    <linearGradient
       xlink:href="#linearGradient584"
       id="linearGradient587" />
    <linearGradient
       xlink:href="#linearGradient589"
       id="linearGradient588"
       x1="0.00000000"
       y1="0.00000000"
       x2="1.00000000"
       y2="0.00000000" />
    <linearGradient
       xlink:href="#linearGradient589"
       id="linearGradient593" />
    <linearGradient
       xlink:href="#linearGradient584"
       id="linearGradient597"
       x1="0.00000000"
       y1="0.00000000"
       x2="1.00000000"
       y2="0.00000000" />
    <linearGradient
       xlink:href="#linearGradient589"
       id="linearGradient790" />
    <linearGradient
       xlink:href="#linearGradient589"
       id="linearGradient791" />
    <linearGradient
       xlink:href="#linearGradient589"
       id="linearGradient792" />
    <linearGradient
       xlink:href="#linearGradient589"
       id="linearGradient793" />
    <linearGradient
       xlink:href="#linearGradient589"
       id="linearGradient794" />
    <linearGradient
       xlink:href="#linearGradient589"
       id="linearGradient795" />
  </defs>
  <sodipodi:namedview
     id="base"
     pagecolor="#ffffff"
     bordercolor="#666666"
     borderopacity="1.0"
     inkscape:pageopacity="0.0"
     inkscape:pageshadow="2"
     inkscape:zoom="2.82842712"
     inkscape:cx="27.1631678"
     inkscape:cy="31.4524195"
     inkscape:window-width="1018"
     inkscape:window-height="711"
     inkscape:window-x="0"
     inkscape:window-y="30" />
  <g
     id="g598"
     transform="matrix(1.320467,0.000000,0.000000,1.336773,-95.34723,-32.41017)">
    <path
       style="fill:url(#linearGradient593);fill-rule:evenodd;stroke:#261933;stroke-opacity:1;stroke-width:1pt;stroke-linejoin:miter;stroke-linecap:butt;fill-opacity:1.00;"
       d="M 108.18367 48.459017 C 108.29579 47.911932 108.84287 47.509834 109.24497 47.107736 C 109.6867 46.745268 110.78087 46.600281 111.80255 46.817762 C 112.73434 46.790698 112.94118 47.488569 113.29302 48.041454 C 114.30793 50.164066 113.43801 53.156603 112.71307 56.004152 C 112.25781 57.95278 109.12029 60.988813 105.47531 60.980114 C 105.87741 59.673296 106.2795 58.366477 106.6816 57.059659 C 107.75354 57.170816 109.18794 56.557037 109.24497 56.305726 C 109.59101 55.284049 109.71956 54.697334 109.84812 53.893138 C 110.31111 52.452931 110.48413 50.650258 110.14969 50.877404 C 109.57458 50.637692 109.14445 50.760448 108.64183 51.028191 C 108.39052 51.581075 108.1392 52.13396 107.88789 52.686844 C 107.93815 51.229239 108.13341 49.916622 108.18367 48.459017 z "
       id="path592"
       sodipodi:nodetypes="ccccccccccccc" />
    <path
       style="fill:url(#linearGradient588);fill-rule:evenodd;stroke:#261933;stroke-opacity:1;stroke-width:1pt;stroke-linejoin:miter;stroke-linecap:butt;fill-opacity:1.00;"
       d="M 86.400343 43.938398 C 91.095143 43.186894 95.789944 43.14997 100.24655 43.827628 C 102.56355 44.117462 104.64234 44.566093 105.84777 45.173519 C 107.07373 45.98583 107.7439 46.639345 107.77889 47.372258 C 108.09093 48.99688 108.08538 50.700899 108.00043 52.246123 C 107.43742 56.477576 105.66009 60.470835 104.06491 63.987708 C 103.35976 65.418547 101.87664 66.460407 100.97264 66.938472 C 96.689548 67.494257 93.088999 67.724442 88.726506 67.089259 C 87.016935 66.764438 85.06917 65.725036 84.07418 64.209247 C 81.808824 61.056055 80.258048 57.347079 79.421854 53.796898 C 79.030416 52.019032 79.035967 49.36779 79.200314 48.701494 C 79.451289 47.11741 80.337446 46.327304 81.858787 45.378403 C 83.372639 44.58081 84.727695 44.100809 86.400343 43.938398 z "
       id="path587"
       sodipodi:nodetypes="ccccccccccccc" />
    <path
       sodipodi:type="arc"
       style="font-size:12;fill:#261933;fill-opacity:0.92;fill-rule:evenodd;stroke:#261933;stroke-width:1pt;stroke-opacity:1;"
       id="path586"
       sodipodi:cx="90.49881744"
       sodipodi:cy="46.09840775"
       sodipodi:rx="13.73543930"
       sodipodi:ry="3.60001421"
       d="M 104.234257 46.098408 A 13.735439 3.600014 0 1 0 76.763378,46.098408 A 13.7354 3.60001 0 1 0 104.234 46.0984 L 90.498817 46.098408 z"
       transform="matrix(0.814516,0.000000,0.000000,0.630769,19.99839,18.79327)" />
    <path
       style="fill:url(#linearGradient597);fill-rule:evenodd;stroke:none;stroke-opacity:1;stroke-width:1pt;stroke-linejoin:miter;stroke-linecap:butt;fill-opacity:1;"
       d="M 86.178639 63.977476 C 87.87275 64.60356 88.020063 64.677217 87.835921 63.756505 C 87.651778 60.810227 87.246665 58.084919 85.847183 55.691068 C 85.184271 54.438899 85.736697 53.186732 86.510095 53.260388 C 92.476308 53.113074 98.111063 52.302848 103.74582 50.498253 C 98.405691 51.345308 92.513136 51.860906 86.731066 50.719223 C 85.18427 50.498253 83.306018 50.277281 81.869707 49.061942 C 81.501422 48.840971 81.464594 48.509515 81.096309 48.288544 C 81.133138 47.551974 80.396568 50.129968 80.543882 51.161165 C 80.838509 53.996957 82.017022 56.501295 83.085047 59.226602 C 83.74796 60.883884 84.742328 62.320194 86.178639 63.977476 z "
       id="path596"
       sodipodi:nodetypes="ccccccccccc" />
  </g>
  <path
     d="M 30.217222 28.137617 C 29.420144 28.687598 25.215287 29.726844 24.592069 29.272489 C 23.917372 28.686775 26.714515 25.693194 26.796292 21.492956 C 26.816276 20.446058 31.921299 20.519106 32.521369 21.336233 C 32.83127 21.809371 30.912096 27.565883 30.217222 28.137617 z "
     style="font-size:12;fill:url(#linearGradient827);fill-rule:evenodd;stroke:#261933;stroke-width:0.7875;stroke-dasharray:none;stroke-opacity:1;"
     id="path649" />
  <path
     d="M 31.346527 17.337306 C 31.254885 18.087331 25.912124 19.157437 24.915759 18.897311 C 23.784618 18.568435 17.382249 14.593795 17.48673 13.749662 C 17.60228 12.678857 23.003416 11.257062 24.217279 11.430417 C 25.447587 11.589226 31.473839 16.420758 31.346527 17.337306 z "
     style="font-size:12;fill:url(#linearGradient826);fill-rule:evenodd;stroke:#261933;stroke-width:0.790566;stroke-opacity:1;"
     id="path650" />
  <path
     d="M 31.33704 23.145552 C 31.556627 23.41662 31.920855 21.857375 31.594576 21.729178 C 30.719135 21.385249 27.774756 21.493462 27.731877 21.729178 C 27.688871 21.965586 30.269587 21.858006 31.33704 23.145552 z "
     style="font-size:12;opacity:0.7;fill:url(#linearGradient824);fill-rule:evenodd;stroke:none;stroke-width:0.0632452pt;"
     id="path657" />
  <path
     d="M 29.350131 16.499813 C 29.327298 16.271244 26.022865 12.950811 24.071122 12.37958 C 22.503526 11.920777 18.770735 13.195758 18.79211 13.409655 C 18.813613 13.624941 22.512506 13.173308 24.199887 13.667188 C 26.031847 14.20338 29.370181 16.700427 29.350131 16.499813 z "
     style="font-size:12;opacity:0.699936;fill:url(#linearGradient823);fill-rule:evenodd;stroke:none;stroke-width:0.0632452pt;"
     id="path658" />
  <path
     d="M 37.489657 18.691322 C 37.533485 16.754691 29.996495 10.636733 25.25779 8.905828 C 22.829048 8.018682 16.031521 10.571604 15.98725 10.837177 C 15.945698 11.086637 22.606173 9.57643 25.000255 10.450908 C 29.773621 12.194469 37.501674 18.946768 37.489657 18.691322 z "
     style="font-size:12;opacity:0.7;fill:url(#linearGradient822);fill-rule:evenodd;stroke:none;stroke-width:0.0632452pt;"
     id="path655" />
  <path
     d="M 30.217222 28.137617 C 29.420144 28.687598 25.215287 29.726844 24.592069 29.272489 C 23.917372 28.686775 26.714515 25.693194 26.796292 21.492956 C 26.816276 20.446058 31.921299 20.519106 32.521369 21.336233 C 32.83127 21.809371 30.912096 27.565883 30.217222 28.137617 z "
     style="font-size:12;fill:url(#linearGradient827);fill-rule:evenodd;stroke:#261933;stroke-width:0.7875;stroke-dasharray:none;stroke-opacity:1;"
     id="path969" />
  <path
     d="M 31.346527 17.337306 C 31.254885 18.087331 25.912124 19.157437 24.915759 18.897311 C 23.784618 18.568435 17.382249 14.593795 17.48673 13.749662 C 17.60228 12.678857 23.003416 11.257062 24.217279 11.430417 C 25.447587 11.589226 31.473839 16.420758 31.346527 17.337306 z "
     style="font-size:12;fill:url(#linearGradient826);fill-rule:evenodd;stroke:#261933;stroke-width:0.790566;stroke-opacity:1;"
     id="path970" />
  <path
     d="M 31.33704 23.145552 C 31.556627 23.41662 31.920855 21.857375 31.594576 21.729178 C 30.719135 21.385249 27.774756 21.493462 27.731877 21.729178 C 27.688871 21.965586 30.269587 21.858006 31.33704 23.145552 z "
     style="font-size:12;opacity:0.7;fill:url(#linearGradient824);fill-rule:evenodd;stroke:none;stroke-width:0.0632452pt;"
     id="path972" />
  <path
     d="M 29.350131 16.499813 C 29.327298 16.271244 26.022865 12.950811 24.071122 12.37958 C 22.503526 11.920777 18.770735 13.195758 18.79211 13.409655 C 18.813613 13.624941 22.512506 13.173308 24.199887 13.667188 C 26.031847 14.20338 29.370181 16.700427 29.350131 16.499813 z "
     style="font-size:12;opacity:0.699936;fill:url(#linearGradient823);fill-rule:evenodd;stroke:none;stroke-width:0.0632452pt;"
     id="path973" />
  <path
     d="M 37.489657 18.691322 C 37.533485 16.754691 29.996495 10.636733 25.25779 8.905828 C 22.829048 8.018682 16.031521 10.571604 15.98725 10.837177 C 15.945698 11.086637 22.606173 9.57643 25.000255 10.450908 C 29.773621 12.194469 37.501674 18.946768 37.489657 18.691322 z "
     style="font-size:12;opacity:0.7;fill:url(#linearGradient822);fill-rule:evenodd;stroke:none;stroke-width:0.0632452pt;"
     id="path974" />
  <path
     d="M 36.387168 31.679601 C 36.456231 31.963066 35.414077 32.510896 34.970853 32.425262 C 34.341122 32.303768 33.272026 31.483794 33.168303 31.058217 C 33.100378 30.779495 34.042351 30.232741 34.45585 30.312556 C 35.115307 30.439869 36.284584 31.25883 36.387168 31.679601 z M 33.489907 28.919518 C 33.268737 29.10976 32.307472 28.429875 32.182502 27.996139 C 32.004846 27.379814 32.250173 26.224959 32.582211 25.939344 C 32.799772 25.752265 33.714552 26.173413 33.831177 26.578057 C 34.017181 27.223473 33.818276 28.637129 33.489907 28.919518 z M 34.536107 24.605061 C 34.270921 24.726555 33.53563 23.806969 33.535759 23.355589 C 33.535821 22.714158 34.138611 21.509209 34.536801 21.326812 C 34.797691 21.207339 35.512865 22.028706 35.512802 22.449855 C 35.512675 23.121518 34.929873 24.424749 34.536107 24.605061 z M 36.276108 19.808169 C 36.170616 20.080122 35.002414 19.933138 34.687896 19.609389 C 34.24088 19.149406 33.833327 17.865213 33.991757 17.456838 C 34.095542 17.189376 35.180891 17.279878 35.47435 17.58194 C 35.942426 18.063676 36.432831 19.404411 36.276108 19.808169 z M 34.410376 15.663649 C 34.442063 15.953628 33.337485 16.361433 32.909189 16.219005 C 32.30052 16.016746 31.347097 15.064718 31.299599 14.629275 C 31.268484 14.344102 32.273449 13.924344 32.673094 14.057222 C 33.31048 14.269092 34.363448 15.23314 34.410376 15.663649 z M 30.866433 12.720345 C 30.89812 13.010325 29.793542 13.418129 29.365246 13.2757 C 28.756574 13.073445 27.803154 12.121433 27.755658 11.68599 C 27.724539 11.400818 28.729506 10.981072 29.129152 11.11395 C 29.766536 11.325808 30.819505 12.289835 30.866433 12.720345 z M 27.285301 10.213821 C 27.388265 10.486754 26.420173 11.156945 25.969867 11.125739 C 25.330014 11.081531 24.169402 10.39711 24.014958 9.987245 C 23.913767 9.718845 24.782376 9.061898 25.202575 9.091004 C 25.872659 9.137363 27.132566 9.808591 27.285301 10.213821 z M 24.276604 33.481266 C 24.248398 33.771623 23.08399 33.945548 22.693703 33.718688 C 22.139169 33.396518 21.399836 32.270122 21.442145 31.834172 C 21.469783 31.548621 22.539322 31.342694 22.903425 31.55425 C 23.484143 31.891725 24.318346 33.050186 24.276604 33.481266 z M 22.220378 29.937133 C 21.961767 30.072035 21.180122 29.191662 21.156972 28.74085 C 21.123959 28.100367 21.663693 26.865822 22.051956 26.663183 C 22.306264 26.53037 23.062928 27.313787 23.084559 27.734305 C 23.119091 28.405083 22.604275 29.736646 22.220378 29.937133 z M 24.262626 26.152923 C 24.004016 26.287824 23.222371 25.407453 23.199223 24.956639 C 23.166209 24.316156 23.705943 23.081612 24.094204 22.878974 C 24.348513 22.746159 25.105178 23.529576 25.126809 23.950095 C 25.161339 24.620871 24.646524 25.952436 24.262626 26.152923 z M 24.611549 20.914517 C 24.624388 21.20595 23.495907 21.541591 23.077668 21.371777 C 22.483414 21.130559 21.593239 20.119082 21.573948 19.68155 C 21.561236 19.394924 22.59131 19.041004 22.981469 19.199308 C 23.603801 19.451908 24.592388 20.481918 24.611549 20.914517 z M 20.822596 17.811328 C 20.918158 18.086951 19.932736 18.731166 19.48338 18.687968 C 18.844983 18.626686 17.702838 17.911824 17.559271 17.498075 C 17.465163 17.227007 18.351102 16.593417 18.770227 16.63364 C 19.438792 16.697771 20.680546 17.402259 20.822596 17.811328 z M 16.960024 15.424518 C 17.032186 15.707163 15.996293 16.266628 15.552124 16.185992 C 14.921127 16.071518 13.842795 15.263623 13.734332 14.839311 C 13.663244 14.561285 14.599082 14.004034 15.01334 14.079231 C 15.674186 14.19908 16.852698 15.00495 16.960024 15.424518 z M 38.829284 33.239455 C 39.445174 31.113851 36.242018 31.355091 35.382896 28.235396 C 34.538448 25.169018 39.740969 20.392995 38.303495 17.664282 C 36.090294 13.463033 29.354999 8.893481 24.430795 7.445365 C 23.159378 7.035655 9.03882 11.874252 8.861544 12.863154 C 8.732398 15.434892 19.346263 18.937153 21.517279 22.847097 C 22.672453 24.927484 17.879167 28.548965 18.840177 30.834139 C 20.678018 35.204886 23.002002 32.079964 26.930726 34.031204 C 27.739695 34.493463 38.570204 34.016108 38.829284 33.239455 z "
     style="font-size:12;fill:#261e2e;fill-rule:evenodd;stroke:#261e2e;stroke-width:0.0625;stroke-dasharray:none;stroke-opacity:1;"
     id="path976"
     sodipodi:nodetypes="cccccccccccccccccccccccccccccccccccccccccccccccccccccccccccccccccccccccccc" />
  <path
     d="M 30.217222 28.137617 C 29.420144 28.687598 25.215287 29.726844 24.592069 29.272489 C 23.917372 28.686775 26.714515 25.693194 26.796292 21.492956 C 26.816276 20.446058 31.921299 20.519106 32.521369 21.336233 C 32.83127 21.809371 30.912096 27.565883 30.217222 28.137617 z "
     style="font-size:12;fill:url(#linearGradient827);fill-rule:evenodd;stroke:#261933;stroke-width:0.7875;stroke-dasharray:none;stroke-opacity:1;"
     id="path978" />
  <path
     d="M 31.346527 17.337306 C 31.254885 18.087331 25.912124 19.157437 24.915759 18.897311 C 23.784618 18.568435 17.382249 14.593795 17.48673 13.749662 C 17.60228 12.678857 23.003416 11.257062 24.217279 11.430417 C 25.447587 11.589226 31.473839 16.420758 31.346527 17.337306 z "
     style="font-size:12;fill:url(#linearGradient826);fill-rule:evenodd;stroke:#261933;stroke-width:0.790566;stroke-opacity:1;"
     id="path979" />
  <path
     d="M 31.33704 23.145552 C 31.556627 23.41662 31.920855 21.857375 31.594576 21.729178 C 30.719135 21.385249 27.774756 21.493462 27.731877 21.729178 C 27.688871 21.965586 30.269587 21.858006 31.33704 23.145552 z "
     style="font-size:12;opacity:0.7;fill:url(#linearGradient824);fill-rule:evenodd;stroke:none;stroke-width:0.0632452pt;"
     id="path981" />
  <path
     d="M 29.350131 16.499813 C 29.327298 16.271244 26.022865 12.950811 24.071122 12.37958 C 22.503526 11.920777 18.770735 13.195758 18.79211 13.409655 C 18.813613 13.624941 22.512506 13.173308 24.199887 13.667188 C 26.031847 14.20338 29.370181 16.700427 29.350131 16.499813 z "
     style="font-size:12;opacity:0.699936;fill:url(#linearGradient823);fill-rule:evenodd;stroke:none;stroke-width:0.0632452pt;"
     id="path982" />
  <path
     d="M 37.489657 18.691322 C 37.533485 16.754691 29.996495 10.636733 25.25779 8.905828 C 22.829048 8.018682 16.031521 10.571604 15.98725 10.837177 C 15.945698 11.086637 22.606173 9.57643 25.000255 10.450908 C 29.773621 12.194469 37.501674 18.946768 37.489657 18.691322 z "
     style="font-size:12;opacity:0.7;fill:url(#linearGradient822);fill-rule:evenodd;stroke:none;stroke-width:0.0632452pt;"
     id="path983" />
  <path
     d="M 35.157363 32.574015 C 35.226428 32.857478 34.184275 33.405306 33.741052 33.319675 C 33.11132 33.198181 32.042224 32.378207 31.938502 31.952631 C 31.870576 31.673909 32.81255 31.127154 33.226047 31.206969 C 33.885505 31.334283 35.054781 32.153243 35.157363 32.574015 z M 32.260102 29.813931 C 32.038936 30.004172 31.077671 29.324288 30.952701 28.890553 C 30.775044 28.274229 31.020372 27.11937 31.35241 26.833757 C 31.569972 26.646676 32.484752 27.067827 32.601375 27.472468 C 32.787378 28.117886 32.588472 29.531543 32.260102 29.813931 z M 33.306305 25.499473 C 33.041119 25.620968 32.30583 24.701382 32.305957 24.250003 C 32.30602 23.608569 32.90881 22.403624 33.307001 22.221223 C 33.567887 22.101754 34.283064 22.923119 34.283 23.344268 C 34.282874 24.015931 33.700069 25.319162 33.306305 25.499473 z M 35.046306 20.70258 C 34.940812 20.974537 33.772613 20.827554 33.458094 20.503801 C 33.011078 20.04382 32.603526 18.759626 32.761952 18.351254 C 32.865741 18.083789 33.951089 18.174293 34.244547 18.476351 C 34.712624 18.95809 35.203026 20.298822 35.046306 20.70258 z M 33.180574 16.558062 C 33.212259 16.84804 32.107683 17.255847 31.679388 17.113417 C 31.070714 16.91116 30.117295 15.95913 30.069798 15.523687 C 30.03868 15.238516 31.043647 14.818756 31.443293 14.951635 C 32.080677 15.163506 33.133646 16.127553 33.180574 16.558062 z M 29.636633 13.614759 C 29.668317 13.904739 28.56374 14.312541 28.135446 14.170115 C 27.526772 13.967857 26.573353 13.015827 26.525855 12.580384 C 26.494737 12.295212 27.499702 11.875498 27.899351 12.008375 C 28.536735 12.220235 29.589704 13.18425 29.636633 13.614759 z M 26.055499 11.108246 C 26.158465 11.381179 25.19037 12.051371 24.740064 12.020166 C 24.100212 11.975956 22.939601 11.291536 22.785156 10.881671 C 22.683965 10.613269 23.552572 9.956324 23.972773 9.985428 C 24.642856 10.031788 25.902762 10.703014 26.055499 11.108246 z M 20.990576 30.831547 C 20.731966 30.966448 19.950316 30.086077 19.927171 29.635265 C 19.894158 28.994781 20.433892 27.760236 20.822152 27.557598 C 21.076462 27.424783 21.833128 28.208202 21.854756 28.628719 C 21.889288 29.299495 21.374473 30.63106 20.990576 30.831547 z M 23.032825 27.047335 C 22.774214 27.182238 21.992568 26.301865 21.96942 25.851055 C 21.936407 25.210569 22.476142 23.976024 22.864403 23.773386 C 23.11871 23.64057 23.875376 24.42399 23.897008 24.844506 C 23.931537 25.515285 23.416723 26.846848 23.032825 27.047335 z M 23.381747 21.808928 C 23.394588 22.100362 22.266104 22.436003 21.847862 22.266192 C 21.253611 22.024974 20.363437 21.013493 20.344146 20.575964 C 20.331434 20.289336 21.361509 19.935416 21.751666 20.09372 C 22.373998 20.34632 23.362584 21.376331 23.381747 21.808928 z M 19.592794 18.705742 C 19.688357 18.981364 18.702935 19.62558 18.253578 19.582383 C 17.615181 19.521098 16.473035 18.806238 16.329469 18.392488 C 16.235362 18.121419 17.121301 17.487829 17.540425 17.528054 C 18.20899 17.592184 19.450744 18.296672 19.592794 18.705742 z M 15.730221 16.318933 C 15.802383 16.601575 14.766492 17.16104 14.322323 17.080403 C 13.691323 16.96593 12.612995 16.158037 12.504527 15.733724 C 12.433442 15.455701 13.36928 14.898445 13.783535 14.973644 C 14.444384 15.093495 15.622894 15.899365 15.730221 16.318933 z M 40.195862 32.587074 C 40.811742 30.461467 35.012217 32.249503 34.153095 29.12981 C 33.308643 26.06343 38.511136 21.287408 37.073692 18.558698 C 34.860491 14.357447 28.125198 9.787908 23.200993 8.339789 C 21.929575 7.930082 7.809019 12.768664 7.631742 13.757566 C 7.502596 16.329304 18.116462 19.831569 20.287479 23.74151 C 21.442651 25.821898 16.649363 29.443378 17.610374 31.728554 C 19.448215 36.0993 26.633559 31.924766 30.562283 33.876007 C 31.371252 34.338265 39.936782 33.363725 40.195862 32.587074 z "
     style="font-size:12;opacity:0.302675;fill-rule:evenodd;stroke-width:1.25;"
     id="path984"
     sodipodi:nodetypes="ccccccccccccccccccccccccccccccccccccccccccccccccccccccccccccccccccccc" />
  <path
     d="M 39.657925 32.852756 C 40.273815 30.727152 36.242018 31.355091 35.382896 28.235396 C 34.538448 25.169018 39.740969 20.392995 38.303495 17.664282 C 36.090294 13.463033 29.354999 8.893481 24.430795 7.445365 C 23.159378 7.035655 9.03882 11.874252 8.861544 12.863154 C 8.732398 15.434892 19.346263 18.937153 21.517279 22.847097 C 22.672453 24.927484 17.879167 28.548965 18.840177 30.834139 C 16.258601 34.762944 21.676177 33.01909 24.279076 34.086447 C 25.088045 34.548706 39.398845 33.629409 39.657925 32.852756 z M 16.960024 15.424518 C 17.032186 15.707163 15.996293 16.266628 15.552124 16.185992 C 14.921127 16.071518 13.842795 15.263623 13.734332 14.839311 C 13.663244 14.561285 14.599082 14.004034 15.01334 14.079231 C 15.674186 14.19908 16.852698 15.00495 16.960024 15.424518 z M 20.822596 17.811328 C 20.918158 18.086951 19.932736 18.731166 19.48338 18.687968 C 18.844983 18.626686 17.702838 17.911824 17.559271 17.498075 C 17.465163 17.227007 18.351102 16.593417 18.770227 16.63364 C 19.438792 16.697771 20.680546 17.402259 20.822596 17.811328 z M 24.611549 20.914517 C 24.624388 21.20595 23.495907 21.541591 23.077668 21.371777 C 22.483414 21.130559 21.593239 20.119082 21.573948 19.68155 C 21.561236 19.394924 22.59131 19.041004 22.981469 19.199308 C 23.603801 19.451908 24.592388 20.481918 24.611549 20.914517 z M 24.262626 26.152923 C 24.004016 26.287824 23.222371 25.407453 23.199223 24.956639 C 23.166209 24.316156 23.705943 23.081612 24.094204 22.878974 C 24.348513 22.746159 25.105178 23.529576 25.126809 23.950095 C 25.161339 24.620871 24.646524 25.952436 24.262626 26.152923 z M 22.220378 29.937133 C 21.961767 30.072035 21.180122 29.191662 21.156972 28.74085 C 21.123959 28.100367 21.663693 26.865822 22.051956 26.663183 C 22.306264 26.53037 23.062928 27.313787 23.084559 27.734305 C 23.119091 28.405083 22.604275 29.736646 22.220378 29.937133 z M 27.285301 10.213821 C 27.388265 10.486754 26.420173 11.156945 25.969867 11.125739 C 25.330014 11.081531 24.169402 10.39711 24.014958 9.987245 C 23.913767 9.718845 24.782376 9.061898 25.202575 9.091004 C 25.872659 9.137363 27.132566 9.808591 27.285301 10.213821 z M 30.866433 12.720345 C 30.89812 13.010325 29.793542 13.418129 29.365246 13.2757 C 28.756574 13.073445 27.803154 12.121433 27.755658 11.68599 C 27.724539 11.400818 28.729506 10.981072 29.129152 11.11395 C 29.766536 11.325808 30.819505 12.289835 30.866433 12.720345 z M 34.410376 15.663649 C 34.442063 15.953628 33.337485 16.361433 32.909189 16.219005 C 32.30052 16.016746 31.347097 15.064718 31.299599 14.629275 C 31.268484 14.344102 32.273449 13.924344 32.673094 14.057222 C 33.31048 14.269092 34.363448 15.23314 34.410376 15.663649 z M 36.276108 19.808169 C 36.170616 20.080122 35.002414 19.933138 34.687896 19.609389 C 34.24088 19.149406 33.833327 17.865213 33.991757 17.456838 C 34.095542 17.189376 35.180891 17.279878 35.47435 17.58194 C 35.942426 18.063676 36.432831 19.404411 36.276108 19.808169 z M 34.536107 24.605061 C 34.270921 24.726555 33.53563 23.806969 33.535759 23.355589 C 33.535821 22.714158 34.138611 21.509209 34.536801 21.326812 C 34.797691 21.207339 35.512865 22.028706 35.512802 22.449855 C 35.512675 23.121518 34.929873 24.424749 34.536107 24.605061 z M 33.489907 28.919518 C 33.268737 29.10976 32.307472 28.429875 32.182502 27.996139 C 32.004846 27.379814 32.250173 26.224959 32.582211 25.939344 C 32.799772 25.752265 33.714552 26.173413 33.831177 26.578057 C 34.017181 27.223473 33.818276 28.637129 33.489907 28.919518 z "
     style="font-size:12;fill:#261e2e;fill-rule:evenodd;stroke:#261e2e;stroke-width:0.0625;stroke-dasharray:none;stroke-opacity:1;"
     id="path985"
     sodipodi:nodetypes="cccccccccccccccccccccccccccccccccccccccccccccccccccccccccccccccc" />
  <path
     d="M 30.217222 28.137617 C 29.420144 28.687598 25.215287 29.726844 24.592069 29.272489 C 23.917372 28.686775 26.714515 25.693194 26.796292 21.492956 C 26.816276 20.446058 31.921299 20.519106 32.521369 21.336233 C 32.83127 21.809371 30.912096 27.565883 30.217222 28.137617 z "
     style="font-size:12;fill:url(#linearGradient827);fill-rule:evenodd;stroke:#261933;stroke-width:0.7875;stroke-dasharray:none;stroke-opacity:1;"
     id="path987" />
  <path
     d="M 31.346527 17.337306 C 31.254885 18.087331 25.912124 19.157437 24.915759 18.897311 C 23.784618 18.568435 17.382249 14.593795 17.48673 13.749662 C 17.60228 12.678857 23.003416 11.257062 24.217279 11.430417 C 25.447587 11.589226 31.473839 16.420758 31.346527 17.337306 z "
     style="font-size:12;fill:url(#linearGradient826);fill-rule:evenodd;stroke:#261933;stroke-width:0.790566;stroke-opacity:1;"
     id="path988" />
  <path
     d="M 31.33704 23.145552 C 31.556627 23.41662 31.920855 21.857375 31.594576 21.729178 C 30.719135 21.385249 27.774756 21.493462 27.731877 21.729178 C 27.688871 21.965586 30.269587 21.858006 31.33704 23.145552 z "
     style="font-size:12;opacity:0.7;fill:url(#linearGradient824);fill-rule:evenodd;stroke:none;stroke-width:0.0632452pt;"
     id="path990" />
  <path
     d="M 29.350131 16.499813 C 29.327298 16.271244 26.022865 12.950811 24.071122 12.37958 C 22.503526 11.920777 18.770735 13.195758 18.79211 13.409655 C 18.813613 13.624941 22.512506 13.173308 24.199887 13.667188 C 26.031847 14.20338 29.370181 16.700427 29.350131 16.499813 z "
     style="font-size:12;opacity:0.699936;fill:url(#linearGradient823);fill-rule:evenodd;stroke:none;stroke-width:0.0632452pt;"
     id="path991" />
  <path
     d="M 37.821113 18.415108 C 37.864941 16.478477 30.327951 10.360519 25.589246 8.6296144 C 23.160504 7.7424684 16.362977 10.29539 16.318706 10.560963 C 16.277154 10.810423 22.937629 9.3002164 25.331711 10.174694 C 30.105077 11.918255 37.83313 18.670554 37.821113 18.415108 z "
     style="font-size:12;opacity:0.7;fill:url(#linearGradient586);fill-rule:evenodd;stroke:none;stroke-width:0.0632452pt;"
     id="path992" />
  <path
     d="M 30.217222 28.137617 C 29.420144 28.687598 25.215287 29.726844 24.592069 29.272489 C 23.917372 28.686775 26.714515 25.693194 26.796292 21.492956 C 26.816276 20.446058 31.921299 20.519106 32.521369 21.336233 C 32.83127 21.809371 30.912096 27.565883 30.217222 28.137617 z "
     style="font-size:12;opacity:0.302675;fill-rule:evenodd;stroke-width:1.25;"
     id="path996" />
  <path
     d="M 31.346527 17.337306 C 31.254885 18.087331 25.912124 19.157437 24.915759 18.897311 C 23.784618 18.568435 17.382249 14.593795 17.48673 13.749662 C 17.60228 12.678857 23.003416 11.257062 24.217279 11.430417 C 25.447587 11.589226 31.473839 16.420758 31.346527 17.337306 z "
     style="font-size:12;opacity:0.302675;fill-rule:evenodd;stroke-width:1.25;"
     id="path997" />
  <path
     d="M 31.33704 23.145552 C 31.556627 23.41662 31.920855 21.857375 31.594576 21.729178 C 30.719135 21.385249 27.774756 21.493462 27.731877 21.729178 C 27.688871 21.965586 30.269587 21.858006 31.33704 23.145552 z "
     style="font-size:12;opacity:0.302675;fill-rule:evenodd;stroke-width:1.25;"
     id="path999" />
  <path
     d="M 29.350131 16.499813 C 29.327298 16.271244 26.022865 12.950811 24.071122 12.37958 C 22.503526 11.920777 18.770735 13.195758 18.79211 13.409655 C 18.813613 13.624941 22.512506 13.173308 24.199887 13.667188 C 26.031847 14.20338 29.370181 16.700427 29.350131 16.499813 z "
     style="font-size:12;opacity:0.302675;fill-rule:evenodd;stroke-width:1.25;"
     id="path1000" />
  <path
     d="M 30.217222 28.137617 C 29.420144 28.687598 25.215287 29.726844 24.592069 29.272489 C 23.917372 28.686775 26.714515 25.693194 26.796292 21.492956 C 26.816276 20.446058 31.921299 20.519106 32.521369 21.336233 C 32.83127 21.809371 30.912096 27.565883 30.217222 28.137617 z "
     style="font-size:12;fill:url(#linearGradient794);fill-rule:evenodd;stroke:#261933;stroke-width:0.7875;stroke-dasharray:none;stroke-opacity:1;"
     id="path1005" />
  <path
     d="M 31.346527 17.337306 C 31.254885 18.087331 25.912124 19.157437 24.915759 18.897311 C 23.784618 18.568435 17.382249 14.593795 17.48673 13.749662 C 17.60228 12.678857 23.003416 11.257062 24.217279 11.430417 C 25.447587 11.589226 31.473839 16.420758 31.346527 17.337306 z "
     style="font-size:12;fill:url(#linearGradient795);fill-rule:evenodd;stroke:#261933;stroke-width:0.790566;stroke-opacity:1;"
     id="path1006" />
  <path
     d="M 31.33704 23.145552 C 31.556627 23.41662 31.920855 21.857375 31.594576 21.729178 C 30.719135 21.385249 27.774756 21.493462 27.731877 21.729178 C 27.688871 21.965586 30.269587 21.858006 31.33704 23.145552 z "
     style="font-size:12;opacity:0.7;fill:url(#linearGradient790);fill-rule:evenodd;stroke:none;stroke-width:0.0632452pt;"
     id="path1008" />
  <path
     d="M 29.350131 16.499813 C 29.327298 16.271244 26.022865 12.950811 24.071122 12.37958 C 22.503526 11.920777 18.770735 13.195758 18.79211 13.409655 C 18.813613 13.624941 22.512506 13.173308 24.199887 13.667188 C 26.031847 14.20338 29.370181 16.700427 29.350131 16.499813 z "
     style="font-size:12;opacity:0.699936;fill:url(#linearGradient587);fill-rule:evenodd;stroke:none;stroke-width:0.0632452pt;"
     id="path1009" />
</svg>
