<?xml version="1.0" encoding="UTF-8" standalone="no"?>
<!DOCTYPE svg PUBLIC "-//W3C//DTD SVG 20010904//EN"
"http://www.w3.org/TR/2001/REC-SVG-20010904/DTD/svg10.dtd">
<!-- Created with Inkscape (http://www.inkscape.org/) -->
<svg
   version="1.0"
   x="0"
   y="0"
   width="48pt"
   height="48pt"
   id="svg611"
   sodipodi:version="0.32"
   inkscape:version="0.37"
   sodipodi:docname="kwrite.svg"
   sodipodi:docbase="/home/tom"
   xmlns="http://www.w3.org/2000/svg"
   xmlns:inkscape="http://www.inkscape.org/namespaces/inkscape"
   xmlns:sodipodi="http://sodipodi.sourceforge.net/DTD/sodipodi-0.dtd"
   xmlns:xlink="http://www.w3.org/1999/xlink">
  <sodipodi:namedview
     id="base"
     pagecolor="#ffffff"
     bordercolor="#666666"
     borderopacity="1.0"
     inkscape:pageopacity="0.0"
     inkscape:pageshadow="2"
     inkscape:zoom="9.40259740"
     inkscape:cx="28.2732055"
     inkscape:cy="29.3390117"
     inkscape:window-width="1018"
     inkscape:window-height="711"
     inkscape:window-x="0"
     inkscape:window-y="30" />
  <defs
     id="defs613">
    <linearGradient
       id="linearGradient685">
      <stop
         offset="0.00000000"
         style="stop-color:#ffffff;stop-opacity:1;"
         id="stop687" />
      <stop
         offset="1.00000000"
         style="stop-color:#ffffff;stop-opacity:0;"
         id="stop686" />
    </linearGradient>
    <linearGradient
       id="linearGradient664">
      <stop
         style="stop-color:#ffffff;stop-opacity:1;"
         offset="0.00000000"
         id="stop665" />
      <stop
         style="stop-color:#ffffff;stop-opacity:0.443548;"
         offset="1.00000000"
         id="stop666" />
    </linearGradient>
    <linearGradient
       id="linearGradient1272">
      <stop
         style="stop-color:#0000ff;stop-opacity:1;"
         offset="0"
         id="stop1273" />
      <stop
         style="stop-color:#00008d;stop-opacity:1;"
         offset="1"
         id="stop1274" />
    </linearGradient>
    <linearGradient
       id="linearGradient1269">
      <stop
         style="stop-color:#00ff00;stop-opacity:1;"
         offset="0"
         id="stop1270" />
      <stop
         style="stop-color:#008700;stop-opacity:1;"
         offset="1"
         id="stop1271" />
    </linearGradient>
    <linearGradient
       id="linearGradient1256">
      <stop
         style="stop-color:#ffffff;stop-opacity:1;"
         offset="0"
         id="stop1258" />
      <stop
         style="stop-color:#ffffff;stop-opacity:0;"
         offset="1"
         id="stop1257" />
    </linearGradient>
    <linearGradient
       id="linearGradient1253">
      <stop
         style="stop-color:#c7b397;stop-opacity:1;"
         offset="0.00000000"
         id="stop1255" />
      <stop
         style="stop-color:#faebdc;stop-opacity:1;"
         offset="1.00000000"
         id="stop1254" />
    </linearGradient>
    <linearGradient
       id="linearGradient1048">
      <stop
         style="stop-color:#ffffff;stop-opacity:1;"
         offset="0"
         id="stop1049" />
      <stop
         style="stop-color:#7f7f7f;stop-opacity:1;"
         offset="1"
         id="stop1050" />
    </linearGradient>
    <linearGradient
       id="linearGradient1535">
      <stop
         style="stop-color:#ffffff;stop-opacity:1;"
         offset="0"
         id="stop1537" />
      <stop
         style="stop-color:#ffffff;stop-opacity:0;"
         offset="1"
         id="stop1536" />
    </linearGradient>
    <linearGradient
       id="linearGradient1528">
      <stop
         style="stop-color:#d9cce6;stop-opacity:1;"
         offset="0.00000000"
         id="stop1530" />
      <stop
         style="stop-color:#73667f;stop-opacity:1;"
         offset="1.00000000"
         id="stop1529" />
    </linearGradient>
    <linearGradient
       id="linearGradient642">
      <stop
         style="stop-color:#ffffff;stop-opacity:1;"
         offset="0"
         id="stop643" />
      <stop
         style="stop-color:#ffffff;stop-opacity:0;"
         offset="1"
         id="stop644" />
    </linearGradient>
    <linearGradient
       id="linearGradient635">
      <stop
         style="stop-color:#ff0000;stop-opacity:1;"
         offset="0"
         id="stop636" />
      <stop
         style="stop-color:#870000;stop-opacity:1;"
         offset="1"
         id="stop637" />
    </linearGradient>
    <linearGradient
       x1="0.30701753"
       y1="0.32031250"
       x2="0.56140351"
       y2="0.56250000"
       id="linearGradient638"
       xlink:href="#linearGradient1528" />
    <linearGradient
       x1="0.00793651"
       y1="0.01562500"
       x2="0.98412699"
       y2="0.98437500"
       id="linearGradient641"
       xlink:href="#linearGradient1048" />
    <linearGradient
       x1="-0.016529"
       y1="0.007812"
       x2="1.008265"
       y2="1.000000"
       id="linearGradient1522"
       xlink:href="#linearGradient642" />
    <linearGradient
       id="linearGradient1527"
       xlink:href="#linearGradient664" />
    <linearGradient
       id="linearGradient1532"
       xlink:href="#linearGradient1528"
       x1="0.00000000"
       y1="0.00000000"
       x2="1.00000000"
       y2="0.00000000" />
    <linearGradient
       id="linearGradient1534"
       xlink:href="#linearGradient685"
       x1="-0.00000000"
       y1="-0.00000000"
       x2="1.00000000"
       y2="-0.00000000" />
    <linearGradient
       x1="0.020099"
       y1="0.023282"
       x2="0.989950"
       y2="1.023435"
       id="linearGradient1539"
       xlink:href="#linearGradient1256"
       gradientTransform="translate(-3.303398e-8,-1.426085e-6)" />
    <linearGradient
       x1="0.006447"
       y1="0.039037"
       x2="0.980645"
       y2="0.984374"
       id="linearGradient1567"
       xlink:href="#linearGradient1256" />
    <linearGradient
       x1="0.00781253"
       y1="0.02343748"
       x2="1.00000000"
       y2="0.99218750"
       id="linearGradient1042"
       xlink:href="#linearGradient1269" />
    <linearGradient
       x1="0.00781262"
       y1="0.03124999"
       x2="0.97656244"
       y2="0.96875000"
       id="linearGradient1044"
       xlink:href="#linearGradient1272" />
    <defs
       id="defs1121">
      <linearGradient
         x1="0.000000"
         y1="0.000000"
         x2="1.000000"
         y2="0.000000"
         id="linearGradient1231"
         xlink:href="#linearGradient1256"
         gradientUnits="objectBoundingBox"
         spreadMethod="pad" />
      <linearGradient
         id="linearGradient1226">
        <stop
           style="stop-color:#e6e6e6;stop-opacity:1;"
           offset="0"
           id="stop1227" />
        <stop
           style="stop-color:#7f7f7f;stop-opacity:1;"
           offset="1"
           id="stop1228" />
      </linearGradient>
      <linearGradient
         id="linearGradient1223">
        <stop
           style="stop-color:#000000;stop-opacity:1;"
           offset="0"
           id="stop1225" />
        <stop
           style="stop-color:#000000;stop-opacity:0;"
           offset="1"
           id="stop1224" />
      </linearGradient>
      <linearGradient
         x1="0.000000"
         y1="0.000000"
         x2="1.000000"
         y2="0.000000"
         id="linearGradient1218"
         xlink:href="#linearGradient1253"
         gradientUnits="objectBoundingBox"
         spreadMethod="pad" />
      <linearGradient
         id="linearGradient1215">
        <stop
           style="stop-color:#7f7366;stop-opacity:1;"
           offset="0"
           id="stop1217" />
        <stop
           style="stop-color:#7f7366;stop-opacity:0;"
           offset="1"
           id="stop1216" />
      </linearGradient>
      <linearGradient
         id="linearGradient1137"
         x1="0.00000000"
         y1="0.00000000"
         x2="1.00000000"
         y2="0.00000000"
         gradientUnits="objectBoundingBox"
         spreadMethod="pad"
         xlink:href="#linearGradient685" />
      <linearGradient
         id="linearGradient1140">
        <stop
           style="stop-color:#e6cfff;stop-opacity:1;"
           offset="0"
           id="stop1141" />
        <stop
           style="stop-color:#ffffff;stop-opacity:1;"
           offset="1"
           id="stop1142" />
      </linearGradient>
      <linearGradient
         x1="0.008696"
         y1="0.000000"
         x2="0.965218"
         y2="0.968750"
         id="linearGradient1143"
         xlink:href="#linearGradient635" />
      <linearGradient
         x1="0.015504"
         y1="0.007812"
         x2="0.697674"
         y2="0.882812"
         id="linearGradient1144"
         xlink:href="#linearGradient642" />
      <linearGradient
         x1="0.030302"
         y1="0.023437"
         x2="0.979798"
         y2="0.976562"
         id="linearGradient1214"
         xlink:href="#linearGradient1218" />
      <linearGradient
         x1="0.977528"
         y1="0.953125"
         x2="0.011236"
         y2="0.039063"
         id="linearGradient1222"
         xlink:href="#linearGradient1226" />
      <linearGradient
         x1="0.003630"
         y1="-0.000003"
         x2="0.960000"
         y2="0.991228"
         id="linearGradient1230"
         xlink:href="#linearGradient1231" />
      <linearGradient
         x1="0.011765"
         y1="0.015625"
         x2="0.705882"
         y2="0.828125"
         id="linearGradient1235"
         xlink:href="#linearGradient1231" />
    </defs>
    <linearGradient
       x1="0.005816"
       y1="0.015632"
       x2="0.994152"
       y2="0.976562"
       id="linearGradient1276"
       xlink:href="#linearGradient1256" />
    <linearGradient
       id="linearGradient1281"
       xlink:href="#linearGradient1272" />
    <radialGradient
       id="radialGradient1285"
       xlink:href="#linearGradient1272" />
    <radialGradient
       id="radialGradient1286"
       xlink:href="#linearGradient1272" />
    <radialGradient
       id="radialGradient1287"
       xlink:href="#linearGradient1272" />
  </defs>
  <path
     d="M 4.4319792 50.964719 C 5.0851043 52.915985 32.131574 61.689857 33.907376 60.217514 C 35.496905 58.885755 47.39059 19.245863 46.594224 17.67378 C 45.766428 15.94056 18.325919 11.623407 17.023435 12.80888 C 15.419054 14.277684 3.7460319 48.725893 4.4319792 50.964719 z "
     style="font-size:12;opacity:0.302675;fill-rule:evenodd;stroke-width:12.5;"
     id="path639" />
  <path
     d="M 4.5249561 49.349728 C 5.1360357 51.175285 30.440057 59.383918 32.101443 58.006427 C 33.588572 56.760465 44.71603 19.674301 43.970969 18.203466 C 43.196503 16.581905 17.523803 12.542909 16.305228 13.652011 C 14.804209 15.026189 3.8831983 47.255136 4.5249561 49.349728 z "
     style="font-size:12;fill:url(#linearGradient1527);fill-rule:evenodd;stroke:#261933;stroke-width:1.51483;"
     id="path634" />
  <path
     d="M 6.2465601 47.639702 C 5.9824778 46.970668 16.475374 15.863727 17.456342 15.222221 C 18.682348 14.385539 38.501567 18.089372 38.765032 18.756837 C 39.006516 19.368588 23.30199 16.51202 19.808094 19.637218 C 13.107107 25.462752 6.4874235 48.249916 6.2465601 47.639702 z "
     style="font-size:12;opacity:0.699936;fill:url(#linearGradient1534);fill-rule:evenodd;stroke:none;stroke-width:0.100121pt;"
     id="path640" />
  <g
     id="g666"
     transform="translate(-0.398822,-0.930594)">
    <g
       transform="matrix(6.949277e-2,0.000000,0.000000,6.827370e-2,19.39492,-0.410031)"
       style="font-size:12;opacity:0.302675;"
       id="g1288">
      <path
         d="M 193.828 467.434 C 178.941 468.948 161.154 486.272 148.606 498.444 C 130.468 516.075 92.7478 564.2 104.676 592.765 C 111.698 552.141 185.106 555.496 205.456 535.914 C 216.415 526.066 227.005 503.459 224.837 490.691 C 223.129 480.633 204.352 466.364 193.828 467.434 z "
         style="fill-rule:evenodd;stroke-width:0.961965pt;"
         id="path1282" />
      <path
         d="M 229.409 417.471 C 221.482 419.905 190.897 456.406 190.623 463.082 C 190.082 475.91 220.297 500.47 232.768 498.042 C 237.828 496.761 268.98 456.842 269.182 451.097 C 269.654 438.55 241.337 414.372 229.409 417.471 z "
         style="fill-rule:evenodd;stroke-width:11.3244;"
         id="path1283" />
      <path
         d="M 221.358 423.625 C 228.067 386.292 264.417 333.237 298.019 298.291 C 375.96 217.232 538.735 66.7744 555.987 75.6109 C 571.994 83.8099 456.882 263.285 391.15 343.699 C 355.597 386.031 313.676 435.685 270.031 454.046 C 254.863 460.427 218.737 438.21 221.358 423.625 z "
         style="fill-rule:evenodd;stroke-width:11.3244;"
         id="path1284" />
    </g>
    <path
       d="M 34.497129 27.450297 C 33.946224 27.616432 31.82076 30.108521 31.801782 30.564288 C 31.764166 31.440139 33.86385 33.116925 34.730511 32.951122 C 35.082181 32.863711 37.246963 30.13826 37.261043 29.746045 C 37.29383 28.889442 35.32597 27.238719 34.497129 27.450297 z "
       style="font-size:12;fill:url(#linearGradient641);fill-rule:evenodd;stroke:#333333;stroke-width:1.27261;"
       id="path1046" />
    <path
       d="M 33.937585 27.870446 C 34.403805 25.321554 36.929915 21.699335 39.264953 19.313437 C 44.681294 13.779264 55.992975 3.5069755 57.191855 4.1102732 C 58.304215 4.670053 50.304825 16.923461 45.736918 22.413594 C 43.266244 25.303777 40.353024 28.693836 37.320018 29.947399 C 36.265958 30.383052 33.755491 28.866187 33.937585 27.870446 z "
       style="font-size:12;fill:url(#linearGradient638);fill-rule:evenodd;stroke:#261933;stroke-width:1.27261;"
       id="path1045" />
    <path
       d="M 34.982667 27.772075 C 33.948945 29.121135 37.30961 23.174766 40.769655 19.335423 C 45.298044 14.430504 56.708565 4.8356734 55.797285 5.8552434 C 54.360055 7.3588834 38.162462 23.408532 34.982667 27.772075 z "
       style="font-size:12;opacity:0.7;fill:url(#linearGradient1522);fill-rule:evenodd;stroke:none;stroke-width:1.02162pt;"
       id="path1051" />
    <path
       d="M 32.555798 30.706499 C 32.555798 30.566026 33.326685 29.343606 33.769232 29.239287 C 34.10451 29.160163 34.889341 30.018838 34.889341 30.156303 C 34.889341 30.263362 34.114168 29.891529 33.769232 29.972861 C 33.336344 30.074906 32.555798 30.810551 32.555798 30.706499 z "
       style="font-size:12;opacity:0.699936;fill:url(#linearGradient1539);fill-rule:evenodd;stroke:none;stroke-width:1.02162pt;"
       id="path1265" />
    <path
       d="M 26.208701 37.492432 C 26.269559 36.750703 28.73456 32.954799 31.342432 31.898646 C 31.925241 31.675106 33.079291 33.150538 33.115887 33.365858 C 33.141599 33.517291 31.963196 32.739612 31.529084 32.999039 C 29.660739 34.115203 26.216482 37.669923 26.208701 37.492432 z "
       style="font-size:12;opacity:0.7;fill:url(#linearGradient1567);fill-rule:evenodd;stroke:none;stroke-width:1.02162pt;"
       id="path1266" />
    <path
       style="font-size:12;fill:url(#linearGradient1532);fill-rule:evenodd;stroke:#261933;stroke-width:0.802207;"
       d="M 32.024483 30.861406 C 29.876992 31.693744 28.724347 32.645994 27.481396 33.549897 C 26.851144 34.151785 27.464482 35.62263 25.573898 38.99919 C 25.64396 39.064984 25.495796 38.905942 25.631501 39.03003 C 28.441046 37.429281 30.049424 38.362668 31.463587 37.025769 C 32.076762 36.061831 34.181674 33.393913 34.179402 32.449243 C 34.060704 31.762584 32.75585 30.788364 32.024483 30.861406 z "
       id="path660"
       sodipodi:nodetypes="ccccccc" />
    <path
       style="font-size:12;fill:none;fill-opacity:0.75;fill-rule:evenodd;stroke:#000000;stroke-width:0.364815;"
       d="M 25.554252 39.066631 L 30.781389 33.894742 "
       id="path663" />
    <path
       sodipodi:type="arc"
       style="font-size:12;fill:#000000;fill-opacity:1;fill-rule:evenodd;stroke:none;stroke-width:1pt;"
       id="path667"
       sodipodi:cx="12.26562500"
       sodipodi:cy="48.43750000"
       sodipodi:rx="0.15625000"
       sodipodi:ry="0.23437500"
       d="M 12.421875 48.437500 A 0.156250 0.234375 0 1 0 12.109375,48.437500 A 0.15625 0.234375 0 1 0 12.4219 48.4375 L 12.265625 48.437500 z"
       transform="matrix(4.584216,0.000000,0.000000,3.074172,-25.48328,-115.0138)" />
  </g>
</svg>
