<?xml version="1.0" encoding="UTF-8" standalone="no"?>
<!-- Created with Inkscape (http://www.inkscape.org/) -->
<svg
   xmlns:dc="http://purl.org/dc/elements/1.1/"
   xmlns:cc="http://web.resource.org/cc/"
   xmlns:rdf="http://www.w3.org/1999/02/22-rdf-syntax-ns#"
   xmlns:svg="http://www.w3.org/2000/svg"
   xmlns="http://www.w3.org/2000/svg"
   xmlns:xlink="http://www.w3.org/1999/xlink"
   xmlns:sodipodi="http://inkscape.sourceforge.net/DTD/sodipodi-0.dtd"
   xmlns:inkscape="http://www.inkscape.org/namespaces/inkscape"
   id="svg1"
   sodipodi:version="0.32"
   inkscape:version="0.42"
   width="48pt"
   height="48pt"
   sodipodi:docbase="/home/jakob/dev/lila/lila-theme/trunk/lila/kde/scalable/apps"
   sodipodi:docname="kdebluetooth.svg"
   inkscape:export-filename="/home/jakob/dev/lila/lila-theme/trunk/lila/kde/scalable/apps/kdebluetooth.png"
   inkscape:export-xdpi="33.000000"
   inkscape:export-ydpi="33.000000">
  <metadata
     id="metadata36">
    <rdf:RDF>
      <cc:Work
         rdf:about="">
        <dc:format>image/svg+xml</dc:format>
        <dc:type
           rdf:resource="http://purl.org/dc/dcmitype/StillImage" />
      </cc:Work>
    </rdf:RDF>
  </metadata>
  <defs
     id="defs3">
    <linearGradient
       id="linearGradient916">
      <stop
         style="stop-color:#cccccc;stop-opacity:1;"
         offset="0.00000000"
         id="stop917" />
      <stop
         style="stop-color:#7f7f7f;stop-opacity:1;"
         offset="1.00000000"
         id="stop918" />
    </linearGradient>
    <linearGradient
       id="linearGradient866">
      <stop
         style="stop-color:#ffffff;stop-opacity:1;"
         offset="0.00000000"
         id="stop867" />
      <stop
         style="stop-color:#d9cce6;stop-opacity:1;"
         offset="1.00000000"
         id="stop868" />
    </linearGradient>
    <linearGradient
       id="linearGradient584">
      <stop
         style="stop-color:#ffffff;stop-opacity:1;"
         offset="0.00000000"
         id="stop585" />
      <stop
         style="stop-color:#ffffff;stop-opacity:0;"
         offset="1.00000000"
         id="stop586" />
    </linearGradient>
    <linearGradient
       id="linearGradient578">
      <stop
         style="stop-color:#d9cce6;stop-opacity:1.0000000;"
         offset="0.0000000"
         id="stop579" />
      <stop
         style="stop-color:#73667f;stop-opacity:1.0000000;"
         offset="1.0000000"
         id="stop580" />
    </linearGradient>
    <linearGradient
       xlink:href="#linearGradient584"
       id="linearGradient581"
       x1="0.01515152"
       y1="0.00775194"
       x2="1.00000000"
       y2="0.98449612" />
    <linearGradient
       xlink:href="#linearGradient584"
       id="linearGradient583"
       x1="-0.00000000"
       y1="-0.00000000"
       x2="0.94444442"
       y2="0.96899223" />
    <linearGradient
       xlink:href="#linearGradient584"
       id="linearGradient860"
       x1="0.00724638"
       y1="0.02739726"
       x2="0.99637681"
       y2="0.95890409" />
    <linearGradient
       xlink:href="#linearGradient584"
       id="linearGradient861"
       x1="-0.00000000"
       y1="-0.01818182"
       x2="1.00362325"
       y2="0.92727274" />
    <linearGradient
       xlink:href="#linearGradient584"
       id="linearGradient862"
       x1="0.00362319"
       y1="-0.00000000"
       x2="0.98913044"
       y2="0.96103895" />
    <linearGradient
       xlink:href="#linearGradient578"
       id="linearGradient869"
       x1="-0.00000000"
       y1="0.00917431"
       x2="0.99275362"
       y2="0.96330273" />
    <linearGradient
       xlink:href="#linearGradient578"
       id="linearGradient915"
       x1="0.00362319"
       y1="-0.00000000"
       x2="1.01086962"
       y2="1.02362204" />
    <linearGradient
       xlink:href="#linearGradient578"
       id="linearGradient1046"
       x1="-0.00000000"
       y1="0.00775194"
       x2="0.97549021"
       y2="0.96899223" />
    <linearGradient
       xlink:href="#linearGradient578"
       id="linearGradient1047"
       x1="0.00362319"
       y1="0.01626016"
       x2="1.00000000"
       y2="0.97560978" />
    <linearGradient
       xlink:href="#linearGradient584"
       id="linearGradient1106"
       x1="0.01677185"
       y1="0.00454466"
       x2="0.97643667"
       y2="1.00106704" />
    <linearGradient
       xlink:href="#linearGradient866"
       id="linearGradient1107"
       x1="0.01683684"
       y1="0.00517791"
       x2="0.98230928"
       y2="0.98697507" />
    <linearGradient
       xlink:href="#linearGradient584"
       id="linearGradient1113"
       x1="0.02027027"
       y1="0.03100775"
       x2="0.99324322"
       y2="0.98449612" />
    <linearGradient
       xlink:href="#linearGradient578"
       id="linearGradient872"
       x1="0.010309278"
       y1="0.011904762"
       x2="0.96907216"
       y2="0.98809522" />
    <linearGradient
       xlink:href="#linearGradient584"
       id="linearGradient879"
       x1="-0.10447761"
       y1="0.0059523811"
       x2="0.97014928"
       y2="0.91071427" />
    <linearGradient
       inkscape:collect="always"
       xlink:href="#linearGradient584"
       id="linearGradient1353"
       x1="23.486651"
       y1="2.8399424"
       x2="46.957907"
       y2="22.601125"
       gradientTransform="matrix(0.735081,0.000000,0.000000,1.677459,-4.677176,-2.332526)"
       gradientUnits="userSpaceOnUse" />
    <linearGradient
       inkscape:collect="always"
       xlink:href="#linearGradient578"
       id="linearGradient7241"
       gradientUnits="userSpaceOnUse"
       gradientTransform="matrix(0.887211,0.000000,0.000000,1.389825,-4.677174,-1.961887)"
       x1="18.529327"
       y1="1.9211531"
       x2="59.044388"
       y2="43.172661" />
    <linearGradient
       inkscape:collect="always"
       xlink:href="#linearGradient866"
       id="linearGradient7243"
       gradientUnits="userSpaceOnUse"
       gradientTransform="matrix(1.052385,0.000000,0.000000,1.052385,-1.948854,-1.553807)"
       x1="18.659716"
       y1="6.0393610"
       x2="61.564831"
       y2="83.183533" />
    <linearGradient
       inkscape:collect="always"
       xlink:href="#linearGradient866"
       id="linearGradient7977"
       x1="17.688351"
       y1="4.8019261"
       x2="62.841049"
       y2="85.987297"
       gradientUnits="userSpaceOnUse" />
    <linearGradient
       inkscape:collect="always"
       xlink:href="#linearGradient866"
       id="linearGradient3518"
       gradientUnits="userSpaceOnUse"
       gradientTransform="matrix(1.052385,0.000000,0.000000,1.052385,-1.948854,-1.553807)"
       x1="18.659716"
       y1="6.0393610"
       x2="61.564831"
       y2="83.183533" />
  </defs>
  <sodipodi:namedview
     id="base"
     pagecolor="#ffffff"
     bordercolor="#666666"
     borderopacity="1.0"
     inkscape:pageopacity="0.0"
     inkscape:pageshadow="2"
     inkscape:zoom="5.6568543"
     inkscape:cx="33.718159"
     inkscape:cy="17.425641"
     inkscape:window-width="1400"
     inkscape:window-height="995"
     inkscape:window-x="0"
     inkscape:window-y="0"
     inkscape:current-layer="svg1" />
  <path
     sodipodi:nodetypes="ccccccc"
     id="path2788"
     d="M 49.723674,17.808978 C 49.723674,26.488857 49.723674,34.602656 49.723674,43.282535 C 49.723674,51.962414 41.819606,59.006952 32.080665,59.006952 C 22.341723,59.006952 14.437655,51.962414 14.437655,43.282535 C 14.437655,34.602656 14.437655,26.488857 14.437655,17.808978 C 14.437655,9.1291018 22.341723,2.2418066 32.080665,2.2418066 C 41.819606,2.2418066 49.723674,9.1291018 49.723674,17.808978 z "
     style="opacity:0.29999998;fill:#000000;fill-opacity:1.0000000;fill-rule:evenodd;stroke:#000000;stroke-width:1.9860960;stroke-dasharray:none;stroke-opacity:1.0000000" />
  <path
     style="fill:url(#linearGradient7241);fill-rule:evenodd;stroke:#261933;stroke-width:1.9860960;stroke-dasharray:none;stroke-opacity:1.0000000;fill-opacity:1.0"
     d="M 47.764475,16.558978 C 47.764475,25.238857 47.764475,33.352656 47.764475,42.032535 C 47.764475,50.712414 39.860407,57.756952 30.121466,57.756952 C 20.382524,57.756952 12.478456,50.712414 12.478456,42.032535 C 12.478456,33.352656 12.478456,25.238857 12.478456,16.558978 C 12.478456,7.8791018 20.382524,0.99180659 30.121466,0.99180659 C 39.860407,0.99180659 47.764475,7.8791018 47.764475,16.558978 z "
     id="path871"
     sodipodi:nodetypes="ccccccc" />
  <path
     style="fill:url(#linearGradient1353);fill-opacity:1.0000000;fill-rule:evenodd;stroke:none;stroke-width:1.0000000pt;stroke-linecap:butt;stroke-linejoin:miter;stroke-opacity:1.0000000"
     d="M 14.264830,43.113514 C 14.264830,36.051628 14.264830,20.453607 14.264830,15.893525 C 14.264830,11.333443 22.301962,-2.4477691 39.585916,5.5490180 C 28.505027,5.0717485 23.422920,5.7783994 18.039132,16.148994 C 16.429203,19.250141 15.376743,31.643512 14.264830,43.113514 z "
     id="path878"
     sodipodi:nodetypes="cccsc" />
  <path
     id="path1336"
     d="M 28.207472,5.1965704 L 28.207472,8.5508797 L 28.207472,26.307178 L 20.052498,18.121432 L 18.082996,20.090935 L 27.622775,29.661486 L 18.082996,39.232040 L 20.052498,41.201542 L 28.207472,33.015796 L 28.207472,50.741320 L 28.207472,54.126404 L 30.577029,51.756846 L 41.132332,41.201542 L 42.117085,40.216791 L 41.132332,39.232040 L 31.561781,29.661486 L 41.132332,20.090935 L 42.117085,19.106184 L 41.132332,18.121432 L 30.577029,7.5661284 L 28.207472,5.1965704 z M 31.007858,11.935963 L 38.178079,19.106184 L 31.007858,26.276404 L 31.007858,11.935963 z M 31.007858,33.046570 L 38.178079,40.216791 L 31.007858,47.356237 L 31.007858,33.046570 z "
     style="fill:url(#linearGradient7243);fill-opacity:1.0;fill-rule:evenodd;stroke:#261933;stroke-width:4.0000000;stroke-linecap:round;stroke-linejoin:round;stroke-miterlimit:4.0000000;stroke-dasharray:none;stroke-opacity:1.0000000" />
  <path
     style="fill:url(#linearGradient3518);fill-opacity:1.0;fill-rule:evenodd;stroke:url(#linearGradient7977);stroke-width:1.5000000;stroke-linecap:round;stroke-linejoin:round;stroke-miterlimit:4.0000000;stroke-dasharray:none;stroke-opacity:1.0000000"
     d="M 28.207472,5.1965704 L 28.207472,8.5508797 L 28.207472,26.307178 L 20.052498,18.121432 L 18.082996,20.090935 L 27.622775,29.661486 L 18.082996,39.232040 L 20.052498,41.201542 L 28.207472,33.015796 L 28.207472,50.741320 L 28.207472,54.126404 L 30.577029,51.756846 L 41.132332,41.201542 L 42.117085,40.216791 L 41.132332,39.232040 L 31.561781,29.661486 L 41.132332,20.090935 L 42.117085,19.106184 L 41.132332,18.121432 L 30.577029,7.5661284 L 28.207472,5.1965704 z M 31.007858,11.935963 L 38.178079,19.106184 L 31.007858,26.276404 L 31.007858,11.935963 z M 31.007858,33.046570 L 38.178079,40.216791 L 31.007858,47.356237 L 31.007858,33.046570 z "
     id="path877" />
</svg>
