<?xml version="1.0" encoding="UTF-8" standalone="no"?>
<!-- Created with Inkscape (http://www.inkscape.org/) -->
<svg
   xmlns:dc="http://purl.org/dc/elements/1.1/"
   xmlns:cc="http://web.resource.org/cc/"
   xmlns:rdf="http://www.w3.org/1999/02/22-rdf-syntax-ns#"
   xmlns:svg="http://www.w3.org/2000/svg"
   xmlns="http://www.w3.org/2000/svg"
   xmlns:xlink="http://www.w3.org/1999/xlink"
   xmlns:sodipodi="http://inkscape.sourceforge.net/DTD/sodipodi-0.dtd"
   xmlns:inkscape="http://www.inkscape.org/namespaces/inkscape"
   version="1.0"
   x="0"
   y="0"
   width="48pt"
   height="48pt"
   id="svg1"
   sodipodi:version="0.32"
   inkscape:version="0.42.2"
   sodipodi:docname="chardevice.svg"
   sodipodi:docbase="/home/jakob/dev/lila-cvs/lila-theme/trunk/lila/kde/scalable/devices">
  <metadata
     id="metadata48">
    <rdf:RDF>
      <cc:Work
         rdf:about="">
        <dc:format>image/svg+xml</dc:format>
        <dc:type
           rdf:resource="http://purl.org/dc/dcmitype/StillImage" />
      </cc:Work>
    </rdf:RDF>
  </metadata>
  <sodipodi:namedview
     id="base"
     pagecolor="#ffffff"
     bordercolor="#666666"
     borderopacity="1.0"
     inkscape:pageopacity="0.0"
     inkscape:pageshadow="2"
     inkscape:zoom="4.9119411"
     inkscape:cx="25.427169"
     inkscape:cy="24.962088"
     inkscape:window-width="1400"
     inkscape:window-height="992"
     inkscape:window-x="0"
     inkscape:window-y="0"
     inkscape:current-layer="svg1" />
  <defs
     id="defs3">
    <linearGradient
       id="linearGradient889">
      <stop
         style="stop-color:#e6bf00;stop-opacity:1;"
         offset="0"
         id="stop890" />
      <stop
         style="stop-color:#ffff3f;stop-opacity:1;"
         offset="1"
         id="stop891" />
    </linearGradient>
    <linearGradient
       id="linearGradient570">
      <stop
         style="stop-color:#ffffff;stop-opacity:1;"
         offset="0"
         id="stop571" />
      <stop
         style="stop-color:#ffffff;stop-opacity:0;"
         offset="1"
         id="stop572" />
    </linearGradient>
    <linearGradient
       id="linearGradient563">
      <stop
         style="stop-color:#d9cce6;stop-opacity:1;"
         offset="0.00000000"
         id="stop564" />
      <stop
         style="stop-color:#73667f;stop-opacity:1;"
         offset="1.00000000"
         id="stop565" />
    </linearGradient>
    <linearGradient
       x1="2.8592923"
       y1="22.307166"
       x2="40.833647"
       y2="60.020044"
       id="linearGradient566"
       xlink:href="#linearGradient563"
       gradientTransform="matrix(1.343219,0.000000,0.000000,0.744480,-4.520000e-3,2.842170e-14)"
       gradientUnits="userSpaceOnUse" />
    <linearGradient
       x1="3.7585160"
       y1="43.676361"
       x2="18.989812"
       y2="59.117231"
       id="linearGradient569"
       xlink:href="#linearGradient570"
       gradientTransform="matrix(1.575657,0.000000,0.000000,0.634656,-4.520031e-3,2.842170e-14)"
       gradientUnits="userSpaceOnUse" />
    <linearGradient
       x1="3.3961074"
       y1="42.010563"
       x2="21.395618"
       y2="60.208814"
       id="linearGradient573"
       xlink:href="#linearGradient570"
       gradientTransform="matrix(2.224764,0.000000,0.000000,0.449486,-4.520031e-3,2.842170e-14)"
       gradientUnits="userSpaceOnUse" />
    <linearGradient
       x1="28.103264"
       y1="31.002130"
       x2="44.698739"
       y2="47.664779"
       id="linearGradient575"
       xlink:href="#linearGradient570"
       gradientTransform="matrix(1.152344,0.000000,0.000000,0.867797,-4.520031e-3,2.842170e-14)"
       gradientUnits="userSpaceOnUse" />
    <linearGradient
       x1="22.501943"
       y1="57.941819"
       x2="3.1929773"
       y2="37.781382"
       id="linearGradient578"
       xlink:href="#linearGradient889"
       gradientTransform="matrix(1.204335,0.000000,0.000000,0.830334,-4.520000e-3,2.842170e-14)"
       gradientUnits="userSpaceOnUse" />
    <linearGradient
       x1="3.7231191"
       y1="55.865534"
       x2="13.896318"
       y2="65.784210"
       id="linearGradient893"
       xlink:href="#linearGradient570"
       gradientTransform="matrix(1.586948,0.000000,0.000000,0.630140,-4.520000e-3,2.842170e-14)"
       gradientUnits="userSpaceOnUse" />
    <linearGradient
       x1="3.9637471"
       y1="58.350591"
       x2="10.987411"
       y2="65.316003"
       id="linearGradient900"
       xlink:href="#linearGradient570"
       gradientTransform="matrix(1.764100,0.000000,0.000000,0.566861,-4.520000e-3,2.842170e-14)"
       gradientUnits="userSpaceOnUse" />
    <linearGradient
       x1="35.827245"
       y1="36.244849"
       x2="49.531441"
       y2="49.928095"
       id="linearGradient905"
       xlink:href="#linearGradient570"
       gradientTransform="matrix(1.107457,0.000000,0.000000,0.902969,-4.520000e-3,2.842170e-14)"
       gradientUnits="userSpaceOnUse" />
    <radialGradient
       id="radialGradient956"
       xlink:href="#linearGradient889" />
    <linearGradient
       x1="25.658781"
       y1="43.715386"
       x2="38.775283"
       y2="56.982854"
       id="linearGradient957"
       xlink:href="#linearGradient570"
       gradientTransform="matrix(1.418188,0.000000,0.000000,0.705125,-4.520000e-3,2.842170e-14)"
       gradientUnits="userSpaceOnUse" />
    <linearGradient
       id="linearGradient959"
       xlink:href="#linearGradient889"
       x1="51.480465"
       y1="53.488001"
       x2="30.396066"
       y2="32.467433"
       gradientTransform="matrix(1.124619,0.000000,0.000000,0.889190,-4.520000e-3,2.842170e-14)"
       gradientUnits="userSpaceOnUse" />
  </defs>
  <path
     d="M 6.8168970,35.464087 C 7.7300903,36.203122 31.582364,46.697637 33.402049,46.733961 C 35.214108,46.626306 54.198854,35.633646 55.074931,34.452764 C 55.925127,33.446758 56.547879,27.795970 55.541670,27.095165 C 54.422389,26.413720 31.162382,19.633523 30.112228,19.870899 C 28.687542,20.154238 6.9170064,28.651684 6.2722862,29.262491 C 5.8352187,29.774580 6.1443954,34.902345 6.8168970,35.464087 z "
     style="font-size:12.000000px;opacity:0.29999998;fill-rule:evenodd;stroke-width:12.500000"
     id="path904" />
  <path
     d="M 5.3080946,32.697891 C 6.2213283,33.436927 30.073601,43.931440 31.893286,43.967758 C 33.705347,43.860103 52.690085,32.867451 53.566169,31.686569 C 54.416365,30.680554 55.039118,25.029774 54.032909,24.328969 C 52.913627,23.647524 29.653620,16.867327 28.603465,17.104704 C 27.178779,17.388035 5.4082041,25.885488 4.7634830,26.496296 C 4.3264155,27.008377 4.6355929,32.136141 5.3080946,32.697891 z "
     style="font-size:12.000000px;fill:url(#linearGradient566);fill-rule:evenodd;stroke:#261933;stroke-width:1.8811899"
     id="path884" />
  <path
     d="M 53.170767,31.110370 C 54.168450,30.618955 57.471613,32.155710 57.800293,32.889725 C 57.962429,33.471737 58.857671,37.683889 58.439094,38.264301 C 57.902135,38.856144 42.869486,48.105472 42.043672,48.511000 C 41.479917,48.763936 40.422139,48.332116 40.266225,47.787019 C 39.875742,47.183837 39.953898,44.404694 39.358038,43.859201 C 38.712715,43.158194 36.844872,43.120974 36.340815,42.576484 C 36.015545,42.251713 35.611817,41.429410 35.969193,41.108860 C 37.047338,40.284148 52.315154,31.571584 53.170767,31.110370 z "
     style="font-size:12.000000px;opacity:0.29636899;fill-rule:evenodd;stroke-width:12.500000"
     id="path958" />
  <path
     d="M 6.3764588,31.897357 C 6.1525419,31.477474 5.2199849,27.497088 5.8735247,27.539926 C 6.8929975,27.489160 30.470105,37.274545 30.642974,37.598608 C 30.805409,37.903212 14.419011,31.418284 6.8793929,29.425933 C 6.3301563,29.280755 6.4878251,32.106149 6.3764588,31.897357 z "
     style="font-size:12.000000px;opacity:0.69993597;fill:url(#linearGradient569);fill-rule:evenodd;stroke:none;stroke-width:0.10033000pt"
     id="path885" />
  <path
     d="M 10.274178,33.575079 C 9.2094266,33.253923 6.2030482,35.311790 5.9992681,36.089746 C 5.9347157,36.690528 5.7425733,40.992476 6.2507348,41.496334 C 6.8775565,41.992063 23.223671,48.650062 24.104870,48.914633 C 24.702435,49.071647 25.675134,48.472172 25.739446,47.908821 C 26.025686,47.249757 25.492734,44.521076 25.990974,43.885292 C 26.512590,43.087867 28.349028,42.744738 28.756971,42.125001 C 29.024551,41.751267 29.287918,40.873784 28.882784,40.616240 C 27.683941,39.979545 11.193803,33.889615 10.274178,33.575079 z "
     style="font-size:12.000000px;opacity:0.29636899;fill-rule:evenodd;stroke-width:12.500000"
     id="path906" />
  <path
     d="M 32.239927,41.838460 C 32.021508,41.713643 31.822654,37.737569 32.417711,37.215253 C 33.217742,36.690721 52.122118,26.425867 52.332914,26.546363 C 52.536987,26.662940 39.288911,33.644303 33.662406,37.926489 C 32.591282,38.741672 32.436373,41.950724 32.239927,41.838460 z "
     style="font-size:12.000000px;opacity:0.69993597;fill:url(#linearGradient575);fill-rule:evenodd;stroke:none;stroke-width:0.10033000pt"
     id="path887" />
  <path
     d="M 9.0168730,31.940500 C 7.9520706,31.619342 4.9457023,33.677209 4.7419222,34.455174 C 4.6773699,35.055948 4.4852283,39.357896 4.9933898,39.861754 C 5.6202113,40.357483 21.966336,47.015482 22.847534,47.280052 C 23.445100,47.437068 24.417800,46.837599 24.482110,46.274248 C 24.768352,45.615177 24.235398,42.886504 24.733637,42.250711 C 25.255253,41.453286 27.091694,41.110157 27.499635,40.490421 C 27.767215,40.116695 28.030581,39.239204 27.625449,38.981661 C 26.426606,38.344964 9.9364680,32.255035 9.0168730,31.940500 z "
     style="font-size:12.000000px;fill:url(#linearGradient578);fill-rule:evenodd;stroke:#333300;stroke-width:1.8811899"
     id="path888" />
  <path
     d="M 7.8852714,39.484515 L 8.0110046,35.712507 L 10.525606,34.077935 L 11.405801,34.455174 L 8.6396325,36.215464 L 7.8852714,39.484515 z "
     style="font-size:12.000000px;fill:#3f3f00;fill-rule:evenodd;stroke-width:1.0000000pt"
     id="path894" />
  <path
     d="M 10.777032,40.616139 L 10.902845,36.844131 L 13.417518,35.209551 L 14.297712,35.586797 L 11.531514,37.347087 L 10.777032,40.616139 z "
     style="font-size:12.000000px;fill:#3f3f00;fill-rule:evenodd;stroke-width:1.0000000pt"
     id="path895" />
  <path
     d="M 13.794658,41.873472 L 13.920472,38.101464 L 16.435143,36.466892 L 17.315338,36.844131 L 14.549140,38.604421 L 13.794658,41.873472 z "
     style="font-size:12.000000px;fill:#3f3f00;fill-rule:evenodd;stroke-width:1.0000000pt"
     id="path896" />
  <path
     d="M 16.812283,43.130805 L 16.937996,39.358798 L 19.452668,37.724224 L 20.332863,38.101464 L 17.566665,39.861754 L 16.812283,43.130805 z "
     style="font-size:12.000000px;fill:#3f3f00;fill-rule:evenodd;stroke-width:1.0000000pt"
     id="path897" />
  <path
     d="M 19.955622,44.262429 L 20.081436,40.490421 L 22.596107,38.855849 L 23.476302,39.233087 L 20.710104,40.993377 L 19.955622,44.262429 z "
     style="font-size:12.000000px;fill:#3f3f00;fill-rule:evenodd;stroke-width:1.0000000pt"
     id="path898" />
  <path
     d="M 6.2507348,39.107370 C 6.0909994,38.708059 5.6381799,35.182466 6.3764689,35.083841 C 7.2450354,35.122163 22.213751,41.169255 22.344580,41.496233 C 22.465277,41.797921 11.813441,37.664926 7.1308697,36.969841 C 6.4489066,36.868611 6.3424670,39.336726 6.2507348,39.107370 z "
     style="font-size:12.000000px;opacity:0.69993597;fill:url(#linearGradient893);fill-rule:evenodd;stroke:none;stroke-width:0.10033000pt"
     id="path892" />
  <path
     d="M 7.0051464,34.329456 C 7.0284030,34.189897 8.1207660,33.054566 8.7654459,33.197833 C 12.269943,33.976597 19.473837,36.969142 19.452768,37.095559 C 19.431899,37.220670 12.250981,34.754655 8.6397329,33.952216 C 8.1017529,33.832624 6.9865049,34.441324 7.0051464,34.329456 z "
     style="font-size:12.000000px;opacity:0.69993597;fill:url(#linearGradient900);fill-rule:evenodd;stroke:#ffffff;stroke-width:0.10033000pt"
     id="path899" />
  <path
     d="M 52.164862,29.601508 C 53.162545,29.110093 56.465707,30.646848 56.794387,31.380862 C 56.956524,31.962875 57.851766,36.175027 57.433188,36.755438 C 56.896221,37.347281 41.863580,46.596610 41.037763,47.002139 C 40.474010,47.255074 39.416229,46.823253 39.260318,46.278158 C 38.869833,45.674974 38.947989,42.895831 38.352130,42.350338 C 37.706808,41.649332 35.838964,41.612111 35.334906,41.067622 C 35.009636,40.742851 34.605908,39.920548 34.963283,39.599997 C 36.041430,38.775277 51.309248,30.062722 52.164862,29.601508 z "
     style="font-size:12.000000px;fill:url(#linearGradient959);fill-rule:evenodd;stroke:#333300;stroke-width:1.8811899"
     id="path946" />
  <path
     d="M 54.518705,36.857677 L 53.775762,33.157404 L 51.027123,31.957558 L 50.220767,32.474054 L 53.238188,33.756677 L 54.518705,36.857677 z "
     style="font-size:12.000000px;fill:#3f3f00;fill-rule:evenodd;stroke-width:1.0000000pt"
     id="path947" />
  <path
     d="M 51.851633,38.448408 L 51.108789,34.748134 L 48.359948,33.548189 L 47.553492,34.064785 L 50.571115,35.347408 L 51.851633,38.448408 z "
     style="font-size:12.000000px;fill:#3f3f00;fill-rule:evenodd;stroke-width:1.0000000pt"
     id="path948" />
  <path
     d="M 49.081116,40.183712 L 48.338172,36.483446 L 45.589431,35.283593 L 44.783084,35.800096 L 47.800505,37.082712 L 49.081116,40.183712 z "
     style="font-size:12.000000px;fill:#3f3f00;fill-rule:evenodd;stroke-width:1.0000000pt"
     id="path949" />
  <path
     d="M 46.310606,41.919125 L 45.567763,38.218749 L 42.819023,37.018905 L 42.012670,37.535399 L 45.030198,38.818023 L 46.310606,41.919125 z "
     style="font-size:12.000000px;fill:#3f3f00;fill-rule:evenodd;stroke-width:1.0000000pt"
     id="path950" />
  <path
     d="M 43.395518,43.550993 L 42.652575,39.850718 L 39.903833,38.650873 L 39.097482,39.167369 L 42.114907,40.449992 L 43.395518,43.550993 z "
     style="font-size:12.000000px;fill:#3f3f00;fill-rule:evenodd;stroke-width:1.0000000pt"
     id="path951" />
  <path
     d="M 40.324718,45.016814 C 40.112621,44.875442 39.441514,42.068514 39.696051,41.621942 C 40.004164,40.860944 54.592547,32.567161 54.784177,32.694884 C 54.969785,32.818589 44.988960,38.830162 40.827672,42.376328 C 40.169107,42.937472 40.489860,45.126871 40.324718,45.016814 z "
     style="font-size:12.000000px;opacity:0.69999999;fill:url(#linearGradient905);fill-rule:evenodd;stroke:none;stroke-width:0.10033000pt"
     id="path954" />
  <path
     d="M 36.301185,40.113182 C 36.387268,39.919546 47.225115,33.270174 52.772459,30.808776 C 53.553727,30.462142 55.365591,31.512393 55.287134,31.688970 C 55.197936,31.889633 53.183514,31.534870 52.269502,31.940399 C 46.854894,34.342902 36.219617,40.296785 36.301185,40.113182 z "
     style="font-size:12.000000px;opacity:0.69999999;fill:url(#linearGradient957);fill-rule:evenodd;stroke:#ffffff;stroke-width:0.10033000pt"
     id="path955" />
  <path
     d="M 7.2565930,26.911259 C 7.2991533,26.677287 27.731598,18.818044 28.882784,18.738575 C 30.166708,18.641257 47.784852,23.662671 47.742815,23.893636 C 47.700979,24.123691 31.007272,19.911134 28.631257,20.121628 C 24.559264,20.493550 7.2153072,27.138306 7.2565930,26.911259 z "
     style="font-size:12.000000px;opacity:0.69993597;fill:url(#linearGradient573);fill-rule:evenodd;stroke:none;stroke-width:0.10033000pt"
     id="path886" />
</svg>
