<?xml version="1.0" encoding="UTF-8" standalone="no"?>
<!-- Created with Inkscape (http://www.inkscape.org/) -->
<svg
   xmlns:dc="http://purl.org/dc/elements/1.1/"
   xmlns:cc="http://web.resource.org/cc/"
   xmlns:rdf="http://www.w3.org/1999/02/22-rdf-syntax-ns#"
   xmlns:svg="http://www.w3.org/2000/svg"
   xmlns="http://www.w3.org/2000/svg"
   xmlns:xlink="http://www.w3.org/1999/xlink"
   xmlns:sodipodi="http://inkscape.sourceforge.net/DTD/sodipodi-0.dtd"
   xmlns:inkscape="http://www.inkscape.org/namespaces/inkscape"
   id="svg1"
   sodipodi:version="0.32"
   inkscape:version="0.42"
   width="48.000000pt"
   height="48.000000pt"
   sodipodi:docbase="/home/jakob/dev/lila/lila-theme/trunk/lila/kde/scalable/actions"
   sodipodi:docname="bookmark.svg">
  <metadata
     id="metadata32">
    <rdf:RDF>
      <cc:Work
         rdf:about="">
        <dc:format>image/svg+xml</dc:format>
        <dc:type
           rdf:resource="http://purl.org/dc/dcmitype/StillImage" />
      </cc:Work>
    </rdf:RDF>
  </metadata>
  <defs
     id="defs3">
    <linearGradient
       id="linearGradient841">
      <stop
         style="stop-color:#ffffff;stop-opacity:1.0000000;"
         offset="0.0000000"
         id="stop842" />
      <stop
         style="stop-color:#ffffff;stop-opacity:0.0000000;"
         offset="1.0000000"
         id="stop843" />
    </linearGradient>
    <linearGradient
       id="linearGradient834">
      <stop
         style="stop-color:#d9cce6;stop-opacity:1.0000000;"
         offset="0.0000000"
         id="stop835" />
      <stop
         style="stop-color:#73667f;stop-opacity:1.0000000;"
         offset="1.0000000"
         id="stop836" />
    </linearGradient>
    <linearGradient
       id="linearGradient829">
      <stop
         style="stop-color:#f50000;stop-opacity:1.0000000;"
         offset="0.0000000"
         id="stop830" />
      <stop
         style="stop-color:#a80000;stop-opacity:1.0000000;"
         offset="1.0000000"
         id="stop831" />
    </linearGradient>
    <linearGradient
       xlink:href="#linearGradient829"
       id="linearGradient832"
       x1="23.375707"
       y1="28.055854"
       x2="23.921532"
       y2="45.349872"
       gradientTransform="matrix(0.929359,0.000000,0.000000,1.196944,-0.271048,-1.401053)"
       gradientUnits="userSpaceOnUse" />
    <linearGradient
       xlink:href="#linearGradient834"
       id="linearGradient833"
       x1="5.7716726"
       y1="29.899258"
       x2="35.667502"
       y2="29.755064"
       gradientTransform="matrix(1.109066,0.000000,0.000000,1.002998,-0.271048,-1.401053)"
       gradientUnits="userSpaceOnUse" />
    <linearGradient
       xlink:href="#linearGradient841"
       id="linearGradient840"
       x1="8.8772916"
       y1="111.36632"
       x2="8.8425259"
       y2="107.90137"
       spreadMethod="reflect"
       gradientTransform="matrix(2.674155,3.058554e-18,-4.757772e-19,0.415979,-0.409217,-1.367100)"
       gradientUnits="userSpaceOnUse" />
    <radialGradient
       xlink:href="#linearGradient841"
       id="radialGradient844"
       cx="0.50000000"
       cy="0.50000000"
       r="0.50000000"
       fx="0.50000000"
       fy="0.50000000" />
    <linearGradient
       xlink:href="#linearGradient841"
       id="linearGradient849"
       x1="-1.6928485"
       y1="69.326739"
       x2="17.223478"
       y2="91.098075"
       gradientTransform="matrix(2.264544,0.000000,0.000000,0.491221,-0.271048,-1.401053)"
       gradientUnits="userSpaceOnUse" />
    <linearGradient
       xlink:href="#linearGradient841"
       id="linearGradient854"
       x1="-1.5699079"
       y1="-6.0254327"
       x2="34.204351"
       y2="28.926162"
       gradientTransform="matrix(1.172698,0.000000,0.000000,0.948574,-0.271048,-1.401053)"
       gradientUnits="userSpaceOnUse" />
    <linearGradient
       xlink:href="#linearGradient834"
       id="linearGradient922"
       x1="4.8208952"
       y1="24.082205"
       x2="50.163210"
       y2="24.082205"
       gradientTransform="matrix(1.078855,0.000000,0.000000,1.031083,-0.271048,-1.401053)"
       gradientUnits="userSpaceOnUse" />
  </defs>
  <sodipodi:namedview
     id="base"
     pagecolor="#ffffff"
     bordercolor="#666666"
     borderopacity="1.0"
     inkscape:pageopacity="0.0"
     inkscape:pageshadow="2"
     inkscape:zoom="8.0000000"
     inkscape:cx="23.482422"
     inkscape:cy="31.101894"
     inkscape:window-width="895"
     inkscape:window-height="711"
     inkscape:window-x="61"
     inkscape:window-y="70"
     inkscape:current-layer="svg1" />
  <path
     style="fill:#000000;fill-opacity:0.29770991;fill-rule:evenodd;stroke:none;stroke-width:1.7712934"
     d="M 20.710024,7.9316396 C 19.694757,7.9316396 18.877408,8.7489872 18.877408,9.7642542 L 7.3072915,46.551095 L 8.3716248,48.575780 L 44.705122,54.370280 C 45.720389,54.370280 46.537737,53.552933 46.537737,52.537667 L 58.876137,15.558753 C 58.876137,14.543486 58.058790,13.726139 57.043523,13.726139 L 20.710024,7.9316396 z "
     id="path1026"
     sodipodi:nodetypes="ccccccccc" />
  <path
     style="fill:url(#linearGradient833);fill-rule:evenodd;stroke:#261933;stroke-width:1.8750000;stroke-dasharray:none;stroke-opacity:1.0000000"
     d="M 19.902653,6.4408411 C 18.934272,6.4408411 18.154673,7.2204395 18.154673,8.1888184 L 7.1188972,43.276734 L 8.1340774,45.207913 L 42.789585,50.734806 C 43.757964,50.734806 44.537564,49.955207 44.537564,48.986828 L 56.306140,13.715710 C 56.306140,12.747330 55.526542,11.967732 54.558161,11.967732 L 19.902653,6.4408411 z "
     id="path866"
     sodipodi:nodetypes="ccccccccc" />
  <path
     style="fill:#ffffff;fill-rule:evenodd;stroke:#261933;stroke-width:0.98454994;stroke-opacity:1.0000000"
     d="M 21.592247,5.3023948 C 20.623866,5.3023948 19.844266,6.0819950 19.844266,7.0503740 L 8.0756893,42.321492 C 8.0756893,43.289873 8.8552888,44.069472 9.8236684,44.069472 L 39.989846,47.764364 C 40.958227,47.764364 41.737827,46.984766 41.737827,46.016385 L 53.506403,10.745266 C 53.506403,9.7768860 52.726804,8.9972873 51.758423,8.9972873 L 21.592247,5.3023948 z "
     id="path856"
     sodipodi:nodetypes="ccccccccc" />
  <path
     style="fill:url(#linearGradient832);fill-opacity:1.0000000;fill-rule:evenodd;stroke:#000000;stroke-width:1.8750000;stroke-linecap:square;stroke-dasharray:none"
     d="M 15.206953,34.566519 C 12.283040,36.382983 11.282276,42.642992 11.282276,46.681229 C 11.282276,50.719468 13.394674,56.890115 15.206953,58.795941 C 15.990683,59.620127 17.469334,54.871265 19.070304,54.871265 C 22.661353,54.871265 29.504759,60.140171 30.783010,58.795941 C 32.100769,57.410160 26.858333,50.719468 26.858333,46.681229 C 26.858333,42.642992 32.530002,36.382983 30.783010,34.566519 C 28.646209,32.344745 18.783284,32.344745 15.206953,34.566519 z "
     id="path828"
     sodipodi:nodetypes="csssssss" />
  <rect
     style="opacity:0.70202023;fill:url(#linearGradient840);fill-opacity:1.0000000;fill-rule:evenodd;stroke-width:1.0000000pt"
     id="rect846"
     width="15.576114"
     height="2.4229505"
     x="15.447874"
     y="43.831993"
     ry="1.1486454"
     transform="matrix(0.995030,9.957990e-2,-9.957990e-2,0.995030,0.000000,0.000000)"
     rx="1.1486454" />
  <path
     style="fill:none;fill-opacity:1.0000000;fill-rule:evenodd;stroke:#330000;stroke-width:1.9690998;stroke-linecap:square;stroke-opacity:1.0000000"
     d="M 15.206953,34.566519 C 12.283040,36.382983 11.282276,42.642992 11.282276,46.681229 C 11.282276,50.719468 13.394674,56.890115 15.206953,58.795941 C 15.990683,59.620127 17.469334,54.871265 19.070304,54.871265 C 22.661353,54.871265 29.504759,60.140171 30.783010,58.795941 C 32.100769,57.410160 26.858333,50.719468 26.858333,46.681229 C 26.858333,42.642992 32.530002,36.382983 30.783010,34.566519 C 28.646209,32.344745 18.783284,32.344745 15.206953,34.566519 z "
     id="path845"
     sodipodi:nodetypes="csssssss" />
  <path
     style="fill:#ffffff;fill-rule:evenodd;stroke:#261933;stroke-width:0.98454994;stroke-opacity:1.0000000"
     d="M 21.493117,3.8917351 C 20.524735,3.8917351 19.745136,4.6713341 19.745136,5.6397176 L 7.9765609,40.910834 C 7.9765609,41.879214 8.7561603,42.658815 9.7245394,42.658815 L 38.623375,45.484288 C 39.591755,45.484288 40.371355,44.704690 40.371355,43.736309 L 52.139930,8.4651917 C 52.139930,7.4968086 51.360332,6.7172102 50.391950,6.7172102 L 21.493117,3.8917351 z "
     id="path855"
     sodipodi:nodetypes="ccccccccc" />
  <path
     style="fill:#ffffff;fill-rule:evenodd;stroke:#261933;stroke-width:0.98455000;stroke-opacity:1.0000000"
     d="M 21.126715,2.2716888 C 20.158335,2.2716888 19.378735,3.0512892 19.378735,4.0196669 L 7.6101599,39.290788 C 7.6101599,40.259169 8.3897588,41.038767 9.3581401,41.038767 L 37.890571,43.237169 C 38.858954,43.237169 39.638552,42.457570 39.638552,41.489189 L 51.407128,6.2180690 C 51.407128,5.2496907 50.627529,4.4700907 49.659150,4.4700907 L 21.126715,2.2716888 z "
     id="path826"
     sodipodi:nodetypes="ccccccccc" />
  <path
     style="fill:url(#linearGradient922);fill-opacity:1.0000000;fill-rule:evenodd;stroke:#261933;stroke-width:1.8750000;stroke-dasharray:none;stroke-opacity:1.0000000"
     d="M 19.663145,1.0426349 C 18.694767,1.0426349 17.904424,1.7963356 17.904424,2.7647161 L 6.2895360,37.609381 C 5.5534352,39.817684 6.1176789,42.251323 6.2527309,44.247113 C 6.2784601,45.114552 8.1501635,45.823715 9.1474583,45.816746 L 9.0558576,42.726799 C 8.9455929,39.007231 9.5853740,39.613816 13.118718,39.636851 L 39.338839,39.807782 C 40.307219,39.807780 41.097560,39.017441 41.097560,38.049061 L 52.859008,2.7647161 C 52.859009,1.7963355 52.105306,1.0426349 51.136926,1.0426349 L 19.663145,1.0426349 z "
     id="path924"
     sodipodi:nodetypes="ccsccssccccc" />
  <path
     style="fill:url(#linearGradient854);fill-opacity:0.29999998;fill-rule:evenodd;stroke:none;stroke-width:1.7712935"
     d="M 10.398047,32.963563 C 12.158474,29.338188 17.396492,10.554839 23.973533,6.3833501 C 28.345840,3.7320019 45.061846,3.8586296 47.781569,2.9878598 C 48.622644,2.7586353 29.852782,2.3673398 20.920000,3.7866885 C 18.756313,5.7683449 9.2993649,35.266581 10.398047,32.963563 z "
     id="path910"
     sodipodi:nodetypes="csscs" />
  <path
     style="fill:url(#linearGradient849);fill-opacity:1.0000000;fill-rule:evenodd;stroke:none;stroke-width:1.0000000pt;stroke-linecap:butt;stroke-linejoin:miter;stroke-opacity:1.0000000"
     d="M 7.4279808,43.550274 C 7.5954976,43.449764 7.7809703,39.044158 9.0637632,38.496555 C 16.204576,36.169358 39.045718,38.238072 39.045718,37.902502 C 39.045718,37.566338 9.4098552,35.879715 8.1293498,37.103023 C 7.2136262,38.070482 7.1523473,43.715653 7.4279808,43.550274 z "
     id="path925"
     sodipodi:nodetypes="cssss" />
</svg>
