<?xml version="1.0" encoding="UTF-8" standalone="no"?>
<!DOCTYPE svg PUBLIC "-//W3C//DTD SVG 20010904//EN"
"http://www.w3.org/TR/2001/REC-SVG-20010904/DTD/svg10.dtd">
<!-- Created with Inkscape (http://www.inkscape.org/) -->
<svg
   version="1.0"
   x="0"
   y="0"
   width="48pt"
   height="48pt"
   id="svg1418"
   sodipodi:version="0.32"
   inkscape:version="0.40"
   sodipodi:docname="kedit.svg"
   sodipodi:docbase="/home/jakob/dev/lila-cvs/lila-theme/trunk/lila/kde/scalable/apps"
   xmlns="http://www.w3.org/2000/svg"
   xmlns:cc="http://web.resource.org/cc/"
   xmlns:inkscape="http://www.inkscape.org/namespaces/inkscape"
   xmlns:sodipodi="http://sodipodi.sourceforge.net/DTD/sodipodi-0.dtd"
   xmlns:rdf="http://www.w3.org/1999/02/22-rdf-syntax-ns#"
   xmlns:dc="http://purl.org/dc/elements/1.1/"
   xmlns:xlink="http://www.w3.org/1999/xlink">
  <metadata
     id="metadata34">
    <rdf:RDF
       id="RDF35">
      <cc:Work
         rdf:about=""
         id="Work36">
        <dc:format
           id="format37">image/svg+xml</dc:format>
        <dc:type
           id="type39"
           rdf:resource="http://purl.org/dc/dcmitype/StillImage" />
      </cc:Work>
    </rdf:RDF>
  </metadata>
  <sodipodi:namedview
     id="base"
     pagecolor="#ffffff"
     bordercolor="#666666"
     borderopacity="1.0"
     inkscape:pageopacity="0.0"
     inkscape:pageshadow="2"
     inkscape:zoom="4.9119411"
     inkscape:cx="17.457656"
     inkscape:cy="24.037603"
     inkscape:window-width="640"
     inkscape:window-height="543"
     inkscape:window-x="155"
     inkscape:window-y="70"
     inkscape:current-layer="svg1418" />
  <defs
     id="defs1420">
    <linearGradient
       id="linearGradient621">
      <stop
         style="stop-color:#ffffff;stop-opacity:1;"
         offset="0.00000000"
         id="stop622" />
      <stop
         style="stop-color:#d9cce6;stop-opacity:1;"
         offset="1.00000000"
         id="stop623" />
    </linearGradient>
    <linearGradient
       id="linearGradient1439">
      <stop
         style="stop-color:#ffffff;stop-opacity:1;"
         offset="0"
         id="stop1440" />
      <stop
         style="stop-color:#ffffff;stop-opacity:0;"
         offset="1"
         id="stop1441" />
    </linearGradient>
    <linearGradient
       id="linearGradient1432">
      <stop
         style="stop-color:#7f7f7f;stop-opacity:1;"
         offset="0"
         id="stop1433" />
      <stop
         style="stop-color:#e6e6e6;stop-opacity:1;"
         offset="1"
         id="stop1434" />
    </linearGradient>
    <linearGradient
       id="linearGradient1428">
      <stop
         style="stop-color:#f50000;stop-opacity:1;"
         offset="0.00000000"
         id="stop1429" />
      <stop
         style="stop-color:#a90000;stop-opacity:1;"
         offset="1.00000000"
         id="stop1430" />
    </linearGradient>
    <linearGradient
       id="linearGradient1422">
      <stop
         style="stop-color:#d7a600;stop-opacity:1;"
         offset="0.00000000"
         id="stop1423" />
      <stop
         style="stop-color:#fff300;stop-opacity:1;"
         offset="1.00000000"
         id="stop1424" />
    </linearGradient>
    <linearGradient
       x1="46.900311"
       y1="25.839272"
       x2="35.574115"
       y2="13.769793"
       id="linearGradient1425"
       xlink:href="#linearGradient1422"
       gradientTransform="matrix(-0.980436,0.000000,0.000000,1.019954,59.60288,4.580674)"
       gradientUnits="userSpaceOnUse" />
    <linearGradient
       x1="43.707467"
       y1="4.3865030"
       x2="51.636496"
       y2="12.439423"
       id="linearGradient1427"
       xlink:href="#linearGradient1428"
       gradientTransform="matrix(-1.097184,0.000000,0.000000,0.911424,59.60288,4.580674)"
       gradientUnits="userSpaceOnUse" />
    <linearGradient
       x1="49.752802"
       y1="15.538123"
       x2="40.870128"
       y2="7.2425753"
       id="linearGradient1435"
       xlink:href="#linearGradient1432"
       gradientTransform="matrix(-1.095210,0.000000,0.000000,0.913067,59.60288,4.580674)"
       gradientUnits="userSpaceOnUse" />
    <linearGradient
       x1="26.916558"
       y1="5.2246840"
       x2="55.448879"
       y2="33.534111"
       id="linearGradient1438"
       xlink:href="#linearGradient1439"
       gradientTransform="matrix(-0.994299,0.000000,0.000000,1.005734,59.60288,4.580674)"
       gradientUnits="userSpaceOnUse" />
    <linearGradient
       id="linearGradient1443"
       xlink:href="#linearGradient1439"
       x1="5.9018727"
       y1="8.2937856"
       x2="40.884029"
       y2="44.108850"
       gradientTransform="matrix(0.999604,0.000000,0.000000,1.000396,8.143420,0.000000)"
       gradientUnits="userSpaceOnUse" />
    <linearGradient
       xlink:href="#linearGradient621"
       id="linearGradient620"
       x1="3.2442242"
       y1="5.2500915"
       x2="51.438328"
       y2="52.651875"
       gradientTransform="matrix(0.942431,0.000000,0.000000,1.061086,8.143420,0.000000)"
       gradientUnits="userSpaceOnUse" />
  </defs>
  <path
     d="M 12.066519,47.466839 C 12.779827,49.597913 42.318598,59.180286 44.258034,57.572268 C 45.994035,56.117789 58.983707,12.825130 58.113958,11.108181 C 57.209885,9.2152470 27.240766,4.5002744 25.818260,5.7949886 C 24.066037,7.3991396 11.317361,45.021709 12.066519,47.466839 z "
     style="font-size:12.000000;opacity:0.30267498;fill-rule:evenodd;stroke-width:12.500000"
     id="path639" />
  <path
     d="M 12.168062,45.703028 C 12.835452,47.696809 40.471206,56.661857 42.285690,55.157431 C 43.909850,53.796656 56.062694,13.293049 55.248981,11.686678 C 54.403148,9.9156919 26.364735,5.5045082 25.033872,6.7158123 C 23.394534,8.2166194 11.467167,43.415422 12.168062,45.703028 z "
     style="font-size:12.000000;fill:url(#linearGradient620);fill-rule:evenodd;stroke:#261933;stroke-width:1.8750000"
     id="path634" />
  <path
     d="M 14.048310,43.835426 C 13.759893,43.104741 25.219695,9.1313354 26.291059,8.4307140 C 27.630039,7.5169330 49.275579,11.562070 49.563318,12.291040 C 49.827054,12.959164 32.675375,9.8393670 28.859521,13.252549 C 21.541047,19.614898 14.311369,44.501871 14.048310,43.835426 z "
     style="font-size:12.000000;opacity:0.69993597;fill:url(#linearGradient1443);fill-rule:evenodd;stroke:none;stroke-width:0.10012100pt"
     id="path640" />
  <path
     d="M 33.130750,42.857292 C 32.287446,43.613356 28.454776,42.737972 26.914674,41.324526 C 17.754112,32.917151 6.5574676,22.307619 1.0286926,13.394910 C -0.027576371,11.692118 5.4673926,8.1877435 7.1596126,9.4779467 C 15.742338,16.021707 24.423814,27.347744 31.853457,36.896690 C 33.080835,38.474191 33.933706,42.137408 33.130750,42.857292 z "
     style="font-size:12.000000;opacity:0.29999998;fill:#3f3f19;fill-rule:evenodd;stroke-width:12.500000"
     id="path1442" />
  <path
     d="M 34.578358,41.750315 C 33.735052,42.506380 29.902384,41.630996 28.362282,40.217549 C 19.201719,31.810175 8.0050756,21.200643 2.4763066,12.287934 C 1.4200286,10.585140 6.9149986,7.0807740 8.6072206,8.3709763 C 17.189943,14.914730 25.871421,26.240766 33.301065,35.789713 C 34.528442,37.367215 35.381321,41.030432 34.578358,41.750315 z "
     style="font-size:12.000000;fill:url(#linearGradient1425);fill-rule:evenodd;stroke:#3f3f19;stroke-width:1.8750000"
     id="path1421" />
  <path
     d="M 11.821636,11.649323 C 11.758989,12.291098 6.3486726,16.110461 5.6482076,16.034582 C 5.4136676,16.023433 2.7517716,12.089640 2.7742846,11.819638 C 2.9220136,10.303775 5.8913086,8.5468737 7.7556466,8.5199817 C 8.8155846,8.5045177 11.841339,11.468794 11.821636,11.649323 z "
     style="font-size:12.000000;fill:url(#linearGradient1427);fill-rule:evenodd;stroke-width:1.0000000pt"
     id="path1426" />
  <path
     d="M 14.470869,14.215056 C 14.404482,14.895238 8.6700826,18.943389 7.9276866,18.862980 C 7.6791176,18.851183 5.4598446,16.126859 5.4837926,15.840675 C 5.6403676,14.233973 9.8222296,11.471528 11.787037,11.560641 C 12.190461,11.572940 14.491730,14.023739 14.470869,14.215056 z "
     style="font-size:12.000000;fill:url(#linearGradient1435);fill-rule:evenodd;stroke:#3f3f19;stroke-width:1.1250000"
     id="path1431" />
  <ellipse
     cx="152.36185"
     cy="565.56213"
     rx="26.788887"
     ry="26.788879"
     transform="matrix(-8.379811e-2,0.000000,0.000000,8.379811e-2,47.09079,-5.723996)"
     style="font-size:12.000000;fill:#3f3f19;fill-rule:evenodd;stroke-width:1.0000000pt"
     id="path1436"
     sodipodi:cx="152.36185"
     sodipodi:cy="565.56213"
     sodipodi:rx="26.788887"
     sodipodi:ry="26.788879" />
  <path
     d="M 33.301065,38.770011 C 29.607999,32.197482 17.364072,17.206145 8.1813606,9.3927677 C 7.1743556,8.4354925 4.0384126,10.484088 4.0089966,10.925483 C 3.9816706,11.335591 7.0272706,11.012151 8.0110486,11.947303 C 16.791343,20.293685 30.166776,34.373965 33.301065,38.770011 z "
     style="font-size:12.000000;opacity:0.99000001;fill:url(#linearGradient1438);fill-rule:evenodd;stroke:none;stroke-width:0.10687400pt"
     id="path1437" />
</svg>
