<?xml version="1.0" encoding="UTF-8" standalone="no"?>
<!DOCTYPE svg PUBLIC "-//W3C//DTD SVG 20010904//EN"
"http://www.w3.org/TR/2001/REC-SVG-20010904/DTD/svg10.dtd">
<!-- Created with Inkscape (http://www.inkscape.org/) -->
<svg
   id="svg1"
   sodipodi:version="0.32"
   inkscape:version="0.37"
   width="48pt"
   height="48pt"
   sodipodi:docbase="/home/tom"
   sodipodi:docname="keditbookmarks.svg"
   xmlns="http://www.w3.org/2000/svg"
   xmlns:inkscape="http://www.inkscape.org/namespaces/inkscape"
   xmlns:sodipodi="http://sodipodi.sourceforge.net/DTD/sodipodi-0.dtd"
   xmlns:xlink="http://www.w3.org/1999/xlink">
  <defs
     id="defs3">
    <linearGradient
       id="linearGradient916">
      <stop
         style="stop-color:#cccccc;stop-opacity:1;"
         offset="0.00000000"
         id="stop917" />
      <stop
         style="stop-color:#7f7f7f;stop-opacity:1;"
         offset="1.00000000"
         id="stop918" />
    </linearGradient>
    <linearGradient
       id="linearGradient866">
      <stop
         style="stop-color:#ffffff;stop-opacity:1;"
         offset="0.00000000"
         id="stop867" />
      <stop
         style="stop-color:#d9d1e1;stop-opacity:1;"
         offset="1.00000000"
         id="stop868" />
    </linearGradient>
    <linearGradient
       id="linearGradient584">
      <stop
         style="stop-color:#ffffff;stop-opacity:1;"
         offset="0.00000000"
         id="stop585" />
      <stop
         style="stop-color:#ffffff;stop-opacity:0;"
         offset="1.00000000"
         id="stop586" />
    </linearGradient>
    <linearGradient
       id="linearGradient578">
      <stop
         style="stop-color:#d9cce6;stop-opacity:1;"
         offset="0.00000000"
         id="stop579" />
      <stop
         style="stop-color:#73667f;stop-opacity:1;"
         offset="1.00000000"
         id="stop580" />
    </linearGradient>
    <linearGradient
       xlink:href="#linearGradient584"
       id="linearGradient581"
       x1="0.00649351"
       y1="0.00000000"
       x2="0.96753246"
       y2="0.97674417" />
    <linearGradient
       xlink:href="#linearGradient584"
       id="linearGradient583"
       x1="-0.03076923"
       y1="0.02325581"
       x2="0.97692305"
       y2="1.03100777" />
    <linearGradient
       xlink:href="#linearGradient584"
       id="linearGradient860"
       x1="-0.01219512"
       y1="0.00775194"
       x2="0.98780489"
       y2="0.99224806" />
    <linearGradient
       xlink:href="#linearGradient578"
       id="linearGradient861"
       x1="0.01562500"
       y1="0.01550388"
       x2="0.98437500"
       y2="0.97674417" />
    <linearGradient
       xlink:href="#linearGradient866"
       id="linearGradient862"
       x1="0.00617284"
       y1="0.01550388"
       x2="1.00000000"
       y2="0.96899223" />
    <linearGradient
       xlink:href="#linearGradient578"
       id="linearGradient869"
       x1="0.00641026"
       y1="0.01550388"
       x2="0.97435898"
       y2="0.95348835" />
    <linearGradient
       xlink:href="#linearGradient578"
       id="linearGradient915"
       x1="0.97727275"
       y1="0.98449612"
       x2="-0.01136364"
       y2="0.01550388" />
  </defs>
  <sodipodi:namedview
     id="base"
     pagecolor="#ffffff"
     bordercolor="#666666"
     borderopacity="1.0"
     inkscape:pageopacity="0.0"
     inkscape:pageshadow="2"
     inkscape:zoom="5.64233871"
     inkscape:cx="26.4570221"
     inkscape:cy="23.7684994"
     inkscape:window-width="1018"
     inkscape:window-height="711"
     inkscape:window-x="0"
     inkscape:window-y="30" />
  <path
     d="M 25.869298 19.028548 C 39.171813 16.624629 49.040427 8.6889807 51.77969 10.922556 C 52.520984 11.560589 42.167651 17.37142 35.857161 19.462951 C 33.723828 20.169908 25.233098 19.142295 25.869298 19.028548 z "
     style="font-size:12;opacity:0.699936;fill:url(#linearGradient583);fill-rule:evenodd;stroke:none;stroke-width:1pt;"
     id="path568" />
  <path
     d="M 31.050487 17.486298 C 28.069178 11.324393 22.782783 7.5216311 15.8499 7.0890787 C 6.9399541 7.5603684 3.6280718 16.232499 4.706827 25.803349 C 8.8753543 43.695065 17.544285 49.566376 30.933153 59.144914 C 45.791873 49.468234 54.5037 43.948145 58.385824 26.070627 C 58.201654 16.552725 56.700279 7.7088651 45.978572 7.2905257 C 37.050969 7.3189088 33.282366 11.279201 31.050487 17.486298 z "
     style="font-size:12;fill-opacity:0.25;fill-rule:evenodd;stroke-width:1.875;stroke-opacity:0.25;"
     id="path623" />
  <path
     d="M 29.217728 14.24638 C 26.236419 8.0844737 20.950024 4.2817133 14.017141 3.8491609 C 5.1071949 4.3204506 1.7953125 12.99258 2.8740677 22.563431 C 7.0425967 40.455148 15.711527 46.326458 29.100395 55.904997 C 43.959113 46.228317 52.67094 40.708227 56.553065 22.830709 C 57.701803 13.312808 54.86752 4.4689473 44.145813 4.0506079 C 35.218209 4.078991 31.449606 8.0392829 29.217728 14.24638 z "
     style="font-size:12;fill:url(#linearGradient869);fill-rule:evenodd;stroke:#261933;stroke-width:1.91207;"
     id="path618" />
  <path
     d="M 15.170203 5.6886197 C 12.093394 5.8700745 7.8523427 7.3225132 6.0950104 12.031853 C 3.971661 17.394722 4.332031 22.439846 6.0118778 26.928912 C 6.0229099 22.159546 7.752531 16.318954 10.330414 12.390486 C 12.825101 10.005802 15.396604 8.4480711 23.513172 10.026764 C 19.987632 6.3643855 17.659307 6.0568238 15.170203 5.6886197 z "
     style="font-size:12;fill:url(#linearGradient583);fill-opacity:0.75;fill-rule:evenodd;stroke-width:1pt;"
     id="path619" />
  <path
     d="M 29.362149 15.088018 C 29.362149 27.408 29.172492 43.490337 29.172492 55.810319 C 37.770825 49.669052 41.020501 49.180005 48.08211 40.904271 C 51.375088 37.571511 55.203585 28.79015 56.411011 23.547605 C 55.825592 19.840376 56.535596 12.304759 51.340008 6.3507245 C 43.766158 3.9541325 36.211771 0.86427433 29.362149 15.088018 z "
     style="font-size:12;fill:#261e2e;fill-opacity:0.1;fill-rule:evenodd;stroke-width:1pt;"
     id="path622" />
  <path
     d="M 52.436595 29.976049 C 47.915567 40.155142 46.112321 40.627633 43.112051 44.128904 C 38.794591 47.948472 36.234102 49.846325 31.258046 52.767172 C 35.831627 48.947603 37.58268 47.162823 40.795307 44.130004 C 45.189711 39.059641 47.384316 38.075196 52.436595 29.976049 z "
     style="font-size:12;fill:url(#linearGradient612);fill-opacity:0.75;fill-rule:evenodd;stroke-width:1pt;"
     id="path620" />
  <path
     d="M 43.236566 5.8909051 C 40.159758 6.0723598 32.756297 8.3339424 31.196617 15.066141 C 36.781634 10.112428 38.487176 9.6435179 41.756836 8.547053 C 45.140948 7.9829437 46.921851 8.0434992 52.567787 9.9256203 C 49.042247 6.2632422 46.120972 5.753394 43.236566 5.8909051 z "
     style="font-size:12;fill:url(#linearGradient583);fill-opacity:0.75;fill-rule:evenodd;stroke-width:1pt;"
     id="path591" />
  <g
     id="g762"
     transform="matrix(0.787910,0.000000,0.000000,0.787910,14.70284,-1.519529)">
    <sodipodi:namedview
       id="namedview763"
       pagecolor="#ffffff"
       bordercolor="#666666"
       borderopacity="1.0"
       inkscape:pageopacity="0.0"
       inkscape:pageshadow="2"
       inkscape:zoom="6.94653375"
       inkscape:cx="25.5516764"
       inkscape:cy="23.2641839"
       inkscape:window-width="640"
       inkscape:window-height="500"
       inkscape:window-x="163"
       inkscape:window-y="150" />
    <defs
       id="defs1420">
      <linearGradient
         id="linearGradient1439">
        <stop
           style="stop-color:#ffffff;stop-opacity:1;"
           offset="0"
           id="stop1440" />
        <stop
           style="stop-color:#ffffff;stop-opacity:0;"
           offset="1"
           id="stop1441" />
      </linearGradient>
      <linearGradient
         id="linearGradient1432">
        <stop
           style="stop-color:#7f7f7f;stop-opacity:1;"
           offset="0"
           id="stop1433" />
        <stop
           style="stop-color:#e6e6e6;stop-opacity:1;"
           offset="1"
           id="stop1434" />
      </linearGradient>
      <linearGradient
         id="linearGradient1428">
        <stop
           style="stop-color:#f50000;stop-opacity:1;"
           offset="0.00000000"
           id="stop1429" />
        <stop
           style="stop-color:#a90000;stop-opacity:1;"
           offset="1.00000000"
           id="stop1430" />
      </linearGradient>
      <linearGradient
         id="linearGradient1422">
        <stop
           style="stop-color:#d7a600;stop-opacity:1;"
           offset="0.00000000"
           id="stop1423" />
        <stop
           style="stop-color:#fff300;stop-opacity:1;"
           offset="1.00000000"
           id="stop1424" />
      </linearGradient>
      <linearGradient
         x1="0.64516127"
         y1="0.66406250"
         x2="0.32258064"
         y2="0.32031250"
         id="linearGradient1425"
         xlink:href="#linearGradient1422" />
      <linearGradient
         x1="0.01923077"
         y1="0.00781250"
         x2="0.98076922"
         y2="0.98437500"
         id="linearGradient1427"
         xlink:href="#linearGradient1428" />
      <linearGradient
         x1="0.98101264"
         y1="0.92187500"
         x2="0.01898734"
         y2="0.02343750"
         id="linearGradient1435"
         xlink:href="#linearGradient1432" />
      <linearGradient
         x1="0.015748"
         y1="0.023437"
         x2="0.984252"
         y2="0.984375"
         id="linearGradient1438"
         xlink:href="#linearGradient1439" />
      <linearGradient
         id="linearGradient1443"
         xlink:href="#linearGradient1439" />
    </defs>
    <path
       d="M 9.6825261 55.573998 C 10.935623 56.69746 16.630724 55.396696 18.919217 53.296405 C 32.531226 40.803584 49.168722 25.0385 57.384129 11.794783 C 58.953677 9.2645422 50.788505 4.0572676 48.273973 5.9744273 C 35.520595 15.698035 22.620476 32.527802 11.580501 46.716925 C 9.7566964 49.06099 8.4893852 54.504297 9.6825261 55.573998 z "
       style="font-size:12;opacity:0.3;fill:#3f3f19;fill-rule:evenodd;stroke-width:12.5;"
       id="path1442" />
    <path
       d="M 7.5314734 53.929102 C 8.7845708 55.052565 14.479671 53.7518 16.768164 51.651509 C 30.380174 39.158689 47.01767 23.393603 55.233067 10.149887 C 56.802626 7.6196444 48.637454 2.4123812 46.122921 4.3295397 C 33.369544 14.053138 20.469423 30.882904 9.4294481 45.072029 C 7.6056437 47.416094 6.3383211 52.859401 7.5314734 53.929102 z "
       style="font-size:12;fill:url(#linearGradient1425);fill-rule:evenodd;stroke:#3f3f19;stroke-width:1.875;stroke-dasharray:none;"
       id="path1421" />
    <path
       d="M 41.346506 9.2009518 C 41.439595 10.154589 49.478978 15.829917 50.519825 15.717165 C 50.868337 15.7006 54.823742 9.8552351 54.79029 9.4540298 C 54.570773 7.2015545 50.158592 4.5909111 47.388305 4.5509508 C 45.813304 4.5279734 41.317229 8.9326982 41.346506 9.2009518 z "
       style="font-size:12;fill:url(#linearGradient1427);fill-rule:evenodd;stroke-width:1pt;"
       id="path1426" />
    <path
       d="M 37.409915 13.013467 C 37.508561 14.024174 46.029512 20.039469 47.132666 19.919984 C 47.502023 19.902457 50.799721 15.854284 50.764135 15.429033 C 50.531474 13.041576 44.317495 8.93676 41.397917 9.0691765 C 40.798455 9.0874521 37.378916 12.729182 37.409915 13.013467 z "
       style="font-size:12;fill:url(#linearGradient1435);fill-rule:evenodd;stroke-width:1pt;stroke:#3f3f19;stroke-opacity:1;"
       id="path1431" />
    <ellipse
       cx="152.361847"
       cy="565.562134"
       rx="26.788887"
       ry="26.788879"
       transform="matrix(0.106874,0.000000,0.000000,0.106874,-8.278306,-7.108241)"
       style="font-size:12;fill:#3f3f19;fill-rule:evenodd;stroke-width:1pt;"
       id="path1436" />
    <path
       d="M 9.4294481 49.50056 C 14.917107 39.734202 33.110801 17.458035 46.755722 5.8478558 C 48.252067 4.4254061 52.911878 7.4694875 52.955587 8.1253725 C 52.996193 8.7347676 48.470625 8.2541551 47.008794 9.6437308 C 33.961841 22.045921 14.086803 42.968316 9.4294481 49.50056 z "
       style="font-size:12;opacity:0.990000;fill:url(#linearGradient1438);fill-rule:evenodd;stroke:none;stroke-width:0.106874pt;"
       id="path1437" />
  </g>
</svg>
