<?xml version="1.0" encoding="UTF-8" standalone="no"?>
<!DOCTYPE svg PUBLIC "-//W3C//DTD SVG 20010904//EN"
"http://www.w3.org/TR/2001/REC-SVG-20010904/DTD/svg10.dtd">
<!-- Created with Inkscape (http://www.inkscape.org/) -->
<svg
   id="svg1"
   sodipodi:version="0.32"
   inkscape:version="0.38"
   width="48pt"
   height="48pt"
   sodipodi:docbase="/home/tom/Pics/lilasvg/scalable/apps"
   sodipodi:docname="klipper.svg"
   xmlns="http://www.w3.org/2000/svg"
   xmlns:inkscape="http://www.inkscape.org/namespaces/inkscape"
   xmlns:sodipodi="http://sodipodi.sourceforge.net/DTD/sodipodi-0.dtd"
   xmlns:xlink="http://www.w3.org/1999/xlink">
  <defs
     id="defs3">
    <linearGradient
       id="linearGradient1411">
      <stop
         style="stop-color:#c7b397;stop-opacity:1;"
         offset="0.00000000"
         id="stop1412" />
      <stop
         style="stop-color:#faebdc;stop-opacity:1;"
         offset="1.00000000"
         id="stop1413" />
    </linearGradient>
    <linearGradient
       id="linearGradient1407">
      <stop
         style="stop-color:#cccccc;stop-opacity:1;"
         offset="0.00000000"
         id="stop1408" />
      <stop
         style="stop-color:#7f7f7f;stop-opacity:1;"
         offset="1.00000000"
         id="stop1409" />
    </linearGradient>
    <linearGradient
       id="linearGradient584">
      <stop
         style="stop-color:#ffffff;stop-opacity:1;"
         offset="0.00000000"
         id="stop585" />
      <stop
         style="stop-color:#ffffff;stop-opacity:0;"
         offset="1.00000000"
         id="stop586" />
    </linearGradient>
    <linearGradient
       id="linearGradient578">
      <stop
         style="stop-color:#faf8fd;stop-opacity:1;"
         offset="0.00000000"
         id="stop579" />
      <stop
         style="stop-color:#d9cce6;stop-opacity:1;"
         offset="1.00000000"
         id="stop580" />
    </linearGradient>
    <linearGradient
       xlink:href="#linearGradient578"
       id="linearGradient581"
       x1="0.01724138"
       y1="0.02325581"
       x2="0.97413790"
       y2="0.98449612" />
    <linearGradient
       xlink:href="#linearGradient584"
       id="linearGradient583"
       x1="0.01538462"
       y1="0.02325581"
       x2="0.97692305"
       y2="0.93798447" />
    <linearGradient
       xlink:href="#linearGradient584"
       id="linearGradient654"
       x1="0.00362319"
       y1="-0.00869565"
       x2="0.98550725"
       y2="0.97391301" />
    <linearGradient
       xlink:href="#linearGradient584"
       id="linearGradient655"
       x1="0.02380952"
       y1="0.00775194"
       x2="0.95238096"
       y2="0.97674417" />
    <linearGradient
       xlink:href="#linearGradient1407"
       id="linearGradient1406"
       x1="-0.00000000"
       y1="-0.00000000"
       x2="1.00000000"
       y2="-0.00000000" />
    <linearGradient
       xlink:href="#linearGradient1411"
       id="linearGradient1410"
       x1="0.94000000"
       y1="0.96124029"
       x2="0.01000000"
       y2="0.02325581" />
  </defs>
  <sodipodi:namedview
     id="base"
     pagecolor="#ffffff"
     bordercolor="#666666"
     borderopacity="1.0"
     inkscape:pageopacity="0.0"
     inkscape:pageshadow="2"
     inkscape:zoom="5.6423387"
     inkscape:cx="23.452860"
     inkscape:cy="21.911312"
     inkscape:window-width="476"
     inkscape:window-height="516"
     inkscape:window-x="192"
     inkscape:window-y="102" />
  <g
     id="g1416"
     style="opacity:0.302675;"
     transform="matrix(0.112397,0.000000,0.000000,0.112397,-10.80173,-5.181550)">
    <path
       d="M 191.015 566.589 C 178.034 550.094 179.224 119.025 195.48 99.9537 C 213.723 80.7839 535.225 87.4727 546.015 102.186 C 561.672 119.875 555.666 542.078 539.316 566.59 C 528.254 581.182 202.819 582.194 191.015 566.589 z "
       style="font-size:12;fill:#000000;fill-rule:evenodd;stroke:none;stroke-width:12.5;fill-opacity:1;"
       id="path1414" />
    <path
       d="M 290.397 124.036 C 285.005 119.423 313.712 59.884 321.773 54.9382 C 329.974 50.2647 421.474 50.6316 427.19 54.9382 C 434.311 59.6687 459.797 123.223 454.252 127.759 C 446.07 134.458 297.13 130.323 290.397 124.036 z "
       style="font-size:12;fill:#000000;fill-rule:evenodd;stroke:none;stroke-width:13.7551;fill-opacity:1;"
       id="path1415" />
  </g>
  <path
     d="M 11.719205,55.320560 C 10.381773,53.621082 10.504379,9.2080523 12.179233,7.2431363 C 14.058809,5.2680723 47.183153,5.9572190 48.294847,7.4731306 C 49.907987,9.2956283 49.289190,52.795193 47.604649,55.320664 C 46.464932,56.824078 12.935370,56.928344 11.719205,55.320560 z "
     style="font-size:12;fill:url(#linearGradient1410);fill-rule:evenodd;stroke:#412619;stroke-width:1.875;stroke-dasharray:none;"
     id="path1213" />
  <path
     d="M 42.170128,8.9828284 C 41.429754,8.1894979 15.083134,7.5524644 13.841519,9.2794518 C 12.658117,11.309245 12.225597,52.848358 12.951650,53.626234 C 13.609907,54.331474 11.213328,21.770189 17.252842,12.542411 C 20.952854,6.8890126 42.814065,9.6727180 42.170128,8.9828284 z "
     style="font-size:12;opacity:0.7;fill:url(#linearGradient655);fill-rule:evenodd;stroke:none;stroke-width:1pt;"
     id="path1234" />
  <path
     d="M 21.958530,9.7243349 C 21.402993,9.2490581 24.360673,3.1147557 25.191198,2.6051907 C 26.036147,2.1236807 35.463392,2.1614817 36.052310,2.6051907 C 36.785986,3.0925749 39.411808,9.6405716 38.840507,10.107916 C 37.997516,10.798113 22.652232,10.372084 21.958530,9.7243349 z "
     style="font-size:12;fill:url(#linearGradient1406);fill-rule:evenodd;stroke:#000000;stroke-width:1.875;stroke-dasharray:none;"
     id="path1221" />
  <path
     d="M 24.026033,8.0617416 C 23.770725,7.6969112 25.069933,4.5223207 26.333287,4.0764390 C 28.635801,3.2637992 34.459569,3.9092511 34.723431,4.2861966 C 34.948961,4.6084240 30.046590,4.9621046 27.801566,5.7544470 C 26.480722,6.2206262 24.260117,8.3961770 24.026033,8.0617416 z "
     style="font-size:12;opacity:0.699936;fill:url(#linearGradient654);fill-rule:evenodd;stroke:none;stroke-width:1pt;"
     id="path1229" />
  <path
     d="M 16.167058,54.099434 C 16.755939,55.858763 43.800460,55.351098 45.401576,54.023581 C 46.834749,52.822822 48.696940,15.752871 47.978913,14.335427 C 47.232544,12.772696 23.377377,11.538671 22.203012,12.607536 C 20.756448,13.931861 15.548583,52.080830 16.167058,54.099434 z "
     style="font-size:12;opacity:0.302675;fill-rule:evenodd;stroke-width:12.5;"
     id="path639"
     sodipodi:nodetypes="ccccc" />
  <path
     d="M 15.102671,51.978146 C 15.645716,53.600452 42.563248,53.805898 44.039666,52.581773 C 45.361218,51.474534 46.831281,15.858964 46.169176,14.551887 C 45.480938,13.110866 16.906534,12.623111 15.823632,13.608729 C 14.489731,14.829909 14.532366,50.116757 15.102671,51.978146 z "
     style="font-size:12;fill:url(#linearGradient581);fill-rule:evenodd;stroke:#261933;stroke-width:1.875;stroke-dasharray:none;"
     id="path634"
     sodipodi:nodetypes="ccccc" />
  <path
     d="M 17.075677,49.572352 C 16.840996,48.977807 16.860993,18.232671 17.732742,15.004116 C 18.822248,14.260588 43.524112,15.336653 43.758239,15.929804 C 43.972838,17.359603 24.699868,15.264157 21.594972,18.041404 C 15.640054,23.218339 17.289722,50.114628 17.075677,49.572352 z "
     style="font-size:12;opacity:0.699936;fill:url(#linearGradient583);fill-rule:evenodd;stroke:#ffffff;stroke-width:0.0717962pt;"
     id="path640"
     sodipodi:nodetypes="ccccc" />
</svg>
