<?xml version="1.0" encoding="UTF-8" standalone="no"?>
<!-- Created with Inkscape (http://www.inkscape.org/) -->
<svg
   xmlns:dc="http://purl.org/dc/elements/1.1/"
   xmlns:cc="http://web.resource.org/cc/"
   xmlns:rdf="http://www.w3.org/1999/02/22-rdf-syntax-ns#"
   xmlns:svg="http://www.w3.org/2000/svg"
   xmlns="http://www.w3.org/2000/svg"
   xmlns:xlink="http://www.w3.org/1999/xlink"
   xmlns:sodipodi="http://inkscape.sourceforge.net/DTD/sodipodi-0.dtd"
   xmlns:inkscape="http://www.inkscape.org/namespaces/inkscape"
   id="svg1"
   sodipodi:version="0.32"
   inkscape:version="0.42"
   width="48pt"
   height="48pt"
   sodipodi:docbase="/home/jakob/dev/lila/lila-theme/trunk/lila/kde/scalable/apps"
   sodipodi:docname="kmaillight.svg">
  <metadata
     id="metadata27">
    <rdf:RDF>
      <cc:Work
         rdf:about="">
        <dc:format>image/svg+xml</dc:format>
        <dc:type
           rdf:resource="http://purl.org/dc/dcmitype/StillImage" />
      </cc:Work>
    </rdf:RDF>
  </metadata>
  <defs
     id="defs3">
    <linearGradient
       id="linearGradient599">
      <stop
         style="stop-color:#ffffff;stop-opacity:1;"
         offset="0.00000000"
         id="stop600" />
      <stop
         style="stop-color:#d9cce6;stop-opacity:1;"
         offset="1.00000000"
         id="stop601" />
    </linearGradient>
    <linearGradient
       id="linearGradient584">
      <stop
         style="stop-color:#ffffff;stop-opacity:1;"
         offset="0.00000000"
         id="stop585" />
      <stop
         style="stop-color:#ffffff;stop-opacity:0;"
         offset="1.00000000"
         id="stop586" />
    </linearGradient>
    <linearGradient
       id="linearGradient578">
      <stop
         style="stop-color:#d9cce6;stop-opacity:1;"
         offset="0.00000000"
         id="stop579" />
      <stop
         style="stop-color:#73667f;stop-opacity:1;"
         offset="1.00000000"
         id="stop580" />
    </linearGradient>
    <linearGradient
       xlink:href="#linearGradient599"
       id="linearGradient581"
       x1="-29.587961"
       y1="32.717732"
       x2="-1.7290132"
       y2="60.449516"
       gradientTransform="scale(1.167532,0.856508)"
       gradientUnits="userSpaceOnUse" />
    <linearGradient
       xlink:href="#linearGradient599"
       id="linearGradient583"
       x1="-25.251768"
       y1="37.271696"
       x2="-2.7616137"
       y2="59.978101"
       gradientTransform="scale(1.332681,0.750367)"
       gradientUnits="userSpaceOnUse" />
    <linearGradient
       xlink:href="#linearGradient599"
       id="linearGradient860"
       x1="-22.901698"
       y1="55.633371"
       x2="-2.1918402"
       y2="76.040139"
       gradientTransform="scale(1.469801,0.680364)"
       gradientUnits="userSpaceOnUse" />
    <linearGradient
       xlink:href="#linearGradient584"
       id="linearGradient861"
       x1="-6.6920045"
       y1="-5.8730816"
       x2="38.431965"
       y2="37.702347"
       gradientTransform="scale(1.037071,0.964255)"
       gradientUnits="userSpaceOnUse" />
    <linearGradient
       xlink:href="#linearGradient584"
       id="linearGradient862"
       x1="-27.390920"
       y1="35.406395"
       x2="-4.0397671"
       y2="59.223760"
       gradientTransform="scale(1.245564,0.802849)"
       gradientUnits="userSpaceOnUse" />
    <radialGradient
       xlink:href="#linearGradient578"
       id="radialGradient595"
       cx="21.469329"
       cy="22.844864"
       r="34.791685"
       fx="21.066890"
       fy="22.436138"
       gradientUnits="userSpaceOnUse" />
  </defs>
  <sodipodi:namedview
     id="base"
     pagecolor="#ffffff"
     bordercolor="#666666"
     borderopacity="1.0"
     inkscape:pageopacity="0.0"
     inkscape:pageshadow="2"
     inkscape:zoom="5.6423387"
     inkscape:cx="24.472560"
     inkscape:cy="24.031074"
     inkscape:window-width="895"
     inkscape:window-height="543"
     inkscape:window-x="160"
     inkscape:window-y="106"
     showguides="true"
     inkscape:guide-bbox="true"
     inkscape:current-layer="svg1">
    <sodipodi:guide
       orientation="horizontal"
       position="49.802044"
       id="guide1083" />
  </sodipodi:namedview>
  <g
     id="g1092"
     style="opacity:0.34615383"
     transform="translate(3.089000e-4,0.000000)">
    <path
       style="font-size:12.000000px;opacity:0.29636899;fill:#000000;fill-opacity:1.0000000;fill-rule:evenodd;stroke:none;stroke-width:1.8750000;stroke-dasharray:none;stroke-opacity:1.0000000"
       d="M 57.647925,32.037622 C 57.647925,47.040495 45.471681,59.216739 30.468808,59.216739 C 15.465936,59.216739 3.2896911,47.040495 3.2896911,32.037622 C 3.2896911,17.034750 15.465936,4.8585057 30.468808,4.8585057 C 45.471681,4.8585057 57.647925,17.034750 57.647925,32.037622 z "
       id="path609" />
    <path
       style="font-size:12.000000px;fill:url(#radialGradient595);fill-opacity:1.0000000;fill-rule:evenodd;stroke:#261933;stroke-width:1.8750000;stroke-dasharray:none;stroke-opacity:1.0000000"
       d="M 55.141493,31.019385 C 55.141493,44.941359 43.842500,56.240352 29.920526,56.240352 C 15.998552,56.240352 4.6995589,44.941359 4.6995589,31.019385 C 4.6995589,17.097411 15.998552,5.7984176 29.920526,5.7984176 C 43.842500,5.7984176 55.141493,17.097411 55.141493,31.019385 z "
       id="path594" />
    <path
       style="fill:url(#linearGradient861);fill-opacity:1.0000000;fill-rule:evenodd;stroke:none;stroke-width:1.0000000pt;stroke-linecap:butt;stroke-linejoin:miter;stroke-opacity:1.0000000"
       d="M 11.122290,44.961411 C 7.9971236,40.759647 2.9673692,21.684750 17.701673,11.907845 C 32.175024,2.2001478 46.225773,14.138431 47.308895,16.137448 C 47.788846,17.092665 34.115611,7.3498743 20.364756,16.764056 C 5.4213104,27.151367 11.773480,45.795140 11.122290,44.961411 z "
       id="path602"
       sodipodi:nodetypes="cssss" />
    <g
       id="g604"
       transform="matrix(0.942154,0.335181,-0.335181,0.942154,60.01135,0.186832)">
      <path
         style="font-size:12.000000px;fill:url(#linearGradient581);fill-rule:evenodd;stroke:#261933;stroke-width:1.8750000;stroke-dasharray:none"
         d="M -32.510926,50.442911 C -31.289577,51.594259 -5.0803113,51.459852 -3.7913862,50.026685 C -2.4530372,48.682625 -2.0028341,31.001903 -3.6526445,29.770391 C -5.3257956,28.406784 -30.785139,28.947810 -32.510926,30.047875 C -34.176752,31.030706 -33.753792,49.390797 -32.510926,50.442911 z "
         id="path596"
         sodipodi:nodetypes="cssss" />
      <path
         style="font-size:12.000000px;fill:url(#linearGradient860);fill-rule:evenodd;stroke:#261933;stroke-width:1.8750000;stroke-dasharray:none"
         d="M -32.649668,50.442911 C -33.738539,49.451970 -22.490714,38.836565 -17.526818,38.788604 C -12.917534,38.744070 -2.6599755,48.978789 -3.9301280,50.165427 C -5.0660910,51.356840 -32.182111,51.512214 -32.649668,50.442911 z "
         id="path597"
         sodipodi:nodetypes="csss" />
      <path
         style="font-size:12.000000px;fill:url(#linearGradient583);fill-rule:evenodd;stroke:#261933;stroke-width:1.8750000;stroke-dasharray:none"
         d="M -32.649668,30.186616 C -33.652052,31.444835 -22.868375,44.407645 -18.081785,44.338274 C -13.295195,44.268903 -2.8273979,30.967397 -3.9301280,29.770391 C -4.9411143,28.515028 -31.690217,28.601475 -32.649668,30.186616 z "
         id="path598"
         sodipodi:nodetypes="csss" />
      <path
         style="fill:url(#linearGradient862);fill-opacity:1.0000000;fill-rule:evenodd;stroke:none;stroke-width:1.0000000pt;stroke-linecap:butt;stroke-linejoin:miter;stroke-opacity:1.0000000"
         d="M -31.400992,48.084301 C -31.792824,47.716958 -32.235931,32.632807 -31.123509,31.296551 C -30.096665,30.229753 -5.2869599,30.935014 -4.9013203,31.296551 C -4.5470033,31.628722 -26.801232,31.620727 -28.903640,33.377677 C -30.930163,35.091825 -31.052868,48.410667 -31.400992,48.084301 z "
         id="path603"
         sodipodi:nodetypes="cssss" />
    </g>
  </g>
</svg>
