<?xml version="1.0" encoding="UTF-8" standalone="no"?>
<!DOCTYPE svg PUBLIC "-//W3C//DTD SVG 20010904//EN"
"http://www.w3.org/TR/2001/REC-SVG-20010904/DTD/svg10.dtd">
<!-- Created with Inkscape (http://www.inkscape.org/) -->
<svg
   id="svg1"
   sodipodi:version="0.32"
   inkscape:version="0.40"
   width="48pt"
   height="48pt"
   sodipodi:docbase="/home/jakob/dev/lila-cvs/lila/kde/scalable/apps"
   sodipodi:docname="kmixdocked_error.svg"
   xmlns="http://www.w3.org/2000/svg"
   xmlns:cc="http://web.resource.org/cc/"
   xmlns:inkscape="http://www.inkscape.org/namespaces/inkscape"
   xmlns:sodipodi="http://sodipodi.sourceforge.net/DTD/sodipodi-0.dtd"
   xmlns:rdf="http://www.w3.org/1999/02/22-rdf-syntax-ns#"
   xmlns:dc="http://purl.org/dc/elements/1.1/"
   xmlns:xlink="http://www.w3.org/1999/xlink">
  <defs
     id="defs3">
    <linearGradient
       id="linearGradient758">
      <stop
         style="stop-color:#d9cce6;stop-opacity:1;"
         offset="0.00000000"
         id="stop759" />
      <stop
         style="stop-color:#73667f;stop-opacity:1;"
         offset="1.00000000"
         id="stop760" />
    </linearGradient>
    <linearGradient
       id="linearGradient745">
      <stop
         style="stop-color:#d9cce6;stop-opacity:1;"
         offset="0.00000000"
         id="stop746" />
      <stop
         style="stop-color:#73667f;stop-opacity:1;"
         offset="1.00000000"
         id="stop747" />
    </linearGradient>
    <linearGradient
       id="linearGradient742">
      <stop
         offset="0.00000000"
         style="stop-color:#d9cce6;stop-opacity:1;"
         id="stop744" />
      <stop
         offset="1.00000000"
         style="stop-color:#73667f;stop-opacity:1;"
         id="stop743" />
    </linearGradient>
    <linearGradient
       id="linearGradient711">
      <stop
         offset="0.00000000"
         style="stop-color:#ffffff;stop-opacity:1;"
         id="stop713" />
      <stop
         offset="1.00000000"
         style="stop-color:#ffffff;stop-opacity:0;"
         id="stop712" />
    </linearGradient>
    <linearGradient
       id="linearGradient599">
      <stop
         style="stop-color:#ffffff;stop-opacity:1;"
         offset="0.00000000"
         id="stop600" />
      <stop
         style="stop-color:#d9cce6;stop-opacity:1;"
         offset="1.00000000"
         id="stop601" />
    </linearGradient>
    <linearGradient
       id="linearGradient584">
      <stop
         style="stop-color:#ffffff;stop-opacity:1;"
         offset="0.00000000"
         id="stop585" />
      <stop
         style="stop-color:#ffffff;stop-opacity:0;"
         offset="1.00000000"
         id="stop586" />
    </linearGradient>
    <linearGradient
       id="linearGradient578">
      <stop
         style="stop-color:#d9cce6;stop-opacity:1;"
         offset="0.00000000"
         id="stop579" />
      <stop
         style="stop-color:#73667f;stop-opacity:1;"
         offset="1.00000000"
         id="stop580" />
    </linearGradient>
    <linearGradient
       xlink:href="#linearGradient578"
       id="linearGradient581"
       x1="8.5765921"
       y1="14.826067"
       x2="38.038175"
       y2="44.209295"
       gradientTransform="matrix(0.916483,0.000000,0.000000,1.197638,-2.056823,-2.481792)"
       gradientUnits="userSpaceOnUse" />
    <linearGradient
       xlink:href="#linearGradient578"
       id="linearGradient583"
       x1="32.418913"
       y1="38.408619"
       x2="15.451335"
       y2="20.857216"
       gradientTransform="matrix(0.911320,0.000000,0.000000,1.204422,-2.056823,-2.481792)"
       gradientUnits="userSpaceOnUse" />
    <linearGradient
       xlink:href="#linearGradient578"
       id="linearGradient860"
       x1="2.3557917"
       y1="19.132222"
       x2="23.045666"
       y2="40.392590"
       gradientTransform="matrix(0.873092,0.000000,0.000000,1.257157,-2.056823,-2.481792)"
       gradientUnits="userSpaceOnUse" />
    <linearGradient
       xlink:href="#linearGradient599"
       id="linearGradient861"
       x1="26.590479"
       y1="32.936240"
       x2="20.704352"
       y2="26.847582"
       gradientTransform="matrix(0.917882,0.000000,0.000000,1.195812,-2.056823,-2.481792)"
       gradientUnits="userSpaceOnUse" />
    <linearGradient
       xlink:href="#linearGradient584"
       id="linearGradient862"
       x1="13.529301"
       y1="13.596412"
       x2="29.464286"
       y2="29.819352"
       gradientTransform="matrix(0.752041,0.000000,0.000000,1.459513,-2.056823,-2.481792)"
       gradientUnits="userSpaceOnUse" />
    <radialGradient
       xlink:href="#linearGradient578"
       id="radialGradient595"
       cx="0.33846155"
       cy="0.34375000"
       r="0.66501766"
       fx="0.33076921"
       fy="0.33593750" />
    <linearGradient
       xlink:href="#linearGradient584"
       id="linearGradient652"
       x1="3.2824602"
       y1="32.642122"
       x2="9.9986503"
       y2="39.116657"
       gradientTransform="matrix(1.330670,0.000000,0.000000,0.824858,-2.056823,-2.481792)"
       gradientUnits="userSpaceOnUse" />
    <linearGradient
       xlink:href="#linearGradient584"
       id="linearGradient654"
       x1="30.627296"
       y1="36.956167"
       x2="46.526911"
       y2="52.884013"
       gradientTransform="matrix(0.885015,0.000000,0.000000,0.897697,4.358189,-27.96366)"
       gradientUnits="userSpaceOnUse" />
    <linearGradient
       xlink:href="#linearGradient758"
       id="linearGradient661"
       x1="0.00000000"
       y1="0.03125000"
       x2="0.96629214"
       y2="0.95312500" />
    <linearGradient
       xlink:href="#linearGradient578"
       id="linearGradient616"
       x1="29.712094"
       y1="35.477023"
       x2="49.292671"
       y2="54.941552"
       gradientTransform="matrix(0.874565,0.000000,0.000000,0.908424,4.358189,-27.96366)"
       gradientUnits="userSpaceOnUse" />
    <linearGradient
       xlink:href="#linearGradient584"
       id="linearGradient618"
       x1="0.00000000"
       y1="-0.00000000"
       x2="1.00000000"
       y2="1.00781250" />
    <linearGradient
       xlink:href="#linearGradient584"
       id="linearGradient620"
       x1="-0.00000000"
       y1="0.00000000"
       x2="1.00000000"
       y2="0.99218750" />
    <linearGradient
       xlink:href="#linearGradient584"
       id="linearGradient633"
       x1="0.00000000"
       y1="0.00000000"
       x2="1.00000000"
       y2="0.00000000" />
    <radialGradient
       xlink:href="#linearGradient914"
       id="radialGradient924" />
    <linearGradient
       xlink:href="#linearGradient584"
       id="linearGradient922"
       x1="0.02307692"
       y1="0.01562500"
       x2="0.99230766"
       y2="1.00781250" />
    <radialGradient
       xlink:href="#linearGradient1204"
       id="radialGradient917"
       cx="20.601770"
       cy="23.506639"
       r="36.909698"
       fx="20.601772"
       fy="23.081676"
       gradientUnits="userSpaceOnUse" />
    <linearGradient
       xlink:href="#linearGradient584"
       id="linearGradient600"
       x1="-0.00000000"
       y1="0.01562500"
       x2="1.00000000"
       y2="1.00781250" />
    <linearGradient
       xlink:href="#linearGradient914"
       id="linearGradient1209"
       x1="0.00000000"
       y1="0.00000000"
       x2="0.98684210"
       y2="0.99218750" />
    <linearGradient
       xlink:href="#linearGradient584"
       id="linearGradient1208"
       x1="0.02307692"
       y1="0.01562500"
       x2="0.99230766"
       y2="1.00781250" />
    <linearGradient
       xlink:href="#linearGradient584"
       id="linearGradient1207"
       x1="-0.00000000"
       y1="0.00000000"
       x2="0.98684210"
       y2="0.99218750" />
    <linearGradient
       id="linearGradient1204">
      <stop
         style="stop-color:#f50000;stop-opacity:1;"
         offset="0.00000000"
         id="stop1205" />
      <stop
         style="stop-color:#a90000;stop-opacity:1;"
         offset="1.00000000"
         id="stop1206" />
    </linearGradient>
    <linearGradient
       id="linearGradient1201">
      <stop
         style="stop-color:#ffffff;stop-opacity:1;"
         offset="0.00000000"
         id="stop1202" />
      <stop
         style="stop-color:#ffffff;stop-opacity:0;"
         offset="1.00000000"
         id="stop1203" />
    </linearGradient>
    <linearGradient
       id="linearGradient914">
      <stop
         style="stop-color:#ffffff;stop-opacity:1;"
         offset="0.00000000"
         id="stop915" />
      <stop
         style="stop-color:#7f7f7f;stop-opacity:1;"
         offset="1.00000000"
         id="stop916" />
    </linearGradient>
    <linearGradient
       inkscape:collect="always"
       xlink:href="#linearGradient1201"
       id="linearGradient1220"
       x1="8.4926157"
       y1="9.2671824"
       x2="42.744499"
       y2="43.427971"
       gradientTransform="scale(1.085630,0.921124)"
       gradientUnits="userSpaceOnUse" />
    <linearGradient
       inkscape:collect="always"
       xlink:href="#linearGradient914"
       id="linearGradient1221"
       gradientTransform="scale(2.007693,0.498084)"
       x1="6.6701713"
       y1="55.238762"
       x2="23.805723"
       y2="71.123154"
       gradientUnits="userSpaceOnUse" />
    <linearGradient
       inkscape:collect="always"
       xlink:href="#linearGradient1201"
       id="linearGradient1222"
       x1="5.0544882"
       y1="91.991623"
       x2="14.269783"
       y2="100.77463"
       gradientTransform="scale(3.108844,0.321663)"
       gradientUnits="userSpaceOnUse" />
    <linearGradient
       inkscape:collect="always"
       xlink:href="#linearGradient584"
       id="linearGradient1146"
       x1="61.915553"
       y1="26.809235"
       x2="70.330377"
       y2="35.238999"
       gradientTransform="matrix(0.402881,0.000000,0.000000,0.922195,19.14322,14.41747)"
       gradientUnits="userSpaceOnUse" />
    <linearGradient
       inkscape:collect="always"
       xlink:href="#linearGradient584"
       id="linearGradient1147"
       x1="30.627296"
       y1="36.956167"
       x2="46.526911"
       y2="52.884013"
       gradientTransform="matrix(0.605216,0.000000,0.000000,0.613888,19.14322,14.41747)"
       gradientUnits="userSpaceOnUse" />
    <linearGradient
       inkscape:collect="always"
       xlink:href="#linearGradient578"
       id="linearGradient1148"
       x1="29.712094"
       y1="35.477023"
       x2="49.292671"
       y2="54.941552"
       gradientTransform="matrix(0.598070,0.000000,0.000000,0.621224,19.14322,14.41747)"
       gradientUnits="userSpaceOnUse" />
    <linearGradient
       inkscape:collect="always"
       xlink:href="#linearGradient584"
       id="linearGradient1149"
       x1="28.471014"
       y1="21.463920"
       x2="37.965993"
       y2="31.130479"
       gradientTransform="matrix(0.752041,0.000000,0.000000,1.459513,-2.056823,-2.481792)"
       gradientUnits="userSpaceOnUse" />
    <linearGradient
       inkscape:collect="always"
       xlink:href="#linearGradient584"
       id="linearGradient1150"
       x1="25.898800"
       y1="22.383246"
       x2="29.110844"
       y2="25.653333"
       gradientTransform="matrix(0.752041,0.000000,0.000000,1.459513,-2.056823,-2.481792)"
       gradientUnits="userSpaceOnUse" />
    <linearGradient
       inkscape:collect="always"
       xlink:href="#linearGradient584"
       id="linearGradient1151"
       x1="61.915553"
       y1="26.809235"
       x2="70.330377"
       y2="35.238999"
       gradientTransform="matrix(0.478259,0.000000,0.000000,1.094734,23.85078,-6.196376)"
       gradientUnits="userSpaceOnUse" />
    <linearGradient
       inkscape:collect="always"
       xlink:href="#linearGradient584"
       id="linearGradient1152"
       x1="30.627296"
       y1="36.956167"
       x2="46.526911"
       y2="52.884013"
       gradientTransform="matrix(0.718450,0.000000,0.000000,0.728745,23.85078,-6.196376)"
       gradientUnits="userSpaceOnUse" />
    <linearGradient
       inkscape:collect="always"
       xlink:href="#linearGradient578"
       id="linearGradient1153"
       x1="29.712094"
       y1="35.477023"
       x2="49.292671"
       y2="54.941552"
       gradientTransform="matrix(0.709966,0.000000,0.000000,0.737453,23.85078,-6.196376)"
       gradientUnits="userSpaceOnUse" />
    <linearGradient
       inkscape:collect="always"
       xlink:href="#linearGradient584"
       id="linearGradient1154"
       x1="61.915553"
       y1="26.809235"
       x2="70.330377"
       y2="35.238999"
       gradientTransform="matrix(0.589139,0.000000,0.000000,1.348538,4.358189,-27.96366)"
       gradientUnits="userSpaceOnUse" />
  </defs>
  <sodipodi:namedview
     id="base"
     pagecolor="#ffffff"
     bordercolor="#666666"
     borderopacity="1.0"
     inkscape:pageopacity="0.0"
     inkscape:pageshadow="2"
     inkscape:zoom="5.6568543"
     inkscape:cx="36.502208"
     inkscape:cy="23.685272"
     inkscape:window-width="1400"
     inkscape:window-height="991"
     inkscape:window-x="0"
     inkscape:window-y="0"
     showborder="true"
     showgrid="false"
     gridspacingx="1pt"
     gridspacingy="1pt"
     snaptogrid="false"
     inkscape:grid-bbox="false"
     inkscape:current-layer="svg1" />
  <path
     style="font-size:12.000000;fill:#000000;fill-opacity:0.30081299;fill-rule:evenodd;stroke:none;stroke-width:1.2500000"
     d="M 38.473878,5.6228038 C 37.848651,5.5985961 37.400897,5.6941685 37.248294,6.0127625 C 36.637879,7.2871403 36.978380,18.234695 36.551939,18.240753 C 35.554382,18.253869 33.459371,18.342500 32.847332,18.825691 C 32.235292,19.308879 31.844581,19.982979 31.844581,20.719775 C 31.844581,21.456573 32.235292,22.102818 32.847332,22.586006 C 33.459371,23.069195 34.281661,23.365924 35.214938,23.365924 C 36.148213,23.365924 36.998358,23.069196 37.610398,22.586006 C 38.222437,22.102818 38.613150,20.370258 38.613149,19.633462 C 38.613149,19.265064 38.768067,12.901619 38.863837,10.135182 C 38.911722,8.7519649 43.206506,10.773204 46.286209,9.7452239 C 46.128961,13.404591 46.328250,18.236407 46.022363,18.240753 C 45.024806,18.253869 42.929793,18.342500 42.317756,18.825691 C 41.705716,19.308879 41.315005,19.982979 41.315005,20.719775 C 41.315005,21.456573 41.705714,22.102818 42.317756,22.586006 C 42.929795,23.069195 43.779940,23.365924 44.713216,23.365924 C 45.646492,23.365924 46.468783,23.069196 47.080822,22.586006 C 47.692861,22.102818 48.083574,20.370258 48.083573,19.633462 C 48.083573,19.265064 48.091559,13.011496 48.426412,10.263777 C 48.681124,8.1093915 49.889703,4.7664778 46.950140,5.8435499 C 44.266101,6.8269962 40.349558,5.6954280 38.473878,5.6228038 z "
     id="path1632"
     sodipodi:nodetypes="ccccccccccccccccccssc" />
  <path
     style="font-size:12.000000;fill:url(#linearGradient616);fill-opacity:1.0000000;fill-rule:evenodd;stroke:#261933;stroke-width:1.1141676;stroke-opacity:1.0000000"
     d="M 37.086862,4.2357862 C 36.461635,4.2115785 36.013881,4.3071509 35.861278,4.6257449 C 35.250863,5.9001226 35.591364,16.847677 35.164923,16.853735 C 34.167366,16.866851 32.072355,16.955483 31.460316,17.438673 C 30.848276,17.921862 30.457565,18.595962 30.457565,19.332758 C 30.457565,20.069555 30.848276,20.715801 31.460316,21.198989 C 32.072355,21.682177 32.894645,21.978907 33.827922,21.978906 C 34.761198,21.978906 35.611343,21.682178 36.223382,21.198989 C 36.835421,20.715800 37.226134,18.983240 37.226133,18.246444 C 37.226133,17.878046 37.381052,11.514601 37.476821,8.7481649 C 37.524706,7.3649473 41.819491,9.3861863 44.899193,8.3582063 C 44.741945,12.017574 44.941234,16.849390 44.635348,16.853735 C 43.637791,16.866851 41.542778,16.955483 40.930740,17.438673 C 40.318701,17.921862 39.927990,18.595962 39.927990,19.332758 C 39.927990,20.069555 40.318699,20.715801 40.930740,21.198989 C 41.542779,21.682177 42.392924,21.978907 43.326201,21.978906 C 44.259477,21.978906 45.081767,21.682178 45.693807,21.198989 C 46.305846,20.715800 46.696559,18.983240 46.696558,18.246444 C 46.696558,17.878046 46.704543,11.624479 47.039397,8.8767595 C 47.294108,6.7223738 48.502688,3.3794602 45.563125,4.4565322 C 42.879085,5.4399785 38.962543,4.3084103 37.086862,4.2357862 z "
     id="path1615"
     sodipodi:nodetypes="ccccccccccccccccccssc" />
  <path
     style="font-size:12.000000;fill-opacity:1.0000000;stroke-width:1.0000000pt"
     id="path682"
     d="M 34.967464,9.0298274 C 34.965942,9.0296474 34.964419,9.0294682 34.962897,9.0292881 L 34.962897,7.8332078 C 34.964419,7.8330287 34.965942,7.8328486 34.967464,7.8326686 L 34.967464,9.0298274 z " />
  <path
     style="font-size:12.000000;fill:url(#linearGradient654);fill-rule:evenodd;stroke-width:1.0000000pt"
     d="M 32.430886,17.976103 C 31.399252,18.366397 31.340867,18.905718 31.303922,19.740816 C 31.696807,19.419733 31.536856,18.666404 32.905655,18.406175 C 35.228040,17.939375 36.026076,18.593064 36.153543,17.694294 C 36.589850,14.095189 36.379374,9.6242269 36.746867,6.3486259 C 36.833803,5.7038152 36.869754,5.8085309 37.987844,5.8197332 C 39.953718,5.7751326 45.763433,6.0456855 45.855037,5.3547982 C 41.793350,5.9860677 37.504221,4.9167164 36.465059,4.9842778 C 36.108628,8.3879519 36.145839,14.768832 35.975573,17.190091 C 35.897660,18.331984 34.246739,17.317164 32.430886,17.976103 z "
     id="path1610"
     sodipodi:nodetypes="ccssssccss" />
  <path
     style="font-size:12.000000;fill:url(#linearGradient1154);fill-rule:evenodd;stroke-width:1.0000000pt"
     d="M 41.905697,17.976103 C 40.874063,18.366397 40.815678,18.905718 40.778733,19.740816 C 41.171618,19.419733 41.011666,18.666404 42.380466,18.406175 C 44.702851,17.939375 45.745440,18.601985 45.756948,17.694294 C 45.807472,13.645107 45.861523,10.287680 45.900192,8.9205213 C 45.850211,8.4143594 46.014570,8.0672873 45.746978,8.0062550 C 45.519142,9.3524128 45.620650,14.768832 45.450384,17.190091 C 45.372470,18.331984 43.721549,17.317164 41.905697,17.976103 z "
     id="path1616"
     sodipodi:nodetypes="ccssscss" />
  <path
     style="font-size:12.000000;fill:#000000;fill-opacity:0.30081299;fill-rule:evenodd;stroke:none;stroke-width:1.2500000"
     d="M 51.545658,21.068884 C 51.038103,21.049233 50.674619,21.126818 50.550737,21.385450 C 50.055206,22.419981 50.331623,31.307131 49.985441,31.312049 C 49.175631,31.322696 47.474915,31.394647 46.978066,31.786898 C 46.481216,32.179147 46.164039,32.726377 46.164039,33.324503 C 46.164039,33.922630 46.481216,34.447248 46.978066,34.839496 C 47.474915,35.231746 48.142445,35.472629 48.900072,35.472628 C 49.657699,35.472628 50.347841,35.231746 50.844691,34.839496 C 51.341540,34.447247 51.658718,33.040767 51.658717,32.442641 C 51.658717,32.143578 51.784479,26.977776 51.862224,24.732003 C 51.901096,23.609116 55.387573,25.249944 57.887655,24.415437 C 57.760002,27.386086 57.921783,31.308521 57.673467,31.312049 C 56.863657,31.322696 55.162940,31.394647 54.666092,31.786898 C 54.169242,32.179147 53.852066,32.726377 53.852066,33.324503 C 53.852066,33.922630 54.169241,34.447248 54.666092,34.839496 C 55.162941,35.231746 55.853083,35.472629 56.610710,35.472628 C 57.368337,35.472628 58.035867,35.231746 58.532717,34.839496 C 59.029566,34.447247 59.346744,33.040767 59.346743,32.442641 C 59.346743,32.143578 59.353226,27.066974 59.625058,24.836395 C 59.831831,23.087479 60.812947,20.373725 58.426630,21.248084 C 56.247745,22.046439 53.068323,21.127840 51.545658,21.068884 z "
     id="path1644"
     sodipodi:nodetypes="ccccccccccccccccccssc" />
  <path
     style="font-size:12.000000;fill:url(#linearGradient1153);fill-opacity:1.0000000;fill-rule:evenodd;stroke:#261933;stroke-width:0.90447372;stroke-opacity:1.0000000"
     d="M 50.419688,19.942914 C 49.912132,19.923263 49.548649,20.000848 49.424767,20.259480 C 48.929236,21.294011 49.205652,30.181161 48.859471,30.186079 C 48.049661,30.196726 46.348945,30.268677 45.852096,30.660928 C 45.355246,31.053177 45.038069,31.600407 45.038069,32.198533 C 45.038069,32.796660 45.355246,33.321278 45.852096,33.713526 C 46.348945,34.105775 47.016474,34.346659 47.774102,34.346658 C 48.531729,34.346658 49.221871,34.105776 49.718721,33.713526 C 50.215570,33.321277 50.532748,31.914797 50.532747,31.316671 C 50.532747,31.017608 50.658509,25.851806 50.736253,23.606033 C 50.775126,22.483146 54.261603,24.123974 56.761685,23.289467 C 56.634032,26.260116 56.795813,30.182551 56.547497,30.186079 C 55.737687,30.196726 54.036970,30.268677 53.540122,30.660928 C 53.043272,31.053177 52.726096,31.600407 52.726096,32.198533 C 52.726096,32.796660 53.043271,33.321278 53.540122,33.713526 C 54.036971,34.105775 54.727113,34.346659 55.484740,34.346658 C 56.242367,34.346658 56.909897,34.105776 57.406747,33.713526 C 57.903596,33.321277 58.220774,31.914797 58.220773,31.316671 C 58.220773,31.017608 58.227256,25.941004 58.499088,23.710425 C 58.705861,21.961509 59.686977,19.247755 57.300660,20.122114 C 55.121775,20.920469 51.942352,20.001870 50.419688,19.942914 z "
     id="path1645"
     sodipodi:nodetypes="ccccccccccccccccccssc" />
  <path
     style="font-size:12.000000;fill-opacity:1.0000000;stroke-width:1.0000000pt"
     id="path1646"
     d="M 48.699175,23.834684 C 48.697939,23.834538 48.696703,23.834393 48.695467,23.834247 L 48.695467,22.863277 C 48.696703,22.863131 48.697939,22.862985 48.699175,22.862839 L 48.699175,23.834684 z " />
  <path
     style="font-size:12.000000;fill:url(#linearGradient1152);fill-rule:evenodd;stroke-width:1.0000000pt"
     d="M 46.639998,31.097209 C 45.802525,31.414047 45.755128,31.851865 45.725136,32.529792 C 46.044078,32.269139 45.914230,31.657591 47.025412,31.446339 C 48.910709,31.067394 49.558548,31.598054 49.662025,30.868439 C 50.016216,27.946710 49.845353,24.317214 50.143682,21.658103 C 50.214256,21.134650 50.243440,21.219658 51.151099,21.228752 C 52.746982,21.192545 57.463269,21.412178 57.537632,20.851321 C 54.240383,21.363781 50.758496,20.495689 49.914912,20.550535 C 49.625564,23.313614 49.655771,28.493569 49.517550,30.459131 C 49.454301,31.386111 48.114094,30.562287 46.639998,31.097209 z "
     id="path1647"
     sodipodi:nodetypes="ccssssccss" />
  <path
     style="font-size:12.000000;fill:url(#linearGradient1151);fill-rule:evenodd;stroke-width:1.0000000pt"
     d="M 54.331585,31.097209 C 53.494112,31.414047 53.446715,31.851865 53.416723,32.529792 C 53.735665,32.269139 53.605817,31.657591 54.716999,31.446339 C 56.602296,31.067394 57.448662,31.605296 57.458005,30.868439 C 57.499019,27.581336 57.542898,24.855800 57.574289,23.745950 C 57.533715,23.335052 57.667140,23.053301 57.449911,23.003755 C 57.264955,24.096557 57.347359,28.493569 57.209138,30.459131 C 57.145888,31.386111 55.805682,30.562287 54.331585,31.097209 z "
     id="path1648"
     sodipodi:nodetypes="ccssscss" />
  <metadata
     id="metadata1142">
    <rdf:RDF
       id="RDF1143">
      <cc:Work
         rdf:about=""
         id="Work1144">
        <dc:format
           id="format1145">image/svg+xml</dc:format>
        <dc:type
           id="type1147"
           rdf:resource="http://purl.org/dc/dcmitype/StillImage" />
      </cc:Work>
    </rdf:RDF>
  </metadata>
  <g
     id="g1204"
     style="font-size:12.000000;opacity:0.29636899"
     transform="matrix(-0.588727,0.247615,0.279818,0.665294,27.79783,5.406382)">
    <path
       style="fill-rule:evenodd;stroke-width:1.8750000"
       d="M 40.181906,49.683924 C 43.741420,46.987630 55.413093,36.819956 56.782923,33.597578 C 58.501012,29.555960 56.258798,19.433555 53.192815,16.716700 C 50.944448,14.724357 36.640091,12.559718 32.521925,12.563247 C 28.414485,12.566766 34.838722,53.731330 40.181906,49.683924 z "
       id="path1205"
       sodipodi:nodetypes="cssss" />
    <path
       style="fill-rule:evenodd;stroke-width:1.8750000"
       d="M 46.995589,33.682468 C 46.995589,44.404983 40.468842,53.107313 32.426956,53.107313 C 24.385071,53.107313 17.858323,44.404983 17.858323,33.682468 C 17.858323,22.959954 24.385071,14.257624 32.426956,14.257624 C 40.468842,14.257624 46.995589,22.959954 46.995589,33.682468 z "
       id="path1206"
       transform="matrix(1.373487,0.000000,0.000000,1.373487,-17.61598,-13.82184)" />
  </g>
  <path
     style="font-size:12.000000;fill:url(#linearGradient860);fill-rule:evenodd;stroke:#000000;stroke-width:1.2730188"
     d="M 16.518285,47.401792 C 13.847348,46.462043 4.7599409,42.540114 3.1895873,40.794198 C 1.2199958,38.604408 -0.032681977,31.706618 1.0166532,29.323141 C 1.7861584,27.575273 9.2917137,23.114886 11.608151,22.227852 C 13.918550,21.343128 20.527630,48.812449 16.518285,47.401792 z "
     id="path1207"
     sodipodi:nodetypes="cssss" />
  <path
     style="font-size:12.000000;fill:url(#linearGradient652);fill-rule:evenodd;stroke-width:1.0000000pt"
     d="M 2.3116893,29.994664 C 2.3853882,29.760464 7.7409284,25.242502 10.108794,24.455325 C 10.728229,24.249399 11.353878,26.760214 11.273589,27.015356 C 11.214481,27.203192 10.221324,25.607827 9.6906007,25.784264 C 7.2340233,26.600931 2.2459900,30.203444 2.3116893,29.994664 z "
     id="path1208"
     sodipodi:nodetypes="cssss" />
  <path
     style="font-size:12.000000;fill:url(#linearGradient581);fill-rule:evenodd;stroke:#261933;stroke-width:1.2730188"
     d="M 8.4827997,37.964108 C 12.368719,47.203214 20.499088,52.608509 26.630947,50.029475 C 32.762805,47.450456 34.585596,37.858921 30.699677,28.619812 C 26.813759,19.380704 18.683391,13.975419 12.551533,16.554445 C 6.4196712,19.133470 4.5968793,28.725000 8.4827997,37.964108 z "
     id="path1209" />
  <path
     style="font-size:12.000000;fill:url(#linearGradient583);fill-rule:evenodd;stroke-width:0.37500000"
     d="M 12.782841,36.155536 C 15.164534,41.818216 20.147663,45.131132 23.905900,43.550439 C 27.664135,41.969745 28.781331,36.091067 26.399639,30.428385 C 24.017947,24.765705 19.034816,21.452789 15.276579,23.033481 C 11.518342,24.614176 10.401149,30.492856 12.782841,36.155536 z "
     id="path1210" />
  <path
     style="font-size:12.000000;fill:url(#linearGradient861);fill-rule:evenodd;stroke:#261933;stroke-width:0.32974952"
     d="M 17.351634,34.233926 C 18.135086,36.096648 19.774272,37.186426 21.010534,36.666460 C 22.246796,36.146494 22.614294,34.212719 21.830843,32.349995 C 21.047392,30.487269 19.408205,29.397496 18.171941,29.917462 C 16.935679,30.437427 16.568181,32.371201 17.351634,34.233926 z "
     id="path1211" />
  <path
     style="font-size:12.000000;fill:url(#linearGradient862);fill-rule:evenodd;stroke-width:1.0000000pt"
     d="M 11.848891,41.219896 C 11.525815,40.905174 5.3831247,30.167776 9.5785777,21.169161 C 12.296137,15.486039 20.081110,17.760869 20.404661,18.076054 C 20.698570,18.362362 14.087890,16.910484 11.430954,22.973641 C 7.5002711,32.224479 12.143274,41.506666 11.848891,41.219896 z "
     id="path1212"
     sodipodi:nodetypes="cssss" />
  <path
     style="font-size:12.000000;fill:url(#linearGradient1150);fill-rule:evenodd;stroke-width:1.0000000pt"
     d="M 18.172229,34.995855 C 18.107106,34.932416 16.868910,32.768059 17.714598,30.954192 C 18.262379,29.808634 19.831612,30.267177 19.896830,30.330708 C 19.956074,30.388420 18.623547,30.095762 18.087984,31.317924 C 17.295670,33.182634 18.231566,35.053660 18.172229,34.995855 z "
     id="path1213"
     sodipodi:nodetypes="cssss" />
  <path
     style="font-size:12.000000;fill:url(#linearGradient1149);fill-rule:evenodd;stroke-width:1.0000000pt"
     d="M 24.458225,28.848936 C 24.650732,29.036465 28.310901,35.434423 25.811008,40.796314 C 24.191729,44.182645 19.552996,42.827171 19.360206,42.639365 C 19.185080,42.468765 23.124102,43.333879 24.707257,39.721102 C 27.049383,34.208921 24.282815,28.678060 24.458225,28.848936 z "
     id="path1214"
     sodipodi:nodetypes="cssss" />
  <path
     style="font-size:12.000000;fill:#000000;fill-opacity:0.30081299;fill-rule:evenodd;stroke:none;stroke-width:1.2500000"
     d="M 42.473147,37.385494 C 42.045587,37.368939 41.739391,37.434296 41.635034,37.652166 C 41.217603,38.523647 41.450454,46.010108 41.158833,46.014250 C 40.476656,46.023219 39.043987,46.083830 38.625446,46.414259 C 38.206903,46.744686 37.939717,47.205668 37.939717,47.709524 C 37.939717,48.213382 38.206903,48.655315 38.625446,48.985742 C 39.043987,49.316170 39.606309,49.519088 40.244528,49.519087 C 40.882746,49.519087 41.464116,49.316170 41.882658,48.985742 C 42.301200,48.655315 42.568388,47.470507 42.568387,46.966651 C 42.568387,46.714723 42.674328,42.363095 42.739819,40.471274 C 42.772566,39.525364 45.709545,40.907584 47.815593,40.204602 C 47.708059,42.707052 47.844342,46.011279 47.635162,46.014250 C 46.952985,46.023219 45.520315,46.083830 45.101775,46.414259 C 44.683233,46.744686 44.416046,47.205668 44.416046,47.709524 C 44.416046,48.213382 44.683231,48.655315 45.101775,48.985742 C 45.520316,49.316170 46.101686,49.519088 46.739905,49.519087 C 47.378124,49.519087 47.940445,49.316170 48.358987,48.985742 C 48.777529,48.655315 49.044717,47.470507 49.044716,46.966651 C 49.044716,46.714723 49.050177,42.438234 49.279166,40.559213 C 49.453350,39.085941 50.279834,36.799897 48.269621,37.536451 C 46.434146,38.208978 43.755827,37.435158 42.473147,37.385494 z "
     id="path1216"
     sodipodi:nodetypes="ccccccccccccccccccssc" />
  <path
     style="font-size:12.000000;fill:url(#linearGradient1148);fill-opacity:1.0000000;fill-rule:evenodd;stroke:#261933;stroke-width:0.76192111;stroke-opacity:1.0000000"
     d="M 41.524643,36.436989 C 41.097083,36.420435 40.790888,36.485792 40.686530,36.703662 C 40.269099,37.575142 40.501950,45.061603 40.210330,45.065746 C 39.528152,45.074715 38.095483,45.135326 37.676942,45.465754 C 37.258400,45.796182 36.991213,46.257163 36.991213,46.761020 C 36.991213,47.264877 37.258400,47.706811 37.676942,48.037238 C 38.095483,48.367665 38.657805,48.570583 39.296024,48.570583 C 39.934243,48.570583 40.515612,48.367666 40.934155,48.037238 C 41.352696,47.706810 41.619884,46.522003 41.619884,46.018147 C 41.619884,45.766219 41.725824,41.414591 41.791316,39.522770 C 41.824062,38.576859 44.761041,39.959079 46.867089,39.256097 C 46.759555,41.758547 46.895838,45.062774 46.686659,45.065746 C 46.004481,45.074715 44.571811,45.135326 44.153271,45.465754 C 43.734729,45.796182 43.467542,46.257163 43.467542,46.761020 C 43.467542,47.264877 43.734728,47.706811 44.153271,48.037238 C 44.571813,48.367665 45.153182,48.570583 45.791401,48.570583 C 46.429620,48.570583 46.991942,48.367666 47.410484,48.037238 C 47.829025,47.706810 48.096213,46.522003 48.096213,46.018147 C 48.096213,45.766219 48.101674,41.489730 48.330663,39.610709 C 48.504846,38.137437 49.331331,35.851393 47.321117,36.587946 C 45.485642,37.260474 42.807323,36.486653 41.524643,36.436989 z "
     id="path1217"
     sodipodi:nodetypes="ccccccccccccccccccssc" />
  <path
     style="font-size:12.000000;fill-opacity:1.0000000;stroke-width:1.0000000pt"
     id="path1218"
     d="M 40.075298,39.715384 C 40.074256,39.715261 40.073215,39.715138 40.072174,39.715015 L 40.072174,38.897078 C 40.073215,38.896956 40.074256,38.896833 40.075298,38.896710 L 40.075298,39.715384 z " />
  <path
     style="font-size:12.000000;fill:url(#linearGradient1147);fill-rule:evenodd;stroke-width:1.0000000pt"
     d="M 38.340664,45.833274 C 37.635184,46.100176 37.595257,46.468990 37.569993,47.040070 C 37.838666,46.820498 37.729283,46.305335 38.665334,46.127378 C 40.253492,45.808158 40.799227,46.255182 40.886395,45.640560 C 41.184763,43.179320 41.040829,40.121863 41.292139,37.881850 C 41.351589,37.440898 41.376174,37.512507 42.140778,37.520168 C 43.485136,37.489668 47.458097,37.674685 47.520740,37.202223 C 44.743165,37.633916 41.810053,36.902642 41.099424,36.948844 C 40.855680,39.276439 40.881127,43.639990 40.764690,45.295762 C 40.711410,46.076643 39.582431,45.382660 38.340664,45.833274 z "
     id="path1219"
     sodipodi:nodetypes="ccssssccss" />
  <path
     style="font-size:12.000000;fill:url(#linearGradient1146);fill-rule:evenodd;stroke-width:1.0000000pt"
     d="M 44.819993,45.833274 C 44.114512,46.100176 44.074586,46.468990 44.049321,47.040070 C 44.317995,46.820498 44.208612,46.305335 45.144663,46.127378 C 46.732821,45.808158 47.445793,46.261283 47.453663,45.640560 C 47.488213,42.871532 47.525176,40.575564 47.551620,39.640635 C 47.517440,39.294498 47.629837,39.057153 47.446844,39.015416 C 47.291039,39.935983 47.360455,43.639990 47.244019,45.295762 C 47.190738,46.076643 46.061760,45.382660 44.819993,45.833274 z "
     id="path1220"
     sodipodi:nodetypes="ccssscss" />
  <g
     id="g1214"
     transform="matrix(0.633669,0.000000,0.000000,0.633669,23.34817,22.99301)">
    <path
       transform="matrix(1.002994,0.000000,0.000000,1.002994,-4.024134,-3.787326)"
       style="font-size:12.000000;opacity:0.29999998;fill-rule:evenodd;stroke-width:2.0736699"
       d="M 61.407572,35.405640 C 61.407572,49.846445 49.687498,61.566519 35.246693,61.566519 C 20.805887,61.566519 9.0858135,49.846445 9.0858135,35.405640 C 9.0858135,20.964834 20.805887,9.2447605 35.246693,9.2447605 C 49.687498,9.2447605 61.407572,20.964834 61.407572,35.405640 z "
       id="path952" />
    <path
       transform="matrix(0.904192,0.000000,0.000000,0.904192,-1.246610,-1.620705)"
       style="font-size:12.000000;fill:url(#radialGradient917);fill-opacity:1.0000000;fill-rule:evenodd;stroke:#330000;stroke-width:2.0736699"
       d="M 61.407572,35.405640 C 61.407572,49.846445 49.687498,61.566519 35.246693,61.566519 C 20.805887,61.566519 9.0858135,49.846445 9.0858135,35.405640 C 9.0858135,20.964834 20.805887,9.2447605 35.246693,9.2447605 C 49.687498,9.2447605 61.407572,20.964834 61.407572,35.405640 z "
       id="path951" />
    <path
       style="opacity:0.80000001;fill:url(#linearGradient1220);fill-opacity:1.0000000;fill-rule:evenodd;stroke:none;stroke-width:1.0000000pt;stroke-linecap:butt;stroke-linejoin:miter;stroke-opacity:1.0000000"
       d="M 11.520046,40.726077 C 10.303378,38.932980 4.1209392,21.894544 19.052383,11.925963 C 31.915034,3.1170170 45.750489,13.900377 47.187880,17.021368 C 47.554568,17.874071 35.289059,7.9442935 22.153934,17.021368 C 7.5400833,27.293574 12.001846,41.517605 11.520046,40.726077 z "
       id="path918"
       sodipodi:nodetypes="cssss" />
    <path
       style="font-size:12.000000;fill:url(#linearGradient1221);fill-opacity:1.0000000;fill-rule:evenodd;stroke:#261933;stroke-width:1.8750000"
       d="M 15.628123,29.264957 C 23.842586,27.987298 37.651438,27.797452 45.904287,29.264957 C 47.749112,29.618161 47.765187,33.755986 45.904287,34.041666 C 37.529076,35.214815 23.720277,35.435356 15.628123,34.200891 C 13.750556,33.815791 13.750532,29.659931 15.628123,29.264957 z "
       id="path657"
       sodipodi:nodetypes="cssss" />
    <path
       style="fill:url(#linearGradient1222);fill-opacity:1.0000000;fill-rule:evenodd;stroke:none;stroke-width:1.0000000pt;stroke-linecap:butt;stroke-linejoin:miter;stroke-opacity:1.0000000"
       d="M 15.672211,32.493556 C 15.511394,32.324404 15.350667,30.591302 16.039214,30.466971 C 25.697925,28.610202 44.398254,29.976881 44.543074,30.129200 C 44.683701,30.277115 25.830728,29.950385 16.895552,31.367669 C 16.334225,31.449633 15.796841,32.624637 15.672211,32.493556 z "
       id="path658"
       sodipodi:nodetypes="cssss" />
  </g>
</svg>
