<?xml version="1.0" encoding="UTF-8" standalone="no"?>
<!DOCTYPE svg PUBLIC "-//W3C//DTD SVG 20010904//EN"
"http://www.w3.org/TR/2001/REC-SVG-20010904/DTD/svg10.dtd">
<!-- Created with Inkscape (http://www.inkscape.org/) -->
<svg
   id="svg1"
   sodipodi:version="0.32"
   inkscape:version="0.37"
   width="48pt"
   height="48pt"
   sodipodi:docbase="/home/tom"
   sodipodi:docname="kmixdocked_error.svg"
   xmlns="http://www.w3.org/2000/svg"
   xmlns:inkscape="http://www.inkscape.org/namespaces/inkscape"
   xmlns:sodipodi="http://sodipodi.sourceforge.net/DTD/sodipodi-0.dtd"
   xmlns:xlink="http://www.w3.org/1999/xlink">
  <defs
     id="defs3">
    <linearGradient
       id="linearGradient692">
      <stop
         style="stop-color:#ff0000;stop-opacity:1;"
         offset="0.00000000"
         id="stop693" />
      <stop
         style="stop-color:#9a0000;stop-opacity:1;"
         offset="1.00000000"
         id="stop694" />
    </linearGradient>
    <linearGradient
       id="linearGradient599">
      <stop
         style="stop-color:#ffffff;stop-opacity:1;"
         offset="0.00000000"
         id="stop600" />
      <stop
         style="stop-color:#d9cce6;stop-opacity:1;"
         offset="1.00000000"
         id="stop601" />
    </linearGradient>
    <linearGradient
       id="linearGradient584">
      <stop
         style="stop-color:#ffffff;stop-opacity:1;"
         offset="0.00000000"
         id="stop585" />
      <stop
         style="stop-color:#ffffff;stop-opacity:0;"
         offset="1.00000000"
         id="stop586" />
    </linearGradient>
    <linearGradient
       id="linearGradient578">
      <stop
         style="stop-color:#d9cce6;stop-opacity:1;"
         offset="0.00000000"
         id="stop579" />
      <stop
         style="stop-color:#73667f;stop-opacity:1;"
         offset="1.00000000"
         id="stop580" />
    </linearGradient>
    <linearGradient
       xlink:href="#linearGradient578"
       id="linearGradient581"
       x1="-0.00000000"
       y1="0.00000000"
       x2="0.97916669"
       y2="0.97656250" />
    <linearGradient
       xlink:href="#linearGradient578"
       id="linearGradient583"
       x1="0.98979592"
       y1="0.99218750"
       x2="0.03061225"
       y2="-0.00000000" />
    <linearGradient
       xlink:href="#linearGradient578"
       id="linearGradient860"
       x1="-0.00000000"
       y1="-0.00000000"
       x2="0.98076922"
       y2="1.00781250" />
    <linearGradient
       xlink:href="#linearGradient599"
       id="linearGradient861"
       x1="0.98979592"
       y1="0.99218750"
       x2="0.03061225"
       y2="0.00000000" />
    <linearGradient
       xlink:href="#linearGradient584"
       id="linearGradient862"
       x1="-0.00000000"
       y1="0.00000000"
       x2="0.97457629"
       y2="0.99218750" />
    <radialGradient
       xlink:href="#linearGradient578"
       id="radialGradient595"
       cx="0.33846155"
       cy="0.34375000"
       r="0.66501766"
       fx="0.33076921"
       fy="0.33593750" />
    <linearGradient
       xlink:href="#linearGradient584"
       id="linearGradient652"
       x1="-0.00000000"
       y1="-0.00000000"
       x2="0.99637681"
       y2="0.96052629" />
    <linearGradient
       xlink:href="#linearGradient692"
       id="linearGradient654"
       x1="0.00000000"
       y1="-0.00000000"
       x2="1.00000000"
       y2="-0.00000000" />
    <linearGradient
       xlink:href="#linearGradient599"
       id="linearGradient661"
       x1="0.00000000"
       y1="-0.00000000"
       x2="0.97916669"
       y2="0.97656250" />
    <linearGradient
       xlink:href="#linearGradient584"
       id="linearGradient616"
       x1="-0.00000000"
       y1="-0.00000000"
       x2="0.99637681"
       y2="0.92500001" />
    <linearGradient
       xlink:href="#linearGradient584"
       id="linearGradient618"
       x1="0.00000000"
       y1="-0.00000000"
       x2="1.00000000"
       y2="1.00781250" />
    <linearGradient
       xlink:href="#linearGradient584"
       id="linearGradient620"
       x1="-0.00000000"
       y1="0.00000000"
       x2="1.00000000"
       y2="0.99218750" />
    <linearGradient
       xlink:href="#linearGradient584"
       id="linearGradient633"
       x1="0.00000000"
       y1="0.00000000"
       x2="1.00000000"
       y2="0.00000000" />
  </defs>
  <sodipodi:namedview
     id="base"
     pagecolor="#ffffff"
     bordercolor="#666666"
     borderopacity="1.0"
     inkscape:pageopacity="0.0"
     inkscape:pageshadow="2"
     inkscape:zoom="7.99999999"
     inkscape:cx="27.7502289"
     inkscape:cy="25.3287888"
     inkscape:window-width="1018"
     inkscape:window-height="711"
     inkscape:window-x="0"
     inkscape:window-y="30"
     showborder="true"
     showgrid="false" />
  <g
     id="g650"
     style="font-size:12;opacity:0.296369;"
     transform="matrix(-0.707838,0.000000,0.000000,0.859444,44.27294,3.258012)">
    <path
       style="font-size:12;fill-rule:evenodd;stroke-width:1.875;"
       d="M 40.181906 49.683924 C 43.74142 46.98763 55.413093 36.819956 56.782923 33.597578 C 58.501012 29.55596 56.258798 19.433555 53.192815 16.7167 C 50.944448 14.724357 36.640091 12.559718 32.521925 12.563247 C 28.414485 12.566766 34.838722 53.73133 40.181906 49.683924 z "
       id="path643"
       sodipodi:nodetypes="cssss" />
    <path
       style="font-size:12;fill-rule:evenodd;stroke-width:1.875;"
       d="M 46.995589 33.682468 C 46.995589 44.404983 40.468842 53.107313 32.426956 53.107313 C 24.385071 53.107313 17.858323 44.404983 17.858323 33.682468 C 17.858323 22.959954 24.385071 14.257624 32.426956 14.257624 C 40.468842 14.257624 46.995589 22.959954 46.995589 33.682468 z "
       id="path644"
       transform="matrix(1.373487,0.000000,0.000000,1.373487,-17.61598,-13.82184)" />
  </g>
  <path
     style="font-size:12;fill:url(#linearGradient860);fill-rule:evenodd;stroke:#000000;stroke-width:1.5775;"
     d="M 14.705224 46.274403 C 12.380387 43.63944 4.78187 33.74901 3.927782 30.675638 C 2.8565551 26.820909 4.5406572 17.338384 6.6367871 14.857958 C 8.1739345 13.038995 17.75814 11.374089 20.505749 11.485517 C 23.246201 11.596653 18.195038 50.229745 14.705224 46.274403 z "
     id="path637"
     sodipodi:nodetypes="cssss"
     transform="matrix(1.000000,0.000000,0.000000,0.859444,0.000000,4.376755)" />
  <path
     style="font-size:12;fill:url(#linearGradient652);fill-rule:evenodd;stroke-width:1pt;"
     d="M 7.6712562 16.411257 C 7.8471773 16.151733 15.259667 13.258374 18.01691 13.524963 C 18.738206 13.594703 18.298525 17.137511 18.106873 17.420241 C 17.965777 17.628388 17.636664 15.057348 17.018666 14.997597 C 14.158125 14.721021 7.5144291 16.642611 7.6712562 16.411257 z "
     id="path642"
     sodipodi:nodetypes="cssss"
     transform="matrix(1.000000,0.000000,0.000000,0.859444,0.000000,4.376755)" />
  <path
     style="font-size:12;fill:url(#linearGradient581);fill-rule:evenodd;stroke:#261933;stroke-width:1.5775;"
     d="M 10.551353 29.904494 C 10.551353 43.79177 16.534795 55.062602 23.907252 55.062602 C 31.279707 55.062602 37.26315 43.79177 37.26315 29.904494 C 37.26315 16.017218 31.279707 4.7463862 23.907252 4.7463862 C 16.534795 4.7463862 10.551353 16.017218 10.551353 29.904494 z "
     id="path635"
     transform="matrix(1.000000,0.000000,0.000000,0.859444,0.000000,4.376755)" />
  <path
     style="font-size:12;fill:url(#linearGradient583);fill-rule:evenodd;stroke-width:0.375;"
     d="M 15.721378 29.904494 C 15.721378 38.416051 19.388649 45.32398 23.907252 45.32398 C 28.425854 45.32398 32.093126 38.416051 32.093126 29.904494 C 32.093126 21.392937 28.425854 14.485008 23.907252 14.485008 C 19.388649 14.485008 15.721378 21.392937 15.721378 29.904494 z "
     id="path636"
     transform="matrix(1.000000,0.000000,0.000000,0.859444,0.000000,4.376755)" />
  <path
     style="font-size:12;fill:url(#linearGradient861);fill-rule:evenodd;stroke:#261933;stroke-width:0.408619;"
     d="M 21.21453 29.904494 C 21.21453 32.704347 22.420868 34.976692 23.90725 34.976692 C 25.393634 34.976692 26.599973 32.704347 26.599973 29.904494 C 26.599973 27.104638 25.393634 24.832294 23.90725 24.832294 C 22.420868 24.832294 21.21453 27.104638 21.21453 29.904494 z "
     id="path638"
     transform="matrix(1.000000,0.000000,0.000000,0.859444,0.000000,4.376755)" />
  <path
     style="font-size:12;fill:url(#linearGradient862);fill-rule:evenodd;stroke-width:1pt;"
     d="M 12.591206 35.870837 C 12.396382 35.295337 10.734648 18.282231 18.887236 9.043169 C 24.105413 3.2446628 31.08109 10.331848 31.276201 10.908194 C 31.453436 11.431735 25.323811 6.0263903 20.004275 12.34283 C 12.013802 22.046248 12.768728 36.395224 12.591206 35.870837 z "
     id="path639"
     sodipodi:nodetypes="cssss"
     transform="matrix(1.000000,0.000000,0.000000,0.859444,0.000000,4.376755)" />
  <path
     style="font-size:12;fill:url(#linearGradient862);fill-rule:evenodd;stroke-width:1pt;"
     d="M 21.725464 31.318402 C 21.686193 31.202397 21.351233 27.773034 22.994567 25.9107 C 24.046403 24.741884 25.452503 26.170461 25.491832 26.286636 C 25.527558 26.392167 24.291998 25.302602 23.21973 26.575819 C 21.609075 28.531754 21.761246 31.424103 21.725464 31.318402 z "
     id="path640"
     sodipodi:nodetypes="cssss"
     transform="matrix(1.000000,0.000000,0.000000,0.859444,0.000000,4.376755)" />
  <path
     style="font-size:12;fill:url(#linearGradient862);fill-rule:evenodd;stroke-width:1pt;"
     d="M 30.788437 26.844407 C 30.904524 27.187322 31.894681 37.324707 27.0369 42.829871 C 23.927611 46.284953 19.771103 42.062002 19.654844 41.718581 C 19.549238 41.406625 23.20162 44.62744 26.371305 40.863744 C 31.132488 35.08189 30.682659 26.531946 30.788437 26.844407 z "
     id="path641"
     sodipodi:nodetypes="cssss"
     transform="matrix(1.000000,0.000000,0.000000,0.859444,0.000000,4.376755)" />
  <path
     transform="matrix(1.000000,0.000000,0.000000,0.706654,0.000000,9.101817)"
     style="font-size:12;fill:none;fill-opacity:1.00;fill-rule:evenodd;stroke:#000000;stroke-width:2.75706;stroke-opacity:0.395161;"
     d="M 41.25676 22.565997 C 42.235432 24.780155 42.776722 27.214109 42.776722 29.768373 C 42.776722 32.322637 42.235432 34.756591 41.25676 36.97075 "
     id="path658"
     sodipodi:nodetypes="ccs" />
  <path
     transform="matrix(1.000000,0.000000,0.000000,0.817314,0.000000,5.639549)"
     style="font-size:12;fill:none;fill-opacity:1.00;fill-rule:evenodd;stroke:#000000;stroke-width:2.56362;stroke-opacity:0.395161;"
     d="M 41.946073 15.143259 C 44.235348 17.041682 46.088269 19.301959 47.368872 21.811338 C 48.649474 24.320717 49.357758 27.079199 49.357758 29.974031 C 49.357758 32.868864 48.649474 35.627345 47.368872 38.136724 C 46.088269 40.646104 44.235348 42.906381 41.946073 44.804803 "
     id="path659"
     sodipodi:nodetypes="cscss" />
  <path
     transform="matrix(1.000000,0.000000,0.000000,0.832375,0.000000,5.099749)"
     style="font-size:12;fill:none;fill-opacity:1.00;fill-rule:evenodd;stroke:#000000;stroke-width:2.54033;stroke-opacity:0.395161;"
     d="M 41.929107 7.5114832 C 43.668824 8.4505241 45.289493 9.5197493 46.769146 10.701611 C 49.728452 13.065333 52.123691 16.686255 53.779104 19.810678 C 55.434517 22.935101 56.350103 26.369681 56.350103 29.974031 C 56.350103 33.578381 55.434517 37.012961 53.779104 40.137384 C 52.123691 43.261807 49.728452 46.88273 46.769146 49.246452 C 45.289493 50.428313 43.668824 51.497539 41.929107 52.43658 "
     id="path657"
     sodipodi:nodetypes="csscsss" />
  <path
     style="font-size:12;opacity:0.3;fill-rule:evenodd;stroke-width:2.07367;"
     d="M 58.03604 43.911818 C 58.03604 52.444609 51.110878 59.369773 42.578088 59.369773 C 34.045296 59.369773 27.120132 52.444609 27.120132 43.911818 C 27.120132 35.379027 34.045296 28.453863 42.578088 28.453863 C 51.110878 28.453863 58.03604 35.379027 58.03604 43.911818 z "
     id="path952" />
  <path
     style="font-size:12;fill:url(#linearGradient654);fill-rule:evenodd;stroke:#330000;stroke-width:1.1046;"
     d="M 56.09805 43.127394 C 56.09805 50.819645 49.855058 57.062631 42.162808 57.062631 C 34.470557 57.062631 28.22757 50.819645 28.22757 43.127394 C 28.22757 35.435142 34.470557 29.192156 42.162808 29.192156 C 49.855058 29.192156 56.09805 35.435142 56.09805 43.127394 z "
     id="path951" />
  <path
     style="fill:url(#linearGradient661);fill-rule:evenodd;stroke:none;stroke-opacity:1;stroke-width:1pt;stroke-linejoin:miter;stroke-linecap:butt;fill-opacity:1;opacity:0.800000;"
     d="M 30.908839 49.214905 C 30.192079 48.158562 26.549901 38.120934 35.346265 32.248276 C 42.923868 27.058779 51.074565 33.411437 51.921356 35.250065 C 52.137378 35.752406 44.911562 29.902608 37.17344 35.250065 C 28.564176 41.301593 31.192675 49.681208 30.908839 49.214905 z "
     id="path918"
     sodipodi:nodetypes="cssss" />
  <path
     style="font-size:12;fill:url(#linearGradient599);fill-rule:evenodd;stroke:#261933;stroke-width:1.1046;"
     d="M 33.328975 42.462968 C 38.168253 41.710277 46.303279 41.598436 51.16517 42.462968 C 52.251987 42.671046 52.261458 45.108708 51.16517 45.277007 C 46.231193 45.968128 38.096199 46.098053 33.328975 45.370809 C 32.222869 45.14394 32.222855 42.695653 33.328975 42.462968 z "
     id="path690"
     sodipodi:nodetypes="cssss" />
  <path
     style="fill:url(#linearGradient583);fill-rule:evenodd;stroke:none;stroke-opacity:1;stroke-width:1pt;stroke-linejoin:miter;stroke-linecap:butt;fill-opacity:1;"
     d="M 33.354948 44.364989 C 33.260208 44.265339 33.165521 43.24434 33.571156 43.171094 C 39.261264 42.077241 50.277941 42.882374 50.363257 42.972107 C 50.446102 43.059247 39.339501 42.866765 34.075639 43.70171 C 33.744952 43.749997 33.42837 44.442211 33.354948 44.364989 z "
     id="path691"
     sodipodi:nodetypes="cssss" />
</svg>
