<?xml version="1.0" encoding="UTF-8" standalone="no"?>
<!DOCTYPE svg PUBLIC "-//W3C//DTD SVG 20010904//EN"
"http://www.w3.org/TR/2001/REC-SVG-20010904/DTD/svg10.dtd">
<!-- Created with Inkscape (http://www.inkscape.org/) -->
<svg
   id="svg1"
   sodipodi:version="0.32"
   inkscape:version="0.40"
   width="48pt"
   height="48pt"
   sodipodi:docbase="/home/jakob/dev/lila-cvs/lila/kde/scalable/apps"
   sodipodi:docname="kmixdocked.svg"
   xmlns="http://www.w3.org/2000/svg"
   xmlns:cc="http://web.resource.org/cc/"
   xmlns:inkscape="http://www.inkscape.org/namespaces/inkscape"
   xmlns:sodipodi="http://sodipodi.sourceforge.net/DTD/sodipodi-0.dtd"
   xmlns:rdf="http://www.w3.org/1999/02/22-rdf-syntax-ns#"
   xmlns:dc="http://purl.org/dc/elements/1.1/"
   xmlns:xlink="http://www.w3.org/1999/xlink">
  <defs
     id="defs3">
    <linearGradient
       id="linearGradient758">
      <stop
         style="stop-color:#d9cce6;stop-opacity:1;"
         offset="0.00000000"
         id="stop759" />
      <stop
         style="stop-color:#73667f;stop-opacity:1;"
         offset="1.00000000"
         id="stop760" />
    </linearGradient>
    <linearGradient
       id="linearGradient745">
      <stop
         style="stop-color:#d9cce6;stop-opacity:1;"
         offset="0.00000000"
         id="stop746" />
      <stop
         style="stop-color:#73667f;stop-opacity:1;"
         offset="1.00000000"
         id="stop747" />
    </linearGradient>
    <linearGradient
       id="linearGradient742">
      <stop
         offset="0.00000000"
         style="stop-color:#d9cce6;stop-opacity:1;"
         id="stop744" />
      <stop
         offset="1.00000000"
         style="stop-color:#73667f;stop-opacity:1;"
         id="stop743" />
    </linearGradient>
    <linearGradient
       id="linearGradient711">
      <stop
         offset="0.00000000"
         style="stop-color:#ffffff;stop-opacity:1;"
         id="stop713" />
      <stop
         offset="1.00000000"
         style="stop-color:#ffffff;stop-opacity:0;"
         id="stop712" />
    </linearGradient>
    <linearGradient
       id="linearGradient599">
      <stop
         style="stop-color:#ffffff;stop-opacity:1;"
         offset="0.00000000"
         id="stop600" />
      <stop
         style="stop-color:#d9cce6;stop-opacity:1;"
         offset="1.00000000"
         id="stop601" />
    </linearGradient>
    <linearGradient
       id="linearGradient584">
      <stop
         style="stop-color:#ffffff;stop-opacity:1;"
         offset="0.00000000"
         id="stop585" />
      <stop
         style="stop-color:#ffffff;stop-opacity:0;"
         offset="1.00000000"
         id="stop586" />
    </linearGradient>
    <linearGradient
       id="linearGradient578">
      <stop
         style="stop-color:#d9cce6;stop-opacity:1;"
         offset="0.00000000"
         id="stop579" />
      <stop
         style="stop-color:#73667f;stop-opacity:1;"
         offset="1.00000000"
         id="stop580" />
    </linearGradient>
    <linearGradient
       xlink:href="#linearGradient578"
       id="linearGradient581"
       x1="8.5765921"
       y1="14.826067"
       x2="38.038175"
       y2="44.209295"
       gradientTransform="matrix(0.916483,0.000000,0.000000,1.197638,-2.056823,-2.482986)"
       gradientUnits="userSpaceOnUse" />
    <linearGradient
       xlink:href="#linearGradient578"
       id="linearGradient583"
       x1="32.418913"
       y1="38.408619"
       x2="15.451335"
       y2="20.857216"
       gradientTransform="matrix(0.911320,0.000000,0.000000,1.204422,-2.056823,-2.482986)"
       gradientUnits="userSpaceOnUse" />
    <linearGradient
       xlink:href="#linearGradient578"
       id="linearGradient860"
       x1="2.3557917"
       y1="19.132222"
       x2="23.045666"
       y2="40.392590"
       gradientTransform="matrix(0.873092,0.000000,0.000000,1.257157,-2.056823,-2.482986)"
       gradientUnits="userSpaceOnUse" />
    <linearGradient
       xlink:href="#linearGradient599"
       id="linearGradient861"
       x1="26.590479"
       y1="32.936240"
       x2="20.704352"
       y2="26.847582"
       gradientTransform="matrix(0.917882,0.000000,0.000000,1.195812,-2.056823,-2.482986)"
       gradientUnits="userSpaceOnUse" />
    <linearGradient
       xlink:href="#linearGradient584"
       id="linearGradient862"
       x1="13.529301"
       y1="13.596412"
       x2="29.464286"
       y2="29.819352"
       gradientTransform="matrix(0.752041,0.000000,0.000000,1.459513,-2.056823,-2.482986)"
       gradientUnits="userSpaceOnUse" />
    <radialGradient
       xlink:href="#linearGradient578"
       id="radialGradient595"
       cx="0.33846155"
       cy="0.34375000"
       r="0.66501766"
       fx="0.33076921"
       fy="0.33593750" />
    <linearGradient
       xlink:href="#linearGradient584"
       id="linearGradient652"
       x1="3.2824602"
       y1="32.642122"
       x2="9.9986503"
       y2="39.116657"
       gradientTransform="matrix(1.330670,0.000000,0.000000,0.824858,-2.056823,-2.482986)"
       gradientUnits="userSpaceOnUse" />
    <linearGradient
       xlink:href="#linearGradient584"
       id="linearGradient654"
       x1="30.627296"
       y1="36.956167"
       x2="46.526911"
       y2="52.884013"
       gradientTransform="matrix(0.885015,0.000000,0.000000,0.897697,4.358189,-27.96485)"
       gradientUnits="userSpaceOnUse" />
    <linearGradient
       xlink:href="#linearGradient758"
       id="linearGradient661"
       x1="0.00000000"
       y1="0.03125000"
       x2="0.96629214"
       y2="0.95312500" />
    <linearGradient
       xlink:href="#linearGradient578"
       id="linearGradient616"
       x1="29.712094"
       y1="35.477023"
       x2="49.292671"
       y2="54.941552"
       gradientTransform="matrix(0.874565,0.000000,0.000000,0.908424,4.358189,-27.96485)"
       gradientUnits="userSpaceOnUse" />
    <linearGradient
       xlink:href="#linearGradient584"
       id="linearGradient618"
       x1="0.00000000"
       y1="-0.00000000"
       x2="1.00000000"
       y2="1.00781250" />
    <linearGradient
       xlink:href="#linearGradient584"
       id="linearGradient620"
       x1="-0.00000000"
       y1="0.00000000"
       x2="1.00000000"
       y2="0.99218750" />
    <linearGradient
       xlink:href="#linearGradient584"
       id="linearGradient633"
       x1="0.00000000"
       y1="0.00000000"
       x2="1.00000000"
       y2="0.00000000" />
    <linearGradient
       inkscape:collect="always"
       xlink:href="#linearGradient584"
       id="linearGradient1139"
       x1="61.915553"
       y1="26.809235"
       x2="70.330377"
       y2="35.238999"
       gradientTransform="matrix(0.402881,0.000000,0.000000,0.922195,19.14322,14.41628)"
       gradientUnits="userSpaceOnUse" />
    <linearGradient
       inkscape:collect="always"
       xlink:href="#linearGradient584"
       id="linearGradient1140"
       x1="30.627296"
       y1="36.956167"
       x2="46.526911"
       y2="52.884013"
       gradientTransform="matrix(0.605216,0.000000,0.000000,0.613888,19.14322,14.41628)"
       gradientUnits="userSpaceOnUse" />
    <linearGradient
       inkscape:collect="always"
       xlink:href="#linearGradient578"
       id="linearGradient1141"
       x1="29.712094"
       y1="35.477023"
       x2="49.292671"
       y2="54.941552"
       gradientTransform="matrix(0.598070,0.000000,0.000000,0.621224,19.14322,14.41628)"
       gradientUnits="userSpaceOnUse" />
    <linearGradient
       inkscape:collect="always"
       xlink:href="#linearGradient584"
       id="linearGradient1142"
       x1="28.471014"
       y1="21.463920"
       x2="37.965993"
       y2="31.130479"
       gradientTransform="matrix(0.752041,0.000000,0.000000,1.459513,-2.056823,-2.482986)"
       gradientUnits="userSpaceOnUse" />
    <linearGradient
       inkscape:collect="always"
       xlink:href="#linearGradient584"
       id="linearGradient1143"
       x1="25.898800"
       y1="22.383246"
       x2="29.110844"
       y2="25.653333"
       gradientTransform="matrix(0.752041,0.000000,0.000000,1.459513,-2.056823,-2.482986)"
       gradientUnits="userSpaceOnUse" />
    <linearGradient
       inkscape:collect="always"
       xlink:href="#linearGradient584"
       id="linearGradient1144"
       x1="61.915553"
       y1="26.809235"
       x2="70.330377"
       y2="35.238999"
       gradientTransform="matrix(0.478259,0.000000,0.000000,1.094734,23.85078,-6.197570)"
       gradientUnits="userSpaceOnUse" />
    <linearGradient
       inkscape:collect="always"
       xlink:href="#linearGradient584"
       id="linearGradient1145"
       x1="30.627296"
       y1="36.956167"
       x2="46.526911"
       y2="52.884013"
       gradientTransform="matrix(0.718450,0.000000,0.000000,0.728745,23.85078,-6.197570)"
       gradientUnits="userSpaceOnUse" />
    <linearGradient
       inkscape:collect="always"
       xlink:href="#linearGradient578"
       id="linearGradient1146"
       x1="29.712094"
       y1="35.477023"
       x2="49.292671"
       y2="54.941552"
       gradientTransform="matrix(0.709966,0.000000,0.000000,0.737453,23.85078,-6.197570)"
       gradientUnits="userSpaceOnUse" />
    <linearGradient
       inkscape:collect="always"
       xlink:href="#linearGradient584"
       id="linearGradient1147"
       x1="61.915553"
       y1="26.809235"
       x2="70.330377"
       y2="35.238999"
       gradientTransform="matrix(0.589139,0.000000,0.000000,1.348538,4.358189,-27.96485)"
       gradientUnits="userSpaceOnUse" />
  </defs>
  <sodipodi:namedview
     id="base"
     pagecolor="#ffffff"
     bordercolor="#666666"
     borderopacity="1.0"
     inkscape:pageopacity="0.0"
     inkscape:pageshadow="2"
     inkscape:zoom="5.6568543"
     inkscape:cx="36.502208"
     inkscape:cy="23.685272"
     inkscape:window-width="1400"
     inkscape:window-height="991"
     inkscape:window-x="0"
     inkscape:window-y="0"
     showborder="true"
     showgrid="false"
     gridspacingx="1pt"
     gridspacingy="1pt"
     snaptogrid="false"
     inkscape:grid-bbox="false"
     inkscape:current-layer="svg1" />
  <path
     style="font-size:12.000000;fill:#000000;fill-opacity:0.30081299;fill-rule:evenodd;stroke:none;stroke-width:1.2500000"
     d="M 38.473878,5.6216106 C 37.848651,5.5974029 37.400897,5.6929753 37.248294,6.0115693 C 36.637879,7.2859471 36.978380,18.233501 36.551939,18.239559 C 35.554382,18.252675 33.459371,18.341306 32.847332,18.824497 C 32.235292,19.307685 31.844581,19.981785 31.844581,20.718581 C 31.844581,21.455379 32.235292,22.101624 32.847332,22.584812 C 33.459371,23.068001 34.281661,23.364730 35.214938,23.364730 C 36.148213,23.364730 36.998358,23.068002 37.610398,22.584812 C 38.222437,22.101624 38.613150,20.369064 38.613149,19.632268 C 38.613149,19.263870 38.768067,12.900425 38.863837,10.133989 C 38.911722,8.7507717 43.206506,10.772011 46.286209,9.7440307 C 46.128961,13.403397 46.328250,18.235213 46.022363,18.239559 C 45.024806,18.252675 42.929793,18.341306 42.317756,18.824497 C 41.705716,19.307685 41.315005,19.981785 41.315005,20.718581 C 41.315005,21.455379 41.705714,22.101624 42.317756,22.584812 C 42.929795,23.068001 43.779940,23.364730 44.713216,23.364730 C 45.646492,23.364730 46.468783,23.068002 47.080822,22.584812 C 47.692861,22.101624 48.083574,20.369064 48.083573,19.632268 C 48.083573,19.263870 48.091559,13.010302 48.426412,10.262584 C 48.681124,8.1081983 49.889703,4.7652846 46.950140,5.8423567 C 44.266101,6.8258030 40.349558,5.6942348 38.473878,5.6216106 z "
     id="path1632"
     sodipodi:nodetypes="ccccccccccccccccccssc" />
  <path
     style="font-size:12.000000;fill:url(#linearGradient616);fill-opacity:1.0000000;fill-rule:evenodd;stroke:#261933;stroke-width:1.1141676;stroke-opacity:1.0000000"
     d="M 37.086862,4.2345930 C 36.461635,4.2103853 36.013881,4.3059577 35.861278,4.6245517 C 35.250863,5.8989294 35.591364,16.846483 35.164923,16.852541 C 34.167366,16.865657 32.072355,16.954289 31.460316,17.437479 C 30.848276,17.920668 30.457565,18.594768 30.457565,19.331564 C 30.457565,20.068361 30.848276,20.714607 31.460316,21.197795 C 32.072355,21.680983 32.894645,21.977713 33.827922,21.977712 C 34.761198,21.977712 35.611343,21.680984 36.223382,21.197795 C 36.835421,20.714606 37.226134,18.982046 37.226133,18.245250 C 37.226133,17.876852 37.381052,11.513407 37.476821,8.7469717 C 37.524706,7.3637541 41.819491,9.3849931 44.899193,8.3570131 C 44.741945,12.016380 44.941234,16.848196 44.635348,16.852541 C 43.637791,16.865657 41.542778,16.954289 40.930740,17.437479 C 40.318701,17.920668 39.927990,18.594768 39.927990,19.331564 C 39.927990,20.068361 40.318699,20.714607 40.930740,21.197795 C 41.542779,21.680983 42.392924,21.977713 43.326201,21.977712 C 44.259477,21.977712 45.081767,21.680984 45.693807,21.197795 C 46.305846,20.714606 46.696559,18.982046 46.696558,18.245250 C 46.696558,17.876852 46.704543,11.623285 47.039397,8.8755663 C 47.294108,6.7211806 48.502688,3.3782670 45.563125,4.4553390 C 42.879085,5.4387853 38.962543,4.3072171 37.086862,4.2345930 z "
     id="path1615"
     sodipodi:nodetypes="ccccccccccccccccccssc" />
  <path
     style="font-size:12.000000;fill-opacity:1.0000000;stroke-width:1.0000000pt"
     id="path682"
     d="M 34.967464,9.0286342 C 34.965942,9.0284542 34.964419,9.0282750 34.962897,9.0280949 L 34.962897,7.8320146 C 34.964419,7.8318355 34.965942,7.8316554 34.967464,7.8314754 L 34.967464,9.0286342 z " />
  <path
     style="font-size:12.000000;fill:url(#linearGradient654);fill-rule:evenodd;stroke-width:1.0000000pt"
     d="M 32.430886,17.974909 C 31.399252,18.365203 31.340867,18.904524 31.303922,19.739622 C 31.696807,19.418539 31.536856,18.665210 32.905655,18.404981 C 35.228040,17.938181 36.026076,18.591870 36.153543,17.693100 C 36.589850,14.093995 36.379374,9.6230337 36.746867,6.3474327 C 36.833803,5.7026220 36.869754,5.8073377 37.987844,5.8185400 C 39.953718,5.7739394 45.763433,6.0444923 45.855037,5.3536050 C 41.793350,5.9848745 37.504221,4.9155232 36.465059,4.9830846 C 36.108628,8.3867587 36.145839,14.767638 35.975573,17.188897 C 35.897660,18.330790 34.246739,17.315970 32.430886,17.974909 z "
     id="path1610"
     sodipodi:nodetypes="ccssssccss" />
  <path
     style="font-size:12.000000;fill:url(#linearGradient1147);fill-rule:evenodd;stroke-width:1.0000000pt"
     d="M 41.905697,17.974909 C 40.874063,18.365203 40.815678,18.904524 40.778733,19.739622 C 41.171618,19.418539 41.011666,18.665210 42.380466,18.404981 C 44.702851,17.938181 45.745440,18.600791 45.756948,17.693100 C 45.807472,13.643913 45.861523,10.286487 45.900192,8.9193281 C 45.850211,8.4131662 46.014570,8.0660941 45.746978,8.0050618 C 45.519142,9.3512196 45.620650,14.767638 45.450384,17.188897 C 45.372470,18.330790 43.721549,17.315970 41.905697,17.974909 z "
     id="path1616"
     sodipodi:nodetypes="ccssscss" />
  <path
     style="font-size:12.000000;fill:#000000;fill-opacity:0.30081299;fill-rule:evenodd;stroke:none;stroke-width:1.2500000"
     d="M 51.545658,21.067690 C 51.038103,21.048039 50.674619,21.125624 50.550737,21.384256 C 50.055206,22.418787 50.331623,31.305937 49.985441,31.310855 C 49.175631,31.321502 47.474915,31.393453 46.978066,31.785704 C 46.481216,32.177953 46.164039,32.725183 46.164039,33.323309 C 46.164039,33.921436 46.481216,34.446054 46.978066,34.838302 C 47.474915,35.230552 48.142445,35.471435 48.900072,35.471434 C 49.657699,35.471434 50.347841,35.230552 50.844691,34.838302 C 51.341540,34.446053 51.658718,33.039573 51.658717,32.441447 C 51.658717,32.142384 51.784479,26.976582 51.862224,24.730809 C 51.901096,23.607922 55.387573,25.248750 57.887655,24.414243 C 57.760002,27.384892 57.921783,31.307327 57.673467,31.310855 C 56.863657,31.321502 55.162940,31.393453 54.666092,31.785704 C 54.169242,32.177953 53.852066,32.725183 53.852066,33.323309 C 53.852066,33.921436 54.169241,34.446054 54.666092,34.838302 C 55.162941,35.230552 55.853083,35.471435 56.610710,35.471434 C 57.368337,35.471434 58.035867,35.230552 58.532717,34.838302 C 59.029566,34.446053 59.346744,33.039573 59.346743,32.441447 C 59.346743,32.142384 59.353226,27.065780 59.625058,24.835201 C 59.831831,23.086285 60.812947,20.372531 58.426630,21.246890 C 56.247745,22.045245 53.068323,21.126646 51.545658,21.067690 z "
     id="path1644"
     sodipodi:nodetypes="ccccccccccccccccccssc" />
  <path
     style="font-size:12.000000;fill:url(#linearGradient1146);fill-opacity:1.0000000;fill-rule:evenodd;stroke:#261933;stroke-width:0.90447372;stroke-opacity:1.0000000"
     d="M 50.419688,19.941720 C 49.912132,19.922069 49.548649,19.999654 49.424767,20.258286 C 48.929236,21.292817 49.205652,30.179967 48.859471,30.184885 C 48.049661,30.195532 46.348945,30.267483 45.852096,30.659734 C 45.355246,31.051983 45.038069,31.599213 45.038069,32.197339 C 45.038069,32.795466 45.355246,33.320084 45.852096,33.712332 C 46.348945,34.104581 47.016474,34.345465 47.774102,34.345464 C 48.531729,34.345464 49.221871,34.104582 49.718721,33.712332 C 50.215570,33.320083 50.532748,31.913603 50.532747,31.315477 C 50.532747,31.016414 50.658509,25.850612 50.736253,23.604839 C 50.775126,22.481952 54.261603,24.122780 56.761685,23.288273 C 56.634032,26.258922 56.795813,30.181357 56.547497,30.184885 C 55.737687,30.195532 54.036970,30.267483 53.540122,30.659734 C 53.043272,31.051983 52.726096,31.599213 52.726096,32.197339 C 52.726096,32.795466 53.043271,33.320084 53.540122,33.712332 C 54.036971,34.104581 54.727113,34.345465 55.484740,34.345464 C 56.242367,34.345464 56.909897,34.104582 57.406747,33.712332 C 57.903596,33.320083 58.220774,31.913603 58.220773,31.315477 C 58.220773,31.016414 58.227256,25.939810 58.499088,23.709231 C 58.705861,21.960315 59.686977,19.246561 57.300660,20.120920 C 55.121775,20.919275 51.942352,20.000676 50.419688,19.941720 z "
     id="path1645"
     sodipodi:nodetypes="ccccccccccccccccccssc" />
  <path
     style="font-size:12.000000;fill-opacity:1.0000000;stroke-width:1.0000000pt"
     id="path1646"
     d="M 48.699175,23.833490 C 48.697939,23.833344 48.696703,23.833199 48.695467,23.833053 L 48.695467,22.862083 C 48.696703,22.861937 48.697939,22.861791 48.699175,22.861645 L 48.699175,23.833490 z " />
  <path
     style="font-size:12.000000;fill:url(#linearGradient1145);fill-rule:evenodd;stroke-width:1.0000000pt"
     d="M 46.639998,31.096015 C 45.802525,31.412853 45.755128,31.850671 45.725136,32.528598 C 46.044078,32.267945 45.914230,31.656397 47.025412,31.445145 C 48.910709,31.066200 49.558548,31.596860 49.662025,30.867245 C 50.016216,27.945516 49.845353,24.316020 50.143682,21.656909 C 50.214256,21.133456 50.243440,21.218464 51.151099,21.227558 C 52.746982,21.191351 57.463269,21.410984 57.537632,20.850127 C 54.240383,21.362587 50.758496,20.494495 49.914912,20.549341 C 49.625564,23.312420 49.655771,28.492375 49.517550,30.457937 C 49.454301,31.384917 48.114094,30.561093 46.639998,31.096015 z "
     id="path1647"
     sodipodi:nodetypes="ccssssccss" />
  <path
     style="font-size:12.000000;fill:url(#linearGradient1144);fill-rule:evenodd;stroke-width:1.0000000pt"
     d="M 54.331585,31.096015 C 53.494112,31.412853 53.446715,31.850671 53.416723,32.528598 C 53.735665,32.267945 53.605817,31.656397 54.716999,31.445145 C 56.602296,31.066200 57.448662,31.604102 57.458005,30.867245 C 57.499019,27.580142 57.542898,24.854606 57.574289,23.744756 C 57.533715,23.333858 57.667140,23.052107 57.449911,23.002561 C 57.264955,24.095363 57.347359,28.492375 57.209138,30.457937 C 57.145888,31.384917 55.805682,30.561093 54.331585,31.096015 z "
     id="path1648"
     sodipodi:nodetypes="ccssscss" />
  <metadata
     id="metadata1142">
    <rdf:RDF
       id="RDF1143">
      <cc:Work
         rdf:about=""
         id="Work1144">
        <dc:format
           id="format1145">image/svg+xml</dc:format>
        <dc:type
           id="type1147"
           rdf:resource="http://purl.org/dc/dcmitype/StillImage" />
      </cc:Work>
    </rdf:RDF>
  </metadata>
  <g
     id="g1204"
     style="font-size:12.000000;opacity:0.29636899"
     transform="matrix(-0.588727,0.247615,0.279818,0.665294,27.79783,5.405188)">
    <path
       style="fill-rule:evenodd;stroke-width:1.8750000"
       d="M 40.181906,49.683924 C 43.741420,46.987630 55.413093,36.819956 56.782923,33.597578 C 58.501012,29.555960 56.258798,19.433555 53.192815,16.716700 C 50.944448,14.724357 36.640091,12.559718 32.521925,12.563247 C 28.414485,12.566766 34.838722,53.731330 40.181906,49.683924 z "
       id="path1205"
       sodipodi:nodetypes="cssss" />
    <path
       style="fill-rule:evenodd;stroke-width:1.8750000"
       d="M 46.995589,33.682468 C 46.995589,44.404983 40.468842,53.107313 32.426956,53.107313 C 24.385071,53.107313 17.858323,44.404983 17.858323,33.682468 C 17.858323,22.959954 24.385071,14.257624 32.426956,14.257624 C 40.468842,14.257624 46.995589,22.959954 46.995589,33.682468 z "
       id="path1206"
       transform="matrix(1.373487,0.000000,0.000000,1.373487,-17.61598,-13.82184)" />
  </g>
  <path
     style="font-size:12.000000;fill:url(#linearGradient860);fill-rule:evenodd;stroke:#000000;stroke-width:1.2730188"
     d="M 16.518285,47.400598 C 13.847348,46.460849 4.7599409,42.538920 3.1895873,40.793004 C 1.2199958,38.603214 -0.032681977,31.705424 1.0166532,29.321947 C 1.7861584,27.574079 9.2917137,23.113692 11.608151,22.226658 C 13.918550,21.341934 20.527630,48.811255 16.518285,47.400598 z "
     id="path1207"
     sodipodi:nodetypes="cssss" />
  <path
     style="font-size:12.000000;fill:url(#linearGradient652);fill-rule:evenodd;stroke-width:1.0000000pt"
     d="M 2.3116893,29.993470 C 2.3853882,29.759270 7.7409284,25.241308 10.108794,24.454131 C 10.728229,24.248205 11.353878,26.759020 11.273589,27.014162 C 11.214481,27.201998 10.221324,25.606633 9.6906007,25.783070 C 7.2340233,26.599737 2.2459900,30.202250 2.3116893,29.993470 z "
     id="path1208"
     sodipodi:nodetypes="cssss" />
  <path
     style="font-size:12.000000;fill:url(#linearGradient581);fill-rule:evenodd;stroke:#261933;stroke-width:1.2730188"
     d="M 8.4827997,37.962914 C 12.368719,47.202020 20.499088,52.607315 26.630947,50.028281 C 32.762805,47.449262 34.585596,37.857727 30.699677,28.618618 C 26.813759,19.379510 18.683391,13.974225 12.551533,16.553251 C 6.4196712,19.132276 4.5968793,28.723806 8.4827997,37.962914 z "
     id="path1209" />
  <path
     style="font-size:12.000000;fill:url(#linearGradient583);fill-rule:evenodd;stroke-width:0.37500000"
     d="M 12.782841,36.154342 C 15.164534,41.817022 20.147663,45.129938 23.905900,43.549245 C 27.664135,41.968551 28.781331,36.089873 26.399639,30.427191 C 24.017947,24.764511 19.034816,21.451595 15.276579,23.032287 C 11.518342,24.612982 10.401149,30.491662 12.782841,36.154342 z "
     id="path1210" />
  <path
     style="font-size:12.000000;fill:url(#linearGradient861);fill-rule:evenodd;stroke:#261933;stroke-width:0.32974952"
     d="M 17.351634,34.232732 C 18.135086,36.095454 19.774272,37.185232 21.010534,36.665266 C 22.246796,36.145300 22.614294,34.211525 21.830843,32.348801 C 21.047392,30.486075 19.408205,29.396302 18.171941,29.916268 C 16.935679,30.436233 16.568181,32.370007 17.351634,34.232732 z "
     id="path1211" />
  <path
     style="font-size:12.000000;fill:url(#linearGradient862);fill-rule:evenodd;stroke-width:1.0000000pt"
     d="M 11.848891,41.218702 C 11.525815,40.903980 5.3831247,30.166582 9.5785777,21.167967 C 12.296137,15.484845 20.081110,17.759675 20.404661,18.074860 C 20.698570,18.361168 14.087890,16.909290 11.430954,22.972447 C 7.5002711,32.223285 12.143274,41.505472 11.848891,41.218702 z "
     id="path1212"
     sodipodi:nodetypes="cssss" />
  <path
     style="font-size:12.000000;fill:url(#linearGradient1143);fill-rule:evenodd;stroke-width:1.0000000pt"
     d="M 18.172229,34.994661 C 18.107106,34.931222 16.868910,32.766865 17.714598,30.952998 C 18.262379,29.807440 19.831612,30.265983 19.896830,30.329514 C 19.956074,30.387226 18.623547,30.094568 18.087984,31.316730 C 17.295670,33.181440 18.231566,35.052466 18.172229,34.994661 z "
     id="path1213"
     sodipodi:nodetypes="cssss" />
  <path
     style="font-size:12.000000;fill:url(#linearGradient1142);fill-rule:evenodd;stroke-width:1.0000000pt"
     d="M 24.458225,28.847742 C 24.650732,29.035271 28.310901,35.433229 25.811008,40.795120 C 24.191729,44.181451 19.552996,42.825977 19.360206,42.638171 C 19.185080,42.467571 23.124102,43.332685 24.707257,39.719908 C 27.049383,34.207727 24.282815,28.676866 24.458225,28.847742 z "
     id="path1214"
     sodipodi:nodetypes="cssss" />
  <path
     style="font-size:12.000000;fill:#000000;fill-opacity:0.30081299;fill-rule:evenodd;stroke:none;stroke-width:1.2500000"
     d="M 42.473147,37.384300 C 42.045587,37.367745 41.739391,37.433102 41.635034,37.650972 C 41.217603,38.522453 41.450454,46.008914 41.158833,46.013056 C 40.476656,46.022025 39.043987,46.082636 38.625446,46.413065 C 38.206903,46.743492 37.939717,47.204474 37.939717,47.708330 C 37.939717,48.212188 38.206903,48.654121 38.625446,48.984548 C 39.043987,49.314976 39.606309,49.517894 40.244528,49.517893 C 40.882746,49.517893 41.464116,49.314976 41.882658,48.984548 C 42.301200,48.654121 42.568388,47.469313 42.568387,46.965457 C 42.568387,46.713529 42.674328,42.361901 42.739819,40.470080 C 42.772566,39.524170 45.709545,40.906390 47.815593,40.203408 C 47.708059,42.705858 47.844342,46.010085 47.635162,46.013056 C 46.952985,46.022025 45.520315,46.082636 45.101775,46.413065 C 44.683233,46.743492 44.416046,47.204474 44.416046,47.708330 C 44.416046,48.212188 44.683231,48.654121 45.101775,48.984548 C 45.520316,49.314976 46.101686,49.517894 46.739905,49.517893 C 47.378124,49.517893 47.940445,49.314976 48.358987,48.984548 C 48.777529,48.654121 49.044717,47.469313 49.044716,46.965457 C 49.044716,46.713529 49.050177,42.437040 49.279166,40.558019 C 49.453350,39.084747 50.279834,36.798703 48.269621,37.535257 C 46.434146,38.207784 43.755827,37.433964 42.473147,37.384300 z "
     id="path1216"
     sodipodi:nodetypes="ccccccccccccccccccssc" />
  <path
     style="font-size:12.000000;fill:url(#linearGradient1141);fill-opacity:1.0000000;fill-rule:evenodd;stroke:#261933;stroke-width:0.76192111;stroke-opacity:1.0000000"
     d="M 41.524643,36.435795 C 41.097083,36.419241 40.790888,36.484598 40.686530,36.702468 C 40.269099,37.573948 40.501950,45.060409 40.210330,45.064552 C 39.528152,45.073521 38.095483,45.134132 37.676942,45.464560 C 37.258400,45.794988 36.991213,46.255969 36.991213,46.759826 C 36.991213,47.263683 37.258400,47.705617 37.676942,48.036044 C 38.095483,48.366471 38.657805,48.569389 39.296024,48.569389 C 39.934243,48.569389 40.515612,48.366472 40.934155,48.036044 C 41.352696,47.705616 41.619884,46.520809 41.619884,46.016953 C 41.619884,45.765025 41.725824,41.413397 41.791316,39.521576 C 41.824062,38.575665 44.761041,39.957885 46.867089,39.254903 C 46.759555,41.757353 46.895838,45.061580 46.686659,45.064552 C 46.004481,45.073521 44.571811,45.134132 44.153271,45.464560 C 43.734729,45.794988 43.467542,46.255969 43.467542,46.759826 C 43.467542,47.263683 43.734728,47.705617 44.153271,48.036044 C 44.571813,48.366471 45.153182,48.569389 45.791401,48.569389 C 46.429620,48.569389 46.991942,48.366472 47.410484,48.036044 C 47.829025,47.705616 48.096213,46.520809 48.096213,46.016953 C 48.096213,45.765025 48.101674,41.488536 48.330663,39.609515 C 48.504846,38.136243 49.331331,35.850199 47.321117,36.586752 C 45.485642,37.259280 42.807323,36.485459 41.524643,36.435795 z "
     id="path1217"
     sodipodi:nodetypes="ccccccccccccccccccssc" />
  <path
     style="font-size:12.000000;fill-opacity:1.0000000;stroke-width:1.0000000pt"
     id="path1218"
     d="M 40.075298,39.714190 C 40.074256,39.714067 40.073215,39.713944 40.072174,39.713821 L 40.072174,38.895884 C 40.073215,38.895762 40.074256,38.895639 40.075298,38.895516 L 40.075298,39.714190 z " />
  <path
     style="font-size:12.000000;fill:url(#linearGradient1140);fill-rule:evenodd;stroke-width:1.0000000pt"
     d="M 38.340664,45.832080 C 37.635184,46.098982 37.595257,46.467796 37.569993,47.038876 C 37.838666,46.819304 37.729283,46.304141 38.665334,46.126184 C 40.253492,45.806964 40.799227,46.253988 40.886395,45.639366 C 41.184763,43.178126 41.040829,40.120669 41.292139,37.880656 C 41.351589,37.439704 41.376174,37.511313 42.140778,37.518974 C 43.485136,37.488474 47.458097,37.673491 47.520740,37.201029 C 44.743165,37.632722 41.810053,36.901448 41.099424,36.947650 C 40.855680,39.275245 40.881127,43.638796 40.764690,45.294568 C 40.711410,46.075449 39.582431,45.381466 38.340664,45.832080 z "
     id="path1219"
     sodipodi:nodetypes="ccssssccss" />
  <path
     style="font-size:12.000000;fill:url(#linearGradient1139);fill-rule:evenodd;stroke-width:1.0000000pt"
     d="M 44.819993,45.832080 C 44.114512,46.098982 44.074586,46.467796 44.049321,47.038876 C 44.317995,46.819304 44.208612,46.304141 45.144663,46.126184 C 46.732821,45.806964 47.445793,46.260089 47.453663,45.639366 C 47.488213,42.870338 47.525176,40.574370 47.551620,39.639441 C 47.517440,39.293304 47.629837,39.055959 47.446844,39.014222 C 47.291039,39.934789 47.360455,43.638796 47.244019,45.294568 C 47.190738,46.075449 46.061760,45.381466 44.819993,45.832080 z "
     id="path1220"
     sodipodi:nodetypes="ccssscss" />
</svg>
