<?xml version="1.0" encoding="UTF-8" standalone="no"?>
<!DOCTYPE svg PUBLIC "-//W3C//DTD SVG 20010904//EN"
"http://www.w3.org/TR/2001/REC-SVG-20010904/DTD/svg10.dtd">
<!-- Created with Inkscape (http://www.inkscape.org/) -->
<svg
   id="svg1"
   sodipodi:version="0.32"
   inkscape:version="0.37"
   width="48pt"
   height="48pt"
   sodipodi:docbase="/home/tom"
   sodipodi:docname="knotify.svg"
   xmlns="http://www.w3.org/2000/svg"
   xmlns:inkscape="http://www.inkscape.org/namespaces/inkscape"
   xmlns:sodipodi="http://sodipodi.sourceforge.net/DTD/sodipodi-0.dtd"
   xmlns:xlink="http://www.w3.org/1999/xlink">
  <defs
     id="defs3">
    <linearGradient
       id="linearGradient584">
      <stop
         style="stop-color:#ffffff;stop-opacity:1;"
         offset="0.00000000"
         id="stop585" />
      <stop
         style="stop-color:#ffffff;stop-opacity:0;"
         offset="1.00000000"
         id="stop586" />
    </linearGradient>
    <linearGradient
       id="linearGradient578">
      <stop
         style="stop-color:#d9cce6;stop-opacity:1;"
         offset="0.00000000"
         id="stop579" />
      <stop
         style="stop-color:#73667f;stop-opacity:1;"
         offset="1.00000000"
         id="stop580" />
    </linearGradient>
    <linearGradient
       xlink:href="#linearGradient578"
       id="linearGradient581"
       x1="-0.00000000"
       y1="-0.00000000"
       x2="0.96428573"
       y2="0.98437500" />
    <linearGradient
       xlink:href="#linearGradient584"
       id="linearGradient583"
       x1="0.00000000"
       y1="-0.00000000"
       x2="0.98717946"
       y2="1.00000000" />
    <linearGradient
       xlink:href="#linearGradient584"
       id="linearGradient860"
       x1="0.01086957"
       y1="0.05555556"
       x2="0.99637681"
       y2="0.94444442" />
    <linearGradient
       xlink:href="#linearGradient584"
       id="linearGradient861"
       x1="0.01811594"
       y1="0.00833333"
       x2="0.98913044"
       y2="1.00000000" />
    <linearGradient
       xlink:href="#linearGradient584"
       id="linearGradient862"
       x1="-0.28676471"
       y1="-0.21875000"
       x2="0.97887325"
       y2="1.03906250" />
    <radialGradient
       xlink:href="#linearGradient584"
       id="radialGradient595" />
    <linearGradient
       xlink:href="#linearGradient584"
       id="linearGradient612"
       x1="0.00000000"
       y1="0.00000000"
       x2="1.03389835"
       y2="1.02343750" />
    <linearGradient
       xlink:href="#linearGradient578"
       id="linearGradient613"
       x1="0.00000000"
       y1="0.00000000"
       x2="0.96874988"
       y2="1.00000012" />
  </defs>
  <sodipodi:namedview
     id="base"
     pagecolor="#ffffff"
     bordercolor="#666666"
     borderopacity="1.0"
     inkscape:pageopacity="0.0"
     inkscape:pageshadow="2"
     inkscape:zoom="5.64233871"
     inkscape:cx="25.7884720"
     inkscape:cy="24.7998202"
     inkscape:window-width="640"
     inkscape:window-height="535"
     inkscape:window-x="65"
     inkscape:window-y="68" />
  <path
     style="fill:#000000;fill-rule:evenodd;stroke:none;stroke-opacity:1;stroke-width:1.875;stroke-linejoin:miter;stroke-linecap:butt;fill-opacity:1;stroke-dasharray:none;opacity:0.300000;"
     d="M 38.961636 5.524742 C 33.522565 15.984037 30.382225 28.748004 24.460206 38.798553 C 22.483605 42.097628 14.801271 32.797073 8.365198 41.234049 C 3.7390347 47.415673 6.6893534 56.443053 16.378466 58.649806 C 25.862263 60.810559 27.476744 46.68644 29.321196 42.260445 C 33.545175 31.714912 34.707572 29.165169 37.737121 22.884035 C 38.792108 20.815501 41.132856 21.664173 43.724118 23.222696 C 46.921676 25.145875 57.204237 23.303508 57.429289 22.741146 C 57.635937 22.224772 48.688171 19.800978 46.190738 17.033181 C 44.739229 15.229417 43.993604 9.3182317 42.317884 6.0256792 C 41.919152 5.2422278 39.388244 4.7043778 38.961636 5.524742 z "
     id="path646"
     sodipodi:nodetypes="cssssssssss" />
  <path
     style="font-size:12;fill:url(#linearGradient581);fill-rule:evenodd;stroke:#261933;stroke-width:2.55396;"
     d="M 35.935294 2.8701232 C 30.610053 13.110524 27.535432 25.607369 21.737348 35.447582 C 19.802113 38.677614 12.280555 29.571699 5.9791753 37.832107 C 1.449827 43.884362 4.3384027 52.722819 13.824744 54.883389 C 23.110064 56.998923 24.690756 43.170393 26.496609 38.837021 C 30.632188 28.512189 32.578487 24.552166 35.544633 18.402483 C 36.577541 16.377239 38.478576 17.528589 41.015608 19.054492 C 44.146249 20.937424 53.796115 20.276816 54.016457 19.726222 C 54.218781 19.220654 46.315588 17.051789 43.870419 14.341917 C 42.449288 12.575901 40.861954 6.5842229 39.221303 3.3605768 C 38.830915 2.5935213 36.352974 2.0669274 35.935294 2.8701232 z "
     id="path644"
     sodipodi:nodetypes="cssssssssss" />
  <path
     style="fill:url(#linearGradient583);fill-rule:evenodd;stroke:none;stroke-opacity:1;stroke-width:1pt;stroke-linejoin:miter;stroke-linecap:butt;fill-opacity:1;"
     d="M 5.3477638 44.018298 C 5.1761194 43.577991 6.0442773 39.860243 10.239625 37.442087 C 15.198989 34.705919 19.959465 40.951969 21.954977 37.802801 C 27.632046 29.119114 32.141507 14.694571 37.085083 4.5730793 C 37.387409 3.9540926 38.439957 6.1379066 37.963357 6.6884643 C 33.597746 11.520703 28.039348 30.162492 22.562579 38.811084 C 20.545003 41.95342 17.275804 37.221744 10.99638 39.355816 C 5.9895067 40.9903 5.4989535 44.40613 5.3477638 44.018298 z "
     id="path645"
     sodipodi:nodetypes="csssssss" />
</svg>
