<?xml version="1.0" encoding="UTF-8" standalone="no"?>
<!DOCTYPE svg PUBLIC "-//W3C//DTD SVG 20010904//EN"
"http://www.w3.org/TR/2001/REC-SVG-20010904/DTD/svg10.dtd">
<!-- Created with Inkscape (http://www.inkscape.org/) -->
<svg
   id="svg1"
   sodipodi:version="0.32"
   inkscape:version="0.37"
   width="48pt"
   height="48pt"
   sodipodi:docbase="/home/jakob/dev/lila/svg-icons/lila"
   sodipodi:docname="notes.svg"
   xmlns="http://www.w3.org/2000/svg"
   xmlns:inkscape="http://www.inkscape.org/namespaces/inkscape"
   xmlns:sodipodi="http://sodipodi.sourceforge.net/DTD/sodipodi-0.dtd"
   xmlns:xlink="http://www.w3.org/1999/xlink">
  <defs
     id="defs3">
    <linearGradient
       id="linearGradient596">
      <stop
         style="stop-color:#d9cce6;stop-opacity:1;"
         offset="0.00000000"
         id="stop597" />
      <stop
         style="stop-color:#73667f;stop-opacity:1;"
         offset="1.00000000"
         id="stop598" />
    </linearGradient>
    <linearGradient
       id="linearGradient584">
      <stop
         style="stop-color:#ffffff;stop-opacity:1;"
         offset="0.00000000"
         id="stop585" />
      <stop
         style="stop-color:#ffffff;stop-opacity:0;"
         offset="1.00000000"
         id="stop586" />
    </linearGradient>
    <linearGradient
       id="linearGradient578">
      <stop
         style="stop-color:#faf8fd;stop-opacity:1;"
         offset="0.00000000"
         id="stop579" />
      <stop
         style="stop-color:#d9cce6;stop-opacity:1;"
         offset="1.00000000"
         id="stop580" />
    </linearGradient>
    <linearGradient
       xlink:href="#linearGradient578"
       id="linearGradient581"
       x1="0.00000000"
       y1="0.00000000"
       x2="1.00000000"
       y2="0.99218750" />
    <linearGradient
       xlink:href="#linearGradient584"
       id="linearGradient583"
       x1="-0.00000000"
       y1="0.00000000"
       x2="0.99264705"
       y2="0.97656250" />
    <linearGradient
       xlink:href="#linearGradient596"
       id="linearGradient654"
       x1="0.00000000"
       y1="0.00000000"
       x2="1.00000000"
       y2="0.00000000" />
    <linearGradient
       xlink:href="#linearGradient584"
       id="linearGradient655" />
    <linearGradient
       xlink:href="#linearGradient584"
       id="linearGradient713"
       x1="-0.00000000"
       y1="-0.00000000"
       x2="0.95454544"
       y2="0.99218750" />
    <linearGradient
       xlink:href="#linearGradient584"
       id="linearGradient1245"
       x1="0.00000000"
       y1="0.00000000"
       x2="0.97692305"
       y2="0.99218750" />
  </defs>
  <sodipodi:namedview
     id="base"
     pagecolor="#ffffff"
     bordercolor="#666666"
     borderopacity="1.0"
     inkscape:pageopacity="0.0"
     inkscape:pageshadow="2"
     inkscape:zoom="8.85416667"
     inkscape:cx="23.9999897"
     inkscape:cy="23.9999931"
     inkscape:window-width="1392"
     inkscape:window-height="983"
     inkscape:window-x="0"
     inkscape:window-y="0" />
  <path
     style="font-size:12;fill:#000000;fill-rule:evenodd;stroke:none;stroke-width:1.72375;fill-opacity:0.3;"
     d="M 47.740922 5.0789525 C 40.13175 4.9971125 9.865922 10.623538 9.865922 13.172702 C 9.860303 14.24674 10.069427 15.217486 10.115922 16.266452 C 7.6778187 17.046095 5.8971717 17.789475 5.8971717 18.360202 C 5.8190737 33.288953 10.559377 44.72104 17.533613 56.800775 C 19.141711 59.586081 55.760699 48.821918 54.144666 45.724045 C 53.82289 45.166713 53.661958 44.960172 53.349186 44.385873 C 56.617179 42.99322 59.952888 42.188462 59.553422 41.422702 C 54.162042 32.084558 49.9785 20.37132 49.459672 5.4852025 C 49.450399 5.2154995 48.827947 5.0906435 47.740922 5.0789525 z "
     id="path619"
     sodipodi:nodetypes="cccccccccc" />
  <path
     style="font-size:12;fill:url(#linearGradient581);fill-rule:evenodd;stroke:#261933;stroke-width:1.875;stroke-dasharray:none;"
     d="M 1.0187682 15.376104 C 1.0187682 12.462775 40.51316 5.5467674 40.587346 7.7043887 C 41.106176 22.590506 45.308105 34.285309 50.699485 43.623453 C 52.315517 46.721326 14.596008 57.599338 12.98791 54.814032 C 6.0136728 42.734297 0.94066975 30.304855 1.0187682 15.376104 z "
     id="path616"
     sodipodi:nodetypes="cssss" />
  <path
     style="font-size:12;fill:url(#linearGradient581);fill-rule:evenodd;stroke:#261933;stroke-width:1.875;stroke-dasharray:none;"
     d="M 5.0064764 10.16993 C 5.0064764 7.2566006 44.500868 0.3405929 44.575054 2.4982142 C 45.093884 17.384332 49.295813 29.079135 54.687193 38.417279 C 56.303225 41.515152 18.583716 52.393164 16.975618 49.607858 C 10.001381 37.528123 4.9283779 25.098681 5.0064764 10.16993 z "
     id="path684"
     sodipodi:nodetypes="cssss" />
  <path
     style="fill:url(#linearGradient583);fill-rule:evenodd;stroke:none;stroke-opacity:1;stroke-width:1pt;stroke-linejoin:miter;stroke-linecap:butt;fill-opacity:1;"
     d="M 15.933286 41.039382 C 15.228266 40.563347 6.4394054 22.472421 8.0805642 11.976231 C 8.4036732 9.9498546 41.21821 3.9123918 41.921922 4.387542 C 42.561791 4.8195838 13.11854 11.008603 10.889294 14.494137 C 6.883994 20.960285 16.571846 41.470539 15.933286 41.039382 z "
     id="path691"
     sodipodi:nodetypes="cssss" />
  <path
     style="font-size:12;fill:url(#linearGradient654);fill-opacity:1.00;fill-rule:evenodd;stroke:#261933;stroke-width:0.875;stroke-opacity:1;stroke-dasharray:none;"
     d="M 25.263899 12.940938 C 27.965218 12.918436 32.604455 12.137578 33.025393 14.169955 C 33.530941 17.222769 36.628442 15.417548 36.389379 12.200142 C 36.150316 8.982736 33.028447 8.1707542 32.864499 10.517994 C 32.677959 13.044454 27.981106 12.932142 25.263899 12.940938 z "
     id="path595"
     sodipodi:nodetypes="cscsc" />
  <path
     style="font-size:12;fill:none;fill-opacity:1.00;fill-rule:evenodd;stroke:#261933;stroke-width:0.375;stroke-opacity:1;stroke-dasharray:none;"
     d="M 25.664342 11.989253 C 25.568899 10.27129 24.328149 11.702926 24.328149 12.848233 C 24.328149 13.993542 25.664342 15.234293 25.664342 13.802657 "
     id="path600"
     sodipodi:nodetypes="czz" />
  <path
     style="font-size:12;fill:none;fill-opacity:1.00;fill-rule:evenodd;stroke:#261933;stroke-width:2.25;stroke-linecap:round;stroke-dasharray:none;"
     d="M 18.80128 30.548209 C 26.64252 29.937204 32.956245 28.511523 39.26997 25.965666 "
     id="path612"
     sodipodi:nodetypes="cc" />
  <path
     style="font-size:12;fill:none;fill-opacity:1.00;fill-rule:evenodd;stroke:#261933;stroke-width:2.25;stroke-linecap:round;stroke-dasharray:none;"
     d="M 20.13748 34.62158 C 27.97872 34.010574 33.785551 32.247006 38.263982 30.548207 "
     id="path613"
     sodipodi:nodetypes="cc" />
  <path
     style="font-size:12;fill:none;fill-opacity:1.00;fill-rule:evenodd;stroke:#261933;stroke-width:2.25;stroke-linecap:round;stroke-dasharray:none;"
     d="M 21.976457 39.028003 C 30.10005 38.416998 37.996823 35.713771 42.609474 33.607636 "
     id="path614"
     sodipodi:nodetypes="cc" />
  <path
     style="font-size:12;fill:none;fill-opacity:1.00;fill-rule:evenodd;stroke:#261933;stroke-width:2.25;stroke-linecap:round;stroke-dasharray:none;"
     d="M 17.473195 22.164246 C 20.057872 22.129303 24.317441 21.500824 26.382711 20.611144 "
     id="path615"
     sodipodi:nodetypes="cc" />
</svg>
