<?xml version="1.0" encoding="UTF-8" standalone="no"?>
<!DOCTYPE svg PUBLIC "-//W3C//DTD SVG 20010904//EN"
"http://www.w3.org/TR/2001/REC-SVG-20010904/DTD/svg10.dtd">
<!-- Created with Inkscape (http://www.inkscape.org/) -->
<svg
   version="1.0"
   x="0"
   y="0"
   width="48pt"
   height="48pt"
   id="svg1418"
   sodipodi:version="0.32"
   inkscape:version="0.37"
   sodipodi:docname="kontact.svg"
   sodipodi:docbase="/home/tom"
   xmlns="http://www.w3.org/2000/svg"
   xmlns:inkscape="http://www.inkscape.org/namespaces/inkscape"
   xmlns:sodipodi="http://sodipodi.sourceforge.net/DTD/sodipodi-0.dtd"
   xmlns:xlink="http://www.w3.org/1999/xlink">
  <sodipodi:namedview
     id="base"
     pagecolor="#ffffff"
     bordercolor="#666666"
     borderopacity="1.0"
     inkscape:pageopacity="0.0"
     inkscape:pageshadow="2"
     inkscape:zoom="2"
     inkscape:cx="25.5516815"
     inkscape:cy="23.2641907"
     inkscape:window-width="1018"
     inkscape:window-height="711"
     inkscape:window-x="0"
     inkscape:window-y="30" />
  <defs
     id="defs1420">
    <linearGradient
       id="linearGradient1439">
      <stop
         style="stop-color:#ffffff;stop-opacity:1;"
         offset="0"
         id="stop1440" />
      <stop
         style="stop-color:#ffffff;stop-opacity:0;"
         offset="1"
         id="stop1441" />
    </linearGradient>
    <linearGradient
       id="linearGradient1432">
      <stop
         style="stop-color:#ffffff;stop-opacity:1;"
         offset="0.00000000"
         id="stop1433" />
      <stop
         style="stop-color:#e1d7eb;stop-opacity:1;"
         offset="1.00000000"
         id="stop1434" />
    </linearGradient>
    <linearGradient
       id="linearGradient1428">
      <stop
         style="stop-color:#f50000;stop-opacity:1;"
         offset="0.00000000"
         id="stop1429" />
      <stop
         style="stop-color:#a90000;stop-opacity:1;"
         offset="1.00000000"
         id="stop1430" />
    </linearGradient>
    <linearGradient
       id="linearGradient1422">
      <stop
         style="stop-color:#d7a600;stop-opacity:1;"
         offset="0.00000000"
         id="stop1423" />
      <stop
         style="stop-color:#fff300;stop-opacity:1;"
         offset="1.00000000"
         id="stop1424" />
    </linearGradient>
    <linearGradient
       x1="0.64516127"
       y1="0.66406250"
       x2="0.32258064"
       y2="0.32031250"
       id="linearGradient1425"
       xlink:href="#linearGradient1422" />
    <linearGradient
       x1="0.01923077"
       y1="0.00781250"
       x2="0.98076922"
       y2="0.98437500"
       id="linearGradient1427"
       xlink:href="#linearGradient1428" />
    <linearGradient
       x1="0.98101264"
       y1="0.92187500"
       x2="0.01898734"
       y2="0.02343750"
       id="linearGradient1435"
       xlink:href="#linearGradient1432" />
    <linearGradient
       x1="0.015748"
       y1="0.023437"
       x2="0.984252"
       y2="0.984375"
       id="linearGradient1438"
       xlink:href="#linearGradient1439" />
    <linearGradient
       id="linearGradient1443"
       xlink:href="#linearGradient1432"
       x1="0.00000000"
       y1="-0.00000000"
       x2="1.00000000"
       y2="-0.00000000" />
    <radialGradient
       xlink:href="#linearGradient1439"
       id="radialGradient621"
       cx="0.50000000"
       cy="0.50000000"
       r="0.50000000"
       fx="0.50000000"
       fy="0.50000000" />
    <linearGradient
       xlink:href="#linearGradient1439"
       id="linearGradient630" />
    <linearGradient
       xlink:href="#linearGradient1432"
       id="linearGradient631"
       x1="0.00000000"
       y1="0.00000000"
       x2="1.00000000"
       y2="0.00000000" />
  </defs>
  <path
     d="M 4.3742061 45.725038 C 5.1314891 47.987368 36.489604 58.159951 38.548486 56.452889 C 40.391412 54.908825 54.181164 8.9496416 53.257849 7.126902 C 52.298088 5.1173763 20.483082 0.11203341 18.972958 1.4864925 C 17.112813 3.1894488 3.5789051 43.129306 4.3742061 45.725038 z "
     style="font-size:12;fill:url(#linearGradient1443);fill-rule:evenodd;stroke:#261933;stroke-width:1.87726;"
     id="path634" />
  <path
     d="M 27.37174 44.619453 C 28.143248 45.379453 31.649615 44.499511 33.058597 43.078705 C 41.439258 34.627556 51.682653 23.962785 56.740725 15.003669 C 57.707067 13.292011 52.679923 9.7693913 51.131773 11.066312 C 43.279756 17.644143 35.337394 29.029152 28.540287 38.627816 C 27.417405 40.21353 26.637145 43.895821 27.37174 44.619453 z "
     style="font-size:12;opacity:0.3;fill:#3f3f19;fill-rule:evenodd;stroke-width:12.5;"
     id="path1442" />
  <g
     id="g604"
     transform="matrix(0.950170,-0.311733,0.311733,0.950170,22.97368,-14.95952)"
     style="fill:url(#linearGradient631);">
    <path
       style="font-size:12;fill:url(#linearGradient631);fill-rule:evenodd;stroke:#261933;stroke-width:1.875;stroke-dasharray:none;"
       d="M -32.510926 50.442911 C -31.289577 51.594259 -5.0803113 51.459852 -3.7913862 50.026685 C -2.4530372 48.682625 -2.0028341 31.001903 -3.6526445 29.770391 C -5.3257956 28.406784 -30.785139 28.94781 -32.510926 30.047875 C -34.176752 31.030706 -33.753792 49.390797 -32.510926 50.442911 z "
       id="path596"
       sodipodi:nodetypes="cssss" />
    <path
       style="font-size:12;fill:url(#linearGradient631);fill-rule:evenodd;stroke:#261933;stroke-width:1.875;stroke-dasharray:none;"
       d="M -32.649668 50.442911 C -33.738539 49.45197 -22.490714 38.836565 -17.526818 38.788604 C -12.917534 38.74407 -2.6599755 48.978789 -3.930128 50.165427 C -5.066091 51.35684 -32.182111 51.512214 -32.649668 50.442911 z "
       id="path597"
       sodipodi:nodetypes="csss" />
    <path
       style="font-size:12;fill:url(#linearGradient631);fill-rule:evenodd;stroke:#261933;stroke-width:1.875;stroke-dasharray:none;"
       d="M -32.649668 30.186616 C -33.652052 31.444835 -22.868375 44.407645 -18.081785 44.338274 C -13.295195 44.268903 -2.8273979 30.967397 -3.930128 29.770391 C -4.9411143 28.515028 -31.690217 28.601475 -32.649668 30.186616 z "
       id="path598"
       sodipodi:nodetypes="csss" />
    <path
       style="fill:url(#linearGradient631);fill-rule:evenodd;stroke:none;stroke-opacity:1;stroke-width:1pt;stroke-linejoin:miter;stroke-linecap:butt;fill-opacity:1;"
       d="M -31.400992 48.084301 C -31.792824 47.716958 -32.235931 32.632807 -31.123509 31.296551 C -30.096665 30.229753 -5.2869599 30.935014 -4.9013203 31.296551 C -4.5470033 31.628722 -26.801232 31.620727 -28.90364 33.377677 C -30.930163 35.091825 -31.052868 48.410667 -31.400992 48.084301 z "
       id="path603"
       sodipodi:nodetypes="cssss" />
  </g>
  <path
     d="M 26.047376 43.506713 C 26.818885 44.266713 30.325252 43.386771 31.734234 41.965965 C 40.114895 33.514817 50.35829 22.850045 55.416357 13.890929 C 56.382705 12.17927 51.355561 8.6566578 49.80741 9.953578 C 41.955394 16.531403 34.01303 27.91641 27.215924 37.515076 C 26.093042 39.10079 25.312775 42.783081 26.047376 43.506713 z "
     style="font-size:12;fill:url(#linearGradient1425);fill-rule:evenodd;stroke:#3f3f19;stroke-width:1.21006;"
     id="path1421" />
  <path
     d="M 46.866661 13.248993 C 46.923974 13.89411 51.873672 17.733359 52.514502 17.657084 C 52.729074 17.645878 55.164343 13.691604 55.143747 13.420196 C 55.008595 11.89644 52.292098 10.130391 50.586483 10.103358 C 49.616785 10.087815 46.848635 13.067525 46.866661 13.248993 z "
     style="font-size:12;fill:url(#linearGradient1427);fill-rule:evenodd;stroke-width:1pt;"
     id="path1426" />
  <path
     d="M 44.442975 15.828085 C 44.503709 16.511809 49.7499 20.581038 50.429091 20.500209 C 50.656498 20.488353 52.686828 17.749843 52.664919 17.462169 C 52.521674 15.8471 48.695844 13.070272 46.898313 13.15985 C 46.529236 13.172213 44.42389 15.635772 44.442975 15.828085 z "
     style="font-size:12;fill:url(#linearGradient1435);fill-rule:evenodd;stroke:#3f3f19;stroke-width:0.645365pt;"
     id="path1431" />
  <ellipse
     cx="152.361847"
     cy="565.562134"
     rx="26.788887"
     ry="26.788879"
     transform="matrix(6.580033e-2,0.000000,0.000000,7.229817e-2,16.31359,2.216144)"
     style="font-size:12;fill:#3f3f19;fill-rule:evenodd;stroke-width:1pt;"
     id="path1436" />
  <path
     d="M 27.215924 40.51089 C 30.594573 33.90414 41.79609 18.834748 50.197014 10.980689 C 51.118286 10.01843 53.987245 12.077691 54.014155 12.521385 C 54.039155 12.933629 51.252848 12.608504 50.352825 13.548524 C 42.32006 21.938363 30.083371 36.091955 27.215924 40.51089 z "
     style="font-size:12;opacity:0.990000;fill:url(#linearGradient1438);fill-rule:evenodd;stroke:none;stroke-width:0.106874pt;"
     id="path1437" />
</svg>
