<?xml version="1.0" encoding="UTF-8" standalone="no"?>
<!DOCTYPE svg PUBLIC "-//W3C//DTD SVG 20010904//EN"
"http://www.w3.org/TR/2001/REC-SVG-20010904/DTD/svg10.dtd">
<!-- Created with Inkscape (http://www.inkscape.org/) -->
<svg
   version="1.0"
   x="0"
   y="0"
   width="48pt"
   height="48pt"
   id="svg611"
   sodipodi:version="0.32"
   inkscape:version="0.37"
   sodipodi:docname="kscreensaver.svg"
   sodipodi:docbase="/home/tom/Pics/lilasvg/scalable/apps"
   xmlns="http://www.w3.org/2000/svg"
   xmlns:inkscape="http://www.inkscape.org/namespaces/inkscape"
   xmlns:sodipodi="http://sodipodi.sourceforge.net/DTD/sodipodi-0.dtd"
   xmlns:xlink="http://www.w3.org/1999/xlink">
  <sodipodi:namedview
     id="base"
     pagecolor="#ffffff"
     bordercolor="#666666"
     borderopacity="1.0"
     inkscape:pageopacity="0.0"
     inkscape:pageshadow="2"
     inkscape:zoom="13.0227273"
     inkscape:cx="22.7499998"
     inkscape:cy="27.0000008"
     inkscape:window-width="1018"
     inkscape:window-height="711"
     inkscape:window-x="0"
     inkscape:window-y="30" />
  <defs
     id="defs613">
    <linearGradient
       id="linearGradient1535">
      <stop
         style="stop-color:#ffffff;stop-opacity:1;"
         offset="0"
         id="stop1537" />
      <stop
         style="stop-color:#ffffff;stop-opacity:0;"
         offset="1"
         id="stop1536" />
    </linearGradient>
    <linearGradient
       id="linearGradient1528">
      <stop
         style="stop-color:#d9cce6;stop-opacity:1;"
         offset="0.00000000"
         id="stop1530" />
      <stop
         style="stop-color:#73667f;stop-opacity:1;"
         offset="1.00000000"
         id="stop1529" />
    </linearGradient>
    <linearGradient
       id="linearGradient642">
      <stop
         style="stop-color:#ffffff;stop-opacity:1;"
         offset="0"
         id="stop643" />
      <stop
         style="stop-color:#ffffff;stop-opacity:0;"
         offset="1"
         id="stop644" />
    </linearGradient>
    <linearGradient
       id="linearGradient635">
      <stop
         style="stop-color:#ffffff;stop-opacity:1;"
         offset="0.00000000"
         id="stop636" />
      <stop
         style="stop-color:#d9cce6;stop-opacity:1;"
         offset="1.00000000"
         id="stop637" />
    </linearGradient>
    <linearGradient
       x1="0.00833333"
       y1="0.00000000"
       x2="0.94166666"
       y2="0.95312500"
       id="linearGradient638"
       xlink:href="#linearGradient1528" />
    <linearGradient
       x1="0.027523"
       y1="0.023438"
       x2="1.000000"
       y2="1.015625"
       id="linearGradient641"
       xlink:href="#linearGradient642" />
    <linearGradient
       x1="-0.000009"
       y1="0.015624"
       x2="0.727272"
       y2="0.984375"
       id="linearGradient1522"
       xlink:href="#linearGradient642" />
    <linearGradient
       x1="0.027523"
       y1="0.007813"
       x2="1.009174"
       y2="0.992188"
       id="linearGradient1527"
       xlink:href="#linearGradient1535" />
    <linearGradient
       id="linearGradient1532"
       xlink:href="#linearGradient635" />
    <linearGradient
       id="linearGradient1534"
       xlink:href="#linearGradient1528"
       x1="0.00000000"
       y1="0.00000000"
       x2="1.00000000"
       y2="0.00000000" />
    <linearGradient
       id="linearGradient1539"
       xlink:href="#linearGradient1528"
       x1="0.00000000"
       y1="-0.00000000"
       x2="1.00000000"
       y2="-0.00000000" />
    <linearGradient
       id="linearGradient1567"
       xlink:href="#linearGradient635"
       x1="0.66521740"
       y1="0.21093750"
       x2="0.32608697"
       y2="0.73437500" />
  </defs>
  <path
     d="M 11.323296 57.160451 C 11.951521 57.577304 14.621051 58.71284 15.942291 58.429631 C 17.047672 58.07211 55.203686 45.61152 56.142616 44.148515 C 57.124721 42.551005 55.856932 11.468189 54.696814 10.413698 C 53.445181 9.265018 12.788123 5.1677725 11.53798 5.1310154 C 10.405014 4.9884573 7.6400123 5.9645902 7.1064044 6.5581759 C 6.0443342 7.7273842 10.152592 56.301396 11.323296 57.160451 z "
     style="font-size:12;opacity:0.3;fill-rule:evenodd;stroke-width:12.5;"
     id="path839" />
  <path
     d="M 10.710824 54.464037 C 11.309499 54.860979 13.851862 55.942451 15.110416 55.672891 C 16.163471 55.332261 52.506055 43.463828 53.400251 42.070343 C 54.335686 40.548752 53.128257 10.943036 52.023269 9.9385553 C 50.831206 8.844563 12.106038 4.9420868 10.915404 4.907046 C 9.8362807 4.7712615 7.2027255 5.7009364 6.6944162 6.2663239 C 5.6828474 7.3800001 9.5957511 53.645804 10.710824 54.464037 z "
     style="font-size:12;fill:url(#linearGradient638);fill-rule:evenodd;stroke:#261933;stroke-width:1.875;stroke-dasharray:none;"
     id="path834" />
  <path
     d="M 14.383126 53.660677 C 14.070498 53.348051 10.313979 7.7669659 10.825691 6.4958449 C 11.139641 6.1159772 50.332629 10.543036 50.646074 10.856477 C 50.944548 11.155154 14.326404 6.3756002 12.77671 8.676233 C 11.094427 11.058617 14.682413 53.959959 14.383126 53.660677 z "
     style="font-size:12;opacity:0.7;fill:url(#linearGradient641);fill-rule:evenodd;stroke:none;stroke-width:0.105188pt;"
     id="path835" />
  <path
     d="M 11.514286 52.972175 C 11.398196 52.797942 8.00685 21.776137 7.8420129 7.1843481 C 7.8321255 6.6661201 9.7765052 6.2993477 9.9075644 6.4958449 C 10.006036 6.6436043 8.5226851 7.8148987 8.5305678 8.2171495 C 8.701402 22.810149 11.627626 53.142245 11.514286 52.972175 z "
     style="font-size:12;opacity:0.699936;fill:url(#linearGradient1522);fill-rule:evenodd;stroke:none;stroke-width:0.105188pt;"
     id="path836" />
  <path
     d="M 15.177322 10.961774 C 14.558788 11.749148 16.374674 48.355066 17.31663 49.041019 C 18.289339 49.671571 48.857076 39.875433 49.619702 38.879506 C 50.338948 38.047123 49.355237 14.69976 48.871027 13.849962 C 48.247804 12.943851 15.852983 10.20882 15.177322 10.961774 z "
     style="font-size:12;fill:#261933;fill-rule:evenodd;stroke:#261933;stroke-width:0.613348;fill-opacity:0.524194;"
     id="path837" />
  <path
     d="M 17.744431 47.008737 C 17.506854 46.716067 15.346975 12.931632 15.926202 12.138455 C 16.692801 11.234891 45.424386 13.9854 45.661957 14.277763 C 45.888033 14.555666 19.622945 11.623281 17.31663 13.84986 C 15.744634 15.369718 17.970295 47.286535 17.744431 47.008737 z "
     style="font-size:12;opacity:0.699936;fill:url(#linearGradient1527);fill-rule:evenodd;stroke:none;stroke-width:0.0980447pt;"
     id="path838" />
  <path
     sodipodi:type="arc"
     style="font-size:12;fill:#ffeb21;fill-opacity:0.75;fill-rule:evenodd;stroke:#000000;stroke-width:0.497637;stroke-dasharray:none;"
     id="path607"
     sodipodi:cx="33.33551407"
     sodipodi:cy="33.74345398"
     sodipodi:rx="0.64354277"
     sodipodi:ry="0.64354277"
     d="M 33.979057 33.743454 A 0.643543 0.643543 0 1 0 32.691971,33.743454 A 0.643543 0.643543 0 1 0 33.9791 33.7435 L 33.335514 33.743454 z"
     transform="matrix(1.271186,0.000000,0.000000,1.240867,-8.359509,-4.469500)" />
  <path
     sodipodi:type="arc"
     style="font-size:12;fill:#ffeb21;fill-opacity:0.75;fill-rule:evenodd;stroke:#000000;stroke-width:0.497637;stroke-dasharray:none;"
     id="path608"
     sodipodi:cx="35.00872421"
     sodipodi:cy="30.01090813"
     sodipodi:rx="0.77225131"
     sodipodi:ry="0.77225131"
     d="M 35.780976 30.010908 A 0.772251 0.772251 0 1 0 34.236473,30.010908 A 0.772251 0.772251 0 1 0 35.781 30.0109 L 35.008724 30.010908 z"
     transform="matrix(1.271186,0.000000,0.000000,1.240867,-8.359509,-4.469500)" />
  <path
     sodipodi:type="arc"
     style="font-size:12;fill:#ffeb21;fill-opacity:0.75;fill-rule:evenodd;stroke:#000000;stroke-width:0.497637;stroke-dasharray:none;"
     id="path609"
     sodipodi:cx="37.84031296"
     sodipodi:cy="27.17931938"
     sodipodi:rx="1.02966845"
     sodipodi:ry="1.02966845"
     d="M 38.869981 27.179319 A 1.029668 1.029668 0 1 0 36.810645,27.179319 A 1.02967 1.02967 0 1 0 38.87 27.1793 L 37.840313 27.179319 z"
     transform="matrix(1.271186,0.000000,0.000000,1.240867,-8.359509,-4.469500)" />
  <path
     sodipodi:type="arc"
     style="font-size:12;fill:#ffeb21;fill-opacity:0.75;fill-rule:evenodd;stroke:#000000;stroke-width:0.497637;stroke-dasharray:none;"
     id="path610"
     sodipodi:cx="41.57286072"
     sodipodi:cy="25.11998177"
     sodipodi:rx="1.15837693"
     sodipodi:ry="1.28708553"
     d="M 42.731238 25.119982 A 1.158377 1.287086 0 1 0 40.414484,25.119982 A 1.15838 1.28709 0 1 0 42.7312 25.12 L 41.572861 25.119982 z"
     transform="matrix(1.271186,0.000000,0.000000,1.240867,-8.359509,-4.469500)" />
  <path
     sodipodi:type="arc"
     style="font-size:12;fill:#ffeb21;fill-opacity:0.75;fill-rule:evenodd;stroke:#000000;stroke-width:0.497637;stroke-dasharray:none;"
     id="path611"
     sodipodi:cx="42.98865509"
     sodipodi:cy="21.51614380"
     sodipodi:rx="1.28708553"
     sodipodi:ry="1.28708553"
     d="M 44.275741 21.516144 A 1.287086 1.287086 0 1 0 41.701570,21.516144 A 1.28709 1.28709 0 1 0 44.2757 21.5161 L 42.988655 21.516144 z"
     transform="matrix(1.271186,0.000000,0.000000,1.240867,-8.359509,-4.469500)" />
  <path
     sodipodi:type="arc"
     style="font-size:12;fill:#ffeb21;fill-opacity:0.75;fill-rule:evenodd;stroke:#000000;stroke-width:0.497637;stroke-dasharray:none;"
     id="path612"
     sodipodi:cx="38.61256409"
     sodipodi:cy="19.97163963"
     sodipodi:rx="1.54450262"
     sodipodi:ry="1.41579401"
     d="M 40.157067 19.971640 A 1.544503 1.415794 0 1 0 37.068061,19.971640 A 1.5445 1.41579 0 1 0 40.1571 19.9716 L 38.612564 19.971640 z"
     transform="matrix(1.271186,0.000000,0.000000,1.240867,-8.359509,-4.469500)" />
  <path
     sodipodi:type="arc"
     style="font-size:12;fill:#ffeb21;fill-opacity:0.75;fill-rule:evenodd;stroke:#000000;stroke-width:0.497637;stroke-dasharray:none;"
     id="path613"
     sodipodi:cx="33.59293365"
     sodipodi:cy="21.00130844"
     sodipodi:rx="1.41579401"
     sodipodi:ry="1.41579401"
     d="M 35.008728 21.001308 A 1.415794 1.415794 0 1 0 32.177140,21.001308 A 1.41579 1.41579 0 1 0 35.0087 21.0013 L 33.592934 21.001308 z"
     transform="matrix(1.271186,0.000000,0.000000,1.240867,-8.359509,-4.469500)" />
  <path
     sodipodi:type="arc"
     style="font-size:12;fill:#ffeb21;fill-opacity:0.75;fill-rule:evenodd;stroke:#000000;stroke-width:0.497637;stroke-dasharray:none;"
     id="path614"
     sodipodi:cx="30.50392723"
     sodipodi:cy="24.73385620"
     sodipodi:rx="1.67321122"
     sodipodi:ry="1.67321122"
     d="M 32.177138 24.733856 A 1.673211 1.673211 0 1 0 28.830716,24.733856 A 1.67321 1.67321 0 1 0 32.1771 24.7339 L 30.503927 24.733856 z"
     transform="matrix(1.271186,0.000000,0.000000,1.240867,-8.359509,-4.469500)" />
  <path
     sodipodi:type="arc"
     style="font-size:12;fill:#ffeb21;fill-opacity:0.75;fill-rule:evenodd;stroke:#000000;stroke-width:0.497637;stroke-dasharray:none;"
     id="path615"
     sodipodi:cx="26.77137947"
     sodipodi:cy="29.75349045"
     sodipodi:rx="1.93062830"
     sodipodi:ry="2.05933690"
     d="M 28.702008 29.753490 A 1.930628 2.059337 0 1 0 24.840751,29.753490 A 1.93063 2.05934 0 1 0 28.702 29.7535 L 26.771379 29.753490 z"
     transform="matrix(1.271186,0.000000,0.000000,1.240867,-8.935425,-6.197249)" />
  <path
     sodipodi:type="arc"
     style="font-size:12;fill:#ffeb21;fill-opacity:0.75;fill-rule:evenodd;stroke:#000000;stroke-width:0.452002;stroke-dasharray:none;"
     id="path616"
     sodipodi:cx="27.02879524"
     sodipodi:cy="37.08987808"
     sodipodi:rx="2.57417107"
     sodipodi:ry="2.18804526"
     d="M 29.602966 37.089878 A 2.574171 2.188045 0 1 0 24.454624,37.089878 A 2.57417 2.18805 0 1 0 29.603 37.0899 L 27.028795 37.089878 z"
     transform="matrix(1.271186,0.000000,0.000000,1.504077,-11.43106,-16.91955)" />
</svg>
