<?xml version="1.0" encoding="UTF-8" standalone="no"?>
<!DOCTYPE svg PUBLIC "-//W3C//DTD SVG 20010904//EN"
"http://www.w3.org/TR/2001/REC-SVG-20010904/DTD/svg10.dtd">
<!-- Created with Inkscape (http://www.inkscape.org/) -->
<svg
   id="svg1"
   sodipodi:version="0.32"
   inkscape:version="0.37"
   width="48pt"
   height="48pt"
   sodipodi:docname="amsn.svg"
   xmlns="http://www.w3.org/2000/svg"
   xmlns:inkscape="http://www.inkscape.org/namespaces/inkscape"
   xmlns:sodipodi="http://sodipodi.sourceforge.net/DTD/sodipodi-0.dtd"
   xmlns:xlink="http://www.w3.org/1999/xlink"
   sodipodi:docbase="/home/morten">
  <defs
     id="defs3">
    <linearGradient
       id="linearGradient662">
      <stop
         style="stop-color:#5d517f;stop-opacity:1;"
         offset="0.00000000"
         id="stop663" />
      <stop
         style="stop-color:#f3f3ff;stop-opacity:1;"
         offset="1.00000000"
         id="stop664" />
    </linearGradient>
    <linearGradient
       id="linearGradient599">
      <stop
         style="stop-color:#ffffff;stop-opacity:1;"
         offset="0.00000000"
         id="stop600" />
      <stop
         style="stop-color:#d9cce6;stop-opacity:1;"
         offset="1.00000000"
         id="stop601" />
    </linearGradient>
    <linearGradient
       id="linearGradient584">
      <stop
         style="stop-color:#ffffff;stop-opacity:0.366667;"
         offset="0.00000000"
         id="stop585" />
      <stop
         style="stop-color:#ffffff;stop-opacity:0.2;"
         offset="1.00000000"
         id="stop586" />
    </linearGradient>
    <linearGradient
       id="linearGradient578">
      <stop
         style="stop-color:#8a86b9;stop-opacity:1;"
         offset="0.00000000"
         id="stop579" />
      <stop
         style="stop-color:#b1ace8;stop-opacity:1;"
         offset="1.00000000"
         id="stop580" />
    </linearGradient>
    <linearGradient
       xlink:href="#linearGradient662"
       id="linearGradient581"
       x1="-0.70624995"
       y1="0.22641508"
       x2="1.95625007"
       y2="0.26415095" />
    <linearGradient
       xlink:href="#linearGradient584"
       id="linearGradient583" />
    <linearGradient
       xlink:href="#linearGradient662"
       id="linearGradient860"
       x1="1.33928573"
       y1="0.67187494"
       x2="-2.13690472"
       y2="-0.49999997" />
    <linearGradient
       xlink:href="#linearGradient662"
       id="linearGradient861"
       x1="-0.44711539"
       y1="0.32075471"
       x2="1.27403843"
       y2="1.12578619" />
    <linearGradient
       xlink:href="#linearGradient584"
       id="linearGradient862" />
    <radialGradient
       xlink:href="#linearGradient662"
       id="radialGradient595"
       cx="0.71794873"
       cy="0.48290598"
       r="1.68339193"
       fx="0.71794873"
       fy="0.48290598" />
    <linearGradient
       xlink:href="#linearGradient662"
       id="linearGradient652" />
    <linearGradient
       xlink:href="#linearGradient662"
       id="linearGradient654"
       x1="0.45493558"
       y1="1.61965811"
       x2="0.46351928"
       y2="0.15811966" />
    <linearGradient
       xlink:href="#linearGradient584"
       id="linearGradient661"
       x1="0.58641970"
       y1="0.50781268"
       x2="-0.78395075"
       y2="0.77343768" />
    <radialGradient
       xlink:href="#linearGradient662"
       id="radialGradient628"
       cx="0.50000000"
       cy="0.50000000"
       r="0.50000000"
       fx="0.50000000"
       fy="0.50000000" />
    <linearGradient
       xlink:href="#linearGradient662"
       id="linearGradient669"
       x1="0.93162394"
       y1="-0.46961325"
       x2="0.19658124"
       y2="1.51933682" />
    <linearGradient
       xlink:href="#linearGradient662"
       id="linearGradient670"
       x1="0.03433478"
       y1="2.03333330"
       x2="0.90128756"
       y2="-0.10000000" />
  </defs>
  <sodipodi:namedview
     id="base"
     pagecolor="#ffffff"
     bordercolor="#666666"
     borderopacity="1.0"
     inkscape:pageopacity="0.0"
     inkscape:pageshadow="2"
     inkscape:zoom="7.97947193"
     inkscape:cx="22.8376830"
     inkscape:cy="23.7327047"
     inkscape:window-width="938"
     inkscape:window-height="903"
     inkscape:window-x="340"
     inkscape:window-y="49" />
  <g
     id="g640"
     transform="matrix(0.929297,0.000000,0.000000,0.929297,2.428898,1.921106)">
    <g
       id="g633"
       transform="translate(27.25744,16.60511)">
      <path
         sodipodi:type="arc"
         style="font-size:12;fill:#000000;fill-opacity:0.3;fill-rule:evenodd;stroke:none;stroke-width:1pt;stroke-opacity:1;"
         id="path631"
         sodipodi:cx="36.65656281"
         sodipodi:cy="15.35418892"
         sodipodi:rx="10.33903027"
         sodipodi:ry="10.33903027"
         d="M 46.995593 15.354189 A 10.339030 10.339030 0 1 0 26.317533,15.354189 A 10.339 10.339 0 1 0 46.9956 15.3542 L 36.656563 15.354189 z"
         transform="matrix(0.862937,0.000000,0.000000,0.878088,-41.74896,-15.05385)" />
      <path
         style="font-size:12;fill:#000000;fill-opacity:0.3;fill-rule:evenodd;stroke:none;stroke-width:0.835132pt;"
         d="M -27.100824 26.650495 C -27.082995 23.079537 -23.912943 4.2440025 -10.310868 4.4318855 C 6.1979791 4.6555376 6.9512341 24.047319 7.2786085 27.199103 C 7.3780101 28.239368 4.4057202 28.433066 3.8140154 27.199103 C 2.1789994 23.031414 -1.3794624 13.018492 -1.5161292 12.935304 C -2.983062 12.204611 4.0411764 24.266575 2.7479861 27.74771 C 1.7314467 30.484128 -4.6756584 31.499782 -8.4453173 31.587962 C -12.493204 31.682651 -19.420795 31.104324 -20.704651 28.296317 C -22.263538 24.886772 -16.613457 12.930267 -16.97355 12.935304 C -17.986704 12.945749 -21.646911 26.535095 -22.037187 26.650495 C -24.058381 27.005627 -27.052192 27.348831 -27.100824 26.650495 z "
         id="path628"
         sodipodi:nodetypes="cssssssssss" />
      <path
         style="font-size:12;fill:url(#linearGradient670);fill-opacity:0.75;fill-rule:evenodd;stroke:url(#linearGradient669);stroke-width:0.835132pt;"
         d="M -28.35404 24.998875 C -28.336536 21.592646 -25.224258 3.6259975 -11.87008 3.8052131 C 4.3378938 4.018548 5.0774208 22.515784 5.3988289 25.522176 C 5.4964188 26.514453 2.5782989 26.699217 1.9973775 25.522176 C 0.3921601 21.546743 -3.1014496 11.995719 -3.2356251 11.916368 C -4.6758235 11.219382 2.2203986 22.724926 0.95077735 26.045476 C -0.047236198 28.655663 -6.3375721 29.624465 -10.038529 29.708577 C -14.012643 29.798898 -20.813979 29.247249 -22.074437 26.568776 C -23.604913 23.316513 -18.057805 11.911563 -18.411335 11.916368 C -19.406024 11.926331 -22.999524 24.888799 -23.382688 24.998875 C -25.367045 25.337626 -28.306294 25.664998 -28.35404 24.998875 z "
         id="path650"
         sodipodi:nodetypes="cssssssssss" />
      <path
         style="font-size:12;fill:url(#linearGradient862);fill-opacity:0.75;fill-rule:evenodd;stroke-width:1pt;"
         d="M -24.8459 13.093792 C -25.644576 15.425347 -20.580168 10.795676 -18.304646 10.215642 C -16.132114 9.6618589 -15.610795 9.4685372 -11.501741 9.692341 C -9.063266 9.6683533 -3.7372999 5.9561573 -6.2687382 5.2442895 C -20.778365 1.4256754 -24.450509 11.810006 -24.8459 13.093792 z "
         id="path651"
         sodipodi:nodetypes="cssss" />
      <path
         sodipodi:type="arc"
         style="font-size:12;fill:url(#linearGradient654);fill-opacity:0.75;fill-rule:evenodd;stroke:url(#linearGradient652);stroke-width:1pt;stroke-opacity:1;"
         id="path653"
         sodipodi:cx="36.65656281"
         sodipodi:cy="15.35418892"
         sodipodi:rx="10.33903027"
         sodipodi:ry="10.33903027"
         d="M 46.995593 15.354189 A 10.339030 10.339030 0 1 0 26.317533,15.354189 A 10.339 10.339 0 1 0 46.9956 15.3542 L 36.656563 15.354189 z"
         transform="matrix(0.847785,0.000000,0.000000,0.847785,-42.60342,-15.84179)" />
      <path
         style="font-size:12;fill:url(#linearGradient661);fill-opacity:0.491667;fill-rule:evenodd;stroke-width:1pt;"
         d="M -14.703352 -4.5108495 C -13.201262 -5.1797785 -12.209873 -4.4440144 -11.040251 -4.5108495 C -9.1572889 -4.6184479 -5.450713 -6.4326519 -5.5455982 -6.6040508 C -8.0814593 -10.712117 -13.012467 -11.090984 -16.011604 -9.2205537 C -21.123622 -6.0324125 -19.258817 1.3190552 -18.104806 0.72215339 C -16.72953 0.010804196 -17.052293 -3.5334488 -14.703352 -4.5108495 z "
         id="path654"
         sodipodi:nodetypes="csssss" />
    </g>
    <g
       id="g620"
       transform="translate(-30.07718,13.78537)">
      <path
         style="font-size:12;fill-opacity:0.3;fill-rule:evenodd;stroke:none;stroke-width:1pt;fill:#000000;"
         d="M 53.109899 35.006064 C 53.129555 30.851351 56.624701 8.93671 71.621681 9.1553072 C 89.823526 9.4155204 90.654028 31.977338 91.014976 35.644355 C 91.12457 36.854675 87.84747 37.08004 87.195085 35.644355 C 85.392397 30.795361 81.469011 19.145595 81.318328 19.048807 C 79.70096 18.198666 87.445542 32.232437 86.019733 36.282644 C 84.898947 39.466394 77.834787 40.648081 73.678545 40.750676 C 69.215544 40.860844 61.577523 40.187975 60.162006 36.920934 C 58.443254 32.95402 64.672755 19.042946 64.275735 19.048807 C 63.158682 19.06096 59.123116 34.871799 58.692816 35.006064 C 56.464348 35.419251 53.163518 35.818561 53.109899 35.006064 z "
         id="path612"
         sodipodi:nodetypes="cssssssssss" />
      <path
         sodipodi:type="arc"
         style="font-size:12;fill-opacity:0.3;fill-rule:evenodd;stroke:none;stroke-width:1pt;fill:#000000;"
         id="path614"
         sodipodi:cx="36.65656281"
         sodipodi:cy="15.35418892"
         sodipodi:rx="10.33903027"
         sodipodi:ry="10.33903027"
         d="M 46.995593 15.354189 A 10.339030 10.339030 0 1 0 26.317533,15.354189 A 10.339 10.339 0 1 0 46.9956 15.3542 L 36.656563 15.354189 z"
         transform="matrix(0.998119,0.000000,0.000000,0.998119,33.80278,-12.58121)" />
      <g
         id="g606"
         transform="translate(30.39048,-16.29180)">
        <path
           style="font-size:12;fill:url(#linearGradient860);fill-opacity:0.75;fill-rule:evenodd;stroke:url(#linearGradient861);stroke-width:1pt;"
           d="M -26.160879 39.008636 C -26.13992 34.929965 -22.413229 13.416421 -6.4227307 13.631017 C 12.984948 13.886467 13.870469 36.035345 14.255329 39.635244 C 14.372184 40.823412 10.877982 41.044652 10.182378 39.635244 C 8.2602662 34.875 4.0769633 23.438455 3.9162993 23.343439 C 2.1917833 22.508858 10.449427 36.285774 8.9291622 40.261852 C 7.7341262 43.38733 0.20198033 44.547389 -4.2296037 44.648107 C -8.9882687 44.756258 -17.132293 44.095705 -18.641585 40.888459 C -20.474201 36.994149 -13.832008 23.337685 -14.25533 23.343439 C -15.446386 23.35537 -19.749299 38.876829 -20.208105 39.008636 C -22.584205 39.414261 -26.103708 39.806262 -26.160879 39.008636 z "
           id="path634"
           sodipodi:nodetypes="cssssssssss"
           transform="matrix(0.953371,0.000000,0.000000,0.953371,45.15401,11.97055)" />
        <path
           style="font-size:12;fill:url(#linearGradient862);fill-opacity:0.75;fill-rule:evenodd;stroke-width:1pt;"
           d="M -20.834712 24.753306 C -21.791059 27.545145 -15.726859 22.001506 -13.002114 21.306963 C -10.400692 20.643855 -9.7764557 20.412369 -4.8562107 20.680355 C -1.9363427 20.651632 4.4410512 16.206591 1.4098673 15.354189 C -15.964184 10.781722 -20.361265 23.21608 -20.834712 24.753306 z "
           id="path637"
           sodipodi:nodetypes="cssss"
           transform="matrix(0.953371,0.000000,0.000000,0.953371,45.15401,11.97055)" />
        <path
           sodipodi:type="arc"
           style="font-size:12;fill:url(#radialGradient595);fill-opacity:0.75;fill-rule:evenodd;stroke:url(#linearGradient581);stroke-width:1pt;"
           id="path608"
           sodipodi:cx="36.65656281"
           sodipodi:cy="15.35418892"
           sodipodi:rx="10.33903027"
           sodipodi:ry="10.33903027"
           d="M 46.995593 15.354189 A 10.339030 10.339030 0 1 0 26.317533,15.354189 A 10.339 10.339 0 1 0 46.9956 15.3542 L 36.656563 15.354189 z"
           transform="matrix(0.967816,0.000000,0.000000,0.967816,2.956578,3.235958)" />
        <path
           style="font-size:12;fill:url(#linearGradient583);fill-opacity:0.491667;fill-rule:evenodd;stroke-width:1pt;"
           d="M 33.680174 16.607404 C 35.478801 15.806419 36.665905 16.687434 38.066429 16.607404 C 40.321117 16.478565 44.759428 14.306208 44.645811 14.100973 C 41.609332 9.1819118 35.704867 8.7282516 32.113654 10.967933 C 25.992445 14.785462 28.225392 23.588222 29.607222 22.873483 C 31.253998 22.021703 30.867517 17.777759 33.680174 16.607404 z "
           id="path630"
           sodipodi:nodetypes="csssss"
           transform="matrix(0.953371,0.000000,0.000000,0.953371,3.038040,0.321456)" />
      </g>
    </g>
  </g>
</svg>
