<?xml version="1.0" encoding="UTF-8" standalone="no"?>
<!DOCTYPE svg PUBLIC "-//W3C//DTD SVG 20010904//EN"
"http://www.w3.org/TR/2001/REC-SVG-20010904/DTD/svg10.dtd">
<!-- Created with Inkscape (http://www.inkscape.org/) -->
<svg
   version="1.0"
   x="0.0000000"
   y="0.0000000"
   width="60.000000"
   height="60.000000"
   id="svg1"
   sodipodi:version="0.32"
   inkscape:version="0.40"
   sodipodi:docname="matlab.svg"
   sodipodi:docbase="/home/scaba"
   xmlns="http://www.w3.org/2000/svg"
   xmlns:cc="http://web.resource.org/cc/"
   xmlns:inkscape="http://www.inkscape.org/namespaces/inkscape"
   xmlns:sodipodi="http://sodipodi.sourceforge.net/DTD/sodipodi-0.dtd"
   xmlns:rdf="http://www.w3.org/1999/02/22-rdf-syntax-ns#"
   xmlns:dc="http://purl.org/dc/elements/1.1/"
   xmlns:xlink="http://www.w3.org/1999/xlink">
  <metadata
     id="metadata28">
    <rdf:RDF
       id="RDF29">
      <cc:Work
         rdf:about=""
         id="Work30">
        <dc:format
           id="format31">image/svg+xml</dc:format>
        <dc:type
           id="type33"
           rdf:resource="http://purl.org/dc/dcmitype/StillImage" />
      </cc:Work>
    </rdf:RDF>
  </metadata>
  <sodipodi:namedview
     id="base"
     pagecolor="#ffffff"
     bordercolor="#666666"
     borderopacity="1.0"
     inkscape:pageopacity="0.0"
     inkscape:pageshadow="2"
     inkscape:zoom="5.6568542"
     inkscape:cx="35.948122"
     inkscape:cy="22.298917"
     inkscape:window-width="812"
     inkscape:window-height="657"
     inkscape:window-x="115"
     inkscape:window-y="26"
     inkscape:current-layer="svg1"
     borderlayer="top" />
  <defs
     id="defs3">
    <linearGradient
       id="linearGradient1708">
      <stop
         style="stop-color:#ffffff;stop-opacity:1.0000000;"
         offset="0.0000000"
         id="stop1709" />
      <stop
         style="stop-color:#d9cce6;stop-opacity:1.0000000;"
         offset="1.0000000"
         id="stop1710" />
    </linearGradient>
    <linearGradient
       id="linearGradient584">
      <stop
         style="stop-color:#ffffff;stop-opacity:1.0000000;"
         offset="0.0000000"
         id="stop585" />
      <stop
         style="stop-color:#ffffff;stop-opacity:0.0000000;"
         offset="1.0000000"
         id="stop586" />
    </linearGradient>
    <linearGradient
       id="linearGradient578">
      <stop
         style="stop-color:#d9cce6;stop-opacity:1.0000000;"
         offset="0.0000000"
         id="stop579" />
      <stop
         style="stop-color:#73667f;stop-opacity:1.0000000;"
         offset="1.0000000"
         id="stop580" />
    </linearGradient>
    <linearGradient
       x1="11.889954"
       y1="17.899555"
       x2="47.707611"
       y2="53.933167"
       id="linearGradient581"
       xlink:href="#linearGradient584"
       gradientUnits="userSpaceOnUse"
       gradientTransform="matrix(1.087700,0.000000,0.000000,0.919371,66.35103,-1.329236)" />
    <linearGradient
       x1="14.901803"
       y1="12.416366"
       x2="27.636885"
       y2="24.581890"
       id="linearGradient583"
       xlink:href="#linearGradient584"
       gradientUnits="userSpaceOnUse"
       gradientTransform="matrix(1.682464,0.000000,0.000000,0.594366,66.35103,-1.329236)" />
    <linearGradient
       x1="11.050006"
       y1="4.8899484"
       x2="34.399300"
       y2="26.972225"
       id="linearGradient860"
       xlink:href="#linearGradient584"
       gradientUnits="userSpaceOnUse"
       gradientTransform="matrix(0.544211,0.000000,0.000000,1.837523,66.35103,-1.329236)" />
    <linearGradient
       x1="9.5028210"
       y1="14.326502"
       x2="53.603920"
       y2="56.968639"
       id="linearGradient861"
       xlink:href="#linearGradient578"
       gradientUnits="userSpaceOnUse"
       gradientTransform="matrix(1.067200,0.000000,0.000000,0.937032,66.35103,-1.329236)" />
    <linearGradient
       x1="3.2789278"
       y1="4.5549574"
       x2="54.547245"
       y2="55.028416"
       id="linearGradient862"
       xlink:href="#linearGradient578"
       gradientUnits="userSpaceOnUse"
       gradientTransform="matrix(1.014478,0.000000,0.000000,0.985729,66.35103,-1.329236)" />
    <linearGradient
       x1="1.6300739"
       y1="17.134445"
       x2="23.789167"
       y2="39.286045"
       id="linearGradient1715"
       xlink:href="#linearGradient584"
       gradientUnits="userSpaceOnUse"
       gradientTransform="matrix(0.905665,0.000000,0.000000,1.104161,0.110770,-0.996927)" />
    <linearGradient
       x1="1.6300739"
       y1="17.134445"
       x2="23.789167"
       y2="39.286045"
       id="linearGradient1718"
       xlink:href="#linearGradient584"
       gradientUnits="userSpaceOnUse"
       gradientTransform="matrix(0.905665,0.000000,0.000000,1.104161,16.09532,-8.614897)" />
    <linearGradient
       x1="1.6300739"
       y1="17.134445"
       x2="23.789167"
       y2="39.286045"
       id="linearGradient1721"
       xlink:href="#linearGradient584"
       gradientUnits="userSpaceOnUse"
       gradientTransform="matrix(0.905665,0.000000,0.000000,1.104161,8.119905,-17.91955)" />
    <linearGradient
       x1="6.4574761"
       y1="4.6498289"
       x2="25.565939"
       y2="25.086603"
       id="linearGradient3038"
       xlink:href="#linearGradient578"
       gradientUnits="userSpaceOnUse"
       gradientTransform="scale(1.001030,0.998971)" />
    <linearGradient
       x1="6.4574761"
       y1="4.6498289"
       x2="25.565939"
       y2="25.086603"
       id="linearGradient3039"
       xlink:href="#linearGradient578"
       gradientUnits="userSpaceOnUse"
       gradientTransform="scale(1.001030,0.998971)" />
    <linearGradient
       x1="6.4574761"
       y1="4.6498289"
       x2="25.565939"
       y2="25.086603"
       id="linearGradient3040"
       xlink:href="#linearGradient578"
       gradientUnits="userSpaceOnUse"
       gradientTransform="scale(1.001030,0.998971)" />
    <linearGradient
       inkscape:collect="always"
       xlink:href="#linearGradient1708"
       id="linearGradient1711"
       gradientTransform="matrix(1.003804,0.000000,0.000000,0.996210,1.439567,66.93986)"
       x1="10.786067"
       y1="7.1828723"
       x2="27.083527"
       y2="25.066830"
       gradientUnits="userSpaceOnUse" />
    <linearGradient
       inkscape:collect="always"
       xlink:href="#linearGradient578"
       id="linearGradient1720"
       gradientTransform="matrix(0.871647,0.000000,0.000000,1.147253,1.439567,66.93986)"
       x1="19.457455"
       y1="20.837318"
       x2="50.554337"
       y2="17.274693"
       gradientUnits="userSpaceOnUse" />
    <linearGradient
       inkscape:collect="always"
       xlink:href="#linearGradient584"
       id="linearGradient1729"
       gradientTransform="matrix(0.877053,0.000000,0.000000,1.140182,1.439567,66.93986)"
       x1="26.271854"
       y1="22.911760"
       x2="46.103157"
       y2="28.879768"
       gradientUnits="userSpaceOnUse" />
    <linearGradient
       inkscape:collect="always"
       xlink:href="#linearGradient584"
       id="linearGradient1731"
       gradientUnits="userSpaceOnUse"
       gradientTransform="matrix(1.003804,0.000000,0.000000,0.996210,1.439567,66.93986)"
       x1="17.726391"
       y1="15.945027"
       x2="29.533092"
       y2="25.974466" />
    <linearGradient
       inkscape:collect="always"
       xlink:href="#linearGradient578"
       id="linearGradient1774"
       gradientTransform="matrix(0.882099,0.000000,0.000000,1.133659,-71.79839,-1.439567)"
       x1="124.55768"
       y1="26.392714"
       x2="144.69109"
       y2="26.551777"
       gradientUnits="userSpaceOnUse"
       spreadMethod="reflect" />
    <linearGradient
       inkscape:collect="always"
       xlink:href="#linearGradient578"
       id="linearGradient1778"
       gradientTransform="scale(1.002668,0.997339)"
       x1="18.683064"
       y1="20.449495"
       x2="28.324802"
       y2="27.445408"
       gradientUnits="userSpaceOnUse"
       spreadMethod="reflect" />
    <linearGradient
       inkscape:collect="always"
       xlink:href="#linearGradient584"
       id="linearGradient1782"
       gradientTransform="matrix(1.182522,0.000000,0.000000,0.845650,-71.79839,-1.439567)"
       x1="63.210545"
       y1="45.250092"
       x2="81.030518"
       y2="36.660873"
       gradientUnits="userSpaceOnUse" />
    <linearGradient
       inkscape:collect="always"
       xlink:href="#linearGradient584"
       id="linearGradient1801"
       gradientTransform="scale(0.490068,2.040534)"
       x1="72.493027"
       y1="3.8504148"
       x2="82.074326"
       y2="11.770768"
       gradientUnits="userSpaceOnUse"
       spreadMethod="pad" />
    <linearGradient
       inkscape:collect="always"
       xlink:href="#linearGradient584"
       id="linearGradient1806"
       gradientTransform="scale(0.831082,1.203251)"
       x1="32.070965"
       y1="43.514565"
       x2="33.129238"
       y2="35.911697"
       gradientUnits="userSpaceOnUse" />
    <linearGradient
       inkscape:collect="always"
       xlink:href="#linearGradient578"
       id="linearGradient1106"
       gradientUnits="userSpaceOnUse"
       gradientTransform="scale(1.002668,0.997339)"
       spreadMethod="reflect"
       x1="18.683064"
       y1="20.449495"
       x2="28.324802"
       y2="27.445408" />
    <linearGradient
       inkscape:collect="always"
       xlink:href="#linearGradient578"
       id="linearGradient1107"
       gradientUnits="userSpaceOnUse"
       gradientTransform="matrix(0.882099,0.000000,0.000000,1.133659,-71.79839,-1.439567)"
       spreadMethod="reflect"
       x1="124.55768"
       y1="26.392714"
       x2="144.69109"
       y2="26.551777" />
    <linearGradient
       inkscape:collect="always"
       xlink:href="#linearGradient584"
       id="linearGradient1108"
       gradientUnits="userSpaceOnUse"
       gradientTransform="matrix(1.182522,0.000000,0.000000,0.845650,-71.79839,-1.439567)"
       x1="63.210545"
       y1="45.250092"
       x2="81.030518"
       y2="36.660873" />
    <linearGradient
       inkscape:collect="always"
       xlink:href="#linearGradient584"
       id="linearGradient1109"
       gradientUnits="userSpaceOnUse"
       gradientTransform="scale(0.490068,2.040534)"
       spreadMethod="pad"
       x1="72.493027"
       y1="3.8504148"
       x2="82.074326"
       y2="11.770768" />
    <linearGradient
       inkscape:collect="always"
       xlink:href="#linearGradient584"
       id="linearGradient1110"
       gradientUnits="userSpaceOnUse"
       gradientTransform="scale(0.831082,1.203251)"
       x1="32.070965"
       y1="43.514565"
       x2="33.129238"
       y2="35.911697" />
  </defs>
  <path
     style="opacity:0.29999998;fill:#000000;fill-opacity:1.0000000;fill-rule:evenodd;stroke:none;stroke-width:1.8750000;stroke-linecap:butt;stroke-linejoin:miter;stroke-miterlimit:4.0000000;stroke-opacity:1.0000000;"
     d="M 41.918721,7.4461201 C 41.364841,7.3822571 40.350531,8.3046391 40.262471,8.4148701 C 34.846741,15.194356 31.380921,21.509085 25.731219,22.696120 C 22.512869,23.372314 24.213279,25.786854 20.699969,27.758620 C 15.946879,30.426180 9.5053892,32.997908 5.4812192,34.321120 C 4.7452992,34.563098 11.344369,40.822608 15.668719,42.789870 C 19.104839,44.353051 18.607649,41.009897 20.918719,42.008620 C 22.708899,44.012950 26.209579,47.561023 28.606211,55.289870 C 29.466781,57.181478 32.425471,55.229213 34.074971,53.039870 C 37.097941,49.501902 43.713681,41.839557 47.762471,40.789870 C 51.811251,39.740186 61.270131,49.995724 59.012471,45.383620 C 53.249711,33.611045 47.142101,10.367713 43.606221,8.1336201 C 43.098221,7.8126491 42.472601,7.5099831 41.918721,7.4461201 z "
     id="path1790"
     sodipodi:nodetypes="ccccccccccccc"
     transform="matrix(1.021200,0.000000,0.000000,1.021200,-0.615171,-1.094169)" />
  <path
     style="fill:url(#linearGradient1106);fill-opacity:1.0000000;fill-rule:evenodd;stroke:none;stroke-width:0.50000000;stroke-linecap:butt;stroke-linejoin:miter;stroke-miterlimit:4.0000000;stroke-opacity:1.0000000;"
     d="M 1.9335562,32.675217 C 1.1976442,32.917196 7.7858162,39.186800 12.110162,41.154062 C 15.546282,42.717247 15.045123,39.361461 17.356194,40.360184 C 19.716971,41.380387 27.290274,32.728116 31.814301,23.813455 C 36.338331,14.898793 37.543161,5.7217411 36.704121,6.7720561 C 31.288381,13.551541 27.841414,19.855024 22.191705,21.042059 C 18.973351,21.718253 20.677827,24.133214 17.164517,26.104980 C 12.411440,28.772538 5.9577342,31.352005 1.9335562,32.675217 z "
     id="path1757"
     sodipodi:nodetypes="csssssss"
     transform="matrix(1.021200,0.000000,0.000000,1.021200,-0.615171,-1.094169)" />
  <path
     style="fill:url(#linearGradient1107);fill-opacity:1.0000000;fill-rule:evenodd;stroke:none;stroke-width:1.8750000;stroke-linecap:butt;stroke-linejoin:miter;stroke-miterlimit:4.0000000;stroke-opacity:1.0000000;"
     d="M 37.103931,6.5394041 C 37.577011,5.2939381 39.048001,5.8511541 40.064001,6.4930941 C 43.599871,8.7271871 49.686611,31.969311 55.449371,43.741886 C 57.707031,48.353992 48.251531,38.103584 44.202751,39.153268 C 40.153971,40.202952 33.549831,47.851619 30.526861,51.389587 C 28.877361,53.578928 25.914523,55.540658 25.053950,53.649050 C 22.657320,45.920206 17.709226,40.689487 18.457701,40.322915 C 21.276240,36.322143 28.759661,28.506955 37.103931,6.5394041 z "
     id="path1758"
     sodipodi:nodetypes="csszcccc"
     transform="matrix(1.021200,0.000000,0.000000,1.021200,-0.615171,-1.094169)" />
  <path
     style="fill:none;fill-opacity:1.0000000;fill-rule:evenodd;stroke:#000000;stroke-width:0.25000000pt;stroke-linecap:butt;stroke-linejoin:miter;stroke-opacity:1.0000000;"
     d="M 2.1285872,32.730522 L 2.1285872,32.730522 z "
     id="path1768"
     transform="matrix(1.021200,0.000000,0.000000,1.021200,-0.615171,-1.094169)" />
  <path
     style="fill:url(#linearGradient1108);fill-opacity:1.0000000;fill-rule:evenodd;stroke:none;stroke-width:0.25000000pt;stroke-linecap:butt;stroke-linejoin:miter;stroke-opacity:1.0000000;"
     d="M 16.564976,26.591147 C 17.261272,26.248838 22.843650,30.469750 24.434305,31.330872 C 24.744531,31.498817 20.024946,37.608617 17.719348,39.873138 C 15.413749,42.137658 15.522137,40.556899 14.238307,41.593725 C 13.451471,42.229178 1.5596352,35.033490 2.2185602,32.857763 C 2.3251962,32.505657 13.461035,28.117088 16.564976,26.591147 z "
     id="path1769"
     sodipodi:nodetypes="csssss"
     transform="matrix(1.021200,0.000000,0.000000,1.021200,-0.615171,-1.094169)" />
  <path
     style="fill:none;fill-opacity:1.0000000;fill-rule:evenodd;stroke:#261933;stroke-width:1.8750000;stroke-linecap:butt;stroke-linejoin:miter;stroke-miterlimit:4.0000000;stroke-opacity:1.0000000;"
     d="M 38.034911,5.7839351 C 37.481031,5.7200721 36.466721,6.6424541 36.378661,6.7526851 C 30.962931,13.532171 27.497119,19.846900 21.847409,21.033935 C 18.629059,21.710129 20.329469,24.124669 16.816159,26.096435 C 12.063069,28.763995 5.6215872,31.335723 1.5974092,32.658935 C 0.86149320,32.900913 7.4605592,39.160423 11.784909,41.127685 C 15.221029,42.690866 14.723839,39.347712 17.034909,40.346435 C 18.825089,42.350765 22.325779,45.898838 24.722409,53.627685 C 25.582979,55.519293 28.541661,53.567028 30.191161,51.377685 C 33.214131,47.839717 39.829871,40.177372 43.878661,39.127685 C 47.927441,38.078001 57.386321,48.333539 55.128661,43.721435 C 49.365901,31.948860 43.258291,8.7055281 39.722411,6.4714351 C 39.214411,6.1504641 38.588791,5.8477981 38.034911,5.7839351 z "
     id="path1783"
     sodipodi:nodetypes="ccccccccccccc"
     transform="matrix(1.021200,0.000000,0.000000,1.021200,-0.615171,-1.094169)" />
  <path
     style="fill:url(#linearGradient1109);fill-opacity:1.0000000;fill-rule:evenodd;stroke:none;stroke-width:0.25000000pt;stroke-linecap:butt;stroke-linejoin:miter;stroke-opacity:1.0000000;"
     d="M 38.006989,7.8508748 C 36.602792,8.6846170 35.322408,12.309863 35.355339,16.689710 C 35.396065,22.106239 37.609749,24.611214 38.669902,23.981748 C 39.966771,23.211732 40.267548,21.242959 40.216699,14.480000 C 40.193891,11.446584 38.959815,7.2851346 38.006989,7.8508748 z "
     id="path1796"
     sodipodi:nodetypes="cssss"
     transform="matrix(1.021200,0.000000,0.000000,1.021200,-0.615171,-1.094169)" />
  <path
     style="fill:url(#linearGradient1110);fill-opacity:1.0000000;fill-rule:evenodd;stroke:none;stroke-width:0.25000000pt;stroke-linecap:butt;stroke-linejoin:miter;stroke-opacity:1.0000000;"
     d="M 22.393883,45.438131 C 22.412622,46.378282 25.296261,53.294529 25.802275,53.317257 C 26.413351,53.344704 31.632701,49.846719 31.884526,47.453677 C 32.084027,45.557856 30.015653,43.325913 28.748422,43.092476 C 27.216689,42.810315 22.338775,42.673294 22.393883,45.438131 z "
     id="path1802"
     sodipodi:nodetypes="cssss"
     transform="matrix(1.021200,0.000000,0.000000,1.021200,-0.615171,-1.094169)" />
</svg>
