<?xml version="1.0" encoding="UTF-8" standalone="no"?>
<!DOCTYPE svg PUBLIC "-//W3C//DTD SVG 1.0//EN"
"http://www.w3.org/TR/2001/REC-SVG-20010904/DTD/svg10.dtd">
<!-- Created with Inkscape (http://www.inkscape.org/) -->
<svg
   id="svg1"
   sodipodi:version="0.32"
   inkscape:version="0.37"
   xmlns="http://www.w3.org/2000/svg"
   xmlns:sodipodi="http://sodipodi.sourceforge.net/DTD/sodipodi-0.dtd"
   xmlns:inkscape="http://www.inkscape.org/namespaces/inkscape"
   xmlns:xlink="http://www.w3.org/1999/xlink"
   width="64pt"
   height="64pt"
   sodipodi:docbase="/home/luke"
   sodipodi:docname="mozilla.svg">
  <defs
     id="defs3">
    <linearGradient
       id="linearGradient591">
      <stop
         style="stop-color:#ffffff;stop-opacity:1;"
         offset="0.00000000"
         id="stop592" />
      <stop
         style="stop-color:#ffffff;stop-opacity:0;"
         offset="1.00000000"
         id="stop593" />
    </linearGradient>
    <linearGradient
       id="linearGradient582">
      <stop
         style="stop-color:#d9cce6;stop-opacity:1;"
         offset="0.00000000"
         id="stop583" />
      <stop
         style="stop-color:#73667f;stop-opacity:1;"
         offset="1.00000000"
         id="stop584" />
    </linearGradient>
    <linearGradient
       id="linearGradient577">
      <stop
         style="stop-color:#000000;stop-opacity:1;"
         offset="0.00000000"
         id="stop578" />
      <stop
         style="stop-color:#ffffff;stop-opacity:1;"
         offset="1.00000000"
         id="stop579" />
    </linearGradient>
    <linearGradient
       xlink:href="#linearGradient582"
       id="linearGradient580"
       x1="0.92741936"
       y1="0.09375000"
       x2="0.10483871"
       y2="0.90625000" />
    <radialGradient
       xlink:href="#linearGradient591"
       id="radialGradient581"
       cx="0.98863637"
       cy="0.01562500"
       r="1.16435087"
       fx="0.98863637"
       fy="0.01562500" />
    <linearGradient
       xlink:href="#linearGradient591"
       id="linearGradient590"
       x1="0.05555556"
       y1="0.09375000"
       x2="0.56349206"
       y2="0.54687500" />
    <radialGradient
       xlink:href="#linearGradient591"
       id="radialGradient601"
       cx="1.10000002"
       cy="0.98437500"
       r="1.15056360"
       fx="1.10000002"
       fy="0.98437500" />
    <linearGradient
       xlink:href="#linearGradient591"
       id="linearGradient632"
       x1="0.42105263"
       y1="0.04687500"
       x2="0.68421054"
       y2="0.26562500" />
    <linearGradient
       xlink:href="#linearGradient591"
       id="linearGradient633"
       x1="0.03174603"
       y1="0.04687500"
       x2="0.52380955"
       y2="0.48437500" />
    <linearGradient
       xlink:href="#linearGradient591"
       id="linearGradient634"
       x1="0.06172840"
       y1="0.09375000"
       x2="0.92592591"
       y2="0.67187500" />
    <linearGradient
       xlink:href="#linearGradient591"
       id="linearGradient635"
       x1="0.07432432"
       y1="0.07812500"
       x2="0.72297299"
       y2="0.46875000" />
    <linearGradient
       xlink:href="#linearGradient591"
       id="linearGradient636"
       x1="0.06060606"
       y1="0.18750000"
       x2="0.65151513"
       y2="0.50000000" />
    <linearGradient
       xlink:href="#linearGradient591"
       id="linearGradient637"
       x1="0.04385965"
       y1="0.17187500"
       x2="0.60526317"
       y2="0.60937500" />
    <linearGradient
       xlink:href="#linearGradient591"
       id="linearGradient638"
       x1="0.14864865"
       y1="0.10937500"
       x2="0.47297296"
       y2="0.50000000" />
    <linearGradient
       xlink:href="#linearGradient591"
       id="linearGradient639"
       x1="0.08870967"
       y1="0.10937500"
       x2="0.68548387"
       y2="0.51562500" />
    <linearGradient
       xlink:href="#linearGradient591"
       id="linearGradient640" />
    <linearGradient
       xlink:href="#linearGradient591"
       id="linearGradient641" />
    <linearGradient
       xlink:href="#linearGradient591"
       id="linearGradient642" />
    <linearGradient
       xlink:href="#linearGradient591"
       id="linearGradient643" />
  </defs>
  <sodipodi:namedview
     id="base"
     pagecolor="#ffffff"
     bordercolor="#666666"
     borderopacity="1.0"
     inkscape:pageopacity="0.0"
     inkscape:pageshadow="2"
     inkscape:zoom="13.2236842"
     inkscape:cx="33.9999994"
     inkscape:cy="29.9999988"
     inkscape:window-width="1598"
     inkscape:window-height="1143"
     showgrid="true"
     gridspacingy="2pt"
     gridspacingx="2pt"
     gridtolerance="0.1px"
     inkscape:window-x="0"
     inkscape:window-y="33" />
  <path
     style="font-size:12;fill:#000000;fill-opacity:1;fill-rule:evenodd;stroke:none;stroke-width:1.875;stroke-dasharray:none;stroke-linejoin:round;stroke-opacity:1;opacity:0.300000;"
     d="M 54.788597 17.569876 C 55.414136 15.634635 57.9864 10.779296 60.834326 8.9100504 C 65.547344 6.3954504 70.260364 10.411534 68.512102 14.427619 C 67.991253 16.092012 64.237109 20.330883 61.646609 21.836073 C 59.059108 23.948023 59.337279 25.741565 59.774654 28.012718 C 60.045313 30.657946 65.233043 33.520126 69.226164 34.013207 C 71.657461 34.144579 73.757409 34.275948 76.520053 33.737506 C 78.48187 32.611577 78.455599 39.021053 75.94422 38.062576 C 73.768851 37.668465 71.216842 36.395838 70.532538 37.67626 C 68.664364 39.347997 71.977369 40.55862 73.256999 42.397809 C 75.151443 44.023302 71.909997 47.993141 69.993942 44.762481 C 68.842276 43.120347 68.678183 41.269514 67.195168 41.469367 C 65.9452 41.489692 65.53007 44.397972 65.771165 46.930098 C 66.799531 50.417018 59.57008 49.064286 61.426813 46.020521 C 62.11578 44.952914 63.275888 43.03154 62.805137 40.624304 C 62.942422 37.757272 58.483584 34.555333 54.644695 33.362835 C 49.616429 32.391398 44.205056 33.369192 40.482772 37.053454 C 37.580725 40.098103 34.584173 45.245401 34.167234 48.792409 C 34.218503 52.759452 38.622584 54.187478 42.153004 54.470544 C 44.787685 54.450816 47.10396 54.691753 49.381413 53.57656 C 52.91964 49.948848 55.524595 59.810619 51.87669 57.714736 C 47.99204 57.064959 47.235785 56.958792 44.676524 57.615643 C 42.529544 58.072644 47.812008 63.303298 48.83871 63.691837 C 53.935863 65.880211 44.436847 71.936511 44.615542 66.521017 C 44.463998 64.059432 41.18406 60.39021 40.425506 61.17045 C 38.201294 62.403265 39.342317 66.771518 41.029581 68.059613 C 43.512553 71.592635 33.83525 72.421653 35.051061 67.900409 C 36.26221 65.151644 36.358932 63.994918 35.818838 61.564561 C 34.49472 55.266132 31.137223 53.181251 28.487712 54.418227 C 22.234476 57.64049 20.951457 59.690582 22.153546 68.606262 C 22.28151 72.284642 23.734863 78.474822 22.537434 79.641399 C 21.40526 81.022706 15.965563 73.194074 14.667714 68.21215 C 13.898665 61.367914 14.12366 53.351502 20.312914 48.684162 C 21.933212 44.914177 18.047454 43.288088 13.703494 43.034625 C 11.437871 42.716361 9.8349447 44.240084 7.4036487 45.093993 C 4.4329587 46.095032 3.7817037 40.900294 6.4439277 40.561704 C 8.8112417 40.167593 12.217888 40.635496 11.437399 39.404116 C 11.4535 38.22178 7.9451607 37.517057 5.6418277 36.33472 C 2.3431787 34.518653 5.3401397 30.52569 7.1773837 32.393599 C 9.0362357 34.203186 12.041865 35.249753 14.39774 35.384804 C 15.772282 35.538414 14.209985 31.933803 13.099419 29.240703 C 11.697023 25.307401 19.52061 24.404758 18.595827 28.84659 C 17.900782 33.010688 18.072926 35.2833 18.946585 36.985094 C 21.136785 40.127829 23.20013 44.308281 25.224658 42.594865 C 28.202125 38.72591 25.861164 35.930136 30.27147 29.67312 C 35.018793 24.324653 42.851766 26.590765 43.388616 25.480593 C 43.936061 23.139044 43.278498 21.93667 37.861682 20.599841 C 34.270671 20.084519 31.011005 20.57392 28.911055 22.402947 C 26.373406 24.94067 24.001429 17.598639 27.262368 17.792012 C 30.73914 17.961093 35.313472 18.456829 35.184239 16.089358 C 34.982516 14.5917 30.664827 14.049265 28.003875 13.446617 C 24.903641 12.563416 28.940325 6.1897127 31.109307 9.4268514 C 32.923979 11.65353 37.421782 13.871959 38.083206 12.398161 C 39.54461 9.4062384 36.844759 9.0688218 35.821055 6.2443519 C 34.069403 2.4650886 40.932793 1.8674405 41.003555 5.4561287 C 41.387444 8.2805984 41.771332 12.277242 42.155221 13.929538 C 42.642921 16.724406 45.992366 20.05463 50.621914 21.342415 C 52.764543 20.559765 54.238007 19.148547 54.788597 17.569876 z "
     id="path574"
     sodipodi:nodetypes="cccccccccccccccccccccccccccccccccccccccccccccccccccccccccc" />
  <path
     style="font-size:12;fill:url(#linearGradient580);fill-opacity:1;fill-rule:evenodd;stroke:#261933;stroke-width:1.875;stroke-dasharray:none;stroke-linejoin:round;stroke-opacity:1;"
     d="M 52.799859 16.244051 C 53.425398 14.30881 55.997662 9.4534708 58.845588 7.5842248 C 63.558606 5.0696248 68.271626 9.0857088 66.523364 13.101794 C 66.002515 14.766187 62.248371 19.005058 59.657871 20.510248 C 57.07037 22.622198 57.348541 24.41574 57.785916 26.686893 C 58.056575 29.332121 63.244305 32.194301 67.237426 32.687382 C 69.668723 32.818754 71.768671 32.950123 74.531315 32.411681 C 76.493132 31.285752 76.466861 37.695228 73.955482 36.736751 C 71.780113 36.34264 69.228104 35.070013 68.5438 36.350435 C 66.675626 38.022172 69.988631 39.232795 71.268261 41.071984 C 73.162705 42.697477 69.921259 46.667316 68.005204 43.436656 C 66.853538 41.794522 66.689445 39.943689 65.20643 40.143542 C 63.956462 40.163867 63.541332 43.072147 63.782427 45.604273 C 64.810793 49.091193 57.581342 47.738461 59.438075 44.694696 C 60.127042 43.627089 61.28715 41.705715 60.816399 39.298479 C 60.953684 36.431447 56.494846 33.229508 52.655957 32.03701 C 47.627691 31.065573 42.216318 32.043367 38.494034 35.727629 C 35.591987 38.772278 32.595435 43.919576 32.178496 47.466584 C 32.229765 51.433627 36.633846 52.861653 40.164266 53.144719 C 42.798947 53.124991 45.115222 53.365928 47.392675 52.250735 C 50.930902 48.623023 53.535857 58.484794 49.887952 56.388911 C 46.003302 55.739134 45.247047 55.632967 42.687786 56.289818 C 40.540806 56.746819 45.82327 61.977473 46.849972 62.366012 C 51.947125 64.554386 42.448109 70.610689 42.626804 65.195189 C 42.47526 62.733607 39.195322 59.064385 38.436768 59.844625 C 36.212556 61.07744 37.353579 65.445689 39.040843 66.733789 C 41.523815 70.266809 31.846512 71.095829 33.062323 66.574589 C 34.273472 63.825819 34.370194 62.669093 33.8301 60.238736 C 32.505982 53.940307 29.148485 51.855426 26.498974 53.092402 C 20.245738 56.314665 18.962719 58.364757 20.164808 67.280439 C 20.292772 70.958819 21.746125 77.148999 20.548696 78.315579 C 19.416522 79.696879 13.976825 71.868249 12.678976 66.886329 C 11.909927 60.042089 12.134922 52.025677 18.324176 47.358337 C 19.944474 43.588352 16.058716 41.962263 11.714756 41.7088 C 9.4491329 41.390536 7.8462069 42.914259 5.4149106 43.768168 C 2.4442208 44.769207 1.7929656 39.574469 4.4551892 39.235879 C 6.8225039 38.841768 10.22915 39.309671 9.4486609 38.078291 C 9.4647619 36.895955 5.9564228 36.191232 3.6530894 35.008895 C 0.35444118 33.192828 3.3514017 29.199865 5.188645 31.067774 C 7.0474969 32.877361 10.053127 33.923928 12.409002 34.058979 C 13.783544 34.212589 12.221247 30.607978 11.110681 27.914878 C 9.7082849 23.981576 17.531872 23.078933 16.607089 27.520765 C 15.912044 31.684863 16.084188 33.957475 16.957847 35.659269 C 19.148047 38.802004 21.211392 42.982456 23.23592 41.26904 C 26.213387 37.400085 23.872426 34.604311 28.282732 28.347295 C 33.030055 22.998828 40.863028 25.26494 41.399878 24.154768 C 41.947323 21.813219 41.28976 20.610845 35.872944 19.274016 C 32.281933 18.758694 29.022267 19.248095 26.922317 21.077122 C 24.384668 23.614845 22.012691 16.272814 25.27363 16.466187 C 28.750402 16.635268 33.324734 17.131004 33.195501 14.763533 C 32.993778 13.265875 28.676089 12.72344 26.015137 12.120792 C 22.914903 11.237591 26.951587 4.8638878 29.120569 8.1010268 C 30.935241 10.327705 35.433044 12.546134 36.094468 11.072336 C 37.555872 8.0804138 34.856021 7.7429968 33.832317 4.9185268 C 32.080665 1.1392638 38.944055 0.54161575 39.014817 4.1303038 C 39.398706 6.9547728 39.782594 10.951417 40.166483 12.603713 C 40.654183 15.398581 44.003628 18.728805 48.633176 20.01659 C 50.775805 19.23394 52.249269 17.822722 52.799859 16.244051 z "
     id="path631"
     sodipodi:nodetypes="cccccccccccccccccccccccccccccccccccccccccccccccccccccccccc" />
  <path
     style="fill:url(#linearGradient639);fill-rule:evenodd;stroke:none;stroke-opacity:1;stroke-width:1pt;stroke-linejoin:miter;stroke-linecap:butt;fill-opacity:1.00;"
     d="M 54.498134 16.309701 C 54.69071 14.632541 55.662314 12.817164 58.378732 9.7126865 C 59.342242 8.6287376 60.917289 8.0796019 62.210821 8.30597 C 60.367538 8.6616915 58.960821 9.9390549 56.923508 12.235075 C 55.759328 13.625622 55.032607 14.771478 54.498134 16.309701 z "
     id="path671"
     sodipodi:nodetypes="csccc" />
  <path
     sodipodi:type="arc"
     style="font-size:12;fill:#ff0000;fill-opacity:1.00;fill-rule:evenodd;stroke:#330000;stroke-width:1pt;stroke-opacity:1;"
     id="path575"
     sodipodi:cx="60.89552307"
     sodipodi:cy="10.26865673"
     sodipodi:rx="0.55721390"
     sodipodi:ry="0.71641791"
     d="M 61.452737 10.268657 A 0.557214 0.716418 0 1 0 60.338309,10.268657 A 0.557214 0.716418 0 1 0 61.4527 10.2687 L 60.895523 10.268657 z"
     transform="translate(-1.592040,0.955224)" />
  <path
     sodipodi:type="arc"
     style="font-size:12;fill:#ff0000;fill-opacity:1.00;fill-rule:evenodd;stroke:#330000;stroke-width:1pt;stroke-opacity:1;"
     id="path576"
     sodipodi:cx="60.89552307"
     sodipodi:cy="10.26865673"
     sodipodi:rx="0.55721390"
     sodipodi:ry="0.71641791"
     d="M 61.452737 10.268657 A 0.557214 0.716418 0 1 0 60.338309,10.268657 A 0.557214 0.716418 0 1 0 61.4527 10.2687 L 60.895523 10.268657 z"
     transform="translate(1.592040,3.661692)" />
  <path
     style="fill:url(#linearGradient590);fill-rule:evenodd;stroke:none;stroke-opacity:1;stroke-width:1pt;stroke-linejoin:round;stroke-linecap:butt;fill-opacity:1.00;"
     d="M 26.507463 40.597015 C 26.825871 35.661691 26.985075 32.955224 29.850746 29.293532 C 32.716418 25.63184 35.422885 25.950249 40.517413 26.427861 C 31.814262 26.480929 29.001659 32.424544 26.507463 40.597015 z "
     id="path663"
     sodipodi:nodetypes="cccc" />
  <path
     style="fill:url(#linearGradient632);fill-rule:evenodd;stroke:none;stroke-opacity:1;stroke-width:1pt;stroke-linejoin:miter;stroke-linecap:butt;fill-opacity:1.00;"
     d="M 19.024876 48.716418 C 13.87728 53.598673 13.3466 61.665009 14.567164 66.38806 C 15.257048 60.868989 16.902156 53.598673 19.024876 48.716418 z "
     id="path664"
     sodipodi:nodetypes="ccc" />
  <path
     style="fill:url(#linearGradient633);fill-rule:evenodd;stroke:none;stroke-opacity:1;stroke-width:1pt;stroke-linejoin:miter;stroke-linecap:butt;fill-opacity:1;"
     d="M 4.3400559 42.532832 C 4.0562716 41.91679 4.0905988 40.880531 4.3255051 40.598643 C 4.6212787 40.243715 5.5329208 40.320155 6.2089552 40.437811 C 5.2258508 40.730375 4.3916982 41.041609 4.3400559 42.532832 z "
     id="path665"
     sodipodi:nodetypes="cscc" />
  <path
     style="fill:url(#linearGradient636);fill-rule:evenodd;stroke:none;stroke-opacity:1;stroke-width:1pt;stroke-linejoin:miter;stroke-linecap:butt;fill-opacity:1;"
     d="M 35.679951 5.4142701 C 35.211593 4.9366581 34.65524 4.7077255 35.203968 3.5262249 C 35.775871 2.248681 37.288105 3.1554504 37.54885 4.1498276 C 35.181449 3.4272401 35.639307 4.2460496 35.679951 5.4142701 z "
     id="path666"
     sodipodi:nodetypes="cscc" />
  <path
     style="fill:url(#linearGradient637);fill-rule:evenodd;stroke:none;stroke-opacity:1;stroke-width:1pt;stroke-linejoin:miter;stroke-linecap:butt;fill-opacity:1;"
     d="M 26.865523 10.946904 C 26.16645 10.746152 25.981038 10.183982 26.758687 9.1511454 C 27.554302 8.0277903 27.919959 8.5957979 28.41142 9.4056022 C 27.289886 9.1905904 26.917166 9.8709702 26.865523 10.946904 z "
     id="path667"
     sodipodi:nodetypes="cscc" />
  <path
     style="fill:url(#linearGradient638);fill-rule:evenodd;stroke:none;stroke-opacity:1;stroke-width:1pt;stroke-linejoin:miter;stroke-linecap:butt;fill-opacity:1;"
     d="M 25.660564 19.648397 C 25.192207 19.401501 24.811245 18.272956 25.046152 17.991068 C 25.341925 17.63614 26.530426 17.620293 27.252604 17.737949 C 25.854211 17.938226 25.112345 18.24946 25.660564 19.648397 z "
     id="path668"
     sodipodi:nodetypes="cscc" />
  <path
     style="fill:url(#linearGradient635);fill-rule:evenodd;stroke:none;stroke-opacity:1;stroke-width:1pt;stroke-linejoin:miter;stroke-linecap:butt;fill-opacity:1;"
     d="M 13.287678 28.221735 C 12.173315 27.374977 12.207642 26.846294 12.442548 26.564406 C 12.738322 26.209478 13.788394 25.732199 15.018148 25.895998 C 13.850471 26.234705 12.785602 26.961228 13.287678 28.221735 z "
     id="path669"
     sodipodi:nodetypes="cscc" />
  <path
     style="fill:url(#linearGradient634);fill-rule:evenodd;stroke:none;stroke-opacity:1;stroke-width:1pt;stroke-linejoin:miter;stroke-linecap:butt;fill-opacity:1;"
     d="M 4.5296698 33.877482 C 3.6921665 33.492157 3.4034909 32.594328 3.6383972 32.31244 C 3.9341708 31.957512 4.7996696 32.080095 5.7525636 32.982186 C 4.9540322 32.582601 3.6123038 32.570832 4.5296698 33.877482 z "
     id="path670"
     sodipodi:nodetypes="cscc" />
</svg>
