<?xml version="1.0" encoding="UTF-8" standalone="no"?>
<!-- Created with Inkscape (http://www.inkscape.org/) -->
<svg
   xmlns:dc="http://purl.org/dc/elements/1.1/"
   xmlns:cc="http://web.resource.org/cc/"
   xmlns:rdf="http://www.w3.org/1999/02/22-rdf-syntax-ns#"
   xmlns:svg="http://www.w3.org/2000/svg"
   xmlns="http://www.w3.org/2000/svg"
   xmlns:xlink="http://www.w3.org/1999/xlink"
   xmlns:sodipodi="http://inkscape.sourceforge.net/DTD/sodipodi-0.dtd"
   xmlns:inkscape="http://www.inkscape.org/namespaces/inkscape"
   version="1.0"
   x="0"
   y="0"
   width="48pt"
   height="48pt"
   id="svg1"
   sodipodi:version="0.32"
   inkscape:version="0.42"
   sodipodi:docname="applications-system.svg"
   sodipodi:docbase="/home/jakob/dev/lila/lila-theme/branches/tango/scalable/categories">
  <metadata
     id="metadata69">
    <rdf:RDF>
      <cc:Work
         rdf:about="">
        <dc:format>image/svg+xml</dc:format>
        <dc:type
           rdf:resource="http://purl.org/dc/dcmitype/StillImage" />
      </cc:Work>
    </rdf:RDF>
  </metadata>
  <sodipodi:namedview
     id="base"
     pagecolor="#ffffff"
     bordercolor="#666666"
     borderopacity="1.0"
     inkscape:pageopacity="0.0"
     inkscape:pageshadow="2"
     inkscape:zoom="13.666667"
     inkscape:cx="30.000001"
     inkscape:cy="30.000001"
     inkscape:window-width="1400"
     inkscape:window-height="997"
     inkscape:window-x="0"
     inkscape:window-y="0"
     inkscape:current-layer="svg1" />
  <defs
     id="defs3">
    <linearGradient
       id="linearGradient1152">
      <stop
         offset="0.00000000"
         style="stop-color:#ffffff;stop-opacity:1;"
         id="stop1154" />
      <stop
         offset="1.00000000"
         style="stop-color:#ffffff;stop-opacity:0;"
         id="stop1153" />
    </linearGradient>
    <linearGradient
       id="linearGradient1149">
      <stop
         offset="0.00000000"
         style="stop-color:#ffffff;stop-opacity:1;"
         id="stop1151" />
      <stop
         offset="1.00000000"
         style="stop-color:#ffffff;stop-opacity:0;"
         id="stop1150" />
    </linearGradient>
    <linearGradient
       id="linearGradient1146">
      <stop
         offset="0.00000000"
         style="stop-color:#ffffff;stop-opacity:1;"
         id="stop1148" />
      <stop
         offset="1.00000000"
         style="stop-color:#d9cce6;stop-opacity:1;"
         id="stop1147" />
    </linearGradient>
    <linearGradient
       id="linearGradient778">
      <stop
         style="stop-color:#d9cce6;stop-opacity:1;"
         offset="0.00000000"
         id="stop780" />
      <stop
         style="stop-color:#73667f;stop-opacity:1;"
         offset="1.00000000"
         id="stop779" />
    </linearGradient>
    <linearGradient
       id="linearGradient570">
      <stop
         style="stop-color:#ffffff;stop-opacity:1;"
         offset="0"
         id="stop571" />
      <stop
         style="stop-color:#ffffff;stop-opacity:0;"
         offset="1"
         id="stop572" />
    </linearGradient>
    <linearGradient
       id="linearGradient563">
      <stop
         style="stop-color:#cac5fa;stop-opacity:1;"
         offset="0"
         id="stop564" />
      <stop
         style="stop-color:#9500ed;stop-opacity:1;"
         offset="1"
         id="stop565" />
    </linearGradient>
    <linearGradient
       x1="21.247283"
       y1="8.8816712"
       x2="59.072576"
       y2="47.799295"
       id="linearGradient566"
       xlink:href="#linearGradient778"
       gradientTransform="matrix(1.003607,0.000000,0.000000,1.041553,-1.725782,-2.207766e-3)"
       gradientUnits="userSpaceOnUse" />
    <linearGradient
       x1="7.9412676"
       y1="35.273712"
       x2="15.646982"
       y2="41.944858"
       id="linearGradient569"
       xlink:href="#linearGradient570"
       gradientTransform="matrix(3.250633,0.000000,0.000000,0.321571,-1.725782,-2.207766e-3)"
       gradientUnits="userSpaceOnUse" />
    <linearGradient
       x1="23.200239"
       y1="14.288179"
       x2="45.479135"
       y2="36.741099"
       id="linearGradient573"
       xlink:href="#linearGradient570"
       gradientTransform="matrix(0.989208,0.000000,0.000000,1.056713,-1.725782,-2.207766e-3)"
       gradientUnits="userSpaceOnUse" />
    <linearGradient
       x1="76.798347"
       y1="8.9763966"
       x2="96.918184"
       y2="21.585387"
       id="linearGradient575"
       xlink:href="#linearGradient570"
       gradientTransform="matrix(0.587406,0.000000,0.000000,1.779535,-1.725782,-2.207766e-3)"
       gradientUnits="userSpaceOnUse" />
    <linearGradient
       x1="79.972860"
       y1="473.65373"
       x2="298.23221"
       y2="681.68215"
       id="linearGradient578"
       xlink:href="#linearGradient778"
       gradientTransform="matrix(0.120455,0.000000,0.000000,7.976838e-2,-1.424017,-6.213888e-2)"
       gradientUnits="userSpaceOnUse" />
    <linearGradient
       x1="96.975700"
       y1="540.22927"
       x2="205.17637"
       y2="646.87374"
       id="linearGradient583"
       xlink:href="#linearGradient570"
       gradientTransform="matrix(0.130258,0.000000,0.000000,7.376502e-2,-1.424017,-6.213887e-2)"
       gradientUnits="userSpaceOnUse" />
    <linearGradient
       id="linearGradient637"
       xlink:href="#linearGradient778"
       x1="69.308673"
       y1="55.041350"
       x2="563.98963"
       y2="542.58754"
       gradientTransform="matrix(7.179871e-2,0.000000,0.000000,7.367038e-2,-4.715144,5.418805)"
       gradientUnits="userSpaceOnUse" />
    <linearGradient
       id="linearGradient640"
       xlink:href="#linearGradient1146"
       x1="11.828371"
       y1="15.718236"
       x2="32.637388"
       y2="36.010239"
       gradientTransform="matrix(0.972474,0.000000,0.000000,1.028305,-4.742956e-3,-0.179946)"
       gradientUnits="userSpaceOnUse" />
    <linearGradient
       x1="0.010877"
       y1="0.038449"
       x2="0.989090"
       y2="0.987177"
       id="linearGradient645"
       xlink:href="#linearGradient570" />
    <linearGradient
       x1="0.056578"
       y1="0.023450"
       x2="0.867923"
       y2="0.976563"
       id="linearGradient646"
       xlink:href="#linearGradient570" />
    <linearGradient
       x1="0.000007"
       y1="0.000000"
       x2="0.951807"
       y2="0.984375"
       id="linearGradient647"
       xlink:href="#linearGradient570" />
    <linearGradient
       x1="0.056605"
       y1="0.015625"
       x2="0.943396"
       y2="0.984375"
       id="linearGradient675"
       xlink:href="#linearGradient570" />
    <linearGradient
       x1="0.011765"
       y1="-0.000000"
       x2="1.011765"
       y2="1.015625"
       id="linearGradient676"
       xlink:href="#linearGradient570" />
    <defs
       id="defs613">
      <linearGradient
         id="linearGradient1535"
         x1="0.00000000"
         y1="0.00000000"
         x2="1.00000000"
         y2="0.00000000"
         gradientUnits="objectBoundingBox"
         spreadMethod="pad"
         xlink:href="#linearGradient1149" />
      <linearGradient
         x1="0.000000"
         y1="0.000000"
         x2="1.000000"
         y2="0.000000"
         id="linearGradient1528"
         xlink:href="#linearGradient778"
         gradientUnits="objectBoundingBox"
         spreadMethod="pad" />
      <linearGradient
         id="linearGradient642"
         x1="0.00000000"
         y1="0.00000000"
         x2="1.00000000"
         y2="0.00000000"
         gradientUnits="objectBoundingBox"
         spreadMethod="pad"
         xlink:href="#linearGradient1152" />
      <linearGradient
         id="linearGradient635"
         x1="0.00000000"
         y1="0.00000000"
         x2="1.00000000"
         y2="0.00000000"
         gradientUnits="objectBoundingBox"
         spreadMethod="pad"
         xlink:href="#linearGradient1146" />
      <linearGradient
         x1="0.984000"
         y1="0.960938"
         x2="-0.008000"
         y2="0.007813"
         id="linearGradient638"
         xlink:href="#linearGradient1528" />
      <linearGradient
         x1="139.82272"
         y1="84.971738"
         x2="554.04789"
         y2="507.59236"
         id="linearGradient641"
         xlink:href="#linearGradient1152"
         gradientTransform="matrix(6.834559e-2,0.000000,0.000000,7.739250e-2,-4.715144,5.418804)"
         gradientUnits="userSpaceOnUse" />
      <linearGradient
         x1="316.36566"
         y1="24.850462"
         x2="409.76493"
         y2="149.25992"
         id="linearGradient1522"
         xlink:href="#linearGradient1152"
         gradientTransform="matrix(2.089768e-2,0.000000,0.000000,0.253111,-4.715144,5.418804)"
         gradientUnits="userSpaceOnUse" />
      <linearGradient
         x1="190.12210"
         y1="127.43230"
         x2="501.86795"
         y2="440.04322"
         id="linearGradient1527"
         xlink:href="#linearGradient1149"
         gradientTransform="matrix(6.859796e-2,0.000000,0.000000,7.710781e-2,-4.715144,5.418804)"
         gradientUnits="userSpaceOnUse" />
      <linearGradient
         x1="0.010743"
         y1="0.031251"
         x2="0.967741"
         y2="0.992187"
         id="linearGradient1532"
         xlink:href="#linearGradient635" />
      <linearGradient
         x1="0.007275"
         y1="-0.012819"
         x2="0.996364"
         y2="0.974359"
         id="linearGradient1534"
         xlink:href="#linearGradient635" />
      <linearGradient
         x1="0.017094"
         y1="0.000000"
         x2="0.974359"
         y2="0.984375"
         id="linearGradient1539"
         xlink:href="#linearGradient1535" />
      <linearGradient
         id="linearGradient1567"
         xlink:href="#linearGradient1535" />
    </defs>
    <linearGradient
       inkscape:collect="always"
       xlink:href="#linearGradient1146"
       id="linearGradient1367"
       x1="14.432777"
       y1="18.118682"
       x2="30.143595"
       y2="33.439156"
       gradientTransform="matrix(0.965586,0.000000,0.000000,1.035641,-4.742956e-3,-0.179946)"
       gradientUnits="userSpaceOnUse" />
    <linearGradient
       inkscape:collect="always"
       xlink:href="#linearGradient1146"
       id="linearGradient1369"
       x1="13.705248"
       y1="17.346842"
       x2="30.939949"
       y2="34.153336"
       gradientTransform="matrix(0.966863,0.000000,0.000000,1.034273,-4.742956e-3,-0.179946)"
       gradientUnits="userSpaceOnUse" />
    <linearGradient
       inkscape:collect="always"
       xlink:href="#linearGradient1146"
       id="linearGradient1371"
       x1="12.448715"
       y1="16.267072"
       x2="32.066361"
       y2="35.397306"
       gradientTransform="matrix(0.970827,0.000000,0.000000,1.030049,-4.742956e-3,-0.179946)"
       gradientUnits="userSpaceOnUse" />
  </defs>
  <path
     d="M 21.033434,42.146746 C 22.121850,43.381546 44.634738,51.539370 46.314153,51.707811 C 48.171622,51.877862 58.584127,47.618521 59.282732,46.578597 C 60.309913,45.152009 60.083594,16.544944 59.147796,15.261369 C 58.285268,13.831488 36.917008,11.064844 35.568577,11.089376 C 34.141955,11.112513 21.873560,12.578554 21.194949,13.561688 C 20.664452,14.450988 19.662916,40.929565 21.033434,42.146746 z "
     style="font-size:12.000000px;opacity:0.29636899;fill-rule:evenodd;stroke-width:12.500000"
     id="path707"
     sodipodi:nodetypes="ccccccc" />
  <path
     d="M 20.222893,40.335539 C 21.264930,41.517721 43.146544,49.327933 44.754399,49.489208 C 46.532719,49.652011 56.353620,45.872716 57.022457,44.877109 C 58.005870,43.511311 57.609118,15.824624 56.713193,14.595741 C 55.887418,13.226779 35.893561,9.8384152 34.602587,9.8619046 C 33.236752,9.8840554 21.027220,12.027241 20.377524,12.968484 C 19.869633,13.819892 18.910773,39.170221 20.222893,40.335539 z "
     style="font-size:12.000000px;fill:url(#linearGradient566);fill-rule:evenodd;stroke:#261933;stroke-width:1.8750000;stroke-dasharray:none;stroke-opacity:1.0000000"
     id="path677"
     sodipodi:nodetypes="ccccccc" />
  <path
     d="M 21.305222,39.004154 C 20.948755,38.479498 20.774280,15.364593 22.078283,14.743684 C 23.070415,14.345501 43.435810,18.466694 43.787066,18.983664 C 44.105851,19.452905 27.090553,16.044472 24.435148,18.199834 C 21.877251,20.418475 21.618796,39.465710 21.305222,39.004154 z "
     style="font-size:12.000000px;opacity:0.69999999;fill:url(#linearGradient573);fill-rule:evenodd;stroke:none;stroke-width:0.095874798pt"
     id="path678"
     sodipodi:nodetypes="ccccc" />
  <path
     d="M 45.271418,47.879964 C 44.873464,47.550039 44.698487,19.739263 45.433767,18.802149 C 46.023534,18.001169 55.032092,15.659994 55.449688,16.006221 C 55.805151,16.301049 48.008199,17.709801 47.315611,19.993058 C 44.658100,28.755261 45.646624,48.190999 45.271418,47.879964 z "
     style="font-size:12.000000px;opacity:0.69999999;fill:url(#linearGradient575);fill-rule:evenodd;stroke:none;stroke-width:0.095874798pt"
     id="path679"
     sodipodi:nodetypes="ccccc" />
  <path
     d="M 24.088303,13.560246 C 24.062647,13.437426 30.931205,11.305840 33.984066,11.341224 C 39.435277,11.404408 49.574665,13.731966 49.600620,13.856030 C 49.626175,13.978469 39.194662,12.753331 33.784136,12.690626 C 30.690589,12.654763 24.114156,13.684025 24.088303,13.560246 z "
     style="font-size:12.000000px;opacity:0.69999999;fill:url(#linearGradient569);fill-rule:evenodd;stroke:none;stroke-width:0.095874798pt"
     id="path680" />
  <ellipse
     cx="410.20490"
     cy="422.40900"
     rx="11.720139"
     ry="11.720139"
     transform="matrix(0.145770,0.000000,0.000000,0.139463,-8.275789,-18.10886)"
     style="font-size:12.000000px;fill:#80ff80;fill-rule:evenodd;stroke:#003f00;stroke-width:6.1130438;stroke-linecap:round;stroke-linejoin:round"
     id="path722"
     sodipodi:cx="410.20490"
     sodipodi:cy="422.40900"
     sodipodi:rx="11.720139"
     sodipodi:ry="11.720139" />
  <path
     d="M 22.223526,38.450615 C 17.668605,38.646122 6.8570615,46.874273 8.7064945,49.927888 C 9.3059625,51.017214 14.959286,55.443044 21.716706,55.424184 C 27.668887,55.407106 34.337382,50.503093 35.064759,48.796338 C 35.549896,47.423075 26.454621,38.268939 22.223526,38.450615 z "
     style="font-size:12.000000px;opacity:0.29636899;fill-rule:evenodd;stroke-width:12.500000"
     id="path748" />
  <path
     d="M 21.614389,38.116370 C 17.446150,38.295280 7.5524823,45.824920 9.2448615,48.619305 C 9.7934375,49.616155 14.966832,53.666263 21.150594,53.649004 C 26.597475,53.633377 32.699862,49.145679 33.365489,47.583815 C 33.809441,46.327133 25.486293,37.950116 21.614389,38.116370 z "
     style="font-size:12.000000px;fill:url(#linearGradient578);fill-rule:evenodd;stroke:#261933;stroke-width:1.8749957;stroke-dasharray:none;stroke-opacity:1.0000000"
     id="path746" />
  <path
     d="M 10.945611,47.583807 C 10.945611,47.328387 14.805089,41.780367 21.150598,39.595676 C 22.381639,39.190684 25.170721,40.966261 25.170721,41.222832 C 25.170721,41.459365 22.408496,40.789557 21.150598,41.074891 C 15.260766,42.523522 10.945611,47.821394 10.945611,47.583807 z "
     style="font-size:12.000000px;opacity:0.69999999;fill:url(#linearGradient583);fill-rule:evenodd;stroke:none;stroke-width:1.0000000pt"
     id="path747" />
  <path
     d="M 4.1197842,46.622463 C 4.5829201,46.916478 6.5509322,47.717385 7.5249678,47.517629 C 8.3398692,47.265466 36.468989,38.476839 37.161171,37.444959 C 37.885196,36.318216 36.950569,14.395061 36.095312,13.651314 C 35.172588,12.841133 5.1996726,9.9512879 4.2780512,9.9253627 C 3.4428145,9.8248140 1.4044177,10.513295 1.0110360,10.931959 C 0.22806364,11.756619 3.2567247,46.016562 4.1197842,46.622463 z "
     style="font-size:12.000000px;opacity:0.29999998;fill-rule:evenodd;stroke-width:12.500000"
     id="path839" />
  <path
     d="M 3.9909279,44.747690 C 4.4280607,45.024985 6.2844064,45.780466 7.2033593,45.592165 C 7.9722633,45.354210 34.508356,37.063258 35.161267,36.089810 C 35.844292,35.026870 34.962665,14.345159 34.155839,13.643457 C 33.285441,12.879225 5.0096651,10.153066 4.1403070,10.128588 C 3.3523676,10.033733 1.4294370,10.683178 1.0582868,11.078140 C 0.31967454,11.856124 3.1767412,44.176099 3.9909279,44.747690 z "
     style="font-size:12.000000px;fill:url(#linearGradient637);fill-rule:evenodd;stroke:#261933;stroke-width:1.8750001;stroke-dasharray:none;stroke-opacity:1.0000000"
     id="path834" />
  <path
     d="M 6.6723178,44.186477 C 6.4440480,43.968086 3.7011677,12.126444 4.0748014,11.238476 C 4.3040377,10.973111 32.921405,14.065729 33.150270,14.284690 C 33.368204,14.493337 6.6309020,11.154477 5.4993682,12.761633 C 4.2710242,14.425898 6.8908470,44.395552 6.6723178,44.186477 z "
     style="font-size:12.000000px;opacity:0.69999999;fill:url(#linearGradient641);fill-rule:evenodd;stroke:none;stroke-width:1.0329400pt"
     id="path835" />
  <path
     d="M 4.5775896,43.705516 C 4.4928250,43.583799 2.0165816,21.912852 1.8962232,11.719445 C 1.8890034,11.357426 3.3087222,11.101209 3.4044170,11.238476 C 3.4763183,11.341697 2.3932266,12.159929 2.3989818,12.440930 C 2.5237197,22.635183 4.6603468,43.824316 4.5775896,43.705516 z "
     style="font-size:12.000000px;opacity:0.69993597;fill:url(#linearGradient1522);fill-rule:evenodd;stroke:none;stroke-width:1.0329400pt"
     id="path836" />
  <path
     d="M 7.2522104,14.358249 C 6.8005784,14.908285 8.1264759,40.480141 8.8142595,40.959325 C 9.5244975,41.399809 31.843995,34.556509 32.400840,33.860782 C 32.926008,33.279302 32.207740,16.969499 31.854182,16.375855 C 31.399130,15.742872 7.7455551,13.832257 7.2522104,14.358249 z "
     style="font-size:12.000000px;fill:#261933;fill-opacity:1.0000000;fill-rule:evenodd;stroke:#261933;stroke-width:0.46250010;stroke-dasharray:none;stroke-opacity:1.0000000"
     id="path837" />
  <path
     d="M 9.1266255,39.539624 C 8.9531565,39.335174 7.3760874,15.734333 7.7990182,15.180242 C 8.3587625,14.549038 29.337571,16.470465 29.511040,16.674702 C 29.676109,16.868836 10.498252,14.820357 8.8142615,16.375782 C 7.6664436,17.437511 9.2915455,39.733688 9.1266255,39.539624 z "
     style="font-size:12.000000px;opacity:0.69993597;fill:url(#linearGradient1527);fill-rule:evenodd;stroke:none;stroke-width:0.96279802pt"
     id="path838" />
</svg>
