<?xml version="1.0" encoding="UTF-8" standalone="no"?>
<!DOCTYPE svg PUBLIC "-//W3C//DTD SVG 20010904//EN"
"http://www.w3.org/TR/2001/REC-SVG-20010904/DTD/svg10.dtd">
<!-- Created with Inkscape (http://www.inkscape.org/) -->
<svg
   id="svg1"
   sodipodi:version="0.32"
   inkscape:version="0.38"
   width="48pt"
   height="48pt"
   sodipodi:docbase="/home/tom/Pics/lilasvg/scalable/apps"
   sodipodi:docname="004_spreadsheet_document.svg"
   xmlns="http://www.w3.org/2000/svg"
   xmlns:inkscape="http://www.inkscape.org/namespaces/inkscape"
   xmlns:sodipodi="http://sodipodi.sourceforge.net/DTD/sodipodi-0.dtd"
   xmlns:xlink="http://www.w3.org/1999/xlink">
  <defs
     id="defs3">
    <linearGradient
       id="linearGradient703">
      <stop
         style="stop-color:#d9cce6;stop-opacity:1;"
         offset="0.00000000"
         id="stop704" />
      <stop
         style="stop-color:#73667f;stop-opacity:1;"
         offset="1.00000000"
         id="stop705" />
    </linearGradient>
    <linearGradient
       id="linearGradient866">
      <stop
         style="stop-color:#ffffff;stop-opacity:1;"
         offset="0.00000000"
         id="stop867" />
      <stop
         style="stop-color:#d9cce6;stop-opacity:1;"
         offset="1.00000000"
         id="stop868" />
    </linearGradient>
    <linearGradient
       id="linearGradient584">
      <stop
         style="stop-color:#ffffff;stop-opacity:1;"
         offset="0.00000000"
         id="stop585" />
      <stop
         style="stop-color:#ffffff;stop-opacity:0;"
         offset="1.00000000"
         id="stop586" />
    </linearGradient>
    <linearGradient
       xlink:href="#linearGradient866"
       id="linearGradient586"
       x1="0.52898550"
       y1="0.022900764"
       x2="0.51449275"
       y2="0.94656491" />
    <linearGradient
       xlink:href="#linearGradient584"
       id="linearGradient587"
       x1="0.00000000"
       y1="-0.00000000"
       x2="1.00000000"
       y2="1.00000000" />
    <linearGradient
       xlink:href="#linearGradient584"
       id="linearGradient700"
       x1="0.00000000"
       y1="-0.00000000"
       x2="0.98453611"
       y2="0.99218750" />
    <linearGradient
       xlink:href="#linearGradient584"
       id="linearGradient701"
       x1="0.00367647"
       y1="0.01562500"
       x2="1.01102936"
       y2="1.01562500" />
    <linearGradient
       xlink:href="#linearGradient703"
       id="linearGradient702"
       x1="-0.00000000"
       y1="0.00000000"
       x2="0.97457629"
       y2="0.96093750" />
    <linearGradient
       xlink:href="#linearGradient584"
       id="linearGradient845"
       x1="-0.00000000"
       y1="-0.00000000"
       x2="0.99635035"
       y2="0.97727275" />
    <radialGradient
       xlink:href="#linearGradient703"
       id="radialGradient846" />
    <linearGradient
       xlink:href="#linearGradient584"
       id="linearGradient847"
       x1="0.00000000"
       y1="-0.00000000"
       x2="0.98540145"
       y2="0.93902439" />
    <linearGradient
       xlink:href="#linearGradient703"
       id="linearGradient848"
       x1="0.01219511"
       y1="0.01562503"
       x2="0.99999994"
       y2="1.00000012" />
    <linearGradient
       xlink:href="#linearGradient584"
       id="linearGradient849"
       x1="0.00000000"
       y1="-0.00000000"
       x2="0.98514849"
       y2="1.02343750" />
    <linearGradient
       xlink:href="#linearGradient703"
       id="linearGradient850"
       x1="-0.00000000"
       y1="0.00000000"
       x2="1.00000000"
       y2="0.95652175" />
    <linearGradient
       xlink:href="#linearGradient584"
       id="linearGradient863"
       x1="-0.00000000"
       y1="-0.00000000"
       x2="0.99635035"
       y2="0.82142860" />
  </defs>
  <sodipodi:namedview
     id="base"
     pagecolor="#ffffff"
     bordercolor="#666666"
     borderopacity="1.0"
     inkscape:pageopacity="0.0"
     inkscape:pageshadow="2"
     inkscape:zoom="5.6423387"
     inkscape:cx="28.531705"
     inkscape:cy="26.519552"
     inkscape:window-width="640"
     inkscape:window-height="516"
     inkscape:window-x="104"
     inkscape:window-y="95" />
  <rect
     style="fill:url(#linearGradient586);fill-opacity:0.75000000;fill-rule:evenodd;stroke:none;stroke-width:1.0000000pt;"
     id="rect863"
     width="56.492531"
     height="54.055599"
     ry="5.4055600"
     x="1.7723148"
     y="3.0643892" />
  <path
     d="M 7.0365340,28.547835 C 7.0365340,27.794108 15.280361,19.319014 19.753885,18.567033 C 23.339920,17.964103 27.774270,21.004104 31.214923,22.577013 C 35.153282,20.264891 39.540350,17.619901 42.833110,18.012892 C 47.527846,18.309652 56.492140,27.507965 56.492140,28.362899 C 56.492140,29.109232 47.266204,23.896174 42.833110,23.928565 C 38.788198,23.957730 35.001846,27.069544 31.057892,28.547835 C 27.465688,26.699939 23.538752,23.928565 19.753885,23.928565 C 15.531727,23.928565 7.0365340,29.210707 7.0365340,28.547835 z "
     style="font-size:12;fill:#000000;fill-rule:evenodd;stroke:none;stroke-width:2.03405;fill-opacity:1;opacity:0.296369;"
     id="path852"
     sodipodi:nodetypes="ccccccccc" />
  <path
     d="M 5.1307080,26.324373 C 5.1307080,25.570645 13.374536,17.095551 17.848060,16.343569 C 21.434095,15.740640 25.604577,17.857099 29.045229,19.430008 C 32.983587,17.117884 37.634524,15.396437 40.927282,15.789428 C 45.622020,16.086189 54.586314,25.284500 54.586314,26.139434 C 54.586314,26.885769 45.360378,21.672712 40.927282,21.705102 C 36.882371,21.734266 33.096020,24.846079 29.152066,26.324373 C 25.559864,24.476476 21.632927,21.705102 17.848060,21.705102 C 13.625901,21.705102 5.1307080,26.987243 5.1307080,26.324373 z "
     style="font-size:12.000000;fill:url(#linearGradient850);fill-rule:evenodd;stroke:#261933;stroke-width:2.2332578;"
     id="path674"
     sodipodi:nodetypes="ccccccccc" />
  <path
     d="M 11.075453,21.864804 C 11.153225,21.650328 16.132163,18.303827 18.735808,17.787964 C 20.054760,17.526435 22.914911,18.701261 22.843418,18.897921 C 22.766787,19.108515 19.767079,18.716792 18.291666,19.009043 C 15.844710,19.493728 11.005216,22.057354 11.075453,21.864804 z "
     style="font-size:12;opacity:0.7;fill-rule:evenodd;stroke:none;stroke-width:0.115296pt;fill:url(#linearGradient847);"
     id="path676"
     sodipodi:nodetypes="ccccc" />
  <path
     d="M 30.344554,21.784452 C 30.422556,21.570090 37.399681,17.970577 40.003211,17.454828 C 41.322278,17.193413 44.182427,18.368353 44.110707,18.565014 C 44.034303,18.775493 41.034709,18.383542 39.559067,18.676019 C 37.112225,19.160821 30.274545,21.977229 30.344554,21.784452 z "
     style="font-size:12;opacity:0.7;fill-rule:evenodd;stroke:none;stroke-width:0.115296pt;fill:url(#linearGradient845);"
     id="path677" />
  <path
     d="M 6.9778318,13.592261 C 6.9778318,13.070463 12.684957,7.2032332 15.781936,6.6826437 C 18.264515,6.2652412 21.334374,8.3698055 23.716305,9.4587157 C 26.442796,7.8580555 29.479920,6.0269525 31.759467,6.2990173 C 35.009590,6.5044610 41.215489,12.872368 41.215489,13.464230 C 41.215489,13.980911 34.828459,10.371958 31.759467,10.394382 C 28.959212,10.414573 26.337957,12.568853 23.607593,13.592261 C 21.120746,12.312980 18.402165,10.394382 15.781936,10.394382 C 12.858975,10.394382 6.9778318,14.051160 6.9778318,13.592261 z "
     style="font-size:12;fill:#000000;fill-rule:evenodd;stroke:none;stroke-width:2.03405;fill-opacity:1;opacity:0.296369;"
     id="path853"
     sodipodi:nodetypes="ccccccccc" />
  <path
     d="M 5.6584461,12.052978 C 5.6584461,11.531178 11.365571,5.6639503 14.462550,5.1433607 C 16.945129,4.7259583 20.146924,5.9069809 22.528855,6.9958909 C 25.255344,5.3952300 28.160536,4.4876692 30.440081,4.7597338 C 33.690205,4.9651780 39.896103,11.333084 39.896103,11.924947 C 39.896103,12.441628 33.509073,8.8326764 30.440081,8.8550995 C 27.639828,8.8752900 25.018571,11.029570 22.288208,12.052978 C 19.801361,10.773696 17.082778,8.8550995 14.462550,8.8550995 C 11.539589,8.8550995 5.6584461,12.511878 5.6584461,12.052978 z "
     style="font-size:12.000000;fill:url(#linearGradient850);fill-rule:evenodd;stroke:#261933;stroke-width:2.2332578;"
     id="path854"
     sodipodi:nodetypes="ccccccccc" />
  <path
     d="M 9.7739375,8.9656598 C 9.8277789,8.8171805 13.274652,6.5004281 15.077130,6.1433014 C 15.990229,5.9622471 17.970284,6.7755679 17.920790,6.9117144 C 17.867740,7.0575072 15.791070,6.7863202 14.769654,6.9886428 C 13.075650,7.3241860 9.7253134,9.0989608 9.7739375,8.9656598 z "
     style="font-size:12;opacity:0.7;fill-rule:evenodd;stroke:none;stroke-width:0.115296pt;fill:url(#linearGradient847);"
     id="path855"
     sodipodi:nodetypes="ccccc" />
  <path
     d="M 23.113756,8.9100327 C 23.167757,8.7616325 27.997956,6.2697228 29.800356,5.9126740 C 30.713532,5.7316988 32.693587,6.5450997 32.643936,6.6812461 C 32.591044,6.8269589 30.514454,6.5556146 29.492881,6.7580945 C 27.798953,7.0937176 23.065292,9.0434907 23.113756,8.9100327 z "
     style="font-size:12;opacity:0.7;fill-rule:evenodd;stroke:none;stroke-width:0.115296pt;fill:url(#linearGradient845);"
     id="path856" />
</svg>
