<?xml version="1.0" encoding="UTF-8" standalone="no"?>
<!DOCTYPE svg PUBLIC "-//W3C//DTD SVG 20010904//EN"
"http://www.w3.org/TR/2001/REC-SVG-20010904/DTD/svg10.dtd">
<!-- Created with Inkscape (http://www.inkscape.org/) -->
<svg
   id="svg1"
   sodipodi:version="0.32"
   inkscape:version="0.38"
   width="48pt"
   height="48pt"
   sodipodi:docbase="/home/tom"
   sodipodi:docname="ooo_calc.svg"
   xmlns="http://www.w3.org/2000/svg"
   xmlns:inkscape="http://www.inkscape.org/namespaces/inkscape"
   xmlns:sodipodi="http://sodipodi.sourceforge.net/DTD/sodipodi-0.dtd"
   xmlns:xlink="http://www.w3.org/1999/xlink">
  <defs
     id="defs3">
    <linearGradient
       id="linearGradient950">
      <stop
         style="stop-color:#d9cce6;stop-opacity:1.0000000;"
         offset="0.0000000"
         id="stop951" />
      <stop
         style="stop-color:#ffffff;stop-opacity:1.0000000;"
         offset="1.0000000"
         id="stop952" />
    </linearGradient>
    <linearGradient
       id="linearGradient703">
      <stop
         style="stop-color:#d9cce6;stop-opacity:1;"
         offset="0.00000000"
         id="stop704" />
      <stop
         style="stop-color:#73667f;stop-opacity:1;"
         offset="1.00000000"
         id="stop705" />
    </linearGradient>
    <linearGradient
       id="linearGradient866">
      <stop
         style="stop-color:#ffffff;stop-opacity:1;"
         offset="0.00000000"
         id="stop867" />
      <stop
         style="stop-color:#d9cce6;stop-opacity:1;"
         offset="1.00000000"
         id="stop868" />
    </linearGradient>
    <linearGradient
       id="linearGradient584">
      <stop
         style="stop-color:#ffffff;stop-opacity:1;"
         offset="0.00000000"
         id="stop585" />
      <stop
         style="stop-color:#ffffff;stop-opacity:0;"
         offset="1.00000000"
         id="stop586" />
    </linearGradient>
    <linearGradient
       xlink:href="#linearGradient866"
       id="linearGradient586"
       x1="0.52898550"
       y1="0.022900764"
       x2="0.51449275"
       y2="0.94656491" />
    <linearGradient
       xlink:href="#linearGradient584"
       id="linearGradient587"
       x1="0.00000000"
       y1="-0.00000000"
       x2="1.00000000"
       y2="1.00000000" />
    <linearGradient
       xlink:href="#linearGradient584"
       id="linearGradient700"
       x1="0.00000000"
       y1="-0.00000000"
       x2="0.98453611"
       y2="0.99218750" />
    <linearGradient
       xlink:href="#linearGradient584"
       id="linearGradient701"
       x1="0.00367647"
       y1="0.01562500"
       x2="1.01102936"
       y2="1.01562500" />
    <linearGradient
       xlink:href="#linearGradient703"
       id="linearGradient702"
       x1="-0.00000000"
       y1="0.00000000"
       x2="0.97457629"
       y2="0.96093750" />
    <linearGradient
       xlink:href="#linearGradient584"
       id="linearGradient845"
       x1="-0.00000000"
       y1="-0.00000000"
       x2="0.99635035"
       y2="0.97727275" />
    <radialGradient
       xlink:href="#linearGradient703"
       id="radialGradient846" />
    <linearGradient
       xlink:href="#linearGradient584"
       id="linearGradient847"
       x1="0.00000000"
       y1="-0.00000000"
       x2="0.98540145"
       y2="0.93902439" />
    <linearGradient
       xlink:href="#linearGradient703"
       id="linearGradient848"
       x1="0.01219511"
       y1="0.01562503"
       x2="0.99999994"
       y2="1.00000012" />
    <linearGradient
       xlink:href="#linearGradient584"
       id="linearGradient849"
       x1="0.00000000"
       y1="-0.00000000"
       x2="0.98514849"
       y2="1.02343750" />
    <linearGradient
       xlink:href="#linearGradient703"
       id="linearGradient850"
       x1="-0.00000000"
       y1="0.00000000"
       x2="1.00000000"
       y2="0.95652175" />
    <linearGradient
       xlink:href="#linearGradient584"
       id="linearGradient863"
       x1="-0.00000000"
       y1="-0.00000000"
       x2="0.99635035"
       y2="0.82142860" />
  </defs>
  <sodipodi:namedview
     id="base"
     pagecolor="#ffffff"
     bordercolor="#666666"
     borderopacity="1.0"
     inkscape:pageopacity="0.0"
     inkscape:pageshadow="2"
     inkscape:zoom="5.6423387"
     inkscape:cx="28.531703"
     inkscape:cy="26.519552"
     inkscape:window-width="1018"
     inkscape:window-height="711"
     inkscape:window-x="0"
     inkscape:window-y="30" />
  <rect
     style="fill:url(#linearGradient586);fill-opacity:0.75000000;fill-rule:evenodd;stroke:none;stroke-width:1.0000000pt;"
     id="rect863"
     width="56.492531"
     height="54.055599"
     ry="5.4055600"
     x="1.7723148"
     y="3.0643892" />
  <path
     sodipodi:type="arc"
     style="font-size:12;fill:#000000;fill-rule:evenodd;stroke-width:12.5;stroke:none;stroke-opacity:1;stroke-dasharray:none;fill-opacity:1;opacity:0.302675;"
     id="path697"
     d="M 451.954407,413.273621 A 100.773605,79.397400 0 1 1 414.001740,351.191742 L 351.180786,413.273621 z"
     sodipodi:cx="351.180786"
     sodipodi:cy="413.273621"
     sodipodi:rx="100.773605"
     sodipodi:ry="79.397400"
     transform="matrix(0.166711,0.000000,0.000000,0.219020,-21.42952,-52.83046)"
     sodipodi:start="0.000000"
     sodipodi:end="5.385456" />
  <path
     d="M 8.1982789,26.953098 C 7.9489399,26.441442 10.741507,17.961128 13.529529,15.970779 C 15.764399,14.375199 19.780248,14.971940 22.636213,14.901489 C 24.544840,12.029098 26.647950,8.7823096 29.013195,7.9598126 C 32.298315,6.6082076 41.426467,9.8868806 41.709286,10.467239 C 41.956179,10.973876 33.968771,10.487087 30.970148,11.975578 C 28.233969,13.333466 26.693074,16.698430 24.504812,19.006638 C 21.455000,18.940551 17.872466,18.358309 15.303167,19.610374 C 12.437020,21.007098 8.4175619,27.403078 8.1982789,26.953098 z "
     style="font-size:12;fill:#000000;fill-rule:evenodd;stroke:none;stroke-width:2.03405;fill-opacity:1;opacity:0.296369;"
     id="path852"
     sodipodi:nodetypes="ccccccccc" />
  <path
     sodipodi:type="arc"
     style="font-size:12;fill:url(#linearGradient848);fill-rule:evenodd;stroke-width:16.4265;stroke:#261933;stroke-opacity:1;stroke-dasharray:none;"
     id="path696"
     d="M 451.954407,413.273621 A 100.773605,79.397400 0 1 1 414.001740,351.191742 L 351.180786,413.273621 z"
     sodipodi:cx="351.180786"
     sodipodi:cy="413.273621"
     sodipodi:rx="100.773605"
     sodipodi:ry="79.397400"
     transform="matrix(0.166711,0.000000,0.000000,0.219020,-22.87787,-56.25532)"
     sodipodi:start="0.000000"
     sodipodi:end="5.385456" />
  <path
     d="M 6.1689989,26.074198 C 5.9196588,25.562540 8.7122259,17.082227 11.500248,15.091877 C 13.735119,13.496299 17.266330,13.553394 20.122295,13.482945 C 22.030920,10.610554 24.618669,7.9034076 26.983912,7.0809118 C 30.269035,5.7293060 39.397185,9.0079776 39.680004,9.5883366 C 39.926898,10.094976 31.939490,9.6081846 28.940866,11.096678 C 26.204687,12.454564 24.663794,15.819527 22.475532,18.127737 C 19.425721,18.061649 15.843186,17.479408 13.273887,18.731472 C 10.407738,20.128197 6.3882809,26.524177 6.1689989,26.074198 z "
     style="font-size:12.000000;fill:url(#linearGradient850);fill-rule:evenodd;stroke:#261933;stroke-width:1.6864433;"
     id="path674"
     sodipodi:nodetypes="ccccccccc" />
  <path
     style="font-size:12;opacity:0.7;fill-rule:evenodd;stroke:none;stroke-width:0.135329pt;fill:url(#linearGradient863);"
     d="M 35.280862,37.410500 C 37.941064,37.001142 49.033580,37.100582 49.823092,37.410500 C 50.399039,37.636486 42.782538,39.018020 39.377230,39.018020 C 37.935085,39.018020 34.459198,37.536856 35.280862,37.410500 z "
     id="path699"
     sodipodi:nodetypes="csss" />
  <path
     d="M 8.7292359,21.080317 C 8.7110799,20.908995 10.983906,16.990201 12.580700,15.778708 C 13.389534,15.164854 15.719747,15.016205 15.736271,15.173355 C 15.753918,15.341664 13.588026,16.068076 12.683144,16.754545 C 11.182403,17.893039 8.7452539,21.234262 8.7292359,21.080317 z "
     style="font-size:12;opacity:0.7;fill-rule:evenodd;stroke:none;stroke-width:0.115296pt;fill:url(#linearGradient847);"
     id="path676"
     sodipodi:nodetypes="ccccc" />
  <path
     style="fill:#261933;fill-rule:evenodd;stroke:none;stroke-opacity:1;stroke-width:1pt;stroke-linejoin:miter;stroke-linecap:butt;fill-opacity:1;"
     d="M 35.088642,34.334145 L 25.530038,20.634641 L 23.936935,22.347219 L 33.205861,35.666140 L 35.088642,34.334145 z "
     id="path700"
     sodipodi:nodetypes="ccccc" />
  <path
     d="M 21.783192,14.651396 C 21.765229,14.480076 25.310796,9.7285106 26.907549,8.5171336 C 27.716499,7.9033176 30.046748,7.7547475 30.063118,7.9119736 C 30.080881,8.0801286 27.914991,8.8063496 27.010028,9.4930466 C 25.509403,10.631582 21.799438,14.805419 21.783192,14.651396 z "
     style="font-size:12;opacity:0.7;fill-rule:evenodd;stroke:none;stroke-width:0.115296pt;fill:url(#linearGradient845);"
     id="path677" />
  <path
     style="fill:#261933;fill-rule:evenodd;stroke:none;stroke-opacity:1;stroke-width:1pt;stroke-linejoin:miter;stroke-linecap:butt;fill-opacity:1;"
     d="M 33.368634,34.073757 L 27.332145,49.437421 L 29.359340,50.305493 L 35.316858,34.994345 L 33.368634,34.073757 z "
     id="path701"
     sodipodi:nodetypes="ccccc" />
  <path
     d="M 3.2110038,16.820153 C 3.0383889,16.465939 4.9716568,10.595096 6.9017789,9.2171946 C 8.4489589,8.1125906 11.229093,8.5257076 13.206251,8.4769356 C 14.527577,6.4884063 15.983539,4.2406844 17.620975,3.6712790 C 19.895234,2.7355740 26.214570,5.0053692 26.410363,5.4071455 C 26.581285,5.7578862 21.051676,5.4208851 18.975755,6.4513550 C 17.081524,7.3914085 16.014778,9.7209406 14.499864,11.318893 C 12.388509,11.273142 9.9083539,10.870060 8.1296519,11.736852 C 6.1454439,12.703792 3.3628116,17.131670 3.2110038,16.820153 z "
     style="font-size:12;fill:#000000;fill-rule:evenodd;stroke:none;stroke-width:2.03405;fill-opacity:1;opacity:0.296369;"
     id="path853"
     sodipodi:nodetypes="ccccccccc" />
  <path
     d="M 1.8061517,16.211698 C 1.6335360,15.857482 3.5668042,9.9866396 5.4969258,8.6087396 C 7.0441069,7.5041354 9.6082889,7.2466746 11.585447,7.1979024 C 12.906771,5.2093732 14.578688,3.6322283 16.216123,3.0628232 C 18.490383,2.1271185 24.809718,4.3969128 25.005511,4.7986899 C 25.176433,5.1494314 19.646824,4.8124309 17.570903,5.8428998 C 15.676673,6.7829526 14.609927,9.1124856 13.095012,10.710438 C 10.983657,10.664686 8.5035009,10.261605 6.7247989,11.128398 C 4.7405918,12.095337 1.9579596,16.523216 1.8061517,16.211698 z "
     style="font-size:12.000000;fill:url(#linearGradient850);fill-rule:evenodd;stroke:#261933;stroke-width:1.6864433;"
     id="path854"
     sodipodi:nodetypes="ccccccccc" />
  <path
     d="M 3.5785803,12.754481 C 3.5660116,12.635877 5.1394687,9.9229306 6.2449129,9.0842266 C 6.8048619,8.6592596 8.4180459,8.5563516 8.4294849,8.6651456 C 8.4417019,8.7816646 6.9422759,9.2845526 6.3158339,9.7597886 C 5.2768844,10.547958 3.5896697,12.861056 3.5785803,12.754481 z "
     style="font-size:12;opacity:0.7;fill-rule:evenodd;stroke:none;stroke-width:0.115296pt;fill:url(#linearGradient847);"
     id="path855"
     sodipodi:nodetypes="ccccc" />
  <path
     d="M 12.615712,8.3037986 C 12.603277,8.1851956 15.057840,4.8957314 16.163257,4.0571054 C 16.723285,3.6321671 18.336495,3.5293134 18.347828,3.6381593 C 18.360126,3.7545716 16.860702,4.2573262 16.234204,4.7327216 C 15.195334,5.5209195 12.626961,8.4104266 12.615712,8.3037986 z "
     style="font-size:12;opacity:0.7;fill-rule:evenodd;stroke:none;stroke-width:0.115296pt;fill:url(#linearGradient845);"
     id="path856" />
  <path
     style="font-size:12;opacity:0.699936;fill-rule:evenodd;stroke:none;stroke-width:0.166097pt;fill:url(#linearGradient849);"
     d="M 20.943662,37.413123 C 20.765668,36.945438 20.848195,27.358220 27.702645,22.344417 C 33.258225,18.430455 41.454931,20.807545 41.630216,21.268118 C 41.796262,21.704584 35.909884,19.094403 28.726765,25.035340 C 20.946369,31.201328 21.107001,37.842476 20.943662,37.413123 z "
     id="path698"
     sodipodi:nodetypes="cssss" />
</svg>
