<?xml version="1.0" encoding="UTF-8" standalone="no"?>
<!-- Created with Inkscape (http://www.inkscape.org/) -->
<svg
   xmlns:dc="http://purl.org/dc/elements/1.1/"
   xmlns:cc="http://web.resource.org/cc/"
   xmlns:rdf="http://www.w3.org/1999/02/22-rdf-syntax-ns#"
   xmlns:svg="http://www.w3.org/2000/svg"
   xmlns="http://www.w3.org/2000/svg"
   xmlns:xlink="http://www.w3.org/1999/xlink"
   xmlns:sodipodi="http://inkscape.sourceforge.net/DTD/sodipodi-0.dtd"
   xmlns:inkscape="http://www.inkscape.org/namespaces/inkscape"
   id="svg1"
   sodipodi:version="0.32"
   inkscape:version="0.42"
   width="48pt"
   height="48pt"
   sodipodi:docbase="/home/jakob/dev/lila/lila-theme/trunk/lila/kde/scalable/apps"
   sodipodi:docname="package_applications.svg">
  <metadata
     id="metadata28">
    <rdf:RDF>
      <cc:Work
         rdf:about="">
        <dc:format>image/svg+xml</dc:format>
        <dc:type
           rdf:resource="http://purl.org/dc/dcmitype/StillImage" />
      </cc:Work>
    </rdf:RDF>
  </metadata>
  <defs
     id="defs3">
    <linearGradient
       id="linearGradient866">
      <stop
         style="stop-color:#ffffff;stop-opacity:1;"
         offset="0.00000000"
         id="stop867" />
      <stop
         style="stop-color:#d9cce6;stop-opacity:1;"
         offset="1.00000000"
         id="stop868" />
    </linearGradient>
    <linearGradient
       id="linearGradient584">
      <stop
         style="stop-color:#ffffff;stop-opacity:1;"
         offset="0.00000000"
         id="stop585" />
      <stop
         style="stop-color:#ffffff;stop-opacity:0;"
         offset="1.00000000"
         id="stop586" />
    </linearGradient>
    <linearGradient
       xlink:href="#linearGradient866"
       id="linearGradient586"
       x1="3.1155311"
       y1="13.307925"
       x2="44.003021"
       y2="53.268210"
       gradientTransform="matrix(1.017239,0.000000,0.000000,1.144905,-3.169239,-3.041673)"
       gradientUnits="userSpaceOnUse" />
    <linearGradient
       xlink:href="#linearGradient584"
       id="linearGradient587"
       x1="5.4470614"
       y1="15.836828"
       x2="36.038414"
       y2="46.428180"
       gradientTransform="matrix(1.078759,0.000000,0.000000,1.079613,-3.169239,-3.041673)"
       gradientUnits="userSpaceOnUse" />
    <linearGradient
       inkscape:collect="always"
       xlink:href="#linearGradient866"
       id="linearGradient1334"
       x1="19.272144"
       y1="3.6085945"
       x2="60.159634"
       y2="43.568880"
       gradientTransform="matrix(1.017239,0.000000,0.000000,1.144906,-3.169239,-3.041673)"
       gradientUnits="userSpaceOnUse" />
    <linearGradient
       inkscape:collect="always"
       xlink:href="#linearGradient584"
       id="linearGradient1336"
       x1="20.682282"
       y1="5.5509035"
       x2="51.273635"
       y2="36.142256"
       gradientTransform="matrix(1.078759,0.000000,0.000000,1.079613,-3.169239,-3.041673)"
       gradientUnits="userSpaceOnUse" />
    <linearGradient
       inkscape:collect="always"
       xlink:href="#linearGradient866"
       id="linearGradient1338"
       x1="11.412168"
       y1="8.4582607"
       x2="52.299658"
       y2="48.418546"
       gradientTransform="matrix(1.017239,0.000000,0.000000,1.144905,-3.169239,-3.041673)"
       gradientUnits="userSpaceOnUse" />
    <linearGradient
       inkscape:collect="always"
       xlink:href="#linearGradient584"
       id="linearGradient1340"
       x1="13.270552"
       y1="10.693866"
       x2="43.861904"
       y2="41.285218"
       gradientTransform="matrix(1.078759,0.000000,0.000000,1.079613,-3.169239,-3.041673)"
       gradientUnits="userSpaceOnUse" />
  </defs>
  <sodipodi:namedview
     id="base"
     pagecolor="#ffffff"
     bordercolor="#666666"
     borderopacity="1.0"
     inkscape:pageopacity="0.0"
     inkscape:pageshadow="2"
     inkscape:zoom="5.6423387"
     inkscape:cx="24.334563"
     inkscape:cy="21.710374"
     inkscape:window-width="1400"
     inkscape:window-height="997"
     inkscape:window-x="0"
     inkscape:window-y="0"
     inkscape:current-layer="svg1" />
  <path
     d="M 17.109568,39.339310 C 17.772224,41.319047 45.213318,50.220932 47.015025,48.727109 C 48.627746,47.375919 60.694964,7.1576601 59.886981,5.5626383 C 59.047109,3.8041299 31.206228,-0.57601226 29.884741,0.62675845 C 28.256951,2.1169925 16.413614,37.067820 17.109568,39.339310 z "
     style="font-size:12.000000px;opacity:0.30267498;fill-rule:evenodd;stroke-width:12.500000"
     id="path588" />
  <path
     d="M 17.400209,37.700753 C 18.020205,39.552947 43.693423,47.881347 45.379050,46.483758 C 46.887874,45.219618 58.177689,7.5923486 57.421760,6.1000523 C 56.635995,4.4548331 30.588715,0.35690594 29.352360,1.4821900 C 27.829441,2.8764177 16.749088,35.575600 17.400209,37.700753 z "
     style="font-size:12.000000px;fill:url(#linearGradient1334);fill-rule:evenodd;stroke:#261933;stroke-width:1.8750000;stroke-dasharray:none"
     id="path589" />
  <path
     d="M 19.146933,35.965780 C 18.878997,35.286984 29.524990,3.7261766 30.520272,3.0753105 C 31.764165,2.2264207 51.872559,5.9842952 52.139866,6.6614976 C 52.384873,7.2821755 36.451210,4.3839286 32.906336,7.5547250 C 26.107578,13.465257 19.391310,36.584896 19.146933,35.965780 z "
     style="font-size:12.000000px;opacity:0.69993597;fill:url(#linearGradient1336);fill-rule:evenodd;stroke-width:0.10012100pt"
     id="path590" />
  <path
     d="M 9.3104051,44.891721 C 9.9730601,46.871457 37.414154,55.773344 39.215861,54.279520 C 40.828580,52.928329 52.895799,12.710072 52.087816,11.115049 C 51.247946,9.3565406 23.407063,4.9763985 22.085576,6.1791691 C 20.457786,7.6694032 8.6144501,42.620230 9.3104051,44.891721 z "
     style="font-size:12.000000px;opacity:0.30267498;fill-rule:evenodd;stroke-width:12.500000"
     id="path591" />
  <path
     d="M 9.4047371,43.253164 C 10.024734,45.105358 35.697952,53.433757 37.383579,52.036168 C 38.892403,50.772028 50.182218,13.144759 49.426289,11.652463 C 48.640524,10.007244 22.593245,5.9093163 21.356889,7.0346004 C 19.833970,8.4288283 8.7536171,41.128010 9.4047371,43.253164 z "
     style="font-size:12.000000px;fill:url(#linearGradient1338);fill-rule:evenodd;stroke:#261933;stroke-width:1.8750000;stroke-dasharray:none"
     id="path592" />
  <path
     d="M 11.151462,41.518190 C 10.883526,40.839394 21.529519,9.2785878 22.524800,8.6277209 C 23.768694,7.7788310 43.877088,11.536706 44.144394,12.213910 C 44.389401,12.834587 28.455738,9.9363398 24.910866,13.107136 C 18.112107,19.017667 11.395839,42.137307 11.151462,41.518190 z "
     style="font-size:12.000000px;opacity:0.69993597;fill:url(#linearGradient1340);fill-rule:evenodd;stroke-width:0.10012100pt"
     id="path593" />
  <path
     d="M 0.87074371,50.444128 C 1.5333987,52.423866 28.974494,61.325751 30.776201,59.831928 C 32.388920,58.480738 44.456139,18.262480 43.648156,16.667458 C 42.808286,14.908949 14.967403,10.528805 13.645916,11.731578 C 12.018126,13.221811 0.17478891,48.172639 0.87074371,50.444128 z "
     style="font-size:12.000000px;opacity:0.30267498;fill-rule:evenodd;stroke-width:12.500000"
     id="path639" />
  <path
     d="M 0.96507701,48.805572 C 1.5850730,50.657764 27.258292,58.986165 28.943920,57.588575 C 30.452743,56.324434 41.742557,18.697168 40.986630,17.204871 C 40.200865,15.559652 14.153584,11.461724 12.917228,12.587009 C 11.394309,13.981236 0.31395591,46.680418 0.96507701,48.805572 z "
     style="font-size:12.000000px;fill:url(#linearGradient586);fill-rule:evenodd;stroke:#261933;stroke-width:1.8750000;stroke-dasharray:none"
     id="path634" />
  <path
     d="M 2.7118004,47.070598 C 2.4438653,46.391803 13.089858,14.830995 14.085140,14.180130 C 15.329033,13.331241 35.437428,17.089114 35.704733,17.766316 C 35.949741,18.386995 20.016078,15.488748 16.471205,18.659545 C 9.6724471,24.570075 2.9561784,47.689715 2.7118004,47.070598 z "
     style="font-size:12.000000px;opacity:0.69993597;fill:url(#linearGradient587);fill-rule:evenodd;stroke-width:0.10012100pt"
     id="path640" />
  <path
     style="font-size:12.000000px;opacity:0.49815300;fill:#261933;fill-rule:evenodd;stroke-width:1.0000000pt"
     d="M 14.770067,18.154145 C 21.482187,18.835085 29.443072,20.128375 35.657169,21.766200 C 36.196044,21.908229 35.600246,23.551659 35.028986,23.493705 C 28.376135,22.818778 20.263579,21.222419 13.984838,19.567559 C 13.510605,19.442566 14.258077,18.102203 14.770067,18.154145 z "
     id="path602"
     sodipodi:nodetypes="cssss" />
  <path
     style="font-size:12.000000px;opacity:0.49815300;fill:#261933;fill-rule:evenodd;stroke-width:1.0000000pt"
     d="M 23.878728,25.221209 C 22.916676,26.157704 19.656856,36.410824 20.266673,37.470787 C 20.759272,37.698821 29.032182,40.583945 30.003518,39.669430 C 31.101488,38.792734 34.446863,27.854009 33.929664,26.791667 C 33.482211,26.029628 24.764774,24.479741 23.878728,25.221209 z "
     id="path604"
     sodipodi:nodetypes="cssss" />
  <path
     style="font-size:12.000000px;opacity:0.49815300;fill:#261933;fill-rule:evenodd;stroke-width:1.0000000pt"
     d="M 8.0558801,38.231678 C 14.709216,39.349420 22.568669,41.159743 28.662569,43.199811 C 29.191019,43.376722 28.489187,44.977743 27.922931,44.882613 C 21.328344,43.774741 13.337330,41.652094 7.1800391,39.590805 C 6.7149802,39.435115 7.5483731,38.146418 8.0558801,38.231678 z "
     id="path605"
     sodipodi:nodetypes="cssss" />
  <path
     style="font-size:12.000000px;opacity:0.49815300;fill:#261933;fill-rule:evenodd;stroke-width:1.0000000pt"
     d="M 6.4656861,43.658923 C 13.070334,45.035459 20.853152,47.151117 26.862796,49.427444 C 27.383940,49.624842 26.620164,51.197256 26.058051,51.080100 C 19.511722,49.715720 11.609633,47.282841 5.5374731,44.982834 C 5.0788438,44.809115 5.9618926,43.553922 6.4656861,43.658923 z "
     id="path606"
     sodipodi:nodetypes="cssss" />
  <path
     style="font-size:12.000000px;opacity:0.49815300;fill:#261933;fill-rule:evenodd;stroke-width:1.0000000pt"
     d="M 13.117079,23.465014 C 16.335291,23.890028 19.046056,24.481677 22.010848,25.359656 C 22.267948,25.435793 21.671119,26.850738 21.397220,26.814565 C 18.207426,26.393304 15.271269,25.821776 12.275636,24.934665 C 12.049377,24.867661 12.871599,23.432596 13.117079,23.465014 z "
     id="path607"
     sodipodi:nodetypes="cssss" />
  <path
     style="font-size:12.000000px;opacity:0.49815300;fill:#261933;fill-rule:evenodd;stroke-width:1.0000000pt"
     d="M 11.232528,27.862299 C 14.450741,28.287313 17.161505,28.878962 20.126297,29.756941 C 20.383397,29.833075 19.786569,31.248023 19.512670,31.211850 C 16.322875,30.790589 13.386718,30.219060 10.391084,29.331949 C 10.164825,29.264945 10.987048,27.829881 11.232528,27.862299 z "
     id="path608"
     sodipodi:nodetypes="cssss" />
</svg>
