<?xml version="1.0" encoding="UTF-8" standalone="no"?>
<!DOCTYPE svg PUBLIC "-//W3C//DTD SVG 20010904//EN"
"http://www.w3.org/TR/2001/REC-SVG-20010904/DTD/svg10.dtd">
<!-- Created with Inkscape (http://www.inkscape.org/) -->
<svg
   version="1.0"
   x="0"
   y="0"
   width="48pt"
   height="48pt"
   id="svg1"
   sodipodi:version="0.32"
   inkscape:version="0.38"
   sodipodi:docname="package_settings.svg"
   sodipodi:docbase="/home/tom/Pics/lilasvg/scalable/apps"
   xmlns="http://www.w3.org/2000/svg"
   xmlns:inkscape="http://www.inkscape.org/namespaces/inkscape"
   xmlns:sodipodi="http://sodipodi.sourceforge.net/DTD/sodipodi-0.dtd"
   xmlns:xlink="http://www.w3.org/1999/xlink">
  <sodipodi:namedview
     id="base"
     pagecolor="#ffffff"
     bordercolor="#666666"
     borderopacity="1.0"
     inkscape:pageopacity="0.0"
     inkscape:pageshadow="2"
     inkscape:zoom="4.9119411"
     inkscape:cx="25.814900"
     inkscape:cy="21.859944"
     inkscape:window-width="640"
     inkscape:window-height="500"
     inkscape:window-x="188"
     inkscape:window-y="244"
     showgrid="false"
     vertgrid="false"
     snaptogrid="false"
     horizgrid="false"
     snaptoguides="false" />
  <defs
     id="defs3">
    <linearGradient
       id="linearGradient570">
      <stop
         style="stop-color:#ffffff;stop-opacity:1;"
         offset="0"
         id="stop571" />
      <stop
         style="stop-color:#ffffff;stop-opacity:0;"
         offset="1"
         id="stop572" />
    </linearGradient>
    <linearGradient
       id="linearGradient563">
      <stop
         style="stop-color:#d9cce6;stop-opacity:1;"
         offset="0.00000000"
         id="stop564" />
      <stop
         style="stop-color:#73667f;stop-opacity:1;"
         offset="1.00000000"
         id="stop565" />
    </linearGradient>
    <linearGradient
       x1="0.40845069"
       y1="0.34375000"
       x2="0.66197181"
       y2="0.60156250"
       id="linearGradient566"
       xlink:href="#linearGradient563" />
    <linearGradient
       x1="0.009905"
       y1="0.007809"
       x2="0.985224"
       y2="1.015625"
       id="linearGradient569"
       xlink:href="#linearGradient570" />
    <linearGradient
       x1="0.015742"
       y1="0.015626"
       x2="0.976382"
       y2="0.999995"
       id="linearGradient573"
       xlink:href="#linearGradient570"
       gradientTransform="scale(0.999995,1.000005)" />
    <linearGradient
       x1="0.006623"
       y1="0.007813"
       x2="0.973510"
       y2="0.984375"
       id="linearGradient575"
       xlink:href="#linearGradient570" />
    <linearGradient
       x1="0.000005"
       y1="0.023436"
       x2="1.000000"
       y2="1.007812"
       id="linearGradient578"
       xlink:href="#linearGradient570" />
    <linearGradient
       x1="0.012999"
       y1="0.015680"
       x2="1.012987"
       y2="1.000001"
       id="linearGradient583"
       xlink:href="#linearGradient570" />
    <linearGradient
       x1="0.07954545"
       y1="0.06250000"
       x2="0.95454544"
       y2="0.97656250"
       id="linearGradient637"
       xlink:href="#linearGradient563" />
    <linearGradient
       x1="0.03225806"
       y1="0.05468750"
       x2="0.99596775"
       y2="1.00000000"
       id="linearGradient640"
       xlink:href="#linearGradient563" />
    <linearGradient
       x1="0.010877"
       y1="0.038449"
       x2="0.989090"
       y2="0.987177"
       id="linearGradient645"
       xlink:href="#linearGradient570" />
    <linearGradient
       x1="0.056578"
       y1="0.023450"
       x2="0.867923"
       y2="0.976563"
       id="linearGradient646"
       xlink:href="#linearGradient570" />
    <linearGradient
       x1="0.000007"
       y1="0.000000"
       x2="0.951807"
       y2="0.984375"
       id="linearGradient647"
       xlink:href="#linearGradient570" />
    <linearGradient
       x1="0.056605"
       y1="0.015625"
       x2="0.943396"
       y2="0.984375"
       id="linearGradient675"
       xlink:href="#linearGradient570" />
    <linearGradient
       x1="0.011765"
       y1="-0.000000"
       x2="1.011765"
       y2="1.015625"
       id="linearGradient676"
       xlink:href="#linearGradient570" />
    <linearGradient
       xlink:href="#linearGradient563"
       id="linearGradient684"
       x1="0.09210526"
       y1="0.12500000"
       x2="0.93421054"
       y2="0.92187500" />
    <linearGradient
       xlink:href="#linearGradient563"
       id="linearGradient685"
       x1="0.06603774"
       y1="0.07812500"
       x2="0.94339621"
       y2="0.95312500" />
  </defs>
  <path
     d="M 4.2254211,46.257599 C 6.7090764,47.567049 8.8953502,41.535627 13.482807,46.789150 C 18.659078,52.721201 11.470909,53.424546 12.199518,55.967091 C 12.769582,57.662686 19.721055,56.005269 21.291565,54.148438 C 22.886777,52.262635 19.816494,47.014953 21.696572,44.739525 C 27.929770,37.196204 37.057857,29.661755 45.631600,24.692648 C 48.422977,23.074978 53.577130,26.523766 55.792028,24.978970 C 57.941252,23.479760 60.277200,16.433407 58.723642,15.560740 C 56.335938,14.167188 53.038505,21.977182 48.665283,16.811691 C 44.262980,11.610716 51.858731,8.9320810 51.337069,6.7882501 C 50.860761,5.0496192 43.290156,6.6423951 41.399300,8.6043256 C 39.534385,10.539308 42.103544,16.064331 40.069751,18.478988 C 33.759866,25.970210 24.799414,33.405402 16.368156,38.321959 C 13.922733,39.747962 9.4238686,36.210130 7.4395937,37.506895 C 5.3763275,38.855308 2.6268293,45.324636 4.2254211,46.257599 z "
     style="font-size:12;opacity:0.302675;fill-rule:evenodd;stroke-width:12.5;"
     id="path636" />
  <path
     d="M 2.5104467,44.297578 C 4.9940913,45.607028 7.1803312,39.575605 11.767789,44.829127 C 16.944060,50.761180 9.7558923,51.464524 10.484499,54.007072 C 11.054563,55.702666 18.006036,54.045249 19.576546,52.188417 C 21.171758,50.302614 18.101477,45.054930 19.981555,42.779506 C 26.214749,35.236184 35.342838,27.701734 43.916586,22.732625 C 46.707950,21.114955 51.862103,24.563746 54.077014,23.018949 C 56.226226,21.519738 58.562172,14.473387 57.008628,13.600718 C 54.620910,12.207167 51.323479,20.017160 46.950258,14.851669 C 42.547961,9.6506937 50.143718,6.9720582 49.622043,4.8282855 C 49.145746,3.0896428 41.575138,4.6824626 39.684283,6.6443028 C 37.819367,8.5792856 40.388526,14.104308 38.354732,16.518966 C 32.044848,24.010188 23.084397,31.445380 14.653138,36.361939 C 12.207715,37.787940 7.7088498,34.250110 5.7246088,35.546872 C 3.6613530,36.895286 0.91185499,43.364614 2.5104467,44.297578 z "
     style="font-size:12.000000;fill:url(#linearGradient566);fill-rule:evenodd;stroke:#261933;stroke-width:2.1053152;"
     id="path630" />
  <path
     d="M 3.5013826,42.625001 C 3.4335744,42.308474 4.9395000,37.812080 6.4413927,37.112555 C 7.9202795,36.423694 12.379846,38.161956 12.443735,38.459957 C 12.502346,38.733590 8.3844601,38.093574 6.8087851,38.827460 C 5.4036461,39.481961 3.5560430,42.880111 3.5013826,42.625001 z "
     style="font-size:12.000000;opacity:0.69993597;fill:url(#linearGradient578);fill-rule:evenodd;stroke:#ffffff;stroke-width:0.11228322pt;"
     id="path631" />
  <path
     d="M 12.443735,52.792275 C 12.326287,52.733552 14.568139,51.150242 15.016264,50.097360 C 15.384890,49.231205 14.780019,46.978011 14.893761,47.034937 C 15.025021,47.100511 16.132248,49.569738 15.751270,50.464864 C 15.315498,51.488890 12.571289,52.856055 12.443735,52.792275 z "
     style="font-size:12.000000;opacity:0.69993597;fill:url(#linearGradient583);fill-rule:evenodd;stroke:#ffffff;stroke-width:0.11228322pt;"
     id="path632" />
  <path
     d="M 15.762723,37.715629 C 15.662343,37.530138 24.751694,31.838708 28.850492,28.426525 C 32.788052,25.148407 39.773211,17.462149 39.872021,17.644722 C 39.973412,17.831897 33.451984,26.204657 29.450761,29.535660 C 25.415515,32.894960 15.862431,37.899886 15.762723,37.715629 z "
     style="font-size:12.000000;opacity:0.69999999;fill:url(#linearGradient575);fill-rule:evenodd;stroke:#ffffff;stroke-width:0.11228322pt;"
     id="path633" />
  <path
     d="M 40.618483,12.490346 C 40.367191,12.239057 39.960949,8.7870089 40.863372,7.8354070 C 42.206731,6.4187253 47.122063,5.1516514 47.355831,5.3853918 C 47.571191,5.6007856 43.637673,7.6782099 42.210888,9.1828095 C 41.391890,10.046495 40.816324,12.688191 40.618483,12.490346 z "
     style="font-size:12.000000;opacity:0.69999999;fill:url(#linearGradient573);fill-rule:evenodd;stroke:#ffffff;stroke-width:0.11228322pt;"
     id="path634" />
  <path
     d="M 49.070845,18.002795 C 49.051761,17.812024 50.980117,18.343687 51.765760,18.002795 C 53.144274,17.404548 55.544214,14.995842 55.563194,15.185263 C 55.585089,15.404104 53.273394,18.626529 51.888267,19.227695 C 51.109355,19.565780 49.092636,18.220287 49.070845,18.002795 z "
     style="font-size:12.000000;opacity:0.69993597;fill:url(#linearGradient569);fill-rule:evenodd;stroke:#ffffff;stroke-width:0.11228322pt;"
     id="path635" />
</svg>
