<?xml version="1.0" encoding="UTF-8" standalone="no"?>
<!DOCTYPE svg PUBLIC "-//W3C//DTD SVG 20010904//EN"
"http://www.w3.org/TR/2001/REC-SVG-20010904/DTD/svg10.dtd">
<!-- Created with Inkscape (http://www.inkscape.org/) -->
<svg
   version="1"
   x="0.00000000"
   y="0.00000000"
   width="48pt"
   height="48pt"
   id="svg548"
   sodipodi:version="0.32"
   inkscape:version="0.38"
   sodipodi:docname="package_toys.svg"
   sodipodi:docbase="/home/tom"
   xmlns="http://www.w3.org/2000/svg"
   xmlns:inkscape="http://www.inkscape.org/namespaces/inkscape"
   xmlns:sodipodi="http://sodipodi.sourceforge.net/DTD/sodipodi-0.dtd"
   xmlns:xlink="http://www.w3.org/1999/xlink">
  <sodipodi:namedview
     id="base"
     inkscape:zoom="8.3092437"
     inkscape:cx="25.401019"
     inkscape:cy="23.348796"
     inkscape:window-width="530"
     inkscape:window-height="585"
     inkscape:window-x="85"
     inkscape:window-y="95" />
  <defs
     id="defs550">
    <linearGradient
       x1="0.00000000"
       y1="0.00000000"
       x2="1.00000000"
       y2="0.00000000"
       id="linearGradient596"
       gradientUnits="objectBoundingBox"
       spreadMethod="pad">
      <stop
         style="stop-color:#ffffff;stop-opacity:1;"
         offset="0.00000000"
         id="stop597" />
      <stop
         style="stop-color:#ffffff;stop-opacity:0;"
         offset="1.00000000"
         id="stop598" />
    </linearGradient>
    <linearGradient
       x1="0.00000000"
       y1="0.00000000"
       x2="1.00000000"
       y2="0.00000000"
       id="linearGradient613"
       gradientUnits="objectBoundingBox"
       spreadMethod="pad">
      <stop
         style="stop-color:#ffffff;stop-opacity:1;"
         offset="0.00000000"
         id="stop614" />
      <stop
         style="stop-color:#d9cce6;stop-opacity:1;"
         offset="1.00000000"
         id="stop615" />
    </linearGradient>
    <linearGradient
       x1="0.00000000"
       y1="0.00000000"
       x2="1.00000000"
       y2="0.00000000"
       id="linearGradient576"
       gradientUnits="objectBoundingBox"
       spreadMethod="pad">
      <stop
         style="stop-color:#f3ffb7;stop-opacity:0.854902;"
         offset="0.00000000"
         id="stop577" />
      <stop
         style="stop-color:#edca2a;stop-opacity:0.952941;"
         offset="1.00000000"
         id="stop578" />
    </linearGradient>
    <linearGradient
       x1="0.00000000"
       y1="0.00000000"
       x2="1.00000000"
       y2="0.00000000"
       id="linearGradient553"
       gradientUnits="objectBoundingBox"
       spreadMethod="pad">
      <stop
         style="stop-color:#d9cce6;stop-opacity:1;"
         offset="0.00000000"
         id="stop554" />
      <stop
         style="stop-color:#73667f;stop-opacity:1;"
         offset="1.00000000"
         id="stop555" />
    </linearGradient>
    <linearGradient
       x1="-0.14718680"
       y1="0.15963815"
       x2="1.06099808"
       y2="0.80974162"
       id="linearGradient556"
       xlink:href="#linearGradient613"
       gradientUnits="objectBoundingBox"
       spreadMethod="pad" />
    <linearGradient
       x1="0.00000320"
       y1="-0.00000338"
       x2="0.77868861"
       y2="0.83593744"
       id="linearGradient558"
       xlink:href="#linearGradient596"
       gradientUnits="objectBoundingBox"
       spreadMethod="pad" />
    <linearGradient
       x1="0.01012245"
       y1="0.01567149"
       x2="0.87000453"
       y2="0.90625161"
       id="linearGradient560"
       xlink:href="#linearGradient596"
       gradientUnits="objectBoundingBox"
       gradientTransform="translate(1.608839e-6,6.124947e-7)"
       spreadMethod="pad" />
    <linearGradient
       x1="0.02271967"
       y1="0.01562500"
       x2="0.96590889"
       y2="0.96093738"
       id="linearGradient562"
       xlink:href="#linearGradient613"
       gradientUnits="objectBoundingBox"
       spreadMethod="pad" />
    <linearGradient
       x1="-0.12717241"
       y1="0.29160193"
       x2="1.28247404"
       y2="0.70541745"
       id="linearGradient564"
       xlink:href="#linearGradient553"
       gradientUnits="objectBoundingBox"
       spreadMethod="pad" />
    <linearGradient
       x1="0.01136383"
       y1="0.00781196"
       x2="0.97727299"
       y2="0.97656238"
       id="linearGradient575"
       xlink:href="#linearGradient613"
       gradientUnits="objectBoundingBox"
       spreadMethod="pad" />
    <linearGradient
       x1="0.00000093"
       y1="0.02343896"
       x2="0.59259260"
       y2="0.53125006"
       id="linearGradient623"
       xlink:href="#linearGradient596"
       gradientUnits="objectBoundingBox"
       spreadMethod="pad" />
    <radialGradient
       cx="0.54163635"
       cy="0.48528421"
       fx="0.54163635"
       fy="0.48528421"
       r="0.44431308"
       id="radialGradient599"
       xlink:href="#linearGradient613"
       gradientUnits="objectBoundingBox"
       spreadMethod="pad" />
    <linearGradient
       x1="0.00791449"
       y1="0.02343800"
       x2="0.49206322"
       y2="0.57812494"
       id="linearGradient600"
       xlink:href="#linearGradient596"
       gradientUnits="objectBoundingBox"
       spreadMethod="pad" />
    <linearGradient
       x1="-0.00000316"
       y1="0.01563059"
       x2="0.65306103"
       y2="0.78906244"
       id="linearGradient601"
       xlink:href="#linearGradient596"
       gradientUnits="objectBoundingBox"
       spreadMethod="pad" />
    <linearGradient
       x1="0.00000000"
       y1="0.00000000"
       x2="1.00000000"
       y2="0.00000000"
       id="linearGradient605"
       xlink:href="#linearGradient596"
       gradientUnits="objectBoundingBox"
       spreadMethod="pad" />
  </defs>
  <path
     d="M 37.694377,43.616052 C 41.991500,45.784558 41.526363,47.941822 41.213420,49.527067 C 40.136489,52.300224 30.724811,61.047310 21.967033,56.050792 C 11.615839,49.597879 8.2633804,29.634937 11.917439,19.466272 C 15.566998,9.5180768 27.031290,4.0789579 42.418670,12.833007 C 49.843384,17.430090 51.463284,23.027897 49.413618,26.856587 C 47.364186,30.684715 44.179574,33.013135 34.461833,33.874113 C 25.801747,34.737277 22.289214,28.758328 21.508587,30.827538 C 20.866680,32.984715 21.775225,44.111801 24.746098,47.334267 C 27.920269,49.235154 30.131196,46.020288 31.366698,43.394067 C 32.286235,40.855720 37.764406,43.660460 37.694377,43.616052 z "
     style="font-size:12;opacity:0.302675;fill:#000000;fill-rule:evenodd;stroke-width:2.65295;fill-opacity:1;"
     id="path577"
     sodipodi:nodetypes="ccccccccccc" />
  <path
     d="M 36.105645,41.296439 C 40.402766,43.464946 39.937632,45.622208 39.624689,47.207452 C 38.547758,49.980612 29.136080,58.727699 20.378302,53.731177 C 10.027106,47.278266 6.6746474,27.315324 10.328708,17.146660 C 13.978266,7.1984637 25.442559,1.7593454 40.829937,10.513391 C 48.254651,15.110477 49.874554,20.708284 47.824885,24.536975 C 45.775455,28.365102 42.590843,30.693521 32.873099,31.554500 C 24.213017,32.417663 20.386534,25.025284 19.605909,27.094494 C 18.964001,29.251671 20.186494,41.792188 23.157365,45.014654 C 26.331537,46.915540 28.542463,43.700676 29.777968,41.074454 C 30.697502,38.536106 36.175672,41.340846 36.105645,41.296439 z "
     style="font-size:12.000000;fill:url(#linearGradient564);fill-rule:evenodd;stroke:#261933;stroke-width:1.9491974;"
     id="path563"
     sodipodi:nodetypes="ccccccccccc" />
  <path
     d="M 12.187184,37.072851 C 10.684266,32.376229 9.6718040,22.169070 13.690110,15.280542 C 19.138210,6.2630055 33.791676,6.4508749 35.670294,8.8931163 C 28.719268,9.0183523 21.464211,12.979922 17.259593,17.722760 C 13.636504,21.809567 11.936705,31.374262 12.187184,37.072851 z "
     style="font-size:12.000000;opacity:0.64949000;fill:url(#linearGradient623);fill-rule:evenodd;stroke:#ffffff;stroke-width:0.079818851pt;"
     id="path595" />
  <ellipse
     cx="345.164551"
     cy="198.053543"
     rx="90.430557"
     ry="134.372177"
     transform="matrix(7.981884e-2,0.000000,0.000000,7.981884e-2,14.22900,-1.872583)"
     style="font-size:12;fill:url(#linearGradient562);fill-rule:evenodd;stroke:#261933;stroke-width:24.4203;stroke-dasharray:none;stroke-opacity:1;"
     id="path581" />
  <path
     d="M 36.797533,13.401850 C 36.380401,12.868182 37.127664,7.3133961 39.615458,5.8872411 C 42.107243,4.2709398 44.687868,6.2629709 44.687868,6.2629709 C 44.687868,6.2629709 42.419016,6.4012740 39.897778,8.7528016 C 37.588856,10.756894 37.018630,14.112799 36.797533,13.401850 z "
     style="font-size:12.000000;opacity:0.85000002;fill:url(#linearGradient600);fill-rule:evenodd;stroke:#ffffff;stroke-width:0.079818851pt;"
     id="path602" />
  <ellipse
     cx="354.717041"
     cy="257.916016"
     rx="41.394272"
     ry="40.120605"
     transform="matrix(7.981884e-2,0.000000,0.000000,7.981884e-2,13.98387,-4.646215)"
     style="font-size:12;fill-rule:evenodd;stroke-width:1pt;"
     id="path582" />
  <ellipse
     cx="345.164551"
     cy="198.053543"
     rx="90.430557"
     ry="134.372177"
     transform="matrix(7.981884e-2,0.000000,0.000000,7.981884e-2,1.622804,-1.364263)"
     style="font-size:12;fill:url(#linearGradient575);fill-rule:evenodd;stroke:#261933;stroke-width:24.4203;stroke-dasharray:none;stroke-opacity:1;"
     id="path587" />
  <ellipse
     cx="354.717041"
     cy="257.916016"
     rx="41.394272"
     ry="40.120605"
     transform="matrix(7.981884e-2,0.000000,0.000000,7.981884e-2,1.012828,-4.137895)"
     style="font-size:12;fill-rule:evenodd;stroke-width:1pt;"
     id="path588" />
  <path
     d="M 24.210568,13.965447 C 23.793435,13.431778 24.540698,7.8769901 27.028493,6.4508350 C 29.520278,4.8345355 32.100902,6.8265666 32.100902,6.8265666 C 32.100902,6.8265666 29.973091,6.8237724 27.451853,9.1753558 C 25.142932,11.179449 24.431668,14.676393 24.210568,13.965447 z "
     style="font-size:12.000000;opacity:0.85000002;fill:url(#linearGradient600);fill-rule:evenodd;stroke:#ffffff;stroke-width:0.079818851pt;"
     id="path599" />
  <path
     d="M 26.089184,47.217589 C 29.189430,46.165019 30.167929,42.958933 31.537301,42.145179 C 32.019967,41.792140 34.419402,42.383680 33.979598,42.520887 C 31.185699,43.334241 28.345743,47.768100 26.089184,47.217589 z "
     style="font-size:12.000000;opacity:0.64949000;fill:url(#linearGradient601);fill-rule:evenodd;stroke:#ffffff;stroke-width:0.079818851pt;"
     id="path603" />
  <path
     sodipodi:type="arc"
     style="fill-rule:evenodd;stroke:none;fill:#ffffff;fill-opacity:1;stroke-opacity:1;stroke-width:1pt;stroke-linejoin:miter;stroke-linecap:butt;"
     id="path647"
     d="M 273.523499 183.912354 A 12.790665 12.790680 0 1 0 247.942184,183.912354 A 12.7907 12.7907 0 1 0 273.523 183.912 L 260.732849 183.912354 z"
     sodipodi:cx="260.732849"
     sodipodi:cy="183.912354"
     sodipodi:rx="12.790665"
     sodipodi:ry="12.790680"
     transform="matrix(7.367899e-2,0.000000,0.000000,7.367892e-2,9.024570,1.865653)" />
  <path
     sodipodi:type="arc"
     style="fill-rule:evenodd;stroke:none;fill:#ffffff;fill-opacity:1;stroke-opacity:1;stroke-width:1pt;stroke-linejoin:miter;stroke-linecap:butt;"
     id="path648"
     d="M 273.523499 183.912354 A 12.790665 12.790680 0 1 0 247.942184,183.912354 A 12.7907 12.7907 0 1 0 273.523 183.912 L 260.732849 183.912354 z"
     sodipodi:cx="260.732849"
     sodipodi:cy="183.912354"
     sodipodi:rx="12.790665"
     sodipodi:ry="12.790680"
     transform="matrix(7.367899e-2,0.000000,0.000000,7.367892e-2,22.06116,1.394462)" />
</svg>
