<?xml version="1.0" encoding="UTF-8" standalone="no"?>
<!DOCTYPE svg PUBLIC "-//W3C//DTD SVG 20010904//EN"
"http://www.w3.org/TR/2001/REC-SVG-20010904/DTD/svg10.dtd">
<!-- Created with Inkscape (http://www.inkscape.org/) -->
<svg
   id="svg1"
   sodipodi:version="0.32"
   inkscape:version="0.37"
   width="48pt"
   height="48pt"
   sodipodi:docbase="/home/tom"
   sodipodi:docname="kicker.svg"
   xmlns="http://www.w3.org/2000/svg"
   xmlns:inkscape="http://www.inkscape.org/namespaces/inkscape"
   xmlns:sodipodi="http://sodipodi.sourceforge.net/DTD/sodipodi-0.dtd"
   xmlns:xlink="http://www.w3.org/1999/xlink">
  <defs
     id="defs3">
    <linearGradient
       id="linearGradient866">
      <stop
         style="stop-color:#ffffff;stop-opacity:1;"
         offset="0.00000000"
         id="stop867" />
      <stop
         style="stop-color:#d9cce6;stop-opacity:1;"
         offset="1.00000000"
         id="stop868" />
    </linearGradient>
    <linearGradient
       id="linearGradient584">
      <stop
         style="stop-color:#ffffff;stop-opacity:1;"
         offset="0.00000000"
         id="stop585" />
      <stop
         style="stop-color:#ffffff;stop-opacity:0;"
         offset="1.00000000"
         id="stop586" />
    </linearGradient>
    <linearGradient
       id="linearGradient578">
      <stop
         style="stop-color:#d9cce6;stop-opacity:1;"
         offset="0.00000000"
         id="stop579" />
      <stop
         style="stop-color:#73667f;stop-opacity:1;"
         offset="1.00000000"
         id="stop580" />
    </linearGradient>
    <linearGradient
       xlink:href="#linearGradient578"
       id="linearGradient581"
       x1="0.39751554"
       y1="0.01408451"
       x2="0.45962733"
       y2="0.81690139" />
    <linearGradient
       xlink:href="#linearGradient584"
       id="linearGradient583" />
    <linearGradient
       xlink:href="#linearGradient578"
       id="linearGradient860"
       x1="-1.31343281"
       y1="0.36619717"
       x2="0.41791046"
       y2="0.39436620" />
    <linearGradient
       xlink:href="#linearGradient584"
       id="linearGradient861" />
    <linearGradient
       xlink:href="#linearGradient866"
       id="linearGradient862"
       x1="-0.00000000"
       y1="0.00000000"
       x2="1.00000000"
       y2="0.00000000" />
    <linearGradient
       xlink:href="#linearGradient584"
       id="linearGradient869"
       x1="0.47719297"
       y1="-0.38157895"
       x2="0.46666667"
       y2="1.05263162" />
    <radialGradient
       xlink:href="#linearGradient578"
       id="radialGradient975"
       cx="0.50344825"
       cy="0.74647886"
       r="0.46093005"
       fx="0.50344825"
       fy="0.74647886" />
    <linearGradient
       xlink:href="#linearGradient866"
       id="linearGradient983"
       x1="-0.00000000"
       y1="0.00000000"
       x2="1.00000000"
       y2="0.00000000" />
    <linearGradient
       xlink:href="#linearGradient578"
       id="linearGradient984"
       x1="0.05303030"
       y1="0.05468750"
       x2="0.96212119"
       y2="0.96875000" />
    <radialGradient
       xlink:href="#linearGradient584"
       id="radialGradient628"
       cx="0.26666674"
       cy="0.15492958"
       r="0.88886154"
       fx="0.26666674"
       fy="0.15492958" />
    <radialGradient
       xlink:href="#linearGradient866"
       id="radialGradient635"
       cx="0.50000000"
       cy="0.50000000"
       r="0.50000000"
       fx="0.50000000"
       fy="0.50000000" />
  </defs>
  <sodipodi:namedview
     id="base"
     pagecolor="#ffffff"
     bordercolor="#666666"
     borderopacity="1.0"
     inkscape:pageopacity="0.0"
     inkscape:pageshadow="2"
     inkscape:zoom="0.50000000"
     inkscape:cx="13.9714355"
     inkscape:cy="26.6390991"
     inkscape:window-width="1018"
     inkscape:window-height="711"
     inkscape:window-x="0"
     inkscape:window-y="30" />
  <rect
     style="font-size:12;fill:url(#linearGradient581);fill-opacity:1.0;fill-rule:evenodd;stroke:#261933;stroke-width:1.875;stroke-dasharray:none;stroke-opacity:1;"
     id="rect603"
     width="43.97559403"
     height="50.87143707"
     x="14.68228891"
     y="3.54827857"
     ry="1.55728889" />
  <rect
     style="font-size:12;fill:url(#linearGradient983);fill-opacity:1.0;fill-rule:evenodd;stroke:#261933;stroke-width:1.875;stroke-dasharray:none;"
     id="rect605"
     width="9.54209232"
     height="50.18524942"
     x="3.11457777"
     y="4.00921194"
     ry="0.85300707" />
  <rect
     style="font-size:12;fill:url(#linearGradient869);fill-opacity:1.0;fill-rule:evenodd;stroke:none;stroke-width:1pt;"
     id="rect604"
     width="40.75511202"
     height="15.05379295"
     x="16.21570734"
     y="4.58647108"
     ry="1.09482133" />
  <path
     d="M 25.13541 12.433794 C 25.13541 12.433794 26.899427 35.593048 25.253009 47.815978 C 27.017026 48.459282 31.13306 47.558652 33.132268 46.658016 C 34.073079 40.739526 33.602684 31.861836 33.602684 31.861836 C 36.542703 37.866081 39.953124 42.84103 43.833946 47.944638 C 47.244375 47.687312 49.361195 46.915335 51.595614 45.242721 C 47.753985 40.567983 44.029949 35.121274 41.129125 29.28858 C 45.558754 24.313631 49.165192 19.338682 51.94841 14.363733 C 49.008391 14.192182 46.303571 13.763313 43.48115 11.919142 C 41.207536 16.936983 37.40511 22.212141 33.485079 27.358641 C 34.073086 22.040598 33.602684 16.722528 33.014676 11.790476 C 30.741055 12.648235 28.232237 12.991329 25.13541 12.433794 z "
     style="font-size:12;fill:#000000;fill-rule:evenodd;stroke-width:2.125;stroke-linejoin:round;stroke:#000000;stroke-opacity:0.3;stroke-dasharray:none;fill-opacity:0.3;"
     id="path729" />
  <path
     d="M 24.426748 11.725132 C 24.426748 11.725132 26.190765 34.884386 24.544347 47.107316 C 26.308364 47.75062 30.424398 46.84999 32.423606 45.949354 C 33.364417 40.030864 32.894022 31.153174 32.894022 31.153174 C 35.834041 37.157419 39.244462 42.132368 43.125284 47.235976 C 46.535713 46.97865 48.652533 46.206673 50.886952 44.534059 C 47.045323 39.859321 43.321287 34.412612 40.420463 28.579918 C 44.850092 23.604969 48.45653 18.63002 51.239748 13.655071 C 48.299729 13.48352 45.594909 13.054652 42.772488 11.210481 C 40.498874 16.228321 36.696448 21.503479 32.776417 26.649979 C 33.364424 21.331936 32.894022 16.013866 32.306014 11.081815 C 30.032393 11.939573 27.523575 12.282668 24.426748 11.725132 z "
     style="font-size:12;fill:url(#linearGradient862);fill-rule:evenodd;stroke-width:2.125;stroke-linejoin:round;stroke:#261933;stroke-opacity:1;stroke-dasharray:none;"
     id="path606" />
  <path
     d="M 25.990375 13.288543 C 25.990375 13.288543 26.768932 29.077912 26.421228 41.408967 C 27.305607 35.33613 27.718361 22.66762 27.374434 15.757371 C 28.840845 15.782943 30.030562 14.669316 31.141709 13.480318 C 31.126594 13.192659 31.107693 12.917779 31.08502 12.642905 C 29.614827 13.499491 27.993461 13.844682 25.990375 13.288543 z "
     style="font-size:12;fill:url(#linearGradient583);fill-rule:evenodd;stroke-width:12.5;stroke-linejoin:round;"
     id="path619" />
  <path
     d="M 48.782891 14.842295 C 47.263743 14.50989 44.93033 13.767977 43.399503 12.770755 C 41.693383 16.53591 38.355161 21.601623 35.527211 25.488234 C 38.074703 23.813416 42.447111 18.326958 43.983784 15.424776 C 45.128988 15.865859 47.567582 15.385656 48.782891 14.842295 z "
     style="font-size:12;fill:url(#linearGradient861);fill-rule:evenodd;stroke-width:12.5;stroke-linejoin:round;"
     id="path631" />
  <path
     style="fill:#261933;fill-rule:evenodd;stroke:none;stroke-opacity:1;stroke-width:1pt;stroke-linejoin:miter;stroke-linecap:butt;fill-opacity:1;"
     d="M 11.09375 35.15625 C 11.71875 34.479167 11.5625 20.520833 11.09375 20.46875 C 9.7395833 20.78125 4.3229167 27.03125 4.21875 27.96875 C 4.4791667 29.114583 9.7395833 34.635417 11.09375 35.15625 z "
     id="path607"
     sodipodi:nodetypes="cccc" />
</svg>
