<?xml version="1.0" encoding="UTF-8" standalone="no"?>
<!DOCTYPE svg PUBLIC "-//W3C//DTD SVG 20010904//EN"
"http://www.w3.org/TR/2001/REC-SVG-20010904/DTD/svg10.dtd">
<!-- Created with Inkscape (http://www.inkscape.org/) -->
<svg
   id="svg1"
   sodipodi:version="0.32"
   inkscape:version="0.38"
   width="48pt"
   height="48pt"
   sodipodi:docbase="/usr/share/icons/Lila/scalable/apps"
   sodipodi:docname="revelation.svg"
   xmlns="http://www.w3.org/2000/svg"
   xmlns:inkscape="http://www.inkscape.org/namespaces/inkscape"
   xmlns:sodipodi="http://sodipodi.sourceforge.net/DTD/sodipodi-0.dtd"
   xmlns:xlink="http://www.w3.org/1999/xlink">
  <defs
     id="defs3">
    <linearGradient
       id="linearGradient584">
      <stop
         style="stop-color:#ffffff;stop-opacity:1;"
         offset="0.00000000"
         id="stop585" />
      <stop
         style="stop-color:#ffffff;stop-opacity:0;"
         offset="1.00000000"
         id="stop586" />
    </linearGradient>
    <linearGradient
       id="linearGradient578">
      <stop
         style="stop-color:#d7cce6;stop-opacity:1.0000000;"
         offset="0.0000000"
         id="stop579" />
      <stop
         style="stop-color:#73667f;stop-opacity:1;"
         offset="1.00000000"
         id="stop580" />
    </linearGradient>
    <linearGradient
       xlink:href="#linearGradient578"
       id="linearGradient581"
       y2="1.01562500"
       x2="0.98888886"
       y1="-0.00000000"
       x1="-0.00000000" />
    <linearGradient
       xlink:href="#linearGradient584"
       id="linearGradient583"
       x1="-0.00000000"
       y1="0.00000000"
       x2="1.00000000"
       y2="1.02343750" />
    <linearGradient
       xlink:href="#linearGradient584"
       id="linearGradient860"
       x1="-0.00000000"
       y1="-0.00000000"
       x2="0.97972971"
       y2="1.00000000" />
    <linearGradient
       xlink:href="#linearGradient584"
       id="linearGradient861"
       x1="0.00000000"
       y1="-0.00000000"
       x2="0.96875000"
       y2="1.00000000" />
    <linearGradient
       xlink:href="#linearGradient578"
       id="linearGradient862" />
    <linearGradient
       xlink:href="#linearGradient584"
       id="linearGradient847" />
  </defs>
  <sodipodi:namedview
     id="base"
     pagecolor="#ffffff"
     bordercolor="#666666"
     borderopacity="1.0"
     inkscape:pageopacity="0.0"
     inkscape:pageshadow="2"
     inkscape:zoom="3.9897360"
     inkscape:cx="25.514238"
     inkscape:cy="21.627785"
     inkscape:window-width="1035"
     inkscape:window-height="882"
     inkscape:window-x="8"
     inkscape:window-y="32" />
  <path
     style="font-size:12.000000;opacity:0.69993597;fill:#0a0c14;fill-opacity:0.41935483;fill-rule:evenodd;stroke-width:0.19545500pt;"
     d="M 28.767972,9.1511412 C 21.632951,9.1511402 15.827418,16.743728 15.611722,26.182391 L 13.392972,26.182391 C 12.907565,26.182391 12.517972,26.571987 12.517972,27.057391 L 12.517972,50.463641 C 12.517972,50.949044 12.907568,51.338641 13.392972,51.338641 L 36.486722,51.338641 C 38.455457,54.043650 41.655679,55.932390 45.455472,55.932391 C 51.508502,55.932391 56.424222,51.409364 56.424222,45.838641 C 56.424222,41.334835 53.165432,37.667066 48.736722,36.369891 C 48.736722,34.542369 48.736722,32.697412 48.736722,30.869891 C 47.946442,30.026369 46.440752,29.340327 46.361722,28.338641 C 47.310052,27.231515 48.257142,26.133266 49.205472,25.026141 C 48.770822,24.367139 48.695122,23.856065 47.549222,23.276141 C 47.154082,22.379896 47.349562,21.484885 46.361722,20.588641 C 46.914912,20.061439 47.464782,19.522093 48.017972,18.994891 C 48.096992,18.388608 46.063944,19.134335 46.142972,18.369891 C 47.249352,17.368208 48.823252,16.529737 49.455472,15.369891 C 48.526892,14.763609 47.233312,14.154738 46.299222,13.369891 C 45.518823,12.635101 43.746129,12.528473 42.580472,12.119891 C 42.437167,12.734458 42.465672,20.345014 42.455472,26.182391 L 41.892972,26.182391 C 41.677277,16.743727 35.902996,9.1511402 28.767972,9.1511412 z M 28.611722,14.901141 C 32.667123,14.901140 35.989874,19.672661 37.205472,26.182391 L 19.986722,26.182391 C 21.209746,19.672661 24.556321,14.901141 28.611722,14.901141 z M 46.049222,48.807391 C 47.281482,49.077277 48.267972,49.949741 48.267972,51.119891 C 48.267972,52.493493 47.011962,53.588641 45.455472,53.588641 C 43.994929,53.588639 42.878627,52.593877 42.736722,51.338641 L 45.174222,51.338641 C 45.659628,51.338641 46.049222,50.949044 46.049222,50.463641 L 46.049222,48.807391 z "
     id="path878" />
  <rect
     style="fill:url(#linearGradient862);fill-opacity:1.00000000;fill-rule:evenodd;stroke:#000000;stroke-width:1.8750000;"
     id="rect845"
     width="33.523521"
     height="25.158882"
     x="10.965641"
     y="24.001093"
     ry="0.87618005" />
  <path
     style="fill:#b3b8ca;fill-opacity:0.41935483;fill-rule:evenodd;stroke:#000000;stroke-width:1.8750000;"
     d="M 27.810713,6.5871870 C 20.595197,6.5871880 14.744363,14.344120 14.654463,23.930937 L 18.998213,23.930937 C 20.166299,17.253541 23.532216,12.337187 27.654463,12.337187 C 31.776709,12.337188 35.149798,17.253542 36.310713,23.930937 L 40.966963,23.930937 C 40.877062,14.344120 35.026230,6.5871860 27.810713,6.5871870 z "
     id="path862" />
  <path
     d="M 27.806494,8.3943810 C 23.842028,10.159974 18.326609,15.797411 17.171638,20.979747 C 17.023774,15.508113 20.292808,11.875408 22.801557,9.5631480 C 23.419960,8.8813350 28.456126,8.0876540 27.806494,8.3943810 z "
     style="font-size:12.000000;opacity:0.69993597;fill:url(#linearGradient860);fill-rule:evenodd;stroke-width:0.19545500pt;"
     id="path856"
     sodipodi:nodetypes="cccc" />
  <path
     d="M 28.746405,26.096052 C 16.479385,26.451778 13.313746,32.402518 12.628730,43.850933 C 12.480866,38.379299 12.146905,29.263776 13.715742,26.324908 C 14.334145,25.643095 30.335949,25.319369 28.746405,26.096052 z "
     style="font-size:12.000000;opacity:0.69993597;fill:url(#linearGradient860);fill-rule:evenodd;stroke-width:0.19545500pt;"
     id="path857"
     sodipodi:nodetypes="cccc" />
  <path
     style="fill:#e3e9ed;fill-rule:evenodd;stroke:#000000;stroke-width:1.8793560;"
     d="M 40.425605,10.548712 C 40.177656,11.607134 40.287470,25.357609 40.205838,34.762251 C 35.674774,36.014102 32.294205,39.719520 32.294205,44.276682 C 32.294205,49.847405 37.232789,54.370252 43.313979,54.370253 C 49.395168,54.370253 54.333754,49.847406 54.333753,44.276682 C 54.333753,39.772877 51.059800,36.087004 46.610492,34.789829 C 46.610492,32.962307 46.610492,31.129315 46.610492,29.301794 C 45.816541,28.458271 44.303839,27.766298 44.224444,26.764613 C 45.177187,25.657487 46.128681,24.562370 47.081423,23.455245 C 46.644750,22.796242 46.568698,22.297751 45.417468,21.717827 C 45.020491,20.821584 45.216885,19.911421 44.224444,19.015177 C 44.780211,18.487975 45.332634,17.970429 45.888399,17.443228 C 45.967794,16.836944 43.925281,17.573376 44.004677,16.808932 C 45.116209,15.807248 46.697425,14.962769 47.332586,13.802923 C 46.399691,13.196641 45.100093,12.602150 44.161654,11.817303 C 43.377627,11.082514 41.596684,10.957294 40.425605,10.548712 z M 43.313979,47.034489 C 44.877712,47.034489 46.139562,48.170490 46.139562,49.544092 C 46.139562,50.917694 44.877713,52.026118 43.313979,52.026118 C 41.750243,52.026116 40.488396,50.917695 40.488396,49.544092 C 40.488396,48.170489 41.750244,47.034489 43.313979,47.034489 z "
     id="path854" />
  <rect
     style="fill:#0000ff;fill-opacity:0.0000000;fill-rule:evenodd;stroke:#000000;stroke-width:0.34966749;"
     id="rect855"
     width="1.1045704"
     height="20.796522"
     ry="0.72425711"
     x="41.636913"
     y="13.448851" />
  <path
     d="M 41.775391,36.752834 C 37.810925,38.310966 34.331982,44.668443 35.526791,50.071314 C 31.932583,45.104363 35.358269,38.304137 38.806930,36.816553 C 39.425333,36.214854 42.425023,36.482148 41.775391,36.752834 z "
     style="font-size:12.000000;opacity:0.69993597;fill:url(#linearGradient860);fill-rule:evenodd;stroke-width:0.19545500pt;"
     id="path671"
     sodipodi:nodetypes="cccc" />
</svg>
