<?xml version="1.0" encoding="UTF-8" standalone="no"?>
<!DOCTYPE svg PUBLIC "-//W3C//DTD SVG 20010904//EN"
"http://www.w3.org/TR/2001/REC-SVG-20010904/DTD/svg10.dtd">
<!-- Created with Sodipodi ("http://www.sodipodi.com/") -->
<svg
   id="svg613"
   sodipodi:version="0.32"
   width="72pt"
   height="72pt"
   xml:space="preserve"
   sodipodi:docbase="/home/dan/Projects/Lila-icons/scalable/apps"
   sodipodi:docname="porthole.svg"
   xmlns="http://www.w3.org/2000/svg"
   xmlns:sodipodi="http://sodipodi.sourceforge.net/DTD/sodipodi-0.dtd"
   xmlns:xml="http://www.w3.org/XML/1998/namespace"
   xmlns:xlink="http://www.w3.org/1999/xlink"
   xmlns:inkscape="http://www.inkscape.org/namespaces/inkscape"
   inkscape:version="0.38">
  <defs
     id="defs615">
    <linearGradient
       id="linearGradient693">
      <stop
         style="stop-color:#ffffff;stop-opacity:1.0000000;"
         offset="0.0000000"
         id="stop694" />
      <stop
         style="stop-color:#ffffff;stop-opacity:0.0000000;"
         offset="1.0000000"
         id="stop695" />
    </linearGradient>
    <linearGradient
       id="linearGradient669">
      <stop
         style="stop-color:#d9cce6;stop-opacity:1;"
         offset="0"
         id="stop670" />
      <stop
         style="stop-color:#73667f;stop-opacity:1;"
         offset="1"
         id="stop671" />
    </linearGradient>
    <linearGradient
       xlink:href="#linearGradient669"
       id="linearGradient672"
       x1="9.3132257e-10"
       y1="9.3132257e-10"
       x2="0.95483869"
       y2="0.96753246" />
    <linearGradient
       xlink:href="#linearGradient693"
       id="linearGradient679"
       x1="0.011299435"
       y1="0.0064935065"
       x2="0.64406782"
       y2="0.66233766" />
    <linearGradient
       xlink:href="#linearGradient669"
       id="linearGradient682" />
    <radialGradient
       xlink:href="#linearGradient693"
       id="radialGradient692"
       cx="0.30718955"
       cy="0.28571430"
       r="0.96838760"
       fx="0.30065361"
       fy="0.29220784" />
    <linearGradient
       xlink:href="#linearGradient693"
       id="linearGradient696"
       x1="0.011299435"
       y1="0.0064935065"
       x2="1.0960453"
       y2="1.1233766" />
    <linearGradient
       xlink:href="#linearGradient693"
       id="linearGradient861" />
  </defs>
  <sodipodi:namedview
     id="base"
     inkscape:zoom="3.5649967"
     inkscape:cx="45.955109"
     inkscape:cy="30.881241"
     inkscape:window-width="640"
     inkscape:window-height="503"
     inkscape:window-x="0"
     inkscape:window-y="25" />
  <path
     style="font-size:12.000000;fill:#000000;fill-rule:evenodd;stroke:none;stroke-width:1.8750000;stroke-dasharray:none;fill-opacity:1.0000000;opacity:0.30412371;"
     d="M 47.685879,7.9242243 C 25.331629,7.9242243 7.3352476,25.920606 7.3352476,48.274856 C 7.3352476,70.629105 25.331629,88.625483 47.685879,88.625483 C 70.040128,88.625483 88.036514,70.629105 88.036514,48.274856 C 88.036514,25.920606 70.040128,7.9242243 47.685879,7.9242243 z M 47.685879,28.099540 C 58.863003,28.099540 67.861194,37.097731 67.861194,48.274856 C 67.861194,59.451981 58.863003,68.450171 47.685879,68.450171 C 36.508754,68.450171 27.510563,59.451981 27.510563,48.274856 C 27.510563,37.097731 36.508754,28.099540 47.685879,28.099540 z "
     id="path860" />
  <path
     style="font-size:12.000000;fill:url(#linearGradient672);fill-rule:evenodd;stroke:#000000;stroke-width:1.8750000;stroke-dasharray:none;"
     d="M 45.000000,5.0000000 C 22.840000,5.0000000 5.0000000,22.840000 5.0000000,45.000000 C 5.0000000,67.160000 22.840000,85.000000 45.000000,85.000000 C 67.160000,85.000000 85.000000,67.160000 85.000000,45.000000 C 85.000000,22.840000 67.160000,5.0000000 45.000000,5.0000000 z M 45.000000,25.000000 C 56.080000,25.000000 65.000000,33.920000 65.000000,45.000000 C 65.000000,56.080000 56.080000,65.000000 45.000000,65.000000 C 33.920000,65.000000 25.000000,56.080000 25.000000,45.000000 C 25.000000,33.920000 33.920000,25.000000 45.000000,25.000000 z "
     id="path847" />
  <rect
     style="font-size:12;fill:url(#linearGradient682);fill-rule:evenodd;stroke:#000000;stroke-width:1.8750000;stroke-dasharray:none;"
     id="rect683"
     rx="50"
     width="12"
     height="12"
     x="9"
     y="39" />
  <rect
     style="font-size:12;fill:url(#linearGradient682);fill-rule:evenodd;stroke:#000000;stroke-width:1.8750000;stroke-dasharray:none;"
     id="rect684"
     rx="50"
     width="12"
     height="12"
     y="9"
     x="39" />
  <rect
     style="font-size:12;fill:url(#linearGradient682);fill-rule:evenodd;stroke:#000000;stroke-width:1.8750000;stroke-dasharray:none;"
     id="rect685"
     rx="50"
     width="12"
     height="12"
     x="69"
     y="39" />
  <rect
     style="font-size:12;fill:url(#linearGradient682);fill-rule:evenodd;stroke:#000000;stroke-width:1.8750000;stroke-dasharray:none;"
     id="rect686"
     rx="50"
     width="12"
     height="12"
     y="69"
     x="39" />
  <rect
     style="font-size:12;fill:url(#linearGradient682);fill-rule:evenodd;stroke:#000000;stroke-width:1.8750000;stroke-dasharray:none;"
     id="rect687"
     rx="50"
     width="12"
     height="12"
     x="17.79"
     y="60.21" />
  <rect
     style="font-size:12;fill:url(#linearGradient682);fill-rule:evenodd;stroke:#000000;stroke-width:1.8750000;stroke-dasharray:none;"
     id="rect688"
     rx="50"
     width="12"
     height="12"
     x="17.79"
     y="17.79" />
  <rect
     style="font-size:12;fill:url(#linearGradient682);fill-rule:evenodd;stroke:#000000;stroke-width:1.8750000;stroke-dasharray:none;"
     id="rect689"
     rx="50"
     width="12"
     height="12"
     x="60.21"
     y="17.79" />
  <rect
     style="font-size:12;fill:url(#linearGradient682);fill-rule:evenodd;stroke:#000000;stroke-width:1.8750000;stroke-dasharray:none;"
     id="rect690"
     rx="50"
     width="12"
     height="12"
     x="60.21"
     y="60.21" />
  <path
     transform="translate(4.462810,0.247934)"
     style="fill:url(#radialGradient692);fill-rule:evenodd;stroke-width:1.0000000pt;"
     d="M 59.504131,44.628098 C 59.504131,55.166280 51.006941,63.719007 40.537189,63.719007 C 30.067438,63.719007 21.570248,55.166280 21.570248,44.628098 C 21.570248,34.089915 30.067438,25.537188 40.537189,25.537188 C 51.006941,25.537188 59.504131,34.089915 59.504131,44.628098 z "
     id="path849" />
  <path
     style="fill:url(#linearGradient679);fill-rule:evenodd;stroke:none;stroke-opacity:1;stroke-width:1pt;stroke-linejoin:miter;stroke-linecap:butt;fill-opacity:1;"
     d="M 12.644628,64.214876 C 11.818182,63.099174 -2.5619836,30.537190 24.793388,13.884297 C 52.148760,-2.5206620 71.818182,18.223140 72.644628,19.338843 C 73.471074,20.454545 54.380166,0.95041299 28.512397,17.355372 C 2.1487605,34.256198 13.471074,65.330579 12.644628,64.214876 z "
     id="path850"
     sodipodi:nodetypes="czzzz" />
  <path
     style="fill:url(#linearGradient696);fill-rule:evenodd;stroke:none;stroke-opacity:1;stroke-width:1pt;stroke-linejoin:miter;stroke-linecap:butt;fill-opacity:1;"
     d="M 67.001995,34.173097 C 67.518776,34.870749 76.510742,55.231867 59.405335,65.644977 C 42.299929,75.903053 30.000573,62.931884 29.483794,62.234231 C 28.967014,61.536578 40.904624,73.732579 57.079826,63.474502 C 73.565097,52.906359 66.485216,33.475443 67.001995,34.173097 z "
     id="path851"
     sodipodi:nodetypes="czzzz" />
  <path
     style="fill:url(#linearGradient679);fill-rule:evenodd;stroke:none;stroke-opacity:1;stroke-width:1pt;stroke-linejoin:miter;stroke-linecap:butt;fill-opacity:1;"
     d="M 19.837904,68.950520 C 19.730435,68.805437 17.860471,64.571152 21.417700,62.405649 C 24.974929,60.272386 27.532695,62.969862 27.640164,63.114945 C 27.747633,63.260028 24.803630,61.579682 22.032798,63.382966 C 19.174308,65.186249 19.945372,69.095603 19.837904,68.950520 z "
     id="path852"
     sodipodi:nodetypes="czzzz" />
  <path
     style="fill:url(#linearGradient679);fill-rule:evenodd;stroke:none;stroke-opacity:1;stroke-width:1pt;stroke-linejoin:miter;stroke-linecap:butt;fill-opacity:1;"
     d="M 41.003733,77.636305 C 40.896264,77.491222 39.026300,73.256937 42.583529,71.091434 C 46.140758,68.958171 48.698524,71.655647 48.805993,71.800730 C 48.913462,71.945813 45.969459,70.265467 43.198627,72.068751 C 40.340137,73.872034 41.111201,77.781388 41.003733,77.636305 z "
     id="path853"
     sodipodi:nodetypes="czzzz" />
  <path
     style="fill:url(#linearGradient679);fill-rule:evenodd;stroke:none;stroke-opacity:1;stroke-width:1pt;stroke-linejoin:miter;stroke-linecap:butt;fill-opacity:1;"
     d="M 62.221731,68.872214 C 62.114262,68.727131 60.244298,64.492846 63.801527,62.327343 C 67.358756,60.194080 69.916522,62.891556 70.023991,63.036639 C 70.131460,63.181722 67.187457,61.501376 64.416625,63.304660 C 61.558135,65.107943 62.329199,69.017297 62.221731,68.872214 z "
     id="path854"
     sodipodi:nodetypes="czzzz" />
  <path
     style="fill:url(#linearGradient679);fill-rule:evenodd;stroke:none;stroke-opacity:1;stroke-width:1pt;stroke-linejoin:miter;stroke-linecap:butt;fill-opacity:1;"
     d="M 70.899860,47.659011 C 70.792391,47.513928 68.922427,43.279643 72.479656,41.114140 C 76.036885,38.980877 78.594651,41.678353 78.702120,41.823436 C 78.809589,41.968519 75.865586,40.288173 73.094754,42.091457 C 70.236264,43.894740 71.007328,47.804094 70.899860,47.659011 z "
     id="path855"
     sodipodi:nodetypes="czzzz" />
  <path
     style="fill:url(#linearGradient679);fill-rule:evenodd;stroke:none;stroke-opacity:1;stroke-width:1pt;stroke-linejoin:miter;stroke-linecap:butt;fill-opacity:1;"
     d="M 62.134073,26.533466 C 62.026604,26.388383 60.156640,22.154098 63.713869,19.988595 C 67.271098,17.855332 69.828864,20.552808 69.936333,20.697891 C 70.043802,20.842974 67.099799,19.162628 64.328967,20.965912 C 61.470477,22.769195 62.241541,26.678549 62.134073,26.533466 z "
     id="path856"
     sodipodi:nodetypes="czzzz" />
  <path
     style="fill:url(#linearGradient679);fill-rule:evenodd;stroke:none;stroke-opacity:1;stroke-width:1pt;stroke-linejoin:miter;stroke-linecap:butt;fill-opacity:1;"
     d="M 41.008527,17.592363 C 40.901058,17.447280 39.031094,13.212995 42.588323,11.047492 C 46.145552,8.9142294 48.703318,11.611705 48.810787,11.756788 C 48.918256,11.901871 45.974253,10.221525 43.203421,12.024809 C 40.344931,13.828092 41.115995,17.737446 41.008527,17.592363 z "
     id="path857"
     sodipodi:nodetypes="czzzz" />
  <path
     style="fill:url(#linearGradient679);fill-rule:evenodd;stroke:none;stroke-opacity:1;stroke-width:1pt;stroke-linejoin:miter;stroke-linecap:butt;fill-opacity:1;"
     d="M 19.795324,26.445807 C 19.687855,26.300724 17.817891,22.066439 21.375120,19.900936 C 24.932349,17.767673 27.490115,20.465149 27.597584,20.610232 C 27.705053,20.755315 24.761050,19.074969 21.990218,20.878253 C 19.131728,22.681536 19.902792,26.590890 19.795324,26.445807 z "
     id="path858"
     sodipodi:nodetypes="czzzz" />
  <path
     style="fill:url(#linearGradient679);fill-rule:evenodd;stroke:none;stroke-opacity:1;stroke-width:1pt;stroke-linejoin:miter;stroke-linecap:butt;fill-opacity:1;"
     d="M 10.854222,47.746669 C 10.746753,47.601586 8.8767890,43.367301 12.434018,41.201798 C 15.991247,39.068535 18.549013,41.766011 18.656482,41.911094 C 18.763951,42.056177 15.819948,40.375831 13.049116,42.179115 C 10.190626,43.982398 10.961690,47.891752 10.854222,47.746669 z "
     id="path859"
     sodipodi:nodetypes="czzzz" />
</svg>
