<?xml version="1.0" encoding="UTF-8" standalone="no"?>
<!DOCTYPE svg PUBLIC "-//W3C//DTD SVG 20010904//EN"
"http://www.w3.org/TR/2001/REC-SVG-20010904/DTD/svg10.dtd">
<!-- Created with Inkscape (http://www.inkscape.org/) -->
<svg
   version="1.0"
   x="0"
   y="0"
   width="48pt"
   height="48pt"
   id="svg1418"
   sodipodi:version="0.32"
   inkscape:version="0.37"
   sodipodi:docname="quanta.svg"
   sodipodi:docbase="/home/tom"
   xmlns="http://www.w3.org/2000/svg"
   xmlns:inkscape="http://www.inkscape.org/namespaces/inkscape"
   xmlns:sodipodi="http://sodipodi.sourceforge.net/DTD/sodipodi-0.dtd"
   xmlns:xlink="http://www.w3.org/1999/xlink">
  <sodipodi:namedview
     id="base"
     pagecolor="#ffffff"
     bordercolor="#666666"
     borderopacity="1.0"
     inkscape:pageopacity="0.0"
     inkscape:pageshadow="2"
     inkscape:zoom="2"
     inkscape:cx="-8.33459473"
     inkscape:cy="43.0000000"
     inkscape:window-width="1018"
     inkscape:window-height="711"
     inkscape:window-x="0"
     inkscape:window-y="30" />
  <defs
     id="defs1420">
    <linearGradient
       id="linearGradient636">
      <stop
         style="stop-color:#d9cce6;stop-opacity:1;"
         offset="0.00000000"
         id="stop637" />
      <stop
         style="stop-color:#73667f;stop-opacity:1;"
         offset="1.00000000"
         id="stop638" />
    </linearGradient>
    <linearGradient
       id="linearGradient1439">
      <stop
         style="stop-color:#ffffff;stop-opacity:1;"
         offset="0"
         id="stop1440" />
      <stop
         style="stop-color:#ffffff;stop-opacity:0;"
         offset="1"
         id="stop1441" />
    </linearGradient>
    <linearGradient
       id="linearGradient1432">
      <stop
         style="stop-color:#ffffff;stop-opacity:1;"
         offset="0.00000000"
         id="stop1433" />
      <stop
         style="stop-color:#e1d7eb;stop-opacity:1;"
         offset="1.00000000"
         id="stop1434" />
    </linearGradient>
    <linearGradient
       id="linearGradient1428">
      <stop
         style="stop-color:#f50000;stop-opacity:1;"
         offset="0.00000000"
         id="stop1429" />
      <stop
         style="stop-color:#a90000;stop-opacity:1;"
         offset="1.00000000"
         id="stop1430" />
    </linearGradient>
    <linearGradient
       id="linearGradient1422">
      <stop
         style="stop-color:#d7a600;stop-opacity:1;"
         offset="0.00000000"
         id="stop1423" />
      <stop
         style="stop-color:#fff300;stop-opacity:1;"
         offset="1.00000000"
         id="stop1424" />
    </linearGradient>
    <linearGradient
       x1="0.64516127"
       y1="0.66406250"
       x2="0.32258064"
       y2="0.32031250"
       id="linearGradient1425"
       xlink:href="#linearGradient1422" />
    <linearGradient
       x1="0.01923077"
       y1="0.00781250"
       x2="0.98076922"
       y2="0.98437500"
       id="linearGradient1427"
       xlink:href="#linearGradient1428" />
    <linearGradient
       x1="0.98101264"
       y1="0.92187500"
       x2="0.01898734"
       y2="0.02343750"
       id="linearGradient1435"
       xlink:href="#linearGradient1432" />
    <linearGradient
       x1="0.015748"
       y1="0.023437"
       x2="0.984252"
       y2="0.984375"
       id="linearGradient1438"
       xlink:href="#linearGradient1439" />
    <linearGradient
       id="linearGradient1443"
       xlink:href="#linearGradient1432"
       x1="0.00000000"
       y1="-0.00000000"
       x2="1.00000000"
       y2="-0.00000000" />
    <radialGradient
       xlink:href="#linearGradient1439"
       id="radialGradient621"
       cx="0.50000000"
       cy="0.50000000"
       r="0.50000000"
       fx="0.50000000"
       fy="0.50000000" />
    <linearGradient
       xlink:href="#linearGradient1439"
       id="linearGradient630"
       x1="-0.00000000"
       y1="0.00000000"
       x2="1.00000000"
       y2="0.00000000" />
    <linearGradient
       xlink:href="#linearGradient636"
       id="linearGradient631"
       x1="0.00000000"
       y1="0.00000000"
       x2="1.00000000"
       y2="0.00000000" />
    <linearGradient
       xlink:href="#linearGradient636"
       id="linearGradient639" />
  </defs>
  <path
     d="M 4.3742061 45.725038 C 5.1314891 47.987368 36.489604 58.159951 38.548486 56.452889 C 40.391412 54.908825 54.181164 8.9496416 53.257849 7.126902 C 52.298088 5.1173763 20.483082 0.11203341 18.972958 1.4864925 C 17.112813 3.1894488 3.5789051 43.129306 4.3742061 45.725038 z "
     style="font-size:12;fill:url(#linearGradient1443);fill-rule:evenodd;stroke:#261933;stroke-width:1.87726;"
     id="path634" />
  <path
     d="M 27.37174 44.619453 C 28.143248 45.379453 31.649615 44.499511 33.058597 43.078705 C 41.439258 34.627556 51.682653 23.962785 56.740725 15.003669 C 57.707067 13.292011 52.679923 9.7693913 51.131773 11.066312 C 43.279756 17.644143 35.337394 29.029152 28.540287 38.627816 C 27.417405 40.21353 26.637145 43.895821 27.37174 44.619453 z "
     style="font-size:12;opacity:0.3;fill:#3f3f19;fill-rule:evenodd;stroke-width:12.5;"
     id="path1442" />
  <path
     d="M 26.047376 43.506713 C 26.818885 44.266713 30.325252 43.386771 31.734234 41.965965 C 40.114895 33.514817 50.35829 22.850045 55.416357 13.890929 C 56.382705 12.17927 51.355561 8.6566578 49.80741 9.953578 C 41.955394 16.531403 34.01303 27.91641 27.215924 37.515076 C 26.093042 39.10079 25.312775 42.783081 26.047376 43.506713 z "
     style="font-size:12;fill:url(#linearGradient1425);fill-rule:evenodd;stroke:#3f3f19;stroke-width:1.21006;"
     id="path1421" />
  <path
     d="M 46.866661 13.248993 C 46.923974 13.89411 51.873672 17.733359 52.514502 17.657084 C 52.729074 17.645878 55.164343 13.691604 55.143747 13.420196 C 55.008595 11.89644 52.292098 10.130391 50.586483 10.103358 C 49.616785 10.087815 46.848635 13.067525 46.866661 13.248993 z "
     style="font-size:12;fill:url(#linearGradient1427);fill-rule:evenodd;stroke-width:1pt;"
     id="path1426" />
  <path
     d="M 44.442975 15.828085 C 44.503709 16.511809 49.7499 20.581038 50.429091 20.500209 C 50.656498 20.488353 52.686828 17.749843 52.664919 17.462169 C 52.521674 15.8471 48.695844 13.070272 46.898313 13.15985 C 46.529236 13.172213 44.42389 15.635772 44.442975 15.828085 z "
     style="font-size:12;fill:url(#linearGradient1435);fill-rule:evenodd;stroke:#3f3f19;stroke-width:0.645365pt;"
     id="path1431" />
  <ellipse
     cx="152.361847"
     cy="565.562134"
     rx="26.788887"
     ry="26.788879"
     transform="matrix(6.580033e-2,0.000000,0.000000,7.229817e-2,16.31359,2.216144)"
     style="font-size:12;fill:#3f3f19;fill-rule:evenodd;stroke-width:1pt;"
     id="path1436" />
  <path
     d="M 27.215924 40.51089 C 30.594573 33.90414 41.79609 18.834748 50.197014 10.980689 C 51.118286 10.01843 53.987245 12.077691 54.014155 12.521385 C 54.039155 12.933629 51.252848 12.608504 50.352825 13.548524 C 42.32006 21.938363 30.083371 36.091955 27.215924 40.51089 z "
     style="font-size:12;opacity:0.990000;fill:url(#linearGradient1438);fill-rule:evenodd;stroke:none;stroke-width:0.106874pt;"
     id="path1437" />
  <ellipse
     cx="286.926392"
     cy="278.069977"
     rx="278.198608"
     ry="278.198578"
     transform="matrix(5.046999e-2,0.000000,0.000000,5.046999e-2,4.081430,5.628453)"
     style="font-size:12;opacity:0.302675;fill-rule:evenodd;stroke-width:13.2536;"
     id="path1023" />
  <ellipse
     cx="286.926392"
     cy="278.069977"
     rx="278.198608"
     ry="278.198578"
     transform="matrix(5.046999e-2,0.000000,0.000000,5.046999e-2,2.855420,4.110533)"
     style="font-size:12;fill:url(#linearGradient639);fill-rule:evenodd;stroke:#261933;stroke-width:19.8805;stroke-opacity:1;stroke-dasharray:none;"
     id="path983" />
  <path
     d="M 7.255134 8.7288384 C 7.766612 8.4454331 8.328605 9.4472513 9.020262 9.5430394 C 9.638015 9.6285 11.140073 8.6587897 11.947156 9.1200719 C 12.481966 9.3491613 12.026891 11.362643 11.86405 12.56813 C 11.659043 13.535646 11.004418 14.921473 10.594936 16.121129 C 10.382061 16.646733 8.9028 18.550995 8.84233 18.671934 C 8.781967 18.792767 9.422037 20.406505 9.023686 20.605788 C 8.608478 20.851521 8.095716 18.489562 7.210665 17.825786 C 6.828742 17.59659 5.948073 17.702867 5.639388 17.94678 C 5.271619 18.146222 5.588123 20.236388 6.122782 20.84756 C 6.670879 21.669466 7.496263 22.301723 7.996342 23.143912 C 8.644439 24.235577 9.043807 25.480771 9.567539 26.649174 C 9.567539 26.649174 9.135314 28.140637 9.195784 28.140637 C 9.256253 28.140637 10.111446 29.85209 10.111446 29.85209 C 8.355468 28.518333 6.941868 27.216949 5.760247 25.62178 C 4.92744 24.497417 4.263225 22.954474 4.06809 21.693548 C 4.001349 21.262339 4.807972 21.003604 4.974617 20.545372 C 5.280166 19.78142 3.677889 17.885347 3.613139 17.265933 C 3.533613 16.598947 3.93708 13.930519 4.853737 12.326413 C 5.510042 11.073405 6.275952 9.2713003 7.255134 8.7288384 z "
     style="font-size:12;opacity:0.504459;fill:#261933;fill-rule:evenodd;stroke:#000000;stroke-width:0.0611109pt;"
     id="path565" />
  <path
     d="M 17.66572 13.293339 C 17.339023 13.762488 16.989368 14.602268 17.182176 15.04573 C 17.392268 15.528794 18.301027 16.063334 18.874365 16.07318 C 19.469483 16.083455 20.077016 15.416791 20.687386 15.106254 C 21.225246 14.832642 21.744108 14.413313 22.319105 14.320575 C 22.993102 14.211891 23.947828 14.177642 24.434262 14.501985 C 24.793868 14.741777 24.937015 15.537355 24.857334 16.012818 C 24.688395 16.375369 24.123083 16.687511 24.313374 16.919329 C 24.479963 17.06055 25.636056 16.208729 25.82421 15.710683 C 25.978541 15.302272 25.246214 14.72005 25.340772 14.199796 C 25.417189 13.856136 26.672872 13.943041 27.093379 14.018548 C 27.44025 14.102939 27.777061 14.96316 28.120829 14.925005 C 28.435753 14.925005 29.221914 13.908793 29.307104 13.913555 C 29.634981 13.96771 29.873328 14.925005 29.873328 14.925005 C 29.309193 15.448791 28.854118 16.167738 28.181191 16.496309 C 27.121685 17.013726 25.871247 17.325279 24.676032 17.463235 C 22.728747 17.687937 20.420089 16.897175 18.75348 17.584068 C 17.438664 18.126047 15.750969 19.910761 15.731812 21.149694 C 15.710674 22.509353 16.592676 24.820101 18.174308 24.959876 C 20.089004 25.170558 22.089909 25.60171 22.779798 26.483768 C 23.318781 27.17296 22.690645 29.769947 22.777444 30.628619 C 22.810089 30.913308 23.638683 30.408947 24.132129 30.154279 C 24.887729 29.764382 25.801734 28.994438 26.065929 28.159954 C 26.567239 26.577095 26.623639 24.613915 26.42864 22.902245 C 26.261036 21.431173 24.800453 18.768312 24.978274 18.611465 C 25.142881 18.46623 26.436131 21.40934 27.455929 21.995789 C 28.047677 22.335971 29.405569 21.834501 29.812909 21.39136 C 30.09059 21.089225 29.314114 19.935644 29.510721 19.759694 C 29.696894 19.593107 30.879746 20.760654 30.961141 20.364124 C 31.609608 17.353212 31.000094 15.12996 29.940056 12.342307 C 29.072612 10.214575 26.613635 7.2855387 23.988072 5.8497724 C 23.618348 5.6457918 22.016114 6.5485666 20.779749 7.3393725 C 20.07493 7.6921308 19.34255 8.754364 19.704512 9.0092469 C 20.023611 9.2610253 20.969507 8.4116671 21.638901 8.2608673 C 22.838877 7.9740372 23.39643 8.1295465 24.313374 8.5794303 C 24.313374 8.5794303 25.612994 9.6548817 25.038582 10.452814 C 24.673948 10.935822 23.467334 10.936304 23.467334 10.936304 C 23.205441 10.795404 22.932204 10.460092 22.681655 10.513283 C 22.267521 10.601205 21.917919 11.160096 21.473012 11.359431 C 20.56816 11.764579 19.510635 11.847364 18.632593 12.326413 C 18.136099 12.440984 17.869176 12.984408 17.66572 13.293339 z "
     style="font-size:12;opacity:0.5;fill:#261933;fill-rule:evenodd;stroke:#000000;stroke-width:0.0611109pt;fill-opacity:1;"
     id="path566" />
  <path
     d="M 6.448532 25.705151 C 6.261664 25.144657 -0.81606 12.468543 12.636939 5.9722266 C 18.736462 2.9986463 27.747788 8.511255 28.750196 11.810386 C 28.904579 12.309502 22.65383 5.1844884 13.746211 9.1248344 C 2.148845 14.22163 6.611961 26.195493 6.448532 25.705151 z "
     style="font-size:12;opacity:0.7;fill:url(#linearGradient630);fill-rule:evenodd;stroke:none;stroke-width:0.0998909pt;"
     id="path984" />
</svg>
