<?xml version="1.0" encoding="UTF-8" standalone="no"?>
<!DOCTYPE svg PUBLIC "-//W3C//DTD SVG 20010904//EN"
"http://www.w3.org/TR/2001/REC-SVG-20010904/DTD/svg10.dtd">
<!-- Created with Inkscape (http://www.inkscape.org/) -->
<svg
   version="1.0"
   x="0.0000000"
   y="0.0000000"
   width="60.000000"
   height="60.000000"
   id="svg1"
   sodipodi:version="0.32"
   inkscape:version="0.40"
   sodipodi:docname="sodipodi.svg"
   sodipodi:docbase="/home/scaba"
   xmlns="http://www.w3.org/2000/svg"
   xmlns:cc="http://web.resource.org/cc/"
   xmlns:inkscape="http://www.inkscape.org/namespaces/inkscape"
   xmlns:sodipodi="http://sodipodi.sourceforge.net/DTD/sodipodi-0.dtd"
   xmlns:rdf="http://www.w3.org/1999/02/22-rdf-syntax-ns#"
   xmlns:dc="http://purl.org/dc/elements/1.1/"
   xmlns:xlink="http://www.w3.org/1999/xlink">
  <metadata
     id="metadata50">
    <rdf:RDF
       id="RDF51">
      <cc:Work
         rdf:about=""
         id="Work52">
        <dc:format
           id="format53">image/svg+xml</dc:format>
        <dc:type
           id="type55"
           rdf:resource="http://purl.org/dc/dcmitype/StillImage" />
      </cc:Work>
    </rdf:RDF>
  </metadata>
  <sodipodi:namedview
     id="base"
     pagecolor="#ffffff"
     bordercolor="#666666"
     borderopacity="1.0"
     inkscape:pageopacity="0.0"
     inkscape:pageshadow="2"
     inkscape:zoom="6.9465337"
     inkscape:cx="30.285301"
     inkscape:cy="22.472115"
     inkscape:window-width="640"
     inkscape:window-height="538"
     inkscape:window-x="140"
     inkscape:window-y="26"
     inkscape:current-layer="svg1" />
  <defs
     id="defs3">
    <linearGradient
       id="linearGradient1304">
      <stop
         style="stop-color:#d9cce6;stop-opacity:1.0000000;"
         offset="0.0000000"
         id="stop1305" />
      <stop
         style="stop-color:#73667f;stop-opacity:1.0000000;"
         offset="1.0000000"
         id="stop1306" />
    </linearGradient>
    <linearGradient
       id="linearGradient1299">
      <stop
         style="stop-color:#c7b397;stop-opacity:1.0000000;"
         offset="0.0000000"
         id="stop1300" />
      <stop
         style="stop-color:#faebdc;stop-opacity:1.0000000;"
         offset="1.0000000"
         id="stop1301" />
    </linearGradient>
    <linearGradient
       id="linearGradient866">
      <stop
         style="stop-color:#ffffff;stop-opacity:1.0000000;"
         offset="0.0000000"
         id="stop867" />
      <stop
         style="stop-color:#d9cce6;stop-opacity:1.0000000;"
         offset="1.0000000"
         id="stop868" />
    </linearGradient>
    <linearGradient
       id="linearGradient584">
      <stop
         style="stop-color:#ffffff;stop-opacity:1.0000000;"
         offset="0.0000000"
         id="stop585" />
      <stop
         style="stop-color:#ffffff;stop-opacity:0.0000000;"
         offset="1.0000000"
         id="stop586" />
    </linearGradient>
    <linearGradient
       x1="0.0028328612"
       y1="0.011363637"
       x2="0.99433428"
       y2="1.0037879"
       id="linearGradient586"
       xlink:href="#linearGradient1304" />
    <linearGradient
       x1="-2.3375399e-16"
       y1="0.015151516"
       x2="0.99361020"
       y2="0.99242425"
       id="linearGradient587"
       xlink:href="#linearGradient866" />
    <linearGradient
       x1="9.4976110e-17"
       y1="0.50000000"
       x2="1.0000000"
       y2="0.50000000"
       id="linearGradient1298"
       xlink:href="#linearGradient1299" />
    <linearGradient
       x1="0.0038910506"
       y1="0.011363637"
       x2="0.98443580"
       y2="0.98863637"
       id="linearGradient1303"
       xlink:href="#linearGradient1299" />
    <linearGradient
       id="linearGradient1323"
       xlink:href="#linearGradient584" />
    <linearGradient
       x1="0.0030030000"
       y1="0.0082644597"
       x2="1.0000000"
       y2="0.99173552"
       id="linearGradient1325"
       xlink:href="#linearGradient584" />
    <linearGradient
       x1="-0.0000000"
       y1="0.0082644597"
       x2="0.98882681"
       y2="0.98760331"
       id="linearGradient1327"
       xlink:href="#linearGradient584" />
    <radialGradient
       id="radialGradient1329"
       xlink:href="#linearGradient1304" />
    <linearGradient
       x1="-0.0000000"
       y1="-0.0000000"
       x2="0.99547511"
       y2="0.98760331"
       id="linearGradient1330"
       xlink:href="#linearGradient584" />
    <linearGradient
       x1="0.0000000"
       y1="0.013888890"
       x2="0.99420291"
       y2="0.98611110"
       id="linearGradient622"
       xlink:href="#linearGradient584" />
    <linearGradient
       x1="0.0000000"
       y1="0.0082644597"
       x2="0.99705017"
       y2="0.99173552"
       id="linearGradient624"
       xlink:href="#linearGradient584" />
    <linearGradient
       x1="-0.0036101099"
       y1="0.0000000"
       x2="0.99638987"
       y2="0.98760331"
       id="linearGradient626"
       xlink:href="#linearGradient584" />
    <linearGradient
       x1="-0.0000000"
       y1="0.0041322298"
       x2="1.0000000"
       y2="0.99173552"
       id="linearGradient628"
       xlink:href="#linearGradient584" />
    <linearGradient
       x1="0.0077519398"
       y1="0.0082644597"
       x2="0.98449612"
       y2="0.99586779"
       id="linearGradient630"
       xlink:href="#linearGradient584" />
    <linearGradient
       x1="0.0000000"
       y1="0.0082644597"
       x2="0.98907101"
       y2="0.99173552"
       id="linearGradient632"
       xlink:href="#linearGradient584" />
    <linearGradient
       x1="0.0000000"
       y1="0.0053763399"
       x2="1.0028986"
       y2="0.98924732"
       id="linearGradient635"
       xlink:href="#linearGradient584" />
    <linearGradient
       x1="0.0000000"
       y1="0.011363640"
       x2="0.99130434"
       y2="0.99431819"
       id="linearGradient637"
       xlink:href="#linearGradient584" />
    <linearGradient
       x1="0.0028985499"
       y1="0.019230770"
       x2="1.0028986"
       y2="0.98557693"
       id="linearGradient639"
       xlink:href="#linearGradient584" />
    <linearGradient
       x1="0.017142860"
       y1="0.0041322298"
       x2="0.98857141"
       y2="0.99173552"
       id="linearGradient641"
       xlink:href="#linearGradient584" />
    <linearGradient
       x1="-0.0000000"
       y1="0.0082644597"
       x2="0.99492383"
       y2="0.99173552"
       id="linearGradient643"
       xlink:href="#linearGradient584" />
    <defs
       id="defs892" />
    <linearGradient
       inkscape:collect="always"
       xlink:href="#linearGradient584"
       id="linearGradient1731"
       gradientTransform="scale(1.114431,0.897319)"
       x1="9.9505682"
       y1="9.9927664"
       x2="33.677280"
       y2="33.719479"
       gradientUnits="userSpaceOnUse" />
    <linearGradient
       inkscape:collect="always"
       xlink:href="#linearGradient1304"
       id="linearGradient1123"
       x1="10.902669"
       y1="17.767272"
       x2="53.240572"
       y2="60.144581"
       gradientTransform="scale(1.048937,0.953346)"
       gradientUnits="userSpaceOnUse" />
    <linearGradient
       inkscape:collect="always"
       xlink:href="#linearGradient866"
       id="linearGradient1124"
       x1="7.0283309"
       y1="7.6757050"
       x2="45.194655"
       y2="45.214478"
       gradientTransform="scale(1.064512,0.939398)"
       gradientUnits="userSpaceOnUse" />
    <linearGradient
       inkscape:collect="always"
       xlink:href="#linearGradient1299"
       id="linearGradient1125"
       x1="23.419465"
       y1="46.226416"
       x2="30.850228"
       y2="53.632384"
       gradientTransform="scale(0.986042,1.014156)"
       gradientUnits="userSpaceOnUse" />
    <linearGradient
       inkscape:collect="always"
       xlink:href="#linearGradient1299"
       id="linearGradient1126"
       x1="50.421173"
       y1="3.6508196"
       x2="57.851936"
       y2="11.056787"
       gradientTransform="scale(0.986042,1.014156)"
       gradientUnits="userSpaceOnUse" />
    <linearGradient
       inkscape:collect="always"
       xlink:href="#linearGradient1299"
       id="linearGradient1127"
       x1="50.964472"
       y1="1.4850638"
       x2="58.395235"
       y2="8.8910310"
       gradientTransform="scale(0.986042,1.014156)"
       gradientUnits="userSpaceOnUse" />
    <linearGradient
       inkscape:collect="always"
       xlink:href="#linearGradient1299"
       id="linearGradient1128"
       x1="0.43749716"
       y1="9.7519098"
       x2="7.8682605"
       y2="17.157877"
       gradientTransform="scale(0.986042,1.014156)"
       gradientUnits="userSpaceOnUse" />
    <linearGradient
       inkscape:collect="always"
       xlink:href="#linearGradient1299"
       id="linearGradient1129"
       x1="34.128261"
       y1="30.048466"
       x2="44.694267"
       y2="30.048466"
       gradientTransform="scale(1.000340,0.999660)"
       gradientUnits="userSpaceOnUse" />
    <linearGradient
       inkscape:collect="always"
       xlink:href="#linearGradient584"
       id="linearGradient1130"
       gradientUnits="userSpaceOnUse"
       gradientTransform="scale(1.114431,0.897319)"
       x1="9.9505682"
       y1="9.9927664"
       x2="33.677280"
       y2="33.719479" />
    <linearGradient
       inkscape:collect="always"
       xlink:href="#linearGradient1299"
       id="linearGradient1131"
       x1="21.873018"
       y1="9.5443153"
       x2="33.835791"
       y2="9.5443153"
       gradientTransform="scale(1.000096,0.999904)"
       gradientUnits="userSpaceOnUse" />
  </defs>
  <path
     d="M 56.542144,4.5802221 C 54.997255,4.5802221 53.731072,5.8782862 53.731069,7.4819766 C 53.731069,7.6346166 53.860315,7.7286189 53.882202,7.8749225 C 53.490616,8.3747584 53.186991,8.9642984 53.186990,9.6582926 C 53.186990,11.261982 54.453177,12.560045 55.998065,12.560047 C 57.542959,12.560047 58.809139,11.261982 58.809139,9.6582926 C 58.809139,9.4922301 58.653596,9.3935936 58.627780,9.2351201 C 59.009070,8.7386587 59.322992,8.1657847 59.322992,7.4819766 C 59.322992,5.8782862 58.087028,4.5802230 56.542144,4.5802221 z M 29.580008,6.6960847 L 25.983042,11.804381 C 25.622499,11.878643 25.385549,11.876874 25.015790,11.955514 C 8.5496581,15.457519 8.7308563,27.996040 14.829423,36.318161 L 14.829423,47.381101 C 14.828624,53.405774 19.867689,58.444839 25.892362,58.444040 L 46.658043,58.444040 C 52.682715,58.444841 57.721784,53.405772 57.720982,47.381101 L 57.720982,30.696012 C 57.721678,25.435641 53.819978,21.145890 48.834358,20.086472 C 51.721382,12.091820 48.389413,8.5572991 34.627852,10.293051 L 29.580008,6.6960847 z M 6.6984655,12.952992 C 5.1535762,12.952992 3.9176184,14.251056 3.9176174,15.854747 C 3.9176174,17.458437 5.1535782,18.756502 6.6984655,18.756501 C 8.2433538,18.756501 9.5095393,17.458436 9.5095402,15.854747 C 9.5095402,14.251057 8.2433557,12.952992 6.6984655,12.952992 z "
     style="opacity:0.29999998;fill:#000000;fill-opacity:1.0000000;fill-rule:evenodd;stroke:none;stroke-width:1.8750000;stroke-linecap:butt;stroke-linejoin:miter;stroke-miterlimit:4.0000000;stroke-opacity:1.0000000;"
     id="path953"
     transform="matrix(1.018318,0.000000,0.000000,1.018300,-0.409682,-0.479136)" />
  <path
     d="M 23.312730,17.413256 C 17.288057,17.412456 12.246032,22.454481 12.246832,28.479154 L 12.246832,45.180983 C 12.246032,51.205656 17.288057,56.247682 23.312730,56.246882 L 44.096397,56.246882 C 50.121070,56.247682 55.163096,51.205655 55.162296,45.180983 L 55.162296,28.479154 C 55.163099,22.454475 50.121071,17.412456 44.096397,17.413256 L 23.312730,17.413256 z "
     style="fill:url(#linearGradient1123);fill-opacity:1.0000000;fill-rule:evenodd;stroke:#261933;stroke-width:1.8750000;stroke-linecap:butt;stroke-linejoin:miter;stroke-miterlimit:4.0000000;stroke-opacity:1.0000000;"
     id="path2290"
     transform="matrix(1.018318,0.000000,0.000000,1.018300,-0.409682,-0.479136)" />
  <path
     d="M 36.577775,35.033039 C 21.229749,57.772544 -9.6197216,16.564948 22.442589,9.7459614 C 54.233123,2.9847758 51.837449,12.424442 36.577775,35.033039 z "
     style="fill:url(#linearGradient1124);fill-opacity:1.0000000;fill-rule:evenodd;stroke:#261933;stroke-width:1.8750000;stroke-linecap:butt;stroke-linejoin:miter;stroke-miterlimit:4.0000000;stroke-opacity:1.0000000;"
     id="path2315"
     transform="matrix(1.018318,0.000000,0.000000,1.018300,-0.409682,-0.479136)" />
  <path
     d="M 42.465471,25.295176 L 51.840778,10.206438"
     style="fill:none;fill-opacity:1.0000000;fill-rule:evenodd;stroke:#261933;stroke-width:1.8750000;stroke-linecap:butt;stroke-linejoin:miter;stroke-miterlimit:4.0000000;stroke-opacity:1.0000000;"
     id="path2313"
     transform="matrix(1.018318,0.000000,0.000000,1.018300,-0.409682,-0.479136)" />
  <path
     d="M 28.114113,48.220712 L 37.489421,33.131973"
     style="fill:none;fill-opacity:1.0000000;fill-rule:evenodd;stroke:#261933;stroke-width:1.8750000;stroke-linecap:butt;stroke-linejoin:miter;stroke-miterlimit:4.0000000;stroke-opacity:1.0000000;"
     id="path2327"
     transform="matrix(1.018318,0.000000,0.000000,1.018300,-0.409682,-0.479136)" />
  <path
     d="M 33.424520,8.6791304 L 50.938232,5.7063973"
     style="fill:none;fill-opacity:1000000;fill-rule:evenodd;stroke:#261933;stroke-width:1.8750000;stroke-linecap:butt;stroke-linejoin:miter;stroke-miterlimit:4.0000000;stroke-opacity:1.0000000;"
     id="path2337"
     transform="matrix(1.018318,0.000000,0.000000,1.018300,-0.409682,-0.479136)" />
  <path
     d="M 29.598424,50.636178 C 29.598424,52.239869 28.344602,53.541415 26.799712,53.541415 C 25.254824,53.541415 24.001001,52.239869 24.001001,50.636178 C 24.001001,49.032488 25.254824,47.730942 26.799712,47.730942 C 28.344602,47.730942 29.598424,49.032488 29.598424,50.636178 z "
     style="fill:url(#linearGradient1125);fill-opacity:1.0000000;fill-rule:evenodd;stroke:#261933;stroke-width:1.8750000;stroke-linecap:butt;stroke-linejoin:miter;stroke-miterlimit:4.0000000;stroke-opacity:1.0000000;"
     id="path2357"
     transform="matrix(1.018318,0.000000,0.000000,1.018300,-0.409682,-0.479136)" />
  <path
     d="M 56.223243,7.4579007 C 56.223243,9.0615911 54.969421,10.363137 53.424532,10.363137 C 51.879643,10.363137 50.625820,9.0615911 50.625820,7.4579007 C 50.625820,5.8542103 51.879643,4.5526641 53.424532,4.5526641 C 54.969421,4.5526641 56.223243,5.8542103 56.223243,7.4579007 z "
     style="fill:url(#linearGradient1126);fill-opacity:1.0000000;fill-rule:evenodd;stroke:#261933;stroke-width:1.8750000;stroke-linecap:butt;stroke-linejoin:miter;stroke-miterlimit:4.0000000;stroke-opacity:1.0000000;"
     id="path2356"
     transform="matrix(1.018318,0.000000,0.000000,1.018300,-0.409682,-0.479136)" />
  <path
     d="M 56.758953,5.2614875 C 56.758953,6.8651779 55.505131,8.1667241 53.960242,8.1667241 C 52.415354,8.1667241 51.161531,6.8651779 51.161531,5.2614875 C 51.161531,3.6577971 52.415354,2.3562509 53.960242,2.3562509 C 55.505131,2.3562509 56.758953,3.6577971 56.758953,5.2614875 z "
     style="fill:url(#linearGradient1127);fill-opacity:1.0000000;fill-rule:evenodd;stroke:#261933;stroke-width:1.8750000;stroke-linecap:butt;stroke-linejoin:miter;stroke-miterlimit:4.0000000;stroke-opacity:1.0000000;"
     id="path2355"
     transform="matrix(1.018318,0.000000,0.000000,1.018300,-0.409682,-0.479136)" />
  <path
     d="M 6.7438439,13.115917 L 24.257556,10.143185"
     style="fill:none;fill-opacity:1.0000000;fill-rule:evenodd;stroke:#261933;stroke-width:1.8750000;stroke-linecap:butt;stroke-linejoin:miter;stroke-miterlimit:4.0000000;stroke-opacity:1.0000000;"
     id="path2339"
     transform="matrix(1.018318,0.000000,0.000000,1.018300,-0.409682,-0.479136)" />
  <path
     d="M 6.9372375,13.645355 C 6.9372375,15.249045 5.6834149,16.550592 4.1385262,16.550592 C 2.5936376,16.550592 1.3398150,15.249045 1.3398150,13.645355 C 1.3398150,12.041665 2.5936376,10.740119 4.1385262,10.740119 C 5.6834149,10.740119 6.9372375,12.041665 6.9372375,13.645355 z "
     style="fill:url(#linearGradient1128);fill-opacity:1.0000000;fill-rule:evenodd;stroke:#261933;stroke-width:1.8750000;stroke-linecap:butt;stroke-linejoin:miter;stroke-miterlimit:4.0000000;stroke-opacity:1.0000000;"
     id="path2353"
     transform="matrix(1.018318,0.000000,0.000000,1.018300,-0.409682,-0.479136)" />
  <path
     d="M 36.721718,34.381951 L 43.771974,32.735403 L 42.127635,25.694539 L 35.077373,27.341097 L 36.721718,34.381951 z "
     style="fill:url(#linearGradient1129);fill-opacity:1.0000000;fill-rule:evenodd;stroke:#261933;stroke-width:1.8750000;stroke-linecap:butt;stroke-linejoin:miter;stroke-miterlimit:4.0000000;stroke-opacity:1.0000000;"
     id="path2310"
     transform="matrix(1.018318,0.000000,0.000000,1.018300,-0.409682,-0.479136)" />
  <path
     style="fill:url(#linearGradient1130);fill-opacity:1.0000000;fill-rule:evenodd;stroke:none;stroke-width:0.25000000pt;stroke-linecap:butt;stroke-linejoin:miter;stroke-opacity:1.0000000;"
     d="M 11.336589,30.308933 C 10.883254,29.726074 6.5738858,20.749800 12.596210,16.093210 C 20.689470,9.8353274 37.175752,8.5186933 37.608685,9.0753212 C 38.015500,9.5983687 22.292361,14.117443 16.555019,18.072615 C 11.597855,21.489952 11.723002,30.805750 11.336589,30.308933 z "
     id="path1106"
     sodipodi:nodetypes="cssss"
     transform="matrix(1.018318,0.000000,0.000000,1.018300,-0.409682,-0.479136)" />
  <path
     d="M 22.812627,10.396166 L 28.716586,14.586705 L 32.901554,8.6906230 L 26.997584,4.5000850 L 22.812627,10.396166 z "
     style="fill:url(#linearGradient1131);fill-opacity:1.0000000;fill-rule:evenodd;stroke:#261933;stroke-width:1.8750000;stroke-linecap:butt;stroke-linejoin:miter;stroke-miterlimit:4.0000000;stroke-opacity:1.0000000;"
     id="path2336"
     transform="matrix(1.018318,0.000000,0.000000,1.018300,-0.409682,-0.479136)" />
</svg>
