<?xml version="1.0" encoding="UTF-8" standalone="no"?>
<!DOCTYPE svg PUBLIC "-//W3C//DTD SVG 20010904//EN"
"http://www.w3.org/TR/2001/REC-SVG-20010904/DTD/svg10.dtd">
<!-- Created with Inkscape (http://www.inkscape.org/) -->
<svg
   id="svg1"
   sodipodi:version="0.32"
   inkscape:version="0.37"
   width="48pt"
   height="48pt"
   sodipodi:docbase="/home/tom"
   sodipodi:docname="style.svg"
   xmlns="http://www.w3.org/2000/svg"
   xmlns:inkscape="http://www.inkscape.org/namespaces/inkscape"
   xmlns:sodipodi="http://sodipodi.sourceforge.net/DTD/sodipodi-0.dtd"
   xmlns:xlink="http://www.w3.org/1999/xlink">
  <defs
     id="defs3">
    <linearGradient
       id="linearGradient642">
      <stop
         style="stop-color:#d9cce6;stop-opacity:1;"
         offset="0.00000000"
         id="stop643" />
      <stop
         style="stop-color:#73667f;stop-opacity:1;"
         offset="1.00000000"
         id="stop644" />
    </linearGradient>
    <linearGradient
       id="linearGradient866">
      <stop
         style="stop-color:#ffffff;stop-opacity:1;"
         offset="0.00000000"
         id="stop867" />
      <stop
         style="stop-color:#d9cce6;stop-opacity:1;"
         offset="1.00000000"
         id="stop868" />
    </linearGradient>
    <linearGradient
       id="linearGradient584">
      <stop
         style="stop-color:#ffffff;stop-opacity:1;"
         offset="0.00000000"
         id="stop585" />
      <stop
         style="stop-color:#ffffff;stop-opacity:0;"
         offset="1.00000000"
         id="stop586" />
    </linearGradient>
    <linearGradient
       xlink:href="#linearGradient642"
       id="linearGradient586" />
    <linearGradient
       xlink:href="#linearGradient584"
       id="linearGradient587"
       x1="0.00000000"
       y1="-0.00000000"
       x2="1.00000000"
       y2="1.00000000" />
    <linearGradient
       xlink:href="#linearGradient866"
       id="linearGradient638"
       x1="0.00000000"
       y1="0.00000000"
       x2="0.98684210"
       y2="1.02343750" />
    <radialGradient
       xlink:href="#linearGradient866"
       id="radialGradient639" />
    <linearGradient
       xlink:href="#linearGradient642"
       id="linearGradient640"
       x1="0.00000000"
       y1="-0.00000000"
       x2="0.98684210"
       y2="1.02343750" />
    <linearGradient
       xlink:href="#linearGradient584"
       id="linearGradient641"
       x1="0.00000000"
       y1="0.00000000"
       x2="0.99270076"
       y2="0.95238096" />
    <linearGradient
       xlink:href="#linearGradient584"
       id="linearGradient645"
       x1="-0.00000000"
       y1="-0.00000000"
       x2="0.99270076"
       y2="0.94999999" />
    <linearGradient
       xlink:href="#linearGradient584"
       id="linearGradient699"
       x1="0.00000000"
       y1="0.00000000"
       x2="0.98701298"
       y2="1.00781250" />
    <linearGradient
       xlink:href="#linearGradient584"
       id="linearGradient700"
       x1="-0.00000000"
       y1="-0.00000000"
       x2="0.96875000"
       y2="0.99218750" />
    <linearGradient
       xlink:href="#linearGradient584"
       id="linearGradient701"
       x1="-0.00000000"
       y1="-0.00000000"
       x2="0.97058821"
       y2="0.97656250" />
    <linearGradient
       xlink:href="#linearGradient584"
       id="linearGradient702"
       x1="-0.00000000"
       y1="0.00000000"
       x2="1.01485145"
       y2="1.02343750" />
    <linearGradient
       xlink:href="#linearGradient584"
       id="linearGradient703"
       x1="0.00000000"
       y1="-0.00000000"
       x2="1.01315784"
       y2="1.00781250" />
    <linearGradient
       xlink:href="#linearGradient642"
       id="linearGradient704"
       x1="0.26760563"
       y1="0.31250000"
       x2="0.65492958"
       y2="0.65625000" />
  </defs>
  <sodipodi:namedview
     id="base"
     pagecolor="#ffffff"
     bordercolor="#666666"
     borderopacity="1.0"
     inkscape:pageopacity="0.0"
     inkscape:pageshadow="2"
     inkscape:zoom="2"
     inkscape:cx="23.2824249"
     inkscape:cy="29.6653748"
     inkscape:window-width="771"
     inkscape:window-height="689"
     inkscape:window-x="74"
     inkscape:window-y="49" />
  <path
     style="font-size:12;opacity:0.302675;fill-rule:evenodd;stroke-width:1.25;"
     d="M 2.0259864 44.815065 C 1.0689157 43.043385 11.398288 6.5919132 13.939639 5.4149671 C 15.846993 4.5277962 59.163595 13.406242 60.056144 15.389673 C 61.040184 17.812447 50.805363 57.479277 48.627471 58.376965 C 46.507241 59.337959 3.0680445 46.916532 2.0259864 44.815065 z "
     id="path627"
     sodipodi:nodetypes="cssss" />
  <path
     style="fill:#000000;fill-rule:evenodd;stroke:none;stroke-opacity:1;stroke-width:1pt;stroke-linejoin:miter;stroke-linecap:butt;fill-opacity:1;"
     d="M 11.306586 9.2447616 L 6.2568639 25.30992 L 2.0364756 41.880589 L 4.8562111 43.512657 L 23.433292 47.781146 L 35.873302 15.139764 L 19.452488 12.377801 L 11.306586 9.2447616 z "
     id="path606"
     sodipodi:nodetypes="cccccccc" />
  <path
     style="font-size:12;fill:#ffffff;fill-rule:evenodd;stroke:#000000;stroke-width:1.98261;fill-opacity:0.475806;"
     d="M 2.2230951 40.752729 C 1.3159708 39.073506 11.10629 4.5243101 13.515017 3.4087841 C 15.322832 2.5679118 56.378891 10.983022 57.22486 12.862945 C 58.157546 15.159284 48.456846 52.756038 46.392609 53.60688 C 44.383026 54.517722 3.2107724 42.744526 2.2230951 40.752729 z "
     id="path628"
     sodipodi:nodetypes="cssss" />
  <path
     style="fill:#064b00;fill-rule:evenodd;stroke:none;stroke-opacity:1;stroke-width:1pt;stroke-linejoin:miter;stroke-linecap:butt;fill-opacity:1;"
     d="M 11.043964 9.3230876 L 35.090041 15.90247 L 37.753125 8.2265238 L 17.623347 3.6836166 L 13.550395 3.6836166 L 11.043964 9.3230876 z "
     id="path607" />
  <path
     style="font-size:12;fill:#d9cce6;fill-rule:evenodd;stroke:#000000;stroke-width:1.98261;fill-opacity:0.669355;"
     d="M 11.263863 9.2148374 C 10.578334 8.8094958 12.865743 3.8450012 13.515017 3.4087841 C 15.113855 2.1674678 56.062955 11.192276 57.22486 12.862945 C 57.734963 13.676805 56.660688 18.679304 55.576673 19.29479 C 53.799309 20.658463 12.872246 10.657045 11.263863 9.2148374 z "
     id="path629"
     sodipodi:nodetypes="cssss" />
  <path
     style="font-size:12;fill-rule:evenodd;stroke-width:1pt;"
     d="M 50.465889 13.031079 C 50.069713 13.319046 51.081336 14.850075 51.063512 15.12762 C 51.050768 15.378627 49.335707 16.166752 49.558461 16.518197 C 49.737977 16.882904 51.523928 15.724684 51.76482 15.821189 C 51.946356 15.880881 52.531828 17.535635 52.916912 17.346434 C 53.2929 17.130998 52.566576 15.517548 52.597703 15.243586 C 52.668653 15.000664 54.539138 14.357792 54.384082 13.997357 C 54.156886 13.612316 52.15704 14.650725 51.887098 14.506083 C 51.66137 14.357648 50.854972 12.782927 50.465889 13.031079 z "
     id="path633"
     sodipodi:nodetypes="cssssssss" />
  <path
     style="font-size:12;fill:url(#linearGradient645);fill-rule:evenodd;stroke-width:1pt;"
     d="M 13.45074 7.3886605 C 13.36882 7.1665031 13.887403 4.9830408 14.659894 5.1004692 C 26.830957 6.9506167 52.207302 13.090427 52.281408 13.291391 C 52.35428 13.489019 27.413283 8.1678825 15.100826 6.2962401 C 14.469728 6.2003051 13.515798 7.5650929 13.45074 7.3886605 z "
     id="path636"
     sodipodi:nodetypes="cssss" />
  <rect
     style="font-size:12;fill:#ffeb21;fill-opacity:0.75;fill-rule:evenodd;stroke:#000000;stroke-width:1pt;stroke-opacity:1;"
     id="rect608"
     width="18.48492417"
     height="6.65770584"
     x="16.46854442"
     y="9.42560442"
     transform="matrix(0.962751,0.270388,-0.270388,0.962751,0.000000,0.000000)" />
  <rect
     style="font-size:12;fill:url(#linearGradient586);fill-opacity:0.75;fill-rule:evenodd;stroke:#261933;stroke-width:0.933304pt;stroke-opacity:1;"
     id="rect609"
     width="17.53766276"
     height="6.11247176"
     x="39.84502932"
     y="10.12965890"
     transform="matrix(0.965368,0.260891,-0.280174,0.959949,0.000000,0.000000)"
     ry="0.55857871" />
</svg>
