<?xml version="1.0" encoding="UTF-8" standalone="no"?>
<!DOCTYPE svg PUBLIC "-//W3C//DTD SVG 20010904//EN"
"http://www.w3.org/TR/2001/REC-SVG-20010904/DTD/svg10.dtd">
<!-- Created with Inkscape (http://www.inkscape.org/) -->
<svg
   id="svg1"
   sodipodi:version="0.32"
   inkscape:version="0.38.1"
   width="48pt"
   height="48pt"
   sodipodi:docbase="/home/tom"
   sodipodi:docname="thunderbird.svg"
   xmlns="http://www.w3.org/2000/svg"
   xmlns:inkscape="http://www.inkscape.org/namespaces/inkscape"
   xmlns:sodipodi="http://sodipodi.sourceforge.net/DTD/sodipodi-0.dtd"
   xmlns:xlink="http://www.w3.org/1999/xlink">
  <defs
     id="defs3">
    <linearGradient
       id="linearGradient599">
      <stop
         style="stop-color:#ffffff;stop-opacity:1;"
         offset="0.00000000"
         id="stop600" />
      <stop
         style="stop-color:#d9cce6;stop-opacity:1;"
         offset="1.00000000"
         id="stop601" />
    </linearGradient>
    <linearGradient
       id="linearGradient584">
      <stop
         style="stop-color:#ffffff;stop-opacity:1;"
         offset="0.00000000"
         id="stop585" />
      <stop
         style="stop-color:#ffffff;stop-opacity:0;"
         offset="1.00000000"
         id="stop586" />
    </linearGradient>
    <linearGradient
       id="linearGradient578">
      <stop
         style="stop-color:#d9cce6;stop-opacity:1;"
         offset="0.00000000"
         id="stop579" />
      <stop
         style="stop-color:#73667f;stop-opacity:1;"
         offset="1.00000000"
         id="stop580" />
    </linearGradient>
    <linearGradient
       xlink:href="#linearGradient599"
       id="linearGradient581"
       x1="0.00000000"
       y1="-0.00000000"
       x2="0.98888886"
       y2="0.98437500" />
    <linearGradient
       xlink:href="#linearGradient599"
       id="linearGradient583"
       x1="-0.00000000"
       y1="0.00000000"
       x2="0.97500002"
       y2="0.98437500" />
    <linearGradient
       xlink:href="#linearGradient599"
       id="linearGradient860"
       x1="0.00000000"
       y1="0.00000000"
       x2="0.98905110"
       y2="0.97457629" />
    <linearGradient
       xlink:href="#linearGradient578"
       id="linearGradient861" />
    <linearGradient
       xlink:href="#linearGradient584"
       id="linearGradient862"
       x1="-0.08500000"
       y1="-0.13281250"
       x2="0.99500000"
       y2="0.96875000" />
    <radialGradient
       xlink:href="#linearGradient578"
       id="radialGradient595"
       cx="0.33846155"
       cy="0.34375000"
       r="0.66501766"
       fx="0.33076921"
       fy="0.33593750" />
    <linearGradient
       xlink:href="#linearGradient584"
       id="linearGradient849"
       x1="0.24657534"
       y1="0.086124405"
       x2="0.71232879"
       y2="0.49282297" />
  </defs>
  <sodipodi:namedview
     id="base"
     pagecolor="#ffffff"
     bordercolor="#666666"
     borderopacity="1.0"
     inkscape:pageopacity="0.0"
     inkscape:pageshadow="2"
     inkscape:zoom="1.4142136"
     inkscape:cx="53.247506"
     inkscape:cy="11.093148"
     inkscape:window-width="1018"
     inkscape:window-height="713"
     inkscape:window-x="0"
     inkscape:window-y="28" />
  <g
     id="g604"
     transform="matrix(1.691644,2.876924e-2,-3.209944e-2,1.516143,61.53657,-37.81157)">
    <path
       style="font-size:12;fill:url(#linearGradient581);fill-rule:evenodd;stroke:#261933;stroke-width:1.875;stroke-dasharray:none;"
       d="M -32.510926 50.442911 C -31.289577 51.594259 -5.0803113 51.459852 -3.7913862 50.026685 C -2.4530372 48.682625 -2.0028341 31.001903 -3.6526445 29.770391 C -5.3257956 28.406784 -30.785139 28.94781 -32.510926 30.047875 C -34.176752 31.030706 -33.753792 49.390797 -32.510926 50.442911 z "
       id="path596"
       sodipodi:nodetypes="cssss" />
    <path
       style="font-size:12;fill:url(#linearGradient860);fill-rule:evenodd;stroke:#261933;stroke-width:1.875;stroke-dasharray:none;"
       d="M -32.649668 50.442911 C -33.738539 49.45197 -22.490714 38.836565 -17.526818 38.788604 C -12.917534 38.74407 -2.6599755 48.978789 -3.930128 50.165427 C -5.066091 51.35684 -32.182111 51.512214 -32.649668 50.442911 z "
       id="path597"
       sodipodi:nodetypes="csss" />
    <path
       style="font-size:12;fill:url(#linearGradient583);fill-rule:evenodd;stroke:#261933;stroke-width:1.875;stroke-dasharray:none;"
       d="M -32.649668 30.186616 C -33.652052 31.444835 -22.868375 44.407645 -18.081785 44.338274 C -13.295195 44.268903 -2.8273979 30.967397 -3.930128 29.770391 C -4.9411143 28.515028 -31.690217 28.601475 -32.649668 30.186616 z "
       id="path598"
       sodipodi:nodetypes="csss" />
    <path
       style="fill:url(#linearGradient862);fill-rule:evenodd;stroke:none;stroke-opacity:1;stroke-width:1pt;stroke-linejoin:miter;stroke-linecap:butt;fill-opacity:1;"
       d="M -31.400992 48.084301 C -31.792824 47.716958 -32.235931 32.632807 -31.123509 31.296551 C -30.096665 30.229753 -5.2869599 30.935014 -4.9013203 31.296551 C -4.5470033 31.628722 -26.801232 31.620727 -28.90364 33.377677 C -30.930163 35.091825 -31.052868 48.410667 -31.400992 48.084301 z "
       id="path603"
       sodipodi:nodetypes="cssss" />
  </g>
  <path
     style="fill-rule:evenodd;stroke:#000000;stroke-width:1.3355419pt;"
     d="M 12.995129,44.991323 C 11.814665,47.253878 10.634202,49.516433 9.4537377,51.778988 C 8.9618776,53.746427 9.9455977,56.894330 11.519549,57.681306 C 11.519549,56.697586 10.929317,55.123635 11.519549,54.730147 C 14.864196,53.844799 17.323493,53.549683 20.668141,53.844799 C 21.356745,51.778988 17.913726,48.827829 15.651171,49.418061 C 14.667452,49.909921 13.388616,50.696897 12.700013,50.893641 C 12.208153,50.696897 13.191873,46.958762 12.995129,44.991323 z "
     id="path846"
     sodipodi:nodetypes="cccccccc" />
  <path
     style="fill:url(#linearGradient861);fill-opacity:0.75000000;fill-rule:evenodd;stroke:#261933;stroke-width:1.3355419pt;"
     d="M 20.963257,53.697242 C 24.209530,53.352940 21.553489,53.598870 24.799762,53.254568 C 28.341154,53.844800 39.588816,52.673024 40.179048,56.214414 C 40.129861,57.985110 53.243737,46.451018 57.410066,37.318311 C 53.868676,33.039131 46.785895,30.235530 39.703114,28.907509 C 29.078943,28.710765 23.766857,31.465180 16.684076,38.056101 C 14.126405,41.695863 12.454082,44.745394 13.437802,48.975388 C 13.978848,50.746083 20.422211,51.926547 20.963257,53.697242 z "
     id="path847"
     sodipodi:nodetypes="cccccccc" />
  <path
     style="fill-rule:evenodd;stroke:#000000;stroke-width:1.3355419pt;"
     d="M 18.307214,43.663302 C 20.274653,42.089351 21.061627,39.925168 23.324182,38.941448 C 26.963944,38.843076 29.423243,41.400747 28.046036,43.073071 C 27.357432,44.942138 26.078597,46.220973 24.209530,46.909577 C 23.127438,44.647022 21.455117,43.269814 18.307214,43.663302 z "
     id="path848"
     sodipodi:nodetypes="ccccc" />
  <path
     sodipodi:type="arc"
     style="fill:#000000;fill-opacity:0.75000000;fill-rule:evenodd;stroke:#d9cce6;stroke-width:1.0000000pt;stroke-opacity:1.0000000;"
     id="path850"
     sodipodi:cx="32.924660"
     sodipodi:cy="40.554562"
     sodipodi:rx="1.8782524"
     sodipodi:ry="1.7677670"
     d="M 34.802912 40.554562 A 1.8782524 1.7677670 0 1 0 31.046407,40.554562 A 1.8782524 1.7677670 0 1 0 34.802912 40.554562 z"
     transform="matrix(1.335542,0.000000,0.000000,1.335542,-19.61518,-11.82704)" />
  <path
     style="fill:url(#linearGradient849);fill-rule:evenodd;stroke:none;stroke-opacity:1;stroke-width:1pt;stroke-linejoin:miter;stroke-linecap:butt;fill-opacity:0.75;"
     d="M 15.798729,44.991324 C 17.962912,42.335281 21.012443,39.384122 23.176626,37.908542 C 25.340809,36.974009 27.800108,36.334591 29.669175,35.104942 C 26.127785,35.400058 23.471742,35.695174 20.815699,36.875637 C 18.553144,38.990634 16.880821,42.286095 15.798729,44.991324 z "
     id="path851"
     sodipodi:nodetypes="ccccc" />
</svg>
