<?xml version="1.0" encoding="UTF-8" standalone="no"?>
<!-- Created with Inkscape (http://www.inkscape.org/) -->
<svg
   xmlns:dc="http://purl.org/dc/elements/1.1/"
   xmlns:cc="http://web.resource.org/cc/"
   xmlns:rdf="http://www.w3.org/1999/02/22-rdf-syntax-ns#"
   xmlns:svg="http://www.w3.org/2000/svg"
   xmlns="http://www.w3.org/2000/svg"
   xmlns:xlink="http://www.w3.org/1999/xlink"
   xmlns:sodipodi="http://inkscape.sourceforge.net/DTD/sodipodi-0.dtd"
   xmlns:inkscape="http://www.inkscape.org/namespaces/inkscape"
   id="svg1"
   sodipodi:version="0.32"
   inkscape:version="0.42"
   width="48pt"
   height="48pt"
   sodipodi:docname="kuser.svg"
   sodipodi:docbase="/home/jakob/dev/lila/lila-theme/trunk/lila/kde/scalable/apps">
  <metadata
     id="metadata41">
    <rdf:RDF>
      <cc:Work
         rdf:about="">
        <dc:format>image/svg+xml</dc:format>
        <dc:type
           rdf:resource="http://purl.org/dc/dcmitype/StillImage" />
      </cc:Work>
    </rdf:RDF>
  </metadata>
  <defs
     id="defs3">
    <linearGradient
       id="linearGradient662">
      <stop
         style="stop-color:#73667f;stop-opacity:1.0000000;"
         offset="0.0000000"
         id="stop663" />
      <stop
         style="stop-color:#d9cce6;stop-opacity:1.0000000;"
         offset="1.0000000"
         id="stop664" />
    </linearGradient>
    <linearGradient
       id="linearGradient599">
      <stop
         style="stop-color:#ffffff;stop-opacity:1;"
         offset="0.00000000"
         id="stop600" />
      <stop
         style="stop-color:#d9cce6;stop-opacity:1;"
         offset="1.00000000"
         id="stop601" />
    </linearGradient>
    <linearGradient
       id="linearGradient584">
      <stop
         style="stop-color:#ffffff;stop-opacity:0.0000000;"
         offset="0.0000000"
         id="stop585" />
      <stop
         style="stop-color:#ffffff;stop-opacity:1.0000000;"
         offset="1.0000000"
         id="stop586" />
    </linearGradient>
    <linearGradient
       id="linearGradient578">
      <stop
         style="stop-color:#8a86b9;stop-opacity:1;"
         offset="0.00000000"
         id="stop579" />
      <stop
         style="stop-color:#b1ace8;stop-opacity:1;"
         offset="1.00000000"
         id="stop580" />
    </linearGradient>
    <linearGradient
       xlink:href="#linearGradient662"
       id="linearGradient581"
       x1="47.597397"
       y1="26.292163"
       x2="25.715729"
       y2="4.7118366"
       gradientUnits="userSpaceOnUse" />
    <linearGradient
       xlink:href="#linearGradient584"
       id="linearGradient583"
       gradientTransform="matrix(1.443052,0.000000,0.000000,1.150536,-20.85955,-10.03589)"
       x1="37.893478"
       y1="16.942226"
       x2="30.146963"
       y2="10.998850"
       gradientUnits="userSpaceOnUse" />
    <linearGradient
       xlink:href="#linearGradient662"
       id="linearGradient860"
       x1="51.167714"
       y1="58.971920"
       x2="18.737092"
       y2="27.217567"
       gradientTransform="matrix(1.459661,0.000000,0.000000,1.137447,-20.85955,-10.03589)"
       gradientUnits="userSpaceOnUse" />
    <linearGradient
       xlink:href="#linearGradient662"
       id="linearGradient861"
       x1="-0.44711539"
       y1="0.32075471"
       x2="1.27403843"
       y2="1.12578619" />
    <linearGradient
       xlink:href="#linearGradient584"
       id="linearGradient862"
       gradientTransform="matrix(1.853577,0.000000,0.000000,0.895718,-20.85955,-10.03589)"
       x1="29.975149"
       y1="44.213566"
       x2="22.594681"
       y2="37.644417"
       gradientUnits="userSpaceOnUse" />
    <radialGradient
       xlink:href="#linearGradient662"
       id="radialGradient595"
       cx="0.025806455"
       cy="0.032467529"
       r="0.20663640"
       fx="0.025806455"
       fy="0.032467529" />
    <linearGradient
       xlink:href="#linearGradient662"
       id="linearGradient652" />
    <linearGradient
       xlink:href="#linearGradient599"
       id="linearGradient654"
       x1="19.920939"
       y1="-1.1157925"
       x2="46.400416"
       y2="25.086450"
       gradientUnits="userSpaceOnUse" />
    <linearGradient
       xlink:href="#linearGradient584"
       id="linearGradient661"
       x1="16.155644"
       y1="16.503242"
       x2="1.4097120"
       y2="19.361511"
       gradientTransform="matrix(1.119930,0.000000,0.000000,0.892913,-2.292000e-3,0.000000)"
       gradientUnits="userSpaceOnUse" />
    <radialGradient
       xlink:href="#linearGradient662"
       id="radialGradient628"
       cx="0.50000000"
       cy="0.50000000"
       r="0.50000000"
       fx="0.50000000"
       fy="0.50000000" />
    <linearGradient
       xlink:href="#linearGradient662"
       id="linearGradient669"
       x1="0.93162394"
       y1="-0.46961325"
       x2="0.19658124"
       y2="1.51933682" />
    <linearGradient
       xlink:href="#linearGradient599"
       id="linearGradient670"
       x1="-2.5624680"
       y1="20.548300"
       x2="29.321978"
       y2="52.975274"
       gradientTransform="matrix(1.131698,0.000000,0.000000,0.883628,-2.292000e-3,0.000000)"
       gradientUnits="userSpaceOnUse" />
    <linearGradient
       y2="30.373407"
       x2="39.471523"
       y1="19.463323"
       x1="22.742726"
       id="linearGradient1113"
       xlink:href="#linearGradient866"
       gradientTransform="scale(0.969352,1.031617)"
       gradientUnits="userSpaceOnUse" />
    <linearGradient
       y2="30.654795"
       x2="47.180743"
       y1="4.2521058"
       x1="21.217061"
       id="linearGradient1107"
       xlink:href="#linearGradient866"
       gradientTransform="scale(0.942320,1.061211)"
       gradientUnits="userSpaceOnUse" />
    <linearGradient
       y2="25.678173"
       x2="40.631260"
       y1="6.3282126"
       x1="21.996981"
       id="linearGradient1106"
       xlink:href="#linearGradient584"
       gradientTransform="scale(0.993899,1.006138)"
       gradientUnits="userSpaceOnUse" />
    <linearGradient
       y2="78.858334"
       x2="22.075593"
       y1="58.394712"
       x1="0.82215363"
       id="linearGradient1047"
       xlink:href="#linearGradient578"
       gradientTransform="scale(1.453983,0.687766)"
       gradientUnits="userSpaceOnUse" />
    <linearGradient
       y2="67.658564"
       x2="45.801923"
       y1="25.279316"
       x1="2.7944242"
       id="linearGradient1046"
       xlink:href="#linearGradient578"
       gradientTransform="scale(1.241099,0.805737)"
       gradientUnits="userSpaceOnUse" />
    <linearGradient
       y2="53.069678"
       x2="32.952018"
       y1="29.791978"
       x1="10.046708"
       id="linearGradient915"
       xlink:href="#linearGradient578"
       gradientTransform="scale(1.430770,0.698924)"
       gradientUnits="userSpaceOnUse" />
    <linearGradient
       y2="47.189771"
       x2="30.362032"
       y1="27.389002"
       x1="9.7596838"
       id="linearGradient869"
       xlink:href="#linearGradient578"
       gradientTransform="scale(1.530794,0.653256)"
       gradientUnits="userSpaceOnUse" />
    <linearGradient
       y2="0.96103895"
       x2="0.98913044"
       y1="-0.00000000"
       x1="0.00362319"
       id="linearGradient2932"
       xlink:href="#linearGradient584" />
    <linearGradient
       y2="0.92727274"
       x2="1.00362325"
       y1="-0.01818182"
       x1="-0.00000000"
       id="linearGradient2930"
       xlink:href="#linearGradient584" />
    <linearGradient
       y2="0.95890409"
       x2="0.99637681"
       y1="0.02739726"
       x1="0.00724638"
       id="linearGradient2928"
       xlink:href="#linearGradient584" />
    <linearGradient
       y2="0.96899223"
       x2="0.94444442"
       y1="-0.00000000"
       x1="-0.00000000"
       id="linearGradient2926"
       xlink:href="#linearGradient584" />
    <linearGradient
       y2="0.98449612"
       x2="1.00000000"
       y1="0.00775194"
       x1="0.01515152"
       id="linearGradient2924"
       xlink:href="#linearGradient584" />
    <linearGradient
       id="linearGradient2918">
      <stop
         id="stop2920"
         offset="0.00000000"
         style="stop-color:#d9cce6;stop-opacity:1;" />
      <stop
         id="stop2922"
         offset="1.00000000"
         style="stop-color:#73667f;stop-opacity:1;" />
    </linearGradient>
    <linearGradient
       id="linearGradient2912">
      <stop
         id="stop2914"
         offset="0.00000000"
         style="stop-color:#ffffff;stop-opacity:1;" />
      <stop
         id="stop2916"
         offset="1.00000000"
         style="stop-color:#ffffff;stop-opacity:0;" />
    </linearGradient>
    <linearGradient
       id="linearGradient866">
      <stop
         id="stop867"
         offset="0.00000000"
         style="stop-color:#ffffff;stop-opacity:1;" />
      <stop
         id="stop868"
         offset="1.00000000"
         style="stop-color:#d9cce6;stop-opacity:1;" />
    </linearGradient>
    <linearGradient
       id="linearGradient916">
      <stop
         id="stop917"
         offset="0.00000000"
         style="stop-color:#cccccc;stop-opacity:1;" />
      <stop
         id="stop918"
         offset="1.00000000"
         style="stop-color:#7f7f7f;stop-opacity:1;" />
    </linearGradient>
    <linearGradient
       inkscape:collect="always"
       xlink:href="#linearGradient866"
       id="linearGradient3118"
       gradientUnits="userSpaceOnUse"
       gradientTransform="matrix(0.969352,2.792958e-17,-2.972372e-17,1.031617,-43.86222,-1.382663)"
       x1="25.966185"
       y1="13.607409"
       x2="36.720871"
       y2="46.850719" />
    <linearGradient
       inkscape:collect="always"
       xlink:href="#linearGradient584"
       id="linearGradient3120"
       gradientUnits="userSpaceOnUse"
       gradientTransform="matrix(1.853577,5.340647e-17,-2.580800e-17,0.895718,-64.72177,-11.41856)"
       x1="29.975149"
       y1="44.213566"
       x2="22.594681"
       y2="37.644417" />
  </defs>
  <sodipodi:namedview
     id="base"
     pagecolor="#ffffff"
     bordercolor="#666666"
     borderopacity="1.0"
     inkscape:pageopacity="0.0"
     inkscape:pageshadow="2"
     inkscape:zoom="7.9794719"
     inkscape:cx="19.604665"
     inkscape:cy="23.732827"
     inkscape:window-width="938"
     inkscape:window-height="903"
     inkscape:window-x="97"
     inkscape:window-y="51"
     inkscape:current-layer="g3113" />
  <path
     style="font-size:12.000000px;fill-opacity:0.29999998;fill-rule:evenodd;stroke-width:1.0000000pt"
     d="M 9.8845444,52.999700 C 9.9084524,47.946557 14.159400,21.293017 32.399381,21.558884 C 54.537256,21.875367 55.547349,49.316032 55.986350,53.776017 C 56.119642,55.248062 52.133890,55.522160 51.340432,53.776017 C 49.147925,47.878460 44.376131,33.709508 44.192865,33.591789 C 42.225751,32.557811 51.645049,49.626294 49.910917,54.552332 C 48.547770,58.424548 39.956030,59.861766 34.901028,59.986547 C 29.472931,60.120539 20.183239,59.302166 18.461626,55.328648 C 16.371204,50.503914 23.947794,33.584661 23.464921,33.591789 C 22.106312,33.606570 17.198082,52.836401 16.674731,52.999700 C 13.964373,53.502236 9.9497594,53.987894 9.8845444,52.999700 z "
     id="path612"
     sodipodi:nodetypes="cssssssssss" />
  <path
     sodipodi:type="arc"
     style="font-size:12.000000px;fill-opacity:0.29999998;fill-rule:evenodd;stroke-width:1.0000000pt"
     id="path614"
     sodipodi:cx="36.656563"
     sodipodi:cy="15.354189"
     sodipodi:rx="10.339030"
     sodipodi:ry="10.339030"
     d="M 46.995593 15.354189 A 10.339030 10.339030 0 1 1  26.317533,15.354189 A 10.339030 10.339030 0 1 1  46.995593 15.354189 z"
     transform="matrix(1.195166,0.000000,0.000000,1.195166,-12.52050,-3.873789)" />
  <path
     style="font-size:12.000000px;fill:url(#linearGradient860);fill-opacity:1.0000000;fill-rule:evenodd;stroke:#261933;stroke-width:1.8750007;stroke-miterlimit:4.0000000;stroke-dasharray:none"
     d="M 7.4542224,50.120292 C 7.4781474,45.464146 11.732478,20.904628 29.986976,21.149607 C 52.142471,21.441224 53.153369,46.726029 53.592718,50.835617 C 53.726119,52.192011 49.737193,52.444575 48.943102,50.835617 C 46.748851,45.401398 41.973260,32.345622 41.789847,32.237154 C 39.821168,31.284408 49.247962,47.011915 47.512451,51.550943 C 46.148217,55.118939 37.549640,56.443244 32.490614,56.558222 C 27.058198,56.681685 17.761111,55.927609 16.038127,52.266267 C 13.946042,47.820586 21.528663,32.230585 21.045405,32.237154 C 19.685715,32.250773 14.773578,49.969823 14.249812,50.120292 C 11.537295,50.583346 7.5194864,51.030849 7.4542224,50.120292 z "
     id="path634"
     sodipodi:nodetypes="cssssssssss" />
  <path
     style="font-size:12.000000px;fill:url(#linearGradient862);fill-opacity:1.0000000;fill-rule:evenodd;stroke-width:1.0000000pt"
     d="M 14.736572,34.629975 C 13.730257,37.567686 20.111307,31.734397 22.978418,31.003564 C 25.715762,30.305810 26.372614,30.062228 31.549939,30.344217 C 34.622367,30.313993 41.332975,25.636702 38.143414,24.739762 C 19.861581,19.928387 15.234757,33.012431 14.736572,34.629975 z "
     id="path637"
     sodipodi:nodetypes="cssss" />
  <path
     sodipodi:type="arc"
     style="font-size:12.000000px;fill:url(#linearGradient581);fill-opacity:1.0000000;fill-rule:evenodd;stroke:#261933;stroke-width:1.6179404;stroke-dasharray:none;stroke-opacity:1.0000000"
     id="path608"
     sodipodi:cx="36.656563"
     sodipodi:cy="15.354189"
     sodipodi:rx="10.339030"
     sodipodi:ry="10.339030"
     d="M 46.995593 15.354189 A 10.339030 10.339030 0 1 1  26.317533,15.354189 A 10.339030 10.339030 0 1 1  46.995593 15.354189 z"
     transform="matrix(1.158880,0.000000,0.000000,1.158880,-13.20892,-4.870307)" />
  <path
     style="font-size:12.000000px;fill:url(#linearGradient583);fill-opacity:1.0;fill-rule:evenodd;stroke-width:1.0000000pt"
     d="M 25.903104,10.923891 C 27.863609,10.050816 29.157554,11.011123 30.684127,10.923891 C 33.141740,10.783456 37.979505,8.4155842 37.855663,8.1918779 C 34.545896,2.8300941 28.110022,2.3356039 24.195596,4.7768594 C 17.523469,8.9379721 19.957385,18.532991 21.463582,17.753925 C 23.258568,16.825483 22.837304,12.199579 25.903104,10.923891 z "
     id="path630"
     sodipodi:nodetypes="csssss" />
  <g
     id="g3113"
     transform="matrix(0.803647,-0.892811,0.892811,0.803647,14.42504,11.35115)">
    <path
       id="path636"
       style="font-size:12.000000px;opacity:0.30267498;fill-rule:evenodd;stroke-width:12.500000"
       d="M -2.0390619,52.825853 C -1.1094609,50.827124 -5.8205419,49.299353 -1.9215829,45.516180 C 2.4810711,41.247286 3.2488631,46.887111 5.1828351,46.231165 C 6.4699231,45.727426 4.9752641,40.304817 3.4966391,39.127515 C 1.9949401,37.931686 -1.9473219,40.519513 -3.7578749,39.111843 C -9.7601099,34.444848 -15.846716,27.497102 -19.941392,20.903326 C -21.274399,18.756574 -18.782345,14.585176 -20.041104,12.890185 C -21.262707,11.245471 -26.759665,9.6325211 -27.382389,10.884477 C -28.379743,12.810334 -22.264744,15.156074 -26.102698,18.767645 C -29.967045,22.403271 -32.268005,16.506057 -33.901612,16.986126 C -35.224780,17.417399 -33.760368,23.329811 -32.190761,24.756080 C -30.642711,26.162785 -26.471202,23.960773 -24.548642,25.485044 C -18.584092,30.214134 -12.579165,37.033024 -8.5294219,43.516247 C -7.3548349,45.396658 -9.9360679,49.054725 -8.8754749,50.576031 C -7.7726429,52.157897 -2.7067759,54.115231 -2.0390619,52.825853 z " />
    <path
       id="path2959"
       style="font-size:12.000000px;fill:url(#linearGradient3118);fill-rule:evenodd;stroke:#261933;stroke-width:1.5608960;stroke-miterlimit:4.0000000;stroke-dasharray:none"
       d="M -1.3753077,50.935499 C -0.44570473,48.936777 -5.1567847,47.409036 -1.2578257,43.625860 C 3.1448303,39.356967 3.9126223,44.996787 5.8465913,44.340845 C 7.1336823,43.837105 5.6390233,38.414499 4.1603963,37.237194 C 2.6586963,36.041366 -1.2835627,38.629194 -3.0941217,37.221526 C -9.0963547,32.554527 -15.182958,25.606782 -19.277634,19.013009 C -20.610641,16.866256 -18.118583,12.694855 -19.377347,10.999863 C -20.598951,9.3551504 -26.095908,7.7422014 -26.718632,8.9941554 C -27.715988,10.920013 -21.600987,13.265754 -25.438940,16.877324 C -29.303288,20.512950 -31.604245,14.615735 -33.237811,15.095806 C -34.560987,15.527079 -33.096541,21.439487 -31.527003,22.865759 C -29.978954,24.272464 -25.807445,22.070454 -23.884884,23.594724 C -17.920334,28.323813 -11.915407,35.142703 -7.8656657,41.625927 C -6.6910777,43.506338 -9.2723077,47.164406 -8.2117197,48.685686 C -7.1088867,50.267542 -2.0430207,52.224876 -1.3753077,50.935499 z " />
    <path
       id="path633"
       style="font-size:12.000000px;opacity:0.69999999;fill:url(#linearGradient3120);fill-rule:evenodd;stroke-width:1.0000000pt"
       d="M -6.6649417,40.641539 C -6.8045477,40.726598 -11.471412,33.749943 -14.226794,30.631122 C -16.873909,27.634993 -23.009847,22.380243 -22.872439,22.296518 C -22.731568,22.210611 -16.081861,27.077921 -13.392036,30.122497 C -10.679359,33.192958 -6.5262637,40.557056 -6.6649417,40.641539 z " />
  </g>
</svg>
