<?xml version="1.0" encoding="UTF-8" standalone="no"?>
<!DOCTYPE svg PUBLIC "-//W3C//DTD SVG 20010904//EN"
"http://www.w3.org/TR/2001/REC-SVG-20010904/DTD/svg10.dtd">
<!-- Created with Inkscape (http://www.inkscape.org/) -->
<svg
   version="1.0"
   x="0"
   y="0"
   width="48pt"
   height="48pt"
   id="svg611"
   sodipodi:version="0.32"
   inkscape:version="0.37"
   sodipodi:docname="ut2004.svg"
   xmlns="http://www.w3.org/2000/svg"
   xmlns:inkscape="http://www.inkscape.org/namespaces/inkscape"
   xmlns:sodipodi="http://sodipodi.sourceforge.net/DTD/sodipodi-0.dtd"
   xmlns:xlink="http://www.w3.org/1999/xlink"
   sodipodi:docbase="/home/morten">
  <sodipodi:namedview
     id="base"
     pagecolor="#ffffff"
     bordercolor="#666666"
     borderopacity="1.0"
     inkscape:pageopacity="0.0"
     inkscape:pageshadow="2"
     inkscape:zoom="11.3272006"
     inkscape:cx="26.6980542"
     inkscape:cy="18.8958739"
     inkscape:window-width="890"
     inkscape:window-height="793"
     inkscape:window-x="338"
     inkscape:window-y="67" />
  <defs
     id="defs613">
    <linearGradient
       id="linearGradient639">
      <stop
         offset="0.00000000"
         style="stop-color:#ffffff;stop-opacity:0.408333;"
         id="stop641" />
      <stop
         offset="1.00000000"
         style="stop-color:#ffffff;stop-opacity:0.675;"
         id="stop640" />
    </linearGradient>
    <linearGradient
       id="linearGradient647">
      <stop
         offset="0.00000000"
         style="stop-color:#b7b2a4;stop-opacity:1;"
         id="stop648" />
      <stop
         offset="1.00000000"
         style="stop-color:#6f6f43;stop-opacity:1;"
         id="stop649" />
    </linearGradient>
    <linearGradient
       id="linearGradient643">
      <stop
         offset="0.00000000"
         style="stop-color:#2ad700;stop-opacity:1;"
         id="stop646" />
      <stop
         offset="1.00000000"
         style="stop-color:#e5ffe5;stop-opacity:1;"
         id="stop645" />
    </linearGradient>
    <linearGradient
       id="linearGradient923">
      <stop
         style="stop-color:#d9cce6;stop-opacity:1;"
         offset="0.00000000"
         id="stop925" />
      <stop
         style="stop-color:#f3e6ff;stop-opacity:1;"
         offset="1.00000000"
         id="stop924" />
    </linearGradient>
    <linearGradient
       id="linearGradient1535">
      <stop
         style="stop-color:#ffffff;stop-opacity:1;"
         offset="0"
         id="stop1537" />
      <stop
         style="stop-color:#ffffff;stop-opacity:0;"
         offset="1"
         id="stop1536" />
    </linearGradient>
    <linearGradient
       id="linearGradient1528">
      <stop
         style="stop-color:#e6deff;stop-opacity:1;"
         offset="0.00000000"
         id="stop1530" />
      <stop
         style="stop-color:#000000;stop-opacity:1;"
         offset="1.00000000"
         id="stop1529" />
    </linearGradient>
    <linearGradient
       id="linearGradient642">
      <stop
         style="stop-color:#ffffff;stop-opacity:0.541667;"
         offset="0.00000000"
         id="stop643" />
      <stop
         style="stop-color:#ffffff;stop-opacity:0.291667;"
         offset="1.00000000"
         id="stop644" />
    </linearGradient>
    <linearGradient
       id="linearGradient635">
      <stop
         style="stop-color:#e6cfff;stop-opacity:1;"
         offset="0"
         id="stop636" />
      <stop
         style="stop-color:#ffffff;stop-opacity:1;"
         offset="1"
         id="stop637" />
    </linearGradient>
    <linearGradient
       id="linearGradient638"
       xlink:href="#linearGradient639"
       x1="0.17253521"
       y1="0.30208334"
       x2="0.84859157"
       y2="1.01041663" />
    <linearGradient
       id="linearGradient641"
       xlink:href="#linearGradient639"
       x1="0.51315796"
       y1="0.58593744"
       x2="0.38157895"
       y2="0.42968747" />
    <linearGradient
       id="linearGradient1522"
       xlink:href="#linearGradient642"
       x1="1.12857139"
       y1="0.08593750"
       x2="0.57142860"
       y2="0.50781250" />
    <linearGradient
       id="linearGradient1527"
       xlink:href="#linearGradient639"
       x1="0.55371898"
       y1="0.01562500"
       x2="-1.19834709"
       y2="2.26562500" />
    <linearGradient
       id="linearGradient1532"
       xlink:href="#linearGradient639"
       x1="0.45967743"
       y1="0.00000000"
       x2="0.23387097"
       y2="6.12500000" />
    <linearGradient
       id="linearGradient1534"
       xlink:href="#linearGradient642"
       x1="1.14851487"
       y1="0.03125000"
       x2="0.11881188"
       y2="0.67187500" />
    <linearGradient
       id="linearGradient1539"
       xlink:href="#linearGradient1528"
       x1="0.22183098"
       y1="-0.00606061"
       x2="1.89084506"
       y2="1.93939400" />
    <linearGradient
       id="linearGradient1567"
       xlink:href="#linearGradient647"
       x1="0.23591550"
       y1="-0.42574257"
       x2="0.29225352"
       y2="-0.22772278" />
    <linearGradient
       id="linearGradient1042"
       xlink:href="#linearGradient1535"
       x1="0.91901410"
       y1="-0.63302749"
       x2="-0.15845071"
       y2="0.88990825" />
    <linearGradient
       x1="0.950420"
       y1="0.945312"
       x2="0.024794"
       y2="0.015625"
       id="linearGradient1044"
       xlink:href="#linearGradient1535" />
    <defs
       id="defs839">
      <linearGradient
         id="linearGradient983"
         x1="0.00000000"
         y1="0.00000000"
         x2="1.00000000"
         y2="0.00000000"
         gradientUnits="objectBoundingBox"
         spreadMethod="pad"
         xlink:href="#linearGradient643" />
      <linearGradient
         id="linearGradient843"
         x1="0.00000000"
         y1="0.00000000"
         x2="1.00000000"
         y2="0.00000000"
         gradientUnits="objectBoundingBox"
         spreadMethod="pad"
         xlink:href="#linearGradient639" />
      <linearGradient
         id="linearGradient846">
        <stop
           style="stop-color:#a673f3;stop-opacity:1;"
           offset="0"
           id="stop847" />
        <stop
           style="stop-color:#4c3f8c;stop-opacity:1;"
           offset="1"
           id="stop848" />
      </linearGradient>
      <linearGradient
         id="linearGradient849">
        <stop
           style="stop-color:#ffffff;stop-opacity:1;"
           offset="0"
           id="stop850" />
        <stop
           style="stop-color:#ffffff;stop-opacity:0;"
           offset="1"
           id="stop851" />
      </linearGradient>
      <linearGradient
         x1="0.000000"
         y1="0.000000"
         x2="1.000000"
         y2="0.000000"
         id="linearGradient852"
         xlink:href="#linearGradient923"
         gradientUnits="objectBoundingBox"
         spreadMethod="pad" />
      <linearGradient
         x1="0.015504"
         y1="0.015625"
         x2="1.015504"
         y2="0.984375"
         id="linearGradient855"
         xlink:href="#linearGradient635" />
      <linearGradient
         x1="-0.006803"
         y1="0.023438"
         x2="0.986395"
         y2="0.992188"
         id="linearGradient856"
         xlink:href="#linearGradient642" />
      <linearGradient
         x1="-0.000000"
         y1="0.000000"
         x2="1.000000"
         y2="0.000000"
         id="linearGradient857"
         xlink:href="#linearGradient642" />
      <linearGradient
         x1="0.010309"
         y1="0.023436"
         x2="1.000000"
         y2="0.992188"
         id="linearGradient858"
         xlink:href="#linearGradient642" />
      <linearGradient
         id="linearGradient859"
         xlink:href="#linearGradient1535" />
      <linearGradient
         x1="0.014564"
         y1="-0.000001"
         x2="0.989091"
         y2="1.000000"
         id="linearGradient860"
         xlink:href="#linearGradient1535" />
      <linearGradient
         x1="0.003631"
         y1="0.000003"
         x2="1.003636"
         y2="1.041666"
         id="linearGradient861"
         xlink:href="#linearGradient1535" />
      <linearGradient
         x1="0.003633"
         y1="0.008073"
         x2="0.996364"
         y2="0.975806"
         id="linearGradient862"
         xlink:href="#linearGradient1535" />
    </defs>
    <linearGradient
       x1="0.978904"
       y1="0.968750"
       x2="0.008439"
       y2="0.023437"
       id="linearGradient899"
       xlink:href="#linearGradient642" />
    <radialGradient
       xlink:href="#linearGradient647"
       id="radialGradient634"
       cx="0.50000000"
       cy="0.50000000"
       r="0.50000000"
       fx="0.50000000"
       fy="0.50000000" />
  </defs>
  <g
     id="g634"
     transform="translate(-0.220708,-1.765661)">
    <path
       style="font-size:12;fill:#000000;fill-opacity:0.3;fill-rule:evenodd;stroke:none;stroke-width:1pt;"
       d="M 59.076983 25.640695 C 55.059943 42.064096 46.111047 52.489589 32.028912 58.355735 C 11.519512 63.770639 -0.37521272 51.088934 3.3740243 34.214291 C 7.6588683 20.949583 16.339962 11.877814 31.493307 6.01167 C 47.717865 0.59676734 60.6838 10.119777 59.076983 25.640695 z "
       id="path633"
       sodipodi:nodetypes="ccccc" />
    <path
       style="font-size:12;fill:url(#linearGradient1539);fill-opacity:1.00;fill-rule:evenodd;stroke:none;stroke-width:1pt;"
       d="M 57.973444 24.095742 C 53.956404 40.519143 45.007508 50.944636 30.925373 56.810782 C 10.415973 62.225686 -1.4787508 49.543981 2.2704857 32.669338 C 6.5553301 19.40463 15.236423 10.332861 30.389768 4.4667163 C 46.614326 -0.94818663 59.580261 8.5748232 57.973444 24.095742 z "
       id="path640"
       sodipodi:nodetypes="ccccc" />
    <path
       style="font-size:12;fill:#ffd937;fill-rule:evenodd;stroke:url(#linearGradient1567);stroke-width:1.23241pt;"
       d="M 24.486534 19.168817 C 24.372638 27.133216 24.258742 33.940582 24.144845 41.904982 C 24.258741 42.768591 25.042833 43.34433 25.840108 43.632201 C 27.890246 43.536244 30.249113 43.445841 30.249113 41.910535 C 30.135217 34.713789 30.363011 28.662969 30.249113 22.617702 C 29.907424 19.834959 29.224044 17.232139 28.882354 16.752357 C 30.135217 17.424053 32.825059 19.882496 34.629296 19.7704 C 36.414377 19.546204 42.242256 15.37165 45.089667 13.836345 C 42.925633 16.331217 40.362436 18.794693 39.507688 21.466223 C 39.013787 22.085071 39.507688 34.996104 39.507688 42.480721 C 42.810685 42.76859 45.05135 41.201005 52.112932 36.882957 C 49.835004 41.680786 41.741328 50.622663 41.273608 49.070331 C 39.317593 49.171841 35.990079 47.012895 35.420597 46.245242 C 33.688762 48.382024 32.95375 49.635589 29.767163 50.739977 C 23.111343 52.443672 15.904747 48.232564 12.829541 45.641734 C 13.740712 45.545779 15.335263 44.292789 15.563056 43.045353 C 15.676954 34.889039 16.183421 22.927266 15.955628 21.679831 C 16.316476 19.29721 9.968077 23.371871 5.3557963 27.528515 C 7.4825644 22.283182 13.215703 13.757414 24.206192 8.3183971 C 18.625261 15.035359 22.208604 18.209251 24.486534 19.168817 z "
       id="path635"
       sodipodi:nodetypes="cccccccccccccccccccc" />
    <path
       style="font-size:12;fill:url(#linearGradient641);fill-opacity:1.00;fill-rule:evenodd;stroke-width:1pt;"
       d="M 9.1253999 23.029573 C 12.15522 19.200686 13.507379 16.678407 20.814302 11.393895 C 17.745362 16.573355 18.023939 18.41838 18.219569 18.58495 C 17.51846 18.906221 14.374383 19.437136 9.1253999 23.029573 z "
       id="path638"
       sodipodi:nodetypes="cccc" />
    <path
       style="fill:url(#linearGradient1042);fill-rule:evenodd;stroke:none;stroke-opacity:1;stroke-width:1pt;stroke-linejoin:miter;stroke-linecap:butt;fill-opacity:1.00;"
       d="M 36.227437 45.228187 C 37.720453 46.695679 38.964632 47.534246 41.535937 48.302933 C 45.351423 44.739022 46.263822 42.992009 49.083963 40.057025 C 45.710853 42.689193 41.176507 43.92375 38.632851 43.620934 C 38.052234 44.156685 37.139836 44.832197 36.227437 45.228187 z "
       id="path651"
       sodipodi:nodetypes="ccccc" />
    <path
       style="fill:url(#linearGradient638);fill-rule:evenodd;stroke:none;stroke-opacity:1;stroke-width:1pt;stroke-linejoin:miter;stroke-linecap:butt;fill-opacity:1;"
       d="M 2.965162 39.069445 C 2.965162 39.069445 1.802353 54.418518 18.895639 56.744135 C 17.965394 53.139429 19.942168 52.092901 20.407291 51.86034 C 10.8335 50.348689 8.2365611 46.395139 2.965162 39.069445 z "
       id="path652"
       sodipodi:nodetypes="cccc" />
  </g>
</svg>
