<?xml version="1.0" encoding="UTF-8" standalone="no"?>
<!-- Created with Inkscape (http://www.inkscape.org/) -->
<svg
   xmlns:dc="http://purl.org/dc/elements/1.1/"
   xmlns:cc="http://web.resource.org/cc/"
   xmlns:rdf="http://www.w3.org/1999/02/22-rdf-syntax-ns#"
   xmlns:svg="http://www.w3.org/2000/svg"
   xmlns="http://www.w3.org/2000/svg"
   xmlns:xlink="http://www.w3.org/1999/xlink"
   xmlns:sodipodi="http://inkscape.sourceforge.net/DTD/sodipodi-0.dtd"
   xmlns:inkscape="http://www.inkscape.org/namespaces/inkscape"
   id="svg1"
   sodipodi:version="0.32"
   inkscape:version="0.42.2"
   width="48pt"
   height="48pt"
   sodipodi:docbase="/home/jakob/dev/lila/lila-theme/trunk/lila/kde/scalable/actions"
   sodipodi:docname="appointment.svg">
  <metadata
     id="metadata34">
    <rdf:RDF>
      <cc:Work
         rdf:about="">
        <dc:format>image/svg+xml</dc:format>
        <dc:type
           rdf:resource="http://purl.org/dc/dcmitype/StillImage" />
      </cc:Work>
    </rdf:RDF>
  </metadata>
  <defs
     id="defs3">
    <linearGradient
       id="linearGradient674">
      <stop
         style="stop-color:#d9cce6;stop-opacity:1;"
         offset="0.00000000"
         id="stop675" />
      <stop
         style="stop-color:#73667f;stop-opacity:1;"
         offset="1.00000000"
         id="stop676" />
    </linearGradient>
    <linearGradient
       id="linearGradient866">
      <stop
         style="stop-color:#ffffff;stop-opacity:1;"
         offset="0.00000000"
         id="stop867" />
      <stop
         style="stop-color:#d9cce6;stop-opacity:1;"
         offset="1.00000000"
         id="stop868" />
    </linearGradient>
    <linearGradient
       id="linearGradient584">
      <stop
         style="stop-color:#ffffff;stop-opacity:1;"
         offset="0.00000000"
         id="stop585" />
      <stop
         style="stop-color:#ffffff;stop-opacity:0;"
         offset="1.00000000"
         id="stop586" />
    </linearGradient>
    <linearGradient
       xlink:href="#linearGradient866"
       id="linearGradient586"
       x1="3.8016835"
       y1="1.4765247"
       x2="57.287640"
       y2="53.749582"
       gradientTransform="matrix(0.942172,0.000000,0.000000,1.061378,-1.838044e-3,0.000000)"
       gradientUnits="userSpaceOnUse" />
    <linearGradient
       xlink:href="#linearGradient584"
       id="linearGradient587"
       x1="6.6842281"
       y1="3.6391857"
       x2="47.008321"
       y2="43.963279"
       gradientTransform="matrix(0.999604,0.000000,0.000000,1.000396,-1.838044e-3,0.000000)"
       gradientUnits="userSpaceOnUse" />
    <linearGradient
       xlink:href="#linearGradient866"
       id="linearGradient651"
       x1="20.333881"
       y1="12.494293"
       x2="63.880779"
       y2="56.041191"
       gradientUnits="userSpaceOnUse" />
    <linearGradient
       xlink:href="#linearGradient674"
       id="linearGradient652"
       x1="17.692644"
       y1="11.652513"
       x2="77.498717"
       y2="11.652513"
       gradientUnits="userSpaceOnUse" />
    <linearGradient
       xlink:href="#linearGradient584"
       id="linearGradient653"
       x1="6.7268960"
       y1="11.673653"
       x2="21.995873"
       y2="11.673653"
       gradientTransform="matrix(1.069598,0.000000,0.000000,0.934931,-1.838044e-3,0.000000)"
       gradientUnits="userSpaceOnUse" />
    <linearGradient
       xlink:href="#linearGradient584"
       id="linearGradient654"
       x1="23.726955"
       y1="29.301822"
       x2="31.783202"
       y2="29.301822"
       gradientTransform="matrix(1.030800,0.000000,0.000000,0.970121,-1.838044e-3,0.000000)"
       gradientUnits="userSpaceOnUse" />
    <linearGradient
       xlink:href="#linearGradient674"
       id="linearGradient678"
       x1="23.528322"
       y1="14.432154"
       x2="29.559712"
       y2="14.432154"
       gradientTransform="matrix(0.802992,0.000000,0.000000,1.245342,-1.838044e-3,0.000000)"
       gradientUnits="userSpaceOnUse" />
    <linearGradient
       xlink:href="#linearGradient674"
       id="linearGradient677"
       gradientTransform="matrix(1.151089,0.000000,0.000000,0.868743,-1.838044e-3,0.000000)"
       x1="11.050975"
       y1="25.476328"
       x2="19.054556"
       y2="25.476328"
       gradientUnits="userSpaceOnUse" />
  </defs>
  <sodipodi:namedview
     id="base"
     pagecolor="#ffffff"
     bordercolor="#666666"
     borderopacity="1.0"
     inkscape:pageopacity="0.0"
     inkscape:pageshadow="2"
     inkscape:zoom="6.9756098"
     inkscape:cx="21.500001"
     inkscape:cy="23.000000"
     inkscape:window-width="1018"
     inkscape:window-height="711"
     inkscape:window-x="0"
     inkscape:window-y="30"
     inkscape:current-layer="svg1" />
  <path
     d="M 4.4370923,48.086315 C 5.2464800,50.504430 38.763936,61.377487 40.964600,59.552880 C 42.934429,57.902492 57.673727,8.7785888 56.686829,6.8303779 C 55.660983,4.6824777 21.655216,-0.66757240 20.041107,0.80153134 C 18.052871,2.6217520 3.5870291,45.311841 4.4370923,48.086315 z "
     style="font-size:12.000000px;opacity:0.30267498;fill-rule:evenodd;stroke-width:12.500000"
     id="path639" />
  <path
     d="M 4.5523135,46.084930 C 5.3095970,48.347260 36.667712,58.519843 38.726594,56.812781 C 40.569520,55.268717 54.359272,9.3095333 53.435957,7.4867937 C 52.476196,5.4772680 20.661190,0.47192513 19.151066,1.8463842 C 17.290921,3.5493405 3.7570127,43.489198 4.5523135,46.084930 z "
     style="font-size:12.000000px;fill:url(#linearGradient586);fill-rule:evenodd;stroke:#261933;stroke-width:1.8772600"
     id="path634" />
  <path
     d="M 6.6858187,43.965773 C 6.3585539,43.136670 19.361920,4.5872629 20.577589,3.7922731 C 22.096922,2.7554118 46.657976,7.3454032 46.984472,8.1725610 C 47.283732,8.9306762 27.821833,5.3906629 23.492007,9.2635774 C 15.187781,16.482895 6.9843094,44.721984 6.6858187,43.965773 z "
     style="font-size:12.000000px;opacity:0.69993597;fill:url(#linearGradient587);fill-rule:evenodd;stroke:none;stroke-width:0.10012100pt"
     id="path640" />
  <g
     transform="matrix(0.584182,0.000000,0.000000,0.577940,2.214067,6.407519)"
     style="font-size:12.000000px;opacity:0.29999998;stroke:#000000"
     id="g677">
    <ellipse
       cx="47.595680"
       cy="41.555550"
       rx="28.881311"
       ry="28.881311"
       transform="matrix(0.917566,0.000000,0.000000,0.917566,-11.48724,-5.833475)"
       style="fill-rule:evenodd;stroke-width:2.0541799"
       id="path675"
       sodipodi:cx="47.595680"
       sodipodi:cy="41.555550"
       sodipodi:rx="28.881311"
       sodipodi:ry="28.881311" />
    <ellipse
       cx="42.107330"
       cy="34.267742"
       rx="21.773449"
       ry="21.773449"
       transform="matrix(0.934849,0.000000,0.000000,0.934849,-7.035911,0.205833)"
       style="fill-rule:evenodd;stroke-width:1.0000000pt"
       id="path676"
       sodipodi:cx="42.107330"
       sodipodi:cy="34.267742"
       sodipodi:rx="21.773449"
       sodipodi:ry="21.773449" />
  </g>
  <ellipse
     cx="47.595680"
     cy="41.555550"
     rx="28.881311"
     ry="28.881311"
     transform="matrix(0.536025,0.000000,0.000000,0.530298,-5.094083,2.050929)"
     style="font-size:12.000000px;fill:url(#linearGradient652);fill-opacity:1.0000000;fill-rule:evenodd;stroke:#261933;stroke-width:2.0434501;stroke-dasharray:none"
     id="path594"
     sodipodi:cx="47.595680"
     sodipodi:cy="41.555550"
     sodipodi:rx="28.881311"
     sodipodi:ry="28.881311" />
  <ellipse
     cx="42.107330"
     cy="34.267742"
     rx="21.773449"
     ry="21.773449"
     transform="matrix(0.546122,0.000000,0.000000,0.540287,-2.493693,5.541289)"
     style="font-size:12.000000px;fill:url(#linearGradient651);fill-opacity:1.0000000;fill-rule:evenodd;stroke:none;stroke-width:1.0000000pt;stroke-opacity:1.0000000"
     id="path623"
     sodipodi:cx="42.107330"
     sodipodi:cy="34.267742"
     sodipodi:rx="21.773449"
     sodipodi:ry="21.773449" />
  <path
     d="M 20.029743,24.958629 C 19.711775,24.798403 19.182341,23.994777 19.425258,23.664348 L 23.262185,18.445162 L 21.251176,24.584445 C 21.134788,24.939757 20.320414,25.105102 20.029743,24.958629 z "
     style="font-size:12.000000px;fill:url(#linearGradient678);fill-opacity:1.0000000;fill-rule:evenodd;stroke:#261933;stroke-width:0.94437701"
     id="path666" />
  <path
     d="M 21.315343,24.659292 C 21.110389,24.948280 20.100888,25.263256 19.693788,24.902280 L 13.263553,19.200592 L 20.870727,23.242778 C 21.310993,23.476720 21.502701,24.395112 21.315343,24.659292 z "
     style="font-size:12.000000px;fill:url(#linearGradient677);fill-opacity:1.0000000;fill-rule:evenodd;stroke:#261933;stroke-width:1.0894800"
     id="path667" />
  <path
     d="M 32.760275,28.426302 C 31.996345,30.240146 30.647475,32.182018 29.201257,33.521068 C 27.843400,34.778303 26.253382,35.592762 24.455899,36.241833 C 26.451106,36.170702 28.718225,35.510619 30.117974,34.214596 C 31.522301,32.914334 32.652426,30.631366 32.760275,28.426302 z "
     style="font-size:12.000000px;fill:url(#linearGradient654);fill-opacity:1.0000000;fill-rule:evenodd;stroke-width:1.0000000pt"
     id="path668" />
  <path
     d="M 7.1932341,25.189500 C 7.3038821,21.226837 9.1404930,16.563450 11.707677,14.089663 C 14.252436,11.637488 19.054712,10.586757 23.524896,11.002727 C 19.807120,12.239691 15.786147,13.637603 13.101843,16.224247 C 10.674204,18.563566 8.3218451,21.894579 7.1932341,25.189500 z "
     style="font-size:12.000000px;fill:url(#linearGradient653);fill-opacity:1.0000000;fill-rule:evenodd;stroke-width:1.0000000pt"
     id="path593" />
</svg>
