<?xml version="1.0" encoding="UTF-8" standalone="no"?>
<!-- Created with Inkscape (http://www.inkscape.org/) -->
<svg
   xmlns:dc="http://purl.org/dc/elements/1.1/"
   xmlns:cc="http://web.resource.org/cc/"
   xmlns:rdf="http://www.w3.org/1999/02/22-rdf-syntax-ns#"
   xmlns:svg="http://www.w3.org/2000/svg"
   xmlns="http://www.w3.org/2000/svg"
   xmlns:xlink="http://www.w3.org/1999/xlink"
   xmlns:sodipodi="http://inkscape.sourceforge.net/DTD/sodipodi-0.dtd"
   xmlns:inkscape="http://www.inkscape.org/namespaces/inkscape"
   id="svg1"
   sodipodi:version="0.32"
   inkscape:version="0.42"
   width="48.000000pt"
   height="48.000000pt"
   sodipodi:docbase="/home/jakob/dev/lila/lila-theme/branches/tango/scalable/status"
   sodipodi:docname="audio-volume-low.svg">
  <defs
     id="defs3">
    <linearGradient
       id="linearGradient584">
      <stop
         style="stop-color:#ffffff;stop-opacity:1;"
         offset="0.00000000"
         id="stop585" />
      <stop
         style="stop-color:#ffffff;stop-opacity:0;"
         offset="1.00000000"
         id="stop586" />
    </linearGradient>
    <linearGradient
       id="linearGradient837">
      <stop
         style="stop-color:#d9cce6;stop-opacity:1.0000000;"
         offset="0.0000000"
         id="stop838" />
      <stop
         style="stop-color:#73667f;stop-opacity:1.0000000;"
         offset="1.0000000"
         id="stop839" />
    </linearGradient>
    <linearGradient
       inkscape:collect="always"
       xlink:href="#linearGradient837"
       id="linearGradient3693"
       gradientUnits="userSpaceOnUse"
       gradientTransform="scale(0.981187,1.019174)"
       x1="29.712093"
       y1="35.477024"
       x2="49.292671"
       y2="54.941551" />
    <linearGradient
       inkscape:collect="always"
       xlink:href="#linearGradient584"
       id="linearGradient3694"
       gradientUnits="userSpaceOnUse"
       gradientTransform="scale(0.992911,1.007139)"
       x1="30.627296"
       y1="36.956167"
       x2="46.526911"
       y2="52.884013" />
    <linearGradient
       inkscape:collect="always"
       xlink:href="#linearGradient584"
       id="linearGradient3695"
       gradientUnits="userSpaceOnUse"
       gradientTransform="scale(0.660963,1.512943)"
       x1="61.915553"
       y1="26.809235"
       x2="70.330377"
       y2="35.238999" />
    <linearGradient
       inkscape:collect="always"
       xlink:href="#linearGradient837"
       id="linearGradient3696"
       gradientUnits="userSpaceOnUse"
       gradientTransform="scale(0.981187,1.019174)"
       x1="29.712093"
       y1="35.477024"
       x2="49.292671"
       y2="54.941551" />
    <linearGradient
       inkscape:collect="always"
       xlink:href="#linearGradient584"
       id="linearGradient3697"
       gradientUnits="userSpaceOnUse"
       gradientTransform="scale(0.992911,1.007139)"
       x1="30.627296"
       y1="36.956167"
       x2="46.526911"
       y2="52.884013" />
    <linearGradient
       inkscape:collect="always"
       xlink:href="#linearGradient584"
       id="linearGradient3698"
       gradientUnits="userSpaceOnUse"
       gradientTransform="scale(0.660963,1.512943)"
       x1="61.915553"
       y1="26.809235"
       x2="70.330377"
       y2="35.238999" />
    <linearGradient
       inkscape:collect="always"
       xlink:href="#linearGradient837"
       id="linearGradient3699"
       gradientUnits="userSpaceOnUse"
       gradientTransform="scale(0.833365,1.199954)"
       x1="2.3557918"
       y1="19.132221"
       x2="23.045666"
       y2="40.392590" />
    <linearGradient
       inkscape:collect="always"
       xlink:href="#linearGradient584"
       id="linearGradient3700"
       gradientUnits="userSpaceOnUse"
       gradientTransform="scale(1.270122,0.787326)"
       x1="3.2824602"
       y1="32.642122"
       x2="9.9986503"
       y2="39.116657" />
    <linearGradient
       inkscape:collect="always"
       xlink:href="#linearGradient837"
       id="linearGradient3701"
       gradientUnits="userSpaceOnUse"
       gradientTransform="scale(0.874781,1.143143)"
       x1="9.0394907"
       y1="15.766331"
       x2="38.433567"
       y2="44.444363" />
    <linearGradient
       inkscape:collect="always"
       xlink:href="#linearGradient837"
       id="linearGradient3702"
       gradientUnits="userSpaceOnUse"
       gradientTransform="scale(0.869854,1.149619)"
       x1="32.343048"
       y1="38.350266"
       x2="15.038002"
       y2="20.955492" />
    <linearGradient
       inkscape:collect="always"
       xlink:href="#linearGradient584"
       id="linearGradient3703"
       gradientUnits="userSpaceOnUse"
       gradientTransform="scale(0.876117,1.141400)"
       x1="26.590479"
       y1="32.936240"
       x2="20.704352"
       y2="26.847582" />
    <linearGradient
       inkscape:collect="always"
       xlink:href="#linearGradient584"
       id="linearGradient3704"
       gradientUnits="userSpaceOnUse"
       gradientTransform="scale(0.717822,1.393103)"
       x1="13.529301"
       y1="13.596412"
       x2="29.464286"
       y2="29.819352" />
    <linearGradient
       inkscape:collect="always"
       xlink:href="#linearGradient584"
       id="linearGradient3705"
       gradientUnits="userSpaceOnUse"
       gradientTransform="scale(0.717822,1.393103)"
       x1="25.898800"
       y1="22.383246"
       x2="29.110844"
       y2="25.653333" />
    <linearGradient
       inkscape:collect="always"
       xlink:href="#linearGradient584"
       id="linearGradient3706"
       gradientUnits="userSpaceOnUse"
       gradientTransform="scale(0.717822,1.393103)"
       x1="28.471014"
       y1="21.463920"
       x2="37.965993"
       y2="31.130479" />
    <linearGradient
       inkscape:collect="always"
       xlink:href="#linearGradient837"
       id="linearGradient3707"
       gradientUnits="userSpaceOnUse"
       gradientTransform="scale(0.981187,1.019174)"
       x1="29.712093"
       y1="35.477024"
       x2="49.292671"
       y2="54.941551" />
    <linearGradient
       inkscape:collect="always"
       xlink:href="#linearGradient584"
       id="linearGradient3708"
       gradientUnits="userSpaceOnUse"
       gradientTransform="scale(0.992911,1.007139)"
       x1="30.627296"
       y1="36.956167"
       x2="46.526911"
       y2="52.884013" />
    <linearGradient
       inkscape:collect="always"
       xlink:href="#linearGradient584"
       id="linearGradient3709"
       gradientUnits="userSpaceOnUse"
       gradientTransform="scale(0.660963,1.512943)"
       x1="61.915553"
       y1="26.809235"
       x2="70.330377"
       y2="35.238999" />
    <linearGradient
       inkscape:collect="always"
       xlink:href="#linearGradient584"
       id="linearGradient1353"
       gradientUnits="userSpaceOnUse"
       gradientTransform="matrix(0.402881,0.000000,0.000000,0.922195,19.14322,14.41749)"
       x1="61.915553"
       y1="26.809235"
       x2="70.330377"
       y2="35.238999" />
    <linearGradient
       inkscape:collect="always"
       xlink:href="#linearGradient584"
       id="linearGradient1356"
       gradientUnits="userSpaceOnUse"
       gradientTransform="matrix(0.605216,0.000000,0.000000,0.613888,19.14322,14.41749)"
       x1="30.627296"
       y1="36.956167"
       x2="46.526911"
       y2="52.884013" />
    <linearGradient
       inkscape:collect="always"
       xlink:href="#linearGradient837"
       id="linearGradient1360"
       gradientUnits="userSpaceOnUse"
       gradientTransform="matrix(0.598070,0.000000,0.000000,0.621224,19.14322,14.41749)"
       x1="29.712093"
       y1="35.477024"
       x2="49.292671"
       y2="54.941551" />
    <linearGradient
       inkscape:collect="always"
       xlink:href="#linearGradient584"
       id="linearGradient1364"
       gradientUnits="userSpaceOnUse"
       gradientTransform="matrix(0.752041,0.000000,0.000000,1.459514,-2.056824,-2.481781)"
       x1="28.471014"
       y1="21.463920"
       x2="37.965993"
       y2="31.130479" />
    <linearGradient
       inkscape:collect="always"
       xlink:href="#linearGradient584"
       id="linearGradient1367"
       gradientUnits="userSpaceOnUse"
       gradientTransform="matrix(0.752041,0.000000,0.000000,1.459514,-2.056824,-2.481781)"
       x1="25.898800"
       y1="22.383246"
       x2="29.110844"
       y2="25.653333" />
    <linearGradient
       inkscape:collect="always"
       xlink:href="#linearGradient584"
       id="linearGradient1370"
       gradientUnits="userSpaceOnUse"
       gradientTransform="matrix(0.752041,0.000000,0.000000,1.459514,-2.056824,-2.481781)"
       x1="13.529301"
       y1="13.596412"
       x2="29.464286"
       y2="29.819352" />
    <linearGradient
       inkscape:collect="always"
       xlink:href="#linearGradient584"
       id="linearGradient1373"
       gradientUnits="userSpaceOnUse"
       gradientTransform="matrix(0.917882,0.000000,0.000000,1.195812,-2.056824,-2.481781)"
       x1="26.590479"
       y1="32.936240"
       x2="20.704352"
       y2="26.847582" />
    <linearGradient
       inkscape:collect="always"
       xlink:href="#linearGradient837"
       id="linearGradient1376"
       gradientUnits="userSpaceOnUse"
       gradientTransform="matrix(0.911321,0.000000,0.000000,1.204422,-2.056824,-2.481781)"
       x1="32.343048"
       y1="38.350266"
       x2="15.038002"
       y2="20.955492" />
    <linearGradient
       inkscape:collect="always"
       xlink:href="#linearGradient837"
       id="linearGradient1379"
       gradientUnits="userSpaceOnUse"
       gradientTransform="matrix(0.916483,0.000000,0.000000,1.197638,-2.056824,-2.481781)"
       x1="9.0394907"
       y1="15.766331"
       x2="38.433567"
       y2="44.444363" />
    <linearGradient
       inkscape:collect="always"
       xlink:href="#linearGradient584"
       id="linearGradient1382"
       gradientUnits="userSpaceOnUse"
       gradientTransform="matrix(1.330670,0.000000,0.000000,0.824859,-2.056824,-2.481781)"
       x1="3.2824602"
       y1="32.642122"
       x2="9.9986503"
       y2="39.116657" />
    <linearGradient
       inkscape:collect="always"
       xlink:href="#linearGradient837"
       id="linearGradient1385"
       gradientUnits="userSpaceOnUse"
       gradientTransform="matrix(0.873092,0.000000,0.000000,1.257157,-2.056824,-2.481781)"
       x1="2.3557918"
       y1="19.132221"
       x2="23.045666"
       y2="40.392590" />
    <linearGradient
       inkscape:collect="always"
       xlink:href="#linearGradient584"
       id="linearGradient1391"
       gradientUnits="userSpaceOnUse"
       gradientTransform="matrix(0.478259,0.000000,0.000000,1.094734,23.85078,-6.196366)"
       x1="61.915553"
       y1="26.809235"
       x2="70.330377"
       y2="35.238999" />
    <linearGradient
       inkscape:collect="always"
       xlink:href="#linearGradient584"
       id="linearGradient1394"
       gradientUnits="userSpaceOnUse"
       gradientTransform="matrix(0.718450,0.000000,0.000000,0.728745,23.85078,-6.196366)"
       x1="30.627296"
       y1="36.956167"
       x2="46.526911"
       y2="52.884013" />
    <linearGradient
       inkscape:collect="always"
       xlink:href="#linearGradient837"
       id="linearGradient1398"
       gradientUnits="userSpaceOnUse"
       gradientTransform="matrix(0.709966,0.000000,0.000000,0.737453,23.85078,-6.196366)"
       x1="29.712093"
       y1="35.477024"
       x2="49.292671"
       y2="54.941551" />
    <linearGradient
       inkscape:collect="always"
       xlink:href="#linearGradient584"
       id="linearGradient1402"
       gradientUnits="userSpaceOnUse"
       gradientTransform="matrix(0.589139,0.000000,0.000000,1.348538,4.358190,-27.96365)"
       x1="61.915553"
       y1="26.809235"
       x2="70.330377"
       y2="35.238999" />
    <linearGradient
       inkscape:collect="always"
       xlink:href="#linearGradient584"
       id="linearGradient1405"
       gradientUnits="userSpaceOnUse"
       gradientTransform="matrix(0.885015,0.000000,0.000000,0.897697,4.358190,-27.96365)"
       x1="30.627296"
       y1="36.956167"
       x2="46.526911"
       y2="52.884013" />
    <linearGradient
       inkscape:collect="always"
       xlink:href="#linearGradient837"
       id="linearGradient1409"
       gradientUnits="userSpaceOnUse"
       gradientTransform="matrix(0.874565,0.000000,0.000000,0.908424,4.358190,-27.96365)"
       x1="29.712093"
       y1="35.477024"
       x2="49.292671"
       y2="54.941551" />
  </defs>
  <sodipodi:namedview
     id="base"
     pagecolor="#ffffff"
     bordercolor="#666666"
     borderopacity="1.0"
     inkscape:pageopacity="0.0"
     inkscape:pageshadow="2"
     inkscape:zoom="8.0000000"
     inkscape:cx="35.111511"
     inkscape:cy="29.812283"
     inkscape:window-width="1018"
     inkscape:window-height="695"
     inkscape:window-x="73"
     inkscape:window-y="117"
     showguides="true"
     snaptoguides="true"
     inkscape:current-layer="svg1" />
  <metadata
     id="metadata964">
    <rdf:RDF>
      <cc:Work
         rdf:about="">
        <dc:format>image/svg+xml</dc:format>
        <dc:type
           rdf:resource="http://purl.org/dc/dcmitype/StillImage" />
      </cc:Work>
    </rdf:RDF>
  </metadata>
  <g
     transform="matrix(-0.588727,0.247615,0.279818,0.665294,27.79784,5.406396)"
     style="font-size:12.000000px;opacity:0.29636899"
     id="g1204">
    <path
       sodipodi:nodetypes="cssss"
       id="path1205"
       d="M 40.181906,49.683924 C 43.741420,46.987630 55.413093,36.819956 56.782923,33.597578 C 58.501012,29.555960 56.258798,19.433555 53.192815,16.716700 C 50.944448,14.724357 36.640091,12.559718 32.521925,12.563247 C 28.414485,12.566766 34.838722,53.731330 40.181906,49.683924 z "
       style="fill-rule:evenodd;stroke-width:1.8750000" />
    <path
       transform="matrix(1.373487,0.000000,0.000000,1.373487,-17.61598,-13.82184)"
       id="path1206"
       d="M 46.995589,33.682468 C 46.995589,44.404983 40.468842,53.107313 32.426956,53.107313 C 24.385071,53.107313 17.858323,44.404983 17.858323,33.682468 C 17.858323,22.959954 24.385071,14.257624 32.426956,14.257624 C 40.468842,14.257624 46.995589,22.959954 46.995589,33.682468 z "
       style="fill-rule:evenodd;stroke-width:1.8750000" />
  </g>
  <path
     sodipodi:nodetypes="cssss"
     id="path1207"
     d="M 16.518291,47.401821 C 13.847352,46.462071 4.7599423,42.540141 3.1895881,40.794225 C 1.2199959,38.604434 -0.032682350,31.706641 1.0166532,29.323164 C 1.7861586,27.575295 9.2917169,23.114906 11.608154,22.227872 C 13.918555,21.343148 20.527636,48.812478 16.518291,47.401821 z "
     style="font-size:12.000000px;fill:url(#linearGradient1385);fill-opacity:1.0000000;fill-rule:evenodd;stroke:#261933;stroke-width:1.2730193;stroke-opacity:1.0000000" />
  <path
     sodipodi:nodetypes="cssss"
     id="path1208"
     d="M 2.3116898,29.994687 C 2.3853887,29.760487 7.7409308,25.242523 10.108797,24.455346 C 10.728232,24.249420 11.353881,26.760236 11.273592,27.015378 C 11.214484,27.203214 10.221327,25.607848 9.6906041,25.784285 C 7.2340255,26.600953 2.2459904,30.203467 2.3116898,29.994687 z "
     style="font-size:12.000000px;fill:url(#linearGradient1382);fill-rule:evenodd;stroke-width:1.0000000pt" />
  <path
     id="path1209"
     d="M 8.4828028,37.964134 C 12.368722,47.203243 20.499095,52.608540 26.630956,50.029505 C 32.762816,47.450485 34.585608,37.858947 30.699687,28.619834 C 26.813768,19.380723 18.683397,13.975436 12.551537,16.554463 C 6.4196732,19.133489 4.5968806,28.725022 8.4828028,37.964134 z "
     style="font-size:12.000000px;fill:url(#linearGradient1379);fill-opacity:1.0000000;fill-rule:evenodd;stroke:#261933;stroke-width:1.2730193" />
  <path
     id="path1210"
     d="M 12.782845,36.155561 C 15.164538,41.818243 20.147669,45.131160 23.905908,43.550467 C 27.664144,41.969772 28.781340,36.091092 26.399648,30.428408 C 24.017954,24.765726 19.034823,21.452809 15.276584,23.033501 C 11.518346,24.614197 10.401152,30.492879 12.782845,36.155561 z "
     style="font-size:12.000000px;fill:url(#linearGradient1376);fill-opacity:1.0000000;fill-rule:evenodd;stroke-width:0.37500000" />
  <path
     id="path1211"
     d="M 17.351640,34.233951 C 18.135092,36.096673 19.774278,37.186451 21.010540,36.666486 C 22.246804,36.146519 22.614302,34.212744 21.830850,32.350018 C 21.047399,30.487292 19.408211,29.397519 18.171947,29.917484 C 16.935685,30.437450 16.568186,32.371224 17.351640,34.233951 z "
     style="font-size:12.000000px;fill:url(#linearGradient1373);fill-rule:evenodd;stroke:#261933;stroke-width:0.32974964" />
  <path
     sodipodi:nodetypes="cssss"
     id="path1212"
     d="M 11.848894,41.219923 C 11.525819,40.905201 5.3831262,30.167799 9.5785808,21.169181 C 12.296141,15.486056 20.081117,17.760887 20.404668,18.076073 C 20.698577,18.362381 14.087894,16.910502 11.430957,22.973661 C 7.5002734,32.224503 12.143277,41.506693 11.848894,41.219923 z "
     style="font-size:12.000000px;fill:url(#linearGradient1370);fill-rule:evenodd;stroke-width:1.0000000pt" />
  <path
     sodipodi:nodetypes="cssss"
     id="path1213"
     d="M 18.172235,34.995880 C 18.107112,34.932440 16.868916,32.768083 17.714604,30.954216 C 18.262385,29.808657 19.831618,30.267200 19.896837,30.330731 C 19.956081,30.388443 18.623553,30.095784 18.087990,31.317947 C 17.295675,33.182658 18.231572,35.053684 18.172235,34.995880 z "
     style="font-size:12.000000px;fill:url(#linearGradient1367);fill-rule:evenodd;stroke-width:1.0000000pt" />
  <path
     sodipodi:nodetypes="cssss"
     id="path1214"
     d="M 24.458233,28.848959 C 24.650740,29.036487 28.310910,35.434448 25.811016,40.796341 C 24.191737,44.182673 19.553003,42.827199 19.360212,42.639392 C 19.185086,42.468793 23.124110,43.333907 24.707265,39.721129 C 27.049392,34.208945 24.282823,28.678082 24.458233,28.848959 z "
     style="font-size:12.000000px;fill:url(#linearGradient1364);fill-rule:evenodd;stroke-width:1.0000000pt" />
  <path
     sodipodi:nodetypes="ccccccccccccccccccssc"
     id="path1216"
     d="M 42.473162,37.385518 C 42.045602,37.368963 41.739407,37.434320 41.635049,37.652190 C 41.217618,38.523671 41.450469,46.010134 41.158848,46.014276 C 40.476671,46.023245 39.044002,46.083856 38.625460,46.414285 C 38.206918,46.744712 37.939731,47.205694 37.939731,47.709551 C 37.939731,48.213408 38.206918,48.655342 38.625460,48.985769 C 39.044002,49.316196 39.606323,49.519114 40.244543,49.519114 C 40.882762,49.519114 41.464131,49.316197 41.882674,48.985769 C 42.301215,48.655341 42.568403,47.470534 42.568403,46.966677 C 42.568403,46.714749 42.674343,42.363120 42.739835,40.471299 C 42.772581,39.525388 45.709561,40.907608 47.815609,40.204626 C 47.708075,42.707077 47.844359,46.011304 47.635179,46.014276 C 46.953002,46.023245 45.520331,46.083856 45.101791,46.414285 C 44.683249,46.744712 44.416062,47.205694 44.416062,47.709551 C 44.416062,48.213408 44.683247,48.655342 45.101791,48.985769 C 45.520332,49.316196 46.101702,49.519114 46.739921,49.519114 C 47.378140,49.519114 47.940462,49.316197 48.359004,48.985769 C 48.777546,48.655341 49.044734,47.470534 49.044733,46.966677 C 49.044733,46.714749 49.050194,42.438259 49.279183,40.559238 C 49.453367,39.085966 50.279852,36.799921 48.269637,37.536474 C 46.434162,38.209002 43.755843,37.435182 42.473162,37.385518 z "
     style="font-size:12.000000px;fill:#000000;fill-opacity:0.30081299;fill-rule:evenodd;stroke:none;stroke-width:1.2500000" />
  <path
     sodipodi:nodetypes="ccccccccccccccccccssc"
     id="path1217"
     d="M 41.524657,36.437014 C 41.097096,36.420460 40.790901,36.485817 40.686543,36.703687 C 40.269112,37.575167 40.501963,45.061630 40.210343,45.065772 C 39.528165,45.074742 38.095496,45.135352 37.676954,45.465781 C 37.258412,45.796209 36.991225,46.257190 36.991225,46.761047 C 36.991225,47.264904 37.258412,47.706838 37.676954,48.037265 C 38.095496,48.367693 38.657818,48.570611 39.296037,48.570610 C 39.934256,48.570610 40.515626,48.367693 40.934168,48.037265 C 41.352709,47.706838 41.619897,46.522030 41.619897,46.018174 C 41.619897,45.766245 41.725837,41.414616 41.791329,39.522795 C 41.824075,38.576885 44.761055,39.959105 46.867103,39.256123 C 46.759570,41.758573 46.895853,45.062801 46.686673,45.065772 C 46.004496,45.074742 44.571825,45.135352 44.153285,45.465781 C 43.734743,45.796209 43.467556,46.257190 43.467556,46.761047 C 43.467556,47.264904 43.734742,47.706838 44.153285,48.037265 C 44.571827,48.367693 45.153196,48.570611 45.791416,48.570610 C 46.429634,48.570610 46.991956,48.367693 47.410498,48.037265 C 47.829040,47.706838 48.096228,46.522030 48.096227,46.018174 C 48.096227,45.766245 48.101688,41.489756 48.330677,39.610734 C 48.504861,38.137462 49.331346,35.851417 47.321132,36.587971 C 45.485657,37.260499 42.807337,36.486678 41.524657,36.437014 z "
     style="font-size:12.000000px;fill:url(#linearGradient1360);fill-opacity:1.0000000;fill-rule:evenodd;stroke:#261933;stroke-width:0.76192123;stroke-opacity:1.0000000" />
  <path
     d="M 40.075311,39.715409 C 40.074270,39.715286 40.073228,39.715164 40.072187,39.715041 L 40.072187,38.897104 C 40.073228,38.896981 40.074270,38.896858 40.075311,38.896735 L 40.075311,39.715409 z "
     id="path1218"
     style="font-size:12.000000px;fill-opacity:1.0000000;stroke-width:1.0000000pt" />
  <path
     sodipodi:nodetypes="ccssssccss"
     id="path1219"
     d="M 38.340677,45.833301 C 37.635196,46.100203 37.595270,46.469017 37.570005,47.040097 C 37.838679,46.820525 37.729296,46.305362 38.665347,46.127405 C 40.253505,45.808185 40.799240,46.255209 40.886408,45.640587 C 41.184776,43.179346 41.040842,40.121888 41.292152,37.881875 C 41.351602,37.440923 41.376188,37.512532 42.140791,37.520193 C 43.485150,37.489693 47.458112,37.674710 47.520755,37.202248 C 44.743179,37.633941 41.810066,36.902667 41.099438,36.948869 C 40.855694,39.276464 40.881140,43.640016 40.764704,45.295789 C 40.711423,46.076670 39.582444,45.382687 38.340677,45.833301 z "
     style="font-size:12.000000px;fill:url(#linearGradient1356);fill-rule:evenodd;stroke-width:1.0000000pt" />
  <path
     sodipodi:nodetypes="ccssscss"
     id="path1220"
     d="M 44.820007,45.833301 C 44.114526,46.100203 44.074600,46.469017 44.049335,47.040097 C 44.318009,46.820525 44.208626,46.305362 45.144677,46.127405 C 46.732835,45.808185 47.445808,46.261310 47.453677,45.640587 C 47.488228,42.871559 47.525191,40.575589 47.551634,39.640661 C 47.517455,39.294523 47.629851,39.057178 47.446859,39.015442 C 47.291054,39.936009 47.360470,43.640016 47.244034,45.295789 C 47.190753,46.076670 46.061774,45.382687 44.820007,45.833301 z "
     style="font-size:12.000000px;fill:url(#linearGradient1353);fill-rule:evenodd;stroke-width:1.0000000pt" />
</svg>
