<?xml version="1.0" encoding="UTF-8" standalone="no"?>
<!-- Created with Inkscape (http://www.inkscape.org/) -->
<svg
   xmlns:dc="http://purl.org/dc/elements/1.1/"
   xmlns:cc="http://web.resource.org/cc/"
   xmlns:rdf="http://www.w3.org/1999/02/22-rdf-syntax-ns#"
   xmlns:svg="http://www.w3.org/2000/svg"
   xmlns="http://www.w3.org/2000/svg"
   xmlns:xlink="http://www.w3.org/1999/xlink"
   xmlns:sodipodi="http://inkscape.sourceforge.net/DTD/sodipodi-0.dtd"
   xmlns:inkscape="http://www.inkscape.org/namespaces/inkscape"
   id="svg1"
   sodipodi:version="0.32"
   inkscape:version="0.42"
   width="48.000000pt"
   height="48.000000pt"
   sodipodi:docbase="/home/stefan/Desktop"
   sodipodi:docname="battery.svg">
  <metadata
     id="metadata25">
    <rdf:RDF>
      <cc:Work
         rdf:about="">
        <dc:format>image/svg+xml</dc:format>
        <dc:type
           rdf:resource="http://purl.org/dc/dcmitype/StillImage" />
      </cc:Work>
    </rdf:RDF>
  </metadata>
  <defs
     id="defs3">
    <linearGradient
       id="linearGradient578">
      <stop
         style="stop-color:#faf8fd;stop-opacity:1;"
         offset="0.00000000"
         id="stop579" />
      <stop
         style="stop-color:#d9cce6;stop-opacity:1;"
         offset="1.00000000"
         id="stop580" />
    </linearGradient>
    <linearGradient
       xlink:href="#linearGradient578"
       id="linearGradient581"
       x1="1.9314769"
       y1="6.9057429"
       x2="52.423467"
       y2="58.479856"
       gradientTransform="matrix(1.072902,0.000000,0.000000,0.932051,-66.23873,18.89311)"
       gradientUnits="userSpaceOnUse" />
    <linearGradient
       xlink:href="#linearGradient584"
       id="linearGradient654"
       x1="39.940152"
       y1="5.4585462"
       x2="53.456474"
       y2="17.034595"
       gradientTransform="matrix(0.565867,0.000000,0.000000,1.767200,-66.23873,18.89311)"
       gradientUnits="userSpaceOnUse" />
    <linearGradient
       xlink:href="#linearGradient584"
       id="linearGradient655"
       x1="28.991954"
       y1="39.173233"
       x2="33.223748"
       y2="43.375994"
       gradientTransform="matrix(0.911255,0.000000,0.000000,1.097388,-66.23873,18.89311)"
       gradientUnits="userSpaceOnUse" />
    <linearGradient
       id="linearGradient584">
      <stop
         style="stop-color:#ffffff;stop-opacity:1;"
         offset="0.00000000"
         id="stop585" />
      <stop
         style="stop-color:#ffffff;stop-opacity:0;"
         offset="1.00000000"
         id="stop586" />
    </linearGradient>
    <linearGradient
       xlink:href="#linearGradient584"
       id="linearGradient583"
       x1="5.6790203"
       y1="9.2046779"
       x2="37.266779"
       y2="40.286641"
       gradientTransform="matrix(0.965193,0.000000,0.000000,1.036062,-66.23873,18.89311)"
       gradientUnits="userSpaceOnUse" />
    <linearGradient
       id="linearGradient926">
      <stop
         style="stop-color:#ffffff;stop-opacity:1.0000000;"
         offset="0.0000000"
         id="stop927" />
      <stop
         style="stop-color:#ffffff;stop-opacity:0.0000000;"
         offset="1.0000000"
         id="stop928" />
    </linearGradient>
    <linearGradient
       id="linearGradient831">
      <stop
         style="stop-color:#c7b397;stop-opacity:1.0000000;"
         offset="0.0000000"
         id="stop832" />
      <stop
         style="stop-color:#faebdc;stop-opacity:1.0000000;"
         offset="1.0000000"
         id="stop833" />
    </linearGradient>
    <linearGradient
       id="linearGradient826">
      <stop
         style="stop-color:#73667f;stop-opacity:1.0000000;"
         offset="0.0000000"
         id="stop827" />
      <stop
         style="stop-color:#d9cce6;stop-opacity:1.0000000;"
         offset="1.0000000"
         id="stop828" />
    </linearGradient>
    <linearGradient
       xlink:href="#linearGradient826"
       id="linearGradient829"
       x1="57.035974"
       y1="47.536927"
       x2="13.437411"
       y2="3.5035379"
       gradientTransform="matrix(0.839639,0.000000,0.000000,1.190987,-3.144005e-3,0.000000)"
       gradientUnits="userSpaceOnUse" />
    <linearGradient
       xlink:href="#linearGradient831"
       id="linearGradient834"
       x1="38.437533"
       y1="33.909223"
       x2="10.828065"
       y2="6.0243937"
       gradientTransform="matrix(1.212396,0.000000,0.000000,0.824813,-3.144005e-3,0.000000)"
       gradientUnits="userSpaceOnUse" />
    <linearGradient
       xlink:href="#linearGradient926"
       id="linearGradient925"
       x1="14.919652"
       y1="10.136341"
       x2="40.151735"
       y2="34.432671"
       gradientTransform="matrix(0.901959,0.000000,0.000000,1.108698,-3.144005e-3,0.000000)"
       gradientUnits="userSpaceOnUse" />
    <linearGradient
       xlink:href="#linearGradient831"
       id="linearGradient931"
       x1="34.341428"
       y1="10.167511"
       x2="25.726042"
       y2="1.5828879"
       gradientTransform="matrix(1.028982,0.000000,0.000000,0.971834,-3.144005e-3,0.000000)"
       gradientUnits="userSpaceOnUse" />
    <linearGradient
       xlink:href="#linearGradient926"
       id="linearGradient933"
       x1="23.417485"
       y1="5.0425752"
       x2="27.514379"
       y2="9.0603935"
       gradientTransform="matrix(1.213528,0.000000,0.000000,0.824044,-3.144005e-3,0.000000)"
       gradientUnits="userSpaceOnUse" />
    <linearGradient
       inkscape:collect="always"
       xlink:href="#linearGradient578"
       id="linearGradient1447"
       gradientUnits="userSpaceOnUse"
       gradientTransform="matrix(1.072902,0.000000,0.000000,0.932051,-66.23873,18.89311)"
       x1="1.9314769"
       y1="6.9057429"
       x2="52.423467"
       y2="58.479856" />
    <linearGradient
       inkscape:collect="always"
       xlink:href="#linearGradient584"
       id="linearGradient1449"
       gradientUnits="userSpaceOnUse"
       gradientTransform="matrix(0.565867,0.000000,0.000000,1.767200,-66.23873,18.89311)"
       x1="39.940152"
       y1="5.4585462"
       x2="53.456474"
       y2="17.034595" />
    <linearGradient
       inkscape:collect="always"
       xlink:href="#linearGradient584"
       id="linearGradient1451"
       gradientUnits="userSpaceOnUse"
       gradientTransform="matrix(0.911255,0.000000,0.000000,1.097388,-66.23873,18.89311)"
       x1="28.991954"
       y1="39.173233"
       x2="33.223748"
       y2="43.375994" />
    <linearGradient
       inkscape:collect="always"
       xlink:href="#linearGradient584"
       id="linearGradient1453"
       gradientUnits="userSpaceOnUse"
       gradientTransform="matrix(0.965193,0.000000,0.000000,1.036062,-66.23873,18.89311)"
       x1="5.6790203"
       y1="9.2046779"
       x2="37.266779"
       y2="40.286641" />
  </defs>
  <sodipodi:namedview
     id="base"
     pagecolor="#ffffff"
     bordercolor="#666666"
     borderopacity="1.0"
     inkscape:pageopacity="0.0"
     inkscape:pageshadow="2"
     inkscape:zoom="5.6715856"
     inkscape:cx="24.000030"
     inkscape:cy="24.000041"
     inkscape:window-width="1400"
     inkscape:window-height="992"
     showguides="true"
     snaptoguides="true"
     showborder="true"
     inkscape:window-x="0"
     inkscape:window-y="26"
     inkscape:current-layer="svg1" />
  <path
     style="fill:#000000;fill-opacity:0.29770991;fill-rule:evenodd;stroke:none;stroke-width:1.8750000;stroke-dasharray:none"
     d="M 14.992247,11.358741 C 13.699905,14.099222 12.952238,50.116194 14.547713,52.483060 C 17.871917,56.913397 26.225610,59.617809 32.106866,59.697853 C 38.005802,59.778138 46.898433,57.681268 49.888289,52.964046 C 51.513232,50.159814 51.694311,14.369477 50.332824,11.599233 C 48.485311,7.5995684 38.791820,5.6263468 32.995938,5.5869065 C 27.011627,5.5461819 16.854629,7.6499541 14.992247,11.358741 z "
     id="path934"
     sodipodi:nodetypes="cssssss" />
  <path
     style="fill:url(#linearGradient829);fill-rule:evenodd;stroke:#261933;stroke-width:1.8025538;stroke-opacity:1.0000000"
     d="M 13.096384,10.233410 C 11.846585,12.883677 11.123530,47.715004 12.666484,50.003955 C 15.881258,54.288450 23.959955,56.903835 29.647606,56.981244 C 35.352355,57.058886 43.952249,55.031043 46.843682,50.469108 C 48.415133,47.757188 48.590251,13.145035 47.273583,10.465985 C 45.486888,6.5979862 36.112498,4.6897207 30.507411,4.6515784 C 24.720098,4.6121952 14.897458,6.6467127 13.096384,10.233410 z "
     id="path825"
     sodipodi:nodetypes="cssssss" />
  <path
     style="fill:url(#linearGradient834);fill-rule:evenodd;stroke:#261933;stroke-width:0.72102147;stroke-opacity:1.0000000"
     d="M 13.829246,10.520547 C 13.674655,11.331284 12.879072,22.311428 13.208184,23.234335 C 14.476229,26.209698 24.913100,28.087695 30.390920,28.162249 C 35.885210,28.237027 46.126730,26.598746 47.159614,23.458331 C 47.582666,22.386835 46.978562,11.308791 46.745573,10.744542 C 45.573086,6.7778002 35.996245,5.1813768 30.597941,5.1446416 C 25.024136,5.1067113 14.698826,6.8218497 13.829246,10.520547 z "
     id="path830"
     sodipodi:nodetypes="cssssss" />
  <path
     style="fill:url(#linearGradient925);fill-opacity:1.0000000;fill-rule:evenodd;stroke:none;stroke-width:1.0000000pt;stroke-linecap:butt;stroke-linejoin:miter;stroke-opacity:1.0000000"
     d="M 14.432685,48.311811 C 14.705014,48.472534 14.060548,33.587637 15.734608,30.551963 C 16.662826,28.979929 27.260873,34.716537 40.509509,28.742943 C 29.135458,31.482229 17.030858,28.043110 15.886601,26.440555 C 14.753227,24.797941 15.478391,13.242798 17.472552,14.644746 C 20.088561,16.699612 36.515796,18.363526 43.615392,13.658009 C 28.662811,17.979794 17.441501,10.205854 15.344645,11.355619 C 14.172076,11.949669 13.474891,22.646644 13.454709,27.756204 C 13.424226,35.474233 14.147706,48.143622 14.432685,48.311811 z "
     id="path924"
     sodipodi:nodetypes="cscsscsss" />
  <path
     style="fill:url(#linearGradient931);fill-rule:evenodd;stroke:#261933;stroke-width:1.8025538;stroke-opacity:1.0000000"
     d="M 27.545108,3.1197810 C 27.285888,3.4754416 27.135919,8.1497497 27.455943,8.4569229 C 28.122719,9.0318965 29.798320,9.3828770 30.977995,9.3932646 C 32.161216,9.4036846 33.944919,9.1315506 34.544630,8.5193471 C 34.870565,8.1554120 34.906887,3.5105157 34.633796,3.1509919 C 34.263218,2.6319141 32.318877,2.3758275 31.156326,2.3707079 C 29.955982,2.3654230 27.918668,2.6384528 27.545108,3.1197810 z "
     id="path930"
     sodipodi:nodetypes="cssssss" />
  <path
     style="fill:url(#linearGradient933);fill-opacity:1.0000000;fill-rule:evenodd;stroke:none;stroke-width:1.0000000pt;stroke-linecap:butt;stroke-linejoin:miter;stroke-opacity:1.0000000"
     d="M 28.492064,7.6499983 C 28.365402,7.4855420 28.264073,4.4705098 28.758051,4.1964163 C 29.214030,3.9634353 31.177278,5.3476094 33.545840,4.1553025 C 31.202611,5.8409798 29.404023,4.7446033 29.062037,5.0186980 C 28.758051,5.2927915 28.618724,7.8144548 28.492064,7.6499983 z "
     id="path932"
     sodipodi:nodetypes="czczz" />
  <g
     id="g1438"
     transform="matrix(0.641675,0.000000,0.000000,0.641675,63.23457,11.31137)">
    <path
       sodipodi:nodetypes="cssss"
       id="path1464"
       d="M -64.012195,62.489760 C -64.012195,68.266645 -50.779418,74.155908 -36.091899,74.376616 C -20.186455,74.315108 -7.0658490,68.016150 -7.0658490,61.936883 C -7.0658490,53.088469 -18.944465,25.164072 -36.091899,25.170552 C -52.298459,25.176775 -64.012195,53.338963 -64.012195,62.489760 z "
       style="font-size:12.000000px;opacity:0.29636899;fill:#000000;fill-opacity:1.0000000;fill-rule:evenodd;stroke:none;stroke-width:1.8750000;stroke-dasharray:none;stroke-opacity:1.0000000" />
    <path
       sodipodi:nodetypes="cssss"
       id="path1462"
       d="M -63.228935,61.019816 C -63.228935,66.399415 -50.906199,71.883663 -37.228766,72.089193 C -22.417167,72.031915 -10.198888,66.166147 -10.198888,60.504961 C -10.198888,52.265068 -21.260591,26.261082 -37.228766,26.267116 C -52.320773,26.272911 -63.228935,52.498335 -63.228935,61.019816 z "
       style="font-size:12.000000px;fill:url(#linearGradient1447);fill-rule:evenodd;stroke:#261933;stroke-width:1.8750000;stroke-dasharray:none;stroke-opacity:1.0000000" />
    <path
       id="path1467"
       d="M -33.631728,65.117167 C -33.631728,66.841398 -35.031104,68.240774 -36.755335,68.240774 C -38.479565,68.240774 -39.878941,66.841398 -39.878941,65.117167 C -39.878941,63.392937 -38.479565,61.993561 -36.755335,61.993561 C -35.031104,61.993561 -33.631728,63.392937 -33.631728,65.117167 z "
       style="font-size:12.000000px;fill:#261933;fill-opacity:1.0000000;fill-rule:evenodd;stroke-width:1.0000000pt" />
    <path
       sodipodi:nodetypes="csssss"
       id="path851"
       d="M -38.358064,57.992091 C -38.005490,58.995574 -35.048561,58.874361 -34.754890,57.853507 C -33.108389,52.129959 -31.933163,44.071385 -32.537552,37.758882 C -32.764664,35.386810 -35.644822,31.870575 -37.249395,31.799786 C -38.786050,31.731992 -41.866018,35.093577 -41.961238,37.343131 C -42.235575,43.824345 -40.407605,52.158782 -38.358064,57.992091 z "
       style="fill:#261933;fill-opacity:1.0000000;fill-rule:evenodd;stroke:none;stroke-width:1.8750000;stroke-linecap:butt;stroke-linejoin:miter;stroke-dasharray:none;stroke-opacity:1.0000000" />
    <path
       sodipodi:nodetypes="csss"
       id="path852"
       d="M -40.395591,48.990659 C -42.322628,38.069078 -40.753466,34.133493 -37.587845,32.456156 C -37.128376,32.204432 -35.521939,33.494301 -36.027986,33.704043 C -42.721201,36.435085 -40.336022,49.314039 -40.395591,48.990659 z "
       style="fill:url(#linearGradient1449);fill-opacity:1.0000000;fill-rule:evenodd;stroke:none;stroke-width:1.0000000pt;stroke-linecap:butt;stroke-linejoin:miter;stroke-opacity:1.0000000" />
    <path
       sodipodi:nodetypes="cssss"
       id="path853"
       d="M -38.878613,66.486906 C -38.958877,66.386576 -39.971805,65.030856 -38.767844,63.385355 C -37.687912,61.874241 -36.075442,62.624687 -35.998602,62.720737 C -35.927749,62.809303 -37.165656,62.466695 -38.324765,63.939203 C -39.781514,65.839046 -38.811184,66.571192 -38.878613,66.486906 z "
       style="fill:url(#linearGradient1451);fill-opacity:1.0000000;fill-rule:evenodd;stroke:none;stroke-width:1.0000000pt;stroke-linecap:butt;stroke-linejoin:miter;stroke-opacity:1.0000000" />
    <path
       sodipodi:nodetypes="cssss"
       id="path854"
       d="M -60.755903,60.878132 C -60.863460,60.367234 -55.062025,36.744177 -41.487711,29.077782 C -38.626999,27.443269 -30.628564,29.355211 -30.522073,29.861042 C -30.419694,30.347341 -38.013929,30.294593 -40.861103,32.054170 C -53.459016,39.996434 -60.654591,61.359363 -60.755903,60.878132 z "
       style="fill:url(#linearGradient1453);fill-opacity:1.0000000;fill-rule:evenodd;stroke:none;stroke-width:1.0000000pt;stroke-linecap:butt;stroke-linejoin:miter;stroke-opacity:1.0000000" />
  </g>
</svg>
