<?xml version="1.0" encoding="UTF-8" standalone="no"?>
<!-- Created with Inkscape (http://www.inkscape.org/) -->
<svg
   xmlns:dc="http://purl.org/dc/elements/1.1/"
   xmlns:cc="http://web.resource.org/cc/"
   xmlns:rdf="http://www.w3.org/1999/02/22-rdf-syntax-ns#"
   xmlns:svg="http://www.w3.org/2000/svg"
   xmlns="http://www.w3.org/2000/svg"
   xmlns:xlink="http://www.w3.org/1999/xlink"
   xmlns:sodipodi="http://inkscape.sourceforge.net/DTD/sodipodi-0.dtd"
   xmlns:inkscape="http://www.inkscape.org/namespaces/inkscape"
   version="1.0"
   x="0"
   y="0"
   width="48pt"
   height="48pt"
   id="svg1"
   sodipodi:version="0.32"
   inkscape:version="0.42"
   sodipodi:docname="password.svg"
   sodipodi:docbase="/home/stefan/software/Lila-themes/tango/scalable/status">
  <metadata
     id="metadata26">
    <rdf:RDF>
      <cc:Work
         rdf:about="">
        <dc:format>image/svg+xml</dc:format>
        <dc:type
           rdf:resource="http://purl.org/dc/dcmitype/StillImage" />
      </cc:Work>
    </rdf:RDF>
  </metadata>
  <sodipodi:namedview
     id="base"
     inkscape:zoom="4.9440000"
     inkscape:cx="37.611486"
     inkscape:cy="30.511026"
     inkscape:window-width="895"
     inkscape:window-height="514"
     inkscape:window-x="342"
     inkscape:window-y="300"
     inkscape:current-layer="svg1" />
  <defs
     id="defs3">
    <linearGradient
       id="linearGradient595">
      <stop
         style="stop-color:#7f7f7f;stop-opacity:1;"
         offset="0"
         id="stop596" />
      <stop
         style="stop-color:#e6e6e6;stop-opacity:1;"
         offset="1"
         id="stop597" />
    </linearGradient>
    <linearGradient
       id="linearGradient590">
      <stop
         style="stop-color:#ffffff;stop-opacity:1;"
         offset="0"
         id="stop591" />
      <stop
         style="stop-color:#ffffff;stop-opacity:0;"
         offset="1"
         id="stop592" />
    </linearGradient>
    <linearGradient
       id="linearGradient584">
      <stop
         style="stop-color:#d9cce6;stop-opacity:1;"
         offset="0.00000000"
         id="stop585" />
      <stop
         style="stop-color:#73667f;stop-opacity:1;"
         offset="1.00000000"
         id="stop586" />
    </linearGradient>
    <linearGradient
       x1="11.271801"
       y1="29.026741"
       x2="43.571370"
       y2="61.606688"
       id="linearGradient587"
       xlink:href="#linearGradient584"
       gradientTransform="matrix(1.282806,0.000000,0.000000,1.013176,-4.326740,-4.638711)"
       gradientUnits="userSpaceOnUse" />
    <linearGradient
       x1="13.442945"
       y1="32.582558"
       x2="35.737531"
       y2="56.913275"
       id="linearGradient589"
       xlink:href="#linearGradient590"
       gradientTransform="matrix(1.316964,0.000000,0.000000,0.986897,-4.326740,-4.638711)"
       gradientUnits="userSpaceOnUse" />
    <linearGradient
       x1="20.348299"
       y1="6.1942821"
       x2="46.356556"
       y2="27.753799"
       id="linearGradient594"
       xlink:href="#linearGradient584"
       gradientTransform="matrix(1.132883,0.000000,0.000000,1.147256,-4.326740,-4.638711)"
       gradientUnits="userSpaceOnUse" />
    <linearGradient
       x1="20.248588"
       y1="7.1440007"
       x2="33.707414"
       y2="20.613397"
       id="linearGradient599"
       xlink:href="#linearGradient590"
       gradientTransform="matrix(1.214981,0.000000,0.000000,1.069735,-4.326740,-4.638711)"
       gradientUnits="userSpaceOnUse" />
    <linearGradient
       id="linearGradient601"
       xlink:href="#linearGradient595" />
    <linearGradient
       id="linearGradient847"
       xlink:href="#linearGradient584" />
    <linearGradient
       id="linearGradient862"
       xlink:href="#linearGradient578"
       gradientTransform="scale(1.144296,0.873900)"
       x1="8.7635906"
       y1="41.858956"
       x2="39.698352"
       y2="41.858956"
       gradientUnits="userSpaceOnUse" />
    <linearGradient
       y2="1.00000000"
       x2="0.96875000"
       y1="-0.00000000"
       x1="0.00000000"
       id="linearGradient861"
       xlink:href="#linearGradient584" />
    <linearGradient
       y2="38.060732"
       x2="54.868780"
       y1="27.709230"
       x1="44.727106"
       id="linearGradient860"
       xlink:href="#linearGradient584"
       gradientTransform="scale(0.760130,1.315564)"
       gradientUnits="userSpaceOnUse" />
    <linearGradient
       y2="1.02343750"
       x2="1.00000000"
       y1="0.00000000"
       x1="-0.00000000"
       id="linearGradient583"
       xlink:href="#linearGradient584" />
    <linearGradient
       x1="-0.00000000"
       y1="-0.00000000"
       x2="0.98888886"
       y2="1.01562500"
       id="linearGradient581"
       xlink:href="#linearGradient578" />
    <linearGradient
       id="linearGradient578">
      <stop
         id="stop579"
         offset="0.0000000"
         style="stop-color:#d7cce6;stop-opacity:1.0000000;" />
      <stop
         id="stop580"
         offset="1.00000000"
         style="stop-color:#73667f;stop-opacity:1;" />
    </linearGradient>
    <linearGradient
       id="linearGradient1348">
      <stop
         id="stop1350"
         offset="0.00000000"
         style="stop-color:#ffffff;stop-opacity:1;" />
      <stop
         id="stop1352"
         offset="1.00000000"
         style="stop-color:#ffffff;stop-opacity:0;" />
    </linearGradient>
    <linearGradient
       inkscape:collect="always"
       xlink:href="#linearGradient590"
       id="linearGradient1378"
       gradientUnits="userSpaceOnUse"
       gradientTransform="matrix(0.869918,0.314130,-0.543669,1.505576,-3.614548,-25.51029)"
       x1="44.727104"
       y1="27.709230"
       x2="54.868778"
       y2="38.060734" />
  </defs>
  <path
     d="M 20.484933,26.196241 C 20.354266,16.691626 23.267762,2.6119114 33.588444,2.7057028 C 44.627066,2.8074614 47.123654,18.252777 46.851872,26.675656 C 46.716744,30.785571 39.240709,29.962695 39.341287,26.675656 C 39.260446,22.187143 40.448284,11.494802 33.268833,11.494802 C 26.119575,11.334999 27.732659,22.341778 27.675908,26.675656 C 27.800578,29.197631 20.474705,29.564946 20.484933,26.196241 z "
     style="font-size:12.000000px;opacity:0.30267498;fill-rule:evenodd;stroke-width:12.500000"
     id="path602" />
  <path
     d="M 12.180399,58.658606 C 13.731181,59.915931 52.071202,60.587086 53.252971,59.323770 C 54.566176,57.735079 54.198252,29.156563 52.920388,27.729521 C 51.665137,26.344541 13.570999,26.118947 12.346689,27.563230 C 11.176902,28.778131 10.652480,57.285116 12.180399,58.658606 z "
     style="font-size:12.000000px;opacity:0.29636899;fill-rule:evenodd;stroke-width:12.500000"
     id="path600" />
  <path
     d="M 18.384695,24.224799 C 18.255900,14.855726 21.127849,0.97679830 31.301341,1.0692520 C 42.182546,1.1695586 44.643540,16.394615 44.375624,24.697377 C 44.242424,28.748682 36.873002,27.937541 36.972147,24.697377 C 36.892456,20.272873 38.063367,9.7330137 30.986288,9.7330137 C 23.938983,9.5754900 25.529064,20.425303 25.473122,24.697377 C 25.596014,27.183388 18.374624,27.545466 18.384695,24.224799 z "
     style="font-size:12.000000px;fill:url(#linearGradient594);fill-opacity:1.0000000;fill-rule:evenodd;stroke:#261933;stroke-width:1.8749996;stroke-miterlimit:4.0000000;stroke-dasharray:none;stroke-opacity:1.0000000"
     id="path593" />
  <path
     d="M 11.453680,55.571482 C 12.922723,56.762547 49.241900,57.398325 50.361368,56.201586 C 51.605359,54.696644 51.256836,27.624459 50.046317,26.272633 C 48.857230,24.960652 12.770994,24.746951 11.611206,26.115108 C 10.503086,27.265973 10.006297,54.270397 11.453680,55.571482 z "
     style="font-size:12.000000px;fill:url(#linearGradient587);fill-rule:evenodd;stroke:#261933;stroke-width:1.8749996;stroke-dasharray:none"
     id="path583" />
  <path
     d="M 13.659049,53.996355 C 13.089870,53.228067 12.359685,29.271419 13.816574,28.162948 C 15.771739,26.713134 47.765216,28.052448 48.313663,28.792935 C 48.815315,29.470181 23.794551,27.450377 16.966974,32.415912 C 12.243054,35.851480 14.140082,54.645689 13.659049,53.996355 z "
     style="font-size:12.000000px;opacity:0.69999999;fill:url(#linearGradient589);fill-rule:evenodd;stroke:none;stroke-width:0.11004601pt"
     id="path588" />
  <path
     d="M 20.274889,17.766482 C 21.294175,11.206463 23.805210,6.4092244 27.363318,3.5895839 C 29.370960,1.9986432 34.843471,2.3974503 37.444732,5.0072687 C 34.055850,3.8151350 30.238746,3.8253159 28.150948,5.4798234 C 24.672984,8.2359445 22.081805,12.624195 20.274889,17.766482 z "
     style="font-size:12.000000px;opacity:0.69999999;fill:url(#linearGradient599);fill-rule:evenodd;stroke:none;stroke-width:0.11004601pt"
     id="path598" />
  <path
     d="M 31.580375,32.738143 C 33.445663,32.889415 36.879261,36.233937 36.879261,37.899197 C 36.879261,39.387929 32.071027,40.474742 31.580375,42.200115 C 30.712251,45.253677 33.630068,49.763428 32.802942,52.235659 C 32.543018,53.012982 28.584958,52.766849 28.319132,51.948989 C 27.497909,49.421745 29.972684,45.351441 29.542154,42.200115 C 29.293476,40.381501 25.942689,38.609918 26.281025,37.039065 C 26.622143,35.455926 29.912807,32.602742 31.580375,32.738143 z "
     style="font-size:12.000000px;fill:#261933;fill-opacity:1.0000000;fill-rule:evenodd;stroke-width:1.2871100pt"
     id="path603" />
  <path
     style="opacity:0.29999998;fill:#000000;fill-opacity:1.0000000;fill-rule:evenodd;stroke:none;stroke-width:2.2867303;stroke-opacity:1.0000000"
     d="M 40.794155,5.4119523 C 39.847888,5.4905887 32.228748,31.279460 28.918058,33.031920 C 25.694773,34.738114 19.642636,34.855654 17.549916,40.651001 C 15.457195,46.446347 19.030538,54.243338 25.990056,56.756446 C 32.949574,59.269553 40.691022,55.523860 42.772717,49.759045 C 44.854412,43.994229 39.754800,38.417626 37.854485,35.710263 C 35.954171,33.002900 40.024861,31.122041 40.122465,29.429571 C 40.220069,27.737101 37.504819,26.566118 38.440306,25.539880 C 39.375793,24.513643 42.417318,23.837173 43.077555,22.933200 C 43.737792,22.029227 42.472162,21.421790 41.891272,20.257197 C 41.310382,19.092604 41.598576,17.575915 41.642830,16.671165 C 41.687084,15.766415 43.599077,16.077174 44.196738,15.559818 C 44.794399,15.042462 41.256669,14.819970 42.303072,14.055443 C 43.349475,13.290916 47.159338,13.062682 47.353904,11.990554 C 47.548470,10.918425 45.217180,9.6332008 44.545558,8.4077268 C 43.873935,7.1822528 41.740422,5.3333159 40.794155,5.4119523 z M 29.021628,48.361150 C 30.811218,49.007378 31.785857,50.828926 31.218203,52.400922 C 30.650549,53.972918 28.748382,54.719967 26.958792,54.073738 C 25.169202,53.427509 24.183165,51.637524 24.750819,50.065526 C 25.318473,48.493528 27.232038,47.714922 29.021628,48.361150 z "
     id="path2144"
     sodipodi:nodetypes="czzzzzzzzzzzzzzzczzzz" />
  <path
     style="fill:#e3e9ed;fill-rule:evenodd;stroke:#261933;stroke-width:2.2867303;stroke-opacity:1.0000000"
     d="M 38.290517,3.2682553 C 37.344250,3.3468917 29.725110,29.135763 26.414420,30.888223 C 23.191135,32.594417 17.138998,32.711957 15.046278,38.507304 C 12.953557,44.302650 16.526900,52.099641 23.486418,54.612749 C 30.445936,57.125856 38.187384,53.380163 40.269079,47.615348 C 42.350774,41.850532 37.251162,36.273929 35.350847,33.566566 C 33.450533,30.859203 37.521223,28.978344 37.618827,27.285874 C 37.716431,25.593404 35.001181,24.422421 35.936668,23.396183 C 36.872155,22.369946 39.913680,21.693476 40.573917,20.789503 C 41.234154,19.885530 39.968524,19.278093 39.387634,18.113500 C 38.806744,16.948907 39.094938,15.432218 39.139192,14.527468 C 39.183446,13.622718 41.095439,13.933477 41.693100,13.416121 C 42.290761,12.898765 38.753031,12.676273 39.799434,11.911746 C 40.845837,11.147219 44.655700,10.918985 44.850266,9.8468568 C 45.044832,8.7747283 42.713542,7.4895038 42.041920,6.2640297 C 41.370297,5.0385556 39.236784,3.1896189 38.290517,3.2682553 z M 26.517990,46.217453 C 28.307580,46.863681 29.282219,48.685229 28.714565,50.257225 C 28.146911,51.829221 26.244744,52.576270 24.455154,51.930041 C 22.665564,51.283812 21.679527,49.493827 22.247181,47.921829 C 22.814835,46.349831 24.728400,45.571225 26.517990,46.217453 z "
     id="path854"
     sodipodi:nodetypes="czzzzzzzzzzzzzzzczzzz" />
  <rect
     rx="0.72425675"
     style="fill:#0000ff;fill-opacity:0.0000000;fill-rule:evenodd;stroke:#261933;stroke-width:0.42546219;stroke-opacity:1.0000000"
     id="rect855"
     width="1.3439995"
     height="25.304420"
     ry="0.72425675"
     x="38.598270"
     y="-6.4021645"
     transform="matrix(0.940556,0.339638,-0.339638,0.940556,0.000000,0.000000)" />
  <path
     d="M 29.006165,33.814945 C 23.825184,33.959773 17.216480,39.797778 16.351074,46.474771 C 14.290379,39.305087 21.021105,32.938375 25.582627,32.661124 C 26.539005,32.228080 29.861489,33.773630 29.006165,33.814945 z "
     style="font-size:12.000000px;opacity:0.69993597;fill:url(#linearGradient1378);fill-rule:evenodd;stroke-width:0.19545500pt;fill-opacity:1.0"
     id="path671"
     sodipodi:nodetypes="cccc" />
</svg>
