<?xml version="1.0" encoding="UTF-8" standalone="no"?>
<!-- Created with Inkscape (http://www.inkscape.org/) -->
<svg
   xmlns:dc="http://purl.org/dc/elements/1.1/"
   xmlns:cc="http://web.resource.org/cc/"
   xmlns:rdf="http://www.w3.org/1999/02/22-rdf-syntax-ns#"
   xmlns:svg="http://www.w3.org/2000/svg"
   xmlns="http://www.w3.org/2000/svg"
   xmlns:xlink="http://www.w3.org/1999/xlink"
   xmlns:sodipodi="http://inkscape.sourceforge.net/DTD/sodipodi-0.dtd"
   xmlns:inkscape="http://www.inkscape.org/namespaces/inkscape"
   width="48pt"
   height="48pt"
   id="svg1706"
   sodipodi:version="0.32"
   inkscape:version="0.42"
   sodipodi:docbase="/home/stefan/software/Lila-themes/tango/scalable/status"
   sodipodi:docname="mail-attachment.svg">
  <defs
     id="defs3">
    <linearGradient
       xlink:href="#linearGradient584"
       id="linearGradient583"
       x1="11.140155"
       y1="5.5255810"
       x2="46.750464"
       y2="41.970507"
       gradientTransform="matrix(0.912635,0.000000,0.000000,1.133614,-5.299393,-4.758457)"
       gradientUnits="userSpaceOnUse" />
    <linearGradient
       xlink:href="#linearGradient584"
       id="linearGradient587"
       x1="6.6842281"
       y1="3.6391857"
       x2="47.008321"
       y2="43.963279"
       gradientTransform="scale(0.999604,1.000396)"
       gradientUnits="userSpaceOnUse" />
    <linearGradient
       xlink:href="#linearGradient866"
       id="linearGradient586"
       x1="3.8016835"
       y1="1.4765247"
       x2="57.287640"
       y2="53.749582"
       gradientTransform="scale(0.942172,1.061378)"
       gradientUnits="userSpaceOnUse" />
    <linearGradient
       id="linearGradient584">
      <stop
         style="stop-color:#ffffff;stop-opacity:1;"
         offset="0.00000000"
         id="stop585" />
      <stop
         style="stop-color:#ffffff;stop-opacity:0;"
         offset="1.00000000"
         id="stop586" />
    </linearGradient>
    <linearGradient
       id="linearGradient866">
      <stop
         style="stop-color:#d9cce6;stop-opacity:1.0000000;"
         offset="0.0000000"
         id="stop867" />
      <stop
         style="stop-color:#73667f;stop-opacity:1.0000000;"
         offset="1.0000000"
         id="stop868" />
    </linearGradient>
    <linearGradient
       inkscape:collect="always"
       xlink:href="#linearGradient866"
       id="linearGradient2936"
       gradientUnits="userSpaceOnUse"
       gradientTransform="scale(0.942172,1.061378)"
       x1="3.8016834"
       y1="1.4765247"
       x2="57.287640"
       y2="53.749580" />
    <linearGradient
       inkscape:collect="always"
       xlink:href="#linearGradient866"
       id="linearGradient2775"
       x1="5.7100720"
       y1="0.90202117"
       x2="38.669861"
       y2="52.260117"
       gradientUnits="userSpaceOnUse"
       gradientTransform="matrix(0.943856,7.678354e-2,-7.678354e-2,0.943856,7.419668,-2.672513)" />
  </defs>
  <sodipodi:namedview
     id="base"
     pagecolor="#ffffff"
     bordercolor="#666666"
     borderopacity="1.0"
     inkscape:pageopacity="0.0"
     inkscape:pageshadow="2"
     inkscape:zoom="5.2187500"
     inkscape:cx="20.850332"
     inkscape:cy="34.422775"
     inkscape:current-layer="svg1706"
     showgrid="false"
     inkscape:grid-bbox="false"
     gridspacingy="1.0000000pt"
     gridspacingx="1.0000000pt"
     gridoriginy="0.0000000pt"
     gridoriginx="0.0000000pt"
     inkscape:window-width="753"
     inkscape:window-height="687"
     inkscape:window-x="64"
     inkscape:window-y="26" />
  <metadata
     id="metadata4">
    <rdf:RDF>
      <cc:Work
         rdf:about="">
        <dc:format>image/svg+xml</dc:format>
        <dc:type
           rdf:resource="http://purl.org/dc/dcmitype/StillImage" />
      </cc:Work>
    </rdf:RDF>
  </metadata>
  <path
     style="opacity:0.29999998;fill:#000000;fill-opacity:1.0000000;fill-rule:nonzero;stroke:none;stroke-width:1.9071387;stroke-linecap:butt;stroke-linejoin:miter;stroke-miterlimit:4.0000000;stroke-dasharray:none;stroke-dashoffset:12.500000;stroke-opacity:1.0000000"
     d="M 37.551942,4.7391248 C 32.956968,4.2428438 28.563898,5.7430638 21.841990,15.367085 C 20.272723,17.613867 15.654602,24.470782 11.883275,30.223477 C 9.0494433,34.546137 8.9856443,35.048122 8.2826163,36.727649 C 5.3936613,43.629329 6.9163003,48.685502 9.0093273,51.941278 C 11.068723,55.144736 14.366935,57.286373 17.801323,58.832183 C 23.632434,61.456753 31.427386,59.540883 36.431998,54.255574 C 41.779660,48.607975 49.699955,39.492487 54.514671,30.237975 C 56.212107,26.975281 50.892334,24.630690 49.546613,27.072583 C 44.405895,36.400726 37.309428,45.216938 32.287709,50.088330 C 28.898527,53.376054 24.599658,55.372236 19.562227,53.245125 C 17.710911,52.463386 15.551061,50.803418 13.959958,48.751438 C 11.597739,45.704983 12.137731,41.701824 14.916651,36.626380 C 18.297805,30.451011 22.940236,24.468776 26.707165,18.702252 C 30.151672,13.429303 34.404938,9.7585990 37.102639,10.258058 C 39.208435,10.647930 40.457538,11.072636 42.246166,12.365539 C 44.776806,14.194803 46.124860,17.626971 43.431333,21.903041 C 39.495018,28.152080 37.296322,31.376336 31.672753,37.578764 C 30.503131,38.868781 28.562072,40.734782 27.004276,40.781310 C 25.576663,40.823951 25.174843,40.078764 24.956794,38.801812 C 24.694202,37.264005 26.700323,34.855323 27.314196,33.937079 C 30.652059,28.944237 31.790244,27.768367 39.197623,17.987202 C 41.543959,14.888954 36.165501,12.272583 34.565311,14.344381 C 29.939206,20.333892 25.160765,26.817360 20.669057,34.129906 C 18.487088,37.682174 19.434935,42.463612 20.917140,43.871141 C 22.445705,45.322695 24.430373,47.150334 28.282590,46.490426 C 29.802673,46.230026 32.034287,44.963990 33.245967,43.718334 C 39.596107,37.190138 43.209165,31.814753 48.851215,23.174576 C 52.580977,17.462858 50.104995,10.769725 45.748709,7.6327428 C 43.441335,5.9711918 40.611310,5.0695528 37.551942,4.7391248 z "
     id="path1317"
     sodipodi:nodetypes="csssssssssssssssssssssssssssss" />
  <g
     id="layer1"
     inkscape:label="Layer 1"
     inkscape:groupmode="layer" />
  <path
     style="fill:url(#linearGradient2775);fill-opacity:1.0000000;fill-rule:nonzero;stroke:#261933;stroke-width:1.9071387;stroke-linecap:butt;stroke-linejoin:miter;stroke-miterlimit:4.0000000;stroke-dasharray:none;stroke-dashoffset:12.500000;stroke-opacity:1.0000000"
     d="M 36.866198,1.0590690 C 32.271224,0.56278826 27.878155,2.0630079 21.156247,11.687029 C 19.586980,13.933811 14.968859,20.790726 11.197532,26.543421 C 8.3637016,30.866081 8.2999024,31.368066 7.5968739,33.047593 C 4.7079196,39.949273 6.2305580,45.005446 8.3235856,48.261222 C 10.382980,51.464680 13.681192,53.606317 17.115580,55.152127 C 22.946691,57.776697 30.741642,55.860827 35.746254,50.575518 C 41.093916,44.927919 49.014211,35.812431 53.828927,26.557919 C 55.526363,23.295225 50.206590,20.950634 48.860869,23.392527 C 43.720151,32.720670 36.623684,41.536882 31.601965,46.408274 C 28.212784,49.695998 23.913915,51.692180 18.876484,49.565069 C 17.025168,48.783330 14.865318,47.123362 13.274215,45.071382 C 10.911996,42.024927 11.451988,38.021768 14.230908,32.946324 C 17.612062,26.770955 22.254493,20.788720 26.021422,15.022196 C 29.465928,9.7492468 33.719194,6.0785425 36.416895,6.5780018 C 38.522691,6.9678743 39.771794,7.3925796 41.560422,8.6854830 C 44.091062,10.514747 45.439116,13.946915 42.745589,18.222985 C 38.809274,24.472024 36.610578,27.696280 30.987009,33.898708 C 29.817387,35.188725 27.876329,37.054726 26.318533,37.101254 C 24.890920,37.143895 24.489100,36.398708 24.271051,35.121756 C 24.008459,33.583949 26.014580,31.175267 26.628453,30.257023 C 29.966315,25.264181 31.104500,24.088311 38.511879,14.307146 C 40.858215,11.208898 35.479757,8.5925272 33.879567,10.664325 C 29.253462,16.653836 24.475022,23.137304 19.983314,30.449850 C 17.801345,34.002118 18.749192,38.783556 20.231397,40.191085 C 21.759962,41.642639 23.744630,43.470278 27.596847,42.810370 C 29.116929,42.549970 31.348543,41.283934 32.560223,40.038278 C 38.910363,33.510082 42.523421,28.134697 48.165471,19.494520 C 51.895233,13.782802 49.419251,7.0896688 45.062965,3.9526867 C 42.755591,2.2911359 39.925566,1.3894964 36.866198,1.0590690 z "
     id="path1699"
     sodipodi:nodetypes="csssssssssssssssssssssssssssss" />
  <path
     d="M 7.3206000,41.039071 C 5.7282714,37.971516 22.342672,6.9772709 32.466527,1.8371534 C 32.998469,1.5406141 37.593459,1.9009120 37.772955,2.9725559 C 38.296408,6.0977295 33.989751,5.7723506 33.392965,6.0064614 C 22.586058,10.192065 6.6987338,40.094448 7.3206000,41.039071 z "
     style="font-size:12.000000px;opacity:0.69999999;fill:url(#linearGradient583);fill-rule:evenodd;stroke:none;stroke-width:0.19545500pt"
     id="path670"
     sodipodi:nodetypes="ccscc" />
</svg>
