<?xml version="1.0" encoding="UTF-8" standalone="no"?>
<!-- Created with Inkscape (http://www.inkscape.org/) -->
<svg
   xmlns:dc="http://purl.org/dc/elements/1.1/"
   xmlns:cc="http://web.resource.org/cc/"
   xmlns:rdf="http://www.w3.org/1999/02/22-rdf-syntax-ns#"
   xmlns:svg="http://www.w3.org/2000/svg"
   xmlns="http://www.w3.org/2000/svg"
   xmlns:xlink="http://www.w3.org/1999/xlink"
   xmlns:sodipodi="http://inkscape.sourceforge.net/DTD/sodipodi-0.dtd"
   xmlns:inkscape="http://www.inkscape.org/namespaces/inkscape"
   width="48pt"
   height="48pt"
   id="svg1706"
   sodipodi:version="0.32"
   inkscape:version="0.42"
   sodipodi:docbase="/home/stefan/software/Lila-themes/tango/scalable/status"
   sodipodi:docname="mail-attachment.svg">
  <defs
     id="defs3">
    <linearGradient
       xlink:href="#linearGradient584"
       id="linearGradient583"
       x1="11.140155"
       y1="5.5255810"
       x2="46.750464"
       y2="41.970507"
       gradientTransform="matrix(0.897255,0.000000,0.000000,1.114511,-8.745556,-4.076029)"
       gradientUnits="userSpaceOnUse" />
    <linearGradient
       xlink:href="#linearGradient584"
       id="linearGradient587"
       x1="6.6842281"
       y1="3.6391857"
       x2="47.008321"
       y2="43.963279"
       gradientTransform="scale(0.999604,1.000396)"
       gradientUnits="userSpaceOnUse" />
    <linearGradient
       xlink:href="#linearGradient866"
       id="linearGradient586"
       x1="3.8016835"
       y1="1.4765247"
       x2="57.287640"
       y2="53.749582"
       gradientTransform="scale(0.942172,1.061378)"
       gradientUnits="userSpaceOnUse" />
    <linearGradient
       id="linearGradient584">
      <stop
         style="stop-color:#ffffff;stop-opacity:1;"
         offset="0.00000000"
         id="stop585" />
      <stop
         style="stop-color:#ffffff;stop-opacity:0;"
         offset="1.00000000"
         id="stop586" />
    </linearGradient>
    <linearGradient
       id="linearGradient866">
      <stop
         style="stop-color:#d9cce6;stop-opacity:1.0000000;"
         offset="0.0000000"
         id="stop867" />
      <stop
         style="stop-color:#73667f;stop-opacity:1.0000000;"
         offset="1.0000000"
         id="stop868" />
    </linearGradient>
    <linearGradient
       inkscape:collect="always"
       xlink:href="#linearGradient866"
       id="linearGradient2936"
       gradientUnits="userSpaceOnUse"
       gradientTransform="scale(0.942172,1.061378)"
       x1="3.8016834"
       y1="1.4765247"
       x2="57.287640"
       y2="53.749580" />
    <linearGradient
       inkscape:collect="always"
       xlink:href="#linearGradient866"
       id="linearGradient2775"
       x1="5.7100720"
       y1="0.90202117"
       x2="38.669861"
       y2="52.260117"
       gradientUnits="userSpaceOnUse"
       gradientTransform="matrix(0.927950,7.548957e-2,-7.548957e-2,0.927950,3.759164,-2.025236)" />
  </defs>
  <sodipodi:namedview
     id="base"
     pagecolor="#ffffff"
     bordercolor="#666666"
     borderopacity="1.0"
     inkscape:pageopacity="0.0"
     inkscape:pageshadow="2"
     inkscape:zoom="7.3804270"
     inkscape:cx="19.466228"
     inkscape:cy="30.346984"
     inkscape:current-layer="svg1706"
     showgrid="true"
     inkscape:grid-bbox="true"
     gridspacingy="1.0000000pt"
     gridspacingx="1.0000000pt"
     gridoriginy="0.0000000pt"
     gridoriginx="0.0000000pt"
     inkscape:window-width="753"
     inkscape:window-height="687"
     inkscape:window-x="64"
     inkscape:window-y="26" />
  <metadata
     id="metadata4">
    <rdf:RDF>
      <cc:Work
         rdf:about="">
        <dc:format>image/svg+xml</dc:format>
        <dc:type
           rdf:resource="http://purl.org/dc/dcmitype/StillImage" />
      </cc:Work>
    </rdf:RDF>
  </metadata>
  <g
     id="layer1"
     inkscape:label="Layer 1"
     inkscape:groupmode="layer" />
  <path
     style="fill:#000000;fill-opacity:1.0000000;fill-rule:nonzero;stroke:none;stroke-width:1.8750000;stroke-linecap:butt;stroke-linejoin:miter;stroke-miterlimit:4.0000000;stroke-dasharray:none;stroke-dashoffset:12.500000;stroke-opacity:1.0000000;opacity:0.30000000"
     d="M 34.335153,4.5553329 C 31.324713,4.2558031 28.091171,4.4840397 25.556496,6.6142674 C 22.362531,9.2066978 20.640130,12.565708 18.889942,15.004193 L 18.856225,15.059831 L 18.822508,15.115469 C 15.294703,20.513663 11.351718,26.433695 7.6619242,32.101246 L 7.6062872,32.067530 C 7.2244582,32.648168 6.3318322,34.390139 5.5590692,36.004793 C 4.7910632,37.609507 4.6074922,38.568985 4.2003352,39.846997 L 4.1666182,39.902635 L 4.1642592,39.931633 C 3.0862632,43.792388 4.2157782,47.761135 6.2735342,50.962045 C 8.2982242,54.111519 11.302540,56.670122 14.917368,57.736826 L 14.915010,57.765824 C 14.951704,57.778309 14.994233,57.763030 15.031003,57.775261 C 15.050363,57.781701 15.067261,57.802609 15.086641,57.808978 C 17.840780,58.714041 21.150033,59.566236 24.062983,58.704981 C 27.035361,57.826157 29.844096,55.943243 32.692108,53.101847 C 38.105388,47.701142 46.655226,38.640440 51.246795,29.429578 C 52.859957,26.193513 47.839915,24.008605 46.362457,26.317528 C 41.096793,34.546537 33.487068,44.146730 28.617657,49.004829 C 26.227529,51.389405 24.186957,52.645481 22.411518,53.170414 C 20.636078,53.695347 18.715095,52.939279 16.791231,52.284715 L 16.706595,52.248639 L 16.648598,52.243920 C 14.707633,51.700936 12.521209,49.973332 11.140737,47.825960 C 9.7602642,45.678587 9.2343042,43.266434 9.7293162,41.493589 C 10.545309,38.932302 10.407816,38.554683 12.081308,35.905231 C 15.849876,30.099171 19.967791,23.953009 23.673130,18.283157 C 25.730278,15.416993 27.276387,12.690819 29.249938,11.088956 L 29.252298,11.059957 L 29.281296,11.062316 C 29.798940,10.627270 31.654559,10.108130 33.749708,10.316591 C 35.844857,10.525052 38.072903,11.386740 38.950270,12.053228 L 39.005909,12.086945 L 39.032548,12.118302 C 40.364092,13.064190 41.403831,14.295536 41.861043,15.384203 C 42.304742,16.440691 42.341109,17.227753 41.801488,18.269205 C 36.497381,26.746816 27.853163,37.613793 22.053374,43.576206 C 20.859683,44.803369 20.377252,45.062576 20.809199,44.876129 C 20.989178,44.798443 20.441859,44.851189 20.374223,44.840744 C 18.889718,44.574682 18.455704,44.232009 18.280236,44.028208 C 18.149688,43.876581 18.046648,43.279509 17.927136,42.627536 C 18.455614,41.140339 19.378890,39.549388 20.427859,37.722655 C 20.462289,37.662697 20.494447,37.616218 20.529008,37.555742 L 20.473371,37.522025 C 24.517792,30.967448 28.181469,27.313875 35.275633,17.038183 C 37.446463,13.893799 32.294608,11.419865 30.721384,13.456750 C 26.173237,19.345327 13.807463,37.651126 13.807463,37.651126 C 13.160601,38.840014 12.532837,40.128738 12.111908,41.629035 L 11.953451,42.141571 L 12.026982,42.672980 C 12.193063,44.441901 12.603275,46.295181 13.914463,47.818082 C 15.225652,49.340983 17.152736,50.142708 19.356160,50.537619 L 19.643786,50.590207 L 19.965128,50.587158 C 20.950717,50.554191 21.727773,50.802493 23.119863,50.201610 C 24.511952,49.600728 24.999279,48.844610 26.190540,47.619946 C 32.433669,41.201762 41.138461,30.256380 46.753260,21.269980 L 46.786977,21.214342 L 46.852050,21.132065 C 48.280201,18.509183 48.182812,15.515025 47.181806,13.131537 C 46.180801,10.748047 44.437125,8.8517088 42.393789,7.4001880 C 40.167494,5.7089934 37.345593,4.8548627 34.335153,4.5553329 z "
     id="path5025"
     sodipodi:nodetypes="ccccccczcccsccsssssssscccsccccccscccscsssscsccssccccscccsscccscc" />
  <path
     style="fill:url(#linearGradient2775);fill-opacity:1.0000000;fill-rule:nonzero;stroke:#261933;stroke-width:1.8750000;stroke-linecap:butt;stroke-linejoin:miter;stroke-miterlimit:4.0000000;stroke-dasharray:none;stroke-dashoffset:12.500000;stroke-opacity:1.0000000"
     d="M 32.709470,1.6434612 C 29.699030,1.3439314 26.465488,1.5721680 23.930813,3.7023957 C 20.736848,6.2948265 19.014447,9.6538365 17.264259,12.092321 L 17.230542,12.147959 L 17.196825,12.203597 C 13.669020,17.601791 9.7260345,23.521823 6.0362412,29.189374 L 5.9806033,29.155658 C 5.5987748,29.736296 4.7061486,31.478267 3.9333857,33.092921 C 3.1653799,34.697635 2.9818091,35.657113 2.5746513,36.935125 L 2.5409347,36.990763 L 2.5385757,37.019761 C 1.4605801,40.880516 2.5900947,44.849263 4.6478510,48.050173 C 6.6725411,51.199647 9.6768565,53.758250 13.291685,54.824954 L 13.289327,54.853952 C 13.326021,54.866437 13.368550,54.851158 13.405320,54.863389 C 13.424680,54.869829 13.441578,54.890737 13.460958,54.897106 C 16.215097,55.802169 19.524350,56.654364 22.437300,55.793109 C 25.409678,54.914285 28.218413,53.031371 31.066425,50.189975 C 36.479705,44.789270 45.029543,35.728568 49.621112,26.517706 C 51.234274,23.281641 46.214232,21.096733 44.736774,23.405656 C 39.471110,31.634665 31.861385,41.234858 26.991974,46.092957 C 24.601846,48.477533 22.561274,49.733609 20.785835,50.258542 C 19.010395,50.783475 17.089412,50.027407 15.165548,49.372843 L 15.080912,49.336767 L 15.022915,49.332048 C 13.081950,48.789064 10.895526,47.061460 9.5150535,44.914088 C 8.1345809,42.766715 7.6086208,40.354562 8.1036325,38.581717 C 8.9196253,36.020430 8.7821332,35.642811 10.455625,32.993359 C 14.224193,27.187299 18.342108,21.041137 22.047447,15.371285 C 24.104595,12.505121 25.650704,9.7789475 27.624255,8.1770845 L 27.626615,8.1480855 L 27.655613,8.1504445 C 28.173257,7.7153985 30.028876,7.1962585 32.124025,7.4047195 C 34.219174,7.6131805 36.447220,8.4748685 37.324587,9.1413565 L 37.380226,9.1750735 L 37.406865,9.2064305 C 38.738409,10.152318 39.778148,11.383664 40.235360,12.472331 C 40.679059,13.528819 40.715426,14.315881 40.175805,15.357333 C 34.871698,23.834944 26.227480,34.701921 20.427691,40.664334 C 19.234000,41.891497 18.751569,42.150704 19.183516,41.964257 C 19.363495,41.886571 18.816176,41.939317 18.748540,41.928872 C 17.264035,41.662810 16.830021,41.320137 16.654553,41.116336 C 16.524005,40.964709 16.420965,40.367637 16.301453,39.715664 C 16.829931,38.228467 17.753207,36.637516 18.802176,34.810783 C 18.836606,34.750825 18.868764,34.704346 18.903325,34.643870 L 18.847688,34.610153 C 22.892109,28.055576 26.555786,24.402003 33.649950,14.126311 C 35.820780,10.981927 30.668925,8.5079931 29.095701,10.544878 C 24.547554,16.433455 12.181780,34.739254 12.181780,34.739254 C 11.534918,35.928142 10.907154,37.216866 10.486225,38.717163 L 10.327768,39.229699 L 10.401299,39.761108 C 10.567380,41.530029 10.977592,43.383309 12.288780,44.906210 C 13.599969,46.429111 15.527053,47.230836 17.730477,47.625747 L 18.018103,47.678335 L 18.339445,47.675286 C 19.325034,47.642319 20.102090,47.890621 21.494180,47.289738 C 22.886269,46.688856 23.373596,45.932738 24.564857,44.708074 C 30.807986,38.289890 39.512778,27.344508 45.127577,18.358108 L 45.161294,18.302470 L 45.226367,18.220193 C 46.654518,15.597311 46.557129,12.603153 45.556123,10.219665 C 44.555118,7.8361755 42.811442,5.9398375 40.768106,4.4883163 C 38.541811,2.7971217 35.719910,1.9429910 32.709470,1.6434612 z "
     id="path1699"
     sodipodi:nodetypes="ccccccczcccsccsssssssscccsccccccscccscsssscsccssccccscccsscccscc" />
  <path
     d="M 3.6617675,40.949729 C 2.0962725,37.933867 18.430691,7.4619308 28.383941,2.4084335 C 28.906919,2.1168914 33.424475,2.4711177 33.600946,3.5247025 C 34.115578,6.5972113 29.881496,6.2773156 29.294767,6.5074812 C 18.669976,10.622550 3.0503809,40.021024 3.6617675,40.949729 z "
     style="font-size:12.000000px;opacity:0.69999999;fill:url(#linearGradient583);fill-rule:evenodd;stroke:none;stroke-width:0.19545500pt"
     id="path670"
     sodipodi:nodetypes="ccscc" />
</svg>
