<?xml version="1.0" encoding="UTF-8" standalone="no"?>
<!-- Created with Inkscape (http://www.inkscape.org/) -->
<svg
   xmlns:dc="http://purl.org/dc/elements/1.1/"
   xmlns:cc="http://web.resource.org/cc/"
   xmlns:rdf="http://www.w3.org/1999/02/22-rdf-syntax-ns#"
   xmlns:svg="http://www.w3.org/2000/svg"
   xmlns="http://www.w3.org/2000/svg"
   xmlns:xlink="http://www.w3.org/1999/xlink"
   xmlns:sodipodi="http://inkscape.sourceforge.net/DTD/sodipodi-0.dtd"
   xmlns:inkscape="http://www.inkscape.org/namespaces/inkscape"
   id="svg1"
   sodipodi:version="0.32"
   inkscape:version="0.42"
   width="48pt"
   height="48pt"
   sodipodi:docname="kopeteaway.svg"
   sodipodi:docbase="/home/jakob/dev/lila/lila-theme/trunk/lila/kde/scalable/actions">
  <metadata
     id="metadata41">
    <rdf:RDF>
      <cc:Work
         rdf:about="">
        <dc:format>image/svg+xml</dc:format>
        <dc:type
           rdf:resource="http://purl.org/dc/dcmitype/StillImage" />
      </cc:Work>
    </rdf:RDF>
  </metadata>
  <defs
     id="defs3">
    <linearGradient
       id="linearGradient662">
      <stop
         style="stop-color:#73667f;stop-opacity:1.0000000;"
         offset="0.0000000"
         id="stop663" />
      <stop
         style="stop-color:#d9cce6;stop-opacity:1.0000000;"
         offset="1.0000000"
         id="stop664" />
    </linearGradient>
    <linearGradient
       id="linearGradient599">
      <stop
         style="stop-color:#ffffff;stop-opacity:1;"
         offset="0.00000000"
         id="stop600" />
      <stop
         style="stop-color:#d9cce6;stop-opacity:1;"
         offset="1.00000000"
         id="stop601" />
    </linearGradient>
    <linearGradient
       id="linearGradient584">
      <stop
         style="stop-color:#ffffff;stop-opacity:0.0000000;"
         offset="0.0000000"
         id="stop585" />
      <stop
         style="stop-color:#ffffff;stop-opacity:1.0000000;"
         offset="1.0000000"
         id="stop586" />
    </linearGradient>
    <linearGradient
       id="linearGradient578">
      <stop
         style="stop-color:#8a86b9;stop-opacity:1;"
         offset="0.00000000"
         id="stop579" />
      <stop
         style="stop-color:#b1ace8;stop-opacity:1;"
         offset="1.00000000"
         id="stop580" />
    </linearGradient>
    <linearGradient
       xlink:href="#linearGradient563"
       id="linearGradient581"
       x1="25.508562"
       y1="4.2061882"
       x2="47.804562"
       y2="26.502190"
       gradientUnits="userSpaceOnUse" />
    <linearGradient
       xlink:href="#linearGradient584"
       id="linearGradient583"
       gradientTransform="matrix(1.443052,0.000000,0.000000,1.150536,-20.85955,-10.03589)"
       x1="37.893478"
       y1="16.942226"
       x2="30.146963"
       y2="10.998850"
       gradientUnits="userSpaceOnUse" />
    <linearGradient
       xlink:href="#linearGradient563"
       id="linearGradient860"
       x1="18.755226"
       y1="26.591284"
       x2="51.651058"
       y2="59.382114"
       gradientTransform="matrix(1.459661,0.000000,0.000000,1.137447,-20.85955,-10.03589)"
       gradientUnits="userSpaceOnUse" />
    <linearGradient
       xlink:href="#linearGradient662"
       id="linearGradient861"
       x1="-0.44711539"
       y1="0.32075471"
       x2="1.27403843"
       y2="1.12578619" />
    <linearGradient
       xlink:href="#linearGradient584"
       id="linearGradient862"
       gradientTransform="matrix(1.853577,0.000000,0.000000,0.819409,-20.85955,-7.163275)"
       x1="29.975149"
       y1="44.213566"
       x2="22.594681"
       y2="37.644417"
       gradientUnits="userSpaceOnUse" />
    <radialGradient
       xlink:href="#linearGradient662"
       id="radialGradient595"
       cx="0.025806455"
       cy="0.032467529"
       r="0.20663640"
       fx="0.025806455"
       fy="0.032467529" />
    <linearGradient
       xlink:href="#linearGradient662"
       id="linearGradient652" />
    <linearGradient
       xlink:href="#linearGradient599"
       id="linearGradient654"
       x1="19.920939"
       y1="-1.1157925"
       x2="46.400416"
       y2="25.086450"
       gradientUnits="userSpaceOnUse" />
    <linearGradient
       xlink:href="#linearGradient584"
       id="linearGradient661"
       x1="16.155644"
       y1="16.503242"
       x2="1.4097120"
       y2="19.361511"
       gradientTransform="matrix(1.119930,0.000000,0.000000,0.892913,-2.292000e-3,0.000000)"
       gradientUnits="userSpaceOnUse" />
    <radialGradient
       xlink:href="#linearGradient662"
       id="radialGradient628"
       cx="0.50000000"
       cy="0.50000000"
       r="0.50000000"
       fx="0.50000000"
       fy="0.50000000" />
    <linearGradient
       xlink:href="#linearGradient662"
       id="linearGradient669"
       x1="0.93162394"
       y1="-0.46961325"
       x2="0.19658124"
       y2="1.51933682" />
    <linearGradient
       xlink:href="#linearGradient599"
       id="linearGradient670"
       x1="-2.5624680"
       y1="20.548300"
       x2="29.321978"
       y2="52.975274"
       gradientTransform="matrix(1.131698,0.000000,0.000000,0.883628,-2.292000e-3,0.000000)"
       gradientUnits="userSpaceOnUse" />
    <linearGradient
       xlink:href="#linearGradient563"
       id="linearGradient2945"
       y2="0.00000000"
       x2="1.00000000"
       y1="0.00000000"
       x1="0.00000000" />
    <linearGradient
       xlink:href="#linearGradient570"
       id="linearGradient575"
       y2="52.478578"
       x2="49.950043"
       y1="38.721987"
       x1="36.386543"
       gradientTransform="scale(1.025278,0.975345)"
       gradientUnits="userSpaceOnUse" />
    <linearGradient
       xlink:href="#linearGradient570"
       id="linearGradient573"
       y2="33.605262"
       x2="33.380966"
       y1="7.9430378"
       x1="7.2905486"
       gradientTransform="scale(1.063868,0.939966)"
       gradientUnits="userSpaceOnUse" />
    <linearGradient
       xlink:href="#linearGradient570"
       id="linearGradient569"
       y2="12.834503"
       x2="21.003834"
       y1="55.700981"
       x1="62.875852"
       gradientUnits="userSpaceOnUse" />
    <linearGradient
       xlink:href="#linearGradient563"
       id="linearGradient566"
       y2="70.991351"
       x2="76.578623"
       y1="11.652513"
       x1="17.692644"
       gradientUnits="userSpaceOnUse" />
    <linearGradient
       id="linearGradient563">
      <stop
         id="stop564"
         offset="0"
         style="stop-color:#d9cce6;stop-opacity:1;" />
      <stop
         id="stop565"
         offset="1"
         style="stop-color:#73667f;stop-opacity:1;" />
    </linearGradient>
    <linearGradient
       id="linearGradient570">
      <stop
         id="stop571"
         offset="0"
         style="stop-color:#ffffff;stop-opacity:1;" />
      <stop
         id="stop572"
         offset="1"
         style="stop-color:#ffffff;stop-opacity:0;" />
    </linearGradient>
    <linearGradient
       inkscape:collect="always"
       xlink:href="#linearGradient578"
       id="linearGradient2958"
       gradientTransform="scale(0.799379,1.250971)"
       x1="34.747428"
       y1="20.926387"
       x2="45.129486"
       y2="20.926387"
       gradientUnits="userSpaceOnUse" />
    <linearGradient
       inkscape:collect="always"
       xlink:href="#linearGradient578"
       id="linearGradient2960"
       gradientTransform="scale(1.145768,0.872777)"
       x1="15.020336"
       y1="30.794861"
       x2="28.793198"
       y2="30.794861"
       gradientUnits="userSpaceOnUse" />
  </defs>
  <sodipodi:namedview
     id="base"
     pagecolor="#ffffff"
     bordercolor="#666666"
     borderopacity="1.0"
     inkscape:pageopacity="0.0"
     inkscape:pageshadow="2"
     inkscape:zoom="7.9794719"
     inkscape:cx="22.837633"
     inkscape:cy="23.732827"
     inkscape:window-width="1400"
     inkscape:window-height="995"
     inkscape:window-x="0"
     inkscape:window-y="0"
     inkscape:current-layer="svg1" />
  <path
     style="font-size:12.000000px;fill-opacity:0.29999998;fill-rule:evenodd;stroke-width:1.0000000pt"
     d="M 9.8845444,52.999700 C 9.9084524,47.946557 14.159400,21.293017 32.399381,21.558884 C 54.537256,21.875367 55.547349,49.316032 55.986350,53.776017 C 56.119642,55.248062 52.133890,55.522160 51.340432,53.776017 C 49.147925,47.878460 44.376131,33.709508 44.192865,33.591789 C 42.225751,32.557811 51.645049,49.626294 49.910917,54.552332 C 48.547770,58.424548 39.956030,59.861766 34.901028,59.986547 C 29.472931,60.120539 20.183239,59.302166 18.461626,55.328648 C 16.371204,50.503914 23.947794,33.584661 23.464921,33.591789 C 22.106312,33.606570 17.198082,52.836401 16.674731,52.999700 C 13.964373,53.502236 9.9497594,53.987894 9.8845444,52.999700 z "
     id="path612"
     sodipodi:nodetypes="cssssssssss" />
  <path
     sodipodi:type="arc"
     style="font-size:12.000000px;fill-opacity:0.29999998;fill-rule:evenodd;stroke-width:1.0000000pt"
     id="path614"
     sodipodi:cx="36.656563"
     sodipodi:cy="15.354189"
     sodipodi:rx="10.339030"
     sodipodi:ry="10.339030"
     d="M 46.995593 15.354189 A 10.339030 10.339030 0 1 1  26.317533,15.354189 A 10.339030 10.339030 0 1 1  46.995593 15.354189 z"
     transform="matrix(1.195166,0.000000,0.000000,1.195166,-12.52050,-3.873789)" />
  <path
     style="font-size:12.000000px;fill:url(#linearGradient860);fill-opacity:1.0;fill-rule:evenodd;stroke:#261933;stroke-width:1.8750007;stroke-miterlimit:4.0000000;stroke-dasharray:none"
     d="M 7.4542224,50.120292 C 7.4781474,45.464146 11.732478,20.904628 29.986976,21.149607 C 52.142471,21.441224 53.153369,46.726029 53.592718,50.835617 C 53.726119,52.192011 49.737193,52.444575 48.943102,50.835617 C 46.748851,45.401398 41.973260,32.345622 41.789847,32.237154 C 39.821168,31.284408 49.247962,47.011915 47.512451,51.550943 C 46.148217,55.118939 37.549640,56.443244 32.490614,56.558222 C 27.058198,56.681685 17.761111,55.927609 16.038127,52.266267 C 13.946042,47.820586 21.528663,32.230585 21.045405,32.237154 C 19.685715,32.250773 14.773578,49.969823 14.249812,50.120292 C 11.537295,50.583346 7.5194864,51.030849 7.4542224,50.120292 z "
     id="path634"
     sodipodi:nodetypes="cssssssssss" />
  <path
     style="font-size:12.000000px;fill:url(#linearGradient862);fill-opacity:1.0000000;fill-rule:evenodd;stroke-width:1.0000000pt"
     d="M 14.736572,33.697357 C 13.730257,36.384794 20.111307,31.048463 22.978418,30.379892 C 25.715762,29.741582 26.372614,29.518751 31.549939,29.776717 C 34.622367,29.749068 41.332975,25.470250 38.143414,24.649724 C 19.861581,20.248246 15.234757,32.217617 14.736572,33.697357 z "
     id="path637"
     sodipodi:nodetypes="cssss" />
  <path
     sodipodi:type="arc"
     style="font-size:12.000000px;fill:url(#linearGradient581);fill-opacity:1.0;fill-rule:evenodd;stroke:#261933;stroke-width:1.6179404;stroke-dasharray:none;stroke-opacity:1.0000000"
     id="path608"
     sodipodi:cx="36.656563"
     sodipodi:cy="15.354189"
     sodipodi:rx="10.339030"
     sodipodi:ry="10.339030"
     d="M 46.995593 15.354189 A 10.339030 10.339030 0 1 1  26.317533,15.354189 A 10.339030 10.339030 0 1 1  46.995593 15.354189 z"
     transform="matrix(1.158880,0.000000,0.000000,1.158880,-13.20892,-4.870307)" />
  <path
     style="font-size:12.000000px;fill:url(#linearGradient583);fill-opacity:1.0;fill-rule:evenodd;stroke-width:1.0000000pt"
     d="M 25.903104,10.923891 C 27.863609,10.050816 29.157554,11.011123 30.684127,10.923891 C 33.141740,10.783456 37.979505,8.4155842 37.855663,8.1918779 C 34.545896,2.8300941 28.110022,2.3356039 24.195596,4.7768594 C 17.523469,8.9379721 19.957385,18.532991 21.463582,17.753925 C 23.258568,16.825483 22.837304,12.199579 25.903104,10.923891 z "
     id="path630"
     sodipodi:nodetypes="csssss" />
  <g
     id="g2947"
     transform="matrix(0.582284,0.000000,0.000000,0.582330,24.67595,25.52456)">
    <g
       id="g677"
       style="font-size:12.000000px;opacity:0.29999998;stroke:#000000"
       transform="matrix(1.018708,0.000000,0.000000,1.018708,-0.239744,-1.654373)">
      <ellipse
         id="path675"
         style="fill-rule:evenodd;stroke-width:2.0541000"
         transform="matrix(0.917566,0.000000,0.000000,0.917566,-11.48724,-5.833475)"
         ry="28.881311"
         rx="28.881311"
         cy="41.555550"
         cx="47.595680"
         sodipodi:cx="47.595680"
         sodipodi:cy="41.555550"
         sodipodi:rx="28.881311"
         sodipodi:ry="28.881311" />
      <ellipse
         id="path676"
         style="fill-rule:evenodd;stroke-width:0.99996119pt"
         transform="matrix(0.934849,0.000000,0.000000,0.934849,-7.035911,0.205833)"
         ry="21.773449"
         rx="21.773449"
         cy="34.267742"
         cx="42.107330"
         sodipodi:cx="42.107330"
         sodipodi:cy="34.267742"
         sodipodi:rx="21.773449"
         sodipodi:ry="21.773449" />
    </g>
    <ellipse
       id="path594"
       style="font-size:12.000000px;fill:url(#linearGradient566);fill-opacity:1.0000000;fill-rule:evenodd;stroke:#261933;stroke-width:3.6491711;stroke-miterlimit:4.0000000;stroke-dasharray:none"
       transform="matrix(0.917566,0.000000,0.000000,0.917566,-13.27717,-7.869533)"
       ry="28.881311"
       rx="28.881311"
       cy="41.555550"
       cx="47.595680"
       sodipodi:cx="47.595680"
       sodipodi:cy="41.555550"
       sodipodi:rx="28.881311"
       sodipodi:ry="28.881311" />
    <ellipse
       id="path623"
       style="font-size:12.000000px;fill:url(#linearGradient569);fill-opacity:1.0000000;fill-rule:evenodd;stroke:none;stroke-width:1.0000000pt;stroke-opacity:1.0000000"
       transform="matrix(0.934849,0.000000,0.000000,0.934849,-8.825834,-1.830225)"
       ry="21.773449"
       rx="21.773449"
       cy="34.267742"
       cx="42.107330"
       sodipodi:cx="42.107330"
       sodipodi:cy="34.267742"
       sodipodi:rx="21.773449"
       sodipodi:ry="21.773449" />
    <path
       id="path597"
       style="font-size:12.000000px;fill:url(#linearGradient2958);fill-opacity:1.0000000;fill-rule:evenodd;stroke:#261933;stroke-width:1.6252269;stroke-linejoin:round"
       d="M 29.729646,31.767259 C 29.185350,31.490022 28.279068,30.099522 28.694891,29.527788 L 35.262921,20.497121 L 31.820488,31.119815 C 31.621256,31.734605 30.227215,32.020697 29.729646,31.767259 z " />
    <path
       id="path598"
       style="font-size:12.000000px;fill:url(#linearGradient2960);fill-opacity:1.0000000;fill-rule:evenodd;stroke:#261933;stroke-width:1.8749272;stroke-linejoin:round"
       d="M 31.930328,31.249320 C 31.579490,31.749351 29.851431,32.294348 29.154560,31.669759 L 18.147320,21.804228 L 31.169236,28.798351 C 31.922882,29.203137 32.251048,30.792215 31.930328,31.249320 z " />
    <path
       id="path596"
       style="font-size:12.000000px;fill:url(#linearGradient575);fill-opacity:1.0000000;fill-rule:evenodd;stroke-width:1.0000000pt"
       d="M 51.521700,37.767313 C 50.214008,40.905774 47.905020,44.265763 45.429392,46.582697 C 43.105020,48.758070 40.383238,50.167313 37.306315,51.290390 C 40.721700,51.167313 44.602542,50.025183 46.998623,47.782697 C 49.402542,45.532876 51.337085,41.582697 51.521700,37.767313 z " />
    <path
       id="path593"
       style="font-size:12.000000px;fill:url(#linearGradient573);fill-opacity:1.0000000;fill-rule:evenodd;stroke-width:1.0000000pt"
       d="M 7.7561813,32.166731 C 7.9455882,25.310204 11.089488,17.241228 15.483980,12.960878 C 19.840084,8.7179207 28.060594,6.8998600 35.712630,7.6196059 C 29.348560,9.7599030 22.465482,12.178685 17.870506,16.654311 C 13.714886,20.701993 9.6881314,26.465585 7.7561813,32.166731 z " />
  </g>
</svg>
